<?xml version="1.0" encoding="UTF-8" standalone="no"?><svg xmlns="http://www.w3.org/2000/svg" xmlns:xlink="http://www.w3.org/1999/xlink" contentScriptType="application/ecmascript" contentStyleType="text/css" height="421px" preserveAspectRatio="none" style="width:472px;height:421px;" version="1.1" viewBox="0 0 472 421" width="472px" zoomAndPan="magnify"><defs><filter height="300%" id="f9xvrtptw2pmz" width="300%" x="-1" y="-1"><feGaussianBlur result="blurOut" stdDeviation="2.0"/><feColorMatrix in="blurOut" result="blurOut2" type="matrix" values="0 0 0 0 0 0 0 0 0 0 0 0 0 0 0 0 0 0 .4 0"/><feOffset dx="4.0" dy="4.0" in="blurOut2" result="blurOut3"/><feBlend in="SourceGraphic" in2="blurOut3" mode="normal"/></filter></defs><g><!--MD5=[807e60d65690f90b635f2d0b65606dc2]
class org.eclipse.epf.uma.impl.ActivityDescriptionImpl--><a href="ActivityDescriptionImpl.html" target="_top" title="ActivityDescriptionImpl.html" xlink:actuate="onRequest" xlink:href="ActivityDescriptionImpl.html" xlink:show="new" xlink:title="ActivityDescriptionImpl.html" xlink:type="simple"><rect codeLine="5" fill="#FEFECE" filter="url(#f9xvrtptw2pmz)" height="186.5469" id="org.eclipse.epf.uma.impl.ActivityDescriptionImpl" style="stroke: #A80036; stroke-width: 1.5;" width="193" x="155" y="198"/><ellipse cx="179.45" cy="218.0938" fill="#ADD1B2" rx="11" ry="11" style="stroke: #A80036; stroke-width: 1.0;"/><path d="M182.2156,213.9688 Q182.3719,213.75 182.5594,213.6406 Q182.7469,213.5313 182.9656,213.5313 Q183.3406,213.5313 183.575,213.7969 Q183.8094,214.0469 183.8094,214.6563 L183.8094,216.1094 Q183.8094,216.7188 183.575,216.9844 Q183.3406,217.25 182.9656,217.25 Q182.6219,217.25 182.4188,217.0469 Q182.2156,216.8594 182.1063,216.3438 Q182.0594,215.9844 181.8719,215.7969 Q181.5438,215.4219 180.9344,215.2031 Q180.325,214.9844 179.7,214.9844 Q178.9344,214.9844 178.2938,215.3125 Q177.6688,215.6406 177.1688,216.3906 Q176.6844,217.1406 176.6844,218.1719 L176.6844,219.2656 Q176.6844,220.5 177.575,221.3281 Q178.4656,222.1406 180.0594,222.1406 Q180.9969,222.1406 181.6531,221.8906 Q182.0438,221.7344 182.4656,221.2969 Q182.7313,221.0313 182.8719,220.9531 Q183.0281,220.875 183.2313,220.875 Q183.5594,220.875 183.8094,221.1406 Q184.075,221.3906 184.075,221.7344 Q184.075,222.0781 183.7313,222.4844 Q183.2313,223.0625 182.4344,223.3906 Q181.3563,223.8438 180.0594,223.8438 Q178.5438,223.8438 177.3406,223.2188 Q176.3563,222.7188 175.6688,221.6563 Q174.9813,220.5781 174.9813,219.2969 L174.9813,218.1406 Q174.9813,216.8125 175.5906,215.6719 Q176.2156,214.5156 177.3094,213.9063 Q178.4031,213.2813 179.6375,213.2813 Q180.3719,213.2813 181.0125,213.4531 Q181.6688,213.6094 182.2156,213.9688 Z "/><text fill="#000000" font-family="sans-serif" font-size="14" lengthAdjust="spacingAndGlyphs" textLength="140" x="195.55" y="217.5332">ActivityDescriptionImpl</text><text fill="#000000" font-family="sans-serif" font-size="10" lengthAdjust="spacingAndGlyphs" textLength="118" x="206.55" y="230.9902">org.eclipse.epf.uma.impl</text><line style="stroke: #A80036; stroke-width: 1.5;" x1="156" x2="347" y1="238.1875" y2="238.1875"/><ellipse cx="166" cy="249.1875" fill="#84BE84" rx="3" ry="3" style="stroke: #038048; stroke-width: 1.0;"/><text fill="#000000" font-family="sans-serif" font-size="11" lengthAdjust="spacingAndGlyphs" textLength="97" x="175" y="253.6064">getPurpose(): String</text><ellipse cx="166" cy="263.0234" fill="#84BE84" rx="3" ry="3" style="stroke: #038048; stroke-width: 1.0;"/><text fill="#000000" font-family="sans-serif" font-size="11" lengthAdjust="spacingAndGlyphs" textLength="117" x="175" y="267.4424">setPurpose(String): void</text><ellipse cx="166" cy="276.8594" fill="#84BE84" rx="3" ry="3" style="stroke: #038048; stroke-width: 1.0;"/><text fill="#000000" font-family="sans-serif" font-size="11" lengthAdjust="spacingAndGlyphs" textLength="115" x="175" y="281.2783">getAlternatives(): String</text><ellipse cx="166" cy="290.6953" fill="#84BE84" rx="3" ry="3" style="stroke: #038048; stroke-width: 1.0;"/><text fill="#000000" font-family="sans-serif" font-size="11" lengthAdjust="spacingAndGlyphs" textLength="135" x="175" y="295.1143">setAlternatives(String): void</text><ellipse cx="166" cy="304.5313" fill="#84BE84" rx="3" ry="3" style="stroke: #038048; stroke-width: 1.0;"/><text fill="#000000" font-family="sans-serif" font-size="11" lengthAdjust="spacingAndGlyphs" textLength="113" x="175" y="308.9502">getHowtoStaff(): String</text><ellipse cx="166" cy="318.3672" fill="#84BE84" rx="3" ry="3" style="stroke: #038048; stroke-width: 1.0;"/><text fill="#000000" font-family="sans-serif" font-size="11" lengthAdjust="spacingAndGlyphs" textLength="133" x="175" y="322.7861">setHowtoStaff(String): void</text><ellipse cx="166" cy="332.2031" fill="#84BE84" rx="3" ry="3" style="stroke: #038048; stroke-width: 1.0;"/><text fill="#000000" font-family="sans-serif" font-size="11" lengthAdjust="spacingAndGlyphs" textLength="167" x="175" y="336.6221">eGet(int, boolean, boolean): Object</text><ellipse cx="166" cy="346.0391" fill="#84BE84" rx="3" ry="3" style="stroke: #038048; stroke-width: 1.0;"/><text fill="#000000" font-family="sans-serif" font-size="11" lengthAdjust="spacingAndGlyphs" textLength="104" x="175" y="350.458">eSet(int, Object): void</text><ellipse cx="166" cy="359.875" fill="#84BE84" rx="3" ry="3" style="stroke: #038048; stroke-width: 1.0;"/><text fill="#000000" font-family="sans-serif" font-size="11" lengthAdjust="spacingAndGlyphs" textLength="79" x="175" y="364.2939">eUnset(int): void</text><ellipse cx="166" cy="373.7109" fill="#84BE84" rx="3" ry="3" style="stroke: #038048; stroke-width: 1.0;"/><text fill="#000000" font-family="sans-serif" font-size="11" lengthAdjust="spacingAndGlyphs" textLength="93" x="175" y="378.1299">eIsSet(int): boolean</text></a><!--MD5=[dc58ab8070c6434205d283b7e3cad5c3]
class org.eclipse.epf.uma.impl.BreakdownElementDescriptionImpl--><a href="BreakdownElementDescriptionImpl.html" target="_top" title="BreakdownElementDescriptionImpl.html" xlink:actuate="onRequest" xlink:href="BreakdownElementDescriptionImpl.html" xlink:show="new" xlink:title="BreakdownElementDescriptionImpl.html" xlink:type="simple"><rect codeLine="18" fill="#FEFECE" filter="url(#f9xvrtptw2pmz)" height="40.1875" id="org.eclipse.epf.uma.impl.BreakdownElementDescriptionImpl" style="stroke: #A80036; stroke-width: 1.5;" width="249" x="7" y="52.5"/><ellipse cx="22" cy="72.5938" fill="#ADD1B2" rx="11" ry="11" style="stroke: #A80036; stroke-width: 1.0;"/><path d="M24.7656,68.4688 Q24.9219,68.25 25.1094,68.1406 Q25.2969,68.0313 25.5156,68.0313 Q25.8906,68.0313 26.125,68.2969 Q26.3594,68.5469 26.3594,69.1563 L26.3594,70.6094 Q26.3594,71.2188 26.125,71.4844 Q25.8906,71.75 25.5156,71.75 Q25.1719,71.75 24.9688,71.5469 Q24.7656,71.3594 24.6563,70.8438 Q24.6094,70.4844 24.4219,70.2969 Q24.0938,69.9219 23.4844,69.7031 Q22.875,69.4844 22.25,69.4844 Q21.4844,69.4844 20.8438,69.8125 Q20.2188,70.1406 19.7188,70.8906 Q19.2344,71.6406 19.2344,72.6719 L19.2344,73.7656 Q19.2344,75 20.125,75.8281 Q21.0156,76.6406 22.6094,76.6406 Q23.5469,76.6406 24.2031,76.3906 Q24.5938,76.2344 25.0156,75.7969 Q25.2813,75.5313 25.4219,75.4531 Q25.5781,75.375 25.7813,75.375 Q26.1094,75.375 26.3594,75.6406 Q26.625,75.8906 26.625,76.2344 Q26.625,76.5781 26.2813,76.9844 Q25.7813,77.5625 24.9844,77.8906 Q23.9063,78.3438 22.6094,78.3438 Q21.0938,78.3438 19.8906,77.7188 Q18.9063,77.2188 18.2188,76.1563 Q17.5313,75.0781 17.5313,73.7969 L17.5313,72.6406 Q17.5313,71.3125 18.1406,70.1719 Q18.7656,69.0156 19.8594,68.4063 Q20.9531,67.7813 22.1875,67.7813 Q22.9219,67.7813 23.5625,67.9531 Q24.2188,68.1094 24.7656,68.4688 Z "/><text fill="#000000" font-family="sans-serif" font-size="14" lengthAdjust="spacingAndGlyphs" textLength="217" x="36" y="72.0332">BreakdownElementDescriptionImpl</text><text fill="#000000" font-family="sans-serif" font-size="10" lengthAdjust="spacingAndGlyphs" textLength="118" x="85.5" y="85.4902">org.eclipse.epf.uma.impl</text></a><!--MD5=[9affc0b34ba543bb86815626ec1d49a7]
class org.eclipse.epf.uma.ActivityDescription--><a href="..\ActivityDescription.html" target="_top" title="..\ActivityDescription.html" xlink:actuate="onRequest" xlink:href="..\ActivityDescription.html" xlink:show="new" xlink:title="..\ActivityDescription.html" xlink:type="simple"><rect codeLine="19" fill="#FEFECE" filter="url(#f9xvrtptw2pmz)" height="131.2031" id="org.eclipse.epf.uma.ActivityDescription" style="stroke: #A80036; stroke-width: 1.5;" width="162" x="291.5" y="7"/><ellipse cx="313.7" cy="27.0938" fill="#B4A7E5" rx="11" ry="11" style="stroke: #A80036; stroke-width: 1.0;"/><path d="M314.6531,23.7344 L314.6531,30.3906 L316.3719,30.3906 Q316.9813,30.3906 317.2469,30.625 Q317.5125,30.8594 317.5125,31.25 Q317.5125,31.625 317.2469,31.8594 Q316.9813,32.0938 316.3719,32.0938 L311.2313,32.0938 Q310.6219,32.0938 310.3563,31.8594 Q310.0906,31.625 310.0906,31.2344 Q310.0906,30.8594 310.3563,30.625 Q310.6219,30.3906 311.2313,30.3906 L312.95,30.3906 L312.95,23.7344 L311.2313,23.7344 Q310.6219,23.7344 310.3563,23.5 Q310.0906,23.2656 310.0906,22.875 Q310.0906,22.5 310.3563,22.2656 Q310.6219,22.0313 311.2313,22.0313 L316.3719,22.0313 Q316.9813,22.0313 317.2469,22.2656 Q317.5125,22.5 317.5125,22.875 Q317.5125,23.2656 317.2469,23.5 Q316.9813,23.7344 316.3719,23.7344 L314.6531,23.7344 Z "/><text fill="#000000" font-family="sans-serif" font-size="14" font-style="italic" lengthAdjust="spacingAndGlyphs" textLength="114" x="329.3" y="26.5332">ActivityDescription</text><text fill="#000000" font-family="sans-serif" font-size="10" font-style="italic" lengthAdjust="spacingAndGlyphs" textLength="92" x="340.3" y="39.9902">org.eclipse.epf.uma</text><line style="stroke: #A80036; stroke-width: 1.5;" x1="292.5" x2="452.5" y1="47.1875" y2="47.1875"/><ellipse cx="302.5" cy="58.1875" fill="#84BE84" rx="3" ry="3" style="stroke: #038048; stroke-width: 1.0;"/><text fill="#000000" font-family="sans-serif" font-size="11" font-style="italic" lengthAdjust="spacingAndGlyphs" textLength="99" x="311.5" y="62.6064">getPurpose(): String</text><ellipse cx="302.5" cy="72.0234" fill="#84BE84" rx="3" ry="3" style="stroke: #038048; stroke-width: 1.0;"/><text fill="#000000" font-family="sans-serif" font-size="11" font-style="italic" lengthAdjust="spacingAndGlyphs" textLength="119" x="311.5" y="76.4424">setPurpose(String): void</text><ellipse cx="302.5" cy="85.8594" fill="#84BE84" rx="3" ry="3" style="stroke: #038048; stroke-width: 1.0;"/><text fill="#000000" font-family="sans-serif" font-size="11" font-style="italic" lengthAdjust="spacingAndGlyphs" textLength="116" x="311.5" y="90.2783">getAlternatives(): String</text><ellipse cx="302.5" cy="99.6953" fill="#84BE84" rx="3" ry="3" style="stroke: #038048; stroke-width: 1.0;"/><text fill="#000000" font-family="sans-serif" font-size="11" font-style="italic" lengthAdjust="spacingAndGlyphs" textLength="136" x="311.5" y="104.1143">setAlternatives(String): void</text><ellipse cx="302.5" cy="113.5313" fill="#84BE84" rx="3" ry="3" style="stroke: #038048; stroke-width: 1.0;"/><text fill="#000000" font-family="sans-serif" font-size="11" font-style="italic" lengthAdjust="spacingAndGlyphs" textLength="110" x="311.5" y="117.9502">getHowtoStaff(): String</text><ellipse cx="302.5" cy="127.3672" fill="#84BE84" rx="3" ry="3" style="stroke: #038048; stroke-width: 1.0;"/><text fill="#000000" font-family="sans-serif" font-size="11" font-style="italic" lengthAdjust="spacingAndGlyphs" textLength="130" x="311.5" y="131.7861">setHowtoStaff(String): void</text></a><!--MD5=[30ac8498ccef583c827b9b00e0843b13]
reverse link org.eclipse.epf.uma.impl.BreakdownElementDescriptionImpl to org.eclipse.epf.uma.impl.ActivityDescriptionImpl--><path codeLine="28" d="M151.9,110.39 C165.21,134.45 183.21,167 200.25,197.82 " fill="none" id="org.eclipse.epf.uma.impl.BreakdownElementDescriptionImpl-backto-org.eclipse.epf.uma.impl.ActivityDescriptionImpl" style="stroke: #A80036; stroke-width: 1.0;"/><polygon fill="none" points="145.7,113.65,142.15,92.76,157.95,106.87,145.7,113.65" style="stroke: #A80036; stroke-width: 1.0;"/><!--MD5=[4d43537b9e4a115aaa23d65be336c1e0]
reverse link org.eclipse.epf.uma.ActivityDescription to org.eclipse.epf.uma.impl.ActivityDescriptionImpl--><path codeLine="29" d="M326.69,155.66 C319.03,169.39 311.03,183.73 303.24,197.72 " fill="none" id="org.eclipse.epf.uma.ActivityDescription-backto-org.eclipse.epf.uma.impl.ActivityDescriptionImpl" style="stroke: #A80036; stroke-width: 1.0; stroke-dasharray: 7.0,7.0;"/><polygon fill="none" points="320.67,152.08,336.52,138.02,332.9,158.9,320.67,152.08" style="stroke: #A80036; stroke-width: 1.0;"/><text fill="#888888" font-family="sans-serif" font-size="10" lengthAdjust="spacingAndGlyphs" textLength="190" x="132.25" y="407.9277">UMLDoclet 2.0.12, PlantUML 1.2020.16</text><!--MD5=[78931b91b9e4fdfea811a0da54bfccba]
@startuml
    set namespaceSeparator none
    hide empty fields
    hide empty methods

    class "<size:14>ActivityDescriptionImpl\n<size:10>org.eclipse.epf.uma.impl" as org.eclipse.epf.uma.impl.ActivityDescriptionImpl [[ActivityDescriptionImpl.html]] {
        +getPurpose(): String
        +setPurpose(String): void
        +getAlternatives(): String
        +setAlternatives(String): void
        +getHowtoStaff(): String
        +setHowtoStaff(String): void
        +eGet(int, boolean, boolean): Object
        +eSet(int, Object): void
        +eUnset(int): void
        +eIsSet(int): boolean
    }

    class "<size:14>BreakdownElementDescriptionImpl\n<size:10>org.eclipse.epf.uma.impl" as org.eclipse.epf.uma.impl.BreakdownElementDescriptionImpl [[BreakdownElementDescriptionImpl.html]]
    interface "<size:14>ActivityDescription\n<size:10>org.eclipse.epf.uma" as org.eclipse.epf.uma.ActivityDescription [[..\ActivityDescription.html]] {
        {abstract} +getPurpose(): String
        {abstract} +setPurpose(String): void
        {abstract} +getAlternatives(): String
        {abstract} +setAlternatives(String): void
        {abstract} +getHowtoStaff(): String
        {abstract} +setHowtoStaff(String): void
    }

    org.eclipse.epf.uma.impl.BreakdownElementDescriptionImpl <|- - org.eclipse.epf.uma.impl.ActivityDescriptionImpl
    org.eclipse.epf.uma.ActivityDescription <|.. org.eclipse.epf.uma.impl.ActivityDescriptionImpl

    center footer UMLDoclet 2.0.12, PlantUML 1.2020.16
@enduml

PlantUML version 1.2020.16(Sun Aug 23 22:20:43 CEST 2020)
(APACHE source distribution)
Java Runtime: Java(TM) SE Runtime Environment
JVM: Java HotSpot(TM) 64-Bit Server VM
Default Encoding: Cp1252
Language: es
Country: ES
--></g></svg>