<?xml version="1.0" encoding="UTF-8" standalone="no"?><svg xmlns="http://www.w3.org/2000/svg" xmlns:xlink="http://www.w3.org/1999/xlink" contentScriptType="application/ecmascript" contentStyleType="text/css" height="560px" preserveAspectRatio="none" style="width:562px;height:560px;" version="1.1" viewBox="0 0 562 560" width="562px" zoomAndPan="magnify"><defs><filter height="300%" id="f1exirgckfgfjk" width="300%" x="-1" y="-1"><feGaussianBlur result="blurOut" stdDeviation="2.0"/><feColorMatrix in="blurOut" result="blurOut2" type="matrix" values="0 0 0 0 0 0 0 0 0 0 0 0 0 0 0 0 0 0 .4 0"/><feOffset dx="4.0" dy="4.0" in="blurOut2" result="blurOut3"/><feBlend in="SourceGraphic" in2="blurOut3" mode="normal"/></filter></defs><g><!--MD5=[d1008efaee83a2c82ea7425aab81f830]
class org.eclipse.epf.uma.impl.ActivityImpl--><a href="ActivityImpl.html" target="_top" title="ActivityImpl.html" xlink:actuate="onRequest" xlink:href="ActivityImpl.html" xlink:show="new" xlink:title="ActivityImpl.html" xlink:type="simple"><rect codeLine="5" fill="#FEFECE" filter="url(#f1exirgckfgfjk)" height="380.25" id="org.eclipse.epf.uma.impl.ActivityImpl" style="stroke: #A80036; stroke-width: 1.5;" width="376" x="69.5" y="143"/><ellipse cx="194.25" cy="163.0938" fill="#ADD1B2" rx="11" ry="11" style="stroke: #A80036; stroke-width: 1.0;"/><path d="M197.0156,158.9688 Q197.1719,158.75 197.3594,158.6406 Q197.5469,158.5313 197.7656,158.5313 Q198.1406,158.5313 198.375,158.7969 Q198.6094,159.0469 198.6094,159.6563 L198.6094,161.1094 Q198.6094,161.7188 198.375,161.9844 Q198.1406,162.25 197.7656,162.25 Q197.4219,162.25 197.2188,162.0469 Q197.0156,161.8594 196.9063,161.3438 Q196.8594,160.9844 196.6719,160.7969 Q196.3438,160.4219 195.7344,160.2031 Q195.125,159.9844 194.5,159.9844 Q193.7344,159.9844 193.0938,160.3125 Q192.4688,160.6406 191.9688,161.3906 Q191.4844,162.1406 191.4844,163.1719 L191.4844,164.2656 Q191.4844,165.5 192.375,166.3281 Q193.2656,167.1406 194.8594,167.1406 Q195.7969,167.1406 196.4531,166.8906 Q196.8438,166.7344 197.2656,166.2969 Q197.5313,166.0313 197.6719,165.9531 Q197.8281,165.875 198.0313,165.875 Q198.3594,165.875 198.6094,166.1406 Q198.875,166.3906 198.875,166.7344 Q198.875,167.0781 198.5313,167.4844 Q198.0313,168.0625 197.2344,168.3906 Q196.1563,168.8438 194.8594,168.8438 Q193.3438,168.8438 192.1406,168.2188 Q191.1563,167.7188 190.4688,166.6563 Q189.7813,165.5781 189.7813,164.2969 L189.7813,163.1406 Q189.7813,161.8125 190.3906,160.6719 Q191.0156,159.5156 192.1094,158.9063 Q193.2031,158.2813 194.4375,158.2813 Q195.1719,158.2813 195.8125,158.4531 Q196.4688,158.6094 197.0156,158.9688 Z "/><text fill="#000000" font-family="sans-serif" font-size="14" lengthAdjust="spacingAndGlyphs" textLength="69" x="239.25" y="162.5332">ActivityImpl</text><text fill="#000000" font-family="sans-serif" font-size="10" lengthAdjust="spacingAndGlyphs" textLength="118" x="214.75" y="175.9902">org.eclipse.epf.uma.impl</text><line style="stroke: #A80036; stroke-width: 1.5;" x1="70.5" x2="444.5" y1="183.1875" y2="183.1875"/><ellipse cx="80.5" cy="194.1875" fill="#84BE84" rx="3" ry="3" style="stroke: #038048; stroke-width: 1.0;"/><text fill="#000000" font-family="sans-serif" font-size="11" lengthAdjust="spacingAndGlyphs" textLength="175" x="89.5" y="198.6064">getFulfills(): EList&lt;FulfillableElement&gt;</text><ellipse cx="80.5" cy="208.0234" fill="#84BE84" rx="3" ry="3" style="stroke: #038048; stroke-width: 1.0;"/><text fill="#000000" font-family="sans-serif" font-size="11" lengthAdjust="spacingAndGlyphs" textLength="171" x="89.5" y="212.4424">getVariabilityType(): VariabilityType</text><ellipse cx="80.5" cy="221.8594" fill="#84BE84" rx="3" ry="3" style="stroke: #038048; stroke-width: 1.0;"/><text fill="#000000" font-family="sans-serif" font-size="11" lengthAdjust="spacingAndGlyphs" textLength="191" x="89.5" y="226.2783">setVariabilityType(VariabilityType): void</text><ellipse cx="80.5" cy="235.6953" fill="#84BE84" rx="3" ry="3" style="stroke: #038048; stroke-width: 1.0;"/><text fill="#000000" font-family="sans-serif" font-size="11" lengthAdjust="spacingAndGlyphs" textLength="242" x="89.5" y="240.1143">getVariabilityBasedOnElement(): VariabilityElement</text><ellipse cx="80.5" cy="249.5313" fill="#84BE84" rx="3" ry="3" style="stroke: #038048; stroke-width: 1.0;"/><text fill="#000000" font-family="sans-serif" font-size="11" lengthAdjust="spacingAndGlyphs" textLength="270" x="89.5" y="253.9502">basicGetVariabilityBasedOnElement(): VariabilityElement</text><ellipse cx="80.5" cy="263.3672" fill="#84BE84" rx="3" ry="3" style="stroke: #038048; stroke-width: 1.0;"/><text fill="#000000" font-family="sans-serif" font-size="11" lengthAdjust="spacingAndGlyphs" textLength="262" x="89.5" y="267.7861">setVariabilityBasedOnElement(VariabilityElement): void</text><ellipse cx="80.5" cy="277.2031" fill="#84BE84" rx="3" ry="3" style="stroke: #038048; stroke-width: 1.0;"/><text fill="#000000" font-family="sans-serif" font-size="11" lengthAdjust="spacingAndGlyphs" textLength="137" x="89.5" y="281.6221">getPrecondition(): Constraint</text><ellipse cx="80.5" cy="291.0391" fill="#84BE84" rx="3" ry="3" style="stroke: #038048; stroke-width: 1.0;"/><text fill="#000000" font-family="sans-serif" font-size="11" lengthAdjust="spacingAndGlyphs" textLength="165" x="89.5" y="295.458">basicGetPrecondition(): Constraint</text><ellipse cx="80.5" cy="304.875" fill="#84BE84" rx="3" ry="3" style="stroke: #038048; stroke-width: 1.0;"/><text fill="#000000" font-family="sans-serif" font-size="11" lengthAdjust="spacingAndGlyphs" textLength="330" x="89.5" y="309.2939">basicSetPrecondition(Constraint, NotificationChain): NotificationChain</text><ellipse cx="80.5" cy="318.7109" fill="#84BE84" rx="3" ry="3" style="stroke: #038048; stroke-width: 1.0;"/><text fill="#000000" font-family="sans-serif" font-size="11" lengthAdjust="spacingAndGlyphs" textLength="157" x="89.5" y="323.1299">setPrecondition(Constraint): void</text><ellipse cx="80.5" cy="332.5469" fill="#84BE84" rx="3" ry="3" style="stroke: #038048; stroke-width: 1.0;"/><text fill="#000000" font-family="sans-serif" font-size="11" lengthAdjust="spacingAndGlyphs" textLength="142" x="89.5" y="336.9658">getPostcondition(): Constraint</text><ellipse cx="80.5" cy="346.3828" fill="#84BE84" rx="3" ry="3" style="stroke: #038048; stroke-width: 1.0;"/><text fill="#000000" font-family="sans-serif" font-size="11" lengthAdjust="spacingAndGlyphs" textLength="170" x="89.5" y="350.8018">basicGetPostcondition(): Constraint</text><ellipse cx="80.5" cy="360.2188" fill="#84BE84" rx="3" ry="3" style="stroke: #038048; stroke-width: 1.0;"/><text fill="#000000" font-family="sans-serif" font-size="11" lengthAdjust="spacingAndGlyphs" textLength="335" x="89.5" y="364.6377">basicSetPostcondition(Constraint, NotificationChain): NotificationChain</text><ellipse cx="80.5" cy="374.0547" fill="#84BE84" rx="3" ry="3" style="stroke: #038048; stroke-width: 1.0;"/><text fill="#000000" font-family="sans-serif" font-size="11" lengthAdjust="spacingAndGlyphs" textLength="162" x="89.5" y="378.4736">setPostcondition(Constraint): void</text><ellipse cx="80.5" cy="387.8906" fill="#84BE84" rx="3" ry="3" style="stroke: #038048; stroke-width: 1.0;"/><text fill="#000000" font-family="sans-serif" font-size="11" lengthAdjust="spacingAndGlyphs" textLength="256" x="89.5" y="392.3096">getBreakdownElements(): EList&lt;BreakdownElement&gt;</text><ellipse cx="80.5" cy="401.7266" fill="#84BE84" rx="3" ry="3" style="stroke: #038048; stroke-width: 1.0;"/><text fill="#000000" font-family="sans-serif" font-size="11" lengthAdjust="spacingAndGlyphs" textLength="160" x="89.5" y="406.1455">getRoadmaps(): EList&lt;Roadmap&gt;</text><ellipse cx="80.5" cy="415.5625" fill="#84BE84" rx="3" ry="3" style="stroke: #038048; stroke-width: 1.0;"/><text fill="#000000" font-family="sans-serif" font-size="11" lengthAdjust="spacingAndGlyphs" textLength="331" x="89.5" y="419.9814">eInverseAdd(InternalEObject, int, NotificationChain): NotificationChain</text><ellipse cx="80.5" cy="429.3984" fill="#84BE84" rx="3" ry="3" style="stroke: #038048; stroke-width: 1.0;"/><text fill="#000000" font-family="sans-serif" font-size="11" lengthAdjust="spacingAndGlyphs" textLength="350" x="89.5" y="433.8174">eInverseRemove(InternalEObject, int, NotificationChain): NotificationChain</text><ellipse cx="80.5" cy="443.2344" fill="#84BE84" rx="3" ry="3" style="stroke: #038048; stroke-width: 1.0;"/><text fill="#000000" font-family="sans-serif" font-size="11" lengthAdjust="spacingAndGlyphs" textLength="167" x="89.5" y="447.6533">eGet(int, boolean, boolean): Object</text><ellipse cx="80.5" cy="457.0703" fill="#84BE84" rx="3" ry="3" style="stroke: #038048; stroke-width: 1.0;"/><text fill="#000000" font-family="sans-serif" font-size="11" lengthAdjust="spacingAndGlyphs" textLength="104" x="89.5" y="461.4893">eSet(int, Object): void</text><ellipse cx="80.5" cy="470.9063" fill="#84BE84" rx="3" ry="3" style="stroke: #038048; stroke-width: 1.0;"/><text fill="#000000" font-family="sans-serif" font-size="11" lengthAdjust="spacingAndGlyphs" textLength="79" x="89.5" y="475.3252">eUnset(int): void</text><ellipse cx="80.5" cy="484.7422" fill="#84BE84" rx="3" ry="3" style="stroke: #038048; stroke-width: 1.0;"/><text fill="#000000" font-family="sans-serif" font-size="11" lengthAdjust="spacingAndGlyphs" textLength="93" x="89.5" y="489.1611">eIsSet(int): boolean</text><ellipse cx="80.5" cy="498.5781" fill="#84BE84" rx="3" ry="3" style="stroke: #038048; stroke-width: 1.0;"/><text fill="#000000" font-family="sans-serif" font-size="11" lengthAdjust="spacingAndGlyphs" textLength="211" x="89.5" y="502.9971">eBaseStructuralFeatureID(int, Class&lt;?&gt;): int</text><ellipse cx="80.5" cy="512.4141" fill="#84BE84" rx="3" ry="3" style="stroke: #038048; stroke-width: 1.0;"/><text fill="#000000" font-family="sans-serif" font-size="11" lengthAdjust="spacingAndGlyphs" textLength="223" x="89.5" y="516.833">eDerivedStructuralFeatureID(int, Class&lt;?&gt;): int</text></a><!--MD5=[b136c1013b364026b1c1cadbae011495]
class org.eclipse.epf.uma.impl.WorkBreakdownElementImpl--><a href="WorkBreakdownElementImpl.html" target="_top" title="WorkBreakdownElementImpl.html" xlink:actuate="onRequest" xlink:href="WorkBreakdownElementImpl.html" xlink:show="new" xlink:title="WorkBreakdownElementImpl.html" xlink:type="simple"><rect codeLine="32" fill="#FEFECE" filter="url(#f1exirgckfgfjk)" height="40.1875" id="org.eclipse.epf.uma.impl.WorkBreakdownElementImpl" style="stroke: #A80036; stroke-width: 1.5;" width="215" x="7" y="25"/><ellipse cx="22" cy="45.0938" fill="#A9DCDF" rx="11" ry="11" style="stroke: #A80036; stroke-width: 1.0;"/><path d="M24.1875,46.8594 L20.0469,46.8594 L19.625,47.8906 L20.0469,47.8906 Q20.6563,47.8906 20.9219,48.125 Q21.1875,48.3594 21.1875,48.75 Q21.1875,49.125 20.9219,49.3594 Q20.6563,49.5938 20.0469,49.5938 L17.75,49.5938 Q17.1406,49.5938 16.8906,49.3594 Q16.625,49.125 16.625,48.7344 Q16.625,48.3594 16.9063,48.125 Q17.1719,47.875 17.7969,47.8906 L20.4688,41.2344 L19.3594,41.2344 Q18.75,41.2344 18.4844,41 Q18.2188,40.7656 18.2188,40.375 Q18.2188,40 18.4844,39.7656 Q18.75,39.5313 19.3594,39.5313 L23.0313,39.5313 L26.4219,47.8906 Q27.0156,47.8906 27.2031,48.0313 Q27.5938,48.2969 27.5938,48.75 Q27.5938,49.125 27.3281,49.3594 Q27.0781,49.5938 26.4688,49.5938 L24.1719,49.5938 Q23.5625,49.5938 23.2969,49.3594 Q23.0313,49.125 23.0313,48.7344 Q23.0313,48.3594 23.2969,48.125 Q23.5625,47.8906 24.1719,47.8906 L24.5938,47.8906 L24.1875,46.8594 Z M23.4688,45.1563 L22.1094,41.7813 L20.7344,45.1563 L23.4688,45.1563 Z "/><text fill="#000000" font-family="sans-serif" font-size="14" font-style="italic" lengthAdjust="spacingAndGlyphs" textLength="183" x="36" y="44.5332">WorkBreakdownElementImpl</text><text fill="#000000" font-family="sans-serif" font-size="10" font-style="italic" lengthAdjust="spacingAndGlyphs" textLength="114" x="70.5" y="57.9902">org.eclipse.epf.uma.impl</text></a><!--MD5=[8befe719594d6caeea4858f50e8183da]
class org.eclipse.epf.uma.Activity--><a href="..\Activity.html" target="_top" title="..\Activity.html" xlink:actuate="onRequest" xlink:href="..\Activity.html" xlink:show="new" xlink:title="..\Activity.html" xlink:type="simple"><rect codeLine="33" fill="#FEFECE" filter="url(#f1exirgckfgfjk)" height="75.8594" id="org.eclipse.epf.uma.Activity" style="stroke: #A80036; stroke-width: 1.5;" width="286" x="257.5" y="7"/><ellipse cx="350.25" cy="27.0938" fill="#B4A7E5" rx="11" ry="11" style="stroke: #A80036; stroke-width: 1.0;"/><path d="M351.2031,23.7344 L351.2031,30.3906 L352.9219,30.3906 Q353.5313,30.3906 353.7969,30.625 Q354.0625,30.8594 354.0625,31.25 Q354.0625,31.625 353.7969,31.8594 Q353.5313,32.0938 352.9219,32.0938 L347.7813,32.0938 Q347.1719,32.0938 346.9063,31.8594 Q346.6406,31.625 346.6406,31.2344 Q346.6406,30.8594 346.9063,30.625 Q347.1719,30.3906 347.7813,30.3906 L349.5,30.3906 L349.5,23.7344 L347.7813,23.7344 Q347.1719,23.7344 346.9063,23.5 Q346.6406,23.2656 346.6406,22.875 Q346.6406,22.5 346.9063,22.2656 Q347.1719,22.0313 347.7813,22.0313 L352.9219,22.0313 Q353.5313,22.0313 353.7969,22.2656 Q354.0625,22.5 354.0625,22.875 Q354.0625,23.2656 353.7969,23.5 Q353.5313,23.7344 352.9219,23.7344 L351.2031,23.7344 Z "/><text fill="#000000" font-family="sans-serif" font-size="14" font-style="italic" lengthAdjust="spacingAndGlyphs" textLength="43" x="395.25" y="26.5332">Activity</text><text fill="#000000" font-family="sans-serif" font-size="10" font-style="italic" lengthAdjust="spacingAndGlyphs" textLength="92" x="370.75" y="39.9902">org.eclipse.epf.uma</text><line style="stroke: #A80036; stroke-width: 1.5;" x1="258.5" x2="542.5" y1="47.1875" y2="47.1875"/><ellipse cx="268.5" cy="58.1875" fill="#84BE84" rx="3" ry="3" style="stroke: #038048; stroke-width: 1.0;"/><text fill="#000000" font-family="sans-serif" font-size="11" font-style="italic" lengthAdjust="spacingAndGlyphs" textLength="260" x="277.5" y="62.6064">getBreakdownElements(): EList&lt;BreakdownElement&gt;</text><ellipse cx="268.5" cy="72.0234" fill="#84BE84" rx="3" ry="3" style="stroke: #038048; stroke-width: 1.0;"/><text fill="#000000" font-family="sans-serif" font-size="11" font-style="italic" lengthAdjust="spacingAndGlyphs" textLength="166" x="277.5" y="76.4424">getRoadmaps(): EList&lt;Roadmap&gt;</text></a><!--MD5=[95170834d8b7f743302717ca69207a5c]
reverse link org.eclipse.epf.uma.impl.WorkBreakdownElementImpl to org.eclipse.epf.uma.impl.ActivityImpl--><path codeLine="38" d="M133.16,83.33 C141.4,99.81 151.76,120.52 162.96,142.92 " fill="none" id="org.eclipse.epf.uma.impl.WorkBreakdownElementImpl-backto-org.eclipse.epf.uma.impl.ActivityImpl" style="stroke: #A80036; stroke-width: 1.0;"/><polygon fill="none" points="126.79,86.23,124.1,65.21,139.31,79.97,126.79,86.23" style="stroke: #A80036; stroke-width: 1.0;"/><!--MD5=[c684a4466d969523cd389d2dd9d7cd34]
reverse link org.eclipse.epf.uma.Activity to org.eclipse.epf.uma.impl.ActivityImpl--><path codeLine="39" d="M372.98,101.05 C366.65,113.7 359.57,127.85 352.12,142.76 " fill="none" id="org.eclipse.epf.uma.Activity-backto-org.eclipse.epf.uma.impl.ActivityImpl" style="stroke: #A80036; stroke-width: 1.0; stroke-dasharray: 7.0,7.0;"/><polygon fill="none" points="366.75,97.85,381.95,83.1,379.27,104.12,366.75,97.85" style="stroke: #A80036; stroke-width: 1.0;"/><text fill="#888888" font-family="sans-serif" font-size="10" lengthAdjust="spacingAndGlyphs" textLength="190" x="177.25" y="546.6309">UMLDoclet 2.0.12, PlantUML 1.2020.16</text><!--MD5=[605e803e544224825b7387afc0daf8b0]
@startuml
    set namespaceSeparator none
    hide empty fields
    hide empty methods

    class "<size:14>ActivityImpl\n<size:10>org.eclipse.epf.uma.impl" as org.eclipse.epf.uma.impl.ActivityImpl [[ActivityImpl.html]] {
        +getFulfills(): EList<FulfillableElement>
        +getVariabilityType(): VariabilityType
        +setVariabilityType(VariabilityType): void
        +getVariabilityBasedOnElement(): VariabilityElement
        +basicGetVariabilityBasedOnElement(): VariabilityElement
        +setVariabilityBasedOnElement(VariabilityElement): void
        +getPrecondition(): Constraint
        +basicGetPrecondition(): Constraint
        +basicSetPrecondition(Constraint, NotificationChain): NotificationChain
        +setPrecondition(Constraint): void
        +getPostcondition(): Constraint
        +basicGetPostcondition(): Constraint
        +basicSetPostcondition(Constraint, NotificationChain): NotificationChain
        +setPostcondition(Constraint): void
        +getBreakdownElements(): EList<BreakdownElement>
        +getRoadmaps(): EList<Roadmap>
        +eInverseAdd(InternalEObject, int, NotificationChain): NotificationChain
        +eInverseRemove(InternalEObject, int, NotificationChain): NotificationChain
        +eGet(int, boolean, boolean): Object
        +eSet(int, Object): void
        +eUnset(int): void
        +eIsSet(int): boolean
        +eBaseStructuralFeatureID(int, Class<?>): int
        +eDerivedStructuralFeatureID(int, Class<?>): int
    }

    abstract class "<size:14>WorkBreakdownElementImpl\n<size:10>org.eclipse.epf.uma.impl" as org.eclipse.epf.uma.impl.WorkBreakdownElementImpl [[WorkBreakdownElementImpl.html]]
    interface "<size:14>Activity\n<size:10>org.eclipse.epf.uma" as org.eclipse.epf.uma.Activity [[..\Activity.html]] {
        {abstract} +getBreakdownElements(): EList<BreakdownElement>
        {abstract} +getRoadmaps(): EList<Roadmap>
    }

    org.eclipse.epf.uma.impl.WorkBreakdownElementImpl <|- - org.eclipse.epf.uma.impl.ActivityImpl
    org.eclipse.epf.uma.Activity <|.. org.eclipse.epf.uma.impl.ActivityImpl

    center footer UMLDoclet 2.0.12, PlantUML 1.2020.16
@enduml

PlantUML version 1.2020.16(Sun Aug 23 22:20:43 CEST 2020)
(APACHE source distribution)
Java Runtime: Java(TM) SE Runtime Environment
JVM: Java HotSpot(TM) 64-Bit Server VM
Default Encoding: Cp1252
Language: es
Country: ES
--></g></svg>