<?xml version="1.0" encoding="UTF-8" standalone="no"?><svg xmlns="http://www.w3.org/2000/svg" xmlns:xlink="http://www.w3.org/1999/xlink" contentScriptType="application/ecmascript" contentStyleType="text/css" height="311px" preserveAspectRatio="none" style="width:418px;height:311px;" version="1.1" viewBox="0 0 418 311" width="418px" zoomAndPan="magnify"><defs><filter height="300%" id="f1c4rz1o0u9qgk" width="300%" x="-1" y="-1"><feGaussianBlur result="blurOut" stdDeviation="2.0"/><feColorMatrix in="blurOut" result="blurOut2" type="matrix" values="0 0 0 0 0 0 0 0 0 0 0 0 0 0 0 0 0 0 .4 0"/><feOffset dx="4.0" dy="4.0" in="blurOut2" result="blurOut3"/><feBlend in="SourceGraphic" in2="blurOut3" mode="normal"/></filter></defs><g><!--MD5=[1eb40bbaaa28ca85698f2901b7a1ec1f]
class org.eclipse.epf.uma.impl.ApplicableMetaClassInfoImpl--><a href="ApplicableMetaClassInfoImpl.html" target="_top" title="ApplicableMetaClassInfoImpl.html" xlink:actuate="onRequest" xlink:href="ApplicableMetaClassInfoImpl.html" xlink:show="new" xlink:title="ApplicableMetaClassInfoImpl.html" xlink:type="simple"><rect codeLine="5" fill="#FEFECE" filter="url(#f1c4rz1o0u9qgk)" height="131.2031" id="org.eclipse.epf.uma.impl.ApplicableMetaClassInfoImpl" style="stroke: #A80036; stroke-width: 1.5;" width="211" x="81.5" y="143"/><ellipse cx="96.5" cy="163.0938" fill="#ADD1B2" rx="11" ry="11" style="stroke: #A80036; stroke-width: 1.0;"/><path d="M99.2656,158.9688 Q99.4219,158.75 99.6094,158.6406 Q99.7969,158.5313 100.0156,158.5313 Q100.3906,158.5313 100.625,158.7969 Q100.8594,159.0469 100.8594,159.6563 L100.8594,161.1094 Q100.8594,161.7188 100.625,161.9844 Q100.3906,162.25 100.0156,162.25 Q99.6719,162.25 99.4688,162.0469 Q99.2656,161.8594 99.1563,161.3438 Q99.1094,160.9844 98.9219,160.7969 Q98.5938,160.4219 97.9844,160.2031 Q97.375,159.9844 96.75,159.9844 Q95.9844,159.9844 95.3438,160.3125 Q94.7188,160.6406 94.2188,161.3906 Q93.7344,162.1406 93.7344,163.1719 L93.7344,164.2656 Q93.7344,165.5 94.625,166.3281 Q95.5156,167.1406 97.1094,167.1406 Q98.0469,167.1406 98.7031,166.8906 Q99.0938,166.7344 99.5156,166.2969 Q99.7813,166.0313 99.9219,165.9531 Q100.0781,165.875 100.2813,165.875 Q100.6094,165.875 100.8594,166.1406 Q101.125,166.3906 101.125,166.7344 Q101.125,167.0781 100.7813,167.4844 Q100.2813,168.0625 99.4844,168.3906 Q98.4063,168.8438 97.1094,168.8438 Q95.5938,168.8438 94.3906,168.2188 Q93.4063,167.7188 92.7188,166.6563 Q92.0313,165.5781 92.0313,164.2969 L92.0313,163.1406 Q92.0313,161.8125 92.6406,160.6719 Q93.2656,159.5156 94.3594,158.9063 Q95.4531,158.2813 96.6875,158.2813 Q97.4219,158.2813 98.0625,158.4531 Q98.7188,158.6094 99.2656,158.9688 Z "/><text fill="#000000" font-family="sans-serif" font-size="14" lengthAdjust="spacingAndGlyphs" textLength="179" x="110.5" y="162.5332">ApplicableMetaClassInfoImpl</text><text fill="#000000" font-family="sans-serif" font-size="10" lengthAdjust="spacingAndGlyphs" textLength="118" x="141" y="175.9902">org.eclipse.epf.uma.impl</text><line style="stroke: #A80036; stroke-width: 1.5;" x1="82.5" x2="291.5" y1="183.1875" y2="183.1875"/><ellipse cx="92.5" cy="194.1875" fill="#84BE84" rx="3" ry="3" style="stroke: #038048; stroke-width: 1.0;"/><text fill="#000000" font-family="sans-serif" font-size="11" lengthAdjust="spacingAndGlyphs" textLength="159" x="101.5" y="198.6064">getIsPrimaryExtension(): Boolean</text><ellipse cx="92.5" cy="208.0234" fill="#84BE84" rx="3" ry="3" style="stroke: #038048; stroke-width: 1.0;"/><text fill="#000000" font-family="sans-serif" font-size="11" lengthAdjust="spacingAndGlyphs" textLength="179" x="101.5" y="212.4424">setIsPrimaryExtension(Boolean): void</text><ellipse cx="92.5" cy="221.8594" fill="#84BE84" rx="3" ry="3" style="stroke: #038048; stroke-width: 1.0;"/><text fill="#000000" font-family="sans-serif" font-size="11" lengthAdjust="spacingAndGlyphs" textLength="167" x="101.5" y="226.2783">eGet(int, boolean, boolean): Object</text><ellipse cx="92.5" cy="235.6953" fill="#84BE84" rx="3" ry="3" style="stroke: #038048; stroke-width: 1.0;"/><text fill="#000000" font-family="sans-serif" font-size="11" lengthAdjust="spacingAndGlyphs" textLength="104" x="101.5" y="240.1143">eSet(int, Object): void</text><ellipse cx="92.5" cy="249.5313" fill="#84BE84" rx="3" ry="3" style="stroke: #038048; stroke-width: 1.0;"/><text fill="#000000" font-family="sans-serif" font-size="11" lengthAdjust="spacingAndGlyphs" textLength="79" x="101.5" y="253.9502">eUnset(int): void</text><ellipse cx="92.5" cy="263.3672" fill="#84BE84" rx="3" ry="3" style="stroke: #038048; stroke-width: 1.0;"/><text fill="#000000" font-family="sans-serif" font-size="11" lengthAdjust="spacingAndGlyphs" textLength="93" x="101.5" y="267.7861">eIsSet(int): boolean</text></a><!--MD5=[81fdfd4215bcb18c9231ccc96ccb2d4f]
class org.eclipse.epf.uma.impl.ClassifierImpl--><a href="ClassifierImpl.html" target="_top" title="ClassifierImpl.html" xlink:actuate="onRequest" xlink:href="ClassifierImpl.html" xlink:show="new" xlink:title="ClassifierImpl.html" xlink:type="simple"><rect codeLine="14" fill="#FEFECE" filter="url(#f1c4rz1o0u9qgk)" height="40.1875" id="org.eclipse.epf.uma.impl.ClassifierImpl" style="stroke: #A80036; stroke-width: 1.5;" width="146" x="7" y="25"/><ellipse cx="22" cy="45.0938" fill="#A9DCDF" rx="11" ry="11" style="stroke: #A80036; stroke-width: 1.0;"/><path d="M24.1875,46.8594 L20.0469,46.8594 L19.625,47.8906 L20.0469,47.8906 Q20.6563,47.8906 20.9219,48.125 Q21.1875,48.3594 21.1875,48.75 Q21.1875,49.125 20.9219,49.3594 Q20.6563,49.5938 20.0469,49.5938 L17.75,49.5938 Q17.1406,49.5938 16.8906,49.3594 Q16.625,49.125 16.625,48.7344 Q16.625,48.3594 16.9063,48.125 Q17.1719,47.875 17.7969,47.8906 L20.4688,41.2344 L19.3594,41.2344 Q18.75,41.2344 18.4844,41 Q18.2188,40.7656 18.2188,40.375 Q18.2188,40 18.4844,39.7656 Q18.75,39.5313 19.3594,39.5313 L23.0313,39.5313 L26.4219,47.8906 Q27.0156,47.8906 27.2031,48.0313 Q27.5938,48.2969 27.5938,48.75 Q27.5938,49.125 27.3281,49.3594 Q27.0781,49.5938 26.4688,49.5938 L24.1719,49.5938 Q23.5625,49.5938 23.2969,49.3594 Q23.0313,49.125 23.0313,48.7344 Q23.0313,48.3594 23.2969,48.125 Q23.5625,47.8906 24.1719,47.8906 L24.5938,47.8906 L24.1875,46.8594 Z M23.4688,45.1563 L22.1094,41.7813 L20.7344,45.1563 L23.4688,45.1563 Z "/><text fill="#000000" font-family="sans-serif" font-size="14" font-style="italic" lengthAdjust="spacingAndGlyphs" textLength="84" x="51" y="44.5332">ClassifierImpl</text><text fill="#000000" font-family="sans-serif" font-size="10" font-style="italic" lengthAdjust="spacingAndGlyphs" textLength="114" x="36" y="57.9902">org.eclipse.epf.uma.impl</text></a><!--MD5=[74c80ce5f48b614f09f48b1b3b89aca0]
class org.eclipse.epf.uma.ApplicableMetaClassInfo--><a href="..\ApplicableMetaClassInfo.html" target="_top" title="..\ApplicableMetaClassInfo.html" xlink:actuate="onRequest" xlink:href="..\ApplicableMetaClassInfo.html" xlink:show="new" xlink:title="..\ApplicableMetaClassInfo.html" xlink:type="simple"><rect codeLine="15" fill="#FEFECE" filter="url(#f1c4rz1o0u9qgk)" height="75.8594" id="org.eclipse.epf.uma.ApplicableMetaClassInfo" style="stroke: #A80036; stroke-width: 1.5;" width="211" x="188.5" y="7"/><ellipse cx="213.85" cy="27.0938" fill="#B4A7E5" rx="11" ry="11" style="stroke: #A80036; stroke-width: 1.0;"/><path d="M214.8031,23.7344 L214.8031,30.3906 L216.5219,30.3906 Q217.1313,30.3906 217.3969,30.625 Q217.6625,30.8594 217.6625,31.25 Q217.6625,31.625 217.3969,31.8594 Q217.1313,32.0938 216.5219,32.0938 L211.3813,32.0938 Q210.7719,32.0938 210.5063,31.8594 Q210.2406,31.625 210.2406,31.2344 Q210.2406,30.8594 210.5063,30.625 Q210.7719,30.3906 211.3813,30.3906 L213.1,30.3906 L213.1,23.7344 L211.3813,23.7344 Q210.7719,23.7344 210.5063,23.5 Q210.2406,23.2656 210.2406,22.875 Q210.2406,22.5 210.5063,22.2656 Q210.7719,22.0313 211.3813,22.0313 L216.5219,22.0313 Q217.1313,22.0313 217.3969,22.2656 Q217.6625,22.5 217.6625,22.875 Q217.6625,23.2656 217.3969,23.5 Q217.1313,23.7344 216.5219,23.7344 L214.8031,23.7344 Z "/><text fill="#000000" font-family="sans-serif" font-size="14" font-style="italic" lengthAdjust="spacingAndGlyphs" textLength="156" x="230.15" y="26.5332">ApplicableMetaClassInfo</text><text fill="#000000" font-family="sans-serif" font-size="10" font-style="italic" lengthAdjust="spacingAndGlyphs" textLength="92" x="262.15" y="39.9902">org.eclipse.epf.uma</text><line style="stroke: #A80036; stroke-width: 1.5;" x1="189.5" x2="398.5" y1="47.1875" y2="47.1875"/><ellipse cx="199.5" cy="58.1875" fill="#84BE84" rx="3" ry="3" style="stroke: #038048; stroke-width: 1.0;"/><text fill="#000000" font-family="sans-serif" font-size="11" font-style="italic" lengthAdjust="spacingAndGlyphs" textLength="165" x="208.5" y="62.6064">getIsPrimaryExtension(): Boolean</text><ellipse cx="199.5" cy="72.0234" fill="#84BE84" rx="3" ry="3" style="stroke: #038048; stroke-width: 1.0;"/><text fill="#000000" font-family="sans-serif" font-size="11" font-style="italic" lengthAdjust="spacingAndGlyphs" textLength="185" x="208.5" y="76.4424">setIsPrimaryExtension(Boolean): void</text></a><!--MD5=[582d9a79c0a08936ff9d29ab43b5330e]
reverse link org.eclipse.epf.uma.impl.ClassifierImpl to org.eclipse.epf.uma.impl.ApplicableMetaClassInfoImpl--><path codeLine="20" d="M103.84,81.98 C115.67,99.84 130.33,121.97 144.03,142.65 " fill="none" id="org.eclipse.epf.uma.impl.ClassifierImpl-backto-org.eclipse.epf.uma.impl.ApplicableMetaClassInfoImpl" style="stroke: #A80036; stroke-width: 1.0;"/><polygon fill="none" points="97.91,85.7,92.69,65.16,109.58,77.97,97.91,85.7" style="stroke: #A80036; stroke-width: 1.0;"/><!--MD5=[e8c476e2e7754d9053ef2632cfca4d5b]
reverse link org.eclipse.epf.uma.ApplicableMetaClassInfo to org.eclipse.epf.uma.impl.ApplicableMetaClassInfoImpl--><path codeLine="21" d="M258.4,99.73 C249.27,113.51 239.36,128.47 229.91,142.74 " fill="none" id="org.eclipse.epf.uma.ApplicableMetaClassInfo-backto-org.eclipse.epf.uma.impl.ApplicableMetaClassInfoImpl" style="stroke: #A80036; stroke-width: 1.0; stroke-dasharray: 7.0,7.0;"/><polygon fill="none" points="252.57,95.86,269.45,83.05,264.24,103.59,252.57,95.86" style="stroke: #A80036; stroke-width: 1.0;"/><text fill="#888888" font-family="sans-serif" font-size="10" lengthAdjust="spacingAndGlyphs" textLength="190" x="105.25" y="297.584">UMLDoclet 2.0.12, PlantUML 1.2020.16</text><!--MD5=[75066a19e31562daf57d0ce69f5dd2d3]
@startuml
    set namespaceSeparator none
    hide empty fields
    hide empty methods

    class "<size:14>ApplicableMetaClassInfoImpl\n<size:10>org.eclipse.epf.uma.impl" as org.eclipse.epf.uma.impl.ApplicableMetaClassInfoImpl [[ApplicableMetaClassInfoImpl.html]] {
        +getIsPrimaryExtension(): Boolean
        +setIsPrimaryExtension(Boolean): void
        +eGet(int, boolean, boolean): Object
        +eSet(int, Object): void
        +eUnset(int): void
        +eIsSet(int): boolean
    }

    abstract class "<size:14>ClassifierImpl\n<size:10>org.eclipse.epf.uma.impl" as org.eclipse.epf.uma.impl.ClassifierImpl [[ClassifierImpl.html]]
    interface "<size:14>ApplicableMetaClassInfo\n<size:10>org.eclipse.epf.uma" as org.eclipse.epf.uma.ApplicableMetaClassInfo [[..\ApplicableMetaClassInfo.html]] {
        {abstract} +getIsPrimaryExtension(): Boolean
        {abstract} +setIsPrimaryExtension(Boolean): void
    }

    org.eclipse.epf.uma.impl.ClassifierImpl <|- - org.eclipse.epf.uma.impl.ApplicableMetaClassInfoImpl
    org.eclipse.epf.uma.ApplicableMetaClassInfo <|.. org.eclipse.epf.uma.impl.ApplicableMetaClassInfoImpl

    center footer UMLDoclet 2.0.12, PlantUML 1.2020.16
@enduml

PlantUML version 1.2020.16(Sun Aug 23 22:20:43 CEST 2020)
(APACHE source distribution)
Java Runtime: Java(TM) SE Runtime Environment
JVM: Java HotSpot(TM) 64-Bit Server VM
Default Encoding: Cp1252
Language: es
Country: ES
--></g></svg>