<?xml version="1.0" encoding="UTF-8" standalone="no"?><svg xmlns="http://www.w3.org/2000/svg" xmlns:xlink="http://www.w3.org/1999/xlink" contentScriptType="application/ecmascript" contentStyleType="text/css" height="477px" preserveAspectRatio="none" style="width:489px;height:477px;" version="1.1" viewBox="0 0 489 477" width="489px" zoomAndPan="magnify"><defs><filter height="300%" id="f1p8zrrn87oxro" width="300%" x="-1" y="-1"><feGaussianBlur result="blurOut" stdDeviation="2.0"/><feColorMatrix in="blurOut" result="blurOut2" type="matrix" values="0 0 0 0 0 0 0 0 0 0 0 0 0 0 0 0 0 0 .4 0"/><feOffset dx="4.0" dy="4.0" in="blurOut2" result="blurOut3"/><feBlend in="SourceGraphic" in2="blurOut3" mode="normal"/></filter></defs><g><!--MD5=[07c68e05c77bd36db9732a74e71574f9]
class org.eclipse.epf.uma.impl.ArtifactDescriptionImpl--><a href="ArtifactDescriptionImpl.html" target="_top" title="ArtifactDescriptionImpl.html" xlink:actuate="onRequest" xlink:href="ArtifactDescriptionImpl.html" xlink:show="new" xlink:title="ArtifactDescriptionImpl.html" xlink:type="simple"><rect codeLine="5" fill="#FEFECE" filter="url(#f1p8zrrn87oxro)" height="214.2188" id="org.eclipse.epf.uma.impl.ArtifactDescriptionImpl" style="stroke: #A80036; stroke-width: 1.5;" width="213" x="129.5" y="226"/><ellipse cx="162.95" cy="246.0938" fill="#ADD1B2" rx="11" ry="11" style="stroke: #A80036; stroke-width: 1.0;"/><path d="M165.7156,241.9688 Q165.8719,241.75 166.0594,241.6406 Q166.2469,241.5313 166.4656,241.5313 Q166.8406,241.5313 167.075,241.7969 Q167.3094,242.0469 167.3094,242.6563 L167.3094,244.1094 Q167.3094,244.7188 167.075,244.9844 Q166.8406,245.25 166.4656,245.25 Q166.1219,245.25 165.9188,245.0469 Q165.7156,244.8594 165.6063,244.3438 Q165.5594,243.9844 165.3719,243.7969 Q165.0438,243.4219 164.4344,243.2031 Q163.825,242.9844 163.2,242.9844 Q162.4344,242.9844 161.7938,243.3125 Q161.1688,243.6406 160.6688,244.3906 Q160.1844,245.1406 160.1844,246.1719 L160.1844,247.2656 Q160.1844,248.5 161.075,249.3281 Q161.9656,250.1406 163.5594,250.1406 Q164.4969,250.1406 165.1531,249.8906 Q165.5438,249.7344 165.9656,249.2969 Q166.2313,249.0313 166.3719,248.9531 Q166.5281,248.875 166.7313,248.875 Q167.0594,248.875 167.3094,249.1406 Q167.575,249.3906 167.575,249.7344 Q167.575,250.0781 167.2313,250.4844 Q166.7313,251.0625 165.9344,251.3906 Q164.8563,251.8438 163.5594,251.8438 Q162.0438,251.8438 160.8406,251.2188 Q159.8563,250.7188 159.1688,249.6563 Q158.4813,248.5781 158.4813,247.2969 L158.4813,246.1406 Q158.4813,244.8125 159.0906,243.6719 Q159.7156,242.5156 160.8094,241.9063 Q161.9031,241.2813 163.1375,241.2813 Q163.8719,241.2813 164.5125,241.4531 Q165.1688,241.6094 165.7156,241.9688 Z "/><text fill="#000000" font-family="sans-serif" font-size="14" lengthAdjust="spacingAndGlyphs" textLength="140" x="181.05" y="245.5332">ArtifactDescriptionImpl</text><text fill="#000000" font-family="sans-serif" font-size="10" lengthAdjust="spacingAndGlyphs" textLength="118" x="192.05" y="258.9902">org.eclipse.epf.uma.impl</text><line style="stroke: #A80036; stroke-width: 1.5;" x1="130.5" x2="341.5" y1="266.1875" y2="266.1875"/><ellipse cx="140.5" cy="277.1875" fill="#84BE84" rx="3" ry="3" style="stroke: #038048; stroke-width: 1.0;"/><text fill="#000000" font-family="sans-serif" font-size="11" lengthAdjust="spacingAndGlyphs" textLength="113" x="149.5" y="281.6064">getBriefOutline(): String</text><ellipse cx="140.5" cy="291.0234" fill="#84BE84" rx="3" ry="3" style="stroke: #038048; stroke-width: 1.0;"/><text fill="#000000" font-family="sans-serif" font-size="11" lengthAdjust="spacingAndGlyphs" textLength="133" x="149.5" y="295.4424">setBriefOutline(String): void</text><ellipse cx="140.5" cy="304.8594" fill="#84BE84" rx="3" ry="3" style="stroke: #038048; stroke-width: 1.0;"/><text fill="#000000" font-family="sans-serif" font-size="11" lengthAdjust="spacingAndGlyphs" textLength="167" x="149.5" y="309.2783">getRepresentationOptions(): String</text><ellipse cx="140.5" cy="318.6953" fill="#84BE84" rx="3" ry="3" style="stroke: #038048; stroke-width: 1.0;"/><text fill="#000000" font-family="sans-serif" font-size="11" lengthAdjust="spacingAndGlyphs" textLength="187" x="149.5" y="323.1143">setRepresentationOptions(String): void</text><ellipse cx="140.5" cy="332.5313" fill="#84BE84" rx="3" ry="3" style="stroke: #038048; stroke-width: 1.0;"/><text fill="#000000" font-family="sans-serif" font-size="11" lengthAdjust="spacingAndGlyphs" textLength="130" x="149.5" y="336.9502">getRepresentation(): String</text><ellipse cx="140.5" cy="346.3672" fill="#84BE84" rx="3" ry="3" style="stroke: #038048; stroke-width: 1.0;"/><text fill="#000000" font-family="sans-serif" font-size="11" lengthAdjust="spacingAndGlyphs" textLength="150" x="149.5" y="350.7861">setRepresentation(String): void</text><ellipse cx="140.5" cy="360.2031" fill="#84BE84" rx="3" ry="3" style="stroke: #038048; stroke-width: 1.0;"/><text fill="#000000" font-family="sans-serif" font-size="11" lengthAdjust="spacingAndGlyphs" textLength="96" x="149.5" y="364.6221">getNotation(): String</text><ellipse cx="140.5" cy="374.0391" fill="#84BE84" rx="3" ry="3" style="stroke: #038048; stroke-width: 1.0;"/><text fill="#000000" font-family="sans-serif" font-size="11" lengthAdjust="spacingAndGlyphs" textLength="116" x="149.5" y="378.458">setNotation(String): void</text><ellipse cx="140.5" cy="387.875" fill="#84BE84" rx="3" ry="3" style="stroke: #038048; stroke-width: 1.0;"/><text fill="#000000" font-family="sans-serif" font-size="11" lengthAdjust="spacingAndGlyphs" textLength="167" x="149.5" y="392.2939">eGet(int, boolean, boolean): Object</text><ellipse cx="140.5" cy="401.7109" fill="#84BE84" rx="3" ry="3" style="stroke: #038048; stroke-width: 1.0;"/><text fill="#000000" font-family="sans-serif" font-size="11" lengthAdjust="spacingAndGlyphs" textLength="104" x="149.5" y="406.1299">eSet(int, Object): void</text><ellipse cx="140.5" cy="415.5469" fill="#84BE84" rx="3" ry="3" style="stroke: #038048; stroke-width: 1.0;"/><text fill="#000000" font-family="sans-serif" font-size="11" lengthAdjust="spacingAndGlyphs" textLength="79" x="149.5" y="419.9658">eUnset(int): void</text><ellipse cx="140.5" cy="429.3828" fill="#84BE84" rx="3" ry="3" style="stroke: #038048; stroke-width: 1.0;"/><text fill="#000000" font-family="sans-serif" font-size="11" lengthAdjust="spacingAndGlyphs" textLength="93" x="149.5" y="433.8018">eIsSet(int): boolean</text></a><!--MD5=[bf653f505598baa77f3947f3d5c236b1]
class org.eclipse.epf.uma.impl.WorkProductDescriptionImpl--><a href="WorkProductDescriptionImpl.html" target="_top" title="WorkProductDescriptionImpl.html" xlink:actuate="onRequest" xlink:href="WorkProductDescriptionImpl.html" xlink:show="new" xlink:title="WorkProductDescriptionImpl.html" xlink:type="simple"><rect codeLine="20" fill="#FEFECE" filter="url(#f1p8zrrn87oxro)" height="40.1875" id="org.eclipse.epf.uma.impl.WorkProductDescriptionImpl" style="stroke: #A80036; stroke-width: 1.5;" width="210" x="7" y="66.5"/><ellipse cx="22" cy="86.5938" fill="#ADD1B2" rx="11" ry="11" style="stroke: #A80036; stroke-width: 1.0;"/><path d="M24.7656,82.4688 Q24.9219,82.25 25.1094,82.1406 Q25.2969,82.0313 25.5156,82.0313 Q25.8906,82.0313 26.125,82.2969 Q26.3594,82.5469 26.3594,83.1563 L26.3594,84.6094 Q26.3594,85.2188 26.125,85.4844 Q25.8906,85.75 25.5156,85.75 Q25.1719,85.75 24.9688,85.5469 Q24.7656,85.3594 24.6563,84.8438 Q24.6094,84.4844 24.4219,84.2969 Q24.0938,83.9219 23.4844,83.7031 Q22.875,83.4844 22.25,83.4844 Q21.4844,83.4844 20.8438,83.8125 Q20.2188,84.1406 19.7188,84.8906 Q19.2344,85.6406 19.2344,86.6719 L19.2344,87.7656 Q19.2344,89 20.125,89.8281 Q21.0156,90.6406 22.6094,90.6406 Q23.5469,90.6406 24.2031,90.3906 Q24.5938,90.2344 25.0156,89.7969 Q25.2813,89.5313 25.4219,89.4531 Q25.5781,89.375 25.7813,89.375 Q26.1094,89.375 26.3594,89.6406 Q26.625,89.8906 26.625,90.2344 Q26.625,90.5781 26.2813,90.9844 Q25.7813,91.5625 24.9844,91.8906 Q23.9063,92.3438 22.6094,92.3438 Q21.0938,92.3438 19.8906,91.7188 Q18.9063,91.2188 18.2188,90.1563 Q17.5313,89.0781 17.5313,87.7969 L17.5313,86.6406 Q17.5313,85.3125 18.1406,84.1719 Q18.7656,83.0156 19.8594,82.4063 Q20.9531,81.7813 22.1875,81.7813 Q22.9219,81.7813 23.5625,81.9531 Q24.2188,82.1094 24.7656,82.4688 Z "/><text fill="#000000" font-family="sans-serif" font-size="14" lengthAdjust="spacingAndGlyphs" textLength="178" x="36" y="86.0332">WorkProductDescriptionImpl</text><text fill="#000000" font-family="sans-serif" font-size="10" lengthAdjust="spacingAndGlyphs" textLength="118" x="66" y="99.4902">org.eclipse.epf.uma.impl</text></a><!--MD5=[50fb7feed266f0bca88fff6cfab68dfb]
class org.eclipse.epf.uma.ArtifactDescription--><a href="..\ArtifactDescription.html" target="_top" title="..\ArtifactDescription.html" xlink:actuate="onRequest" xlink:href="..\ArtifactDescription.html" xlink:show="new" xlink:title="..\ArtifactDescription.html" xlink:type="simple"><rect codeLine="21" fill="#FEFECE" filter="url(#f1p8zrrn87oxro)" height="158.875" id="org.eclipse.epf.uma.ArtifactDescription" style="stroke: #A80036; stroke-width: 1.5;" width="218" x="252" y="7"/><ellipse cx="299.25" cy="27.0938" fill="#B4A7E5" rx="11" ry="11" style="stroke: #A80036; stroke-width: 1.0;"/><path d="M300.2031,23.7344 L300.2031,30.3906 L301.9219,30.3906 Q302.5313,30.3906 302.7969,30.625 Q303.0625,30.8594 303.0625,31.25 Q303.0625,31.625 302.7969,31.8594 Q302.5313,32.0938 301.9219,32.0938 L296.7813,32.0938 Q296.1719,32.0938 295.9063,31.8594 Q295.6406,31.625 295.6406,31.2344 Q295.6406,30.8594 295.9063,30.625 Q296.1719,30.3906 296.7813,30.3906 L298.5,30.3906 L298.5,23.7344 L296.7813,23.7344 Q296.1719,23.7344 295.9063,23.5 Q295.6406,23.2656 295.6406,22.875 Q295.6406,22.5 295.9063,22.2656 Q296.1719,22.0313 296.7813,22.0313 L301.9219,22.0313 Q302.5313,22.0313 302.7969,22.2656 Q303.0625,22.5 303.0625,22.875 Q303.0625,23.2656 302.7969,23.5 Q302.5313,23.7344 301.9219,23.7344 L300.2031,23.7344 Z "/><text fill="#000000" font-family="sans-serif" font-size="14" font-style="italic" lengthAdjust="spacingAndGlyphs" textLength="115" x="319.75" y="26.5332">ArtifactDescription</text><text fill="#000000" font-family="sans-serif" font-size="10" font-style="italic" lengthAdjust="spacingAndGlyphs" textLength="92" x="331.25" y="39.9902">org.eclipse.epf.uma</text><line style="stroke: #A80036; stroke-width: 1.5;" x1="253" x2="469" y1="47.1875" y2="47.1875"/><ellipse cx="263" cy="58.1875" fill="#84BE84" rx="3" ry="3" style="stroke: #038048; stroke-width: 1.0;"/><text fill="#000000" font-family="sans-serif" font-size="11" font-style="italic" lengthAdjust="spacingAndGlyphs" textLength="117" x="272" y="62.6064">getBriefOutline(): String</text><ellipse cx="263" cy="72.0234" fill="#84BE84" rx="3" ry="3" style="stroke: #038048; stroke-width: 1.0;"/><text fill="#000000" font-family="sans-serif" font-size="11" font-style="italic" lengthAdjust="spacingAndGlyphs" textLength="137" x="272" y="76.4424">setBriefOutline(String): void</text><ellipse cx="263" cy="85.8594" fill="#84BE84" rx="3" ry="3" style="stroke: #038048; stroke-width: 1.0;"/><text fill="#000000" font-family="sans-serif" font-size="11" font-style="italic" lengthAdjust="spacingAndGlyphs" textLength="172" x="272" y="90.2783">getRepresentationOptions(): String</text><ellipse cx="263" cy="99.6953" fill="#84BE84" rx="3" ry="3" style="stroke: #038048; stroke-width: 1.0;"/><text fill="#000000" font-family="sans-serif" font-size="11" font-style="italic" lengthAdjust="spacingAndGlyphs" textLength="192" x="272" y="104.1143">setRepresentationOptions(String): void</text><ellipse cx="263" cy="113.5313" fill="#84BE84" rx="3" ry="3" style="stroke: #038048; stroke-width: 1.0;"/><text fill="#000000" font-family="sans-serif" font-size="11" font-style="italic" lengthAdjust="spacingAndGlyphs" textLength="133" x="272" y="117.9502">getRepresentation(): String</text><ellipse cx="263" cy="127.3672" fill="#84BE84" rx="3" ry="3" style="stroke: #038048; stroke-width: 1.0;"/><text fill="#000000" font-family="sans-serif" font-size="11" font-style="italic" lengthAdjust="spacingAndGlyphs" textLength="153" x="272" y="131.7861">setRepresentation(String): void</text><ellipse cx="263" cy="141.2031" fill="#84BE84" rx="3" ry="3" style="stroke: #038048; stroke-width: 1.0;"/><text fill="#000000" font-family="sans-serif" font-size="11" font-style="italic" lengthAdjust="spacingAndGlyphs" textLength="99" x="272" y="145.6221">getNotation(): String</text><ellipse cx="263" cy="155.0391" fill="#84BE84" rx="3" ry="3" style="stroke: #038048; stroke-width: 1.0;"/><text fill="#000000" font-family="sans-serif" font-size="11" font-style="italic" lengthAdjust="spacingAndGlyphs" textLength="119" x="272" y="159.458">setNotation(String): void</text></a><!--MD5=[6c8f70ac1718a66a969c504fb6644317]
reverse link org.eclipse.epf.uma.impl.WorkProductDescriptionImpl to org.eclipse.epf.uma.impl.ArtifactDescriptionImpl--><path codeLine="32" d="M130.82,124.61 C144.52,151.62 163.81,189.67 182.14,225.8 " fill="none" id="org.eclipse.epf.uma.impl.WorkProductDescriptionImpl-backto-org.eclipse.epf.uma.impl.ArtifactDescriptionImpl" style="stroke: #A80036; stroke-width: 1.0;"/><polygon fill="none" points="124.53,127.69,121.73,106.69,137.02,121.36,124.53,127.69" style="stroke: #A80036; stroke-width: 1.0;"/><!--MD5=[dd6c6837d005a3926a6e74c3fa87febb]
reverse link org.eclipse.epf.uma.ArtifactDescription to org.eclipse.epf.uma.impl.ArtifactDescriptionImpl--><path codeLine="33" d="M311.45,184.41 C304.5,198.01 297.33,212.04 290.29,225.8 " fill="none" id="org.eclipse.epf.uma.ArtifactDescription-backto-org.eclipse.epf.uma.impl.ArtifactDescriptionImpl" style="stroke: #A80036; stroke-width: 1.0; stroke-dasharray: 7.0,7.0;"/><polygon fill="none" points="305.42,180.83,320.76,166.21,317.89,187.2,305.42,180.83" style="stroke: #A80036; stroke-width: 1.0;"/><text fill="#888888" font-family="sans-serif" font-size="10" lengthAdjust="spacingAndGlyphs" textLength="190" x="140.5" y="463.5996">UMLDoclet 2.0.12, PlantUML 1.2020.16</text><!--MD5=[7407c1de5873caae2c37e7193c54108d]
@startuml
    set namespaceSeparator none
    hide empty fields
    hide empty methods

    class "<size:14>ArtifactDescriptionImpl\n<size:10>org.eclipse.epf.uma.impl" as org.eclipse.epf.uma.impl.ArtifactDescriptionImpl [[ArtifactDescriptionImpl.html]] {
        +getBriefOutline(): String
        +setBriefOutline(String): void
        +getRepresentationOptions(): String
        +setRepresentationOptions(String): void
        +getRepresentation(): String
        +setRepresentation(String): void
        +getNotation(): String
        +setNotation(String): void
        +eGet(int, boolean, boolean): Object
        +eSet(int, Object): void
        +eUnset(int): void
        +eIsSet(int): boolean
    }

    class "<size:14>WorkProductDescriptionImpl\n<size:10>org.eclipse.epf.uma.impl" as org.eclipse.epf.uma.impl.WorkProductDescriptionImpl [[WorkProductDescriptionImpl.html]]
    interface "<size:14>ArtifactDescription\n<size:10>org.eclipse.epf.uma" as org.eclipse.epf.uma.ArtifactDescription [[..\ArtifactDescription.html]] {
        {abstract} +getBriefOutline(): String
        {abstract} +setBriefOutline(String): void
        {abstract} +getRepresentationOptions(): String
        {abstract} +setRepresentationOptions(String): void
        {abstract} +getRepresentation(): String
        {abstract} +setRepresentation(String): void
        {abstract} +getNotation(): String
        {abstract} +setNotation(String): void
    }

    org.eclipse.epf.uma.impl.WorkProductDescriptionImpl <|- - org.eclipse.epf.uma.impl.ArtifactDescriptionImpl
    org.eclipse.epf.uma.ArtifactDescription <|.. org.eclipse.epf.uma.impl.ArtifactDescriptionImpl

    center footer UMLDoclet 2.0.12, PlantUML 1.2020.16
@enduml

PlantUML version 1.2020.16(Sun Aug 23 22:20:43 CEST 2020)
(APACHE source distribution)
Java Runtime: Java(TM) SE Runtime Environment
JVM: Java HotSpot(TM) 64-Bit Server VM
Default Encoding: Cp1252
Language: es
Country: ES
--></g></svg>