<?xml version="1.0" encoding="UTF-8" standalone="no"?><svg xmlns="http://www.w3.org/2000/svg" xmlns:xlink="http://www.w3.org/1999/xlink" contentScriptType="application/ecmascript" contentStyleType="text/css" height="408px" preserveAspectRatio="none" style="width:434px;height:408px;" version="1.1" viewBox="0 0 434 408" width="434px" zoomAndPan="magnify"><defs><filter height="300%" id="f1ashdui9mf59s" width="300%" x="-1" y="-1"><feGaussianBlur result="blurOut" stdDeviation="2.0"/><feColorMatrix in="blurOut" result="blurOut2" type="matrix" values="0 0 0 0 0 0 0 0 0 0 0 0 0 0 0 0 0 0 .4 0"/><feOffset dx="4.0" dy="4.0" in="blurOut2" result="blurOut3"/><feBlend in="SourceGraphic" in2="blurOut3" mode="normal"/></filter></defs><g><!--MD5=[6ee545134cea973ed1f1bc6e9e0defdf]
class org.eclipse.epf.uma.impl.ArtifactImpl--><a href="ArtifactImpl.html" target="_top" title="ArtifactImpl.html" xlink:actuate="onRequest" xlink:href="ArtifactImpl.html" xlink:show="new" xlink:title="ArtifactImpl.html" xlink:type="simple"><rect codeLine="5" fill="#FEFECE" filter="url(#f1ashdui9mf59s)" height="214.2188" id="org.eclipse.epf.uma.impl.ArtifactImpl" style="stroke: #A80036; stroke-width: 1.5;" width="379" x="7" y="157"/><ellipse cx="133.25" cy="177.0938" fill="#ADD1B2" rx="11" ry="11" style="stroke: #A80036; stroke-width: 1.0;"/><path d="M136.0156,172.9688 Q136.1719,172.75 136.3594,172.6406 Q136.5469,172.5313 136.7656,172.5313 Q137.1406,172.5313 137.375,172.7969 Q137.6094,173.0469 137.6094,173.6563 L137.6094,175.1094 Q137.6094,175.7188 137.375,175.9844 Q137.1406,176.25 136.7656,176.25 Q136.4219,176.25 136.2188,176.0469 Q136.0156,175.8594 135.9063,175.3438 Q135.8594,174.9844 135.6719,174.7969 Q135.3438,174.4219 134.7344,174.2031 Q134.125,173.9844 133.5,173.9844 Q132.7344,173.9844 132.0938,174.3125 Q131.4688,174.6406 130.9688,175.3906 Q130.4844,176.1406 130.4844,177.1719 L130.4844,178.2656 Q130.4844,179.5 131.375,180.3281 Q132.2656,181.1406 133.8594,181.1406 Q134.7969,181.1406 135.4531,180.8906 Q135.8438,180.7344 136.2656,180.2969 Q136.5313,180.0313 136.6719,179.9531 Q136.8281,179.875 137.0313,179.875 Q137.3594,179.875 137.6094,180.1406 Q137.875,180.3906 137.875,180.7344 Q137.875,181.0781 137.5313,181.4844 Q137.0313,182.0625 136.2344,182.3906 Q135.1563,182.8438 133.8594,182.8438 Q132.3438,182.8438 131.1406,182.2188 Q130.1563,181.7188 129.4688,180.6563 Q128.7813,179.5781 128.7813,178.2969 L128.7813,177.1406 Q128.7813,175.8125 129.3906,174.6719 Q130.0156,173.5156 131.1094,172.9063 Q132.2031,172.2813 133.4375,172.2813 Q134.1719,172.2813 134.8125,172.4531 Q135.4688,172.6094 136.0156,172.9688 Z "/><text fill="#000000" font-family="sans-serif" font-size="14" lengthAdjust="spacingAndGlyphs" textLength="69" x="178.25" y="176.5332">ArtifactImpl</text><text fill="#000000" font-family="sans-serif" font-size="10" lengthAdjust="spacingAndGlyphs" textLength="118" x="153.75" y="189.9902">org.eclipse.epf.uma.impl</text><line style="stroke: #A80036; stroke-width: 1.5;" x1="8" x2="385" y1="197.1875" y2="197.1875"/><ellipse cx="18" cy="208.1875" fill="#84BE84" rx="3" ry="3" style="stroke: #038048; stroke-width: 1.0;"/><text fill="#000000" font-family="sans-serif" font-size="11" lengthAdjust="spacingAndGlyphs" textLength="147" x="27" y="212.6064">getContainerArtifact(): Artifact</text><ellipse cx="18" cy="222.0234" fill="#84BE84" rx="3" ry="3" style="stroke: #038048; stroke-width: 1.0;"/><text fill="#000000" font-family="sans-serif" font-size="11" lengthAdjust="spacingAndGlyphs" textLength="175" x="27" y="226.4424">basicGetContainerArtifact(): Artifact</text><ellipse cx="18" cy="235.8594" fill="#84BE84" rx="3" ry="3" style="stroke: #038048; stroke-width: 1.0;"/><text fill="#000000" font-family="sans-serif" font-size="11" lengthAdjust="spacingAndGlyphs" textLength="340" x="27" y="240.2783">basicSetContainerArtifact(Artifact, NotificationChain): NotificationChain</text><ellipse cx="18" cy="249.6953" fill="#84BE84" rx="3" ry="3" style="stroke: #038048; stroke-width: 1.0;"/><text fill="#000000" font-family="sans-serif" font-size="11" lengthAdjust="spacingAndGlyphs" textLength="167" x="27" y="254.1143">setContainerArtifact(Artifact): void</text><ellipse cx="18" cy="263.5313" fill="#84BE84" rx="3" ry="3" style="stroke: #038048; stroke-width: 1.0;"/><text fill="#000000" font-family="sans-serif" font-size="11" lengthAdjust="spacingAndGlyphs" textLength="190" x="27" y="267.9502">getContainedArtifacts(): EList&lt;Artifact&gt;</text><ellipse cx="18" cy="277.3672" fill="#84BE84" rx="3" ry="3" style="stroke: #038048; stroke-width: 1.0;"/><text fill="#000000" font-family="sans-serif" font-size="11" lengthAdjust="spacingAndGlyphs" textLength="331" x="27" y="281.7861">eInverseAdd(InternalEObject, int, NotificationChain): NotificationChain</text><ellipse cx="18" cy="291.2031" fill="#84BE84" rx="3" ry="3" style="stroke: #038048; stroke-width: 1.0;"/><text fill="#000000" font-family="sans-serif" font-size="11" lengthAdjust="spacingAndGlyphs" textLength="350" x="27" y="295.6221">eInverseRemove(InternalEObject, int, NotificationChain): NotificationChain</text><ellipse cx="18" cy="305.0391" fill="#84BE84" rx="3" ry="3" style="stroke: #038048; stroke-width: 1.0;"/><text fill="#000000" font-family="sans-serif" font-size="11" lengthAdjust="spacingAndGlyphs" textLength="353" x="27" y="309.458">eBasicRemoveFromContainerFeature(NotificationChain): NotificationChain</text><ellipse cx="18" cy="318.875" fill="#84BE84" rx="3" ry="3" style="stroke: #038048; stroke-width: 1.0;"/><text fill="#000000" font-family="sans-serif" font-size="11" lengthAdjust="spacingAndGlyphs" textLength="167" x="27" y="323.2939">eGet(int, boolean, boolean): Object</text><ellipse cx="18" cy="332.7109" fill="#84BE84" rx="3" ry="3" style="stroke: #038048; stroke-width: 1.0;"/><text fill="#000000" font-family="sans-serif" font-size="11" lengthAdjust="spacingAndGlyphs" textLength="104" x="27" y="337.1299">eSet(int, Object): void</text><ellipse cx="18" cy="346.5469" fill="#84BE84" rx="3" ry="3" style="stroke: #038048; stroke-width: 1.0;"/><text fill="#000000" font-family="sans-serif" font-size="11" lengthAdjust="spacingAndGlyphs" textLength="79" x="27" y="350.9658">eUnset(int): void</text><ellipse cx="18" cy="360.3828" fill="#84BE84" rx="3" ry="3" style="stroke: #038048; stroke-width: 1.0;"/><text fill="#000000" font-family="sans-serif" font-size="11" lengthAdjust="spacingAndGlyphs" textLength="93" x="27" y="364.8018">eIsSet(int): boolean</text></a><!--MD5=[bf2f7d7047b7d9f74826b15896e0d3a5]
class org.eclipse.epf.uma.impl.WorkProductImpl--><a href="WorkProductImpl.html" target="_top" title="WorkProductImpl.html" xlink:actuate="onRequest" xlink:href="WorkProductImpl.html" xlink:show="new" xlink:title="WorkProductImpl.html" xlink:type="simple"><rect codeLine="20" fill="#FEFECE" filter="url(#f1ashdui9mf59s)" height="40.1875" id="org.eclipse.epf.uma.impl.WorkProductImpl" style="stroke: #A80036; stroke-width: 1.5;" width="150" x="12.5" y="32"/><ellipse cx="27.5" cy="52.0938" fill="#ADD1B2" rx="11" ry="11" style="stroke: #A80036; stroke-width: 1.0;"/><path d="M30.2656,47.9688 Q30.4219,47.75 30.6094,47.6406 Q30.7969,47.5313 31.0156,47.5313 Q31.3906,47.5313 31.625,47.7969 Q31.8594,48.0469 31.8594,48.6563 L31.8594,50.1094 Q31.8594,50.7188 31.625,50.9844 Q31.3906,51.25 31.0156,51.25 Q30.6719,51.25 30.4688,51.0469 Q30.2656,50.8594 30.1563,50.3438 Q30.1094,49.9844 29.9219,49.7969 Q29.5938,49.4219 28.9844,49.2031 Q28.375,48.9844 27.75,48.9844 Q26.9844,48.9844 26.3438,49.3125 Q25.7188,49.6406 25.2188,50.3906 Q24.7344,51.1406 24.7344,52.1719 L24.7344,53.2656 Q24.7344,54.5 25.625,55.3281 Q26.5156,56.1406 28.1094,56.1406 Q29.0469,56.1406 29.7031,55.8906 Q30.0938,55.7344 30.5156,55.2969 Q30.7813,55.0313 30.9219,54.9531 Q31.0781,54.875 31.2813,54.875 Q31.6094,54.875 31.8594,55.1406 Q32.125,55.3906 32.125,55.7344 Q32.125,56.0781 31.7813,56.4844 Q31.2813,57.0625 30.4844,57.3906 Q29.4063,57.8438 28.1094,57.8438 Q26.5938,57.8438 25.3906,57.2188 Q24.4063,56.7188 23.7188,55.6563 Q23.0313,54.5781 23.0313,53.2969 L23.0313,52.1406 Q23.0313,50.8125 23.6406,49.6719 Q24.2656,48.5156 25.3594,47.9063 Q26.4531,47.2813 27.6875,47.2813 Q28.4219,47.2813 29.0625,47.4531 Q29.7188,47.6094 30.2656,47.9688 Z "/><text fill="#000000" font-family="sans-serif" font-size="14" lengthAdjust="spacingAndGlyphs" textLength="107" x="47" y="51.5332">WorkProductImpl</text><text fill="#000000" font-family="sans-serif" font-size="10" lengthAdjust="spacingAndGlyphs" textLength="118" x="41.5" y="64.9902">org.eclipse.epf.uma.impl</text></a><!--MD5=[e935a2e7ae0d8b7001161e0c2f4b2bc5]
class org.eclipse.epf.uma.Artifact--><a href="..\Artifact.html" target="_top" title="..\Artifact.html" xlink:actuate="onRequest" xlink:href="..\Artifact.html" xlink:show="new" xlink:title="..\Artifact.html" xlink:type="simple"><rect codeLine="21" fill="#FEFECE" filter="url(#f1ashdui9mf59s)" height="89.6953" id="org.eclipse.epf.uma.Artifact" style="stroke: #A80036; stroke-width: 1.5;" width="218" x="197.5" y="7"/><ellipse cx="256.25" cy="27.0938" fill="#B4A7E5" rx="11" ry="11" style="stroke: #A80036; stroke-width: 1.0;"/><path d="M257.2031,23.7344 L257.2031,30.3906 L258.9219,30.3906 Q259.5313,30.3906 259.7969,30.625 Q260.0625,30.8594 260.0625,31.25 Q260.0625,31.625 259.7969,31.8594 Q259.5313,32.0938 258.9219,32.0938 L253.7813,32.0938 Q253.1719,32.0938 252.9063,31.8594 Q252.6406,31.625 252.6406,31.2344 Q252.6406,30.8594 252.9063,30.625 Q253.1719,30.3906 253.7813,30.3906 L255.5,30.3906 L255.5,23.7344 L253.7813,23.7344 Q253.1719,23.7344 252.9063,23.5 Q252.6406,23.2656 252.6406,22.875 Q252.6406,22.5 252.9063,22.2656 Q253.1719,22.0313 253.7813,22.0313 L258.9219,22.0313 Q259.5313,22.0313 259.7969,22.2656 Q260.0625,22.5 260.0625,22.875 Q260.0625,23.2656 259.7969,23.5 Q259.5313,23.7344 258.9219,23.7344 L257.2031,23.7344 Z "/><text fill="#000000" font-family="sans-serif" font-size="14" font-style="italic" lengthAdjust="spacingAndGlyphs" textLength="44" x="300.75" y="26.5332">Artifact</text><text fill="#000000" font-family="sans-serif" font-size="10" font-style="italic" lengthAdjust="spacingAndGlyphs" textLength="92" x="276.75" y="39.9902">org.eclipse.epf.uma</text><line style="stroke: #A80036; stroke-width: 1.5;" x1="198.5" x2="414.5" y1="47.1875" y2="47.1875"/><ellipse cx="208.5" cy="58.1875" fill="#84BE84" rx="3" ry="3" style="stroke: #038048; stroke-width: 1.0;"/><text fill="#000000" font-family="sans-serif" font-size="11" font-style="italic" lengthAdjust="spacingAndGlyphs" textLength="147" x="217.5" y="62.6064">getContainerArtifact(): Artifact</text><ellipse cx="208.5" cy="72.0234" fill="#84BE84" rx="3" ry="3" style="stroke: #038048; stroke-width: 1.0;"/><text fill="#000000" font-family="sans-serif" font-size="11" font-style="italic" lengthAdjust="spacingAndGlyphs" textLength="167" x="217.5" y="76.4424">setContainerArtifact(Artifact): void</text><ellipse cx="208.5" cy="85.8594" fill="#84BE84" rx="3" ry="3" style="stroke: #038048; stroke-width: 1.0;"/><text fill="#000000" font-family="sans-serif" font-size="11" font-style="italic" lengthAdjust="spacingAndGlyphs" textLength="192" x="217.5" y="90.2783">getContainedArtifacts(): EList&lt;Artifact&gt;</text></a><!--MD5=[1dabf4ee77f8e7b795e9c7941cd43616]
reverse link org.eclipse.epf.uma.impl.WorkProductImpl to org.eclipse.epf.uma.impl.ArtifactImpl--><path codeLine="27" d="M106.65,89.9 C116.45,108.77 128.92,132.8 141.43,156.91 " fill="none" id="org.eclipse.epf.uma.impl.WorkProductImpl-backto-org.eclipse.epf.uma.impl.ArtifactImpl" style="stroke: #A80036; stroke-width: 1.0;"/><polygon fill="none" points="100.37,92.98,97.37,72.01,112.79,86.53,100.37,92.98" style="stroke: #A80036; stroke-width: 1.0;"/><!--MD5=[a01728b1bf1eeb10aaf26759f696fb4a]
reverse link org.eclipse.epf.uma.Artifact to org.eclipse.epf.uma.impl.ArtifactImpl--><path codeLine="28" d="M274.1,114.86 C267.18,128.07 259.68,142.39 252.16,156.73 " fill="none" id="org.eclipse.epf.uma.Artifact-backto-org.eclipse.epf.uma.impl.ArtifactImpl" style="stroke: #A80036; stroke-width: 1.0; stroke-dasharray: 7.0,7.0;"/><polygon fill="none" points="267.96,111.49,283.44,97.02,280.36,117.99,267.96,111.49" style="stroke: #A80036; stroke-width: 1.0;"/><text fill="#888888" font-family="sans-serif" font-size="10" lengthAdjust="spacingAndGlyphs" textLength="190" x="113.25" y="394.5996">UMLDoclet 2.0.12, PlantUML 1.2020.16</text><!--MD5=[5ef5d23d77fbe0b48ad28b2bc283dc34]
@startuml
    set namespaceSeparator none
    hide empty fields
    hide empty methods

    class "<size:14>ArtifactImpl\n<size:10>org.eclipse.epf.uma.impl" as org.eclipse.epf.uma.impl.ArtifactImpl [[ArtifactImpl.html]] {
        +getContainerArtifact(): Artifact
        +basicGetContainerArtifact(): Artifact
        +basicSetContainerArtifact(Artifact, NotificationChain): NotificationChain
        +setContainerArtifact(Artifact): void
        +getContainedArtifacts(): EList<Artifact>
        +eInverseAdd(InternalEObject, int, NotificationChain): NotificationChain
        +eInverseRemove(InternalEObject, int, NotificationChain): NotificationChain
        +eBasicRemoveFromContainerFeature(NotificationChain): NotificationChain
        +eGet(int, boolean, boolean): Object
        +eSet(int, Object): void
        +eUnset(int): void
        +eIsSet(int): boolean
    }

    class "<size:14>WorkProductImpl\n<size:10>org.eclipse.epf.uma.impl" as org.eclipse.epf.uma.impl.WorkProductImpl [[WorkProductImpl.html]]
    interface "<size:14>Artifact\n<size:10>org.eclipse.epf.uma" as org.eclipse.epf.uma.Artifact [[..\Artifact.html]] {
        {abstract} +getContainerArtifact(): Artifact
        {abstract} +setContainerArtifact(Artifact): void
        {abstract} +getContainedArtifacts(): EList<Artifact>
    }

    org.eclipse.epf.uma.impl.WorkProductImpl <|- - org.eclipse.epf.uma.impl.ArtifactImpl
    org.eclipse.epf.uma.Artifact <|.. org.eclipse.epf.uma.impl.ArtifactImpl

    center footer UMLDoclet 2.0.12, PlantUML 1.2020.16
@enduml

PlantUML version 1.2020.16(Sun Aug 23 22:20:43 CEST 2020)
(APACHE source distribution)
Java Runtime: Java(TM) SE Runtime Environment
JVM: Java HotSpot(TM) 64-Bit Server VM
Default Encoding: Cp1252
Language: es
Country: ES
--></g></svg>