<?xml version="1.0" encoding="UTF-8" standalone="no"?><svg xmlns="http://www.w3.org/2000/svg" xmlns:xlink="http://www.w3.org/1999/xlink" contentScriptType="application/ecmascript" contentStyleType="text/css" height="311px" preserveAspectRatio="none" style="width:464px;height:311px;" version="1.1" viewBox="0 0 464 311" width="464px" zoomAndPan="magnify"><defs><filter height="300%" id="f1bk8p0racaq55" width="300%" x="-1" y="-1"><feGaussianBlur result="blurOut" stdDeviation="2.0"/><feColorMatrix in="blurOut" result="blurOut2" type="matrix" values="0 0 0 0 0 0 0 0 0 0 0 0 0 0 0 0 0 0 .4 0"/><feOffset dx="4.0" dy="4.0" in="blurOut2" result="blurOut3"/><feBlend in="SourceGraphic" in2="blurOut3" mode="normal"/></filter></defs><g><!--MD5=[dc58ab8070c6434205d283b7e3cad5c3]
class org.eclipse.epf.uma.impl.BreakdownElementDescriptionImpl--><a href="BreakdownElementDescriptionImpl.html" target="_top" title="BreakdownElementDescriptionImpl.html" xlink:actuate="onRequest" xlink:href="BreakdownElementDescriptionImpl.html" xlink:show="new" xlink:title="BreakdownElementDescriptionImpl.html" xlink:type="simple"><rect codeLine="5" fill="#FEFECE" filter="url(#f1bk8p0racaq55)" height="131.2031" id="org.eclipse.epf.uma.impl.BreakdownElementDescriptionImpl" style="stroke: #A80036; stroke-width: 1.5;" width="249" x="89.5" y="143"/><ellipse cx="104.5" cy="163.0938" fill="#ADD1B2" rx="11" ry="11" style="stroke: #A80036; stroke-width: 1.0;"/><path d="M107.2656,158.9688 Q107.4219,158.75 107.6094,158.6406 Q107.7969,158.5313 108.0156,158.5313 Q108.3906,158.5313 108.625,158.7969 Q108.8594,159.0469 108.8594,159.6563 L108.8594,161.1094 Q108.8594,161.7188 108.625,161.9844 Q108.3906,162.25 108.0156,162.25 Q107.6719,162.25 107.4688,162.0469 Q107.2656,161.8594 107.1563,161.3438 Q107.1094,160.9844 106.9219,160.7969 Q106.5938,160.4219 105.9844,160.2031 Q105.375,159.9844 104.75,159.9844 Q103.9844,159.9844 103.3438,160.3125 Q102.7188,160.6406 102.2188,161.3906 Q101.7344,162.1406 101.7344,163.1719 L101.7344,164.2656 Q101.7344,165.5 102.625,166.3281 Q103.5156,167.1406 105.1094,167.1406 Q106.0469,167.1406 106.7031,166.8906 Q107.0938,166.7344 107.5156,166.2969 Q107.7813,166.0313 107.9219,165.9531 Q108.0781,165.875 108.2813,165.875 Q108.6094,165.875 108.8594,166.1406 Q109.125,166.3906 109.125,166.7344 Q109.125,167.0781 108.7813,167.4844 Q108.2813,168.0625 107.4844,168.3906 Q106.4063,168.8438 105.1094,168.8438 Q103.5938,168.8438 102.3906,168.2188 Q101.4063,167.7188 100.7188,166.6563 Q100.0313,165.5781 100.0313,164.2969 L100.0313,163.1406 Q100.0313,161.8125 100.6406,160.6719 Q101.2656,159.5156 102.3594,158.9063 Q103.4531,158.2813 104.6875,158.2813 Q105.4219,158.2813 106.0625,158.4531 Q106.7188,158.6094 107.2656,158.9688 Z "/><text fill="#000000" font-family="sans-serif" font-size="14" lengthAdjust="spacingAndGlyphs" textLength="217" x="118.5" y="162.5332">BreakdownElementDescriptionImpl</text><text fill="#000000" font-family="sans-serif" font-size="10" lengthAdjust="spacingAndGlyphs" textLength="118" x="168" y="175.9902">org.eclipse.epf.uma.impl</text><line style="stroke: #A80036; stroke-width: 1.5;" x1="90.5" x2="337.5" y1="183.1875" y2="183.1875"/><ellipse cx="100.5" cy="194.1875" fill="#84BE84" rx="3" ry="3" style="stroke: #038048; stroke-width: 1.0;"/><text fill="#000000" font-family="sans-serif" font-size="11" lengthAdjust="spacingAndGlyphs" textLength="134" x="109.5" y="198.6064">getUsageGuidance(): String</text><ellipse cx="100.5" cy="208.0234" fill="#84BE84" rx="3" ry="3" style="stroke: #038048; stroke-width: 1.0;"/><text fill="#000000" font-family="sans-serif" font-size="11" lengthAdjust="spacingAndGlyphs" textLength="154" x="109.5" y="212.4424">setUsageGuidance(String): void</text><ellipse cx="100.5" cy="221.8594" fill="#84BE84" rx="3" ry="3" style="stroke: #038048; stroke-width: 1.0;"/><text fill="#000000" font-family="sans-serif" font-size="11" lengthAdjust="spacingAndGlyphs" textLength="167" x="109.5" y="226.2783">eGet(int, boolean, boolean): Object</text><ellipse cx="100.5" cy="235.6953" fill="#84BE84" rx="3" ry="3" style="stroke: #038048; stroke-width: 1.0;"/><text fill="#000000" font-family="sans-serif" font-size="11" lengthAdjust="spacingAndGlyphs" textLength="104" x="109.5" y="240.1143">eSet(int, Object): void</text><ellipse cx="100.5" cy="249.5313" fill="#84BE84" rx="3" ry="3" style="stroke: #038048; stroke-width: 1.0;"/><text fill="#000000" font-family="sans-serif" font-size="11" lengthAdjust="spacingAndGlyphs" textLength="79" x="109.5" y="253.9502">eUnset(int): void</text><ellipse cx="100.5" cy="263.3672" fill="#84BE84" rx="3" ry="3" style="stroke: #038048; stroke-width: 1.0;"/><text fill="#000000" font-family="sans-serif" font-size="11" lengthAdjust="spacingAndGlyphs" textLength="93" x="109.5" y="267.7861">eIsSet(int): boolean</text></a><!--MD5=[92b3159b33d4292b6938f7fac228d88c]
class org.eclipse.epf.uma.impl.ContentDescriptionImpl--><a href="ContentDescriptionImpl.html" target="_top" title="ContentDescriptionImpl.html" xlink:actuate="onRequest" xlink:href="ContentDescriptionImpl.html" xlink:show="new" xlink:title="ContentDescriptionImpl.html" xlink:type="simple"><rect codeLine="14" fill="#FEFECE" filter="url(#f1bk8p0racaq55)" height="40.1875" id="org.eclipse.epf.uma.impl.ContentDescriptionImpl" style="stroke: #A80036; stroke-width: 1.5;" width="178" x="7" y="25"/><ellipse cx="22" cy="45.0938" fill="#ADD1B2" rx="11" ry="11" style="stroke: #A80036; stroke-width: 1.0;"/><path d="M24.7656,40.9688 Q24.9219,40.75 25.1094,40.6406 Q25.2969,40.5313 25.5156,40.5313 Q25.8906,40.5313 26.125,40.7969 Q26.3594,41.0469 26.3594,41.6563 L26.3594,43.1094 Q26.3594,43.7188 26.125,43.9844 Q25.8906,44.25 25.5156,44.25 Q25.1719,44.25 24.9688,44.0469 Q24.7656,43.8594 24.6563,43.3438 Q24.6094,42.9844 24.4219,42.7969 Q24.0938,42.4219 23.4844,42.2031 Q22.875,41.9844 22.25,41.9844 Q21.4844,41.9844 20.8438,42.3125 Q20.2188,42.6406 19.7188,43.3906 Q19.2344,44.1406 19.2344,45.1719 L19.2344,46.2656 Q19.2344,47.5 20.125,48.3281 Q21.0156,49.1406 22.6094,49.1406 Q23.5469,49.1406 24.2031,48.8906 Q24.5938,48.7344 25.0156,48.2969 Q25.2813,48.0313 25.4219,47.9531 Q25.5781,47.875 25.7813,47.875 Q26.1094,47.875 26.3594,48.1406 Q26.625,48.3906 26.625,48.7344 Q26.625,49.0781 26.2813,49.4844 Q25.7813,50.0625 24.9844,50.3906 Q23.9063,50.8438 22.6094,50.8438 Q21.0938,50.8438 19.8906,50.2188 Q18.9063,49.7188 18.2188,48.6563 Q17.5313,47.5781 17.5313,46.2969 L17.5313,45.1406 Q17.5313,43.8125 18.1406,42.6719 Q18.7656,41.5156 19.8594,40.9063 Q20.9531,40.2813 22.1875,40.2813 Q22.9219,40.2813 23.5625,40.4531 Q24.2188,40.6094 24.7656,40.9688 Z "/><text fill="#000000" font-family="sans-serif" font-size="14" lengthAdjust="spacingAndGlyphs" textLength="146" x="36" y="44.5332">ContentDescriptionImpl</text><text fill="#000000" font-family="sans-serif" font-size="10" lengthAdjust="spacingAndGlyphs" textLength="118" x="50" y="57.9902">org.eclipse.epf.uma.impl</text></a><!--MD5=[285368ac1d1cfe80c61d30f219b77019]
class org.eclipse.epf.uma.BreakdownElementDescription--><a href="..\BreakdownElementDescription.html" target="_top" title="..\BreakdownElementDescription.html" xlink:actuate="onRequest" xlink:href="..\BreakdownElementDescription.html" xlink:show="new" xlink:title="..\BreakdownElementDescription.html" xlink:type="simple"><rect codeLine="15" fill="#FEFECE" filter="url(#f1bk8p0racaq55)" height="75.8594" id="org.eclipse.epf.uma.BreakdownElementDescription" style="stroke: #A80036; stroke-width: 1.5;" width="225" x="220.5" y="7"/><ellipse cx="235.5" cy="27.0938" fill="#B4A7E5" rx="11" ry="11" style="stroke: #A80036; stroke-width: 1.0;"/><path d="M236.4531,23.7344 L236.4531,30.3906 L238.1719,30.3906 Q238.7813,30.3906 239.0469,30.625 Q239.3125,30.8594 239.3125,31.25 Q239.3125,31.625 239.0469,31.8594 Q238.7813,32.0938 238.1719,32.0938 L233.0313,32.0938 Q232.4219,32.0938 232.1563,31.8594 Q231.8906,31.625 231.8906,31.2344 Q231.8906,30.8594 232.1563,30.625 Q232.4219,30.3906 233.0313,30.3906 L234.75,30.3906 L234.75,23.7344 L233.0313,23.7344 Q232.4219,23.7344 232.1563,23.5 Q231.8906,23.2656 231.8906,22.875 Q231.8906,22.5 232.1563,22.2656 Q232.4219,22.0313 233.0313,22.0313 L238.1719,22.0313 Q238.7813,22.0313 239.0469,22.2656 Q239.3125,22.5 239.3125,22.875 Q239.3125,23.2656 239.0469,23.5 Q238.7813,23.7344 238.1719,23.7344 L236.4531,23.7344 Z "/><text fill="#000000" font-family="sans-serif" font-size="14" font-style="italic" lengthAdjust="spacingAndGlyphs" textLength="193" x="249.5" y="26.5332">BreakdownElementDescription</text><text fill="#000000" font-family="sans-serif" font-size="10" font-style="italic" lengthAdjust="spacingAndGlyphs" textLength="92" x="300" y="39.9902">org.eclipse.epf.uma</text><line style="stroke: #A80036; stroke-width: 1.5;" x1="221.5" x2="444.5" y1="47.1875" y2="47.1875"/><ellipse cx="231.5" cy="58.1875" fill="#84BE84" rx="3" ry="3" style="stroke: #038048; stroke-width: 1.0;"/><text fill="#000000" font-family="sans-serif" font-size="11" font-style="italic" lengthAdjust="spacingAndGlyphs" textLength="137" x="240.5" y="62.6064">getUsageGuidance(): String</text><ellipse cx="231.5" cy="72.0234" fill="#84BE84" rx="3" ry="3" style="stroke: #038048; stroke-width: 1.0;"/><text fill="#000000" font-family="sans-serif" font-size="11" font-style="italic" lengthAdjust="spacingAndGlyphs" textLength="157" x="240.5" y="76.4424">setUsageGuidance(String): void</text></a><!--MD5=[a65fbe02655093bdca5acd686c4bdc3d]
reverse link org.eclipse.epf.uma.impl.ContentDescriptionImpl to org.eclipse.epf.uma.impl.BreakdownElementDescriptionImpl--><path codeLine="20" d="M121.88,81.42 C135,99.38 151.35,121.75 166.62,142.65 " fill="none" id="org.eclipse.epf.uma.impl.ContentDescriptionImpl-backto-org.eclipse.epf.uma.impl.BreakdownElementDescriptionImpl" style="stroke: #A80036; stroke-width: 1.0;"/><polygon fill="none" points="116.15,85.44,110,65.16,127.45,77.18,116.15,85.44" style="stroke: #A80036; stroke-width: 1.0;"/><!--MD5=[003569c74c8e86550a1dc47de6ef8518]
reverse link org.eclipse.epf.uma.BreakdownElementDescription to org.eclipse.epf.uma.impl.BreakdownElementDescriptionImpl--><path codeLine="21" d="M293.75,99.27 C283.5,113.17 272.35,128.31 261.72,142.74 " fill="none" id="org.eclipse.epf.uma.BreakdownElementDescription-backto-org.eclipse.epf.uma.impl.BreakdownElementDescriptionImpl" style="stroke: #A80036; stroke-width: 1.0; stroke-dasharray: 7.0,7.0;"/><polygon fill="none" points="288.2,95,305.7,83.05,299.47,103.3,288.2,95" style="stroke: #A80036; stroke-width: 1.0;"/><text fill="#888888" font-family="sans-serif" font-size="10" lengthAdjust="spacingAndGlyphs" textLength="190" x="128.25" y="297.584">UMLDoclet 2.0.12, PlantUML 1.2020.16</text><!--MD5=[e14c2937c4c4908ef9338a4f2a552e3d]
@startuml
    set namespaceSeparator none
    hide empty fields
    hide empty methods

    class "<size:14>BreakdownElementDescriptionImpl\n<size:10>org.eclipse.epf.uma.impl" as org.eclipse.epf.uma.impl.BreakdownElementDescriptionImpl [[BreakdownElementDescriptionImpl.html]] {
        +getUsageGuidance(): String
        +setUsageGuidance(String): void
        +eGet(int, boolean, boolean): Object
        +eSet(int, Object): void
        +eUnset(int): void
        +eIsSet(int): boolean
    }

    class "<size:14>ContentDescriptionImpl\n<size:10>org.eclipse.epf.uma.impl" as org.eclipse.epf.uma.impl.ContentDescriptionImpl [[ContentDescriptionImpl.html]]
    interface "<size:14>BreakdownElementDescription\n<size:10>org.eclipse.epf.uma" as org.eclipse.epf.uma.BreakdownElementDescription [[..\BreakdownElementDescription.html]] {
        {abstract} +getUsageGuidance(): String
        {abstract} +setUsageGuidance(String): void
    }

    org.eclipse.epf.uma.impl.ContentDescriptionImpl <|- - org.eclipse.epf.uma.impl.BreakdownElementDescriptionImpl
    org.eclipse.epf.uma.BreakdownElementDescription <|.. org.eclipse.epf.uma.impl.BreakdownElementDescriptionImpl

    center footer UMLDoclet 2.0.12, PlantUML 1.2020.16
@enduml

PlantUML version 1.2020.16(Sun Aug 23 22:20:43 CEST 2020)
(APACHE source distribution)
Java Runtime: Java(TM) SE Runtime Environment
JVM: Java HotSpot(TM) 64-Bit Server VM
Default Encoding: Cp1252
Language: es
Country: ES
--></g></svg>