<?xml version="1.0" encoding="UTF-8" standalone="no"?><svg xmlns="http://www.w3.org/2000/svg" xmlns:xlink="http://www.w3.org/1999/xlink" contentScriptType="application/ecmascript" contentStyleType="text/css" height="1085px" preserveAspectRatio="none" style="width:565px;height:1085px;" version="1.1" viewBox="0 0 565 1085" width="565px" zoomAndPan="magnify"><defs><filter height="300%" id="f1qjs4cr729cpp" width="300%" x="-1" y="-1"><feGaussianBlur result="blurOut" stdDeviation="2.0"/><feColorMatrix in="blurOut" result="blurOut2" type="matrix" values="0 0 0 0 0 0 0 0 0 0 0 0 0 0 0 0 0 0 .4 0"/><feOffset dx="4.0" dy="4.0" in="blurOut2" result="blurOut3"/><feBlend in="SourceGraphic" in2="blurOut3" mode="normal"/></filter></defs><g><!--MD5=[1b431a39b513a232f6a911769ed0ae3f]
class org.eclipse.epf.uma.impl.BreakdownElementImpl--><a href="BreakdownElementImpl.html" target="_top" title="BreakdownElementImpl.html" xlink:actuate="onRequest" xlink:href="BreakdownElementImpl.html" xlink:show="new" xlink:title="BreakdownElementImpl.html" xlink:type="simple"><rect codeLine="5" fill="#FEFECE" filter="url(#f1qjs4cr729cpp)" height="573.9531" id="org.eclipse.epf.uma.impl.BreakdownElementImpl" style="stroke: #A80036; stroke-width: 1.5;" width="376" x="42" y="475"/><ellipse cx="151.75" cy="495.0938" fill="#A9DCDF" rx="11" ry="11" style="stroke: #A80036; stroke-width: 1.0;"/><path d="M153.9375,496.8594 L149.7969,496.8594 L149.375,497.8906 L149.7969,497.8906 Q150.4063,497.8906 150.6719,498.125 Q150.9375,498.3594 150.9375,498.75 Q150.9375,499.125 150.6719,499.3594 Q150.4063,499.5938 149.7969,499.5938 L147.5,499.5938 Q146.8906,499.5938 146.6406,499.3594 Q146.375,499.125 146.375,498.7344 Q146.375,498.3594 146.6563,498.125 Q146.9219,497.875 147.5469,497.8906 L150.2188,491.2344 L149.1094,491.2344 Q148.5,491.2344 148.2344,491 Q147.9688,490.7656 147.9688,490.375 Q147.9688,490 148.2344,489.7656 Q148.5,489.5313 149.1094,489.5313 L152.7813,489.5313 L156.1719,497.8906 Q156.7656,497.8906 156.9531,498.0313 Q157.3438,498.2969 157.3438,498.75 Q157.3438,499.125 157.0781,499.3594 Q156.8281,499.5938 156.2188,499.5938 L153.9219,499.5938 Q153.3125,499.5938 153.0469,499.3594 Q152.7813,499.125 152.7813,498.7344 Q152.7813,498.3594 153.0469,498.125 Q153.3125,497.8906 153.9219,497.8906 L154.3438,497.8906 L153.9375,496.8594 Z M153.2188,495.1563 L151.8594,491.7813 L150.4844,495.1563 L153.2188,495.1563 Z "/><text fill="#000000" font-family="sans-serif" font-size="14" font-style="italic" lengthAdjust="spacingAndGlyphs" textLength="148" x="172.25" y="494.5332">BreakdownElementImpl</text><text fill="#000000" font-family="sans-serif" font-size="10" font-style="italic" lengthAdjust="spacingAndGlyphs" textLength="114" x="189.25" y="507.9902">org.eclipse.epf.uma.impl</text><line style="stroke: #A80036; stroke-width: 1.5;" x1="43" x2="417" y1="515.1875" y2="515.1875"/><ellipse cx="53" cy="526.1875" fill="#84BE84" rx="3" ry="3" style="stroke: #038048; stroke-width: 1.0;"/><text fill="#000000" font-family="sans-serif" font-size="11" lengthAdjust="spacingAndGlyphs" textLength="85" x="62" y="530.6064">getPrefix(): String</text><ellipse cx="53" cy="540.0234" fill="#84BE84" rx="3" ry="3" style="stroke: #038048; stroke-width: 1.0;"/><text fill="#000000" font-family="sans-serif" font-size="11" lengthAdjust="spacingAndGlyphs" textLength="105" x="62" y="544.4424">setPrefix(String): void</text><ellipse cx="53" cy="553.8594" fill="#84BE84" rx="3" ry="3" style="stroke: #038048; stroke-width: 1.0;"/><text fill="#000000" font-family="sans-serif" font-size="11" lengthAdjust="spacingAndGlyphs" textLength="114" x="62" y="558.2783">getIsPlanned(): Boolean</text><ellipse cx="53" cy="567.6953" fill="#84BE84" rx="3" ry="3" style="stroke: #038048; stroke-width: 1.0;"/><text fill="#000000" font-family="sans-serif" font-size="11" lengthAdjust="spacingAndGlyphs" textLength="134" x="62" y="572.1143">setIsPlanned(Boolean): void</text><ellipse cx="53" cy="581.5313" fill="#84BE84" rx="3" ry="3" style="stroke: #038048; stroke-width: 1.0;"/><text fill="#000000" font-family="sans-serif" font-size="11" lengthAdjust="spacingAndGlyphs" textLength="186" x="62" y="585.9502">getHasMultipleOccurrences(): Boolean</text><ellipse cx="53" cy="595.3672" fill="#84BE84" rx="3" ry="3" style="stroke: #038048; stroke-width: 1.0;"/><text fill="#000000" font-family="sans-serif" font-size="11" lengthAdjust="spacingAndGlyphs" textLength="206" x="62" y="599.7861">setHasMultipleOccurrences(Boolean): void</text><ellipse cx="53" cy="609.2031" fill="#84BE84" rx="3" ry="3" style="stroke: #038048; stroke-width: 1.0;"/><text fill="#000000" font-family="sans-serif" font-size="11" lengthAdjust="spacingAndGlyphs" textLength="115" x="62" y="613.6221">getIsOptional(): Boolean</text><ellipse cx="53" cy="623.0391" fill="#84BE84" rx="3" ry="3" style="stroke: #038048; stroke-width: 1.0;"/><text fill="#000000" font-family="sans-serif" font-size="11" lengthAdjust="spacingAndGlyphs" textLength="135" x="62" y="627.458">setIsOptional(Boolean): void</text><ellipse cx="53" cy="636.875" fill="#84BE84" rx="3" ry="3" style="stroke: #038048; stroke-width: 1.0;"/><text fill="#000000" font-family="sans-serif" font-size="11" lengthAdjust="spacingAndGlyphs" textLength="196" x="62" y="641.2939">getPresentedAfter(): BreakdownElement</text><ellipse cx="53" cy="650.7109" fill="#84BE84" rx="3" ry="3" style="stroke: #038048; stroke-width: 1.0;"/><text fill="#000000" font-family="sans-serif" font-size="11" lengthAdjust="spacingAndGlyphs" textLength="224" x="62" y="655.1299">basicGetPresentedAfter(): BreakdownElement</text><ellipse cx="53" cy="664.5469" fill="#84BE84" rx="3" ry="3" style="stroke: #038048; stroke-width: 1.0;"/><text fill="#000000" font-family="sans-serif" font-size="11" lengthAdjust="spacingAndGlyphs" textLength="216" x="62" y="668.9658">setPresentedAfter(BreakdownElement): void</text><ellipse cx="53" cy="678.3828" fill="#84BE84" rx="3" ry="3" style="stroke: #038048; stroke-width: 1.0;"/><text fill="#000000" font-family="sans-serif" font-size="11" lengthAdjust="spacingAndGlyphs" textLength="204" x="62" y="682.8018">getPresentedBefore(): BreakdownElement</text><ellipse cx="53" cy="692.2188" fill="#84BE84" rx="3" ry="3" style="stroke: #038048; stroke-width: 1.0;"/><text fill="#000000" font-family="sans-serif" font-size="11" lengthAdjust="spacingAndGlyphs" textLength="232" x="62" y="696.6377">basicGetPresentedBefore(): BreakdownElement</text><ellipse cx="53" cy="706.0547" fill="#84BE84" rx="3" ry="3" style="stroke: #038048; stroke-width: 1.0;"/><text fill="#000000" font-family="sans-serif" font-size="11" lengthAdjust="spacingAndGlyphs" textLength="224" x="62" y="710.4736">setPresentedBefore(BreakdownElement): void</text><ellipse cx="53" cy="719.8906" fill="#84BE84" rx="3" ry="3" style="stroke: #038048; stroke-width: 1.0;"/><text fill="#000000" font-family="sans-serif" font-size="11" lengthAdjust="spacingAndGlyphs" textLength="153" x="62" y="724.3096">getPlanningData(): PlanningData</text><ellipse cx="53" cy="733.7266" fill="#84BE84" rx="3" ry="3" style="stroke: #038048; stroke-width: 1.0;"/><text fill="#000000" font-family="sans-serif" font-size="11" lengthAdjust="spacingAndGlyphs" textLength="181" x="62" y="738.1455">basicGetPlanningData(): PlanningData</text><ellipse cx="53" cy="747.5625" fill="#84BE84" rx="3" ry="3" style="stroke: #038048; stroke-width: 1.0;"/><text fill="#000000" font-family="sans-serif" font-size="11" lengthAdjust="spacingAndGlyphs" textLength="346" x="62" y="751.9814">basicSetPlanningData(PlanningData, NotificationChain): NotificationChain</text><ellipse cx="53" cy="761.3984" fill="#84BE84" rx="3" ry="3" style="stroke: #038048; stroke-width: 1.0;"/><text fill="#000000" font-family="sans-serif" font-size="11" lengthAdjust="spacingAndGlyphs" textLength="173" x="62" y="765.8174">setPlanningData(PlanningData): void</text><ellipse cx="53" cy="775.2344" fill="#84BE84" rx="3" ry="3" style="stroke: #038048; stroke-width: 1.0;"/><text fill="#000000" font-family="sans-serif" font-size="11" lengthAdjust="spacingAndGlyphs" textLength="138" x="62" y="779.6533">getSuperActivities(): Activity</text><ellipse cx="53" cy="789.0703" fill="#84BE84" rx="3" ry="3" style="stroke: #038048; stroke-width: 1.0;"/><text fill="#000000" font-family="sans-serif" font-size="11" lengthAdjust="spacingAndGlyphs" textLength="166" x="62" y="793.4893">basicGetSuperActivities(): Activity</text><ellipse cx="53" cy="802.9063" fill="#84BE84" rx="3" ry="3" style="stroke: #038048; stroke-width: 1.0;"/><text fill="#000000" font-family="sans-serif" font-size="11" lengthAdjust="spacingAndGlyphs" textLength="331" x="62" y="807.3252">basicSetSuperActivities(Activity, NotificationChain): NotificationChain</text><ellipse cx="53" cy="816.7422" fill="#84BE84" rx="3" ry="3" style="stroke: #038048; stroke-width: 1.0;"/><text fill="#000000" font-family="sans-serif" font-size="11" lengthAdjust="spacingAndGlyphs" textLength="158" x="62" y="821.1611">setSuperActivities(Activity): void</text><ellipse cx="53" cy="830.5781" fill="#84BE84" rx="3" ry="3" style="stroke: #038048; stroke-width: 1.0;"/><text fill="#000000" font-family="sans-serif" font-size="11" lengthAdjust="spacingAndGlyphs" textLength="156" x="62" y="834.9971">getChecklists(): EList&lt;Checklist&gt;</text><ellipse cx="53" cy="844.4141" fill="#84BE84" rx="3" ry="3" style="stroke: #038048; stroke-width: 1.0;"/><text fill="#000000" font-family="sans-serif" font-size="11" lengthAdjust="spacingAndGlyphs" textLength="150" x="62" y="848.833">getConcepts(): EList&lt;Concept&gt;</text><ellipse cx="53" cy="858.25" fill="#84BE84" rx="3" ry="3" style="stroke: #038048; stroke-width: 1.0;"/><text fill="#000000" font-family="sans-serif" font-size="11" lengthAdjust="spacingAndGlyphs" textLength="150" x="62" y="862.6689">getExamples(): EList&lt;Example&gt;</text><ellipse cx="53" cy="872.0859" fill="#84BE84" rx="3" ry="3" style="stroke: #038048; stroke-width: 1.0;"/><text fill="#000000" font-family="sans-serif" font-size="11" lengthAdjust="spacingAndGlyphs" textLength="158" x="62" y="876.5049">getGuidelines(): EList&lt;Guideline&gt;</text><ellipse cx="53" cy="885.9219" fill="#84BE84" rx="3" ry="3" style="stroke: #038048; stroke-width: 1.0;"/><text fill="#000000" font-family="sans-serif" font-size="11" lengthAdjust="spacingAndGlyphs" textLength="218" x="62" y="890.3408">getReusableAssets(): EList&lt;ReusableAsset&gt;</text><ellipse cx="53" cy="899.7578" fill="#84BE84" rx="3" ry="3" style="stroke: #038048; stroke-width: 1.0;"/><text fill="#000000" font-family="sans-serif" font-size="11" lengthAdjust="spacingAndGlyphs" textLength="248" x="62" y="904.1768">getSupportingMaterials(): EList&lt;SupportingMaterial&gt;</text><ellipse cx="53" cy="913.5938" fill="#84BE84" rx="3" ry="3" style="stroke: #038048; stroke-width: 1.0;"/><text fill="#000000" font-family="sans-serif" font-size="11" lengthAdjust="spacingAndGlyphs" textLength="156" x="62" y="918.0127">getTemplates(): EList&lt;Template&gt;</text><ellipse cx="53" cy="927.4297" fill="#84BE84" rx="3" ry="3" style="stroke: #038048; stroke-width: 1.0;"/><text fill="#000000" font-family="sans-serif" font-size="11" lengthAdjust="spacingAndGlyphs" textLength="134" x="62" y="931.8486">getReports(): EList&lt;Report&gt;</text><ellipse cx="53" cy="941.2656" fill="#84BE84" rx="3" ry="3" style="stroke: #038048; stroke-width: 1.0;"/><text fill="#000000" font-family="sans-serif" font-size="11" lengthAdjust="spacingAndGlyphs" textLength="303" x="62" y="945.6846">getEstimationconsiderations(): EList&lt;EstimationConsiderations&gt;</text><ellipse cx="53" cy="955.1016" fill="#84BE84" rx="3" ry="3" style="stroke: #038048; stroke-width: 1.0;"/><text fill="#000000" font-family="sans-serif" font-size="11" lengthAdjust="spacingAndGlyphs" textLength="170" x="62" y="959.5205">getToolmentor(): EList&lt;ToolMentor&gt;</text><ellipse cx="53" cy="968.9375" fill="#84BE84" rx="3" ry="3" style="stroke: #038048; stroke-width: 1.0;"/><text fill="#000000" font-family="sans-serif" font-size="11" lengthAdjust="spacingAndGlyphs" textLength="331" x="62" y="973.3564">eInverseAdd(InternalEObject, int, NotificationChain): NotificationChain</text><ellipse cx="53" cy="982.7734" fill="#84BE84" rx="3" ry="3" style="stroke: #038048; stroke-width: 1.0;"/><text fill="#000000" font-family="sans-serif" font-size="11" lengthAdjust="spacingAndGlyphs" textLength="350" x="62" y="987.1924">eInverseRemove(InternalEObject, int, NotificationChain): NotificationChain</text><ellipse cx="53" cy="996.6094" fill="#84BE84" rx="3" ry="3" style="stroke: #038048; stroke-width: 1.0;"/><text fill="#000000" font-family="sans-serif" font-size="11" lengthAdjust="spacingAndGlyphs" textLength="167" x="62" y="1001.0283">eGet(int, boolean, boolean): Object</text><ellipse cx="53" cy="1010.4453" fill="#84BE84" rx="3" ry="3" style="stroke: #038048; stroke-width: 1.0;"/><text fill="#000000" font-family="sans-serif" font-size="11" lengthAdjust="spacingAndGlyphs" textLength="104" x="62" y="1014.8643">eSet(int, Object): void</text><ellipse cx="53" cy="1024.2813" fill="#84BE84" rx="3" ry="3" style="stroke: #038048; stroke-width: 1.0;"/><text fill="#000000" font-family="sans-serif" font-size="11" lengthAdjust="spacingAndGlyphs" textLength="79" x="62" y="1028.7002">eUnset(int): void</text><ellipse cx="53" cy="1038.1172" fill="#84BE84" rx="3" ry="3" style="stroke: #038048; stroke-width: 1.0;"/><text fill="#000000" font-family="sans-serif" font-size="11" lengthAdjust="spacingAndGlyphs" textLength="93" x="62" y="1042.5361">eIsSet(int): boolean</text></a><!--MD5=[8c3cf60cf2d9a35cbea2f14b42beac3e]
class org.eclipse.epf.uma.impl.ProcessElementImpl--><a href="ProcessElementImpl.html" target="_top" title="ProcessElementImpl.html" xlink:actuate="onRequest" xlink:href="ProcessElementImpl.html" xlink:show="new" xlink:title="ProcessElementImpl.html" xlink:type="simple"><rect codeLine="46" fill="#FEFECE" filter="url(#f1qjs4cr729cpp)" height="40.1875" id="org.eclipse.epf.uma.impl.ProcessElementImpl" style="stroke: #A80036; stroke-width: 1.5;" width="160" x="7" y="191"/><ellipse cx="22" cy="211.0938" fill="#A9DCDF" rx="11" ry="11" style="stroke: #A80036; stroke-width: 1.0;"/><path d="M24.1875,212.8594 L20.0469,212.8594 L19.625,213.8906 L20.0469,213.8906 Q20.6563,213.8906 20.9219,214.125 Q21.1875,214.3594 21.1875,214.75 Q21.1875,215.125 20.9219,215.3594 Q20.6563,215.5938 20.0469,215.5938 L17.75,215.5938 Q17.1406,215.5938 16.8906,215.3594 Q16.625,215.125 16.625,214.7344 Q16.625,214.3594 16.9063,214.125 Q17.1719,213.875 17.7969,213.8906 L20.4688,207.2344 L19.3594,207.2344 Q18.75,207.2344 18.4844,207 Q18.2188,206.7656 18.2188,206.375 Q18.2188,206 18.4844,205.7656 Q18.75,205.5313 19.3594,205.5313 L23.0313,205.5313 L26.4219,213.8906 Q27.0156,213.8906 27.2031,214.0313 Q27.5938,214.2969 27.5938,214.75 Q27.5938,215.125 27.3281,215.3594 Q27.0781,215.5938 26.4688,215.5938 L24.1719,215.5938 Q23.5625,215.5938 23.2969,215.3594 Q23.0313,215.125 23.0313,214.7344 Q23.0313,214.3594 23.2969,214.125 Q23.5625,213.8906 24.1719,213.8906 L24.5938,213.8906 L24.1875,212.8594 Z M23.4688,211.1563 L22.1094,207.7813 L20.7344,211.1563 L23.4688,211.1563 Z "/><text fill="#000000" font-family="sans-serif" font-size="14" font-style="italic" lengthAdjust="spacingAndGlyphs" textLength="128" x="36" y="210.5332">ProcessElementImpl</text><text fill="#000000" font-family="sans-serif" font-size="10" font-style="italic" lengthAdjust="spacingAndGlyphs" textLength="114" x="43" y="223.9902">org.eclipse.epf.uma.impl</text></a><!--MD5=[8b709b06937b89a4b5aa0469babb9b4e]
class org.eclipse.epf.uma.BreakdownElement--><a href="..\BreakdownElement.html" target="_top" title="..\BreakdownElement.html" xlink:actuate="onRequest" xlink:href="..\BreakdownElement.html" xlink:show="new" xlink:title="..\BreakdownElement.html" xlink:type="simple"><rect codeLine="47" fill="#FEFECE" filter="url(#f1qjs4cr729cpp)" height="407.9219" id="org.eclipse.epf.uma.BreakdownElement" style="stroke: #A80036; stroke-width: 1.5;" width="344" x="202" y="7"/><ellipse cx="308.75" cy="27.0938" fill="#B4A7E5" rx="11" ry="11" style="stroke: #A80036; stroke-width: 1.0;"/><path d="M309.7031,23.7344 L309.7031,30.3906 L311.4219,30.3906 Q312.0313,30.3906 312.2969,30.625 Q312.5625,30.8594 312.5625,31.25 Q312.5625,31.625 312.2969,31.8594 Q312.0313,32.0938 311.4219,32.0938 L306.2813,32.0938 Q305.6719,32.0938 305.4063,31.8594 Q305.1406,31.625 305.1406,31.2344 Q305.1406,30.8594 305.4063,30.625 Q305.6719,30.3906 306.2813,30.3906 L308,30.3906 L308,23.7344 L306.2813,23.7344 Q305.6719,23.7344 305.4063,23.5 Q305.1406,23.2656 305.1406,22.875 Q305.1406,22.5 305.4063,22.2656 Q305.6719,22.0313 306.2813,22.0313 L311.4219,22.0313 Q312.0313,22.0313 312.2969,22.2656 Q312.5625,22.5 312.5625,22.875 Q312.5625,23.2656 312.2969,23.5 Q312.0313,23.7344 311.4219,23.7344 L309.7031,23.7344 Z "/><text fill="#000000" font-family="sans-serif" font-size="14" font-style="italic" lengthAdjust="spacingAndGlyphs" textLength="122" x="329.25" y="26.5332">BreakdownElement</text><text fill="#000000" font-family="sans-serif" font-size="10" font-style="italic" lengthAdjust="spacingAndGlyphs" textLength="92" x="344.25" y="39.9902">org.eclipse.epf.uma</text><line style="stroke: #A80036; stroke-width: 1.5;" x1="203" x2="545" y1="47.1875" y2="47.1875"/><ellipse cx="213" cy="58.1875" fill="#84BE84" rx="3" ry="3" style="stroke: #038048; stroke-width: 1.0;"/><text fill="#000000" font-family="sans-serif" font-size="11" font-style="italic" lengthAdjust="spacingAndGlyphs" textLength="87" x="222" y="62.6064">getPrefix(): String</text><ellipse cx="213" cy="72.0234" fill="#84BE84" rx="3" ry="3" style="stroke: #038048; stroke-width: 1.0;"/><text fill="#000000" font-family="sans-serif" font-size="11" font-style="italic" lengthAdjust="spacingAndGlyphs" textLength="107" x="222" y="76.4424">setPrefix(String): void</text><ellipse cx="213" cy="85.8594" fill="#84BE84" rx="3" ry="3" style="stroke: #038048; stroke-width: 1.0;"/><text fill="#000000" font-family="sans-serif" font-size="11" font-style="italic" lengthAdjust="spacingAndGlyphs" textLength="118" x="222" y="90.2783">getIsPlanned(): Boolean</text><ellipse cx="213" cy="99.6953" fill="#84BE84" rx="3" ry="3" style="stroke: #038048; stroke-width: 1.0;"/><text fill="#000000" font-family="sans-serif" font-size="11" font-style="italic" lengthAdjust="spacingAndGlyphs" textLength="138" x="222" y="104.1143">setIsPlanned(Boolean): void</text><ellipse cx="213" cy="113.5313" fill="#84BE84" rx="3" ry="3" style="stroke: #038048; stroke-width: 1.0;"/><text fill="#000000" font-family="sans-serif" font-size="11" font-style="italic" lengthAdjust="spacingAndGlyphs" textLength="193" x="222" y="117.9502">getHasMultipleOccurrences(): Boolean</text><ellipse cx="213" cy="127.3672" fill="#84BE84" rx="3" ry="3" style="stroke: #038048; stroke-width: 1.0;"/><text fill="#000000" font-family="sans-serif" font-size="11" font-style="italic" lengthAdjust="spacingAndGlyphs" textLength="213" x="222" y="131.7861">setHasMultipleOccurrences(Boolean): void</text><ellipse cx="213" cy="141.2031" fill="#84BE84" rx="3" ry="3" style="stroke: #038048; stroke-width: 1.0;"/><text fill="#000000" font-family="sans-serif" font-size="11" font-style="italic" lengthAdjust="spacingAndGlyphs" textLength="120" x="222" y="145.6221">getIsOptional(): Boolean</text><ellipse cx="213" cy="155.0391" fill="#84BE84" rx="3" ry="3" style="stroke: #038048; stroke-width: 1.0;"/><text fill="#000000" font-family="sans-serif" font-size="11" font-style="italic" lengthAdjust="spacingAndGlyphs" textLength="140" x="222" y="159.458">setIsOptional(Boolean): void</text><ellipse cx="213" cy="168.875" fill="#84BE84" rx="3" ry="3" style="stroke: #038048; stroke-width: 1.0;"/><text fill="#000000" font-family="sans-serif" font-size="11" font-style="italic" lengthAdjust="spacingAndGlyphs" textLength="196" x="222" y="173.2939">getPresentedAfter(): BreakdownElement</text><ellipse cx="213" cy="182.7109" fill="#84BE84" rx="3" ry="3" style="stroke: #038048; stroke-width: 1.0;"/><text fill="#000000" font-family="sans-serif" font-size="11" font-style="italic" lengthAdjust="spacingAndGlyphs" textLength="216" x="222" y="187.1299">setPresentedAfter(BreakdownElement): void</text><ellipse cx="213" cy="196.5469" fill="#84BE84" rx="3" ry="3" style="stroke: #038048; stroke-width: 1.0;"/><text fill="#000000" font-family="sans-serif" font-size="11" font-style="italic" lengthAdjust="spacingAndGlyphs" textLength="205" x="222" y="200.9658">getPresentedBefore(): BreakdownElement</text><ellipse cx="213" cy="210.3828" fill="#84BE84" rx="3" ry="3" style="stroke: #038048; stroke-width: 1.0;"/><text fill="#000000" font-family="sans-serif" font-size="11" font-style="italic" lengthAdjust="spacingAndGlyphs" textLength="225" x="222" y="214.8018">setPresentedBefore(BreakdownElement): void</text><ellipse cx="213" cy="224.2188" fill="#84BE84" rx="3" ry="3" style="stroke: #038048; stroke-width: 1.0;"/><text fill="#000000" font-family="sans-serif" font-size="11" font-style="italic" lengthAdjust="spacingAndGlyphs" textLength="161" x="222" y="228.6377">getPlanningData(): PlanningData</text><ellipse cx="213" cy="238.0547" fill="#84BE84" rx="3" ry="3" style="stroke: #038048; stroke-width: 1.0;"/><text fill="#000000" font-family="sans-serif" font-size="11" font-style="italic" lengthAdjust="spacingAndGlyphs" textLength="181" x="222" y="242.4736">setPlanningData(PlanningData): void</text><ellipse cx="213" cy="251.8906" fill="#84BE84" rx="3" ry="3" style="stroke: #038048; stroke-width: 1.0;"/><text fill="#000000" font-family="sans-serif" font-size="11" font-style="italic" lengthAdjust="spacingAndGlyphs" textLength="138" x="222" y="256.3096">getSuperActivities(): Activity</text><ellipse cx="213" cy="265.7266" fill="#84BE84" rx="3" ry="3" style="stroke: #038048; stroke-width: 1.0;"/><text fill="#000000" font-family="sans-serif" font-size="11" font-style="italic" lengthAdjust="spacingAndGlyphs" textLength="158" x="222" y="270.1455">setSuperActivities(Activity): void</text><ellipse cx="213" cy="279.5625" fill="#84BE84" rx="3" ry="3" style="stroke: #038048; stroke-width: 1.0;"/><text fill="#000000" font-family="sans-serif" font-size="11" font-style="italic" lengthAdjust="spacingAndGlyphs" textLength="166" x="222" y="283.9814">getChecklists(): EList&lt;Checklist&gt;</text><ellipse cx="213" cy="293.3984" fill="#84BE84" rx="3" ry="3" style="stroke: #038048; stroke-width: 1.0;"/><text fill="#000000" font-family="sans-serif" font-size="11" font-style="italic" lengthAdjust="spacingAndGlyphs" textLength="154" x="222" y="297.8174">getConcepts(): EList&lt;Concept&gt;</text><ellipse cx="213" cy="307.2344" fill="#84BE84" rx="3" ry="3" style="stroke: #038048; stroke-width: 1.0;"/><text fill="#000000" font-family="sans-serif" font-size="11" font-style="italic" lengthAdjust="spacingAndGlyphs" textLength="158" x="222" y="311.6533">getExamples(): EList&lt;Example&gt;</text><ellipse cx="213" cy="321.0703" fill="#84BE84" rx="3" ry="3" style="stroke: #038048; stroke-width: 1.0;"/><text fill="#000000" font-family="sans-serif" font-size="11" font-style="italic" lengthAdjust="spacingAndGlyphs" textLength="168" x="222" y="325.4893">getGuidelines(): EList&lt;Guideline&gt;</text><ellipse cx="213" cy="334.9063" fill="#84BE84" rx="3" ry="3" style="stroke: #038048; stroke-width: 1.0;"/><text fill="#000000" font-family="sans-serif" font-size="11" font-style="italic" lengthAdjust="spacingAndGlyphs" textLength="224" x="222" y="339.3252">getReusableAssets(): EList&lt;ReusableAsset&gt;</text><ellipse cx="213" cy="348.7422" fill="#84BE84" rx="3" ry="3" style="stroke: #038048; stroke-width: 1.0;"/><text fill="#000000" font-family="sans-serif" font-size="11" font-style="italic" lengthAdjust="spacingAndGlyphs" textLength="258" x="222" y="353.1611">getSupportingMaterials(): EList&lt;SupportingMaterial&gt;</text><ellipse cx="213" cy="362.5781" fill="#84BE84" rx="3" ry="3" style="stroke: #038048; stroke-width: 1.0;"/><text fill="#000000" font-family="sans-serif" font-size="11" font-style="italic" lengthAdjust="spacingAndGlyphs" textLength="164" x="222" y="366.9971">getTemplates(): EList&lt;Template&gt;</text><ellipse cx="213" cy="376.4141" fill="#84BE84" rx="3" ry="3" style="stroke: #038048; stroke-width: 1.0;"/><text fill="#000000" font-family="sans-serif" font-size="11" font-style="italic" lengthAdjust="spacingAndGlyphs" textLength="138" x="222" y="380.833">getReports(): EList&lt;Report&gt;</text><ellipse cx="213" cy="390.25" fill="#84BE84" rx="3" ry="3" style="stroke: #038048; stroke-width: 1.0;"/><text fill="#000000" font-family="sans-serif" font-size="11" font-style="italic" lengthAdjust="spacingAndGlyphs" textLength="318" x="222" y="394.6689">getEstimationconsiderations(): EList&lt;EstimationConsiderations&gt;</text><ellipse cx="213" cy="404.0859" fill="#84BE84" rx="3" ry="3" style="stroke: #038048; stroke-width: 1.0;"/><text fill="#000000" font-family="sans-serif" font-size="11" font-style="italic" lengthAdjust="spacingAndGlyphs" textLength="178" x="222" y="408.5049">getToolmentor(): EList&lt;ToolMentor&gt;</text></a><!--MD5=[ec9c892f6b4ce5816bd1c40680ad529e]
reverse link org.eclipse.epf.uma.impl.ProcessElementImpl to org.eclipse.epf.uma.impl.BreakdownElementImpl--><path codeLine="76" d="M97.12,250.85 C109.71,299.2 132.39,386.25 155.48,474.92 " fill="none" id="org.eclipse.epf.uma.impl.ProcessElementImpl-backto-org.eclipse.epf.uma.impl.BreakdownElementImpl" style="stroke: #A80036; stroke-width: 1.0;"/><polygon fill="none" points="90.27,252.34,92.01,231.22,103.82,248.81,90.27,252.34" style="stroke: #A80036; stroke-width: 1.0;"/><!--MD5=[5ea55f8cedabffc9268f0cd079b2753c]
reverse link org.eclipse.epf.uma.BreakdownElement to org.eclipse.epf.uma.impl.BreakdownElementImpl--><path codeLine="77" d="M315.6,434.64 C312.11,447.97 308.57,461.46 305.02,474.99 " fill="none" id="org.eclipse.epf.uma.BreakdownElement-backto-org.eclipse.epf.uma.impl.BreakdownElementImpl" style="stroke: #A80036; stroke-width: 1.0; stroke-dasharray: 7.0,7.0;"/><polygon fill="none" points="308.84,432.83,320.69,415.26,322.38,436.38,308.84,432.83" style="stroke: #A80036; stroke-width: 1.0;"/><text fill="#888888" font-family="sans-serif" font-size="10" lengthAdjust="spacingAndGlyphs" textLength="190" x="178.5" y="1072.334">UMLDoclet 2.0.12, PlantUML 1.2020.16</text><!--MD5=[176f56806e8b0a28c854a5d1815bf4e0]
@startuml
    set namespaceSeparator none
    hide empty fields
    hide empty methods

    abstract class "<size:14>BreakdownElementImpl\n<size:10>org.eclipse.epf.uma.impl" as org.eclipse.epf.uma.impl.BreakdownElementImpl [[BreakdownElementImpl.html]] {
        +getPrefix(): String
        +setPrefix(String): void
        +getIsPlanned(): Boolean
        +setIsPlanned(Boolean): void
        +getHasMultipleOccurrences(): Boolean
        +setHasMultipleOccurrences(Boolean): void
        +getIsOptional(): Boolean
        +setIsOptional(Boolean): void
        +getPresentedAfter(): BreakdownElement
        +basicGetPresentedAfter(): BreakdownElement
        +setPresentedAfter(BreakdownElement): void
        +getPresentedBefore(): BreakdownElement
        +basicGetPresentedBefore(): BreakdownElement
        +setPresentedBefore(BreakdownElement): void
        +getPlanningData(): PlanningData
        +basicGetPlanningData(): PlanningData
        +basicSetPlanningData(PlanningData, NotificationChain): NotificationChain
        +setPlanningData(PlanningData): void
        +getSuperActivities(): Activity
        +basicGetSuperActivities(): Activity
        +basicSetSuperActivities(Activity, NotificationChain): NotificationChain
        +setSuperActivities(Activity): void
        +getChecklists(): EList<Checklist>
        +getConcepts(): EList<Concept>
        +getExamples(): EList<Example>
        +getGuidelines(): EList<Guideline>
        +getReusableAssets(): EList<ReusableAsset>
        +getSupportingMaterials(): EList<SupportingMaterial>
        +getTemplates(): EList<Template>
        +getReports(): EList<Report>
        +getEstimationconsiderations(): EList<EstimationConsiderations>
        +getToolmentor(): EList<ToolMentor>
        +eInverseAdd(InternalEObject, int, NotificationChain): NotificationChain
        +eInverseRemove(InternalEObject, int, NotificationChain): NotificationChain
        +eGet(int, boolean, boolean): Object
        +eSet(int, Object): void
        +eUnset(int): void
        +eIsSet(int): boolean
    }

    abstract class "<size:14>ProcessElementImpl\n<size:10>org.eclipse.epf.uma.impl" as org.eclipse.epf.uma.impl.ProcessElementImpl [[ProcessElementImpl.html]]
    interface "<size:14>BreakdownElement\n<size:10>org.eclipse.epf.uma" as org.eclipse.epf.uma.BreakdownElement [[..\BreakdownElement.html]] {
        {abstract} +getPrefix(): String
        {abstract} +setPrefix(String): void
        {abstract} +getIsPlanned(): Boolean
        {abstract} +setIsPlanned(Boolean): void
        {abstract} +getHasMultipleOccurrences(): Boolean
        {abstract} +setHasMultipleOccurrences(Boolean): void
        {abstract} +getIsOptional(): Boolean
        {abstract} +setIsOptional(Boolean): void
        {abstract} +getPresentedAfter(): BreakdownElement
        {abstract} +setPresentedAfter(BreakdownElement): void
        {abstract} +getPresentedBefore(): BreakdownElement
        {abstract} +setPresentedBefore(BreakdownElement): void
        {abstract} +getPlanningData(): PlanningData
        {abstract} +setPlanningData(PlanningData): void
        {abstract} +getSuperActivities(): Activity
        {abstract} +setSuperActivities(Activity): void
        {abstract} +getChecklists(): EList<Checklist>
        {abstract} +getConcepts(): EList<Concept>
        {abstract} +getExamples(): EList<Example>
        {abstract} +getGuidelines(): EList<Guideline>
        {abstract} +getReusableAssets(): EList<ReusableAsset>
        {abstract} +getSupportingMaterials(): EList<SupportingMaterial>
        {abstract} +getTemplates(): EList<Template>
        {abstract} +getReports(): EList<Report>
        {abstract} +getEstimationconsiderations(): EList<EstimationConsiderations>
        {abstract} +getToolmentor(): EList<ToolMentor>
    }

    org.eclipse.epf.uma.impl.ProcessElementImpl <|- - org.eclipse.epf.uma.impl.BreakdownElementImpl
    org.eclipse.epf.uma.BreakdownElement <|.. org.eclipse.epf.uma.impl.BreakdownElementImpl

    center footer UMLDoclet 2.0.12, PlantUML 1.2020.16
@enduml

PlantUML version 1.2020.16(Sun Aug 23 22:20:43 CEST 2020)
(APACHE source distribution)
Java Runtime: Java(TM) SE Runtime Environment
JVM: Java HotSpot(TM) 64-Bit Server VM
Default Encoding: Cp1252
Language: es
Country: ES
--></g></svg>