<?xml version="1.0" encoding="UTF-8" standalone="no"?><svg xmlns="http://www.w3.org/2000/svg" xmlns:xlink="http://www.w3.org/1999/xlink" contentScriptType="application/ecmascript" contentStyleType="text/css" height="184px" preserveAspectRatio="none" style="width:347px;height:184px;" version="1.1" viewBox="0 0 347 184" width="347px" zoomAndPan="magnify"><defs><filter height="300%" id="f1qocsih2crdui" width="300%" x="-1" y="-1"><feGaussianBlur result="blurOut" stdDeviation="2.0"/><feColorMatrix in="blurOut" result="blurOut2" type="matrix" values="0 0 0 0 0 0 0 0 0 0 0 0 0 0 0 0 0 0 .4 0"/><feOffset dx="4.0" dy="4.0" in="blurOut2" result="blurOut3"/><feBlend in="SourceGraphic" in2="blurOut3" mode="normal"/></filter></defs><g><!--MD5=[ae3384dc6f0a62a0a0cda45f5749a6d5]
class org.eclipse.epf.uma.impl.CapabilityPatternImpl--><a href="CapabilityPatternImpl.html" target="_top" title="CapabilityPatternImpl.html" xlink:actuate="onRequest" xlink:href="CapabilityPatternImpl.html" xlink:show="new" xlink:title="CapabilityPatternImpl.html" xlink:type="simple"><rect codeLine="5" fill="#FEFECE" filter="url(#f1qocsih2crdui)" height="40.1875" id="org.eclipse.epf.uma.impl.CapabilityPatternImpl" style="stroke: #A80036; stroke-width: 1.5;" width="165" x="86.5" y="107"/><ellipse cx="101.5" cy="127.0938" fill="#ADD1B2" rx="11" ry="11" style="stroke: #A80036; stroke-width: 1.0;"/><path d="M104.2656,122.9688 Q104.4219,122.75 104.6094,122.6406 Q104.7969,122.5313 105.0156,122.5313 Q105.3906,122.5313 105.625,122.7969 Q105.8594,123.0469 105.8594,123.6563 L105.8594,125.1094 Q105.8594,125.7188 105.625,125.9844 Q105.3906,126.25 105.0156,126.25 Q104.6719,126.25 104.4688,126.0469 Q104.2656,125.8594 104.1563,125.3438 Q104.1094,124.9844 103.9219,124.7969 Q103.5938,124.4219 102.9844,124.2031 Q102.375,123.9844 101.75,123.9844 Q100.9844,123.9844 100.3438,124.3125 Q99.7188,124.6406 99.2188,125.3906 Q98.7344,126.1406 98.7344,127.1719 L98.7344,128.2656 Q98.7344,129.5 99.625,130.3281 Q100.5156,131.1406 102.1094,131.1406 Q103.0469,131.1406 103.7031,130.8906 Q104.0938,130.7344 104.5156,130.2969 Q104.7813,130.0313 104.9219,129.9531 Q105.0781,129.875 105.2813,129.875 Q105.6094,129.875 105.8594,130.1406 Q106.125,130.3906 106.125,130.7344 Q106.125,131.0781 105.7813,131.4844 Q105.2813,132.0625 104.4844,132.3906 Q103.4063,132.8438 102.1094,132.8438 Q100.5938,132.8438 99.3906,132.2188 Q98.4063,131.7188 97.7188,130.6563 Q97.0313,129.5781 97.0313,128.2969 L97.0313,127.1406 Q97.0313,125.8125 97.6406,124.6719 Q98.2656,123.5156 99.3594,122.9063 Q100.4531,122.2813 101.6875,122.2813 Q102.4219,122.2813 103.0625,122.4531 Q103.7188,122.6094 104.2656,122.9688 Z "/><text fill="#000000" font-family="sans-serif" font-size="14" lengthAdjust="spacingAndGlyphs" textLength="133" x="115.5" y="126.5332">CapabilityPatternImpl</text><text fill="#000000" font-family="sans-serif" font-size="10" lengthAdjust="spacingAndGlyphs" textLength="118" x="123" y="139.9902">org.eclipse.epf.uma.impl</text></a><!--MD5=[a669480c26f41a3deaeec69de9cc7790]
class org.eclipse.epf.uma.impl.ProcessImpl--><a href="ProcessImpl.html" target="_top" title="ProcessImpl.html" xlink:actuate="onRequest" xlink:href="ProcessImpl.html" xlink:show="new" xlink:title="ProcessImpl.html" xlink:type="simple"><rect codeLine="8" fill="#FEFECE" filter="url(#f1qocsih2crdui)" height="40.1875" id="org.eclipse.epf.uma.impl.ProcessImpl" style="stroke: #A80036; stroke-width: 1.5;" width="146" x="7" y="7"/><ellipse cx="22" cy="27.0938" fill="#A9DCDF" rx="11" ry="11" style="stroke: #A80036; stroke-width: 1.0;"/><path d="M24.1875,28.8594 L20.0469,28.8594 L19.625,29.8906 L20.0469,29.8906 Q20.6563,29.8906 20.9219,30.125 Q21.1875,30.3594 21.1875,30.75 Q21.1875,31.125 20.9219,31.3594 Q20.6563,31.5938 20.0469,31.5938 L17.75,31.5938 Q17.1406,31.5938 16.8906,31.3594 Q16.625,31.125 16.625,30.7344 Q16.625,30.3594 16.9063,30.125 Q17.1719,29.875 17.7969,29.8906 L20.4688,23.2344 L19.3594,23.2344 Q18.75,23.2344 18.4844,23 Q18.2188,22.7656 18.2188,22.375 Q18.2188,22 18.4844,21.7656 Q18.75,21.5313 19.3594,21.5313 L23.0313,21.5313 L26.4219,29.8906 Q27.0156,29.8906 27.2031,30.0313 Q27.5938,30.2969 27.5938,30.75 Q27.5938,31.125 27.3281,31.3594 Q27.0781,31.5938 26.4688,31.5938 L24.1719,31.5938 Q23.5625,31.5938 23.2969,31.3594 Q23.0313,31.125 23.0313,30.7344 Q23.0313,30.3594 23.2969,30.125 Q23.5625,29.8906 24.1719,29.8906 L24.5938,29.8906 L24.1875,28.8594 Z M23.4688,27.1563 L22.1094,23.7813 L20.7344,27.1563 L23.4688,27.1563 Z "/><text fill="#000000" font-family="sans-serif" font-size="14" font-style="italic" lengthAdjust="spacingAndGlyphs" textLength="77" x="54.5" y="26.5332">ProcessImpl</text><text fill="#000000" font-family="sans-serif" font-size="10" font-style="italic" lengthAdjust="spacingAndGlyphs" textLength="114" x="36" y="39.9902">org.eclipse.epf.uma.impl</text></a><!--MD5=[7701148f58ab3dd42b4e27e2488cb083]
class org.eclipse.epf.uma.CapabilityPattern--><a href="..\CapabilityPattern.html" target="_top" title="..\CapabilityPattern.html" xlink:actuate="onRequest" xlink:href="..\CapabilityPattern.html" xlink:show="new" xlink:title="..\CapabilityPattern.html" xlink:type="simple"><rect codeLine="9" fill="#FEFECE" filter="url(#f1qocsih2crdui)" height="40.1875" id="org.eclipse.epf.uma.CapabilityPattern" style="stroke: #A80036; stroke-width: 1.5;" width="140" x="188" y="7"/><ellipse cx="203" cy="27.0938" fill="#B4A7E5" rx="11" ry="11" style="stroke: #A80036; stroke-width: 1.0;"/><path d="M203.9531,23.7344 L203.9531,30.3906 L205.6719,30.3906 Q206.2813,30.3906 206.5469,30.625 Q206.8125,30.8594 206.8125,31.25 Q206.8125,31.625 206.5469,31.8594 Q206.2813,32.0938 205.6719,32.0938 L200.5313,32.0938 Q199.9219,32.0938 199.6563,31.8594 Q199.3906,31.625 199.3906,31.2344 Q199.3906,30.8594 199.6563,30.625 Q199.9219,30.3906 200.5313,30.3906 L202.25,30.3906 L202.25,23.7344 L200.5313,23.7344 Q199.9219,23.7344 199.6563,23.5 Q199.3906,23.2656 199.3906,22.875 Q199.3906,22.5 199.6563,22.2656 Q199.9219,22.0313 200.5313,22.0313 L205.6719,22.0313 Q206.2813,22.0313 206.5469,22.2656 Q206.8125,22.5 206.8125,22.875 Q206.8125,23.2656 206.5469,23.5 Q206.2813,23.7344 205.6719,23.7344 L203.9531,23.7344 Z "/><text fill="#000000" font-family="sans-serif" font-size="14" font-style="italic" lengthAdjust="spacingAndGlyphs" textLength="108" x="217" y="26.5332">CapabilityPattern</text><text fill="#000000" font-family="sans-serif" font-size="10" font-style="italic" lengthAdjust="spacingAndGlyphs" textLength="92" x="225" y="39.9902">org.eclipse.epf.uma</text></a><!--MD5=[b6ed64177da4f72c7b2ec12ac2f9f07f]
reverse link org.eclipse.epf.uma.impl.ProcessImpl to org.eclipse.epf.uma.impl.CapabilityPatternImpl--><path codeLine="11" d="M111.25,62.41 C124.73,77.26 140,94.07 151.45,106.68 " fill="none" id="org.eclipse.epf.uma.impl.ProcessImpl-backto-org.eclipse.epf.uma.impl.CapabilityPatternImpl" style="stroke: #A80036; stroke-width: 1.0;"/><polygon fill="none" points="105.85,66.87,97.58,47.36,116.21,57.46,105.85,66.87" style="stroke: #A80036; stroke-width: 1.0;"/><!--MD5=[42317ee8be04ba5976cc2e23676610c7]
reverse link org.eclipse.epf.uma.CapabilityPattern to org.eclipse.epf.uma.impl.CapabilityPatternImpl--><path codeLine="12" d="M226.75,62.41 C213.27,77.26 198,94.07 186.55,106.68 " fill="none" id="org.eclipse.epf.uma.CapabilityPattern-backto-org.eclipse.epf.uma.impl.CapabilityPatternImpl" style="stroke: #A80036; stroke-width: 1.0; stroke-dasharray: 7.0,7.0;"/><polygon fill="none" points="221.79,57.46,240.42,47.36,232.15,66.87,221.79,57.46" style="stroke: #A80036; stroke-width: 1.0;"/><text fill="#888888" font-family="sans-serif" font-size="10" lengthAdjust="spacingAndGlyphs" textLength="190" x="69.5" y="170.5684">UMLDoclet 2.0.12, PlantUML 1.2020.16</text><!--MD5=[7ee5514369f26fc9e75fa586670a26d3]
@startuml
    set namespaceSeparator none
    hide empty fields
    hide empty methods

    class "<size:14>CapabilityPatternImpl\n<size:10>org.eclipse.epf.uma.impl" as org.eclipse.epf.uma.impl.CapabilityPatternImpl [[CapabilityPatternImpl.html]] {
    }

    abstract class "<size:14>ProcessImpl\n<size:10>org.eclipse.epf.uma.impl" as org.eclipse.epf.uma.impl.ProcessImpl [[ProcessImpl.html]]
    interface "<size:14>CapabilityPattern\n<size:10>org.eclipse.epf.uma" as org.eclipse.epf.uma.CapabilityPattern [[..\CapabilityPattern.html]]

    org.eclipse.epf.uma.impl.ProcessImpl <|- - org.eclipse.epf.uma.impl.CapabilityPatternImpl
    org.eclipse.epf.uma.CapabilityPattern <|.. org.eclipse.epf.uma.impl.CapabilityPatternImpl

    center footer UMLDoclet 2.0.12, PlantUML 1.2020.16
@enduml

PlantUML version 1.2020.16(Sun Aug 23 22:20:43 CEST 2020)
(APACHE source distribution)
Java Runtime: Java(TM) SE Runtime Environment
JVM: Java HotSpot(TM) 64-Bit Server VM
Default Encoding: Cp1252
Language: es
Country: ES
--></g></svg>