<?xml version="1.0" encoding="UTF-8" standalone="no"?><svg xmlns="http://www.w3.org/2000/svg" xmlns:xlink="http://www.w3.org/1999/xlink" contentScriptType="application/ecmascript" contentStyleType="text/css" height="311px" preserveAspectRatio="none" style="width:373px;height:311px;" version="1.1" viewBox="0 0 373 311" width="373px" zoomAndPan="magnify"><defs><filter height="300%" id="fb3f1v2vzammr" width="300%" x="-1" y="-1"><feGaussianBlur result="blurOut" stdDeviation="2.0"/><feColorMatrix in="blurOut" result="blurOut2" type="matrix" values="0 0 0 0 0 0 0 0 0 0 0 0 0 0 0 0 0 0 .4 0"/><feOffset dx="4.0" dy="4.0" in="blurOut2" result="blurOut3"/><feBlend in="SourceGraphic" in2="blurOut3" mode="normal"/></filter></defs><g><!--MD5=[81fdfd4215bcb18c9231ccc96ccb2d4f]
class org.eclipse.epf.uma.impl.ClassifierImpl--><a href="ClassifierImpl.html" target="_top" title="ClassifierImpl.html" xlink:actuate="onRequest" xlink:href="ClassifierImpl.html" xlink:show="new" xlink:title="ClassifierImpl.html" xlink:type="simple"><rect codeLine="5" fill="#FEFECE" filter="url(#fb3f1v2vzammr)" height="131.2031" id="org.eclipse.epf.uma.impl.ClassifierImpl" style="stroke: #A80036; stroke-width: 1.5;" width="193" x="78.5" y="143"/><ellipse cx="114.65" cy="163.0938" fill="#A9DCDF" rx="11" ry="11" style="stroke: #A80036; stroke-width: 1.0;"/><path d="M116.8375,164.8594 L112.6969,164.8594 L112.275,165.8906 L112.6969,165.8906 Q113.3063,165.8906 113.5719,166.125 Q113.8375,166.3594 113.8375,166.75 Q113.8375,167.125 113.5719,167.3594 Q113.3063,167.5938 112.6969,167.5938 L110.4,167.5938 Q109.7906,167.5938 109.5406,167.3594 Q109.275,167.125 109.275,166.7344 Q109.275,166.3594 109.5563,166.125 Q109.8219,165.875 110.4469,165.8906 L113.1188,159.2344 L112.0094,159.2344 Q111.4,159.2344 111.1344,159 Q110.8688,158.7656 110.8688,158.375 Q110.8688,158 111.1344,157.7656 Q111.4,157.5313 112.0094,157.5313 L115.6813,157.5313 L119.0719,165.8906 Q119.6656,165.8906 119.8531,166.0313 Q120.2438,166.2969 120.2438,166.75 Q120.2438,167.125 119.9781,167.3594 Q119.7281,167.5938 119.1188,167.5938 L116.8219,167.5938 Q116.2125,167.5938 115.9469,167.3594 Q115.6813,167.125 115.6813,166.7344 Q115.6813,166.3594 115.9469,166.125 Q116.2125,165.8906 116.8219,165.8906 L117.2438,165.8906 L116.8375,164.8594 Z M116.1188,163.1563 L114.7594,159.7813 L113.3844,163.1563 L116.1188,163.1563 Z "/><text fill="#000000" font-family="sans-serif" font-size="14" font-style="italic" lengthAdjust="spacingAndGlyphs" textLength="84" x="148.35" y="162.5332">ClassifierImpl</text><text fill="#000000" font-family="sans-serif" font-size="10" font-style="italic" lengthAdjust="spacingAndGlyphs" textLength="114" x="133.35" y="175.9902">org.eclipse.epf.uma.impl</text><line style="stroke: #A80036; stroke-width: 1.5;" x1="79.5" x2="270.5" y1="183.1875" y2="183.1875"/><ellipse cx="89.5" cy="194.1875" fill="#84BE84" rx="3" ry="3" style="stroke: #038048; stroke-width: 1.0;"/><text fill="#000000" font-family="sans-serif" font-size="11" lengthAdjust="spacingAndGlyphs" textLength="118" x="98.5" y="198.6064">getIsAbstract(): Boolean</text><ellipse cx="89.5" cy="208.0234" fill="#84BE84" rx="3" ry="3" style="stroke: #038048; stroke-width: 1.0;"/><text fill="#000000" font-family="sans-serif" font-size="11" lengthAdjust="spacingAndGlyphs" textLength="138" x="98.5" y="212.4424">setIsAbstract(Boolean): void</text><ellipse cx="89.5" cy="221.8594" fill="#84BE84" rx="3" ry="3" style="stroke: #038048; stroke-width: 1.0;"/><text fill="#000000" font-family="sans-serif" font-size="11" lengthAdjust="spacingAndGlyphs" textLength="167" x="98.5" y="226.2783">eGet(int, boolean, boolean): Object</text><ellipse cx="89.5" cy="235.6953" fill="#84BE84" rx="3" ry="3" style="stroke: #038048; stroke-width: 1.0;"/><text fill="#000000" font-family="sans-serif" font-size="11" lengthAdjust="spacingAndGlyphs" textLength="104" x="98.5" y="240.1143">eSet(int, Object): void</text><ellipse cx="89.5" cy="249.5313" fill="#84BE84" rx="3" ry="3" style="stroke: #038048; stroke-width: 1.0;"/><text fill="#000000" font-family="sans-serif" font-size="11" lengthAdjust="spacingAndGlyphs" textLength="79" x="98.5" y="253.9502">eUnset(int): void</text><ellipse cx="89.5" cy="263.3672" fill="#84BE84" rx="3" ry="3" style="stroke: #038048; stroke-width: 1.0;"/><text fill="#000000" font-family="sans-serif" font-size="11" lengthAdjust="spacingAndGlyphs" textLength="93" x="98.5" y="267.7861">eIsSet(int): boolean</text></a><!--MD5=[b6cbfcb936a7ace112243a404d2c237e]
class org.eclipse.epf.uma.impl.TypeImpl--><a href="TypeImpl.html" target="_top" title="TypeImpl.html" xlink:actuate="onRequest" xlink:href="TypeImpl.html" xlink:show="new" xlink:title="TypeImpl.html" xlink:type="simple"><rect codeLine="14" fill="#FEFECE" filter="url(#fb3f1v2vzammr)" height="40.1875" id="org.eclipse.epf.uma.impl.TypeImpl" style="stroke: #A80036; stroke-width: 1.5;" width="146" x="7" y="25"/><ellipse cx="22" cy="45.0938" fill="#A9DCDF" rx="11" ry="11" style="stroke: #A80036; stroke-width: 1.0;"/><path d="M24.1875,46.8594 L20.0469,46.8594 L19.625,47.8906 L20.0469,47.8906 Q20.6563,47.8906 20.9219,48.125 Q21.1875,48.3594 21.1875,48.75 Q21.1875,49.125 20.9219,49.3594 Q20.6563,49.5938 20.0469,49.5938 L17.75,49.5938 Q17.1406,49.5938 16.8906,49.3594 Q16.625,49.125 16.625,48.7344 Q16.625,48.3594 16.9063,48.125 Q17.1719,47.875 17.7969,47.8906 L20.4688,41.2344 L19.3594,41.2344 Q18.75,41.2344 18.4844,41 Q18.2188,40.7656 18.2188,40.375 Q18.2188,40 18.4844,39.7656 Q18.75,39.5313 19.3594,39.5313 L23.0313,39.5313 L26.4219,47.8906 Q27.0156,47.8906 27.2031,48.0313 Q27.5938,48.2969 27.5938,48.75 Q27.5938,49.125 27.3281,49.3594 Q27.0781,49.5938 26.4688,49.5938 L24.1719,49.5938 Q23.5625,49.5938 23.2969,49.3594 Q23.0313,49.125 23.0313,48.7344 Q23.0313,48.3594 23.2969,48.125 Q23.5625,47.8906 24.1719,47.8906 L24.5938,47.8906 L24.1875,46.8594 Z M23.4688,45.1563 L22.1094,41.7813 L20.7344,45.1563 L23.4688,45.1563 Z "/><text fill="#000000" font-family="sans-serif" font-size="14" font-style="italic" lengthAdjust="spacingAndGlyphs" textLength="58" x="64" y="44.5332">TypeImpl</text><text fill="#000000" font-family="sans-serif" font-size="10" font-style="italic" lengthAdjust="spacingAndGlyphs" textLength="114" x="36" y="57.9902">org.eclipse.epf.uma.impl</text></a><!--MD5=[daffcb1b94bbd9cd136b4d328d98422d]
class org.eclipse.epf.uma.Classifier--><a href="..\Classifier.html" target="_top" title="..\Classifier.html" xlink:actuate="onRequest" xlink:href="..\Classifier.html" xlink:show="new" xlink:title="..\Classifier.html" xlink:type="simple"><rect codeLine="15" fill="#FEFECE" filter="url(#fb3f1v2vzammr)" height="75.8594" id="org.eclipse.epf.uma.Classifier" style="stroke: #A80036; stroke-width: 1.5;" width="166" x="188" y="7"/><ellipse cx="221.9" cy="27.0938" fill="#B4A7E5" rx="11" ry="11" style="stroke: #A80036; stroke-width: 1.0;"/><path d="M222.8531,23.7344 L222.8531,30.3906 L224.5719,30.3906 Q225.1813,30.3906 225.4469,30.625 Q225.7125,30.8594 225.7125,31.25 Q225.7125,31.625 225.4469,31.8594 Q225.1813,32.0938 224.5719,32.0938 L219.4313,32.0938 Q218.8219,32.0938 218.5563,31.8594 Q218.2906,31.625 218.2906,31.2344 Q218.2906,30.8594 218.5563,30.625 Q218.8219,30.3906 219.4313,30.3906 L221.15,30.3906 L221.15,23.7344 L219.4313,23.7344 Q218.8219,23.7344 218.5563,23.5 Q218.2906,23.2656 218.2906,22.875 Q218.2906,22.5 218.5563,22.2656 Q218.8219,22.0313 219.4313,22.0313 L224.5719,22.0313 Q225.1813,22.0313 225.4469,22.2656 Q225.7125,22.5 225.7125,22.875 Q225.7125,23.2656 225.4469,23.5 Q225.1813,23.7344 224.5719,23.7344 L222.8531,23.7344 Z "/><text fill="#000000" font-family="sans-serif" font-size="14" font-style="italic" lengthAdjust="spacingAndGlyphs" textLength="58" x="257.1" y="26.5332">Classifier</text><text fill="#000000" font-family="sans-serif" font-size="10" font-style="italic" lengthAdjust="spacingAndGlyphs" textLength="92" x="240.1" y="39.9902">org.eclipse.epf.uma</text><line style="stroke: #A80036; stroke-width: 1.5;" x1="189" x2="353" y1="47.1875" y2="47.1875"/><ellipse cx="199" cy="58.1875" fill="#84BE84" rx="3" ry="3" style="stroke: #038048; stroke-width: 1.0;"/><text fill="#000000" font-family="sans-serif" font-size="11" font-style="italic" lengthAdjust="spacingAndGlyphs" textLength="120" x="208" y="62.6064">getIsAbstract(): Boolean</text><ellipse cx="199" cy="72.0234" fill="#84BE84" rx="3" ry="3" style="stroke: #038048; stroke-width: 1.0;"/><text fill="#000000" font-family="sans-serif" font-size="11" font-style="italic" lengthAdjust="spacingAndGlyphs" textLength="140" x="208" y="76.4424">setIsAbstract(Boolean): void</text></a><!--MD5=[7ed2a34704d08d7ca39a53d666ffeafa]
reverse link org.eclipse.epf.uma.impl.TypeImpl to org.eclipse.epf.uma.impl.ClassifierImpl--><path codeLine="20" d="M101.5,82.55 C111.95,100.31 124.82,122.19 136.85,142.65 " fill="none" id="org.eclipse.epf.uma.impl.TypeImpl-backto-org.eclipse.epf.uma.impl.ClassifierImpl" style="stroke: #A80036; stroke-width: 1.0;"/><polygon fill="none" points="95.38,85.95,91.27,65.16,107.44,78.85,95.38,85.95" style="stroke: #A80036; stroke-width: 1.0;"/><!--MD5=[ba488fcbb2cd6ad5d36927b820919a37]
reverse link org.eclipse.epf.uma.Classifier to org.eclipse.epf.uma.impl.ClassifierImpl--><path codeLine="21" d="M238.52,100.65 C230.48,114.17 221.79,128.79 213.49,142.74 " fill="none" id="org.eclipse.epf.uma.Classifier-backto-org.eclipse.epf.uma.impl.ClassifierImpl" style="stroke: #A80036; stroke-width: 1.0; stroke-dasharray: 7.0,7.0;"/><polygon fill="none" points="232.74,96.67,248.98,83.05,244.77,103.82,232.74,96.67" style="stroke: #A80036; stroke-width: 1.0;"/><text fill="#888888" font-family="sans-serif" font-size="10" lengthAdjust="spacingAndGlyphs" textLength="190" x="82.5" y="297.584">UMLDoclet 2.0.12, PlantUML 1.2020.16</text><!--MD5=[b45dff31a27c80389f4d496e52b6fc96]
@startuml
    set namespaceSeparator none
    hide empty fields
    hide empty methods

    abstract class "<size:14>ClassifierImpl\n<size:10>org.eclipse.epf.uma.impl" as org.eclipse.epf.uma.impl.ClassifierImpl [[ClassifierImpl.html]] {
        +getIsAbstract(): Boolean
        +setIsAbstract(Boolean): void
        +eGet(int, boolean, boolean): Object
        +eSet(int, Object): void
        +eUnset(int): void
        +eIsSet(int): boolean
    }

    abstract class "<size:14>TypeImpl\n<size:10>org.eclipse.epf.uma.impl" as org.eclipse.epf.uma.impl.TypeImpl [[TypeImpl.html]]
    interface "<size:14>Classifier\n<size:10>org.eclipse.epf.uma" as org.eclipse.epf.uma.Classifier [[..\Classifier.html]] {
        {abstract} +getIsAbstract(): Boolean
        {abstract} +setIsAbstract(Boolean): void
    }

    org.eclipse.epf.uma.impl.TypeImpl <|- - org.eclipse.epf.uma.impl.ClassifierImpl
    org.eclipse.epf.uma.Classifier <|.. org.eclipse.epf.uma.impl.ClassifierImpl

    center footer UMLDoclet 2.0.12, PlantUML 1.2020.16
@enduml

PlantUML version 1.2020.16(Sun Aug 23 22:20:43 CEST 2020)
(APACHE source distribution)
Java Runtime: Java(TM) SE Runtime Environment
JVM: Java HotSpot(TM) 64-Bit Server VM
Default Encoding: Cp1252
Language: es
Country: ES
--></g></svg>