<?xml version="1.0" encoding="UTF-8" standalone="no"?><svg xmlns="http://www.w3.org/2000/svg" xmlns:xlink="http://www.w3.org/1999/xlink" contentScriptType="application/ecmascript" contentStyleType="text/css" height="283px" preserveAspectRatio="none" style="width:412px;height:283px;" version="1.1" viewBox="0 0 412 283" width="412px" zoomAndPan="magnify"><defs><filter height="300%" id="f11b9gnevwhznd" width="300%" x="-1" y="-1"><feGaussianBlur result="blurOut" stdDeviation="2.0"/><feColorMatrix in="blurOut" result="blurOut2" type="matrix" values="0 0 0 0 0 0 0 0 0 0 0 0 0 0 0 0 0 0 .4 0"/><feOffset dx="4.0" dy="4.0" in="blurOut2" result="blurOut3"/><feBlend in="SourceGraphic" in2="blurOut3" mode="normal"/></filter></defs><g><!--MD5=[b268d4a1d47868ad857ba0832bca96cd]
class org.eclipse.epf.uma.impl.CompositeRoleImpl--><a href="CompositeRoleImpl.html" target="_top" title="CompositeRoleImpl.html" xlink:actuate="onRequest" xlink:href="CompositeRoleImpl.html" xlink:show="new" xlink:title="CompositeRoleImpl.html" xlink:type="simple"><rect codeLine="5" fill="#FEFECE" filter="url(#f11b9gnevwhznd)" height="117.3672" id="org.eclipse.epf.uma.impl.CompositeRoleImpl" style="stroke: #A80036; stroke-width: 1.5;" width="195" x="90" y="129"/><ellipse cx="123.9" cy="149.0938" fill="#ADD1B2" rx="11" ry="11" style="stroke: #A80036; stroke-width: 1.0;"/><path d="M126.6656,144.9688 Q126.8219,144.75 127.0094,144.6406 Q127.1969,144.5313 127.4156,144.5313 Q127.7906,144.5313 128.025,144.7969 Q128.2594,145.0469 128.2594,145.6563 L128.2594,147.1094 Q128.2594,147.7188 128.025,147.9844 Q127.7906,148.25 127.4156,148.25 Q127.0719,148.25 126.8688,148.0469 Q126.6656,147.8594 126.5563,147.3438 Q126.5094,146.9844 126.3219,146.7969 Q125.9938,146.4219 125.3844,146.2031 Q124.775,145.9844 124.15,145.9844 Q123.3844,145.9844 122.7438,146.3125 Q122.1188,146.6406 121.6188,147.3906 Q121.1344,148.1406 121.1344,149.1719 L121.1344,150.2656 Q121.1344,151.5 122.025,152.3281 Q122.9156,153.1406 124.5094,153.1406 Q125.4469,153.1406 126.1031,152.8906 Q126.4938,152.7344 126.9156,152.2969 Q127.1813,152.0313 127.3219,151.9531 Q127.4781,151.875 127.6813,151.875 Q128.0094,151.875 128.2594,152.1406 Q128.525,152.3906 128.525,152.7344 Q128.525,153.0781 128.1813,153.4844 Q127.6813,154.0625 126.8844,154.3906 Q125.8063,154.8438 124.5094,154.8438 Q122.9938,154.8438 121.7906,154.2188 Q120.8063,153.7188 120.1188,152.6563 Q119.4313,151.5781 119.4313,150.2969 L119.4313,149.1406 Q119.4313,147.8125 120.0406,146.6719 Q120.6656,145.5156 121.7594,144.9063 Q122.8531,144.2813 124.0875,144.2813 Q124.8219,144.2813 125.4625,144.4531 Q126.1188,144.6094 126.6656,144.9688 Z "/><text fill="#000000" font-family="sans-serif" font-size="14" lengthAdjust="spacingAndGlyphs" textLength="121" x="142.1" y="148.5332">CompositeRoleImpl</text><text fill="#000000" font-family="sans-serif" font-size="10" lengthAdjust="spacingAndGlyphs" textLength="118" x="143.6" y="161.9902">org.eclipse.epf.uma.impl</text><line style="stroke: #A80036; stroke-width: 1.5;" x1="91" x2="284" y1="169.1875" y2="169.1875"/><ellipse cx="101" cy="180.1875" fill="#84BE84" rx="3" ry="3" style="stroke: #038048; stroke-width: 1.0;"/><text fill="#000000" font-family="sans-serif" font-size="11" lengthAdjust="spacingAndGlyphs" textLength="169" x="110" y="184.6064">getAggregatedRoles(): EList&lt;Role&gt;</text><ellipse cx="101" cy="194.0234" fill="#84BE84" rx="3" ry="3" style="stroke: #038048; stroke-width: 1.0;"/><text fill="#000000" font-family="sans-serif" font-size="11" lengthAdjust="spacingAndGlyphs" textLength="167" x="110" y="198.4424">eGet(int, boolean, boolean): Object</text><ellipse cx="101" cy="207.8594" fill="#84BE84" rx="3" ry="3" style="stroke: #038048; stroke-width: 1.0;"/><text fill="#000000" font-family="sans-serif" font-size="11" lengthAdjust="spacingAndGlyphs" textLength="104" x="110" y="212.2783">eSet(int, Object): void</text><ellipse cx="101" cy="221.6953" fill="#84BE84" rx="3" ry="3" style="stroke: #038048; stroke-width: 1.0;"/><text fill="#000000" font-family="sans-serif" font-size="11" lengthAdjust="spacingAndGlyphs" textLength="79" x="110" y="226.1143">eUnset(int): void</text><ellipse cx="101" cy="235.5313" fill="#84BE84" rx="3" ry="3" style="stroke: #038048; stroke-width: 1.0;"/><text fill="#000000" font-family="sans-serif" font-size="11" lengthAdjust="spacingAndGlyphs" textLength="93" x="110" y="239.9502">eIsSet(int): boolean</text></a><!--MD5=[8d5278a98368c0df3773dcab3dcbc32f]
class org.eclipse.epf.uma.impl.RoleDescriptorImpl--><a href="RoleDescriptorImpl.html" target="_top" title="RoleDescriptorImpl.html" xlink:actuate="onRequest" xlink:href="RoleDescriptorImpl.html" xlink:show="new" xlink:title="RoleDescriptorImpl.html" xlink:type="simple"><rect codeLine="13" fill="#FEFECE" filter="url(#f11b9gnevwhznd)" height="40.1875" id="org.eclipse.epf.uma.impl.RoleDescriptorImpl" style="stroke: #A80036; stroke-width: 1.5;" width="151" x="7" y="18"/><ellipse cx="22" cy="38.0938" fill="#ADD1B2" rx="11" ry="11" style="stroke: #A80036; stroke-width: 1.0;"/><path d="M24.7656,33.9688 Q24.9219,33.75 25.1094,33.6406 Q25.2969,33.5313 25.5156,33.5313 Q25.8906,33.5313 26.125,33.7969 Q26.3594,34.0469 26.3594,34.6563 L26.3594,36.1094 Q26.3594,36.7188 26.125,36.9844 Q25.8906,37.25 25.5156,37.25 Q25.1719,37.25 24.9688,37.0469 Q24.7656,36.8594 24.6563,36.3438 Q24.6094,35.9844 24.4219,35.7969 Q24.0938,35.4219 23.4844,35.2031 Q22.875,34.9844 22.25,34.9844 Q21.4844,34.9844 20.8438,35.3125 Q20.2188,35.6406 19.7188,36.3906 Q19.2344,37.1406 19.2344,38.1719 L19.2344,39.2656 Q19.2344,40.5 20.125,41.3281 Q21.0156,42.1406 22.6094,42.1406 Q23.5469,42.1406 24.2031,41.8906 Q24.5938,41.7344 25.0156,41.2969 Q25.2813,41.0313 25.4219,40.9531 Q25.5781,40.875 25.7813,40.875 Q26.1094,40.875 26.3594,41.1406 Q26.625,41.3906 26.625,41.7344 Q26.625,42.0781 26.2813,42.4844 Q25.7813,43.0625 24.9844,43.3906 Q23.9063,43.8438 22.6094,43.8438 Q21.0938,43.8438 19.8906,43.2188 Q18.9063,42.7188 18.2188,41.6563 Q17.5313,40.5781 17.5313,39.2969 L17.5313,38.1406 Q17.5313,36.8125 18.1406,35.6719 Q18.7656,34.5156 19.8594,33.9063 Q20.9531,33.2813 22.1875,33.2813 Q22.9219,33.2813 23.5625,33.4531 Q24.2188,33.6094 24.7656,33.9688 Z "/><text fill="#000000" font-family="sans-serif" font-size="14" lengthAdjust="spacingAndGlyphs" textLength="119" x="36" y="37.5332">RoleDescriptorImpl</text><text fill="#000000" font-family="sans-serif" font-size="10" lengthAdjust="spacingAndGlyphs" textLength="118" x="36.5" y="50.9902">org.eclipse.epf.uma.impl</text></a><!--MD5=[d2d2643ae4786bd43d696894c75600a0]
class org.eclipse.epf.uma.CompositeRole--><a href="..\CompositeRole.html" target="_top" title="..\CompositeRole.html" xlink:actuate="onRequest" xlink:href="..\CompositeRole.html" xlink:show="new" xlink:title="..\CompositeRole.html" xlink:type="simple"><rect codeLine="14" fill="#FEFECE" filter="url(#f11b9gnevwhznd)" height="62.0234" id="org.eclipse.epf.uma.CompositeRole" style="stroke: #A80036; stroke-width: 1.5;" width="200" x="193.5" y="7"/><ellipse cx="241.25" cy="27.0938" fill="#B4A7E5" rx="11" ry="11" style="stroke: #A80036; stroke-width: 1.0;"/><path d="M242.2031,23.7344 L242.2031,30.3906 L243.9219,30.3906 Q244.5313,30.3906 244.7969,30.625 Q245.0625,30.8594 245.0625,31.25 Q245.0625,31.625 244.7969,31.8594 Q244.5313,32.0938 243.9219,32.0938 L238.7813,32.0938 Q238.1719,32.0938 237.9063,31.8594 Q237.6406,31.625 237.6406,31.2344 Q237.6406,30.8594 237.9063,30.625 Q238.1719,30.3906 238.7813,30.3906 L240.5,30.3906 L240.5,23.7344 L238.7813,23.7344 Q238.1719,23.7344 237.9063,23.5 Q237.6406,23.2656 237.6406,22.875 Q237.6406,22.5 237.9063,22.2656 Q238.1719,22.0313 238.7813,22.0313 L243.9219,22.0313 Q244.5313,22.0313 244.7969,22.2656 Q245.0625,22.5 245.0625,22.875 Q245.0625,23.2656 244.7969,23.5 Q244.5313,23.7344 243.9219,23.7344 L242.2031,23.7344 Z "/><text fill="#000000" font-family="sans-serif" font-size="14" font-style="italic" lengthAdjust="spacingAndGlyphs" textLength="96" x="261.75" y="26.5332">CompositeRole</text><text fill="#000000" font-family="sans-serif" font-size="10" font-style="italic" lengthAdjust="spacingAndGlyphs" textLength="92" x="263.75" y="39.9902">org.eclipse.epf.uma</text><line style="stroke: #A80036; stroke-width: 1.5;" x1="194.5" x2="392.5" y1="47.1875" y2="47.1875"/><ellipse cx="204.5" cy="58.1875" fill="#84BE84" rx="3" ry="3" style="stroke: #038048; stroke-width: 1.0;"/><text fill="#000000" font-family="sans-serif" font-size="11" font-style="italic" lengthAdjust="spacingAndGlyphs" textLength="174" x="213.5" y="62.6064">getAggregatedRoles(): EList&lt;Role&gt;</text></a><!--MD5=[722bc0707ce3cc00ac4955c3d1f0c8fd]
reverse link org.eclipse.epf.uma.impl.RoleDescriptorImpl to org.eclipse.epf.uma.impl.CompositeRoleImpl--><path codeLine="18" d="M107.85,74.61 C119.39,90.82 133.35,110.43 146.34,128.68 " fill="none" id="org.eclipse.epf.uma.impl.RoleDescriptorImpl-backto-org.eclipse.epf.uma.impl.CompositeRoleImpl" style="stroke: #A80036; stroke-width: 1.0;"/><polygon fill="none" points="102.12,78.64,96.23,58.28,113.53,70.52,102.12,78.64" style="stroke: #A80036; stroke-width: 1.0;"/><!--MD5=[163aef279ebb5b1cdf1d980cdfa0ec6a]
reverse link org.eclipse.epf.uma.CompositeRole to org.eclipse.epf.uma.impl.CompositeRoleImpl--><path codeLine="19" d="M259.98,85.64 C250.11,99.38 239.2,114.56 228.9,128.9 " fill="none" id="org.eclipse.epf.uma.CompositeRole-backto-org.eclipse.epf.uma.impl.CompositeRoleImpl" style="stroke: #A80036; stroke-width: 1.0; stroke-dasharray: 7.0,7.0;"/><polygon fill="none" points="254.44,81.36,271.79,69.2,265.81,89.53,254.44,81.36" style="stroke: #A80036; stroke-width: 1.0;"/><text fill="#888888" font-family="sans-serif" font-size="10" lengthAdjust="spacingAndGlyphs" textLength="190" x="102.25" y="269.748">UMLDoclet 2.0.12, PlantUML 1.2020.16</text><!--MD5=[4e22ec01740c7d0c47cbfa5560867da6]
@startuml
    set namespaceSeparator none
    hide empty fields
    hide empty methods

    class "<size:14>CompositeRoleImpl\n<size:10>org.eclipse.epf.uma.impl" as org.eclipse.epf.uma.impl.CompositeRoleImpl [[CompositeRoleImpl.html]] {
        +getAggregatedRoles(): EList<Role>
        +eGet(int, boolean, boolean): Object
        +eSet(int, Object): void
        +eUnset(int): void
        +eIsSet(int): boolean
    }

    class "<size:14>RoleDescriptorImpl\n<size:10>org.eclipse.epf.uma.impl" as org.eclipse.epf.uma.impl.RoleDescriptorImpl [[RoleDescriptorImpl.html]]
    interface "<size:14>CompositeRole\n<size:10>org.eclipse.epf.uma" as org.eclipse.epf.uma.CompositeRole [[..\CompositeRole.html]] {
        {abstract} +getAggregatedRoles(): EList<Role>
    }

    org.eclipse.epf.uma.impl.RoleDescriptorImpl <|- - org.eclipse.epf.uma.impl.CompositeRoleImpl
    org.eclipse.epf.uma.CompositeRole <|.. org.eclipse.epf.uma.impl.CompositeRoleImpl

    center footer UMLDoclet 2.0.12, PlantUML 1.2020.16
@enduml

PlantUML version 1.2020.16(Sun Aug 23 22:20:43 CEST 2020)
(APACHE source distribution)
Java Runtime: Java(TM) SE Runtime Environment
JVM: Java HotSpot(TM) 64-Bit Server VM
Default Encoding: Cp1252
Language: es
Country: ES
--></g></svg>