<?xml version="1.0" encoding="UTF-8" standalone="no"?><svg xmlns="http://www.w3.org/2000/svg" xmlns:xlink="http://www.w3.org/1999/xlink" contentScriptType="application/ecmascript" contentStyleType="text/css" height="311px" preserveAspectRatio="none" style="width:346px;height:311px;" version="1.1" viewBox="0 0 346 311" width="346px" zoomAndPan="magnify"><defs><filter height="300%" id="f6k60x5ddlr1" width="300%" x="-1" y="-1"><feGaussianBlur result="blurOut" stdDeviation="2.0"/><feColorMatrix in="blurOut" result="blurOut2" type="matrix" values="0 0 0 0 0 0 0 0 0 0 0 0 0 0 0 0 0 0 .4 0"/><feOffset dx="4.0" dy="4.0" in="blurOut2" result="blurOut3"/><feBlend in="SourceGraphic" in2="blurOut3" mode="normal"/></filter></defs><g><!--MD5=[67b993b655e6db136fa41daf67051300]
class org.eclipse.epf.uma.impl.ConstraintImpl--><a href="ConstraintImpl.html" target="_top" title="ConstraintImpl.html" xlink:actuate="onRequest" xlink:href="ConstraintImpl.html" xlink:show="new" xlink:title="ConstraintImpl.html" xlink:type="simple"><rect codeLine="5" fill="#FEFECE" filter="url(#f6k60x5ddlr1)" height="131.2031" id="org.eclipse.epf.uma.impl.ConstraintImpl" style="stroke: #A80036; stroke-width: 1.5;" width="193" x="78" y="143"/><ellipse cx="112.35" cy="163.0938" fill="#ADD1B2" rx="11" ry="11" style="stroke: #A80036; stroke-width: 1.0;"/><path d="M115.1156,158.9688 Q115.2719,158.75 115.4594,158.6406 Q115.6469,158.5313 115.8656,158.5313 Q116.2406,158.5313 116.475,158.7969 Q116.7094,159.0469 116.7094,159.6563 L116.7094,161.1094 Q116.7094,161.7188 116.475,161.9844 Q116.2406,162.25 115.8656,162.25 Q115.5219,162.25 115.3188,162.0469 Q115.1156,161.8594 115.0063,161.3438 Q114.9594,160.9844 114.7719,160.7969 Q114.4438,160.4219 113.8344,160.2031 Q113.225,159.9844 112.6,159.9844 Q111.8344,159.9844 111.1938,160.3125 Q110.5688,160.6406 110.0688,161.3906 Q109.5844,162.1406 109.5844,163.1719 L109.5844,164.2656 Q109.5844,165.5 110.475,166.3281 Q111.3656,167.1406 112.9594,167.1406 Q113.8969,167.1406 114.5531,166.8906 Q114.9438,166.7344 115.3656,166.2969 Q115.6313,166.0313 115.7719,165.9531 Q115.9281,165.875 116.1313,165.875 Q116.4594,165.875 116.7094,166.1406 Q116.975,166.3906 116.975,166.7344 Q116.975,167.0781 116.6313,167.4844 Q116.1313,168.0625 115.3344,168.3906 Q114.2563,168.8438 112.9594,168.8438 Q111.4438,168.8438 110.2406,168.2188 Q109.2563,167.7188 108.5688,166.6563 Q107.8813,165.5781 107.8813,164.2969 L107.8813,163.1406 Q107.8813,161.8125 108.4906,160.6719 Q109.1156,159.5156 110.2094,158.9063 Q111.3031,158.2813 112.5375,158.2813 Q113.2719,158.2813 113.9125,158.4531 Q114.5688,158.6094 115.1156,158.9688 Z "/><text fill="#000000" font-family="sans-serif" font-size="14" lengthAdjust="spacingAndGlyphs" textLength="90" x="144.65" y="162.5332">ConstraintImpl</text><text fill="#000000" font-family="sans-serif" font-size="10" lengthAdjust="spacingAndGlyphs" textLength="118" x="130.65" y="175.9902">org.eclipse.epf.uma.impl</text><line style="stroke: #A80036; stroke-width: 1.5;" x1="79" x2="270" y1="183.1875" y2="183.1875"/><ellipse cx="89" cy="194.1875" fill="#84BE84" rx="3" ry="3" style="stroke: #038048; stroke-width: 1.0;"/><text fill="#000000" font-family="sans-serif" font-size="11" lengthAdjust="spacingAndGlyphs" textLength="82" x="98" y="198.6064">getBody(): String</text><ellipse cx="89" cy="208.0234" fill="#84BE84" rx="3" ry="3" style="stroke: #038048; stroke-width: 1.0;"/><text fill="#000000" font-family="sans-serif" font-size="11" lengthAdjust="spacingAndGlyphs" textLength="102" x="98" y="212.4424">setBody(String): void</text><ellipse cx="89" cy="221.8594" fill="#84BE84" rx="3" ry="3" style="stroke: #038048; stroke-width: 1.0;"/><text fill="#000000" font-family="sans-serif" font-size="11" lengthAdjust="spacingAndGlyphs" textLength="167" x="98" y="226.2783">eGet(int, boolean, boolean): Object</text><ellipse cx="89" cy="235.6953" fill="#84BE84" rx="3" ry="3" style="stroke: #038048; stroke-width: 1.0;"/><text fill="#000000" font-family="sans-serif" font-size="11" lengthAdjust="spacingAndGlyphs" textLength="104" x="98" y="240.1143">eSet(int, Object): void</text><ellipse cx="89" cy="249.5313" fill="#84BE84" rx="3" ry="3" style="stroke: #038048; stroke-width: 1.0;"/><text fill="#000000" font-family="sans-serif" font-size="11" lengthAdjust="spacingAndGlyphs" textLength="79" x="98" y="253.9502">eUnset(int): void</text><ellipse cx="89" cy="263.3672" fill="#84BE84" rx="3" ry="3" style="stroke: #038048; stroke-width: 1.0;"/><text fill="#000000" font-family="sans-serif" font-size="11" lengthAdjust="spacingAndGlyphs" textLength="93" x="98" y="267.7861">eIsSet(int): boolean</text></a><!--MD5=[96d74128ee637182a637cecce9919dcf]
class org.eclipse.epf.uma.impl.MethodElementImpl--><a href="MethodElementImpl.html" target="_top" title="MethodElementImpl.html" xlink:actuate="onRequest" xlink:href="MethodElementImpl.html" xlink:show="new" xlink:title="MethodElementImpl.html" xlink:type="simple"><rect codeLine="14" fill="#FEFECE" filter="url(#f6k60x5ddlr1)" height="40.1875" id="org.eclipse.epf.uma.impl.MethodElementImpl" style="stroke: #A80036; stroke-width: 1.5;" width="157" x="7" y="25"/><ellipse cx="22" cy="45.0938" fill="#A9DCDF" rx="11" ry="11" style="stroke: #A80036; stroke-width: 1.0;"/><path d="M24.1875,46.8594 L20.0469,46.8594 L19.625,47.8906 L20.0469,47.8906 Q20.6563,47.8906 20.9219,48.125 Q21.1875,48.3594 21.1875,48.75 Q21.1875,49.125 20.9219,49.3594 Q20.6563,49.5938 20.0469,49.5938 L17.75,49.5938 Q17.1406,49.5938 16.8906,49.3594 Q16.625,49.125 16.625,48.7344 Q16.625,48.3594 16.9063,48.125 Q17.1719,47.875 17.7969,47.8906 L20.4688,41.2344 L19.3594,41.2344 Q18.75,41.2344 18.4844,41 Q18.2188,40.7656 18.2188,40.375 Q18.2188,40 18.4844,39.7656 Q18.75,39.5313 19.3594,39.5313 L23.0313,39.5313 L26.4219,47.8906 Q27.0156,47.8906 27.2031,48.0313 Q27.5938,48.2969 27.5938,48.75 Q27.5938,49.125 27.3281,49.3594 Q27.0781,49.5938 26.4688,49.5938 L24.1719,49.5938 Q23.5625,49.5938 23.2969,49.3594 Q23.0313,49.125 23.0313,48.7344 Q23.0313,48.3594 23.2969,48.125 Q23.5625,47.8906 24.1719,47.8906 L24.5938,47.8906 L24.1875,46.8594 Z M23.4688,45.1563 L22.1094,41.7813 L20.7344,45.1563 L23.4688,45.1563 Z "/><text fill="#000000" font-family="sans-serif" font-size="14" font-style="italic" lengthAdjust="spacingAndGlyphs" textLength="125" x="36" y="44.5332">MethodElementImpl</text><text fill="#000000" font-family="sans-serif" font-size="10" font-style="italic" lengthAdjust="spacingAndGlyphs" textLength="114" x="41.5" y="57.9902">org.eclipse.epf.uma.impl</text></a><!--MD5=[b9f855c83049e168fbe61775d82cf24f]
class org.eclipse.epf.uma.Constraint--><a href="..\Constraint.html" target="_top" title="..\Constraint.html" xlink:actuate="onRequest" xlink:href="..\Constraint.html" xlink:show="new" xlink:title="..\Constraint.html" xlink:type="simple"><rect codeLine="15" fill="#FEFECE" filter="url(#f6k60x5ddlr1)" height="75.8594" id="org.eclipse.epf.uma.Constraint" style="stroke: #A80036; stroke-width: 1.5;" width="128" x="199.5" y="7"/><ellipse cx="216.3" cy="27.0938" fill="#B4A7E5" rx="11" ry="11" style="stroke: #A80036; stroke-width: 1.0;"/><path d="M217.2531,23.7344 L217.2531,30.3906 L218.9719,30.3906 Q219.5813,30.3906 219.8469,30.625 Q220.1125,30.8594 220.1125,31.25 Q220.1125,31.625 219.8469,31.8594 Q219.5813,32.0938 218.9719,32.0938 L213.8313,32.0938 Q213.2219,32.0938 212.9563,31.8594 Q212.6906,31.625 212.6906,31.2344 Q212.6906,30.8594 212.9563,30.625 Q213.2219,30.3906 213.8313,30.3906 L215.55,30.3906 L215.55,23.7344 L213.8313,23.7344 Q213.2219,23.7344 212.9563,23.5 Q212.6906,23.2656 212.6906,22.875 Q212.6906,22.5 212.9563,22.2656 Q213.2219,22.0313 213.8313,22.0313 L218.9719,22.0313 Q219.5813,22.0313 219.8469,22.2656 Q220.1125,22.5 220.1125,22.875 Q220.1125,23.2656 219.8469,23.5 Q219.5813,23.7344 218.9719,23.7344 L217.2531,23.7344 Z "/><text fill="#000000" font-family="sans-serif" font-size="14" font-style="italic" lengthAdjust="spacingAndGlyphs" textLength="65" x="244.2" y="26.5332">Constraint</text><text fill="#000000" font-family="sans-serif" font-size="10" font-style="italic" lengthAdjust="spacingAndGlyphs" textLength="92" x="230.7" y="39.9902">org.eclipse.epf.uma</text><line style="stroke: #A80036; stroke-width: 1.5;" x1="200.5" x2="326.5" y1="47.1875" y2="47.1875"/><ellipse cx="210.5" cy="58.1875" fill="#84BE84" rx="3" ry="3" style="stroke: #038048; stroke-width: 1.0;"/><text fill="#000000" font-family="sans-serif" font-size="11" font-style="italic" lengthAdjust="spacingAndGlyphs" textLength="82" x="219.5" y="62.6064">getBody(): String</text><ellipse cx="210.5" cy="72.0234" fill="#84BE84" rx="3" ry="3" style="stroke: #038048; stroke-width: 1.0;"/><text fill="#000000" font-family="sans-serif" font-size="11" font-style="italic" lengthAdjust="spacingAndGlyphs" textLength="102" x="219.5" y="76.4424">setBody(String): void</text></a><!--MD5=[46e393a104a309bc2fe8167ba616a470]
reverse link org.eclipse.epf.uma.impl.MethodElementImpl to org.eclipse.epf.uma.impl.ConstraintImpl--><path codeLine="20" d="M105.8,82.83 C115.56,100.54 127.55,122.3 138.76,142.65 " fill="none" id="org.eclipse.epf.uma.impl.MethodElementImpl-backto-org.eclipse.epf.uma.impl.ConstraintImpl" style="stroke: #A80036; stroke-width: 1.0;"/><polygon fill="none" points="99.58,86.06,96.06,65.16,111.84,79.3,99.58,86.06" style="stroke: #A80036; stroke-width: 1.0;"/><!--MD5=[81baf2662c46ac82e3abf354c119e0e5]
reverse link org.eclipse.epf.uma.Constraint to org.eclipse.epf.uma.impl.ConstraintImpl--><path codeLine="21" d="M233.38,100.65 C225.93,114.17 217.88,128.79 210.19,142.74 " fill="none" id="org.eclipse.epf.uma.Constraint-backto-org.eclipse.epf.uma.impl.ConstraintImpl" style="stroke: #A80036; stroke-width: 1.0; stroke-dasharray: 7.0,7.0;"/><polygon fill="none" points="227.3,97.19,243.08,83.05,239.56,103.95,227.3,97.19" style="stroke: #A80036; stroke-width: 1.0;"/><text fill="#888888" font-family="sans-serif" font-size="10" lengthAdjust="spacingAndGlyphs" textLength="190" x="69.25" y="297.584">UMLDoclet 2.0.12, PlantUML 1.2020.16</text><!--MD5=[f7e9e6418d7ea22549c2ab6f155d8bd6]
@startuml
    set namespaceSeparator none
    hide empty fields
    hide empty methods

    class "<size:14>ConstraintImpl\n<size:10>org.eclipse.epf.uma.impl" as org.eclipse.epf.uma.impl.ConstraintImpl [[ConstraintImpl.html]] {
        +getBody(): String
        +setBody(String): void
        +eGet(int, boolean, boolean): Object
        +eSet(int, Object): void
        +eUnset(int): void
        +eIsSet(int): boolean
    }

    abstract class "<size:14>MethodElementImpl\n<size:10>org.eclipse.epf.uma.impl" as org.eclipse.epf.uma.impl.MethodElementImpl [[MethodElementImpl.html]]
    interface "<size:14>Constraint\n<size:10>org.eclipse.epf.uma" as org.eclipse.epf.uma.Constraint [[..\Constraint.html]] {
        {abstract} +getBody(): String
        {abstract} +setBody(String): void
    }

    org.eclipse.epf.uma.impl.MethodElementImpl <|- - org.eclipse.epf.uma.impl.ConstraintImpl
    org.eclipse.epf.uma.Constraint <|.. org.eclipse.epf.uma.impl.ConstraintImpl

    center footer UMLDoclet 2.0.12, PlantUML 1.2020.16
@enduml

PlantUML version 1.2020.16(Sun Aug 23 22:20:43 CEST 2020)
(APACHE source distribution)
Java Runtime: Java(TM) SE Runtime Environment
JVM: Java HotSpot(TM) 64-Bit Server VM
Default Encoding: Cp1252
Language: es
Country: ES
--></g></svg>