<?xml version="1.0" encoding="UTF-8" standalone="no"?><svg xmlns="http://www.w3.org/2000/svg" xmlns:xlink="http://www.w3.org/1999/xlink" contentScriptType="application/ecmascript" contentStyleType="text/css" height="518px" preserveAspectRatio="none" style="width:432px;height:518px;" version="1.1" viewBox="0 0 432 518" width="432px" zoomAndPan="magnify"><defs><filter height="300%" id="f7t8ysgh80b5b" width="300%" x="-1" y="-1"><feGaussianBlur result="blurOut" stdDeviation="2.0"/><feColorMatrix in="blurOut" result="blurOut2" type="matrix" values="0 0 0 0 0 0 0 0 0 0 0 0 0 0 0 0 0 0 .4 0"/><feOffset dx="4.0" dy="4.0" in="blurOut2" result="blurOut3"/><feBlend in="SourceGraphic" in2="blurOut3" mode="normal"/></filter></defs><g><!--MD5=[92b3159b33d4292b6938f7fac228d88c]
class org.eclipse.epf.uma.impl.ContentDescriptionImpl--><a href="ContentDescriptionImpl.html" target="_top" title="ContentDescriptionImpl.html" xlink:actuate="onRequest" xlink:href="ContentDescriptionImpl.html" xlink:show="new" xlink:title="ContentDescriptionImpl.html" xlink:type="simple"><rect codeLine="5" fill="#FEFECE" filter="url(#f7t8ysgh80b5b)" height="241.8906" id="org.eclipse.epf.uma.impl.ContentDescriptionImpl" style="stroke: #A80036; stroke-width: 1.5;" width="376" x="7" y="240"/><ellipse cx="117.75" cy="260.0938" fill="#ADD1B2" rx="11" ry="11" style="stroke: #A80036; stroke-width: 1.0;"/><path d="M120.5156,255.9688 Q120.6719,255.75 120.8594,255.6406 Q121.0469,255.5313 121.2656,255.5313 Q121.6406,255.5313 121.875,255.7969 Q122.1094,256.0469 122.1094,256.6563 L122.1094,258.1094 Q122.1094,258.7188 121.875,258.9844 Q121.6406,259.25 121.2656,259.25 Q120.9219,259.25 120.7188,259.0469 Q120.5156,258.8594 120.4063,258.3438 Q120.3594,257.9844 120.1719,257.7969 Q119.8438,257.4219 119.2344,257.2031 Q118.625,256.9844 118,256.9844 Q117.2344,256.9844 116.5938,257.3125 Q115.9688,257.6406 115.4688,258.3906 Q114.9844,259.1406 114.9844,260.1719 L114.9844,261.2656 Q114.9844,262.5 115.875,263.3281 Q116.7656,264.1406 118.3594,264.1406 Q119.2969,264.1406 119.9531,263.8906 Q120.3438,263.7344 120.7656,263.2969 Q121.0313,263.0313 121.1719,262.9531 Q121.3281,262.875 121.5313,262.875 Q121.8594,262.875 122.1094,263.1406 Q122.375,263.3906 122.375,263.7344 Q122.375,264.0781 122.0313,264.4844 Q121.5313,265.0625 120.7344,265.3906 Q119.6563,265.8438 118.3594,265.8438 Q116.8438,265.8438 115.6406,265.2188 Q114.6563,264.7188 113.9688,263.6563 Q113.2813,262.5781 113.2813,261.2969 L113.2813,260.1406 Q113.2813,258.8125 113.8906,257.6719 Q114.5156,256.5156 115.6094,255.9063 Q116.7031,255.2813 117.9375,255.2813 Q118.6719,255.2813 119.3125,255.4531 Q119.9688,255.6094 120.5156,255.9688 Z "/><text fill="#000000" font-family="sans-serif" font-size="14" lengthAdjust="spacingAndGlyphs" textLength="146" x="138.25" y="259.5332">ContentDescriptionImpl</text><text fill="#000000" font-family="sans-serif" font-size="10" lengthAdjust="spacingAndGlyphs" textLength="118" x="152.25" y="272.9902">org.eclipse.epf.uma.impl</text><line style="stroke: #A80036; stroke-width: 1.5;" x1="8" x2="382" y1="280.1875" y2="280.1875"/><ellipse cx="18" cy="291.1875" fill="#84BE84" rx="3" ry="3" style="stroke: #038048; stroke-width: 1.0;"/><text fill="#000000" font-family="sans-serif" font-size="11" lengthAdjust="spacingAndGlyphs" textLength="133" x="27" y="295.6064">getMainDescription(): String</text><ellipse cx="18" cy="305.0234" fill="#84BE84" rx="3" ry="3" style="stroke: #038048; stroke-width: 1.0;"/><text fill="#000000" font-family="sans-serif" font-size="11" lengthAdjust="spacingAndGlyphs" textLength="153" x="27" y="309.4424">setMainDescription(String): void</text><ellipse cx="18" cy="318.8594" fill="#84BE84" rx="3" ry="3" style="stroke: #038048; stroke-width: 1.0;"/><text fill="#000000" font-family="sans-serif" font-size="11" lengthAdjust="spacingAndGlyphs" textLength="142" x="27" y="323.2783">getSections(): EList&lt;Section&gt;</text><ellipse cx="18" cy="332.6953" fill="#84BE84" rx="3" ry="3" style="stroke: #038048; stroke-width: 1.0;"/><text fill="#000000" font-family="sans-serif" font-size="11" lengthAdjust="spacingAndGlyphs" textLength="104" x="27" y="337.1143">getExternalId(): String</text><ellipse cx="18" cy="346.5313" fill="#84BE84" rx="3" ry="3" style="stroke: #038048; stroke-width: 1.0;"/><text fill="#000000" font-family="sans-serif" font-size="11" lengthAdjust="spacingAndGlyphs" textLength="124" x="27" y="350.9502">setExternalId(String): void</text><ellipse cx="18" cy="360.3672" fill="#84BE84" rx="3" ry="3" style="stroke: #038048; stroke-width: 1.0;"/><text fill="#000000" font-family="sans-serif" font-size="11" lengthAdjust="spacingAndGlyphs" textLength="148" x="27" y="364.7861">getKeyConsiderations(): String</text><ellipse cx="18" cy="374.2031" fill="#84BE84" rx="3" ry="3" style="stroke: #038048; stroke-width: 1.0;"/><text fill="#000000" font-family="sans-serif" font-size="11" lengthAdjust="spacingAndGlyphs" textLength="168" x="27" y="378.6221">setKeyConsiderations(String): void</text><ellipse cx="18" cy="388.0391" fill="#84BE84" rx="3" ry="3" style="stroke: #038048; stroke-width: 1.0;"/><text fill="#000000" font-family="sans-serif" font-size="11" lengthAdjust="spacingAndGlyphs" textLength="168" x="27" y="392.458">getLongPresentationName(): String</text><ellipse cx="18" cy="401.875" fill="#84BE84" rx="3" ry="3" style="stroke: #038048; stroke-width: 1.0;"/><text fill="#000000" font-family="sans-serif" font-size="11" lengthAdjust="spacingAndGlyphs" textLength="188" x="27" y="406.2939">setLongPresentationName(String): void</text><ellipse cx="18" cy="415.7109" fill="#84BE84" rx="3" ry="3" style="stroke: #038048; stroke-width: 1.0;"/><text fill="#000000" font-family="sans-serif" font-size="11" lengthAdjust="spacingAndGlyphs" textLength="350" x="27" y="420.1299">eInverseRemove(InternalEObject, int, NotificationChain): NotificationChain</text><ellipse cx="18" cy="429.5469" fill="#84BE84" rx="3" ry="3" style="stroke: #038048; stroke-width: 1.0;"/><text fill="#000000" font-family="sans-serif" font-size="11" lengthAdjust="spacingAndGlyphs" textLength="167" x="27" y="433.9658">eGet(int, boolean, boolean): Object</text><ellipse cx="18" cy="443.3828" fill="#84BE84" rx="3" ry="3" style="stroke: #038048; stroke-width: 1.0;"/><text fill="#000000" font-family="sans-serif" font-size="11" lengthAdjust="spacingAndGlyphs" textLength="104" x="27" y="447.8018">eSet(int, Object): void</text><ellipse cx="18" cy="457.2188" fill="#84BE84" rx="3" ry="3" style="stroke: #038048; stroke-width: 1.0;"/><text fill="#000000" font-family="sans-serif" font-size="11" lengthAdjust="spacingAndGlyphs" textLength="79" x="27" y="461.6377">eUnset(int): void</text><ellipse cx="18" cy="471.0547" fill="#84BE84" rx="3" ry="3" style="stroke: #038048; stroke-width: 1.0;"/><text fill="#000000" font-family="sans-serif" font-size="11" lengthAdjust="spacingAndGlyphs" textLength="93" x="27" y="475.4736">eIsSet(int): boolean</text></a><!--MD5=[f97d49f6c3ffecc979ac870a0fb34e54]
class org.eclipse.epf.uma.impl.MethodUnitImpl--><a href="MethodUnitImpl.html" target="_top" title="MethodUnitImpl.html" xlink:actuate="onRequest" xlink:href="MethodUnitImpl.html" xlink:show="new" xlink:title="MethodUnitImpl.html" xlink:type="simple"><rect codeLine="22" fill="#FEFECE" filter="url(#f7t8ysgh80b5b)" height="40.1875" id="org.eclipse.epf.uma.impl.MethodUnitImpl" style="stroke: #A80036; stroke-width: 1.5;" width="146" x="13" y="73.5"/><ellipse cx="28" cy="93.5938" fill="#A9DCDF" rx="11" ry="11" style="stroke: #A80036; stroke-width: 1.0;"/><path d="M30.1875,95.3594 L26.0469,95.3594 L25.625,96.3906 L26.0469,96.3906 Q26.6563,96.3906 26.9219,96.625 Q27.1875,96.8594 27.1875,97.25 Q27.1875,97.625 26.9219,97.8594 Q26.6563,98.0938 26.0469,98.0938 L23.75,98.0938 Q23.1406,98.0938 22.8906,97.8594 Q22.625,97.625 22.625,97.2344 Q22.625,96.8594 22.9063,96.625 Q23.1719,96.375 23.7969,96.3906 L26.4688,89.7344 L25.3594,89.7344 Q24.75,89.7344 24.4844,89.5 Q24.2188,89.2656 24.2188,88.875 Q24.2188,88.5 24.4844,88.2656 Q24.75,88.0313 25.3594,88.0313 L29.0313,88.0313 L32.4219,96.3906 Q33.0156,96.3906 33.2031,96.5313 Q33.5938,96.7969 33.5938,97.25 Q33.5938,97.625 33.3281,97.8594 Q33.0781,98.0938 32.4688,98.0938 L30.1719,98.0938 Q29.5625,98.0938 29.2969,97.8594 Q29.0313,97.625 29.0313,97.2344 Q29.0313,96.8594 29.2969,96.625 Q29.5625,96.3906 30.1719,96.3906 L30.5938,96.3906 L30.1875,95.3594 Z M29.4688,93.6563 L28.1094,90.2813 L26.7344,93.6563 L29.4688,93.6563 Z "/><text fill="#000000" font-family="sans-serif" font-size="14" font-style="italic" lengthAdjust="spacingAndGlyphs" textLength="99" x="49.5" y="93.0332">MethodUnitImpl</text><text fill="#000000" font-family="sans-serif" font-size="10" font-style="italic" lengthAdjust="spacingAndGlyphs" textLength="114" x="42" y="106.4902">org.eclipse.epf.uma.impl</text></a><!--MD5=[ac89fbf343ff51a3f64fb8f81ee032c9]
class org.eclipse.epf.uma.ContentDescription--><a href="..\ContentDescription.html" target="_top" title="..\ContentDescription.html" xlink:actuate="onRequest" xlink:href="..\ContentDescription.html" xlink:show="new" xlink:title="..\ContentDescription.html" xlink:type="simple"><rect codeLine="23" fill="#FEFECE" filter="url(#f7t8ysgh80b5b)" height="172.7109" id="org.eclipse.epf.uma.ContentDescription" style="stroke: #A80036; stroke-width: 1.5;" width="219" x="194.5" y="7"/><ellipse cx="239.25" cy="27.0938" fill="#B4A7E5" rx="11" ry="11" style="stroke: #A80036; stroke-width: 1.0;"/><path d="M240.2031,23.7344 L240.2031,30.3906 L241.9219,30.3906 Q242.5313,30.3906 242.7969,30.625 Q243.0625,30.8594 243.0625,31.25 Q243.0625,31.625 242.7969,31.8594 Q242.5313,32.0938 241.9219,32.0938 L236.7813,32.0938 Q236.1719,32.0938 235.9063,31.8594 Q235.6406,31.625 235.6406,31.2344 Q235.6406,30.8594 235.9063,30.625 Q236.1719,30.3906 236.7813,30.3906 L238.5,30.3906 L238.5,23.7344 L236.7813,23.7344 Q236.1719,23.7344 235.9063,23.5 Q235.6406,23.2656 235.6406,22.875 Q235.6406,22.5 235.9063,22.2656 Q236.1719,22.0313 236.7813,22.0313 L241.9219,22.0313 Q242.5313,22.0313 242.7969,22.2656 Q243.0625,22.5 243.0625,22.875 Q243.0625,23.2656 242.7969,23.5 Q242.5313,23.7344 241.9219,23.7344 L240.2031,23.7344 Z "/><text fill="#000000" font-family="sans-serif" font-size="14" font-style="italic" lengthAdjust="spacingAndGlyphs" textLength="121" x="259.75" y="26.5332">ContentDescription</text><text fill="#000000" font-family="sans-serif" font-size="10" font-style="italic" lengthAdjust="spacingAndGlyphs" textLength="92" x="274.25" y="39.9902">org.eclipse.epf.uma</text><line style="stroke: #A80036; stroke-width: 1.5;" x1="195.5" x2="412.5" y1="47.1875" y2="47.1875"/><ellipse cx="205.5" cy="58.1875" fill="#84BE84" rx="3" ry="3" style="stroke: #038048; stroke-width: 1.0;"/><text fill="#000000" font-family="sans-serif" font-size="11" font-style="italic" lengthAdjust="spacingAndGlyphs" textLength="139" x="214.5" y="62.6064">getMainDescription(): String</text><ellipse cx="205.5" cy="72.0234" fill="#84BE84" rx="3" ry="3" style="stroke: #038048; stroke-width: 1.0;"/><text fill="#000000" font-family="sans-serif" font-size="11" font-style="italic" lengthAdjust="spacingAndGlyphs" textLength="159" x="214.5" y="76.4424">setMainDescription(String): void</text><ellipse cx="205.5" cy="85.8594" fill="#84BE84" rx="3" ry="3" style="stroke: #038048; stroke-width: 1.0;"/><text fill="#000000" font-family="sans-serif" font-size="11" font-style="italic" lengthAdjust="spacingAndGlyphs" textLength="146" x="214.5" y="90.2783">getSections(): EList&lt;Section&gt;</text><ellipse cx="205.5" cy="99.6953" fill="#84BE84" rx="3" ry="3" style="stroke: #038048; stroke-width: 1.0;"/><text fill="#000000" font-family="sans-serif" font-size="11" font-style="italic" lengthAdjust="spacingAndGlyphs" textLength="108" x="214.5" y="104.1143">getExternalId(): String</text><ellipse cx="205.5" cy="113.5313" fill="#84BE84" rx="3" ry="3" style="stroke: #038048; stroke-width: 1.0;"/><text fill="#000000" font-family="sans-serif" font-size="11" font-style="italic" lengthAdjust="spacingAndGlyphs" textLength="128" x="214.5" y="117.9502">setExternalId(String): void</text><ellipse cx="205.5" cy="127.3672" fill="#84BE84" rx="3" ry="3" style="stroke: #038048; stroke-width: 1.0;"/><text fill="#000000" font-family="sans-serif" font-size="11" font-style="italic" lengthAdjust="spacingAndGlyphs" textLength="151" x="214.5" y="131.7861">getKeyConsiderations(): String</text><ellipse cx="205.5" cy="141.2031" fill="#84BE84" rx="3" ry="3" style="stroke: #038048; stroke-width: 1.0;"/><text fill="#000000" font-family="sans-serif" font-size="11" font-style="italic" lengthAdjust="spacingAndGlyphs" textLength="171" x="214.5" y="145.6221">setKeyConsiderations(String): void</text><ellipse cx="205.5" cy="155.0391" fill="#84BE84" rx="3" ry="3" style="stroke: #038048; stroke-width: 1.0;"/><text fill="#000000" font-family="sans-serif" font-size="11" font-style="italic" lengthAdjust="spacingAndGlyphs" textLength="173" x="214.5" y="159.458">getLongPresentationName(): String</text><ellipse cx="205.5" cy="168.875" fill="#84BE84" rx="3" ry="3" style="stroke: #038048; stroke-width: 1.0;"/><text fill="#000000" font-family="sans-serif" font-size="11" font-style="italic" lengthAdjust="spacingAndGlyphs" textLength="193" x="214.5" y="173.2939">setLongPresentationName(String): void</text></a><!--MD5=[e70698a652141b9d5385b3d5d7bd325f]
reverse link org.eclipse.epf.uma.impl.MethodUnitImpl to org.eclipse.epf.uma.impl.ContentDescriptionImpl--><path codeLine="35" d="M101.49,132.24 C113.1,160.51 129.66,200.85 145.63,239.75 " fill="none" id="org.eclipse.epf.uma.impl.MethodUnitImpl-backto-org.eclipse.epf.uma.impl.ContentDescriptionImpl" style="stroke: #A80036; stroke-width: 1.0;"/><polygon fill="none" points="94.96,134.75,93.84,113.59,107.91,129.44,94.96,134.75" style="stroke: #A80036; stroke-width: 1.0;"/><!--MD5=[3dcd9120e243ec7972e856b276c89e2e]
reverse link org.eclipse.epf.uma.ContentDescription to org.eclipse.epf.uma.impl.ContentDescriptionImpl--><path codeLine="36" d="M261.13,198.92 C255.64,212.3 249.98,226.08 244.39,239.69 " fill="none" id="org.eclipse.epf.uma.ContentDescription-backto-org.eclipse.epf.uma.impl.ContentDescriptionImpl" style="stroke: #A80036; stroke-width: 1.0; stroke-dasharray: 7.0,7.0;"/><polygon fill="none" points="254.69,196.18,268.76,180.33,267.64,201.49,254.69,196.18" style="stroke: #A80036; stroke-width: 1.0;"/><text fill="#888888" font-family="sans-serif" font-size="10" lengthAdjust="spacingAndGlyphs" textLength="190" x="112.25" y="505.2715">UMLDoclet 2.0.12, PlantUML 1.2020.16</text><!--MD5=[1d807c080573cb051a4995a4ea95d744]
@startuml
    set namespaceSeparator none
    hide empty fields
    hide empty methods

    class "<size:14>ContentDescriptionImpl\n<size:10>org.eclipse.epf.uma.impl" as org.eclipse.epf.uma.impl.ContentDescriptionImpl [[ContentDescriptionImpl.html]] {
        +getMainDescription(): String
        +setMainDescription(String): void
        +getSections(): EList<Section>
        +getExternalId(): String
        +setExternalId(String): void
        +getKeyConsiderations(): String
        +setKeyConsiderations(String): void
        +getLongPresentationName(): String
        +setLongPresentationName(String): void
        +eInverseRemove(InternalEObject, int, NotificationChain): NotificationChain
        +eGet(int, boolean, boolean): Object
        +eSet(int, Object): void
        +eUnset(int): void
        +eIsSet(int): boolean
    }

    abstract class "<size:14>MethodUnitImpl\n<size:10>org.eclipse.epf.uma.impl" as org.eclipse.epf.uma.impl.MethodUnitImpl [[MethodUnitImpl.html]]
    interface "<size:14>ContentDescription\n<size:10>org.eclipse.epf.uma" as org.eclipse.epf.uma.ContentDescription [[..\ContentDescription.html]] {
        {abstract} +getMainDescription(): String
        {abstract} +setMainDescription(String): void
        {abstract} +getSections(): EList<Section>
        {abstract} +getExternalId(): String
        {abstract} +setExternalId(String): void
        {abstract} +getKeyConsiderations(): String
        {abstract} +setKeyConsiderations(String): void
        {abstract} +getLongPresentationName(): String
        {abstract} +setLongPresentationName(String): void
    }

    org.eclipse.epf.uma.impl.MethodUnitImpl <|- - org.eclipse.epf.uma.impl.ContentDescriptionImpl
    org.eclipse.epf.uma.ContentDescription <|.. org.eclipse.epf.uma.impl.ContentDescriptionImpl

    center footer UMLDoclet 2.0.12, PlantUML 1.2020.16
@enduml

PlantUML version 1.2020.16(Sun Aug 23 22:20:43 CEST 2020)
(APACHE source distribution)
Java Runtime: Java(TM) SE Runtime Environment
JVM: Java HotSpot(TM) 64-Bit Server VM
Default Encoding: Cp1252
Language: es
Country: ES
--></g></svg>