<?xml version="1.0" encoding="UTF-8" standalone="no"?><svg xmlns="http://www.w3.org/2000/svg" xmlns:xlink="http://www.w3.org/1999/xlink" contentScriptType="application/ecmascript" contentStyleType="text/css" height="184px" preserveAspectRatio="none" style="width:360px;height:184px;" version="1.1" viewBox="0 0 360 184" width="360px" zoomAndPan="magnify"><defs><filter height="300%" id="f1fhjt841w2v97" width="300%" x="-1" y="-1"><feGaussianBlur result="blurOut" stdDeviation="2.0"/><feColorMatrix in="blurOut" result="blurOut2" type="matrix" values="0 0 0 0 0 0 0 0 0 0 0 0 0 0 0 0 0 0 .4 0"/><feOffset dx="4.0" dy="4.0" in="blurOut2" result="blurOut3"/><feBlend in="SourceGraphic" in2="blurOut3" mode="normal"/></filter></defs><g><!--MD5=[80a1fa17d1f3fd257902418e6ad1c457]
class org.eclipse.epf.uma.impl.ContentCategoryImpl--><a href="ContentCategoryImpl.html" target="_top" title="ContentCategoryImpl.html" xlink:actuate="onRequest" xlink:href="ContentCategoryImpl.html" xlink:show="new" xlink:title="ContentCategoryImpl.html" xlink:type="simple"><rect codeLine="5" fill="#FEFECE" filter="url(#f1fhjt841w2v97)" height="40.1875" id="org.eclipse.epf.uma.impl.ContentCategoryImpl" style="stroke: #A80036; stroke-width: 1.5;" width="166" x="95.5" y="107"/><ellipse cx="110.5" cy="127.0938" fill="#A9DCDF" rx="11" ry="11" style="stroke: #A80036; stroke-width: 1.0;"/><path d="M112.6875,128.8594 L108.5469,128.8594 L108.125,129.8906 L108.5469,129.8906 Q109.1563,129.8906 109.4219,130.125 Q109.6875,130.3594 109.6875,130.75 Q109.6875,131.125 109.4219,131.3594 Q109.1563,131.5938 108.5469,131.5938 L106.25,131.5938 Q105.6406,131.5938 105.3906,131.3594 Q105.125,131.125 105.125,130.7344 Q105.125,130.3594 105.4063,130.125 Q105.6719,129.875 106.2969,129.8906 L108.9688,123.2344 L107.8594,123.2344 Q107.25,123.2344 106.9844,123 Q106.7188,122.7656 106.7188,122.375 Q106.7188,122 106.9844,121.7656 Q107.25,121.5313 107.8594,121.5313 L111.5313,121.5313 L114.9219,129.8906 Q115.5156,129.8906 115.7031,130.0313 Q116.0938,130.2969 116.0938,130.75 Q116.0938,131.125 115.8281,131.3594 Q115.5781,131.5938 114.9688,131.5938 L112.6719,131.5938 Q112.0625,131.5938 111.7969,131.3594 Q111.5313,131.125 111.5313,130.7344 Q111.5313,130.3594 111.7969,130.125 Q112.0625,129.8906 112.6719,129.8906 L113.0938,129.8906 L112.6875,128.8594 Z M111.9688,127.1563 L110.6094,123.7813 L109.2344,127.1563 L111.9688,127.1563 Z "/><text fill="#000000" font-family="sans-serif" font-size="14" font-style="italic" lengthAdjust="spacingAndGlyphs" textLength="134" x="124.5" y="126.5332">ContentCategoryImpl</text><text fill="#000000" font-family="sans-serif" font-size="10" font-style="italic" lengthAdjust="spacingAndGlyphs" textLength="114" x="134.5" y="139.9902">org.eclipse.epf.uma.impl</text></a><!--MD5=[756787a8587a7ade10dd365aa5346d02]
class org.eclipse.epf.uma.impl.ContentElementImpl--><a href="ContentElementImpl.html" target="_top" title="ContentElementImpl.html" xlink:actuate="onRequest" xlink:href="ContentElementImpl.html" xlink:show="new" xlink:title="ContentElementImpl.html" xlink:type="simple"><rect codeLine="8" fill="#FEFECE" filter="url(#f1fhjt841w2v97)" height="40.1875" id="org.eclipse.epf.uma.impl.ContentElementImpl" style="stroke: #A80036; stroke-width: 1.5;" width="159" x="7" y="7"/><ellipse cx="22" cy="27.0938" fill="#A9DCDF" rx="11" ry="11" style="stroke: #A80036; stroke-width: 1.0;"/><path d="M24.1875,28.8594 L20.0469,28.8594 L19.625,29.8906 L20.0469,29.8906 Q20.6563,29.8906 20.9219,30.125 Q21.1875,30.3594 21.1875,30.75 Q21.1875,31.125 20.9219,31.3594 Q20.6563,31.5938 20.0469,31.5938 L17.75,31.5938 Q17.1406,31.5938 16.8906,31.3594 Q16.625,31.125 16.625,30.7344 Q16.625,30.3594 16.9063,30.125 Q17.1719,29.875 17.7969,29.8906 L20.4688,23.2344 L19.3594,23.2344 Q18.75,23.2344 18.4844,23 Q18.2188,22.7656 18.2188,22.375 Q18.2188,22 18.4844,21.7656 Q18.75,21.5313 19.3594,21.5313 L23.0313,21.5313 L26.4219,29.8906 Q27.0156,29.8906 27.2031,30.0313 Q27.5938,30.2969 27.5938,30.75 Q27.5938,31.125 27.3281,31.3594 Q27.0781,31.5938 26.4688,31.5938 L24.1719,31.5938 Q23.5625,31.5938 23.2969,31.3594 Q23.0313,31.125 23.0313,30.7344 Q23.0313,30.3594 23.2969,30.125 Q23.5625,29.8906 24.1719,29.8906 L24.5938,29.8906 L24.1875,28.8594 Z M23.4688,27.1563 L22.1094,23.7813 L20.7344,27.1563 L23.4688,27.1563 Z "/><text fill="#000000" font-family="sans-serif" font-size="14" font-style="italic" lengthAdjust="spacingAndGlyphs" textLength="127" x="36" y="26.5332">ContentElementImpl</text><text fill="#000000" font-family="sans-serif" font-size="10" font-style="italic" lengthAdjust="spacingAndGlyphs" textLength="114" x="42.5" y="39.9902">org.eclipse.epf.uma.impl</text></a><!--MD5=[2ebf6b6b3a1faf8ff26b4d3cb3d8aa6c]
class org.eclipse.epf.uma.ContentCategory--><a href="..\ContentCategory.html" target="_top" title="..\ContentCategory.html" xlink:actuate="onRequest" xlink:href="..\ContentCategory.html" xlink:show="new" xlink:title="..\ContentCategory.html" xlink:type="simple"><rect codeLine="9" fill="#FEFECE" filter="url(#f1fhjt841w2v97)" height="40.1875" id="org.eclipse.epf.uma.ContentCategory" style="stroke: #A80036; stroke-width: 1.5;" width="140" x="201.5" y="7"/><ellipse cx="216.5" cy="27.0938" fill="#B4A7E5" rx="11" ry="11" style="stroke: #A80036; stroke-width: 1.0;"/><path d="M217.4531,23.7344 L217.4531,30.3906 L219.1719,30.3906 Q219.7813,30.3906 220.0469,30.625 Q220.3125,30.8594 220.3125,31.25 Q220.3125,31.625 220.0469,31.8594 Q219.7813,32.0938 219.1719,32.0938 L214.0313,32.0938 Q213.4219,32.0938 213.1563,31.8594 Q212.8906,31.625 212.8906,31.2344 Q212.8906,30.8594 213.1563,30.625 Q213.4219,30.3906 214.0313,30.3906 L215.75,30.3906 L215.75,23.7344 L214.0313,23.7344 Q213.4219,23.7344 213.1563,23.5 Q212.8906,23.2656 212.8906,22.875 Q212.8906,22.5 213.1563,22.2656 Q213.4219,22.0313 214.0313,22.0313 L219.1719,22.0313 Q219.7813,22.0313 220.0469,22.2656 Q220.3125,22.5 220.3125,22.875 Q220.3125,23.2656 220.0469,23.5 Q219.7813,23.7344 219.1719,23.7344 L217.4531,23.7344 Z "/><text fill="#000000" font-family="sans-serif" font-size="14" font-style="italic" lengthAdjust="spacingAndGlyphs" textLength="108" x="230.5" y="26.5332">ContentCategory</text><text fill="#000000" font-family="sans-serif" font-size="10" font-style="italic" lengthAdjust="spacingAndGlyphs" textLength="92" x="238.5" y="39.9902">org.eclipse.epf.uma</text></a><!--MD5=[1af4c4f083800adc9fdf7cccb2a6b583]
reverse link org.eclipse.epf.uma.impl.ContentElementImpl to org.eclipse.epf.uma.impl.ContentCategoryImpl--><path codeLine="11" d="M118.8,62.41 C132.74,77.26 148.53,94.07 160.36,106.68 " fill="none" id="org.eclipse.epf.uma.impl.ContentElementImpl-backto-org.eclipse.epf.uma.impl.ContentCategoryImpl" style="stroke: #A80036; stroke-width: 1.0;"/><polygon fill="none" points="113.26,66.73,104.68,47.36,123.47,57.15,113.26,66.73" style="stroke: #A80036; stroke-width: 1.0;"/><!--MD5=[e0150384454ad7757d551b2e0d0375e9]
reverse link org.eclipse.epf.uma.ContentCategory to org.eclipse.epf.uma.impl.ContentCategoryImpl--><path codeLine="12" d="M239.3,61.94 C225.1,76.9 208.93,93.94 196.84,106.68 " fill="none" id="org.eclipse.epf.uma.ContentCategory-backto-org.eclipse.epf.uma.impl.ContentCategoryImpl" style="stroke: #A80036; stroke-width: 1.0; stroke-dasharray: 7.0,7.0;"/><polygon fill="none" points="234.28,57.05,253.13,47.36,244.44,66.69,234.28,57.05" style="stroke: #A80036; stroke-width: 1.0;"/><text fill="#888888" font-family="sans-serif" font-size="10" lengthAdjust="spacingAndGlyphs" textLength="190" x="76.25" y="170.5684">UMLDoclet 2.0.12, PlantUML 1.2020.16</text><!--MD5=[7dd49371a4d3f07f1b607a4219df5c71]
@startuml
    set namespaceSeparator none
    hide empty fields
    hide empty methods

    abstract class "<size:14>ContentCategoryImpl\n<size:10>org.eclipse.epf.uma.impl" as org.eclipse.epf.uma.impl.ContentCategoryImpl [[ContentCategoryImpl.html]] {
    }

    abstract class "<size:14>ContentElementImpl\n<size:10>org.eclipse.epf.uma.impl" as org.eclipse.epf.uma.impl.ContentElementImpl [[ContentElementImpl.html]]
    interface "<size:14>ContentCategory\n<size:10>org.eclipse.epf.uma" as org.eclipse.epf.uma.ContentCategory [[..\ContentCategory.html]]

    org.eclipse.epf.uma.impl.ContentElementImpl <|- - org.eclipse.epf.uma.impl.ContentCategoryImpl
    org.eclipse.epf.uma.ContentCategory <|.. org.eclipse.epf.uma.impl.ContentCategoryImpl

    center footer UMLDoclet 2.0.12, PlantUML 1.2020.16
@enduml

PlantUML version 1.2020.16(Sun Aug 23 22:20:43 CEST 2020)
(APACHE source distribution)
Java Runtime: Java(TM) SE Runtime Environment
JVM: Java HotSpot(TM) 64-Bit Server VM
Default Encoding: Cp1252
Language: es
Country: ES
--></g></svg>