<?xml version="1.0" encoding="UTF-8" standalone="no"?><svg xmlns="http://www.w3.org/2000/svg" xmlns:xlink="http://www.w3.org/1999/xlink" contentScriptType="application/ecmascript" contentStyleType="text/css" height="546px" preserveAspectRatio="none" style="width:529px;height:546px;" version="1.1" viewBox="0 0 529 546" width="529px" zoomAndPan="magnify"><defs><filter height="300%" id="f4fhgc3ejtyuu" width="300%" x="-1" y="-1"><feGaussianBlur result="blurOut" stdDeviation="2.0"/><feColorMatrix in="blurOut" result="blurOut2" type="matrix" values="0 0 0 0 0 0 0 0 0 0 0 0 0 0 0 0 0 0 .4 0"/><feOffset dx="4.0" dy="4.0" in="blurOut2" result="blurOut3"/><feBlend in="SourceGraphic" in2="blurOut3" mode="normal"/></filter></defs><g><!--MD5=[756787a8587a7ade10dd365aa5346d02]
class org.eclipse.epf.uma.impl.ContentElementImpl--><a href="ContentElementImpl.html" target="_top" title="ContentElementImpl.html" xlink:actuate="onRequest" xlink:href="ContentElementImpl.html" xlink:show="new" xlink:title="ContentElementImpl.html" xlink:type="simple"><rect codeLine="5" fill="#FEFECE" filter="url(#f4fhgc3ejtyuu)" height="297.2344" id="org.eclipse.epf.uma.impl.ContentElementImpl" style="stroke: #A80036; stroke-width: 1.5;" width="296" x="85" y="212"/><ellipse cx="165.25" cy="232.0938" fill="#A9DCDF" rx="11" ry="11" style="stroke: #A80036; stroke-width: 1.0;"/><path d="M167.4375,233.8594 L163.2969,233.8594 L162.875,234.8906 L163.2969,234.8906 Q163.9063,234.8906 164.1719,235.125 Q164.4375,235.3594 164.4375,235.75 Q164.4375,236.125 164.1719,236.3594 Q163.9063,236.5938 163.2969,236.5938 L161,236.5938 Q160.3906,236.5938 160.1406,236.3594 Q159.875,236.125 159.875,235.7344 Q159.875,235.3594 160.1563,235.125 Q160.4219,234.875 161.0469,234.8906 L163.7188,228.2344 L162.6094,228.2344 Q162,228.2344 161.7344,228 Q161.4688,227.7656 161.4688,227.375 Q161.4688,227 161.7344,226.7656 Q162,226.5313 162.6094,226.5313 L166.2813,226.5313 L169.6719,234.8906 Q170.2656,234.8906 170.4531,235.0313 Q170.8438,235.2969 170.8438,235.75 Q170.8438,236.125 170.5781,236.3594 Q170.3281,236.5938 169.7188,236.5938 L167.4219,236.5938 Q166.8125,236.5938 166.5469,236.3594 Q166.2813,236.125 166.2813,235.7344 Q166.2813,235.3594 166.5469,235.125 Q166.8125,234.8906 167.4219,234.8906 L167.8438,234.8906 L167.4375,233.8594 Z M166.7188,232.1563 L165.3594,228.7813 L163.9844,232.1563 L166.7188,232.1563 Z "/><text fill="#000000" font-family="sans-serif" font-size="14" font-style="italic" lengthAdjust="spacingAndGlyphs" textLength="127" x="185.75" y="231.5332">ContentElementImpl</text><text fill="#000000" font-family="sans-serif" font-size="10" font-style="italic" lengthAdjust="spacingAndGlyphs" textLength="114" x="192.25" y="244.9902">org.eclipse.epf.uma.impl</text><line style="stroke: #A80036; stroke-width: 1.5;" x1="86" x2="380" y1="252.1875" y2="252.1875"/><ellipse cx="96" cy="263.1875" fill="#84BE84" rx="3" ry="3" style="stroke: #038048; stroke-width: 1.0;"/><text fill="#000000" font-family="sans-serif" font-size="11" lengthAdjust="spacingAndGlyphs" textLength="171" x="105" y="267.6064">getVariabilityType(): VariabilityType</text><ellipse cx="96" cy="277.0234" fill="#84BE84" rx="3" ry="3" style="stroke: #038048; stroke-width: 1.0;"/><text fill="#000000" font-family="sans-serif" font-size="11" lengthAdjust="spacingAndGlyphs" textLength="191" x="105" y="281.4424">setVariabilityType(VariabilityType): void</text><ellipse cx="96" cy="290.8594" fill="#84BE84" rx="3" ry="3" style="stroke: #038048; stroke-width: 1.0;"/><text fill="#000000" font-family="sans-serif" font-size="11" lengthAdjust="spacingAndGlyphs" textLength="242" x="105" y="295.2783">getVariabilityBasedOnElement(): VariabilityElement</text><ellipse cx="96" cy="304.6953" fill="#84BE84" rx="3" ry="3" style="stroke: #038048; stroke-width: 1.0;"/><text fill="#000000" font-family="sans-serif" font-size="11" lengthAdjust="spacingAndGlyphs" textLength="270" x="105" y="309.1143">basicGetVariabilityBasedOnElement(): VariabilityElement</text><ellipse cx="96" cy="318.5313" fill="#84BE84" rx="3" ry="3" style="stroke: #038048; stroke-width: 1.0;"/><text fill="#000000" font-family="sans-serif" font-size="11" lengthAdjust="spacingAndGlyphs" textLength="262" x="105" y="322.9502">setVariabilityBasedOnElement(VariabilityElement): void</text><ellipse cx="96" cy="332.3672" fill="#84BE84" rx="3" ry="3" style="stroke: #038048; stroke-width: 1.0;"/><text fill="#000000" font-family="sans-serif" font-size="11" lengthAdjust="spacingAndGlyphs" textLength="248" x="105" y="336.7861">getSupportingMaterials(): EList&lt;SupportingMaterial&gt;</text><ellipse cx="96" cy="346.2031" fill="#84BE84" rx="3" ry="3" style="stroke: #038048; stroke-width: 1.0;"/><text fill="#000000" font-family="sans-serif" font-size="11" lengthAdjust="spacingAndGlyphs" textLength="204" x="105" y="350.6221">getConceptsAndPapers(): EList&lt;Concept&gt;</text><ellipse cx="96" cy="360.0391" fill="#84BE84" rx="3" ry="3" style="stroke: #038048; stroke-width: 1.0;"/><text fill="#000000" font-family="sans-serif" font-size="11" lengthAdjust="spacingAndGlyphs" textLength="156" x="105" y="364.458">getChecklists(): EList&lt;Checklist&gt;</text><ellipse cx="96" cy="373.875" fill="#84BE84" rx="3" ry="3" style="stroke: #038048; stroke-width: 1.0;"/><text fill="#000000" font-family="sans-serif" font-size="11" lengthAdjust="spacingAndGlyphs" textLength="158" x="105" y="378.2939">getGuidelines(): EList&lt;Guideline&gt;</text><ellipse cx="96" cy="387.7109" fill="#84BE84" rx="3" ry="3" style="stroke: #038048; stroke-width: 1.0;"/><text fill="#000000" font-family="sans-serif" font-size="11" lengthAdjust="spacingAndGlyphs" textLength="150" x="105" y="392.1299">getExamples(): EList&lt;Example&gt;</text><ellipse cx="96" cy="401.5469" fill="#84BE84" rx="3" ry="3" style="stroke: #038048; stroke-width: 1.0;"/><text fill="#000000" font-family="sans-serif" font-size="11" lengthAdjust="spacingAndGlyphs" textLength="173" x="105" y="405.9658">getAssets(): EList&lt;ReusableAsset&gt;</text><ellipse cx="96" cy="415.3828" fill="#84BE84" rx="3" ry="3" style="stroke: #038048; stroke-width: 1.0;"/><text fill="#000000" font-family="sans-serif" font-size="11" lengthAdjust="spacingAndGlyphs" textLength="199" x="105" y="419.8018">getTermdefinition(): EList&lt;TermDefinition&gt;</text><ellipse cx="96" cy="429.2188" fill="#84BE84" rx="3" ry="3" style="stroke: #038048; stroke-width: 1.0;"/><text fill="#000000" font-family="sans-serif" font-size="11" lengthAdjust="spacingAndGlyphs" textLength="167" x="105" y="433.6377">eGet(int, boolean, boolean): Object</text><ellipse cx="96" cy="443.0547" fill="#84BE84" rx="3" ry="3" style="stroke: #038048; stroke-width: 1.0;"/><text fill="#000000" font-family="sans-serif" font-size="11" lengthAdjust="spacingAndGlyphs" textLength="104" x="105" y="447.4736">eSet(int, Object): void</text><ellipse cx="96" cy="456.8906" fill="#84BE84" rx="3" ry="3" style="stroke: #038048; stroke-width: 1.0;"/><text fill="#000000" font-family="sans-serif" font-size="11" lengthAdjust="spacingAndGlyphs" textLength="79" x="105" y="461.3096">eUnset(int): void</text><ellipse cx="96" cy="470.7266" fill="#84BE84" rx="3" ry="3" style="stroke: #038048; stroke-width: 1.0;"/><text fill="#000000" font-family="sans-serif" font-size="11" lengthAdjust="spacingAndGlyphs" textLength="93" x="105" y="475.1455">eIsSet(int): boolean</text><ellipse cx="96" cy="484.5625" fill="#84BE84" rx="3" ry="3" style="stroke: #038048; stroke-width: 1.0;"/><text fill="#000000" font-family="sans-serif" font-size="11" lengthAdjust="spacingAndGlyphs" textLength="211" x="105" y="488.9814">eBaseStructuralFeatureID(int, Class&lt;?&gt;): int</text><ellipse cx="96" cy="498.3984" fill="#84BE84" rx="3" ry="3" style="stroke: #038048; stroke-width: 1.0;"/><text fill="#000000" font-family="sans-serif" font-size="11" lengthAdjust="spacingAndGlyphs" textLength="223" x="105" y="502.8174">eDerivedStructuralFeatureID(int, Class&lt;?&gt;): int</text></a><!--MD5=[78f5f826bf2698fc4f184b6015e9a3f0]
class org.eclipse.epf.uma.impl.DescribableElementImpl--><a href="DescribableElementImpl.html" target="_top" title="DescribableElementImpl.html" xlink:actuate="onRequest" xlink:href="DescribableElementImpl.html" xlink:show="new" xlink:title="DescribableElementImpl.html" xlink:type="simple"><rect codeLine="26" fill="#FEFECE" filter="url(#f4fhgc3ejtyuu)" height="40.1875" id="org.eclipse.epf.uma.impl.DescribableElementImpl" style="stroke: #A80036; stroke-width: 1.5;" width="184" x="7" y="59.5"/><ellipse cx="22" cy="79.5938" fill="#A9DCDF" rx="11" ry="11" style="stroke: #A80036; stroke-width: 1.0;"/><path d="M24.1875,81.3594 L20.0469,81.3594 L19.625,82.3906 L20.0469,82.3906 Q20.6563,82.3906 20.9219,82.625 Q21.1875,82.8594 21.1875,83.25 Q21.1875,83.625 20.9219,83.8594 Q20.6563,84.0938 20.0469,84.0938 L17.75,84.0938 Q17.1406,84.0938 16.8906,83.8594 Q16.625,83.625 16.625,83.2344 Q16.625,82.8594 16.9063,82.625 Q17.1719,82.375 17.7969,82.3906 L20.4688,75.7344 L19.3594,75.7344 Q18.75,75.7344 18.4844,75.5 Q18.2188,75.2656 18.2188,74.875 Q18.2188,74.5 18.4844,74.2656 Q18.75,74.0313 19.3594,74.0313 L23.0313,74.0313 L26.4219,82.3906 Q27.0156,82.3906 27.2031,82.5313 Q27.5938,82.7969 27.5938,83.25 Q27.5938,83.625 27.3281,83.8594 Q27.0781,84.0938 26.4688,84.0938 L24.1719,84.0938 Q23.5625,84.0938 23.2969,83.8594 Q23.0313,83.625 23.0313,83.2344 Q23.0313,82.8594 23.2969,82.625 Q23.5625,82.3906 24.1719,82.3906 L24.5938,82.3906 L24.1875,81.3594 Z M23.4688,79.6563 L22.1094,76.2813 L20.7344,79.6563 L23.4688,79.6563 Z "/><text fill="#000000" font-family="sans-serif" font-size="14" font-style="italic" lengthAdjust="spacingAndGlyphs" textLength="152" x="36" y="79.0332">DescribableElementImpl</text><text fill="#000000" font-family="sans-serif" font-size="10" font-style="italic" lengthAdjust="spacingAndGlyphs" textLength="114" x="55" y="92.4902">org.eclipse.epf.uma.impl</text></a><!--MD5=[13c5eb85a3ca1cf746cc47e30073ec20]
class org.eclipse.epf.uma.ContentElement--><a href="..\ContentElement.html" target="_top" title="..\ContentElement.html" xlink:actuate="onRequest" xlink:href="..\ContentElement.html" xlink:show="new" xlink:title="..\ContentElement.html" xlink:type="simple"><rect codeLine="27" fill="#FEFECE" filter="url(#f4fhgc3ejtyuu)" height="145.0391" id="org.eclipse.epf.uma.ContentElement" style="stroke: #A80036; stroke-width: 1.5;" width="284" x="226" y="7"/><ellipse cx="313.25" cy="27.0938" fill="#B4A7E5" rx="11" ry="11" style="stroke: #A80036; stroke-width: 1.0;"/><path d="M314.2031,23.7344 L314.2031,30.3906 L315.9219,30.3906 Q316.5313,30.3906 316.7969,30.625 Q317.0625,30.8594 317.0625,31.25 Q317.0625,31.625 316.7969,31.8594 Q316.5313,32.0938 315.9219,32.0938 L310.7813,32.0938 Q310.1719,32.0938 309.9063,31.8594 Q309.6406,31.625 309.6406,31.2344 Q309.6406,30.8594 309.9063,30.625 Q310.1719,30.3906 310.7813,30.3906 L312.5,30.3906 L312.5,23.7344 L310.7813,23.7344 Q310.1719,23.7344 309.9063,23.5 Q309.6406,23.2656 309.6406,22.875 Q309.6406,22.5 309.9063,22.2656 Q310.1719,22.0313 310.7813,22.0313 L315.9219,22.0313 Q316.5313,22.0313 316.7969,22.2656 Q317.0625,22.5 317.0625,22.875 Q317.0625,23.2656 316.7969,23.5 Q316.5313,23.7344 315.9219,23.7344 L314.2031,23.7344 Z "/><text fill="#000000" font-family="sans-serif" font-size="14" font-style="italic" lengthAdjust="spacingAndGlyphs" textLength="101" x="333.75" y="26.5332">ContentElement</text><text fill="#000000" font-family="sans-serif" font-size="10" font-style="italic" lengthAdjust="spacingAndGlyphs" textLength="92" x="338.25" y="39.9902">org.eclipse.epf.uma</text><line style="stroke: #A80036; stroke-width: 1.5;" x1="227" x2="509" y1="47.1875" y2="47.1875"/><ellipse cx="237" cy="58.1875" fill="#84BE84" rx="3" ry="3" style="stroke: #038048; stroke-width: 1.0;"/><text fill="#000000" font-family="sans-serif" font-size="11" font-style="italic" lengthAdjust="spacingAndGlyphs" textLength="258" x="246" y="62.6064">getSupportingMaterials(): EList&lt;SupportingMaterial&gt;</text><ellipse cx="237" cy="72.0234" fill="#84BE84" rx="3" ry="3" style="stroke: #038048; stroke-width: 1.0;"/><text fill="#000000" font-family="sans-serif" font-size="11" font-style="italic" lengthAdjust="spacingAndGlyphs" textLength="208" x="246" y="76.4424">getConceptsAndPapers(): EList&lt;Concept&gt;</text><ellipse cx="237" cy="85.8594" fill="#84BE84" rx="3" ry="3" style="stroke: #038048; stroke-width: 1.0;"/><text fill="#000000" font-family="sans-serif" font-size="11" font-style="italic" lengthAdjust="spacingAndGlyphs" textLength="166" x="246" y="90.2783">getChecklists(): EList&lt;Checklist&gt;</text><ellipse cx="237" cy="99.6953" fill="#84BE84" rx="3" ry="3" style="stroke: #038048; stroke-width: 1.0;"/><text fill="#000000" font-family="sans-serif" font-size="11" font-style="italic" lengthAdjust="spacingAndGlyphs" textLength="168" x="246" y="104.1143">getGuidelines(): EList&lt;Guideline&gt;</text><ellipse cx="237" cy="113.5313" fill="#84BE84" rx="3" ry="3" style="stroke: #038048; stroke-width: 1.0;"/><text fill="#000000" font-family="sans-serif" font-size="11" font-style="italic" lengthAdjust="spacingAndGlyphs" textLength="158" x="246" y="117.9502">getExamples(): EList&lt;Example&gt;</text><ellipse cx="237" cy="127.3672" fill="#84BE84" rx="3" ry="3" style="stroke: #038048; stroke-width: 1.0;"/><text fill="#000000" font-family="sans-serif" font-size="11" font-style="italic" lengthAdjust="spacingAndGlyphs" textLength="176" x="246" y="131.7861">getAssets(): EList&lt;ReusableAsset&gt;</text><ellipse cx="237" cy="141.2031" fill="#84BE84" rx="3" ry="3" style="stroke: #038048; stroke-width: 1.0;"/><text fill="#000000" font-family="sans-serif" font-size="11" font-style="italic" lengthAdjust="spacingAndGlyphs" textLength="210" x="246" y="145.6221">getTermdefinition(): EList&lt;TermDefinition&gt;</text></a><!--MD5=[87e66c63f05c4dbec6ffaa0b120676a0]
reverse link org.eclipse.epf.uma.impl.DescribableElementImpl to org.eclipse.epf.uma.impl.ContentElementImpl--><path codeLine="37" d="M116.87,117.71 C128.79,142.52 145.31,176.91 162.15,211.98 " fill="none" id="org.eclipse.epf.uma.impl.DescribableElementImpl-backto-org.eclipse.epf.uma.impl.ContentElementImpl" style="stroke: #A80036; stroke-width: 1.0;"/><polygon fill="none" points="110.56,120.74,108.21,99.68,123.18,114.67,110.56,120.74" style="stroke: #A80036; stroke-width: 1.0;"/><!--MD5=[aeb14d2c11d1446342e3edb59ba81cbd]
reverse link org.eclipse.epf.uma.ContentElement to org.eclipse.epf.uma.impl.ContentElementImpl--><path codeLine="38" d="M324.4,170.61 C317.97,183.9 311.21,197.87 304.39,211.95 " fill="none" id="org.eclipse.epf.uma.ContentElement-backto-org.eclipse.epf.uma.impl.ContentElementImpl" style="stroke: #A80036; stroke-width: 1.0; stroke-dasharray: 7.0,7.0;"/><polygon fill="none" points="318.22,167.3,333.23,152.35,330.82,173.4,318.22,167.3" style="stroke: #A80036; stroke-width: 1.0;"/><text fill="#888888" font-family="sans-serif" font-size="10" lengthAdjust="spacingAndGlyphs" textLength="190" x="160.5" y="532.6152">UMLDoclet 2.0.12, PlantUML 1.2020.16</text><!--MD5=[026c2cdc80f0e0134910f8d6b81d2b94]
@startuml
    set namespaceSeparator none
    hide empty fields
    hide empty methods

    abstract class "<size:14>ContentElementImpl\n<size:10>org.eclipse.epf.uma.impl" as org.eclipse.epf.uma.impl.ContentElementImpl [[ContentElementImpl.html]] {
        +getVariabilityType(): VariabilityType
        +setVariabilityType(VariabilityType): void
        +getVariabilityBasedOnElement(): VariabilityElement
        +basicGetVariabilityBasedOnElement(): VariabilityElement
        +setVariabilityBasedOnElement(VariabilityElement): void
        +getSupportingMaterials(): EList<SupportingMaterial>
        +getConceptsAndPapers(): EList<Concept>
        +getChecklists(): EList<Checklist>
        +getGuidelines(): EList<Guideline>
        +getExamples(): EList<Example>
        +getAssets(): EList<ReusableAsset>
        +getTermdefinition(): EList<TermDefinition>
        +eGet(int, boolean, boolean): Object
        +eSet(int, Object): void
        +eUnset(int): void
        +eIsSet(int): boolean
        +eBaseStructuralFeatureID(int, Class<?>): int
        +eDerivedStructuralFeatureID(int, Class<?>): int
    }

    abstract class "<size:14>DescribableElementImpl\n<size:10>org.eclipse.epf.uma.impl" as org.eclipse.epf.uma.impl.DescribableElementImpl [[DescribableElementImpl.html]]
    interface "<size:14>ContentElement\n<size:10>org.eclipse.epf.uma" as org.eclipse.epf.uma.ContentElement [[..\ContentElement.html]] {
        {abstract} +getSupportingMaterials(): EList<SupportingMaterial>
        {abstract} +getConceptsAndPapers(): EList<Concept>
        {abstract} +getChecklists(): EList<Checklist>
        {abstract} +getGuidelines(): EList<Guideline>
        {abstract} +getExamples(): EList<Example>
        {abstract} +getAssets(): EList<ReusableAsset>
        {abstract} +getTermdefinition(): EList<TermDefinition>
    }

    org.eclipse.epf.uma.impl.DescribableElementImpl <|- - org.eclipse.epf.uma.impl.ContentElementImpl
    org.eclipse.epf.uma.ContentElement <|.. org.eclipse.epf.uma.impl.ContentElementImpl

    center footer UMLDoclet 2.0.12, PlantUML 1.2020.16
@enduml

PlantUML version 1.2020.16(Sun Aug 23 22:20:43 CEST 2020)
(APACHE source distribution)
Java Runtime: Java(TM) SE Runtime Environment
JVM: Java HotSpot(TM) 64-Bit Server VM
Default Encoding: Cp1252
Language: es
Country: ES
--></g></svg>