<?xml version="1.0" encoding="UTF-8" standalone="no"?><svg xmlns="http://www.w3.org/2000/svg" xmlns:xlink="http://www.w3.org/1999/xlink" contentScriptType="application/ecmascript" contentStyleType="text/css" height="297px" preserveAspectRatio="none" style="width:477px;height:297px;" version="1.1" viewBox="0 0 477 297" width="477px" zoomAndPan="magnify"><defs><filter height="300%" id="f1ir4imkpbpgev" width="300%" x="-1" y="-1"><feGaussianBlur result="blurOut" stdDeviation="2.0"/><feColorMatrix in="blurOut" result="blurOut2" type="matrix" values="0 0 0 0 0 0 0 0 0 0 0 0 0 0 0 0 0 0 .4 0"/><feOffset dx="4.0" dy="4.0" in="blurOut2" result="blurOut3"/><feBlend in="SourceGraphic" in2="blurOut3" mode="normal"/></filter></defs><g><!--MD5=[9fa077af224da7c36c89c8c4f601c51c]
class org.eclipse.epf.uma.impl.ContentPackageImpl--><a href="ContentPackageImpl.html" target="_top" title="ContentPackageImpl.html" xlink:actuate="onRequest" xlink:href="ContentPackageImpl.html" xlink:show="new" xlink:title="ContentPackageImpl.html" xlink:type="simple"><rect codeLine="5" fill="#FEFECE" filter="url(#f1ir4imkpbpgev)" height="131.2031" id="org.eclipse.epf.uma.impl.ContentPackageImpl" style="stroke: #A80036; stroke-width: 1.5;" width="376" x="21" y="129"/><ellipse cx="139.75" cy="149.0938" fill="#ADD1B2" rx="11" ry="11" style="stroke: #A80036; stroke-width: 1.0;"/><path d="M142.5156,144.9688 Q142.6719,144.75 142.8594,144.6406 Q143.0469,144.5313 143.2656,144.5313 Q143.6406,144.5313 143.875,144.7969 Q144.1094,145.0469 144.1094,145.6563 L144.1094,147.1094 Q144.1094,147.7188 143.875,147.9844 Q143.6406,148.25 143.2656,148.25 Q142.9219,148.25 142.7188,148.0469 Q142.5156,147.8594 142.4063,147.3438 Q142.3594,146.9844 142.1719,146.7969 Q141.8438,146.4219 141.2344,146.2031 Q140.625,145.9844 140,145.9844 Q139.2344,145.9844 138.5938,146.3125 Q137.9688,146.6406 137.4688,147.3906 Q136.9844,148.1406 136.9844,149.1719 L136.9844,150.2656 Q136.9844,151.5 137.875,152.3281 Q138.7656,153.1406 140.3594,153.1406 Q141.2969,153.1406 141.9531,152.8906 Q142.3438,152.7344 142.7656,152.2969 Q143.0313,152.0313 143.1719,151.9531 Q143.3281,151.875 143.5313,151.875 Q143.8594,151.875 144.1094,152.1406 Q144.375,152.3906 144.375,152.7344 Q144.375,153.0781 144.0313,153.4844 Q143.5313,154.0625 142.7344,154.3906 Q141.6563,154.8438 140.3594,154.8438 Q138.8438,154.8438 137.6406,154.2188 Q136.6563,153.7188 135.9688,152.6563 Q135.2813,151.5781 135.2813,150.2969 L135.2813,149.1406 Q135.2813,147.8125 135.8906,146.6719 Q136.5156,145.5156 137.6094,144.9063 Q138.7031,144.2813 139.9375,144.2813 Q140.6719,144.2813 141.3125,144.4531 Q141.9688,144.6094 142.5156,144.9688 Z "/><text fill="#000000" font-family="sans-serif" font-size="14" lengthAdjust="spacingAndGlyphs" textLength="130" x="160.25" y="148.5332">ContentPackageImpl</text><text fill="#000000" font-family="sans-serif" font-size="10" lengthAdjust="spacingAndGlyphs" textLength="118" x="166.25" y="161.9902">org.eclipse.epf.uma.impl</text><line style="stroke: #A80036; stroke-width: 1.5;" x1="22" x2="396" y1="169.1875" y2="169.1875"/><ellipse cx="32" cy="180.1875" fill="#84BE84" rx="3" ry="3" style="stroke: #038048; stroke-width: 1.0;"/><text fill="#000000" font-family="sans-serif" font-size="11" lengthAdjust="spacingAndGlyphs" textLength="218" x="41" y="184.6064">getContentElements(): EList&lt;ContentElement&gt;</text><ellipse cx="32" cy="194.0234" fill="#84BE84" rx="3" ry="3" style="stroke: #038048; stroke-width: 1.0;"/><text fill="#000000" font-family="sans-serif" font-size="11" lengthAdjust="spacingAndGlyphs" textLength="350" x="41" y="198.4424">eInverseRemove(InternalEObject, int, NotificationChain): NotificationChain</text><ellipse cx="32" cy="207.8594" fill="#84BE84" rx="3" ry="3" style="stroke: #038048; stroke-width: 1.0;"/><text fill="#000000" font-family="sans-serif" font-size="11" lengthAdjust="spacingAndGlyphs" textLength="167" x="41" y="212.2783">eGet(int, boolean, boolean): Object</text><ellipse cx="32" cy="221.6953" fill="#84BE84" rx="3" ry="3" style="stroke: #038048; stroke-width: 1.0;"/><text fill="#000000" font-family="sans-serif" font-size="11" lengthAdjust="spacingAndGlyphs" textLength="104" x="41" y="226.1143">eSet(int, Object): void</text><ellipse cx="32" cy="235.5313" fill="#84BE84" rx="3" ry="3" style="stroke: #038048; stroke-width: 1.0;"/><text fill="#000000" font-family="sans-serif" font-size="11" lengthAdjust="spacingAndGlyphs" textLength="79" x="41" y="239.9502">eUnset(int): void</text><ellipse cx="32" cy="249.3672" fill="#84BE84" rx="3" ry="3" style="stroke: #038048; stroke-width: 1.0;"/><text fill="#000000" font-family="sans-serif" font-size="11" lengthAdjust="spacingAndGlyphs" textLength="93" x="41" y="253.7861">eIsSet(int): boolean</text></a><!--MD5=[b9790bee1642cafe6d19150b67b64b93]
class org.eclipse.epf.uma.impl.MethodPackageImpl--><a href="MethodPackageImpl.html" target="_top" title="MethodPackageImpl.html" xlink:actuate="onRequest" xlink:href="MethodPackageImpl.html" xlink:show="new" xlink:title="MethodPackageImpl.html" xlink:type="simple"><rect codeLine="14" fill="#FEFECE" filter="url(#f1ir4imkpbpgev)" height="40.1875" id="org.eclipse.epf.uma.impl.MethodPackageImpl" style="stroke: #A80036; stroke-width: 1.5;" width="162" x="7" y="18"/><ellipse cx="22" cy="38.0938" fill="#A9DCDF" rx="11" ry="11" style="stroke: #A80036; stroke-width: 1.0;"/><path d="M24.1875,39.8594 L20.0469,39.8594 L19.625,40.8906 L20.0469,40.8906 Q20.6563,40.8906 20.9219,41.125 Q21.1875,41.3594 21.1875,41.75 Q21.1875,42.125 20.9219,42.3594 Q20.6563,42.5938 20.0469,42.5938 L17.75,42.5938 Q17.1406,42.5938 16.8906,42.3594 Q16.625,42.125 16.625,41.7344 Q16.625,41.3594 16.9063,41.125 Q17.1719,40.875 17.7969,40.8906 L20.4688,34.2344 L19.3594,34.2344 Q18.75,34.2344 18.4844,34 Q18.2188,33.7656 18.2188,33.375 Q18.2188,33 18.4844,32.7656 Q18.75,32.5313 19.3594,32.5313 L23.0313,32.5313 L26.4219,40.8906 Q27.0156,40.8906 27.2031,41.0313 Q27.5938,41.2969 27.5938,41.75 Q27.5938,42.125 27.3281,42.3594 Q27.0781,42.5938 26.4688,42.5938 L24.1719,42.5938 Q23.5625,42.5938 23.2969,42.3594 Q23.0313,42.125 23.0313,41.7344 Q23.0313,41.3594 23.2969,41.125 Q23.5625,40.8906 24.1719,40.8906 L24.5938,40.8906 L24.1875,39.8594 Z M23.4688,38.1563 L22.1094,34.7813 L20.7344,38.1563 L23.4688,38.1563 Z "/><text fill="#000000" font-family="sans-serif" font-size="14" font-style="italic" lengthAdjust="spacingAndGlyphs" textLength="130" x="36" y="37.5332">MethodPackageImpl</text><text fill="#000000" font-family="sans-serif" font-size="10" font-style="italic" lengthAdjust="spacingAndGlyphs" textLength="114" x="44" y="50.9902">org.eclipse.epf.uma.impl</text></a><!--MD5=[2668d661cfd6a682ca4047289b78ff74]
class org.eclipse.epf.uma.ContentPackage--><a href="..\ContentPackage.html" target="_top" title="..\ContentPackage.html" xlink:actuate="onRequest" xlink:href="..\ContentPackage.html" xlink:show="new" xlink:title="..\ContentPackage.html" xlink:type="simple"><rect codeLine="15" fill="#FEFECE" filter="url(#f1ir4imkpbpgev)" height="62.0234" id="org.eclipse.epf.uma.ContentPackage" style="stroke: #A80036; stroke-width: 1.5;" width="254" x="204" y="7"/><ellipse cx="273.75" cy="27.0938" fill="#B4A7E5" rx="11" ry="11" style="stroke: #A80036; stroke-width: 1.0;"/><path d="M274.7031,23.7344 L274.7031,30.3906 L276.4219,30.3906 Q277.0313,30.3906 277.2969,30.625 Q277.5625,30.8594 277.5625,31.25 Q277.5625,31.625 277.2969,31.8594 Q277.0313,32.0938 276.4219,32.0938 L271.2813,32.0938 Q270.6719,32.0938 270.4063,31.8594 Q270.1406,31.625 270.1406,31.2344 Q270.1406,30.8594 270.4063,30.625 Q270.6719,30.3906 271.2813,30.3906 L273,30.3906 L273,23.7344 L271.2813,23.7344 Q270.6719,23.7344 270.4063,23.5 Q270.1406,23.2656 270.1406,22.875 Q270.1406,22.5 270.4063,22.2656 Q270.6719,22.0313 271.2813,22.0313 L276.4219,22.0313 Q277.0313,22.0313 277.2969,22.2656 Q277.5625,22.5 277.5625,22.875 Q277.5625,23.2656 277.2969,23.5 Q277.0313,23.7344 276.4219,23.7344 L274.7031,23.7344 Z "/><text fill="#000000" font-family="sans-serif" font-size="14" font-style="italic" lengthAdjust="spacingAndGlyphs" textLength="106" x="294.25" y="26.5332">ContentPackage</text><text fill="#000000" font-family="sans-serif" font-size="10" font-style="italic" lengthAdjust="spacingAndGlyphs" textLength="92" x="301.25" y="39.9902">org.eclipse.epf.uma</text><line style="stroke: #A80036; stroke-width: 1.5;" x1="205" x2="457" y1="47.1875" y2="47.1875"/><ellipse cx="215" cy="58.1875" fill="#84BE84" rx="3" ry="3" style="stroke: #038048; stroke-width: 1.0;"/><text fill="#000000" font-family="sans-serif" font-size="11" font-style="italic" lengthAdjust="spacingAndGlyphs" textLength="228" x="224" y="62.6064">getContentElements(): EList&lt;ContentElement&gt;</text></a><!--MD5=[267c6e4e7348ba56a3bff15be8d34a2c]
reverse link org.eclipse.epf.uma.impl.MethodPackageImpl to org.eclipse.epf.uma.impl.ContentPackageImpl--><path codeLine="19" d="M115.56,74.19 C128.21,90.34 143.63,110.03 158.27,128.72 " fill="none" id="org.eclipse.epf.uma.impl.MethodPackageImpl-backto-org.eclipse.epf.uma.impl.ContentPackageImpl" style="stroke: #A80036; stroke-width: 1.0;"/><polygon fill="none" points="109.9,78.32,103.08,58.26,120.92,69.68,109.9,78.32" style="stroke: #A80036; stroke-width: 1.0;"/><!--MD5=[385cf06f90240ee7e3b9ad91dc394bce]
reverse link org.eclipse.epf.uma.ContentPackage to org.eclipse.epf.uma.impl.ContentPackageImpl--><path codeLine="20" d="M294.66,85.02 C283.78,98.79 271.65,114.16 260.01,128.9 " fill="none" id="org.eclipse.epf.uma.ContentPackage-backto-org.eclipse.epf.uma.impl.ContentPackageImpl" style="stroke: #A80036; stroke-width: 1.0; stroke-dasharray: 7.0,7.0;"/><polygon fill="none" points="289.3,80.51,307.19,69.16,300.29,89.19,289.3,80.51" style="stroke: #A80036; stroke-width: 1.0;"/><text fill="#888888" font-family="sans-serif" font-size="10" lengthAdjust="spacingAndGlyphs" textLength="190" x="134.5" y="283.584">UMLDoclet 2.0.12, PlantUML 1.2020.16</text><!--MD5=[e30eb7195f93e412942bec92415f0974]
@startuml
    set namespaceSeparator none
    hide empty fields
    hide empty methods

    class "<size:14>ContentPackageImpl\n<size:10>org.eclipse.epf.uma.impl" as org.eclipse.epf.uma.impl.ContentPackageImpl [[ContentPackageImpl.html]] {
        +getContentElements(): EList<ContentElement>
        +eInverseRemove(InternalEObject, int, NotificationChain): NotificationChain
        +eGet(int, boolean, boolean): Object
        +eSet(int, Object): void
        +eUnset(int): void
        +eIsSet(int): boolean
    }

    abstract class "<size:14>MethodPackageImpl\n<size:10>org.eclipse.epf.uma.impl" as org.eclipse.epf.uma.impl.MethodPackageImpl [[MethodPackageImpl.html]]
    interface "<size:14>ContentPackage\n<size:10>org.eclipse.epf.uma" as org.eclipse.epf.uma.ContentPackage [[..\ContentPackage.html]] {
        {abstract} +getContentElements(): EList<ContentElement>
    }

    org.eclipse.epf.uma.impl.MethodPackageImpl <|- - org.eclipse.epf.uma.impl.ContentPackageImpl
    org.eclipse.epf.uma.ContentPackage <|.. org.eclipse.epf.uma.impl.ContentPackageImpl

    center footer UMLDoclet 2.0.12, PlantUML 1.2020.16
@enduml

PlantUML version 1.2020.16(Sun Aug 23 22:20:43 CEST 2020)
(APACHE source distribution)
Java Runtime: Java(TM) SE Runtime Environment
JVM: Java HotSpot(TM) 64-Bit Server VM
Default Encoding: Cp1252
Language: es
Country: ES
--></g></svg>