<?xml version="1.0" encoding="UTF-8" standalone="no"?><svg xmlns="http://www.w3.org/2000/svg" xmlns:xlink="http://www.w3.org/1999/xlink" contentScriptType="application/ecmascript" contentStyleType="text/css" height="324px" preserveAspectRatio="none" style="width:458px;height:324px;" version="1.1" viewBox="0 0 458 324" width="458px" zoomAndPan="magnify"><defs><filter height="300%" id="f1tjif8rxi2xh2" width="300%" x="-1" y="-1"><feGaussianBlur result="blurOut" stdDeviation="2.0"/><feColorMatrix in="blurOut" result="blurOut2" type="matrix" values="0 0 0 0 0 0 0 0 0 0 0 0 0 0 0 0 0 0 .4 0"/><feOffset dx="4.0" dy="4.0" in="blurOut2" result="blurOut3"/><feBlend in="SourceGraphic" in2="blurOut3" mode="normal"/></filter></defs><g><!--MD5=[dc0af416d0fd1436f20bd1f4bfd038fd]
class org.eclipse.epf.uma.impl.CoreSemanticModelBridgeImpl--><a href="CoreSemanticModelBridgeImpl.html" target="_top" title="CoreSemanticModelBridgeImpl.html" xlink:actuate="onRequest" xlink:href="CoreSemanticModelBridgeImpl.html" xlink:show="new" xlink:title="CoreSemanticModelBridgeImpl.html" xlink:type="simple"><rect codeLine="5" fill="#FEFECE" filter="url(#f1tjif8rxi2xh2)" height="145.0391" id="org.eclipse.epf.uma.impl.CoreSemanticModelBridgeImpl" style="stroke: #A80036; stroke-width: 1.5;" width="225" x="109.5" y="143"/><ellipse cx="124.5" cy="163.0938" fill="#ADD1B2" rx="11" ry="11" style="stroke: #A80036; stroke-width: 1.0;"/><path d="M127.2656,158.9688 Q127.4219,158.75 127.6094,158.6406 Q127.7969,158.5313 128.0156,158.5313 Q128.3906,158.5313 128.625,158.7969 Q128.8594,159.0469 128.8594,159.6563 L128.8594,161.1094 Q128.8594,161.7188 128.625,161.9844 Q128.3906,162.25 128.0156,162.25 Q127.6719,162.25 127.4688,162.0469 Q127.2656,161.8594 127.1563,161.3438 Q127.1094,160.9844 126.9219,160.7969 Q126.5938,160.4219 125.9844,160.2031 Q125.375,159.9844 124.75,159.9844 Q123.9844,159.9844 123.3438,160.3125 Q122.7188,160.6406 122.2188,161.3906 Q121.7344,162.1406 121.7344,163.1719 L121.7344,164.2656 Q121.7344,165.5 122.625,166.3281 Q123.5156,167.1406 125.1094,167.1406 Q126.0469,167.1406 126.7031,166.8906 Q127.0938,166.7344 127.5156,166.2969 Q127.7813,166.0313 127.9219,165.9531 Q128.0781,165.875 128.2813,165.875 Q128.6094,165.875 128.8594,166.1406 Q129.125,166.3906 129.125,166.7344 Q129.125,167.0781 128.7813,167.4844 Q128.2813,168.0625 127.4844,168.3906 Q126.4063,168.8438 125.1094,168.8438 Q123.5938,168.8438 122.3906,168.2188 Q121.4063,167.7188 120.7188,166.6563 Q120.0313,165.5781 120.0313,164.2969 L120.0313,163.1406 Q120.0313,161.8125 120.6406,160.6719 Q121.2656,159.5156 122.3594,158.9063 Q123.4531,158.2813 124.6875,158.2813 Q125.4219,158.2813 126.0625,158.4531 Q126.7188,158.6094 127.2656,158.9688 Z "/><text fill="#000000" font-family="sans-serif" font-size="14" lengthAdjust="spacingAndGlyphs" textLength="193" x="138.5" y="162.5332">CoreSemanticModelBridgeImpl</text><text fill="#000000" font-family="sans-serif" font-size="10" lengthAdjust="spacingAndGlyphs" textLength="118" x="176" y="175.9902">org.eclipse.epf.uma.impl</text><line style="stroke: #A80036; stroke-width: 1.5;" x1="110.5" x2="333.5" y1="183.1875" y2="183.1875"/><ellipse cx="120.5" cy="194.1875" fill="#84BE84" rx="3" ry="3" style="stroke: #038048; stroke-width: 1.0;"/><text fill="#000000" font-family="sans-serif" font-size="11" lengthAdjust="spacingAndGlyphs" textLength="103" x="129.5" y="198.6064">getElement(): Element</text><ellipse cx="120.5" cy="208.0234" fill="#84BE84" rx="3" ry="3" style="stroke: #038048; stroke-width: 1.0;"/><text fill="#000000" font-family="sans-serif" font-size="11" lengthAdjust="spacingAndGlyphs" textLength="131" x="129.5" y="212.4424">basicGetElement(): Element</text><ellipse cx="120.5" cy="221.8594" fill="#84BE84" rx="3" ry="3" style="stroke: #038048; stroke-width: 1.0;"/><text fill="#000000" font-family="sans-serif" font-size="11" lengthAdjust="spacingAndGlyphs" textLength="123" x="129.5" y="226.2783">setElement(Element): void</text><ellipse cx="120.5" cy="235.6953" fill="#84BE84" rx="3" ry="3" style="stroke: #038048; stroke-width: 1.0;"/><text fill="#000000" font-family="sans-serif" font-size="11" lengthAdjust="spacingAndGlyphs" textLength="167" x="129.5" y="240.1143">eGet(int, boolean, boolean): Object</text><ellipse cx="120.5" cy="249.5313" fill="#84BE84" rx="3" ry="3" style="stroke: #038048; stroke-width: 1.0;"/><text fill="#000000" font-family="sans-serif" font-size="11" lengthAdjust="spacingAndGlyphs" textLength="104" x="129.5" y="253.9502">eSet(int, Object): void</text><ellipse cx="120.5" cy="263.3672" fill="#84BE84" rx="3" ry="3" style="stroke: #038048; stroke-width: 1.0;"/><text fill="#000000" font-family="sans-serif" font-size="11" lengthAdjust="spacingAndGlyphs" textLength="79" x="129.5" y="267.7861">eUnset(int): void</text><ellipse cx="120.5" cy="277.2031" fill="#84BE84" rx="3" ry="3" style="stroke: #038048; stroke-width: 1.0;"/><text fill="#000000" font-family="sans-serif" font-size="11" lengthAdjust="spacingAndGlyphs" textLength="93" x="129.5" y="281.6221">eIsSet(int): boolean</text></a><!--MD5=[d675b455933a713921d71e55fdc5ea70]
class org.eclipse.epf.uma.impl.SemanticModelBridgeImpl--><a href="SemanticModelBridgeImpl.html" target="_top" title="SemanticModelBridgeImpl.html" xlink:actuate="onRequest" xlink:href="SemanticModelBridgeImpl.html" xlink:show="new" xlink:title="SemanticModelBridgeImpl.html" xlink:type="simple"><rect codeLine="15" fill="#FEFECE" filter="url(#f1tjif8rxi2xh2)" height="40.1875" id="org.eclipse.epf.uma.impl.SemanticModelBridgeImpl" style="stroke: #A80036; stroke-width: 1.5;" width="196" x="7" y="25"/><ellipse cx="22" cy="45.0938" fill="#A9DCDF" rx="11" ry="11" style="stroke: #A80036; stroke-width: 1.0;"/><path d="M24.1875,46.8594 L20.0469,46.8594 L19.625,47.8906 L20.0469,47.8906 Q20.6563,47.8906 20.9219,48.125 Q21.1875,48.3594 21.1875,48.75 Q21.1875,49.125 20.9219,49.3594 Q20.6563,49.5938 20.0469,49.5938 L17.75,49.5938 Q17.1406,49.5938 16.8906,49.3594 Q16.625,49.125 16.625,48.7344 Q16.625,48.3594 16.9063,48.125 Q17.1719,47.875 17.7969,47.8906 L20.4688,41.2344 L19.3594,41.2344 Q18.75,41.2344 18.4844,41 Q18.2188,40.7656 18.2188,40.375 Q18.2188,40 18.4844,39.7656 Q18.75,39.5313 19.3594,39.5313 L23.0313,39.5313 L26.4219,47.8906 Q27.0156,47.8906 27.2031,48.0313 Q27.5938,48.2969 27.5938,48.75 Q27.5938,49.125 27.3281,49.3594 Q27.0781,49.5938 26.4688,49.5938 L24.1719,49.5938 Q23.5625,49.5938 23.2969,49.3594 Q23.0313,49.125 23.0313,48.7344 Q23.0313,48.3594 23.2969,48.125 Q23.5625,47.8906 24.1719,47.8906 L24.5938,47.8906 L24.1875,46.8594 Z M23.4688,45.1563 L22.1094,41.7813 L20.7344,45.1563 L23.4688,45.1563 Z "/><text fill="#000000" font-family="sans-serif" font-size="14" font-style="italic" lengthAdjust="spacingAndGlyphs" textLength="164" x="36" y="44.5332">SemanticModelBridgeImpl</text><text fill="#000000" font-family="sans-serif" font-size="10" font-style="italic" lengthAdjust="spacingAndGlyphs" textLength="114" x="61" y="57.9902">org.eclipse.epf.uma.impl</text></a><!--MD5=[dde7f14f796f0ebd314cc48d62ba4a9c]
class org.eclipse.epf.uma.CoreSemanticModelBridge--><a href="..\CoreSemanticModelBridge.html" target="_top" title="..\CoreSemanticModelBridge.html" xlink:actuate="onRequest" xlink:href="..\CoreSemanticModelBridge.html" xlink:show="new" xlink:title="..\CoreSemanticModelBridge.html" xlink:type="simple"><rect codeLine="16" fill="#FEFECE" filter="url(#f1tjif8rxi2xh2)" height="75.8594" id="org.eclipse.epf.uma.CoreSemanticModelBridge" style="stroke: #A80036; stroke-width: 1.5;" width="201" x="238.5" y="7"/><ellipse cx="253.5" cy="27.0938" fill="#B4A7E5" rx="11" ry="11" style="stroke: #A80036; stroke-width: 1.0;"/><path d="M254.4531,23.7344 L254.4531,30.3906 L256.1719,30.3906 Q256.7813,30.3906 257.0469,30.625 Q257.3125,30.8594 257.3125,31.25 Q257.3125,31.625 257.0469,31.8594 Q256.7813,32.0938 256.1719,32.0938 L251.0313,32.0938 Q250.4219,32.0938 250.1563,31.8594 Q249.8906,31.625 249.8906,31.2344 Q249.8906,30.8594 250.1563,30.625 Q250.4219,30.3906 251.0313,30.3906 L252.75,30.3906 L252.75,23.7344 L251.0313,23.7344 Q250.4219,23.7344 250.1563,23.5 Q249.8906,23.2656 249.8906,22.875 Q249.8906,22.5 250.1563,22.2656 Q250.4219,22.0313 251.0313,22.0313 L256.1719,22.0313 Q256.7813,22.0313 257.0469,22.2656 Q257.3125,22.5 257.3125,22.875 Q257.3125,23.2656 257.0469,23.5 Q256.7813,23.7344 256.1719,23.7344 L254.4531,23.7344 Z "/><text fill="#000000" font-family="sans-serif" font-size="14" font-style="italic" lengthAdjust="spacingAndGlyphs" textLength="169" x="267.5" y="26.5332">CoreSemanticModelBridge</text><text fill="#000000" font-family="sans-serif" font-size="10" font-style="italic" lengthAdjust="spacingAndGlyphs" textLength="92" x="306" y="39.9902">org.eclipse.epf.uma</text><line style="stroke: #A80036; stroke-width: 1.5;" x1="239.5" x2="438.5" y1="47.1875" y2="47.1875"/><ellipse cx="249.5" cy="58.1875" fill="#84BE84" rx="3" ry="3" style="stroke: #038048; stroke-width: 1.0;"/><text fill="#000000" font-family="sans-serif" font-size="11" font-style="italic" lengthAdjust="spacingAndGlyphs" textLength="109" x="258.5" y="62.6064">getElement(): Element</text><ellipse cx="249.5" cy="72.0234" fill="#84BE84" rx="3" ry="3" style="stroke: #038048; stroke-width: 1.0;"/><text fill="#000000" font-family="sans-serif" font-size="11" font-style="italic" lengthAdjust="spacingAndGlyphs" textLength="129" x="258.5" y="76.4424">setElement(Element): void</text></a><!--MD5=[7e5fae7572187e4d101b9d64957e8c17]
reverse link org.eclipse.epf.uma.impl.SemanticModelBridgeImpl to org.eclipse.epf.uma.impl.CoreSemanticModelBridgeImpl--><path codeLine="21" d="M129.64,81.48 C142.05,99.36 157.57,121.71 172.32,142.95 " fill="none" id="org.eclipse.epf.uma.impl.SemanticModelBridgeImpl-backto-org.eclipse.epf.uma.impl.CoreSemanticModelBridgeImpl" style="stroke: #A80036; stroke-width: 1.0;"/><polygon fill="none" points="123.85,85.42,118.19,65,135.35,77.44,123.85,85.42" style="stroke: #A80036; stroke-width: 1.0;"/><!--MD5=[49424339d82faa09bf04c867ad826dd6]
reverse link org.eclipse.epf.uma.CoreSemanticModelBridge to org.eclipse.epf.uma.impl.CoreSemanticModelBridgeImpl--><path codeLine="22" d="M301.54,99.95 C292.04,113.64 281.68,128.56 271.67,142.97 " fill="none" id="org.eclipse.epf.uma.CoreSemanticModelBridge-backto-org.eclipse.epf.uma.impl.CoreSemanticModelBridgeImpl" style="stroke: #A80036; stroke-width: 1.0; stroke-dasharray: 7.0,7.0;"/><polygon fill="none" points="295.88,95.83,313.03,83.4,307.38,103.82,295.88,95.83" style="stroke: #A80036; stroke-width: 1.0;"/><text fill="#888888" font-family="sans-serif" font-size="10" lengthAdjust="spacingAndGlyphs" textLength="190" x="125.25" y="311.4199">UMLDoclet 2.0.12, PlantUML 1.2020.16</text><!--MD5=[3534f67323a37a4d092bc5ab311a8b6c]
@startuml
    set namespaceSeparator none
    hide empty fields
    hide empty methods

    class "<size:14>CoreSemanticModelBridgeImpl\n<size:10>org.eclipse.epf.uma.impl" as org.eclipse.epf.uma.impl.CoreSemanticModelBridgeImpl [[CoreSemanticModelBridgeImpl.html]] {
        +getElement(): Element
        +basicGetElement(): Element
        +setElement(Element): void
        +eGet(int, boolean, boolean): Object
        +eSet(int, Object): void
        +eUnset(int): void
        +eIsSet(int): boolean
    }

    abstract class "<size:14>SemanticModelBridgeImpl\n<size:10>org.eclipse.epf.uma.impl" as org.eclipse.epf.uma.impl.SemanticModelBridgeImpl [[SemanticModelBridgeImpl.html]]
    interface "<size:14>CoreSemanticModelBridge\n<size:10>org.eclipse.epf.uma" as org.eclipse.epf.uma.CoreSemanticModelBridge [[..\CoreSemanticModelBridge.html]] {
        {abstract} +getElement(): Element
        {abstract} +setElement(Element): void
    }

    org.eclipse.epf.uma.impl.SemanticModelBridgeImpl <|- - org.eclipse.epf.uma.impl.CoreSemanticModelBridgeImpl
    org.eclipse.epf.uma.CoreSemanticModelBridge <|.. org.eclipse.epf.uma.impl.CoreSemanticModelBridgeImpl

    center footer UMLDoclet 2.0.12, PlantUML 1.2020.16
@enduml

PlantUML version 1.2020.16(Sun Aug 23 22:20:43 CEST 2020)
(APACHE source distribution)
Java Runtime: Java(TM) SE Runtime Environment
JVM: Java HotSpot(TM) 64-Bit Server VM
Default Encoding: Cp1252
Language: es
Country: ES
--></g></svg>