<?xml version="1.0" encoding="UTF-8" standalone="no"?><svg xmlns="http://www.w3.org/2000/svg" xmlns:xlink="http://www.w3.org/1999/xlink" contentScriptType="application/ecmascript" contentStyleType="text/css" height="311px" preserveAspectRatio="none" style="width:527px;height:311px;" version="1.1" viewBox="0 0 527 311" width="527px" zoomAndPan="magnify"><defs><filter height="300%" id="f3ebzacx6fd9j" width="300%" x="-1" y="-1"><feGaussianBlur result="blurOut" stdDeviation="2.0"/><feColorMatrix in="blurOut" result="blurOut2" type="matrix" values="0 0 0 0 0 0 0 0 0 0 0 0 0 0 0 0 0 0 .4 0"/><feOffset dx="4.0" dy="4.0" in="blurOut2" result="blurOut3"/><feBlend in="SourceGraphic" in2="blurOut3" mode="normal"/></filter></defs><g><!--MD5=[869a45ff0d1d45d9e31fdbee5dd4adf1]
class org.eclipse.epf.uma.impl.CustomCategoryImpl--><a href="CustomCategoryImpl.html" target="_top" title="CustomCategoryImpl.html" xlink:actuate="onRequest" xlink:href="CustomCategoryImpl.html" xlink:show="new" xlink:title="CustomCategoryImpl.html" xlink:type="simple"><rect codeLine="5" fill="#FEFECE" filter="url(#f3ebzacx6fd9j)" height="131.2031" id="org.eclipse.epf.uma.impl.CustomCategoryImpl" style="stroke: #A80036; stroke-width: 1.5;" width="285" x="81.5" y="143"/><ellipse cx="154.25" cy="163.0938" fill="#ADD1B2" rx="11" ry="11" style="stroke: #A80036; stroke-width: 1.0;"/><path d="M157.0156,158.9688 Q157.1719,158.75 157.3594,158.6406 Q157.5469,158.5313 157.7656,158.5313 Q158.1406,158.5313 158.375,158.7969 Q158.6094,159.0469 158.6094,159.6563 L158.6094,161.1094 Q158.6094,161.7188 158.375,161.9844 Q158.1406,162.25 157.7656,162.25 Q157.4219,162.25 157.2188,162.0469 Q157.0156,161.8594 156.9063,161.3438 Q156.8594,160.9844 156.6719,160.7969 Q156.3438,160.4219 155.7344,160.2031 Q155.125,159.9844 154.5,159.9844 Q153.7344,159.9844 153.0938,160.3125 Q152.4688,160.6406 151.9688,161.3906 Q151.4844,162.1406 151.4844,163.1719 L151.4844,164.2656 Q151.4844,165.5 152.375,166.3281 Q153.2656,167.1406 154.8594,167.1406 Q155.7969,167.1406 156.4531,166.8906 Q156.8438,166.7344 157.2656,166.2969 Q157.5313,166.0313 157.6719,165.9531 Q157.8281,165.875 158.0313,165.875 Q158.3594,165.875 158.6094,166.1406 Q158.875,166.3906 158.875,166.7344 Q158.875,167.0781 158.5313,167.4844 Q158.0313,168.0625 157.2344,168.3906 Q156.1563,168.8438 154.8594,168.8438 Q153.3438,168.8438 152.1406,168.2188 Q151.1563,167.7188 150.4688,166.6563 Q149.7813,165.5781 149.7813,164.2969 L149.7813,163.1406 Q149.7813,161.8125 150.3906,160.6719 Q151.0156,159.5156 152.1094,158.9063 Q153.2031,158.2813 154.4375,158.2813 Q155.1719,158.2813 155.8125,158.4531 Q156.4688,158.6094 157.0156,158.9688 Z "/><text fill="#000000" font-family="sans-serif" font-size="14" lengthAdjust="spacingAndGlyphs" textLength="131" x="174.75" y="162.5332">CustomCategoryImpl</text><text fill="#000000" font-family="sans-serif" font-size="10" lengthAdjust="spacingAndGlyphs" textLength="118" x="181.25" y="175.9902">org.eclipse.epf.uma.impl</text><line style="stroke: #A80036; stroke-width: 1.5;" x1="82.5" x2="365.5" y1="183.1875" y2="183.1875"/><ellipse cx="92.5" cy="194.1875" fill="#84BE84" rx="3" ry="3" style="stroke: #038048; stroke-width: 1.0;"/><text fill="#000000" font-family="sans-serif" font-size="11" lengthAdjust="spacingAndGlyphs" textLength="259" x="101.5" y="198.6064">getCategorizedElements(): EList&lt;DescribableElement&gt;</text><ellipse cx="92.5" cy="208.0234" fill="#84BE84" rx="3" ry="3" style="stroke: #038048; stroke-width: 1.0;"/><text fill="#000000" font-family="sans-serif" font-size="11" lengthAdjust="spacingAndGlyphs" textLength="216" x="101.5" y="212.4424">getSubCategories(): EList&lt;ContentCategory&gt;</text><ellipse cx="92.5" cy="221.8594" fill="#84BE84" rx="3" ry="3" style="stroke: #038048; stroke-width: 1.0;"/><text fill="#000000" font-family="sans-serif" font-size="11" lengthAdjust="spacingAndGlyphs" textLength="167" x="101.5" y="226.2783">eGet(int, boolean, boolean): Object</text><ellipse cx="92.5" cy="235.6953" fill="#84BE84" rx="3" ry="3" style="stroke: #038048; stroke-width: 1.0;"/><text fill="#000000" font-family="sans-serif" font-size="11" lengthAdjust="spacingAndGlyphs" textLength="104" x="101.5" y="240.1143">eSet(int, Object): void</text><ellipse cx="92.5" cy="249.5313" fill="#84BE84" rx="3" ry="3" style="stroke: #038048; stroke-width: 1.0;"/><text fill="#000000" font-family="sans-serif" font-size="11" lengthAdjust="spacingAndGlyphs" textLength="79" x="101.5" y="253.9502">eUnset(int): void</text><ellipse cx="92.5" cy="263.3672" fill="#84BE84" rx="3" ry="3" style="stroke: #038048; stroke-width: 1.0;"/><text fill="#000000" font-family="sans-serif" font-size="11" lengthAdjust="spacingAndGlyphs" textLength="93" x="101.5" y="267.7861">eIsSet(int): boolean</text></a><!--MD5=[80a1fa17d1f3fd257902418e6ad1c457]
class org.eclipse.epf.uma.impl.ContentCategoryImpl--><a href="ContentCategoryImpl.html" target="_top" title="ContentCategoryImpl.html" xlink:actuate="onRequest" xlink:href="ContentCategoryImpl.html" xlink:show="new" xlink:title="ContentCategoryImpl.html" xlink:type="simple"><rect codeLine="14" fill="#FEFECE" filter="url(#f3ebzacx6fd9j)" height="40.1875" id="org.eclipse.epf.uma.impl.ContentCategoryImpl" style="stroke: #A80036; stroke-width: 1.5;" width="166" x="7" y="25"/><ellipse cx="22" cy="45.0938" fill="#A9DCDF" rx="11" ry="11" style="stroke: #A80036; stroke-width: 1.0;"/><path d="M24.1875,46.8594 L20.0469,46.8594 L19.625,47.8906 L20.0469,47.8906 Q20.6563,47.8906 20.9219,48.125 Q21.1875,48.3594 21.1875,48.75 Q21.1875,49.125 20.9219,49.3594 Q20.6563,49.5938 20.0469,49.5938 L17.75,49.5938 Q17.1406,49.5938 16.8906,49.3594 Q16.625,49.125 16.625,48.7344 Q16.625,48.3594 16.9063,48.125 Q17.1719,47.875 17.7969,47.8906 L20.4688,41.2344 L19.3594,41.2344 Q18.75,41.2344 18.4844,41 Q18.2188,40.7656 18.2188,40.375 Q18.2188,40 18.4844,39.7656 Q18.75,39.5313 19.3594,39.5313 L23.0313,39.5313 L26.4219,47.8906 Q27.0156,47.8906 27.2031,48.0313 Q27.5938,48.2969 27.5938,48.75 Q27.5938,49.125 27.3281,49.3594 Q27.0781,49.5938 26.4688,49.5938 L24.1719,49.5938 Q23.5625,49.5938 23.2969,49.3594 Q23.0313,49.125 23.0313,48.7344 Q23.0313,48.3594 23.2969,48.125 Q23.5625,47.8906 24.1719,47.8906 L24.5938,47.8906 L24.1875,46.8594 Z M23.4688,45.1563 L22.1094,41.7813 L20.7344,45.1563 L23.4688,45.1563 Z "/><text fill="#000000" font-family="sans-serif" font-size="14" font-style="italic" lengthAdjust="spacingAndGlyphs" textLength="134" x="36" y="44.5332">ContentCategoryImpl</text><text fill="#000000" font-family="sans-serif" font-size="10" font-style="italic" lengthAdjust="spacingAndGlyphs" textLength="114" x="46" y="57.9902">org.eclipse.epf.uma.impl</text></a><!--MD5=[e8d5ce743153d35ba59d7ffdbf4c7098]
class org.eclipse.epf.uma.CustomCategory--><a href="..\CustomCategory.html" target="_top" title="..\CustomCategory.html" xlink:actuate="onRequest" xlink:href="..\CustomCategory.html" xlink:show="new" xlink:title="..\CustomCategory.html" xlink:type="simple"><rect codeLine="15" fill="#FEFECE" filter="url(#f3ebzacx6fd9j)" height="75.8594" id="org.eclipse.epf.uma.CustomCategory" style="stroke: #A80036; stroke-width: 1.5;" width="300" x="208" y="7"/><ellipse cx="300.75" cy="27.0938" fill="#B4A7E5" rx="11" ry="11" style="stroke: #A80036; stroke-width: 1.0;"/><path d="M301.7031,23.7344 L301.7031,30.3906 L303.4219,30.3906 Q304.0313,30.3906 304.2969,30.625 Q304.5625,30.8594 304.5625,31.25 Q304.5625,31.625 304.2969,31.8594 Q304.0313,32.0938 303.4219,32.0938 L298.2813,32.0938 Q297.6719,32.0938 297.4063,31.8594 Q297.1406,31.625 297.1406,31.2344 Q297.1406,30.8594 297.4063,30.625 Q297.6719,30.3906 298.2813,30.3906 L300,30.3906 L300,23.7344 L298.2813,23.7344 Q297.6719,23.7344 297.4063,23.5 Q297.1406,23.2656 297.1406,22.875 Q297.1406,22.5 297.4063,22.2656 Q297.6719,22.0313 298.2813,22.0313 L303.4219,22.0313 Q304.0313,22.0313 304.2969,22.2656 Q304.5625,22.5 304.5625,22.875 Q304.5625,23.2656 304.2969,23.5 Q304.0313,23.7344 303.4219,23.7344 L301.7031,23.7344 Z "/><text fill="#000000" font-family="sans-serif" font-size="14" font-style="italic" lengthAdjust="spacingAndGlyphs" textLength="106" x="321.25" y="26.5332">CustomCategory</text><text fill="#000000" font-family="sans-serif" font-size="10" font-style="italic" lengthAdjust="spacingAndGlyphs" textLength="92" x="328.25" y="39.9902">org.eclipse.epf.uma</text><line style="stroke: #A80036; stroke-width: 1.5;" x1="209" x2="507" y1="47.1875" y2="47.1875"/><ellipse cx="219" cy="58.1875" fill="#84BE84" rx="3" ry="3" style="stroke: #038048; stroke-width: 1.0;"/><text fill="#000000" font-family="sans-serif" font-size="11" font-style="italic" lengthAdjust="spacingAndGlyphs" textLength="274" x="228" y="62.6064">getCategorizedElements(): EList&lt;DescribableElement&gt;</text><ellipse cx="219" cy="72.0234" fill="#84BE84" rx="3" ry="3" style="stroke: #038048; stroke-width: 1.0;"/><text fill="#000000" font-family="sans-serif" font-size="11" font-style="italic" lengthAdjust="spacingAndGlyphs" textLength="222" x="228" y="76.4424">getSubCategories(): EList&lt;ContentCategory&gt;</text></a><!--MD5=[10e0076279fe9202a22026c930b8be03]
reverse link org.eclipse.epf.uma.impl.ContentCategoryImpl to org.eclipse.epf.uma.impl.CustomCategoryImpl--><path codeLine="20" d="M118.69,80.58 C133.71,98.68 152.58,121.43 170.19,142.65 " fill="none" id="org.eclipse.epf.uma.impl.ContentCategoryImpl-backto-org.eclipse.epf.uma.impl.CustomCategoryImpl" style="stroke: #A80036; stroke-width: 1.0;"/><polygon fill="none" points="113.28,85.02,105.9,65.16,124.06,76.08,113.28,85.02" style="stroke: #A80036; stroke-width: 1.0;"/><!--MD5=[561d9e8032e31a0e6f7deec25898afd4]
reverse link org.eclipse.epf.uma.CustomCategory to org.eclipse.epf.uma.impl.CustomCategoryImpl--><path codeLine="21" d="M314.18,98.81 C302.54,112.84 289.84,128.15 277.73,142.74 " fill="none" id="org.eclipse.epf.uma.CustomCategory-backto-org.eclipse.epf.uma.impl.CustomCategoryImpl" style="stroke: #A80036; stroke-width: 1.0; stroke-dasharray: 7.0,7.0;"/><polygon fill="none" points="309.1,93.97,327.26,83.05,319.87,102.91,309.1,93.97" style="stroke: #A80036; stroke-width: 1.0;"/><text fill="#888888" font-family="sans-serif" font-size="10" lengthAdjust="spacingAndGlyphs" textLength="190" x="159.5" y="297.584">UMLDoclet 2.0.12, PlantUML 1.2020.16</text><!--MD5=[dfefe170ab9fd7f7bc9b67bd10fae62f]
@startuml
    set namespaceSeparator none
    hide empty fields
    hide empty methods

    class "<size:14>CustomCategoryImpl\n<size:10>org.eclipse.epf.uma.impl" as org.eclipse.epf.uma.impl.CustomCategoryImpl [[CustomCategoryImpl.html]] {
        +getCategorizedElements(): EList<DescribableElement>
        +getSubCategories(): EList<ContentCategory>
        +eGet(int, boolean, boolean): Object
        +eSet(int, Object): void
        +eUnset(int): void
        +eIsSet(int): boolean
    }

    abstract class "<size:14>ContentCategoryImpl\n<size:10>org.eclipse.epf.uma.impl" as org.eclipse.epf.uma.impl.ContentCategoryImpl [[ContentCategoryImpl.html]]
    interface "<size:14>CustomCategory\n<size:10>org.eclipse.epf.uma" as org.eclipse.epf.uma.CustomCategory [[..\CustomCategory.html]] {
        {abstract} +getCategorizedElements(): EList<DescribableElement>
        {abstract} +getSubCategories(): EList<ContentCategory>
    }

    org.eclipse.epf.uma.impl.ContentCategoryImpl <|- - org.eclipse.epf.uma.impl.CustomCategoryImpl
    org.eclipse.epf.uma.CustomCategory <|.. org.eclipse.epf.uma.impl.CustomCategoryImpl

    center footer UMLDoclet 2.0.12, PlantUML 1.2020.16
@enduml

PlantUML version 1.2020.16(Sun Aug 23 22:20:43 CEST 2020)
(APACHE source distribution)
Java Runtime: Java(TM) SE Runtime Environment
JVM: Java HotSpot(TM) 64-Bit Server VM
Default Encoding: Cp1252
Language: es
Country: ES
--></g></svg>