<?xml version="1.0" encoding="UTF-8" standalone="no"?><svg xmlns="http://www.w3.org/2000/svg" xmlns:xlink="http://www.w3.org/1999/xlink" contentScriptType="application/ecmascript" contentStyleType="text/css" height="311px" preserveAspectRatio="none" style="width:521px;height:311px;" version="1.1" viewBox="0 0 521 311" width="521px" zoomAndPan="magnify"><defs><filter height="300%" id="fte57grfhgp8j" width="300%" x="-1" y="-1"><feGaussianBlur result="blurOut" stdDeviation="2.0"/><feColorMatrix in="blurOut" result="blurOut2" type="matrix" values="0 0 0 0 0 0 0 0 0 0 0 0 0 0 0 0 0 0 .4 0"/><feOffset dx="4.0" dy="4.0" in="blurOut2" result="blurOut3"/><feBlend in="SourceGraphic" in2="blurOut3" mode="normal"/></filter></defs><g><!--MD5=[9dd93cfdf47d470d5c253fe1c0d2f0d6]
class org.eclipse.epf.uma.impl.DeliveryProcessImpl--><a href="DeliveryProcessImpl.html" target="_top" title="DeliveryProcessImpl.html" xlink:actuate="onRequest" xlink:href="DeliveryProcessImpl.html" xlink:show="new" xlink:title="DeliveryProcessImpl.html" xlink:type="simple"><rect codeLine="5" fill="#FEFECE" filter="url(#fte57grfhgp8j)" height="131.2031" id="org.eclipse.epf.uma.impl.DeliveryProcessImpl" style="stroke: #A80036; stroke-width: 1.5;" width="300" x="62" y="143"/><ellipse cx="144.25" cy="163.0938" fill="#ADD1B2" rx="11" ry="11" style="stroke: #A80036; stroke-width: 1.0;"/><path d="M147.0156,158.9688 Q147.1719,158.75 147.3594,158.6406 Q147.5469,158.5313 147.7656,158.5313 Q148.1406,158.5313 148.375,158.7969 Q148.6094,159.0469 148.6094,159.6563 L148.6094,161.1094 Q148.6094,161.7188 148.375,161.9844 Q148.1406,162.25 147.7656,162.25 Q147.4219,162.25 147.2188,162.0469 Q147.0156,161.8594 146.9063,161.3438 Q146.8594,160.9844 146.6719,160.7969 Q146.3438,160.4219 145.7344,160.2031 Q145.125,159.9844 144.5,159.9844 Q143.7344,159.9844 143.0938,160.3125 Q142.4688,160.6406 141.9688,161.3906 Q141.4844,162.1406 141.4844,163.1719 L141.4844,164.2656 Q141.4844,165.5 142.375,166.3281 Q143.2656,167.1406 144.8594,167.1406 Q145.7969,167.1406 146.4531,166.8906 Q146.8438,166.7344 147.2656,166.2969 Q147.5313,166.0313 147.6719,165.9531 Q147.8281,165.875 148.0313,165.875 Q148.3594,165.875 148.6094,166.1406 Q148.875,166.3906 148.875,166.7344 Q148.875,167.0781 148.5313,167.4844 Q148.0313,168.0625 147.2344,168.3906 Q146.1563,168.8438 144.8594,168.8438 Q143.3438,168.8438 142.1406,168.2188 Q141.1563,167.7188 140.4688,166.6563 Q139.7813,165.5781 139.7813,164.2969 L139.7813,163.1406 Q139.7813,161.8125 140.3906,160.6719 Q141.0156,159.5156 142.1094,158.9063 Q143.2031,158.2813 144.4375,158.2813 Q145.1719,158.2813 145.8125,158.4531 Q146.4688,158.6094 147.0156,158.9688 Z "/><text fill="#000000" font-family="sans-serif" font-size="14" lengthAdjust="spacingAndGlyphs" textLength="127" x="164.75" y="162.5332">DeliveryProcessImpl</text><text fill="#000000" font-family="sans-serif" font-size="10" lengthAdjust="spacingAndGlyphs" textLength="118" x="169.25" y="175.9902">org.eclipse.epf.uma.impl</text><line style="stroke: #A80036; stroke-width: 1.5;" x1="63" x2="361" y1="183.1875" y2="183.1875"/><ellipse cx="73" cy="194.1875" fill="#84BE84" rx="3" ry="3" style="stroke: #038048; stroke-width: 1.0;"/><text fill="#000000" font-family="sans-serif" font-size="11" lengthAdjust="spacingAndGlyphs" textLength="243" x="82" y="198.6064">getEducationMaterials(): EList&lt;SupportingMaterial&gt;</text><ellipse cx="73" cy="208.0234" fill="#84BE84" rx="3" ry="3" style="stroke: #038048; stroke-width: 1.0;"/><text fill="#000000" font-family="sans-serif" font-size="11" lengthAdjust="spacingAndGlyphs" textLength="274" x="82" y="212.4424">getCommunicationsMaterials(): EList&lt;SupportingMaterial&gt;</text><ellipse cx="73" cy="221.8594" fill="#84BE84" rx="3" ry="3" style="stroke: #038048; stroke-width: 1.0;"/><text fill="#000000" font-family="sans-serif" font-size="11" lengthAdjust="spacingAndGlyphs" textLength="167" x="82" y="226.2783">eGet(int, boolean, boolean): Object</text><ellipse cx="73" cy="235.6953" fill="#84BE84" rx="3" ry="3" style="stroke: #038048; stroke-width: 1.0;"/><text fill="#000000" font-family="sans-serif" font-size="11" lengthAdjust="spacingAndGlyphs" textLength="104" x="82" y="240.1143">eSet(int, Object): void</text><ellipse cx="73" cy="249.5313" fill="#84BE84" rx="3" ry="3" style="stroke: #038048; stroke-width: 1.0;"/><text fill="#000000" font-family="sans-serif" font-size="11" lengthAdjust="spacingAndGlyphs" textLength="79" x="82" y="253.9502">eUnset(int): void</text><ellipse cx="73" cy="263.3672" fill="#84BE84" rx="3" ry="3" style="stroke: #038048; stroke-width: 1.0;"/><text fill="#000000" font-family="sans-serif" font-size="11" lengthAdjust="spacingAndGlyphs" textLength="93" x="82" y="267.7861">eIsSet(int): boolean</text></a><!--MD5=[a669480c26f41a3deaeec69de9cc7790]
class org.eclipse.epf.uma.impl.ProcessImpl--><a href="ProcessImpl.html" target="_top" title="ProcessImpl.html" xlink:actuate="onRequest" xlink:href="ProcessImpl.html" xlink:show="new" xlink:title="ProcessImpl.html" xlink:type="simple"><rect codeLine="14" fill="#FEFECE" filter="url(#fte57grfhgp8j)" height="40.1875" id="org.eclipse.epf.uma.impl.ProcessImpl" style="stroke: #A80036; stroke-width: 1.5;" width="146" x="7" y="25"/><ellipse cx="22" cy="45.0938" fill="#A9DCDF" rx="11" ry="11" style="stroke: #A80036; stroke-width: 1.0;"/><path d="M24.1875,46.8594 L20.0469,46.8594 L19.625,47.8906 L20.0469,47.8906 Q20.6563,47.8906 20.9219,48.125 Q21.1875,48.3594 21.1875,48.75 Q21.1875,49.125 20.9219,49.3594 Q20.6563,49.5938 20.0469,49.5938 L17.75,49.5938 Q17.1406,49.5938 16.8906,49.3594 Q16.625,49.125 16.625,48.7344 Q16.625,48.3594 16.9063,48.125 Q17.1719,47.875 17.7969,47.8906 L20.4688,41.2344 L19.3594,41.2344 Q18.75,41.2344 18.4844,41 Q18.2188,40.7656 18.2188,40.375 Q18.2188,40 18.4844,39.7656 Q18.75,39.5313 19.3594,39.5313 L23.0313,39.5313 L26.4219,47.8906 Q27.0156,47.8906 27.2031,48.0313 Q27.5938,48.2969 27.5938,48.75 Q27.5938,49.125 27.3281,49.3594 Q27.0781,49.5938 26.4688,49.5938 L24.1719,49.5938 Q23.5625,49.5938 23.2969,49.3594 Q23.0313,49.125 23.0313,48.7344 Q23.0313,48.3594 23.2969,48.125 Q23.5625,47.8906 24.1719,47.8906 L24.5938,47.8906 L24.1875,46.8594 Z M23.4688,45.1563 L22.1094,41.7813 L20.7344,45.1563 L23.4688,45.1563 Z "/><text fill="#000000" font-family="sans-serif" font-size="14" font-style="italic" lengthAdjust="spacingAndGlyphs" textLength="77" x="54.5" y="44.5332">ProcessImpl</text><text fill="#000000" font-family="sans-serif" font-size="10" font-style="italic" lengthAdjust="spacingAndGlyphs" textLength="114" x="36" y="57.9902">org.eclipse.epf.uma.impl</text></a><!--MD5=[2861a17b6fdce7eb4ac14e9eedd14253]
class org.eclipse.epf.uma.DeliveryProcess--><a href="..\DeliveryProcess.html" target="_top" title="..\DeliveryProcess.html" xlink:actuate="onRequest" xlink:href="..\DeliveryProcess.html" xlink:show="new" xlink:title="..\DeliveryProcess.html" xlink:type="simple"><rect codeLine="15" fill="#FEFECE" filter="url(#fte57grfhgp8j)" height="75.8594" id="org.eclipse.epf.uma.DeliveryProcess" style="stroke: #A80036; stroke-width: 1.5;" width="314" x="188" y="7"/><ellipse cx="290.25" cy="27.0938" fill="#B4A7E5" rx="11" ry="11" style="stroke: #A80036; stroke-width: 1.0;"/><path d="M291.2031,23.7344 L291.2031,30.3906 L292.9219,30.3906 Q293.5313,30.3906 293.7969,30.625 Q294.0625,30.8594 294.0625,31.25 Q294.0625,31.625 293.7969,31.8594 Q293.5313,32.0938 292.9219,32.0938 L287.7813,32.0938 Q287.1719,32.0938 286.9063,31.8594 Q286.6406,31.625 286.6406,31.2344 Q286.6406,30.8594 286.9063,30.625 Q287.1719,30.3906 287.7813,30.3906 L289.5,30.3906 L289.5,23.7344 L287.7813,23.7344 Q287.1719,23.7344 286.9063,23.5 Q286.6406,23.2656 286.6406,22.875 Q286.6406,22.5 286.9063,22.2656 Q287.1719,22.0313 287.7813,22.0313 L292.9219,22.0313 Q293.5313,22.0313 293.7969,22.2656 Q294.0625,22.5 294.0625,22.875 Q294.0625,23.2656 293.7969,23.5 Q293.5313,23.7344 292.9219,23.7344 L291.2031,23.7344 Z "/><text fill="#000000" font-family="sans-serif" font-size="14" font-style="italic" lengthAdjust="spacingAndGlyphs" textLength="101" x="310.75" y="26.5332">DeliveryProcess</text><text fill="#000000" font-family="sans-serif" font-size="10" font-style="italic" lengthAdjust="spacingAndGlyphs" textLength="92" x="315.25" y="39.9902">org.eclipse.epf.uma</text><line style="stroke: #A80036; stroke-width: 1.5;" x1="189" x2="501" y1="47.1875" y2="47.1875"/><ellipse cx="199" cy="58.1875" fill="#84BE84" rx="3" ry="3" style="stroke: #038048; stroke-width: 1.0;"/><text fill="#000000" font-family="sans-serif" font-size="11" font-style="italic" lengthAdjust="spacingAndGlyphs" textLength="254" x="208" y="62.6064">getEducationMaterials(): EList&lt;SupportingMaterial&gt;</text><ellipse cx="199" cy="72.0234" fill="#84BE84" rx="3" ry="3" style="stroke: #038048; stroke-width: 1.0;"/><text fill="#000000" font-family="sans-serif" font-size="11" font-style="italic" lengthAdjust="spacingAndGlyphs" textLength="288" x="208" y="76.4424">getCommunicationsMaterials(): EList&lt;SupportingMaterial&gt;</text></a><!--MD5=[f35370ceb9c7c623dadb6376bcc4ec55]
reverse link org.eclipse.epf.uma.impl.ProcessImpl to org.eclipse.epf.uma.impl.DeliveryProcessImpl--><path codeLine="20" d="M108.49,80.86 C123.25,98.91 141.74,121.53 159,142.65 " fill="none" id="org.eclipse.epf.uma.impl.ProcessImpl-backto-org.eclipse.epf.uma.impl.DeliveryProcessImpl" style="stroke: #A80036; stroke-width: 1.0;"/><polygon fill="none" points="102.9,85.08,95.66,65.16,113.74,76.22,102.9,85.08" style="stroke: #A80036; stroke-width: 1.0;"/><!--MD5=[301c920537fbae0168d817c591e52d27]
reverse link org.eclipse.epf.uma.DeliveryProcess to org.eclipse.epf.uma.impl.DeliveryProcessImpl--><path codeLine="21" d="M301.51,98.81 C289.96,112.84 277.34,128.15 265.33,142.74 " fill="none" id="org.eclipse.epf.uma.DeliveryProcess-backto-org.eclipse.epf.uma.impl.DeliveryProcessImpl" style="stroke: #A80036; stroke-width: 1.0; stroke-dasharray: 7.0,7.0;"/><polygon fill="none" points="296.37,94.04,314.49,83.05,307.18,102.94,296.37,94.04" style="stroke: #A80036; stroke-width: 1.0;"/><text fill="#888888" font-family="sans-serif" font-size="10" lengthAdjust="spacingAndGlyphs" textLength="190" x="156.5" y="297.584">UMLDoclet 2.0.12, PlantUML 1.2020.16</text><!--MD5=[2a86eff012bb24513951dd74b67a4c63]
@startuml
    set namespaceSeparator none
    hide empty fields
    hide empty methods

    class "<size:14>DeliveryProcessImpl\n<size:10>org.eclipse.epf.uma.impl" as org.eclipse.epf.uma.impl.DeliveryProcessImpl [[DeliveryProcessImpl.html]] {
        +getEducationMaterials(): EList<SupportingMaterial>
        +getCommunicationsMaterials(): EList<SupportingMaterial>
        +eGet(int, boolean, boolean): Object
        +eSet(int, Object): void
        +eUnset(int): void
        +eIsSet(int): boolean
    }

    abstract class "<size:14>ProcessImpl\n<size:10>org.eclipse.epf.uma.impl" as org.eclipse.epf.uma.impl.ProcessImpl [[ProcessImpl.html]]
    interface "<size:14>DeliveryProcess\n<size:10>org.eclipse.epf.uma" as org.eclipse.epf.uma.DeliveryProcess [[..\DeliveryProcess.html]] {
        {abstract} +getEducationMaterials(): EList<SupportingMaterial>
        {abstract} +getCommunicationsMaterials(): EList<SupportingMaterial>
    }

    org.eclipse.epf.uma.impl.ProcessImpl <|- - org.eclipse.epf.uma.impl.DeliveryProcessImpl
    org.eclipse.epf.uma.DeliveryProcess <|.. org.eclipse.epf.uma.impl.DeliveryProcessImpl

    center footer UMLDoclet 2.0.12, PlantUML 1.2020.16
@enduml

PlantUML version 1.2020.16(Sun Aug 23 22:20:43 CEST 2020)
(APACHE source distribution)
Java Runtime: Java(TM) SE Runtime Environment
JVM: Java HotSpot(TM) 64-Bit Server VM
Default Encoding: Cp1252
Language: es
Country: ES
--></g></svg>