<?xml version="1.0" encoding="UTF-8" standalone="no"?><svg xmlns="http://www.w3.org/2000/svg" xmlns:xlink="http://www.w3.org/1999/xlink" contentScriptType="application/ecmascript" contentStyleType="text/css" height="366px" preserveAspectRatio="none" style="width:475px;height:366px;" version="1.1" viewBox="0 0 475 366" width="475px" zoomAndPan="magnify"><defs><filter height="300%" id="f1b294z4s4mhxp" width="300%" x="-1" y="-1"><feGaussianBlur result="blurOut" stdDeviation="2.0"/><feColorMatrix in="blurOut" result="blurOut2" type="matrix" values="0 0 0 0 0 0 0 0 0 0 0 0 0 0 0 0 0 0 .4 0"/><feOffset dx="4.0" dy="4.0" in="blurOut2" result="blurOut3"/><feBlend in="SourceGraphic" in2="blurOut3" mode="normal"/></filter></defs><g><!--MD5=[be60f09c2b6cdeea1942d8adddc1ea00]
class org.eclipse.epf.uma.impl.DeliverableDescriptionImpl--><a href="DeliverableDescriptionImpl.html" target="_top" title="DeliverableDescriptionImpl.html" xlink:actuate="onRequest" xlink:href="DeliverableDescriptionImpl.html" xlink:show="new" xlink:title="DeliverableDescriptionImpl.html" xlink:type="simple"><rect codeLine="5" fill="#FEFECE" filter="url(#f1b294z4s4mhxp)" height="158.875" id="org.eclipse.epf.uma.impl.DeliverableDescriptionImpl" style="stroke: #A80036; stroke-width: 1.5;" width="199" x="133.5" y="171"/><ellipse cx="148.5" cy="191.0938" fill="#ADD1B2" rx="11" ry="11" style="stroke: #A80036; stroke-width: 1.0;"/><path d="M151.2656,186.9688 Q151.4219,186.75 151.6094,186.6406 Q151.7969,186.5313 152.0156,186.5313 Q152.3906,186.5313 152.625,186.7969 Q152.8594,187.0469 152.8594,187.6563 L152.8594,189.1094 Q152.8594,189.7188 152.625,189.9844 Q152.3906,190.25 152.0156,190.25 Q151.6719,190.25 151.4688,190.0469 Q151.2656,189.8594 151.1563,189.3438 Q151.1094,188.9844 150.9219,188.7969 Q150.5938,188.4219 149.9844,188.2031 Q149.375,187.9844 148.75,187.9844 Q147.9844,187.9844 147.3438,188.3125 Q146.7188,188.6406 146.2188,189.3906 Q145.7344,190.1406 145.7344,191.1719 L145.7344,192.2656 Q145.7344,193.5 146.625,194.3281 Q147.5156,195.1406 149.1094,195.1406 Q150.0469,195.1406 150.7031,194.8906 Q151.0938,194.7344 151.5156,194.2969 Q151.7813,194.0313 151.9219,193.9531 Q152.0781,193.875 152.2813,193.875 Q152.6094,193.875 152.8594,194.1406 Q153.125,194.3906 153.125,194.7344 Q153.125,195.0781 152.7813,195.4844 Q152.2813,196.0625 151.4844,196.3906 Q150.4063,196.8438 149.1094,196.8438 Q147.5938,196.8438 146.3906,196.2188 Q145.4063,195.7188 144.7188,194.6563 Q144.0313,193.5781 144.0313,192.2969 L144.0313,191.1406 Q144.0313,189.8125 144.6406,188.6719 Q145.2656,187.5156 146.3594,186.9063 Q147.4531,186.2813 148.6875,186.2813 Q149.4219,186.2813 150.0625,186.4531 Q150.7188,186.6094 151.2656,186.9688 Z "/><text fill="#000000" font-family="sans-serif" font-size="14" lengthAdjust="spacingAndGlyphs" textLength="167" x="162.5" y="190.5332">DeliverableDescriptionImpl</text><text fill="#000000" font-family="sans-serif" font-size="10" lengthAdjust="spacingAndGlyphs" textLength="118" x="187" y="203.9902">org.eclipse.epf.uma.impl</text><line style="stroke: #A80036; stroke-width: 1.5;" x1="134.5" x2="331.5" y1="211.1875" y2="211.1875"/><ellipse cx="144.5" cy="222.1875" fill="#84BE84" rx="3" ry="3" style="stroke: #038048; stroke-width: 1.0;"/><text fill="#000000" font-family="sans-serif" font-size="11" lengthAdjust="spacingAndGlyphs" textLength="150" x="153.5" y="226.6064">getExternalDescription(): String</text><ellipse cx="144.5" cy="236.0234" fill="#84BE84" rx="3" ry="3" style="stroke: #038048; stroke-width: 1.0;"/><text fill="#000000" font-family="sans-serif" font-size="11" lengthAdjust="spacingAndGlyphs" textLength="170" x="153.5" y="240.4424">setExternalDescription(String): void</text><ellipse cx="144.5" cy="249.8594" fill="#84BE84" rx="3" ry="3" style="stroke: #038048; stroke-width: 1.0;"/><text fill="#000000" font-family="sans-serif" font-size="11" lengthAdjust="spacingAndGlyphs" textLength="152" x="153.5" y="254.2783">getPackagingGuidance(): String</text><ellipse cx="144.5" cy="263.6953" fill="#84BE84" rx="3" ry="3" style="stroke: #038048; stroke-width: 1.0;"/><text fill="#000000" font-family="sans-serif" font-size="11" lengthAdjust="spacingAndGlyphs" textLength="172" x="153.5" y="268.1143">setPackagingGuidance(String): void</text><ellipse cx="144.5" cy="277.5313" fill="#84BE84" rx="3" ry="3" style="stroke: #038048; stroke-width: 1.0;"/><text fill="#000000" font-family="sans-serif" font-size="11" lengthAdjust="spacingAndGlyphs" textLength="167" x="153.5" y="281.9502">eGet(int, boolean, boolean): Object</text><ellipse cx="144.5" cy="291.3672" fill="#84BE84" rx="3" ry="3" style="stroke: #038048; stroke-width: 1.0;"/><text fill="#000000" font-family="sans-serif" font-size="11" lengthAdjust="spacingAndGlyphs" textLength="104" x="153.5" y="295.7861">eSet(int, Object): void</text><ellipse cx="144.5" cy="305.2031" fill="#84BE84" rx="3" ry="3" style="stroke: #038048; stroke-width: 1.0;"/><text fill="#000000" font-family="sans-serif" font-size="11" lengthAdjust="spacingAndGlyphs" textLength="79" x="153.5" y="309.6221">eUnset(int): void</text><ellipse cx="144.5" cy="319.0391" fill="#84BE84" rx="3" ry="3" style="stroke: #038048; stroke-width: 1.0;"/><text fill="#000000" font-family="sans-serif" font-size="11" lengthAdjust="spacingAndGlyphs" textLength="93" x="153.5" y="323.458">eIsSet(int): boolean</text></a><!--MD5=[bf653f505598baa77f3947f3d5c236b1]
class org.eclipse.epf.uma.impl.WorkProductDescriptionImpl--><a href="WorkProductDescriptionImpl.html" target="_top" title="WorkProductDescriptionImpl.html" xlink:actuate="onRequest" xlink:href="WorkProductDescriptionImpl.html" xlink:show="new" xlink:title="WorkProductDescriptionImpl.html" xlink:type="simple"><rect codeLine="16" fill="#FEFECE" filter="url(#f1b294z4s4mhxp)" height="40.1875" id="org.eclipse.epf.uma.impl.WorkProductDescriptionImpl" style="stroke: #A80036; stroke-width: 1.5;" width="210" x="7" y="39"/><ellipse cx="22" cy="59.0938" fill="#ADD1B2" rx="11" ry="11" style="stroke: #A80036; stroke-width: 1.0;"/><path d="M24.7656,54.9688 Q24.9219,54.75 25.1094,54.6406 Q25.2969,54.5313 25.5156,54.5313 Q25.8906,54.5313 26.125,54.7969 Q26.3594,55.0469 26.3594,55.6563 L26.3594,57.1094 Q26.3594,57.7188 26.125,57.9844 Q25.8906,58.25 25.5156,58.25 Q25.1719,58.25 24.9688,58.0469 Q24.7656,57.8594 24.6563,57.3438 Q24.6094,56.9844 24.4219,56.7969 Q24.0938,56.4219 23.4844,56.2031 Q22.875,55.9844 22.25,55.9844 Q21.4844,55.9844 20.8438,56.3125 Q20.2188,56.6406 19.7188,57.3906 Q19.2344,58.1406 19.2344,59.1719 L19.2344,60.2656 Q19.2344,61.5 20.125,62.3281 Q21.0156,63.1406 22.6094,63.1406 Q23.5469,63.1406 24.2031,62.8906 Q24.5938,62.7344 25.0156,62.2969 Q25.2813,62.0313 25.4219,61.9531 Q25.5781,61.875 25.7813,61.875 Q26.1094,61.875 26.3594,62.1406 Q26.625,62.3906 26.625,62.7344 Q26.625,63.0781 26.2813,63.4844 Q25.7813,64.0625 24.9844,64.3906 Q23.9063,64.8438 22.6094,64.8438 Q21.0938,64.8438 19.8906,64.2188 Q18.9063,63.7188 18.2188,62.6563 Q17.5313,61.5781 17.5313,60.2969 L17.5313,59.1406 Q17.5313,57.8125 18.1406,56.6719 Q18.7656,55.5156 19.8594,54.9063 Q20.9531,54.2813 22.1875,54.2813 Q22.9219,54.2813 23.5625,54.4531 Q24.2188,54.6094 24.7656,54.9688 Z "/><text fill="#000000" font-family="sans-serif" font-size="14" lengthAdjust="spacingAndGlyphs" textLength="178" x="36" y="58.5332">WorkProductDescriptionImpl</text><text fill="#000000" font-family="sans-serif" font-size="10" lengthAdjust="spacingAndGlyphs" textLength="118" x="66" y="71.9902">org.eclipse.epf.uma.impl</text></a><!--MD5=[1a19e4c8bced7b830ed66c6cce09a044]
class org.eclipse.epf.uma.DeliverableDescription--><a href="..\DeliverableDescription.html" target="_top" title="..\DeliverableDescription.html" xlink:actuate="onRequest" xlink:href="..\DeliverableDescription.html" xlink:show="new" xlink:title="..\DeliverableDescription.html" xlink:type="simple"><rect codeLine="17" fill="#FEFECE" filter="url(#f1b294z4s4mhxp)" height="103.5313" id="org.eclipse.epf.uma.DeliverableDescription" style="stroke: #A80036; stroke-width: 1.5;" width="204" x="252" y="7"/><ellipse cx="280.95" cy="27.0938" fill="#B4A7E5" rx="11" ry="11" style="stroke: #A80036; stroke-width: 1.0;"/><path d="M281.9031,23.7344 L281.9031,30.3906 L283.6219,30.3906 Q284.2313,30.3906 284.4969,30.625 Q284.7625,30.8594 284.7625,31.25 Q284.7625,31.625 284.4969,31.8594 Q284.2313,32.0938 283.6219,32.0938 L278.4813,32.0938 Q277.8719,32.0938 277.6063,31.8594 Q277.3406,31.625 277.3406,31.2344 Q277.3406,30.8594 277.6063,30.625 Q277.8719,30.3906 278.4813,30.3906 L280.2,30.3906 L280.2,23.7344 L278.4813,23.7344 Q277.8719,23.7344 277.6063,23.5 Q277.3406,23.2656 277.3406,22.875 Q277.3406,22.5 277.6063,22.2656 Q277.8719,22.0313 278.4813,22.0313 L283.6219,22.0313 Q284.2313,22.0313 284.4969,22.2656 Q284.7625,22.5 284.7625,22.875 Q284.7625,23.2656 284.4969,23.5 Q284.2313,23.7344 283.6219,23.7344 L281.9031,23.7344 Z "/><text fill="#000000" font-family="sans-serif" font-size="14" font-style="italic" lengthAdjust="spacingAndGlyphs" textLength="141" x="298.05" y="26.5332">DeliverableDescription</text><text fill="#000000" font-family="sans-serif" font-size="10" font-style="italic" lengthAdjust="spacingAndGlyphs" textLength="92" x="322.55" y="39.9902">org.eclipse.epf.uma</text><line style="stroke: #A80036; stroke-width: 1.5;" x1="253" x2="455" y1="47.1875" y2="47.1875"/><ellipse cx="263" cy="58.1875" fill="#84BE84" rx="3" ry="3" style="stroke: #038048; stroke-width: 1.0;"/><text fill="#000000" font-family="sans-serif" font-size="11" font-style="italic" lengthAdjust="spacingAndGlyphs" textLength="156" x="272" y="62.6064">getExternalDescription(): String</text><ellipse cx="263" cy="72.0234" fill="#84BE84" rx="3" ry="3" style="stroke: #038048; stroke-width: 1.0;"/><text fill="#000000" font-family="sans-serif" font-size="11" font-style="italic" lengthAdjust="spacingAndGlyphs" textLength="176" x="272" y="76.4424">setExternalDescription(String): void</text><ellipse cx="263" cy="85.8594" fill="#84BE84" rx="3" ry="3" style="stroke: #038048; stroke-width: 1.0;"/><text fill="#000000" font-family="sans-serif" font-size="11" font-style="italic" lengthAdjust="spacingAndGlyphs" textLength="158" x="272" y="90.2783">getPackagingGuidance(): String</text><ellipse cx="263" cy="99.6953" fill="#84BE84" rx="3" ry="3" style="stroke: #038048; stroke-width: 1.0;"/><text fill="#000000" font-family="sans-serif" font-size="11" font-style="italic" lengthAdjust="spacingAndGlyphs" textLength="178" x="272" y="104.1143">setPackagingGuidance(String): void</text></a><!--MD5=[62a8271af44369be7d94d96654cd42ac]
reverse link org.eclipse.epf.uma.impl.WorkProductDescriptionImpl to org.eclipse.epf.uma.impl.DeliverableDescriptionImpl--><path codeLine="24" d="M135.15,96.25 C148.63,117.36 166.17,144.84 182.68,170.69 " fill="none" id="org.eclipse.epf.uma.impl.WorkProductDescriptionImpl-backto-org.eclipse.epf.uma.impl.DeliverableDescriptionImpl" style="stroke: #A80036; stroke-width: 1.0;"/><polygon fill="none" points="129.13,99.84,124.27,79.21,140.93,92.3,129.13,99.84" style="stroke: #A80036; stroke-width: 1.0;"/><!--MD5=[ee2e6e983e0a7254310b50ae9d71a4ca]
reverse link org.eclipse.epf.uma.DeliverableDescription to org.eclipse.epf.uma.impl.DeliverableDescriptionImpl--><path codeLine="25" d="M310.44,128.22 C301.64,142.01 292.31,156.62 283.29,170.74 " fill="none" id="org.eclipse.epf.uma.DeliverableDescription-backto-org.eclipse.epf.uma.impl.DeliverableDescriptionImpl" style="stroke: #A80036; stroke-width: 1.0; stroke-dasharray: 7.0,7.0;"/><polygon fill="none" points="304.59,124.37,321.26,111.28,316.39,131.91,304.59,124.37" style="stroke: #A80036; stroke-width: 1.0;"/><text fill="#888888" font-family="sans-serif" font-size="10" lengthAdjust="spacingAndGlyphs" textLength="190" x="133.5" y="353.2559">UMLDoclet 2.0.12, PlantUML 1.2020.16</text><!--MD5=[dad88601de2016aad9d15d0a846678e0]
@startuml
    set namespaceSeparator none
    hide empty fields
    hide empty methods

    class "<size:14>DeliverableDescriptionImpl\n<size:10>org.eclipse.epf.uma.impl" as org.eclipse.epf.uma.impl.DeliverableDescriptionImpl [[DeliverableDescriptionImpl.html]] {
        +getExternalDescription(): String
        +setExternalDescription(String): void
        +getPackagingGuidance(): String
        +setPackagingGuidance(String): void
        +eGet(int, boolean, boolean): Object
        +eSet(int, Object): void
        +eUnset(int): void
        +eIsSet(int): boolean
    }

    class "<size:14>WorkProductDescriptionImpl\n<size:10>org.eclipse.epf.uma.impl" as org.eclipse.epf.uma.impl.WorkProductDescriptionImpl [[WorkProductDescriptionImpl.html]]
    interface "<size:14>DeliverableDescription\n<size:10>org.eclipse.epf.uma" as org.eclipse.epf.uma.DeliverableDescription [[..\DeliverableDescription.html]] {
        {abstract} +getExternalDescription(): String
        {abstract} +setExternalDescription(String): void
        {abstract} +getPackagingGuidance(): String
        {abstract} +setPackagingGuidance(String): void
    }

    org.eclipse.epf.uma.impl.WorkProductDescriptionImpl <|- - org.eclipse.epf.uma.impl.DeliverableDescriptionImpl
    org.eclipse.epf.uma.DeliverableDescription <|.. org.eclipse.epf.uma.impl.DeliverableDescriptionImpl

    center footer UMLDoclet 2.0.12, PlantUML 1.2020.16
@enduml

PlantUML version 1.2020.16(Sun Aug 23 22:20:43 CEST 2020)
(APACHE source distribution)
Java Runtime: Java(TM) SE Runtime Environment
JVM: Java HotSpot(TM) 64-Bit Server VM
Default Encoding: Cp1252
Language: es
Country: ES
--></g></svg>