<?xml version="1.0" encoding="UTF-8" standalone="no"?><svg xmlns="http://www.w3.org/2000/svg" xmlns:xlink="http://www.w3.org/1999/xlink" contentScriptType="application/ecmascript" contentStyleType="text/css" height="587px" preserveAspectRatio="none" style="width:467px;height:587px;" version="1.1" viewBox="0 0 467 587" width="467px" zoomAndPan="magnify"><defs><filter height="300%" id="f1gp6kwoi8iuyh" width="300%" x="-1" y="-1"><feGaussianBlur result="blurOut" stdDeviation="2.0"/><feColorMatrix in="blurOut" result="blurOut2" type="matrix" values="0 0 0 0 0 0 0 0 0 0 0 0 0 0 0 0 0 0 .4 0"/><feOffset dx="4.0" dy="4.0" in="blurOut2" result="blurOut3"/><feBlend in="SourceGraphic" in2="blurOut3" mode="normal"/></filter></defs><g><!--MD5=[4772a302bd5f8d5c44838e2154eae6f1]
class org.eclipse.epf.uma.impl.DeliveryProcessDescriptionImpl--><a href="DeliveryProcessDescriptionImpl.html" target="_top" title="DeliveryProcessDescriptionImpl.html" xlink:actuate="onRequest" xlink:href="DeliveryProcessDescriptionImpl.html" xlink:show="new" xlink:title="DeliveryProcessDescriptionImpl.html" xlink:type="simple"><rect codeLine="5" fill="#FEFECE" filter="url(#f1gp6kwoi8iuyh)" height="269.5625" id="org.eclipse.epf.uma.impl.DeliveryProcessDescriptionImpl" style="stroke: #A80036; stroke-width: 1.5;" width="230" x="100.5" y="281"/><ellipse cx="115.5" cy="301.0938" fill="#ADD1B2" rx="11" ry="11" style="stroke: #A80036; stroke-width: 1.0;"/><path d="M118.2656,296.9688 Q118.4219,296.75 118.6094,296.6406 Q118.7969,296.5313 119.0156,296.5313 Q119.3906,296.5313 119.625,296.7969 Q119.8594,297.0469 119.8594,297.6563 L119.8594,299.1094 Q119.8594,299.7188 119.625,299.9844 Q119.3906,300.25 119.0156,300.25 Q118.6719,300.25 118.4688,300.0469 Q118.2656,299.8594 118.1563,299.3438 Q118.1094,298.9844 117.9219,298.7969 Q117.5938,298.4219 116.9844,298.2031 Q116.375,297.9844 115.75,297.9844 Q114.9844,297.9844 114.3438,298.3125 Q113.7188,298.6406 113.2188,299.3906 Q112.7344,300.1406 112.7344,301.1719 L112.7344,302.2656 Q112.7344,303.5 113.625,304.3281 Q114.5156,305.1406 116.1094,305.1406 Q117.0469,305.1406 117.7031,304.8906 Q118.0938,304.7344 118.5156,304.2969 Q118.7813,304.0313 118.9219,303.9531 Q119.0781,303.875 119.2813,303.875 Q119.6094,303.875 119.8594,304.1406 Q120.125,304.3906 120.125,304.7344 Q120.125,305.0781 119.7813,305.4844 Q119.2813,306.0625 118.4844,306.3906 Q117.4063,306.8438 116.1094,306.8438 Q114.5938,306.8438 113.3906,306.2188 Q112.4063,305.7188 111.7188,304.6563 Q111.0313,303.5781 111.0313,302.2969 L111.0313,301.1406 Q111.0313,299.8125 111.6406,298.6719 Q112.2656,297.5156 113.3594,296.9063 Q114.4531,296.2813 115.6875,296.2813 Q116.4219,296.2813 117.0625,296.4531 Q117.7188,296.6094 118.2656,296.9688 Z "/><text fill="#000000" font-family="sans-serif" font-size="14" lengthAdjust="spacingAndGlyphs" textLength="198" x="129.5" y="300.5332">DeliveryProcessDescriptionImpl</text><text fill="#000000" font-family="sans-serif" font-size="10" lengthAdjust="spacingAndGlyphs" textLength="118" x="169.5" y="313.9902">org.eclipse.epf.uma.impl</text><line style="stroke: #A80036; stroke-width: 1.5;" x1="101.5" x2="329.5" y1="321.1875" y2="321.1875"/><ellipse cx="111.5" cy="332.1875" fill="#84BE84" rx="3" ry="3" style="stroke: #038048; stroke-width: 1.0;"/><text fill="#000000" font-family="sans-serif" font-size="11" lengthAdjust="spacingAndGlyphs" textLength="84" x="120.5" y="336.6064">getScale(): String</text><ellipse cx="111.5" cy="346.0234" fill="#84BE84" rx="3" ry="3" style="stroke: #038048; stroke-width: 1.0;"/><text fill="#000000" font-family="sans-serif" font-size="11" lengthAdjust="spacingAndGlyphs" textLength="104" x="120.5" y="350.4424">setScale(String): void</text><ellipse cx="111.5" cy="359.8594" fill="#84BE84" rx="3" ry="3" style="stroke: #038048; stroke-width: 1.0;"/><text fill="#000000" font-family="sans-serif" font-size="11" lengthAdjust="spacingAndGlyphs" textLength="163" x="120.5" y="364.2783">getProjectCharacteristics(): String</text><ellipse cx="111.5" cy="373.6953" fill="#84BE84" rx="3" ry="3" style="stroke: #038048; stroke-width: 1.0;"/><text fill="#000000" font-family="sans-serif" font-size="11" lengthAdjust="spacingAndGlyphs" textLength="183" x="120.5" y="378.1143">setProjectCharacteristics(String): void</text><ellipse cx="111.5" cy="387.5313" fill="#84BE84" rx="3" ry="3" style="stroke: #038048; stroke-width: 1.0;"/><text fill="#000000" font-family="sans-serif" font-size="11" lengthAdjust="spacingAndGlyphs" textLength="103" x="120.5" y="391.9502">getRiskLevel(): String</text><ellipse cx="111.5" cy="401.3672" fill="#84BE84" rx="3" ry="3" style="stroke: #038048; stroke-width: 1.0;"/><text fill="#000000" font-family="sans-serif" font-size="11" lengthAdjust="spacingAndGlyphs" textLength="123" x="120.5" y="405.7861">setRiskLevel(String): void</text><ellipse cx="111.5" cy="415.2031" fill="#84BE84" rx="3" ry="3" style="stroke: #038048; stroke-width: 1.0;"/><text fill="#000000" font-family="sans-serif" font-size="11" lengthAdjust="spacingAndGlyphs" textLength="155" x="120.5" y="419.6221">getEstimatingTechnique(): String</text><ellipse cx="111.5" cy="429.0391" fill="#84BE84" rx="3" ry="3" style="stroke: #038048; stroke-width: 1.0;"/><text fill="#000000" font-family="sans-serif" font-size="11" lengthAdjust="spacingAndGlyphs" textLength="175" x="120.5" y="433.458">setEstimatingTechnique(String): void</text><ellipse cx="111.5" cy="442.875" fill="#84BE84" rx="3" ry="3" style="stroke: #038048; stroke-width: 1.0;"/><text fill="#000000" font-family="sans-serif" font-size="11" lengthAdjust="spacingAndGlyphs" textLength="173" x="120.5" y="447.2939">getProjectMemberExpertise(): String</text><ellipse cx="111.5" cy="456.7109" fill="#84BE84" rx="3" ry="3" style="stroke: #038048; stroke-width: 1.0;"/><text fill="#000000" font-family="sans-serif" font-size="11" lengthAdjust="spacingAndGlyphs" textLength="193" x="120.5" y="461.1299">setProjectMemberExpertise(String): void</text><ellipse cx="111.5" cy="470.5469" fill="#84BE84" rx="3" ry="3" style="stroke: #038048; stroke-width: 1.0;"/><text fill="#000000" font-family="sans-serif" font-size="11" lengthAdjust="spacingAndGlyphs" textLength="134" x="120.5" y="474.9658">getTypeOfContract(): String</text><ellipse cx="111.5" cy="484.3828" fill="#84BE84" rx="3" ry="3" style="stroke: #038048; stroke-width: 1.0;"/><text fill="#000000" font-family="sans-serif" font-size="11" lengthAdjust="spacingAndGlyphs" textLength="154" x="120.5" y="488.8018">setTypeOfContract(String): void</text><ellipse cx="111.5" cy="498.2188" fill="#84BE84" rx="3" ry="3" style="stroke: #038048; stroke-width: 1.0;"/><text fill="#000000" font-family="sans-serif" font-size="11" lengthAdjust="spacingAndGlyphs" textLength="167" x="120.5" y="502.6377">eGet(int, boolean, boolean): Object</text><ellipse cx="111.5" cy="512.0547" fill="#84BE84" rx="3" ry="3" style="stroke: #038048; stroke-width: 1.0;"/><text fill="#000000" font-family="sans-serif" font-size="11" lengthAdjust="spacingAndGlyphs" textLength="104" x="120.5" y="516.4736">eSet(int, Object): void</text><ellipse cx="111.5" cy="525.8906" fill="#84BE84" rx="3" ry="3" style="stroke: #038048; stroke-width: 1.0;"/><text fill="#000000" font-family="sans-serif" font-size="11" lengthAdjust="spacingAndGlyphs" textLength="79" x="120.5" y="530.3096">eUnset(int): void</text><ellipse cx="111.5" cy="539.7266" fill="#84BE84" rx="3" ry="3" style="stroke: #038048; stroke-width: 1.0;"/><text fill="#000000" font-family="sans-serif" font-size="11" lengthAdjust="spacingAndGlyphs" textLength="93" x="120.5" y="544.1455">eIsSet(int): boolean</text></a><!--MD5=[ba692656476fb8c0ff99e5f06187b754]
class org.eclipse.epf.uma.impl.ProcessDescriptionImpl--><a href="ProcessDescriptionImpl.html" target="_top" title="ProcessDescriptionImpl.html" xlink:actuate="onRequest" xlink:href="ProcessDescriptionImpl.html" xlink:show="new" xlink:title="ProcessDescriptionImpl.html" xlink:type="simple"><rect codeLine="24" fill="#FEFECE" filter="url(#f1gp6kwoi8iuyh)" height="40.1875" id="org.eclipse.epf.uma.impl.ProcessDescriptionImpl" style="stroke: #A80036; stroke-width: 1.5;" width="179" x="7" y="94"/><ellipse cx="22" cy="114.0938" fill="#ADD1B2" rx="11" ry="11" style="stroke: #A80036; stroke-width: 1.0;"/><path d="M24.7656,109.9688 Q24.9219,109.75 25.1094,109.6406 Q25.2969,109.5313 25.5156,109.5313 Q25.8906,109.5313 26.125,109.7969 Q26.3594,110.0469 26.3594,110.6563 L26.3594,112.1094 Q26.3594,112.7188 26.125,112.9844 Q25.8906,113.25 25.5156,113.25 Q25.1719,113.25 24.9688,113.0469 Q24.7656,112.8594 24.6563,112.3438 Q24.6094,111.9844 24.4219,111.7969 Q24.0938,111.4219 23.4844,111.2031 Q22.875,110.9844 22.25,110.9844 Q21.4844,110.9844 20.8438,111.3125 Q20.2188,111.6406 19.7188,112.3906 Q19.2344,113.1406 19.2344,114.1719 L19.2344,115.2656 Q19.2344,116.5 20.125,117.3281 Q21.0156,118.1406 22.6094,118.1406 Q23.5469,118.1406 24.2031,117.8906 Q24.5938,117.7344 25.0156,117.2969 Q25.2813,117.0313 25.4219,116.9531 Q25.5781,116.875 25.7813,116.875 Q26.1094,116.875 26.3594,117.1406 Q26.625,117.3906 26.625,117.7344 Q26.625,118.0781 26.2813,118.4844 Q25.7813,119.0625 24.9844,119.3906 Q23.9063,119.8438 22.6094,119.8438 Q21.0938,119.8438 19.8906,119.2188 Q18.9063,118.7188 18.2188,117.6563 Q17.5313,116.5781 17.5313,115.2969 L17.5313,114.1406 Q17.5313,112.8125 18.1406,111.6719 Q18.7656,110.5156 19.8594,109.9063 Q20.9531,109.2813 22.1875,109.2813 Q22.9219,109.2813 23.5625,109.4531 Q24.2188,109.6094 24.7656,109.9688 Z "/><text fill="#000000" font-family="sans-serif" font-size="14" lengthAdjust="spacingAndGlyphs" textLength="147" x="36" y="113.5332">ProcessDescriptionImpl</text><text fill="#000000" font-family="sans-serif" font-size="10" lengthAdjust="spacingAndGlyphs" textLength="118" x="50.5" y="126.9902">org.eclipse.epf.uma.impl</text></a><!--MD5=[e1b7be2ca2c8fc0fd095685b865b30bd]
class org.eclipse.epf.uma.DeliveryProcessDescription--><a href="..\DeliveryProcessDescription.html" target="_top" title="..\DeliveryProcessDescription.html" xlink:actuate="onRequest" xlink:href="..\DeliveryProcessDescription.html" xlink:show="new" xlink:title="..\DeliveryProcessDescription.html" xlink:type="simple"><rect codeLine="25" fill="#FEFECE" filter="url(#f1gp6kwoi8iuyh)" height="214.2188" id="org.eclipse.epf.uma.DeliveryProcessDescription" style="stroke: #A80036; stroke-width: 1.5;" width="227" x="221" y="7"/><ellipse cx="246.35" cy="27.0938" fill="#B4A7E5" rx="11" ry="11" style="stroke: #A80036; stroke-width: 1.0;"/><path d="M247.3031,23.7344 L247.3031,30.3906 L249.0219,30.3906 Q249.6313,30.3906 249.8969,30.625 Q250.1625,30.8594 250.1625,31.25 Q250.1625,31.625 249.8969,31.8594 Q249.6313,32.0938 249.0219,32.0938 L243.8813,32.0938 Q243.2719,32.0938 243.0063,31.8594 Q242.7406,31.625 242.7406,31.2344 Q242.7406,30.8594 243.0063,30.625 Q243.2719,30.3906 243.8813,30.3906 L245.6,30.3906 L245.6,23.7344 L243.8813,23.7344 Q243.2719,23.7344 243.0063,23.5 Q242.7406,23.2656 242.7406,22.875 Q242.7406,22.5 243.0063,22.2656 Q243.2719,22.0313 243.8813,22.0313 L249.0219,22.0313 Q249.6313,22.0313 249.8969,22.2656 Q250.1625,22.5 250.1625,22.875 Q250.1625,23.2656 249.8969,23.5 Q249.6313,23.7344 249.0219,23.7344 L247.3031,23.7344 Z "/><text fill="#000000" font-family="sans-serif" font-size="14" font-style="italic" lengthAdjust="spacingAndGlyphs" textLength="172" x="262.65" y="26.5332">DeliveryProcessDescription</text><text fill="#000000" font-family="sans-serif" font-size="10" font-style="italic" lengthAdjust="spacingAndGlyphs" textLength="92" x="302.65" y="39.9902">org.eclipse.epf.uma</text><line style="stroke: #A80036; stroke-width: 1.5;" x1="222" x2="447" y1="47.1875" y2="47.1875"/><ellipse cx="232" cy="58.1875" fill="#84BE84" rx="3" ry="3" style="stroke: #038048; stroke-width: 1.0;"/><text fill="#000000" font-family="sans-serif" font-size="11" font-style="italic" lengthAdjust="spacingAndGlyphs" textLength="86" x="241" y="62.6064">getScale(): String</text><ellipse cx="232" cy="72.0234" fill="#84BE84" rx="3" ry="3" style="stroke: #038048; stroke-width: 1.0;"/><text fill="#000000" font-family="sans-serif" font-size="11" font-style="italic" lengthAdjust="spacingAndGlyphs" textLength="106" x="241" y="76.4424">setScale(String): void</text><ellipse cx="232" cy="85.8594" fill="#84BE84" rx="3" ry="3" style="stroke: #038048; stroke-width: 1.0;"/><text fill="#000000" font-family="sans-serif" font-size="11" font-style="italic" lengthAdjust="spacingAndGlyphs" textLength="169" x="241" y="90.2783">getProjectCharacteristics(): String</text><ellipse cx="232" cy="99.6953" fill="#84BE84" rx="3" ry="3" style="stroke: #038048; stroke-width: 1.0;"/><text fill="#000000" font-family="sans-serif" font-size="11" font-style="italic" lengthAdjust="spacingAndGlyphs" textLength="189" x="241" y="104.1143">setProjectCharacteristics(String): void</text><ellipse cx="232" cy="113.5313" fill="#84BE84" rx="3" ry="3" style="stroke: #038048; stroke-width: 1.0;"/><text fill="#000000" font-family="sans-serif" font-size="11" font-style="italic" lengthAdjust="spacingAndGlyphs" textLength="107" x="241" y="117.9502">getRiskLevel(): String</text><ellipse cx="232" cy="127.3672" fill="#84BE84" rx="3" ry="3" style="stroke: #038048; stroke-width: 1.0;"/><text fill="#000000" font-family="sans-serif" font-size="11" font-style="italic" lengthAdjust="spacingAndGlyphs" textLength="127" x="241" y="131.7861">setRiskLevel(String): void</text><ellipse cx="232" cy="141.2031" fill="#84BE84" rx="3" ry="3" style="stroke: #038048; stroke-width: 1.0;"/><text fill="#000000" font-family="sans-serif" font-size="11" font-style="italic" lengthAdjust="spacingAndGlyphs" textLength="162" x="241" y="145.6221">getEstimatingTechnique(): String</text><ellipse cx="232" cy="155.0391" fill="#84BE84" rx="3" ry="3" style="stroke: #038048; stroke-width: 1.0;"/><text fill="#000000" font-family="sans-serif" font-size="11" font-style="italic" lengthAdjust="spacingAndGlyphs" textLength="182" x="241" y="159.458">setEstimatingTechnique(String): void</text><ellipse cx="232" cy="168.875" fill="#84BE84" rx="3" ry="3" style="stroke: #038048; stroke-width: 1.0;"/><text fill="#000000" font-family="sans-serif" font-size="11" font-style="italic" lengthAdjust="spacingAndGlyphs" textLength="181" x="241" y="173.2939">getProjectMemberExpertise(): String</text><ellipse cx="232" cy="182.7109" fill="#84BE84" rx="3" ry="3" style="stroke: #038048; stroke-width: 1.0;"/><text fill="#000000" font-family="sans-serif" font-size="11" font-style="italic" lengthAdjust="spacingAndGlyphs" textLength="201" x="241" y="187.1299">setProjectMemberExpertise(String): void</text><ellipse cx="232" cy="196.5469" fill="#84BE84" rx="3" ry="3" style="stroke: #038048; stroke-width: 1.0;"/><text fill="#000000" font-family="sans-serif" font-size="11" font-style="italic" lengthAdjust="spacingAndGlyphs" textLength="136" x="241" y="200.9658">getTypeOfContract(): String</text><ellipse cx="232" cy="210.3828" fill="#84BE84" rx="3" ry="3" style="stroke: #038048; stroke-width: 1.0;"/><text fill="#000000" font-family="sans-serif" font-size="11" font-style="italic" lengthAdjust="spacingAndGlyphs" textLength="156" x="241" y="214.8018">setTypeOfContract(String): void</text></a><!--MD5=[d8ee29fb340a49ca2fbfa4be6ad09441]
reverse link org.eclipse.epf.uma.impl.ProcessDescriptionImpl to org.eclipse.epf.uma.impl.DeliveryProcessDescriptionImpl--><path codeLine="40" d="M111.58,153.01 C124.45,185.45 143.75,234.12 162.24,280.74 " fill="none" id="org.eclipse.epf.uma.impl.ProcessDescriptionImpl-backto-org.eclipse.epf.uma.impl.DeliveryProcessDescriptionImpl" style="stroke: #A80036; stroke-width: 1.0;"/><polygon fill="none" points="104.99,155.39,104.13,134.22,118.01,150.23,104.99,155.39" style="stroke: #A80036; stroke-width: 1.0;"/><!--MD5=[2fb1d1831dc07c644c3c031c165aaacb]
reverse link org.eclipse.epf.uma.DeliveryProcessDescription to org.eclipse.epf.uma.impl.DeliveryProcessDescriptionImpl--><path codeLine="41" d="M284.91,240.02 C279.56,253.5 274.11,267.25 268.72,280.83 " fill="none" id="org.eclipse.epf.uma.DeliveryProcessDescription-backto-org.eclipse.epf.uma.impl.DeliveryProcessDescriptionImpl" style="stroke: #A80036; stroke-width: 1.0; stroke-dasharray: 7.0,7.0;"/><polygon fill="none" points="278.5,237.2,292.38,221.19,291.51,242.36,278.5,237.2" style="stroke: #A80036; stroke-width: 1.0;"/><text fill="#888888" font-family="sans-serif" font-size="10" lengthAdjust="spacingAndGlyphs" textLength="190" x="129.5" y="573.9434">UMLDoclet 2.0.12, PlantUML 1.2020.16</text><!--MD5=[cbf901b40d00683bd860b6b1e5b069a4]
@startuml
    set namespaceSeparator none
    hide empty fields
    hide empty methods

    class "<size:14>DeliveryProcessDescriptionImpl\n<size:10>org.eclipse.epf.uma.impl" as org.eclipse.epf.uma.impl.DeliveryProcessDescriptionImpl [[DeliveryProcessDescriptionImpl.html]] {
        +getScale(): String
        +setScale(String): void
        +getProjectCharacteristics(): String
        +setProjectCharacteristics(String): void
        +getRiskLevel(): String
        +setRiskLevel(String): void
        +getEstimatingTechnique(): String
        +setEstimatingTechnique(String): void
        +getProjectMemberExpertise(): String
        +setProjectMemberExpertise(String): void
        +getTypeOfContract(): String
        +setTypeOfContract(String): void
        +eGet(int, boolean, boolean): Object
        +eSet(int, Object): void
        +eUnset(int): void
        +eIsSet(int): boolean
    }

    class "<size:14>ProcessDescriptionImpl\n<size:10>org.eclipse.epf.uma.impl" as org.eclipse.epf.uma.impl.ProcessDescriptionImpl [[ProcessDescriptionImpl.html]]
    interface "<size:14>DeliveryProcessDescription\n<size:10>org.eclipse.epf.uma" as org.eclipse.epf.uma.DeliveryProcessDescription [[..\DeliveryProcessDescription.html]] {
        {abstract} +getScale(): String
        {abstract} +setScale(String): void
        {abstract} +getProjectCharacteristics(): String
        {abstract} +setProjectCharacteristics(String): void
        {abstract} +getRiskLevel(): String
        {abstract} +setRiskLevel(String): void
        {abstract} +getEstimatingTechnique(): String
        {abstract} +setEstimatingTechnique(String): void
        {abstract} +getProjectMemberExpertise(): String
        {abstract} +setProjectMemberExpertise(String): void
        {abstract} +getTypeOfContract(): String
        {abstract} +setTypeOfContract(String): void
    }

    org.eclipse.epf.uma.impl.ProcessDescriptionImpl <|- - org.eclipse.epf.uma.impl.DeliveryProcessDescriptionImpl
    org.eclipse.epf.uma.DeliveryProcessDescription <|.. org.eclipse.epf.uma.impl.DeliveryProcessDescriptionImpl

    center footer UMLDoclet 2.0.12, PlantUML 1.2020.16
@enduml

PlantUML version 1.2020.16(Sun Aug 23 22:20:43 CEST 2020)
(APACHE source distribution)
Java Runtime: Java(TM) SE Runtime Environment
JVM: Java HotSpot(TM) 64-Bit Server VM
Default Encoding: Cp1252
Language: es
Country: ES
--></g></svg>