<?xml version="1.0" encoding="UTF-8" standalone="no"?><svg xmlns="http://www.w3.org/2000/svg" xmlns:xlink="http://www.w3.org/1999/xlink" contentScriptType="application/ecmascript" contentStyleType="text/css" height="283px" preserveAspectRatio="none" style="width:486px;height:283px;" version="1.1" viewBox="0 0 486 283" width="486px" zoomAndPan="magnify"><defs><filter height="300%" id="f1lmuq17lqn27j" width="300%" x="-1" y="-1"><feGaussianBlur result="blurOut" stdDeviation="2.0"/><feColorMatrix in="blurOut" result="blurOut2" type="matrix" values="0 0 0 0 0 0 0 0 0 0 0 0 0 0 0 0 0 0 .4 0"/><feOffset dx="4.0" dy="4.0" in="blurOut2" result="blurOut3"/><feBlend in="SourceGraphic" in2="blurOut3" mode="normal"/></filter></defs><g><!--MD5=[adc807cca3e885ed851dc0143dd50249]
class org.eclipse.epf.uma.impl.DeliverableImpl--><a href="DeliverableImpl.html" target="_top" title="DeliverableImpl.html" xlink:actuate="onRequest" xlink:href="DeliverableImpl.html" xlink:show="new" xlink:title="DeliverableImpl.html" xlink:type="simple"><rect codeLine="5" fill="#FEFECE" filter="url(#f1lmuq17lqn27j)" height="117.3672" id="org.eclipse.epf.uma.impl.DeliverableImpl" style="stroke: #A80036; stroke-width: 1.5;" width="265" x="73.5" y="129"/><ellipse cx="142.75" cy="149.0938" fill="#ADD1B2" rx="11" ry="11" style="stroke: #A80036; stroke-width: 1.0;"/><path d="M145.5156,144.9688 Q145.6719,144.75 145.8594,144.6406 Q146.0469,144.5313 146.2656,144.5313 Q146.6406,144.5313 146.875,144.7969 Q147.1094,145.0469 147.1094,145.6563 L147.1094,147.1094 Q147.1094,147.7188 146.875,147.9844 Q146.6406,148.25 146.2656,148.25 Q145.9219,148.25 145.7188,148.0469 Q145.5156,147.8594 145.4063,147.3438 Q145.3594,146.9844 145.1719,146.7969 Q144.8438,146.4219 144.2344,146.2031 Q143.625,145.9844 143,145.9844 Q142.2344,145.9844 141.5938,146.3125 Q140.9688,146.6406 140.4688,147.3906 Q139.9844,148.1406 139.9844,149.1719 L139.9844,150.2656 Q139.9844,151.5 140.875,152.3281 Q141.7656,153.1406 143.3594,153.1406 Q144.2969,153.1406 144.9531,152.8906 Q145.3438,152.7344 145.7656,152.2969 Q146.0313,152.0313 146.1719,151.9531 Q146.3281,151.875 146.5313,151.875 Q146.8594,151.875 147.1094,152.1406 Q147.375,152.3906 147.375,152.7344 Q147.375,153.0781 147.0313,153.4844 Q146.5313,154.0625 145.7344,154.3906 Q144.6563,154.8438 143.3594,154.8438 Q141.8438,154.8438 140.6406,154.2188 Q139.6563,153.7188 138.9688,152.6563 Q138.2813,151.5781 138.2813,150.2969 L138.2813,149.1406 Q138.2813,147.8125 138.8906,146.6719 Q139.5156,145.5156 140.6094,144.9063 Q141.7031,144.2813 142.9375,144.2813 Q143.6719,144.2813 144.3125,144.4531 Q144.9688,144.6094 145.5156,144.9688 Z "/><text fill="#000000" font-family="sans-serif" font-size="14" lengthAdjust="spacingAndGlyphs" textLength="96" x="174.25" y="148.5332">DeliverableImpl</text><text fill="#000000" font-family="sans-serif" font-size="10" lengthAdjust="spacingAndGlyphs" textLength="118" x="163.25" y="161.9902">org.eclipse.epf.uma.impl</text><line style="stroke: #A80036; stroke-width: 1.5;" x1="74.5" x2="337.5" y1="169.1875" y2="169.1875"/><ellipse cx="84.5" cy="180.1875" fill="#84BE84" rx="3" ry="3" style="stroke: #038048; stroke-width: 1.0;"/><text fill="#000000" font-family="sans-serif" font-size="11" lengthAdjust="spacingAndGlyphs" textLength="239" x="93.5" y="184.6064">getDeliveredWorkProducts(): EList&lt;WorkProduct&gt;</text><ellipse cx="84.5" cy="194.0234" fill="#84BE84" rx="3" ry="3" style="stroke: #038048; stroke-width: 1.0;"/><text fill="#000000" font-family="sans-serif" font-size="11" lengthAdjust="spacingAndGlyphs" textLength="167" x="93.5" y="198.4424">eGet(int, boolean, boolean): Object</text><ellipse cx="84.5" cy="207.8594" fill="#84BE84" rx="3" ry="3" style="stroke: #038048; stroke-width: 1.0;"/><text fill="#000000" font-family="sans-serif" font-size="11" lengthAdjust="spacingAndGlyphs" textLength="104" x="93.5" y="212.2783">eSet(int, Object): void</text><ellipse cx="84.5" cy="221.6953" fill="#84BE84" rx="3" ry="3" style="stroke: #038048; stroke-width: 1.0;"/><text fill="#000000" font-family="sans-serif" font-size="11" lengthAdjust="spacingAndGlyphs" textLength="79" x="93.5" y="226.1143">eUnset(int): void</text><ellipse cx="84.5" cy="235.5313" fill="#84BE84" rx="3" ry="3" style="stroke: #038048; stroke-width: 1.0;"/><text fill="#000000" font-family="sans-serif" font-size="11" lengthAdjust="spacingAndGlyphs" textLength="93" x="93.5" y="239.9502">eIsSet(int): boolean</text></a><!--MD5=[bf2f7d7047b7d9f74826b15896e0d3a5]
class org.eclipse.epf.uma.impl.WorkProductImpl--><a href="WorkProductImpl.html" target="_top" title="WorkProductImpl.html" xlink:actuate="onRequest" xlink:href="WorkProductImpl.html" xlink:show="new" xlink:title="WorkProductImpl.html" xlink:type="simple"><rect codeLine="13" fill="#FEFECE" filter="url(#f1lmuq17lqn27j)" height="40.1875" id="org.eclipse.epf.uma.impl.WorkProductImpl" style="stroke: #A80036; stroke-width: 1.5;" width="150" x="7" y="18"/><ellipse cx="22" cy="38.0938" fill="#ADD1B2" rx="11" ry="11" style="stroke: #A80036; stroke-width: 1.0;"/><path d="M24.7656,33.9688 Q24.9219,33.75 25.1094,33.6406 Q25.2969,33.5313 25.5156,33.5313 Q25.8906,33.5313 26.125,33.7969 Q26.3594,34.0469 26.3594,34.6563 L26.3594,36.1094 Q26.3594,36.7188 26.125,36.9844 Q25.8906,37.25 25.5156,37.25 Q25.1719,37.25 24.9688,37.0469 Q24.7656,36.8594 24.6563,36.3438 Q24.6094,35.9844 24.4219,35.7969 Q24.0938,35.4219 23.4844,35.2031 Q22.875,34.9844 22.25,34.9844 Q21.4844,34.9844 20.8438,35.3125 Q20.2188,35.6406 19.7188,36.3906 Q19.2344,37.1406 19.2344,38.1719 L19.2344,39.2656 Q19.2344,40.5 20.125,41.3281 Q21.0156,42.1406 22.6094,42.1406 Q23.5469,42.1406 24.2031,41.8906 Q24.5938,41.7344 25.0156,41.2969 Q25.2813,41.0313 25.4219,40.9531 Q25.5781,40.875 25.7813,40.875 Q26.1094,40.875 26.3594,41.1406 Q26.625,41.3906 26.625,41.7344 Q26.625,42.0781 26.2813,42.4844 Q25.7813,43.0625 24.9844,43.3906 Q23.9063,43.8438 22.6094,43.8438 Q21.0938,43.8438 19.8906,43.2188 Q18.9063,42.7188 18.2188,41.6563 Q17.5313,40.5781 17.5313,39.2969 L17.5313,38.1406 Q17.5313,36.8125 18.1406,35.6719 Q18.7656,34.5156 19.8594,33.9063 Q20.9531,33.2813 22.1875,33.2813 Q22.9219,33.2813 23.5625,33.4531 Q24.2188,33.6094 24.7656,33.9688 Z "/><text fill="#000000" font-family="sans-serif" font-size="14" lengthAdjust="spacingAndGlyphs" textLength="107" x="41.5" y="37.5332">WorkProductImpl</text><text fill="#000000" font-family="sans-serif" font-size="10" lengthAdjust="spacingAndGlyphs" textLength="118" x="36" y="50.9902">org.eclipse.epf.uma.impl</text></a><!--MD5=[8434a79174dd07fe2f059d80dcdf566f]
class org.eclipse.epf.uma.Deliverable--><a href="..\Deliverable.html" target="_top" title="..\Deliverable.html" xlink:actuate="onRequest" xlink:href="..\Deliverable.html" xlink:show="new" xlink:title="..\Deliverable.html" xlink:type="simple"><rect codeLine="14" fill="#FEFECE" filter="url(#f1lmuq17lqn27j)" height="62.0234" id="org.eclipse.epf.uma.Deliverable" style="stroke: #A80036; stroke-width: 1.5;" width="275" x="192.5" y="7"/><ellipse cx="279.75" cy="27.0938" fill="#B4A7E5" rx="11" ry="11" style="stroke: #A80036; stroke-width: 1.0;"/><path d="M280.7031,23.7344 L280.7031,30.3906 L282.4219,30.3906 Q283.0313,30.3906 283.2969,30.625 Q283.5625,30.8594 283.5625,31.25 Q283.5625,31.625 283.2969,31.8594 Q283.0313,32.0938 282.4219,32.0938 L277.2813,32.0938 Q276.6719,32.0938 276.4063,31.8594 Q276.1406,31.625 276.1406,31.2344 Q276.1406,30.8594 276.4063,30.625 Q276.6719,30.3906 277.2813,30.3906 L279,30.3906 L279,23.7344 L277.2813,23.7344 Q276.6719,23.7344 276.4063,23.5 Q276.1406,23.2656 276.1406,22.875 Q276.1406,22.5 276.4063,22.2656 Q276.6719,22.0313 277.2813,22.0313 L282.4219,22.0313 Q283.0313,22.0313 283.2969,22.2656 Q283.5625,22.5 283.5625,22.875 Q283.5625,23.2656 283.2969,23.5 Q283.0313,23.7344 282.4219,23.7344 L280.7031,23.7344 Z "/><text fill="#000000" font-family="sans-serif" font-size="14" font-style="italic" lengthAdjust="spacingAndGlyphs" textLength="70" x="311.25" y="26.5332">Deliverable</text><text fill="#000000" font-family="sans-serif" font-size="10" font-style="italic" lengthAdjust="spacingAndGlyphs" textLength="92" x="300.25" y="39.9902">org.eclipse.epf.uma</text><line style="stroke: #A80036; stroke-width: 1.5;" x1="193.5" x2="466.5" y1="47.1875" y2="47.1875"/><ellipse cx="203.5" cy="58.1875" fill="#84BE84" rx="3" ry="3" style="stroke: #038048; stroke-width: 1.0;"/><text fill="#000000" font-family="sans-serif" font-size="11" font-style="italic" lengthAdjust="spacingAndGlyphs" textLength="249" x="212.5" y="62.6064">getDeliveredWorkProducts(): EList&lt;WorkProduct&gt;</text></a><!--MD5=[4f616b3b4b50e49e515dfc8555b08c8a]
reverse link org.eclipse.epf.uma.impl.WorkProductImpl to org.eclipse.epf.uma.impl.DeliverableImpl--><path codeLine="18" d="M111.28,73.83 C125.04,90.19 141.81,110.14 157.39,128.68 " fill="none" id="org.eclipse.epf.uma.impl.WorkProductImpl-backto-org.eclipse.epf.uma.impl.DeliverableImpl" style="stroke: #A80036; stroke-width: 1.0;"/><polygon fill="none" points="105.72,78.1,98.21,58.28,116.44,69.09,105.72,78.1" style="stroke: #A80036; stroke-width: 1.0;"/><!--MD5=[158e84e12e8d319e3e5c3c8a37b6b05a]
reverse link org.eclipse.epf.uma.Deliverable to org.eclipse.epf.uma.impl.DeliverableImpl--><path codeLine="19" d="M291.55,84.73 C279.81,98.7 266.74,114.24 254.43,128.9 " fill="none" id="org.eclipse.epf.uma.Deliverable-backto-org.eclipse.epf.uma.impl.DeliverableImpl" style="stroke: #A80036; stroke-width: 1.0; stroke-dasharray: 7.0,7.0;"/><polygon fill="none" points="286.38,80.01,304.61,69.2,297.1,89.02,286.38,80.01" style="stroke: #A80036; stroke-width: 1.0;"/><text fill="#888888" font-family="sans-serif" font-size="10" lengthAdjust="spacingAndGlyphs" textLength="190" x="139.25" y="269.748">UMLDoclet 2.0.12, PlantUML 1.2020.16</text><!--MD5=[906770f3797600c7c4f97b5f714f8c91]
@startuml
    set namespaceSeparator none
    hide empty fields
    hide empty methods

    class "<size:14>DeliverableImpl\n<size:10>org.eclipse.epf.uma.impl" as org.eclipse.epf.uma.impl.DeliverableImpl [[DeliverableImpl.html]] {
        +getDeliveredWorkProducts(): EList<WorkProduct>
        +eGet(int, boolean, boolean): Object
        +eSet(int, Object): void
        +eUnset(int): void
        +eIsSet(int): boolean
    }

    class "<size:14>WorkProductImpl\n<size:10>org.eclipse.epf.uma.impl" as org.eclipse.epf.uma.impl.WorkProductImpl [[WorkProductImpl.html]]
    interface "<size:14>Deliverable\n<size:10>org.eclipse.epf.uma" as org.eclipse.epf.uma.Deliverable [[..\Deliverable.html]] {
        {abstract} +getDeliveredWorkProducts(): EList<WorkProduct>
    }

    org.eclipse.epf.uma.impl.WorkProductImpl <|- - org.eclipse.epf.uma.impl.DeliverableImpl
    org.eclipse.epf.uma.Deliverable <|.. org.eclipse.epf.uma.impl.DeliverableImpl

    center footer UMLDoclet 2.0.12, PlantUML 1.2020.16
@enduml

PlantUML version 1.2020.16(Sun Aug 23 22:20:43 CEST 2020)
(APACHE source distribution)
Java Runtime: Java(TM) SE Runtime Environment
JVM: Java HotSpot(TM) 64-Bit Server VM
Default Encoding: Cp1252
Language: es
Country: ES
--></g></svg>