<?xml version="1.0" encoding="UTF-8" standalone="no"?><svg xmlns="http://www.w3.org/2000/svg" xmlns:xlink="http://www.w3.org/1999/xlink" contentScriptType="application/ecmascript" contentStyleType="text/css" height="311px" preserveAspectRatio="none" style="width:509px;height:311px;" version="1.1" viewBox="0 0 509 311" width="509px" zoomAndPan="magnify"><defs><filter height="300%" id="f1mfpfqij7ww07" width="300%" x="-1" y="-1"><feGaussianBlur result="blurOut" stdDeviation="2.0"/><feColorMatrix in="blurOut" result="blurOut2" type="matrix" values="0 0 0 0 0 0 0 0 0 0 0 0 0 0 0 0 0 0 .4 0"/><feOffset dx="4.0" dy="4.0" in="blurOut2" result="blurOut3"/><feBlend in="SourceGraphic" in2="blurOut3" mode="normal"/></filter></defs><g><!--MD5=[b4ec96d3cfb99717718fa6ab4378d837]
class org.eclipse.epf.uma.impl.DescriptorDescriptionImpl--><a href="DescriptorDescriptionImpl.html" target="_top" title="DescriptorDescriptionImpl.html" xlink:actuate="onRequest" xlink:href="DescriptorDescriptionImpl.html" xlink:show="new" xlink:title="DescriptorDescriptionImpl.html" xlink:type="simple"><rect codeLine="5" fill="#FEFECE" filter="url(#f1mfpfqij7ww07)" height="131.2031" id="org.eclipse.epf.uma.impl.DescriptorDescriptionImpl" style="stroke: #A80036; stroke-width: 1.5;" width="194" x="163.5" y="143"/><ellipse cx="178.95" cy="163.0938" fill="#ADD1B2" rx="11" ry="11" style="stroke: #A80036; stroke-width: 1.0;"/><path d="M181.7156,158.9688 Q181.8719,158.75 182.0594,158.6406 Q182.2469,158.5313 182.4656,158.5313 Q182.8406,158.5313 183.075,158.7969 Q183.3094,159.0469 183.3094,159.6563 L183.3094,161.1094 Q183.3094,161.7188 183.075,161.9844 Q182.8406,162.25 182.4656,162.25 Q182.1219,162.25 181.9188,162.0469 Q181.7156,161.8594 181.6063,161.3438 Q181.5594,160.9844 181.3719,160.7969 Q181.0438,160.4219 180.4344,160.2031 Q179.825,159.9844 179.2,159.9844 Q178.4344,159.9844 177.7938,160.3125 Q177.1688,160.6406 176.6688,161.3906 Q176.1844,162.1406 176.1844,163.1719 L176.1844,164.2656 Q176.1844,165.5 177.075,166.3281 Q177.9656,167.1406 179.5594,167.1406 Q180.4969,167.1406 181.1531,166.8906 Q181.5438,166.7344 181.9656,166.2969 Q182.2313,166.0313 182.3719,165.9531 Q182.5281,165.875 182.7313,165.875 Q183.0594,165.875 183.3094,166.1406 Q183.575,166.3906 183.575,166.7344 Q183.575,167.0781 183.2313,167.4844 Q182.7313,168.0625 181.9344,168.3906 Q180.8563,168.8438 179.5594,168.8438 Q178.0438,168.8438 176.8406,168.2188 Q175.8563,167.7188 175.1688,166.6563 Q174.4813,165.5781 174.4813,164.2969 L174.4813,163.1406 Q174.4813,161.8125 175.0906,160.6719 Q175.7156,159.5156 176.8094,158.9063 Q177.9031,158.2813 179.1375,158.2813 Q179.8719,158.2813 180.5125,158.4531 Q181.1688,158.6094 181.7156,158.9688 Z "/><text fill="#000000" font-family="sans-serif" font-size="14" lengthAdjust="spacingAndGlyphs" textLength="161" x="193.05" y="162.5332">DescriptorDescriptionImpl</text><text fill="#000000" font-family="sans-serif" font-size="10" lengthAdjust="spacingAndGlyphs" textLength="118" x="214.55" y="175.9902">org.eclipse.epf.uma.impl</text><line style="stroke: #A80036; stroke-width: 1.5;" x1="164.5" x2="356.5" y1="183.1875" y2="183.1875"/><ellipse cx="174.5" cy="194.1875" fill="#84BE84" rx="3" ry="3" style="stroke: #038048; stroke-width: 1.0;"/><text fill="#000000" font-family="sans-serif" font-size="11" lengthAdjust="spacingAndGlyphs" textLength="148" x="183.5" y="198.6064">getRefinedDescription(): String</text><ellipse cx="174.5" cy="208.0234" fill="#84BE84" rx="3" ry="3" style="stroke: #038048; stroke-width: 1.0;"/><text fill="#000000" font-family="sans-serif" font-size="11" lengthAdjust="spacingAndGlyphs" textLength="168" x="183.5" y="212.4424">setRefinedDescription(String): void</text><ellipse cx="174.5" cy="221.8594" fill="#84BE84" rx="3" ry="3" style="stroke: #038048; stroke-width: 1.0;"/><text fill="#000000" font-family="sans-serif" font-size="11" lengthAdjust="spacingAndGlyphs" textLength="167" x="183.5" y="226.2783">eGet(int, boolean, boolean): Object</text><ellipse cx="174.5" cy="235.6953" fill="#84BE84" rx="3" ry="3" style="stroke: #038048; stroke-width: 1.0;"/><text fill="#000000" font-family="sans-serif" font-size="11" lengthAdjust="spacingAndGlyphs" textLength="104" x="183.5" y="240.1143">eSet(int, Object): void</text><ellipse cx="174.5" cy="249.5313" fill="#84BE84" rx="3" ry="3" style="stroke: #038048; stroke-width: 1.0;"/><text fill="#000000" font-family="sans-serif" font-size="11" lengthAdjust="spacingAndGlyphs" textLength="79" x="183.5" y="253.9502">eUnset(int): void</text><ellipse cx="174.5" cy="263.3672" fill="#84BE84" rx="3" ry="3" style="stroke: #038048; stroke-width: 1.0;"/><text fill="#000000" font-family="sans-serif" font-size="11" lengthAdjust="spacingAndGlyphs" textLength="93" x="183.5" y="267.7861">eIsSet(int): boolean</text></a><!--MD5=[dc58ab8070c6434205d283b7e3cad5c3]
class org.eclipse.epf.uma.impl.BreakdownElementDescriptionImpl--><a href="BreakdownElementDescriptionImpl.html" target="_top" title="BreakdownElementDescriptionImpl.html" xlink:actuate="onRequest" xlink:href="BreakdownElementDescriptionImpl.html" xlink:show="new" xlink:title="BreakdownElementDescriptionImpl.html" xlink:type="simple"><rect codeLine="14" fill="#FEFECE" filter="url(#f1mfpfqij7ww07)" height="40.1875" id="org.eclipse.epf.uma.impl.BreakdownElementDescriptionImpl" style="stroke: #A80036; stroke-width: 1.5;" width="249" x="7" y="25"/><ellipse cx="22" cy="45.0938" fill="#ADD1B2" rx="11" ry="11" style="stroke: #A80036; stroke-width: 1.0;"/><path d="M24.7656,40.9688 Q24.9219,40.75 25.1094,40.6406 Q25.2969,40.5313 25.5156,40.5313 Q25.8906,40.5313 26.125,40.7969 Q26.3594,41.0469 26.3594,41.6563 L26.3594,43.1094 Q26.3594,43.7188 26.125,43.9844 Q25.8906,44.25 25.5156,44.25 Q25.1719,44.25 24.9688,44.0469 Q24.7656,43.8594 24.6563,43.3438 Q24.6094,42.9844 24.4219,42.7969 Q24.0938,42.4219 23.4844,42.2031 Q22.875,41.9844 22.25,41.9844 Q21.4844,41.9844 20.8438,42.3125 Q20.2188,42.6406 19.7188,43.3906 Q19.2344,44.1406 19.2344,45.1719 L19.2344,46.2656 Q19.2344,47.5 20.125,48.3281 Q21.0156,49.1406 22.6094,49.1406 Q23.5469,49.1406 24.2031,48.8906 Q24.5938,48.7344 25.0156,48.2969 Q25.2813,48.0313 25.4219,47.9531 Q25.5781,47.875 25.7813,47.875 Q26.1094,47.875 26.3594,48.1406 Q26.625,48.3906 26.625,48.7344 Q26.625,49.0781 26.2813,49.4844 Q25.7813,50.0625 24.9844,50.3906 Q23.9063,50.8438 22.6094,50.8438 Q21.0938,50.8438 19.8906,50.2188 Q18.9063,49.7188 18.2188,48.6563 Q17.5313,47.5781 17.5313,46.2969 L17.5313,45.1406 Q17.5313,43.8125 18.1406,42.6719 Q18.7656,41.5156 19.8594,40.9063 Q20.9531,40.2813 22.1875,40.2813 Q22.9219,40.2813 23.5625,40.4531 Q24.2188,40.6094 24.7656,40.9688 Z "/><text fill="#000000" font-family="sans-serif" font-size="14" lengthAdjust="spacingAndGlyphs" textLength="217" x="36" y="44.5332">BreakdownElementDescriptionImpl</text><text fill="#000000" font-family="sans-serif" font-size="10" lengthAdjust="spacingAndGlyphs" textLength="118" x="85.5" y="57.9902">org.eclipse.epf.uma.impl</text></a><!--MD5=[4c08f2af5e7dfb57e8df8b7d53a9b717]
class org.eclipse.epf.uma.DescriptorDescription--><a href="..\DescriptorDescription.html" target="_top" title="..\DescriptorDescription.html" xlink:actuate="onRequest" xlink:href="..\DescriptorDescription.html" xlink:show="new" xlink:title="..\DescriptorDescription.html" xlink:type="simple"><rect codeLine="15" fill="#FEFECE" filter="url(#f1mfpfqij7ww07)" height="75.8594" id="org.eclipse.epf.uma.DescriptorDescription" style="stroke: #A80036; stroke-width: 1.5;" width="199" x="291" y="7"/><ellipse cx="319.95" cy="27.0938" fill="#B4A7E5" rx="11" ry="11" style="stroke: #A80036; stroke-width: 1.0;"/><path d="M320.9031,23.7344 L320.9031,30.3906 L322.6219,30.3906 Q323.2313,30.3906 323.4969,30.625 Q323.7625,30.8594 323.7625,31.25 Q323.7625,31.625 323.4969,31.8594 Q323.2313,32.0938 322.6219,32.0938 L317.4813,32.0938 Q316.8719,32.0938 316.6063,31.8594 Q316.3406,31.625 316.3406,31.2344 Q316.3406,30.8594 316.6063,30.625 Q316.8719,30.3906 317.4813,30.3906 L319.2,30.3906 L319.2,23.7344 L317.4813,23.7344 Q316.8719,23.7344 316.6063,23.5 Q316.3406,23.2656 316.3406,22.875 Q316.3406,22.5 316.6063,22.2656 Q316.8719,22.0313 317.4813,22.0313 L322.6219,22.0313 Q323.2313,22.0313 323.4969,22.2656 Q323.7625,22.5 323.7625,22.875 Q323.7625,23.2656 323.4969,23.5 Q323.2313,23.7344 322.6219,23.7344 L320.9031,23.7344 Z "/><text fill="#000000" font-family="sans-serif" font-size="14" font-style="italic" lengthAdjust="spacingAndGlyphs" textLength="136" x="337.05" y="26.5332">DescriptorDescription</text><text fill="#000000" font-family="sans-serif" font-size="10" font-style="italic" lengthAdjust="spacingAndGlyphs" textLength="92" x="359.05" y="39.9902">org.eclipse.epf.uma</text><line style="stroke: #A80036; stroke-width: 1.5;" x1="292" x2="489" y1="47.1875" y2="47.1875"/><ellipse cx="302" cy="58.1875" fill="#84BE84" rx="3" ry="3" style="stroke: #038048; stroke-width: 1.0;"/><text fill="#000000" font-family="sans-serif" font-size="11" font-style="italic" lengthAdjust="spacingAndGlyphs" textLength="153" x="311" y="62.6064">getRefinedDescription(): String</text><ellipse cx="302" cy="72.0234" fill="#84BE84" rx="3" ry="3" style="stroke: #038048; stroke-width: 1.0;"/><text fill="#000000" font-family="sans-serif" font-size="11" font-style="italic" lengthAdjust="spacingAndGlyphs" textLength="173" x="311" y="76.4424">setRefinedDescription(String): void</text></a><!--MD5=[7d9955f6911ae89fce138a40864befa0]
reverse link org.eclipse.epf.uma.impl.BreakdownElementDescriptionImpl to org.eclipse.epf.uma.impl.DescriptorDescriptionImpl--><path codeLine="20" d="M159.35,80.86 C173.76,98.91 191.83,121.53 208.7,142.65 " fill="none" id="org.eclipse.epf.uma.impl.BreakdownElementDescriptionImpl-backto-org.eclipse.epf.uma.impl.DescriptorDescriptionImpl" style="stroke: #A80036; stroke-width: 1.0;"/><polygon fill="none" points="153.82,85.16,146.8,65.16,164.76,76.42,153.82,85.16" style="stroke: #A80036; stroke-width: 1.0;"/><!--MD5=[e0dcd70beabbc06e4b9318e137cb569c]
reverse link org.eclipse.epf.uma.DescriptorDescription to org.eclipse.epf.uma.impl.DescriptorDescriptionImpl--><path codeLine="21" d="M347.99,98.81 C336.7,112.84 324.37,128.15 312.63,142.74 " fill="none" id="org.eclipse.epf.uma.DescriptorDescription-backto-org.eclipse.epf.uma.impl.DescriptorDescriptionImpl" style="stroke: #A80036; stroke-width: 1.0; stroke-dasharray: 7.0,7.0;"/><polygon fill="none" points="342.68,94.24,360.68,83.05,353.59,103.02,342.68,94.24" style="stroke: #A80036; stroke-width: 1.0;"/><text fill="#888888" font-family="sans-serif" font-size="10" lengthAdjust="spacingAndGlyphs" textLength="190" x="150.5" y="297.584">UMLDoclet 2.0.12, PlantUML 1.2020.16</text><!--MD5=[f9ad7b57d195533ddee8674f492fe344]
@startuml
    set namespaceSeparator none
    hide empty fields
    hide empty methods

    class "<size:14>DescriptorDescriptionImpl\n<size:10>org.eclipse.epf.uma.impl" as org.eclipse.epf.uma.impl.DescriptorDescriptionImpl [[DescriptorDescriptionImpl.html]] {
        +getRefinedDescription(): String
        +setRefinedDescription(String): void
        +eGet(int, boolean, boolean): Object
        +eSet(int, Object): void
        +eUnset(int): void
        +eIsSet(int): boolean
    }

    class "<size:14>BreakdownElementDescriptionImpl\n<size:10>org.eclipse.epf.uma.impl" as org.eclipse.epf.uma.impl.BreakdownElementDescriptionImpl [[BreakdownElementDescriptionImpl.html]]
    interface "<size:14>DescriptorDescription\n<size:10>org.eclipse.epf.uma" as org.eclipse.epf.uma.DescriptorDescription [[..\DescriptorDescription.html]] {
        {abstract} +getRefinedDescription(): String
        {abstract} +setRefinedDescription(String): void
    }

    org.eclipse.epf.uma.impl.BreakdownElementDescriptionImpl <|- - org.eclipse.epf.uma.impl.DescriptorDescriptionImpl
    org.eclipse.epf.uma.DescriptorDescription <|.. org.eclipse.epf.uma.impl.DescriptorDescriptionImpl

    center footer UMLDoclet 2.0.12, PlantUML 1.2020.16
@enduml

PlantUML version 1.2020.16(Sun Aug 23 22:20:43 CEST 2020)
(APACHE source distribution)
Java Runtime: Java(TM) SE Runtime Environment
JVM: Java HotSpot(TM) 64-Bit Server VM
Default Encoding: Cp1252
Language: es
Country: ES
--></g></svg>