<?xml version="1.0" encoding="UTF-8" standalone="no"?><svg xmlns="http://www.w3.org/2000/svg" xmlns:xlink="http://www.w3.org/1999/xlink" contentScriptType="application/ecmascript" contentStyleType="text/css" height="518px" preserveAspectRatio="none" style="width:456px;height:518px;" version="1.1" viewBox="0 0 456 518" width="456px" zoomAndPan="magnify"><defs><filter height="300%" id="f1cvjec6xl9nea" width="300%" x="-1" y="-1"><feGaussianBlur result="blurOut" stdDeviation="2.0"/><feColorMatrix in="blurOut" result="blurOut2" type="matrix" values="0 0 0 0 0 0 0 0 0 0 0 0 0 0 0 0 0 0 .4 0"/><feOffset dx="4.0" dy="4.0" in="blurOut2" result="blurOut3"/><feBlend in="SourceGraphic" in2="blurOut3" mode="normal"/></filter></defs><g><!--MD5=[78f5f826bf2698fc4f184b6015e9a3f0]
class org.eclipse.epf.uma.impl.DescribableElementImpl--><a href="DescribableElementImpl.html" target="_top" title="DescribableElementImpl.html" xlink:actuate="onRequest" xlink:href="DescribableElementImpl.html" xlink:show="new" xlink:title="DescribableElementImpl.html" xlink:type="simple"><rect codeLine="5" fill="#FEFECE" filter="url(#f1cvjec6xl9nea)" height="283.3984" id="org.eclipse.epf.uma.impl.DescribableElementImpl" style="stroke: #A80036; stroke-width: 1.5;" width="399" x="7" y="198"/><ellipse cx="126.25" cy="218.0938" fill="#A9DCDF" rx="11" ry="11" style="stroke: #A80036; stroke-width: 1.0;"/><path d="M128.4375,219.8594 L124.2969,219.8594 L123.875,220.8906 L124.2969,220.8906 Q124.9063,220.8906 125.1719,221.125 Q125.4375,221.3594 125.4375,221.75 Q125.4375,222.125 125.1719,222.3594 Q124.9063,222.5938 124.2969,222.5938 L122,222.5938 Q121.3906,222.5938 121.1406,222.3594 Q120.875,222.125 120.875,221.7344 Q120.875,221.3594 121.1563,221.125 Q121.4219,220.875 122.0469,220.8906 L124.7188,214.2344 L123.6094,214.2344 Q123,214.2344 122.7344,214 Q122.4688,213.7656 122.4688,213.375 Q122.4688,213 122.7344,212.7656 Q123,212.5313 123.6094,212.5313 L127.2813,212.5313 L130.6719,220.8906 Q131.2656,220.8906 131.4531,221.0313 Q131.8438,221.2969 131.8438,221.75 Q131.8438,222.125 131.5781,222.3594 Q131.3281,222.5938 130.7188,222.5938 L128.4219,222.5938 Q127.8125,222.5938 127.5469,222.3594 Q127.2813,222.125 127.2813,221.7344 Q127.2813,221.3594 127.5469,221.125 Q127.8125,220.8906 128.4219,220.8906 L128.8438,220.8906 L128.4375,219.8594 Z M127.7188,218.1563 L126.3594,214.7813 L124.9844,218.1563 L127.7188,218.1563 Z "/><text fill="#000000" font-family="sans-serif" font-size="14" font-style="italic" lengthAdjust="spacingAndGlyphs" textLength="152" x="146.75" y="217.5332">DescribableElementImpl</text><text fill="#000000" font-family="sans-serif" font-size="10" font-style="italic" lengthAdjust="spacingAndGlyphs" textLength="114" x="165.75" y="230.9902">org.eclipse.epf.uma.impl</text><line style="stroke: #A80036; stroke-width: 1.5;" x1="8" x2="405" y1="238.1875" y2="238.1875"/><ellipse cx="18" cy="249.1875" fill="#84BE84" rx="3" ry="3" style="stroke: #038048; stroke-width: 1.0;"/><text fill="#000000" font-family="sans-serif" font-size="11" lengthAdjust="spacingAndGlyphs" textLength="118" x="27" y="253.6064">getIsAbstract(): Boolean</text><ellipse cx="18" cy="263.0234" fill="#84BE84" rx="3" ry="3" style="stroke: #038048; stroke-width: 1.0;"/><text fill="#000000" font-family="sans-serif" font-size="11" lengthAdjust="spacingAndGlyphs" textLength="138" x="27" y="267.4424">setIsAbstract(Boolean): void</text><ellipse cx="18" cy="276.8594" fill="#84BE84" rx="3" ry="3" style="stroke: #038048; stroke-width: 1.0;"/><text fill="#000000" font-family="sans-serif" font-size="11" lengthAdjust="spacingAndGlyphs" textLength="180" x="27" y="281.2783">getPresentation(): ContentDescription</text><ellipse cx="18" cy="290.6953" fill="#84BE84" rx="3" ry="3" style="stroke: #038048; stroke-width: 1.0;"/><text fill="#000000" font-family="sans-serif" font-size="11" lengthAdjust="spacingAndGlyphs" textLength="208" x="27" y="295.1143">basicGetPresentation(): ContentDescription</text><ellipse cx="18" cy="304.5313" fill="#84BE84" rx="3" ry="3" style="stroke: #038048; stroke-width: 1.0;"/><text fill="#000000" font-family="sans-serif" font-size="11" lengthAdjust="spacingAndGlyphs" textLength="373" x="27" y="308.9502">basicSetPresentation(ContentDescription, NotificationChain): NotificationChain</text><ellipse cx="18" cy="318.3672" fill="#84BE84" rx="3" ry="3" style="stroke: #038048; stroke-width: 1.0;"/><text fill="#000000" font-family="sans-serif" font-size="11" lengthAdjust="spacingAndGlyphs" textLength="200" x="27" y="322.7861">setPresentation(ContentDescription): void</text><ellipse cx="18" cy="332.2031" fill="#84BE84" rx="3" ry="3" style="stroke: #038048; stroke-width: 1.0;"/><text fill="#000000" font-family="sans-serif" font-size="11" lengthAdjust="spacingAndGlyphs" textLength="96" x="27" y="336.6221">getShapeicon(): URI</text><ellipse cx="18" cy="346.0391" fill="#84BE84" rx="3" ry="3" style="stroke: #038048; stroke-width: 1.0;"/><text fill="#000000" font-family="sans-serif" font-size="11" lengthAdjust="spacingAndGlyphs" textLength="116" x="27" y="350.458">setShapeicon(URI): void</text><ellipse cx="18" cy="359.875" fill="#84BE84" rx="3" ry="3" style="stroke: #038048; stroke-width: 1.0;"/><text fill="#000000" font-family="sans-serif" font-size="11" lengthAdjust="spacingAndGlyphs" textLength="90" x="27" y="364.2939">getNodeicon(): URI</text><ellipse cx="18" cy="373.7109" fill="#84BE84" rx="3" ry="3" style="stroke: #038048; stroke-width: 1.0;"/><text fill="#000000" font-family="sans-serif" font-size="11" lengthAdjust="spacingAndGlyphs" textLength="110" x="27" y="378.1299">setNodeicon(URI): void</text><ellipse cx="18" cy="387.5469" fill="#84BE84" rx="3" ry="3" style="stroke: #038048; stroke-width: 1.0;"/><text fill="#000000" font-family="sans-serif" font-size="11" lengthAdjust="spacingAndGlyphs" textLength="350" x="27" y="391.9658">eInverseRemove(InternalEObject, int, NotificationChain): NotificationChain</text><ellipse cx="18" cy="401.3828" fill="#84BE84" rx="3" ry="3" style="stroke: #038048; stroke-width: 1.0;"/><text fill="#000000" font-family="sans-serif" font-size="11" lengthAdjust="spacingAndGlyphs" textLength="167" x="27" y="405.8018">eGet(int, boolean, boolean): Object</text><ellipse cx="18" cy="415.2188" fill="#84BE84" rx="3" ry="3" style="stroke: #038048; stroke-width: 1.0;"/><text fill="#000000" font-family="sans-serif" font-size="11" lengthAdjust="spacingAndGlyphs" textLength="104" x="27" y="419.6377">eSet(int, Object): void</text><ellipse cx="18" cy="429.0547" fill="#84BE84" rx="3" ry="3" style="stroke: #038048; stroke-width: 1.0;"/><text fill="#000000" font-family="sans-serif" font-size="11" lengthAdjust="spacingAndGlyphs" textLength="79" x="27" y="433.4736">eUnset(int): void</text><ellipse cx="18" cy="442.8906" fill="#84BE84" rx="3" ry="3" style="stroke: #038048; stroke-width: 1.0;"/><text fill="#000000" font-family="sans-serif" font-size="11" lengthAdjust="spacingAndGlyphs" textLength="93" x="27" y="447.3096">eIsSet(int): boolean</text><ellipse cx="18" cy="456.7266" fill="#84BE84" rx="3" ry="3" style="stroke: #038048; stroke-width: 1.0;"/><text fill="#000000" font-family="sans-serif" font-size="11" lengthAdjust="spacingAndGlyphs" textLength="211" x="27" y="461.1455">eBaseStructuralFeatureID(int, Class&lt;?&gt;): int</text><ellipse cx="18" cy="470.5625" fill="#84BE84" rx="3" ry="3" style="stroke: #038048; stroke-width: 1.0;"/><text fill="#000000" font-family="sans-serif" font-size="11" lengthAdjust="spacingAndGlyphs" textLength="223" x="27" y="474.9814">eDerivedStructuralFeatureID(int, Class&lt;?&gt;): int</text></a><!--MD5=[96d74128ee637182a637cecce9919dcf]
class org.eclipse.epf.uma.impl.MethodElementImpl--><a href="MethodElementImpl.html" target="_top" title="MethodElementImpl.html" xlink:actuate="onRequest" xlink:href="MethodElementImpl.html" xlink:show="new" xlink:title="MethodElementImpl.html" xlink:type="simple"><rect codeLine="25" fill="#FEFECE" filter="url(#f1cvjec6xl9nea)" height="40.1875" id="org.eclipse.epf.uma.impl.MethodElementImpl" style="stroke: #A80036; stroke-width: 1.5;" width="157" x="13" y="52.5"/><ellipse cx="28" cy="72.5938" fill="#A9DCDF" rx="11" ry="11" style="stroke: #A80036; stroke-width: 1.0;"/><path d="M30.1875,74.3594 L26.0469,74.3594 L25.625,75.3906 L26.0469,75.3906 Q26.6563,75.3906 26.9219,75.625 Q27.1875,75.8594 27.1875,76.25 Q27.1875,76.625 26.9219,76.8594 Q26.6563,77.0938 26.0469,77.0938 L23.75,77.0938 Q23.1406,77.0938 22.8906,76.8594 Q22.625,76.625 22.625,76.2344 Q22.625,75.8594 22.9063,75.625 Q23.1719,75.375 23.7969,75.3906 L26.4688,68.7344 L25.3594,68.7344 Q24.75,68.7344 24.4844,68.5 Q24.2188,68.2656 24.2188,67.875 Q24.2188,67.5 24.4844,67.2656 Q24.75,67.0313 25.3594,67.0313 L29.0313,67.0313 L32.4219,75.3906 Q33.0156,75.3906 33.2031,75.5313 Q33.5938,75.7969 33.5938,76.25 Q33.5938,76.625 33.3281,76.8594 Q33.0781,77.0938 32.4688,77.0938 L30.1719,77.0938 Q29.5625,77.0938 29.2969,76.8594 Q29.0313,76.625 29.0313,76.2344 Q29.0313,75.8594 29.2969,75.625 Q29.5625,75.3906 30.1719,75.3906 L30.5938,75.3906 L30.1875,74.3594 Z M29.4688,72.6563 L28.1094,69.2813 L26.7344,72.6563 L29.4688,72.6563 Z "/><text fill="#000000" font-family="sans-serif" font-size="14" font-style="italic" lengthAdjust="spacingAndGlyphs" textLength="125" x="42" y="72.0332">MethodElementImpl</text><text fill="#000000" font-family="sans-serif" font-size="10" font-style="italic" lengthAdjust="spacingAndGlyphs" textLength="114" x="47.5" y="85.4902">org.eclipse.epf.uma.impl</text></a><!--MD5=[f4ee302b1aabe817dbe53b02b19666f1]
class org.eclipse.epf.uma.DescribableElement--><a href="..\DescribableElement.html" target="_top" title="..\DescribableElement.html" xlink:actuate="onRequest" xlink:href="..\DescribableElement.html" xlink:show="new" xlink:title="..\DescribableElement.html" xlink:type="simple"><rect codeLine="26" fill="#FEFECE" filter="url(#f1cvjec6xl9nea)" height="131.2031" id="org.eclipse.epf.uma.DescribableElement" style="stroke: #A80036; stroke-width: 1.5;" width="232" x="205.5" y="7"/><ellipse cx="254.25" cy="27.0938" fill="#B4A7E5" rx="11" ry="11" style="stroke: #A80036; stroke-width: 1.0;"/><path d="M255.2031,23.7344 L255.2031,30.3906 L256.9219,30.3906 Q257.5313,30.3906 257.7969,30.625 Q258.0625,30.8594 258.0625,31.25 Q258.0625,31.625 257.7969,31.8594 Q257.5313,32.0938 256.9219,32.0938 L251.7813,32.0938 Q251.1719,32.0938 250.9063,31.8594 Q250.6406,31.625 250.6406,31.2344 Q250.6406,30.8594 250.9063,30.625 Q251.1719,30.3906 251.7813,30.3906 L253.5,30.3906 L253.5,23.7344 L251.7813,23.7344 Q251.1719,23.7344 250.9063,23.5 Q250.6406,23.2656 250.6406,22.875 Q250.6406,22.5 250.9063,22.2656 Q251.1719,22.0313 251.7813,22.0313 L256.9219,22.0313 Q257.5313,22.0313 257.7969,22.2656 Q258.0625,22.5 258.0625,22.875 Q258.0625,23.2656 257.7969,23.5 Q257.5313,23.7344 256.9219,23.7344 L255.2031,23.7344 Z "/><text fill="#000000" font-family="sans-serif" font-size="14" font-style="italic" lengthAdjust="spacingAndGlyphs" textLength="126" x="274.75" y="26.5332">DescribableElement</text><text fill="#000000" font-family="sans-serif" font-size="10" font-style="italic" lengthAdjust="spacingAndGlyphs" textLength="92" x="291.75" y="39.9902">org.eclipse.epf.uma</text><line style="stroke: #A80036; stroke-width: 1.5;" x1="206.5" x2="436.5" y1="47.1875" y2="47.1875"/><ellipse cx="216.5" cy="58.1875" fill="#84BE84" rx="3" ry="3" style="stroke: #038048; stroke-width: 1.0;"/><text fill="#000000" font-family="sans-serif" font-size="11" font-style="italic" lengthAdjust="spacingAndGlyphs" textLength="186" x="225.5" y="62.6064">getPresentation(): ContentDescription</text><ellipse cx="216.5" cy="72.0234" fill="#84BE84" rx="3" ry="3" style="stroke: #038048; stroke-width: 1.0;"/><text fill="#000000" font-family="sans-serif" font-size="11" font-style="italic" lengthAdjust="spacingAndGlyphs" textLength="206" x="225.5" y="76.4424">setPresentation(ContentDescription): void</text><ellipse cx="216.5" cy="85.8594" fill="#84BE84" rx="3" ry="3" style="stroke: #038048; stroke-width: 1.0;"/><text fill="#000000" font-family="sans-serif" font-size="11" font-style="italic" lengthAdjust="spacingAndGlyphs" textLength="99" x="225.5" y="90.2783">getShapeicon(): URI</text><ellipse cx="216.5" cy="99.6953" fill="#84BE84" rx="3" ry="3" style="stroke: #038048; stroke-width: 1.0;"/><text fill="#000000" font-family="sans-serif" font-size="11" font-style="italic" lengthAdjust="spacingAndGlyphs" textLength="119" x="225.5" y="104.1143">setShapeicon(URI): void</text><ellipse cx="216.5" cy="113.5313" fill="#84BE84" rx="3" ry="3" style="stroke: #038048; stroke-width: 1.0;"/><text fill="#000000" font-family="sans-serif" font-size="11" font-style="italic" lengthAdjust="spacingAndGlyphs" textLength="94" x="225.5" y="117.9502">getNodeicon(): URI</text><ellipse cx="216.5" cy="127.3672" fill="#84BE84" rx="3" ry="3" style="stroke: #038048; stroke-width: 1.0;"/><text fill="#000000" font-family="sans-serif" font-size="11" font-style="italic" lengthAdjust="spacingAndGlyphs" textLength="114" x="225.5" y="131.7861">setNodeicon(URI): void</text></a><!--MD5=[dcfb4bc0dd1aafe9703b559f969303ee]
reverse link org.eclipse.epf.uma.impl.MethodElementImpl to org.eclipse.epf.uma.impl.DescribableElementImpl--><path codeLine="35" d="M107.78,111.01 C117.85,134.23 131.49,165.65 145.41,197.73 " fill="none" id="org.eclipse.epf.uma.impl.MethodElementImpl-backto-org.eclipse.epf.uma.impl.DescribableElementImpl" style="stroke: #A80036; stroke-width: 1.0;"/><polygon fill="none" points="101.31,113.69,99.77,92.56,114.15,108.12,101.31,113.69" style="stroke: #A80036; stroke-width: 1.0;"/><!--MD5=[38eecd1d5b61e3a9c94cae39ed92bd17]
reverse link org.eclipse.epf.uma.DescribableElement to org.eclipse.epf.uma.impl.DescribableElementImpl--><path codeLine="36" d="M285.28,156.96 C279.58,170.09 273.56,183.97 267.49,197.97 " fill="none" id="org.eclipse.epf.uma.DescribableElement-backto-org.eclipse.epf.uma.impl.DescribableElementImpl" style="stroke: #A80036; stroke-width: 1.0; stroke-dasharray: 7.0,7.0;"/><polygon fill="none" points="278.98,153.89,293.37,138.33,291.83,159.46,278.98,153.89" style="stroke: #A80036; stroke-width: 1.0;"/><text fill="#888888" font-family="sans-serif" font-size="10" lengthAdjust="spacingAndGlyphs" textLength="190" x="124.25" y="504.7793">UMLDoclet 2.0.12, PlantUML 1.2020.16</text><!--MD5=[53c48efbd8d401aeeea4a20975f31984]
@startuml
    set namespaceSeparator none
    hide empty fields
    hide empty methods

    abstract class "<size:14>DescribableElementImpl\n<size:10>org.eclipse.epf.uma.impl" as org.eclipse.epf.uma.impl.DescribableElementImpl [[DescribableElementImpl.html]] {
        +getIsAbstract(): Boolean
        +setIsAbstract(Boolean): void
        +getPresentation(): ContentDescription
        +basicGetPresentation(): ContentDescription
        +basicSetPresentation(ContentDescription, NotificationChain): NotificationChain
        +setPresentation(ContentDescription): void
        +getShapeicon(): URI
        +setShapeicon(URI): void
        +getNodeicon(): URI
        +setNodeicon(URI): void
        +eInverseRemove(InternalEObject, int, NotificationChain): NotificationChain
        +eGet(int, boolean, boolean): Object
        +eSet(int, Object): void
        +eUnset(int): void
        +eIsSet(int): boolean
        +eBaseStructuralFeatureID(int, Class<?>): int
        +eDerivedStructuralFeatureID(int, Class<?>): int
    }

    abstract class "<size:14>MethodElementImpl\n<size:10>org.eclipse.epf.uma.impl" as org.eclipse.epf.uma.impl.MethodElementImpl [[MethodElementImpl.html]]
    interface "<size:14>DescribableElement\n<size:10>org.eclipse.epf.uma" as org.eclipse.epf.uma.DescribableElement [[..\DescribableElement.html]] {
        {abstract} +getPresentation(): ContentDescription
        {abstract} +setPresentation(ContentDescription): void
        {abstract} +getShapeicon(): URI
        {abstract} +setShapeicon(URI): void
        {abstract} +getNodeicon(): URI
        {abstract} +setNodeicon(URI): void
    }

    org.eclipse.epf.uma.impl.MethodElementImpl <|- - org.eclipse.epf.uma.impl.DescribableElementImpl
    org.eclipse.epf.uma.DescribableElement <|.. org.eclipse.epf.uma.impl.DescribableElementImpl

    center footer UMLDoclet 2.0.12, PlantUML 1.2020.16
@enduml

PlantUML version 1.2020.16(Sun Aug 23 22:20:43 CEST 2020)
(APACHE source distribution)
Java Runtime: Java(TM) SE Runtime Environment
JVM: Java HotSpot(TM) 64-Bit Server VM
Default Encoding: Cp1252
Language: es
Country: ES
--></g></svg>