<?xml version="1.0" encoding="UTF-8" standalone="no"?><svg xmlns="http://www.w3.org/2000/svg" xmlns:xlink="http://www.w3.org/1999/xlink" contentScriptType="application/ecmascript" contentStyleType="text/css" height="366px" preserveAspectRatio="none" style="width:490px;height:366px;" version="1.1" viewBox="0 0 490 366" width="490px" zoomAndPan="magnify"><defs><filter height="300%" id="f1ifx1170bw433" width="300%" x="-1" y="-1"><feGaussianBlur result="blurOut" stdDeviation="2.0"/><feColorMatrix in="blurOut" result="blurOut2" type="matrix" values="0 0 0 0 0 0 0 0 0 0 0 0 0 0 0 0 0 0 .4 0"/><feOffset dx="4.0" dy="4.0" in="blurOut2" result="blurOut3"/><feBlend in="SourceGraphic" in2="blurOut3" mode="normal"/></filter></defs><g><!--MD5=[165a2d5387423aae99d78796ca3bc826]
class org.eclipse.epf.uma.impl.DescriptorImpl--><a href="DescriptorImpl.html" target="_top" title="DescriptorImpl.html" xlink:actuate="onRequest" xlink:href="DescriptorImpl.html" xlink:show="new" xlink:title="DescriptorImpl.html" xlink:type="simple"><rect codeLine="5" fill="#FEFECE" filter="url(#f1ifx1170bw433)" height="158.875" id="org.eclipse.epf.uma.impl.DescriptorImpl" style="stroke: #A80036; stroke-width: 1.5;" width="245" x="99.5" y="171"/><ellipse cx="160.75" cy="191.0938" fill="#A9DCDF" rx="11" ry="11" style="stroke: #A80036; stroke-width: 1.0;"/><path d="M162.9375,192.8594 L158.7969,192.8594 L158.375,193.8906 L158.7969,193.8906 Q159.4063,193.8906 159.6719,194.125 Q159.9375,194.3594 159.9375,194.75 Q159.9375,195.125 159.6719,195.3594 Q159.4063,195.5938 158.7969,195.5938 L156.5,195.5938 Q155.8906,195.5938 155.6406,195.3594 Q155.375,195.125 155.375,194.7344 Q155.375,194.3594 155.6563,194.125 Q155.9219,193.875 156.5469,193.8906 L159.2188,187.2344 L158.1094,187.2344 Q157.5,187.2344 157.2344,187 Q156.9688,186.7656 156.9688,186.375 Q156.9688,186 157.2344,185.7656 Q157.5,185.5313 158.1094,185.5313 L161.7813,185.5313 L165.1719,193.8906 Q165.7656,193.8906 165.9531,194.0313 Q166.3438,194.2969 166.3438,194.75 Q166.3438,195.125 166.0781,195.3594 Q165.8281,195.5938 165.2188,195.5938 L162.9219,195.5938 Q162.3125,195.5938 162.0469,195.3594 Q161.7813,195.125 161.7813,194.7344 Q161.7813,194.3594 162.0469,194.125 Q162.3125,193.8906 162.9219,193.8906 L163.3438,193.8906 L162.9375,192.8594 Z M162.2188,191.1563 L160.8594,187.7813 L159.4844,191.1563 L162.2188,191.1563 Z "/><text fill="#000000" font-family="sans-serif" font-size="14" font-style="italic" lengthAdjust="spacingAndGlyphs" textLength="91" x="192.75" y="190.5332">DescriptorImpl</text><text fill="#000000" font-family="sans-serif" font-size="10" font-style="italic" lengthAdjust="spacingAndGlyphs" textLength="114" x="181.25" y="203.9902">org.eclipse.epf.uma.impl</text><line style="stroke: #A80036; stroke-width: 1.5;" x1="100.5" x2="343.5" y1="211.1875" y2="211.1875"/><ellipse cx="110.5" cy="222.1875" fill="#84BE84" rx="3" ry="3" style="stroke: #038048; stroke-width: 1.0;"/><text fill="#000000" font-family="sans-serif" font-size="11" lengthAdjust="spacingAndGlyphs" textLength="199" x="119.5" y="226.6064">getIsSynchronizedWithSource(): Boolean</text><ellipse cx="110.5" cy="236.0234" fill="#84BE84" rx="3" ry="3" style="stroke: #038048; stroke-width: 1.0;"/><text fill="#000000" font-family="sans-serif" font-size="11" lengthAdjust="spacingAndGlyphs" textLength="219" x="119.5" y="240.4424">setIsSynchronizedWithSource(Boolean): void</text><ellipse cx="110.5" cy="249.8594" fill="#84BE84" rx="3" ry="3" style="stroke: #038048; stroke-width: 1.0;"/><text fill="#000000" font-family="sans-serif" font-size="11" lengthAdjust="spacingAndGlyphs" textLength="194" x="119.5" y="254.2783">getGuidanceExclude(): EList&lt;Guidance&gt;</text><ellipse cx="110.5" cy="263.6953" fill="#84BE84" rx="3" ry="3" style="stroke: #038048; stroke-width: 1.0;"/><text fill="#000000" font-family="sans-serif" font-size="11" lengthAdjust="spacingAndGlyphs" textLength="203" x="119.5" y="268.1143">getGuidanceAdditional(): EList&lt;Guidance&gt;</text><ellipse cx="110.5" cy="277.5313" fill="#84BE84" rx="3" ry="3" style="stroke: #038048; stroke-width: 1.0;"/><text fill="#000000" font-family="sans-serif" font-size="11" lengthAdjust="spacingAndGlyphs" textLength="167" x="119.5" y="281.9502">eGet(int, boolean, boolean): Object</text><ellipse cx="110.5" cy="291.3672" fill="#84BE84" rx="3" ry="3" style="stroke: #038048; stroke-width: 1.0;"/><text fill="#000000" font-family="sans-serif" font-size="11" lengthAdjust="spacingAndGlyphs" textLength="104" x="119.5" y="295.7861">eSet(int, Object): void</text><ellipse cx="110.5" cy="305.2031" fill="#84BE84" rx="3" ry="3" style="stroke: #038048; stroke-width: 1.0;"/><text fill="#000000" font-family="sans-serif" font-size="11" lengthAdjust="spacingAndGlyphs" textLength="79" x="119.5" y="309.6221">eUnset(int): void</text><ellipse cx="110.5" cy="319.0391" fill="#84BE84" rx="3" ry="3" style="stroke: #038048; stroke-width: 1.0;"/><text fill="#000000" font-family="sans-serif" font-size="11" lengthAdjust="spacingAndGlyphs" textLength="93" x="119.5" y="323.458">eIsSet(int): boolean</text></a><!--MD5=[1b431a39b513a232f6a911769ed0ae3f]
class org.eclipse.epf.uma.impl.BreakdownElementImpl--><a href="BreakdownElementImpl.html" target="_top" title="BreakdownElementImpl.html" xlink:actuate="onRequest" xlink:href="BreakdownElementImpl.html" xlink:show="new" xlink:title="BreakdownElementImpl.html" xlink:type="simple"><rect codeLine="16" fill="#FEFECE" filter="url(#f1ifx1170bw433)" height="40.1875" id="org.eclipse.epf.uma.impl.BreakdownElementImpl" style="stroke: #A80036; stroke-width: 1.5;" width="180" x="7" y="39"/><ellipse cx="22" cy="59.0938" fill="#A9DCDF" rx="11" ry="11" style="stroke: #A80036; stroke-width: 1.0;"/><path d="M24.1875,60.8594 L20.0469,60.8594 L19.625,61.8906 L20.0469,61.8906 Q20.6563,61.8906 20.9219,62.125 Q21.1875,62.3594 21.1875,62.75 Q21.1875,63.125 20.9219,63.3594 Q20.6563,63.5938 20.0469,63.5938 L17.75,63.5938 Q17.1406,63.5938 16.8906,63.3594 Q16.625,63.125 16.625,62.7344 Q16.625,62.3594 16.9063,62.125 Q17.1719,61.875 17.7969,61.8906 L20.4688,55.2344 L19.3594,55.2344 Q18.75,55.2344 18.4844,55 Q18.2188,54.7656 18.2188,54.375 Q18.2188,54 18.4844,53.7656 Q18.75,53.5313 19.3594,53.5313 L23.0313,53.5313 L26.4219,61.8906 Q27.0156,61.8906 27.2031,62.0313 Q27.5938,62.2969 27.5938,62.75 Q27.5938,63.125 27.3281,63.3594 Q27.0781,63.5938 26.4688,63.5938 L24.1719,63.5938 Q23.5625,63.5938 23.2969,63.3594 Q23.0313,63.125 23.0313,62.7344 Q23.0313,62.3594 23.2969,62.125 Q23.5625,61.8906 24.1719,61.8906 L24.5938,61.8906 L24.1875,60.8594 Z M23.4688,59.1563 L22.1094,55.7813 L20.7344,59.1563 L23.4688,59.1563 Z "/><text fill="#000000" font-family="sans-serif" font-size="14" font-style="italic" lengthAdjust="spacingAndGlyphs" textLength="148" x="36" y="58.5332">BreakdownElementImpl</text><text fill="#000000" font-family="sans-serif" font-size="10" font-style="italic" lengthAdjust="spacingAndGlyphs" textLength="114" x="53" y="71.9902">org.eclipse.epf.uma.impl</text></a><!--MD5=[e2aea4f57378d8bf0d95e9671773c115]
class org.eclipse.epf.uma.Descriptor--><a href="..\Descriptor.html" target="_top" title="..\Descriptor.html" xlink:actuate="onRequest" xlink:href="..\Descriptor.html" xlink:show="new" xlink:title="..\Descriptor.html" xlink:type="simple"><rect codeLine="17" fill="#FEFECE" filter="url(#f1ifx1170bw433)" height="103.5313" id="org.eclipse.epf.uma.Descriptor" style="stroke: #A80036; stroke-width: 1.5;" width="249" x="222.5" y="7"/><ellipse cx="296.75" cy="27.0938" fill="#B4A7E5" rx="11" ry="11" style="stroke: #A80036; stroke-width: 1.0;"/><path d="M297.7031,23.7344 L297.7031,30.3906 L299.4219,30.3906 Q300.0313,30.3906 300.2969,30.625 Q300.5625,30.8594 300.5625,31.25 Q300.5625,31.625 300.2969,31.8594 Q300.0313,32.0938 299.4219,32.0938 L294.2813,32.0938 Q293.6719,32.0938 293.4063,31.8594 Q293.1406,31.625 293.1406,31.2344 Q293.1406,30.8594 293.4063,30.625 Q293.6719,30.3906 294.2813,30.3906 L296,30.3906 L296,23.7344 L294.2813,23.7344 Q293.6719,23.7344 293.4063,23.5 Q293.1406,23.2656 293.1406,22.875 Q293.1406,22.5 293.4063,22.2656 Q293.6719,22.0313 294.2813,22.0313 L299.4219,22.0313 Q300.0313,22.0313 300.2969,22.2656 Q300.5625,22.5 300.5625,22.875 Q300.5625,23.2656 300.2969,23.5 Q300.0313,23.7344 299.4219,23.7344 L297.7031,23.7344 Z "/><text fill="#000000" font-family="sans-serif" font-size="14" font-style="italic" lengthAdjust="spacingAndGlyphs" textLength="65" x="330.75" y="26.5332">Descriptor</text><text fill="#000000" font-family="sans-serif" font-size="10" font-style="italic" lengthAdjust="spacingAndGlyphs" textLength="92" x="317.25" y="39.9902">org.eclipse.epf.uma</text><line style="stroke: #A80036; stroke-width: 1.5;" x1="223.5" x2="470.5" y1="47.1875" y2="47.1875"/><ellipse cx="233.5" cy="58.1875" fill="#84BE84" rx="3" ry="3" style="stroke: #038048; stroke-width: 1.0;"/><text fill="#000000" font-family="sans-serif" font-size="11" font-style="italic" lengthAdjust="spacingAndGlyphs" textLength="203" x="242.5" y="62.6064">getIsSynchronizedWithSource(): Boolean</text><ellipse cx="233.5" cy="72.0234" fill="#84BE84" rx="3" ry="3" style="stroke: #038048; stroke-width: 1.0;"/><text fill="#000000" font-family="sans-serif" font-size="11" font-style="italic" lengthAdjust="spacingAndGlyphs" textLength="223" x="242.5" y="76.4424">setIsSynchronizedWithSource(Boolean): void</text><ellipse cx="233.5" cy="85.8594" fill="#84BE84" rx="3" ry="3" style="stroke: #038048; stroke-width: 1.0;"/><text fill="#000000" font-family="sans-serif" font-size="11" font-style="italic" lengthAdjust="spacingAndGlyphs" textLength="202" x="242.5" y="90.2783">getGuidanceExclude(): EList&lt;Guidance&gt;</text><ellipse cx="233.5" cy="99.6953" fill="#84BE84" rx="3" ry="3" style="stroke: #038048; stroke-width: 1.0;"/><text fill="#000000" font-family="sans-serif" font-size="11" font-style="italic" lengthAdjust="spacingAndGlyphs" textLength="211" x="242.5" y="104.1143">getGuidanceAdditional(): EList&lt;Guidance&gt;</text></a><!--MD5=[dc79f0ea35d7bc46acb42d7fcaa500d8]
reverse link org.eclipse.epf.uma.impl.BreakdownElementImpl to org.eclipse.epf.uma.impl.DescriptorImpl--><path codeLine="24" d="M120.7,95.93 C134.66,117.09 152.88,144.71 170.01,170.69 " fill="none" id="org.eclipse.epf.uma.impl.BreakdownElementImpl-backto-org.eclipse.epf.uma.impl.DescriptorImpl" style="stroke: #A80036; stroke-width: 1.0;"/><polygon fill="none" points="114.84,99.76,109.67,79.21,126.53,92.05,114.84,99.76" style="stroke: #A80036; stroke-width: 1.0;"/><!--MD5=[098f0672f5eb7ff3dc3bbfa39f08b7df]
reverse link org.eclipse.epf.uma.Descriptor to org.eclipse.epf.uma.impl.DescriptorImpl--><path codeLine="25" d="M302,128.22 C292.9,142.01 283.27,156.62 273.95,170.74 " fill="none" id="org.eclipse.epf.uma.Descriptor-backto-org.eclipse.epf.uma.impl.DescriptorImpl" style="stroke: #A80036; stroke-width: 1.0; stroke-dasharray: 7.0,7.0;"/><polygon fill="none" points="296.32,124.12,313.17,111.28,308,131.83,296.32,124.12" style="stroke: #A80036; stroke-width: 1.0;"/><text fill="#888888" font-family="sans-serif" font-size="10" lengthAdjust="spacingAndGlyphs" textLength="190" x="141.25" y="353.2559">UMLDoclet 2.0.12, PlantUML 1.2020.16</text><!--MD5=[e292339d5180c57e1f5a91de952f1d12]
@startuml
    set namespaceSeparator none
    hide empty fields
    hide empty methods

    abstract class "<size:14>DescriptorImpl\n<size:10>org.eclipse.epf.uma.impl" as org.eclipse.epf.uma.impl.DescriptorImpl [[DescriptorImpl.html]] {
        +getIsSynchronizedWithSource(): Boolean
        +setIsSynchronizedWithSource(Boolean): void
        +getGuidanceExclude(): EList<Guidance>
        +getGuidanceAdditional(): EList<Guidance>
        +eGet(int, boolean, boolean): Object
        +eSet(int, Object): void
        +eUnset(int): void
        +eIsSet(int): boolean
    }

    abstract class "<size:14>BreakdownElementImpl\n<size:10>org.eclipse.epf.uma.impl" as org.eclipse.epf.uma.impl.BreakdownElementImpl [[BreakdownElementImpl.html]]
    interface "<size:14>Descriptor\n<size:10>org.eclipse.epf.uma" as org.eclipse.epf.uma.Descriptor [[..\Descriptor.html]] {
        {abstract} +getIsSynchronizedWithSource(): Boolean
        {abstract} +setIsSynchronizedWithSource(Boolean): void
        {abstract} +getGuidanceExclude(): EList<Guidance>
        {abstract} +getGuidanceAdditional(): EList<Guidance>
    }

    org.eclipse.epf.uma.impl.BreakdownElementImpl <|- - org.eclipse.epf.uma.impl.DescriptorImpl
    org.eclipse.epf.uma.Descriptor <|.. org.eclipse.epf.uma.impl.DescriptorImpl

    center footer UMLDoclet 2.0.12, PlantUML 1.2020.16
@enduml

PlantUML version 1.2020.16(Sun Aug 23 22:20:43 CEST 2020)
(APACHE source distribution)
Java Runtime: Java(TM) SE Runtime Environment
JVM: Java HotSpot(TM) 64-Bit Server VM
Default Encoding: Cp1252
Language: es
Country: ES
--></g></svg>