<?xml version="1.0" encoding="UTF-8" standalone="no"?><svg xmlns="http://www.w3.org/2000/svg" xmlns:xlink="http://www.w3.org/1999/xlink" contentScriptType="application/ecmascript" contentStyleType="text/css" height="490px" preserveAspectRatio="none" style="width:418px;height:490px;" version="1.1" viewBox="0 0 418 490" width="418px" zoomAndPan="magnify"><defs><filter height="300%" id="fn1g7mlilmj9v" width="300%" x="-1" y="-1"><feGaussianBlur result="blurOut" stdDeviation="2.0"/><feColorMatrix in="blurOut" result="blurOut2" type="matrix" values="0 0 0 0 0 0 0 0 0 0 0 0 0 0 0 0 0 0 .4 0"/><feOffset dx="4.0" dy="4.0" in="blurOut2" result="blurOut3"/><feBlend in="SourceGraphic" in2="blurOut3" mode="normal"/></filter></defs><g><!--MD5=[1c2b459c5c50809e62270736e90e6bdc]
class org.eclipse.epf.uma.impl.DiagramElementImpl--><a href="DiagramElementImpl.html" target="_top" title="DiagramElementImpl.html" xlink:actuate="onRequest" xlink:href="DiagramElementImpl.html" xlink:show="new" xlink:title="DiagramElementImpl.html" xlink:type="simple"><rect codeLine="5" fill="#FEFECE" filter="url(#fn1g7mlilmj9v)" height="255.7266" id="org.eclipse.epf.uma.impl.DiagramElementImpl" style="stroke: #A80036; stroke-width: 1.5;" width="379" x="7" y="198"/><ellipse cx="127.25" cy="218.0938" fill="#A9DCDF" rx="11" ry="11" style="stroke: #A80036; stroke-width: 1.0;"/><path d="M129.4375,219.8594 L125.2969,219.8594 L124.875,220.8906 L125.2969,220.8906 Q125.9063,220.8906 126.1719,221.125 Q126.4375,221.3594 126.4375,221.75 Q126.4375,222.125 126.1719,222.3594 Q125.9063,222.5938 125.2969,222.5938 L123,222.5938 Q122.3906,222.5938 122.1406,222.3594 Q121.875,222.125 121.875,221.7344 Q121.875,221.3594 122.1563,221.125 Q122.4219,220.875 123.0469,220.8906 L125.7188,214.2344 L124.6094,214.2344 Q124,214.2344 123.7344,214 Q123.4688,213.7656 123.4688,213.375 Q123.4688,213 123.7344,212.7656 Q124,212.5313 124.6094,212.5313 L128.2813,212.5313 L131.6719,220.8906 Q132.2656,220.8906 132.4531,221.0313 Q132.8438,221.2969 132.8438,221.75 Q132.8438,222.125 132.5781,222.3594 Q132.3281,222.5938 131.7188,222.5938 L129.4219,222.5938 Q128.8125,222.5938 128.5469,222.3594 Q128.2813,222.125 128.2813,221.7344 Q128.2813,221.3594 128.5469,221.125 Q128.8125,220.8906 129.4219,220.8906 L129.8438,220.8906 L129.4375,219.8594 Z M128.7188,218.1563 L127.3594,214.7813 L125.9844,218.1563 L128.7188,218.1563 Z "/><text fill="#000000" font-family="sans-serif" font-size="14" font-style="italic" lengthAdjust="spacingAndGlyphs" textLength="130" x="147.75" y="217.5332">DiagramElementImpl</text><text fill="#000000" font-family="sans-serif" font-size="10" font-style="italic" lengthAdjust="spacingAndGlyphs" textLength="114" x="155.75" y="230.9902">org.eclipse.epf.uma.impl</text><line style="stroke: #A80036; stroke-width: 1.5;" x1="8" x2="385" y1="238.1875" y2="238.1875"/><ellipse cx="18" cy="249.1875" fill="#84BE84" rx="3" ry="3" style="stroke: #038048; stroke-width: 1.0;"/><text fill="#000000" font-family="sans-serif" font-size="11" lengthAdjust="spacingAndGlyphs" textLength="108" x="27" y="253.6064">getIsVisible(): Boolean</text><ellipse cx="18" cy="263.0234" fill="#84BE84" rx="3" ry="3" style="stroke: #038048; stroke-width: 1.0;"/><text fill="#000000" font-family="sans-serif" font-size="11" lengthAdjust="spacingAndGlyphs" textLength="128" x="27" y="267.4424">setIsVisible(Boolean): void</text><ellipse cx="18" cy="276.8594" fill="#84BE84" rx="3" ry="3" style="stroke: #038048; stroke-width: 1.0;"/><text fill="#000000" font-family="sans-serif" font-size="11" lengthAdjust="spacingAndGlyphs" textLength="142" x="27" y="281.2783">getContainer(): GraphElement</text><ellipse cx="18" cy="290.6953" fill="#84BE84" rx="3" ry="3" style="stroke: #038048; stroke-width: 1.0;"/><text fill="#000000" font-family="sans-serif" font-size="11" lengthAdjust="spacingAndGlyphs" textLength="170" x="27" y="295.1143">basicGetContainer(): GraphElement</text><ellipse cx="18" cy="304.5313" fill="#84BE84" rx="3" ry="3" style="stroke: #038048; stroke-width: 1.0;"/><text fill="#000000" font-family="sans-serif" font-size="11" lengthAdjust="spacingAndGlyphs" textLength="335" x="27" y="308.9502">basicSetContainer(GraphElement, NotificationChain): NotificationChain</text><ellipse cx="18" cy="318.3672" fill="#84BE84" rx="3" ry="3" style="stroke: #038048; stroke-width: 1.0;"/><text fill="#000000" font-family="sans-serif" font-size="11" lengthAdjust="spacingAndGlyphs" textLength="162" x="27" y="322.7861">setContainer(GraphElement): void</text><ellipse cx="18" cy="332.2031" fill="#84BE84" rx="3" ry="3" style="stroke: #038048; stroke-width: 1.0;"/><text fill="#000000" font-family="sans-serif" font-size="11" lengthAdjust="spacingAndGlyphs" textLength="166" x="27" y="336.6221">getReference(): EList&lt;Reference&gt;</text><ellipse cx="18" cy="346.0391" fill="#84BE84" rx="3" ry="3" style="stroke: #038048; stroke-width: 1.0;"/><text fill="#000000" font-family="sans-serif" font-size="11" lengthAdjust="spacingAndGlyphs" textLength="146" x="27" y="350.458">getProperty(): EList&lt;Property&gt;</text><ellipse cx="18" cy="359.875" fill="#84BE84" rx="3" ry="3" style="stroke: #038048; stroke-width: 1.0;"/><text fill="#000000" font-family="sans-serif" font-size="11" lengthAdjust="spacingAndGlyphs" textLength="331" x="27" y="364.2939">eInverseAdd(InternalEObject, int, NotificationChain): NotificationChain</text><ellipse cx="18" cy="373.7109" fill="#84BE84" rx="3" ry="3" style="stroke: #038048; stroke-width: 1.0;"/><text fill="#000000" font-family="sans-serif" font-size="11" lengthAdjust="spacingAndGlyphs" textLength="350" x="27" y="378.1299">eInverseRemove(InternalEObject, int, NotificationChain): NotificationChain</text><ellipse cx="18" cy="387.5469" fill="#84BE84" rx="3" ry="3" style="stroke: #038048; stroke-width: 1.0;"/><text fill="#000000" font-family="sans-serif" font-size="11" lengthAdjust="spacingAndGlyphs" textLength="353" x="27" y="391.9658">eBasicRemoveFromContainerFeature(NotificationChain): NotificationChain</text><ellipse cx="18" cy="401.3828" fill="#84BE84" rx="3" ry="3" style="stroke: #038048; stroke-width: 1.0;"/><text fill="#000000" font-family="sans-serif" font-size="11" lengthAdjust="spacingAndGlyphs" textLength="167" x="27" y="405.8018">eGet(int, boolean, boolean): Object</text><ellipse cx="18" cy="415.2188" fill="#84BE84" rx="3" ry="3" style="stroke: #038048; stroke-width: 1.0;"/><text fill="#000000" font-family="sans-serif" font-size="11" lengthAdjust="spacingAndGlyphs" textLength="104" x="27" y="419.6377">eSet(int, Object): void</text><ellipse cx="18" cy="429.0547" fill="#84BE84" rx="3" ry="3" style="stroke: #038048; stroke-width: 1.0;"/><text fill="#000000" font-family="sans-serif" font-size="11" lengthAdjust="spacingAndGlyphs" textLength="79" x="27" y="433.4736">eUnset(int): void</text><ellipse cx="18" cy="442.8906" fill="#84BE84" rx="3" ry="3" style="stroke: #038048; stroke-width: 1.0;"/><text fill="#000000" font-family="sans-serif" font-size="11" lengthAdjust="spacingAndGlyphs" textLength="93" x="27" y="447.3096">eIsSet(int): boolean</text></a><!--MD5=[96d74128ee637182a637cecce9919dcf]
class org.eclipse.epf.uma.impl.MethodElementImpl--><a href="MethodElementImpl.html" target="_top" title="MethodElementImpl.html" xlink:actuate="onRequest" xlink:href="MethodElementImpl.html" xlink:show="new" xlink:title="MethodElementImpl.html" xlink:type="simple"><rect codeLine="23" fill="#FEFECE" filter="url(#fn1g7mlilmj9v)" height="40.1875" id="org.eclipse.epf.uma.impl.MethodElementImpl" style="stroke: #A80036; stroke-width: 1.5;" width="157" x="13" y="52.5"/><ellipse cx="28" cy="72.5938" fill="#A9DCDF" rx="11" ry="11" style="stroke: #A80036; stroke-width: 1.0;"/><path d="M30.1875,74.3594 L26.0469,74.3594 L25.625,75.3906 L26.0469,75.3906 Q26.6563,75.3906 26.9219,75.625 Q27.1875,75.8594 27.1875,76.25 Q27.1875,76.625 26.9219,76.8594 Q26.6563,77.0938 26.0469,77.0938 L23.75,77.0938 Q23.1406,77.0938 22.8906,76.8594 Q22.625,76.625 22.625,76.2344 Q22.625,75.8594 22.9063,75.625 Q23.1719,75.375 23.7969,75.3906 L26.4688,68.7344 L25.3594,68.7344 Q24.75,68.7344 24.4844,68.5 Q24.2188,68.2656 24.2188,67.875 Q24.2188,67.5 24.4844,67.2656 Q24.75,67.0313 25.3594,67.0313 L29.0313,67.0313 L32.4219,75.3906 Q33.0156,75.3906 33.2031,75.5313 Q33.5938,75.7969 33.5938,76.25 Q33.5938,76.625 33.3281,76.8594 Q33.0781,77.0938 32.4688,77.0938 L30.1719,77.0938 Q29.5625,77.0938 29.2969,76.8594 Q29.0313,76.625 29.0313,76.2344 Q29.0313,75.8594 29.2969,75.625 Q29.5625,75.3906 30.1719,75.3906 L30.5938,75.3906 L30.1875,74.3594 Z M29.4688,72.6563 L28.1094,69.2813 L26.7344,72.6563 L29.4688,72.6563 Z "/><text fill="#000000" font-family="sans-serif" font-size="14" font-style="italic" lengthAdjust="spacingAndGlyphs" textLength="125" x="42" y="72.0332">MethodElementImpl</text><text fill="#000000" font-family="sans-serif" font-size="10" font-style="italic" lengthAdjust="spacingAndGlyphs" textLength="114" x="47.5" y="85.4902">org.eclipse.epf.uma.impl</text></a><!--MD5=[267d9fa064d21b4acbe47d4366e1aad1]
class org.eclipse.epf.uma.DiagramElement--><a href="..\DiagramElement.html" target="_top" title="..\DiagramElement.html" xlink:actuate="onRequest" xlink:href="..\DiagramElement.html" xlink:show="new" xlink:title="..\DiagramElement.html" xlink:type="simple"><rect codeLine="24" fill="#FEFECE" filter="url(#fn1g7mlilmj9v)" height="131.2031" id="org.eclipse.epf.uma.DiagramElement" style="stroke: #A80036; stroke-width: 1.5;" width="194" x="205.5" y="7"/><ellipse cx="246.6" cy="27.0938" fill="#B4A7E5" rx="11" ry="11" style="stroke: #A80036; stroke-width: 1.0;"/><path d="M247.5531,23.7344 L247.5531,30.3906 L249.2719,30.3906 Q249.8813,30.3906 250.1469,30.625 Q250.4125,30.8594 250.4125,31.25 Q250.4125,31.625 250.1469,31.8594 Q249.8813,32.0938 249.2719,32.0938 L244.1313,32.0938 Q243.5219,32.0938 243.2563,31.8594 Q242.9906,31.625 242.9906,31.2344 Q242.9906,30.8594 243.2563,30.625 Q243.5219,30.3906 244.1313,30.3906 L245.85,30.3906 L245.85,23.7344 L244.1313,23.7344 Q243.5219,23.7344 243.2563,23.5 Q242.9906,23.2656 242.9906,22.875 Q242.9906,22.5 243.2563,22.2656 Q243.5219,22.0313 244.1313,22.0313 L249.2719,22.0313 Q249.8813,22.0313 250.1469,22.2656 Q250.4125,22.5 250.4125,22.875 Q250.4125,23.2656 250.1469,23.5 Q249.8813,23.7344 249.2719,23.7344 L247.5531,23.7344 Z "/><text fill="#000000" font-family="sans-serif" font-size="14" font-style="italic" lengthAdjust="spacingAndGlyphs" textLength="104" x="266.4" y="26.5332">DiagramElement</text><text fill="#000000" font-family="sans-serif" font-size="10" font-style="italic" lengthAdjust="spacingAndGlyphs" textLength="92" x="272.4" y="39.9902">org.eclipse.epf.uma</text><line style="stroke: #A80036; stroke-width: 1.5;" x1="206.5" x2="398.5" y1="47.1875" y2="47.1875"/><ellipse cx="216.5" cy="58.1875" fill="#84BE84" rx="3" ry="3" style="stroke: #038048; stroke-width: 1.0;"/><text fill="#000000" font-family="sans-serif" font-size="11" font-style="italic" lengthAdjust="spacingAndGlyphs" textLength="113" x="225.5" y="62.6064">getIsVisible(): Boolean</text><ellipse cx="216.5" cy="72.0234" fill="#84BE84" rx="3" ry="3" style="stroke: #038048; stroke-width: 1.0;"/><text fill="#000000" font-family="sans-serif" font-size="11" font-style="italic" lengthAdjust="spacingAndGlyphs" textLength="133" x="225.5" y="76.4424">setIsVisible(Boolean): void</text><ellipse cx="216.5" cy="85.8594" fill="#84BE84" rx="3" ry="3" style="stroke: #038048; stroke-width: 1.0;"/><text fill="#000000" font-family="sans-serif" font-size="11" font-style="italic" lengthAdjust="spacingAndGlyphs" textLength="148" x="225.5" y="90.2783">getContainer(): GraphElement</text><ellipse cx="216.5" cy="99.6953" fill="#84BE84" rx="3" ry="3" style="stroke: #038048; stroke-width: 1.0;"/><text fill="#000000" font-family="sans-serif" font-size="11" font-style="italic" lengthAdjust="spacingAndGlyphs" textLength="168" x="225.5" y="104.1143">setContainer(GraphElement): void</text><ellipse cx="216.5" cy="113.5313" fill="#84BE84" rx="3" ry="3" style="stroke: #038048; stroke-width: 1.0;"/><text fill="#000000" font-family="sans-serif" font-size="11" font-style="italic" lengthAdjust="spacingAndGlyphs" textLength="168" x="225.5" y="117.9502">getReference(): EList&lt;Reference&gt;</text><ellipse cx="216.5" cy="127.3672" fill="#84BE84" rx="3" ry="3" style="stroke: #038048; stroke-width: 1.0;"/><text fill="#000000" font-family="sans-serif" font-size="11" font-style="italic" lengthAdjust="spacingAndGlyphs" textLength="148" x="225.5" y="131.7861">getProperty(): EList&lt;Property&gt;</text></a><!--MD5=[ac3ab6db7fc0d4c235e9009c0d1e5810]
reverse link org.eclipse.epf.uma.impl.MethodElementImpl to org.eclipse.epf.uma.impl.DiagramElementImpl--><path codeLine="33" d="M107.34,111.45 C117.12,134.85 130.27,166.36 143.46,197.97 " fill="none" id="org.eclipse.epf.uma.impl.MethodElementImpl-backto-org.eclipse.epf.uma.impl.DiagramElementImpl" style="stroke: #A80036; stroke-width: 1.0;"/><polygon fill="none" points="100.81,113.97,99.56,92.82,113.73,108.58,100.81,113.97" style="stroke: #A80036; stroke-width: 1.0;"/><!--MD5=[bf299db13592c212230cde4ec057431a]
reverse link org.eclipse.epf.uma.DiagramElement to org.eclipse.epf.uma.impl.DiagramElementImpl--><path codeLine="34" d="M267.32,156.98 C261.77,170.14 255.92,184.01 250.07,197.9 " fill="none" id="org.eclipse.epf.uma.DiagramElement-backto-org.eclipse.epf.uma.impl.DiagramElementImpl" style="stroke: #A80036; stroke-width: 1.0; stroke-dasharray: 7.0,7.0;"/><polygon fill="none" points="260.98,153.98,275.2,138.27,273.89,159.42,260.98,153.98" style="stroke: #A80036; stroke-width: 1.0;"/><text fill="#888888" font-family="sans-serif" font-size="10" lengthAdjust="spacingAndGlyphs" textLength="190" x="105.25" y="477.1074">UMLDoclet 2.0.12, PlantUML 1.2020.16</text><!--MD5=[2e0f46834c7e335a7b1ffb31b3b276dc]
@startuml
    set namespaceSeparator none
    hide empty fields
    hide empty methods

    abstract class "<size:14>DiagramElementImpl\n<size:10>org.eclipse.epf.uma.impl" as org.eclipse.epf.uma.impl.DiagramElementImpl [[DiagramElementImpl.html]] {
        +getIsVisible(): Boolean
        +setIsVisible(Boolean): void
        +getContainer(): GraphElement
        +basicGetContainer(): GraphElement
        +basicSetContainer(GraphElement, NotificationChain): NotificationChain
        +setContainer(GraphElement): void
        +getReference(): EList<Reference>
        +getProperty(): EList<Property>
        +eInverseAdd(InternalEObject, int, NotificationChain): NotificationChain
        +eInverseRemove(InternalEObject, int, NotificationChain): NotificationChain
        +eBasicRemoveFromContainerFeature(NotificationChain): NotificationChain
        +eGet(int, boolean, boolean): Object
        +eSet(int, Object): void
        +eUnset(int): void
        +eIsSet(int): boolean
    }

    abstract class "<size:14>MethodElementImpl\n<size:10>org.eclipse.epf.uma.impl" as org.eclipse.epf.uma.impl.MethodElementImpl [[MethodElementImpl.html]]
    interface "<size:14>DiagramElement\n<size:10>org.eclipse.epf.uma" as org.eclipse.epf.uma.DiagramElement [[..\DiagramElement.html]] {
        {abstract} +getIsVisible(): Boolean
        {abstract} +setIsVisible(Boolean): void
        {abstract} +getContainer(): GraphElement
        {abstract} +setContainer(GraphElement): void
        {abstract} +getReference(): EList<Reference>
        {abstract} +getProperty(): EList<Property>
    }

    org.eclipse.epf.uma.impl.MethodElementImpl <|- - org.eclipse.epf.uma.impl.DiagramElementImpl
    org.eclipse.epf.uma.DiagramElement <|.. org.eclipse.epf.uma.impl.DiagramElementImpl

    center footer UMLDoclet 2.0.12, PlantUML 1.2020.16
@enduml

PlantUML version 1.2020.16(Sun Aug 23 22:20:43 CEST 2020)
(APACHE source distribution)
Java Runtime: Java(TM) SE Runtime Environment
JVM: Java HotSpot(TM) 64-Bit Server VM
Default Encoding: Cp1252
Language: es
Country: ES
--></g></svg>