<?xml version="1.0" encoding="UTF-8" standalone="no"?><svg xmlns="http://www.w3.org/2000/svg" xmlns:xlink="http://www.w3.org/1999/xlink" contentScriptType="application/ecmascript" contentStyleType="text/css" height="518px" preserveAspectRatio="none" style="width:467px;height:518px;" version="1.1" viewBox="0 0 467 518" width="467px" zoomAndPan="magnify"><defs><filter height="300%" id="f1rs4by4wwxsg4" width="300%" x="-1" y="-1"><feGaussianBlur result="blurOut" stdDeviation="2.0"/><feColorMatrix in="blurOut" result="blurOut2" type="matrix" values="0 0 0 0 0 0 0 0 0 0 0 0 0 0 0 0 0 0 .4 0"/><feOffset dx="4.0" dy="4.0" in="blurOut2" result="blurOut3"/><feBlend in="SourceGraphic" in2="blurOut3" mode="normal"/></filter></defs><g><!--MD5=[470c3f1d48b9f19cfeac2a6a8f7b720b]
class org.eclipse.epf.uma.impl.DiagramImpl--><a href="DiagramImpl.html" target="_top" title="DiagramImpl.html" xlink:actuate="onRequest" xlink:href="DiagramImpl.html" xlink:show="new" xlink:title="DiagramImpl.html" xlink:type="simple"><rect codeLine="5" fill="#FEFECE" filter="url(#f1rs4by4wwxsg4)" height="269.5625" id="org.eclipse.epf.uma.impl.DiagramImpl" style="stroke: #A80036; stroke-width: 1.5;" width="408" x="7" y="212"/><ellipse cx="147.75" cy="232.0938" fill="#ADD1B2" rx="11" ry="11" style="stroke: #A80036; stroke-width: 1.0;"/><path d="M150.5156,227.9688 Q150.6719,227.75 150.8594,227.6406 Q151.0469,227.5313 151.2656,227.5313 Q151.6406,227.5313 151.875,227.7969 Q152.1094,228.0469 152.1094,228.6563 L152.1094,230.1094 Q152.1094,230.7188 151.875,230.9844 Q151.6406,231.25 151.2656,231.25 Q150.9219,231.25 150.7188,231.0469 Q150.5156,230.8594 150.4063,230.3438 Q150.3594,229.9844 150.1719,229.7969 Q149.8438,229.4219 149.2344,229.2031 Q148.625,228.9844 148,228.9844 Q147.2344,228.9844 146.5938,229.3125 Q145.9688,229.6406 145.4688,230.3906 Q144.9844,231.1406 144.9844,232.1719 L144.9844,233.2656 Q144.9844,234.5 145.875,235.3281 Q146.7656,236.1406 148.3594,236.1406 Q149.2969,236.1406 149.9531,235.8906 Q150.3438,235.7344 150.7656,235.2969 Q151.0313,235.0313 151.1719,234.9531 Q151.3281,234.875 151.5313,234.875 Q151.8594,234.875 152.1094,235.1406 Q152.375,235.3906 152.375,235.7344 Q152.375,236.0781 152.0313,236.4844 Q151.5313,237.0625 150.7344,237.3906 Q149.6563,237.8438 148.3594,237.8438 Q146.8438,237.8438 145.6406,237.2188 Q144.6563,236.7188 143.9688,235.6563 Q143.2813,234.5781 143.2813,233.2969 L143.2813,232.1406 Q143.2813,230.8125 143.8906,229.6719 Q144.5156,228.5156 145.6094,227.9063 Q146.7031,227.2813 147.9375,227.2813 Q148.6719,227.2813 149.3125,227.4531 Q149.9688,227.6094 150.5156,227.9688 Z "/><text fill="#000000" font-family="sans-serif" font-size="14" lengthAdjust="spacingAndGlyphs" textLength="78" x="188.25" y="231.5332">DiagramImpl</text><text fill="#000000" font-family="sans-serif" font-size="10" lengthAdjust="spacingAndGlyphs" textLength="118" x="168.25" y="244.9902">org.eclipse.epf.uma.impl</text><line style="stroke: #A80036; stroke-width: 1.5;" x1="8" x2="414" y1="252.1875" y2="252.1875"/><ellipse cx="18" cy="263.1875" fill="#84BE84" rx="3" ry="3" style="stroke: #038048; stroke-width: 1.0;"/><text fill="#000000" font-family="sans-serif" font-size="11" lengthAdjust="spacingAndGlyphs" textLength="180" x="27" y="267.6064">getDiagramLink(): EList&lt;DiagramLink&gt;</text><ellipse cx="18" cy="277.0234" fill="#84BE84" rx="3" ry="3" style="stroke: #038048; stroke-width: 1.0;"/><text fill="#000000" font-family="sans-serif" font-size="11" lengthAdjust="spacingAndGlyphs" textLength="189" x="27" y="281.4424">getNamespace(): SemanticModelBridge</text><ellipse cx="18" cy="290.8594" fill="#84BE84" rx="3" ry="3" style="stroke: #038048; stroke-width: 1.0;"/><text fill="#000000" font-family="sans-serif" font-size="11" lengthAdjust="spacingAndGlyphs" textLength="217" x="27" y="295.2783">basicGetNamespace(): SemanticModelBridge</text><ellipse cx="18" cy="304.6953" fill="#84BE84" rx="3" ry="3" style="stroke: #038048; stroke-width: 1.0;"/><text fill="#000000" font-family="sans-serif" font-size="11" lengthAdjust="spacingAndGlyphs" textLength="382" x="27" y="309.1143">basicSetNamespace(SemanticModelBridge, NotificationChain): NotificationChain</text><ellipse cx="18" cy="318.5313" fill="#84BE84" rx="3" ry="3" style="stroke: #038048; stroke-width: 1.0;"/><text fill="#000000" font-family="sans-serif" font-size="11" lengthAdjust="spacingAndGlyphs" textLength="209" x="27" y="322.9502">setNamespace(SemanticModelBridge): void</text><ellipse cx="18" cy="332.3672" fill="#84BE84" rx="3" ry="3" style="stroke: #038048; stroke-width: 1.0;"/><text fill="#000000" font-family="sans-serif" font-size="11" lengthAdjust="spacingAndGlyphs" textLength="89" x="27" y="336.7861">getZoom(): Double</text><ellipse cx="18" cy="346.2031" fill="#84BE84" rx="3" ry="3" style="stroke: #038048; stroke-width: 1.0;"/><text fill="#000000" font-family="sans-serif" font-size="11" lengthAdjust="spacingAndGlyphs" textLength="109" x="27" y="350.6221">setZoom(Double): void</text><ellipse cx="18" cy="360.0391" fill="#84BE84" rx="3" ry="3" style="stroke: #038048; stroke-width: 1.0;"/><text fill="#000000" font-family="sans-serif" font-size="11" lengthAdjust="spacingAndGlyphs" textLength="101" x="27" y="364.458">getViewpoint(): Point</text><ellipse cx="18" cy="373.875" fill="#84BE84" rx="3" ry="3" style="stroke: #038048; stroke-width: 1.0;"/><text fill="#000000" font-family="sans-serif" font-size="11" lengthAdjust="spacingAndGlyphs" textLength="129" x="27" y="378.2939">basicGetViewpoint(): Point</text><ellipse cx="18" cy="387.7109" fill="#84BE84" rx="3" ry="3" style="stroke: #038048; stroke-width: 1.0;"/><text fill="#000000" font-family="sans-serif" font-size="11" lengthAdjust="spacingAndGlyphs" textLength="121" x="27" y="392.1299">setViewpoint(Point): void</text><ellipse cx="18" cy="401.5469" fill="#84BE84" rx="3" ry="3" style="stroke: #038048; stroke-width: 1.0;"/><text fill="#000000" font-family="sans-serif" font-size="11" lengthAdjust="spacingAndGlyphs" textLength="331" x="27" y="405.9658">eInverseAdd(InternalEObject, int, NotificationChain): NotificationChain</text><ellipse cx="18" cy="415.3828" fill="#84BE84" rx="3" ry="3" style="stroke: #038048; stroke-width: 1.0;"/><text fill="#000000" font-family="sans-serif" font-size="11" lengthAdjust="spacingAndGlyphs" textLength="350" x="27" y="419.8018">eInverseRemove(InternalEObject, int, NotificationChain): NotificationChain</text><ellipse cx="18" cy="429.2188" fill="#84BE84" rx="3" ry="3" style="stroke: #038048; stroke-width: 1.0;"/><text fill="#000000" font-family="sans-serif" font-size="11" lengthAdjust="spacingAndGlyphs" textLength="167" x="27" y="433.6377">eGet(int, boolean, boolean): Object</text><ellipse cx="18" cy="443.0547" fill="#84BE84" rx="3" ry="3" style="stroke: #038048; stroke-width: 1.0;"/><text fill="#000000" font-family="sans-serif" font-size="11" lengthAdjust="spacingAndGlyphs" textLength="104" x="27" y="447.4736">eSet(int, Object): void</text><ellipse cx="18" cy="456.8906" fill="#84BE84" rx="3" ry="3" style="stroke: #038048; stroke-width: 1.0;"/><text fill="#000000" font-family="sans-serif" font-size="11" lengthAdjust="spacingAndGlyphs" textLength="79" x="27" y="461.3096">eUnset(int): void</text><ellipse cx="18" cy="470.7266" fill="#84BE84" rx="3" ry="3" style="stroke: #038048; stroke-width: 1.0;"/><text fill="#000000" font-family="sans-serif" font-size="11" lengthAdjust="spacingAndGlyphs" textLength="93" x="27" y="475.1455">eIsSet(int): boolean</text></a><!--MD5=[06ee894c91d1cde09c2c36dc5f5d9264]
class org.eclipse.epf.uma.impl.GraphNodeImpl--><a href="GraphNodeImpl.html" target="_top" title="GraphNodeImpl.html" xlink:actuate="onRequest" xlink:href="GraphNodeImpl.html" xlink:show="new" xlink:title="GraphNodeImpl.html" xlink:type="simple"><rect codeLine="24" fill="#FEFECE" filter="url(#f1rs4by4wwxsg4)" height="40.1875" id="org.eclipse.epf.uma.impl.GraphNodeImpl" style="stroke: #A80036; stroke-width: 1.5;" width="150" x="21" y="59.5"/><ellipse cx="36" cy="79.5938" fill="#ADD1B2" rx="11" ry="11" style="stroke: #A80036; stroke-width: 1.0;"/><path d="M38.7656,75.4688 Q38.9219,75.25 39.1094,75.1406 Q39.2969,75.0313 39.5156,75.0313 Q39.8906,75.0313 40.125,75.2969 Q40.3594,75.5469 40.3594,76.1563 L40.3594,77.6094 Q40.3594,78.2188 40.125,78.4844 Q39.8906,78.75 39.5156,78.75 Q39.1719,78.75 38.9688,78.5469 Q38.7656,78.3594 38.6563,77.8438 Q38.6094,77.4844 38.4219,77.2969 Q38.0938,76.9219 37.4844,76.7031 Q36.875,76.4844 36.25,76.4844 Q35.4844,76.4844 34.8438,76.8125 Q34.2188,77.1406 33.7188,77.8906 Q33.2344,78.6406 33.2344,79.6719 L33.2344,80.7656 Q33.2344,82 34.125,82.8281 Q35.0156,83.6406 36.6094,83.6406 Q37.5469,83.6406 38.2031,83.3906 Q38.5938,83.2344 39.0156,82.7969 Q39.2813,82.5313 39.4219,82.4531 Q39.5781,82.375 39.7813,82.375 Q40.1094,82.375 40.3594,82.6406 Q40.625,82.8906 40.625,83.2344 Q40.625,83.5781 40.2813,83.9844 Q39.7813,84.5625 38.9844,84.8906 Q37.9063,85.3438 36.6094,85.3438 Q35.0938,85.3438 33.8906,84.7188 Q32.9063,84.2188 32.2188,83.1563 Q31.5313,82.0781 31.5313,80.7969 L31.5313,79.6406 Q31.5313,78.3125 32.1406,77.1719 Q32.7656,76.0156 33.8594,75.4063 Q34.9531,74.7813 36.1875,74.7813 Q36.9219,74.7813 37.5625,74.9531 Q38.2188,75.1094 38.7656,75.4688 Z "/><text fill="#000000" font-family="sans-serif" font-size="14" lengthAdjust="spacingAndGlyphs" textLength="98" x="60" y="79.0332">GraphNodeImpl</text><text fill="#000000" font-family="sans-serif" font-size="10" lengthAdjust="spacingAndGlyphs" textLength="118" x="50" y="92.4902">org.eclipse.epf.uma.impl</text></a><!--MD5=[532232f9f3f4404941a1caa807876935]
class org.eclipse.epf.uma.Diagram--><a href="..\Diagram.html" target="_top" title="..\Diagram.html" xlink:actuate="onRequest" xlink:href="..\Diagram.html" xlink:show="new" xlink:title="..\Diagram.html" xlink:type="simple"><rect codeLine="25" fill="#FEFECE" filter="url(#f1rs4by4wwxsg4)" height="145.0391" id="org.eclipse.epf.uma.Diagram" style="stroke: #A80036; stroke-width: 1.5;" width="242" x="206" y="7"/><ellipse cx="276.75" cy="27.0938" fill="#B4A7E5" rx="11" ry="11" style="stroke: #A80036; stroke-width: 1.0;"/><path d="M277.7031,23.7344 L277.7031,30.3906 L279.4219,30.3906 Q280.0313,30.3906 280.2969,30.625 Q280.5625,30.8594 280.5625,31.25 Q280.5625,31.625 280.2969,31.8594 Q280.0313,32.0938 279.4219,32.0938 L274.2813,32.0938 Q273.6719,32.0938 273.4063,31.8594 Q273.1406,31.625 273.1406,31.2344 Q273.1406,30.8594 273.4063,30.625 Q273.6719,30.3906 274.2813,30.3906 L276,30.3906 L276,23.7344 L274.2813,23.7344 Q273.6719,23.7344 273.4063,23.5 Q273.1406,23.2656 273.1406,22.875 Q273.1406,22.5 273.4063,22.2656 Q273.6719,22.0313 274.2813,22.0313 L279.4219,22.0313 Q280.0313,22.0313 280.2969,22.2656 Q280.5625,22.5 280.5625,22.875 Q280.5625,23.2656 280.2969,23.5 Q280.0313,23.7344 279.4219,23.7344 L277.7031,23.7344 Z "/><text fill="#000000" font-family="sans-serif" font-size="14" font-style="italic" lengthAdjust="spacingAndGlyphs" textLength="53" x="316.75" y="26.5332">Diagram</text><text fill="#000000" font-family="sans-serif" font-size="10" font-style="italic" lengthAdjust="spacingAndGlyphs" textLength="92" x="297.25" y="39.9902">org.eclipse.epf.uma</text><line style="stroke: #A80036; stroke-width: 1.5;" x1="207" x2="447" y1="47.1875" y2="47.1875"/><ellipse cx="217" cy="58.1875" fill="#84BE84" rx="3" ry="3" style="stroke: #038048; stroke-width: 1.0;"/><text fill="#000000" font-family="sans-serif" font-size="11" font-style="italic" lengthAdjust="spacingAndGlyphs" textLength="192" x="226" y="62.6064">getDiagramLink(): EList&lt;DiagramLink&gt;</text><ellipse cx="217" cy="72.0234" fill="#84BE84" rx="3" ry="3" style="stroke: #038048; stroke-width: 1.0;"/><text fill="#000000" font-family="sans-serif" font-size="11" font-style="italic" lengthAdjust="spacingAndGlyphs" textLength="196" x="226" y="76.4424">getNamespace(): SemanticModelBridge</text><ellipse cx="217" cy="85.8594" fill="#84BE84" rx="3" ry="3" style="stroke: #038048; stroke-width: 1.0;"/><text fill="#000000" font-family="sans-serif" font-size="11" font-style="italic" lengthAdjust="spacingAndGlyphs" textLength="216" x="226" y="90.2783">setNamespace(SemanticModelBridge): void</text><ellipse cx="217" cy="99.6953" fill="#84BE84" rx="3" ry="3" style="stroke: #038048; stroke-width: 1.0;"/><text fill="#000000" font-family="sans-serif" font-size="11" font-style="italic" lengthAdjust="spacingAndGlyphs" textLength="93" x="226" y="104.1143">getZoom(): Double</text><ellipse cx="217" cy="113.5313" fill="#84BE84" rx="3" ry="3" style="stroke: #038048; stroke-width: 1.0;"/><text fill="#000000" font-family="sans-serif" font-size="11" font-style="italic" lengthAdjust="spacingAndGlyphs" textLength="113" x="226" y="117.9502">setZoom(Double): void</text><ellipse cx="217" cy="127.3672" fill="#84BE84" rx="3" ry="3" style="stroke: #038048; stroke-width: 1.0;"/><text fill="#000000" font-family="sans-serif" font-size="11" font-style="italic" lengthAdjust="spacingAndGlyphs" textLength="101" x="226" y="131.7861">getViewpoint(): Point</text><ellipse cx="217" cy="141.2031" fill="#84BE84" rx="3" ry="3" style="stroke: #038048; stroke-width: 1.0;"/><text fill="#000000" font-family="sans-serif" font-size="11" font-style="italic" lengthAdjust="spacingAndGlyphs" textLength="121" x="226" y="145.6221">setViewpoint(Point): void</text></a><!--MD5=[2e2f8b723be41e532392e3b5af5e22bd]
reverse link org.eclipse.epf.uma.impl.GraphNodeImpl to org.eclipse.epf.uma.impl.DiagramImpl--><path codeLine="35" d="M112.28,118.1 C123.07,143 137.94,177.33 152.86,211.78 " fill="none" id="org.eclipse.epf.uma.impl.GraphNodeImpl-backto-org.eclipse.epf.uma.impl.DiagramImpl" style="stroke: #A80036; stroke-width: 1.0;"/><polygon fill="none" points="105.8,120.73,104.27,99.59,118.64,115.16,105.8,120.73" style="stroke: #A80036; stroke-width: 1.0;"/><!--MD5=[ca0e394f4bf29bd8461411664797f249]
reverse link org.eclipse.epf.uma.Diagram to org.eclipse.epf.uma.impl.DiagramImpl--><path codeLine="36" d="M287.6,170.69 C281.78,184 275.68,197.96 269.57,211.94 " fill="none" id="org.eclipse.epf.uma.Diagram-backto-org.eclipse.epf.uma.impl.DiagramImpl" style="stroke: #A80036; stroke-width: 1.0; stroke-dasharray: 7.0,7.0;"/><polygon fill="none" points="281.19,167.87,295.61,152.35,294.02,173.48,281.19,167.87" style="stroke: #A80036; stroke-width: 1.0;"/><text fill="#888888" font-family="sans-serif" font-size="10" lengthAdjust="spacingAndGlyphs" textLength="190" x="129.5" y="504.9434">UMLDoclet 2.0.12, PlantUML 1.2020.16</text><!--MD5=[273219bdff85aa7b8b05f4082b3d0c80]
@startuml
    set namespaceSeparator none
    hide empty fields
    hide empty methods

    class "<size:14>DiagramImpl\n<size:10>org.eclipse.epf.uma.impl" as org.eclipse.epf.uma.impl.DiagramImpl [[DiagramImpl.html]] {
        +getDiagramLink(): EList<DiagramLink>
        +getNamespace(): SemanticModelBridge
        +basicGetNamespace(): SemanticModelBridge
        +basicSetNamespace(SemanticModelBridge, NotificationChain): NotificationChain
        +setNamespace(SemanticModelBridge): void
        +getZoom(): Double
        +setZoom(Double): void
        +getViewpoint(): Point
        +basicGetViewpoint(): Point
        +setViewpoint(Point): void
        +eInverseAdd(InternalEObject, int, NotificationChain): NotificationChain
        +eInverseRemove(InternalEObject, int, NotificationChain): NotificationChain
        +eGet(int, boolean, boolean): Object
        +eSet(int, Object): void
        +eUnset(int): void
        +eIsSet(int): boolean
    }

    class "<size:14>GraphNodeImpl\n<size:10>org.eclipse.epf.uma.impl" as org.eclipse.epf.uma.impl.GraphNodeImpl [[GraphNodeImpl.html]]
    interface "<size:14>Diagram\n<size:10>org.eclipse.epf.uma" as org.eclipse.epf.uma.Diagram [[..\Diagram.html]] {
        {abstract} +getDiagramLink(): EList<DiagramLink>
        {abstract} +getNamespace(): SemanticModelBridge
        {abstract} +setNamespace(SemanticModelBridge): void
        {abstract} +getZoom(): Double
        {abstract} +setZoom(Double): void
        {abstract} +getViewpoint(): Point
        {abstract} +setViewpoint(Point): void
    }

    org.eclipse.epf.uma.impl.GraphNodeImpl <|- - org.eclipse.epf.uma.impl.DiagramImpl
    org.eclipse.epf.uma.Diagram <|.. org.eclipse.epf.uma.impl.DiagramImpl

    center footer UMLDoclet 2.0.12, PlantUML 1.2020.16
@enduml

PlantUML version 1.2020.16(Sun Aug 23 22:20:43 CEST 2020)
(APACHE source distribution)
Java Runtime: Java(TM) SE Runtime Environment
JVM: Java HotSpot(TM) 64-Bit Server VM
Default Encoding: Cp1252
Language: es
Country: ES
--></g></svg>