<?xml version="1.0" encoding="UTF-8" standalone="no"?><svg xmlns="http://www.w3.org/2000/svg" xmlns:xlink="http://www.w3.org/1999/xlink" contentScriptType="application/ecmascript" contentStyleType="text/css" height="587px" preserveAspectRatio="none" style="width:440px;height:587px;" version="1.1" viewBox="0 0 440 587" width="440px" zoomAndPan="magnify"><defs><filter height="300%" id="fyas5t5yd9dmk" width="300%" x="-1" y="-1"><feGaussianBlur result="blurOut" stdDeviation="2.0"/><feColorMatrix in="blurOut" result="blurOut2" type="matrix" values="0 0 0 0 0 0 0 0 0 0 0 0 0 0 0 0 0 0 .4 0"/><feOffset dx="4.0" dy="4.0" in="blurOut2" result="blurOut3"/><feBlend in="SourceGraphic" in2="blurOut3" mode="normal"/></filter></defs><g><!--MD5=[ec55c5070a449cb3a1a8e4b176cfbe9f]
class org.eclipse.epf.uma.impl.DiagramLinkImpl--><a href="DiagramLinkImpl.html" target="_top" title="DiagramLinkImpl.html" xlink:actuate="onRequest" xlink:href="DiagramLinkImpl.html" xlink:show="new" xlink:title="DiagramLinkImpl.html" xlink:type="simple"><rect codeLine="5" fill="#FEFECE" filter="url(#fyas5t5yd9dmk)" height="324.9063" id="org.eclipse.epf.uma.impl.DiagramLinkImpl" style="stroke: #A80036; stroke-width: 1.5;" width="382" x="9" y="226"/><ellipse cx="136.75" cy="246.0938" fill="#ADD1B2" rx="11" ry="11" style="stroke: #A80036; stroke-width: 1.0;"/><path d="M139.5156,241.9688 Q139.6719,241.75 139.8594,241.6406 Q140.0469,241.5313 140.2656,241.5313 Q140.6406,241.5313 140.875,241.7969 Q141.1094,242.0469 141.1094,242.6563 L141.1094,244.1094 Q141.1094,244.7188 140.875,244.9844 Q140.6406,245.25 140.2656,245.25 Q139.9219,245.25 139.7188,245.0469 Q139.5156,244.8594 139.4063,244.3438 Q139.3594,243.9844 139.1719,243.7969 Q138.8438,243.4219 138.2344,243.2031 Q137.625,242.9844 137,242.9844 Q136.2344,242.9844 135.5938,243.3125 Q134.9688,243.6406 134.4688,244.3906 Q133.9844,245.1406 133.9844,246.1719 L133.9844,247.2656 Q133.9844,248.5 134.875,249.3281 Q135.7656,250.1406 137.3594,250.1406 Q138.2969,250.1406 138.9531,249.8906 Q139.3438,249.7344 139.7656,249.2969 Q140.0313,249.0313 140.1719,248.9531 Q140.3281,248.875 140.5313,248.875 Q140.8594,248.875 141.1094,249.1406 Q141.375,249.3906 141.375,249.7344 Q141.375,250.0781 141.0313,250.4844 Q140.5313,251.0625 139.7344,251.3906 Q138.6563,251.8438 137.3594,251.8438 Q135.8438,251.8438 134.6406,251.2188 Q133.6563,250.7188 132.9688,249.6563 Q132.2813,248.5781 132.2813,247.2969 L132.2813,246.1406 Q132.2813,244.8125 132.8906,243.6719 Q133.5156,242.5156 134.6094,241.9063 Q135.7031,241.2813 136.9375,241.2813 Q137.6719,241.2813 138.3125,241.4531 Q138.9688,241.6094 139.5156,241.9688 Z "/><text fill="#000000" font-family="sans-serif" font-size="14" lengthAdjust="spacingAndGlyphs" textLength="104" x="164.25" y="245.5332">DiagramLinkImpl</text><text fill="#000000" font-family="sans-serif" font-size="10" lengthAdjust="spacingAndGlyphs" textLength="118" x="157.25" y="258.9902">org.eclipse.epf.uma.impl</text><line style="stroke: #A80036; stroke-width: 1.5;" x1="10" x2="390" y1="266.1875" y2="266.1875"/><ellipse cx="20" cy="277.1875" fill="#84BE84" rx="3" ry="3" style="stroke: #038048; stroke-width: 1.0;"/><text fill="#000000" font-family="sans-serif" font-size="11" lengthAdjust="spacingAndGlyphs" textLength="89" x="29" y="281.6064">getZoom(): Double</text><ellipse cx="20" cy="291.0234" fill="#84BE84" rx="3" ry="3" style="stroke: #038048; stroke-width: 1.0;"/><text fill="#000000" font-family="sans-serif" font-size="11" lengthAdjust="spacingAndGlyphs" textLength="109" x="29" y="295.4424">setZoom(Double): void</text><ellipse cx="20" cy="304.8594" fill="#84BE84" rx="3" ry="3" style="stroke: #038048; stroke-width: 1.0;"/><text fill="#000000" font-family="sans-serif" font-size="11" lengthAdjust="spacingAndGlyphs" textLength="97" x="29" y="309.2783">getViewport(): Point</text><ellipse cx="20" cy="318.6953" fill="#84BE84" rx="3" ry="3" style="stroke: #038048; stroke-width: 1.0;"/><text fill="#000000" font-family="sans-serif" font-size="11" lengthAdjust="spacingAndGlyphs" textLength="125" x="29" y="323.1143">basicGetViewport(): Point</text><ellipse cx="20" cy="332.5313" fill="#84BE84" rx="3" ry="3" style="stroke: #038048; stroke-width: 1.0;"/><text fill="#000000" font-family="sans-serif" font-size="11" lengthAdjust="spacingAndGlyphs" textLength="117" x="29" y="336.9502">setViewport(Point): void</text><ellipse cx="20" cy="346.3672" fill="#84BE84" rx="3" ry="3" style="stroke: #038048; stroke-width: 1.0;"/><text fill="#000000" font-family="sans-serif" font-size="11" lengthAdjust="spacingAndGlyphs" textLength="107" x="29" y="350.7861">getDiagram(): Diagram</text><ellipse cx="20" cy="360.2031" fill="#84BE84" rx="3" ry="3" style="stroke: #038048; stroke-width: 1.0;"/><text fill="#000000" font-family="sans-serif" font-size="11" lengthAdjust="spacingAndGlyphs" textLength="135" x="29" y="364.6221">basicGetDiagram(): Diagram</text><ellipse cx="20" cy="374.0391" fill="#84BE84" rx="3" ry="3" style="stroke: #038048; stroke-width: 1.0;"/><text fill="#000000" font-family="sans-serif" font-size="11" lengthAdjust="spacingAndGlyphs" textLength="300" x="29" y="378.458">basicSetDiagram(Diagram, NotificationChain): NotificationChain</text><ellipse cx="20" cy="387.875" fill="#84BE84" rx="3" ry="3" style="stroke: #038048; stroke-width: 1.0;"/><text fill="#000000" font-family="sans-serif" font-size="11" lengthAdjust="spacingAndGlyphs" textLength="127" x="29" y="392.2939">setDiagram(Diagram): void</text><ellipse cx="20" cy="401.7109" fill="#84BE84" rx="3" ry="3" style="stroke: #038048; stroke-width: 1.0;"/><text fill="#000000" font-family="sans-serif" font-size="11" lengthAdjust="spacingAndGlyphs" textLength="163" x="29" y="406.1299">getGraphElement(): GraphElement</text><ellipse cx="20" cy="415.5469" fill="#84BE84" rx="3" ry="3" style="stroke: #038048; stroke-width: 1.0;"/><text fill="#000000" font-family="sans-serif" font-size="11" lengthAdjust="spacingAndGlyphs" textLength="191" x="29" y="419.9658">basicGetGraphElement(): GraphElement</text><ellipse cx="20" cy="429.3828" fill="#84BE84" rx="3" ry="3" style="stroke: #038048; stroke-width: 1.0;"/><text fill="#000000" font-family="sans-serif" font-size="11" lengthAdjust="spacingAndGlyphs" textLength="356" x="29" y="433.8018">basicSetGraphElement(GraphElement, NotificationChain): NotificationChain</text><ellipse cx="20" cy="443.2188" fill="#84BE84" rx="3" ry="3" style="stroke: #038048; stroke-width: 1.0;"/><text fill="#000000" font-family="sans-serif" font-size="11" lengthAdjust="spacingAndGlyphs" textLength="183" x="29" y="447.6377">setGraphElement(GraphElement): void</text><ellipse cx="20" cy="457.0547" fill="#84BE84" rx="3" ry="3" style="stroke: #038048; stroke-width: 1.0;"/><text fill="#000000" font-family="sans-serif" font-size="11" lengthAdjust="spacingAndGlyphs" textLength="331" x="29" y="461.4736">eInverseAdd(InternalEObject, int, NotificationChain): NotificationChain</text><ellipse cx="20" cy="470.8906" fill="#84BE84" rx="3" ry="3" style="stroke: #038048; stroke-width: 1.0;"/><text fill="#000000" font-family="sans-serif" font-size="11" lengthAdjust="spacingAndGlyphs" textLength="350" x="29" y="475.3096">eInverseRemove(InternalEObject, int, NotificationChain): NotificationChain</text><ellipse cx="20" cy="484.7266" fill="#84BE84" rx="3" ry="3" style="stroke: #038048; stroke-width: 1.0;"/><text fill="#000000" font-family="sans-serif" font-size="11" lengthAdjust="spacingAndGlyphs" textLength="353" x="29" y="489.1455">eBasicRemoveFromContainerFeature(NotificationChain): NotificationChain</text><ellipse cx="20" cy="498.5625" fill="#84BE84" rx="3" ry="3" style="stroke: #038048; stroke-width: 1.0;"/><text fill="#000000" font-family="sans-serif" font-size="11" lengthAdjust="spacingAndGlyphs" textLength="167" x="29" y="502.9814">eGet(int, boolean, boolean): Object</text><ellipse cx="20" cy="512.3984" fill="#84BE84" rx="3" ry="3" style="stroke: #038048; stroke-width: 1.0;"/><text fill="#000000" font-family="sans-serif" font-size="11" lengthAdjust="spacingAndGlyphs" textLength="104" x="29" y="516.8174">eSet(int, Object): void</text><ellipse cx="20" cy="526.2344" fill="#84BE84" rx="3" ry="3" style="stroke: #038048; stroke-width: 1.0;"/><text fill="#000000" font-family="sans-serif" font-size="11" lengthAdjust="spacingAndGlyphs" textLength="79" x="29" y="530.6533">eUnset(int): void</text><ellipse cx="20" cy="540.0703" fill="#84BE84" rx="3" ry="3" style="stroke: #038048; stroke-width: 1.0;"/><text fill="#000000" font-family="sans-serif" font-size="11" lengthAdjust="spacingAndGlyphs" textLength="93" x="29" y="544.4893">eIsSet(int): boolean</text></a><!--MD5=[1c2b459c5c50809e62270736e90e6bdc]
class org.eclipse.epf.uma.impl.DiagramElementImpl--><a href="DiagramElementImpl.html" target="_top" title="DiagramElementImpl.html" xlink:actuate="onRequest" xlink:href="DiagramElementImpl.html" xlink:show="new" xlink:title="DiagramElementImpl.html" xlink:type="simple"><rect codeLine="28" fill="#FEFECE" filter="url(#fyas5t5yd9dmk)" height="40.1875" id="org.eclipse.epf.uma.impl.DiagramElementImpl" style="stroke: #A80036; stroke-width: 1.5;" width="162" x="7" y="66.5"/><ellipse cx="22" cy="86.5938" fill="#A9DCDF" rx="11" ry="11" style="stroke: #A80036; stroke-width: 1.0;"/><path d="M24.1875,88.3594 L20.0469,88.3594 L19.625,89.3906 L20.0469,89.3906 Q20.6563,89.3906 20.9219,89.625 Q21.1875,89.8594 21.1875,90.25 Q21.1875,90.625 20.9219,90.8594 Q20.6563,91.0938 20.0469,91.0938 L17.75,91.0938 Q17.1406,91.0938 16.8906,90.8594 Q16.625,90.625 16.625,90.2344 Q16.625,89.8594 16.9063,89.625 Q17.1719,89.375 17.7969,89.3906 L20.4688,82.7344 L19.3594,82.7344 Q18.75,82.7344 18.4844,82.5 Q18.2188,82.2656 18.2188,81.875 Q18.2188,81.5 18.4844,81.2656 Q18.75,81.0313 19.3594,81.0313 L23.0313,81.0313 L26.4219,89.3906 Q27.0156,89.3906 27.2031,89.5313 Q27.5938,89.7969 27.5938,90.25 Q27.5938,90.625 27.3281,90.8594 Q27.0781,91.0938 26.4688,91.0938 L24.1719,91.0938 Q23.5625,91.0938 23.2969,90.8594 Q23.0313,90.625 23.0313,90.2344 Q23.0313,89.8594 23.2969,89.625 Q23.5625,89.3906 24.1719,89.3906 L24.5938,89.3906 L24.1875,88.3594 Z M23.4688,86.6563 L22.1094,83.2813 L20.7344,86.6563 L23.4688,86.6563 Z "/><text fill="#000000" font-family="sans-serif" font-size="14" font-style="italic" lengthAdjust="spacingAndGlyphs" textLength="130" x="36" y="86.0332">DiagramElementImpl</text><text fill="#000000" font-family="sans-serif" font-size="10" font-style="italic" lengthAdjust="spacingAndGlyphs" textLength="114" x="44" y="99.4902">org.eclipse.epf.uma.impl</text></a><!--MD5=[a20fec43dfcf78e3e4b899f454a0432c]
class org.eclipse.epf.uma.DiagramLink--><a href="..\DiagramLink.html" target="_top" title="..\DiagramLink.html" xlink:actuate="onRequest" xlink:href="..\DiagramLink.html" xlink:show="new" xlink:title="..\DiagramLink.html" xlink:type="simple"><rect codeLine="29" fill="#FEFECE" filter="url(#fyas5t5yd9dmk)" height="158.875" id="org.eclipse.epf.uma.DiagramLink" style="stroke: #A80036; stroke-width: 1.5;" width="217" x="204.5" y="7"/><ellipse cx="262.75" cy="27.0938" fill="#B4A7E5" rx="11" ry="11" style="stroke: #A80036; stroke-width: 1.0;"/><path d="M263.7031,23.7344 L263.7031,30.3906 L265.4219,30.3906 Q266.0313,30.3906 266.2969,30.625 Q266.5625,30.8594 266.5625,31.25 Q266.5625,31.625 266.2969,31.8594 Q266.0313,32.0938 265.4219,32.0938 L260.2813,32.0938 Q259.6719,32.0938 259.4063,31.8594 Q259.1406,31.625 259.1406,31.2344 Q259.1406,30.8594 259.4063,30.625 Q259.6719,30.3906 260.2813,30.3906 L262,30.3906 L262,23.7344 L260.2813,23.7344 Q259.6719,23.7344 259.4063,23.5 Q259.1406,23.2656 259.1406,22.875 Q259.1406,22.5 259.4063,22.2656 Q259.6719,22.0313 260.2813,22.0313 L265.4219,22.0313 Q266.0313,22.0313 266.2969,22.2656 Q266.5625,22.5 266.5625,22.875 Q266.5625,23.2656 266.2969,23.5 Q266.0313,23.7344 265.4219,23.7344 L263.7031,23.7344 Z "/><text fill="#000000" font-family="sans-serif" font-size="14" font-style="italic" lengthAdjust="spacingAndGlyphs" textLength="80" x="289.25" y="26.5332">DiagramLink</text><text fill="#000000" font-family="sans-serif" font-size="10" font-style="italic" lengthAdjust="spacingAndGlyphs" textLength="92" x="283.25" y="39.9902">org.eclipse.epf.uma</text><line style="stroke: #A80036; stroke-width: 1.5;" x1="205.5" x2="420.5" y1="47.1875" y2="47.1875"/><ellipse cx="215.5" cy="58.1875" fill="#84BE84" rx="3" ry="3" style="stroke: #038048; stroke-width: 1.0;"/><text fill="#000000" font-family="sans-serif" font-size="11" font-style="italic" lengthAdjust="spacingAndGlyphs" textLength="93" x="224.5" y="62.6064">getZoom(): Double</text><ellipse cx="215.5" cy="72.0234" fill="#84BE84" rx="3" ry="3" style="stroke: #038048; stroke-width: 1.0;"/><text fill="#000000" font-family="sans-serif" font-size="11" font-style="italic" lengthAdjust="spacingAndGlyphs" textLength="113" x="224.5" y="76.4424">setZoom(Double): void</text><ellipse cx="215.5" cy="85.8594" fill="#84BE84" rx="3" ry="3" style="stroke: #038048; stroke-width: 1.0;"/><text fill="#000000" font-family="sans-serif" font-size="11" font-style="italic" lengthAdjust="spacingAndGlyphs" textLength="96" x="224.5" y="90.2783">getViewport(): Point</text><ellipse cx="215.5" cy="99.6953" fill="#84BE84" rx="3" ry="3" style="stroke: #038048; stroke-width: 1.0;"/><text fill="#000000" font-family="sans-serif" font-size="11" font-style="italic" lengthAdjust="spacingAndGlyphs" textLength="116" x="224.5" y="104.1143">setViewport(Point): void</text><ellipse cx="215.5" cy="113.5313" fill="#84BE84" rx="3" ry="3" style="stroke: #038048; stroke-width: 1.0;"/><text fill="#000000" font-family="sans-serif" font-size="11" font-style="italic" lengthAdjust="spacingAndGlyphs" textLength="113" x="224.5" y="117.9502">getDiagram(): Diagram</text><ellipse cx="215.5" cy="127.3672" fill="#84BE84" rx="3" ry="3" style="stroke: #038048; stroke-width: 1.0;"/><text fill="#000000" font-family="sans-serif" font-size="11" font-style="italic" lengthAdjust="spacingAndGlyphs" textLength="133" x="224.5" y="131.7861">setDiagram(Diagram): void</text><ellipse cx="215.5" cy="141.2031" fill="#84BE84" rx="3" ry="3" style="stroke: #038048; stroke-width: 1.0;"/><text fill="#000000" font-family="sans-serif" font-size="11" font-style="italic" lengthAdjust="spacingAndGlyphs" textLength="171" x="224.5" y="145.6221">getGraphElement(): GraphElement</text><ellipse cx="215.5" cy="155.0391" fill="#84BE84" rx="3" ry="3" style="stroke: #038048; stroke-width: 1.0;"/><text fill="#000000" font-family="sans-serif" font-size="11" font-style="italic" lengthAdjust="spacingAndGlyphs" textLength="191" x="224.5" y="159.458">setGraphElement(GraphElement): void</text></a><!--MD5=[c4557b215e12e45adfcd6fd01f6df53d]
reverse link org.eclipse.epf.uma.impl.DiagramElementImpl to org.eclipse.epf.uma.impl.DiagramLinkImpl--><path codeLine="40" d="M102.22,125.59 C111.96,151.68 125.61,188.23 139.62,225.77 " fill="none" id="org.eclipse.epf.uma.impl.DiagramElementImpl-backto-org.eclipse.epf.uma.impl.DiagramLinkImpl" style="stroke: #A80036; stroke-width: 1.0;"/><polygon fill="none" points="95.61,127.91,95.18,106.72,108.73,123.01,95.61,127.91" style="stroke: #A80036; stroke-width: 1.0;"/><!--MD5=[0f22376fb7876b7488f338d92073e25d]
reverse link org.eclipse.epf.uma.DiagramLink to org.eclipse.epf.uma.impl.DiagramLinkImpl--><path codeLine="41" d="M276.25,185.07 C271.3,198.21 266.12,211.96 260.89,225.84 " fill="none" id="org.eclipse.epf.uma.DiagramLink-backto-org.eclipse.epf.uma.impl.DiagramLinkImpl" style="stroke: #A80036; stroke-width: 1.0; stroke-dasharray: 7.0,7.0;"/><polygon fill="none" points="269.71,182.57,283.31,166.32,282.81,187.51,269.71,182.57" style="stroke: #A80036; stroke-width: 1.0;"/><text fill="#888888" font-family="sans-serif" font-size="10" lengthAdjust="spacingAndGlyphs" textLength="190" x="116.25" y="574.2871">UMLDoclet 2.0.12, PlantUML 1.2020.16</text><!--MD5=[6309dab2b613503c9754b0cc2bf25422]
@startuml
    set namespaceSeparator none
    hide empty fields
    hide empty methods

    class "<size:14>DiagramLinkImpl\n<size:10>org.eclipse.epf.uma.impl" as org.eclipse.epf.uma.impl.DiagramLinkImpl [[DiagramLinkImpl.html]] {
        +getZoom(): Double
        +setZoom(Double): void
        +getViewport(): Point
        +basicGetViewport(): Point
        +setViewport(Point): void
        +getDiagram(): Diagram
        +basicGetDiagram(): Diagram
        +basicSetDiagram(Diagram, NotificationChain): NotificationChain
        +setDiagram(Diagram): void
        +getGraphElement(): GraphElement
        +basicGetGraphElement(): GraphElement
        +basicSetGraphElement(GraphElement, NotificationChain): NotificationChain
        +setGraphElement(GraphElement): void
        +eInverseAdd(InternalEObject, int, NotificationChain): NotificationChain
        +eInverseRemove(InternalEObject, int, NotificationChain): NotificationChain
        +eBasicRemoveFromContainerFeature(NotificationChain): NotificationChain
        +eGet(int, boolean, boolean): Object
        +eSet(int, Object): void
        +eUnset(int): void
        +eIsSet(int): boolean
    }

    abstract class "<size:14>DiagramElementImpl\n<size:10>org.eclipse.epf.uma.impl" as org.eclipse.epf.uma.impl.DiagramElementImpl [[DiagramElementImpl.html]]
    interface "<size:14>DiagramLink\n<size:10>org.eclipse.epf.uma" as org.eclipse.epf.uma.DiagramLink [[..\DiagramLink.html]] {
        {abstract} +getZoom(): Double
        {abstract} +setZoom(Double): void
        {abstract} +getViewport(): Point
        {abstract} +setViewport(Point): void
        {abstract} +getDiagram(): Diagram
        {abstract} +setDiagram(Diagram): void
        {abstract} +getGraphElement(): GraphElement
        {abstract} +setGraphElement(GraphElement): void
    }

    org.eclipse.epf.uma.impl.DiagramElementImpl <|- - org.eclipse.epf.uma.impl.DiagramLinkImpl
    org.eclipse.epf.uma.DiagramLink <|.. org.eclipse.epf.uma.impl.DiagramLinkImpl

    center footer UMLDoclet 2.0.12, PlantUML 1.2020.16
@enduml

PlantUML version 1.2020.16(Sun Aug 23 22:20:43 CEST 2020)
(APACHE source distribution)
Java Runtime: Java(TM) SE Runtime Environment
JVM: Java HotSpot(TM) 64-Bit Server VM
Default Encoding: Cp1252
Language: es
Country: ES
--></g></svg>