<?xml version="1.0" encoding="UTF-8" standalone="no"?><svg xmlns="http://www.w3.org/2000/svg" xmlns:xlink="http://www.w3.org/1999/xlink" contentScriptType="application/ecmascript" contentStyleType="text/css" height="366px" preserveAspectRatio="none" style="width:424px;height:366px;" version="1.1" viewBox="0 0 424 366" width="424px" zoomAndPan="magnify"><defs><filter height="300%" id="f15y1gq31pqx1f" width="300%" x="-1" y="-1"><feGaussianBlur result="blurOut" stdDeviation="2.0"/><feColorMatrix in="blurOut" result="blurOut2" type="matrix" values="0 0 0 0 0 0 0 0 0 0 0 0 0 0 0 0 0 0 .4 0"/><feOffset dx="4.0" dy="4.0" in="blurOut2" result="blurOut3"/><feBlend in="SourceGraphic" in2="blurOut3" mode="normal"/></filter></defs><g><!--MD5=[1fb0421c56028ff43d2f61015bfd2b6d]
class org.eclipse.epf.uma.impl.DimensionImpl--><a href="DimensionImpl.html" target="_top" title="DimensionImpl.html" xlink:actuate="onRequest" xlink:href="DimensionImpl.html" xlink:show="new" xlink:title="DimensionImpl.html" xlink:type="simple"><rect codeLine="5" fill="#FEFECE" filter="url(#f15y1gq31pqx1f)" height="158.875" id="org.eclipse.epf.uma.impl.DimensionImpl" style="stroke: #A80036; stroke-width: 1.5;" width="193" x="128.5" y="171"/><ellipse cx="162.85" cy="191.0938" fill="#ADD1B2" rx="11" ry="11" style="stroke: #A80036; stroke-width: 1.0;"/><path d="M165.6156,186.9688 Q165.7719,186.75 165.9594,186.6406 Q166.1469,186.5313 166.3656,186.5313 Q166.7406,186.5313 166.975,186.7969 Q167.2094,187.0469 167.2094,187.6563 L167.2094,189.1094 Q167.2094,189.7188 166.975,189.9844 Q166.7406,190.25 166.3656,190.25 Q166.0219,190.25 165.8188,190.0469 Q165.6156,189.8594 165.5063,189.3438 Q165.4594,188.9844 165.2719,188.7969 Q164.9438,188.4219 164.3344,188.2031 Q163.725,187.9844 163.1,187.9844 Q162.3344,187.9844 161.6938,188.3125 Q161.0688,188.6406 160.5688,189.3906 Q160.0844,190.1406 160.0844,191.1719 L160.0844,192.2656 Q160.0844,193.5 160.975,194.3281 Q161.8656,195.1406 163.4594,195.1406 Q164.3969,195.1406 165.0531,194.8906 Q165.4438,194.7344 165.8656,194.2969 Q166.1313,194.0313 166.2719,193.9531 Q166.4281,193.875 166.6313,193.875 Q166.9594,193.875 167.2094,194.1406 Q167.475,194.3906 167.475,194.7344 Q167.475,195.0781 167.1313,195.4844 Q166.6313,196.0625 165.8344,196.3906 Q164.7563,196.8438 163.4594,196.8438 Q161.9438,196.8438 160.7406,196.2188 Q159.7563,195.7188 159.0688,194.6563 Q158.3813,193.5781 158.3813,192.2969 L158.3813,191.1406 Q158.3813,189.8125 158.9906,188.6719 Q159.6156,187.5156 160.7094,186.9063 Q161.8031,186.2813 163.0375,186.2813 Q163.7719,186.2813 164.4125,186.4531 Q165.0688,186.6094 165.6156,186.9688 Z "/><text fill="#000000" font-family="sans-serif" font-size="14" lengthAdjust="spacingAndGlyphs" textLength="91" x="194.65" y="190.5332">DimensionImpl</text><text fill="#000000" font-family="sans-serif" font-size="10" lengthAdjust="spacingAndGlyphs" textLength="118" x="181.15" y="203.9902">org.eclipse.epf.uma.impl</text><line style="stroke: #A80036; stroke-width: 1.5;" x1="129.5" x2="320.5" y1="211.1875" y2="211.1875"/><ellipse cx="139.5" cy="222.1875" fill="#84BE84" rx="3" ry="3" style="stroke: #038048; stroke-width: 1.0;"/><text fill="#000000" font-family="sans-serif" font-size="11" lengthAdjust="spacingAndGlyphs" textLength="89" x="148.5" y="226.6064">getWidth(): Double</text><ellipse cx="139.5" cy="236.0234" fill="#84BE84" rx="3" ry="3" style="stroke: #038048; stroke-width: 1.0;"/><text fill="#000000" font-family="sans-serif" font-size="11" lengthAdjust="spacingAndGlyphs" textLength="109" x="148.5" y="240.4424">setWidth(Double): void</text><ellipse cx="139.5" cy="249.8594" fill="#84BE84" rx="3" ry="3" style="stroke: #038048; stroke-width: 1.0;"/><text fill="#000000" font-family="sans-serif" font-size="11" lengthAdjust="spacingAndGlyphs" textLength="92" x="148.5" y="254.2783">getHeight(): Double</text><ellipse cx="139.5" cy="263.6953" fill="#84BE84" rx="3" ry="3" style="stroke: #038048; stroke-width: 1.0;"/><text fill="#000000" font-family="sans-serif" font-size="11" lengthAdjust="spacingAndGlyphs" textLength="112" x="148.5" y="268.1143">setHeight(Double): void</text><ellipse cx="139.5" cy="277.5313" fill="#84BE84" rx="3" ry="3" style="stroke: #038048; stroke-width: 1.0;"/><text fill="#000000" font-family="sans-serif" font-size="11" lengthAdjust="spacingAndGlyphs" textLength="167" x="148.5" y="281.9502">eGet(int, boolean, boolean): Object</text><ellipse cx="139.5" cy="291.3672" fill="#84BE84" rx="3" ry="3" style="stroke: #038048; stroke-width: 1.0;"/><text fill="#000000" font-family="sans-serif" font-size="11" lengthAdjust="spacingAndGlyphs" textLength="104" x="148.5" y="295.7861">eSet(int, Object): void</text><ellipse cx="139.5" cy="305.2031" fill="#84BE84" rx="3" ry="3" style="stroke: #038048; stroke-width: 1.0;"/><text fill="#000000" font-family="sans-serif" font-size="11" lengthAdjust="spacingAndGlyphs" textLength="79" x="148.5" y="309.6221">eUnset(int): void</text><ellipse cx="139.5" cy="319.0391" fill="#84BE84" rx="3" ry="3" style="stroke: #038048; stroke-width: 1.0;"/><text fill="#000000" font-family="sans-serif" font-size="11" lengthAdjust="spacingAndGlyphs" textLength="93" x="148.5" y="323.458">eIsSet(int): boolean</text></a><!--MD5=[ce4fdce4663ed797643b451cd3657dac]
class org.eclipse.emf.ecore.impl.MinimalEObjectImpl.Container--><rect codeLine="16" fill="#FEFECE" filter="url(#f15y1gq31pqx1f)" height="40.1875" id="org.eclipse.emf.ecore.impl.MinimalEObjectImpl.Container" style="stroke: #A80036; stroke-width: 1.5;" width="220" x="7" y="39"/><ellipse cx="22" cy="59.0938" fill="#ADD1B2" rx="11" ry="11" style="stroke: #A80036; stroke-width: 1.0;"/><path d="M24.7656,54.9688 Q24.9219,54.75 25.1094,54.6406 Q25.2969,54.5313 25.5156,54.5313 Q25.8906,54.5313 26.125,54.7969 Q26.3594,55.0469 26.3594,55.6563 L26.3594,57.1094 Q26.3594,57.7188 26.125,57.9844 Q25.8906,58.25 25.5156,58.25 Q25.1719,58.25 24.9688,58.0469 Q24.7656,57.8594 24.6563,57.3438 Q24.6094,56.9844 24.4219,56.7969 Q24.0938,56.4219 23.4844,56.2031 Q22.875,55.9844 22.25,55.9844 Q21.4844,55.9844 20.8438,56.3125 Q20.2188,56.6406 19.7188,57.3906 Q19.2344,58.1406 19.2344,59.1719 L19.2344,60.2656 Q19.2344,61.5 20.125,62.3281 Q21.0156,63.1406 22.6094,63.1406 Q23.5469,63.1406 24.2031,62.8906 Q24.5938,62.7344 25.0156,62.2969 Q25.2813,62.0313 25.4219,61.9531 Q25.5781,61.875 25.7813,61.875 Q26.1094,61.875 26.3594,62.1406 Q26.625,62.3906 26.625,62.7344 Q26.625,63.0781 26.2813,63.4844 Q25.7813,64.0625 24.9844,64.3906 Q23.9063,64.8438 22.6094,64.8438 Q21.0938,64.8438 19.8906,64.2188 Q18.9063,63.7188 18.2188,62.6563 Q17.5313,61.5781 17.5313,60.2969 L17.5313,59.1406 Q17.5313,57.8125 18.1406,56.6719 Q18.7656,55.5156 19.8594,54.9063 Q20.9531,54.2813 22.1875,54.2813 Q22.9219,54.2813 23.5625,54.4531 Q24.2188,54.6094 24.7656,54.9688 Z "/><text fill="#000000" font-family="sans-serif" font-size="14" lengthAdjust="spacingAndGlyphs" textLength="188" x="36" y="58.5332">MinimalEObjectImpl.Container</text><text fill="#000000" font-family="sans-serif" font-size="10" lengthAdjust="spacingAndGlyphs" textLength="127" x="66.5" y="71.9902">org.eclipse.emf.ecore.impl</text><!--MD5=[4c5f9b89966c44966072babfc893c8d8]
class org.eclipse.epf.uma.Dimension--><a href="..\Dimension.html" target="_top" title="..\Dimension.html" xlink:actuate="onRequest" xlink:href="..\Dimension.html" xlink:show="new" xlink:title="..\Dimension.html" xlink:type="simple"><rect codeLine="17" fill="#FEFECE" filter="url(#f15y1gq31pqx1f)" height="103.5313" id="org.eclipse.epf.uma.Dimension" style="stroke: #A80036; stroke-width: 1.5;" width="143" x="262.5" y="7"/><ellipse cx="286.05" cy="27.0938" fill="#B4A7E5" rx="11" ry="11" style="stroke: #A80036; stroke-width: 1.0;"/><path d="M287.0031,23.7344 L287.0031,30.3906 L288.7219,30.3906 Q289.3313,30.3906 289.5969,30.625 Q289.8625,30.8594 289.8625,31.25 Q289.8625,31.625 289.5969,31.8594 Q289.3313,32.0938 288.7219,32.0938 L283.5813,32.0938 Q282.9719,32.0938 282.7063,31.8594 Q282.4406,31.625 282.4406,31.2344 Q282.4406,30.8594 282.7063,30.625 Q282.9719,30.3906 283.5813,30.3906 L285.3,30.3906 L285.3,23.7344 L283.5813,23.7344 Q282.9719,23.7344 282.7063,23.5 Q282.4406,23.2656 282.4406,22.875 Q282.4406,22.5 282.7063,22.2656 Q282.9719,22.0313 283.5813,22.0313 L288.7219,22.0313 Q289.3313,22.0313 289.5969,22.2656 Q289.8625,22.5 289.8625,22.875 Q289.8625,23.2656 289.5969,23.5 Q289.3313,23.7344 288.7219,23.7344 L287.0031,23.7344 Z "/><text fill="#000000" font-family="sans-serif" font-size="14" font-style="italic" lengthAdjust="spacingAndGlyphs" textLength="66" x="314.95" y="26.5332">Dimension</text><text fill="#000000" font-family="sans-serif" font-size="10" font-style="italic" lengthAdjust="spacingAndGlyphs" textLength="92" x="301.95" y="39.9902">org.eclipse.epf.uma</text><line style="stroke: #A80036; stroke-width: 1.5;" x1="263.5" x2="404.5" y1="47.1875" y2="47.1875"/><ellipse cx="273.5" cy="58.1875" fill="#84BE84" rx="3" ry="3" style="stroke: #038048; stroke-width: 1.0;"/><text fill="#000000" font-family="sans-serif" font-size="11" font-style="italic" lengthAdjust="spacingAndGlyphs" textLength="94" x="282.5" y="62.6064">getWidth(): Double</text><ellipse cx="273.5" cy="72.0234" fill="#84BE84" rx="3" ry="3" style="stroke: #038048; stroke-width: 1.0;"/><text fill="#000000" font-family="sans-serif" font-size="11" font-style="italic" lengthAdjust="spacingAndGlyphs" textLength="114" x="282.5" y="76.4424">setWidth(Double): void</text><ellipse cx="273.5" cy="85.8594" fill="#84BE84" rx="3" ry="3" style="stroke: #038048; stroke-width: 1.0;"/><text fill="#000000" font-family="sans-serif" font-size="11" font-style="italic" lengthAdjust="spacingAndGlyphs" textLength="97" x="282.5" y="90.2783">getHeight(): Double</text><ellipse cx="273.5" cy="99.6953" fill="#84BE84" rx="3" ry="3" style="stroke: #038048; stroke-width: 1.0;"/><text fill="#000000" font-family="sans-serif" font-size="11" font-style="italic" lengthAdjust="spacingAndGlyphs" textLength="117" x="282.5" y="104.1143">setHeight(Double): void</text></a><!--MD5=[230e6cec2f07ae99d715b9192d2f3a61]
reverse link org.eclipse.emf.ecore.impl.MinimalEObjectImpl.Container to org.eclipse.epf.uma.impl.DimensionImpl--><path codeLine="24" d="M138.03,96.9 C150.01,117.92 165.5,145.1 180.08,170.69 " fill="none" id="org.eclipse.emf.ecore.impl.MinimalEObjectImpl.Container-backto-org.eclipse.epf.uma.impl.DimensionImpl" style="stroke: #A80036; stroke-width: 1.0;"/><polygon fill="none" points="131.77,100.06,127.95,79.21,143.93,93.12,131.77,100.06" style="stroke: #A80036; stroke-width: 1.0;"/><!--MD5=[68fed240ddfaf196269323e9b996b62c]
reverse link org.eclipse.epf.uma.Dimension to org.eclipse.epf.uma.impl.DimensionImpl--><path codeLine="25" d="M294.5,128.68 C286.64,142.33 278.34,156.77 270.3,170.74 " fill="none" id="org.eclipse.epf.uma.Dimension-backto-org.eclipse.epf.uma.impl.DimensionImpl" style="stroke: #A80036; stroke-width: 1.0; stroke-dasharray: 7.0,7.0;"/><polygon fill="none" points="288.46,125.13,304.5,111.28,300.6,132.11,288.46,125.13" style="stroke: #A80036; stroke-width: 1.0;"/><text fill="#888888" font-family="sans-serif" font-size="10" lengthAdjust="spacingAndGlyphs" textLength="190" x="108.25" y="353.2559">UMLDoclet 2.0.12, PlantUML 1.2020.16</text><!--MD5=[fa40ab821deeb34211b5c91434bad6f5]
@startuml
    set namespaceSeparator none
    hide empty fields
    hide empty methods

    class "<size:14>DimensionImpl\n<size:10>org.eclipse.epf.uma.impl" as org.eclipse.epf.uma.impl.DimensionImpl [[DimensionImpl.html]] {
        +getWidth(): Double
        +setWidth(Double): void
        +getHeight(): Double
        +setHeight(Double): void
        +eGet(int, boolean, boolean): Object
        +eSet(int, Object): void
        +eUnset(int): void
        +eIsSet(int): boolean
    }

    class "<size:14>MinimalEObjectImpl.Container\n<size:10>org.eclipse.emf.ecore.impl" as org.eclipse.emf.ecore.impl.MinimalEObjectImpl.Container
    interface "<size:14>Dimension\n<size:10>org.eclipse.epf.uma" as org.eclipse.epf.uma.Dimension [[..\Dimension.html]] {
        {abstract} +getWidth(): Double
        {abstract} +setWidth(Double): void
        {abstract} +getHeight(): Double
        {abstract} +setHeight(Double): void
    }

    org.eclipse.emf.ecore.impl.MinimalEObjectImpl.Container <|- - org.eclipse.epf.uma.impl.DimensionImpl
    org.eclipse.epf.uma.Dimension <|.. org.eclipse.epf.uma.impl.DimensionImpl

    center footer UMLDoclet 2.0.12, PlantUML 1.2020.16
@enduml

PlantUML version 1.2020.16(Sun Aug 23 22:20:43 CEST 2020)
(APACHE source distribution)
Java Runtime: Java(TM) SE Runtime Environment
JVM: Java HotSpot(TM) 64-Bit Server VM
Default Encoding: Cp1252
Language: es
Country: ES
--></g></svg>