<?xml version="1.0" encoding="UTF-8" standalone="no"?><svg xmlns="http://www.w3.org/2000/svg" xmlns:xlink="http://www.w3.org/1999/xlink" contentScriptType="application/ecmascript" contentStyleType="text/css" height="283px" preserveAspectRatio="none" style="width:425px;height:283px;" version="1.1" viewBox="0 0 425 283" width="425px" zoomAndPan="magnify"><defs><filter height="300%" id="f113741zjyfg8j" width="300%" x="-1" y="-1"><feGaussianBlur result="blurOut" stdDeviation="2.0"/><feColorMatrix in="blurOut" result="blurOut2" type="matrix" values="0 0 0 0 0 0 0 0 0 0 0 0 0 0 0 0 0 0 .4 0"/><feOffset dx="4.0" dy="4.0" in="blurOut2" result="blurOut3"/><feBlend in="SourceGraphic" in2="blurOut3" mode="normal"/></filter></defs><g><!--MD5=[be80f397abf65184ccd2dd0096d5f49a]
class org.eclipse.epf.uma.impl.DisciplineGroupingImpl--><a href="DisciplineGroupingImpl.html" target="_top" title="DisciplineGroupingImpl.html" xlink:actuate="onRequest" xlink:href="DisciplineGroupingImpl.html" xlink:show="new" xlink:title="DisciplineGroupingImpl.html" xlink:type="simple"><rect codeLine="5" fill="#FEFECE" filter="url(#f113741zjyfg8j)" height="117.3672" id="org.eclipse.epf.uma.impl.DisciplineGroupingImpl" style="stroke: #A80036; stroke-width: 1.5;" width="193" x="101.5" y="129"/><ellipse cx="124.15" cy="149.0938" fill="#ADD1B2" rx="11" ry="11" style="stroke: #A80036; stroke-width: 1.0;"/><path d="M126.9156,144.9688 Q127.0719,144.75 127.2594,144.6406 Q127.4469,144.5313 127.6656,144.5313 Q128.0406,144.5313 128.275,144.7969 Q128.5094,145.0469 128.5094,145.6563 L128.5094,147.1094 Q128.5094,147.7188 128.275,147.9844 Q128.0406,148.25 127.6656,148.25 Q127.3219,148.25 127.1188,148.0469 Q126.9156,147.8594 126.8063,147.3438 Q126.7594,146.9844 126.5719,146.7969 Q126.2438,146.4219 125.6344,146.2031 Q125.025,145.9844 124.4,145.9844 Q123.6344,145.9844 122.9938,146.3125 Q122.3688,146.6406 121.8688,147.3906 Q121.3844,148.1406 121.3844,149.1719 L121.3844,150.2656 Q121.3844,151.5 122.275,152.3281 Q123.1656,153.1406 124.7594,153.1406 Q125.6969,153.1406 126.3531,152.8906 Q126.7438,152.7344 127.1656,152.2969 Q127.4313,152.0313 127.5719,151.9531 Q127.7281,151.875 127.9313,151.875 Q128.2594,151.875 128.5094,152.1406 Q128.775,152.3906 128.775,152.7344 Q128.775,153.0781 128.4313,153.4844 Q127.9313,154.0625 127.1344,154.3906 Q126.0563,154.8438 124.7594,154.8438 Q123.2438,154.8438 122.0406,154.2188 Q121.0563,153.7188 120.3688,152.6563 Q119.6813,151.5781 119.6813,150.2969 L119.6813,149.1406 Q119.6813,147.8125 120.2906,146.6719 Q120.9156,145.5156 122.0094,144.9063 Q123.1031,144.2813 124.3375,144.2813 Q125.0719,144.2813 125.7125,144.4531 Q126.3688,144.6094 126.9156,144.9688 Z "/><text fill="#000000" font-family="sans-serif" font-size="14" lengthAdjust="spacingAndGlyphs" textLength="144" x="139.85" y="148.5332">DisciplineGroupingImpl</text><text fill="#000000" font-family="sans-serif" font-size="10" lengthAdjust="spacingAndGlyphs" textLength="118" x="152.85" y="161.9902">org.eclipse.epf.uma.impl</text><line style="stroke: #A80036; stroke-width: 1.5;" x1="102.5" x2="293.5" y1="169.1875" y2="169.1875"/><ellipse cx="112.5" cy="180.1875" fill="#84BE84" rx="3" ry="3" style="stroke: #038048; stroke-width: 1.0;"/><text fill="#000000" font-family="sans-serif" font-size="11" lengthAdjust="spacingAndGlyphs" textLength="160" x="121.5" y="184.6064">getDisciplines(): EList&lt;Discipline&gt;</text><ellipse cx="112.5" cy="194.0234" fill="#84BE84" rx="3" ry="3" style="stroke: #038048; stroke-width: 1.0;"/><text fill="#000000" font-family="sans-serif" font-size="11" lengthAdjust="spacingAndGlyphs" textLength="167" x="121.5" y="198.4424">eGet(int, boolean, boolean): Object</text><ellipse cx="112.5" cy="207.8594" fill="#84BE84" rx="3" ry="3" style="stroke: #038048; stroke-width: 1.0;"/><text fill="#000000" font-family="sans-serif" font-size="11" lengthAdjust="spacingAndGlyphs" textLength="104" x="121.5" y="212.2783">eSet(int, Object): void</text><ellipse cx="112.5" cy="221.6953" fill="#84BE84" rx="3" ry="3" style="stroke: #038048; stroke-width: 1.0;"/><text fill="#000000" font-family="sans-serif" font-size="11" lengthAdjust="spacingAndGlyphs" textLength="79" x="121.5" y="226.1143">eUnset(int): void</text><ellipse cx="112.5" cy="235.5313" fill="#84BE84" rx="3" ry="3" style="stroke: #038048; stroke-width: 1.0;"/><text fill="#000000" font-family="sans-serif" font-size="11" lengthAdjust="spacingAndGlyphs" textLength="93" x="121.5" y="239.9502">eIsSet(int): boolean</text></a><!--MD5=[80a1fa17d1f3fd257902418e6ad1c457]
class org.eclipse.epf.uma.impl.ContentCategoryImpl--><a href="ContentCategoryImpl.html" target="_top" title="ContentCategoryImpl.html" xlink:actuate="onRequest" xlink:href="ContentCategoryImpl.html" xlink:show="new" xlink:title="ContentCategoryImpl.html" xlink:type="simple"><rect codeLine="13" fill="#FEFECE" filter="url(#f113741zjyfg8j)" height="40.1875" id="org.eclipse.epf.uma.impl.ContentCategoryImpl" style="stroke: #A80036; stroke-width: 1.5;" width="166" x="7" y="18"/><ellipse cx="22" cy="38.0938" fill="#A9DCDF" rx="11" ry="11" style="stroke: #A80036; stroke-width: 1.0;"/><path d="M24.1875,39.8594 L20.0469,39.8594 L19.625,40.8906 L20.0469,40.8906 Q20.6563,40.8906 20.9219,41.125 Q21.1875,41.3594 21.1875,41.75 Q21.1875,42.125 20.9219,42.3594 Q20.6563,42.5938 20.0469,42.5938 L17.75,42.5938 Q17.1406,42.5938 16.8906,42.3594 Q16.625,42.125 16.625,41.7344 Q16.625,41.3594 16.9063,41.125 Q17.1719,40.875 17.7969,40.8906 L20.4688,34.2344 L19.3594,34.2344 Q18.75,34.2344 18.4844,34 Q18.2188,33.7656 18.2188,33.375 Q18.2188,33 18.4844,32.7656 Q18.75,32.5313 19.3594,32.5313 L23.0313,32.5313 L26.4219,40.8906 Q27.0156,40.8906 27.2031,41.0313 Q27.5938,41.2969 27.5938,41.75 Q27.5938,42.125 27.3281,42.3594 Q27.0781,42.5938 26.4688,42.5938 L24.1719,42.5938 Q23.5625,42.5938 23.2969,42.3594 Q23.0313,42.125 23.0313,41.7344 Q23.0313,41.3594 23.2969,41.125 Q23.5625,40.8906 24.1719,40.8906 L24.5938,40.8906 L24.1875,39.8594 Z M23.4688,38.1563 L22.1094,34.7813 L20.7344,38.1563 L23.4688,38.1563 Z "/><text fill="#000000" font-family="sans-serif" font-size="14" font-style="italic" lengthAdjust="spacingAndGlyphs" textLength="134" x="36" y="37.5332">ContentCategoryImpl</text><text fill="#000000" font-family="sans-serif" font-size="10" font-style="italic" lengthAdjust="spacingAndGlyphs" textLength="114" x="46" y="50.9902">org.eclipse.epf.uma.impl</text></a><!--MD5=[ff8cc6c6ceb29a8bc8758d893a9c858f]
class org.eclipse.epf.uma.DisciplineGrouping--><a href="..\DisciplineGrouping.html" target="_top" title="..\DisciplineGrouping.html" xlink:actuate="onRequest" xlink:href="..\DisciplineGrouping.html" xlink:show="new" xlink:title="..\DisciplineGrouping.html" xlink:type="simple"><rect codeLine="14" fill="#FEFECE" filter="url(#f113741zjyfg8j)" height="62.0234" id="org.eclipse.epf.uma.DisciplineGrouping" style="stroke: #A80036; stroke-width: 1.5;" width="198" x="208" y="7"/><ellipse cx="244.15" cy="27.0938" fill="#B4A7E5" rx="11" ry="11" style="stroke: #A80036; stroke-width: 1.0;"/><path d="M245.1031,23.7344 L245.1031,30.3906 L246.8219,30.3906 Q247.4313,30.3906 247.6969,30.625 Q247.9625,30.8594 247.9625,31.25 Q247.9625,31.625 247.6969,31.8594 Q247.4313,32.0938 246.8219,32.0938 L241.6813,32.0938 Q241.0719,32.0938 240.8063,31.8594 Q240.5406,31.625 240.5406,31.2344 Q240.5406,30.8594 240.8063,30.625 Q241.0719,30.3906 241.6813,30.3906 L243.4,30.3906 L243.4,23.7344 L241.6813,23.7344 Q241.0719,23.7344 240.8063,23.5 Q240.5406,23.2656 240.5406,22.875 Q240.5406,22.5 240.8063,22.2656 Q241.0719,22.0313 241.6813,22.0313 L246.8219,22.0313 Q247.4313,22.0313 247.6969,22.2656 Q247.9625,22.5 247.9625,22.875 Q247.9625,23.2656 247.6969,23.5 Q247.4313,23.7344 246.8219,23.7344 L245.1031,23.7344 Z "/><text fill="#000000" font-family="sans-serif" font-size="14" font-style="italic" lengthAdjust="spacingAndGlyphs" textLength="119" x="262.85" y="26.5332">DisciplineGrouping</text><text fill="#000000" font-family="sans-serif" font-size="10" font-style="italic" lengthAdjust="spacingAndGlyphs" textLength="92" x="276.35" y="39.9902">org.eclipse.epf.uma</text><line style="stroke: #A80036; stroke-width: 1.5;" x1="209" x2="405" y1="47.1875" y2="47.1875"/><ellipse cx="219" cy="58.1875" fill="#84BE84" rx="3" ry="3" style="stroke: #038048; stroke-width: 1.0;"/><text fill="#000000" font-family="sans-serif" font-size="11" font-style="italic" lengthAdjust="spacingAndGlyphs" textLength="172" x="228" y="62.6064">getDisciplines(): EList&lt;Discipline&gt;</text></a><!--MD5=[609b35a6eb7f3f369826d09f1919ba2a]
reverse link org.eclipse.epf.uma.impl.ContentCategoryImpl to org.eclipse.epf.uma.impl.DisciplineGroupingImpl--><path codeLine="18" d="M116.07,74.61 C127.94,90.82 142.3,110.43 155.66,128.68 " fill="none" id="org.eclipse.epf.uma.impl.ContentCategoryImpl-backto-org.eclipse.epf.uma.impl.DisciplineGroupingImpl" style="stroke: #A80036; stroke-width: 1.0;"/><polygon fill="none" points="110.29,78.56,104.12,58.28,121.58,70.28,110.29,78.56" style="stroke: #A80036; stroke-width: 1.0;"/><!--MD5=[9d59ba174992e6ec75852a53d0271b23]
reverse link org.eclipse.epf.uma.DisciplineGrouping to org.eclipse.epf.uma.impl.DisciplineGroupingImpl--><path codeLine="19" d="M272.53,85.64 C262.38,99.38 251.16,114.56 240.57,128.9 " fill="none" id="org.eclipse.epf.uma.DisciplineGrouping-backto-org.eclipse.epf.uma.impl.DisciplineGroupingImpl" style="stroke: #A80036; stroke-width: 1.0; stroke-dasharray: 7.0,7.0;"/><polygon fill="none" points="267.16,81.13,284.68,69.2,278.42,89.45,267.16,81.13" style="stroke: #A80036; stroke-width: 1.0;"/><text fill="#888888" font-family="sans-serif" font-size="10" lengthAdjust="spacingAndGlyphs" textLength="190" x="108.5" y="269.748">UMLDoclet 2.0.12, PlantUML 1.2020.16</text><!--MD5=[b7183059f34a1bd1ec3e25d76b9babe4]
@startuml
    set namespaceSeparator none
    hide empty fields
    hide empty methods

    class "<size:14>DisciplineGroupingImpl\n<size:10>org.eclipse.epf.uma.impl" as org.eclipse.epf.uma.impl.DisciplineGroupingImpl [[DisciplineGroupingImpl.html]] {
        +getDisciplines(): EList<Discipline>
        +eGet(int, boolean, boolean): Object
        +eSet(int, Object): void
        +eUnset(int): void
        +eIsSet(int): boolean
    }

    abstract class "<size:14>ContentCategoryImpl\n<size:10>org.eclipse.epf.uma.impl" as org.eclipse.epf.uma.impl.ContentCategoryImpl [[ContentCategoryImpl.html]]
    interface "<size:14>DisciplineGrouping\n<size:10>org.eclipse.epf.uma" as org.eclipse.epf.uma.DisciplineGrouping [[..\DisciplineGrouping.html]] {
        {abstract} +getDisciplines(): EList<Discipline>
    }

    org.eclipse.epf.uma.impl.ContentCategoryImpl <|- - org.eclipse.epf.uma.impl.DisciplineGroupingImpl
    org.eclipse.epf.uma.DisciplineGrouping <|.. org.eclipse.epf.uma.impl.DisciplineGroupingImpl

    center footer UMLDoclet 2.0.12, PlantUML 1.2020.16
@enduml

PlantUML version 1.2020.16(Sun Aug 23 22:20:43 CEST 2020)
(APACHE source distribution)
Java Runtime: Java(TM) SE Runtime Environment
JVM: Java HotSpot(TM) 64-Bit Server VM
Default Encoding: Cp1252
Language: es
Country: ES
--></g></svg>