<?xml version="1.0" encoding="UTF-8" standalone="no"?><svg xmlns="http://www.w3.org/2000/svg" xmlns:xlink="http://www.w3.org/1999/xlink" contentScriptType="application/ecmascript" contentStyleType="text/css" height="352px" preserveAspectRatio="none" style="width:457px;height:352px;" version="1.1" viewBox="0 0 457 352" width="457px" zoomAndPan="magnify"><defs><filter height="300%" id="f1ty5y370kj77a" width="300%" x="-1" y="-1"><feGaussianBlur result="blurOut" stdDeviation="2.0"/><feColorMatrix in="blurOut" result="blurOut2" type="matrix" values="0 0 0 0 0 0 0 0 0 0 0 0 0 0 0 0 0 0 .4 0"/><feOffset dx="4.0" dy="4.0" in="blurOut2" result="blurOut3"/><feBlend in="SourceGraphic" in2="blurOut3" mode="normal"/></filter></defs><g><!--MD5=[dbd2d33d22480b71bf4cbef2eb5f6fb3]
class org.eclipse.epf.uma.impl.DisciplineImpl--><a href="DisciplineImpl.html" target="_top" title="DisciplineImpl.html" xlink:actuate="onRequest" xlink:href="DisciplineImpl.html" xlink:show="new" xlink:title="DisciplineImpl.html" xlink:type="simple"><rect codeLine="5" fill="#FEFECE" filter="url(#f1ty5y370kj77a)" height="158.875" id="org.eclipse.epf.uma.impl.DisciplineImpl" style="stroke: #A80036; stroke-width: 1.5;" width="376" x="18" y="157"/><ellipse cx="142.75" cy="177.0938" fill="#ADD1B2" rx="11" ry="11" style="stroke: #A80036; stroke-width: 1.0;"/><path d="M145.5156,172.9688 Q145.6719,172.75 145.8594,172.6406 Q146.0469,172.5313 146.2656,172.5313 Q146.6406,172.5313 146.875,172.7969 Q147.1094,173.0469 147.1094,173.6563 L147.1094,175.1094 Q147.1094,175.7188 146.875,175.9844 Q146.6406,176.25 146.2656,176.25 Q145.9219,176.25 145.7188,176.0469 Q145.5156,175.8594 145.4063,175.3438 Q145.3594,174.9844 145.1719,174.7969 Q144.8438,174.4219 144.2344,174.2031 Q143.625,173.9844 143,173.9844 Q142.2344,173.9844 141.5938,174.3125 Q140.9688,174.6406 140.4688,175.3906 Q139.9844,176.1406 139.9844,177.1719 L139.9844,178.2656 Q139.9844,179.5 140.875,180.3281 Q141.7656,181.1406 143.3594,181.1406 Q144.2969,181.1406 144.9531,180.8906 Q145.3438,180.7344 145.7656,180.2969 Q146.0313,180.0313 146.1719,179.9531 Q146.3281,179.875 146.5313,179.875 Q146.8594,179.875 147.1094,180.1406 Q147.375,180.3906 147.375,180.7344 Q147.375,181.0781 147.0313,181.4844 Q146.5313,182.0625 145.7344,182.3906 Q144.6563,182.8438 143.3594,182.8438 Q141.8438,182.8438 140.6406,182.2188 Q139.6563,181.7188 138.9688,180.6563 Q138.2813,179.5781 138.2813,178.2969 L138.2813,177.1406 Q138.2813,175.8125 138.8906,174.6719 Q139.5156,173.5156 140.6094,172.9063 Q141.7031,172.2813 142.9375,172.2813 Q143.6719,172.2813 144.3125,172.4531 Q144.9688,172.6094 145.5156,172.9688 Z "/><text fill="#000000" font-family="sans-serif" font-size="14" lengthAdjust="spacingAndGlyphs" textLength="85" x="179.75" y="176.5332">DisciplineImpl</text><text fill="#000000" font-family="sans-serif" font-size="10" lengthAdjust="spacingAndGlyphs" textLength="118" x="163.25" y="189.9902">org.eclipse.epf.uma.impl</text><line style="stroke: #A80036; stroke-width: 1.5;" x1="19" x2="393" y1="197.1875" y2="197.1875"/><ellipse cx="29" cy="208.1875" fill="#84BE84" rx="3" ry="3" style="stroke: #038048; stroke-width: 1.0;"/><text fill="#000000" font-family="sans-serif" font-size="11" lengthAdjust="spacingAndGlyphs" textLength="116" x="38" y="212.6064">getTasks(): EList&lt;Task&gt;</text><ellipse cx="29" cy="222.0234" fill="#84BE84" rx="3" ry="3" style="stroke: #038048; stroke-width: 1.0;"/><text fill="#000000" font-family="sans-serif" font-size="11" lengthAdjust="spacingAndGlyphs" textLength="172" x="38" y="226.4424">getSubdiscipline(): EList&lt;Discipline&gt;</text><ellipse cx="29" cy="235.8594" fill="#84BE84" rx="3" ry="3" style="stroke: #038048; stroke-width: 1.0;"/><text fill="#000000" font-family="sans-serif" font-size="11" lengthAdjust="spacingAndGlyphs" textLength="204" x="38" y="240.2783">getReferenceWorkflows(): EList&lt;Activity&gt;</text><ellipse cx="29" cy="249.6953" fill="#84BE84" rx="3" ry="3" style="stroke: #038048; stroke-width: 1.0;"/><text fill="#000000" font-family="sans-serif" font-size="11" lengthAdjust="spacingAndGlyphs" textLength="350" x="38" y="254.1143">eInverseRemove(InternalEObject, int, NotificationChain): NotificationChain</text><ellipse cx="29" cy="263.5313" fill="#84BE84" rx="3" ry="3" style="stroke: #038048; stroke-width: 1.0;"/><text fill="#000000" font-family="sans-serif" font-size="11" lengthAdjust="spacingAndGlyphs" textLength="167" x="38" y="267.9502">eGet(int, boolean, boolean): Object</text><ellipse cx="29" cy="277.3672" fill="#84BE84" rx="3" ry="3" style="stroke: #038048; stroke-width: 1.0;"/><text fill="#000000" font-family="sans-serif" font-size="11" lengthAdjust="spacingAndGlyphs" textLength="104" x="38" y="281.7861">eSet(int, Object): void</text><ellipse cx="29" cy="291.2031" fill="#84BE84" rx="3" ry="3" style="stroke: #038048; stroke-width: 1.0;"/><text fill="#000000" font-family="sans-serif" font-size="11" lengthAdjust="spacingAndGlyphs" textLength="79" x="38" y="295.6221">eUnset(int): void</text><ellipse cx="29" cy="305.0391" fill="#84BE84" rx="3" ry="3" style="stroke: #038048; stroke-width: 1.0;"/><text fill="#000000" font-family="sans-serif" font-size="11" lengthAdjust="spacingAndGlyphs" textLength="93" x="38" y="309.458">eIsSet(int): boolean</text></a><!--MD5=[80a1fa17d1f3fd257902418e6ad1c457]
class org.eclipse.epf.uma.impl.ContentCategoryImpl--><a href="ContentCategoryImpl.html" target="_top" title="ContentCategoryImpl.html" xlink:actuate="onRequest" xlink:href="ContentCategoryImpl.html" xlink:show="new" xlink:title="ContentCategoryImpl.html" xlink:type="simple"><rect codeLine="16" fill="#FEFECE" filter="url(#f1ty5y370kj77a)" height="40.1875" id="org.eclipse.epf.uma.impl.ContentCategoryImpl" style="stroke: #A80036; stroke-width: 1.5;" width="166" x="7" y="32"/><ellipse cx="22" cy="52.0938" fill="#A9DCDF" rx="11" ry="11" style="stroke: #A80036; stroke-width: 1.0;"/><path d="M24.1875,53.8594 L20.0469,53.8594 L19.625,54.8906 L20.0469,54.8906 Q20.6563,54.8906 20.9219,55.125 Q21.1875,55.3594 21.1875,55.75 Q21.1875,56.125 20.9219,56.3594 Q20.6563,56.5938 20.0469,56.5938 L17.75,56.5938 Q17.1406,56.5938 16.8906,56.3594 Q16.625,56.125 16.625,55.7344 Q16.625,55.3594 16.9063,55.125 Q17.1719,54.875 17.7969,54.8906 L20.4688,48.2344 L19.3594,48.2344 Q18.75,48.2344 18.4844,48 Q18.2188,47.7656 18.2188,47.375 Q18.2188,47 18.4844,46.7656 Q18.75,46.5313 19.3594,46.5313 L23.0313,46.5313 L26.4219,54.8906 Q27.0156,54.8906 27.2031,55.0313 Q27.5938,55.2969 27.5938,55.75 Q27.5938,56.125 27.3281,56.3594 Q27.0781,56.5938 26.4688,56.5938 L24.1719,56.5938 Q23.5625,56.5938 23.2969,56.3594 Q23.0313,56.125 23.0313,55.7344 Q23.0313,55.3594 23.2969,55.125 Q23.5625,54.8906 24.1719,54.8906 L24.5938,54.8906 L24.1875,53.8594 Z M23.4688,52.1563 L22.1094,48.7813 L20.7344,52.1563 L23.4688,52.1563 Z "/><text fill="#000000" font-family="sans-serif" font-size="14" font-style="italic" lengthAdjust="spacingAndGlyphs" textLength="134" x="36" y="51.5332">ContentCategoryImpl</text><text fill="#000000" font-family="sans-serif" font-size="10" font-style="italic" lengthAdjust="spacingAndGlyphs" textLength="114" x="46" y="64.9902">org.eclipse.epf.uma.impl</text></a><!--MD5=[430a883f85d747e24002d43639820915]
class org.eclipse.epf.uma.Discipline--><a href="..\Discipline.html" target="_top" title="..\Discipline.html" xlink:actuate="onRequest" xlink:href="..\Discipline.html" xlink:show="new" xlink:title="..\Discipline.html" xlink:type="simple"><rect codeLine="17" fill="#FEFECE" filter="url(#f1ty5y370kj77a)" height="89.6953" id="org.eclipse.epf.uma.Discipline" style="stroke: #A80036; stroke-width: 1.5;" width="230" x="208" y="7"/><ellipse cx="272.75" cy="27.0938" fill="#B4A7E5" rx="11" ry="11" style="stroke: #A80036; stroke-width: 1.0;"/><path d="M273.7031,23.7344 L273.7031,30.3906 L275.4219,30.3906 Q276.0313,30.3906 276.2969,30.625 Q276.5625,30.8594 276.5625,31.25 Q276.5625,31.625 276.2969,31.8594 Q276.0313,32.0938 275.4219,32.0938 L270.2813,32.0938 Q269.6719,32.0938 269.4063,31.8594 Q269.1406,31.625 269.1406,31.2344 Q269.1406,30.8594 269.4063,30.625 Q269.6719,30.3906 270.2813,30.3906 L272,30.3906 L272,23.7344 L270.2813,23.7344 Q269.6719,23.7344 269.4063,23.5 Q269.1406,23.2656 269.1406,22.875 Q269.1406,22.5 269.4063,22.2656 Q269.6719,22.0313 270.2813,22.0313 L275.4219,22.0313 Q276.0313,22.0313 276.2969,22.2656 Q276.5625,22.5 276.5625,22.875 Q276.5625,23.2656 276.2969,23.5 Q276.0313,23.7344 275.4219,23.7344 L273.7031,23.7344 Z "/><text fill="#000000" font-family="sans-serif" font-size="14" font-style="italic" lengthAdjust="spacingAndGlyphs" textLength="60" x="309.25" y="26.5332">Discipline</text><text fill="#000000" font-family="sans-serif" font-size="10" font-style="italic" lengthAdjust="spacingAndGlyphs" textLength="92" x="293.25" y="39.9902">org.eclipse.epf.uma</text><line style="stroke: #A80036; stroke-width: 1.5;" x1="209" x2="437" y1="47.1875" y2="47.1875"/><ellipse cx="219" cy="58.1875" fill="#84BE84" rx="3" ry="3" style="stroke: #038048; stroke-width: 1.0;"/><text fill="#000000" font-family="sans-serif" font-size="11" font-style="italic" lengthAdjust="spacingAndGlyphs" textLength="122" x="228" y="62.6064">getTasks(): EList&lt;Task&gt;</text><ellipse cx="219" cy="72.0234" fill="#84BE84" rx="3" ry="3" style="stroke: #038048; stroke-width: 1.0;"/><text fill="#000000" font-family="sans-serif" font-size="11" font-style="italic" lengthAdjust="spacingAndGlyphs" textLength="184" x="228" y="76.4424">getSubdiscipline(): EList&lt;Discipline&gt;</text><ellipse cx="219" cy="85.8594" fill="#84BE84" rx="3" ry="3" style="stroke: #038048; stroke-width: 1.0;"/><text fill="#000000" font-family="sans-serif" font-size="11" font-style="italic" lengthAdjust="spacingAndGlyphs" textLength="204" x="228" y="90.2783">getReferenceWorkflows(): EList&lt;Activity&gt;</text></a><!--MD5=[0125fe00172bbc128dd4d3597dd42c0e]
reverse link org.eclipse.epf.uma.impl.ContentCategoryImpl to org.eclipse.epf.uma.impl.DisciplineImpl--><path codeLine="23" d="M113.04,89.25 C125.36,108.63 141.03,133.28 155.98,156.8 " fill="none" id="org.eclipse.epf.uma.impl.ContentCategoryImpl-backto-org.eclipse.epf.uma.impl.DisciplineImpl" style="stroke: #A80036; stroke-width: 1.0;"/><polygon fill="none" points="107.02,92.82,102.19,72.19,118.83,85.31,107.02,92.82" style="stroke: #A80036; stroke-width: 1.0;"/><!--MD5=[008ee5f6d3b01c7ac6a8e9e42ac33f26]
reverse link org.eclipse.epf.uma.Discipline to org.eclipse.epf.uma.impl.DisciplineImpl--><path codeLine="24" d="M283.65,114.38 C274.92,128 265.55,142.61 256.45,156.8 " fill="none" id="org.eclipse.epf.uma.Discipline-backto-org.eclipse.epf.uma.impl.DisciplineImpl" style="stroke: #A80036; stroke-width: 1.0; stroke-dasharray: 7.0,7.0;"/><polygon fill="none" points="277.99,110.24,294.68,97.18,289.78,117.79,277.99,110.24" style="stroke: #A80036; stroke-width: 1.0;"/><text fill="#888888" font-family="sans-serif" font-size="10" lengthAdjust="spacingAndGlyphs" textLength="190" x="124.5" y="339.2559">UMLDoclet 2.0.12, PlantUML 1.2020.16</text><!--MD5=[416d1a24b7049110dc0c7b32226bbb8d]
@startuml
    set namespaceSeparator none
    hide empty fields
    hide empty methods

    class "<size:14>DisciplineImpl\n<size:10>org.eclipse.epf.uma.impl" as org.eclipse.epf.uma.impl.DisciplineImpl [[DisciplineImpl.html]] {
        +getTasks(): EList<Task>
        +getSubdiscipline(): EList<Discipline>
        +getReferenceWorkflows(): EList<Activity>
        +eInverseRemove(InternalEObject, int, NotificationChain): NotificationChain
        +eGet(int, boolean, boolean): Object
        +eSet(int, Object): void
        +eUnset(int): void
        +eIsSet(int): boolean
    }

    abstract class "<size:14>ContentCategoryImpl\n<size:10>org.eclipse.epf.uma.impl" as org.eclipse.epf.uma.impl.ContentCategoryImpl [[ContentCategoryImpl.html]]
    interface "<size:14>Discipline\n<size:10>org.eclipse.epf.uma" as org.eclipse.epf.uma.Discipline [[..\Discipline.html]] {
        {abstract} +getTasks(): EList<Task>
        {abstract} +getSubdiscipline(): EList<Discipline>
        {abstract} +getReferenceWorkflows(): EList<Activity>
    }

    org.eclipse.epf.uma.impl.ContentCategoryImpl <|- - org.eclipse.epf.uma.impl.DisciplineImpl
    org.eclipse.epf.uma.Discipline <|.. org.eclipse.epf.uma.impl.DisciplineImpl

    center footer UMLDoclet 2.0.12, PlantUML 1.2020.16
@enduml

PlantUML version 1.2020.16(Sun Aug 23 22:20:43 CEST 2020)
(APACHE source distribution)
Java Runtime: Java(TM) SE Runtime Environment
JVM: Java HotSpot(TM) 64-Bit Server VM
Default Encoding: Cp1252
Language: es
Country: ES
--></g></svg>