<?xml version="1.0" encoding="UTF-8" standalone="no"?><svg xmlns="http://www.w3.org/2000/svg" xmlns:xlink="http://www.w3.org/1999/xlink" contentScriptType="application/ecmascript" contentStyleType="text/css" height="324px" preserveAspectRatio="none" style="width:455px;height:324px;" version="1.1" viewBox="0 0 455 324" width="455px" zoomAndPan="magnify"><defs><filter height="300%" id="fggj2yk3uj7x8" width="300%" x="-1" y="-1"><feGaussianBlur result="blurOut" stdDeviation="2.0"/><feColorMatrix in="blurOut" result="blurOut2" type="matrix" values="0 0 0 0 0 0 0 0 0 0 0 0 0 0 0 0 0 0 .4 0"/><feOffset dx="4.0" dy="4.0" in="blurOut2" result="blurOut3"/><feBlend in="SourceGraphic" in2="blurOut3" mode="normal"/></filter></defs><g><!--MD5=[5ef7b6ae3f913db7f78f932ed57b7890]
class org.eclipse.epf.uma.impl.DomainImpl--><a href="DomainImpl.html" target="_top" title="DomainImpl.html" xlink:actuate="onRequest" xlink:href="DomainImpl.html" xlink:show="new" xlink:title="DomainImpl.html" xlink:type="simple"><rect codeLine="5" fill="#FEFECE" filter="url(#fggj2yk3uj7x8)" height="145.0391" id="org.eclipse.epf.uma.impl.DomainImpl" style="stroke: #A80036; stroke-width: 1.5;" width="376" x="18" y="143"/><ellipse cx="142.75" cy="163.0938" fill="#ADD1B2" rx="11" ry="11" style="stroke: #A80036; stroke-width: 1.0;"/><path d="M145.5156,158.9688 Q145.6719,158.75 145.8594,158.6406 Q146.0469,158.5313 146.2656,158.5313 Q146.6406,158.5313 146.875,158.7969 Q147.1094,159.0469 147.1094,159.6563 L147.1094,161.1094 Q147.1094,161.7188 146.875,161.9844 Q146.6406,162.25 146.2656,162.25 Q145.9219,162.25 145.7188,162.0469 Q145.5156,161.8594 145.4063,161.3438 Q145.3594,160.9844 145.1719,160.7969 Q144.8438,160.4219 144.2344,160.2031 Q143.625,159.9844 143,159.9844 Q142.2344,159.9844 141.5938,160.3125 Q140.9688,160.6406 140.4688,161.3906 Q139.9844,162.1406 139.9844,163.1719 L139.9844,164.2656 Q139.9844,165.5 140.875,166.3281 Q141.7656,167.1406 143.3594,167.1406 Q144.2969,167.1406 144.9531,166.8906 Q145.3438,166.7344 145.7656,166.2969 Q146.0313,166.0313 146.1719,165.9531 Q146.3281,165.875 146.5313,165.875 Q146.8594,165.875 147.1094,166.1406 Q147.375,166.3906 147.375,166.7344 Q147.375,167.0781 147.0313,167.4844 Q146.5313,168.0625 145.7344,168.3906 Q144.6563,168.8438 143.3594,168.8438 Q141.8438,168.8438 140.6406,168.2188 Q139.6563,167.7188 138.9688,166.6563 Q138.2813,165.5781 138.2813,164.2969 L138.2813,163.1406 Q138.2813,161.8125 138.8906,160.6719 Q139.5156,159.5156 140.6094,158.9063 Q141.7031,158.2813 142.9375,158.2813 Q143.6719,158.2813 144.3125,158.4531 Q144.9688,158.6094 145.5156,158.9688 Z "/><text fill="#000000" font-family="sans-serif" font-size="14" lengthAdjust="spacingAndGlyphs" textLength="73" x="185.75" y="162.5332">DomainImpl</text><text fill="#000000" font-family="sans-serif" font-size="10" lengthAdjust="spacingAndGlyphs" textLength="118" x="163.25" y="175.9902">org.eclipse.epf.uma.impl</text><line style="stroke: #A80036; stroke-width: 1.5;" x1="19" x2="393" y1="183.1875" y2="183.1875"/><ellipse cx="29" cy="194.1875" fill="#84BE84" rx="3" ry="3" style="stroke: #038048; stroke-width: 1.0;"/><text fill="#000000" font-family="sans-serif" font-size="11" lengthAdjust="spacingAndGlyphs" textLength="194" x="38" y="198.6064">getWorkProducts(): EList&lt;WorkProduct&gt;</text><ellipse cx="29" cy="208.0234" fill="#84BE84" rx="3" ry="3" style="stroke: #038048; stroke-width: 1.0;"/><text fill="#000000" font-family="sans-serif" font-size="11" lengthAdjust="spacingAndGlyphs" textLength="158" x="38" y="212.4424">getSubdomains(): EList&lt;Domain&gt;</text><ellipse cx="29" cy="221.8594" fill="#84BE84" rx="3" ry="3" style="stroke: #038048; stroke-width: 1.0;"/><text fill="#000000" font-family="sans-serif" font-size="11" lengthAdjust="spacingAndGlyphs" textLength="350" x="38" y="226.2783">eInverseRemove(InternalEObject, int, NotificationChain): NotificationChain</text><ellipse cx="29" cy="235.6953" fill="#84BE84" rx="3" ry="3" style="stroke: #038048; stroke-width: 1.0;"/><text fill="#000000" font-family="sans-serif" font-size="11" lengthAdjust="spacingAndGlyphs" textLength="167" x="38" y="240.1143">eGet(int, boolean, boolean): Object</text><ellipse cx="29" cy="249.5313" fill="#84BE84" rx="3" ry="3" style="stroke: #038048; stroke-width: 1.0;"/><text fill="#000000" font-family="sans-serif" font-size="11" lengthAdjust="spacingAndGlyphs" textLength="104" x="38" y="253.9502">eSet(int, Object): void</text><ellipse cx="29" cy="263.3672" fill="#84BE84" rx="3" ry="3" style="stroke: #038048; stroke-width: 1.0;"/><text fill="#000000" font-family="sans-serif" font-size="11" lengthAdjust="spacingAndGlyphs" textLength="79" x="38" y="267.7861">eUnset(int): void</text><ellipse cx="29" cy="277.2031" fill="#84BE84" rx="3" ry="3" style="stroke: #038048; stroke-width: 1.0;"/><text fill="#000000" font-family="sans-serif" font-size="11" lengthAdjust="spacingAndGlyphs" textLength="93" x="38" y="281.6221">eIsSet(int): boolean</text></a><!--MD5=[80a1fa17d1f3fd257902418e6ad1c457]
class org.eclipse.epf.uma.impl.ContentCategoryImpl--><a href="ContentCategoryImpl.html" target="_top" title="ContentCategoryImpl.html" xlink:actuate="onRequest" xlink:href="ContentCategoryImpl.html" xlink:show="new" xlink:title="ContentCategoryImpl.html" xlink:type="simple"><rect codeLine="15" fill="#FEFECE" filter="url(#fggj2yk3uj7x8)" height="40.1875" id="org.eclipse.epf.uma.impl.ContentCategoryImpl" style="stroke: #A80036; stroke-width: 1.5;" width="166" x="7" y="25"/><ellipse cx="22" cy="45.0938" fill="#A9DCDF" rx="11" ry="11" style="stroke: #A80036; stroke-width: 1.0;"/><path d="M24.1875,46.8594 L20.0469,46.8594 L19.625,47.8906 L20.0469,47.8906 Q20.6563,47.8906 20.9219,48.125 Q21.1875,48.3594 21.1875,48.75 Q21.1875,49.125 20.9219,49.3594 Q20.6563,49.5938 20.0469,49.5938 L17.75,49.5938 Q17.1406,49.5938 16.8906,49.3594 Q16.625,49.125 16.625,48.7344 Q16.625,48.3594 16.9063,48.125 Q17.1719,47.875 17.7969,47.8906 L20.4688,41.2344 L19.3594,41.2344 Q18.75,41.2344 18.4844,41 Q18.2188,40.7656 18.2188,40.375 Q18.2188,40 18.4844,39.7656 Q18.75,39.5313 19.3594,39.5313 L23.0313,39.5313 L26.4219,47.8906 Q27.0156,47.8906 27.2031,48.0313 Q27.5938,48.2969 27.5938,48.75 Q27.5938,49.125 27.3281,49.3594 Q27.0781,49.5938 26.4688,49.5938 L24.1719,49.5938 Q23.5625,49.5938 23.2969,49.3594 Q23.0313,49.125 23.0313,48.7344 Q23.0313,48.3594 23.2969,48.125 Q23.5625,47.8906 24.1719,47.8906 L24.5938,47.8906 L24.1875,46.8594 Z M23.4688,45.1563 L22.1094,41.7813 L20.7344,45.1563 L23.4688,45.1563 Z "/><text fill="#000000" font-family="sans-serif" font-size="14" font-style="italic" lengthAdjust="spacingAndGlyphs" textLength="134" x="36" y="44.5332">ContentCategoryImpl</text><text fill="#000000" font-family="sans-serif" font-size="10" font-style="italic" lengthAdjust="spacingAndGlyphs" textLength="114" x="46" y="57.9902">org.eclipse.epf.uma.impl</text></a><!--MD5=[2fe39163f73cf4ab3cc7489b28e344c7]
class org.eclipse.epf.uma.Domain--><a href="..\Domain.html" target="_top" title="..\Domain.html" xlink:actuate="onRequest" xlink:href="..\Domain.html" xlink:show="new" xlink:title="..\Domain.html" xlink:type="simple"><rect codeLine="16" fill="#FEFECE" filter="url(#fggj2yk3uj7x8)" height="75.8594" id="org.eclipse.epf.uma.Domain" style="stroke: #A80036; stroke-width: 1.5;" width="228" x="208" y="7"/><ellipse cx="271.75" cy="27.0938" fill="#B4A7E5" rx="11" ry="11" style="stroke: #A80036; stroke-width: 1.0;"/><path d="M272.7031,23.7344 L272.7031,30.3906 L274.4219,30.3906 Q275.0313,30.3906 275.2969,30.625 Q275.5625,30.8594 275.5625,31.25 Q275.5625,31.625 275.2969,31.8594 Q275.0313,32.0938 274.4219,32.0938 L269.2813,32.0938 Q268.6719,32.0938 268.4063,31.8594 Q268.1406,31.625 268.1406,31.2344 Q268.1406,30.8594 268.4063,30.625 Q268.6719,30.3906 269.2813,30.3906 L271,30.3906 L271,23.7344 L269.2813,23.7344 Q268.6719,23.7344 268.4063,23.5 Q268.1406,23.2656 268.1406,22.875 Q268.1406,22.5 268.4063,22.2656 Q268.6719,22.0313 269.2813,22.0313 L274.4219,22.0313 Q275.0313,22.0313 275.2969,22.2656 Q275.5625,22.5 275.5625,22.875 Q275.5625,23.2656 275.2969,23.5 Q275.0313,23.7344 274.4219,23.7344 L272.7031,23.7344 Z "/><text fill="#000000" font-family="sans-serif" font-size="14" font-style="italic" lengthAdjust="spacingAndGlyphs" textLength="48" x="314.25" y="26.5332">Domain</text><text fill="#000000" font-family="sans-serif" font-size="10" font-style="italic" lengthAdjust="spacingAndGlyphs" textLength="92" x="292.25" y="39.9902">org.eclipse.epf.uma</text><line style="stroke: #A80036; stroke-width: 1.5;" x1="209" x2="435" y1="47.1875" y2="47.1875"/><ellipse cx="219" cy="58.1875" fill="#84BE84" rx="3" ry="3" style="stroke: #038048; stroke-width: 1.0;"/><text fill="#000000" font-family="sans-serif" font-size="11" font-style="italic" lengthAdjust="spacingAndGlyphs" textLength="202" x="228" y="62.6064">getWorkProducts(): EList&lt;WorkProduct&gt;</text><ellipse cx="219" cy="72.0234" fill="#84BE84" rx="3" ry="3" style="stroke: #038048; stroke-width: 1.0;"/><text fill="#000000" font-family="sans-serif" font-size="11" font-style="italic" lengthAdjust="spacingAndGlyphs" textLength="166" x="228" y="76.4424">getSubdomains(): EList&lt;Domain&gt;</text></a><!--MD5=[521a684fe9c37784a8881b14ca4f1497]
reverse link org.eclipse.epf.uma.impl.ContentCategoryImpl to org.eclipse.epf.uma.impl.DomainImpl--><path codeLine="21" d="M114.43,81.48 C126.73,99.36 142.12,121.71 156.74,142.95 " fill="none" id="org.eclipse.epf.uma.impl.ContentCategoryImpl-backto-org.eclipse.epf.uma.impl.DomainImpl" style="stroke: #A80036; stroke-width: 1.0;"/><polygon fill="none" points="108.66,85.44,103.08,65,120.19,77.51,108.66,85.44" style="stroke: #A80036; stroke-width: 1.0;"/><!--MD5=[ffe2c89c982f74fc19eed0db65d4c6f4]
reverse link org.eclipse.epf.uma.Domain to org.eclipse.epf.uma.impl.DomainImpl--><path codeLine="22" d="M284.86,99.95 C275.44,113.64 265.17,128.56 255.24,142.97 " fill="none" id="org.eclipse.epf.uma.Domain-backto-org.eclipse.epf.uma.impl.DomainImpl" style="stroke: #A80036; stroke-width: 1.0; stroke-dasharray: 7.0,7.0;"/><polygon fill="none" points="279.15,95.9,296.26,83.4,290.68,103.84,279.15,95.9" style="stroke: #A80036; stroke-width: 1.0;"/><text fill="#888888" font-family="sans-serif" font-size="10" lengthAdjust="spacingAndGlyphs" textLength="190" x="123.5" y="311.4199">UMLDoclet 2.0.12, PlantUML 1.2020.16</text><!--MD5=[1270326aec50840b00cc0a323f86100c]
@startuml
    set namespaceSeparator none
    hide empty fields
    hide empty methods

    class "<size:14>DomainImpl\n<size:10>org.eclipse.epf.uma.impl" as org.eclipse.epf.uma.impl.DomainImpl [[DomainImpl.html]] {
        +getWorkProducts(): EList<WorkProduct>
        +getSubdomains(): EList<Domain>
        +eInverseRemove(InternalEObject, int, NotificationChain): NotificationChain
        +eGet(int, boolean, boolean): Object
        +eSet(int, Object): void
        +eUnset(int): void
        +eIsSet(int): boolean
    }

    abstract class "<size:14>ContentCategoryImpl\n<size:10>org.eclipse.epf.uma.impl" as org.eclipse.epf.uma.impl.ContentCategoryImpl [[ContentCategoryImpl.html]]
    interface "<size:14>Domain\n<size:10>org.eclipse.epf.uma" as org.eclipse.epf.uma.Domain [[..\Domain.html]] {
        {abstract} +getWorkProducts(): EList<WorkProduct>
        {abstract} +getSubdomains(): EList<Domain>
    }

    org.eclipse.epf.uma.impl.ContentCategoryImpl <|- - org.eclipse.epf.uma.impl.DomainImpl
    org.eclipse.epf.uma.Domain <|.. org.eclipse.epf.uma.impl.DomainImpl

    center footer UMLDoclet 2.0.12, PlantUML 1.2020.16
@enduml

PlantUML version 1.2020.16(Sun Aug 23 22:20:43 CEST 2020)
(APACHE source distribution)
Java Runtime: Java(TM) SE Runtime Environment
JVM: Java HotSpot(TM) 64-Bit Server VM
Default Encoding: Cp1252
Language: es
Country: ES
--></g></svg>