<?xml version="1.0" encoding="UTF-8" standalone="no"?><svg xmlns="http://www.w3.org/2000/svg" xmlns:xlink="http://www.w3.org/1999/xlink" contentScriptType="application/ecmascript" contentStyleType="text/css" height="184px" preserveAspectRatio="none" style="width:405px;height:184px;" version="1.1" viewBox="0 0 405 184" width="405px" zoomAndPan="magnify"><defs><filter height="300%" id="f23576vyd7sxz" width="300%" x="-1" y="-1"><feGaussianBlur result="blurOut" stdDeviation="2.0"/><feColorMatrix in="blurOut" result="blurOut2" type="matrix" values="0 0 0 0 0 0 0 0 0 0 0 0 0 0 0 0 0 0 .4 0"/><feOffset dx="4.0" dy="4.0" in="blurOut2" result="blurOut3"/><feBlend in="SourceGraphic" in2="blurOut3" mode="normal"/></filter></defs><g><!--MD5=[a7aad4dd00005b7efe1814dde0edfdc0]
class org.eclipse.epf.uma.impl.ElementImpl--><a href="ElementImpl.html" target="_top" title="ElementImpl.html" xlink:actuate="onRequest" xlink:href="ElementImpl.html" xlink:show="new" xlink:title="ElementImpl.html" xlink:type="simple"><rect codeLine="5" fill="#FEFECE" filter="url(#f23576vyd7sxz)" height="40.1875" id="org.eclipse.epf.uma.impl.ElementImpl" style="stroke: #A80036; stroke-width: 1.5;" width="146" x="147" y="107"/><ellipse cx="162" cy="127.0938" fill="#A9DCDF" rx="11" ry="11" style="stroke: #A80036; stroke-width: 1.0;"/><path d="M164.1875,128.8594 L160.0469,128.8594 L159.625,129.8906 L160.0469,129.8906 Q160.6563,129.8906 160.9219,130.125 Q161.1875,130.3594 161.1875,130.75 Q161.1875,131.125 160.9219,131.3594 Q160.6563,131.5938 160.0469,131.5938 L157.75,131.5938 Q157.1406,131.5938 156.8906,131.3594 Q156.625,131.125 156.625,130.7344 Q156.625,130.3594 156.9063,130.125 Q157.1719,129.875 157.7969,129.8906 L160.4688,123.2344 L159.3594,123.2344 Q158.75,123.2344 158.4844,123 Q158.2188,122.7656 158.2188,122.375 Q158.2188,122 158.4844,121.7656 Q158.75,121.5313 159.3594,121.5313 L163.0313,121.5313 L166.4219,129.8906 Q167.0156,129.8906 167.2031,130.0313 Q167.5938,130.2969 167.5938,130.75 Q167.5938,131.125 167.3281,131.3594 Q167.0781,131.5938 166.4688,131.5938 L164.1719,131.5938 Q163.5625,131.5938 163.2969,131.3594 Q163.0313,131.125 163.0313,130.7344 Q163.0313,130.3594 163.2969,130.125 Q163.5625,129.8906 164.1719,129.8906 L164.5938,129.8906 L164.1875,128.8594 Z M163.4688,127.1563 L162.1094,123.7813 L160.7344,127.1563 L163.4688,127.1563 Z "/><text fill="#000000" font-family="sans-serif" font-size="14" font-style="italic" lengthAdjust="spacingAndGlyphs" textLength="77" x="194.5" y="126.5332">ElementImpl</text><text fill="#000000" font-family="sans-serif" font-size="10" font-style="italic" lengthAdjust="spacingAndGlyphs" textLength="114" x="176" y="139.9902">org.eclipse.epf.uma.impl</text></a><!--MD5=[ce4fdce4663ed797643b451cd3657dac]
class org.eclipse.emf.ecore.impl.MinimalEObjectImpl.Container--><rect codeLine="8" fill="#FEFECE" filter="url(#f23576vyd7sxz)" height="40.1875" id="org.eclipse.emf.ecore.impl.MinimalEObjectImpl.Container" style="stroke: #A80036; stroke-width: 1.5;" width="220" x="7" y="7"/><ellipse cx="22" cy="27.0938" fill="#ADD1B2" rx="11" ry="11" style="stroke: #A80036; stroke-width: 1.0;"/><path d="M24.7656,22.9688 Q24.9219,22.75 25.1094,22.6406 Q25.2969,22.5313 25.5156,22.5313 Q25.8906,22.5313 26.125,22.7969 Q26.3594,23.0469 26.3594,23.6563 L26.3594,25.1094 Q26.3594,25.7188 26.125,25.9844 Q25.8906,26.25 25.5156,26.25 Q25.1719,26.25 24.9688,26.0469 Q24.7656,25.8594 24.6563,25.3438 Q24.6094,24.9844 24.4219,24.7969 Q24.0938,24.4219 23.4844,24.2031 Q22.875,23.9844 22.25,23.9844 Q21.4844,23.9844 20.8438,24.3125 Q20.2188,24.6406 19.7188,25.3906 Q19.2344,26.1406 19.2344,27.1719 L19.2344,28.2656 Q19.2344,29.5 20.125,30.3281 Q21.0156,31.1406 22.6094,31.1406 Q23.5469,31.1406 24.2031,30.8906 Q24.5938,30.7344 25.0156,30.2969 Q25.2813,30.0313 25.4219,29.9531 Q25.5781,29.875 25.7813,29.875 Q26.1094,29.875 26.3594,30.1406 Q26.625,30.3906 26.625,30.7344 Q26.625,31.0781 26.2813,31.4844 Q25.7813,32.0625 24.9844,32.3906 Q23.9063,32.8438 22.6094,32.8438 Q21.0938,32.8438 19.8906,32.2188 Q18.9063,31.7188 18.2188,30.6563 Q17.5313,29.5781 17.5313,28.2969 L17.5313,27.1406 Q17.5313,25.8125 18.1406,24.6719 Q18.7656,23.5156 19.8594,22.9063 Q20.9531,22.2813 22.1875,22.2813 Q22.9219,22.2813 23.5625,22.4531 Q24.2188,22.6094 24.7656,22.9688 Z "/><text fill="#000000" font-family="sans-serif" font-size="14" lengthAdjust="spacingAndGlyphs" textLength="188" x="36" y="26.5332">MinimalEObjectImpl.Container</text><text fill="#000000" font-family="sans-serif" font-size="10" lengthAdjust="spacingAndGlyphs" textLength="127" x="66.5" y="39.9902">org.eclipse.emf.ecore.impl</text><!--MD5=[3ea1595329bab7290b404c0ef3fdeee6]
class org.eclipse.epf.uma.Element--><a href="..\Element.html" target="_top" title="..\Element.html" xlink:actuate="onRequest" xlink:href="..\Element.html" xlink:show="new" xlink:title="..\Element.html" xlink:type="simple"><rect codeLine="9" fill="#FEFECE" filter="url(#f23576vyd7sxz)" height="40.1875" id="org.eclipse.epf.uma.Element" style="stroke: #A80036; stroke-width: 1.5;" width="124" x="262" y="7"/><ellipse cx="277" cy="27.0938" fill="#B4A7E5" rx="11" ry="11" style="stroke: #A80036; stroke-width: 1.0;"/><path d="M277.9531,23.7344 L277.9531,30.3906 L279.6719,30.3906 Q280.2813,30.3906 280.5469,30.625 Q280.8125,30.8594 280.8125,31.25 Q280.8125,31.625 280.5469,31.8594 Q280.2813,32.0938 279.6719,32.0938 L274.5313,32.0938 Q273.9219,32.0938 273.6563,31.8594 Q273.3906,31.625 273.3906,31.2344 Q273.3906,30.8594 273.6563,30.625 Q273.9219,30.3906 274.5313,30.3906 L276.25,30.3906 L276.25,23.7344 L274.5313,23.7344 Q273.9219,23.7344 273.6563,23.5 Q273.3906,23.2656 273.3906,22.875 Q273.3906,22.5 273.6563,22.2656 Q273.9219,22.0313 274.5313,22.0313 L279.6719,22.0313 Q280.2813,22.0313 280.5469,22.2656 Q280.8125,22.5 280.8125,22.875 Q280.8125,23.2656 280.5469,23.5 Q280.2813,23.7344 279.6719,23.7344 L277.9531,23.7344 Z "/><text fill="#000000" font-family="sans-serif" font-size="14" font-style="italic" lengthAdjust="spacingAndGlyphs" textLength="51" x="311.5" y="26.5332">Element</text><text fill="#000000" font-family="sans-serif" font-size="10" font-style="italic" lengthAdjust="spacingAndGlyphs" textLength="92" x="291" y="39.9902">org.eclipse.epf.uma</text></a><!--MD5=[1898172a0c24c63b4a2c330037204e24]
reverse link org.eclipse.emf.ecore.impl.MinimalEObjectImpl.Container to org.eclipse.epf.uma.impl.ElementImpl--><path codeLine="11" d="M152.17,61.46 C168.02,76.54 186.16,93.8 199.69,106.68 " fill="none" id="org.eclipse.emf.ecore.impl.MinimalEObjectImpl.Container-backto-org.eclipse.epf.uma.impl.ElementImpl" style="stroke: #A80036; stroke-width: 1.0;"/><polygon fill="none" points="147.01,66.22,137.35,47.36,156.66,56.08,147.01,66.22" style="stroke: #A80036; stroke-width: 1.0;"/><!--MD5=[728484c46b35b6e0ef60437a5536b830]
reverse link org.eclipse.epf.uma.Element to org.eclipse.epf.uma.impl.ElementImpl--><path codeLine="12" d="M288.49,61.46 C272.49,76.54 254.17,93.8 240.5,106.68 " fill="none" id="org.eclipse.epf.uma.Element-backto-org.eclipse.epf.uma.impl.ElementImpl" style="stroke: #A80036; stroke-width: 1.0; stroke-dasharray: 7.0,7.0;"/><polygon fill="none" points="284.1,55.98,303.45,47.36,293.7,66.17,284.1,55.98" style="stroke: #A80036; stroke-width: 1.0;"/><text fill="#888888" font-family="sans-serif" font-size="10" lengthAdjust="spacingAndGlyphs" textLength="190" x="98.5" y="170.5684">UMLDoclet 2.0.12, PlantUML 1.2020.16</text><!--MD5=[79b2468093113a3f31957b38c3b0d915]
@startuml
    set namespaceSeparator none
    hide empty fields
    hide empty methods

    abstract class "<size:14>ElementImpl\n<size:10>org.eclipse.epf.uma.impl" as org.eclipse.epf.uma.impl.ElementImpl [[ElementImpl.html]] {
    }

    class "<size:14>MinimalEObjectImpl.Container\n<size:10>org.eclipse.emf.ecore.impl" as org.eclipse.emf.ecore.impl.MinimalEObjectImpl.Container
    interface "<size:14>Element\n<size:10>org.eclipse.epf.uma" as org.eclipse.epf.uma.Element [[..\Element.html]]

    org.eclipse.emf.ecore.impl.MinimalEObjectImpl.Container <|- - org.eclipse.epf.uma.impl.ElementImpl
    org.eclipse.epf.uma.Element <|.. org.eclipse.epf.uma.impl.ElementImpl

    center footer UMLDoclet 2.0.12, PlantUML 1.2020.16
@enduml

PlantUML version 1.2020.16(Sun Aug 23 22:20:43 CEST 2020)
(APACHE source distribution)
Java Runtime: Java(TM) SE Runtime Environment
JVM: Java HotSpot(TM) 64-Bit Server VM
Default Encoding: Cp1252
Language: es
Country: ES
--></g></svg>