<?xml version="1.0" encoding="UTF-8" standalone="no"?><svg xmlns="http://www.w3.org/2000/svg" xmlns:xlink="http://www.w3.org/1999/xlink" contentScriptType="application/ecmascript" contentStyleType="text/css" height="601px" preserveAspectRatio="none" style="width:383px;height:601px;" version="1.1" viewBox="0 0 383 601" width="383px" zoomAndPan="magnify"><defs><filter height="300%" id="fsh9sdl80tyc6" width="300%" x="-1" y="-1"><feGaussianBlur result="blurOut" stdDeviation="2.0"/><feColorMatrix in="blurOut" result="blurOut2" type="matrix" values="0 0 0 0 0 0 0 0 0 0 0 0 0 0 0 0 0 0 .4 0"/><feOffset dx="4.0" dy="4.0" in="blurOut2" result="blurOut3"/><feBlend in="SourceGraphic" in2="blurOut3" mode="normal"/></filter></defs><g><!--MD5=[3379ec93a00f165cfe9a6c2d17c41665]
class org.eclipse.epf.uma.impl.EllipseImpl--><a href="EllipseImpl.html" target="_top" title="EllipseImpl.html" xlink:actuate="onRequest" xlink:href="EllipseImpl.html" xlink:show="new" xlink:title="EllipseImpl.html" xlink:type="simple"><rect codeLine="5" fill="#FEFECE" filter="url(#fsh9sdl80tyc6)" height="283.3984" id="org.eclipse.epf.uma.impl.EllipseImpl" style="stroke: #A80036; stroke-width: 1.5;" width="193" x="88.5" y="281"/><ellipse cx="122.85" cy="301.0938" fill="#ADD1B2" rx="11" ry="11" style="stroke: #A80036; stroke-width: 1.0;"/><path d="M125.6156,296.9688 Q125.7719,296.75 125.9594,296.6406 Q126.1469,296.5313 126.3656,296.5313 Q126.7406,296.5313 126.975,296.7969 Q127.2094,297.0469 127.2094,297.6563 L127.2094,299.1094 Q127.2094,299.7188 126.975,299.9844 Q126.7406,300.25 126.3656,300.25 Q126.0219,300.25 125.8188,300.0469 Q125.6156,299.8594 125.5063,299.3438 Q125.4594,298.9844 125.2719,298.7969 Q124.9438,298.4219 124.3344,298.2031 Q123.725,297.9844 123.1,297.9844 Q122.3344,297.9844 121.6938,298.3125 Q121.0688,298.6406 120.5688,299.3906 Q120.0844,300.1406 120.0844,301.1719 L120.0844,302.2656 Q120.0844,303.5 120.975,304.3281 Q121.8656,305.1406 123.4594,305.1406 Q124.3969,305.1406 125.0531,304.8906 Q125.4438,304.7344 125.8656,304.2969 Q126.1313,304.0313 126.2719,303.9531 Q126.4281,303.875 126.6313,303.875 Q126.9594,303.875 127.2094,304.1406 Q127.475,304.3906 127.475,304.7344 Q127.475,305.0781 127.1313,305.4844 Q126.6313,306.0625 125.8344,306.3906 Q124.7563,306.8438 123.4594,306.8438 Q121.9438,306.8438 120.7406,306.2188 Q119.7563,305.7188 119.0688,304.6563 Q118.3813,303.5781 118.3813,302.2969 L118.3813,301.1406 Q118.3813,299.8125 118.9906,298.6719 Q119.6156,297.5156 120.7094,296.9063 Q121.8031,296.2813 123.0375,296.2813 Q123.7719,296.2813 124.4125,296.4531 Q125.0688,296.6094 125.6156,296.9688 Z "/><text fill="#000000" font-family="sans-serif" font-size="14" lengthAdjust="spacingAndGlyphs" textLength="66" x="167.15" y="300.5332">EllipseImpl</text><text fill="#000000" font-family="sans-serif" font-size="10" lengthAdjust="spacingAndGlyphs" textLength="118" x="141.15" y="313.9902">org.eclipse.epf.uma.impl</text><line style="stroke: #A80036; stroke-width: 1.5;" x1="89.5" x2="280.5" y1="321.1875" y2="321.1875"/><ellipse cx="99.5" cy="332.1875" fill="#84BE84" rx="3" ry="3" style="stroke: #038048; stroke-width: 1.0;"/><text fill="#000000" font-family="sans-serif" font-size="11" lengthAdjust="spacingAndGlyphs" textLength="84" x="108.5" y="336.6064">getCenter(): Point</text><ellipse cx="99.5" cy="346.0234" fill="#84BE84" rx="3" ry="3" style="stroke: #038048; stroke-width: 1.0;"/><text fill="#000000" font-family="sans-serif" font-size="11" lengthAdjust="spacingAndGlyphs" textLength="112" x="108.5" y="350.4424">basicGetCenter(): Point</text><ellipse cx="99.5" cy="359.8594" fill="#84BE84" rx="3" ry="3" style="stroke: #038048; stroke-width: 1.0;"/><text fill="#000000" font-family="sans-serif" font-size="11" lengthAdjust="spacingAndGlyphs" textLength="104" x="108.5" y="364.2783">setCenter(Point): void</text><ellipse cx="99.5" cy="373.6953" fill="#84BE84" rx="3" ry="3" style="stroke: #038048; stroke-width: 1.0;"/><text fill="#000000" font-family="sans-serif" font-size="11" lengthAdjust="spacingAndGlyphs" textLength="102" x="108.5" y="378.1143">getRadiusX(): Double</text><ellipse cx="99.5" cy="387.5313" fill="#84BE84" rx="3" ry="3" style="stroke: #038048; stroke-width: 1.0;"/><text fill="#000000" font-family="sans-serif" font-size="11" lengthAdjust="spacingAndGlyphs" textLength="122" x="108.5" y="391.9502">setRadiusX(Double): void</text><ellipse cx="99.5" cy="401.3672" fill="#84BE84" rx="3" ry="3" style="stroke: #038048; stroke-width: 1.0;"/><text fill="#000000" font-family="sans-serif" font-size="11" lengthAdjust="spacingAndGlyphs" textLength="103" x="108.5" y="405.7861">getRadiusY(): Double</text><ellipse cx="99.5" cy="415.2031" fill="#84BE84" rx="3" ry="3" style="stroke: #038048; stroke-width: 1.0;"/><text fill="#000000" font-family="sans-serif" font-size="11" lengthAdjust="spacingAndGlyphs" textLength="123" x="108.5" y="419.6221">setRadiusY(Double): void</text><ellipse cx="99.5" cy="429.0391" fill="#84BE84" rx="3" ry="3" style="stroke: #038048; stroke-width: 1.0;"/><text fill="#000000" font-family="sans-serif" font-size="11" lengthAdjust="spacingAndGlyphs" textLength="101" x="108.5" y="433.458">getRotation(): Double</text><ellipse cx="99.5" cy="442.875" fill="#84BE84" rx="3" ry="3" style="stroke: #038048; stroke-width: 1.0;"/><text fill="#000000" font-family="sans-serif" font-size="11" lengthAdjust="spacingAndGlyphs" textLength="121" x="108.5" y="447.2939">setRotation(Double): void</text><ellipse cx="99.5" cy="456.7109" fill="#84BE84" rx="3" ry="3" style="stroke: #038048; stroke-width: 1.0;"/><text fill="#000000" font-family="sans-serif" font-size="11" lengthAdjust="spacingAndGlyphs" textLength="113" x="108.5" y="461.1299">getStartAngle(): Double</text><ellipse cx="99.5" cy="470.5469" fill="#84BE84" rx="3" ry="3" style="stroke: #038048; stroke-width: 1.0;"/><text fill="#000000" font-family="sans-serif" font-size="11" lengthAdjust="spacingAndGlyphs" textLength="133" x="108.5" y="474.9658">setStartAngle(Double): void</text><ellipse cx="99.5" cy="484.3828" fill="#84BE84" rx="3" ry="3" style="stroke: #038048; stroke-width: 1.0;"/><text fill="#000000" font-family="sans-serif" font-size="11" lengthAdjust="spacingAndGlyphs" textLength="108" x="108.5" y="488.8018">getEndAngle(): Double</text><ellipse cx="99.5" cy="498.2188" fill="#84BE84" rx="3" ry="3" style="stroke: #038048; stroke-width: 1.0;"/><text fill="#000000" font-family="sans-serif" font-size="11" lengthAdjust="spacingAndGlyphs" textLength="128" x="108.5" y="502.6377">setEndAngle(Double): void</text><ellipse cx="99.5" cy="512.0547" fill="#84BE84" rx="3" ry="3" style="stroke: #038048; stroke-width: 1.0;"/><text fill="#000000" font-family="sans-serif" font-size="11" lengthAdjust="spacingAndGlyphs" textLength="167" x="108.5" y="516.4736">eGet(int, boolean, boolean): Object</text><ellipse cx="99.5" cy="525.8906" fill="#84BE84" rx="3" ry="3" style="stroke: #038048; stroke-width: 1.0;"/><text fill="#000000" font-family="sans-serif" font-size="11" lengthAdjust="spacingAndGlyphs" textLength="104" x="108.5" y="530.3096">eSet(int, Object): void</text><ellipse cx="99.5" cy="539.7266" fill="#84BE84" rx="3" ry="3" style="stroke: #038048; stroke-width: 1.0;"/><text fill="#000000" font-family="sans-serif" font-size="11" lengthAdjust="spacingAndGlyphs" textLength="79" x="108.5" y="544.1455">eUnset(int): void</text><ellipse cx="99.5" cy="553.5625" fill="#84BE84" rx="3" ry="3" style="stroke: #038048; stroke-width: 1.0;"/><text fill="#000000" font-family="sans-serif" font-size="11" lengthAdjust="spacingAndGlyphs" textLength="93" x="108.5" y="557.9814">eIsSet(int): boolean</text></a><!--MD5=[4972c8e3c72ba8ac3368e868ad780726]
class org.eclipse.epf.uma.impl.GraphicPrimitiveImpl--><a href="GraphicPrimitiveImpl.html" target="_top" title="GraphicPrimitiveImpl.html" xlink:actuate="onRequest" xlink:href="GraphicPrimitiveImpl.html" xlink:show="new" xlink:title="GraphicPrimitiveImpl.html" xlink:type="simple"><rect codeLine="25" fill="#FEFECE" filter="url(#fsh9sdl80tyc6)" height="40.1875" id="org.eclipse.epf.uma.impl.GraphicPrimitiveImpl" style="stroke: #A80036; stroke-width: 1.5;" width="160" x="7" y="94"/><ellipse cx="22" cy="114.0938" fill="#A9DCDF" rx="11" ry="11" style="stroke: #A80036; stroke-width: 1.0;"/><path d="M24.1875,115.8594 L20.0469,115.8594 L19.625,116.8906 L20.0469,116.8906 Q20.6563,116.8906 20.9219,117.125 Q21.1875,117.3594 21.1875,117.75 Q21.1875,118.125 20.9219,118.3594 Q20.6563,118.5938 20.0469,118.5938 L17.75,118.5938 Q17.1406,118.5938 16.8906,118.3594 Q16.625,118.125 16.625,117.7344 Q16.625,117.3594 16.9063,117.125 Q17.1719,116.875 17.7969,116.8906 L20.4688,110.2344 L19.3594,110.2344 Q18.75,110.2344 18.4844,110 Q18.2188,109.7656 18.2188,109.375 Q18.2188,109 18.4844,108.7656 Q18.75,108.5313 19.3594,108.5313 L23.0313,108.5313 L26.4219,116.8906 Q27.0156,116.8906 27.2031,117.0313 Q27.5938,117.2969 27.5938,117.75 Q27.5938,118.125 27.3281,118.3594 Q27.0781,118.5938 26.4688,118.5938 L24.1719,118.5938 Q23.5625,118.5938 23.2969,118.3594 Q23.0313,118.125 23.0313,117.7344 Q23.0313,117.3594 23.2969,117.125 Q23.5625,116.8906 24.1719,116.8906 L24.5938,116.8906 L24.1875,115.8594 Z M23.4688,114.1563 L22.1094,110.7813 L20.7344,114.1563 L23.4688,114.1563 Z "/><text fill="#000000" font-family="sans-serif" font-size="14" font-style="italic" lengthAdjust="spacingAndGlyphs" textLength="128" x="36" y="113.5332">GraphicPrimitiveImpl</text><text fill="#000000" font-family="sans-serif" font-size="10" font-style="italic" lengthAdjust="spacingAndGlyphs" textLength="114" x="43" y="126.9902">org.eclipse.epf.uma.impl</text></a><!--MD5=[356d594695d3231ca1d61cf84a12f094]
class org.eclipse.epf.uma.Ellipse--><a href="..\Ellipse.html" target="_top" title="..\Ellipse.html" xlink:actuate="onRequest" xlink:href="..\Ellipse.html" xlink:show="new" xlink:title="..\Ellipse.html" xlink:type="simple"><rect codeLine="26" fill="#FEFECE" filter="url(#fsh9sdl80tyc6)" height="214.2188" id="org.eclipse.epf.uma.Ellipse" style="stroke: #A80036; stroke-width: 1.5;" width="162" x="202" y="7"/><ellipse cx="234.1" cy="27.0938" fill="#B4A7E5" rx="11" ry="11" style="stroke: #A80036; stroke-width: 1.0;"/><path d="M235.0531,23.7344 L235.0531,30.3906 L236.7719,30.3906 Q237.3813,30.3906 237.6469,30.625 Q237.9125,30.8594 237.9125,31.25 Q237.9125,31.625 237.6469,31.8594 Q237.3813,32.0938 236.7719,32.0938 L231.6313,32.0938 Q231.0219,32.0938 230.7563,31.8594 Q230.4906,31.625 230.4906,31.2344 Q230.4906,30.8594 230.7563,30.625 Q231.0219,30.3906 231.6313,30.3906 L233.35,30.3906 L233.35,23.7344 L231.6313,23.7344 Q231.0219,23.7344 230.7563,23.5 Q230.4906,23.2656 230.4906,22.875 Q230.4906,22.5 230.7563,22.2656 Q231.0219,22.0313 231.6313,22.0313 L236.7719,22.0313 Q237.3813,22.0313 237.6469,22.2656 Q237.9125,22.5 237.9125,22.875 Q237.9125,23.2656 237.6469,23.5 Q237.3813,23.7344 236.7719,23.7344 L235.0531,23.7344 Z "/><text fill="#000000" font-family="sans-serif" font-size="14" font-style="italic" lengthAdjust="spacingAndGlyphs" textLength="41" x="277.4" y="26.5332">Ellipse</text><text fill="#000000" font-family="sans-serif" font-size="10" font-style="italic" lengthAdjust="spacingAndGlyphs" textLength="92" x="251.9" y="39.9902">org.eclipse.epf.uma</text><line style="stroke: #A80036; stroke-width: 1.5;" x1="203" x2="363" y1="47.1875" y2="47.1875"/><ellipse cx="213" cy="58.1875" fill="#84BE84" rx="3" ry="3" style="stroke: #038048; stroke-width: 1.0;"/><text fill="#000000" font-family="sans-serif" font-size="11" font-style="italic" lengthAdjust="spacingAndGlyphs" textLength="87" x="222" y="62.6064">getCenter(): Point</text><ellipse cx="213" cy="72.0234" fill="#84BE84" rx="3" ry="3" style="stroke: #038048; stroke-width: 1.0;"/><text fill="#000000" font-family="sans-serif" font-size="11" font-style="italic" lengthAdjust="spacingAndGlyphs" textLength="107" x="222" y="76.4424">setCenter(Point): void</text><ellipse cx="213" cy="85.8594" fill="#84BE84" rx="3" ry="3" style="stroke: #038048; stroke-width: 1.0;"/><text fill="#000000" font-family="sans-serif" font-size="11" font-style="italic" lengthAdjust="spacingAndGlyphs" textLength="107" x="222" y="90.2783">getRadiusX(): Double</text><ellipse cx="213" cy="99.6953" fill="#84BE84" rx="3" ry="3" style="stroke: #038048; stroke-width: 1.0;"/><text fill="#000000" font-family="sans-serif" font-size="11" font-style="italic" lengthAdjust="spacingAndGlyphs" textLength="127" x="222" y="104.1143">setRadiusX(Double): void</text><ellipse cx="213" cy="113.5313" fill="#84BE84" rx="3" ry="3" style="stroke: #038048; stroke-width: 1.0;"/><text fill="#000000" font-family="sans-serif" font-size="11" font-style="italic" lengthAdjust="spacingAndGlyphs" textLength="107" x="222" y="117.9502">getRadiusY(): Double</text><ellipse cx="213" cy="127.3672" fill="#84BE84" rx="3" ry="3" style="stroke: #038048; stroke-width: 1.0;"/><text fill="#000000" font-family="sans-serif" font-size="11" font-style="italic" lengthAdjust="spacingAndGlyphs" textLength="127" x="222" y="131.7861">setRadiusY(Double): void</text><ellipse cx="213" cy="141.2031" fill="#84BE84" rx="3" ry="3" style="stroke: #038048; stroke-width: 1.0;"/><text fill="#000000" font-family="sans-serif" font-size="11" font-style="italic" lengthAdjust="spacingAndGlyphs" textLength="106" x="222" y="145.6221">getRotation(): Double</text><ellipse cx="213" cy="155.0391" fill="#84BE84" rx="3" ry="3" style="stroke: #038048; stroke-width: 1.0;"/><text fill="#000000" font-family="sans-serif" font-size="11" font-style="italic" lengthAdjust="spacingAndGlyphs" textLength="126" x="222" y="159.458">setRotation(Double): void</text><ellipse cx="213" cy="168.875" fill="#84BE84" rx="3" ry="3" style="stroke: #038048; stroke-width: 1.0;"/><text fill="#000000" font-family="sans-serif" font-size="11" font-style="italic" lengthAdjust="spacingAndGlyphs" textLength="116" x="222" y="173.2939">getStartAngle(): Double</text><ellipse cx="213" cy="182.7109" fill="#84BE84" rx="3" ry="3" style="stroke: #038048; stroke-width: 1.0;"/><text fill="#000000" font-family="sans-serif" font-size="11" font-style="italic" lengthAdjust="spacingAndGlyphs" textLength="136" x="222" y="187.1299">setStartAngle(Double): void</text><ellipse cx="213" cy="196.5469" fill="#84BE84" rx="3" ry="3" style="stroke: #038048; stroke-width: 1.0;"/><text fill="#000000" font-family="sans-serif" font-size="11" font-style="italic" lengthAdjust="spacingAndGlyphs" textLength="112" x="222" y="200.9658">getEndAngle(): Double</text><ellipse cx="213" cy="210.3828" fill="#84BE84" rx="3" ry="3" style="stroke: #038048; stroke-width: 1.0;"/><text fill="#000000" font-family="sans-serif" font-size="11" font-style="italic" lengthAdjust="spacingAndGlyphs" textLength="132" x="222" y="214.8018">setEndAngle(Double): void</text></a><!--MD5=[60f489dd1e6b9d176a6f8ad2edcc21cd]
reverse link org.eclipse.epf.uma.impl.GraphicPrimitiveImpl to org.eclipse.epf.uma.impl.EllipseImpl--><path codeLine="41" d="M99.26,153.35 C109.6,185.68 125.06,234.03 140.01,280.8 " fill="none" id="org.eclipse.epf.uma.impl.GraphicPrimitiveImpl-backto-org.eclipse.epf.uma.impl.EllipseImpl" style="stroke: #A80036; stroke-width: 1.0;"/><polygon fill="none" points="92.55,155.35,93.13,134.17,105.89,151.09,92.55,155.35" style="stroke: #A80036; stroke-width: 1.0;"/><!--MD5=[3f628fc7d7afc2c06bcaa1f4382ffc6b]
reverse link org.eclipse.epf.uma.Ellipse to org.eclipse.epf.uma.impl.EllipseImpl--><path codeLine="42" d="M242.86,240.53 C238.62,253.81 234.28,267.37 229.99,280.8 " fill="none" id="org.eclipse.epf.uma.Ellipse-backto-org.eclipse.epf.uma.impl.EllipseImpl" style="stroke: #A80036; stroke-width: 1.0; stroke-dasharray: 7.0,7.0;"/><polygon fill="none" points="236.24,238.26,249,221.34,249.58,242.52,236.24,238.26" style="stroke: #A80036; stroke-width: 1.0;"/><text fill="#888888" font-family="sans-serif" font-size="10" lengthAdjust="spacingAndGlyphs" textLength="190" x="87.5" y="587.7793">UMLDoclet 2.0.12, PlantUML 1.2020.16</text><!--MD5=[a654463b63b77a1de01bbdd00485ee29]
@startuml
    set namespaceSeparator none
    hide empty fields
    hide empty methods

    class "<size:14>EllipseImpl\n<size:10>org.eclipse.epf.uma.impl" as org.eclipse.epf.uma.impl.EllipseImpl [[EllipseImpl.html]] {
        +getCenter(): Point
        +basicGetCenter(): Point
        +setCenter(Point): void
        +getRadiusX(): Double
        +setRadiusX(Double): void
        +getRadiusY(): Double
        +setRadiusY(Double): void
        +getRotation(): Double
        +setRotation(Double): void
        +getStartAngle(): Double
        +setStartAngle(Double): void
        +getEndAngle(): Double
        +setEndAngle(Double): void
        +eGet(int, boolean, boolean): Object
        +eSet(int, Object): void
        +eUnset(int): void
        +eIsSet(int): boolean
    }

    abstract class "<size:14>GraphicPrimitiveImpl\n<size:10>org.eclipse.epf.uma.impl" as org.eclipse.epf.uma.impl.GraphicPrimitiveImpl [[GraphicPrimitiveImpl.html]]
    interface "<size:14>Ellipse\n<size:10>org.eclipse.epf.uma" as org.eclipse.epf.uma.Ellipse [[..\Ellipse.html]] {
        {abstract} +getCenter(): Point
        {abstract} +setCenter(Point): void
        {abstract} +getRadiusX(): Double
        {abstract} +setRadiusX(Double): void
        {abstract} +getRadiusY(): Double
        {abstract} +setRadiusY(Double): void
        {abstract} +getRotation(): Double
        {abstract} +setRotation(Double): void
        {abstract} +getStartAngle(): Double
        {abstract} +setStartAngle(Double): void
        {abstract} +getEndAngle(): Double
        {abstract} +setEndAngle(Double): void
    }

    org.eclipse.epf.uma.impl.GraphicPrimitiveImpl <|- - org.eclipse.epf.uma.impl.EllipseImpl
    org.eclipse.epf.uma.Ellipse <|.. org.eclipse.epf.uma.impl.EllipseImpl

    center footer UMLDoclet 2.0.12, PlantUML 1.2020.16
@enduml

PlantUML version 1.2020.16(Sun Aug 23 22:20:43 CEST 2020)
(APACHE source distribution)
Java Runtime: Java(TM) SE Runtime Environment
JVM: Java HotSpot(TM) 64-Bit Server VM
Default Encoding: Cp1252
Language: es
Country: ES
--></g></svg>