<?xml version="1.0" encoding="UTF-8" standalone="no"?><svg xmlns="http://www.w3.org/2000/svg" xmlns:xlink="http://www.w3.org/1999/xlink" contentScriptType="application/ecmascript" contentStyleType="text/css" height="184px" preserveAspectRatio="none" style="width:399px;height:184px;" version="1.1" viewBox="0 0 399 184" width="399px" zoomAndPan="magnify"><defs><filter height="300%" id="fvb616mqstjio" width="300%" x="-1" y="-1"><feGaussianBlur result="blurOut" stdDeviation="2.0"/><feColorMatrix in="blurOut" result="blurOut2" type="matrix" values="0 0 0 0 0 0 0 0 0 0 0 0 0 0 0 0 0 0 .4 0"/><feOffset dx="4.0" dy="4.0" in="blurOut2" result="blurOut3"/><feBlend in="SourceGraphic" in2="blurOut3" mode="normal"/></filter></defs><g><!--MD5=[5a7aa59f81847b11b8b47a44d002adba]
class org.eclipse.epf.uma.impl.EstimationConsiderationsImpl--><a href="EstimationConsiderationsImpl.html" target="_top" title="EstimationConsiderationsImpl.html" xlink:actuate="onRequest" xlink:href="EstimationConsiderationsImpl.html" xlink:show="new" xlink:title="EstimationConsiderationsImpl.html" xlink:type="simple"><rect codeLine="5" fill="#FEFECE" filter="url(#fvb616mqstjio)" height="40.1875" id="org.eclipse.epf.uma.impl.EstimationConsiderationsImpl" style="stroke: #A80036; stroke-width: 1.5;" width="217" x="73.5" y="107"/><ellipse cx="88.5" cy="127.0938" fill="#ADD1B2" rx="11" ry="11" style="stroke: #A80036; stroke-width: 1.0;"/><path d="M91.2656,122.9688 Q91.4219,122.75 91.6094,122.6406 Q91.7969,122.5313 92.0156,122.5313 Q92.3906,122.5313 92.625,122.7969 Q92.8594,123.0469 92.8594,123.6563 L92.8594,125.1094 Q92.8594,125.7188 92.625,125.9844 Q92.3906,126.25 92.0156,126.25 Q91.6719,126.25 91.4688,126.0469 Q91.2656,125.8594 91.1563,125.3438 Q91.1094,124.9844 90.9219,124.7969 Q90.5938,124.4219 89.9844,124.2031 Q89.375,123.9844 88.75,123.9844 Q87.9844,123.9844 87.3438,124.3125 Q86.7188,124.6406 86.2188,125.3906 Q85.7344,126.1406 85.7344,127.1719 L85.7344,128.2656 Q85.7344,129.5 86.625,130.3281 Q87.5156,131.1406 89.1094,131.1406 Q90.0469,131.1406 90.7031,130.8906 Q91.0938,130.7344 91.5156,130.2969 Q91.7813,130.0313 91.9219,129.9531 Q92.0781,129.875 92.2813,129.875 Q92.6094,129.875 92.8594,130.1406 Q93.125,130.3906 93.125,130.7344 Q93.125,131.0781 92.7813,131.4844 Q92.2813,132.0625 91.4844,132.3906 Q90.4063,132.8438 89.1094,132.8438 Q87.5938,132.8438 86.3906,132.2188 Q85.4063,131.7188 84.7188,130.6563 Q84.0313,129.5781 84.0313,128.2969 L84.0313,127.1406 Q84.0313,125.8125 84.6406,124.6719 Q85.2656,123.5156 86.3594,122.9063 Q87.4531,122.2813 88.6875,122.2813 Q89.4219,122.2813 90.0625,122.4531 Q90.7188,122.6094 91.2656,122.9688 Z "/><text fill="#000000" font-family="sans-serif" font-size="14" lengthAdjust="spacingAndGlyphs" textLength="185" x="102.5" y="126.5332">EstimationConsiderationsImpl</text><text fill="#000000" font-family="sans-serif" font-size="10" lengthAdjust="spacingAndGlyphs" textLength="118" x="136" y="139.9902">org.eclipse.epf.uma.impl</text></a><!--MD5=[4ac47b7f125fe8903eb916935a8c261c]
class org.eclipse.epf.uma.impl.GuidanceImpl--><a href="GuidanceImpl.html" target="_top" title="GuidanceImpl.html" xlink:actuate="onRequest" xlink:href="GuidanceImpl.html" xlink:show="new" xlink:title="GuidanceImpl.html" xlink:type="simple"><rect codeLine="8" fill="#FEFECE" filter="url(#fvb616mqstjio)" height="40.1875" id="org.eclipse.epf.uma.impl.GuidanceImpl" style="stroke: #A80036; stroke-width: 1.5;" width="146" x="7" y="7"/><ellipse cx="22" cy="27.0938" fill="#A9DCDF" rx="11" ry="11" style="stroke: #A80036; stroke-width: 1.0;"/><path d="M24.1875,28.8594 L20.0469,28.8594 L19.625,29.8906 L20.0469,29.8906 Q20.6563,29.8906 20.9219,30.125 Q21.1875,30.3594 21.1875,30.75 Q21.1875,31.125 20.9219,31.3594 Q20.6563,31.5938 20.0469,31.5938 L17.75,31.5938 Q17.1406,31.5938 16.8906,31.3594 Q16.625,31.125 16.625,30.7344 Q16.625,30.3594 16.9063,30.125 Q17.1719,29.875 17.7969,29.8906 L20.4688,23.2344 L19.3594,23.2344 Q18.75,23.2344 18.4844,23 Q18.2188,22.7656 18.2188,22.375 Q18.2188,22 18.4844,21.7656 Q18.75,21.5313 19.3594,21.5313 L23.0313,21.5313 L26.4219,29.8906 Q27.0156,29.8906 27.2031,30.0313 Q27.5938,30.2969 27.5938,30.75 Q27.5938,31.125 27.3281,31.3594 Q27.0781,31.5938 26.4688,31.5938 L24.1719,31.5938 Q23.5625,31.5938 23.2969,31.3594 Q23.0313,31.125 23.0313,30.7344 Q23.0313,30.3594 23.2969,30.125 Q23.5625,29.8906 24.1719,29.8906 L24.5938,29.8906 L24.1875,28.8594 Z M23.4688,27.1563 L22.1094,23.7813 L20.7344,27.1563 L23.4688,27.1563 Z "/><text fill="#000000" font-family="sans-serif" font-size="14" font-style="italic" lengthAdjust="spacingAndGlyphs" textLength="87" x="49.5" y="26.5332">GuidanceImpl</text><text fill="#000000" font-family="sans-serif" font-size="10" font-style="italic" lengthAdjust="spacingAndGlyphs" textLength="114" x="36" y="39.9902">org.eclipse.epf.uma.impl</text></a><!--MD5=[b8a13ceb36ddd386351566a5d36d54cb]
class org.eclipse.epf.uma.EstimationConsiderations--><a href="..\EstimationConsiderations.html" target="_top" title="..\EstimationConsiderations.html" xlink:actuate="onRequest" xlink:href="..\EstimationConsiderations.html" xlink:show="new" xlink:title="..\EstimationConsiderations.html" xlink:type="simple"><rect codeLine="9" fill="#FEFECE" filter="url(#fvb616mqstjio)" height="40.1875" id="org.eclipse.epf.uma.EstimationConsiderations" style="stroke: #A80036; stroke-width: 1.5;" width="192" x="188" y="7"/><ellipse cx="203" cy="27.0938" fill="#B4A7E5" rx="11" ry="11" style="stroke: #A80036; stroke-width: 1.0;"/><path d="M203.9531,23.7344 L203.9531,30.3906 L205.6719,30.3906 Q206.2813,30.3906 206.5469,30.625 Q206.8125,30.8594 206.8125,31.25 Q206.8125,31.625 206.5469,31.8594 Q206.2813,32.0938 205.6719,32.0938 L200.5313,32.0938 Q199.9219,32.0938 199.6563,31.8594 Q199.3906,31.625 199.3906,31.2344 Q199.3906,30.8594 199.6563,30.625 Q199.9219,30.3906 200.5313,30.3906 L202.25,30.3906 L202.25,23.7344 L200.5313,23.7344 Q199.9219,23.7344 199.6563,23.5 Q199.3906,23.2656 199.3906,22.875 Q199.3906,22.5 199.6563,22.2656 Q199.9219,22.0313 200.5313,22.0313 L205.6719,22.0313 Q206.2813,22.0313 206.5469,22.2656 Q206.8125,22.5 206.8125,22.875 Q206.8125,23.2656 206.5469,23.5 Q206.2813,23.7344 205.6719,23.7344 L203.9531,23.7344 Z "/><text fill="#000000" font-family="sans-serif" font-size="14" font-style="italic" lengthAdjust="spacingAndGlyphs" textLength="160" x="217" y="26.5332">EstimationConsiderations</text><text fill="#000000" font-family="sans-serif" font-size="10" font-style="italic" lengthAdjust="spacingAndGlyphs" textLength="92" x="251" y="39.9902">org.eclipse.epf.uma</text></a><!--MD5=[f8bc40517193fd9680265cb92f534511]
reverse link org.eclipse.epf.uma.impl.GuidanceImpl to org.eclipse.epf.uma.impl.EstimationConsiderationsImpl--><path codeLine="11" d="M114.83,61.46 C130.52,76.54 148.49,93.8 161.89,106.68 " fill="none" id="org.eclipse.epf.uma.impl.GuidanceImpl-backto-org.eclipse.epf.uma.impl.EstimationConsiderationsImpl" style="stroke: #A80036; stroke-width: 1.0;"/><polygon fill="none" points="109.72,66.27,100.15,47.36,119.42,56.17,109.72,66.27" style="stroke: #A80036; stroke-width: 1.0;"/><!--MD5=[148af6a3e2e88f7e42c0fb698fa6ccf4]
reverse link org.eclipse.epf.uma.EstimationConsiderations to org.eclipse.epf.uma.impl.EstimationConsiderationsImpl--><path codeLine="12" d="M249.17,61.46 C233.48,76.54 215.51,93.8 202.11,106.68 " fill="none" id="org.eclipse.epf.uma.EstimationConsiderations-backto-org.eclipse.epf.uma.impl.EstimationConsiderationsImpl" style="stroke: #A80036; stroke-width: 1.0; stroke-dasharray: 7.0,7.0;"/><polygon fill="none" points="244.58,56.17,263.85,47.36,254.28,66.27,244.58,56.17" style="stroke: #A80036; stroke-width: 1.0;"/><text fill="#888888" font-family="sans-serif" font-size="10" lengthAdjust="spacingAndGlyphs" textLength="190" x="95.5" y="170.5684">UMLDoclet 2.0.12, PlantUML 1.2020.16</text><!--MD5=[063d9341fa8d02444fb5b0eb3b7c89ab]
@startuml
    set namespaceSeparator none
    hide empty fields
    hide empty methods

    class "<size:14>EstimationConsiderationsImpl\n<size:10>org.eclipse.epf.uma.impl" as org.eclipse.epf.uma.impl.EstimationConsiderationsImpl [[EstimationConsiderationsImpl.html]] {
    }

    abstract class "<size:14>GuidanceImpl\n<size:10>org.eclipse.epf.uma.impl" as org.eclipse.epf.uma.impl.GuidanceImpl [[GuidanceImpl.html]]
    interface "<size:14>EstimationConsiderations\n<size:10>org.eclipse.epf.uma" as org.eclipse.epf.uma.EstimationConsiderations [[..\EstimationConsiderations.html]]

    org.eclipse.epf.uma.impl.GuidanceImpl <|- - org.eclipse.epf.uma.impl.EstimationConsiderationsImpl
    org.eclipse.epf.uma.EstimationConsiderations <|.. org.eclipse.epf.uma.impl.EstimationConsiderationsImpl

    center footer UMLDoclet 2.0.12, PlantUML 1.2020.16
@enduml

PlantUML version 1.2020.16(Sun Aug 23 22:20:43 CEST 2020)
(APACHE source distribution)
Java Runtime: Java(TM) SE Runtime Environment
JVM: Java HotSpot(TM) 64-Bit Server VM
Default Encoding: Cp1252
Language: es
Country: ES
--></g></svg>