<?xml version="1.0" encoding="UTF-8" standalone="no"?><svg xmlns="http://www.w3.org/2000/svg" xmlns:xlink="http://www.w3.org/1999/xlink" contentScriptType="application/ecmascript" contentStyleType="text/css" height="283px" preserveAspectRatio="none" style="width:461px;height:283px;" version="1.1" viewBox="0 0 461 283" width="461px" zoomAndPan="magnify"><defs><filter height="300%" id="f7dwwtsy24q88" width="300%" x="-1" y="-1"><feGaussianBlur result="blurOut" stdDeviation="2.0"/><feColorMatrix in="blurOut" result="blurOut2" type="matrix" values="0 0 0 0 0 0 0 0 0 0 0 0 0 0 0 0 0 0 .4 0"/><feOffset dx="4.0" dy="4.0" in="blurOut2" result="blurOut3"/><feBlend in="SourceGraphic" in2="blurOut3" mode="normal"/></filter></defs><g><!--MD5=[9af13b05d1aae9d340651f49b51fbcbf]
class org.eclipse.epf.uma.impl.FulfillableElementImpl--><a href="FulfillableElementImpl.html" target="_top" title="FulfillableElementImpl.html" xlink:actuate="onRequest" xlink:href="FulfillableElementImpl.html" xlink:show="new" xlink:title="FulfillableElementImpl.html" xlink:type="simple"><rect codeLine="5" fill="#FEFECE" filter="url(#f7dwwtsy24q88)" height="117.3672" id="org.eclipse.epf.uma.impl.FulfillableElementImpl" style="stroke: #A80036; stroke-width: 1.5;" width="201" x="115.5" y="129"/><ellipse cx="145.35" cy="149.0938" fill="#ADD1B2" rx="11" ry="11" style="stroke: #A80036; stroke-width: 1.0;"/><path d="M148.1156,144.9688 Q148.2719,144.75 148.4594,144.6406 Q148.6469,144.5313 148.8656,144.5313 Q149.2406,144.5313 149.475,144.7969 Q149.7094,145.0469 149.7094,145.6563 L149.7094,147.1094 Q149.7094,147.7188 149.475,147.9844 Q149.2406,148.25 148.8656,148.25 Q148.5219,148.25 148.3188,148.0469 Q148.1156,147.8594 148.0063,147.3438 Q147.9594,146.9844 147.7719,146.7969 Q147.4438,146.4219 146.8344,146.2031 Q146.225,145.9844 145.6,145.9844 Q144.8344,145.9844 144.1938,146.3125 Q143.5688,146.6406 143.0688,147.3906 Q142.5844,148.1406 142.5844,149.1719 L142.5844,150.2656 Q142.5844,151.5 143.475,152.3281 Q144.3656,153.1406 145.9594,153.1406 Q146.8969,153.1406 147.5531,152.8906 Q147.9438,152.7344 148.3656,152.2969 Q148.6313,152.0313 148.7719,151.9531 Q148.9281,151.875 149.1313,151.875 Q149.4594,151.875 149.7094,152.1406 Q149.975,152.3906 149.975,152.7344 Q149.975,153.0781 149.6313,153.4844 Q149.1313,154.0625 148.3344,154.3906 Q147.2563,154.8438 145.9594,154.8438 Q144.4438,154.8438 143.2406,154.2188 Q142.2563,153.7188 141.5688,152.6563 Q140.8813,151.5781 140.8813,150.2969 L140.8813,149.1406 Q140.8813,147.8125 141.4906,146.6719 Q142.1156,145.5156 143.2094,144.9063 Q144.3031,144.2813 145.5375,144.2813 Q146.2719,144.2813 146.9125,144.4531 Q147.5688,144.6094 148.1156,144.9688 Z "/><text fill="#000000" font-family="sans-serif" font-size="14" lengthAdjust="spacingAndGlyphs" textLength="136" x="162.65" y="148.5332">FulfillableElementImpl</text><text fill="#000000" font-family="sans-serif" font-size="10" lengthAdjust="spacingAndGlyphs" textLength="118" x="171.65" y="161.9902">org.eclipse.epf.uma.impl</text><line style="stroke: #A80036; stroke-width: 1.5;" x1="116.5" x2="315.5" y1="169.1875" y2="169.1875"/><ellipse cx="126.5" cy="180.1875" fill="#84BE84" rx="3" ry="3" style="stroke: #038048; stroke-width: 1.0;"/><text fill="#000000" font-family="sans-serif" font-size="11" lengthAdjust="spacingAndGlyphs" textLength="175" x="135.5" y="184.6064">getFulfills(): EList&lt;FulfillableElement&gt;</text><ellipse cx="126.5" cy="194.0234" fill="#84BE84" rx="3" ry="3" style="stroke: #038048; stroke-width: 1.0;"/><text fill="#000000" font-family="sans-serif" font-size="11" lengthAdjust="spacingAndGlyphs" textLength="167" x="135.5" y="198.4424">eGet(int, boolean, boolean): Object</text><ellipse cx="126.5" cy="207.8594" fill="#84BE84" rx="3" ry="3" style="stroke: #038048; stroke-width: 1.0;"/><text fill="#000000" font-family="sans-serif" font-size="11" lengthAdjust="spacingAndGlyphs" textLength="104" x="135.5" y="212.2783">eSet(int, Object): void</text><ellipse cx="126.5" cy="221.6953" fill="#84BE84" rx="3" ry="3" style="stroke: #038048; stroke-width: 1.0;"/><text fill="#000000" font-family="sans-serif" font-size="11" lengthAdjust="spacingAndGlyphs" textLength="79" x="135.5" y="226.1143">eUnset(int): void</text><ellipse cx="126.5" cy="235.5313" fill="#84BE84" rx="3" ry="3" style="stroke: #038048; stroke-width: 1.0;"/><text fill="#000000" font-family="sans-serif" font-size="11" lengthAdjust="spacingAndGlyphs" textLength="93" x="135.5" y="239.9502">eIsSet(int): boolean</text></a><!--MD5=[78f5f826bf2698fc4f184b6015e9a3f0]
class org.eclipse.epf.uma.impl.DescribableElementImpl--><a href="DescribableElementImpl.html" target="_top" title="DescribableElementImpl.html" xlink:actuate="onRequest" xlink:href="DescribableElementImpl.html" xlink:show="new" xlink:title="DescribableElementImpl.html" xlink:type="simple"><rect codeLine="13" fill="#FEFECE" filter="url(#f7dwwtsy24q88)" height="40.1875" id="org.eclipse.epf.uma.impl.DescribableElementImpl" style="stroke: #A80036; stroke-width: 1.5;" width="184" x="7" y="18"/><ellipse cx="22" cy="38.0938" fill="#A9DCDF" rx="11" ry="11" style="stroke: #A80036; stroke-width: 1.0;"/><path d="M24.1875,39.8594 L20.0469,39.8594 L19.625,40.8906 L20.0469,40.8906 Q20.6563,40.8906 20.9219,41.125 Q21.1875,41.3594 21.1875,41.75 Q21.1875,42.125 20.9219,42.3594 Q20.6563,42.5938 20.0469,42.5938 L17.75,42.5938 Q17.1406,42.5938 16.8906,42.3594 Q16.625,42.125 16.625,41.7344 Q16.625,41.3594 16.9063,41.125 Q17.1719,40.875 17.7969,40.8906 L20.4688,34.2344 L19.3594,34.2344 Q18.75,34.2344 18.4844,34 Q18.2188,33.7656 18.2188,33.375 Q18.2188,33 18.4844,32.7656 Q18.75,32.5313 19.3594,32.5313 L23.0313,32.5313 L26.4219,40.8906 Q27.0156,40.8906 27.2031,41.0313 Q27.5938,41.2969 27.5938,41.75 Q27.5938,42.125 27.3281,42.3594 Q27.0781,42.5938 26.4688,42.5938 L24.1719,42.5938 Q23.5625,42.5938 23.2969,42.3594 Q23.0313,42.125 23.0313,41.7344 Q23.0313,41.3594 23.2969,41.125 Q23.5625,40.8906 24.1719,40.8906 L24.5938,40.8906 L24.1875,39.8594 Z M23.4688,38.1563 L22.1094,34.7813 L20.7344,38.1563 L23.4688,38.1563 Z "/><text fill="#000000" font-family="sans-serif" font-size="14" font-style="italic" lengthAdjust="spacingAndGlyphs" textLength="152" x="36" y="37.5332">DescribableElementImpl</text><text fill="#000000" font-family="sans-serif" font-size="10" font-style="italic" lengthAdjust="spacingAndGlyphs" textLength="114" x="55" y="50.9902">org.eclipse.epf.uma.impl</text></a><!--MD5=[f174583b3eab5efe0bc22d67b8bdbb60]
class org.eclipse.epf.uma.FulfillableElement--><a href="..\FulfillableElement.html" target="_top" title="..\FulfillableElement.html" xlink:actuate="onRequest" xlink:href="..\FulfillableElement.html" xlink:show="new" xlink:title="..\FulfillableElement.html" xlink:type="simple"><rect codeLine="14" fill="#FEFECE" filter="url(#f7dwwtsy24q88)" height="62.0234" id="org.eclipse.epf.uma.FulfillableElement" style="stroke: #A80036; stroke-width: 1.5;" width="216" x="226" y="7"/><ellipse cx="274.25" cy="27.0938" fill="#B4A7E5" rx="11" ry="11" style="stroke: #A80036; stroke-width: 1.0;"/><path d="M275.2031,23.7344 L275.2031,30.3906 L276.9219,30.3906 Q277.5313,30.3906 277.7969,30.625 Q278.0625,30.8594 278.0625,31.25 Q278.0625,31.625 277.7969,31.8594 Q277.5313,32.0938 276.9219,32.0938 L271.7813,32.0938 Q271.1719,32.0938 270.9063,31.8594 Q270.6406,31.625 270.6406,31.2344 Q270.6406,30.8594 270.9063,30.625 Q271.1719,30.3906 271.7813,30.3906 L273.5,30.3906 L273.5,23.7344 L271.7813,23.7344 Q271.1719,23.7344 270.9063,23.5 Q270.6406,23.2656 270.6406,22.875 Q270.6406,22.5 270.9063,22.2656 Q271.1719,22.0313 271.7813,22.0313 L276.9219,22.0313 Q277.5313,22.0313 277.7969,22.2656 Q278.0625,22.5 278.0625,22.875 Q278.0625,23.2656 277.7969,23.5 Q277.5313,23.7344 276.9219,23.7344 L275.2031,23.7344 Z "/><text fill="#000000" font-family="sans-serif" font-size="14" font-style="italic" lengthAdjust="spacingAndGlyphs" textLength="111" x="294.75" y="26.5332">FulfillableElement</text><text fill="#000000" font-family="sans-serif" font-size="10" font-style="italic" lengthAdjust="spacingAndGlyphs" textLength="92" x="304.25" y="39.9902">org.eclipse.epf.uma</text><line style="stroke: #A80036; stroke-width: 1.5;" x1="227" x2="441" y1="47.1875" y2="47.1875"/><ellipse cx="237" cy="58.1875" fill="#84BE84" rx="3" ry="3" style="stroke: #038048; stroke-width: 1.0;"/><text fill="#000000" font-family="sans-serif" font-size="11" font-style="italic" lengthAdjust="spacingAndGlyphs" textLength="190" x="246" y="62.6064">getFulfills(): EList&lt;FulfillableElement&gt;</text></a><!--MD5=[eb24cdaa66d600dfd7e4c4b4ed1b34e6]
reverse link org.eclipse.epf.uma.impl.DescribableElementImpl to org.eclipse.epf.uma.impl.FulfillableElementImpl--><path codeLine="18" d="M126.83,74.09 C139.77,90.4 155.51,110.24 170.13,128.68 " fill="none" id="org.eclipse.epf.uma.impl.DescribableElementImpl-backto-org.eclipse.epf.uma.impl.FulfillableElementImpl" style="stroke: #A80036; stroke-width: 1.0;"/><polygon fill="none" points="121.24,78.3,114.3,58.28,132.21,69.6,121.24,78.3" style="stroke: #A80036; stroke-width: 1.0;"/><!--MD5=[86f84d3e88814486af3acc4ac7f9b037]
reverse link org.eclipse.epf.uma.FulfillableElement to org.eclipse.epf.uma.impl.FulfillableElementImpl--><path codeLine="19" d="M297.05,85.19 C285.97,99.04 273.68,114.4 262.08,128.9 " fill="none" id="org.eclipse.epf.uma.FulfillableElement-backto-org.eclipse.epf.uma.impl.FulfillableElementImpl" style="stroke: #A80036; stroke-width: 1.0; stroke-dasharray: 7.0,7.0;"/><polygon fill="none" points="291.88,80.45,309.84,69.2,302.81,89.2,291.88,80.45" style="stroke: #A80036; stroke-width: 1.0;"/><text fill="#888888" font-family="sans-serif" font-size="10" lengthAdjust="spacingAndGlyphs" textLength="190" x="126.5" y="269.748">UMLDoclet 2.0.12, PlantUML 1.2020.16</text><!--MD5=[2411f11e5cbbc72bdbb0d9658cdc4ebc]
@startuml
    set namespaceSeparator none
    hide empty fields
    hide empty methods

    class "<size:14>FulfillableElementImpl\n<size:10>org.eclipse.epf.uma.impl" as org.eclipse.epf.uma.impl.FulfillableElementImpl [[FulfillableElementImpl.html]] {
        +getFulfills(): EList<FulfillableElement>
        +eGet(int, boolean, boolean): Object
        +eSet(int, Object): void
        +eUnset(int): void
        +eIsSet(int): boolean
    }

    abstract class "<size:14>DescribableElementImpl\n<size:10>org.eclipse.epf.uma.impl" as org.eclipse.epf.uma.impl.DescribableElementImpl [[DescribableElementImpl.html]]
    interface "<size:14>FulfillableElement\n<size:10>org.eclipse.epf.uma" as org.eclipse.epf.uma.FulfillableElement [[..\FulfillableElement.html]] {
        {abstract} +getFulfills(): EList<FulfillableElement>
    }

    org.eclipse.epf.uma.impl.DescribableElementImpl <|- - org.eclipse.epf.uma.impl.FulfillableElementImpl
    org.eclipse.epf.uma.FulfillableElement <|.. org.eclipse.epf.uma.impl.FulfillableElementImpl

    center footer UMLDoclet 2.0.12, PlantUML 1.2020.16
@enduml

PlantUML version 1.2020.16(Sun Aug 23 22:20:43 CEST 2020)
(APACHE source distribution)
Java Runtime: Java(TM) SE Runtime Environment
JVM: Java HotSpot(TM) 64-Bit Server VM
Default Encoding: Cp1252
Language: es
Country: ES
--></g></svg>