<?xml version="1.0" encoding="UTF-8" standalone="no"?><svg xmlns="http://www.w3.org/2000/svg" xmlns:xlink="http://www.w3.org/1999/xlink" contentScriptType="application/ecmascript" contentStyleType="text/css" height="518px" preserveAspectRatio="none" style="width:490px;height:518px;" version="1.1" viewBox="0 0 490 518" width="490px" zoomAndPan="magnify"><defs><filter height="300%" id="f1mf9ndnocscvh" width="300%" x="-1" y="-1"><feGaussianBlur result="blurOut" stdDeviation="2.0"/><feColorMatrix in="blurOut" result="blurOut2" type="matrix" values="0 0 0 0 0 0 0 0 0 0 0 0 0 0 0 0 0 0 .4 0"/><feOffset dx="4.0" dy="4.0" in="blurOut2" result="blurOut3"/><feBlend in="SourceGraphic" in2="blurOut3" mode="normal"/></filter></defs><g><!--MD5=[57ccf9ad911d7876e54819e3b1ad0c74]
class org.eclipse.epf.uma.impl.GraphElementImpl--><a href="GraphElementImpl.html" target="_top" title="GraphElementImpl.html" xlink:actuate="onRequest" xlink:href="GraphElementImpl.html" xlink:show="new" xlink:title="GraphElementImpl.html" xlink:type="simple"><rect codeLine="5" fill="#FEFECE" filter="url(#f1mf9ndnocscvh)" height="269.5625" id="org.eclipse.epf.uma.impl.GraphElementImpl" style="stroke: #A80036; stroke-width: 1.5;" width="423" x="7" y="212"/><ellipse cx="155.75" cy="232.0938" fill="#A9DCDF" rx="11" ry="11" style="stroke: #A80036; stroke-width: 1.0;"/><path d="M157.9375,233.8594 L153.7969,233.8594 L153.375,234.8906 L153.7969,234.8906 Q154.4063,234.8906 154.6719,235.125 Q154.9375,235.3594 154.9375,235.75 Q154.9375,236.125 154.6719,236.3594 Q154.4063,236.5938 153.7969,236.5938 L151.5,236.5938 Q150.8906,236.5938 150.6406,236.3594 Q150.375,236.125 150.375,235.7344 Q150.375,235.3594 150.6563,235.125 Q150.9219,234.875 151.5469,234.8906 L154.2188,228.2344 L153.1094,228.2344 Q152.5,228.2344 152.2344,228 Q151.9688,227.7656 151.9688,227.375 Q151.9688,227 152.2344,226.7656 Q152.5,226.5313 153.1094,226.5313 L156.7813,226.5313 L160.1719,234.8906 Q160.7656,234.8906 160.9531,235.0313 Q161.3438,235.2969 161.3438,235.75 Q161.3438,236.125 161.0781,236.3594 Q160.8281,236.5938 160.2188,236.5938 L157.9219,236.5938 Q157.3125,236.5938 157.0469,236.3594 Q156.7813,236.125 156.7813,235.7344 Q156.7813,235.3594 157.0469,235.125 Q157.3125,234.8906 157.9219,234.8906 L158.3438,234.8906 L157.9375,233.8594 Z M157.2188,232.1563 L155.8594,228.7813 L154.4844,232.1563 L157.2188,232.1563 Z "/><text fill="#000000" font-family="sans-serif" font-size="14" font-style="italic" lengthAdjust="spacingAndGlyphs" textLength="117" x="176.25" y="231.5332">GraphElementImpl</text><text fill="#000000" font-family="sans-serif" font-size="10" font-style="italic" lengthAdjust="spacingAndGlyphs" textLength="114" x="177.75" y="244.9902">org.eclipse.epf.uma.impl</text><line style="stroke: #A80036; stroke-width: 1.5;" x1="8" x2="429" y1="252.1875" y2="252.1875"/><ellipse cx="18" cy="263.1875" fill="#84BE84" rx="3" ry="3" style="stroke: #038048; stroke-width: 1.0;"/><text fill="#000000" font-family="sans-serif" font-size="11" lengthAdjust="spacingAndGlyphs" textLength="188" x="27" y="267.6064">getContained(): EList&lt;DiagramElement&gt;</text><ellipse cx="18" cy="277.0234" fill="#84BE84" rx="3" ry="3" style="stroke: #038048; stroke-width: 1.0;"/><text fill="#000000" font-family="sans-serif" font-size="11" lengthAdjust="spacingAndGlyphs" textLength="89" x="27" y="281.4424">getPosition(): Point</text><ellipse cx="18" cy="290.8594" fill="#84BE84" rx="3" ry="3" style="stroke: #038048; stroke-width: 1.0;"/><text fill="#000000" font-family="sans-serif" font-size="11" lengthAdjust="spacingAndGlyphs" textLength="117" x="27" y="295.2783">basicGetPosition(): Point</text><ellipse cx="18" cy="304.6953" fill="#84BE84" rx="3" ry="3" style="stroke: #038048; stroke-width: 1.0;"/><text fill="#000000" font-family="sans-serif" font-size="11" lengthAdjust="spacingAndGlyphs" textLength="109" x="27" y="309.1143">setPosition(Point): void</text><ellipse cx="18" cy="318.5313" fill="#84BE84" rx="3" ry="3" style="stroke: #038048; stroke-width: 1.0;"/><text fill="#000000" font-family="sans-serif" font-size="11" lengthAdjust="spacingAndGlyphs" textLength="141" x="27" y="322.9502">getLink(): EList&lt;DiagramLink&gt;</text><ellipse cx="18" cy="332.3672" fill="#84BE84" rx="3" ry="3" style="stroke: #038048; stroke-width: 1.0;"/><text fill="#000000" font-family="sans-serif" font-size="11" lengthAdjust="spacingAndGlyphs" textLength="198" x="27" y="336.7861">getAnchorage(): EList&lt;GraphConnector&gt;</text><ellipse cx="18" cy="346.2031" fill="#84BE84" rx="3" ry="3" style="stroke: #038048; stroke-width: 1.0;"/><text fill="#000000" font-family="sans-serif" font-size="11" lengthAdjust="spacingAndGlyphs" textLength="204" x="27" y="350.6221">getSemanticModel(): SemanticModelBridge</text><ellipse cx="18" cy="360.0391" fill="#84BE84" rx="3" ry="3" style="stroke: #038048; stroke-width: 1.0;"/><text fill="#000000" font-family="sans-serif" font-size="11" lengthAdjust="spacingAndGlyphs" textLength="232" x="27" y="364.458">basicGetSemanticModel(): SemanticModelBridge</text><ellipse cx="18" cy="373.875" fill="#84BE84" rx="3" ry="3" style="stroke: #038048; stroke-width: 1.0;"/><text fill="#000000" font-family="sans-serif" font-size="11" lengthAdjust="spacingAndGlyphs" textLength="397" x="27" y="378.2939">basicSetSemanticModel(SemanticModelBridge, NotificationChain): NotificationChain</text><ellipse cx="18" cy="387.7109" fill="#84BE84" rx="3" ry="3" style="stroke: #038048; stroke-width: 1.0;"/><text fill="#000000" font-family="sans-serif" font-size="11" lengthAdjust="spacingAndGlyphs" textLength="224" x="27" y="392.1299">setSemanticModel(SemanticModelBridge): void</text><ellipse cx="18" cy="401.5469" fill="#84BE84" rx="3" ry="3" style="stroke: #038048; stroke-width: 1.0;"/><text fill="#000000" font-family="sans-serif" font-size="11" lengthAdjust="spacingAndGlyphs" textLength="331" x="27" y="405.9658">eInverseAdd(InternalEObject, int, NotificationChain): NotificationChain</text><ellipse cx="18" cy="415.3828" fill="#84BE84" rx="3" ry="3" style="stroke: #038048; stroke-width: 1.0;"/><text fill="#000000" font-family="sans-serif" font-size="11" lengthAdjust="spacingAndGlyphs" textLength="350" x="27" y="419.8018">eInverseRemove(InternalEObject, int, NotificationChain): NotificationChain</text><ellipse cx="18" cy="429.2188" fill="#84BE84" rx="3" ry="3" style="stroke: #038048; stroke-width: 1.0;"/><text fill="#000000" font-family="sans-serif" font-size="11" lengthAdjust="spacingAndGlyphs" textLength="167" x="27" y="433.6377">eGet(int, boolean, boolean): Object</text><ellipse cx="18" cy="443.0547" fill="#84BE84" rx="3" ry="3" style="stroke: #038048; stroke-width: 1.0;"/><text fill="#000000" font-family="sans-serif" font-size="11" lengthAdjust="spacingAndGlyphs" textLength="104" x="27" y="447.4736">eSet(int, Object): void</text><ellipse cx="18" cy="456.8906" fill="#84BE84" rx="3" ry="3" style="stroke: #038048; stroke-width: 1.0;"/><text fill="#000000" font-family="sans-serif" font-size="11" lengthAdjust="spacingAndGlyphs" textLength="79" x="27" y="461.3096">eUnset(int): void</text><ellipse cx="18" cy="470.7266" fill="#84BE84" rx="3" ry="3" style="stroke: #038048; stroke-width: 1.0;"/><text fill="#000000" font-family="sans-serif" font-size="11" lengthAdjust="spacingAndGlyphs" textLength="93" x="27" y="475.1455">eIsSet(int): boolean</text></a><!--MD5=[1c2b459c5c50809e62270736e90e6bdc]
class org.eclipse.epf.uma.impl.DiagramElementImpl--><a href="DiagramElementImpl.html" target="_top" title="DiagramElementImpl.html" xlink:actuate="onRequest" xlink:href="DiagramElementImpl.html" xlink:show="new" xlink:title="DiagramElementImpl.html" xlink:type="simple"><rect codeLine="24" fill="#FEFECE" filter="url(#f1mf9ndnocscvh)" height="40.1875" id="org.eclipse.epf.uma.impl.DiagramElementImpl" style="stroke: #A80036; stroke-width: 1.5;" width="162" x="14.5" y="59.5"/><ellipse cx="29.5" cy="79.5938" fill="#A9DCDF" rx="11" ry="11" style="stroke: #A80036; stroke-width: 1.0;"/><path d="M31.6875,81.3594 L27.5469,81.3594 L27.125,82.3906 L27.5469,82.3906 Q28.1563,82.3906 28.4219,82.625 Q28.6875,82.8594 28.6875,83.25 Q28.6875,83.625 28.4219,83.8594 Q28.1563,84.0938 27.5469,84.0938 L25.25,84.0938 Q24.6406,84.0938 24.3906,83.8594 Q24.125,83.625 24.125,83.2344 Q24.125,82.8594 24.4063,82.625 Q24.6719,82.375 25.2969,82.3906 L27.9688,75.7344 L26.8594,75.7344 Q26.25,75.7344 25.9844,75.5 Q25.7188,75.2656 25.7188,74.875 Q25.7188,74.5 25.9844,74.2656 Q26.25,74.0313 26.8594,74.0313 L30.5313,74.0313 L33.9219,82.3906 Q34.5156,82.3906 34.7031,82.5313 Q35.0938,82.7969 35.0938,83.25 Q35.0938,83.625 34.8281,83.8594 Q34.5781,84.0938 33.9688,84.0938 L31.6719,84.0938 Q31.0625,84.0938 30.7969,83.8594 Q30.5313,83.625 30.5313,83.2344 Q30.5313,82.8594 30.7969,82.625 Q31.0625,82.3906 31.6719,82.3906 L32.0938,82.3906 L31.6875,81.3594 Z M30.9688,79.6563 L29.6094,76.2813 L28.2344,79.6563 L30.9688,79.6563 Z "/><text fill="#000000" font-family="sans-serif" font-size="14" font-style="italic" lengthAdjust="spacingAndGlyphs" textLength="130" x="43.5" y="79.0332">DiagramElementImpl</text><text fill="#000000" font-family="sans-serif" font-size="10" font-style="italic" lengthAdjust="spacingAndGlyphs" textLength="114" x="51.5" y="92.4902">org.eclipse.epf.uma.impl</text></a><!--MD5=[b3569ed084dd719e63eb6ef7bfac9d33]
class org.eclipse.epf.uma.GraphElement--><a href="..\GraphElement.html" target="_top" title="..\GraphElement.html" xlink:actuate="onRequest" xlink:href="..\GraphElement.html" xlink:show="new" xlink:title="..\GraphElement.html" xlink:type="simple"><rect codeLine="25" fill="#FEFECE" filter="url(#f1mf9ndnocscvh)" height="145.0391" id="org.eclipse.epf.uma.GraphElement" style="stroke: #A80036; stroke-width: 1.5;" width="259" x="212" y="7"/><ellipse cx="291.25" cy="27.0938" fill="#B4A7E5" rx="11" ry="11" style="stroke: #A80036; stroke-width: 1.0;"/><path d="M292.2031,23.7344 L292.2031,30.3906 L293.9219,30.3906 Q294.5313,30.3906 294.7969,30.625 Q295.0625,30.8594 295.0625,31.25 Q295.0625,31.625 294.7969,31.8594 Q294.5313,32.0938 293.9219,32.0938 L288.7813,32.0938 Q288.1719,32.0938 287.9063,31.8594 Q287.6406,31.625 287.6406,31.2344 Q287.6406,30.8594 287.9063,30.625 Q288.1719,30.3906 288.7813,30.3906 L290.5,30.3906 L290.5,23.7344 L288.7813,23.7344 Q288.1719,23.7344 287.9063,23.5 Q287.6406,23.2656 287.6406,22.875 Q287.6406,22.5 287.9063,22.2656 Q288.1719,22.0313 288.7813,22.0313 L293.9219,22.0313 Q294.5313,22.0313 294.7969,22.2656 Q295.0625,22.5 295.0625,22.875 Q295.0625,23.2656 294.7969,23.5 Q294.5313,23.7344 293.9219,23.7344 L292.2031,23.7344 Z "/><text fill="#000000" font-family="sans-serif" font-size="14" font-style="italic" lengthAdjust="spacingAndGlyphs" textLength="91" x="312.25" y="26.5332">GraphElement</text><text fill="#000000" font-family="sans-serif" font-size="10" font-style="italic" lengthAdjust="spacingAndGlyphs" textLength="92" x="311.75" y="39.9902">org.eclipse.epf.uma</text><line style="stroke: #A80036; stroke-width: 1.5;" x1="213" x2="470" y1="47.1875" y2="47.1875"/><ellipse cx="223" cy="58.1875" fill="#84BE84" rx="3" ry="3" style="stroke: #038048; stroke-width: 1.0;"/><text fill="#000000" font-family="sans-serif" font-size="11" font-style="italic" lengthAdjust="spacingAndGlyphs" textLength="198" x="232" y="62.6064">getContained(): EList&lt;DiagramElement&gt;</text><ellipse cx="223" cy="72.0234" fill="#84BE84" rx="3" ry="3" style="stroke: #038048; stroke-width: 1.0;"/><text fill="#000000" font-family="sans-serif" font-size="11" font-style="italic" lengthAdjust="spacingAndGlyphs" textLength="94" x="232" y="76.4424">getPosition(): Point</text><ellipse cx="223" cy="85.8594" fill="#84BE84" rx="3" ry="3" style="stroke: #038048; stroke-width: 1.0;"/><text fill="#000000" font-family="sans-serif" font-size="11" font-style="italic" lengthAdjust="spacingAndGlyphs" textLength="114" x="232" y="90.2783">setPosition(Point): void</text><ellipse cx="223" cy="99.6953" fill="#84BE84" rx="3" ry="3" style="stroke: #038048; stroke-width: 1.0;"/><text fill="#000000" font-family="sans-serif" font-size="11" font-style="italic" lengthAdjust="spacingAndGlyphs" textLength="150" x="232" y="104.1143">getLink(): EList&lt;DiagramLink&gt;</text><ellipse cx="223" cy="113.5313" fill="#84BE84" rx="3" ry="3" style="stroke: #038048; stroke-width: 1.0;"/><text fill="#000000" font-family="sans-serif" font-size="11" font-style="italic" lengthAdjust="spacingAndGlyphs" textLength="201" x="232" y="117.9502">getAnchorage(): EList&lt;GraphConnector&gt;</text><ellipse cx="223" cy="127.3672" fill="#84BE84" rx="3" ry="3" style="stroke: #038048; stroke-width: 1.0;"/><text fill="#000000" font-family="sans-serif" font-size="11" font-style="italic" lengthAdjust="spacingAndGlyphs" textLength="213" x="232" y="131.7861">getSemanticModel(): SemanticModelBridge</text><ellipse cx="223" cy="141.2031" fill="#84BE84" rx="3" ry="3" style="stroke: #038048; stroke-width: 1.0;"/><text fill="#000000" font-family="sans-serif" font-size="11" font-style="italic" lengthAdjust="spacingAndGlyphs" textLength="233" x="232" y="145.6221">setSemanticModel(SemanticModelBridge): void</text></a><!--MD5=[e940732333a151d4955d35adbcffbbb0]
reverse link org.eclipse.epf.uma.impl.DiagramElementImpl to org.eclipse.epf.uma.impl.GraphElementImpl--><path codeLine="35" d="M112.92,118.1 C124.46,143 140.36,177.33 156.32,211.78 " fill="none" id="org.eclipse.epf.uma.impl.DiagramElementImpl-backto-org.eclipse.epf.uma.impl.GraphElementImpl" style="stroke: #A80036; stroke-width: 1.0;"/><polygon fill="none" points="106.4,120.68,104.35,99.59,119.1,114.8,106.4,120.68" style="stroke: #A80036; stroke-width: 1.0;"/><!--MD5=[12b68f1f179bb53eb0f4a7b78386fb99]
reverse link org.eclipse.epf.uma.GraphElement to org.eclipse.epf.uma.impl.GraphElementImpl--><path codeLine="36" d="M299.72,170.69 C293.55,184 287.08,197.96 280.61,211.94 " fill="none" id="org.eclipse.epf.uma.GraphElement-backto-org.eclipse.epf.uma.impl.GraphElementImpl" style="stroke: #A80036; stroke-width: 1.0; stroke-dasharray: 7.0,7.0;"/><polygon fill="none" points="293.46,167.55,308.21,152.35,306.16,173.44,293.46,167.55" style="stroke: #A80036; stroke-width: 1.0;"/><text fill="#888888" font-family="sans-serif" font-size="10" lengthAdjust="spacingAndGlyphs" textLength="190" x="141" y="504.9434">UMLDoclet 2.0.12, PlantUML 1.2020.16</text><!--MD5=[d659e23021d06fd32e5dbdd72d6fd992]
@startuml
    set namespaceSeparator none
    hide empty fields
    hide empty methods

    abstract class "<size:14>GraphElementImpl\n<size:10>org.eclipse.epf.uma.impl" as org.eclipse.epf.uma.impl.GraphElementImpl [[GraphElementImpl.html]] {
        +getContained(): EList<DiagramElement>
        +getPosition(): Point
        +basicGetPosition(): Point
        +setPosition(Point): void
        +getLink(): EList<DiagramLink>
        +getAnchorage(): EList<GraphConnector>
        +getSemanticModel(): SemanticModelBridge
        +basicGetSemanticModel(): SemanticModelBridge
        +basicSetSemanticModel(SemanticModelBridge, NotificationChain): NotificationChain
        +setSemanticModel(SemanticModelBridge): void
        +eInverseAdd(InternalEObject, int, NotificationChain): NotificationChain
        +eInverseRemove(InternalEObject, int, NotificationChain): NotificationChain
        +eGet(int, boolean, boolean): Object
        +eSet(int, Object): void
        +eUnset(int): void
        +eIsSet(int): boolean
    }

    abstract class "<size:14>DiagramElementImpl\n<size:10>org.eclipse.epf.uma.impl" as org.eclipse.epf.uma.impl.DiagramElementImpl [[DiagramElementImpl.html]]
    interface "<size:14>GraphElement\n<size:10>org.eclipse.epf.uma" as org.eclipse.epf.uma.GraphElement [[..\GraphElement.html]] {
        {abstract} +getContained(): EList<DiagramElement>
        {abstract} +getPosition(): Point
        {abstract} +setPosition(Point): void
        {abstract} +getLink(): EList<DiagramLink>
        {abstract} +getAnchorage(): EList<GraphConnector>
        {abstract} +getSemanticModel(): SemanticModelBridge
        {abstract} +setSemanticModel(SemanticModelBridge): void
    }

    org.eclipse.epf.uma.impl.DiagramElementImpl <|- - org.eclipse.epf.uma.impl.GraphElementImpl
    org.eclipse.epf.uma.GraphElement <|.. org.eclipse.epf.uma.impl.GraphElementImpl

    center footer UMLDoclet 2.0.12, PlantUML 1.2020.16
@enduml

PlantUML version 1.2020.16(Sun Aug 23 22:20:43 CEST 2020)
(APACHE source distribution)
Java Runtime: Java(TM) SE Runtime Environment
JVM: Java HotSpot(TM) 64-Bit Server VM
Default Encoding: Cp1252
Language: es
Country: ES
--></g></svg>