<?xml version="1.0" encoding="UTF-8" standalone="no"?><svg xmlns="http://www.w3.org/2000/svg" xmlns:xlink="http://www.w3.org/1999/xlink" contentScriptType="application/ecmascript" contentStyleType="text/css" height="338px" preserveAspectRatio="none" style="width:425px;height:338px;" version="1.1" viewBox="0 0 425 338" width="425px" zoomAndPan="magnify"><defs><filter height="300%" id="fvpo5ybbj9pwk" width="300%" x="-1" y="-1"><feGaussianBlur result="blurOut" stdDeviation="2.0"/><feColorMatrix in="blurOut" result="blurOut2" type="matrix" values="0 0 0 0 0 0 0 0 0 0 0 0 0 0 0 0 0 0 .4 0"/><feOffset dx="4.0" dy="4.0" in="blurOut2" result="blurOut3"/><feBlend in="SourceGraphic" in2="blurOut3" mode="normal"/></filter></defs><g><!--MD5=[0aab7d8d78bd99b125e9e064ff287d9a]
class org.eclipse.epf.uma.impl.GraphEdgeImpl--><a href="GraphEdgeImpl.html" target="_top" title="GraphEdgeImpl.html" xlink:actuate="onRequest" xlink:href="GraphEdgeImpl.html" xlink:show="new" xlink:title="GraphEdgeImpl.html" xlink:type="simple"><rect codeLine="5" fill="#FEFECE" filter="url(#fvpo5ybbj9pwk)" height="158.875" id="org.eclipse.epf.uma.impl.GraphEdgeImpl" style="stroke: #A80036; stroke-width: 1.5;" width="376" x="7" y="143"/><ellipse cx="131.75" cy="163.0938" fill="#ADD1B2" rx="11" ry="11" style="stroke: #A80036; stroke-width: 1.0;"/><path d="M134.5156,158.9688 Q134.6719,158.75 134.8594,158.6406 Q135.0469,158.5313 135.2656,158.5313 Q135.6406,158.5313 135.875,158.7969 Q136.1094,159.0469 136.1094,159.6563 L136.1094,161.1094 Q136.1094,161.7188 135.875,161.9844 Q135.6406,162.25 135.2656,162.25 Q134.9219,162.25 134.7188,162.0469 Q134.5156,161.8594 134.4063,161.3438 Q134.3594,160.9844 134.1719,160.7969 Q133.8438,160.4219 133.2344,160.2031 Q132.625,159.9844 132,159.9844 Q131.2344,159.9844 130.5938,160.3125 Q129.9688,160.6406 129.4688,161.3906 Q128.9844,162.1406 128.9844,163.1719 L128.9844,164.2656 Q128.9844,165.5 129.875,166.3281 Q130.7656,167.1406 132.3594,167.1406 Q133.2969,167.1406 133.9531,166.8906 Q134.3438,166.7344 134.7656,166.2969 Q135.0313,166.0313 135.1719,165.9531 Q135.3281,165.875 135.5313,165.875 Q135.8594,165.875 136.1094,166.1406 Q136.375,166.3906 136.375,166.7344 Q136.375,167.0781 136.0313,167.4844 Q135.5313,168.0625 134.7344,168.3906 Q133.6563,168.8438 132.3594,168.8438 Q130.8438,168.8438 129.6406,168.2188 Q128.6563,167.7188 127.9688,166.6563 Q127.2813,165.5781 127.2813,164.2969 L127.2813,163.1406 Q127.2813,161.8125 127.8906,160.6719 Q128.5156,159.5156 129.6094,158.9063 Q130.7031,158.2813 131.9375,158.2813 Q132.6719,158.2813 133.3125,158.4531 Q133.9688,158.6094 134.5156,158.9688 Z "/><text fill="#000000" font-family="sans-serif" font-size="14" lengthAdjust="spacingAndGlyphs" textLength="98" x="162.25" y="162.5332">GraphEdgeImpl</text><text fill="#000000" font-family="sans-serif" font-size="10" lengthAdjust="spacingAndGlyphs" textLength="118" x="152.25" y="175.9902">org.eclipse.epf.uma.impl</text><line style="stroke: #A80036; stroke-width: 1.5;" x1="8" x2="382" y1="183.1875" y2="183.1875"/><ellipse cx="18" cy="194.1875" fill="#84BE84" rx="3" ry="3" style="stroke: #038048; stroke-width: 1.0;"/><text fill="#000000" font-family="sans-serif" font-size="11" lengthAdjust="spacingAndGlyphs" textLength="138" x="27" y="198.6064">getWaypoints(): EList&lt;Point&gt;</text><ellipse cx="18" cy="208.0234" fill="#84BE84" rx="3" ry="3" style="stroke: #038048; stroke-width: 1.0;"/><text fill="#000000" font-family="sans-serif" font-size="11" lengthAdjust="spacingAndGlyphs" textLength="180" x="27" y="212.4424">getAnchor(): EList&lt;GraphConnector&gt;</text><ellipse cx="18" cy="221.8594" fill="#84BE84" rx="3" ry="3" style="stroke: #038048; stroke-width: 1.0;"/><text fill="#000000" font-family="sans-serif" font-size="11" lengthAdjust="spacingAndGlyphs" textLength="331" x="27" y="226.2783">eInverseAdd(InternalEObject, int, NotificationChain): NotificationChain</text><ellipse cx="18" cy="235.6953" fill="#84BE84" rx="3" ry="3" style="stroke: #038048; stroke-width: 1.0;"/><text fill="#000000" font-family="sans-serif" font-size="11" lengthAdjust="spacingAndGlyphs" textLength="350" x="27" y="240.1143">eInverseRemove(InternalEObject, int, NotificationChain): NotificationChain</text><ellipse cx="18" cy="249.5313" fill="#84BE84" rx="3" ry="3" style="stroke: #038048; stroke-width: 1.0;"/><text fill="#000000" font-family="sans-serif" font-size="11" lengthAdjust="spacingAndGlyphs" textLength="167" x="27" y="253.9502">eGet(int, boolean, boolean): Object</text><ellipse cx="18" cy="263.3672" fill="#84BE84" rx="3" ry="3" style="stroke: #038048; stroke-width: 1.0;"/><text fill="#000000" font-family="sans-serif" font-size="11" lengthAdjust="spacingAndGlyphs" textLength="104" x="27" y="267.7861">eSet(int, Object): void</text><ellipse cx="18" cy="277.2031" fill="#84BE84" rx="3" ry="3" style="stroke: #038048; stroke-width: 1.0;"/><text fill="#000000" font-family="sans-serif" font-size="11" lengthAdjust="spacingAndGlyphs" textLength="79" x="27" y="281.6221">eUnset(int): void</text><ellipse cx="18" cy="291.0391" fill="#84BE84" rx="3" ry="3" style="stroke: #038048; stroke-width: 1.0;"/><text fill="#000000" font-family="sans-serif" font-size="11" lengthAdjust="spacingAndGlyphs" textLength="93" x="27" y="295.458">eIsSet(int): boolean</text></a><!--MD5=[57ccf9ad911d7876e54819e3b1ad0c74]
class org.eclipse.epf.uma.impl.GraphElementImpl--><a href="GraphElementImpl.html" target="_top" title="GraphElementImpl.html" xlink:actuate="onRequest" xlink:href="GraphElementImpl.html" xlink:show="new" xlink:title="GraphElementImpl.html" xlink:type="simple"><rect codeLine="16" fill="#FEFECE" filter="url(#fvpo5ybbj9pwk)" height="40.1875" id="org.eclipse.epf.uma.impl.GraphElementImpl" style="stroke: #A80036; stroke-width: 1.5;" width="149" x="13.5" y="25"/><ellipse cx="28.5" cy="45.0938" fill="#A9DCDF" rx="11" ry="11" style="stroke: #A80036; stroke-width: 1.0;"/><path d="M30.6875,46.8594 L26.5469,46.8594 L26.125,47.8906 L26.5469,47.8906 Q27.1563,47.8906 27.4219,48.125 Q27.6875,48.3594 27.6875,48.75 Q27.6875,49.125 27.4219,49.3594 Q27.1563,49.5938 26.5469,49.5938 L24.25,49.5938 Q23.6406,49.5938 23.3906,49.3594 Q23.125,49.125 23.125,48.7344 Q23.125,48.3594 23.4063,48.125 Q23.6719,47.875 24.2969,47.8906 L26.9688,41.2344 L25.8594,41.2344 Q25.25,41.2344 24.9844,41 Q24.7188,40.7656 24.7188,40.375 Q24.7188,40 24.9844,39.7656 Q25.25,39.5313 25.8594,39.5313 L29.5313,39.5313 L32.9219,47.8906 Q33.5156,47.8906 33.7031,48.0313 Q34.0938,48.2969 34.0938,48.75 Q34.0938,49.125 33.8281,49.3594 Q33.5781,49.5938 32.9688,49.5938 L30.6719,49.5938 Q30.0625,49.5938 29.7969,49.3594 Q29.5313,49.125 29.5313,48.7344 Q29.5313,48.3594 29.7969,48.125 Q30.0625,47.8906 30.6719,47.8906 L31.0938,47.8906 L30.6875,46.8594 Z M29.9688,45.1563 L28.6094,41.7813 L27.2344,45.1563 L29.9688,45.1563 Z "/><text fill="#000000" font-family="sans-serif" font-size="14" font-style="italic" lengthAdjust="spacingAndGlyphs" textLength="117" x="42.5" y="44.5332">GraphElementImpl</text><text fill="#000000" font-family="sans-serif" font-size="10" font-style="italic" lengthAdjust="spacingAndGlyphs" textLength="114" x="44" y="57.9902">org.eclipse.epf.uma.impl</text></a><!--MD5=[0433cfd2cdb7d15f8627c2bb1e23f644]
class org.eclipse.epf.uma.GraphEdge--><a href="..\GraphEdge.html" target="_top" title="..\GraphEdge.html" xlink:actuate="onRequest" xlink:href="..\GraphEdge.html" xlink:show="new" xlink:title="..\GraphEdge.html" xlink:type="simple"><rect codeLine="17" fill="#FEFECE" filter="url(#fvpo5ybbj9pwk)" height="75.8594" id="org.eclipse.epf.uma.GraphEdge" style="stroke: #A80036; stroke-width: 1.5;" width="209" x="197.5" y="7"/><ellipse cx="251.75" cy="27.0938" fill="#B4A7E5" rx="11" ry="11" style="stroke: #A80036; stroke-width: 1.0;"/><path d="M252.7031,23.7344 L252.7031,30.3906 L254.4219,30.3906 Q255.0313,30.3906 255.2969,30.625 Q255.5625,30.8594 255.5625,31.25 Q255.5625,31.625 255.2969,31.8594 Q255.0313,32.0938 254.4219,32.0938 L249.2813,32.0938 Q248.6719,32.0938 248.4063,31.8594 Q248.1406,31.625 248.1406,31.2344 Q248.1406,30.8594 248.4063,30.625 Q248.6719,30.3906 249.2813,30.3906 L251,30.3906 L251,23.7344 L249.2813,23.7344 Q248.6719,23.7344 248.4063,23.5 Q248.1406,23.2656 248.1406,22.875 Q248.1406,22.5 248.4063,22.2656 Q248.6719,22.0313 249.2813,22.0313 L254.4219,22.0313 Q255.0313,22.0313 255.2969,22.2656 Q255.5625,22.5 255.5625,22.875 Q255.5625,23.2656 255.2969,23.5 Q255.0313,23.7344 254.4219,23.7344 L252.7031,23.7344 Z "/><text fill="#000000" font-family="sans-serif" font-size="14" font-style="italic" lengthAdjust="spacingAndGlyphs" textLength="73" x="281.75" y="26.5332">GraphEdge</text><text fill="#000000" font-family="sans-serif" font-size="10" font-style="italic" lengthAdjust="spacingAndGlyphs" textLength="92" x="272.25" y="39.9902">org.eclipse.epf.uma</text><line style="stroke: #A80036; stroke-width: 1.5;" x1="198.5" x2="405.5" y1="47.1875" y2="47.1875"/><ellipse cx="208.5" cy="58.1875" fill="#84BE84" rx="3" ry="3" style="stroke: #038048; stroke-width: 1.0;"/><text fill="#000000" font-family="sans-serif" font-size="11" font-style="italic" lengthAdjust="spacingAndGlyphs" textLength="143" x="217.5" y="62.6064">getWaypoints(): EList&lt;Point&gt;</text><ellipse cx="208.5" cy="72.0234" fill="#84BE84" rx="3" ry="3" style="stroke: #038048; stroke-width: 1.0;"/><text fill="#000000" font-family="sans-serif" font-size="11" font-style="italic" lengthAdjust="spacingAndGlyphs" textLength="183" x="217.5" y="76.4424">getAnchor(): EList&lt;GraphConnector&gt;</text></a><!--MD5=[912e2ef1d96b224b2be51cc03e6faae0]
reverse link org.eclipse.epf.uma.impl.GraphElementImpl to org.eclipse.epf.uma.impl.GraphEdgeImpl--><path codeLine="22" d="M110.11,82.26 C120.81,99.82 134.11,121.63 146.98,142.75 " fill="none" id="org.eclipse.epf.uma.impl.GraphElementImpl-backto-org.eclipse.epf.uma.impl.GraphEdgeImpl" style="stroke: #A80036; stroke-width: 1.0;"/><polygon fill="none" points="104.09,85.84,99.65,65.12,116.04,78.55,104.09,85.84" style="stroke: #A80036; stroke-width: 1.0;"/><!--MD5=[6138481c0a5d67af225340e2244f3ce1]
reverse link org.eclipse.epf.uma.GraphEdge to org.eclipse.epf.uma.impl.GraphEdgeImpl--><path codeLine="23" d="M268.73,100.57 C260.57,113.95 251.68,128.54 242.98,142.81 " fill="none" id="org.eclipse.epf.uma.GraphEdge-backto-org.eclipse.epf.uma.impl.GraphEdgeImpl" style="stroke: #A80036; stroke-width: 1.0; stroke-dasharray: 7.0,7.0;"/><polygon fill="none" points="262.92,96.65,279.31,83.22,274.87,103.94,262.92,96.65" style="stroke: #A80036; stroke-width: 1.0;"/><text fill="#888888" font-family="sans-serif" font-size="10" lengthAdjust="spacingAndGlyphs" textLength="190" x="108.75" y="325.2559">UMLDoclet 2.0.12, PlantUML 1.2020.16</text><!--MD5=[ea0a9bda8a6b47d6a8c3e5f4af4109a1]
@startuml
    set namespaceSeparator none
    hide empty fields
    hide empty methods

    class "<size:14>GraphEdgeImpl\n<size:10>org.eclipse.epf.uma.impl" as org.eclipse.epf.uma.impl.GraphEdgeImpl [[GraphEdgeImpl.html]] {
        +getWaypoints(): EList<Point>
        +getAnchor(): EList<GraphConnector>
        +eInverseAdd(InternalEObject, int, NotificationChain): NotificationChain
        +eInverseRemove(InternalEObject, int, NotificationChain): NotificationChain
        +eGet(int, boolean, boolean): Object
        +eSet(int, Object): void
        +eUnset(int): void
        +eIsSet(int): boolean
    }

    abstract class "<size:14>GraphElementImpl\n<size:10>org.eclipse.epf.uma.impl" as org.eclipse.epf.uma.impl.GraphElementImpl [[GraphElementImpl.html]]
    interface "<size:14>GraphEdge\n<size:10>org.eclipse.epf.uma" as org.eclipse.epf.uma.GraphEdge [[..\GraphEdge.html]] {
        {abstract} +getWaypoints(): EList<Point>
        {abstract} +getAnchor(): EList<GraphConnector>
    }

    org.eclipse.epf.uma.impl.GraphElementImpl <|- - org.eclipse.epf.uma.impl.GraphEdgeImpl
    org.eclipse.epf.uma.GraphEdge <|.. org.eclipse.epf.uma.impl.GraphEdgeImpl

    center footer UMLDoclet 2.0.12, PlantUML 1.2020.16
@enduml

PlantUML version 1.2020.16(Sun Aug 23 22:20:43 CEST 2020)
(APACHE source distribution)
Java Runtime: Java(TM) SE Runtime Environment
JVM: Java HotSpot(TM) 64-Bit Server VM
Default Encoding: Cp1252
Language: es
Country: ES
--></g></svg>