<?xml version="1.0" encoding="UTF-8" standalone="no"?><svg xmlns="http://www.w3.org/2000/svg" xmlns:xlink="http://www.w3.org/1999/xlink" contentScriptType="application/ecmascript" contentStyleType="text/css" height="324px" preserveAspectRatio="none" style="width:360px;height:324px;" version="1.1" viewBox="0 0 360 324" width="360px" zoomAndPan="magnify"><defs><filter height="300%" id="f1lll99lvmzoyw" width="300%" x="-1" y="-1"><feGaussianBlur result="blurOut" stdDeviation="2.0"/><feColorMatrix in="blurOut" result="blurOut2" type="matrix" values="0 0 0 0 0 0 0 0 0 0 0 0 0 0 0 0 0 0 .4 0"/><feOffset dx="4.0" dy="4.0" in="blurOut2" result="blurOut3"/><feBlend in="SourceGraphic" in2="blurOut3" mode="normal"/></filter></defs><g><!--MD5=[06ee894c91d1cde09c2c36dc5f5d9264]
class org.eclipse.epf.uma.impl.GraphNodeImpl--><a href="GraphNodeImpl.html" target="_top" title="GraphNodeImpl.html" xlink:actuate="onRequest" xlink:href="GraphNodeImpl.html" xlink:show="new" xlink:title="GraphNodeImpl.html" xlink:type="simple"><rect codeLine="5" fill="#FEFECE" filter="url(#f1lll99lvmzoyw)" height="145.0391" id="org.eclipse.epf.uma.impl.GraphNodeImpl" style="stroke: #A80036; stroke-width: 1.5;" width="193" x="77" y="143"/><ellipse cx="111.35" cy="163.0938" fill="#ADD1B2" rx="11" ry="11" style="stroke: #A80036; stroke-width: 1.0;"/><path d="M114.1156,158.9688 Q114.2719,158.75 114.4594,158.6406 Q114.6469,158.5313 114.8656,158.5313 Q115.2406,158.5313 115.475,158.7969 Q115.7094,159.0469 115.7094,159.6563 L115.7094,161.1094 Q115.7094,161.7188 115.475,161.9844 Q115.2406,162.25 114.8656,162.25 Q114.5219,162.25 114.3188,162.0469 Q114.1156,161.8594 114.0063,161.3438 Q113.9594,160.9844 113.7719,160.7969 Q113.4438,160.4219 112.8344,160.2031 Q112.225,159.9844 111.6,159.9844 Q110.8344,159.9844 110.1938,160.3125 Q109.5688,160.6406 109.0688,161.3906 Q108.5844,162.1406 108.5844,163.1719 L108.5844,164.2656 Q108.5844,165.5 109.475,166.3281 Q110.3656,167.1406 111.9594,167.1406 Q112.8969,167.1406 113.5531,166.8906 Q113.9438,166.7344 114.3656,166.2969 Q114.6313,166.0313 114.7719,165.9531 Q114.9281,165.875 115.1313,165.875 Q115.4594,165.875 115.7094,166.1406 Q115.975,166.3906 115.975,166.7344 Q115.975,167.0781 115.6313,167.4844 Q115.1313,168.0625 114.3344,168.3906 Q113.2563,168.8438 111.9594,168.8438 Q110.4438,168.8438 109.2406,168.2188 Q108.2563,167.7188 107.5688,166.6563 Q106.8813,165.5781 106.8813,164.2969 L106.8813,163.1406 Q106.8813,161.8125 107.4906,160.6719 Q108.1156,159.5156 109.2094,158.9063 Q110.3031,158.2813 111.5375,158.2813 Q112.2719,158.2813 112.9125,158.4531 Q113.5688,158.6094 114.1156,158.9688 Z "/><text fill="#000000" font-family="sans-serif" font-size="14" lengthAdjust="spacingAndGlyphs" textLength="98" x="139.65" y="162.5332">GraphNodeImpl</text><text fill="#000000" font-family="sans-serif" font-size="10" lengthAdjust="spacingAndGlyphs" textLength="118" x="129.65" y="175.9902">org.eclipse.epf.uma.impl</text><line style="stroke: #A80036; stroke-width: 1.5;" x1="78" x2="269" y1="183.1875" y2="183.1875"/><ellipse cx="88" cy="194.1875" fill="#84BE84" rx="3" ry="3" style="stroke: #038048; stroke-width: 1.0;"/><text fill="#000000" font-family="sans-serif" font-size="11" lengthAdjust="spacingAndGlyphs" textLength="99" x="97" y="198.6064">getSize(): Dimension</text><ellipse cx="88" cy="208.0234" fill="#84BE84" rx="3" ry="3" style="stroke: #038048; stroke-width: 1.0;"/><text fill="#000000" font-family="sans-serif" font-size="11" lengthAdjust="spacingAndGlyphs" textLength="127" x="97" y="212.4424">basicGetSize(): Dimension</text><ellipse cx="88" cy="221.8594" fill="#84BE84" rx="3" ry="3" style="stroke: #038048; stroke-width: 1.0;"/><text fill="#000000" font-family="sans-serif" font-size="11" lengthAdjust="spacingAndGlyphs" textLength="119" x="97" y="226.2783">setSize(Dimension): void</text><ellipse cx="88" cy="235.6953" fill="#84BE84" rx="3" ry="3" style="stroke: #038048; stroke-width: 1.0;"/><text fill="#000000" font-family="sans-serif" font-size="11" lengthAdjust="spacingAndGlyphs" textLength="167" x="97" y="240.1143">eGet(int, boolean, boolean): Object</text><ellipse cx="88" cy="249.5313" fill="#84BE84" rx="3" ry="3" style="stroke: #038048; stroke-width: 1.0;"/><text fill="#000000" font-family="sans-serif" font-size="11" lengthAdjust="spacingAndGlyphs" textLength="104" x="97" y="253.9502">eSet(int, Object): void</text><ellipse cx="88" cy="263.3672" fill="#84BE84" rx="3" ry="3" style="stroke: #038048; stroke-width: 1.0;"/><text fill="#000000" font-family="sans-serif" font-size="11" lengthAdjust="spacingAndGlyphs" textLength="79" x="97" y="267.7861">eUnset(int): void</text><ellipse cx="88" cy="277.2031" fill="#84BE84" rx="3" ry="3" style="stroke: #038048; stroke-width: 1.0;"/><text fill="#000000" font-family="sans-serif" font-size="11" lengthAdjust="spacingAndGlyphs" textLength="93" x="97" y="281.6221">eIsSet(int): boolean</text></a><!--MD5=[57ccf9ad911d7876e54819e3b1ad0c74]
class org.eclipse.epf.uma.impl.GraphElementImpl--><a href="GraphElementImpl.html" target="_top" title="GraphElementImpl.html" xlink:actuate="onRequest" xlink:href="GraphElementImpl.html" xlink:show="new" xlink:title="GraphElementImpl.html" xlink:type="simple"><rect codeLine="15" fill="#FEFECE" filter="url(#f1lll99lvmzoyw)" height="40.1875" id="org.eclipse.epf.uma.impl.GraphElementImpl" style="stroke: #A80036; stroke-width: 1.5;" width="149" x="7" y="25"/><ellipse cx="22" cy="45.0938" fill="#A9DCDF" rx="11" ry="11" style="stroke: #A80036; stroke-width: 1.0;"/><path d="M24.1875,46.8594 L20.0469,46.8594 L19.625,47.8906 L20.0469,47.8906 Q20.6563,47.8906 20.9219,48.125 Q21.1875,48.3594 21.1875,48.75 Q21.1875,49.125 20.9219,49.3594 Q20.6563,49.5938 20.0469,49.5938 L17.75,49.5938 Q17.1406,49.5938 16.8906,49.3594 Q16.625,49.125 16.625,48.7344 Q16.625,48.3594 16.9063,48.125 Q17.1719,47.875 17.7969,47.8906 L20.4688,41.2344 L19.3594,41.2344 Q18.75,41.2344 18.4844,41 Q18.2188,40.7656 18.2188,40.375 Q18.2188,40 18.4844,39.7656 Q18.75,39.5313 19.3594,39.5313 L23.0313,39.5313 L26.4219,47.8906 Q27.0156,47.8906 27.2031,48.0313 Q27.5938,48.2969 27.5938,48.75 Q27.5938,49.125 27.3281,49.3594 Q27.0781,49.5938 26.4688,49.5938 L24.1719,49.5938 Q23.5625,49.5938 23.2969,49.3594 Q23.0313,49.125 23.0313,48.7344 Q23.0313,48.3594 23.2969,48.125 Q23.5625,47.8906 24.1719,47.8906 L24.5938,47.8906 L24.1875,46.8594 Z M23.4688,45.1563 L22.1094,41.7813 L20.7344,45.1563 L23.4688,45.1563 Z "/><text fill="#000000" font-family="sans-serif" font-size="14" font-style="italic" lengthAdjust="spacingAndGlyphs" textLength="117" x="36" y="44.5332">GraphElementImpl</text><text fill="#000000" font-family="sans-serif" font-size="10" font-style="italic" lengthAdjust="spacingAndGlyphs" textLength="114" x="37.5" y="57.9902">org.eclipse.epf.uma.impl</text></a><!--MD5=[b75d94af4eff09bc006cc7e6221a5132]
class org.eclipse.epf.uma.GraphNode--><a href="..\GraphNode.html" target="_top" title="..\GraphNode.html" xlink:actuate="onRequest" xlink:href="..\GraphNode.html" xlink:show="new" xlink:title="..\GraphNode.html" xlink:type="simple"><rect codeLine="16" fill="#FEFECE" filter="url(#f1lll99lvmzoyw)" height="75.8594" id="org.eclipse.epf.uma.GraphNode" style="stroke: #A80036; stroke-width: 1.5;" width="150" x="191.5" y="7"/><ellipse cx="218.2" cy="27.0938" fill="#B4A7E5" rx="11" ry="11" style="stroke: #A80036; stroke-width: 1.0;"/><path d="M219.1531,23.7344 L219.1531,30.3906 L220.8719,30.3906 Q221.4813,30.3906 221.7469,30.625 Q222.0125,30.8594 222.0125,31.25 Q222.0125,31.625 221.7469,31.8594 Q221.4813,32.0938 220.8719,32.0938 L215.7313,32.0938 Q215.1219,32.0938 214.8563,31.8594 Q214.5906,31.625 214.5906,31.2344 Q214.5906,30.8594 214.8563,30.625 Q215.1219,30.3906 215.7313,30.3906 L217.45,30.3906 L217.45,23.7344 L215.7313,23.7344 Q215.1219,23.7344 214.8563,23.5 Q214.5906,23.2656 214.5906,22.875 Q214.5906,22.5 214.8563,22.2656 Q215.1219,22.0313 215.7313,22.0313 L220.8719,22.0313 Q221.4813,22.0313 221.7469,22.2656 Q222.0125,22.5 222.0125,22.875 Q222.0125,23.2656 221.7469,23.5 Q221.4813,23.7344 220.8719,23.7344 L219.1531,23.7344 Z "/><text fill="#000000" font-family="sans-serif" font-size="14" font-style="italic" lengthAdjust="spacingAndGlyphs" textLength="74" x="243.8" y="26.5332">GraphNode</text><text fill="#000000" font-family="sans-serif" font-size="10" font-style="italic" lengthAdjust="spacingAndGlyphs" textLength="92" x="234.8" y="39.9902">org.eclipse.epf.uma</text><line style="stroke: #A80036; stroke-width: 1.5;" x1="192.5" x2="340.5" y1="47.1875" y2="47.1875"/><ellipse cx="202.5" cy="58.1875" fill="#84BE84" rx="3" ry="3" style="stroke: #038048; stroke-width: 1.0;"/><text fill="#000000" font-family="sans-serif" font-size="11" font-style="italic" lengthAdjust="spacingAndGlyphs" textLength="104" x="211.5" y="62.6064">getSize(): Dimension</text><ellipse cx="202.5" cy="72.0234" fill="#84BE84" rx="3" ry="3" style="stroke: #038048; stroke-width: 1.0;"/><text fill="#000000" font-family="sans-serif" font-size="11" font-style="italic" lengthAdjust="spacingAndGlyphs" textLength="124" x="211.5" y="76.4424">setSize(Dimension): void</text></a><!--MD5=[10b405956af8074311d7265ae90ba1a3]
reverse link org.eclipse.epf.uma.impl.GraphElementImpl to org.eclipse.epf.uma.impl.GraphNodeImpl--><path codeLine="21" d="M101.49,82.61 C111.14,100.3 123.08,122.15 134.43,142.95 " fill="none" id="org.eclipse.epf.uma.impl.GraphElementImpl-backto-org.eclipse.epf.uma.impl.GraphNodeImpl" style="stroke: #A80036; stroke-width: 1.0;"/><polygon fill="none" points="95.32,85.91,91.87,65,107.6,79.2,95.32,85.91" style="stroke: #A80036; stroke-width: 1.0;"/><!--MD5=[9f6df5bd6cc8f7f7a9208f346a8a6c1d]
reverse link org.eclipse.epf.uma.GraphNode to org.eclipse.epf.uma.impl.GraphNodeImpl--><path codeLine="22" d="M235.97,101.32 C228.62,114.63 220.67,129.04 212.98,142.97 " fill="none" id="org.eclipse.epf.uma.GraphNode-backto-org.eclipse.epf.uma.impl.GraphNodeImpl" style="stroke: #A80036; stroke-width: 1.0; stroke-dasharray: 7.0,7.0;"/><polygon fill="none" points="230.07,97.52,245.86,83.4,242.32,104.29,230.07,97.52" style="stroke: #A80036; stroke-width: 1.0;"/><text fill="#888888" font-family="sans-serif" font-size="10" lengthAdjust="spacingAndGlyphs" textLength="190" x="76.25" y="311.4199">UMLDoclet 2.0.12, PlantUML 1.2020.16</text><!--MD5=[31110846500459a23ee9da20246f6e02]
@startuml
    set namespaceSeparator none
    hide empty fields
    hide empty methods

    class "<size:14>GraphNodeImpl\n<size:10>org.eclipse.epf.uma.impl" as org.eclipse.epf.uma.impl.GraphNodeImpl [[GraphNodeImpl.html]] {
        +getSize(): Dimension
        +basicGetSize(): Dimension
        +setSize(Dimension): void
        +eGet(int, boolean, boolean): Object
        +eSet(int, Object): void
        +eUnset(int): void
        +eIsSet(int): boolean
    }

    abstract class "<size:14>GraphElementImpl\n<size:10>org.eclipse.epf.uma.impl" as org.eclipse.epf.uma.impl.GraphElementImpl [[GraphElementImpl.html]]
    interface "<size:14>GraphNode\n<size:10>org.eclipse.epf.uma" as org.eclipse.epf.uma.GraphNode [[..\GraphNode.html]] {
        {abstract} +getSize(): Dimension
        {abstract} +setSize(Dimension): void
    }

    org.eclipse.epf.uma.impl.GraphElementImpl <|- - org.eclipse.epf.uma.impl.GraphNodeImpl
    org.eclipse.epf.uma.GraphNode <|.. org.eclipse.epf.uma.impl.GraphNodeImpl

    center footer UMLDoclet 2.0.12, PlantUML 1.2020.16
@enduml

PlantUML version 1.2020.16(Sun Aug 23 22:20:43 CEST 2020)
(APACHE source distribution)
Java Runtime: Java(TM) SE Runtime Environment
JVM: Java HotSpot(TM) 64-Bit Server VM
Default Encoding: Cp1252
Language: es
Country: ES
--></g></svg>