<?xml version="1.0" encoding="UTF-8" standalone="no"?><svg xmlns="http://www.w3.org/2000/svg" xmlns:xlink="http://www.w3.org/1999/xlink" contentScriptType="application/ecmascript" contentStyleType="text/css" height="184px" preserveAspectRatio="none" style="width:341px;height:184px;" version="1.1" viewBox="0 0 341 184" width="341px" zoomAndPan="magnify"><defs><filter height="300%" id="fphtj6tr80d" width="300%" x="-1" y="-1"><feGaussianBlur result="blurOut" stdDeviation="2.0"/><feColorMatrix in="blurOut" result="blurOut2" type="matrix" values="0 0 0 0 0 0 0 0 0 0 0 0 0 0 0 0 0 0 .4 0"/><feOffset dx="4.0" dy="4.0" in="blurOut2" result="blurOut3"/><feBlend in="SourceGraphic" in2="blurOut3" mode="normal"/></filter></defs><g><!--MD5=[4972c8e3c72ba8ac3368e868ad780726]
class org.eclipse.epf.uma.impl.GraphicPrimitiveImpl--><a href="GraphicPrimitiveImpl.html" target="_top" title="GraphicPrimitiveImpl.html" xlink:actuate="onRequest" xlink:href="GraphicPrimitiveImpl.html" xlink:show="new" xlink:title="GraphicPrimitiveImpl.html" xlink:type="simple"><rect codeLine="5" fill="#FEFECE" filter="url(#fphtj6tr80d)" height="40.1875" id="org.eclipse.epf.uma.impl.GraphicPrimitiveImpl" style="stroke: #A80036; stroke-width: 1.5;" width="160" x="87" y="107"/><ellipse cx="102" cy="127.0938" fill="#A9DCDF" rx="11" ry="11" style="stroke: #A80036; stroke-width: 1.0;"/><path d="M104.1875,128.8594 L100.0469,128.8594 L99.625,129.8906 L100.0469,129.8906 Q100.6563,129.8906 100.9219,130.125 Q101.1875,130.3594 101.1875,130.75 Q101.1875,131.125 100.9219,131.3594 Q100.6563,131.5938 100.0469,131.5938 L97.75,131.5938 Q97.1406,131.5938 96.8906,131.3594 Q96.625,131.125 96.625,130.7344 Q96.625,130.3594 96.9063,130.125 Q97.1719,129.875 97.7969,129.8906 L100.4688,123.2344 L99.3594,123.2344 Q98.75,123.2344 98.4844,123 Q98.2188,122.7656 98.2188,122.375 Q98.2188,122 98.4844,121.7656 Q98.75,121.5313 99.3594,121.5313 L103.0313,121.5313 L106.4219,129.8906 Q107.0156,129.8906 107.2031,130.0313 Q107.5938,130.2969 107.5938,130.75 Q107.5938,131.125 107.3281,131.3594 Q107.0781,131.5938 106.4688,131.5938 L104.1719,131.5938 Q103.5625,131.5938 103.2969,131.3594 Q103.0313,131.125 103.0313,130.7344 Q103.0313,130.3594 103.2969,130.125 Q103.5625,129.8906 104.1719,129.8906 L104.5938,129.8906 L104.1875,128.8594 Z M103.4688,127.1563 L102.1094,123.7813 L100.7344,127.1563 L103.4688,127.1563 Z "/><text fill="#000000" font-family="sans-serif" font-size="14" font-style="italic" lengthAdjust="spacingAndGlyphs" textLength="128" x="116" y="126.5332">GraphicPrimitiveImpl</text><text fill="#000000" font-family="sans-serif" font-size="10" font-style="italic" lengthAdjust="spacingAndGlyphs" textLength="114" x="123" y="139.9902">org.eclipse.epf.uma.impl</text></a><!--MD5=[fbda6fcf825bda8f9fd0add40a433a7c]
class org.eclipse.epf.uma.impl.LeafElementImpl--><a href="LeafElementImpl.html" target="_top" title="LeafElementImpl.html" xlink:actuate="onRequest" xlink:href="LeafElementImpl.html" xlink:show="new" xlink:title="LeafElementImpl.html" xlink:type="simple"><rect codeLine="8" fill="#FEFECE" filter="url(#fphtj6tr80d)" height="40.1875" id="org.eclipse.epf.uma.impl.LeafElementImpl" style="stroke: #A80036; stroke-width: 1.5;" width="146" x="7" y="7"/><ellipse cx="22" cy="27.0938" fill="#A9DCDF" rx="11" ry="11" style="stroke: #A80036; stroke-width: 1.0;"/><path d="M24.1875,28.8594 L20.0469,28.8594 L19.625,29.8906 L20.0469,29.8906 Q20.6563,29.8906 20.9219,30.125 Q21.1875,30.3594 21.1875,30.75 Q21.1875,31.125 20.9219,31.3594 Q20.6563,31.5938 20.0469,31.5938 L17.75,31.5938 Q17.1406,31.5938 16.8906,31.3594 Q16.625,31.125 16.625,30.7344 Q16.625,30.3594 16.9063,30.125 Q17.1719,29.875 17.7969,29.8906 L20.4688,23.2344 L19.3594,23.2344 Q18.75,23.2344 18.4844,23 Q18.2188,22.7656 18.2188,22.375 Q18.2188,22 18.4844,21.7656 Q18.75,21.5313 19.3594,21.5313 L23.0313,21.5313 L26.4219,29.8906 Q27.0156,29.8906 27.2031,30.0313 Q27.5938,30.2969 27.5938,30.75 Q27.5938,31.125 27.3281,31.3594 Q27.0781,31.5938 26.4688,31.5938 L24.1719,31.5938 Q23.5625,31.5938 23.2969,31.3594 Q23.0313,31.125 23.0313,30.7344 Q23.0313,30.3594 23.2969,30.125 Q23.5625,29.8906 24.1719,29.8906 L24.5938,29.8906 L24.1875,28.8594 Z M23.4688,27.1563 L22.1094,23.7813 L20.7344,27.1563 L23.4688,27.1563 Z "/><text fill="#000000" font-family="sans-serif" font-size="14" font-style="italic" lengthAdjust="spacingAndGlyphs" textLength="105" x="40.5" y="26.5332">LeafElementImpl</text><text fill="#000000" font-family="sans-serif" font-size="10" font-style="italic" lengthAdjust="spacingAndGlyphs" textLength="114" x="36" y="39.9902">org.eclipse.epf.uma.impl</text></a><!--MD5=[67938dad4f380a14d7a7e75e67e5c0b0]
class org.eclipse.epf.uma.GraphicPrimitive--><a href="..\GraphicPrimitive.html" target="_top" title="..\GraphicPrimitive.html" xlink:actuate="onRequest" xlink:href="..\GraphicPrimitive.html" xlink:show="new" xlink:title="..\GraphicPrimitive.html" xlink:type="simple"><rect codeLine="9" fill="#FEFECE" filter="url(#fphtj6tr80d)" height="40.1875" id="org.eclipse.epf.uma.GraphicPrimitive" style="stroke: #A80036; stroke-width: 1.5;" width="134" x="188" y="7"/><ellipse cx="203" cy="27.0938" fill="#B4A7E5" rx="11" ry="11" style="stroke: #A80036; stroke-width: 1.0;"/><path d="M203.9531,23.7344 L203.9531,30.3906 L205.6719,30.3906 Q206.2813,30.3906 206.5469,30.625 Q206.8125,30.8594 206.8125,31.25 Q206.8125,31.625 206.5469,31.8594 Q206.2813,32.0938 205.6719,32.0938 L200.5313,32.0938 Q199.9219,32.0938 199.6563,31.8594 Q199.3906,31.625 199.3906,31.2344 Q199.3906,30.8594 199.6563,30.625 Q199.9219,30.3906 200.5313,30.3906 L202.25,30.3906 L202.25,23.7344 L200.5313,23.7344 Q199.9219,23.7344 199.6563,23.5 Q199.3906,23.2656 199.3906,22.875 Q199.3906,22.5 199.6563,22.2656 Q199.9219,22.0313 200.5313,22.0313 L205.6719,22.0313 Q206.2813,22.0313 206.5469,22.2656 Q206.8125,22.5 206.8125,22.875 Q206.8125,23.2656 206.5469,23.5 Q206.2813,23.7344 205.6719,23.7344 L203.9531,23.7344 Z "/><text fill="#000000" font-family="sans-serif" font-size="14" font-style="italic" lengthAdjust="spacingAndGlyphs" textLength="102" x="217" y="26.5332">GraphicPrimitive</text><text fill="#000000" font-family="sans-serif" font-size="10" font-style="italic" lengthAdjust="spacingAndGlyphs" textLength="92" x="222" y="39.9902">org.eclipse.epf.uma</text></a><!--MD5=[1f54da8133b432b4fbff6537c5111867]
reverse link org.eclipse.epf.uma.impl.LeafElementImpl to org.eclipse.epf.uma.impl.GraphicPrimitiveImpl--><path codeLine="11" d="M110.55,62.41 C123.73,77.26 138.65,94.07 149.85,106.68 " fill="none" id="org.eclipse.epf.uma.impl.LeafElementImpl-backto-org.eclipse.epf.uma.impl.GraphicPrimitiveImpl" style="stroke: #A80036; stroke-width: 1.0;"/><polygon fill="none" points="105.23,66.97,97.19,47.36,115.7,57.67,105.23,66.97" style="stroke: #A80036; stroke-width: 1.0;"/><!--MD5=[96913529e4d00f17235304b4ccc5c9d1]
reverse link org.eclipse.epf.uma.GraphicPrimitive to org.eclipse.epf.uma.impl.GraphicPrimitiveImpl--><path codeLine="12" d="M224.1,62.41 C210.77,77.26 195.67,94.07 184.35,106.68 " fill="none" id="org.eclipse.epf.uma.GraphicPrimitive-backto-org.eclipse.epf.uma.impl.GraphicPrimitiveImpl" style="stroke: #A80036; stroke-width: 1.0; stroke-dasharray: 7.0,7.0;"/><polygon fill="none" points="219.04,57.57,237.61,47.36,229.46,66.92,219.04,57.57" style="stroke: #A80036; stroke-width: 1.0;"/><text fill="#888888" font-family="sans-serif" font-size="10" lengthAdjust="spacingAndGlyphs" textLength="190" x="66.5" y="170.5684">UMLDoclet 2.0.12, PlantUML 1.2020.16</text><!--MD5=[fbdaf40375aa38cd900b657d6bc4dc89]
@startuml
    set namespaceSeparator none
    hide empty fields
    hide empty methods

    abstract class "<size:14>GraphicPrimitiveImpl\n<size:10>org.eclipse.epf.uma.impl" as org.eclipse.epf.uma.impl.GraphicPrimitiveImpl [[GraphicPrimitiveImpl.html]] {
    }

    abstract class "<size:14>LeafElementImpl\n<size:10>org.eclipse.epf.uma.impl" as org.eclipse.epf.uma.impl.LeafElementImpl [[LeafElementImpl.html]]
    interface "<size:14>GraphicPrimitive\n<size:10>org.eclipse.epf.uma" as org.eclipse.epf.uma.GraphicPrimitive [[..\GraphicPrimitive.html]]

    org.eclipse.epf.uma.impl.LeafElementImpl <|- - org.eclipse.epf.uma.impl.GraphicPrimitiveImpl
    org.eclipse.epf.uma.GraphicPrimitive <|.. org.eclipse.epf.uma.impl.GraphicPrimitiveImpl

    center footer UMLDoclet 2.0.12, PlantUML 1.2020.16
@enduml

PlantUML version 1.2020.16(Sun Aug 23 22:20:43 CEST 2020)
(APACHE source distribution)
Java Runtime: Java(TM) SE Runtime Environment
JVM: Java HotSpot(TM) 64-Bit Server VM
Default Encoding: Cp1252
Language: es
Country: ES
--></g></svg>