<?xml version="1.0" encoding="UTF-8" standalone="no"?><svg xmlns="http://www.w3.org/2000/svg" xmlns:xlink="http://www.w3.org/1999/xlink" contentScriptType="application/ecmascript" contentStyleType="text/css" height="408px" preserveAspectRatio="none" style="width:434px;height:408px;" version="1.1" viewBox="0 0 434 408" width="434px" zoomAndPan="magnify"><defs><filter height="300%" id="f16ozykcr4b61l" width="300%" x="-1" y="-1"><feGaussianBlur result="blurOut" stdDeviation="2.0"/><feColorMatrix in="blurOut" result="blurOut2" type="matrix" values="0 0 0 0 0 0 0 0 0 0 0 0 0 0 0 0 0 0 .4 0"/><feOffset dx="4.0" dy="4.0" in="blurOut2" result="blurOut3"/><feBlend in="SourceGraphic" in2="blurOut3" mode="normal"/></filter></defs><g><!--MD5=[af0be604bccd8786775a16ab4d5e80fa]
class org.eclipse.epf.uma.impl.GraphConnectorImpl--><a href="GraphConnectorImpl.html" target="_top" title="GraphConnectorImpl.html" xlink:actuate="onRequest" xlink:href="GraphConnectorImpl.html" xlink:show="new" xlink:title="GraphConnectorImpl.html" xlink:type="simple"><rect codeLine="5" fill="#FEFECE" filter="url(#f16ozykcr4b61l)" height="214.2188" id="org.eclipse.epf.uma.impl.GraphConnectorImpl" style="stroke: #A80036; stroke-width: 1.5;" width="382" x="7" y="157"/><ellipse cx="128.25" cy="177.0938" fill="#ADD1B2" rx="11" ry="11" style="stroke: #A80036; stroke-width: 1.0;"/><path d="M131.0156,172.9688 Q131.1719,172.75 131.3594,172.6406 Q131.5469,172.5313 131.7656,172.5313 Q132.1406,172.5313 132.375,172.7969 Q132.6094,173.0469 132.6094,173.6563 L132.6094,175.1094 Q132.6094,175.7188 132.375,175.9844 Q132.1406,176.25 131.7656,176.25 Q131.4219,176.25 131.2188,176.0469 Q131.0156,175.8594 130.9063,175.3438 Q130.8594,174.9844 130.6719,174.7969 Q130.3438,174.4219 129.7344,174.2031 Q129.125,173.9844 128.5,173.9844 Q127.7344,173.9844 127.0938,174.3125 Q126.4688,174.6406 125.9688,175.3906 Q125.4844,176.1406 125.4844,177.1719 L125.4844,178.2656 Q125.4844,179.5 126.375,180.3281 Q127.2656,181.1406 128.8594,181.1406 Q129.7969,181.1406 130.4531,180.8906 Q130.8438,180.7344 131.2656,180.2969 Q131.5313,180.0313 131.6719,179.9531 Q131.8281,179.875 132.0313,179.875 Q132.3594,179.875 132.6094,180.1406 Q132.875,180.3906 132.875,180.7344 Q132.875,181.0781 132.5313,181.4844 Q132.0313,182.0625 131.2344,182.3906 Q130.1563,182.8438 128.8594,182.8438 Q127.3438,182.8438 126.1406,182.2188 Q125.1563,181.7188 124.4688,180.6563 Q123.7813,179.5781 123.7813,178.2969 L123.7813,177.1406 Q123.7813,175.8125 124.3906,174.6719 Q125.0156,173.5156 126.1094,172.9063 Q127.2031,172.2813 128.4375,172.2813 Q129.1719,172.2813 129.8125,172.4531 Q130.4688,172.6094 131.0156,172.9688 Z "/><text fill="#000000" font-family="sans-serif" font-size="14" lengthAdjust="spacingAndGlyphs" textLength="131" x="148.75" y="176.5332">GraphConnectorImpl</text><text fill="#000000" font-family="sans-serif" font-size="10" lengthAdjust="spacingAndGlyphs" textLength="118" x="155.25" y="189.9902">org.eclipse.epf.uma.impl</text><line style="stroke: #A80036; stroke-width: 1.5;" x1="8" x2="388" y1="197.1875" y2="197.1875"/><ellipse cx="18" cy="208.1875" fill="#84BE84" rx="3" ry="3" style="stroke: #038048; stroke-width: 1.0;"/><text fill="#000000" font-family="sans-serif" font-size="11" lengthAdjust="spacingAndGlyphs" textLength="172" x="27" y="212.6064">getGraphEdge(): EList&lt;GraphEdge&gt;</text><ellipse cx="18" cy="222.0234" fill="#84BE84" rx="3" ry="3" style="stroke: #038048; stroke-width: 1.0;"/><text fill="#000000" font-family="sans-serif" font-size="11" lengthAdjust="spacingAndGlyphs" textLength="163" x="27" y="226.4424">getGraphElement(): GraphElement</text><ellipse cx="18" cy="235.8594" fill="#84BE84" rx="3" ry="3" style="stroke: #038048; stroke-width: 1.0;"/><text fill="#000000" font-family="sans-serif" font-size="11" lengthAdjust="spacingAndGlyphs" textLength="191" x="27" y="240.2783">basicGetGraphElement(): GraphElement</text><ellipse cx="18" cy="249.6953" fill="#84BE84" rx="3" ry="3" style="stroke: #038048; stroke-width: 1.0;"/><text fill="#000000" font-family="sans-serif" font-size="11" lengthAdjust="spacingAndGlyphs" textLength="356" x="27" y="254.1143">basicSetGraphElement(GraphElement, NotificationChain): NotificationChain</text><ellipse cx="18" cy="263.5313" fill="#84BE84" rx="3" ry="3" style="stroke: #038048; stroke-width: 1.0;"/><text fill="#000000" font-family="sans-serif" font-size="11" lengthAdjust="spacingAndGlyphs" textLength="183" x="27" y="267.9502">setGraphElement(GraphElement): void</text><ellipse cx="18" cy="277.3672" fill="#84BE84" rx="3" ry="3" style="stroke: #038048; stroke-width: 1.0;"/><text fill="#000000" font-family="sans-serif" font-size="11" lengthAdjust="spacingAndGlyphs" textLength="331" x="27" y="281.7861">eInverseAdd(InternalEObject, int, NotificationChain): NotificationChain</text><ellipse cx="18" cy="291.2031" fill="#84BE84" rx="3" ry="3" style="stroke: #038048; stroke-width: 1.0;"/><text fill="#000000" font-family="sans-serif" font-size="11" lengthAdjust="spacingAndGlyphs" textLength="350" x="27" y="295.6221">eInverseRemove(InternalEObject, int, NotificationChain): NotificationChain</text><ellipse cx="18" cy="305.0391" fill="#84BE84" rx="3" ry="3" style="stroke: #038048; stroke-width: 1.0;"/><text fill="#000000" font-family="sans-serif" font-size="11" lengthAdjust="spacingAndGlyphs" textLength="353" x="27" y="309.458">eBasicRemoveFromContainerFeature(NotificationChain): NotificationChain</text><ellipse cx="18" cy="318.875" fill="#84BE84" rx="3" ry="3" style="stroke: #038048; stroke-width: 1.0;"/><text fill="#000000" font-family="sans-serif" font-size="11" lengthAdjust="spacingAndGlyphs" textLength="167" x="27" y="323.2939">eGet(int, boolean, boolean): Object</text><ellipse cx="18" cy="332.7109" fill="#84BE84" rx="3" ry="3" style="stroke: #038048; stroke-width: 1.0;"/><text fill="#000000" font-family="sans-serif" font-size="11" lengthAdjust="spacingAndGlyphs" textLength="104" x="27" y="337.1299">eSet(int, Object): void</text><ellipse cx="18" cy="346.5469" fill="#84BE84" rx="3" ry="3" style="stroke: #038048; stroke-width: 1.0;"/><text fill="#000000" font-family="sans-serif" font-size="11" lengthAdjust="spacingAndGlyphs" textLength="79" x="27" y="350.9658">eUnset(int): void</text><ellipse cx="18" cy="360.3828" fill="#84BE84" rx="3" ry="3" style="stroke: #038048; stroke-width: 1.0;"/><text fill="#000000" font-family="sans-serif" font-size="11" lengthAdjust="spacingAndGlyphs" textLength="93" x="27" y="364.8018">eIsSet(int): boolean</text></a><!--MD5=[57ccf9ad911d7876e54819e3b1ad0c74]
class org.eclipse.epf.uma.impl.GraphElementImpl--><a href="GraphElementImpl.html" target="_top" title="GraphElementImpl.html" xlink:actuate="onRequest" xlink:href="GraphElementImpl.html" xlink:show="new" xlink:title="GraphElementImpl.html" xlink:type="simple"><rect codeLine="20" fill="#FEFECE" filter="url(#f16ozykcr4b61l)" height="40.1875" id="org.eclipse.epf.uma.impl.GraphElementImpl" style="stroke: #A80036; stroke-width: 1.5;" width="149" x="14.5" y="32"/><ellipse cx="29.5" cy="52.0938" fill="#A9DCDF" rx="11" ry="11" style="stroke: #A80036; stroke-width: 1.0;"/><path d="M31.6875,53.8594 L27.5469,53.8594 L27.125,54.8906 L27.5469,54.8906 Q28.1563,54.8906 28.4219,55.125 Q28.6875,55.3594 28.6875,55.75 Q28.6875,56.125 28.4219,56.3594 Q28.1563,56.5938 27.5469,56.5938 L25.25,56.5938 Q24.6406,56.5938 24.3906,56.3594 Q24.125,56.125 24.125,55.7344 Q24.125,55.3594 24.4063,55.125 Q24.6719,54.875 25.2969,54.8906 L27.9688,48.2344 L26.8594,48.2344 Q26.25,48.2344 25.9844,48 Q25.7188,47.7656 25.7188,47.375 Q25.7188,47 25.9844,46.7656 Q26.25,46.5313 26.8594,46.5313 L30.5313,46.5313 L33.9219,54.8906 Q34.5156,54.8906 34.7031,55.0313 Q35.0938,55.2969 35.0938,55.75 Q35.0938,56.125 34.8281,56.3594 Q34.5781,56.5938 33.9688,56.5938 L31.6719,56.5938 Q31.0625,56.5938 30.7969,56.3594 Q30.5313,56.125 30.5313,55.7344 Q30.5313,55.3594 30.7969,55.125 Q31.0625,54.8906 31.6719,54.8906 L32.0938,54.8906 L31.6875,53.8594 Z M30.9688,52.1563 L29.6094,48.7813 L28.2344,52.1563 L30.9688,52.1563 Z "/><text fill="#000000" font-family="sans-serif" font-size="14" font-style="italic" lengthAdjust="spacingAndGlyphs" textLength="117" x="43.5" y="51.5332">GraphElementImpl</text><text fill="#000000" font-family="sans-serif" font-size="10" font-style="italic" lengthAdjust="spacingAndGlyphs" textLength="114" x="45" y="64.9902">org.eclipse.epf.uma.impl</text></a><!--MD5=[f38145cf14e34bb5ad60acb47e7ab22c]
class org.eclipse.epf.uma.GraphConnector--><a href="..\GraphConnector.html" target="_top" title="..\GraphConnector.html" xlink:actuate="onRequest" xlink:href="..\GraphConnector.html" xlink:show="new" xlink:title="..\GraphConnector.html" xlink:type="simple"><rect codeLine="21" fill="#FEFECE" filter="url(#f16ozykcr4b61l)" height="89.6953" id="org.eclipse.epf.uma.GraphConnector" style="stroke: #A80036; stroke-width: 1.5;" width="217" x="198.5" y="7"/><ellipse cx="249.75" cy="27.0938" fill="#B4A7E5" rx="11" ry="11" style="stroke: #A80036; stroke-width: 1.0;"/><path d="M250.7031,23.7344 L250.7031,30.3906 L252.4219,30.3906 Q253.0313,30.3906 253.2969,30.625 Q253.5625,30.8594 253.5625,31.25 Q253.5625,31.625 253.2969,31.8594 Q253.0313,32.0938 252.4219,32.0938 L247.2813,32.0938 Q246.6719,32.0938 246.4063,31.8594 Q246.1406,31.625 246.1406,31.2344 Q246.1406,30.8594 246.4063,30.625 Q246.6719,30.3906 247.2813,30.3906 L249,30.3906 L249,23.7344 L247.2813,23.7344 Q246.6719,23.7344 246.4063,23.5 Q246.1406,23.2656 246.1406,22.875 Q246.1406,22.5 246.4063,22.2656 Q246.6719,22.0313 247.2813,22.0313 L252.4219,22.0313 Q253.0313,22.0313 253.2969,22.2656 Q253.5625,22.5 253.5625,22.875 Q253.5625,23.2656 253.2969,23.5 Q253.0313,23.7344 252.4219,23.7344 L250.7031,23.7344 Z "/><text fill="#000000" font-family="sans-serif" font-size="14" font-style="italic" lengthAdjust="spacingAndGlyphs" textLength="106" x="270.25" y="26.5332">GraphConnector</text><text fill="#000000" font-family="sans-serif" font-size="10" font-style="italic" lengthAdjust="spacingAndGlyphs" textLength="92" x="277.25" y="39.9902">org.eclipse.epf.uma</text><line style="stroke: #A80036; stroke-width: 1.5;" x1="199.5" x2="414.5" y1="47.1875" y2="47.1875"/><ellipse cx="209.5" cy="58.1875" fill="#84BE84" rx="3" ry="3" style="stroke: #038048; stroke-width: 1.0;"/><text fill="#000000" font-family="sans-serif" font-size="11" font-style="italic" lengthAdjust="spacingAndGlyphs" textLength="178" x="218.5" y="62.6064">getGraphEdge(): EList&lt;GraphEdge&gt;</text><ellipse cx="209.5" cy="72.0234" fill="#84BE84" rx="3" ry="3" style="stroke: #038048; stroke-width: 1.0;"/><text fill="#000000" font-family="sans-serif" font-size="11" font-style="italic" lengthAdjust="spacingAndGlyphs" textLength="171" x="218.5" y="76.4424">getGraphElement(): GraphElement</text><ellipse cx="209.5" cy="85.8594" fill="#84BE84" rx="3" ry="3" style="stroke: #038048; stroke-width: 1.0;"/><text fill="#000000" font-family="sans-serif" font-size="11" font-style="italic" lengthAdjust="spacingAndGlyphs" textLength="191" x="218.5" y="90.2783">setGraphElement(GraphElement): void</text></a><!--MD5=[49af99ed58eb5d198c64b74efd86a623]
reverse link org.eclipse.epf.uma.impl.GraphElementImpl to org.eclipse.epf.uma.impl.GraphConnectorImpl--><path codeLine="27" d="M108.15,89.9 C117.95,108.77 130.42,132.8 142.93,156.91 " fill="none" id="org.eclipse.epf.uma.impl.GraphElementImpl-backto-org.eclipse.epf.uma.impl.GraphConnectorImpl" style="stroke: #A80036; stroke-width: 1.0;"/><polygon fill="none" points="101.87,92.98,98.87,72.01,114.29,86.53,101.87,92.98" style="stroke: #A80036; stroke-width: 1.0;"/><!--MD5=[bd3851fed3b6d0f369148e1c5e3602e6]
reverse link org.eclipse.epf.uma.GraphConnector to org.eclipse.epf.uma.impl.GraphConnectorImpl--><path codeLine="28" d="M274.89,114.86 C268.04,128.07 260.6,142.39 253.16,156.73 " fill="none" id="org.eclipse.epf.uma.GraphConnector-backto-org.eclipse.epf.uma.impl.GraphConnectorImpl" style="stroke: #A80036; stroke-width: 1.0; stroke-dasharray: 7.0,7.0;"/><polygon fill="none" points="268.72,111.55,284.15,97.02,281.15,118,268.72,111.55" style="stroke: #A80036; stroke-width: 1.0;"/><text fill="#888888" font-family="sans-serif" font-size="10" lengthAdjust="spacingAndGlyphs" textLength="190" x="113.25" y="394.5996">UMLDoclet 2.0.12, PlantUML 1.2020.16</text><!--MD5=[6c43f2b7533a4089b702f00ae0300ca9]
@startuml
    set namespaceSeparator none
    hide empty fields
    hide empty methods

    class "<size:14>GraphConnectorImpl\n<size:10>org.eclipse.epf.uma.impl" as org.eclipse.epf.uma.impl.GraphConnectorImpl [[GraphConnectorImpl.html]] {
        +getGraphEdge(): EList<GraphEdge>
        +getGraphElement(): GraphElement
        +basicGetGraphElement(): GraphElement
        +basicSetGraphElement(GraphElement, NotificationChain): NotificationChain
        +setGraphElement(GraphElement): void
        +eInverseAdd(InternalEObject, int, NotificationChain): NotificationChain
        +eInverseRemove(InternalEObject, int, NotificationChain): NotificationChain
        +eBasicRemoveFromContainerFeature(NotificationChain): NotificationChain
        +eGet(int, boolean, boolean): Object
        +eSet(int, Object): void
        +eUnset(int): void
        +eIsSet(int): boolean
    }

    abstract class "<size:14>GraphElementImpl\n<size:10>org.eclipse.epf.uma.impl" as org.eclipse.epf.uma.impl.GraphElementImpl [[GraphElementImpl.html]]
    interface "<size:14>GraphConnector\n<size:10>org.eclipse.epf.uma" as org.eclipse.epf.uma.GraphConnector [[..\GraphConnector.html]] {
        {abstract} +getGraphEdge(): EList<GraphEdge>
        {abstract} +getGraphElement(): GraphElement
        {abstract} +setGraphElement(GraphElement): void
    }

    org.eclipse.epf.uma.impl.GraphElementImpl <|- - org.eclipse.epf.uma.impl.GraphConnectorImpl
    org.eclipse.epf.uma.GraphConnector <|.. org.eclipse.epf.uma.impl.GraphConnectorImpl

    center footer UMLDoclet 2.0.12, PlantUML 1.2020.16
@enduml

PlantUML version 1.2020.16(Sun Aug 23 22:20:43 CEST 2020)
(APACHE source distribution)
Java Runtime: Java(TM) SE Runtime Environment
JVM: Java HotSpot(TM) 64-Bit Server VM
Default Encoding: Cp1252
Language: es
Country: ES
--></g></svg>