<?xml version="1.0" encoding="UTF-8" standalone="no"?><svg xmlns="http://www.w3.org/2000/svg" xmlns:xlink="http://www.w3.org/1999/xlink" contentScriptType="application/ecmascript" contentStyleType="text/css" height="184px" preserveAspectRatio="none" style="width:344px;height:184px;" version="1.1" viewBox="0 0 344 184" width="344px" zoomAndPan="magnify"><defs><filter height="300%" id="fsf3xncahq5tc" width="300%" x="-1" y="-1"><feGaussianBlur result="blurOut" stdDeviation="2.0"/><feColorMatrix in="blurOut" result="blurOut2" type="matrix" values="0 0 0 0 0 0 0 0 0 0 0 0 0 0 0 0 0 0 .4 0"/><feOffset dx="4.0" dy="4.0" in="blurOut2" result="blurOut3"/><feBlend in="SourceGraphic" in2="blurOut3" mode="normal"/></filter></defs><g><!--MD5=[4ac47b7f125fe8903eb916935a8c261c]
class org.eclipse.epf.uma.impl.GuidanceImpl--><a href="GuidanceImpl.html" target="_top" title="GuidanceImpl.html" xlink:actuate="onRequest" xlink:href="GuidanceImpl.html" xlink:show="new" xlink:title="GuidanceImpl.html" xlink:type="simple"><rect codeLine="5" fill="#FEFECE" filter="url(#fsf3xncahq5tc)" height="40.1875" id="org.eclipse.epf.uma.impl.GuidanceImpl" style="stroke: #A80036; stroke-width: 1.5;" width="146" x="101.5" y="107"/><ellipse cx="116.5" cy="127.0938" fill="#A9DCDF" rx="11" ry="11" style="stroke: #A80036; stroke-width: 1.0;"/><path d="M118.6875,128.8594 L114.5469,128.8594 L114.125,129.8906 L114.5469,129.8906 Q115.1563,129.8906 115.4219,130.125 Q115.6875,130.3594 115.6875,130.75 Q115.6875,131.125 115.4219,131.3594 Q115.1563,131.5938 114.5469,131.5938 L112.25,131.5938 Q111.6406,131.5938 111.3906,131.3594 Q111.125,131.125 111.125,130.7344 Q111.125,130.3594 111.4063,130.125 Q111.6719,129.875 112.2969,129.8906 L114.9688,123.2344 L113.8594,123.2344 Q113.25,123.2344 112.9844,123 Q112.7188,122.7656 112.7188,122.375 Q112.7188,122 112.9844,121.7656 Q113.25,121.5313 113.8594,121.5313 L117.5313,121.5313 L120.9219,129.8906 Q121.5156,129.8906 121.7031,130.0313 Q122.0938,130.2969 122.0938,130.75 Q122.0938,131.125 121.8281,131.3594 Q121.5781,131.5938 120.9688,131.5938 L118.6719,131.5938 Q118.0625,131.5938 117.7969,131.3594 Q117.5313,131.125 117.5313,130.7344 Q117.5313,130.3594 117.7969,130.125 Q118.0625,129.8906 118.6719,129.8906 L119.0938,129.8906 L118.6875,128.8594 Z M117.9688,127.1563 L116.6094,123.7813 L115.2344,127.1563 L117.9688,127.1563 Z "/><text fill="#000000" font-family="sans-serif" font-size="14" font-style="italic" lengthAdjust="spacingAndGlyphs" textLength="87" x="144" y="126.5332">GuidanceImpl</text><text fill="#000000" font-family="sans-serif" font-size="10" font-style="italic" lengthAdjust="spacingAndGlyphs" textLength="114" x="130.5" y="139.9902">org.eclipse.epf.uma.impl</text></a><!--MD5=[756787a8587a7ade10dd365aa5346d02]
class org.eclipse.epf.uma.impl.ContentElementImpl--><a href="ContentElementImpl.html" target="_top" title="ContentElementImpl.html" xlink:actuate="onRequest" xlink:href="ContentElementImpl.html" xlink:show="new" xlink:title="ContentElementImpl.html" xlink:type="simple"><rect codeLine="8" fill="#FEFECE" filter="url(#fsf3xncahq5tc)" height="40.1875" id="org.eclipse.epf.uma.impl.ContentElementImpl" style="stroke: #A80036; stroke-width: 1.5;" width="159" x="7" y="7"/><ellipse cx="22" cy="27.0938" fill="#A9DCDF" rx="11" ry="11" style="stroke: #A80036; stroke-width: 1.0;"/><path d="M24.1875,28.8594 L20.0469,28.8594 L19.625,29.8906 L20.0469,29.8906 Q20.6563,29.8906 20.9219,30.125 Q21.1875,30.3594 21.1875,30.75 Q21.1875,31.125 20.9219,31.3594 Q20.6563,31.5938 20.0469,31.5938 L17.75,31.5938 Q17.1406,31.5938 16.8906,31.3594 Q16.625,31.125 16.625,30.7344 Q16.625,30.3594 16.9063,30.125 Q17.1719,29.875 17.7969,29.8906 L20.4688,23.2344 L19.3594,23.2344 Q18.75,23.2344 18.4844,23 Q18.2188,22.7656 18.2188,22.375 Q18.2188,22 18.4844,21.7656 Q18.75,21.5313 19.3594,21.5313 L23.0313,21.5313 L26.4219,29.8906 Q27.0156,29.8906 27.2031,30.0313 Q27.5938,30.2969 27.5938,30.75 Q27.5938,31.125 27.3281,31.3594 Q27.0781,31.5938 26.4688,31.5938 L24.1719,31.5938 Q23.5625,31.5938 23.2969,31.3594 Q23.0313,31.125 23.0313,30.7344 Q23.0313,30.3594 23.2969,30.125 Q23.5625,29.8906 24.1719,29.8906 L24.5938,29.8906 L24.1875,28.8594 Z M23.4688,27.1563 L22.1094,23.7813 L20.7344,27.1563 L23.4688,27.1563 Z "/><text fill="#000000" font-family="sans-serif" font-size="14" font-style="italic" lengthAdjust="spacingAndGlyphs" textLength="127" x="36" y="26.5332">ContentElementImpl</text><text fill="#000000" font-family="sans-serif" font-size="10" font-style="italic" lengthAdjust="spacingAndGlyphs" textLength="114" x="42.5" y="39.9902">org.eclipse.epf.uma.impl</text></a><!--MD5=[31784ddf3d95333b37758b987195013e]
class org.eclipse.epf.uma.Guidance--><a href="..\Guidance.html" target="_top" title="..\Guidance.html" xlink:actuate="onRequest" xlink:href="..\Guidance.html" xlink:show="new" xlink:title="..\Guidance.html" xlink:type="simple"><rect codeLine="9" fill="#FEFECE" filter="url(#fsf3xncahq5tc)" height="40.1875" id="org.eclipse.epf.uma.Guidance" style="stroke: #A80036; stroke-width: 1.5;" width="124" x="201.5" y="7"/><ellipse cx="216.5" cy="27.0938" fill="#B4A7E5" rx="11" ry="11" style="stroke: #A80036; stroke-width: 1.0;"/><path d="M217.4531,23.7344 L217.4531,30.3906 L219.1719,30.3906 Q219.7813,30.3906 220.0469,30.625 Q220.3125,30.8594 220.3125,31.25 Q220.3125,31.625 220.0469,31.8594 Q219.7813,32.0938 219.1719,32.0938 L214.0313,32.0938 Q213.4219,32.0938 213.1563,31.8594 Q212.8906,31.625 212.8906,31.2344 Q212.8906,30.8594 213.1563,30.625 Q213.4219,30.3906 214.0313,30.3906 L215.75,30.3906 L215.75,23.7344 L214.0313,23.7344 Q213.4219,23.7344 213.1563,23.5 Q212.8906,23.2656 212.8906,22.875 Q212.8906,22.5 213.1563,22.2656 Q213.4219,22.0313 214.0313,22.0313 L219.1719,22.0313 Q219.7813,22.0313 220.0469,22.2656 Q220.3125,22.5 220.3125,22.875 Q220.3125,23.2656 220.0469,23.5 Q219.7813,23.7344 219.1719,23.7344 L217.4531,23.7344 Z "/><text fill="#000000" font-family="sans-serif" font-size="14" font-style="italic" lengthAdjust="spacingAndGlyphs" textLength="61" x="246" y="26.5332">Guidance</text><text fill="#000000" font-family="sans-serif" font-size="10" font-style="italic" lengthAdjust="spacingAndGlyphs" textLength="92" x="230.5" y="39.9902">org.eclipse.epf.uma</text></a><!--MD5=[126bae8e6a21dae5d18742ebeb22b051]
reverse link org.eclipse.epf.uma.impl.ContentElementImpl to org.eclipse.epf.uma.impl.GuidanceImpl--><path codeLine="11" d="M117.4,62.41 C130.73,77.26 145.83,94.07 157.15,106.68 " fill="none" id="org.eclipse.epf.uma.impl.ContentElementImpl-backto-org.eclipse.epf.uma.impl.GuidanceImpl" style="stroke: #A80036; stroke-width: 1.0;"/><polygon fill="none" points="112.04,66.92,103.89,47.36,122.46,57.57,112.04,66.92" style="stroke: #A80036; stroke-width: 1.0;"/><!--MD5=[32d843d8cbc119b27403adb5eaffa67b]
reverse link org.eclipse.epf.uma.Guidance to org.eclipse.epf.uma.impl.GuidanceImpl--><path codeLine="12" d="M232.25,62.41 C218.77,77.26 203.5,94.07 192.05,106.68 " fill="none" id="org.eclipse.epf.uma.Guidance-backto-org.eclipse.epf.uma.impl.GuidanceImpl" style="stroke: #A80036; stroke-width: 1.0; stroke-dasharray: 7.0,7.0;"/><polygon fill="none" points="227.29,57.46,245.92,47.36,237.65,66.87,227.29,57.46" style="stroke: #A80036; stroke-width: 1.0;"/><text fill="#888888" font-family="sans-serif" font-size="10" lengthAdjust="spacingAndGlyphs" textLength="190" x="68.25" y="170.5684">UMLDoclet 2.0.12, PlantUML 1.2020.16</text><!--MD5=[7f19a9e9fad7a2833367f4ddda824cb4]
@startuml
    set namespaceSeparator none
    hide empty fields
    hide empty methods

    abstract class "<size:14>GuidanceImpl\n<size:10>org.eclipse.epf.uma.impl" as org.eclipse.epf.uma.impl.GuidanceImpl [[GuidanceImpl.html]] {
    }

    abstract class "<size:14>ContentElementImpl\n<size:10>org.eclipse.epf.uma.impl" as org.eclipse.epf.uma.impl.ContentElementImpl [[ContentElementImpl.html]]
    interface "<size:14>Guidance\n<size:10>org.eclipse.epf.uma" as org.eclipse.epf.uma.Guidance [[..\Guidance.html]]

    org.eclipse.epf.uma.impl.ContentElementImpl <|- - org.eclipse.epf.uma.impl.GuidanceImpl
    org.eclipse.epf.uma.Guidance <|.. org.eclipse.epf.uma.impl.GuidanceImpl

    center footer UMLDoclet 2.0.12, PlantUML 1.2020.16
@enduml

PlantUML version 1.2020.16(Sun Aug 23 22:20:43 CEST 2020)
(APACHE source distribution)
Java Runtime: Java(TM) SE Runtime Environment
JVM: Java HotSpot(TM) 64-Bit Server VM
Default Encoding: Cp1252
Language: es
Country: ES
--></g></svg>