<?xml version="1.0" encoding="UTF-8" standalone="no"?><svg xmlns="http://www.w3.org/2000/svg" xmlns:xlink="http://www.w3.org/1999/xlink" contentScriptType="application/ecmascript" contentStyleType="text/css" height="311px" preserveAspectRatio="none" style="width:404px;height:311px;" version="1.1" viewBox="0 0 404 311" width="404px" zoomAndPan="magnify"><defs><filter height="300%" id="f9mypk38efqk4" width="300%" x="-1" y="-1"><feGaussianBlur result="blurOut" stdDeviation="2.0"/><feColorMatrix in="blurOut" result="blurOut2" type="matrix" values="0 0 0 0 0 0 0 0 0 0 0 0 0 0 0 0 0 0 .4 0"/><feOffset dx="4.0" dy="4.0" in="blurOut2" result="blurOut3"/><feBlend in="SourceGraphic" in2="blurOut3" mode="normal"/></filter></defs><g><!--MD5=[54dbde131ed1c2c47fe4aa8c46917283]
class org.eclipse.epf.uma.impl.GuidanceDescriptionImpl--><a href="GuidanceDescriptionImpl.html" target="_top" title="GuidanceDescriptionImpl.html" xlink:actuate="onRequest" xlink:href="GuidanceDescriptionImpl.html" xlink:show="new" xlink:title="GuidanceDescriptionImpl.html" xlink:type="simple"><rect codeLine="5" fill="#FEFECE" filter="url(#f9mypk38efqk4)" height="131.2031" id="org.eclipse.epf.uma.impl.GuidanceDescriptionImpl" style="stroke: #A80036; stroke-width: 1.5;" width="193" x="102.5" y="143"/><ellipse cx="119.3" cy="163.0938" fill="#ADD1B2" rx="11" ry="11" style="stroke: #A80036; stroke-width: 1.0;"/><path d="M122.0656,158.9688 Q122.2219,158.75 122.4094,158.6406 Q122.5969,158.5313 122.8156,158.5313 Q123.1906,158.5313 123.425,158.7969 Q123.6594,159.0469 123.6594,159.6563 L123.6594,161.1094 Q123.6594,161.7188 123.425,161.9844 Q123.1906,162.25 122.8156,162.25 Q122.4719,162.25 122.2688,162.0469 Q122.0656,161.8594 121.9563,161.3438 Q121.9094,160.9844 121.7219,160.7969 Q121.3938,160.4219 120.7844,160.2031 Q120.175,159.9844 119.55,159.9844 Q118.7844,159.9844 118.1438,160.3125 Q117.5188,160.6406 117.0188,161.3906 Q116.5344,162.1406 116.5344,163.1719 L116.5344,164.2656 Q116.5344,165.5 117.425,166.3281 Q118.3156,167.1406 119.9094,167.1406 Q120.8469,167.1406 121.5031,166.8906 Q121.8938,166.7344 122.3156,166.2969 Q122.5813,166.0313 122.7219,165.9531 Q122.8781,165.875 123.0813,165.875 Q123.4094,165.875 123.6594,166.1406 Q123.925,166.3906 123.925,166.7344 Q123.925,167.0781 123.5813,167.4844 Q123.0813,168.0625 122.2844,168.3906 Q121.2063,168.8438 119.9094,168.8438 Q118.3938,168.8438 117.1906,168.2188 Q116.2063,167.7188 115.5188,166.6563 Q114.8313,165.5781 114.8313,164.2969 L114.8313,163.1406 Q114.8313,161.8125 115.4406,160.6719 Q116.0656,159.5156 117.1594,158.9063 Q118.2531,158.2813 119.4875,158.2813 Q120.2219,158.2813 120.8625,158.4531 Q121.5188,158.6094 122.0656,158.9688 Z "/><text fill="#000000" font-family="sans-serif" font-size="14" lengthAdjust="spacingAndGlyphs" textLength="157" x="133.7" y="162.5332">GuidanceDescriptionImpl</text><text fill="#000000" font-family="sans-serif" font-size="10" lengthAdjust="spacingAndGlyphs" textLength="118" x="153.2" y="175.9902">org.eclipse.epf.uma.impl</text><line style="stroke: #A80036; stroke-width: 1.5;" x1="103.5" x2="294.5" y1="183.1875" y2="183.1875"/><ellipse cx="113.5" cy="194.1875" fill="#84BE84" rx="3" ry="3" style="stroke: #038048; stroke-width: 1.0;"/><text fill="#000000" font-family="sans-serif" font-size="11" lengthAdjust="spacingAndGlyphs" textLength="118" x="122.5" y="198.6064">getAttachments(): String</text><ellipse cx="113.5" cy="208.0234" fill="#84BE84" rx="3" ry="3" style="stroke: #038048; stroke-width: 1.0;"/><text fill="#000000" font-family="sans-serif" font-size="11" lengthAdjust="spacingAndGlyphs" textLength="138" x="122.5" y="212.4424">setAttachments(String): void</text><ellipse cx="113.5" cy="221.8594" fill="#84BE84" rx="3" ry="3" style="stroke: #038048; stroke-width: 1.0;"/><text fill="#000000" font-family="sans-serif" font-size="11" lengthAdjust="spacingAndGlyphs" textLength="167" x="122.5" y="226.2783">eGet(int, boolean, boolean): Object</text><ellipse cx="113.5" cy="235.6953" fill="#84BE84" rx="3" ry="3" style="stroke: #038048; stroke-width: 1.0;"/><text fill="#000000" font-family="sans-serif" font-size="11" lengthAdjust="spacingAndGlyphs" textLength="104" x="122.5" y="240.1143">eSet(int, Object): void</text><ellipse cx="113.5" cy="249.5313" fill="#84BE84" rx="3" ry="3" style="stroke: #038048; stroke-width: 1.0;"/><text fill="#000000" font-family="sans-serif" font-size="11" lengthAdjust="spacingAndGlyphs" textLength="79" x="122.5" y="253.9502">eUnset(int): void</text><ellipse cx="113.5" cy="263.3672" fill="#84BE84" rx="3" ry="3" style="stroke: #038048; stroke-width: 1.0;"/><text fill="#000000" font-family="sans-serif" font-size="11" lengthAdjust="spacingAndGlyphs" textLength="93" x="122.5" y="267.7861">eIsSet(int): boolean</text></a><!--MD5=[92b3159b33d4292b6938f7fac228d88c]
class org.eclipse.epf.uma.impl.ContentDescriptionImpl--><a href="ContentDescriptionImpl.html" target="_top" title="ContentDescriptionImpl.html" xlink:actuate="onRequest" xlink:href="ContentDescriptionImpl.html" xlink:show="new" xlink:title="ContentDescriptionImpl.html" xlink:type="simple"><rect codeLine="14" fill="#FEFECE" filter="url(#f9mypk38efqk4)" height="40.1875" id="org.eclipse.epf.uma.impl.ContentDescriptionImpl" style="stroke: #A80036; stroke-width: 1.5;" width="178" x="7" y="25"/><ellipse cx="22" cy="45.0938" fill="#ADD1B2" rx="11" ry="11" style="stroke: #A80036; stroke-width: 1.0;"/><path d="M24.7656,40.9688 Q24.9219,40.75 25.1094,40.6406 Q25.2969,40.5313 25.5156,40.5313 Q25.8906,40.5313 26.125,40.7969 Q26.3594,41.0469 26.3594,41.6563 L26.3594,43.1094 Q26.3594,43.7188 26.125,43.9844 Q25.8906,44.25 25.5156,44.25 Q25.1719,44.25 24.9688,44.0469 Q24.7656,43.8594 24.6563,43.3438 Q24.6094,42.9844 24.4219,42.7969 Q24.0938,42.4219 23.4844,42.2031 Q22.875,41.9844 22.25,41.9844 Q21.4844,41.9844 20.8438,42.3125 Q20.2188,42.6406 19.7188,43.3906 Q19.2344,44.1406 19.2344,45.1719 L19.2344,46.2656 Q19.2344,47.5 20.125,48.3281 Q21.0156,49.1406 22.6094,49.1406 Q23.5469,49.1406 24.2031,48.8906 Q24.5938,48.7344 25.0156,48.2969 Q25.2813,48.0313 25.4219,47.9531 Q25.5781,47.875 25.7813,47.875 Q26.1094,47.875 26.3594,48.1406 Q26.625,48.3906 26.625,48.7344 Q26.625,49.0781 26.2813,49.4844 Q25.7813,50.0625 24.9844,50.3906 Q23.9063,50.8438 22.6094,50.8438 Q21.0938,50.8438 19.8906,50.2188 Q18.9063,49.7188 18.2188,48.6563 Q17.5313,47.5781 17.5313,46.2969 L17.5313,45.1406 Q17.5313,43.8125 18.1406,42.6719 Q18.7656,41.5156 19.8594,40.9063 Q20.9531,40.2813 22.1875,40.2813 Q22.9219,40.2813 23.5625,40.4531 Q24.2188,40.6094 24.7656,40.9688 Z "/><text fill="#000000" font-family="sans-serif" font-size="14" lengthAdjust="spacingAndGlyphs" textLength="146" x="36" y="44.5332">ContentDescriptionImpl</text><text fill="#000000" font-family="sans-serif" font-size="10" lengthAdjust="spacingAndGlyphs" textLength="118" x="50" y="57.9902">org.eclipse.epf.uma.impl</text></a><!--MD5=[40a6ae3aac7cc634b18e14fda09ba16c]
class org.eclipse.epf.uma.GuidanceDescription--><a href="..\GuidanceDescription.html" target="_top" title="..\GuidanceDescription.html" xlink:actuate="onRequest" xlink:href="..\GuidanceDescription.html" xlink:show="new" xlink:title="..\GuidanceDescription.html" xlink:type="simple"><rect codeLine="15" fill="#FEFECE" filter="url(#f9mypk38efqk4)" height="75.8594" id="org.eclipse.epf.uma.GuidanceDescription" style="stroke: #A80036; stroke-width: 1.5;" width="165" x="220.5" y="7"/><ellipse cx="235.95" cy="27.0938" fill="#B4A7E5" rx="11" ry="11" style="stroke: #A80036; stroke-width: 1.0;"/><path d="M236.9031,23.7344 L236.9031,30.3906 L238.6219,30.3906 Q239.2313,30.3906 239.4969,30.625 Q239.7625,30.8594 239.7625,31.25 Q239.7625,31.625 239.4969,31.8594 Q239.2313,32.0938 238.6219,32.0938 L233.4813,32.0938 Q232.8719,32.0938 232.6063,31.8594 Q232.3406,31.625 232.3406,31.2344 Q232.3406,30.8594 232.6063,30.625 Q232.8719,30.3906 233.4813,30.3906 L235.2,30.3906 L235.2,23.7344 L233.4813,23.7344 Q232.8719,23.7344 232.6063,23.5 Q232.3406,23.2656 232.3406,22.875 Q232.3406,22.5 232.6063,22.2656 Q232.8719,22.0313 233.4813,22.0313 L238.6219,22.0313 Q239.2313,22.0313 239.4969,22.2656 Q239.7625,22.5 239.7625,22.875 Q239.7625,23.2656 239.4969,23.5 Q239.2313,23.7344 238.6219,23.7344 L236.9031,23.7344 Z "/><text fill="#000000" font-family="sans-serif" font-size="14" font-style="italic" lengthAdjust="spacingAndGlyphs" textLength="132" x="250.05" y="26.5332">GuidanceDescription</text><text fill="#000000" font-family="sans-serif" font-size="10" font-style="italic" lengthAdjust="spacingAndGlyphs" textLength="92" x="270.05" y="39.9902">org.eclipse.epf.uma</text><line style="stroke: #A80036; stroke-width: 1.5;" x1="221.5" x2="384.5" y1="47.1875" y2="47.1875"/><ellipse cx="231.5" cy="58.1875" fill="#84BE84" rx="3" ry="3" style="stroke: #038048; stroke-width: 1.0;"/><text fill="#000000" font-family="sans-serif" font-size="11" font-style="italic" lengthAdjust="spacingAndGlyphs" textLength="119" x="240.5" y="62.6064">getAttachments(): String</text><ellipse cx="231.5" cy="72.0234" fill="#84BE84" rx="3" ry="3" style="stroke: #038048; stroke-width: 1.0;"/><text fill="#000000" font-family="sans-serif" font-size="11" font-style="italic" lengthAdjust="spacingAndGlyphs" textLength="139" x="240.5" y="76.4424">setAttachments(String): void</text></a><!--MD5=[c24e103805fc31c59b4449cb9028065f]
reverse link org.eclipse.epf.uma.impl.ContentDescriptionImpl to org.eclipse.epf.uma.impl.GuidanceDescriptionImpl--><path codeLine="20" d="M119.13,82.27 C130.49,100.08 144.52,122.08 157.64,142.65 " fill="none" id="org.eclipse.epf.uma.impl.ContentDescriptionImpl-backto-org.eclipse.epf.uma.impl.GuidanceDescriptionImpl" style="stroke: #A80036; stroke-width: 1.0;"/><polygon fill="none" points="113.07,85.79,108.22,65.16,124.88,78.26,113.07,85.79" style="stroke: #A80036; stroke-width: 1.0;"/><!--MD5=[a8c6eb49a58aa834b9e8de39370bba69]
reverse link org.eclipse.epf.uma.GuidanceDescription to org.eclipse.epf.uma.impl.GuidanceDescriptionImpl--><path codeLine="21" d="M268.11,100.19 C259.31,113.84 249.79,128.63 240.7,142.74 " fill="none" id="org.eclipse.epf.uma.GuidanceDescription-backto-org.eclipse.epf.uma.impl.GuidanceDescriptionImpl" style="stroke: #A80036; stroke-width: 1.0; stroke-dasharray: 7.0,7.0;"/><polygon fill="none" points="262.43,96.08,279.14,83.05,274.2,103.66,262.43,96.08" style="stroke: #A80036; stroke-width: 1.0;"/><text fill="#888888" font-family="sans-serif" font-size="10" lengthAdjust="spacingAndGlyphs" textLength="190" x="98.25" y="297.584">UMLDoclet 2.0.12, PlantUML 1.2020.16</text><!--MD5=[6532f9cf3c48bb14bd52603052ad7546]
@startuml
    set namespaceSeparator none
    hide empty fields
    hide empty methods

    class "<size:14>GuidanceDescriptionImpl\n<size:10>org.eclipse.epf.uma.impl" as org.eclipse.epf.uma.impl.GuidanceDescriptionImpl [[GuidanceDescriptionImpl.html]] {
        +getAttachments(): String
        +setAttachments(String): void
        +eGet(int, boolean, boolean): Object
        +eSet(int, Object): void
        +eUnset(int): void
        +eIsSet(int): boolean
    }

    class "<size:14>ContentDescriptionImpl\n<size:10>org.eclipse.epf.uma.impl" as org.eclipse.epf.uma.impl.ContentDescriptionImpl [[ContentDescriptionImpl.html]]
    interface "<size:14>GuidanceDescription\n<size:10>org.eclipse.epf.uma" as org.eclipse.epf.uma.GuidanceDescription [[..\GuidanceDescription.html]] {
        {abstract} +getAttachments(): String
        {abstract} +setAttachments(String): void
    }

    org.eclipse.epf.uma.impl.ContentDescriptionImpl <|- - org.eclipse.epf.uma.impl.GuidanceDescriptionImpl
    org.eclipse.epf.uma.GuidanceDescription <|.. org.eclipse.epf.uma.impl.GuidanceDescriptionImpl

    center footer UMLDoclet 2.0.12, PlantUML 1.2020.16
@enduml

PlantUML version 1.2020.16(Sun Aug 23 22:20:43 CEST 2020)
(APACHE source distribution)
Java Runtime: Java(TM) SE Runtime Environment
JVM: Java HotSpot(TM) 64-Bit Server VM
Default Encoding: Cp1252
Language: es
Country: ES
--></g></svg>