<?xml version="1.0" encoding="UTF-8" standalone="no"?><svg xmlns="http://www.w3.org/2000/svg" xmlns:xlink="http://www.w3.org/1999/xlink" contentScriptType="application/ecmascript" contentStyleType="text/css" height="366px" preserveAspectRatio="none" style="width:362px;height:366px;" version="1.1" viewBox="0 0 362 366" width="362px" zoomAndPan="magnify"><defs><filter height="300%" id="fofe8cj6znqyb" width="300%" x="-1" y="-1"><feGaussianBlur result="blurOut" stdDeviation="2.0"/><feColorMatrix in="blurOut" result="blurOut2" type="matrix" values="0 0 0 0 0 0 0 0 0 0 0 0 0 0 0 0 0 0 .4 0"/><feOffset dx="4.0" dy="4.0" in="blurOut2" result="blurOut3"/><feBlend in="SourceGraphic" in2="blurOut3" mode="normal"/></filter></defs><g><!--MD5=[04be29adb5693f4089cf90e0748afb9e]
class org.eclipse.epf.uma.impl.ImageImpl--><a href="ImageImpl.html" target="_top" title="ImageImpl.html" xlink:actuate="onRequest" xlink:href="ImageImpl.html" xlink:show="new" xlink:title="ImageImpl.html" xlink:type="simple"><rect codeLine="5" fill="#FEFECE" filter="url(#fofe8cj6znqyb)" height="158.875" id="org.eclipse.epf.uma.impl.ImageImpl" style="stroke: #A80036; stroke-width: 1.5;" width="193" x="76.5" y="171"/><ellipse cx="110.85" cy="191.0938" fill="#ADD1B2" rx="11" ry="11" style="stroke: #A80036; stroke-width: 1.0;"/><path d="M113.6156,186.9688 Q113.7719,186.75 113.9594,186.6406 Q114.1469,186.5313 114.3656,186.5313 Q114.7406,186.5313 114.975,186.7969 Q115.2094,187.0469 115.2094,187.6563 L115.2094,189.1094 Q115.2094,189.7188 114.975,189.9844 Q114.7406,190.25 114.3656,190.25 Q114.0219,190.25 113.8188,190.0469 Q113.6156,189.8594 113.5063,189.3438 Q113.4594,188.9844 113.2719,188.7969 Q112.9438,188.4219 112.3344,188.2031 Q111.725,187.9844 111.1,187.9844 Q110.3344,187.9844 109.6938,188.3125 Q109.0688,188.6406 108.5688,189.3906 Q108.0844,190.1406 108.0844,191.1719 L108.0844,192.2656 Q108.0844,193.5 108.975,194.3281 Q109.8656,195.1406 111.4594,195.1406 Q112.3969,195.1406 113.0531,194.8906 Q113.4438,194.7344 113.8656,194.2969 Q114.1313,194.0313 114.2719,193.9531 Q114.4281,193.875 114.6313,193.875 Q114.9594,193.875 115.2094,194.1406 Q115.475,194.3906 115.475,194.7344 Q115.475,195.0781 115.1313,195.4844 Q114.6313,196.0625 113.8344,196.3906 Q112.7563,196.8438 111.4594,196.8438 Q109.9438,196.8438 108.7406,196.2188 Q107.7563,195.7188 107.0688,194.6563 Q106.3813,193.5781 106.3813,192.2969 L106.3813,191.1406 Q106.3813,189.8125 106.9906,188.6719 Q107.6156,187.5156 108.7094,186.9063 Q109.8031,186.2813 111.0375,186.2813 Q111.7719,186.2813 112.4125,186.4531 Q113.0688,186.6094 113.6156,186.9688 Z "/><text fill="#000000" font-family="sans-serif" font-size="14" lengthAdjust="spacingAndGlyphs" textLength="63" x="156.65" y="190.5332">ImageImpl</text><text fill="#000000" font-family="sans-serif" font-size="10" lengthAdjust="spacingAndGlyphs" textLength="118" x="129.15" y="203.9902">org.eclipse.epf.uma.impl</text><line style="stroke: #A80036; stroke-width: 1.5;" x1="77.5" x2="268.5" y1="211.1875" y2="211.1875"/><ellipse cx="87.5" cy="222.1875" fill="#84BE84" rx="3" ry="3" style="stroke: #038048; stroke-width: 1.0;"/><text fill="#000000" font-family="sans-serif" font-size="11" lengthAdjust="spacingAndGlyphs" textLength="58" x="96.5" y="226.6064">getUri(): URI</text><ellipse cx="87.5" cy="236.0234" fill="#84BE84" rx="3" ry="3" style="stroke: #038048; stroke-width: 1.0;"/><text fill="#000000" font-family="sans-serif" font-size="11" lengthAdjust="spacingAndGlyphs" textLength="78" x="96.5" y="240.4424">setUri(URI): void</text><ellipse cx="87.5" cy="249.8594" fill="#84BE84" rx="3" ry="3" style="stroke: #038048; stroke-width: 1.0;"/><text fill="#000000" font-family="sans-serif" font-size="11" lengthAdjust="spacingAndGlyphs" textLength="105" x="96.5" y="254.2783">getMimeType(): String</text><ellipse cx="87.5" cy="263.6953" fill="#84BE84" rx="3" ry="3" style="stroke: #038048; stroke-width: 1.0;"/><text fill="#000000" font-family="sans-serif" font-size="11" lengthAdjust="spacingAndGlyphs" textLength="125" x="96.5" y="268.1143">setMimeType(String): void</text><ellipse cx="87.5" cy="277.5313" fill="#84BE84" rx="3" ry="3" style="stroke: #038048; stroke-width: 1.0;"/><text fill="#000000" font-family="sans-serif" font-size="11" lengthAdjust="spacingAndGlyphs" textLength="167" x="96.5" y="281.9502">eGet(int, boolean, boolean): Object</text><ellipse cx="87.5" cy="291.3672" fill="#84BE84" rx="3" ry="3" style="stroke: #038048; stroke-width: 1.0;"/><text fill="#000000" font-family="sans-serif" font-size="11" lengthAdjust="spacingAndGlyphs" textLength="104" x="96.5" y="295.7861">eSet(int, Object): void</text><ellipse cx="87.5" cy="305.2031" fill="#84BE84" rx="3" ry="3" style="stroke: #038048; stroke-width: 1.0;"/><text fill="#000000" font-family="sans-serif" font-size="11" lengthAdjust="spacingAndGlyphs" textLength="79" x="96.5" y="309.6221">eUnset(int): void</text><ellipse cx="87.5" cy="319.0391" fill="#84BE84" rx="3" ry="3" style="stroke: #038048; stroke-width: 1.0;"/><text fill="#000000" font-family="sans-serif" font-size="11" lengthAdjust="spacingAndGlyphs" textLength="93" x="96.5" y="323.458">eIsSet(int): boolean</text></a><!--MD5=[fbda6fcf825bda8f9fd0add40a433a7c]
class org.eclipse.epf.uma.impl.LeafElementImpl--><a href="LeafElementImpl.html" target="_top" title="LeafElementImpl.html" xlink:actuate="onRequest" xlink:href="LeafElementImpl.html" xlink:show="new" xlink:title="LeafElementImpl.html" xlink:type="simple"><rect codeLine="16" fill="#FEFECE" filter="url(#fofe8cj6znqyb)" height="40.1875" id="org.eclipse.epf.uma.impl.LeafElementImpl" style="stroke: #A80036; stroke-width: 1.5;" width="146" x="7" y="39"/><ellipse cx="22" cy="59.0938" fill="#A9DCDF" rx="11" ry="11" style="stroke: #A80036; stroke-width: 1.0;"/><path d="M24.1875,60.8594 L20.0469,60.8594 L19.625,61.8906 L20.0469,61.8906 Q20.6563,61.8906 20.9219,62.125 Q21.1875,62.3594 21.1875,62.75 Q21.1875,63.125 20.9219,63.3594 Q20.6563,63.5938 20.0469,63.5938 L17.75,63.5938 Q17.1406,63.5938 16.8906,63.3594 Q16.625,63.125 16.625,62.7344 Q16.625,62.3594 16.9063,62.125 Q17.1719,61.875 17.7969,61.8906 L20.4688,55.2344 L19.3594,55.2344 Q18.75,55.2344 18.4844,55 Q18.2188,54.7656 18.2188,54.375 Q18.2188,54 18.4844,53.7656 Q18.75,53.5313 19.3594,53.5313 L23.0313,53.5313 L26.4219,61.8906 Q27.0156,61.8906 27.2031,62.0313 Q27.5938,62.2969 27.5938,62.75 Q27.5938,63.125 27.3281,63.3594 Q27.0781,63.5938 26.4688,63.5938 L24.1719,63.5938 Q23.5625,63.5938 23.2969,63.3594 Q23.0313,63.125 23.0313,62.7344 Q23.0313,62.3594 23.2969,62.125 Q23.5625,61.8906 24.1719,61.8906 L24.5938,61.8906 L24.1875,60.8594 Z M23.4688,59.1563 L22.1094,55.7813 L20.7344,59.1563 L23.4688,59.1563 Z "/><text fill="#000000" font-family="sans-serif" font-size="14" font-style="italic" lengthAdjust="spacingAndGlyphs" textLength="105" x="40.5" y="58.5332">LeafElementImpl</text><text fill="#000000" font-family="sans-serif" font-size="10" font-style="italic" lengthAdjust="spacingAndGlyphs" textLength="114" x="36" y="71.9902">org.eclipse.epf.uma.impl</text></a><!--MD5=[14a9d93fef895a244aa728780d758e08]
class org.eclipse.epf.uma.Image--><a href="..\Image.html" target="_top" title="..\Image.html" xlink:actuate="onRequest" xlink:href="..\Image.html" xlink:show="new" xlink:title="..\Image.html" xlink:type="simple"><rect codeLine="17" fill="#FEFECE" filter="url(#fofe8cj6znqyb)" height="103.5313" id="org.eclipse.epf.uma.Image" style="stroke: #A80036; stroke-width: 1.5;" width="155" x="188.5" y="7"/><ellipse cx="217.45" cy="27.0938" fill="#B4A7E5" rx="11" ry="11" style="stroke: #A80036; stroke-width: 1.0;"/><path d="M218.4031,23.7344 L218.4031,30.3906 L220.1219,30.3906 Q220.7313,30.3906 220.9969,30.625 Q221.2625,30.8594 221.2625,31.25 Q221.2625,31.625 220.9969,31.8594 Q220.7313,32.0938 220.1219,32.0938 L214.9813,32.0938 Q214.3719,32.0938 214.1063,31.8594 Q213.8406,31.625 213.8406,31.2344 Q213.8406,30.8594 214.1063,30.625 Q214.3719,30.3906 214.9813,30.3906 L216.7,30.3906 L216.7,23.7344 L214.9813,23.7344 Q214.3719,23.7344 214.1063,23.5 Q213.8406,23.2656 213.8406,22.875 Q213.8406,22.5 214.1063,22.2656 Q214.3719,22.0313 214.9813,22.0313 L220.1219,22.0313 Q220.7313,22.0313 220.9969,22.2656 Q221.2625,22.5 221.2625,22.875 Q221.2625,23.2656 220.9969,23.5 Q220.7313,23.7344 220.1219,23.7344 L218.4031,23.7344 Z "/><text fill="#000000" font-family="sans-serif" font-size="14" font-style="italic" lengthAdjust="spacingAndGlyphs" textLength="39" x="261.05" y="26.5332">Image</text><text fill="#000000" font-family="sans-serif" font-size="10" font-style="italic" lengthAdjust="spacingAndGlyphs" textLength="92" x="234.55" y="39.9902">org.eclipse.epf.uma</text><line style="stroke: #A80036; stroke-width: 1.5;" x1="189.5" x2="342.5" y1="47.1875" y2="47.1875"/><ellipse cx="199.5" cy="58.1875" fill="#84BE84" rx="3" ry="3" style="stroke: #038048; stroke-width: 1.0;"/><text fill="#000000" font-family="sans-serif" font-size="11" font-style="italic" lengthAdjust="spacingAndGlyphs" textLength="61" x="208.5" y="62.6064">getUri(): URI</text><ellipse cx="199.5" cy="72.0234" fill="#84BE84" rx="3" ry="3" style="stroke: #038048; stroke-width: 1.0;"/><text fill="#000000" font-family="sans-serif" font-size="11" font-style="italic" lengthAdjust="spacingAndGlyphs" textLength="81" x="208.5" y="76.4424">setUri(URI): void</text><ellipse cx="199.5" cy="85.8594" fill="#84BE84" rx="3" ry="3" style="stroke: #038048; stroke-width: 1.0;"/><text fill="#000000" font-family="sans-serif" font-size="11" font-style="italic" lengthAdjust="spacingAndGlyphs" textLength="109" x="208.5" y="90.2783">getMimeType(): String</text><ellipse cx="199.5" cy="99.6953" fill="#84BE84" rx="3" ry="3" style="stroke: #038048; stroke-width: 1.0;"/><text fill="#000000" font-family="sans-serif" font-size="11" font-style="italic" lengthAdjust="spacingAndGlyphs" textLength="129" x="208.5" y="104.1143">setMimeType(String): void</text></a><!--MD5=[4855a0d933207d4d6f40ee4572743c44]
reverse link org.eclipse.epf.uma.impl.LeafElementImpl to org.eclipse.epf.uma.impl.ImageImpl--><path codeLine="24" d="M98.27,97.22 C108.56,118.2 121.83,145.23 134.32,170.69 " fill="none" id="org.eclipse.epf.uma.impl.LeafElementImpl-backto-org.eclipse.epf.uma.impl.ImageImpl" style="stroke: #A80036; stroke-width: 1.0;"/><polygon fill="none" points="91.96,100.25,89.43,79.21,104.52,94.08,91.96,100.25" style="stroke: #A80036; stroke-width: 1.0;"/><!--MD5=[b994e45fd6c1f6a75e4e8fa44f45ed88]
reverse link org.eclipse.epf.uma.Image to org.eclipse.epf.uma.impl.ImageImpl--><path codeLine="25" d="M231.84,129.6 C225.28,142.98 218.35,157.09 211.65,170.74 " fill="none" id="org.eclipse.epf.uma.Image-backto-org.eclipse.epf.uma.impl.ImageImpl" style="stroke: #A80036; stroke-width: 1.0; stroke-dasharray: 7.0,7.0;"/><polygon fill="none" points="225.74,126.15,240.83,111.28,238.31,132.32,225.74,126.15" style="stroke: #A80036; stroke-width: 1.0;"/><text fill="#888888" font-family="sans-serif" font-size="10" lengthAdjust="spacingAndGlyphs" textLength="190" x="77.25" y="353.2559">UMLDoclet 2.0.12, PlantUML 1.2020.16</text><!--MD5=[91cde871d3be20cca5d695f80f2b7c23]
@startuml
    set namespaceSeparator none
    hide empty fields
    hide empty methods

    class "<size:14>ImageImpl\n<size:10>org.eclipse.epf.uma.impl" as org.eclipse.epf.uma.impl.ImageImpl [[ImageImpl.html]] {
        +getUri(): URI
        +setUri(URI): void
        +getMimeType(): String
        +setMimeType(String): void
        +eGet(int, boolean, boolean): Object
        +eSet(int, Object): void
        +eUnset(int): void
        +eIsSet(int): boolean
    }

    abstract class "<size:14>LeafElementImpl\n<size:10>org.eclipse.epf.uma.impl" as org.eclipse.epf.uma.impl.LeafElementImpl [[LeafElementImpl.html]]
    interface "<size:14>Image\n<size:10>org.eclipse.epf.uma" as org.eclipse.epf.uma.Image [[..\Image.html]] {
        {abstract} +getUri(): URI
        {abstract} +setUri(URI): void
        {abstract} +getMimeType(): String
        {abstract} +setMimeType(String): void
    }

    org.eclipse.epf.uma.impl.LeafElementImpl <|- - org.eclipse.epf.uma.impl.ImageImpl
    org.eclipse.epf.uma.Image <|.. org.eclipse.epf.uma.impl.ImageImpl

    center footer UMLDoclet 2.0.12, PlantUML 1.2020.16
@enduml

PlantUML version 1.2020.16(Sun Aug 23 22:20:43 CEST 2020)
(APACHE source distribution)
Java Runtime: Java(TM) SE Runtime Environment
JVM: Java HotSpot(TM) 64-Bit Server VM
Default Encoding: Cp1252
Language: es
Country: ES
--></g></svg>