<?xml version="1.0" encoding="UTF-8" standalone="no"?><svg xmlns="http://www.w3.org/2000/svg" xmlns:xlink="http://www.w3.org/1999/xlink" contentScriptType="application/ecmascript" contentStyleType="text/css" height="297px" preserveAspectRatio="none" style="width:560px;height:297px;" version="1.1" viewBox="0 0 560 297" width="560px" zoomAndPan="magnify"><defs><filter height="300%" id="f1prvk8twpwg64" width="300%" x="-1" y="-1"><feGaussianBlur result="blurOut" stdDeviation="2.0"/><feColorMatrix in="blurOut" result="blurOut2" type="matrix" values="0 0 0 0 0 0 0 0 0 0 0 0 0 0 0 0 0 0 .4 0"/><feOffset dx="4.0" dy="4.0" in="blurOut2" result="blurOut3"/><feBlend in="SourceGraphic" in2="blurOut3" mode="normal"/></filter></defs><g><!--MD5=[b476266699e836a1e40e84b4933c2e8e]
class org.eclipse.epf.uma.impl.KindImpl--><a href="KindImpl.html" target="_top" title="KindImpl.html" xlink:actuate="onRequest" xlink:href="KindImpl.html" xlink:show="new" xlink:title="KindImpl.html" xlink:type="simple"><rect codeLine="5" fill="#FEFECE" filter="url(#f1prvk8twpwg64)" height="131.2031" id="org.eclipse.epf.uma.impl.KindImpl" style="stroke: #A80036; stroke-width: 1.5;" width="376" x="40.5" y="129"/><ellipse cx="165.25" cy="149.0938" fill="#ADD1B2" rx="11" ry="11" style="stroke: #A80036; stroke-width: 1.0;"/><path d="M168.0156,144.9688 Q168.1719,144.75 168.3594,144.6406 Q168.5469,144.5313 168.7656,144.5313 Q169.1406,144.5313 169.375,144.7969 Q169.6094,145.0469 169.6094,145.6563 L169.6094,147.1094 Q169.6094,147.7188 169.375,147.9844 Q169.1406,148.25 168.7656,148.25 Q168.4219,148.25 168.2188,148.0469 Q168.0156,147.8594 167.9063,147.3438 Q167.8594,146.9844 167.6719,146.7969 Q167.3438,146.4219 166.7344,146.2031 Q166.125,145.9844 165.5,145.9844 Q164.7344,145.9844 164.0938,146.3125 Q163.4688,146.6406 162.9688,147.3906 Q162.4844,148.1406 162.4844,149.1719 L162.4844,150.2656 Q162.4844,151.5 163.375,152.3281 Q164.2656,153.1406 165.8594,153.1406 Q166.7969,153.1406 167.4531,152.8906 Q167.8438,152.7344 168.2656,152.2969 Q168.5313,152.0313 168.6719,151.9531 Q168.8281,151.875 169.0313,151.875 Q169.3594,151.875 169.6094,152.1406 Q169.875,152.3906 169.875,152.7344 Q169.875,153.0781 169.5313,153.4844 Q169.0313,154.0625 168.2344,154.3906 Q167.1563,154.8438 165.8594,154.8438 Q164.3438,154.8438 163.1406,154.2188 Q162.1563,153.7188 161.4688,152.6563 Q160.7813,151.5781 160.7813,150.2969 L160.7813,149.1406 Q160.7813,147.8125 161.3906,146.6719 Q162.0156,145.5156 163.1094,144.9063 Q164.2031,144.2813 165.4375,144.2813 Q166.1719,144.2813 166.8125,144.4531 Q167.4688,144.6094 168.0156,144.9688 Z "/><text fill="#000000" font-family="sans-serif" font-size="14" lengthAdjust="spacingAndGlyphs" textLength="53" x="218.25" y="148.5332">KindImpl</text><text fill="#000000" font-family="sans-serif" font-size="10" lengthAdjust="spacingAndGlyphs" textLength="118" x="185.75" y="161.9902">org.eclipse.epf.uma.impl</text><line style="stroke: #A80036; stroke-width: 1.5;" x1="41.5" x2="415.5" y1="169.1875" y2="169.1875"/><ellipse cx="51.5" cy="180.1875" fill="#84BE84" rx="3" ry="3" style="stroke: #038048; stroke-width: 1.0;"/><text fill="#000000" font-family="sans-serif" font-size="11" lengthAdjust="spacingAndGlyphs" textLength="300" x="60.5" y="184.6064">getApplicableMetaClassInfo(): EList&lt;ApplicableMetaClassInfo&gt;</text><ellipse cx="51.5" cy="194.0234" fill="#84BE84" rx="3" ry="3" style="stroke: #038048; stroke-width: 1.0;"/><text fill="#000000" font-family="sans-serif" font-size="11" lengthAdjust="spacingAndGlyphs" textLength="350" x="60.5" y="198.4424">eInverseRemove(InternalEObject, int, NotificationChain): NotificationChain</text><ellipse cx="51.5" cy="207.8594" fill="#84BE84" rx="3" ry="3" style="stroke: #038048; stroke-width: 1.0;"/><text fill="#000000" font-family="sans-serif" font-size="11" lengthAdjust="spacingAndGlyphs" textLength="167" x="60.5" y="212.2783">eGet(int, boolean, boolean): Object</text><ellipse cx="51.5" cy="221.6953" fill="#84BE84" rx="3" ry="3" style="stroke: #038048; stroke-width: 1.0;"/><text fill="#000000" font-family="sans-serif" font-size="11" lengthAdjust="spacingAndGlyphs" textLength="104" x="60.5" y="226.1143">eSet(int, Object): void</text><ellipse cx="51.5" cy="235.5313" fill="#84BE84" rx="3" ry="3" style="stroke: #038048; stroke-width: 1.0;"/><text fill="#000000" font-family="sans-serif" font-size="11" lengthAdjust="spacingAndGlyphs" textLength="79" x="60.5" y="239.9502">eUnset(int): void</text><ellipse cx="51.5" cy="249.3672" fill="#84BE84" rx="3" ry="3" style="stroke: #038048; stroke-width: 1.0;"/><text fill="#000000" font-family="sans-serif" font-size="11" lengthAdjust="spacingAndGlyphs" textLength="93" x="60.5" y="253.7861">eIsSet(int): boolean</text></a><!--MD5=[756787a8587a7ade10dd365aa5346d02]
class org.eclipse.epf.uma.impl.ContentElementImpl--><a href="ContentElementImpl.html" target="_top" title="ContentElementImpl.html" xlink:actuate="onRequest" xlink:href="ContentElementImpl.html" xlink:show="new" xlink:title="ContentElementImpl.html" xlink:type="simple"><rect codeLine="14" fill="#FEFECE" filter="url(#f1prvk8twpwg64)" height="40.1875" id="org.eclipse.epf.uma.impl.ContentElementImpl" style="stroke: #A80036; stroke-width: 1.5;" width="159" x="7" y="18"/><ellipse cx="22" cy="38.0938" fill="#A9DCDF" rx="11" ry="11" style="stroke: #A80036; stroke-width: 1.0;"/><path d="M24.1875,39.8594 L20.0469,39.8594 L19.625,40.8906 L20.0469,40.8906 Q20.6563,40.8906 20.9219,41.125 Q21.1875,41.3594 21.1875,41.75 Q21.1875,42.125 20.9219,42.3594 Q20.6563,42.5938 20.0469,42.5938 L17.75,42.5938 Q17.1406,42.5938 16.8906,42.3594 Q16.625,42.125 16.625,41.7344 Q16.625,41.3594 16.9063,41.125 Q17.1719,40.875 17.7969,40.8906 L20.4688,34.2344 L19.3594,34.2344 Q18.75,34.2344 18.4844,34 Q18.2188,33.7656 18.2188,33.375 Q18.2188,33 18.4844,32.7656 Q18.75,32.5313 19.3594,32.5313 L23.0313,32.5313 L26.4219,40.8906 Q27.0156,40.8906 27.2031,41.0313 Q27.5938,41.2969 27.5938,41.75 Q27.5938,42.125 27.3281,42.3594 Q27.0781,42.5938 26.4688,42.5938 L24.1719,42.5938 Q23.5625,42.5938 23.2969,42.3594 Q23.0313,42.125 23.0313,41.7344 Q23.0313,41.3594 23.2969,41.125 Q23.5625,40.8906 24.1719,40.8906 L24.5938,40.8906 L24.1875,39.8594 Z M23.4688,38.1563 L22.1094,34.7813 L20.7344,38.1563 L23.4688,38.1563 Z "/><text fill="#000000" font-family="sans-serif" font-size="14" font-style="italic" lengthAdjust="spacingAndGlyphs" textLength="127" x="36" y="37.5332">ContentElementImpl</text><text fill="#000000" font-family="sans-serif" font-size="10" font-style="italic" lengthAdjust="spacingAndGlyphs" textLength="114" x="42.5" y="50.9902">org.eclipse.epf.uma.impl</text></a><!--MD5=[732da4230b49de388fe664054ba70a1a]
class org.eclipse.epf.uma.Kind--><a href="..\Kind.html" target="_top" title="..\Kind.html" xlink:actuate="onRequest" xlink:href="..\Kind.html" xlink:show="new" xlink:title="..\Kind.html" xlink:type="simple"><rect codeLine="15" fill="#FEFECE" filter="url(#f1prvk8twpwg64)" height="62.0234" id="org.eclipse.epf.uma.Kind" style="stroke: #A80036; stroke-width: 1.5;" width="340" x="201.5" y="7"/><ellipse cx="321.25" cy="27.0938" fill="#B4A7E5" rx="11" ry="11" style="stroke: #A80036; stroke-width: 1.0;"/><path d="M322.2031,23.7344 L322.2031,30.3906 L323.9219,30.3906 Q324.5313,30.3906 324.7969,30.625 Q325.0625,30.8594 325.0625,31.25 Q325.0625,31.625 324.7969,31.8594 Q324.5313,32.0938 323.9219,32.0938 L318.7813,32.0938 Q318.1719,32.0938 317.9063,31.8594 Q317.6406,31.625 317.6406,31.2344 Q317.6406,30.8594 317.9063,30.625 Q318.1719,30.3906 318.7813,30.3906 L320.5,30.3906 L320.5,23.7344 L318.7813,23.7344 Q318.1719,23.7344 317.9063,23.5 Q317.6406,23.2656 317.6406,22.875 Q317.6406,22.5 317.9063,22.2656 Q318.1719,22.0313 318.7813,22.0313 L323.9219,22.0313 Q324.5313,22.0313 324.7969,22.2656 Q325.0625,22.5 325.0625,22.875 Q325.0625,23.2656 324.7969,23.5 Q324.5313,23.7344 323.9219,23.7344 L322.2031,23.7344 Z "/><text fill="#000000" font-family="sans-serif" font-size="14" font-style="italic" lengthAdjust="spacingAndGlyphs" textLength="28" x="373.75" y="26.5332">Kind</text><text fill="#000000" font-family="sans-serif" font-size="10" font-style="italic" lengthAdjust="spacingAndGlyphs" textLength="92" x="341.75" y="39.9902">org.eclipse.epf.uma</text><line style="stroke: #A80036; stroke-width: 1.5;" x1="202.5" x2="540.5" y1="47.1875" y2="47.1875"/><ellipse cx="212.5" cy="58.1875" fill="#84BE84" rx="3" ry="3" style="stroke: #038048; stroke-width: 1.0;"/><text fill="#000000" font-family="sans-serif" font-size="11" font-style="italic" lengthAdjust="spacingAndGlyphs" textLength="314" x="221.5" y="62.6064">getApplicableMetaClassInfo(): EList&lt;ApplicableMetaClassInfo&gt;</text></a><!--MD5=[c9a8c621ebf1e90bae8136ce758f8717]
reverse link org.eclipse.epf.uma.impl.ContentElementImpl to org.eclipse.epf.uma.impl.KindImpl--><path codeLine="19" d="M117.9,73.16 C132.92,89.51 151.42,109.64 168.96,128.72 " fill="none" id="org.eclipse.epf.uma.impl.ContentElementImpl-backto-org.eclipse.epf.uma.impl.KindImpl" style="stroke: #A80036; stroke-width: 1.0;"/><polygon fill="none" points="112.58,77.72,104.2,58.26,122.89,68.24,112.58,77.72" style="stroke: #A80036; stroke-width: 1.0;"/><!--MD5=[eb3d595de40f15026e4351300d1b18ec]
reverse link org.eclipse.epf.uma.Kind to org.eclipse.epf.uma.impl.KindImpl--><path codeLine="20" d="M329.74,84.11 C316.78,98.12 302.23,113.84 288.29,128.9 " fill="none" id="org.eclipse.epf.uma.Kind-backto-org.eclipse.epf.uma.impl.KindImpl" style="stroke: #A80036; stroke-width: 1.0; stroke-dasharray: 7.0,7.0;"/><polygon fill="none" points="324.87,79.08,343.59,69.16,335.14,88.59,324.87,79.08" style="stroke: #A80036; stroke-width: 1.0;"/><text fill="#888888" font-family="sans-serif" font-size="10" lengthAdjust="spacingAndGlyphs" textLength="190" x="176.25" y="283.584">UMLDoclet 2.0.12, PlantUML 1.2020.16</text><!--MD5=[eeb064908a69e3c7bb3369d50071a70d]
@startuml
    set namespaceSeparator none
    hide empty fields
    hide empty methods

    class "<size:14>KindImpl\n<size:10>org.eclipse.epf.uma.impl" as org.eclipse.epf.uma.impl.KindImpl [[KindImpl.html]] {
        +getApplicableMetaClassInfo(): EList<ApplicableMetaClassInfo>
        +eInverseRemove(InternalEObject, int, NotificationChain): NotificationChain
        +eGet(int, boolean, boolean): Object
        +eSet(int, Object): void
        +eUnset(int): void
        +eIsSet(int): boolean
    }

    abstract class "<size:14>ContentElementImpl\n<size:10>org.eclipse.epf.uma.impl" as org.eclipse.epf.uma.impl.ContentElementImpl [[ContentElementImpl.html]]
    interface "<size:14>Kind\n<size:10>org.eclipse.epf.uma" as org.eclipse.epf.uma.Kind [[..\Kind.html]] {
        {abstract} +getApplicableMetaClassInfo(): EList<ApplicableMetaClassInfo>
    }

    org.eclipse.epf.uma.impl.ContentElementImpl <|- - org.eclipse.epf.uma.impl.KindImpl
    org.eclipse.epf.uma.Kind <|.. org.eclipse.epf.uma.impl.KindImpl

    center footer UMLDoclet 2.0.12, PlantUML 1.2020.16
@enduml

PlantUML version 1.2020.16(Sun Aug 23 22:20:43 CEST 2020)
(APACHE source distribution)
Java Runtime: Java(TM) SE Runtime Environment
JVM: Java HotSpot(TM) 64-Bit Server VM
Default Encoding: Cp1252
Language: es
Country: ES
--></g></svg>