<?xml version="1.0" encoding="UTF-8" standalone="no"?><svg xmlns="http://www.w3.org/2000/svg" xmlns:xlink="http://www.w3.org/1999/xlink" contentScriptType="application/ecmascript" contentStyleType="text/css" height="184px" preserveAspectRatio="none" style="width:347px;height:184px;" version="1.1" viewBox="0 0 347 184" width="347px" zoomAndPan="magnify"><defs><filter height="300%" id="f11yd2c8tqczj2" width="300%" x="-1" y="-1"><feGaussianBlur result="blurOut" stdDeviation="2.0"/><feColorMatrix in="blurOut" result="blurOut2" type="matrix" values="0 0 0 0 0 0 0 0 0 0 0 0 0 0 0 0 0 0 .4 0"/><feOffset dx="4.0" dy="4.0" in="blurOut2" result="blurOut3"/><feBlend in="SourceGraphic" in2="blurOut3" mode="normal"/></filter></defs><g><!--MD5=[fbda6fcf825bda8f9fd0add40a433a7c]
class org.eclipse.epf.uma.impl.LeafElementImpl--><a href="LeafElementImpl.html" target="_top" title="LeafElementImpl.html" xlink:actuate="onRequest" xlink:href="LeafElementImpl.html" xlink:show="new" xlink:title="LeafElementImpl.html" xlink:type="simple"><rect codeLine="5" fill="#FEFECE" filter="url(#f11yd2c8tqczj2)" height="40.1875" id="org.eclipse.epf.uma.impl.LeafElementImpl" style="stroke: #A80036; stroke-width: 1.5;" width="146" x="104" y="107"/><ellipse cx="119" cy="127.0938" fill="#A9DCDF" rx="11" ry="11" style="stroke: #A80036; stroke-width: 1.0;"/><path d="M121.1875,128.8594 L117.0469,128.8594 L116.625,129.8906 L117.0469,129.8906 Q117.6563,129.8906 117.9219,130.125 Q118.1875,130.3594 118.1875,130.75 Q118.1875,131.125 117.9219,131.3594 Q117.6563,131.5938 117.0469,131.5938 L114.75,131.5938 Q114.1406,131.5938 113.8906,131.3594 Q113.625,131.125 113.625,130.7344 Q113.625,130.3594 113.9063,130.125 Q114.1719,129.875 114.7969,129.8906 L117.4688,123.2344 L116.3594,123.2344 Q115.75,123.2344 115.4844,123 Q115.2188,122.7656 115.2188,122.375 Q115.2188,122 115.4844,121.7656 Q115.75,121.5313 116.3594,121.5313 L120.0313,121.5313 L123.4219,129.8906 Q124.0156,129.8906 124.2031,130.0313 Q124.5938,130.2969 124.5938,130.75 Q124.5938,131.125 124.3281,131.3594 Q124.0781,131.5938 123.4688,131.5938 L121.1719,131.5938 Q120.5625,131.5938 120.2969,131.3594 Q120.0313,131.125 120.0313,130.7344 Q120.0313,130.3594 120.2969,130.125 Q120.5625,129.8906 121.1719,129.8906 L121.5938,129.8906 L121.1875,128.8594 Z M120.4688,127.1563 L119.1094,123.7813 L117.7344,127.1563 L120.4688,127.1563 Z "/><text fill="#000000" font-family="sans-serif" font-size="14" font-style="italic" lengthAdjust="spacingAndGlyphs" textLength="105" x="137.5" y="126.5332">LeafElementImpl</text><text fill="#000000" font-family="sans-serif" font-size="10" font-style="italic" lengthAdjust="spacingAndGlyphs" textLength="114" x="133" y="139.9902">org.eclipse.epf.uma.impl</text></a><!--MD5=[1c2b459c5c50809e62270736e90e6bdc]
class org.eclipse.epf.uma.impl.DiagramElementImpl--><a href="DiagramElementImpl.html" target="_top" title="DiagramElementImpl.html" xlink:actuate="onRequest" xlink:href="DiagramElementImpl.html" xlink:show="new" xlink:title="DiagramElementImpl.html" xlink:type="simple"><rect codeLine="8" fill="#FEFECE" filter="url(#f11yd2c8tqczj2)" height="40.1875" id="org.eclipse.epf.uma.impl.DiagramElementImpl" style="stroke: #A80036; stroke-width: 1.5;" width="162" x="7" y="7"/><ellipse cx="22" cy="27.0938" fill="#A9DCDF" rx="11" ry="11" style="stroke: #A80036; stroke-width: 1.0;"/><path d="M24.1875,28.8594 L20.0469,28.8594 L19.625,29.8906 L20.0469,29.8906 Q20.6563,29.8906 20.9219,30.125 Q21.1875,30.3594 21.1875,30.75 Q21.1875,31.125 20.9219,31.3594 Q20.6563,31.5938 20.0469,31.5938 L17.75,31.5938 Q17.1406,31.5938 16.8906,31.3594 Q16.625,31.125 16.625,30.7344 Q16.625,30.3594 16.9063,30.125 Q17.1719,29.875 17.7969,29.8906 L20.4688,23.2344 L19.3594,23.2344 Q18.75,23.2344 18.4844,23 Q18.2188,22.7656 18.2188,22.375 Q18.2188,22 18.4844,21.7656 Q18.75,21.5313 19.3594,21.5313 L23.0313,21.5313 L26.4219,29.8906 Q27.0156,29.8906 27.2031,30.0313 Q27.5938,30.2969 27.5938,30.75 Q27.5938,31.125 27.3281,31.3594 Q27.0781,31.5938 26.4688,31.5938 L24.1719,31.5938 Q23.5625,31.5938 23.2969,31.3594 Q23.0313,31.125 23.0313,30.7344 Q23.0313,30.3594 23.2969,30.125 Q23.5625,29.8906 24.1719,29.8906 L24.5938,29.8906 L24.1875,28.8594 Z M23.4688,27.1563 L22.1094,23.7813 L20.7344,27.1563 L23.4688,27.1563 Z "/><text fill="#000000" font-family="sans-serif" font-size="14" font-style="italic" lengthAdjust="spacingAndGlyphs" textLength="130" x="36" y="26.5332">DiagramElementImpl</text><text fill="#000000" font-family="sans-serif" font-size="10" font-style="italic" lengthAdjust="spacingAndGlyphs" textLength="114" x="44" y="39.9902">org.eclipse.epf.uma.impl</text></a><!--MD5=[015d6b31077a86d4f1c0754ba1b9f51a]
class org.eclipse.epf.uma.LeafElement--><a href="..\LeafElement.html" target="_top" title="..\LeafElement.html" xlink:actuate="onRequest" xlink:href="..\LeafElement.html" xlink:show="new" xlink:title="..\LeafElement.html" xlink:type="simple"><rect codeLine="9" fill="#FEFECE" filter="url(#f11yd2c8tqczj2)" height="40.1875" id="org.eclipse.epf.uma.LeafElement" style="stroke: #A80036; stroke-width: 1.5;" width="124" x="204" y="7"/><ellipse cx="219" cy="27.0938" fill="#B4A7E5" rx="11" ry="11" style="stroke: #A80036; stroke-width: 1.0;"/><path d="M219.9531,23.7344 L219.9531,30.3906 L221.6719,30.3906 Q222.2813,30.3906 222.5469,30.625 Q222.8125,30.8594 222.8125,31.25 Q222.8125,31.625 222.5469,31.8594 Q222.2813,32.0938 221.6719,32.0938 L216.5313,32.0938 Q215.9219,32.0938 215.6563,31.8594 Q215.3906,31.625 215.3906,31.2344 Q215.3906,30.8594 215.6563,30.625 Q215.9219,30.3906 216.5313,30.3906 L218.25,30.3906 L218.25,23.7344 L216.5313,23.7344 Q215.9219,23.7344 215.6563,23.5 Q215.3906,23.2656 215.3906,22.875 Q215.3906,22.5 215.6563,22.2656 Q215.9219,22.0313 216.5313,22.0313 L221.6719,22.0313 Q222.2813,22.0313 222.5469,22.2656 Q222.8125,22.5 222.8125,22.875 Q222.8125,23.2656 222.5469,23.5 Q222.2813,23.7344 221.6719,23.7344 L219.9531,23.7344 Z "/><text fill="#000000" font-family="sans-serif" font-size="14" font-style="italic" lengthAdjust="spacingAndGlyphs" textLength="79" x="239.5" y="26.5332">LeafElement</text><text fill="#000000" font-family="sans-serif" font-size="10" font-style="italic" lengthAdjust="spacingAndGlyphs" textLength="92" x="233" y="39.9902">org.eclipse.epf.uma</text></a><!--MD5=[6b341f5ec592215b812819f0baf46ff1]
reverse link org.eclipse.epf.uma.impl.DiagramElementImpl to org.eclipse.epf.uma.impl.LeafElementImpl--><path codeLine="11" d="M119.25,62.41 C132.73,77.26 148,94.07 159.45,106.68 " fill="none" id="org.eclipse.epf.uma.impl.DiagramElementImpl-backto-org.eclipse.epf.uma.impl.LeafElementImpl" style="stroke: #A80036; stroke-width: 1.0;"/><polygon fill="none" points="113.85,66.87,105.58,47.36,124.21,57.46,113.85,66.87" style="stroke: #A80036; stroke-width: 1.0;"/><!--MD5=[8e8a2dc9438d11a9116f0cb03f6321f5]
reverse link org.eclipse.epf.uma.LeafElement to org.eclipse.epf.uma.impl.LeafElementImpl--><path codeLine="12" d="M234.75,62.41 C221.27,77.26 206,94.07 194.55,106.68 " fill="none" id="org.eclipse.epf.uma.LeafElement-backto-org.eclipse.epf.uma.impl.LeafElementImpl" style="stroke: #A80036; stroke-width: 1.0; stroke-dasharray: 7.0,7.0;"/><polygon fill="none" points="229.79,57.46,248.42,47.36,240.15,66.87,229.79,57.46" style="stroke: #A80036; stroke-width: 1.0;"/><text fill="#888888" font-family="sans-serif" font-size="10" lengthAdjust="spacingAndGlyphs" textLength="190" x="69.5" y="170.5684">UMLDoclet 2.0.12, PlantUML 1.2020.16</text><!--MD5=[216b17bb5697da50d20a8b0b45ba6ab8]
@startuml
    set namespaceSeparator none
    hide empty fields
    hide empty methods

    abstract class "<size:14>LeafElementImpl\n<size:10>org.eclipse.epf.uma.impl" as org.eclipse.epf.uma.impl.LeafElementImpl [[LeafElementImpl.html]] {
    }

    abstract class "<size:14>DiagramElementImpl\n<size:10>org.eclipse.epf.uma.impl" as org.eclipse.epf.uma.impl.DiagramElementImpl [[DiagramElementImpl.html]]
    interface "<size:14>LeafElement\n<size:10>org.eclipse.epf.uma" as org.eclipse.epf.uma.LeafElement [[..\LeafElement.html]]

    org.eclipse.epf.uma.impl.DiagramElementImpl <|- - org.eclipse.epf.uma.impl.LeafElementImpl
    org.eclipse.epf.uma.LeafElement <|.. org.eclipse.epf.uma.impl.LeafElementImpl

    center footer UMLDoclet 2.0.12, PlantUML 1.2020.16
@enduml

PlantUML version 1.2020.16(Sun Aug 23 22:20:43 CEST 2020)
(APACHE source distribution)
Java Runtime: Java(TM) SE Runtime Environment
JVM: Java HotSpot(TM) 64-Bit Server VM
Default Encoding: Cp1252
Language: es
Country: ES
--></g></svg>