<?xml version="1.0" encoding="UTF-8" standalone="no"?><svg xmlns="http://www.w3.org/2000/svg" xmlns:xlink="http://www.w3.org/1999/xlink" contentScriptType="application/ecmascript" contentStyleType="text/css" height="435px" preserveAspectRatio="none" style="width:463px;height:435px;" version="1.1" viewBox="0 0 463 435" width="463px" zoomAndPan="magnify"><defs><filter height="300%" id="fys1l0i6l731a" width="300%" x="-1" y="-1"><feGaussianBlur result="blurOut" stdDeviation="2.0"/><feColorMatrix in="blurOut" result="blurOut2" type="matrix" values="0 0 0 0 0 0 0 0 0 0 0 0 0 0 0 0 0 0 .4 0"/><feOffset dx="4.0" dy="4.0" in="blurOut2" result="blurOut3"/><feBlend in="SourceGraphic" in2="blurOut3" mode="normal"/></filter></defs><g><!--MD5=[252d42cbef8057cdb5023f10b2e91450]
class org.eclipse.epf.uma.impl.MethodPluginImpl--><a href="MethodPluginImpl.html" target="_top" title="MethodPluginImpl.html" xlink:actuate="onRequest" xlink:href="MethodPluginImpl.html" xlink:show="new" xlink:title="MethodPluginImpl.html" xlink:type="simple"><rect codeLine="5" fill="#FEFECE" filter="url(#fys1l0i6l731a)" height="200.3828" id="org.eclipse.epf.uma.impl.MethodPluginImpl" style="stroke: #A80036; stroke-width: 1.5;" width="376" x="10" y="198"/><ellipse cx="134.75" cy="218.0938" fill="#ADD1B2" rx="11" ry="11" style="stroke: #A80036; stroke-width: 1.0;"/><path d="M137.5156,213.9688 Q137.6719,213.75 137.8594,213.6406 Q138.0469,213.5313 138.2656,213.5313 Q138.6406,213.5313 138.875,213.7969 Q139.1094,214.0469 139.1094,214.6563 L139.1094,216.1094 Q139.1094,216.7188 138.875,216.9844 Q138.6406,217.25 138.2656,217.25 Q137.9219,217.25 137.7188,217.0469 Q137.5156,216.8594 137.4063,216.3438 Q137.3594,215.9844 137.1719,215.7969 Q136.8438,215.4219 136.2344,215.2031 Q135.625,214.9844 135,214.9844 Q134.2344,214.9844 133.5938,215.3125 Q132.9688,215.6406 132.4688,216.3906 Q131.9844,217.1406 131.9844,218.1719 L131.9844,219.2656 Q131.9844,220.5 132.875,221.3281 Q133.7656,222.1406 135.3594,222.1406 Q136.2969,222.1406 136.9531,221.8906 Q137.3438,221.7344 137.7656,221.2969 Q138.0313,221.0313 138.1719,220.9531 Q138.3281,220.875 138.5313,220.875 Q138.8594,220.875 139.1094,221.1406 Q139.375,221.3906 139.375,221.7344 Q139.375,222.0781 139.0313,222.4844 Q138.5313,223.0625 137.7344,223.3906 Q136.6563,223.8438 135.3594,223.8438 Q133.8438,223.8438 132.6406,223.2188 Q131.6563,222.7188 130.9688,221.6563 Q130.2813,220.5781 130.2813,219.2969 L130.2813,218.1406 Q130.2813,216.8125 130.8906,215.6719 Q131.5156,214.5156 132.6094,213.9063 Q133.7031,213.2813 134.9375,213.2813 Q135.6719,213.2813 136.3125,213.4531 Q136.9688,213.6094 137.5156,213.9688 Z "/><text fill="#000000" font-family="sans-serif" font-size="14" lengthAdjust="spacingAndGlyphs" textLength="111" x="158.75" y="217.5332">MethodPluginImpl</text><text fill="#000000" font-family="sans-serif" font-size="10" lengthAdjust="spacingAndGlyphs" textLength="118" x="155.25" y="230.9902">org.eclipse.epf.uma.impl</text><line style="stroke: #A80036; stroke-width: 1.5;" x1="11" x2="385" y1="238.1875" y2="238.1875"/><ellipse cx="21" cy="249.1875" fill="#84BE84" rx="3" ry="3" style="stroke: #038048; stroke-width: 1.0;"/><text fill="#000000" font-family="sans-serif" font-size="11" lengthAdjust="spacingAndGlyphs" textLength="148" x="30" y="253.6064">getUserChangeable(): Boolean</text><ellipse cx="21" cy="263.0234" fill="#84BE84" rx="3" ry="3" style="stroke: #038048; stroke-width: 1.0;"/><text fill="#000000" font-family="sans-serif" font-size="11" lengthAdjust="spacingAndGlyphs" textLength="168" x="30" y="267.4424">setUserChangeable(Boolean): void</text><ellipse cx="21" cy="276.8594" fill="#84BE84" rx="3" ry="3" style="stroke: #038048; stroke-width: 1.0;"/><text fill="#000000" font-family="sans-serif" font-size="11" lengthAdjust="spacingAndGlyphs" textLength="222" x="30" y="281.2783">getMethodPackages(): EList&lt;MethodPackage&gt;</text><ellipse cx="21" cy="290.6953" fill="#84BE84" rx="3" ry="3" style="stroke: #038048; stroke-width: 1.0;"/><text fill="#000000" font-family="sans-serif" font-size="11" lengthAdjust="spacingAndGlyphs" textLength="158" x="30" y="295.1143">getBases(): EList&lt;MethodPlugin&gt;</text><ellipse cx="21" cy="304.5313" fill="#84BE84" rx="3" ry="3" style="stroke: #038048; stroke-width: 1.0;"/><text fill="#000000" font-family="sans-serif" font-size="11" lengthAdjust="spacingAndGlyphs" textLength="112" x="30" y="308.9502">isSupporting(): boolean</text><ellipse cx="21" cy="318.3672" fill="#84BE84" rx="3" ry="3" style="stroke: #038048; stroke-width: 1.0;"/><text fill="#000000" font-family="sans-serif" font-size="11" lengthAdjust="spacingAndGlyphs" textLength="139" x="30" y="322.7861">setSupporting(boolean): void</text><ellipse cx="21" cy="332.2031" fill="#84BE84" rx="3" ry="3" style="stroke: #038048; stroke-width: 1.0;"/><text fill="#000000" font-family="sans-serif" font-size="11" lengthAdjust="spacingAndGlyphs" textLength="350" x="30" y="336.6221">eInverseRemove(InternalEObject, int, NotificationChain): NotificationChain</text><ellipse cx="21" cy="346.0391" fill="#84BE84" rx="3" ry="3" style="stroke: #038048; stroke-width: 1.0;"/><text fill="#000000" font-family="sans-serif" font-size="11" lengthAdjust="spacingAndGlyphs" textLength="167" x="30" y="350.458">eGet(int, boolean, boolean): Object</text><ellipse cx="21" cy="359.875" fill="#84BE84" rx="3" ry="3" style="stroke: #038048; stroke-width: 1.0;"/><text fill="#000000" font-family="sans-serif" font-size="11" lengthAdjust="spacingAndGlyphs" textLength="104" x="30" y="364.2939">eSet(int, Object): void</text><ellipse cx="21" cy="373.7109" fill="#84BE84" rx="3" ry="3" style="stroke: #038048; stroke-width: 1.0;"/><text fill="#000000" font-family="sans-serif" font-size="11" lengthAdjust="spacingAndGlyphs" textLength="79" x="30" y="378.1299">eUnset(int): void</text><ellipse cx="21" cy="387.5469" fill="#84BE84" rx="3" ry="3" style="stroke: #038048; stroke-width: 1.0;"/><text fill="#000000" font-family="sans-serif" font-size="11" lengthAdjust="spacingAndGlyphs" textLength="93" x="30" y="391.9658">eIsSet(int): boolean</text></a><!--MD5=[f97d49f6c3ffecc979ac870a0fb34e54]
class org.eclipse.epf.uma.impl.MethodUnitImpl--><a href="MethodUnitImpl.html" target="_top" title="MethodUnitImpl.html" xlink:actuate="onRequest" xlink:href="MethodUnitImpl.html" xlink:show="new" xlink:title="MethodUnitImpl.html" xlink:type="simple"><rect codeLine="19" fill="#FEFECE" filter="url(#fys1l0i6l731a)" height="40.1875" id="org.eclipse.epf.uma.impl.MethodUnitImpl" style="stroke: #A80036; stroke-width: 1.5;" width="146" x="7" y="52.5"/><ellipse cx="22" cy="72.5938" fill="#A9DCDF" rx="11" ry="11" style="stroke: #A80036; stroke-width: 1.0;"/><path d="M24.1875,74.3594 L20.0469,74.3594 L19.625,75.3906 L20.0469,75.3906 Q20.6563,75.3906 20.9219,75.625 Q21.1875,75.8594 21.1875,76.25 Q21.1875,76.625 20.9219,76.8594 Q20.6563,77.0938 20.0469,77.0938 L17.75,77.0938 Q17.1406,77.0938 16.8906,76.8594 Q16.625,76.625 16.625,76.2344 Q16.625,75.8594 16.9063,75.625 Q17.1719,75.375 17.7969,75.3906 L20.4688,68.7344 L19.3594,68.7344 Q18.75,68.7344 18.4844,68.5 Q18.2188,68.2656 18.2188,67.875 Q18.2188,67.5 18.4844,67.2656 Q18.75,67.0313 19.3594,67.0313 L23.0313,67.0313 L26.4219,75.3906 Q27.0156,75.3906 27.2031,75.5313 Q27.5938,75.7969 27.5938,76.25 Q27.5938,76.625 27.3281,76.8594 Q27.0781,77.0938 26.4688,77.0938 L24.1719,77.0938 Q23.5625,77.0938 23.2969,76.8594 Q23.0313,76.625 23.0313,76.2344 Q23.0313,75.8594 23.2969,75.625 Q23.5625,75.3906 24.1719,75.3906 L24.5938,75.3906 L24.1875,74.3594 Z M23.4688,72.6563 L22.1094,69.2813 L20.7344,72.6563 L23.4688,72.6563 Z "/><text fill="#000000" font-family="sans-serif" font-size="14" font-style="italic" lengthAdjust="spacingAndGlyphs" textLength="99" x="43.5" y="72.0332">MethodUnitImpl</text><text fill="#000000" font-family="sans-serif" font-size="10" font-style="italic" lengthAdjust="spacingAndGlyphs" textLength="114" x="36" y="85.4902">org.eclipse.epf.uma.impl</text></a><!--MD5=[19a5ce4ea920bb29eda198ea39c08d0a]
class org.eclipse.epf.uma.MethodPlugin--><a href="..\MethodPlugin.html" target="_top" title="..\MethodPlugin.html" xlink:actuate="onRequest" xlink:href="..\MethodPlugin.html" xlink:show="new" xlink:title="..\MethodPlugin.html" xlink:type="simple"><rect codeLine="20" fill="#FEFECE" filter="url(#fys1l0i6l731a)" height="131.2031" id="org.eclipse.epf.uma.MethodPlugin" style="stroke: #A80036; stroke-width: 1.5;" width="256" x="188" y="7"/><ellipse cx="265.75" cy="27.0938" fill="#B4A7E5" rx="11" ry="11" style="stroke: #A80036; stroke-width: 1.0;"/><path d="M266.7031,23.7344 L266.7031,30.3906 L268.4219,30.3906 Q269.0313,30.3906 269.2969,30.625 Q269.5625,30.8594 269.5625,31.25 Q269.5625,31.625 269.2969,31.8594 Q269.0313,32.0938 268.4219,32.0938 L263.2813,32.0938 Q262.6719,32.0938 262.4063,31.8594 Q262.1406,31.625 262.1406,31.2344 Q262.1406,30.8594 262.4063,30.625 Q262.6719,30.3906 263.2813,30.3906 L265,30.3906 L265,23.7344 L263.2813,23.7344 Q262.6719,23.7344 262.4063,23.5 Q262.1406,23.2656 262.1406,22.875 Q262.1406,22.5 262.4063,22.2656 Q262.6719,22.0313 263.2813,22.0313 L268.4219,22.0313 Q269.0313,22.0313 269.2969,22.2656 Q269.5625,22.5 269.5625,22.875 Q269.5625,23.2656 269.2969,23.5 Q269.0313,23.7344 268.4219,23.7344 L266.7031,23.7344 Z "/><text fill="#000000" font-family="sans-serif" font-size="14" font-style="italic" lengthAdjust="spacingAndGlyphs" textLength="87" x="288.75" y="26.5332">MethodPlugin</text><text fill="#000000" font-family="sans-serif" font-size="10" font-style="italic" lengthAdjust="spacingAndGlyphs" textLength="92" x="286.25" y="39.9902">org.eclipse.epf.uma</text><line style="stroke: #A80036; stroke-width: 1.5;" x1="189" x2="443" y1="47.1875" y2="47.1875"/><ellipse cx="199" cy="58.1875" fill="#84BE84" rx="3" ry="3" style="stroke: #038048; stroke-width: 1.0;"/><text fill="#000000" font-family="sans-serif" font-size="11" font-style="italic" lengthAdjust="spacingAndGlyphs" textLength="152" x="208" y="62.6064">getUserChangeable(): Boolean</text><ellipse cx="199" cy="72.0234" fill="#84BE84" rx="3" ry="3" style="stroke: #038048; stroke-width: 1.0;"/><text fill="#000000" font-family="sans-serif" font-size="11" font-style="italic" lengthAdjust="spacingAndGlyphs" textLength="172" x="208" y="76.4424">setUserChangeable(Boolean): void</text><ellipse cx="199" cy="85.8594" fill="#84BE84" rx="3" ry="3" style="stroke: #038048; stroke-width: 1.0;"/><text fill="#000000" font-family="sans-serif" font-size="11" font-style="italic" lengthAdjust="spacingAndGlyphs" textLength="230" x="208" y="90.2783">getMethodPackages(): EList&lt;MethodPackage&gt;</text><ellipse cx="199" cy="99.6953" fill="#84BE84" rx="3" ry="3" style="stroke: #038048; stroke-width: 1.0;"/><text fill="#000000" font-family="sans-serif" font-size="11" font-style="italic" lengthAdjust="spacingAndGlyphs" textLength="164" x="208" y="104.1143">getBases(): EList&lt;MethodPlugin&gt;</text><ellipse cx="199" cy="113.5313" fill="#84BE84" rx="3" ry="3" style="stroke: #038048; stroke-width: 1.0;"/><text fill="#000000" font-family="sans-serif" font-size="11" font-style="italic" lengthAdjust="spacingAndGlyphs" textLength="116" x="208" y="117.9502">isSupporting(): boolean</text><ellipse cx="199" cy="127.3672" fill="#84BE84" rx="3" ry="3" style="stroke: #038048; stroke-width: 1.0;"/><text fill="#000000" font-family="sans-serif" font-size="11" font-style="italic" lengthAdjust="spacingAndGlyphs" textLength="142" x="208" y="131.7861">setSupporting(boolean): void</text></a><!--MD5=[a3bf5158e4df21db9f48efce96196fce]
reverse link org.eclipse.epf.uma.impl.MethodUnitImpl to org.eclipse.epf.uma.impl.MethodPluginImpl--><path codeLine="29" d="M99.51,110.46 C112.15,134.4 129.26,166.81 145.67,197.89 " fill="none" id="org.eclipse.epf.uma.impl.MethodUnitImpl-backto-org.eclipse.epf.uma.impl.MethodPluginImpl" style="stroke: #A80036; stroke-width: 1.0;"/><polygon fill="none" points="93.21,113.51,90.06,92.56,105.59,106.97,93.21,113.51" style="stroke: #A80036; stroke-width: 1.0;"/><!--MD5=[fde6ba8b450b439bbc0f60b60493be8f]
reverse link org.eclipse.epf.uma.MethodPlugin to org.eclipse.epf.uma.impl.MethodPluginImpl--><path codeLine="30" d="M272.33,156.22 C265.15,169.81 257.65,184.02 250.29,197.97 " fill="none" id="org.eclipse.epf.uma.MethodPlugin-backto-org.eclipse.epf.uma.impl.MethodPluginImpl" style="stroke: #A80036; stroke-width: 1.0; stroke-dasharray: 7.0,7.0;"/><polygon fill="none" points="266.34,152.56,281.87,138.15,278.72,159.1,266.34,152.56" style="stroke: #A80036; stroke-width: 1.0;"/><text fill="#888888" font-family="sans-serif" font-size="10" lengthAdjust="spacingAndGlyphs" textLength="190" x="127.5" y="421.7637">UMLDoclet 2.0.12, PlantUML 1.2020.16</text><!--MD5=[80fe80052501eaaf117707b175f3bc14]
@startuml
    set namespaceSeparator none
    hide empty fields
    hide empty methods

    class "<size:14>MethodPluginImpl\n<size:10>org.eclipse.epf.uma.impl" as org.eclipse.epf.uma.impl.MethodPluginImpl [[MethodPluginImpl.html]] {
        +getUserChangeable(): Boolean
        +setUserChangeable(Boolean): void
        +getMethodPackages(): EList<MethodPackage>
        +getBases(): EList<MethodPlugin>
        +isSupporting(): boolean
        +setSupporting(boolean): void
        +eInverseRemove(InternalEObject, int, NotificationChain): NotificationChain
        +eGet(int, boolean, boolean): Object
        +eSet(int, Object): void
        +eUnset(int): void
        +eIsSet(int): boolean
    }

    abstract class "<size:14>MethodUnitImpl\n<size:10>org.eclipse.epf.uma.impl" as org.eclipse.epf.uma.impl.MethodUnitImpl [[MethodUnitImpl.html]]
    interface "<size:14>MethodPlugin\n<size:10>org.eclipse.epf.uma" as org.eclipse.epf.uma.MethodPlugin [[..\MethodPlugin.html]] {
        {abstract} +getUserChangeable(): Boolean
        {abstract} +setUserChangeable(Boolean): void
        {abstract} +getMethodPackages(): EList<MethodPackage>
        {abstract} +getBases(): EList<MethodPlugin>
        {abstract} +isSupporting(): boolean
        {abstract} +setSupporting(boolean): void
    }

    org.eclipse.epf.uma.impl.MethodUnitImpl <|- - org.eclipse.epf.uma.impl.MethodPluginImpl
    org.eclipse.epf.uma.MethodPlugin <|.. org.eclipse.epf.uma.impl.MethodPluginImpl

    center footer UMLDoclet 2.0.12, PlantUML 1.2020.16
@enduml

PlantUML version 1.2020.16(Sun Aug 23 22:20:43 CEST 2020)
(APACHE source distribution)
Java Runtime: Java(TM) SE Runtime Environment
JVM: Java HotSpot(TM) 64-Bit Server VM
Default Encoding: Cp1252
Language: es
Country: ES
--></g></svg>