<?xml version="1.0" encoding="UTF-8" standalone="no"?><svg xmlns="http://www.w3.org/2000/svg" xmlns:xlink="http://www.w3.org/1999/xlink" contentScriptType="application/ecmascript" contentStyleType="text/css" height="380px" preserveAspectRatio="none" style="width:476px;height:380px;" version="1.1" viewBox="0 0 476 380" width="476px" zoomAndPan="magnify"><defs><filter height="300%" id="f1n6b7o885m8z9" width="300%" x="-1" y="-1"><feGaussianBlur result="blurOut" stdDeviation="2.0"/><feColorMatrix in="blurOut" result="blurOut2" type="matrix" values="0 0 0 0 0 0 0 0 0 0 0 0 0 0 0 0 0 0 .4 0"/><feOffset dx="4.0" dy="4.0" in="blurOut2" result="blurOut3"/><feBlend in="SourceGraphic" in2="blurOut3" mode="normal"/></filter></defs><g><!--MD5=[b9790bee1642cafe6d19150b67b64b93]
class org.eclipse.epf.uma.impl.MethodPackageImpl--><a href="MethodPackageImpl.html" target="_top" title="MethodPackageImpl.html" xlink:actuate="onRequest" xlink:href="MethodPackageImpl.html" xlink:show="new" xlink:title="MethodPackageImpl.html" xlink:type="simple"><rect codeLine="5" fill="#FEFECE" filter="url(#f1n6b7o885m8z9)" height="172.7109" id="org.eclipse.epf.uma.impl.MethodPackageImpl" style="stroke: #A80036; stroke-width: 1.5;" width="376" x="18.5" y="171"/><ellipse cx="137.25" cy="191.0938" fill="#A9DCDF" rx="11" ry="11" style="stroke: #A80036; stroke-width: 1.0;"/><path d="M139.4375,192.8594 L135.2969,192.8594 L134.875,193.8906 L135.2969,193.8906 Q135.9063,193.8906 136.1719,194.125 Q136.4375,194.3594 136.4375,194.75 Q136.4375,195.125 136.1719,195.3594 Q135.9063,195.5938 135.2969,195.5938 L133,195.5938 Q132.3906,195.5938 132.1406,195.3594 Q131.875,195.125 131.875,194.7344 Q131.875,194.3594 132.1563,194.125 Q132.4219,193.875 133.0469,193.8906 L135.7188,187.2344 L134.6094,187.2344 Q134,187.2344 133.7344,187 Q133.4688,186.7656 133.4688,186.375 Q133.4688,186 133.7344,185.7656 Q134,185.5313 134.6094,185.5313 L138.2813,185.5313 L141.6719,193.8906 Q142.2656,193.8906 142.4531,194.0313 Q142.8438,194.2969 142.8438,194.75 Q142.8438,195.125 142.5781,195.3594 Q142.3281,195.5938 141.7188,195.5938 L139.4219,195.5938 Q138.8125,195.5938 138.5469,195.3594 Q138.2813,195.125 138.2813,194.7344 Q138.2813,194.3594 138.5469,194.125 Q138.8125,193.8906 139.4219,193.8906 L139.8438,193.8906 L139.4375,192.8594 Z M138.7188,191.1563 L137.3594,187.7813 L135.9844,191.1563 L138.7188,191.1563 Z "/><text fill="#000000" font-family="sans-serif" font-size="14" font-style="italic" lengthAdjust="spacingAndGlyphs" textLength="130" x="157.75" y="190.5332">MethodPackageImpl</text><text fill="#000000" font-family="sans-serif" font-size="10" font-style="italic" lengthAdjust="spacingAndGlyphs" textLength="114" x="165.75" y="203.9902">org.eclipse.epf.uma.impl</text><line style="stroke: #A80036; stroke-width: 1.5;" x1="19.5" x2="393.5" y1="211.1875" y2="211.1875"/><ellipse cx="29.5" cy="222.1875" fill="#84BE84" rx="3" ry="3" style="stroke: #038048; stroke-width: 1.0;"/><text fill="#000000" font-family="sans-serif" font-size="11" lengthAdjust="spacingAndGlyphs" textLength="98" x="38.5" y="226.6064">getGlobal(): Boolean</text><ellipse cx="29.5" cy="236.0234" fill="#84BE84" rx="3" ry="3" style="stroke: #038048; stroke-width: 1.0;"/><text fill="#000000" font-family="sans-serif" font-size="11" lengthAdjust="spacingAndGlyphs" textLength="118" x="38.5" y="240.4424">setGlobal(Boolean): void</text><ellipse cx="29.5" cy="249.8594" fill="#84BE84" rx="3" ry="3" style="stroke: #038048; stroke-width: 1.0;"/><text fill="#000000" font-family="sans-serif" font-size="11" lengthAdjust="spacingAndGlyphs" textLength="224" x="38.5" y="254.2783">getReusedPackages(): EList&lt;MethodPackage&gt;</text><ellipse cx="29.5" cy="263.6953" fill="#84BE84" rx="3" ry="3" style="stroke: #038048; stroke-width: 1.0;"/><text fill="#000000" font-family="sans-serif" font-size="11" lengthAdjust="spacingAndGlyphs" textLength="210" x="38.5" y="268.1143">getChildPackages(): EList&lt;MethodPackage&gt;</text><ellipse cx="29.5" cy="277.5313" fill="#84BE84" rx="3" ry="3" style="stroke: #038048; stroke-width: 1.0;"/><text fill="#000000" font-family="sans-serif" font-size="11" lengthAdjust="spacingAndGlyphs" textLength="350" x="38.5" y="281.9502">eInverseRemove(InternalEObject, int, NotificationChain): NotificationChain</text><ellipse cx="29.5" cy="291.3672" fill="#84BE84" rx="3" ry="3" style="stroke: #038048; stroke-width: 1.0;"/><text fill="#000000" font-family="sans-serif" font-size="11" lengthAdjust="spacingAndGlyphs" textLength="167" x="38.5" y="295.7861">eGet(int, boolean, boolean): Object</text><ellipse cx="29.5" cy="305.2031" fill="#84BE84" rx="3" ry="3" style="stroke: #038048; stroke-width: 1.0;"/><text fill="#000000" font-family="sans-serif" font-size="11" lengthAdjust="spacingAndGlyphs" textLength="104" x="38.5" y="309.6221">eSet(int, Object): void</text><ellipse cx="29.5" cy="319.0391" fill="#84BE84" rx="3" ry="3" style="stroke: #038048; stroke-width: 1.0;"/><text fill="#000000" font-family="sans-serif" font-size="11" lengthAdjust="spacingAndGlyphs" textLength="79" x="38.5" y="323.458">eUnset(int): void</text><ellipse cx="29.5" cy="332.875" fill="#84BE84" rx="3" ry="3" style="stroke: #038048; stroke-width: 1.0;"/><text fill="#000000" font-family="sans-serif" font-size="11" lengthAdjust="spacingAndGlyphs" textLength="93" x="38.5" y="337.2939">eIsSet(int): boolean</text></a><!--MD5=[96d74128ee637182a637cecce9919dcf]
class org.eclipse.epf.uma.impl.MethodElementImpl--><a href="MethodElementImpl.html" target="_top" title="MethodElementImpl.html" xlink:actuate="onRequest" xlink:href="MethodElementImpl.html" xlink:show="new" xlink:title="MethodElementImpl.html" xlink:type="simple"><rect codeLine="17" fill="#FEFECE" filter="url(#f1n6b7o885m8z9)" height="40.1875" id="org.eclipse.epf.uma.impl.MethodElementImpl" style="stroke: #A80036; stroke-width: 1.5;" width="157" x="7" y="39"/><ellipse cx="22" cy="59.0938" fill="#A9DCDF" rx="11" ry="11" style="stroke: #A80036; stroke-width: 1.0;"/><path d="M24.1875,60.8594 L20.0469,60.8594 L19.625,61.8906 L20.0469,61.8906 Q20.6563,61.8906 20.9219,62.125 Q21.1875,62.3594 21.1875,62.75 Q21.1875,63.125 20.9219,63.3594 Q20.6563,63.5938 20.0469,63.5938 L17.75,63.5938 Q17.1406,63.5938 16.8906,63.3594 Q16.625,63.125 16.625,62.7344 Q16.625,62.3594 16.9063,62.125 Q17.1719,61.875 17.7969,61.8906 L20.4688,55.2344 L19.3594,55.2344 Q18.75,55.2344 18.4844,55 Q18.2188,54.7656 18.2188,54.375 Q18.2188,54 18.4844,53.7656 Q18.75,53.5313 19.3594,53.5313 L23.0313,53.5313 L26.4219,61.8906 Q27.0156,61.8906 27.2031,62.0313 Q27.5938,62.2969 27.5938,62.75 Q27.5938,63.125 27.3281,63.3594 Q27.0781,63.5938 26.4688,63.5938 L24.1719,63.5938 Q23.5625,63.5938 23.2969,63.3594 Q23.0313,63.125 23.0313,62.7344 Q23.0313,62.3594 23.2969,62.125 Q23.5625,61.8906 24.1719,61.8906 L24.5938,61.8906 L24.1875,60.8594 Z M23.4688,59.1563 L22.1094,55.7813 L20.7344,59.1563 L23.4688,59.1563 Z "/><text fill="#000000" font-family="sans-serif" font-size="14" font-style="italic" lengthAdjust="spacingAndGlyphs" textLength="125" x="36" y="58.5332">MethodElementImpl</text><text fill="#000000" font-family="sans-serif" font-size="10" font-style="italic" lengthAdjust="spacingAndGlyphs" textLength="114" x="41.5" y="71.9902">org.eclipse.epf.uma.impl</text></a><!--MD5=[cba0e335ae3b4d789e4e1c56bc0cc12a]
class org.eclipse.epf.uma.MethodPackage--><a href="..\MethodPackage.html" target="_top" title="..\MethodPackage.html" xlink:actuate="onRequest" xlink:href="..\MethodPackage.html" xlink:show="new" xlink:title="..\MethodPackage.html" xlink:type="simple"><rect codeLine="18" fill="#FEFECE" filter="url(#f1n6b7o885m8z9)" height="103.5313" id="org.eclipse.epf.uma.MethodPackage" style="stroke: #A80036; stroke-width: 1.5;" width="258" x="199.5" y="7"/><ellipse cx="272.25" cy="27.0938" fill="#B4A7E5" rx="11" ry="11" style="stroke: #A80036; stroke-width: 1.0;"/><path d="M273.2031,23.7344 L273.2031,30.3906 L274.9219,30.3906 Q275.5313,30.3906 275.7969,30.625 Q276.0625,30.8594 276.0625,31.25 Q276.0625,31.625 275.7969,31.8594 Q275.5313,32.0938 274.9219,32.0938 L269.7813,32.0938 Q269.1719,32.0938 268.9063,31.8594 Q268.6406,31.625 268.6406,31.2344 Q268.6406,30.8594 268.9063,30.625 Q269.1719,30.3906 269.7813,30.3906 L271.5,30.3906 L271.5,23.7344 L269.7813,23.7344 Q269.1719,23.7344 268.9063,23.5 Q268.6406,23.2656 268.6406,22.875 Q268.6406,22.5 268.9063,22.2656 Q269.1719,22.0313 269.7813,22.0313 L274.9219,22.0313 Q275.5313,22.0313 275.7969,22.2656 Q276.0625,22.5 276.0625,22.875 Q276.0625,23.2656 275.7969,23.5 Q275.5313,23.7344 274.9219,23.7344 L273.2031,23.7344 Z "/><text fill="#000000" font-family="sans-serif" font-size="14" font-style="italic" lengthAdjust="spacingAndGlyphs" textLength="104" x="292.75" y="26.5332">MethodPackage</text><text fill="#000000" font-family="sans-serif" font-size="10" font-style="italic" lengthAdjust="spacingAndGlyphs" textLength="92" x="298.75" y="39.9902">org.eclipse.epf.uma</text><line style="stroke: #A80036; stroke-width: 1.5;" x1="200.5" x2="456.5" y1="47.1875" y2="47.1875"/><ellipse cx="210.5" cy="58.1875" fill="#84BE84" rx="3" ry="3" style="stroke: #038048; stroke-width: 1.0;"/><text fill="#000000" font-family="sans-serif" font-size="11" font-style="italic" lengthAdjust="spacingAndGlyphs" textLength="103" x="219.5" y="62.6064">getGlobal(): Boolean</text><ellipse cx="210.5" cy="72.0234" fill="#84BE84" rx="3" ry="3" style="stroke: #038048; stroke-width: 1.0;"/><text fill="#000000" font-family="sans-serif" font-size="11" font-style="italic" lengthAdjust="spacingAndGlyphs" textLength="123" x="219.5" y="76.4424">setGlobal(Boolean): void</text><ellipse cx="210.5" cy="85.8594" fill="#84BE84" rx="3" ry="3" style="stroke: #038048; stroke-width: 1.0;"/><text fill="#000000" font-family="sans-serif" font-size="11" font-style="italic" lengthAdjust="spacingAndGlyphs" textLength="232" x="219.5" y="90.2783">getReusedPackages(): EList&lt;MethodPackage&gt;</text><ellipse cx="210.5" cy="99.6953" fill="#84BE84" rx="3" ry="3" style="stroke: #038048; stroke-width: 1.0;"/><text fill="#000000" font-family="sans-serif" font-size="11" font-style="italic" lengthAdjust="spacingAndGlyphs" textLength="220" x="219.5" y="104.1143">getChildPackages(): EList&lt;MethodPackage&gt;</text></a><!--MD5=[8448745851024d1b01c92ee88149d0f1]
reverse link org.eclipse.epf.uma.impl.MethodElementImpl to org.eclipse.epf.uma.impl.MethodPackageImpl--><path codeLine="25" d="M107.97,96.49 C120.9,117.48 137.73,144.81 153.81,170.93 " fill="none" id="org.eclipse.epf.uma.impl.MethodElementImpl-backto-org.eclipse.epf.uma.impl.MethodPackageImpl" style="stroke: #A80036; stroke-width: 1.0;"/><polygon fill="none" points="101.85,99.9,97.32,79.2,113.77,92.56,101.85,99.9" style="stroke: #A80036; stroke-width: 1.0;"/><!--MD5=[b2bb871fc58f4e2e74e8ea89a66a71d6]
reverse link org.eclipse.epf.uma.MethodPackage to org.eclipse.epf.uma.impl.MethodPackageImpl--><path codeLine="26" d="M286.01,128.43 C277.56,142.05 268.58,156.52 259.81,170.63 " fill="none" id="org.eclipse.epf.uma.MethodPackage-backto-org.eclipse.epf.uma.impl.MethodPackageImpl" style="stroke: #A80036; stroke-width: 1.0; stroke-dasharray: 7.0,7.0;"/><polygon fill="none" points="280.27,124.41,296.76,111.12,292.16,131.8,280.27,124.41" style="stroke: #A80036; stroke-width: 1.0;"/><text fill="#888888" font-family="sans-serif" font-size="10" lengthAdjust="spacingAndGlyphs" textLength="190" x="134.25" y="367.0918">UMLDoclet 2.0.12, PlantUML 1.2020.16</text><!--MD5=[6d1aa5ad442cd6175024ca12a77fe016]
@startuml
    set namespaceSeparator none
    hide empty fields
    hide empty methods

    abstract class "<size:14>MethodPackageImpl\n<size:10>org.eclipse.epf.uma.impl" as org.eclipse.epf.uma.impl.MethodPackageImpl [[MethodPackageImpl.html]] {
        +getGlobal(): Boolean
        +setGlobal(Boolean): void
        +getReusedPackages(): EList<MethodPackage>
        +getChildPackages(): EList<MethodPackage>
        +eInverseRemove(InternalEObject, int, NotificationChain): NotificationChain
        +eGet(int, boolean, boolean): Object
        +eSet(int, Object): void
        +eUnset(int): void
        +eIsSet(int): boolean
    }

    abstract class "<size:14>MethodElementImpl\n<size:10>org.eclipse.epf.uma.impl" as org.eclipse.epf.uma.impl.MethodElementImpl [[MethodElementImpl.html]]
    interface "<size:14>MethodPackage\n<size:10>org.eclipse.epf.uma" as org.eclipse.epf.uma.MethodPackage [[..\MethodPackage.html]] {
        {abstract} +getGlobal(): Boolean
        {abstract} +setGlobal(Boolean): void
        {abstract} +getReusedPackages(): EList<MethodPackage>
        {abstract} +getChildPackages(): EList<MethodPackage>
    }

    org.eclipse.epf.uma.impl.MethodElementImpl <|- - org.eclipse.epf.uma.impl.MethodPackageImpl
    org.eclipse.epf.uma.MethodPackage <|.. org.eclipse.epf.uma.impl.MethodPackageImpl

    center footer UMLDoclet 2.0.12, PlantUML 1.2020.16
@enduml

PlantUML version 1.2020.16(Sun Aug 23 22:20:43 CEST 2020)
(APACHE source distribution)
Java Runtime: Java(TM) SE Runtime Environment
JVM: Java HotSpot(TM) 64-Bit Server VM
Default Encoding: Cp1252
Language: es
Country: ES
--></g></svg>