<?xml version="1.0" encoding="UTF-8" standalone="no"?><svg xmlns="http://www.w3.org/2000/svg" xmlns:xlink="http://www.w3.org/1999/xlink" contentScriptType="application/ecmascript" contentStyleType="text/css" height="546px" preserveAspectRatio="none" style="width:482px;height:546px;" version="1.1" viewBox="0 0 482 546" width="482px" zoomAndPan="magnify"><defs><filter height="300%" id="f1q8e0fmeblqvo" width="300%" x="-1" y="-1"><feGaussianBlur result="blurOut" stdDeviation="2.0"/><feColorMatrix in="blurOut" result="blurOut2" type="matrix" values="0 0 0 0 0 0 0 0 0 0 0 0 0 0 0 0 0 0 .4 0"/><feOffset dx="4.0" dy="4.0" in="blurOut2" result="blurOut3"/><feBlend in="SourceGraphic" in2="blurOut3" mode="normal"/></filter></defs><g><!--MD5=[f97d49f6c3ffecc979ac870a0fb34e54]
class org.eclipse.epf.uma.impl.MethodUnitImpl--><a href="MethodUnitImpl.html" target="_top" title="MethodUnitImpl.html" xlink:actuate="onRequest" xlink:href="MethodUnitImpl.html" xlink:show="new" xlink:title="MethodUnitImpl.html" xlink:type="simple"><rect codeLine="5" fill="#FEFECE" filter="url(#f1q8e0fmeblqvo)" height="255.7266" id="org.eclipse.epf.uma.impl.MethodUnitImpl" style="stroke: #A80036; stroke-width: 1.5;" width="266" x="75.5" y="254"/><ellipse cx="147.25" cy="274.0938" fill="#A9DCDF" rx="11" ry="11" style="stroke: #A80036; stroke-width: 1.0;"/><path d="M149.4375,275.8594 L145.2969,275.8594 L144.875,276.8906 L145.2969,276.8906 Q145.9063,276.8906 146.1719,277.125 Q146.4375,277.3594 146.4375,277.75 Q146.4375,278.125 146.1719,278.3594 Q145.9063,278.5938 145.2969,278.5938 L143,278.5938 Q142.3906,278.5938 142.1406,278.3594 Q141.875,278.125 141.875,277.7344 Q141.875,277.3594 142.1563,277.125 Q142.4219,276.875 143.0469,276.8906 L145.7188,270.2344 L144.6094,270.2344 Q144,270.2344 143.7344,270 Q143.4688,269.7656 143.4688,269.375 Q143.4688,269 143.7344,268.7656 Q144,268.5313 144.6094,268.5313 L148.2813,268.5313 L151.6719,276.8906 Q152.2656,276.8906 152.4531,277.0313 Q152.8438,277.2969 152.8438,277.75 Q152.8438,278.125 152.5781,278.3594 Q152.3281,278.5938 151.7188,278.5938 L149.4219,278.5938 Q148.8125,278.5938 148.5469,278.3594 Q148.2813,278.125 148.2813,277.7344 Q148.2813,277.3594 148.5469,277.125 Q148.8125,276.8906 149.4219,276.8906 L149.8438,276.8906 L149.4375,275.8594 Z M148.7188,274.1563 L147.3594,270.7813 L145.9844,274.1563 L148.7188,274.1563 Z "/><text fill="#000000" font-family="sans-serif" font-size="14" font-style="italic" lengthAdjust="spacingAndGlyphs" textLength="99" x="175.25" y="273.5332">MethodUnitImpl</text><text fill="#000000" font-family="sans-serif" font-size="10" font-style="italic" lengthAdjust="spacingAndGlyphs" textLength="114" x="167.75" y="286.9902">org.eclipse.epf.uma.impl</text><line style="stroke: #A80036; stroke-width: 1.5;" x1="76.5" x2="340.5" y1="294.1875" y2="294.1875"/><ellipse cx="86.5" cy="305.1875" fill="#84BE84" rx="3" ry="3" style="stroke: #038048; stroke-width: 1.0;"/><text fill="#000000" font-family="sans-serif" font-size="11" lengthAdjust="spacingAndGlyphs" textLength="96" x="95.5" y="309.6064">getAuthors(): String</text><ellipse cx="86.5" cy="319.0234" fill="#84BE84" rx="3" ry="3" style="stroke: #038048; stroke-width: 1.0;"/><text fill="#000000" font-family="sans-serif" font-size="11" lengthAdjust="spacingAndGlyphs" textLength="116" x="95.5" y="323.4424">setAuthors(String): void</text><ellipse cx="86.5" cy="332.8594" fill="#84BE84" rx="3" ry="3" style="stroke: #038048; stroke-width: 1.0;"/><text fill="#000000" font-family="sans-serif" font-size="11" lengthAdjust="spacingAndGlyphs" textLength="110" x="95.5" y="337.2783">getChangeDate(): Date</text><ellipse cx="86.5" cy="346.6953" fill="#84BE84" rx="3" ry="3" style="stroke: #038048; stroke-width: 1.0;"/><text fill="#000000" font-family="sans-serif" font-size="11" lengthAdjust="spacingAndGlyphs" textLength="130" x="95.5" y="351.1143">setChangeDate(Date): void</text><ellipse cx="86.5" cy="360.5313" fill="#84BE84" rx="3" ry="3" style="stroke: #038048; stroke-width: 1.0;"/><text fill="#000000" font-family="sans-serif" font-size="11" lengthAdjust="spacingAndGlyphs" textLength="148" x="95.5" y="364.9502">getChangeDescription(): String</text><ellipse cx="86.5" cy="374.3672" fill="#84BE84" rx="3" ry="3" style="stroke: #038048; stroke-width: 1.0;"/><text fill="#000000" font-family="sans-serif" font-size="11" lengthAdjust="spacingAndGlyphs" textLength="168" x="95.5" y="378.7861">setChangeDescription(String): void</text><ellipse cx="86.5" cy="388.2031" fill="#84BE84" rx="3" ry="3" style="stroke: #038048; stroke-width: 1.0;"/><text fill="#000000" font-family="sans-serif" font-size="11" lengthAdjust="spacingAndGlyphs" textLength="95" x="95.5" y="392.6221">getVersion(): String</text><ellipse cx="86.5" cy="402.0391" fill="#84BE84" rx="3" ry="3" style="stroke: #038048; stroke-width: 1.0;"/><text fill="#000000" font-family="sans-serif" font-size="11" lengthAdjust="spacingAndGlyphs" textLength="115" x="95.5" y="406.458">setVersion(String): void</text><ellipse cx="86.5" cy="415.875" fill="#84BE84" rx="3" ry="3" style="stroke: #038048; stroke-width: 1.0;"/><text fill="#000000" font-family="sans-serif" font-size="11" lengthAdjust="spacingAndGlyphs" textLength="212" x="95.5" y="420.2939">getCopyrightStatement(): SupportingMaterial</text><ellipse cx="86.5" cy="429.7109" fill="#84BE84" rx="3" ry="3" style="stroke: #038048; stroke-width: 1.0;"/><text fill="#000000" font-family="sans-serif" font-size="11" lengthAdjust="spacingAndGlyphs" textLength="240" x="95.5" y="434.1299">basicGetCopyrightStatement(): SupportingMaterial</text><ellipse cx="86.5" cy="443.5469" fill="#84BE84" rx="3" ry="3" style="stroke: #038048; stroke-width: 1.0;"/><text fill="#000000" font-family="sans-serif" font-size="11" lengthAdjust="spacingAndGlyphs" textLength="232" x="95.5" y="447.9658">setCopyrightStatement(SupportingMaterial): void</text><ellipse cx="86.5" cy="457.3828" fill="#84BE84" rx="3" ry="3" style="stroke: #038048; stroke-width: 1.0;"/><text fill="#000000" font-family="sans-serif" font-size="11" lengthAdjust="spacingAndGlyphs" textLength="167" x="95.5" y="461.8018">eGet(int, boolean, boolean): Object</text><ellipse cx="86.5" cy="471.2188" fill="#84BE84" rx="3" ry="3" style="stroke: #038048; stroke-width: 1.0;"/><text fill="#000000" font-family="sans-serif" font-size="11" lengthAdjust="spacingAndGlyphs" textLength="104" x="95.5" y="475.6377">eSet(int, Object): void</text><ellipse cx="86.5" cy="485.0547" fill="#84BE84" rx="3" ry="3" style="stroke: #038048; stroke-width: 1.0;"/><text fill="#000000" font-family="sans-serif" font-size="11" lengthAdjust="spacingAndGlyphs" textLength="79" x="95.5" y="489.4736">eUnset(int): void</text><ellipse cx="86.5" cy="498.8906" fill="#84BE84" rx="3" ry="3" style="stroke: #038048; stroke-width: 1.0;"/><text fill="#000000" font-family="sans-serif" font-size="11" lengthAdjust="spacingAndGlyphs" textLength="93" x="95.5" y="503.3096">eIsSet(int): boolean</text></a><!--MD5=[96d74128ee637182a637cecce9919dcf]
class org.eclipse.epf.uma.impl.MethodElementImpl--><a href="MethodElementImpl.html" target="_top" title="MethodElementImpl.html" xlink:actuate="onRequest" xlink:href="MethodElementImpl.html" xlink:show="new" xlink:title="MethodElementImpl.html" xlink:type="simple"><rect codeLine="23" fill="#FEFECE" filter="url(#f1q8e0fmeblqvo)" height="40.1875" id="org.eclipse.epf.uma.impl.MethodElementImpl" style="stroke: #A80036; stroke-width: 1.5;" width="157" x="7" y="80.5"/><ellipse cx="22" cy="100.5938" fill="#A9DCDF" rx="11" ry="11" style="stroke: #A80036; stroke-width: 1.0;"/><path d="M24.1875,102.3594 L20.0469,102.3594 L19.625,103.3906 L20.0469,103.3906 Q20.6563,103.3906 20.9219,103.625 Q21.1875,103.8594 21.1875,104.25 Q21.1875,104.625 20.9219,104.8594 Q20.6563,105.0938 20.0469,105.0938 L17.75,105.0938 Q17.1406,105.0938 16.8906,104.8594 Q16.625,104.625 16.625,104.2344 Q16.625,103.8594 16.9063,103.625 Q17.1719,103.375 17.7969,103.3906 L20.4688,96.7344 L19.3594,96.7344 Q18.75,96.7344 18.4844,96.5 Q18.2188,96.2656 18.2188,95.875 Q18.2188,95.5 18.4844,95.2656 Q18.75,95.0313 19.3594,95.0313 L23.0313,95.0313 L26.4219,103.3906 Q27.0156,103.3906 27.2031,103.5313 Q27.5938,103.7969 27.5938,104.25 Q27.5938,104.625 27.3281,104.8594 Q27.0781,105.0938 26.4688,105.0938 L24.1719,105.0938 Q23.5625,105.0938 23.2969,104.8594 Q23.0313,104.625 23.0313,104.2344 Q23.0313,103.8594 23.2969,103.625 Q23.5625,103.3906 24.1719,103.3906 L24.5938,103.3906 L24.1875,102.3594 Z M23.4688,100.6563 L22.1094,97.2813 L20.7344,100.6563 L23.4688,100.6563 Z "/><text fill="#000000" font-family="sans-serif" font-size="14" font-style="italic" lengthAdjust="spacingAndGlyphs" textLength="125" x="36" y="100.0332">MethodElementImpl</text><text fill="#000000" font-family="sans-serif" font-size="10" font-style="italic" lengthAdjust="spacingAndGlyphs" textLength="114" x="41.5" y="113.4902">org.eclipse.epf.uma.impl</text></a><!--MD5=[7b6125558004ae2e4ffede7fdf88687c]
class org.eclipse.epf.uma.MethodUnit--><a href="..\MethodUnit.html" target="_top" title="..\MethodUnit.html" xlink:actuate="onRequest" xlink:href="..\MethodUnit.html" xlink:show="new" xlink:title="..\MethodUnit.html" xlink:type="simple"><rect codeLine="24" fill="#FEFECE" filter="url(#f1q8e0fmeblqvo)" height="186.5469" id="org.eclipse.epf.uma.MethodUnit" style="stroke: #A80036; stroke-width: 1.5;" width="264" x="199.5" y="7"/><ellipse cx="281.25" cy="27.0938" fill="#B4A7E5" rx="11" ry="11" style="stroke: #A80036; stroke-width: 1.0;"/><path d="M282.2031,23.7344 L282.2031,30.3906 L283.9219,30.3906 Q284.5313,30.3906 284.7969,30.625 Q285.0625,30.8594 285.0625,31.25 Q285.0625,31.625 284.7969,31.8594 Q284.5313,32.0938 283.9219,32.0938 L278.7813,32.0938 Q278.1719,32.0938 277.9063,31.8594 Q277.6406,31.625 277.6406,31.2344 Q277.6406,30.8594 277.9063,30.625 Q278.1719,30.3906 278.7813,30.3906 L280.5,30.3906 L280.5,23.7344 L278.7813,23.7344 Q278.1719,23.7344 277.9063,23.5 Q277.6406,23.2656 277.6406,22.875 Q277.6406,22.5 277.9063,22.2656 Q278.1719,22.0313 278.7813,22.0313 L283.9219,22.0313 Q284.5313,22.0313 284.7969,22.2656 Q285.0625,22.5 285.0625,22.875 Q285.0625,23.2656 284.7969,23.5 Q284.5313,23.7344 283.9219,23.7344 L282.2031,23.7344 Z "/><text fill="#000000" font-family="sans-serif" font-size="14" font-style="italic" lengthAdjust="spacingAndGlyphs" textLength="73" x="311.25" y="26.5332">MethodUnit</text><text fill="#000000" font-family="sans-serif" font-size="10" font-style="italic" lengthAdjust="spacingAndGlyphs" textLength="92" x="301.75" y="39.9902">org.eclipse.epf.uma</text><line style="stroke: #A80036; stroke-width: 1.5;" x1="200.5" x2="462.5" y1="47.1875" y2="47.1875"/><ellipse cx="210.5" cy="58.1875" fill="#84BE84" rx="3" ry="3" style="stroke: #038048; stroke-width: 1.0;"/><text fill="#000000" font-family="sans-serif" font-size="11" font-style="italic" lengthAdjust="spacingAndGlyphs" textLength="96" x="219.5" y="62.6064">getAuthors(): String</text><ellipse cx="210.5" cy="72.0234" fill="#84BE84" rx="3" ry="3" style="stroke: #038048; stroke-width: 1.0;"/><text fill="#000000" font-family="sans-serif" font-size="11" font-style="italic" lengthAdjust="spacingAndGlyphs" textLength="116" x="219.5" y="76.4424">setAuthors(String): void</text><ellipse cx="210.5" cy="85.8594" fill="#84BE84" rx="3" ry="3" style="stroke: #038048; stroke-width: 1.0;"/><text fill="#000000" font-family="sans-serif" font-size="11" font-style="italic" lengthAdjust="spacingAndGlyphs" textLength="113" x="219.5" y="90.2783">getChangeDate(): Date</text><ellipse cx="210.5" cy="99.6953" fill="#84BE84" rx="3" ry="3" style="stroke: #038048; stroke-width: 1.0;"/><text fill="#000000" font-family="sans-serif" font-size="11" font-style="italic" lengthAdjust="spacingAndGlyphs" textLength="133" x="219.5" y="104.1143">setChangeDate(Date): void</text><ellipse cx="210.5" cy="113.5313" fill="#84BE84" rx="3" ry="3" style="stroke: #038048; stroke-width: 1.0;"/><text fill="#000000" font-family="sans-serif" font-size="11" font-style="italic" lengthAdjust="spacingAndGlyphs" textLength="153" x="219.5" y="117.9502">getChangeDescription(): String</text><ellipse cx="210.5" cy="127.3672" fill="#84BE84" rx="3" ry="3" style="stroke: #038048; stroke-width: 1.0;"/><text fill="#000000" font-family="sans-serif" font-size="11" font-style="italic" lengthAdjust="spacingAndGlyphs" textLength="173" x="219.5" y="131.7861">setChangeDescription(String): void</text><ellipse cx="210.5" cy="141.2031" fill="#84BE84" rx="3" ry="3" style="stroke: #038048; stroke-width: 1.0;"/><text fill="#000000" font-family="sans-serif" font-size="11" font-style="italic" lengthAdjust="spacingAndGlyphs" textLength="96" x="219.5" y="145.6221">getVersion(): String</text><ellipse cx="210.5" cy="155.0391" fill="#84BE84" rx="3" ry="3" style="stroke: #038048; stroke-width: 1.0;"/><text fill="#000000" font-family="sans-serif" font-size="11" font-style="italic" lengthAdjust="spacingAndGlyphs" textLength="116" x="219.5" y="159.458">setVersion(String): void</text><ellipse cx="210.5" cy="168.875" fill="#84BE84" rx="3" ry="3" style="stroke: #038048; stroke-width: 1.0;"/><text fill="#000000" font-family="sans-serif" font-size="11" font-style="italic" lengthAdjust="spacingAndGlyphs" textLength="218" x="219.5" y="173.2939">getCopyrightStatement(): SupportingMaterial</text><ellipse cx="210.5" cy="182.7109" fill="#84BE84" rx="3" ry="3" style="stroke: #038048; stroke-width: 1.0;"/><text fill="#000000" font-family="sans-serif" font-size="11" font-style="italic" lengthAdjust="spacingAndGlyphs" textLength="238" x="219.5" y="187.1299">setCopyrightStatement(SupportingMaterial): void</text></a><!--MD5=[f15fcec4ba42a740be34172677ad81cb]
reverse link org.eclipse.epf.uma.impl.MethodElementImpl to org.eclipse.epf.uma.impl.MethodUnitImpl--><path codeLine="37" d="M102.15,139.34 C115.22,169.04 134.21,212.19 152.54,253.83 " fill="none" id="org.eclipse.epf.uma.impl.MethodElementImpl-backto-org.eclipse.epf.uma.impl.MethodUnitImpl" style="stroke: #A80036; stroke-width: 1.0;"/><polygon fill="none" points="95.6,141.84,93.95,120.71,108.42,136.2,95.6,141.84" style="stroke: #A80036; stroke-width: 1.0;"/><!--MD5=[aa16c1327e6c5e79f23d5bcd7496141f]
reverse link org.eclipse.epf.uma.MethodUnit to org.eclipse.epf.uma.impl.MethodUnitImpl--><path codeLine="38" d="M282.46,212.94 C276.53,226.42 270.44,240.26 264.41,253.94 " fill="none" id="org.eclipse.epf.uma.MethodUnit-backto-org.eclipse.epf.uma.impl.MethodUnitImpl" style="stroke: #A80036; stroke-width: 1.0; stroke-dasharray: 7.0,7.0;"/><polygon fill="none" points="276.25,209.67,290.71,194.18,289.06,215.31,276.25,209.67" style="stroke: #A80036; stroke-width: 1.0;"/><text fill="#888888" font-family="sans-serif" font-size="10" lengthAdjust="spacingAndGlyphs" textLength="190" x="137.25" y="533.1074">UMLDoclet 2.0.12, PlantUML 1.2020.16</text><!--MD5=[c4a944135feaad97ad96eee49f831b80]
@startuml
    set namespaceSeparator none
    hide empty fields
    hide empty methods

    abstract class "<size:14>MethodUnitImpl\n<size:10>org.eclipse.epf.uma.impl" as org.eclipse.epf.uma.impl.MethodUnitImpl [[MethodUnitImpl.html]] {
        +getAuthors(): String
        +setAuthors(String): void
        +getChangeDate(): Date
        +setChangeDate(Date): void
        +getChangeDescription(): String
        +setChangeDescription(String): void
        +getVersion(): String
        +setVersion(String): void
        +getCopyrightStatement(): SupportingMaterial
        +basicGetCopyrightStatement(): SupportingMaterial
        +setCopyrightStatement(SupportingMaterial): void
        +eGet(int, boolean, boolean): Object
        +eSet(int, Object): void
        +eUnset(int): void
        +eIsSet(int): boolean
    }

    abstract class "<size:14>MethodElementImpl\n<size:10>org.eclipse.epf.uma.impl" as org.eclipse.epf.uma.impl.MethodElementImpl [[MethodElementImpl.html]]
    interface "<size:14>MethodUnit\n<size:10>org.eclipse.epf.uma" as org.eclipse.epf.uma.MethodUnit [[..\MethodUnit.html]] {
        {abstract} +getAuthors(): String
        {abstract} +setAuthors(String): void
        {abstract} +getChangeDate(): Date
        {abstract} +setChangeDate(Date): void
        {abstract} +getChangeDescription(): String
        {abstract} +setChangeDescription(String): void
        {abstract} +getVersion(): String
        {abstract} +setVersion(String): void
        {abstract} +getCopyrightStatement(): SupportingMaterial
        {abstract} +setCopyrightStatement(SupportingMaterial): void
    }

    org.eclipse.epf.uma.impl.MethodElementImpl <|- - org.eclipse.epf.uma.impl.MethodUnitImpl
    org.eclipse.epf.uma.MethodUnit <|.. org.eclipse.epf.uma.impl.MethodUnitImpl

    center footer UMLDoclet 2.0.12, PlantUML 1.2020.16
@enduml

PlantUML version 1.2020.16(Sun Aug 23 22:20:43 CEST 2020)
(APACHE source distribution)
Java Runtime: Java(TM) SE Runtime Environment
JVM: Java HotSpot(TM) 64-Bit Server VM
Default Encoding: Cp1252
Language: es
Country: ES
--></g></svg>