<?xml version="1.0" encoding="UTF-8" standalone="no"?><svg xmlns="http://www.w3.org/2000/svg" xmlns:xlink="http://www.w3.org/1999/xlink" contentScriptType="application/ecmascript" contentStyleType="text/css" height="629px" preserveAspectRatio="none" style="width:579px;height:629px;" version="1.1" viewBox="0 0 579 629" width="579px" zoomAndPan="magnify"><defs><filter height="300%" id="fzqssmmads9qd" width="300%" x="-1" y="-1"><feGaussianBlur result="blurOut" stdDeviation="2.0"/><feColorMatrix in="blurOut" result="blurOut2" type="matrix" values="0 0 0 0 0 0 0 0 0 0 0 0 0 0 0 0 0 0 .4 0"/><feOffset dx="4.0" dy="4.0" in="blurOut2" result="blurOut3"/><feBlend in="SourceGraphic" in2="blurOut3" mode="normal"/></filter></defs><g><!--MD5=[96d74128ee637182a637cecce9919dcf]
class org.eclipse.epf.uma.impl.MethodElementImpl--><a href="MethodElementImpl.html" target="_top" title="MethodElementImpl.html" xlink:actuate="onRequest" xlink:href="MethodElementImpl.html" xlink:show="new" xlink:title="MethodElementImpl.html" xlink:type="simple"><rect codeLine="5" fill="#FEFECE" filter="url(#fzqssmmads9qd)" height="297.2344" id="org.eclipse.epf.uma.impl.MethodElementImpl" style="stroke: #A80036; stroke-width: 1.5;" width="376" x="62" y="295"/><ellipse cx="183.25" cy="315.0938" fill="#A9DCDF" rx="11" ry="11" style="stroke: #A80036; stroke-width: 1.0;"/><path d="M185.4375,316.8594 L181.2969,316.8594 L180.875,317.8906 L181.2969,317.8906 Q181.9063,317.8906 182.1719,318.125 Q182.4375,318.3594 182.4375,318.75 Q182.4375,319.125 182.1719,319.3594 Q181.9063,319.5938 181.2969,319.5938 L179,319.5938 Q178.3906,319.5938 178.1406,319.3594 Q177.875,319.125 177.875,318.7344 Q177.875,318.3594 178.1563,318.125 Q178.4219,317.875 179.0469,317.8906 L181.7188,311.2344 L180.6094,311.2344 Q180,311.2344 179.7344,311 Q179.4688,310.7656 179.4688,310.375 Q179.4688,310 179.7344,309.7656 Q180,309.5313 180.6094,309.5313 L184.2813,309.5313 L187.6719,317.8906 Q188.2656,317.8906 188.4531,318.0313 Q188.8438,318.2969 188.8438,318.75 Q188.8438,319.125 188.5781,319.3594 Q188.3281,319.5938 187.7188,319.5938 L185.4219,319.5938 Q184.8125,319.5938 184.5469,319.3594 Q184.2813,319.125 184.2813,318.7344 Q184.2813,318.3594 184.5469,318.125 Q184.8125,317.8906 185.4219,317.8906 L185.8438,317.8906 L185.4375,316.8594 Z M184.7188,315.1563 L183.3594,311.7813 L181.9844,315.1563 L184.7188,315.1563 Z "/><text fill="#000000" font-family="sans-serif" font-size="14" font-style="italic" lengthAdjust="spacingAndGlyphs" textLength="125" x="203.75" y="314.5332">MethodElementImpl</text><text fill="#000000" font-family="sans-serif" font-size="10" font-style="italic" lengthAdjust="spacingAndGlyphs" textLength="114" x="209.25" y="327.9902">org.eclipse.epf.uma.impl</text><line style="stroke: #A80036; stroke-width: 1.5;" x1="63" x2="437" y1="335.1875" y2="335.1875"/><ellipse cx="73" cy="346.1875" fill="#84BE84" rx="3" ry="3" style="stroke: #038048; stroke-width: 1.0;"/><text fill="#000000" font-family="sans-serif" font-size="11" lengthAdjust="spacingAndGlyphs" textLength="79" x="82" y="350.6064">getGuid(): String</text><ellipse cx="73" cy="360.0234" fill="#84BE84" rx="3" ry="3" style="stroke: #038048; stroke-width: 1.0;"/><text fill="#000000" font-family="sans-serif" font-size="11" lengthAdjust="spacingAndGlyphs" textLength="99" x="82" y="364.4424">setGuid(String): void</text><ellipse cx="73" cy="373.8594" fill="#84BE84" rx="3" ry="3" style="stroke: #038048; stroke-width: 1.0;"/><text fill="#000000" font-family="sans-serif" font-size="11" lengthAdjust="spacingAndGlyphs" textLength="144" x="82" y="378.2783">getPresentationName(): String</text><ellipse cx="73" cy="387.6953" fill="#84BE84" rx="3" ry="3" style="stroke: #038048; stroke-width: 1.0;"/><text fill="#000000" font-family="sans-serif" font-size="11" lengthAdjust="spacingAndGlyphs" textLength="164" x="82" y="392.1143">setPresentationName(String): void</text><ellipse cx="73" cy="401.5313" fill="#84BE84" rx="3" ry="3" style="stroke: #038048; stroke-width: 1.0;"/><text fill="#000000" font-family="sans-serif" font-size="11" lengthAdjust="spacingAndGlyphs" textLength="134" x="82" y="405.9502">getBriefDescription(): String</text><ellipse cx="73" cy="415.3672" fill="#84BE84" rx="3" ry="3" style="stroke: #038048; stroke-width: 1.0;"/><text fill="#000000" font-family="sans-serif" font-size="11" lengthAdjust="spacingAndGlyphs" textLength="154" x="82" y="419.7861">setBriefDescription(String): void</text><ellipse cx="73" cy="429.2031" fill="#84BE84" rx="3" ry="3" style="stroke: #038048; stroke-width: 1.0;"/><text fill="#000000" font-family="sans-serif" font-size="11" lengthAdjust="spacingAndGlyphs" textLength="176" x="82" y="433.6221">getOwnedRules(): EList&lt;Constraint&gt;</text><ellipse cx="73" cy="443.0391" fill="#84BE84" rx="3" ry="3" style="stroke: #038048; stroke-width: 1.0;"/><text fill="#000000" font-family="sans-serif" font-size="11" lengthAdjust="spacingAndGlyphs" textLength="290" x="82" y="447.458">getMethodElementProperty(): EList&lt;MethodElementProperty&gt;</text><ellipse cx="73" cy="456.875" fill="#84BE84" rx="3" ry="3" style="stroke: #038048; stroke-width: 1.0;"/><text fill="#000000" font-family="sans-serif" font-size="11" lengthAdjust="spacingAndGlyphs" textLength="106" x="82" y="461.2939">getKind(): EList&lt;Kind&gt;</text><ellipse cx="73" cy="470.7109" fill="#84BE84" rx="3" ry="3" style="stroke: #038048; stroke-width: 1.0;"/><text fill="#000000" font-family="sans-serif" font-size="11" lengthAdjust="spacingAndGlyphs" textLength="127" x="82" y="475.1299">getSuppressed(): Boolean</text><ellipse cx="73" cy="484.5469" fill="#84BE84" rx="3" ry="3" style="stroke: #038048; stroke-width: 1.0;"/><text fill="#000000" font-family="sans-serif" font-size="11" lengthAdjust="spacingAndGlyphs" textLength="147" x="82" y="488.9658">setSuppressed(Boolean): void</text><ellipse cx="73" cy="498.3828" fill="#84BE84" rx="3" ry="3" style="stroke: #038048; stroke-width: 1.0;"/><text fill="#000000" font-family="sans-serif" font-size="11" lengthAdjust="spacingAndGlyphs" textLength="127" x="82" y="502.8018">getOrderingGuide(): String</text><ellipse cx="73" cy="512.2188" fill="#84BE84" rx="3" ry="3" style="stroke: #038048; stroke-width: 1.0;"/><text fill="#000000" font-family="sans-serif" font-size="11" lengthAdjust="spacingAndGlyphs" textLength="147" x="82" y="516.6377">setOrderingGuide(String): void</text><ellipse cx="73" cy="526.0547" fill="#84BE84" rx="3" ry="3" style="stroke: #038048; stroke-width: 1.0;"/><text fill="#000000" font-family="sans-serif" font-size="11" lengthAdjust="spacingAndGlyphs" textLength="350" x="82" y="530.4736">eInverseRemove(InternalEObject, int, NotificationChain): NotificationChain</text><ellipse cx="73" cy="539.8906" fill="#84BE84" rx="3" ry="3" style="stroke: #038048; stroke-width: 1.0;"/><text fill="#000000" font-family="sans-serif" font-size="11" lengthAdjust="spacingAndGlyphs" textLength="167" x="82" y="544.3096">eGet(int, boolean, boolean): Object</text><ellipse cx="73" cy="553.7266" fill="#84BE84" rx="3" ry="3" style="stroke: #038048; stroke-width: 1.0;"/><text fill="#000000" font-family="sans-serif" font-size="11" lengthAdjust="spacingAndGlyphs" textLength="104" x="82" y="558.1455">eSet(int, Object): void</text><ellipse cx="73" cy="567.5625" fill="#84BE84" rx="3" ry="3" style="stroke: #038048; stroke-width: 1.0;"/><text fill="#000000" font-family="sans-serif" font-size="11" lengthAdjust="spacingAndGlyphs" textLength="79" x="82" y="571.9814">eUnset(int): void</text><ellipse cx="73" cy="581.3984" fill="#84BE84" rx="3" ry="3" style="stroke: #038048; stroke-width: 1.0;"/><text fill="#000000" font-family="sans-serif" font-size="11" lengthAdjust="spacingAndGlyphs" textLength="93" x="82" y="585.8174">eIsSet(int): boolean</text></a><!--MD5=[2d15bc3cf53f3e8155d390d27215ffc3]
class org.eclipse.epf.uma.impl.PackageableElementImpl--><a href="PackageableElementImpl.html" target="_top" title="PackageableElementImpl.html" xlink:actuate="onRequest" xlink:href="PackageableElementImpl.html" xlink:show="new" xlink:title="PackageableElementImpl.html" xlink:type="simple"><rect codeLine="26" fill="#FEFECE" filter="url(#fzqssmmads9qd)" height="40.1875" id="org.eclipse.epf.uma.impl.PackageableElementImpl" style="stroke: #A80036; stroke-width: 1.5;" width="192" x="7" y="101"/><ellipse cx="22" cy="121.0938" fill="#A9DCDF" rx="11" ry="11" style="stroke: #A80036; stroke-width: 1.0;"/><path d="M24.1875,122.8594 L20.0469,122.8594 L19.625,123.8906 L20.0469,123.8906 Q20.6563,123.8906 20.9219,124.125 Q21.1875,124.3594 21.1875,124.75 Q21.1875,125.125 20.9219,125.3594 Q20.6563,125.5938 20.0469,125.5938 L17.75,125.5938 Q17.1406,125.5938 16.8906,125.3594 Q16.625,125.125 16.625,124.7344 Q16.625,124.3594 16.9063,124.125 Q17.1719,123.875 17.7969,123.8906 L20.4688,117.2344 L19.3594,117.2344 Q18.75,117.2344 18.4844,117 Q18.2188,116.7656 18.2188,116.375 Q18.2188,116 18.4844,115.7656 Q18.75,115.5313 19.3594,115.5313 L23.0313,115.5313 L26.4219,123.8906 Q27.0156,123.8906 27.2031,124.0313 Q27.5938,124.2969 27.5938,124.75 Q27.5938,125.125 27.3281,125.3594 Q27.0781,125.5938 26.4688,125.5938 L24.1719,125.5938 Q23.5625,125.5938 23.2969,125.3594 Q23.0313,125.125 23.0313,124.7344 Q23.0313,124.3594 23.2969,124.125 Q23.5625,123.8906 24.1719,123.8906 L24.5938,123.8906 L24.1875,122.8594 Z M23.4688,121.1563 L22.1094,117.7813 L20.7344,121.1563 L23.4688,121.1563 Z "/><text fill="#000000" font-family="sans-serif" font-size="14" font-style="italic" lengthAdjust="spacingAndGlyphs" textLength="160" x="36" y="120.5332">PackageableElementImpl</text><text fill="#000000" font-family="sans-serif" font-size="10" font-style="italic" lengthAdjust="spacingAndGlyphs" textLength="114" x="59" y="133.9902">org.eclipse.epf.uma.impl</text></a><!--MD5=[7427cf7205abc41d95567869575e76d9]
class org.eclipse.epf.uma.MethodElement--><a href="..\MethodElement.html" target="_top" title="..\MethodElement.html" xlink:actuate="onRequest" xlink:href="..\MethodElement.html" xlink:show="new" xlink:title="..\MethodElement.html" xlink:type="simple"><rect codeLine="27" fill="#FEFECE" filter="url(#fzqssmmads9qd)" height="228.0547" id="org.eclipse.epf.uma.MethodElement" style="stroke: #A80036; stroke-width: 1.5;" width="326" x="234" y="7"/><ellipse cx="343.25" cy="27.0938" fill="#B4A7E5" rx="11" ry="11" style="stroke: #A80036; stroke-width: 1.0;"/><path d="M344.2031,23.7344 L344.2031,30.3906 L345.9219,30.3906 Q346.5313,30.3906 346.7969,30.625 Q347.0625,30.8594 347.0625,31.25 Q347.0625,31.625 346.7969,31.8594 Q346.5313,32.0938 345.9219,32.0938 L340.7813,32.0938 Q340.1719,32.0938 339.9063,31.8594 Q339.6406,31.625 339.6406,31.2344 Q339.6406,30.8594 339.9063,30.625 Q340.1719,30.3906 340.7813,30.3906 L342.5,30.3906 L342.5,23.7344 L340.7813,23.7344 Q340.1719,23.7344 339.9063,23.5 Q339.6406,23.2656 339.6406,22.875 Q339.6406,22.5 339.9063,22.2656 Q340.1719,22.0313 340.7813,22.0313 L345.9219,22.0313 Q346.5313,22.0313 346.7969,22.2656 Q347.0625,22.5 347.0625,22.875 Q347.0625,23.2656 346.7969,23.5 Q346.5313,23.7344 345.9219,23.7344 L344.2031,23.7344 Z "/><text fill="#000000" font-family="sans-serif" font-size="14" font-style="italic" lengthAdjust="spacingAndGlyphs" textLength="99" x="363.75" y="26.5332">MethodElement</text><text fill="#000000" font-family="sans-serif" font-size="10" font-style="italic" lengthAdjust="spacingAndGlyphs" textLength="92" x="367.25" y="39.9902">org.eclipse.epf.uma</text><line style="stroke: #A80036; stroke-width: 1.5;" x1="235" x2="559" y1="47.1875" y2="47.1875"/><ellipse cx="245" cy="58.1875" fill="#84BE84" rx="3" ry="3" style="stroke: #038048; stroke-width: 1.0;"/><text fill="#000000" font-family="sans-serif" font-size="11" font-style="italic" lengthAdjust="spacingAndGlyphs" textLength="82" x="254" y="62.6064">getGuid(): String</text><ellipse cx="245" cy="72.0234" fill="#84BE84" rx="3" ry="3" style="stroke: #038048; stroke-width: 1.0;"/><text fill="#000000" font-family="sans-serif" font-size="11" font-style="italic" lengthAdjust="spacingAndGlyphs" textLength="102" x="254" y="76.4424">setGuid(String): void</text><ellipse cx="245" cy="85.8594" fill="#84BE84" rx="3" ry="3" style="stroke: #038048; stroke-width: 1.0;"/><text fill="#000000" font-family="sans-serif" font-size="11" font-style="italic" lengthAdjust="spacingAndGlyphs" textLength="149" x="254" y="90.2783">getPresentationName(): String</text><ellipse cx="245" cy="99.6953" fill="#84BE84" rx="3" ry="3" style="stroke: #038048; stroke-width: 1.0;"/><text fill="#000000" font-family="sans-serif" font-size="11" font-style="italic" lengthAdjust="spacingAndGlyphs" textLength="169" x="254" y="104.1143">setPresentationName(String): void</text><ellipse cx="245" cy="113.5313" fill="#84BE84" rx="3" ry="3" style="stroke: #038048; stroke-width: 1.0;"/><text fill="#000000" font-family="sans-serif" font-size="11" font-style="italic" lengthAdjust="spacingAndGlyphs" textLength="138" x="254" y="117.9502">getBriefDescription(): String</text><ellipse cx="245" cy="127.3672" fill="#84BE84" rx="3" ry="3" style="stroke: #038048; stroke-width: 1.0;"/><text fill="#000000" font-family="sans-serif" font-size="11" font-style="italic" lengthAdjust="spacingAndGlyphs" textLength="158" x="254" y="131.7861">setBriefDescription(String): void</text><ellipse cx="245" cy="141.2031" fill="#84BE84" rx="3" ry="3" style="stroke: #038048; stroke-width: 1.0;"/><text fill="#000000" font-family="sans-serif" font-size="11" font-style="italic" lengthAdjust="spacingAndGlyphs" textLength="180" x="254" y="145.6221">getOwnedRules(): EList&lt;Constraint&gt;</text><ellipse cx="245" cy="155.0391" fill="#84BE84" rx="3" ry="3" style="stroke: #038048; stroke-width: 1.0;"/><text fill="#000000" font-family="sans-serif" font-size="11" font-style="italic" lengthAdjust="spacingAndGlyphs" textLength="300" x="254" y="159.458">getMethodElementProperty(): EList&lt;MethodElementProperty&gt;</text><ellipse cx="245" cy="168.875" fill="#84BE84" rx="3" ry="3" style="stroke: #038048; stroke-width: 1.0;"/><text fill="#000000" font-family="sans-serif" font-size="11" font-style="italic" lengthAdjust="spacingAndGlyphs" textLength="110" x="254" y="173.2939">getKind(): EList&lt;Kind&gt;</text><ellipse cx="245" cy="182.7109" fill="#84BE84" rx="3" ry="3" style="stroke: #038048; stroke-width: 1.0;"/><text fill="#000000" font-family="sans-serif" font-size="11" font-style="italic" lengthAdjust="spacingAndGlyphs" textLength="128" x="254" y="187.1299">getSuppressed(): Boolean</text><ellipse cx="245" cy="196.5469" fill="#84BE84" rx="3" ry="3" style="stroke: #038048; stroke-width: 1.0;"/><text fill="#000000" font-family="sans-serif" font-size="11" font-style="italic" lengthAdjust="spacingAndGlyphs" textLength="148" x="254" y="200.9658">setSuppressed(Boolean): void</text><ellipse cx="245" cy="210.3828" fill="#84BE84" rx="3" ry="3" style="stroke: #038048; stroke-width: 1.0;"/><text fill="#000000" font-family="sans-serif" font-size="11" font-style="italic" lengthAdjust="spacingAndGlyphs" textLength="132" x="254" y="214.8018">getOrderingGuide(): String</text><ellipse cx="245" cy="224.2188" fill="#84BE84" rx="3" ry="3" style="stroke: #038048; stroke-width: 1.0;"/><text fill="#000000" font-family="sans-serif" font-size="11" font-style="italic" lengthAdjust="spacingAndGlyphs" textLength="152" x="254" y="228.6377">setOrderingGuide(String): void</text></a><!--MD5=[2df49cab3cf25de4010eb1d5cae11a96]
reverse link org.eclipse.epf.uma.impl.PackageableElementImpl to org.eclipse.epf.uma.impl.MethodElementImpl--><path codeLine="43" d="M120.22,159.53 C135.64,193.17 159.31,244.76 182.22,294.73 " fill="none" id="org.eclipse.epf.uma.impl.PackageableElementImpl-backto-org.eclipse.epf.uma.impl.MethodElementImpl" style="stroke: #A80036; stroke-width: 1.0;"/><polygon fill="none" points="113.73,162.19,111.76,141.09,126.46,156.35,113.73,162.19" style="stroke: #A80036; stroke-width: 1.0;"/><!--MD5=[9042cb0b5a9af0352f38e191234ce886]
reverse link org.eclipse.epf.uma.MethodElement to org.eclipse.epf.uma.impl.MethodElementImpl--><path codeLine="44" d="M336.57,253.76 C330.33,267.35 323.97,281.22 317.67,294.96 " fill="none" id="org.eclipse.epf.uma.MethodElement-backto-org.eclipse.epf.uma.impl.MethodElementImpl" style="stroke: #A80036; stroke-width: 1.0; stroke-dasharray: 7.0,7.0;"/><polygon fill="none" points="330.27,250.71,344.97,235.45,342.99,256.54,330.27,250.71" style="stroke: #A80036; stroke-width: 1.0;"/><text fill="#888888" font-family="sans-serif" font-size="10" lengthAdjust="spacingAndGlyphs" textLength="190" x="185.5" y="615.6152">UMLDoclet 2.0.12, PlantUML 1.2020.16</text><!--MD5=[7fe782ad7db1ed71d38fb6c5f0e2b2d7]
@startuml
    set namespaceSeparator none
    hide empty fields
    hide empty methods

    abstract class "<size:14>MethodElementImpl\n<size:10>org.eclipse.epf.uma.impl" as org.eclipse.epf.uma.impl.MethodElementImpl [[MethodElementImpl.html]] {
        +getGuid(): String
        +setGuid(String): void
        +getPresentationName(): String
        +setPresentationName(String): void
        +getBriefDescription(): String
        +setBriefDescription(String): void
        +getOwnedRules(): EList<Constraint>
        +getMethodElementProperty(): EList<MethodElementProperty>
        +getKind(): EList<Kind>
        +getSuppressed(): Boolean
        +setSuppressed(Boolean): void
        +getOrderingGuide(): String
        +setOrderingGuide(String): void
        +eInverseRemove(InternalEObject, int, NotificationChain): NotificationChain
        +eGet(int, boolean, boolean): Object
        +eSet(int, Object): void
        +eUnset(int): void
        +eIsSet(int): boolean
    }

    abstract class "<size:14>PackageableElementImpl\n<size:10>org.eclipse.epf.uma.impl" as org.eclipse.epf.uma.impl.PackageableElementImpl [[PackageableElementImpl.html]]
    interface "<size:14>MethodElement\n<size:10>org.eclipse.epf.uma" as org.eclipse.epf.uma.MethodElement [[..\MethodElement.html]] {
        {abstract} +getGuid(): String
        {abstract} +setGuid(String): void
        {abstract} +getPresentationName(): String
        {abstract} +setPresentationName(String): void
        {abstract} +getBriefDescription(): String
        {abstract} +setBriefDescription(String): void
        {abstract} +getOwnedRules(): EList<Constraint>
        {abstract} +getMethodElementProperty(): EList<MethodElementProperty>
        {abstract} +getKind(): EList<Kind>
        {abstract} +getSuppressed(): Boolean
        {abstract} +setSuppressed(Boolean): void
        {abstract} +getOrderingGuide(): String
        {abstract} +setOrderingGuide(String): void
    }

    org.eclipse.epf.uma.impl.PackageableElementImpl <|- - org.eclipse.epf.uma.impl.MethodElementImpl
    org.eclipse.epf.uma.MethodElement <|.. org.eclipse.epf.uma.impl.MethodElementImpl

    center footer UMLDoclet 2.0.12, PlantUML 1.2020.16
@enduml

PlantUML version 1.2020.16(Sun Aug 23 22:20:43 CEST 2020)
(APACHE source distribution)
Java Runtime: Java(TM) SE Runtime Environment
JVM: Java HotSpot(TM) 64-Bit Server VM
Default Encoding: Cp1252
Language: es
Country: ES
--></g></svg>