<?xml version="1.0" encoding="UTF-8" standalone="no"?><svg xmlns="http://www.w3.org/2000/svg" xmlns:xlink="http://www.w3.org/1999/xlink" contentScriptType="application/ecmascript" contentStyleType="text/css" height="490px" preserveAspectRatio="none" style="width:503px;height:490px;" version="1.1" viewBox="0 0 503 490" width="503px" zoomAndPan="magnify"><defs><filter height="300%" id="ffr3l6chugi7v" width="300%" x="-1" y="-1"><feGaussianBlur result="blurOut" stdDeviation="2.0"/><feColorMatrix in="blurOut" result="blurOut2" type="matrix" values="0 0 0 0 0 0 0 0 0 0 0 0 0 0 0 0 0 0 .4 0"/><feOffset dx="4.0" dy="4.0" in="blurOut2" result="blurOut3"/><feBlend in="SourceGraphic" in2="blurOut3" mode="normal"/></filter></defs><g><!--MD5=[103802b4d4c34039c2eb3cf608b4ba45]
class org.eclipse.epf.uma.impl.MethodConfigurationImpl--><a href="MethodConfigurationImpl.html" target="_top" title="MethodConfigurationImpl.html" xlink:actuate="onRequest" xlink:href="MethodConfigurationImpl.html" xlink:show="new" xlink:title="MethodConfigurationImpl.html" xlink:type="simple"><rect codeLine="5" fill="#FEFECE" filter="url(#ffr3l6chugi7v)" height="228.0547" id="org.eclipse.epf.uma.impl.MethodConfigurationImpl" style="stroke: #A80036; stroke-width: 1.5;" width="286" x="65" y="226"/><ellipse cx="125.25" cy="246.0938" fill="#ADD1B2" rx="11" ry="11" style="stroke: #A80036; stroke-width: 1.0;"/><path d="M128.0156,241.9688 Q128.1719,241.75 128.3594,241.6406 Q128.5469,241.5313 128.7656,241.5313 Q129.1406,241.5313 129.375,241.7969 Q129.6094,242.0469 129.6094,242.6563 L129.6094,244.1094 Q129.6094,244.7188 129.375,244.9844 Q129.1406,245.25 128.7656,245.25 Q128.4219,245.25 128.2188,245.0469 Q128.0156,244.8594 127.9063,244.3438 Q127.8594,243.9844 127.6719,243.7969 Q127.3438,243.4219 126.7344,243.2031 Q126.125,242.9844 125.5,242.9844 Q124.7344,242.9844 124.0938,243.3125 Q123.4688,243.6406 122.9688,244.3906 Q122.4844,245.1406 122.4844,246.1719 L122.4844,247.2656 Q122.4844,248.5 123.375,249.3281 Q124.2656,250.1406 125.8594,250.1406 Q126.7969,250.1406 127.4531,249.8906 Q127.8438,249.7344 128.2656,249.2969 Q128.5313,249.0313 128.6719,248.9531 Q128.8281,248.875 129.0313,248.875 Q129.3594,248.875 129.6094,249.1406 Q129.875,249.3906 129.875,249.7344 Q129.875,250.0781 129.5313,250.4844 Q129.0313,251.0625 128.2344,251.3906 Q127.1563,251.8438 125.8594,251.8438 Q124.3438,251.8438 123.1406,251.2188 Q122.1563,250.7188 121.4688,249.6563 Q120.7813,248.5781 120.7813,247.2969 L120.7813,246.1406 Q120.7813,244.8125 121.3906,243.6719 Q122.0156,242.5156 123.1094,241.9063 Q124.2031,241.2813 125.4375,241.2813 Q126.1719,241.2813 126.8125,241.4531 Q127.4688,241.6094 128.0156,241.9688 Z "/><text fill="#000000" font-family="sans-serif" font-size="14" lengthAdjust="spacingAndGlyphs" textLength="157" x="145.75" y="245.5332">MethodConfigurationImpl</text><text fill="#000000" font-family="sans-serif" font-size="10" lengthAdjust="spacingAndGlyphs" textLength="118" x="165.25" y="258.9902">org.eclipse.epf.uma.impl</text><line style="stroke: #A80036; stroke-width: 1.5;" x1="66" x2="350" y1="266.1875" y2="266.1875"/><ellipse cx="76" cy="277.1875" fill="#84BE84" rx="3" ry="3" style="stroke: #038048; stroke-width: 1.0;"/><text fill="#000000" font-family="sans-serif" font-size="11" lengthAdjust="spacingAndGlyphs" textLength="234" x="85" y="281.6064">getMethodPluginSelection(): EList&lt;MethodPlugin&gt;</text><ellipse cx="76" cy="291.0234" fill="#84BE84" rx="3" ry="3" style="stroke: #038048; stroke-width: 1.0;"/><text fill="#000000" font-family="sans-serif" font-size="11" lengthAdjust="spacingAndGlyphs" textLength="260" x="85" y="295.4424">getMethodPackageSelection(): EList&lt;MethodPackage&gt;</text><ellipse cx="76" cy="304.8594" fill="#84BE84" rx="3" ry="3" style="stroke: #038048; stroke-width: 1.0;"/><text fill="#000000" font-family="sans-serif" font-size="11" lengthAdjust="spacingAndGlyphs" textLength="217" x="85" y="309.2783">getProcessViews(): EList&lt;ContentCategory&gt;</text><ellipse cx="76" cy="318.6953" fill="#84BE84" rx="3" ry="3" style="stroke: #038048; stroke-width: 1.0;"/><text fill="#000000" font-family="sans-serif" font-size="11" lengthAdjust="spacingAndGlyphs" textLength="170" x="85" y="323.1143">getDefaultView(): ContentCategory</text><ellipse cx="76" cy="332.5313" fill="#84BE84" rx="3" ry="3" style="stroke: #038048; stroke-width: 1.0;"/><text fill="#000000" font-family="sans-serif" font-size="11" lengthAdjust="spacingAndGlyphs" textLength="198" x="85" y="336.9502">basicGetDefaultView(): ContentCategory</text><ellipse cx="76" cy="346.3672" fill="#84BE84" rx="3" ry="3" style="stroke: #038048; stroke-width: 1.0;"/><text fill="#000000" font-family="sans-serif" font-size="11" lengthAdjust="spacingAndGlyphs" textLength="190" x="85" y="350.7861">setDefaultView(ContentCategory): void</text><ellipse cx="76" cy="360.2031" fill="#84BE84" rx="3" ry="3" style="stroke: #038048; stroke-width: 1.0;"/><text fill="#000000" font-family="sans-serif" font-size="11" lengthAdjust="spacingAndGlyphs" textLength="258" x="85" y="364.6221">getBaseConfigurations(): EList&lt;MethodConfiguration&gt;</text><ellipse cx="76" cy="374.0391" fill="#84BE84" rx="3" ry="3" style="stroke: #038048; stroke-width: 1.0;"/><text fill="#000000" font-family="sans-serif" font-size="11" lengthAdjust="spacingAndGlyphs" textLength="242" x="85" y="378.458">getSubtractedCategory(): EList&lt;ContentCategory&gt;</text><ellipse cx="76" cy="387.875" fill="#84BE84" rx="3" ry="3" style="stroke: #038048; stroke-width: 1.0;"/><text fill="#000000" font-family="sans-serif" font-size="11" lengthAdjust="spacingAndGlyphs" textLength="221" x="85" y="392.2939">getAddedCategory(): EList&lt;ContentCategory&gt;</text><ellipse cx="76" cy="401.7109" fill="#84BE84" rx="3" ry="3" style="stroke: #038048; stroke-width: 1.0;"/><text fill="#000000" font-family="sans-serif" font-size="11" lengthAdjust="spacingAndGlyphs" textLength="167" x="85" y="406.1299">eGet(int, boolean, boolean): Object</text><ellipse cx="76" cy="415.5469" fill="#84BE84" rx="3" ry="3" style="stroke: #038048; stroke-width: 1.0;"/><text fill="#000000" font-family="sans-serif" font-size="11" lengthAdjust="spacingAndGlyphs" textLength="104" x="85" y="419.9658">eSet(int, Object): void</text><ellipse cx="76" cy="429.3828" fill="#84BE84" rx="3" ry="3" style="stroke: #038048; stroke-width: 1.0;"/><text fill="#000000" font-family="sans-serif" font-size="11" lengthAdjust="spacingAndGlyphs" textLength="79" x="85" y="433.8018">eUnset(int): void</text><ellipse cx="76" cy="443.2188" fill="#84BE84" rx="3" ry="3" style="stroke: #038048; stroke-width: 1.0;"/><text fill="#000000" font-family="sans-serif" font-size="11" lengthAdjust="spacingAndGlyphs" textLength="93" x="85" y="447.6377">eIsSet(int): boolean</text></a><!--MD5=[f97d49f6c3ffecc979ac870a0fb34e54]
class org.eclipse.epf.uma.impl.MethodUnitImpl--><a href="MethodUnitImpl.html" target="_top" title="MethodUnitImpl.html" xlink:actuate="onRequest" xlink:href="MethodUnitImpl.html" xlink:show="new" xlink:title="MethodUnitImpl.html" xlink:type="simple"><rect codeLine="21" fill="#FEFECE" filter="url(#ffr3l6chugi7v)" height="40.1875" id="org.eclipse.epf.uma.impl.MethodUnitImpl" style="stroke: #A80036; stroke-width: 1.5;" width="146" x="7" y="66.5"/><ellipse cx="22" cy="86.5938" fill="#A9DCDF" rx="11" ry="11" style="stroke: #A80036; stroke-width: 1.0;"/><path d="M24.1875,88.3594 L20.0469,88.3594 L19.625,89.3906 L20.0469,89.3906 Q20.6563,89.3906 20.9219,89.625 Q21.1875,89.8594 21.1875,90.25 Q21.1875,90.625 20.9219,90.8594 Q20.6563,91.0938 20.0469,91.0938 L17.75,91.0938 Q17.1406,91.0938 16.8906,90.8594 Q16.625,90.625 16.625,90.2344 Q16.625,89.8594 16.9063,89.625 Q17.1719,89.375 17.7969,89.3906 L20.4688,82.7344 L19.3594,82.7344 Q18.75,82.7344 18.4844,82.5 Q18.2188,82.2656 18.2188,81.875 Q18.2188,81.5 18.4844,81.2656 Q18.75,81.0313 19.3594,81.0313 L23.0313,81.0313 L26.4219,89.3906 Q27.0156,89.3906 27.2031,89.5313 Q27.5938,89.7969 27.5938,90.25 Q27.5938,90.625 27.3281,90.8594 Q27.0781,91.0938 26.4688,91.0938 L24.1719,91.0938 Q23.5625,91.0938 23.2969,90.8594 Q23.0313,90.625 23.0313,90.2344 Q23.0313,89.8594 23.2969,89.625 Q23.5625,89.3906 24.1719,89.3906 L24.5938,89.3906 L24.1875,88.3594 Z M23.4688,86.6563 L22.1094,83.2813 L20.7344,86.6563 L23.4688,86.6563 Z "/><text fill="#000000" font-family="sans-serif" font-size="14" font-style="italic" lengthAdjust="spacingAndGlyphs" textLength="99" x="43.5" y="86.0332">MethodUnitImpl</text><text fill="#000000" font-family="sans-serif" font-size="10" font-style="italic" lengthAdjust="spacingAndGlyphs" textLength="114" x="36" y="99.4902">org.eclipse.epf.uma.impl</text></a><!--MD5=[d36cb2c5a4e3a354a730c76f79329bdc]
class org.eclipse.epf.uma.MethodConfiguration--><a href="..\MethodConfiguration.html" target="_top" title="..\MethodConfiguration.html" xlink:actuate="onRequest" xlink:href="..\MethodConfiguration.html" xlink:show="new" xlink:title="..\MethodConfiguration.html" xlink:type="simple"><rect codeLine="22" fill="#FEFECE" filter="url(#ffr3l6chugi7v)" height="158.875" id="org.eclipse.epf.uma.MethodConfiguration" style="stroke: #A80036; stroke-width: 1.5;" width="296" x="188" y="7"/><ellipse cx="265.25" cy="27.0938" fill="#B4A7E5" rx="11" ry="11" style="stroke: #A80036; stroke-width: 1.0;"/><path d="M266.2031,23.7344 L266.2031,30.3906 L267.9219,30.3906 Q268.5313,30.3906 268.7969,30.625 Q269.0625,30.8594 269.0625,31.25 Q269.0625,31.625 268.7969,31.8594 Q268.5313,32.0938 267.9219,32.0938 L262.7813,32.0938 Q262.1719,32.0938 261.9063,31.8594 Q261.6406,31.625 261.6406,31.2344 Q261.6406,30.8594 261.9063,30.625 Q262.1719,30.3906 262.7813,30.3906 L264.5,30.3906 L264.5,23.7344 L262.7813,23.7344 Q262.1719,23.7344 261.9063,23.5 Q261.6406,23.2656 261.6406,22.875 Q261.6406,22.5 261.9063,22.2656 Q262.1719,22.0313 262.7813,22.0313 L267.9219,22.0313 Q268.5313,22.0313 268.7969,22.2656 Q269.0625,22.5 269.0625,22.875 Q269.0625,23.2656 268.7969,23.5 Q268.5313,23.7344 267.9219,23.7344 L266.2031,23.7344 Z "/><text fill="#000000" font-family="sans-serif" font-size="14" font-style="italic" lengthAdjust="spacingAndGlyphs" textLength="133" x="285.75" y="26.5332">MethodConfiguration</text><text fill="#000000" font-family="sans-serif" font-size="10" font-style="italic" lengthAdjust="spacingAndGlyphs" textLength="92" x="306.25" y="39.9902">org.eclipse.epf.uma</text><line style="stroke: #A80036; stroke-width: 1.5;" x1="189" x2="483" y1="47.1875" y2="47.1875"/><ellipse cx="199" cy="58.1875" fill="#84BE84" rx="3" ry="3" style="stroke: #038048; stroke-width: 1.0;"/><text fill="#000000" font-family="sans-serif" font-size="11" font-style="italic" lengthAdjust="spacingAndGlyphs" textLength="246" x="208" y="62.6064">getMethodPluginSelection(): EList&lt;MethodPlugin&gt;</text><ellipse cx="199" cy="72.0234" fill="#84BE84" rx="3" ry="3" style="stroke: #038048; stroke-width: 1.0;"/><text fill="#000000" font-family="sans-serif" font-size="11" font-style="italic" lengthAdjust="spacingAndGlyphs" textLength="270" x="208" y="76.4424">getMethodPackageSelection(): EList&lt;MethodPackage&gt;</text><ellipse cx="199" cy="85.8594" fill="#84BE84" rx="3" ry="3" style="stroke: #038048; stroke-width: 1.0;"/><text fill="#000000" font-family="sans-serif" font-size="11" font-style="italic" lengthAdjust="spacingAndGlyphs" textLength="218" x="208" y="90.2783">getProcessViews(): EList&lt;ContentCategory&gt;</text><ellipse cx="199" cy="99.6953" fill="#84BE84" rx="3" ry="3" style="stroke: #038048; stroke-width: 1.0;"/><text fill="#000000" font-family="sans-serif" font-size="11" font-style="italic" lengthAdjust="spacingAndGlyphs" textLength="169" x="208" y="104.1143">getDefaultView(): ContentCategory</text><ellipse cx="199" cy="113.5313" fill="#84BE84" rx="3" ry="3" style="stroke: #038048; stroke-width: 1.0;"/><text fill="#000000" font-family="sans-serif" font-size="11" font-style="italic" lengthAdjust="spacingAndGlyphs" textLength="189" x="208" y="117.9502">setDefaultView(ContentCategory): void</text><ellipse cx="199" cy="127.3672" fill="#84BE84" rx="3" ry="3" style="stroke: #038048; stroke-width: 1.0;"/><text fill="#000000" font-family="sans-serif" font-size="11" font-style="italic" lengthAdjust="spacingAndGlyphs" textLength="265" x="208" y="131.7861">getBaseConfigurations(): EList&lt;MethodConfiguration&gt;</text><ellipse cx="199" cy="141.2031" fill="#84BE84" rx="3" ry="3" style="stroke: #038048; stroke-width: 1.0;"/><text fill="#000000" font-family="sans-serif" font-size="11" font-style="italic" lengthAdjust="spacingAndGlyphs" textLength="246" x="208" y="145.6221">getSubtractedCategory(): EList&lt;ContentCategory&gt;</text><ellipse cx="199" cy="155.0391" fill="#84BE84" rx="3" ry="3" style="stroke: #038048; stroke-width: 1.0;"/><text fill="#000000" font-family="sans-serif" font-size="11" font-style="italic" lengthAdjust="spacingAndGlyphs" textLength="223" x="208" y="159.458">getAddedCategory(): EList&lt;ContentCategory&gt;</text></a><!--MD5=[aba00d10bf26a3d3bf4237882f9bb361]
reverse link org.eclipse.epf.uma.impl.MethodUnitImpl to org.eclipse.epf.uma.impl.MethodConfigurationImpl--><path codeLine="33" d="M99.1,125.03 C112.75,151.85 131.9,189.48 150.34,225.71 " fill="none" id="org.eclipse.epf.uma.impl.MethodUnitImpl-backto-org.eclipse.epf.uma.impl.MethodConfigurationImpl" style="stroke: #A80036; stroke-width: 1.0;"/><polygon fill="none" points="92.66,127.82,89.83,106.82,105.14,121.47,92.66,127.82" style="stroke: #A80036; stroke-width: 1.0;"/><!--MD5=[45ca2eced5d2292d35c873f5a5ddb9ce]
reverse link org.eclipse.epf.uma.MethodConfiguration to org.eclipse.epf.uma.impl.MethodConfigurationImpl--><path codeLine="34" d="M286.8,184.17 C279.9,197.72 272.76,211.75 265.72,225.58 " fill="none" id="org.eclipse.epf.uma.MethodConfiguration-backto-org.eclipse.epf.uma.impl.MethodConfigurationImpl" style="stroke: #A80036; stroke-width: 1.0; stroke-dasharray: 7.0,7.0;"/><polygon fill="none" points="280.72,180.69,296.03,166.04,293.19,187.04,280.72,180.69" style="stroke: #A80036; stroke-width: 1.0;"/><text fill="#888888" font-family="sans-serif" font-size="10" lengthAdjust="spacingAndGlyphs" textLength="190" x="147.5" y="477.4355">UMLDoclet 2.0.12, PlantUML 1.2020.16</text><!--MD5=[b6edf4cf9ba466ff40e71d892ecdfda2]
@startuml
    set namespaceSeparator none
    hide empty fields
    hide empty methods

    class "<size:14>MethodConfigurationImpl\n<size:10>org.eclipse.epf.uma.impl" as org.eclipse.epf.uma.impl.MethodConfigurationImpl [[MethodConfigurationImpl.html]] {
        +getMethodPluginSelection(): EList<MethodPlugin>
        +getMethodPackageSelection(): EList<MethodPackage>
        +getProcessViews(): EList<ContentCategory>
        +getDefaultView(): ContentCategory
        +basicGetDefaultView(): ContentCategory
        +setDefaultView(ContentCategory): void
        +getBaseConfigurations(): EList<MethodConfiguration>
        +getSubtractedCategory(): EList<ContentCategory>
        +getAddedCategory(): EList<ContentCategory>
        +eGet(int, boolean, boolean): Object
        +eSet(int, Object): void
        +eUnset(int): void
        +eIsSet(int): boolean
    }

    abstract class "<size:14>MethodUnitImpl\n<size:10>org.eclipse.epf.uma.impl" as org.eclipse.epf.uma.impl.MethodUnitImpl [[MethodUnitImpl.html]]
    interface "<size:14>MethodConfiguration\n<size:10>org.eclipse.epf.uma" as org.eclipse.epf.uma.MethodConfiguration [[..\MethodConfiguration.html]] {
        {abstract} +getMethodPluginSelection(): EList<MethodPlugin>
        {abstract} +getMethodPackageSelection(): EList<MethodPackage>
        {abstract} +getProcessViews(): EList<ContentCategory>
        {abstract} +getDefaultView(): ContentCategory
        {abstract} +setDefaultView(ContentCategory): void
        {abstract} +getBaseConfigurations(): EList<MethodConfiguration>
        {abstract} +getSubtractedCategory(): EList<ContentCategory>
        {abstract} +getAddedCategory(): EList<ContentCategory>
    }

    org.eclipse.epf.uma.impl.MethodUnitImpl <|- - org.eclipse.epf.uma.impl.MethodConfigurationImpl
    org.eclipse.epf.uma.MethodConfiguration <|.. org.eclipse.epf.uma.impl.MethodConfigurationImpl

    center footer UMLDoclet 2.0.12, PlantUML 1.2020.16
@enduml

PlantUML version 1.2020.16(Sun Aug 23 22:20:43 CEST 2020)
(APACHE source distribution)
Java Runtime: Java(TM) SE Runtime Environment
JVM: Java HotSpot(TM) 64-Bit Server VM
Default Encoding: Cp1252
Language: es
Country: ES
--></g></svg>