<?xml version="1.0" encoding="UTF-8" standalone="no"?><svg xmlns="http://www.w3.org/2000/svg" xmlns:xlink="http://www.w3.org/1999/xlink" contentScriptType="application/ecmascript" contentStyleType="text/css" height="324px" preserveAspectRatio="none" style="width:526px;height:324px;" version="1.1" viewBox="0 0 526 324" width="526px" zoomAndPan="magnify"><defs><filter height="300%" id="f1n84uvw20g5y0" width="300%" x="-1" y="-1"><feGaussianBlur result="blurOut" stdDeviation="2.0"/><feColorMatrix in="blurOut" result="blurOut2" type="matrix" values="0 0 0 0 0 0 0 0 0 0 0 0 0 0 0 0 0 0 .4 0"/><feOffset dx="4.0" dy="4.0" in="blurOut2" result="blurOut3"/><feBlend in="SourceGraphic" in2="blurOut3" mode="normal"/></filter></defs><g><!--MD5=[dd3f4474be4b5072c8f3b30adec0d120]
class org.eclipse.epf.uma.impl.MethodLibraryImpl--><a href="MethodLibraryImpl.html" target="_top" title="MethodLibraryImpl.html" xlink:actuate="onRequest" xlink:href="MethodLibraryImpl.html" xlink:show="new" xlink:title="MethodLibraryImpl.html" xlink:type="simple"><rect codeLine="5" fill="#FEFECE" filter="url(#f1n84uvw20g5y0)" height="145.0391" id="org.eclipse.epf.uma.impl.MethodLibraryImpl" style="stroke: #A80036; stroke-width: 1.5;" width="376" x="26" y="143"/><ellipse cx="150.75" cy="163.0938" fill="#ADD1B2" rx="11" ry="11" style="stroke: #A80036; stroke-width: 1.0;"/><path d="M153.5156,158.9688 Q153.6719,158.75 153.8594,158.6406 Q154.0469,158.5313 154.2656,158.5313 Q154.6406,158.5313 154.875,158.7969 Q155.1094,159.0469 155.1094,159.6563 L155.1094,161.1094 Q155.1094,161.7188 154.875,161.9844 Q154.6406,162.25 154.2656,162.25 Q153.9219,162.25 153.7188,162.0469 Q153.5156,161.8594 153.4063,161.3438 Q153.3594,160.9844 153.1719,160.7969 Q152.8438,160.4219 152.2344,160.2031 Q151.625,159.9844 151,159.9844 Q150.2344,159.9844 149.5938,160.3125 Q148.9688,160.6406 148.4688,161.3906 Q147.9844,162.1406 147.9844,163.1719 L147.9844,164.2656 Q147.9844,165.5 148.875,166.3281 Q149.7656,167.1406 151.3594,167.1406 Q152.2969,167.1406 152.9531,166.8906 Q153.3438,166.7344 153.7656,166.2969 Q154.0313,166.0313 154.1719,165.9531 Q154.3281,165.875 154.5313,165.875 Q154.8594,165.875 155.1094,166.1406 Q155.375,166.3906 155.375,166.7344 Q155.375,167.0781 155.0313,167.4844 Q154.5313,168.0625 153.7344,168.3906 Q152.6563,168.8438 151.3594,168.8438 Q149.8438,168.8438 148.6406,168.2188 Q147.6563,167.7188 146.9688,166.6563 Q146.2813,165.5781 146.2813,164.2969 L146.2813,163.1406 Q146.2813,161.8125 146.8906,160.6719 Q147.5156,159.5156 148.6094,158.9063 Q149.7031,158.2813 150.9375,158.2813 Q151.6719,158.2813 152.3125,158.4531 Q152.9688,158.6094 153.5156,158.9688 Z "/><text fill="#000000" font-family="sans-serif" font-size="14" lengthAdjust="spacingAndGlyphs" textLength="116" x="172.25" y="162.5332">MethodLibraryImpl</text><text fill="#000000" font-family="sans-serif" font-size="10" lengthAdjust="spacingAndGlyphs" textLength="118" x="171.25" y="175.9902">org.eclipse.epf.uma.impl</text><line style="stroke: #A80036; stroke-width: 1.5;" x1="27" x2="401" y1="183.1875" y2="183.1875"/><ellipse cx="37" cy="194.1875" fill="#84BE84" rx="3" ry="3" style="stroke: #038048; stroke-width: 1.0;"/><text fill="#000000" font-family="sans-serif" font-size="11" lengthAdjust="spacingAndGlyphs" textLength="196" x="46" y="198.6064">getMethodPlugins(): EList&lt;MethodPlugin&gt;</text><ellipse cx="37" cy="208.0234" fill="#84BE84" rx="3" ry="3" style="stroke: #038048; stroke-width: 1.0;"/><text fill="#000000" font-family="sans-serif" font-size="11" lengthAdjust="spacingAndGlyphs" textLength="285" x="46" y="212.4424">getPredefinedConfigurations(): EList&lt;MethodConfiguration&gt;</text><ellipse cx="37" cy="221.8594" fill="#84BE84" rx="3" ry="3" style="stroke: #038048; stroke-width: 1.0;"/><text fill="#000000" font-family="sans-serif" font-size="11" lengthAdjust="spacingAndGlyphs" textLength="350" x="46" y="226.2783">eInverseRemove(InternalEObject, int, NotificationChain): NotificationChain</text><ellipse cx="37" cy="235.6953" fill="#84BE84" rx="3" ry="3" style="stroke: #038048; stroke-width: 1.0;"/><text fill="#000000" font-family="sans-serif" font-size="11" lengthAdjust="spacingAndGlyphs" textLength="167" x="46" y="240.1143">eGet(int, boolean, boolean): Object</text><ellipse cx="37" cy="249.5313" fill="#84BE84" rx="3" ry="3" style="stroke: #038048; stroke-width: 1.0;"/><text fill="#000000" font-family="sans-serif" font-size="11" lengthAdjust="spacingAndGlyphs" textLength="104" x="46" y="253.9502">eSet(int, Object): void</text><ellipse cx="37" cy="263.3672" fill="#84BE84" rx="3" ry="3" style="stroke: #038048; stroke-width: 1.0;"/><text fill="#000000" font-family="sans-serif" font-size="11" lengthAdjust="spacingAndGlyphs" textLength="79" x="46" y="267.7861">eUnset(int): void</text><ellipse cx="37" cy="277.2031" fill="#84BE84" rx="3" ry="3" style="stroke: #038048; stroke-width: 1.0;"/><text fill="#000000" font-family="sans-serif" font-size="11" lengthAdjust="spacingAndGlyphs" textLength="93" x="46" y="281.6221">eIsSet(int): boolean</text></a><!--MD5=[f97d49f6c3ffecc979ac870a0fb34e54]
class org.eclipse.epf.uma.impl.MethodUnitImpl--><a href="MethodUnitImpl.html" target="_top" title="MethodUnitImpl.html" xlink:actuate="onRequest" xlink:href="MethodUnitImpl.html" xlink:show="new" xlink:title="MethodUnitImpl.html" xlink:type="simple"><rect codeLine="15" fill="#FEFECE" filter="url(#f1n84uvw20g5y0)" height="40.1875" id="org.eclipse.epf.uma.impl.MethodUnitImpl" style="stroke: #A80036; stroke-width: 1.5;" width="146" x="7" y="25"/><ellipse cx="22" cy="45.0938" fill="#A9DCDF" rx="11" ry="11" style="stroke: #A80036; stroke-width: 1.0;"/><path d="M24.1875,46.8594 L20.0469,46.8594 L19.625,47.8906 L20.0469,47.8906 Q20.6563,47.8906 20.9219,48.125 Q21.1875,48.3594 21.1875,48.75 Q21.1875,49.125 20.9219,49.3594 Q20.6563,49.5938 20.0469,49.5938 L17.75,49.5938 Q17.1406,49.5938 16.8906,49.3594 Q16.625,49.125 16.625,48.7344 Q16.625,48.3594 16.9063,48.125 Q17.1719,47.875 17.7969,47.8906 L20.4688,41.2344 L19.3594,41.2344 Q18.75,41.2344 18.4844,41 Q18.2188,40.7656 18.2188,40.375 Q18.2188,40 18.4844,39.7656 Q18.75,39.5313 19.3594,39.5313 L23.0313,39.5313 L26.4219,47.8906 Q27.0156,47.8906 27.2031,48.0313 Q27.5938,48.2969 27.5938,48.75 Q27.5938,49.125 27.3281,49.3594 Q27.0781,49.5938 26.4688,49.5938 L24.1719,49.5938 Q23.5625,49.5938 23.2969,49.3594 Q23.0313,49.125 23.0313,48.7344 Q23.0313,48.3594 23.2969,48.125 Q23.5625,47.8906 24.1719,47.8906 L24.5938,47.8906 L24.1875,46.8594 Z M23.4688,45.1563 L22.1094,41.7813 L20.7344,45.1563 L23.4688,45.1563 Z "/><text fill="#000000" font-family="sans-serif" font-size="14" font-style="italic" lengthAdjust="spacingAndGlyphs" textLength="99" x="43.5" y="44.5332">MethodUnitImpl</text><text fill="#000000" font-family="sans-serif" font-size="10" font-style="italic" lengthAdjust="spacingAndGlyphs" textLength="114" x="36" y="57.9902">org.eclipse.epf.uma.impl</text></a><!--MD5=[696d903eb29d64d6c317c02a3e7396f3]
class org.eclipse.epf.uma.MethodLibrary--><a href="..\MethodLibrary.html" target="_top" title="..\MethodLibrary.html" xlink:actuate="onRequest" xlink:href="..\MethodLibrary.html" xlink:show="new" xlink:title="..\MethodLibrary.html" xlink:type="simple"><rect codeLine="16" fill="#FEFECE" filter="url(#f1n84uvw20g5y0)" height="75.8594" id="org.eclipse.epf.uma.MethodLibrary" style="stroke: #A80036; stroke-width: 1.5;" width="319" x="188.5" y="7"/><ellipse cx="297.75" cy="27.0938" fill="#B4A7E5" rx="11" ry="11" style="stroke: #A80036; stroke-width: 1.0;"/><path d="M298.7031,23.7344 L298.7031,30.3906 L300.4219,30.3906 Q301.0313,30.3906 301.2969,30.625 Q301.5625,30.8594 301.5625,31.25 Q301.5625,31.625 301.2969,31.8594 Q301.0313,32.0938 300.4219,32.0938 L295.2813,32.0938 Q294.6719,32.0938 294.4063,31.8594 Q294.1406,31.625 294.1406,31.2344 Q294.1406,30.8594 294.4063,30.625 Q294.6719,30.3906 295.2813,30.3906 L297,30.3906 L297,23.7344 L295.2813,23.7344 Q294.6719,23.7344 294.4063,23.5 Q294.1406,23.2656 294.1406,22.875 Q294.1406,22.5 294.4063,22.2656 Q294.6719,22.0313 295.2813,22.0313 L300.4219,22.0313 Q301.0313,22.0313 301.2969,22.2656 Q301.5625,22.5 301.5625,22.875 Q301.5625,23.2656 301.2969,23.5 Q301.0313,23.7344 300.4219,23.7344 L298.7031,23.7344 Z "/><text fill="#000000" font-family="sans-serif" font-size="14" font-style="italic" lengthAdjust="spacingAndGlyphs" textLength="92" x="318.25" y="26.5332">MethodLibrary</text><text fill="#000000" font-family="sans-serif" font-size="10" font-style="italic" lengthAdjust="spacingAndGlyphs" textLength="92" x="318.25" y="39.9902">org.eclipse.epf.uma</text><line style="stroke: #A80036; stroke-width: 1.5;" x1="189.5" x2="506.5" y1="47.1875" y2="47.1875"/><ellipse cx="199.5" cy="58.1875" fill="#84BE84" rx="3" ry="3" style="stroke: #038048; stroke-width: 1.0;"/><text fill="#000000" font-family="sans-serif" font-size="11" font-style="italic" lengthAdjust="spacingAndGlyphs" textLength="206" x="208.5" y="62.6064">getMethodPlugins(): EList&lt;MethodPlugin&gt;</text><ellipse cx="199.5" cy="72.0234" fill="#84BE84" rx="3" ry="3" style="stroke: #038048; stroke-width: 1.0;"/><text fill="#000000" font-family="sans-serif" font-size="11" font-style="italic" lengthAdjust="spacingAndGlyphs" textLength="293" x="208.5" y="76.4424">getPredefinedConfigurations(): EList&lt;MethodConfiguration&gt;</text></a><!--MD5=[78f155b8db8ed9bf9362b13a40990701]
reverse link org.eclipse.epf.uma.impl.MethodUnitImpl to org.eclipse.epf.uma.impl.MethodLibraryImpl--><path codeLine="21" d="M107.77,80.92 C122.06,98.89 140.03,121.48 157.1,142.95 " fill="none" id="org.eclipse.epf.uma.impl.MethodUnitImpl-backto-org.eclipse.epf.uma.impl.MethodLibraryImpl" style="stroke: #A80036; stroke-width: 1.0;"/><polygon fill="none" points="102.08,85.01,95.11,65,113.04,76.3,102.08,85.01" style="stroke: #A80036; stroke-width: 1.0;"/><!--MD5=[33f36f989dbb8837aca9e193f03a86b4]
reverse link org.eclipse.epf.uma.MethodLibrary to org.eclipse.epf.uma.impl.MethodLibraryImpl--><path codeLine="22" d="M305.46,99.49 C294.48,113.3 282.47,128.4 270.89,142.97 " fill="none" id="org.eclipse.epf.uma.MethodLibrary-backto-org.eclipse.epf.uma.impl.MethodLibraryImpl" style="stroke: #A80036; stroke-width: 1.0; stroke-dasharray: 7.0,7.0;"/><polygon fill="none" points="300.33,94.69,318.26,83.4,311.29,103.41,300.33,94.69" style="stroke: #A80036; stroke-width: 1.0;"/><text fill="#888888" font-family="sans-serif" font-size="10" lengthAdjust="spacingAndGlyphs" textLength="190" x="159.25" y="311.4199">UMLDoclet 2.0.12, PlantUML 1.2020.16</text><!--MD5=[81c2d25b1a534319d3f0faac76b734f3]
@startuml
    set namespaceSeparator none
    hide empty fields
    hide empty methods

    class "<size:14>MethodLibraryImpl\n<size:10>org.eclipse.epf.uma.impl" as org.eclipse.epf.uma.impl.MethodLibraryImpl [[MethodLibraryImpl.html]] {
        +getMethodPlugins(): EList<MethodPlugin>
        +getPredefinedConfigurations(): EList<MethodConfiguration>
        +eInverseRemove(InternalEObject, int, NotificationChain): NotificationChain
        +eGet(int, boolean, boolean): Object
        +eSet(int, Object): void
        +eUnset(int): void
        +eIsSet(int): boolean
    }

    abstract class "<size:14>MethodUnitImpl\n<size:10>org.eclipse.epf.uma.impl" as org.eclipse.epf.uma.impl.MethodUnitImpl [[MethodUnitImpl.html]]
    interface "<size:14>MethodLibrary\n<size:10>org.eclipse.epf.uma" as org.eclipse.epf.uma.MethodLibrary [[..\MethodLibrary.html]] {
        {abstract} +getMethodPlugins(): EList<MethodPlugin>
        {abstract} +getPredefinedConfigurations(): EList<MethodConfiguration>
    }

    org.eclipse.epf.uma.impl.MethodUnitImpl <|- - org.eclipse.epf.uma.impl.MethodLibraryImpl
    org.eclipse.epf.uma.MethodLibrary <|.. org.eclipse.epf.uma.impl.MethodLibraryImpl

    center footer UMLDoclet 2.0.12, PlantUML 1.2020.16
@enduml

PlantUML version 1.2020.16(Sun Aug 23 22:20:43 CEST 2020)
(APACHE source distribution)
Java Runtime: Java(TM) SE Runtime Environment
JVM: Java HotSpot(TM) 64-Bit Server VM
Default Encoding: Cp1252
Language: es
Country: ES
--></g></svg>