<?xml version="1.0" encoding="UTF-8" standalone="no"?><svg xmlns="http://www.w3.org/2000/svg" xmlns:xlink="http://www.w3.org/1999/xlink" contentScriptType="application/ecmascript" contentStyleType="text/css" height="283px" preserveAspectRatio="none" style="width:568px;height:283px;" version="1.1" viewBox="0 0 568 283" width="568px" zoomAndPan="magnify"><defs><filter height="300%" id="fg7yyt4h4zuio" width="300%" x="-1" y="-1"><feGaussianBlur result="blurOut" stdDeviation="2.0"/><feColorMatrix in="blurOut" result="blurOut2" type="matrix" values="0 0 0 0 0 0 0 0 0 0 0 0 0 0 0 0 0 0 .4 0"/><feOffset dx="4.0" dy="4.0" in="blurOut2" result="blurOut3"/><feBlend in="SourceGraphic" in2="blurOut3" mode="normal"/></filter></defs><g><!--MD5=[336d67e3dba077f029e426acd7a4a235]
class org.eclipse.epf.uma.impl.MilestoneImpl--><a href="MilestoneImpl.html" target="_top" title="MilestoneImpl.html" xlink:actuate="onRequest" xlink:href="MilestoneImpl.html" xlink:show="new" xlink:title="MilestoneImpl.html" xlink:type="simple"><rect codeLine="5" fill="#FEFECE" filter="url(#fg7yyt4h4zuio)" height="117.3672" id="org.eclipse.epf.uma.impl.MilestoneImpl" style="stroke: #A80036; stroke-width: 1.5;" width="281" x="118" y="129"/><ellipse cx="195.25" cy="149.0938" fill="#ADD1B2" rx="11" ry="11" style="stroke: #A80036; stroke-width: 1.0;"/><path d="M198.0156,144.9688 Q198.1719,144.75 198.3594,144.6406 Q198.5469,144.5313 198.7656,144.5313 Q199.1406,144.5313 199.375,144.7969 Q199.6094,145.0469 199.6094,145.6563 L199.6094,147.1094 Q199.6094,147.7188 199.375,147.9844 Q199.1406,148.25 198.7656,148.25 Q198.4219,148.25 198.2188,148.0469 Q198.0156,147.8594 197.9063,147.3438 Q197.8594,146.9844 197.6719,146.7969 Q197.3438,146.4219 196.7344,146.2031 Q196.125,145.9844 195.5,145.9844 Q194.7344,145.9844 194.0938,146.3125 Q193.4688,146.6406 192.9688,147.3906 Q192.4844,148.1406 192.4844,149.1719 L192.4844,150.2656 Q192.4844,151.5 193.375,152.3281 Q194.2656,153.1406 195.8594,153.1406 Q196.7969,153.1406 197.4531,152.8906 Q197.8438,152.7344 198.2656,152.2969 Q198.5313,152.0313 198.6719,151.9531 Q198.8281,151.875 199.0313,151.875 Q199.3594,151.875 199.6094,152.1406 Q199.875,152.3906 199.875,152.7344 Q199.875,153.0781 199.5313,153.4844 Q199.0313,154.0625 198.2344,154.3906 Q197.1563,154.8438 195.8594,154.8438 Q194.3438,154.8438 193.1406,154.2188 Q192.1563,153.7188 191.4688,152.6563 Q190.7813,151.5781 190.7813,150.2969 L190.7813,149.1406 Q190.7813,147.8125 191.3906,146.6719 Q192.0156,145.5156 193.1094,144.9063 Q194.2031,144.2813 195.4375,144.2813 Q196.1719,144.2813 196.8125,144.4531 Q197.4688,144.6094 198.0156,144.9688 Z "/><text fill="#000000" font-family="sans-serif" font-size="14" lengthAdjust="spacingAndGlyphs" textLength="85" x="232.25" y="148.5332">MilestoneImpl</text><text fill="#000000" font-family="sans-serif" font-size="10" lengthAdjust="spacingAndGlyphs" textLength="118" x="215.75" y="161.9902">org.eclipse.epf.uma.impl</text><line style="stroke: #A80036; stroke-width: 1.5;" x1="119" x2="398" y1="169.1875" y2="169.1875"/><ellipse cx="129" cy="180.1875" fill="#84BE84" rx="3" ry="3" style="stroke: #038048; stroke-width: 1.0;"/><text fill="#000000" font-family="sans-serif" font-size="11" lengthAdjust="spacingAndGlyphs" textLength="255" x="138" y="184.6064">getRequiredResults(): EList&lt;WorkProductDescriptor&gt;</text><ellipse cx="129" cy="194.0234" fill="#84BE84" rx="3" ry="3" style="stroke: #038048; stroke-width: 1.0;"/><text fill="#000000" font-family="sans-serif" font-size="11" lengthAdjust="spacingAndGlyphs" textLength="167" x="138" y="198.4424">eGet(int, boolean, boolean): Object</text><ellipse cx="129" cy="207.8594" fill="#84BE84" rx="3" ry="3" style="stroke: #038048; stroke-width: 1.0;"/><text fill="#000000" font-family="sans-serif" font-size="11" lengthAdjust="spacingAndGlyphs" textLength="104" x="138" y="212.2783">eSet(int, Object): void</text><ellipse cx="129" cy="221.6953" fill="#84BE84" rx="3" ry="3" style="stroke: #038048; stroke-width: 1.0;"/><text fill="#000000" font-family="sans-serif" font-size="11" lengthAdjust="spacingAndGlyphs" textLength="79" x="138" y="226.1143">eUnset(int): void</text><ellipse cx="129" cy="235.5313" fill="#84BE84" rx="3" ry="3" style="stroke: #038048; stroke-width: 1.0;"/><text fill="#000000" font-family="sans-serif" font-size="11" lengthAdjust="spacingAndGlyphs" textLength="93" x="138" y="239.9502">eIsSet(int): boolean</text></a><!--MD5=[b136c1013b364026b1c1cadbae011495]
class org.eclipse.epf.uma.impl.WorkBreakdownElementImpl--><a href="WorkBreakdownElementImpl.html" target="_top" title="WorkBreakdownElementImpl.html" xlink:actuate="onRequest" xlink:href="WorkBreakdownElementImpl.html" xlink:show="new" xlink:title="WorkBreakdownElementImpl.html" xlink:type="simple"><rect codeLine="13" fill="#FEFECE" filter="url(#fg7yyt4h4zuio)" height="40.1875" id="org.eclipse.epf.uma.impl.WorkBreakdownElementImpl" style="stroke: #A80036; stroke-width: 1.5;" width="215" x="7" y="18"/><ellipse cx="22" cy="38.0938" fill="#A9DCDF" rx="11" ry="11" style="stroke: #A80036; stroke-width: 1.0;"/><path d="M24.1875,39.8594 L20.0469,39.8594 L19.625,40.8906 L20.0469,40.8906 Q20.6563,40.8906 20.9219,41.125 Q21.1875,41.3594 21.1875,41.75 Q21.1875,42.125 20.9219,42.3594 Q20.6563,42.5938 20.0469,42.5938 L17.75,42.5938 Q17.1406,42.5938 16.8906,42.3594 Q16.625,42.125 16.625,41.7344 Q16.625,41.3594 16.9063,41.125 Q17.1719,40.875 17.7969,40.8906 L20.4688,34.2344 L19.3594,34.2344 Q18.75,34.2344 18.4844,34 Q18.2188,33.7656 18.2188,33.375 Q18.2188,33 18.4844,32.7656 Q18.75,32.5313 19.3594,32.5313 L23.0313,32.5313 L26.4219,40.8906 Q27.0156,40.8906 27.2031,41.0313 Q27.5938,41.2969 27.5938,41.75 Q27.5938,42.125 27.3281,42.3594 Q27.0781,42.5938 26.4688,42.5938 L24.1719,42.5938 Q23.5625,42.5938 23.2969,42.3594 Q23.0313,42.125 23.0313,41.7344 Q23.0313,41.3594 23.2969,41.125 Q23.5625,40.8906 24.1719,40.8906 L24.5938,40.8906 L24.1875,39.8594 Z M23.4688,38.1563 L22.1094,34.7813 L20.7344,38.1563 L23.4688,38.1563 Z "/><text fill="#000000" font-family="sans-serif" font-size="14" font-style="italic" lengthAdjust="spacingAndGlyphs" textLength="183" x="36" y="37.5332">WorkBreakdownElementImpl</text><text fill="#000000" font-family="sans-serif" font-size="10" font-style="italic" lengthAdjust="spacingAndGlyphs" textLength="114" x="70.5" y="50.9902">org.eclipse.epf.uma.impl</text></a><!--MD5=[a4cf44522d5694421467e63b5e202155]
class org.eclipse.epf.uma.Milestone--><a href="..\Milestone.html" target="_top" title="..\Milestone.html" xlink:actuate="onRequest" xlink:href="..\Milestone.html" xlink:show="new" xlink:title="..\Milestone.html" xlink:type="simple"><rect codeLine="14" fill="#FEFECE" filter="url(#fg7yyt4h4zuio)" height="62.0234" id="org.eclipse.epf.uma.Milestone" style="stroke: #A80036; stroke-width: 1.5;" width="292" x="257.5" y="7"/><ellipse cx="353.25" cy="27.0938" fill="#B4A7E5" rx="11" ry="11" style="stroke: #A80036; stroke-width: 1.0;"/><path d="M354.2031,23.7344 L354.2031,30.3906 L355.9219,30.3906 Q356.5313,30.3906 356.7969,30.625 Q357.0625,30.8594 357.0625,31.25 Q357.0625,31.625 356.7969,31.8594 Q356.5313,32.0938 355.9219,32.0938 L350.7813,32.0938 Q350.1719,32.0938 349.9063,31.8594 Q349.6406,31.625 349.6406,31.2344 Q349.6406,30.8594 349.9063,30.625 Q350.1719,30.3906 350.7813,30.3906 L352.5,30.3906 L352.5,23.7344 L350.7813,23.7344 Q350.1719,23.7344 349.9063,23.5 Q349.6406,23.2656 349.6406,22.875 Q349.6406,22.5 349.9063,22.2656 Q350.1719,22.0313 350.7813,22.0313 L355.9219,22.0313 Q356.5313,22.0313 356.7969,22.2656 Q357.0625,22.5 357.0625,22.875 Q357.0625,23.2656 356.7969,23.5 Q356.5313,23.7344 355.9219,23.7344 L354.2031,23.7344 Z "/><text fill="#000000" font-family="sans-serif" font-size="14" font-style="italic" lengthAdjust="spacingAndGlyphs" textLength="61" x="389.25" y="26.5332">Milestone</text><text fill="#000000" font-family="sans-serif" font-size="10" font-style="italic" lengthAdjust="spacingAndGlyphs" textLength="92" x="373.75" y="39.9902">org.eclipse.epf.uma</text><line style="stroke: #A80036; stroke-width: 1.5;" x1="258.5" x2="548.5" y1="47.1875" y2="47.1875"/><ellipse cx="268.5" cy="58.1875" fill="#84BE84" rx="3" ry="3" style="stroke: #038048; stroke-width: 1.0;"/><text fill="#000000" font-family="sans-serif" font-size="11" font-style="italic" lengthAdjust="spacingAndGlyphs" textLength="266" x="277.5" y="62.6064">getRequiredResults(): EList&lt;WorkProductDescriptor&gt;</text></a><!--MD5=[561b62d15c8433329a02ce2cc5d711d9]
reverse link org.eclipse.epf.uma.impl.WorkBreakdownElementImpl to org.eclipse.epf.uma.impl.MilestoneImpl--><path codeLine="18" d="M147.5,72.8 C163.66,89.35 183.57,109.75 202.05,128.68 " fill="none" id="org.eclipse.epf.uma.impl.WorkBreakdownElementImpl-backto-org.eclipse.epf.uma.impl.MilestoneImpl" style="stroke: #A80036; stroke-width: 1.0;"/><polygon fill="none" points="142.29,77.48,133.33,58.28,152.31,67.7,142.29,77.48" style="stroke: #A80036; stroke-width: 1.0;"/><!--MD5=[4b6f3a1a58bc36e0e7fd154205538d35]
reverse link org.eclipse.epf.uma.Milestone to org.eclipse.epf.uma.impl.MilestoneImpl--><path codeLine="19" d="M359.44,83.82 C345.48,98.02 329.84,113.93 315.13,128.9 " fill="none" id="org.eclipse.epf.uma.Milestone-backto-org.eclipse.epf.uma.impl.MilestoneImpl" style="stroke: #A80036; stroke-width: 1.0; stroke-dasharray: 7.0,7.0;"/><polygon fill="none" points="354.79,78.56,373.81,69.2,364.78,88.37,354.79,78.56" style="stroke: #A80036; stroke-width: 1.0;"/><text fill="#888888" font-family="sans-serif" font-size="10" lengthAdjust="spacingAndGlyphs" textLength="190" x="180.25" y="269.748">UMLDoclet 2.0.12, PlantUML 1.2020.16</text><!--MD5=[8d782ee827cea7434f5c730e60fc4179]
@startuml
    set namespaceSeparator none
    hide empty fields
    hide empty methods

    class "<size:14>MilestoneImpl\n<size:10>org.eclipse.epf.uma.impl" as org.eclipse.epf.uma.impl.MilestoneImpl [[MilestoneImpl.html]] {
        +getRequiredResults(): EList<WorkProductDescriptor>
        +eGet(int, boolean, boolean): Object
        +eSet(int, Object): void
        +eUnset(int): void
        +eIsSet(int): boolean
    }

    abstract class "<size:14>WorkBreakdownElementImpl\n<size:10>org.eclipse.epf.uma.impl" as org.eclipse.epf.uma.impl.WorkBreakdownElementImpl [[WorkBreakdownElementImpl.html]]
    interface "<size:14>Milestone\n<size:10>org.eclipse.epf.uma" as org.eclipse.epf.uma.Milestone [[..\Milestone.html]] {
        {abstract} +getRequiredResults(): EList<WorkProductDescriptor>
    }

    org.eclipse.epf.uma.impl.WorkBreakdownElementImpl <|- - org.eclipse.epf.uma.impl.MilestoneImpl
    org.eclipse.epf.uma.Milestone <|.. org.eclipse.epf.uma.impl.MilestoneImpl

    center footer UMLDoclet 2.0.12, PlantUML 1.2020.16
@enduml

PlantUML version 1.2020.16(Sun Aug 23 22:20:43 CEST 2020)
(APACHE source distribution)
Java Runtime: Java(TM) SE Runtime Environment
JVM: Java HotSpot(TM) 64-Bit Server VM
Default Encoding: Cp1252
Language: es
Country: ES
--></g></svg>