<?xml version="1.0" encoding="UTF-8" standalone="no"?><svg xmlns="http://www.w3.org/2000/svg" xmlns:xlink="http://www.w3.org/1999/xlink" contentScriptType="application/ecmascript" contentStyleType="text/css" height="311px" preserveAspectRatio="none" style="width:340px;height:311px;" version="1.1" viewBox="0 0 340 311" width="340px" zoomAndPan="magnify"><defs><filter height="300%" id="fwmufxdhefahf" width="300%" x="-1" y="-1"><feGaussianBlur result="blurOut" stdDeviation="2.0"/><feColorMatrix in="blurOut" result="blurOut2" type="matrix" values="0 0 0 0 0 0 0 0 0 0 0 0 0 0 0 0 0 0 .4 0"/><feOffset dx="4.0" dy="4.0" in="blurOut2" result="blurOut3"/><feBlend in="SourceGraphic" in2="blurOut3" mode="normal"/></filter></defs><g><!--MD5=[7b8dc9f90652c6c551d4d35fcd3f0e8e]
class org.eclipse.epf.uma.impl.NamedElementImpl--><a href="NamedElementImpl.html" target="_top" title="NamedElementImpl.html" xlink:actuate="onRequest" xlink:href="NamedElementImpl.html" xlink:show="new" xlink:title="NamedElementImpl.html" xlink:type="simple"><rect codeLine="5" fill="#FEFECE" filter="url(#fwmufxdhefahf)" height="131.2031" id="org.eclipse.epf.uma.impl.NamedElementImpl" style="stroke: #A80036; stroke-width: 1.5;" width="193" x="70.5" y="143"/><ellipse cx="103.05" cy="163.0938" fill="#A9DCDF" rx="11" ry="11" style="stroke: #A80036; stroke-width: 1.0;"/><path d="M105.2375,164.8594 L101.0969,164.8594 L100.675,165.8906 L101.0969,165.8906 Q101.7063,165.8906 101.9719,166.125 Q102.2375,166.3594 102.2375,166.75 Q102.2375,167.125 101.9719,167.3594 Q101.7063,167.5938 101.0969,167.5938 L98.8,167.5938 Q98.1906,167.5938 97.9406,167.3594 Q97.675,167.125 97.675,166.7344 Q97.675,166.3594 97.9563,166.125 Q98.2219,165.875 98.8469,165.8906 L101.5188,159.2344 L100.4094,159.2344 Q99.8,159.2344 99.5344,159 Q99.2688,158.7656 99.2688,158.375 Q99.2688,158 99.5344,157.7656 Q99.8,157.5313 100.4094,157.5313 L104.0813,157.5313 L107.4719,165.8906 Q108.0656,165.8906 108.2531,166.0313 Q108.6438,166.2969 108.6438,166.75 Q108.6438,167.125 108.3781,167.3594 Q108.1281,167.5938 107.5188,167.5938 L105.2219,167.5938 Q104.6125,167.5938 104.3469,167.3594 Q104.0813,167.125 104.0813,166.7344 Q104.0813,166.3594 104.3469,166.125 Q104.6125,165.8906 105.2219,165.8906 L105.6438,165.8906 L105.2375,164.8594 Z M104.5188,163.1563 L103.1594,159.7813 L101.7844,163.1563 L104.5188,163.1563 Z "/><text fill="#000000" font-family="sans-serif" font-size="14" font-style="italic" lengthAdjust="spacingAndGlyphs" textLength="122" x="120.95" y="162.5332">NamedElementImpl</text><text fill="#000000" font-family="sans-serif" font-size="10" font-style="italic" lengthAdjust="spacingAndGlyphs" textLength="114" x="124.95" y="175.9902">org.eclipse.epf.uma.impl</text><line style="stroke: #A80036; stroke-width: 1.5;" x1="71.5" x2="262.5" y1="183.1875" y2="183.1875"/><ellipse cx="81.5" cy="194.1875" fill="#84BE84" rx="3" ry="3" style="stroke: #038048; stroke-width: 1.0;"/><text fill="#000000" font-family="sans-serif" font-size="11" lengthAdjust="spacingAndGlyphs" textLength="84" x="90.5" y="198.6064">getName(): String</text><ellipse cx="81.5" cy="208.0234" fill="#84BE84" rx="3" ry="3" style="stroke: #038048; stroke-width: 1.0;"/><text fill="#000000" font-family="sans-serif" font-size="11" lengthAdjust="spacingAndGlyphs" textLength="104" x="90.5" y="212.4424">setName(String): void</text><ellipse cx="81.5" cy="221.8594" fill="#84BE84" rx="3" ry="3" style="stroke: #038048; stroke-width: 1.0;"/><text fill="#000000" font-family="sans-serif" font-size="11" lengthAdjust="spacingAndGlyphs" textLength="167" x="90.5" y="226.2783">eGet(int, boolean, boolean): Object</text><ellipse cx="81.5" cy="235.6953" fill="#84BE84" rx="3" ry="3" style="stroke: #038048; stroke-width: 1.0;"/><text fill="#000000" font-family="sans-serif" font-size="11" lengthAdjust="spacingAndGlyphs" textLength="104" x="90.5" y="240.1143">eSet(int, Object): void</text><ellipse cx="81.5" cy="249.5313" fill="#84BE84" rx="3" ry="3" style="stroke: #038048; stroke-width: 1.0;"/><text fill="#000000" font-family="sans-serif" font-size="11" lengthAdjust="spacingAndGlyphs" textLength="79" x="90.5" y="253.9502">eUnset(int): void</text><ellipse cx="81.5" cy="263.3672" fill="#84BE84" rx="3" ry="3" style="stroke: #038048; stroke-width: 1.0;"/><text fill="#000000" font-family="sans-serif" font-size="11" lengthAdjust="spacingAndGlyphs" textLength="93" x="90.5" y="267.7861">eIsSet(int): boolean</text></a><!--MD5=[a7aad4dd00005b7efe1814dde0edfdc0]
class org.eclipse.epf.uma.impl.ElementImpl--><a href="ElementImpl.html" target="_top" title="ElementImpl.html" xlink:actuate="onRequest" xlink:href="ElementImpl.html" xlink:show="new" xlink:title="ElementImpl.html" xlink:type="simple"><rect codeLine="14" fill="#FEFECE" filter="url(#fwmufxdhefahf)" height="40.1875" id="org.eclipse.epf.uma.impl.ElementImpl" style="stroke: #A80036; stroke-width: 1.5;" width="146" x="7" y="25"/><ellipse cx="22" cy="45.0938" fill="#A9DCDF" rx="11" ry="11" style="stroke: #A80036; stroke-width: 1.0;"/><path d="M24.1875,46.8594 L20.0469,46.8594 L19.625,47.8906 L20.0469,47.8906 Q20.6563,47.8906 20.9219,48.125 Q21.1875,48.3594 21.1875,48.75 Q21.1875,49.125 20.9219,49.3594 Q20.6563,49.5938 20.0469,49.5938 L17.75,49.5938 Q17.1406,49.5938 16.8906,49.3594 Q16.625,49.125 16.625,48.7344 Q16.625,48.3594 16.9063,48.125 Q17.1719,47.875 17.7969,47.8906 L20.4688,41.2344 L19.3594,41.2344 Q18.75,41.2344 18.4844,41 Q18.2188,40.7656 18.2188,40.375 Q18.2188,40 18.4844,39.7656 Q18.75,39.5313 19.3594,39.5313 L23.0313,39.5313 L26.4219,47.8906 Q27.0156,47.8906 27.2031,48.0313 Q27.5938,48.2969 27.5938,48.75 Q27.5938,49.125 27.3281,49.3594 Q27.0781,49.5938 26.4688,49.5938 L24.1719,49.5938 Q23.5625,49.5938 23.2969,49.3594 Q23.0313,49.125 23.0313,48.7344 Q23.0313,48.3594 23.2969,48.125 Q23.5625,47.8906 24.1719,47.8906 L24.5938,47.8906 L24.1875,46.8594 Z M23.4688,45.1563 L22.1094,41.7813 L20.7344,45.1563 L23.4688,45.1563 Z "/><text fill="#000000" font-family="sans-serif" font-size="14" font-style="italic" lengthAdjust="spacingAndGlyphs" textLength="77" x="54.5" y="44.5332">ElementImpl</text><text fill="#000000" font-family="sans-serif" font-size="10" font-style="italic" lengthAdjust="spacingAndGlyphs" textLength="114" x="36" y="57.9902">org.eclipse.epf.uma.impl</text></a><!--MD5=[79815c968b5df8a155e027262ce4a1dd]
class org.eclipse.epf.uma.NamedElement--><a href="..\NamedElement.html" target="_top" title="..\NamedElement.html" xlink:actuate="onRequest" xlink:href="..\NamedElement.html" xlink:show="new" xlink:title="..\NamedElement.html" xlink:type="simple"><rect codeLine="15" fill="#FEFECE" filter="url(#fwmufxdhefahf)" height="75.8594" id="org.eclipse.epf.uma.NamedElement" style="stroke: #A80036; stroke-width: 1.5;" width="133" x="188.5" y="7"/><ellipse cx="205.75" cy="27.0938" fill="#B4A7E5" rx="11" ry="11" style="stroke: #A80036; stroke-width: 1.0;"/><path d="M206.7031,23.7344 L206.7031,30.3906 L208.4219,30.3906 Q209.0313,30.3906 209.2969,30.625 Q209.5625,30.8594 209.5625,31.25 Q209.5625,31.625 209.2969,31.8594 Q209.0313,32.0938 208.4219,32.0938 L203.2813,32.0938 Q202.6719,32.0938 202.4063,31.8594 Q202.1406,31.625 202.1406,31.2344 Q202.1406,30.8594 202.4063,30.625 Q202.6719,30.3906 203.2813,30.3906 L205,30.3906 L205,23.7344 L203.2813,23.7344 Q202.6719,23.7344 202.4063,23.5 Q202.1406,23.2656 202.1406,22.875 Q202.1406,22.5 202.4063,22.2656 Q202.6719,22.0313 203.2813,22.0313 L208.4219,22.0313 Q209.0313,22.0313 209.2969,22.2656 Q209.5625,22.5 209.5625,22.875 Q209.5625,23.2656 209.2969,23.5 Q209.0313,23.7344 208.4219,23.7344 L206.7031,23.7344 Z "/><text fill="#000000" font-family="sans-serif" font-size="14" font-style="italic" lengthAdjust="spacingAndGlyphs" textLength="96" x="220.25" y="26.5332">NamedElement</text><text fill="#000000" font-family="sans-serif" font-size="10" font-style="italic" lengthAdjust="spacingAndGlyphs" textLength="92" x="222.25" y="39.9902">org.eclipse.epf.uma</text><line style="stroke: #A80036; stroke-width: 1.5;" x1="189.5" x2="320.5" y1="47.1875" y2="47.1875"/><ellipse cx="199.5" cy="58.1875" fill="#84BE84" rx="3" ry="3" style="stroke: #038048; stroke-width: 1.0;"/><text fill="#000000" font-family="sans-serif" font-size="11" font-style="italic" lengthAdjust="spacingAndGlyphs" textLength="87" x="208.5" y="62.6064">getName(): String</text><ellipse cx="199.5" cy="72.0234" fill="#84BE84" rx="3" ry="3" style="stroke: #038048; stroke-width: 1.0;"/><text fill="#000000" font-family="sans-serif" font-size="11" font-style="italic" lengthAdjust="spacingAndGlyphs" textLength="107" x="208.5" y="76.4424">setName(String): void</text></a><!--MD5=[bbcad0d15704e0892e599e7c2f3b1323]
reverse link org.eclipse.epf.uma.impl.ElementImpl to org.eclipse.epf.uma.impl.NamedElementImpl--><path codeLine="20" d="M99.84,82.83 C109.38,100.54 121.1,122.3 132.07,142.65 " fill="none" id="org.eclipse.epf.uma.impl.ElementImpl-backto-org.eclipse.epf.uma.impl.NamedElementImpl" style="stroke: #A80036; stroke-width: 1.0;"/><polygon fill="none" points="93.64,86.09,90.32,65.16,105.97,79.45,93.64,86.09" style="stroke: #A80036; stroke-width: 1.0;"/><!--MD5=[0cc12d6c22cd2f53a670e9919c25d6db]
reverse link org.eclipse.epf.uma.NamedElement to org.eclipse.epf.uma.impl.NamedElementImpl--><path codeLine="21" d="M225.22,100.65 C217.85,114.17 209.89,128.79 202.29,142.74 " fill="none" id="org.eclipse.epf.uma.NamedElement-backto-org.eclipse.epf.uma.impl.NamedElementImpl" style="stroke: #A80036; stroke-width: 1.0; stroke-dasharray: 7.0,7.0;"/><polygon fill="none" points="219.09,97.26,234.81,83.05,231.39,103.96,219.09,97.26" style="stroke: #A80036; stroke-width: 1.0;"/><text fill="#888888" font-family="sans-serif" font-size="10" lengthAdjust="spacingAndGlyphs" textLength="190" x="66.25" y="297.584">UMLDoclet 2.0.12, PlantUML 1.2020.16</text><!--MD5=[8c76366fad13755d9b9736ddeb2e115d]
@startuml
    set namespaceSeparator none
    hide empty fields
    hide empty methods

    abstract class "<size:14>NamedElementImpl\n<size:10>org.eclipse.epf.uma.impl" as org.eclipse.epf.uma.impl.NamedElementImpl [[NamedElementImpl.html]] {
        +getName(): String
        +setName(String): void
        +eGet(int, boolean, boolean): Object
        +eSet(int, Object): void
        +eUnset(int): void
        +eIsSet(int): boolean
    }

    abstract class "<size:14>ElementImpl\n<size:10>org.eclipse.epf.uma.impl" as org.eclipse.epf.uma.impl.ElementImpl [[ElementImpl.html]]
    interface "<size:14>NamedElement\n<size:10>org.eclipse.epf.uma" as org.eclipse.epf.uma.NamedElement [[..\NamedElement.html]] {
        {abstract} +getName(): String
        {abstract} +setName(String): void
    }

    org.eclipse.epf.uma.impl.ElementImpl <|- - org.eclipse.epf.uma.impl.NamedElementImpl
    org.eclipse.epf.uma.NamedElement <|.. org.eclipse.epf.uma.impl.NamedElementImpl

    center footer UMLDoclet 2.0.12, PlantUML 1.2020.16
@enduml

PlantUML version 1.2020.16(Sun Aug 23 22:20:43 CEST 2020)
(APACHE source distribution)
Java Runtime: Java(TM) SE Runtime Environment
JVM: Java HotSpot(TM) 64-Bit Server VM
Default Encoding: Cp1252
Language: es
Country: ES
--></g></svg>