<?xml version="1.0" encoding="UTF-8" standalone="no"?><svg xmlns="http://www.w3.org/2000/svg" xmlns:xlink="http://www.w3.org/1999/xlink" contentScriptType="application/ecmascript" contentStyleType="text/css" height="184px" preserveAspectRatio="none" style="width:339px;height:184px;" version="1.1" viewBox="0 0 339 184" width="339px" zoomAndPan="magnify"><defs><filter height="300%" id="f1o61hy7l1vo5b" width="300%" x="-1" y="-1"><feGaussianBlur result="blurOut" stdDeviation="2.0"/><feColorMatrix in="blurOut" result="blurOut2" type="matrix" values="0 0 0 0 0 0 0 0 0 0 0 0 0 0 0 0 0 0 .4 0"/><feOffset dx="4.0" dy="4.0" in="blurOut2" result="blurOut3"/><feBlend in="SourceGraphic" in2="blurOut3" mode="normal"/></filter></defs><g><!--MD5=[29f4e45222e56c2c4a975b219620691b]
class org.eclipse.epf.uma.impl.NamespaceImpl--><a href="NamespaceImpl.html" target="_top" title="NamespaceImpl.html" xlink:actuate="onRequest" xlink:href="NamespaceImpl.html" xlink:show="new" xlink:title="NamespaceImpl.html" xlink:type="simple"><rect codeLine="5" fill="#FEFECE" filter="url(#f1o61hy7l1vo5b)" height="40.1875" id="org.eclipse.epf.uma.impl.NamespaceImpl" style="stroke: #A80036; stroke-width: 1.5;" width="146" x="98" y="107"/><ellipse cx="113" cy="127.0938" fill="#A9DCDF" rx="11" ry="11" style="stroke: #A80036; stroke-width: 1.0;"/><path d="M115.1875,128.8594 L111.0469,128.8594 L110.625,129.8906 L111.0469,129.8906 Q111.6563,129.8906 111.9219,130.125 Q112.1875,130.3594 112.1875,130.75 Q112.1875,131.125 111.9219,131.3594 Q111.6563,131.5938 111.0469,131.5938 L108.75,131.5938 Q108.1406,131.5938 107.8906,131.3594 Q107.625,131.125 107.625,130.7344 Q107.625,130.3594 107.9063,130.125 Q108.1719,129.875 108.7969,129.8906 L111.4688,123.2344 L110.3594,123.2344 Q109.75,123.2344 109.4844,123 Q109.2188,122.7656 109.2188,122.375 Q109.2188,122 109.4844,121.7656 Q109.75,121.5313 110.3594,121.5313 L114.0313,121.5313 L117.4219,129.8906 Q118.0156,129.8906 118.2031,130.0313 Q118.5938,130.2969 118.5938,130.75 Q118.5938,131.125 118.3281,131.3594 Q118.0781,131.5938 117.4688,131.5938 L115.1719,131.5938 Q114.5625,131.5938 114.2969,131.3594 Q114.0313,131.125 114.0313,130.7344 Q114.0313,130.3594 114.2969,130.125 Q114.5625,129.8906 115.1719,129.8906 L115.5938,129.8906 L115.1875,128.8594 Z M114.4688,127.1563 L113.1094,123.7813 L111.7344,127.1563 L114.4688,127.1563 Z "/><text fill="#000000" font-family="sans-serif" font-size="14" font-style="italic" lengthAdjust="spacingAndGlyphs" textLength="101" x="133.5" y="126.5332">NamespaceImpl</text><text fill="#000000" font-family="sans-serif" font-size="10" font-style="italic" lengthAdjust="spacingAndGlyphs" textLength="114" x="127" y="139.9902">org.eclipse.epf.uma.impl</text></a><!--MD5=[7b8dc9f90652c6c551d4d35fcd3f0e8e]
class org.eclipse.epf.uma.impl.NamedElementImpl--><a href="NamedElementImpl.html" target="_top" title="NamedElementImpl.html" xlink:actuate="onRequest" xlink:href="NamedElementImpl.html" xlink:show="new" xlink:title="NamedElementImpl.html" xlink:type="simple"><rect codeLine="8" fill="#FEFECE" filter="url(#f1o61hy7l1vo5b)" height="40.1875" id="org.eclipse.epf.uma.impl.NamedElementImpl" style="stroke: #A80036; stroke-width: 1.5;" width="154" x="7" y="7"/><ellipse cx="22" cy="27.0938" fill="#A9DCDF" rx="11" ry="11" style="stroke: #A80036; stroke-width: 1.0;"/><path d="M24.1875,28.8594 L20.0469,28.8594 L19.625,29.8906 L20.0469,29.8906 Q20.6563,29.8906 20.9219,30.125 Q21.1875,30.3594 21.1875,30.75 Q21.1875,31.125 20.9219,31.3594 Q20.6563,31.5938 20.0469,31.5938 L17.75,31.5938 Q17.1406,31.5938 16.8906,31.3594 Q16.625,31.125 16.625,30.7344 Q16.625,30.3594 16.9063,30.125 Q17.1719,29.875 17.7969,29.8906 L20.4688,23.2344 L19.3594,23.2344 Q18.75,23.2344 18.4844,23 Q18.2188,22.7656 18.2188,22.375 Q18.2188,22 18.4844,21.7656 Q18.75,21.5313 19.3594,21.5313 L23.0313,21.5313 L26.4219,29.8906 Q27.0156,29.8906 27.2031,30.0313 Q27.5938,30.2969 27.5938,30.75 Q27.5938,31.125 27.3281,31.3594 Q27.0781,31.5938 26.4688,31.5938 L24.1719,31.5938 Q23.5625,31.5938 23.2969,31.3594 Q23.0313,31.125 23.0313,30.7344 Q23.0313,30.3594 23.2969,30.125 Q23.5625,29.8906 24.1719,29.8906 L24.5938,29.8906 L24.1875,28.8594 Z M23.4688,27.1563 L22.1094,23.7813 L20.7344,27.1563 L23.4688,27.1563 Z "/><text fill="#000000" font-family="sans-serif" font-size="14" font-style="italic" lengthAdjust="spacingAndGlyphs" textLength="122" x="36" y="26.5332">NamedElementImpl</text><text fill="#000000" font-family="sans-serif" font-size="10" font-style="italic" lengthAdjust="spacingAndGlyphs" textLength="114" x="40" y="39.9902">org.eclipse.epf.uma.impl</text></a><!--MD5=[351f169ca0072b7540947d0eb28d1e29]
class org.eclipse.epf.uma.Namespace--><a href="..\Namespace.html" target="_top" title="..\Namespace.html" xlink:actuate="onRequest" xlink:href="..\Namespace.html" xlink:show="new" xlink:title="..\Namespace.html" xlink:type="simple"><rect codeLine="9" fill="#FEFECE" filter="url(#f1o61hy7l1vo5b)" height="40.1875" id="org.eclipse.epf.uma.Namespace" style="stroke: #A80036; stroke-width: 1.5;" width="124" x="196" y="7"/><ellipse cx="211" cy="27.0938" fill="#B4A7E5" rx="11" ry="11" style="stroke: #A80036; stroke-width: 1.0;"/><path d="M211.9531,23.7344 L211.9531,30.3906 L213.6719,30.3906 Q214.2813,30.3906 214.5469,30.625 Q214.8125,30.8594 214.8125,31.25 Q214.8125,31.625 214.5469,31.8594 Q214.2813,32.0938 213.6719,32.0938 L208.5313,32.0938 Q207.9219,32.0938 207.6563,31.8594 Q207.3906,31.625 207.3906,31.2344 Q207.3906,30.8594 207.6563,30.625 Q207.9219,30.3906 208.5313,30.3906 L210.25,30.3906 L210.25,23.7344 L208.5313,23.7344 Q207.9219,23.7344 207.6563,23.5 Q207.3906,23.2656 207.3906,22.875 Q207.3906,22.5 207.6563,22.2656 Q207.9219,22.0313 208.5313,22.0313 L213.6719,22.0313 Q214.2813,22.0313 214.5469,22.2656 Q214.8125,22.5 214.8125,22.875 Q214.8125,23.2656 214.5469,23.5 Q214.2813,23.7344 213.6719,23.7344 L211.9531,23.7344 Z "/><text fill="#000000" font-family="sans-serif" font-size="14" font-style="italic" lengthAdjust="spacingAndGlyphs" textLength="75" x="233.5" y="26.5332">Namespace</text><text fill="#000000" font-family="sans-serif" font-size="10" font-style="italic" lengthAdjust="spacingAndGlyphs" textLength="92" x="225" y="39.9902">org.eclipse.epf.uma</text></a><!--MD5=[0d8b0904f4f2eaf92f1903a11094fb95]
reverse link org.eclipse.epf.uma.impl.NamedElementImpl to org.eclipse.epf.uma.impl.NamespaceImpl--><path codeLine="11" d="M114.55,62.41 C127.73,77.26 142.65,94.07 153.85,106.68 " fill="none" id="org.eclipse.epf.uma.impl.NamedElementImpl-backto-org.eclipse.epf.uma.impl.NamespaceImpl" style="stroke: #A80036; stroke-width: 1.0;"/><polygon fill="none" points="109.23,66.97,101.19,47.36,119.7,57.67,109.23,66.97" style="stroke: #A80036; stroke-width: 1.0;"/><!--MD5=[27c2a5aeeb6e6630031188675f5075cf]
reverse link org.eclipse.epf.uma.Namespace to org.eclipse.epf.uma.impl.NamespaceImpl--><path codeLine="12" d="M227.45,62.41 C214.27,77.26 199.35,94.07 188.15,106.68 " fill="none" id="org.eclipse.epf.uma.Namespace-backto-org.eclipse.epf.uma.impl.NamespaceImpl" style="stroke: #A80036; stroke-width: 1.0; stroke-dasharray: 7.0,7.0;"/><polygon fill="none" points="222.3,57.67,240.81,47.36,232.77,66.97,222.3,57.67" style="stroke: #A80036; stroke-width: 1.0;"/><text fill="#888888" font-family="sans-serif" font-size="10" lengthAdjust="spacingAndGlyphs" textLength="190" x="65.5" y="170.5684">UMLDoclet 2.0.12, PlantUML 1.2020.16</text><!--MD5=[801119b5873d9f53e164041ef082da4d]
@startuml
    set namespaceSeparator none
    hide empty fields
    hide empty methods

    abstract class "<size:14>NamespaceImpl\n<size:10>org.eclipse.epf.uma.impl" as org.eclipse.epf.uma.impl.NamespaceImpl [[NamespaceImpl.html]] {
    }

    abstract class "<size:14>NamedElementImpl\n<size:10>org.eclipse.epf.uma.impl" as org.eclipse.epf.uma.impl.NamedElementImpl [[NamedElementImpl.html]]
    interface "<size:14>Namespace\n<size:10>org.eclipse.epf.uma" as org.eclipse.epf.uma.Namespace [[..\Namespace.html]]

    org.eclipse.epf.uma.impl.NamedElementImpl <|- - org.eclipse.epf.uma.impl.NamespaceImpl
    org.eclipse.epf.uma.Namespace <|.. org.eclipse.epf.uma.impl.NamespaceImpl

    center footer UMLDoclet 2.0.12, PlantUML 1.2020.16
@enduml

PlantUML version 1.2020.16(Sun Aug 23 22:20:43 CEST 2020)
(APACHE source distribution)
Java Runtime: Java(TM) SE Runtime Environment
JVM: Java HotSpot(TM) 64-Bit Server VM
Default Encoding: Cp1252
Language: es
Country: ES
--></g></svg>