<?xml version="1.0" encoding="UTF-8" standalone="no"?><svg xmlns="http://www.w3.org/2000/svg" xmlns:xlink="http://www.w3.org/1999/xlink" contentScriptType="application/ecmascript" contentStyleType="text/css" height="184px" preserveAspectRatio="none" style="width:335px;height:184px;" version="1.1" viewBox="0 0 335 184" width="335px" zoomAndPan="magnify"><defs><filter height="300%" id="fmado4jgitxqw" width="300%" x="-1" y="-1"><feGaussianBlur result="blurOut" stdDeviation="2.0"/><feColorMatrix in="blurOut" result="blurOut2" type="matrix" values="0 0 0 0 0 0 0 0 0 0 0 0 0 0 0 0 0 0 .4 0"/><feOffset dx="4.0" dy="4.0" in="blurOut2" result="blurOut3"/><feBlend in="SourceGraphic" in2="blurOut3" mode="normal"/></filter></defs><g><!--MD5=[818880077e17ca9cd99b2a6b8c961989]
class org.eclipse.epf.uma.impl.OutcomeImpl--><a href="OutcomeImpl.html" target="_top" title="OutcomeImpl.html" xlink:actuate="onRequest" xlink:href="OutcomeImpl.html" xlink:show="new" xlink:title="OutcomeImpl.html" xlink:type="simple"><rect codeLine="5" fill="#FEFECE" filter="url(#fmado4jgitxqw)" height="40.1875" id="org.eclipse.epf.uma.impl.OutcomeImpl" style="stroke: #A80036; stroke-width: 1.5;" width="150" x="93" y="107"/><ellipse cx="108" cy="127.0938" fill="#ADD1B2" rx="11" ry="11" style="stroke: #A80036; stroke-width: 1.0;"/><path d="M110.7656,122.9688 Q110.9219,122.75 111.1094,122.6406 Q111.2969,122.5313 111.5156,122.5313 Q111.8906,122.5313 112.125,122.7969 Q112.3594,123.0469 112.3594,123.6563 L112.3594,125.1094 Q112.3594,125.7188 112.125,125.9844 Q111.8906,126.25 111.5156,126.25 Q111.1719,126.25 110.9688,126.0469 Q110.7656,125.8594 110.6563,125.3438 Q110.6094,124.9844 110.4219,124.7969 Q110.0938,124.4219 109.4844,124.2031 Q108.875,123.9844 108.25,123.9844 Q107.4844,123.9844 106.8438,124.3125 Q106.2188,124.6406 105.7188,125.3906 Q105.2344,126.1406 105.2344,127.1719 L105.2344,128.2656 Q105.2344,129.5 106.125,130.3281 Q107.0156,131.1406 108.6094,131.1406 Q109.5469,131.1406 110.2031,130.8906 Q110.5938,130.7344 111.0156,130.2969 Q111.2813,130.0313 111.4219,129.9531 Q111.5781,129.875 111.7813,129.875 Q112.1094,129.875 112.3594,130.1406 Q112.625,130.3906 112.625,130.7344 Q112.625,131.0781 112.2813,131.4844 Q111.7813,132.0625 110.9844,132.3906 Q109.9063,132.8438 108.6094,132.8438 Q107.0938,132.8438 105.8906,132.2188 Q104.9063,131.7188 104.2188,130.6563 Q103.5313,129.5781 103.5313,128.2969 L103.5313,127.1406 Q103.5313,125.8125 104.1406,124.6719 Q104.7656,123.5156 105.8594,122.9063 Q106.9531,122.2813 108.1875,122.2813 Q108.9219,122.2813 109.5625,122.4531 Q110.2188,122.6094 110.7656,122.9688 Z "/><text fill="#000000" font-family="sans-serif" font-size="14" lengthAdjust="spacingAndGlyphs" textLength="82" x="140" y="126.5332">OutcomeImpl</text><text fill="#000000" font-family="sans-serif" font-size="10" lengthAdjust="spacingAndGlyphs" textLength="118" x="122" y="139.9902">org.eclipse.epf.uma.impl</text></a><!--MD5=[bf2f7d7047b7d9f74826b15896e0d3a5]
class org.eclipse.epf.uma.impl.WorkProductImpl--><a href="WorkProductImpl.html" target="_top" title="WorkProductImpl.html" xlink:actuate="onRequest" xlink:href="WorkProductImpl.html" xlink:show="new" xlink:title="WorkProductImpl.html" xlink:type="simple"><rect codeLine="8" fill="#FEFECE" filter="url(#fmado4jgitxqw)" height="40.1875" id="org.eclipse.epf.uma.impl.WorkProductImpl" style="stroke: #A80036; stroke-width: 1.5;" width="150" x="7" y="7"/><ellipse cx="22" cy="27.0938" fill="#ADD1B2" rx="11" ry="11" style="stroke: #A80036; stroke-width: 1.0;"/><path d="M24.7656,22.9688 Q24.9219,22.75 25.1094,22.6406 Q25.2969,22.5313 25.5156,22.5313 Q25.8906,22.5313 26.125,22.7969 Q26.3594,23.0469 26.3594,23.6563 L26.3594,25.1094 Q26.3594,25.7188 26.125,25.9844 Q25.8906,26.25 25.5156,26.25 Q25.1719,26.25 24.9688,26.0469 Q24.7656,25.8594 24.6563,25.3438 Q24.6094,24.9844 24.4219,24.7969 Q24.0938,24.4219 23.4844,24.2031 Q22.875,23.9844 22.25,23.9844 Q21.4844,23.9844 20.8438,24.3125 Q20.2188,24.6406 19.7188,25.3906 Q19.2344,26.1406 19.2344,27.1719 L19.2344,28.2656 Q19.2344,29.5 20.125,30.3281 Q21.0156,31.1406 22.6094,31.1406 Q23.5469,31.1406 24.2031,30.8906 Q24.5938,30.7344 25.0156,30.2969 Q25.2813,30.0313 25.4219,29.9531 Q25.5781,29.875 25.7813,29.875 Q26.1094,29.875 26.3594,30.1406 Q26.625,30.3906 26.625,30.7344 Q26.625,31.0781 26.2813,31.4844 Q25.7813,32.0625 24.9844,32.3906 Q23.9063,32.8438 22.6094,32.8438 Q21.0938,32.8438 19.8906,32.2188 Q18.9063,31.7188 18.2188,30.6563 Q17.5313,29.5781 17.5313,28.2969 L17.5313,27.1406 Q17.5313,25.8125 18.1406,24.6719 Q18.7656,23.5156 19.8594,22.9063 Q20.9531,22.2813 22.1875,22.2813 Q22.9219,22.2813 23.5625,22.4531 Q24.2188,22.6094 24.7656,22.9688 Z "/><text fill="#000000" font-family="sans-serif" font-size="14" lengthAdjust="spacingAndGlyphs" textLength="107" x="41.5" y="26.5332">WorkProductImpl</text><text fill="#000000" font-family="sans-serif" font-size="10" lengthAdjust="spacingAndGlyphs" textLength="118" x="36" y="39.9902">org.eclipse.epf.uma.impl</text></a><!--MD5=[7d5025e540b3454eed0d705b0af82c46]
class org.eclipse.epf.uma.Outcome--><a href="..\Outcome.html" target="_top" title="..\Outcome.html" xlink:actuate="onRequest" xlink:href="..\Outcome.html" xlink:show="new" xlink:title="..\Outcome.html" xlink:type="simple"><rect codeLine="9" fill="#FEFECE" filter="url(#fmado4jgitxqw)" height="40.1875" id="org.eclipse.epf.uma.Outcome" style="stroke: #A80036; stroke-width: 1.5;" width="124" x="192" y="7"/><ellipse cx="207" cy="27.0938" fill="#B4A7E5" rx="11" ry="11" style="stroke: #A80036; stroke-width: 1.0;"/><path d="M207.9531,23.7344 L207.9531,30.3906 L209.6719,30.3906 Q210.2813,30.3906 210.5469,30.625 Q210.8125,30.8594 210.8125,31.25 Q210.8125,31.625 210.5469,31.8594 Q210.2813,32.0938 209.6719,32.0938 L204.5313,32.0938 Q203.9219,32.0938 203.6563,31.8594 Q203.3906,31.625 203.3906,31.2344 Q203.3906,30.8594 203.6563,30.625 Q203.9219,30.3906 204.5313,30.3906 L206.25,30.3906 L206.25,23.7344 L204.5313,23.7344 Q203.9219,23.7344 203.6563,23.5 Q203.3906,23.2656 203.3906,22.875 Q203.3906,22.5 203.6563,22.2656 Q203.9219,22.0313 204.5313,22.0313 L209.6719,22.0313 Q210.2813,22.0313 210.5469,22.2656 Q210.8125,22.5 210.8125,22.875 Q210.8125,23.2656 210.5469,23.5 Q210.2813,23.7344 209.6719,23.7344 L207.9531,23.7344 Z "/><text fill="#000000" font-family="sans-serif" font-size="14" font-style="italic" lengthAdjust="spacingAndGlyphs" textLength="57" x="238.5" y="26.5332">Outcome</text><text fill="#000000" font-family="sans-serif" font-size="10" font-style="italic" lengthAdjust="spacingAndGlyphs" textLength="92" x="221" y="39.9902">org.eclipse.epf.uma</text></a><!--MD5=[d1f36bdee91c82ce60745827bec6475d]
reverse link org.eclipse.epf.uma.impl.WorkProductImpl to org.eclipse.epf.uma.impl.OutcomeImpl--><path codeLine="11" d="M112.2,62.41 C125.22,77.26 139.98,94.07 151.04,106.68 " fill="none" id="org.eclipse.epf.uma.impl.WorkProductImpl-backto-org.eclipse.epf.uma.impl.OutcomeImpl" style="stroke: #A80036; stroke-width: 1.0;"/><polygon fill="none" points="106.92,67.01,98.99,47.36,117.44,57.78,106.92,67.01" style="stroke: #A80036; stroke-width: 1.0;"/><!--MD5=[29cd11bcdf995e0deb408edca1a3438c]
reverse link org.eclipse.epf.uma.Outcome to org.eclipse.epf.uma.impl.OutcomeImpl--><path codeLine="12" d="M223.8,62.41 C210.78,77.26 196.02,94.07 184.96,106.68 " fill="none" id="org.eclipse.epf.uma.Outcome-backto-org.eclipse.epf.uma.impl.OutcomeImpl" style="stroke: #A80036; stroke-width: 1.0; stroke-dasharray: 7.0,7.0;"/><polygon fill="none" points="218.56,57.78,237.01,47.36,229.08,67.01,218.56,57.78" style="stroke: #A80036; stroke-width: 1.0;"/><text fill="#888888" font-family="sans-serif" font-size="10" lengthAdjust="spacingAndGlyphs" textLength="190" x="63.5" y="170.5684">UMLDoclet 2.0.12, PlantUML 1.2020.16</text><!--MD5=[f1354daa31f29c04ed710bc2a0465fb9]
@startuml
    set namespaceSeparator none
    hide empty fields
    hide empty methods

    class "<size:14>OutcomeImpl\n<size:10>org.eclipse.epf.uma.impl" as org.eclipse.epf.uma.impl.OutcomeImpl [[OutcomeImpl.html]] {
    }

    class "<size:14>WorkProductImpl\n<size:10>org.eclipse.epf.uma.impl" as org.eclipse.epf.uma.impl.WorkProductImpl [[WorkProductImpl.html]]
    interface "<size:14>Outcome\n<size:10>org.eclipse.epf.uma" as org.eclipse.epf.uma.Outcome [[..\Outcome.html]]

    org.eclipse.epf.uma.impl.WorkProductImpl <|- - org.eclipse.epf.uma.impl.OutcomeImpl
    org.eclipse.epf.uma.Outcome <|.. org.eclipse.epf.uma.impl.OutcomeImpl

    center footer UMLDoclet 2.0.12, PlantUML 1.2020.16
@enduml

PlantUML version 1.2020.16(Sun Aug 23 22:20:43 CEST 2020)
(APACHE source distribution)
Java Runtime: Java(TM) SE Runtime Environment
JVM: Java HotSpot(TM) 64-Bit Server VM
Default Encoding: Cp1252
Language: es
Country: ES
--></g></svg>