<?xml version="1.0" encoding="UTF-8" standalone="no"?><svg xmlns="http://www.w3.org/2000/svg" xmlns:xlink="http://www.w3.org/1999/xlink" contentScriptType="application/ecmascript" contentStyleType="text/css" height="184px" preserveAspectRatio="none" style="width:381px;height:184px;" version="1.1" viewBox="0 0 381 184" width="381px" zoomAndPan="magnify"><defs><filter height="300%" id="fi5d1ozl5dq30" width="300%" x="-1" y="-1"><feGaussianBlur result="blurOut" stdDeviation="2.0"/><feColorMatrix in="blurOut" result="blurOut2" type="matrix" values="0 0 0 0 0 0 0 0 0 0 0 0 0 0 0 0 0 0 .4 0"/><feOffset dx="4.0" dy="4.0" in="blurOut2" result="blurOut3"/><feBlend in="SourceGraphic" in2="blurOut3" mode="normal"/></filter></defs><g><!--MD5=[2d15bc3cf53f3e8155d390d27215ffc3]
class org.eclipse.epf.uma.impl.PackageableElementImpl--><a href="PackageableElementImpl.html" target="_top" title="PackageableElementImpl.html" xlink:actuate="onRequest" xlink:href="PackageableElementImpl.html" xlink:show="new" xlink:title="PackageableElementImpl.html" xlink:type="simple"><rect codeLine="5" fill="#FEFECE" filter="url(#fi5d1ozl5dq30)" height="40.1875" id="org.eclipse.epf.uma.impl.PackageableElementImpl" style="stroke: #A80036; stroke-width: 1.5;" width="192" x="85" y="107"/><ellipse cx="100" cy="127.0938" fill="#A9DCDF" rx="11" ry="11" style="stroke: #A80036; stroke-width: 1.0;"/><path d="M102.1875,128.8594 L98.0469,128.8594 L97.625,129.8906 L98.0469,129.8906 Q98.6563,129.8906 98.9219,130.125 Q99.1875,130.3594 99.1875,130.75 Q99.1875,131.125 98.9219,131.3594 Q98.6563,131.5938 98.0469,131.5938 L95.75,131.5938 Q95.1406,131.5938 94.8906,131.3594 Q94.625,131.125 94.625,130.7344 Q94.625,130.3594 94.9063,130.125 Q95.1719,129.875 95.7969,129.8906 L98.4688,123.2344 L97.3594,123.2344 Q96.75,123.2344 96.4844,123 Q96.2188,122.7656 96.2188,122.375 Q96.2188,122 96.4844,121.7656 Q96.75,121.5313 97.3594,121.5313 L101.0313,121.5313 L104.4219,129.8906 Q105.0156,129.8906 105.2031,130.0313 Q105.5938,130.2969 105.5938,130.75 Q105.5938,131.125 105.3281,131.3594 Q105.0781,131.5938 104.4688,131.5938 L102.1719,131.5938 Q101.5625,131.5938 101.2969,131.3594 Q101.0313,131.125 101.0313,130.7344 Q101.0313,130.3594 101.2969,130.125 Q101.5625,129.8906 102.1719,129.8906 L102.5938,129.8906 L102.1875,128.8594 Z M101.4688,127.1563 L100.1094,123.7813 L98.7344,127.1563 L101.4688,127.1563 Z "/><text fill="#000000" font-family="sans-serif" font-size="14" font-style="italic" lengthAdjust="spacingAndGlyphs" textLength="160" x="114" y="126.5332">PackageableElementImpl</text><text fill="#000000" font-family="sans-serif" font-size="10" font-style="italic" lengthAdjust="spacingAndGlyphs" textLength="114" x="137" y="139.9902">org.eclipse.epf.uma.impl</text></a><!--MD5=[7b8dc9f90652c6c551d4d35fcd3f0e8e]
class org.eclipse.epf.uma.impl.NamedElementImpl--><a href="NamedElementImpl.html" target="_top" title="NamedElementImpl.html" xlink:actuate="onRequest" xlink:href="NamedElementImpl.html" xlink:show="new" xlink:title="NamedElementImpl.html" xlink:type="simple"><rect codeLine="8" fill="#FEFECE" filter="url(#fi5d1ozl5dq30)" height="40.1875" id="org.eclipse.epf.uma.impl.NamedElementImpl" style="stroke: #A80036; stroke-width: 1.5;" width="154" x="7" y="7"/><ellipse cx="22" cy="27.0938" fill="#A9DCDF" rx="11" ry="11" style="stroke: #A80036; stroke-width: 1.0;"/><path d="M24.1875,28.8594 L20.0469,28.8594 L19.625,29.8906 L20.0469,29.8906 Q20.6563,29.8906 20.9219,30.125 Q21.1875,30.3594 21.1875,30.75 Q21.1875,31.125 20.9219,31.3594 Q20.6563,31.5938 20.0469,31.5938 L17.75,31.5938 Q17.1406,31.5938 16.8906,31.3594 Q16.625,31.125 16.625,30.7344 Q16.625,30.3594 16.9063,30.125 Q17.1719,29.875 17.7969,29.8906 L20.4688,23.2344 L19.3594,23.2344 Q18.75,23.2344 18.4844,23 Q18.2188,22.7656 18.2188,22.375 Q18.2188,22 18.4844,21.7656 Q18.75,21.5313 19.3594,21.5313 L23.0313,21.5313 L26.4219,29.8906 Q27.0156,29.8906 27.2031,30.0313 Q27.5938,30.2969 27.5938,30.75 Q27.5938,31.125 27.3281,31.3594 Q27.0781,31.5938 26.4688,31.5938 L24.1719,31.5938 Q23.5625,31.5938 23.2969,31.3594 Q23.0313,31.125 23.0313,30.7344 Q23.0313,30.3594 23.2969,30.125 Q23.5625,29.8906 24.1719,29.8906 L24.5938,29.8906 L24.1875,28.8594 Z M23.4688,27.1563 L22.1094,23.7813 L20.7344,27.1563 L23.4688,27.1563 Z "/><text fill="#000000" font-family="sans-serif" font-size="14" font-style="italic" lengthAdjust="spacingAndGlyphs" textLength="122" x="36" y="26.5332">NamedElementImpl</text><text fill="#000000" font-family="sans-serif" font-size="10" font-style="italic" lengthAdjust="spacingAndGlyphs" textLength="114" x="40" y="39.9902">org.eclipse.epf.uma.impl</text></a><!--MD5=[7e71af605c2be934f9beeddf0fc62558]
class org.eclipse.epf.uma.PackageableElement--><a href="..\PackageableElement.html" target="_top" title="..\PackageableElement.html" xlink:actuate="onRequest" xlink:href="..\PackageableElement.html" xlink:show="new" xlink:title="..\PackageableElement.html" xlink:type="simple"><rect codeLine="9" fill="#FEFECE" filter="url(#fi5d1ozl5dq30)" height="40.1875" id="org.eclipse.epf.uma.PackageableElement" style="stroke: #A80036; stroke-width: 1.5;" width="166" x="196" y="7"/><ellipse cx="211" cy="27.0938" fill="#B4A7E5" rx="11" ry="11" style="stroke: #A80036; stroke-width: 1.0;"/><path d="M211.9531,23.7344 L211.9531,30.3906 L213.6719,30.3906 Q214.2813,30.3906 214.5469,30.625 Q214.8125,30.8594 214.8125,31.25 Q214.8125,31.625 214.5469,31.8594 Q214.2813,32.0938 213.6719,32.0938 L208.5313,32.0938 Q207.9219,32.0938 207.6563,31.8594 Q207.3906,31.625 207.3906,31.2344 Q207.3906,30.8594 207.6563,30.625 Q207.9219,30.3906 208.5313,30.3906 L210.25,30.3906 L210.25,23.7344 L208.5313,23.7344 Q207.9219,23.7344 207.6563,23.5 Q207.3906,23.2656 207.3906,22.875 Q207.3906,22.5 207.6563,22.2656 Q207.9219,22.0313 208.5313,22.0313 L213.6719,22.0313 Q214.2813,22.0313 214.5469,22.2656 Q214.8125,22.5 214.8125,22.875 Q214.8125,23.2656 214.5469,23.5 Q214.2813,23.7344 213.6719,23.7344 L211.9531,23.7344 Z "/><text fill="#000000" font-family="sans-serif" font-size="14" font-style="italic" lengthAdjust="spacingAndGlyphs" textLength="134" x="225" y="26.5332">PackageableElement</text><text fill="#000000" font-family="sans-serif" font-size="10" font-style="italic" lengthAdjust="spacingAndGlyphs" textLength="92" x="246" y="39.9902">org.eclipse.epf.uma</text></a><!--MD5=[adf31a7d64d55a5d1c4a042b3ae46b0e]
reverse link org.eclipse.epf.uma.impl.NamedElementImpl to org.eclipse.epf.uma.impl.PackageableElementImpl--><path codeLine="11" d="M117.59,61.94 C132.4,76.9 149.26,93.94 161.88,106.68 " fill="none" id="org.eclipse.epf.uma.impl.NamedElementImpl-backto-org.eclipse.epf.uma.impl.PackageableElementImpl" style="stroke: #A80036; stroke-width: 1.0;"/><polygon fill="none" points="112.26,66.5,103.16,47.36,122.21,56.65,112.26,66.5" style="stroke: #A80036; stroke-width: 1.0;"/><!--MD5=[7cefc5ab9820cf3ca9fc2ef33ec42534]
reverse link org.eclipse.epf.uma.PackageableElement to org.eclipse.epf.uma.impl.PackageableElementImpl--><path codeLine="12" d="M245.06,61.94 C230.1,76.9 213.06,93.94 200.32,106.68 " fill="none" id="org.eclipse.epf.uma.PackageableElement-backto-org.eclipse.epf.uma.impl.PackageableElementImpl" style="stroke: #A80036; stroke-width: 1.0; stroke-dasharray: 7.0,7.0;"/><polygon fill="none" points="240.55,56.55,259.64,47.36,250.45,66.45,240.55,56.55" style="stroke: #A80036; stroke-width: 1.0;"/><text fill="#888888" font-family="sans-serif" font-size="10" lengthAdjust="spacingAndGlyphs" textLength="190" x="86.5" y="170.5684">UMLDoclet 2.0.12, PlantUML 1.2020.16</text><!--MD5=[a2d3f5d0b8af618b9f36204e43346e34]
@startuml
    set namespaceSeparator none
    hide empty fields
    hide empty methods

    abstract class "<size:14>PackageableElementImpl\n<size:10>org.eclipse.epf.uma.impl" as org.eclipse.epf.uma.impl.PackageableElementImpl [[PackageableElementImpl.html]] {
    }

    abstract class "<size:14>NamedElementImpl\n<size:10>org.eclipse.epf.uma.impl" as org.eclipse.epf.uma.impl.NamedElementImpl [[NamedElementImpl.html]]
    interface "<size:14>PackageableElement\n<size:10>org.eclipse.epf.uma" as org.eclipse.epf.uma.PackageableElement [[..\PackageableElement.html]]

    org.eclipse.epf.uma.impl.NamedElementImpl <|- - org.eclipse.epf.uma.impl.PackageableElementImpl
    org.eclipse.epf.uma.PackageableElement <|.. org.eclipse.epf.uma.impl.PackageableElementImpl

    center footer UMLDoclet 2.0.12, PlantUML 1.2020.16
@enduml

PlantUML version 1.2020.16(Sun Aug 23 22:20:43 CEST 2020)
(APACHE source distribution)
Java Runtime: Java(TM) SE Runtime Environment
JVM: Java HotSpot(TM) 64-Bit Server VM
Default Encoding: Cp1252
Language: es
Country: ES
--></g></svg>