<?xml version="1.0" encoding="UTF-8" standalone="no"?><svg xmlns="http://www.w3.org/2000/svg" xmlns:xlink="http://www.w3.org/1999/xlink" contentScriptType="application/ecmascript" contentStyleType="text/css" height="421px" preserveAspectRatio="none" style="width:373px;height:421px;" version="1.1" viewBox="0 0 373 421" width="373px" zoomAndPan="magnify"><defs><filter height="300%" id="fle4a49q4j319" width="300%" x="-1" y="-1"><feGaussianBlur result="blurOut" stdDeviation="2.0"/><feColorMatrix in="blurOut" result="blurOut2" type="matrix" values="0 0 0 0 0 0 0 0 0 0 0 0 0 0 0 0 0 0 .4 0"/><feOffset dx="4.0" dy="4.0" in="blurOut2" result="blurOut3"/><feBlend in="SourceGraphic" in2="blurOut3" mode="normal"/></filter></defs><g><!--MD5=[c557ea5677b431c77bb3151b5ad0f8fb]
class org.eclipse.epf.uma.impl.PlanningDataImpl--><a href="PlanningDataImpl.html" target="_top" title="PlanningDataImpl.html" xlink:actuate="onRequest" xlink:href="PlanningDataImpl.html" xlink:show="new" xlink:title="PlanningDataImpl.html" xlink:type="simple"><rect codeLine="5" fill="#FEFECE" filter="url(#fle4a49q4j319)" height="186.5469" id="org.eclipse.epf.uma.impl.PlanningDataImpl" style="stroke: #A80036; stroke-width: 1.5;" width="193" x="85.5" y="198"/><ellipse cx="119.85" cy="218.0938" fill="#ADD1B2" rx="11" ry="11" style="stroke: #A80036; stroke-width: 1.0;"/><path d="M122.6156,213.9688 Q122.7719,213.75 122.9594,213.6406 Q123.1469,213.5313 123.3656,213.5313 Q123.7406,213.5313 123.975,213.7969 Q124.2094,214.0469 124.2094,214.6563 L124.2094,216.1094 Q124.2094,216.7188 123.975,216.9844 Q123.7406,217.25 123.3656,217.25 Q123.0219,217.25 122.8188,217.0469 Q122.6156,216.8594 122.5063,216.3438 Q122.4594,215.9844 122.2719,215.7969 Q121.9438,215.4219 121.3344,215.2031 Q120.725,214.9844 120.1,214.9844 Q119.3344,214.9844 118.6938,215.3125 Q118.0688,215.6406 117.5688,216.3906 Q117.0844,217.1406 117.0844,218.1719 L117.0844,219.2656 Q117.0844,220.5 117.975,221.3281 Q118.8656,222.1406 120.4594,222.1406 Q121.3969,222.1406 122.0531,221.8906 Q122.4438,221.7344 122.8656,221.2969 Q123.1313,221.0313 123.2719,220.9531 Q123.4281,220.875 123.6313,220.875 Q123.9594,220.875 124.2094,221.1406 Q124.475,221.3906 124.475,221.7344 Q124.475,222.0781 124.1313,222.4844 Q123.6313,223.0625 122.8344,223.3906 Q121.7563,223.8438 120.4594,223.8438 Q118.9438,223.8438 117.7406,223.2188 Q116.7563,222.7188 116.0688,221.6563 Q115.3813,220.5781 115.3813,219.2969 L115.3813,218.1406 Q115.3813,216.8125 115.9906,215.6719 Q116.6156,214.5156 117.7094,213.9063 Q118.8031,213.2813 120.0375,213.2813 Q120.7719,213.2813 121.4125,213.4531 Q122.0688,213.6094 122.6156,213.9688 Z "/><text fill="#000000" font-family="sans-serif" font-size="14" lengthAdjust="spacingAndGlyphs" textLength="110" x="142.15" y="217.5332">PlanningDataImpl</text><text fill="#000000" font-family="sans-serif" font-size="10" lengthAdjust="spacingAndGlyphs" textLength="118" x="138.15" y="230.9902">org.eclipse.epf.uma.impl</text><line style="stroke: #A80036; stroke-width: 1.5;" x1="86.5" x2="277.5" y1="238.1875" y2="238.1875"/><ellipse cx="96.5" cy="249.1875" fill="#84BE84" rx="3" ry="3" style="stroke: #038048; stroke-width: 1.0;"/><text fill="#000000" font-family="sans-serif" font-size="11" lengthAdjust="spacingAndGlyphs" textLength="96" x="105.5" y="253.6064">getStartDate(): Date</text><ellipse cx="96.5" cy="263.0234" fill="#84BE84" rx="3" ry="3" style="stroke: #038048; stroke-width: 1.0;"/><text fill="#000000" font-family="sans-serif" font-size="11" lengthAdjust="spacingAndGlyphs" textLength="116" x="105.5" y="267.4424">setStartDate(Date): void</text><ellipse cx="96.5" cy="276.8594" fill="#84BE84" rx="3" ry="3" style="stroke: #038048; stroke-width: 1.0;"/><text fill="#000000" font-family="sans-serif" font-size="11" lengthAdjust="spacingAndGlyphs" textLength="101" x="105.5" y="281.2783">getFinishDate(): Date</text><ellipse cx="96.5" cy="290.6953" fill="#84BE84" rx="3" ry="3" style="stroke: #038048; stroke-width: 1.0;"/><text fill="#000000" font-family="sans-serif" font-size="11" lengthAdjust="spacingAndGlyphs" textLength="121" x="105.5" y="295.1143">setFinishDate(Date): void</text><ellipse cx="96.5" cy="304.5313" fill="#84BE84" rx="3" ry="3" style="stroke: #038048; stroke-width: 1.0;"/><text fill="#000000" font-family="sans-serif" font-size="11" lengthAdjust="spacingAndGlyphs" textLength="64" x="105.5" y="308.9502">getRank(): int</text><ellipse cx="96.5" cy="318.3672" fill="#84BE84" rx="3" ry="3" style="stroke: #038048; stroke-width: 1.0;"/><text fill="#000000" font-family="sans-serif" font-size="11" lengthAdjust="spacingAndGlyphs" textLength="84" x="105.5" y="322.7861">setRank(int): void</text><ellipse cx="96.5" cy="332.2031" fill="#84BE84" rx="3" ry="3" style="stroke: #038048; stroke-width: 1.0;"/><text fill="#000000" font-family="sans-serif" font-size="11" lengthAdjust="spacingAndGlyphs" textLength="167" x="105.5" y="336.6221">eGet(int, boolean, boolean): Object</text><ellipse cx="96.5" cy="346.0391" fill="#84BE84" rx="3" ry="3" style="stroke: #038048; stroke-width: 1.0;"/><text fill="#000000" font-family="sans-serif" font-size="11" lengthAdjust="spacingAndGlyphs" textLength="104" x="105.5" y="350.458">eSet(int, Object): void</text><ellipse cx="96.5" cy="359.875" fill="#84BE84" rx="3" ry="3" style="stroke: #038048; stroke-width: 1.0;"/><text fill="#000000" font-family="sans-serif" font-size="11" lengthAdjust="spacingAndGlyphs" textLength="79" x="105.5" y="364.2939">eUnset(int): void</text><ellipse cx="96.5" cy="373.7109" fill="#84BE84" rx="3" ry="3" style="stroke: #038048; stroke-width: 1.0;"/><text fill="#000000" font-family="sans-serif" font-size="11" lengthAdjust="spacingAndGlyphs" textLength="93" x="105.5" y="378.1299">eIsSet(int): boolean</text></a><!--MD5=[8c3cf60cf2d9a35cbea2f14b42beac3e]
class org.eclipse.epf.uma.impl.ProcessElementImpl--><a href="ProcessElementImpl.html" target="_top" title="ProcessElementImpl.html" xlink:actuate="onRequest" xlink:href="ProcessElementImpl.html" xlink:show="new" xlink:title="ProcessElementImpl.html" xlink:type="simple"><rect codeLine="18" fill="#FEFECE" filter="url(#fle4a49q4j319)" height="40.1875" id="org.eclipse.epf.uma.impl.ProcessElementImpl" style="stroke: #A80036; stroke-width: 1.5;" width="160" x="7" y="52.5"/><ellipse cx="22" cy="72.5938" fill="#A9DCDF" rx="11" ry="11" style="stroke: #A80036; stroke-width: 1.0;"/><path d="M24.1875,74.3594 L20.0469,74.3594 L19.625,75.3906 L20.0469,75.3906 Q20.6563,75.3906 20.9219,75.625 Q21.1875,75.8594 21.1875,76.25 Q21.1875,76.625 20.9219,76.8594 Q20.6563,77.0938 20.0469,77.0938 L17.75,77.0938 Q17.1406,77.0938 16.8906,76.8594 Q16.625,76.625 16.625,76.2344 Q16.625,75.8594 16.9063,75.625 Q17.1719,75.375 17.7969,75.3906 L20.4688,68.7344 L19.3594,68.7344 Q18.75,68.7344 18.4844,68.5 Q18.2188,68.2656 18.2188,67.875 Q18.2188,67.5 18.4844,67.2656 Q18.75,67.0313 19.3594,67.0313 L23.0313,67.0313 L26.4219,75.3906 Q27.0156,75.3906 27.2031,75.5313 Q27.5938,75.7969 27.5938,76.25 Q27.5938,76.625 27.3281,76.8594 Q27.0781,77.0938 26.4688,77.0938 L24.1719,77.0938 Q23.5625,77.0938 23.2969,76.8594 Q23.0313,76.625 23.0313,76.2344 Q23.0313,75.8594 23.2969,75.625 Q23.5625,75.3906 24.1719,75.3906 L24.5938,75.3906 L24.1875,74.3594 Z M23.4688,72.6563 L22.1094,69.2813 L20.7344,72.6563 L23.4688,72.6563 Z "/><text fill="#000000" font-family="sans-serif" font-size="14" font-style="italic" lengthAdjust="spacingAndGlyphs" textLength="128" x="36" y="72.0332">ProcessElementImpl</text><text fill="#000000" font-family="sans-serif" font-size="10" font-style="italic" lengthAdjust="spacingAndGlyphs" textLength="114" x="43" y="85.4902">org.eclipse.epf.uma.impl</text></a><!--MD5=[e20b888b79f97f78703f4fb915a5c6c9]
class org.eclipse.epf.uma.PlanningData--><a href="..\PlanningData.html" target="_top" title="..\PlanningData.html" xlink:actuate="onRequest" xlink:href="..\PlanningData.html" xlink:show="new" xlink:title="..\PlanningData.html" xlink:type="simple"><rect codeLine="19" fill="#FEFECE" filter="url(#fle4a49q4j319)" height="131.2031" id="org.eclipse.epf.uma.PlanningData" style="stroke: #A80036; stroke-width: 1.5;" width="152" x="202" y="7"/><ellipse cx="229.6" cy="27.0938" fill="#B4A7E5" rx="11" ry="11" style="stroke: #A80036; stroke-width: 1.0;"/><path d="M230.5531,23.7344 L230.5531,30.3906 L232.2719,30.3906 Q232.8813,30.3906 233.1469,30.625 Q233.4125,30.8594 233.4125,31.25 Q233.4125,31.625 233.1469,31.8594 Q232.8813,32.0938 232.2719,32.0938 L227.1313,32.0938 Q226.5219,32.0938 226.2563,31.8594 Q225.9906,31.625 225.9906,31.2344 Q225.9906,30.8594 226.2563,30.625 Q226.5219,30.3906 227.1313,30.3906 L228.85,30.3906 L228.85,23.7344 L227.1313,23.7344 Q226.5219,23.7344 226.2563,23.5 Q225.9906,23.2656 225.9906,22.875 Q225.9906,22.5 226.2563,22.2656 Q226.5219,22.0313 227.1313,22.0313 L232.2719,22.0313 Q232.8813,22.0313 233.1469,22.2656 Q233.4125,22.5 233.4125,22.875 Q233.4125,23.2656 233.1469,23.5 Q232.8813,23.7344 232.2719,23.7344 L230.5531,23.7344 Z "/><text fill="#000000" font-family="sans-serif" font-size="14" font-style="italic" lengthAdjust="spacingAndGlyphs" textLength="85" x="249.9" y="26.5332">PlanningData</text><text fill="#000000" font-family="sans-serif" font-size="10" font-style="italic" lengthAdjust="spacingAndGlyphs" textLength="92" x="246.4" y="39.9902">org.eclipse.epf.uma</text><line style="stroke: #A80036; stroke-width: 1.5;" x1="203" x2="353" y1="47.1875" y2="47.1875"/><ellipse cx="213" cy="58.1875" fill="#84BE84" rx="3" ry="3" style="stroke: #038048; stroke-width: 1.0;"/><text fill="#000000" font-family="sans-serif" font-size="11" font-style="italic" lengthAdjust="spacingAndGlyphs" textLength="98" x="222" y="62.6064">getStartDate(): Date</text><ellipse cx="213" cy="72.0234" fill="#84BE84" rx="3" ry="3" style="stroke: #038048; stroke-width: 1.0;"/><text fill="#000000" font-family="sans-serif" font-size="11" font-style="italic" lengthAdjust="spacingAndGlyphs" textLength="118" x="222" y="76.4424">setStartDate(Date): void</text><ellipse cx="213" cy="85.8594" fill="#84BE84" rx="3" ry="3" style="stroke: #038048; stroke-width: 1.0;"/><text fill="#000000" font-family="sans-serif" font-size="11" font-style="italic" lengthAdjust="spacingAndGlyphs" textLength="106" x="222" y="90.2783">getFinishDate(): Date</text><ellipse cx="213" cy="99.6953" fill="#84BE84" rx="3" ry="3" style="stroke: #038048; stroke-width: 1.0;"/><text fill="#000000" font-family="sans-serif" font-size="11" font-style="italic" lengthAdjust="spacingAndGlyphs" textLength="126" x="222" y="104.1143">setFinishDate(Date): void</text><ellipse cx="213" cy="113.5313" fill="#84BE84" rx="3" ry="3" style="stroke: #038048; stroke-width: 1.0;"/><text fill="#000000" font-family="sans-serif" font-size="11" font-style="italic" lengthAdjust="spacingAndGlyphs" textLength="67" x="222" y="117.9502">getRank(): int</text><ellipse cx="213" cy="127.3672" fill="#84BE84" rx="3" ry="3" style="stroke: #038048; stroke-width: 1.0;"/><text fill="#000000" font-family="sans-serif" font-size="11" font-style="italic" lengthAdjust="spacingAndGlyphs" textLength="87" x="222" y="131.7861">setRank(int): void</text></a><!--MD5=[e0410c230f1ef6e6813e5be4931fcb41]
reverse link org.eclipse.epf.uma.impl.ProcessElementImpl to org.eclipse.epf.uma.impl.PlanningDataImpl--><path codeLine="28" d="M103.47,111.11 C113.97,135.1 128.07,167.31 141.42,197.82 " fill="none" id="org.eclipse.epf.uma.impl.ProcessElementImpl-backto-org.eclipse.epf.uma.impl.PlanningDataImpl" style="stroke: #A80036; stroke-width: 1.0;"/><polygon fill="none" points="97.04,113.89,95.43,92.76,109.86,108.27,97.04,113.89" style="stroke: #A80036; stroke-width: 1.0;"/><!--MD5=[4bd1371eff2bae1e9052b984d2d543d1]
reverse link org.eclipse.epf.uma.PlanningData to org.eclipse.epf.uma.impl.PlanningDataImpl--><path codeLine="29" d="M241.24,156.58 C235.29,170.04 229.09,184.05 223.05,197.72 " fill="none" id="org.eclipse.epf.uma.PlanningData-backto-org.eclipse.epf.uma.impl.PlanningDataImpl" style="stroke: #A80036; stroke-width: 1.0; stroke-dasharray: 7.0,7.0;"/><polygon fill="none" points="234.96,153.48,249.46,138.02,247.77,159.14,234.96,153.48" style="stroke: #A80036; stroke-width: 1.0;"/><text fill="#888888" font-family="sans-serif" font-size="10" lengthAdjust="spacingAndGlyphs" textLength="190" x="82.5" y="407.9277">UMLDoclet 2.0.12, PlantUML 1.2020.16</text><!--MD5=[875f72d839907d0af23974263da1929b]
@startuml
    set namespaceSeparator none
    hide empty fields
    hide empty methods

    class "<size:14>PlanningDataImpl\n<size:10>org.eclipse.epf.uma.impl" as org.eclipse.epf.uma.impl.PlanningDataImpl [[PlanningDataImpl.html]] {
        +getStartDate(): Date
        +setStartDate(Date): void
        +getFinishDate(): Date
        +setFinishDate(Date): void
        +getRank(): int
        +setRank(int): void
        +eGet(int, boolean, boolean): Object
        +eSet(int, Object): void
        +eUnset(int): void
        +eIsSet(int): boolean
    }

    abstract class "<size:14>ProcessElementImpl\n<size:10>org.eclipse.epf.uma.impl" as org.eclipse.epf.uma.impl.ProcessElementImpl [[ProcessElementImpl.html]]
    interface "<size:14>PlanningData\n<size:10>org.eclipse.epf.uma" as org.eclipse.epf.uma.PlanningData [[..\PlanningData.html]] {
        {abstract} +getStartDate(): Date
        {abstract} +setStartDate(Date): void
        {abstract} +getFinishDate(): Date
        {abstract} +setFinishDate(Date): void
        {abstract} +getRank(): int
        {abstract} +setRank(int): void
    }

    org.eclipse.epf.uma.impl.ProcessElementImpl <|- - org.eclipse.epf.uma.impl.PlanningDataImpl
    org.eclipse.epf.uma.PlanningData <|.. org.eclipse.epf.uma.impl.PlanningDataImpl

    center footer UMLDoclet 2.0.12, PlantUML 1.2020.16
@enduml

PlantUML version 1.2020.16(Sun Aug 23 22:20:43 CEST 2020)
(APACHE source distribution)
Java Runtime: Java(TM) SE Runtime Environment
JVM: Java HotSpot(TM) 64-Bit Server VM
Default Encoding: Cp1252
Language: es
Country: ES
--></g></svg>