<?xml version="1.0" encoding="UTF-8" standalone="no"?><svg xmlns="http://www.w3.org/2000/svg" xmlns:xlink="http://www.w3.org/1999/xlink" contentScriptType="application/ecmascript" contentStyleType="text/css" height="366px" preserveAspectRatio="none" style="width:405px;height:366px;" version="1.1" viewBox="0 0 405 366" width="405px" zoomAndPan="magnify"><defs><filter height="300%" id="fg2x9998vvxvz" width="300%" x="-1" y="-1"><feGaussianBlur result="blurOut" stdDeviation="2.0"/><feColorMatrix in="blurOut" result="blurOut2" type="matrix" values="0 0 0 0 0 0 0 0 0 0 0 0 0 0 0 0 0 0 .4 0"/><feOffset dx="4.0" dy="4.0" in="blurOut2" result="blurOut3"/><feBlend in="SourceGraphic" in2="blurOut3" mode="normal"/></filter></defs><g><!--MD5=[26f2f72c856100db9a89d9c786f32080]
class org.eclipse.epf.uma.impl.PointImpl--><a href="PointImpl.html" target="_top" title="PointImpl.html" xlink:actuate="onRequest" xlink:href="PointImpl.html" xlink:show="new" xlink:title="PointImpl.html" xlink:type="simple"><rect codeLine="5" fill="#FEFECE" filter="url(#fg2x9998vvxvz)" height="158.875" id="org.eclipse.epf.uma.impl.PointImpl" style="stroke: #A80036; stroke-width: 1.5;" width="193" x="123.5" y="171"/><ellipse cx="157.85" cy="191.0938" fill="#ADD1B2" rx="11" ry="11" style="stroke: #A80036; stroke-width: 1.0;"/><path d="M160.6156,186.9688 Q160.7719,186.75 160.9594,186.6406 Q161.1469,186.5313 161.3656,186.5313 Q161.7406,186.5313 161.975,186.7969 Q162.2094,187.0469 162.2094,187.6563 L162.2094,189.1094 Q162.2094,189.7188 161.975,189.9844 Q161.7406,190.25 161.3656,190.25 Q161.0219,190.25 160.8188,190.0469 Q160.6156,189.8594 160.5063,189.3438 Q160.4594,188.9844 160.2719,188.7969 Q159.9438,188.4219 159.3344,188.2031 Q158.725,187.9844 158.1,187.9844 Q157.3344,187.9844 156.6938,188.3125 Q156.0688,188.6406 155.5688,189.3906 Q155.0844,190.1406 155.0844,191.1719 L155.0844,192.2656 Q155.0844,193.5 155.975,194.3281 Q156.8656,195.1406 158.4594,195.1406 Q159.3969,195.1406 160.0531,194.8906 Q160.4438,194.7344 160.8656,194.2969 Q161.1313,194.0313 161.2719,193.9531 Q161.4281,193.875 161.6313,193.875 Q161.9594,193.875 162.2094,194.1406 Q162.475,194.3906 162.475,194.7344 Q162.475,195.0781 162.1313,195.4844 Q161.6313,196.0625 160.8344,196.3906 Q159.7563,196.8438 158.4594,196.8438 Q156.9438,196.8438 155.7406,196.2188 Q154.7563,195.7188 154.0688,194.6563 Q153.3813,193.5781 153.3813,192.2969 L153.3813,191.1406 Q153.3813,189.8125 153.9906,188.6719 Q154.6156,187.5156 155.7094,186.9063 Q156.8031,186.2813 158.0375,186.2813 Q158.7719,186.2813 159.4125,186.4531 Q160.0688,186.6094 160.6156,186.9688 Z "/><text fill="#000000" font-family="sans-serif" font-size="14" lengthAdjust="spacingAndGlyphs" textLength="57" x="206.65" y="190.5332">PointImpl</text><text fill="#000000" font-family="sans-serif" font-size="10" lengthAdjust="spacingAndGlyphs" textLength="118" x="176.15" y="203.9902">org.eclipse.epf.uma.impl</text><line style="stroke: #A80036; stroke-width: 1.5;" x1="124.5" x2="315.5" y1="211.1875" y2="211.1875"/><ellipse cx="134.5" cy="222.1875" fill="#84BE84" rx="3" ry="3" style="stroke: #038048; stroke-width: 1.0;"/><text fill="#000000" font-family="sans-serif" font-size="11" lengthAdjust="spacingAndGlyphs" textLength="69" x="143.5" y="226.6064">getX(): Double</text><ellipse cx="134.5" cy="236.0234" fill="#84BE84" rx="3" ry="3" style="stroke: #038048; stroke-width: 1.0;"/><text fill="#000000" font-family="sans-serif" font-size="11" lengthAdjust="spacingAndGlyphs" textLength="89" x="143.5" y="240.4424">setX(Double): void</text><ellipse cx="134.5" cy="249.8594" fill="#84BE84" rx="3" ry="3" style="stroke: #038048; stroke-width: 1.0;"/><text fill="#000000" font-family="sans-serif" font-size="11" lengthAdjust="spacingAndGlyphs" textLength="70" x="143.5" y="254.2783">getY(): Double</text><ellipse cx="134.5" cy="263.6953" fill="#84BE84" rx="3" ry="3" style="stroke: #038048; stroke-width: 1.0;"/><text fill="#000000" font-family="sans-serif" font-size="11" lengthAdjust="spacingAndGlyphs" textLength="90" x="143.5" y="268.1143">setY(Double): void</text><ellipse cx="134.5" cy="277.5313" fill="#84BE84" rx="3" ry="3" style="stroke: #038048; stroke-width: 1.0;"/><text fill="#000000" font-family="sans-serif" font-size="11" lengthAdjust="spacingAndGlyphs" textLength="167" x="143.5" y="281.9502">eGet(int, boolean, boolean): Object</text><ellipse cx="134.5" cy="291.3672" fill="#84BE84" rx="3" ry="3" style="stroke: #038048; stroke-width: 1.0;"/><text fill="#000000" font-family="sans-serif" font-size="11" lengthAdjust="spacingAndGlyphs" textLength="104" x="143.5" y="295.7861">eSet(int, Object): void</text><ellipse cx="134.5" cy="305.2031" fill="#84BE84" rx="3" ry="3" style="stroke: #038048; stroke-width: 1.0;"/><text fill="#000000" font-family="sans-serif" font-size="11" lengthAdjust="spacingAndGlyphs" textLength="79" x="143.5" y="309.6221">eUnset(int): void</text><ellipse cx="134.5" cy="319.0391" fill="#84BE84" rx="3" ry="3" style="stroke: #038048; stroke-width: 1.0;"/><text fill="#000000" font-family="sans-serif" font-size="11" lengthAdjust="spacingAndGlyphs" textLength="93" x="143.5" y="323.458">eIsSet(int): boolean</text></a><!--MD5=[ce4fdce4663ed797643b451cd3657dac]
class org.eclipse.emf.ecore.impl.MinimalEObjectImpl.Container--><rect codeLine="16" fill="#FEFECE" filter="url(#fg2x9998vvxvz)" height="40.1875" id="org.eclipse.emf.ecore.impl.MinimalEObjectImpl.Container" style="stroke: #A80036; stroke-width: 1.5;" width="220" x="7" y="39"/><ellipse cx="22" cy="59.0938" fill="#ADD1B2" rx="11" ry="11" style="stroke: #A80036; stroke-width: 1.0;"/><path d="M24.7656,54.9688 Q24.9219,54.75 25.1094,54.6406 Q25.2969,54.5313 25.5156,54.5313 Q25.8906,54.5313 26.125,54.7969 Q26.3594,55.0469 26.3594,55.6563 L26.3594,57.1094 Q26.3594,57.7188 26.125,57.9844 Q25.8906,58.25 25.5156,58.25 Q25.1719,58.25 24.9688,58.0469 Q24.7656,57.8594 24.6563,57.3438 Q24.6094,56.9844 24.4219,56.7969 Q24.0938,56.4219 23.4844,56.2031 Q22.875,55.9844 22.25,55.9844 Q21.4844,55.9844 20.8438,56.3125 Q20.2188,56.6406 19.7188,57.3906 Q19.2344,58.1406 19.2344,59.1719 L19.2344,60.2656 Q19.2344,61.5 20.125,62.3281 Q21.0156,63.1406 22.6094,63.1406 Q23.5469,63.1406 24.2031,62.8906 Q24.5938,62.7344 25.0156,62.2969 Q25.2813,62.0313 25.4219,61.9531 Q25.5781,61.875 25.7813,61.875 Q26.1094,61.875 26.3594,62.1406 Q26.625,62.3906 26.625,62.7344 Q26.625,63.0781 26.2813,63.4844 Q25.7813,64.0625 24.9844,64.3906 Q23.9063,64.8438 22.6094,64.8438 Q21.0938,64.8438 19.8906,64.2188 Q18.9063,63.7188 18.2188,62.6563 Q17.5313,61.5781 17.5313,60.2969 L17.5313,59.1406 Q17.5313,57.8125 18.1406,56.6719 Q18.7656,55.5156 19.8594,54.9063 Q20.9531,54.2813 22.1875,54.2813 Q22.9219,54.2813 23.5625,54.4531 Q24.2188,54.6094 24.7656,54.9688 Z "/><text fill="#000000" font-family="sans-serif" font-size="14" lengthAdjust="spacingAndGlyphs" textLength="188" x="36" y="58.5332">MinimalEObjectImpl.Container</text><text fill="#000000" font-family="sans-serif" font-size="10" lengthAdjust="spacingAndGlyphs" textLength="127" x="66.5" y="71.9902">org.eclipse.emf.ecore.impl</text><!--MD5=[83ec0ce65e0d580e959398d6919c6e02]
class org.eclipse.epf.uma.Point--><a href="..\Point.html" target="_top" title="..\Point.html" xlink:actuate="onRequest" xlink:href="..\Point.html" xlink:show="new" xlink:title="..\Point.html" xlink:type="simple"><rect codeLine="17" fill="#FEFECE" filter="url(#fg2x9998vvxvz)" height="103.5313" id="org.eclipse.epf.uma.Point" style="stroke: #A80036; stroke-width: 1.5;" width="124" x="262" y="7"/><ellipse cx="277" cy="27.0938" fill="#B4A7E5" rx="11" ry="11" style="stroke: #A80036; stroke-width: 1.0;"/><path d="M277.9531,23.7344 L277.9531,30.3906 L279.6719,30.3906 Q280.2813,30.3906 280.5469,30.625 Q280.8125,30.8594 280.8125,31.25 Q280.8125,31.625 280.5469,31.8594 Q280.2813,32.0938 279.6719,32.0938 L274.5313,32.0938 Q273.9219,32.0938 273.6563,31.8594 Q273.3906,31.625 273.3906,31.2344 Q273.3906,30.8594 273.6563,30.625 Q273.9219,30.3906 274.5313,30.3906 L276.25,30.3906 L276.25,23.7344 L274.5313,23.7344 Q273.9219,23.7344 273.6563,23.5 Q273.3906,23.2656 273.3906,22.875 Q273.3906,22.5 273.6563,22.2656 Q273.9219,22.0313 274.5313,22.0313 L279.6719,22.0313 Q280.2813,22.0313 280.5469,22.2656 Q280.8125,22.5 280.8125,22.875 Q280.8125,23.2656 280.5469,23.5 Q280.2813,23.7344 279.6719,23.7344 L277.9531,23.7344 Z "/><text fill="#000000" font-family="sans-serif" font-size="14" font-style="italic" lengthAdjust="spacingAndGlyphs" textLength="32" x="321" y="26.5332">Point</text><text fill="#000000" font-family="sans-serif" font-size="10" font-style="italic" lengthAdjust="spacingAndGlyphs" textLength="92" x="291" y="39.9902">org.eclipse.epf.uma</text><line style="stroke: #A80036; stroke-width: 1.5;" x1="263" x2="385" y1="47.1875" y2="47.1875"/><ellipse cx="273" cy="58.1875" fill="#84BE84" rx="3" ry="3" style="stroke: #038048; stroke-width: 1.0;"/><text fill="#000000" font-family="sans-serif" font-size="11" font-style="italic" lengthAdjust="spacingAndGlyphs" textLength="72" x="282" y="62.6064">getX(): Double</text><ellipse cx="273" cy="72.0234" fill="#84BE84" rx="3" ry="3" style="stroke: #038048; stroke-width: 1.0;"/><text fill="#000000" font-family="sans-serif" font-size="11" font-style="italic" lengthAdjust="spacingAndGlyphs" textLength="92" x="282" y="76.4424">setX(Double): void</text><ellipse cx="273" cy="85.8594" fill="#84BE84" rx="3" ry="3" style="stroke: #038048; stroke-width: 1.0;"/><text fill="#000000" font-family="sans-serif" font-size="11" font-style="italic" lengthAdjust="spacingAndGlyphs" textLength="72" x="282" y="90.2783">getY(): Double</text><ellipse cx="273" cy="99.6953" fill="#84BE84" rx="3" ry="3" style="stroke: #038048; stroke-width: 1.0;"/><text fill="#000000" font-family="sans-serif" font-size="11" font-style="italic" lengthAdjust="spacingAndGlyphs" textLength="92" x="282" y="104.1143">setY(Double): void</text></a><!--MD5=[469f4b93a2bfee2a8e9bb1070bd19f63]
reverse link org.eclipse.emf.ecore.impl.MinimalEObjectImpl.Container to org.eclipse.epf.uma.impl.PointImpl--><path codeLine="24" d="M137.06,96.9 C148.48,117.92 163.26,145.1 177.16,170.69 " fill="none" id="org.eclipse.emf.ecore.impl.MinimalEObjectImpl.Container-backto-org.eclipse.epf.uma.impl.PointImpl" style="stroke: #A80036; stroke-width: 1.0;"/><polygon fill="none" points="130.84,100.13,127.44,79.21,143.14,93.44,130.84,100.13" style="stroke: #A80036; stroke-width: 1.0;"/><!--MD5=[c8a735996ad206b357839472a6637047]
reverse link org.eclipse.epf.uma.Point to org.eclipse.epf.uma.impl.PointImpl--><path codeLine="25" d="M286.06,129.14 C278.64,142.66 270.8,156.93 263.23,170.74 " fill="none" id="org.eclipse.epf.uma.Point-backto-org.eclipse.epf.uma.impl.PointImpl" style="stroke: #A80036; stroke-width: 1.0; stroke-dasharray: 7.0,7.0;"/><polygon fill="none" points="280.1,125.45,295.86,111.28,292.37,132.18,280.1,125.45" style="stroke: #A80036; stroke-width: 1.0;"/><text fill="#888888" font-family="sans-serif" font-size="10" lengthAdjust="spacingAndGlyphs" textLength="190" x="98.5" y="353.2559">UMLDoclet 2.0.12, PlantUML 1.2020.16</text><!--MD5=[6e800142196d9531c48b3e6d8c6e27eb]
@startuml
    set namespaceSeparator none
    hide empty fields
    hide empty methods

    class "<size:14>PointImpl\n<size:10>org.eclipse.epf.uma.impl" as org.eclipse.epf.uma.impl.PointImpl [[PointImpl.html]] {
        +getX(): Double
        +setX(Double): void
        +getY(): Double
        +setY(Double): void
        +eGet(int, boolean, boolean): Object
        +eSet(int, Object): void
        +eUnset(int): void
        +eIsSet(int): boolean
    }

    class "<size:14>MinimalEObjectImpl.Container\n<size:10>org.eclipse.emf.ecore.impl" as org.eclipse.emf.ecore.impl.MinimalEObjectImpl.Container
    interface "<size:14>Point\n<size:10>org.eclipse.epf.uma" as org.eclipse.epf.uma.Point [[..\Point.html]] {
        {abstract} +getX(): Double
        {abstract} +setX(Double): void
        {abstract} +getY(): Double
        {abstract} +setY(Double): void
    }

    org.eclipse.emf.ecore.impl.MinimalEObjectImpl.Container <|- - org.eclipse.epf.uma.impl.PointImpl
    org.eclipse.epf.uma.Point <|.. org.eclipse.epf.uma.impl.PointImpl

    center footer UMLDoclet 2.0.12, PlantUML 1.2020.16
@enduml

PlantUML version 1.2020.16(Sun Aug 23 22:20:43 CEST 2020)
(APACHE source distribution)
Java Runtime: Java(TM) SE Runtime Environment
JVM: Java HotSpot(TM) 64-Bit Server VM
Default Encoding: Cp1252
Language: es
Country: ES
--></g></svg>