<?xml version="1.0" encoding="UTF-8" standalone="no"?><svg xmlns="http://www.w3.org/2000/svg" xmlns:xlink="http://www.w3.org/1999/xlink" contentScriptType="application/ecmascript" contentStyleType="text/css" height="352px" preserveAspectRatio="none" style="width:402px;height:352px;" version="1.1" viewBox="0 0 402 352" width="402px" zoomAndPan="magnify"><defs><filter height="300%" id="f1lchaw4t7016u" width="300%" x="-1" y="-1"><feGaussianBlur result="blurOut" stdDeviation="2.0"/><feColorMatrix in="blurOut" result="blurOut2" type="matrix" values="0 0 0 0 0 0 0 0 0 0 0 0 0 0 0 0 0 0 .4 0"/><feOffset dx="4.0" dy="4.0" in="blurOut2" result="blurOut3"/><feBlend in="SourceGraphic" in2="blurOut3" mode="normal"/></filter></defs><g><!--MD5=[913b90eee373dabd091342fa6d618259]
class org.eclipse.epf.uma.impl.PolylineImpl--><a href="PolylineImpl.html" target="_top" title="PolylineImpl.html" xlink:actuate="onRequest" xlink:href="PolylineImpl.html" xlink:show="new" xlink:title="PolylineImpl.html" xlink:type="simple"><rect codeLine="5" fill="#FEFECE" filter="url(#f1lchaw4t7016u)" height="158.875" id="org.eclipse.epf.uma.impl.PolylineImpl" style="stroke: #A80036; stroke-width: 1.5;" width="376" x="7" y="157"/><ellipse cx="131.75" cy="177.0938" fill="#ADD1B2" rx="11" ry="11" style="stroke: #A80036; stroke-width: 1.0;"/><path d="M134.5156,172.9688 Q134.6719,172.75 134.8594,172.6406 Q135.0469,172.5313 135.2656,172.5313 Q135.6406,172.5313 135.875,172.7969 Q136.1094,173.0469 136.1094,173.6563 L136.1094,175.1094 Q136.1094,175.7188 135.875,175.9844 Q135.6406,176.25 135.2656,176.25 Q134.9219,176.25 134.7188,176.0469 Q134.5156,175.8594 134.4063,175.3438 Q134.3594,174.9844 134.1719,174.7969 Q133.8438,174.4219 133.2344,174.2031 Q132.625,173.9844 132,173.9844 Q131.2344,173.9844 130.5938,174.3125 Q129.9688,174.6406 129.4688,175.3906 Q128.9844,176.1406 128.9844,177.1719 L128.9844,178.2656 Q128.9844,179.5 129.875,180.3281 Q130.7656,181.1406 132.3594,181.1406 Q133.2969,181.1406 133.9531,180.8906 Q134.3438,180.7344 134.7656,180.2969 Q135.0313,180.0313 135.1719,179.9531 Q135.3281,179.875 135.5313,179.875 Q135.8594,179.875 136.1094,180.1406 Q136.375,180.3906 136.375,180.7344 Q136.375,181.0781 136.0313,181.4844 Q135.5313,182.0625 134.7344,182.3906 Q133.6563,182.8438 132.3594,182.8438 Q130.8438,182.8438 129.6406,182.2188 Q128.6563,181.7188 127.9688,180.6563 Q127.2813,179.5781 127.2813,178.2969 L127.2813,177.1406 Q127.2813,175.8125 127.8906,174.6719 Q128.5156,173.5156 129.6094,172.9063 Q130.7031,172.2813 131.9375,172.2813 Q132.6719,172.2813 133.3125,172.4531 Q133.9688,172.6094 134.5156,172.9688 Z "/><text fill="#000000" font-family="sans-serif" font-size="14" lengthAdjust="spacingAndGlyphs" textLength="74" x="174.25" y="176.5332">PolylineImpl</text><text fill="#000000" font-family="sans-serif" font-size="10" lengthAdjust="spacingAndGlyphs" textLength="118" x="152.25" y="189.9902">org.eclipse.epf.uma.impl</text><line style="stroke: #A80036; stroke-width: 1.5;" x1="8" x2="382" y1="197.1875" y2="197.1875"/><ellipse cx="18" cy="208.1875" fill="#84BE84" rx="3" ry="3" style="stroke: #038048; stroke-width: 1.0;"/><text fill="#000000" font-family="sans-serif" font-size="11" lengthAdjust="spacingAndGlyphs" textLength="101" x="27" y="212.6064">getClosed(): Boolean</text><ellipse cx="18" cy="222.0234" fill="#84BE84" rx="3" ry="3" style="stroke: #038048; stroke-width: 1.0;"/><text fill="#000000" font-family="sans-serif" font-size="11" lengthAdjust="spacingAndGlyphs" textLength="121" x="27" y="226.4424">setClosed(Boolean): void</text><ellipse cx="18" cy="235.8594" fill="#84BE84" rx="3" ry="3" style="stroke: #038048; stroke-width: 1.0;"/><text fill="#000000" font-family="sans-serif" font-size="11" lengthAdjust="spacingAndGlyphs" textLength="138" x="27" y="240.2783">getWaypoints(): EList&lt;Point&gt;</text><ellipse cx="18" cy="249.6953" fill="#84BE84" rx="3" ry="3" style="stroke: #038048; stroke-width: 1.0;"/><text fill="#000000" font-family="sans-serif" font-size="11" lengthAdjust="spacingAndGlyphs" textLength="350" x="27" y="254.1143">eInverseRemove(InternalEObject, int, NotificationChain): NotificationChain</text><ellipse cx="18" cy="263.5313" fill="#84BE84" rx="3" ry="3" style="stroke: #038048; stroke-width: 1.0;"/><text fill="#000000" font-family="sans-serif" font-size="11" lengthAdjust="spacingAndGlyphs" textLength="167" x="27" y="267.9502">eGet(int, boolean, boolean): Object</text><ellipse cx="18" cy="277.3672" fill="#84BE84" rx="3" ry="3" style="stroke: #038048; stroke-width: 1.0;"/><text fill="#000000" font-family="sans-serif" font-size="11" lengthAdjust="spacingAndGlyphs" textLength="104" x="27" y="281.7861">eSet(int, Object): void</text><ellipse cx="18" cy="291.2031" fill="#84BE84" rx="3" ry="3" style="stroke: #038048; stroke-width: 1.0;"/><text fill="#000000" font-family="sans-serif" font-size="11" lengthAdjust="spacingAndGlyphs" textLength="79" x="27" y="295.6221">eUnset(int): void</text><ellipse cx="18" cy="305.0391" fill="#84BE84" rx="3" ry="3" style="stroke: #038048; stroke-width: 1.0;"/><text fill="#000000" font-family="sans-serif" font-size="11" lengthAdjust="spacingAndGlyphs" textLength="93" x="27" y="309.458">eIsSet(int): boolean</text></a><!--MD5=[4972c8e3c72ba8ac3368e868ad780726]
class org.eclipse.epf.uma.impl.GraphicPrimitiveImpl--><a href="GraphicPrimitiveImpl.html" target="_top" title="GraphicPrimitiveImpl.html" xlink:actuate="onRequest" xlink:href="GraphicPrimitiveImpl.html" xlink:show="new" xlink:title="GraphicPrimitiveImpl.html" xlink:type="simple"><rect codeLine="16" fill="#FEFECE" filter="url(#f1lchaw4t7016u)" height="40.1875" id="org.eclipse.epf.uma.impl.GraphicPrimitiveImpl" style="stroke: #A80036; stroke-width: 1.5;" width="160" x="15" y="32"/><ellipse cx="30" cy="52.0938" fill="#A9DCDF" rx="11" ry="11" style="stroke: #A80036; stroke-width: 1.0;"/><path d="M32.1875,53.8594 L28.0469,53.8594 L27.625,54.8906 L28.0469,54.8906 Q28.6563,54.8906 28.9219,55.125 Q29.1875,55.3594 29.1875,55.75 Q29.1875,56.125 28.9219,56.3594 Q28.6563,56.5938 28.0469,56.5938 L25.75,56.5938 Q25.1406,56.5938 24.8906,56.3594 Q24.625,56.125 24.625,55.7344 Q24.625,55.3594 24.9063,55.125 Q25.1719,54.875 25.7969,54.8906 L28.4688,48.2344 L27.3594,48.2344 Q26.75,48.2344 26.4844,48 Q26.2188,47.7656 26.2188,47.375 Q26.2188,47 26.4844,46.7656 Q26.75,46.5313 27.3594,46.5313 L31.0313,46.5313 L34.4219,54.8906 Q35.0156,54.8906 35.2031,55.0313 Q35.5938,55.2969 35.5938,55.75 Q35.5938,56.125 35.3281,56.3594 Q35.0781,56.5938 34.4688,56.5938 L32.1719,56.5938 Q31.5625,56.5938 31.2969,56.3594 Q31.0313,56.125 31.0313,55.7344 Q31.0313,55.3594 31.2969,55.125 Q31.5625,54.8906 32.1719,54.8906 L32.5938,54.8906 L32.1875,53.8594 Z M31.4688,52.1563 L30.1094,48.7813 L28.7344,52.1563 L31.4688,52.1563 Z "/><text fill="#000000" font-family="sans-serif" font-size="14" font-style="italic" lengthAdjust="spacingAndGlyphs" textLength="128" x="44" y="51.5332">GraphicPrimitiveImpl</text><text fill="#000000" font-family="sans-serif" font-size="10" font-style="italic" lengthAdjust="spacingAndGlyphs" textLength="114" x="51" y="64.9902">org.eclipse.epf.uma.impl</text></a><!--MD5=[ab480a400fe2a365cf0b540532557048]
class org.eclipse.epf.uma.Polyline--><a href="..\Polyline.html" target="_top" title="..\Polyline.html" xlink:actuate="onRequest" xlink:href="..\Polyline.html" xlink:show="new" xlink:title="..\Polyline.html" xlink:type="simple"><rect codeLine="17" fill="#FEFECE" filter="url(#f1lchaw4t7016u)" height="89.6953" id="org.eclipse.epf.uma.Polyline" style="stroke: #A80036; stroke-width: 1.5;" width="169" x="210.5" y="7"/><ellipse cx="245.75" cy="27.0938" fill="#B4A7E5" rx="11" ry="11" style="stroke: #A80036; stroke-width: 1.0;"/><path d="M246.7031,23.7344 L246.7031,30.3906 L248.4219,30.3906 Q249.0313,30.3906 249.2969,30.625 Q249.5625,30.8594 249.5625,31.25 Q249.5625,31.625 249.2969,31.8594 Q249.0313,32.0938 248.4219,32.0938 L243.2813,32.0938 Q242.6719,32.0938 242.4063,31.8594 Q242.1406,31.625 242.1406,31.2344 Q242.1406,30.8594 242.4063,30.625 Q242.6719,30.3906 243.2813,30.3906 L245,30.3906 L245,23.7344 L243.2813,23.7344 Q242.6719,23.7344 242.4063,23.5 Q242.1406,23.2656 242.1406,22.875 Q242.1406,22.5 242.4063,22.2656 Q242.6719,22.0313 243.2813,22.0313 L248.4219,22.0313 Q249.0313,22.0313 249.2969,22.2656 Q249.5625,22.5 249.5625,22.875 Q249.5625,23.2656 249.2969,23.5 Q249.0313,23.7344 248.4219,23.7344 L246.7031,23.7344 Z "/><text fill="#000000" font-family="sans-serif" font-size="14" font-style="italic" lengthAdjust="spacingAndGlyphs" textLength="49" x="285.75" y="26.5332">Polyline</text><text fill="#000000" font-family="sans-serif" font-size="10" font-style="italic" lengthAdjust="spacingAndGlyphs" textLength="92" x="264.25" y="39.9902">org.eclipse.epf.uma</text><line style="stroke: #A80036; stroke-width: 1.5;" x1="211.5" x2="378.5" y1="47.1875" y2="47.1875"/><ellipse cx="221.5" cy="58.1875" fill="#84BE84" rx="3" ry="3" style="stroke: #038048; stroke-width: 1.0;"/><text fill="#000000" font-family="sans-serif" font-size="11" font-style="italic" lengthAdjust="spacingAndGlyphs" textLength="104" x="230.5" y="62.6064">getClosed(): Boolean</text><ellipse cx="221.5" cy="72.0234" fill="#84BE84" rx="3" ry="3" style="stroke: #038048; stroke-width: 1.0;"/><text fill="#000000" font-family="sans-serif" font-size="11" font-style="italic" lengthAdjust="spacingAndGlyphs" textLength="124" x="230.5" y="76.4424">setClosed(Boolean): void</text><ellipse cx="221.5" cy="85.8594" fill="#84BE84" rx="3" ry="3" style="stroke: #038048; stroke-width: 1.0;"/><text fill="#000000" font-family="sans-serif" font-size="11" font-style="italic" lengthAdjust="spacingAndGlyphs" textLength="143" x="230.5" y="90.2783">getWaypoints(): EList&lt;Point&gt;</text></a><!--MD5=[8ce8de4b31203a6806bb9606aaee20c6]
reverse link org.eclipse.epf.uma.impl.GraphicPrimitiveImpl to org.eclipse.epf.uma.impl.PolylineImpl--><path codeLine="23" d="M115.19,89.85 C125.76,109.14 139.12,133.52 151.88,156.8 " fill="none" id="org.eclipse.epf.uma.impl.GraphicPrimitiveImpl-backto-org.eclipse.epf.uma.impl.PolylineImpl" style="stroke: #A80036; stroke-width: 1.0;"/><polygon fill="none" points="108.98,93.09,105.51,72.19,121.26,86.36,108.98,93.09" style="stroke: #A80036; stroke-width: 1.0;"/><!--MD5=[3a4033e690a348744bf7372f2c9beda2]
reverse link org.eclipse.epf.uma.Polyline to org.eclipse.epf.uma.impl.PolylineImpl--><path codeLine="24" d="M261.11,114.84 C253.73,128.32 245.81,142.77 238.12,156.8 " fill="none" id="org.eclipse.epf.uma.Polyline-backto-org.eclipse.epf.uma.impl.PolylineImpl" style="stroke: #A80036; stroke-width: 1.0; stroke-dasharray: 7.0,7.0;"/><polygon fill="none" points="255.04,111.35,270.79,97.18,267.32,118.08,255.04,111.35" style="stroke: #A80036; stroke-width: 1.0;"/><text fill="#888888" font-family="sans-serif" font-size="10" lengthAdjust="spacingAndGlyphs" textLength="190" x="97" y="339.2559">UMLDoclet 2.0.12, PlantUML 1.2020.16</text><!--MD5=[2f5b348ab4edb2c332b4970b2e05c74e]
@startuml
    set namespaceSeparator none
    hide empty fields
    hide empty methods

    class "<size:14>PolylineImpl\n<size:10>org.eclipse.epf.uma.impl" as org.eclipse.epf.uma.impl.PolylineImpl [[PolylineImpl.html]] {
        +getClosed(): Boolean
        +setClosed(Boolean): void
        +getWaypoints(): EList<Point>
        +eInverseRemove(InternalEObject, int, NotificationChain): NotificationChain
        +eGet(int, boolean, boolean): Object
        +eSet(int, Object): void
        +eUnset(int): void
        +eIsSet(int): boolean
    }

    abstract class "<size:14>GraphicPrimitiveImpl\n<size:10>org.eclipse.epf.uma.impl" as org.eclipse.epf.uma.impl.GraphicPrimitiveImpl [[GraphicPrimitiveImpl.html]]
    interface "<size:14>Polyline\n<size:10>org.eclipse.epf.uma" as org.eclipse.epf.uma.Polyline [[..\Polyline.html]] {
        {abstract} +getClosed(): Boolean
        {abstract} +setClosed(Boolean): void
        {abstract} +getWaypoints(): EList<Point>
    }

    org.eclipse.epf.uma.impl.GraphicPrimitiveImpl <|- - org.eclipse.epf.uma.impl.PolylineImpl
    org.eclipse.epf.uma.Polyline <|.. org.eclipse.epf.uma.impl.PolylineImpl

    center footer UMLDoclet 2.0.12, PlantUML 1.2020.16
@enduml

PlantUML version 1.2020.16(Sun Aug 23 22:20:43 CEST 2020)
(APACHE source distribution)
Java Runtime: Java(TM) SE Runtime Environment
JVM: Java HotSpot(TM) 64-Bit Server VM
Default Encoding: Cp1252
Language: es
Country: ES
--></g></svg>