<?xml version="1.0" encoding="UTF-8" standalone="no"?><svg xmlns="http://www.w3.org/2000/svg" xmlns:xlink="http://www.w3.org/1999/xlink" contentScriptType="application/ecmascript" contentStyleType="text/css" height="587px" preserveAspectRatio="none" style="width:430px;height:587px;" version="1.1" viewBox="0 0 430 587" width="430px" zoomAndPan="magnify"><defs><filter height="300%" id="f1nhs9stj2k7" width="300%" x="-1" y="-1"><feGaussianBlur result="blurOut" stdDeviation="2.0"/><feColorMatrix in="blurOut" result="blurOut2" type="matrix" values="0 0 0 0 0 0 0 0 0 0 0 0 0 0 0 0 0 0 .4 0"/><feOffset dx="4.0" dy="4.0" in="blurOut2" result="blurOut3"/><feBlend in="SourceGraphic" in2="blurOut3" mode="normal"/></filter></defs><g><!--MD5=[33ac13f92f998244775d0676009a9f31]
class org.eclipse.epf.uma.impl.PracticeDescriptionImpl--><a href="PracticeDescriptionImpl.html" target="_top" title="PracticeDescriptionImpl.html" xlink:actuate="onRequest" xlink:href="PracticeDescriptionImpl.html" xlink:show="new" xlink:title="PracticeDescriptionImpl.html" xlink:type="simple"><rect codeLine="5" fill="#FEFECE" filter="url(#f1nhs9stj2k7)" height="269.5625" id="org.eclipse.epf.uma.impl.PracticeDescriptionImpl" style="stroke: #A80036; stroke-width: 1.5;" width="193" x="109.5" y="281"/><ellipse cx="130.8" cy="301.0938" fill="#ADD1B2" rx="11" ry="11" style="stroke: #A80036; stroke-width: 1.0;"/><path d="M133.5656,296.9688 Q133.7219,296.75 133.9094,296.6406 Q134.0969,296.5313 134.3156,296.5313 Q134.6906,296.5313 134.925,296.7969 Q135.1594,297.0469 135.1594,297.6563 L135.1594,299.1094 Q135.1594,299.7188 134.925,299.9844 Q134.6906,300.25 134.3156,300.25 Q133.9719,300.25 133.7688,300.0469 Q133.5656,299.8594 133.4563,299.3438 Q133.4094,298.9844 133.2219,298.7969 Q132.8938,298.4219 132.2844,298.2031 Q131.675,297.9844 131.05,297.9844 Q130.2844,297.9844 129.6438,298.3125 Q129.0188,298.6406 128.5188,299.3906 Q128.0344,300.1406 128.0344,301.1719 L128.0344,302.2656 Q128.0344,303.5 128.925,304.3281 Q129.8156,305.1406 131.4094,305.1406 Q132.3469,305.1406 133.0031,304.8906 Q133.3938,304.7344 133.8156,304.2969 Q134.0813,304.0313 134.2219,303.9531 Q134.3781,303.875 134.5813,303.875 Q134.9094,303.875 135.1594,304.1406 Q135.425,304.3906 135.425,304.7344 Q135.425,305.0781 135.0813,305.4844 Q134.5813,306.0625 133.7844,306.3906 Q132.7063,306.8438 131.4094,306.8438 Q129.8938,306.8438 128.6906,306.2188 Q127.7063,305.7188 127.0188,304.6563 Q126.3313,303.5781 126.3313,302.2969 L126.3313,301.1406 Q126.3313,299.8125 126.9406,298.6719 Q127.5656,297.5156 128.6594,296.9063 Q129.7531,296.2813 130.9875,296.2813 Q131.7219,296.2813 132.3625,296.4531 Q133.0188,296.6094 133.5656,296.9688 Z "/><text fill="#000000" font-family="sans-serif" font-size="14" lengthAdjust="spacingAndGlyphs" textLength="147" x="146.2" y="300.5332">PracticeDescriptionImpl</text><text fill="#000000" font-family="sans-serif" font-size="10" lengthAdjust="spacingAndGlyphs" textLength="118" x="160.7" y="313.9902">org.eclipse.epf.uma.impl</text><line style="stroke: #A80036; stroke-width: 1.5;" x1="110.5" x2="301.5" y1="321.1875" y2="321.1875"/><ellipse cx="120.5" cy="332.1875" fill="#84BE84" rx="3" ry="3" style="stroke: #038048; stroke-width: 1.0;"/><text fill="#000000" font-family="sans-serif" font-size="11" lengthAdjust="spacingAndGlyphs" textLength="122" x="129.5" y="336.6064">getAdditionalInfo(): String</text><ellipse cx="120.5" cy="346.0234" fill="#84BE84" rx="3" ry="3" style="stroke: #038048; stroke-width: 1.0;"/><text fill="#000000" font-family="sans-serif" font-size="11" lengthAdjust="spacingAndGlyphs" textLength="142" x="129.5" y="350.4424">setAdditionalInfo(String): void</text><ellipse cx="120.5" cy="359.8594" fill="#84BE84" rx="3" ry="3" style="stroke: #038048; stroke-width: 1.0;"/><text fill="#000000" font-family="sans-serif" font-size="11" lengthAdjust="spacingAndGlyphs" textLength="95" x="129.5" y="364.2783">getProblem(): String</text><ellipse cx="120.5" cy="373.6953" fill="#84BE84" rx="3" ry="3" style="stroke: #038048; stroke-width: 1.0;"/><text fill="#000000" font-family="sans-serif" font-size="11" lengthAdjust="spacingAndGlyphs" textLength="115" x="129.5" y="378.1143">setProblem(String): void</text><ellipse cx="120.5" cy="387.5313" fill="#84BE84" rx="3" ry="3" style="stroke: #038048; stroke-width: 1.0;"/><text fill="#000000" font-family="sans-serif" font-size="11" lengthAdjust="spacingAndGlyphs" textLength="115" x="129.5" y="391.9502">getBackground(): String</text><ellipse cx="120.5" cy="401.3672" fill="#84BE84" rx="3" ry="3" style="stroke: #038048; stroke-width: 1.0;"/><text fill="#000000" font-family="sans-serif" font-size="11" lengthAdjust="spacingAndGlyphs" textLength="135" x="129.5" y="405.7861">setBackground(String): void</text><ellipse cx="120.5" cy="415.2031" fill="#84BE84" rx="3" ry="3" style="stroke: #038048; stroke-width: 1.0;"/><text fill="#000000" font-family="sans-serif" font-size="11" lengthAdjust="spacingAndGlyphs" textLength="85" x="129.5" y="419.6221">getGoals(): String</text><ellipse cx="120.5" cy="429.0391" fill="#84BE84" rx="3" ry="3" style="stroke: #038048; stroke-width: 1.0;"/><text fill="#000000" font-family="sans-serif" font-size="11" lengthAdjust="spacingAndGlyphs" textLength="105" x="129.5" y="433.458">setGoals(String): void</text><ellipse cx="120.5" cy="442.875" fill="#84BE84" rx="3" ry="3" style="stroke: #038048; stroke-width: 1.0;"/><text fill="#000000" font-family="sans-serif" font-size="11" lengthAdjust="spacingAndGlyphs" textLength="110" x="129.5" y="447.2939">getApplication(): String</text><ellipse cx="120.5" cy="456.7109" fill="#84BE84" rx="3" ry="3" style="stroke: #038048; stroke-width: 1.0;"/><text fill="#000000" font-family="sans-serif" font-size="11" lengthAdjust="spacingAndGlyphs" textLength="130" x="129.5" y="461.1299">setApplication(String): void</text><ellipse cx="120.5" cy="470.5469" fill="#84BE84" rx="3" ry="3" style="stroke: #038048; stroke-width: 1.0;"/><text fill="#000000" font-family="sans-serif" font-size="11" lengthAdjust="spacingAndGlyphs" textLength="144" x="129.5" y="474.9658">getLevelsOfAdoption(): String</text><ellipse cx="120.5" cy="484.3828" fill="#84BE84" rx="3" ry="3" style="stroke: #038048; stroke-width: 1.0;"/><text fill="#000000" font-family="sans-serif" font-size="11" lengthAdjust="spacingAndGlyphs" textLength="164" x="129.5" y="488.8018">setLevelsOfAdoption(String): void</text><ellipse cx="120.5" cy="498.2188" fill="#84BE84" rx="3" ry="3" style="stroke: #038048; stroke-width: 1.0;"/><text fill="#000000" font-family="sans-serif" font-size="11" lengthAdjust="spacingAndGlyphs" textLength="167" x="129.5" y="502.6377">eGet(int, boolean, boolean): Object</text><ellipse cx="120.5" cy="512.0547" fill="#84BE84" rx="3" ry="3" style="stroke: #038048; stroke-width: 1.0;"/><text fill="#000000" font-family="sans-serif" font-size="11" lengthAdjust="spacingAndGlyphs" textLength="104" x="129.5" y="516.4736">eSet(int, Object): void</text><ellipse cx="120.5" cy="525.8906" fill="#84BE84" rx="3" ry="3" style="stroke: #038048; stroke-width: 1.0;"/><text fill="#000000" font-family="sans-serif" font-size="11" lengthAdjust="spacingAndGlyphs" textLength="79" x="129.5" y="530.3096">eUnset(int): void</text><ellipse cx="120.5" cy="539.7266" fill="#84BE84" rx="3" ry="3" style="stroke: #038048; stroke-width: 1.0;"/><text fill="#000000" font-family="sans-serif" font-size="11" lengthAdjust="spacingAndGlyphs" textLength="93" x="129.5" y="544.1455">eIsSet(int): boolean</text></a><!--MD5=[92b3159b33d4292b6938f7fac228d88c]
class org.eclipse.epf.uma.impl.ContentDescriptionImpl--><a href="ContentDescriptionImpl.html" target="_top" title="ContentDescriptionImpl.html" xlink:actuate="onRequest" xlink:href="ContentDescriptionImpl.html" xlink:show="new" xlink:title="ContentDescriptionImpl.html" xlink:type="simple"><rect codeLine="24" fill="#FEFECE" filter="url(#f1nhs9stj2k7)" height="40.1875" id="org.eclipse.epf.uma.impl.ContentDescriptionImpl" style="stroke: #A80036; stroke-width: 1.5;" width="178" x="7" y="94"/><ellipse cx="22" cy="114.0938" fill="#ADD1B2" rx="11" ry="11" style="stroke: #A80036; stroke-width: 1.0;"/><path d="M24.7656,109.9688 Q24.9219,109.75 25.1094,109.6406 Q25.2969,109.5313 25.5156,109.5313 Q25.8906,109.5313 26.125,109.7969 Q26.3594,110.0469 26.3594,110.6563 L26.3594,112.1094 Q26.3594,112.7188 26.125,112.9844 Q25.8906,113.25 25.5156,113.25 Q25.1719,113.25 24.9688,113.0469 Q24.7656,112.8594 24.6563,112.3438 Q24.6094,111.9844 24.4219,111.7969 Q24.0938,111.4219 23.4844,111.2031 Q22.875,110.9844 22.25,110.9844 Q21.4844,110.9844 20.8438,111.3125 Q20.2188,111.6406 19.7188,112.3906 Q19.2344,113.1406 19.2344,114.1719 L19.2344,115.2656 Q19.2344,116.5 20.125,117.3281 Q21.0156,118.1406 22.6094,118.1406 Q23.5469,118.1406 24.2031,117.8906 Q24.5938,117.7344 25.0156,117.2969 Q25.2813,117.0313 25.4219,116.9531 Q25.5781,116.875 25.7813,116.875 Q26.1094,116.875 26.3594,117.1406 Q26.625,117.3906 26.625,117.7344 Q26.625,118.0781 26.2813,118.4844 Q25.7813,119.0625 24.9844,119.3906 Q23.9063,119.8438 22.6094,119.8438 Q21.0938,119.8438 19.8906,119.2188 Q18.9063,118.7188 18.2188,117.6563 Q17.5313,116.5781 17.5313,115.2969 L17.5313,114.1406 Q17.5313,112.8125 18.1406,111.6719 Q18.7656,110.5156 19.8594,109.9063 Q20.9531,109.2813 22.1875,109.2813 Q22.9219,109.2813 23.5625,109.4531 Q24.2188,109.6094 24.7656,109.9688 Z "/><text fill="#000000" font-family="sans-serif" font-size="14" lengthAdjust="spacingAndGlyphs" textLength="146" x="36" y="113.5332">ContentDescriptionImpl</text><text fill="#000000" font-family="sans-serif" font-size="10" lengthAdjust="spacingAndGlyphs" textLength="118" x="50" y="126.9902">org.eclipse.epf.uma.impl</text></a><!--MD5=[12c9a5edc650c5ca68c63a022990aa5d]
class org.eclipse.epf.uma.PracticeDescription--><a href="..\PracticeDescription.html" target="_top" title="..\PracticeDescription.html" xlink:actuate="onRequest" xlink:href="..\PracticeDescription.html" xlink:show="new" xlink:title="..\PracticeDescription.html" xlink:type="simple"><rect codeLine="25" fill="#FEFECE" filter="url(#f1nhs9stj2k7)" height="214.2188" id="org.eclipse.epf.uma.PracticeDescription" style="stroke: #A80036; stroke-width: 1.5;" width="191" x="220.5" y="7"/><ellipse cx="252.15" cy="27.0938" fill="#B4A7E5" rx="11" ry="11" style="stroke: #A80036; stroke-width: 1.0;"/><path d="M253.1031,23.7344 L253.1031,30.3906 L254.8219,30.3906 Q255.4313,30.3906 255.6969,30.625 Q255.9625,30.8594 255.9625,31.25 Q255.9625,31.625 255.6969,31.8594 Q255.4313,32.0938 254.8219,32.0938 L249.6813,32.0938 Q249.0719,32.0938 248.8063,31.8594 Q248.5406,31.625 248.5406,31.2344 Q248.5406,30.8594 248.8063,30.625 Q249.0719,30.3906 249.6813,30.3906 L251.4,30.3906 L251.4,23.7344 L249.6813,23.7344 Q249.0719,23.7344 248.8063,23.5 Q248.5406,23.2656 248.5406,22.875 Q248.5406,22.5 248.8063,22.2656 Q249.0719,22.0313 249.6813,22.0313 L254.8219,22.0313 Q255.4313,22.0313 255.6969,22.2656 Q255.9625,22.5 255.9625,22.875 Q255.9625,23.2656 255.6969,23.5 Q255.4313,23.7344 254.8219,23.7344 L253.1031,23.7344 Z "/><text fill="#000000" font-family="sans-serif" font-size="14" font-style="italic" lengthAdjust="spacingAndGlyphs" textLength="122" x="269.85" y="26.5332">PracticeDescription</text><text fill="#000000" font-family="sans-serif" font-size="10" font-style="italic" lengthAdjust="spacingAndGlyphs" textLength="92" x="284.85" y="39.9902">org.eclipse.epf.uma</text><line style="stroke: #A80036; stroke-width: 1.5;" x1="221.5" x2="410.5" y1="47.1875" y2="47.1875"/><ellipse cx="231.5" cy="58.1875" fill="#84BE84" rx="3" ry="3" style="stroke: #038048; stroke-width: 1.0;"/><text fill="#000000" font-family="sans-serif" font-size="11" font-style="italic" lengthAdjust="spacingAndGlyphs" textLength="125" x="240.5" y="62.6064">getAdditionalInfo(): String</text><ellipse cx="231.5" cy="72.0234" fill="#84BE84" rx="3" ry="3" style="stroke: #038048; stroke-width: 1.0;"/><text fill="#000000" font-family="sans-serif" font-size="11" font-style="italic" lengthAdjust="spacingAndGlyphs" textLength="145" x="240.5" y="76.4424">setAdditionalInfo(String): void</text><ellipse cx="231.5" cy="85.8594" fill="#84BE84" rx="3" ry="3" style="stroke: #038048; stroke-width: 1.0;"/><text fill="#000000" font-family="sans-serif" font-size="11" font-style="italic" lengthAdjust="spacingAndGlyphs" textLength="100" x="240.5" y="90.2783">getProblem(): String</text><ellipse cx="231.5" cy="99.6953" fill="#84BE84" rx="3" ry="3" style="stroke: #038048; stroke-width: 1.0;"/><text fill="#000000" font-family="sans-serif" font-size="11" font-style="italic" lengthAdjust="spacingAndGlyphs" textLength="120" x="240.5" y="104.1143">setProblem(String): void</text><ellipse cx="231.5" cy="113.5313" fill="#84BE84" rx="3" ry="3" style="stroke: #038048; stroke-width: 1.0;"/><text fill="#000000" font-family="sans-serif" font-size="11" font-style="italic" lengthAdjust="spacingAndGlyphs" textLength="117" x="240.5" y="117.9502">getBackground(): String</text><ellipse cx="231.5" cy="127.3672" fill="#84BE84" rx="3" ry="3" style="stroke: #038048; stroke-width: 1.0;"/><text fill="#000000" font-family="sans-serif" font-size="11" font-style="italic" lengthAdjust="spacingAndGlyphs" textLength="137" x="240.5" y="131.7861">setBackground(String): void</text><ellipse cx="231.5" cy="141.2031" fill="#84BE84" rx="3" ry="3" style="stroke: #038048; stroke-width: 1.0;"/><text fill="#000000" font-family="sans-serif" font-size="11" font-style="italic" lengthAdjust="spacingAndGlyphs" textLength="88" x="240.5" y="145.6221">getGoals(): String</text><ellipse cx="231.5" cy="155.0391" fill="#84BE84" rx="3" ry="3" style="stroke: #038048; stroke-width: 1.0;"/><text fill="#000000" font-family="sans-serif" font-size="11" font-style="italic" lengthAdjust="spacingAndGlyphs" textLength="108" x="240.5" y="159.458">setGoals(String): void</text><ellipse cx="231.5" cy="168.875" fill="#84BE84" rx="3" ry="3" style="stroke: #038048; stroke-width: 1.0;"/><text fill="#000000" font-family="sans-serif" font-size="11" font-style="italic" lengthAdjust="spacingAndGlyphs" textLength="113" x="240.5" y="173.2939">getApplication(): String</text><ellipse cx="231.5" cy="182.7109" fill="#84BE84" rx="3" ry="3" style="stroke: #038048; stroke-width: 1.0;"/><text fill="#000000" font-family="sans-serif" font-size="11" font-style="italic" lengthAdjust="spacingAndGlyphs" textLength="133" x="240.5" y="187.1299">setApplication(String): void</text><ellipse cx="231.5" cy="196.5469" fill="#84BE84" rx="3" ry="3" style="stroke: #038048; stroke-width: 1.0;"/><text fill="#000000" font-family="sans-serif" font-size="11" font-style="italic" lengthAdjust="spacingAndGlyphs" textLength="145" x="240.5" y="200.9658">getLevelsOfAdoption(): String</text><ellipse cx="231.5" cy="210.3828" fill="#84BE84" rx="3" ry="3" style="stroke: #038048; stroke-width: 1.0;"/><text fill="#000000" font-family="sans-serif" font-size="11" font-style="italic" lengthAdjust="spacingAndGlyphs" textLength="165" x="240.5" y="214.8018">setLevelsOfAdoption(String): void</text></a><!--MD5=[9cbbcd4ae24c38cac33c74bdb45fb2c7]
reverse link org.eclipse.epf.uma.impl.ContentDescriptionImpl to org.eclipse.epf.uma.impl.PracticeDescriptionImpl--><path codeLine="40" d="M109.94,153.01 C121.83,185.45 139.68,234.12 156.77,280.74 " fill="none" id="org.eclipse.epf.uma.impl.ContentDescriptionImpl-backto-org.eclipse.epf.uma.impl.PracticeDescriptionImpl" style="stroke: #A80036; stroke-width: 1.0;"/><polygon fill="none" points="103.36,155.41,103.05,134.22,116.51,150.59,103.36,155.41" style="stroke: #A80036; stroke-width: 1.0;"/><!--MD5=[495b6764c9b486fa33d871a93c08bc3d]
reverse link org.eclipse.epf.uma.PracticeDescription to org.eclipse.epf.uma.impl.PracticeDescriptionImpl--><path codeLine="41" d="M270.16,240.02 C265.22,253.5 260.17,267.25 255.19,280.83 " fill="none" id="org.eclipse.epf.uma.PracticeDescription-backto-org.eclipse.epf.uma.impl.PracticeDescriptionImpl" style="stroke: #A80036; stroke-width: 1.0; stroke-dasharray: 7.0,7.0;"/><polygon fill="none" points="263.61,237.56,277.06,221.19,276.75,242.38,263.61,237.56" style="stroke: #A80036; stroke-width: 1.0;"/><text fill="#888888" font-family="sans-serif" font-size="10" lengthAdjust="spacingAndGlyphs" textLength="190" x="111.25" y="573.9434">UMLDoclet 2.0.12, PlantUML 1.2020.16</text><!--MD5=[28d9b774327dacac6b70a0b4d3c64f39]
@startuml
    set namespaceSeparator none
    hide empty fields
    hide empty methods

    class "<size:14>PracticeDescriptionImpl\n<size:10>org.eclipse.epf.uma.impl" as org.eclipse.epf.uma.impl.PracticeDescriptionImpl [[PracticeDescriptionImpl.html]] {
        +getAdditionalInfo(): String
        +setAdditionalInfo(String): void
        +getProblem(): String
        +setProblem(String): void
        +getBackground(): String
        +setBackground(String): void
        +getGoals(): String
        +setGoals(String): void
        +getApplication(): String
        +setApplication(String): void
        +getLevelsOfAdoption(): String
        +setLevelsOfAdoption(String): void
        +eGet(int, boolean, boolean): Object
        +eSet(int, Object): void
        +eUnset(int): void
        +eIsSet(int): boolean
    }

    class "<size:14>ContentDescriptionImpl\n<size:10>org.eclipse.epf.uma.impl" as org.eclipse.epf.uma.impl.ContentDescriptionImpl [[ContentDescriptionImpl.html]]
    interface "<size:14>PracticeDescription\n<size:10>org.eclipse.epf.uma" as org.eclipse.epf.uma.PracticeDescription [[..\PracticeDescription.html]] {
        {abstract} +getAdditionalInfo(): String
        {abstract} +setAdditionalInfo(String): void
        {abstract} +getProblem(): String
        {abstract} +setProblem(String): void
        {abstract} +getBackground(): String
        {abstract} +setBackground(String): void
        {abstract} +getGoals(): String
        {abstract} +setGoals(String): void
        {abstract} +getApplication(): String
        {abstract} +setApplication(String): void
        {abstract} +getLevelsOfAdoption(): String
        {abstract} +setLevelsOfAdoption(String): void
    }

    org.eclipse.epf.uma.impl.ContentDescriptionImpl <|- - org.eclipse.epf.uma.impl.PracticeDescriptionImpl
    org.eclipse.epf.uma.PracticeDescription <|.. org.eclipse.epf.uma.impl.PracticeDescriptionImpl

    center footer UMLDoclet 2.0.12, PlantUML 1.2020.16
@enduml

PlantUML version 1.2020.16(Sun Aug 23 22:20:43 CEST 2020)
(APACHE source distribution)
Java Runtime: Java(TM) SE Runtime Environment
JVM: Java HotSpot(TM) 64-Bit Server VM
Default Encoding: Cp1252
Language: es
Country: ES
--></g></svg>