<?xml version="1.0" encoding="UTF-8" standalone="no"?><svg xmlns="http://www.w3.org/2000/svg" xmlns:xlink="http://www.w3.org/1999/xlink" contentScriptType="application/ecmascript" contentStyleType="text/css" height="352px" preserveAspectRatio="none" style="width:472px;height:352px;" version="1.1" viewBox="0 0 472 352" width="472px" zoomAndPan="magnify"><defs><filter height="300%" id="f13nogyir1vuzh" width="300%" x="-1" y="-1"><feGaussianBlur result="blurOut" stdDeviation="2.0"/><feColorMatrix in="blurOut" result="blurOut2" type="matrix" values="0 0 0 0 0 0 0 0 0 0 0 0 0 0 0 0 0 0 .4 0"/><feOffset dx="4.0" dy="4.0" in="blurOut2" result="blurOut3"/><feBlend in="SourceGraphic" in2="blurOut3" mode="normal"/></filter></defs><g><!--MD5=[7083cffb811fedd0c0ef85dc4723629c]
class org.eclipse.epf.uma.impl.PracticeImpl--><a href="PracticeImpl.html" target="_top" title="PracticeImpl.html" xlink:actuate="onRequest" xlink:href="PracticeImpl.html" xlink:show="new" xlink:title="PracticeImpl.html" xlink:type="simple"><rect codeLine="5" fill="#FEFECE" filter="url(#f13nogyir1vuzh)" height="158.875" id="org.eclipse.epf.uma.impl.PracticeImpl" style="stroke: #A80036; stroke-width: 1.5;" width="376" x="12" y="157"/><ellipse cx="136.75" cy="177.0938" fill="#ADD1B2" rx="11" ry="11" style="stroke: #A80036; stroke-width: 1.0;"/><path d="M139.5156,172.9688 Q139.6719,172.75 139.8594,172.6406 Q140.0469,172.5313 140.2656,172.5313 Q140.6406,172.5313 140.875,172.7969 Q141.1094,173.0469 141.1094,173.6563 L141.1094,175.1094 Q141.1094,175.7188 140.875,175.9844 Q140.6406,176.25 140.2656,176.25 Q139.9219,176.25 139.7188,176.0469 Q139.5156,175.8594 139.4063,175.3438 Q139.3594,174.9844 139.1719,174.7969 Q138.8438,174.4219 138.2344,174.2031 Q137.625,173.9844 137,173.9844 Q136.2344,173.9844 135.5938,174.3125 Q134.9688,174.6406 134.4688,175.3906 Q133.9844,176.1406 133.9844,177.1719 L133.9844,178.2656 Q133.9844,179.5 134.875,180.3281 Q135.7656,181.1406 137.3594,181.1406 Q138.2969,181.1406 138.9531,180.8906 Q139.3438,180.7344 139.7656,180.2969 Q140.0313,180.0313 140.1719,179.9531 Q140.3281,179.875 140.5313,179.875 Q140.8594,179.875 141.1094,180.1406 Q141.375,180.3906 141.375,180.7344 Q141.375,181.0781 141.0313,181.4844 Q140.5313,182.0625 139.7344,182.3906 Q138.6563,182.8438 137.3594,182.8438 Q135.8438,182.8438 134.6406,182.2188 Q133.6563,181.7188 132.9688,180.6563 Q132.2813,179.5781 132.2813,178.2969 L132.2813,177.1406 Q132.2813,175.8125 132.8906,174.6719 Q133.5156,173.5156 134.6094,172.9063 Q135.7031,172.2813 136.9375,172.2813 Q137.6719,172.2813 138.3125,172.4531 Q138.9688,172.6094 139.5156,172.9688 Z "/><text fill="#000000" font-family="sans-serif" font-size="14" lengthAdjust="spacingAndGlyphs" textLength="76" x="178.25" y="176.5332">PracticeImpl</text><text fill="#000000" font-family="sans-serif" font-size="10" lengthAdjust="spacingAndGlyphs" textLength="118" x="157.25" y="189.9902">org.eclipse.epf.uma.impl</text><line style="stroke: #A80036; stroke-width: 1.5;" x1="13" x2="387" y1="197.1875" y2="197.1875"/><ellipse cx="23" cy="208.1875" fill="#84BE84" rx="3" ry="3" style="stroke: #038048; stroke-width: 1.0;"/><text fill="#000000" font-family="sans-serif" font-size="11" lengthAdjust="spacingAndGlyphs" textLength="167" x="32" y="212.6064">getSubPractices(): EList&lt;Practice&gt;</text><ellipse cx="23" cy="222.0234" fill="#84BE84" rx="3" ry="3" style="stroke: #038048; stroke-width: 1.0;"/><text fill="#000000" font-family="sans-serif" font-size="11" lengthAdjust="spacingAndGlyphs" textLength="232" x="32" y="226.4424">getContentReferences(): EList&lt;ContentElement&gt;</text><ellipse cx="23" cy="235.8594" fill="#84BE84" rx="3" ry="3" style="stroke: #038048; stroke-width: 1.0;"/><text fill="#000000" font-family="sans-serif" font-size="11" lengthAdjust="spacingAndGlyphs" textLength="193" x="32" y="240.2783">getActivityReferences(): EList&lt;Activity&gt;</text><ellipse cx="23" cy="249.6953" fill="#84BE84" rx="3" ry="3" style="stroke: #038048; stroke-width: 1.0;"/><text fill="#000000" font-family="sans-serif" font-size="11" lengthAdjust="spacingAndGlyphs" textLength="350" x="32" y="254.1143">eInverseRemove(InternalEObject, int, NotificationChain): NotificationChain</text><ellipse cx="23" cy="263.5313" fill="#84BE84" rx="3" ry="3" style="stroke: #038048; stroke-width: 1.0;"/><text fill="#000000" font-family="sans-serif" font-size="11" lengthAdjust="spacingAndGlyphs" textLength="167" x="32" y="267.9502">eGet(int, boolean, boolean): Object</text><ellipse cx="23" cy="277.3672" fill="#84BE84" rx="3" ry="3" style="stroke: #038048; stroke-width: 1.0;"/><text fill="#000000" font-family="sans-serif" font-size="11" lengthAdjust="spacingAndGlyphs" textLength="104" x="32" y="281.7861">eSet(int, Object): void</text><ellipse cx="23" cy="291.2031" fill="#84BE84" rx="3" ry="3" style="stroke: #038048; stroke-width: 1.0;"/><text fill="#000000" font-family="sans-serif" font-size="11" lengthAdjust="spacingAndGlyphs" textLength="79" x="32" y="295.6221">eUnset(int): void</text><ellipse cx="23" cy="305.0391" fill="#84BE84" rx="3" ry="3" style="stroke: #038048; stroke-width: 1.0;"/><text fill="#000000" font-family="sans-serif" font-size="11" lengthAdjust="spacingAndGlyphs" textLength="93" x="32" y="309.458">eIsSet(int): boolean</text></a><!--MD5=[4ac47b7f125fe8903eb916935a8c261c]
class org.eclipse.epf.uma.impl.GuidanceImpl--><a href="GuidanceImpl.html" target="_top" title="GuidanceImpl.html" xlink:actuate="onRequest" xlink:href="GuidanceImpl.html" xlink:show="new" xlink:title="GuidanceImpl.html" xlink:type="simple"><rect codeLine="16" fill="#FEFECE" filter="url(#f13nogyir1vuzh)" height="40.1875" id="org.eclipse.epf.uma.impl.GuidanceImpl" style="stroke: #A80036; stroke-width: 1.5;" width="146" x="7" y="32"/><ellipse cx="22" cy="52.0938" fill="#A9DCDF" rx="11" ry="11" style="stroke: #A80036; stroke-width: 1.0;"/><path d="M24.1875,53.8594 L20.0469,53.8594 L19.625,54.8906 L20.0469,54.8906 Q20.6563,54.8906 20.9219,55.125 Q21.1875,55.3594 21.1875,55.75 Q21.1875,56.125 20.9219,56.3594 Q20.6563,56.5938 20.0469,56.5938 L17.75,56.5938 Q17.1406,56.5938 16.8906,56.3594 Q16.625,56.125 16.625,55.7344 Q16.625,55.3594 16.9063,55.125 Q17.1719,54.875 17.7969,54.8906 L20.4688,48.2344 L19.3594,48.2344 Q18.75,48.2344 18.4844,48 Q18.2188,47.7656 18.2188,47.375 Q18.2188,47 18.4844,46.7656 Q18.75,46.5313 19.3594,46.5313 L23.0313,46.5313 L26.4219,54.8906 Q27.0156,54.8906 27.2031,55.0313 Q27.5938,55.2969 27.5938,55.75 Q27.5938,56.125 27.3281,56.3594 Q27.0781,56.5938 26.4688,56.5938 L24.1719,56.5938 Q23.5625,56.5938 23.2969,56.3594 Q23.0313,56.125 23.0313,55.7344 Q23.0313,55.3594 23.2969,55.125 Q23.5625,54.8906 24.1719,54.8906 L24.5938,54.8906 L24.1875,53.8594 Z M23.4688,52.1563 L22.1094,48.7813 L20.7344,52.1563 L23.4688,52.1563 Z "/><text fill="#000000" font-family="sans-serif" font-size="14" font-style="italic" lengthAdjust="spacingAndGlyphs" textLength="87" x="49.5" y="51.5332">GuidanceImpl</text><text fill="#000000" font-family="sans-serif" font-size="10" font-style="italic" lengthAdjust="spacingAndGlyphs" textLength="114" x="36" y="64.9902">org.eclipse.epf.uma.impl</text></a><!--MD5=[770c171346aabbd1eb564e718bc296af]
class org.eclipse.epf.uma.Practice--><a href="..\Practice.html" target="_top" title="..\Practice.html" xlink:actuate="onRequest" xlink:href="..\Practice.html" xlink:show="new" xlink:title="..\Practice.html" xlink:type="simple"><rect codeLine="17" fill="#FEFECE" filter="url(#f13nogyir1vuzh)" height="89.6953" id="org.eclipse.epf.uma.Practice" style="stroke: #A80036; stroke-width: 1.5;" width="265" x="188.5" y="7"/><ellipse cx="270.75" cy="27.0938" fill="#B4A7E5" rx="11" ry="11" style="stroke: #A80036; stroke-width: 1.0;"/><path d="M271.7031,23.7344 L271.7031,30.3906 L273.4219,30.3906 Q274.0313,30.3906 274.2969,30.625 Q274.5625,30.8594 274.5625,31.25 Q274.5625,31.625 274.2969,31.8594 Q274.0313,32.0938 273.4219,32.0938 L268.2813,32.0938 Q267.6719,32.0938 267.4063,31.8594 Q267.1406,31.625 267.1406,31.2344 Q267.1406,30.8594 267.4063,30.625 Q267.6719,30.3906 268.2813,30.3906 L270,30.3906 L270,23.7344 L268.2813,23.7344 Q267.6719,23.7344 267.4063,23.5 Q267.1406,23.2656 267.1406,22.875 Q267.1406,22.5 267.4063,22.2656 Q267.6719,22.0313 268.2813,22.0313 L273.4219,22.0313 Q274.0313,22.0313 274.2969,22.2656 Q274.5625,22.5 274.5625,22.875 Q274.5625,23.2656 274.2969,23.5 Q274.0313,23.7344 273.4219,23.7344 L271.7031,23.7344 Z "/><text fill="#000000" font-family="sans-serif" font-size="14" font-style="italic" lengthAdjust="spacingAndGlyphs" textLength="51" x="311.75" y="26.5332">Practice</text><text fill="#000000" font-family="sans-serif" font-size="10" font-style="italic" lengthAdjust="spacingAndGlyphs" textLength="92" x="291.25" y="39.9902">org.eclipse.epf.uma</text><line style="stroke: #A80036; stroke-width: 1.5;" x1="189.5" x2="452.5" y1="47.1875" y2="47.1875"/><ellipse cx="199.5" cy="58.1875" fill="#84BE84" rx="3" ry="3" style="stroke: #038048; stroke-width: 1.0;"/><text fill="#000000" font-family="sans-serif" font-size="11" font-style="italic" lengthAdjust="spacingAndGlyphs" textLength="174" x="208.5" y="62.6064">getSubPractices(): EList&lt;Practice&gt;</text><ellipse cx="199.5" cy="72.0234" fill="#84BE84" rx="3" ry="3" style="stroke: #038048; stroke-width: 1.0;"/><text fill="#000000" font-family="sans-serif" font-size="11" font-style="italic" lengthAdjust="spacingAndGlyphs" textLength="239" x="208.5" y="76.4424">getContentReferences(): EList&lt;ContentElement&gt;</text><ellipse cx="199.5" cy="85.8594" fill="#84BE84" rx="3" ry="3" style="stroke: #038048; stroke-width: 1.0;"/><text fill="#000000" font-family="sans-serif" font-size="11" font-style="italic" lengthAdjust="spacingAndGlyphs" textLength="193" x="208.5" y="90.2783">getActivityReferences(): EList&lt;Activity&gt;</text></a><!--MD5=[47c8e817d024924eb51df8ed42d94469]
reverse link org.eclipse.epf.uma.impl.GuidanceImpl to org.eclipse.epf.uma.impl.PracticeImpl--><path codeLine="23" d="M103.64,88.95 C116.41,108.37 132.71,133.16 148.25,156.8 " fill="none" id="org.eclipse.epf.uma.impl.GuidanceImpl-backto-org.eclipse.epf.uma.impl.PracticeImpl" style="stroke: #A80036; stroke-width: 1.0;"/><polygon fill="none" points="97.75,92.74,92.62,72.19,109.45,85.05,97.75,92.74" style="stroke: #A80036; stroke-width: 1.0;"/><!--MD5=[8e41651fb586dc74ab96096a297c6247]
reverse link org.eclipse.epf.uma.Practice to org.eclipse.epf.uma.impl.PracticeImpl--><path codeLine="24" d="M280.61,113.92 C271.49,127.67 261.7,142.45 252.18,156.8 " fill="none" id="org.eclipse.epf.uma.Practice-backto-org.eclipse.epf.uma.impl.PracticeImpl" style="stroke: #A80036; stroke-width: 1.0; stroke-dasharray: 7.0,7.0;"/><polygon fill="none" points="274.82,109.98,291.71,97.18,286.49,117.72,274.82,109.98" style="stroke: #A80036; stroke-width: 1.0;"/><text fill="#888888" font-family="sans-serif" font-size="10" lengthAdjust="spacingAndGlyphs" textLength="190" x="132.25" y="339.2559">UMLDoclet 2.0.12, PlantUML 1.2020.16</text><!--MD5=[1b4092c63400e5e4f5d2790d4a984ea9]
@startuml
    set namespaceSeparator none
    hide empty fields
    hide empty methods

    class "<size:14>PracticeImpl\n<size:10>org.eclipse.epf.uma.impl" as org.eclipse.epf.uma.impl.PracticeImpl [[PracticeImpl.html]] {
        +getSubPractices(): EList<Practice>
        +getContentReferences(): EList<ContentElement>
        +getActivityReferences(): EList<Activity>
        +eInverseRemove(InternalEObject, int, NotificationChain): NotificationChain
        +eGet(int, boolean, boolean): Object
        +eSet(int, Object): void
        +eUnset(int): void
        +eIsSet(int): boolean
    }

    abstract class "<size:14>GuidanceImpl\n<size:10>org.eclipse.epf.uma.impl" as org.eclipse.epf.uma.impl.GuidanceImpl [[GuidanceImpl.html]]
    interface "<size:14>Practice\n<size:10>org.eclipse.epf.uma" as org.eclipse.epf.uma.Practice [[..\Practice.html]] {
        {abstract} +getSubPractices(): EList<Practice>
        {abstract} +getContentReferences(): EList<ContentElement>
        {abstract} +getActivityReferences(): EList<Activity>
    }

    org.eclipse.epf.uma.impl.GuidanceImpl <|- - org.eclipse.epf.uma.impl.PracticeImpl
    org.eclipse.epf.uma.Practice <|.. org.eclipse.epf.uma.impl.PracticeImpl

    center footer UMLDoclet 2.0.12, PlantUML 1.2020.16
@enduml

PlantUML version 1.2020.16(Sun Aug 23 22:20:43 CEST 2020)
(APACHE source distribution)
Java Runtime: Java(TM) SE Runtime Environment
JVM: Java HotSpot(TM) 64-Bit Server VM
Default Encoding: Cp1252
Language: es
Country: ES
--></g></svg>