<?xml version="1.0" encoding="UTF-8" standalone="no"?><svg xmlns="http://www.w3.org/2000/svg" xmlns:xlink="http://www.w3.org/1999/xlink" contentScriptType="application/ecmascript" contentStyleType="text/css" height="324px" preserveAspectRatio="none" style="width:481px;height:324px;" version="1.1" viewBox="0 0 481 324" width="481px" zoomAndPan="magnify"><defs><filter height="300%" id="fqhexam3gy2jd" width="300%" x="-1" y="-1"><feGaussianBlur result="blurOut" stdDeviation="2.0"/><feColorMatrix in="blurOut" result="blurOut2" type="matrix" values="0 0 0 0 0 0 0 0 0 0 0 0 0 0 0 0 0 0 .4 0"/><feOffset dx="4.0" dy="4.0" in="blurOut2" result="blurOut3"/><feBlend in="SourceGraphic" in2="blurOut3" mode="normal"/></filter></defs><g><!--MD5=[9ce9be87a417112d8011b92591259ee8]
class org.eclipse.epf.uma.impl.ProcessComponentDescriptorImpl--><a href="ProcessComponentDescriptorImpl.html" target="_top" title="ProcessComponentDescriptorImpl.html" xlink:actuate="onRequest" xlink:href="ProcessComponentDescriptorImpl.html" xlink:show="new" xlink:title="ProcessComponentDescriptorImpl.html" xlink:type="simple"><rect codeLine="5" fill="#FEFECE" filter="url(#fqhexam3gy2jd)" height="145.0391" id="org.eclipse.epf.uma.impl.ProcessComponentDescriptorImpl" style="stroke: #A80036; stroke-width: 1.5;" width="277" x="63.5" y="143"/><ellipse cx="92.45" cy="163.0938" fill="#ADD1B2" rx="11" ry="11" style="stroke: #A80036; stroke-width: 1.0;"/><path d="M95.2156,158.9688 Q95.3719,158.75 95.5594,158.6406 Q95.7469,158.5313 95.9656,158.5313 Q96.3406,158.5313 96.575,158.7969 Q96.8094,159.0469 96.8094,159.6563 L96.8094,161.1094 Q96.8094,161.7188 96.575,161.9844 Q96.3406,162.25 95.9656,162.25 Q95.6219,162.25 95.4188,162.0469 Q95.2156,161.8594 95.1063,161.3438 Q95.0594,160.9844 94.8719,160.7969 Q94.5438,160.4219 93.9344,160.2031 Q93.325,159.9844 92.7,159.9844 Q91.9344,159.9844 91.2938,160.3125 Q90.6688,160.6406 90.1688,161.3906 Q89.6844,162.1406 89.6844,163.1719 L89.6844,164.2656 Q89.6844,165.5 90.575,166.3281 Q91.4656,167.1406 93.0594,167.1406 Q93.9969,167.1406 94.6531,166.8906 Q95.0438,166.7344 95.4656,166.2969 Q95.7313,166.0313 95.8719,165.9531 Q96.0281,165.875 96.2313,165.875 Q96.5594,165.875 96.8094,166.1406 Q97.075,166.3906 97.075,166.7344 Q97.075,167.0781 96.7313,167.4844 Q96.2313,168.0625 95.4344,168.3906 Q94.3563,168.8438 93.0594,168.8438 Q91.5438,168.8438 90.3406,168.2188 Q89.3563,167.7188 88.6688,166.6563 Q87.9813,165.5781 87.9813,164.2969 L87.9813,163.1406 Q87.9813,161.8125 88.5906,160.6719 Q89.2156,159.5156 90.3094,158.9063 Q91.4031,158.2813 92.6375,158.2813 Q93.3719,158.2813 94.0125,158.4531 Q94.6688,158.6094 95.2156,158.9688 Z "/><text fill="#000000" font-family="sans-serif" font-size="14" lengthAdjust="spacingAndGlyphs" textLength="214" x="109.55" y="162.5332">ProcessComponentDescriptorImpl</text><text fill="#000000" font-family="sans-serif" font-size="10" lengthAdjust="spacingAndGlyphs" textLength="118" x="157.55" y="175.9902">org.eclipse.epf.uma.impl</text><line style="stroke: #A80036; stroke-width: 1.5;" x1="64.5" x2="339.5" y1="183.1875" y2="183.1875"/><ellipse cx="74.5" cy="194.1875" fill="#84BE84" rx="3" ry="3" style="stroke: #038048; stroke-width: 1.0;"/><text fill="#000000" font-family="sans-serif" font-size="11" lengthAdjust="spacingAndGlyphs" textLength="223" x="83.5" y="198.6064">get_processComponent(): ProcessComponent</text><ellipse cx="74.5" cy="208.0234" fill="#84BE84" rx="3" ry="3" style="stroke: #038048; stroke-width: 1.0;"/><text fill="#000000" font-family="sans-serif" font-size="11" lengthAdjust="spacingAndGlyphs" textLength="251" x="83.5" y="212.4424">basicGet_processComponent(): ProcessComponent</text><ellipse cx="74.5" cy="221.8594" fill="#84BE84" rx="3" ry="3" style="stroke: #038048; stroke-width: 1.0;"/><text fill="#000000" font-family="sans-serif" font-size="11" lengthAdjust="spacingAndGlyphs" textLength="243" x="83.5" y="226.2783">set_processComponent(ProcessComponent): void</text><ellipse cx="74.5" cy="235.6953" fill="#84BE84" rx="3" ry="3" style="stroke: #038048; stroke-width: 1.0;"/><text fill="#000000" font-family="sans-serif" font-size="11" lengthAdjust="spacingAndGlyphs" textLength="167" x="83.5" y="240.1143">eGet(int, boolean, boolean): Object</text><ellipse cx="74.5" cy="249.5313" fill="#84BE84" rx="3" ry="3" style="stroke: #038048; stroke-width: 1.0;"/><text fill="#000000" font-family="sans-serif" font-size="11" lengthAdjust="spacingAndGlyphs" textLength="104" x="83.5" y="253.9502">eSet(int, Object): void</text><ellipse cx="74.5" cy="263.3672" fill="#84BE84" rx="3" ry="3" style="stroke: #038048; stroke-width: 1.0;"/><text fill="#000000" font-family="sans-serif" font-size="11" lengthAdjust="spacingAndGlyphs" textLength="79" x="83.5" y="267.7861">eUnset(int): void</text><ellipse cx="74.5" cy="277.2031" fill="#84BE84" rx="3" ry="3" style="stroke: #038048; stroke-width: 1.0;"/><text fill="#000000" font-family="sans-serif" font-size="11" lengthAdjust="spacingAndGlyphs" textLength="93" x="83.5" y="281.6221">eIsSet(int): boolean</text></a><!--MD5=[165a2d5387423aae99d78796ca3bc826]
class org.eclipse.epf.uma.impl.DescriptorImpl--><a href="DescriptorImpl.html" target="_top" title="DescriptorImpl.html" xlink:actuate="onRequest" xlink:href="DescriptorImpl.html" xlink:show="new" xlink:title="DescriptorImpl.html" xlink:type="simple"><rect codeLine="15" fill="#FEFECE" filter="url(#fqhexam3gy2jd)" height="40.1875" id="org.eclipse.epf.uma.impl.DescriptorImpl" style="stroke: #A80036; stroke-width: 1.5;" width="146" x="7" y="25"/><ellipse cx="22" cy="45.0938" fill="#A9DCDF" rx="11" ry="11" style="stroke: #A80036; stroke-width: 1.0;"/><path d="M24.1875,46.8594 L20.0469,46.8594 L19.625,47.8906 L20.0469,47.8906 Q20.6563,47.8906 20.9219,48.125 Q21.1875,48.3594 21.1875,48.75 Q21.1875,49.125 20.9219,49.3594 Q20.6563,49.5938 20.0469,49.5938 L17.75,49.5938 Q17.1406,49.5938 16.8906,49.3594 Q16.625,49.125 16.625,48.7344 Q16.625,48.3594 16.9063,48.125 Q17.1719,47.875 17.7969,47.8906 L20.4688,41.2344 L19.3594,41.2344 Q18.75,41.2344 18.4844,41 Q18.2188,40.7656 18.2188,40.375 Q18.2188,40 18.4844,39.7656 Q18.75,39.5313 19.3594,39.5313 L23.0313,39.5313 L26.4219,47.8906 Q27.0156,47.8906 27.2031,48.0313 Q27.5938,48.2969 27.5938,48.75 Q27.5938,49.125 27.3281,49.3594 Q27.0781,49.5938 26.4688,49.5938 L24.1719,49.5938 Q23.5625,49.5938 23.2969,49.3594 Q23.0313,49.125 23.0313,48.7344 Q23.0313,48.3594 23.2969,48.125 Q23.5625,47.8906 24.1719,47.8906 L24.5938,47.8906 L24.1875,46.8594 Z M23.4688,45.1563 L22.1094,41.7813 L20.7344,45.1563 L23.4688,45.1563 Z "/><text fill="#000000" font-family="sans-serif" font-size="14" font-style="italic" lengthAdjust="spacingAndGlyphs" textLength="91" x="47.5" y="44.5332">DescriptorImpl</text><text fill="#000000" font-family="sans-serif" font-size="10" font-style="italic" lengthAdjust="spacingAndGlyphs" textLength="114" x="36" y="57.9902">org.eclipse.epf.uma.impl</text></a><!--MD5=[fe97616762c479449208f3dd5bc19ba1]
class org.eclipse.epf.uma.ProcessComponentDescriptor--><a href="..\ProcessComponentDescriptor.html" target="_top" title="..\ProcessComponentDescriptor.html" xlink:actuate="onRequest" xlink:href="..\ProcessComponentDescriptor.html" xlink:show="new" xlink:title="..\ProcessComponentDescriptor.html" xlink:type="simple"><rect codeLine="16" fill="#FEFECE" filter="url(#fqhexam3gy2jd)" height="75.8594" id="org.eclipse.epf.uma.ProcessComponentDescriptor" style="stroke: #A80036; stroke-width: 1.5;" width="274" x="188" y="7"/><ellipse cx="226.85" cy="27.0938" fill="#B4A7E5" rx="11" ry="11" style="stroke: #A80036; stroke-width: 1.0;"/><path d="M227.8031,23.7344 L227.8031,30.3906 L229.5219,30.3906 Q230.1313,30.3906 230.3969,30.625 Q230.6625,30.8594 230.6625,31.25 Q230.6625,31.625 230.3969,31.8594 Q230.1313,32.0938 229.5219,32.0938 L224.3813,32.0938 Q223.7719,32.0938 223.5063,31.8594 Q223.2406,31.625 223.2406,31.2344 Q223.2406,30.8594 223.5063,30.625 Q223.7719,30.3906 224.3813,30.3906 L226.1,30.3906 L226.1,23.7344 L224.3813,23.7344 Q223.7719,23.7344 223.5063,23.5 Q223.2406,23.2656 223.2406,22.875 Q223.2406,22.5 223.5063,22.2656 Q223.7719,22.0313 224.3813,22.0313 L229.5219,22.0313 Q230.1313,22.0313 230.3969,22.2656 Q230.6625,22.5 230.6625,22.875 Q230.6625,23.2656 230.3969,23.5 Q230.1313,23.7344 229.5219,23.7344 L227.8031,23.7344 Z "/><text fill="#000000" font-family="sans-serif" font-size="14" font-style="italic" lengthAdjust="spacingAndGlyphs" textLength="189" x="246.15" y="26.5332">ProcessComponentDescriptor</text><text fill="#000000" font-family="sans-serif" font-size="10" font-style="italic" lengthAdjust="spacingAndGlyphs" textLength="92" x="294.65" y="39.9902">org.eclipse.epf.uma</text><line style="stroke: #A80036; stroke-width: 1.5;" x1="189" x2="461" y1="47.1875" y2="47.1875"/><ellipse cx="199" cy="58.1875" fill="#84BE84" rx="3" ry="3" style="stroke: #038048; stroke-width: 1.0;"/><text fill="#000000" font-family="sans-serif" font-size="11" font-style="italic" lengthAdjust="spacingAndGlyphs" textLength="228" x="208" y="62.6064">get_processComponent(): ProcessComponent</text><ellipse cx="199" cy="72.0234" fill="#84BE84" rx="3" ry="3" style="stroke: #038048; stroke-width: 1.0;"/><text fill="#000000" font-family="sans-serif" font-size="11" font-style="italic" lengthAdjust="spacingAndGlyphs" textLength="248" x="208" y="76.4424">set_processComponent(ProcessComponent): void</text></a><!--MD5=[ae7d9d9fbc2aa818bc1a621270e36d5a]
reverse link org.eclipse.epf.uma.impl.DescriptorImpl to org.eclipse.epf.uma.impl.ProcessComponentDescriptorImpl--><path codeLine="21" d="M105.49,81.2 C118.47,99.13 134.73,121.6 150.2,142.95 " fill="none" id="org.eclipse.epf.uma.impl.DescriptorImpl-backto-org.eclipse.epf.uma.impl.ProcessComponentDescriptorImpl" style="stroke: #A80036; stroke-width: 1.0;"/><polygon fill="none" points="99.82,85.31,93.76,65,111.16,77.1,99.82,85.31" style="stroke: #A80036; stroke-width: 1.0;"/><!--MD5=[00b36ea1c63dc40bde550b9ffc63696f]
reverse link org.eclipse.epf.uma.ProcessComponentDescriptor to org.eclipse.epf.uma.impl.ProcessComponentDescriptorImpl--><path codeLine="22" d="M285.62,99.95 C275.63,113.64 264.74,128.56 254.22,142.97 " fill="none" id="org.eclipse.epf.uma.ProcessComponentDescriptor-backto-org.eclipse.epf.uma.impl.ProcessComponentDescriptorImpl" style="stroke: #A80036; stroke-width: 1.0; stroke-dasharray: 7.0,7.0;"/><polygon fill="none" points="280.26,95.42,297.7,83.4,291.56,103.68,280.26,95.42" style="stroke: #A80036; stroke-width: 1.0;"/><text fill="#888888" font-family="sans-serif" font-size="10" lengthAdjust="spacingAndGlyphs" textLength="190" x="136.5" y="311.4199">UMLDoclet 2.0.12, PlantUML 1.2020.16</text><!--MD5=[18b91ad112ff28a0044dda60449262eb]
@startuml
    set namespaceSeparator none
    hide empty fields
    hide empty methods

    class "<size:14>ProcessComponentDescriptorImpl\n<size:10>org.eclipse.epf.uma.impl" as org.eclipse.epf.uma.impl.ProcessComponentDescriptorImpl [[ProcessComponentDescriptorImpl.html]] {
        +get_processComponent(): ProcessComponent
        +basicGet_processComponent(): ProcessComponent
        +set_processComponent(ProcessComponent): void
        +eGet(int, boolean, boolean): Object
        +eSet(int, Object): void
        +eUnset(int): void
        +eIsSet(int): boolean
    }

    abstract class "<size:14>DescriptorImpl\n<size:10>org.eclipse.epf.uma.impl" as org.eclipse.epf.uma.impl.DescriptorImpl [[DescriptorImpl.html]]
    interface "<size:14>ProcessComponentDescriptor\n<size:10>org.eclipse.epf.uma" as org.eclipse.epf.uma.ProcessComponentDescriptor [[..\ProcessComponentDescriptor.html]] {
        {abstract} +get_processComponent(): ProcessComponent
        {abstract} +set_processComponent(ProcessComponent): void
    }

    org.eclipse.epf.uma.impl.DescriptorImpl <|- - org.eclipse.epf.uma.impl.ProcessComponentDescriptorImpl
    org.eclipse.epf.uma.ProcessComponentDescriptor <|.. org.eclipse.epf.uma.impl.ProcessComponentDescriptorImpl

    center footer UMLDoclet 2.0.12, PlantUML 1.2020.16
@enduml

PlantUML version 1.2020.16(Sun Aug 23 22:20:43 CEST 2020)
(APACHE source distribution)
Java Runtime: Java(TM) SE Runtime Environment
JVM: Java HotSpot(TM) 64-Bit Server VM
Default Encoding: Cp1252
Language: es
Country: ES
--></g></svg>