<?xml version="1.0" encoding="UTF-8" standalone="no"?><svg xmlns="http://www.w3.org/2000/svg" xmlns:xlink="http://www.w3.org/1999/xlink" contentScriptType="application/ecmascript" contentStyleType="text/css" height="366px" preserveAspectRatio="none" style="width:397px;height:366px;" version="1.1" viewBox="0 0 397 366" width="397px" zoomAndPan="magnify"><defs><filter height="300%" id="f1qncbok53bcwr" width="300%" x="-1" y="-1"><feGaussianBlur result="blurOut" stdDeviation="2.0"/><feColorMatrix in="blurOut" result="blurOut2" type="matrix" values="0 0 0 0 0 0 0 0 0 0 0 0 0 0 0 0 0 0 .4 0"/><feOffset dx="4.0" dy="4.0" in="blurOut2" result="blurOut3"/><feBlend in="SourceGraphic" in2="blurOut3" mode="normal"/></filter></defs><g><!--MD5=[ba692656476fb8c0ff99e5f06187b754]
class org.eclipse.epf.uma.impl.ProcessDescriptionImpl--><a href="ProcessDescriptionImpl.html" target="_top" title="ProcessDescriptionImpl.html" xlink:actuate="onRequest" xlink:href="ProcessDescriptionImpl.html" xlink:show="new" xlink:title="ProcessDescriptionImpl.html" xlink:type="simple"><rect codeLine="5" fill="#FEFECE" filter="url(#f1qncbok53bcwr)" height="158.875" id="org.eclipse.epf.uma.impl.ProcessDescriptionImpl" style="stroke: #A80036; stroke-width: 1.5;" width="193" x="97.5" y="171"/><ellipse cx="118.8" cy="191.0938" fill="#ADD1B2" rx="11" ry="11" style="stroke: #A80036; stroke-width: 1.0;"/><path d="M121.5656,186.9688 Q121.7219,186.75 121.9094,186.6406 Q122.0969,186.5313 122.3156,186.5313 Q122.6906,186.5313 122.925,186.7969 Q123.1594,187.0469 123.1594,187.6563 L123.1594,189.1094 Q123.1594,189.7188 122.925,189.9844 Q122.6906,190.25 122.3156,190.25 Q121.9719,190.25 121.7688,190.0469 Q121.5656,189.8594 121.4563,189.3438 Q121.4094,188.9844 121.2219,188.7969 Q120.8938,188.4219 120.2844,188.2031 Q119.675,187.9844 119.05,187.9844 Q118.2844,187.9844 117.6438,188.3125 Q117.0188,188.6406 116.5188,189.3906 Q116.0344,190.1406 116.0344,191.1719 L116.0344,192.2656 Q116.0344,193.5 116.925,194.3281 Q117.8156,195.1406 119.4094,195.1406 Q120.3469,195.1406 121.0031,194.8906 Q121.3938,194.7344 121.8156,194.2969 Q122.0813,194.0313 122.2219,193.9531 Q122.3781,193.875 122.5813,193.875 Q122.9094,193.875 123.1594,194.1406 Q123.425,194.3906 123.425,194.7344 Q123.425,195.0781 123.0813,195.4844 Q122.5813,196.0625 121.7844,196.3906 Q120.7063,196.8438 119.4094,196.8438 Q117.8938,196.8438 116.6906,196.2188 Q115.7063,195.7188 115.0188,194.6563 Q114.3313,193.5781 114.3313,192.2969 L114.3313,191.1406 Q114.3313,189.8125 114.9406,188.6719 Q115.5656,187.5156 116.6594,186.9063 Q117.7531,186.2813 118.9875,186.2813 Q119.7219,186.2813 120.3625,186.4531 Q121.0188,186.6094 121.5656,186.9688 Z "/><text fill="#000000" font-family="sans-serif" font-size="14" lengthAdjust="spacingAndGlyphs" textLength="147" x="134.2" y="190.5332">ProcessDescriptionImpl</text><text fill="#000000" font-family="sans-serif" font-size="10" lengthAdjust="spacingAndGlyphs" textLength="118" x="148.7" y="203.9902">org.eclipse.epf.uma.impl</text><line style="stroke: #A80036; stroke-width: 1.5;" x1="98.5" x2="289.5" y1="211.1875" y2="211.1875"/><ellipse cx="108.5" cy="222.1875" fill="#84BE84" rx="3" ry="3" style="stroke: #038048; stroke-width: 1.0;"/><text fill="#000000" font-family="sans-serif" font-size="11" lengthAdjust="spacingAndGlyphs" textLength="88" x="117.5" y="226.6064">getScope(): String</text><ellipse cx="108.5" cy="236.0234" fill="#84BE84" rx="3" ry="3" style="stroke: #038048; stroke-width: 1.0;"/><text fill="#000000" font-family="sans-serif" font-size="11" lengthAdjust="spacingAndGlyphs" textLength="108" x="117.5" y="240.4424">setScope(String): void</text><ellipse cx="108.5" cy="249.8594" fill="#84BE84" rx="3" ry="3" style="stroke: #038048; stroke-width: 1.0;"/><text fill="#000000" font-family="sans-serif" font-size="11" lengthAdjust="spacingAndGlyphs" textLength="116" x="117.5" y="254.2783">getUsageNotes(): String</text><ellipse cx="108.5" cy="263.6953" fill="#84BE84" rx="3" ry="3" style="stroke: #038048; stroke-width: 1.0;"/><text fill="#000000" font-family="sans-serif" font-size="11" lengthAdjust="spacingAndGlyphs" textLength="136" x="117.5" y="268.1143">setUsageNotes(String): void</text><ellipse cx="108.5" cy="277.5313" fill="#84BE84" rx="3" ry="3" style="stroke: #038048; stroke-width: 1.0;"/><text fill="#000000" font-family="sans-serif" font-size="11" lengthAdjust="spacingAndGlyphs" textLength="167" x="117.5" y="281.9502">eGet(int, boolean, boolean): Object</text><ellipse cx="108.5" cy="291.3672" fill="#84BE84" rx="3" ry="3" style="stroke: #038048; stroke-width: 1.0;"/><text fill="#000000" font-family="sans-serif" font-size="11" lengthAdjust="spacingAndGlyphs" textLength="104" x="117.5" y="295.7861">eSet(int, Object): void</text><ellipse cx="108.5" cy="305.2031" fill="#84BE84" rx="3" ry="3" style="stroke: #038048; stroke-width: 1.0;"/><text fill="#000000" font-family="sans-serif" font-size="11" lengthAdjust="spacingAndGlyphs" textLength="79" x="117.5" y="309.6221">eUnset(int): void</text><ellipse cx="108.5" cy="319.0391" fill="#84BE84" rx="3" ry="3" style="stroke: #038048; stroke-width: 1.0;"/><text fill="#000000" font-family="sans-serif" font-size="11" lengthAdjust="spacingAndGlyphs" textLength="93" x="117.5" y="323.458">eIsSet(int): boolean</text></a><!--MD5=[807e60d65690f90b635f2d0b65606dc2]
class org.eclipse.epf.uma.impl.ActivityDescriptionImpl--><a href="ActivityDescriptionImpl.html" target="_top" title="ActivityDescriptionImpl.html" xlink:actuate="onRequest" xlink:href="ActivityDescriptionImpl.html" xlink:show="new" xlink:title="ActivityDescriptionImpl.html" xlink:type="simple"><rect codeLine="16" fill="#FEFECE" filter="url(#f1qncbok53bcwr)" height="40.1875" id="org.eclipse.epf.uma.impl.ActivityDescriptionImpl" style="stroke: #A80036; stroke-width: 1.5;" width="172" x="7" y="39"/><ellipse cx="22" cy="59.0938" fill="#ADD1B2" rx="11" ry="11" style="stroke: #A80036; stroke-width: 1.0;"/><path d="M24.7656,54.9688 Q24.9219,54.75 25.1094,54.6406 Q25.2969,54.5313 25.5156,54.5313 Q25.8906,54.5313 26.125,54.7969 Q26.3594,55.0469 26.3594,55.6563 L26.3594,57.1094 Q26.3594,57.7188 26.125,57.9844 Q25.8906,58.25 25.5156,58.25 Q25.1719,58.25 24.9688,58.0469 Q24.7656,57.8594 24.6563,57.3438 Q24.6094,56.9844 24.4219,56.7969 Q24.0938,56.4219 23.4844,56.2031 Q22.875,55.9844 22.25,55.9844 Q21.4844,55.9844 20.8438,56.3125 Q20.2188,56.6406 19.7188,57.3906 Q19.2344,58.1406 19.2344,59.1719 L19.2344,60.2656 Q19.2344,61.5 20.125,62.3281 Q21.0156,63.1406 22.6094,63.1406 Q23.5469,63.1406 24.2031,62.8906 Q24.5938,62.7344 25.0156,62.2969 Q25.2813,62.0313 25.4219,61.9531 Q25.5781,61.875 25.7813,61.875 Q26.1094,61.875 26.3594,62.1406 Q26.625,62.3906 26.625,62.7344 Q26.625,63.0781 26.2813,63.4844 Q25.7813,64.0625 24.9844,64.3906 Q23.9063,64.8438 22.6094,64.8438 Q21.0938,64.8438 19.8906,64.2188 Q18.9063,63.7188 18.2188,62.6563 Q17.5313,61.5781 17.5313,60.2969 L17.5313,59.1406 Q17.5313,57.8125 18.1406,56.6719 Q18.7656,55.5156 19.8594,54.9063 Q20.9531,54.2813 22.1875,54.2813 Q22.9219,54.2813 23.5625,54.4531 Q24.2188,54.6094 24.7656,54.9688 Z "/><text fill="#000000" font-family="sans-serif" font-size="14" lengthAdjust="spacingAndGlyphs" textLength="140" x="36" y="58.5332">ActivityDescriptionImpl</text><text fill="#000000" font-family="sans-serif" font-size="10" lengthAdjust="spacingAndGlyphs" textLength="118" x="47" y="71.9902">org.eclipse.epf.uma.impl</text></a><!--MD5=[1541848ff9002d7b0ad2c250899315bc]
class org.eclipse.epf.uma.ProcessDescription--><a href="..\ProcessDescription.html" target="_top" title="..\ProcessDescription.html" xlink:actuate="onRequest" xlink:href="..\ProcessDescription.html" xlink:show="new" xlink:title="..\ProcessDescription.html" xlink:type="simple"><rect codeLine="17" fill="#FEFECE" filter="url(#f1qncbok53bcwr)" height="103.5313" id="org.eclipse.epf.uma.ProcessDescription" style="stroke: #A80036; stroke-width: 1.5;" width="164" x="214" y="7"/><ellipse cx="233.5" cy="27.0938" fill="#B4A7E5" rx="11" ry="11" style="stroke: #A80036; stroke-width: 1.0;"/><path d="M234.4531,23.7344 L234.4531,30.3906 L236.1719,30.3906 Q236.7813,30.3906 237.0469,30.625 Q237.3125,30.8594 237.3125,31.25 Q237.3125,31.625 237.0469,31.8594 Q236.7813,32.0938 236.1719,32.0938 L231.0313,32.0938 Q230.4219,32.0938 230.1563,31.8594 Q229.8906,31.625 229.8906,31.2344 Q229.8906,30.8594 230.1563,30.625 Q230.4219,30.3906 231.0313,30.3906 L232.75,30.3906 L232.75,23.7344 L231.0313,23.7344 Q230.4219,23.7344 230.1563,23.5 Q229.8906,23.2656 229.8906,22.875 Q229.8906,22.5 230.1563,22.2656 Q230.4219,22.0313 231.0313,22.0313 L236.1719,22.0313 Q236.7813,22.0313 237.0469,22.2656 Q237.3125,22.5 237.3125,22.875 Q237.3125,23.2656 237.0469,23.5 Q236.7813,23.7344 236.1719,23.7344 L234.4531,23.7344 Z "/><text fill="#000000" font-family="sans-serif" font-size="14" font-style="italic" lengthAdjust="spacingAndGlyphs" textLength="122" x="248.5" y="26.5332">ProcessDescription</text><text fill="#000000" font-family="sans-serif" font-size="10" font-style="italic" lengthAdjust="spacingAndGlyphs" textLength="92" x="263.5" y="39.9902">org.eclipse.epf.uma</text><line style="stroke: #A80036; stroke-width: 1.5;" x1="215" x2="377" y1="47.1875" y2="47.1875"/><ellipse cx="225" cy="58.1875" fill="#84BE84" rx="3" ry="3" style="stroke: #038048; stroke-width: 1.0;"/><text fill="#000000" font-family="sans-serif" font-size="11" font-style="italic" lengthAdjust="spacingAndGlyphs" textLength="89" x="234" y="62.6064">getScope(): String</text><ellipse cx="225" cy="72.0234" fill="#84BE84" rx="3" ry="3" style="stroke: #038048; stroke-width: 1.0;"/><text fill="#000000" font-family="sans-serif" font-size="11" font-style="italic" lengthAdjust="spacingAndGlyphs" textLength="109" x="234" y="76.4424">setScope(String): void</text><ellipse cx="225" cy="85.8594" fill="#84BE84" rx="3" ry="3" style="stroke: #038048; stroke-width: 1.0;"/><text fill="#000000" font-family="sans-serif" font-size="11" font-style="italic" lengthAdjust="spacingAndGlyphs" textLength="118" x="234" y="90.2783">getUsageNotes(): String</text><ellipse cx="225" cy="99.6953" fill="#84BE84" rx="3" ry="3" style="stroke: #038048; stroke-width: 1.0;"/><text fill="#000000" font-family="sans-serif" font-size="11" font-style="italic" lengthAdjust="spacingAndGlyphs" textLength="138" x="234" y="104.1143">setUsageNotes(String): void</text></a><!--MD5=[f542cc53e7644074faaddc27be861772]
reverse link org.eclipse.epf.uma.impl.ActivityDescriptionImpl to org.eclipse.epf.uma.impl.ProcessDescriptionImpl--><path codeLine="24" d="M112.67,96.9 C123.87,117.92 138.36,145.1 151.99,170.69 " fill="none" id="org.eclipse.epf.uma.impl.ActivityDescriptionImpl-backto-org.eclipse.epf.uma.impl.ProcessDescriptionImpl" style="stroke: #A80036; stroke-width: 1.0;"/><polygon fill="none" points="106.47,100.16,103.24,79.21,118.82,93.57,106.47,100.16" style="stroke: #A80036; stroke-width: 1.0;"/><!--MD5=[bb83ab5cf1116d5b86346c6d85d7aa7c]
reverse link org.eclipse.epf.uma.ProcessDescription to org.eclipse.epf.uma.impl.ProcessDescriptionImpl--><path codeLine="25" d="M258.79,129.14 C251.51,142.66 243.83,156.93 236.39,170.74 " fill="none" id="org.eclipse.epf.uma.ProcessDescription-backto-org.eclipse.epf.uma.impl.ProcessDescriptionImpl" style="stroke: #A80036; stroke-width: 1.0; stroke-dasharray: 7.0,7.0;"/><polygon fill="none" points="252.75,125.57,268.4,111.28,265.08,132.21,252.75,125.57" style="stroke: #A80036; stroke-width: 1.0;"/><text fill="#888888" font-family="sans-serif" font-size="10" lengthAdjust="spacingAndGlyphs" textLength="190" x="94.5" y="353.2559">UMLDoclet 2.0.12, PlantUML 1.2020.16</text><!--MD5=[2936236d174a3c5be86140f8974d2988]
@startuml
    set namespaceSeparator none
    hide empty fields
    hide empty methods

    class "<size:14>ProcessDescriptionImpl\n<size:10>org.eclipse.epf.uma.impl" as org.eclipse.epf.uma.impl.ProcessDescriptionImpl [[ProcessDescriptionImpl.html]] {
        +getScope(): String
        +setScope(String): void
        +getUsageNotes(): String
        +setUsageNotes(String): void
        +eGet(int, boolean, boolean): Object
        +eSet(int, Object): void
        +eUnset(int): void
        +eIsSet(int): boolean
    }

    class "<size:14>ActivityDescriptionImpl\n<size:10>org.eclipse.epf.uma.impl" as org.eclipse.epf.uma.impl.ActivityDescriptionImpl [[ActivityDescriptionImpl.html]]
    interface "<size:14>ProcessDescription\n<size:10>org.eclipse.epf.uma" as org.eclipse.epf.uma.ProcessDescription [[..\ProcessDescription.html]] {
        {abstract} +getScope(): String
        {abstract} +setScope(String): void
        {abstract} +getUsageNotes(): String
        {abstract} +setUsageNotes(String): void
    }

    org.eclipse.epf.uma.impl.ActivityDescriptionImpl <|- - org.eclipse.epf.uma.impl.ProcessDescriptionImpl
    org.eclipse.epf.uma.ProcessDescription <|.. org.eclipse.epf.uma.impl.ProcessDescriptionImpl

    center footer UMLDoclet 2.0.12, PlantUML 1.2020.16
@enduml

PlantUML version 1.2020.16(Sun Aug 23 22:20:43 CEST 2020)
(APACHE source distribution)
Java Runtime: Java(TM) SE Runtime Environment
JVM: Java HotSpot(TM) 64-Bit Server VM
Default Encoding: Cp1252
Language: es
Country: ES
--></g></svg>