<?xml version="1.0" encoding="UTF-8" standalone="no"?><svg xmlns="http://www.w3.org/2000/svg" xmlns:xlink="http://www.w3.org/1999/xlink" contentScriptType="application/ecmascript" contentStyleType="text/css" height="380px" preserveAspectRatio="none" style="width:471px;height:380px;" version="1.1" viewBox="0 0 471 380" width="471px" zoomAndPan="magnify"><defs><filter height="300%" id="fvcacdy21rkal" width="300%" x="-1" y="-1"><feGaussianBlur result="blurOut" stdDeviation="2.0"/><feColorMatrix in="blurOut" result="blurOut2" type="matrix" values="0 0 0 0 0 0 0 0 0 0 0 0 0 0 0 0 0 0 .4 0"/><feOffset dx="4.0" dy="4.0" in="blurOut2" result="blurOut3"/><feBlend in="SourceGraphic" in2="blurOut3" mode="normal"/></filter></defs><g><!--MD5=[a669480c26f41a3deaeec69de9cc7790]
class org.eclipse.epf.uma.impl.ProcessImpl--><a href="ProcessImpl.html" target="_top" title="ProcessImpl.html" xlink:actuate="onRequest" xlink:href="ProcessImpl.html" xlink:show="new" xlink:title="ProcessImpl.html" xlink:type="simple"><rect codeLine="5" fill="#FEFECE" filter="url(#fvcacdy21rkal)" height="172.7109" id="org.eclipse.epf.uma.impl.ProcessImpl" style="stroke: #A80036; stroke-width: 1.5;" width="253" x="75.5" y="171"/><ellipse cx="140.75" cy="191.0938" fill="#A9DCDF" rx="11" ry="11" style="stroke: #A80036; stroke-width: 1.0;"/><path d="M142.9375,192.8594 L138.7969,192.8594 L138.375,193.8906 L138.7969,193.8906 Q139.4063,193.8906 139.6719,194.125 Q139.9375,194.3594 139.9375,194.75 Q139.9375,195.125 139.6719,195.3594 Q139.4063,195.5938 138.7969,195.5938 L136.5,195.5938 Q135.8906,195.5938 135.6406,195.3594 Q135.375,195.125 135.375,194.7344 Q135.375,194.3594 135.6563,194.125 Q135.9219,193.875 136.5469,193.8906 L139.2188,187.2344 L138.1094,187.2344 Q137.5,187.2344 137.2344,187 Q136.9688,186.7656 136.9688,186.375 Q136.9688,186 137.2344,185.7656 Q137.5,185.5313 138.1094,185.5313 L141.7813,185.5313 L145.1719,193.8906 Q145.7656,193.8906 145.9531,194.0313 Q146.3438,194.2969 146.3438,194.75 Q146.3438,195.125 146.0781,195.3594 Q145.8281,195.5938 145.2188,195.5938 L142.9219,195.5938 Q142.3125,195.5938 142.0469,195.3594 Q141.7813,195.125 141.7813,194.7344 Q141.7813,194.3594 142.0469,194.125 Q142.3125,193.8906 142.9219,193.8906 L143.3438,193.8906 L142.9375,192.8594 Z M142.2188,191.1563 L140.8594,187.7813 L139.4844,191.1563 L142.2188,191.1563 Z "/><text fill="#000000" font-family="sans-serif" font-size="14" font-style="italic" lengthAdjust="spacingAndGlyphs" textLength="77" x="179.75" y="190.5332">ProcessImpl</text><text fill="#000000" font-family="sans-serif" font-size="10" font-style="italic" lengthAdjust="spacingAndGlyphs" textLength="114" x="161.25" y="203.9902">org.eclipse.epf.uma.impl</text><line style="stroke: #A80036; stroke-width: 1.5;" x1="76.5" x2="327.5" y1="211.1875" y2="211.1875"/><ellipse cx="86.5" cy="222.1875" fill="#84BE84" rx="3" ry="3" style="stroke: #038048; stroke-width: 1.0;"/><text fill="#000000" font-family="sans-serif" font-size="11" lengthAdjust="spacingAndGlyphs" textLength="224" x="95.5" y="226.6064">getIncludesPatterns(): EList&lt;CapabilityPattern&gt;</text><ellipse cx="86.5" cy="236.0234" fill="#84BE84" rx="3" ry="3" style="stroke: #038048; stroke-width: 1.0;"/><text fill="#000000" font-family="sans-serif" font-size="11" lengthAdjust="spacingAndGlyphs" textLength="199" x="95.5" y="240.4424">getDefaultContext(): MethodConfiguration</text><ellipse cx="86.5" cy="249.8594" fill="#84BE84" rx="3" ry="3" style="stroke: #038048; stroke-width: 1.0;"/><text fill="#000000" font-family="sans-serif" font-size="11" lengthAdjust="spacingAndGlyphs" textLength="227" x="95.5" y="254.2783">basicGetDefaultContext(): MethodConfiguration</text><ellipse cx="86.5" cy="263.6953" fill="#84BE84" rx="3" ry="3" style="stroke: #038048; stroke-width: 1.0;"/><text fill="#000000" font-family="sans-serif" font-size="11" lengthAdjust="spacingAndGlyphs" textLength="219" x="95.5" y="268.1143">setDefaultContext(MethodConfiguration): void</text><ellipse cx="86.5" cy="277.5313" fill="#84BE84" rx="3" ry="3" style="stroke: #038048; stroke-width: 1.0;"/><text fill="#000000" font-family="sans-serif" font-size="11" lengthAdjust="spacingAndGlyphs" textLength="224" x="95.5" y="281.9502">getValidContext(): EList&lt;MethodConfiguration&gt;</text><ellipse cx="86.5" cy="291.3672" fill="#84BE84" rx="3" ry="3" style="stroke: #038048; stroke-width: 1.0;"/><text fill="#000000" font-family="sans-serif" font-size="11" lengthAdjust="spacingAndGlyphs" textLength="167" x="95.5" y="295.7861">eGet(int, boolean, boolean): Object</text><ellipse cx="86.5" cy="305.2031" fill="#84BE84" rx="3" ry="3" style="stroke: #038048; stroke-width: 1.0;"/><text fill="#000000" font-family="sans-serif" font-size="11" lengthAdjust="spacingAndGlyphs" textLength="104" x="95.5" y="309.6221">eSet(int, Object): void</text><ellipse cx="86.5" cy="319.0391" fill="#84BE84" rx="3" ry="3" style="stroke: #038048; stroke-width: 1.0;"/><text fill="#000000" font-family="sans-serif" font-size="11" lengthAdjust="spacingAndGlyphs" textLength="79" x="95.5" y="323.458">eUnset(int): void</text><ellipse cx="86.5" cy="332.875" fill="#84BE84" rx="3" ry="3" style="stroke: #038048; stroke-width: 1.0;"/><text fill="#000000" font-family="sans-serif" font-size="11" lengthAdjust="spacingAndGlyphs" textLength="93" x="95.5" y="337.2939">eIsSet(int): boolean</text></a><!--MD5=[d1008efaee83a2c82ea7425aab81f830]
class org.eclipse.epf.uma.impl.ActivityImpl--><a href="ActivityImpl.html" target="_top" title="ActivityImpl.html" xlink:actuate="onRequest" xlink:href="ActivityImpl.html" xlink:show="new" xlink:title="ActivityImpl.html" xlink:type="simple"><rect codeLine="17" fill="#FEFECE" filter="url(#fvcacdy21rkal)" height="40.1875" id="org.eclipse.epf.uma.impl.ActivityImpl" style="stroke: #A80036; stroke-width: 1.5;" width="150" x="7" y="39"/><ellipse cx="22" cy="59.0938" fill="#ADD1B2" rx="11" ry="11" style="stroke: #A80036; stroke-width: 1.0;"/><path d="M24.7656,54.9688 Q24.9219,54.75 25.1094,54.6406 Q25.2969,54.5313 25.5156,54.5313 Q25.8906,54.5313 26.125,54.7969 Q26.3594,55.0469 26.3594,55.6563 L26.3594,57.1094 Q26.3594,57.7188 26.125,57.9844 Q25.8906,58.25 25.5156,58.25 Q25.1719,58.25 24.9688,58.0469 Q24.7656,57.8594 24.6563,57.3438 Q24.6094,56.9844 24.4219,56.7969 Q24.0938,56.4219 23.4844,56.2031 Q22.875,55.9844 22.25,55.9844 Q21.4844,55.9844 20.8438,56.3125 Q20.2188,56.6406 19.7188,57.3906 Q19.2344,58.1406 19.2344,59.1719 L19.2344,60.2656 Q19.2344,61.5 20.125,62.3281 Q21.0156,63.1406 22.6094,63.1406 Q23.5469,63.1406 24.2031,62.8906 Q24.5938,62.7344 25.0156,62.2969 Q25.2813,62.0313 25.4219,61.9531 Q25.5781,61.875 25.7813,61.875 Q26.1094,61.875 26.3594,62.1406 Q26.625,62.3906 26.625,62.7344 Q26.625,63.0781 26.2813,63.4844 Q25.7813,64.0625 24.9844,64.3906 Q23.9063,64.8438 22.6094,64.8438 Q21.0938,64.8438 19.8906,64.2188 Q18.9063,63.7188 18.2188,62.6563 Q17.5313,61.5781 17.5313,60.2969 L17.5313,59.1406 Q17.5313,57.8125 18.1406,56.6719 Q18.7656,55.5156 19.8594,54.9063 Q20.9531,54.2813 22.1875,54.2813 Q22.9219,54.2813 23.5625,54.4531 Q24.2188,54.6094 24.7656,54.9688 Z "/><text fill="#000000" font-family="sans-serif" font-size="14" lengthAdjust="spacingAndGlyphs" textLength="69" x="60.5" y="58.5332">ActivityImpl</text><text fill="#000000" font-family="sans-serif" font-size="10" lengthAdjust="spacingAndGlyphs" textLength="118" x="36" y="71.9902">org.eclipse.epf.uma.impl</text></a><!--MD5=[5115765f65760f75118f1b87c3d47785]
class org.eclipse.epf.uma.Process--><a href="..\Process.html" target="_top" title="..\Process.html" xlink:actuate="onRequest" xlink:href="..\Process.html" xlink:show="new" xlink:title="..\Process.html" xlink:type="simple"><rect codeLine="18" fill="#FEFECE" filter="url(#fvcacdy21rkal)" height="103.5313" id="org.eclipse.epf.uma.Process" style="stroke: #A80036; stroke-width: 1.5;" width="260" x="192" y="7"/><ellipse cx="271.75" cy="27.0938" fill="#B4A7E5" rx="11" ry="11" style="stroke: #A80036; stroke-width: 1.0;"/><path d="M272.7031,23.7344 L272.7031,30.3906 L274.4219,30.3906 Q275.0313,30.3906 275.2969,30.625 Q275.5625,30.8594 275.5625,31.25 Q275.5625,31.625 275.2969,31.8594 Q275.0313,32.0938 274.4219,32.0938 L269.2813,32.0938 Q268.6719,32.0938 268.4063,31.8594 Q268.1406,31.625 268.1406,31.2344 Q268.1406,30.8594 268.4063,30.625 Q268.6719,30.3906 269.2813,30.3906 L271,30.3906 L271,23.7344 L269.2813,23.7344 Q268.6719,23.7344 268.4063,23.5 Q268.1406,23.2656 268.1406,22.875 Q268.1406,22.5 268.4063,22.2656 Q268.6719,22.0313 269.2813,22.0313 L274.4219,22.0313 Q275.0313,22.0313 275.2969,22.2656 Q275.5625,22.5 275.5625,22.875 Q275.5625,23.2656 275.2969,23.5 Q275.0313,23.7344 274.4219,23.7344 L272.7031,23.7344 Z "/><text fill="#000000" font-family="sans-serif" font-size="14" font-style="italic" lengthAdjust="spacingAndGlyphs" textLength="51" x="312.75" y="26.5332">Process</text><text fill="#000000" font-family="sans-serif" font-size="10" font-style="italic" lengthAdjust="spacingAndGlyphs" textLength="92" x="292.25" y="39.9902">org.eclipse.epf.uma</text><line style="stroke: #A80036; stroke-width: 1.5;" x1="193" x2="451" y1="47.1875" y2="47.1875"/><ellipse cx="203" cy="58.1875" fill="#84BE84" rx="3" ry="3" style="stroke: #038048; stroke-width: 1.0;"/><text fill="#000000" font-family="sans-serif" font-size="11" font-style="italic" lengthAdjust="spacingAndGlyphs" textLength="234" x="212" y="62.6064">getIncludesPatterns(): EList&lt;CapabilityPattern&gt;</text><ellipse cx="203" cy="72.0234" fill="#84BE84" rx="3" ry="3" style="stroke: #038048; stroke-width: 1.0;"/><text fill="#000000" font-family="sans-serif" font-size="11" font-style="italic" lengthAdjust="spacingAndGlyphs" textLength="204" x="212" y="76.4424">getDefaultContext(): MethodConfiguration</text><ellipse cx="203" cy="85.8594" fill="#84BE84" rx="3" ry="3" style="stroke: #038048; stroke-width: 1.0;"/><text fill="#000000" font-family="sans-serif" font-size="11" font-style="italic" lengthAdjust="spacingAndGlyphs" textLength="224" x="212" y="90.2783">setDefaultContext(MethodConfiguration): void</text><ellipse cx="203" cy="99.6953" fill="#84BE84" rx="3" ry="3" style="stroke: #038048; stroke-width: 1.0;"/><text fill="#000000" font-family="sans-serif" font-size="11" font-style="italic" lengthAdjust="spacingAndGlyphs" textLength="231" x="212" y="104.1143">getValidContext(): EList&lt;MethodConfiguration&gt;</text></a><!--MD5=[88d447cf7eff9da81810185aa2a34324]
reverse link org.eclipse.epf.uma.impl.ActivityImpl to org.eclipse.epf.uma.impl.ProcessImpl--><path codeLine="25" d="M104.28,96.49 C117.1,117.48 133.79,144.81 149.74,170.93 " fill="none" id="org.eclipse.epf.uma.impl.ActivityImpl-backto-org.eclipse.epf.uma.impl.ProcessImpl" style="stroke: #A80036; stroke-width: 1.0;"/><polygon fill="none" points="98.17,99.92,93.72,79.2,110.12,92.62,98.17,99.92" style="stroke: #A80036; stroke-width: 1.0;"/><!--MD5=[b848f7f3b8d1187073fb28c8c5b23fb0]
reverse link org.eclipse.epf.uma.Process to org.eclipse.epf.uma.impl.ProcessImpl--><path codeLine="26" d="M280.21,128.43 C271.89,142.05 263.06,156.52 254.44,170.63 " fill="none" id="org.eclipse.epf.uma.Process-backto-org.eclipse.epf.uma.impl.ProcessImpl" style="stroke: #A80036; stroke-width: 1.0; stroke-dasharray: 7.0,7.0;"/><polygon fill="none" points="274.39,124.54,290.78,111.12,286.33,131.83,274.39,124.54" style="stroke: #A80036; stroke-width: 1.0;"/><text fill="#888888" font-family="sans-serif" font-size="10" lengthAdjust="spacingAndGlyphs" textLength="190" x="131.5" y="367.0918">UMLDoclet 2.0.12, PlantUML 1.2020.16</text><!--MD5=[45754278994345d776b0d938dbd47905]
@startuml
    set namespaceSeparator none
    hide empty fields
    hide empty methods

    abstract class "<size:14>ProcessImpl\n<size:10>org.eclipse.epf.uma.impl" as org.eclipse.epf.uma.impl.ProcessImpl [[ProcessImpl.html]] {
        +getIncludesPatterns(): EList<CapabilityPattern>
        +getDefaultContext(): MethodConfiguration
        +basicGetDefaultContext(): MethodConfiguration
        +setDefaultContext(MethodConfiguration): void
        +getValidContext(): EList<MethodConfiguration>
        +eGet(int, boolean, boolean): Object
        +eSet(int, Object): void
        +eUnset(int): void
        +eIsSet(int): boolean
    }

    class "<size:14>ActivityImpl\n<size:10>org.eclipse.epf.uma.impl" as org.eclipse.epf.uma.impl.ActivityImpl [[ActivityImpl.html]]
    interface "<size:14>Process\n<size:10>org.eclipse.epf.uma" as org.eclipse.epf.uma.Process [[..\Process.html]] {
        {abstract} +getIncludesPatterns(): EList<CapabilityPattern>
        {abstract} +getDefaultContext(): MethodConfiguration
        {abstract} +setDefaultContext(MethodConfiguration): void
        {abstract} +getValidContext(): EList<MethodConfiguration>
    }

    org.eclipse.epf.uma.impl.ActivityImpl <|- - org.eclipse.epf.uma.impl.ProcessImpl
    org.eclipse.epf.uma.Process <|.. org.eclipse.epf.uma.impl.ProcessImpl

    center footer UMLDoclet 2.0.12, PlantUML 1.2020.16
@enduml

PlantUML version 1.2020.16(Sun Aug 23 22:20:43 CEST 2020)
(APACHE source distribution)
Java Runtime: Java(TM) SE Runtime Environment
JVM: Java HotSpot(TM) 64-Bit Server VM
Default Encoding: Cp1252
Language: es
Country: ES
--></g></svg>