<?xml version="1.0" encoding="UTF-8" standalone="no"?><svg xmlns="http://www.w3.org/2000/svg" xmlns:xlink="http://www.w3.org/1999/xlink" contentScriptType="application/ecmascript" contentStyleType="text/css" height="324px" preserveAspectRatio="none" style="width:483px;height:324px;" version="1.1" viewBox="0 0 483 324" width="483px" zoomAndPan="magnify"><defs><filter height="300%" id="f69fypjq9qhdt" width="300%" x="-1" y="-1"><feGaussianBlur result="blurOut" stdDeviation="2.0"/><feColorMatrix in="blurOut" result="blurOut2" type="matrix" values="0 0 0 0 0 0 0 0 0 0 0 0 0 0 0 0 0 0 .4 0"/><feOffset dx="4.0" dy="4.0" in="blurOut2" result="blurOut3"/><feBlend in="SourceGraphic" in2="blurOut3" mode="normal"/></filter></defs><g><!--MD5=[9fbeee4ab2c92b83b03e259d3e53ab86]
class org.eclipse.epf.uma.impl.ProcessPackageImpl--><a href="ProcessPackageImpl.html" target="_top" title="ProcessPackageImpl.html" xlink:actuate="onRequest" xlink:href="ProcessPackageImpl.html" xlink:show="new" xlink:title="ProcessPackageImpl.html" xlink:type="simple"><rect codeLine="5" fill="#FEFECE" filter="url(#f69fypjq9qhdt)" height="145.0391" id="org.eclipse.epf.uma.impl.ProcessPackageImpl" style="stroke: #A80036; stroke-width: 1.5;" width="376" x="23" y="143"/><ellipse cx="141.25" cy="163.0938" fill="#ADD1B2" rx="11" ry="11" style="stroke: #A80036; stroke-width: 1.0;"/><path d="M144.0156,158.9688 Q144.1719,158.75 144.3594,158.6406 Q144.5469,158.5313 144.7656,158.5313 Q145.1406,158.5313 145.375,158.7969 Q145.6094,159.0469 145.6094,159.6563 L145.6094,161.1094 Q145.6094,161.7188 145.375,161.9844 Q145.1406,162.25 144.7656,162.25 Q144.4219,162.25 144.2188,162.0469 Q144.0156,161.8594 143.9063,161.3438 Q143.8594,160.9844 143.6719,160.7969 Q143.3438,160.4219 142.7344,160.2031 Q142.125,159.9844 141.5,159.9844 Q140.7344,159.9844 140.0938,160.3125 Q139.4688,160.6406 138.9688,161.3906 Q138.4844,162.1406 138.4844,163.1719 L138.4844,164.2656 Q138.4844,165.5 139.375,166.3281 Q140.2656,167.1406 141.8594,167.1406 Q142.7969,167.1406 143.4531,166.8906 Q143.8438,166.7344 144.2656,166.2969 Q144.5313,166.0313 144.6719,165.9531 Q144.8281,165.875 145.0313,165.875 Q145.3594,165.875 145.6094,166.1406 Q145.875,166.3906 145.875,166.7344 Q145.875,167.0781 145.5313,167.4844 Q145.0313,168.0625 144.2344,168.3906 Q143.1563,168.8438 141.8594,168.8438 Q140.3438,168.8438 139.1406,168.2188 Q138.1563,167.7188 137.4688,166.6563 Q136.7813,165.5781 136.7813,164.2969 L136.7813,163.1406 Q136.7813,161.8125 137.3906,160.6719 Q138.0156,159.5156 139.1094,158.9063 Q140.2031,158.2813 141.4375,158.2813 Q142.1719,158.2813 142.8125,158.4531 Q143.4688,158.6094 144.0156,158.9688 Z "/><text fill="#000000" font-family="sans-serif" font-size="14" lengthAdjust="spacingAndGlyphs" textLength="131" x="161.75" y="162.5332">ProcessPackageImpl</text><text fill="#000000" font-family="sans-serif" font-size="10" lengthAdjust="spacingAndGlyphs" textLength="118" x="168.25" y="175.9902">org.eclipse.epf.uma.impl</text><line style="stroke: #A80036; stroke-width: 1.5;" x1="24" x2="398" y1="183.1875" y2="183.1875"/><ellipse cx="34" cy="194.1875" fill="#84BE84" rx="3" ry="3" style="stroke: #038048; stroke-width: 1.0;"/><text fill="#000000" font-family="sans-serif" font-size="11" lengthAdjust="spacingAndGlyphs" textLength="224" x="43" y="198.6064">getProcessElements(): EList&lt;ProcessElement&gt;</text><ellipse cx="34" cy="208.0234" fill="#84BE84" rx="3" ry="3" style="stroke: #038048; stroke-width: 1.0;"/><text fill="#000000" font-family="sans-serif" font-size="11" lengthAdjust="spacingAndGlyphs" textLength="148" x="43" y="212.4424">getDiagrams(): EList&lt;Diagram&gt;</text><ellipse cx="34" cy="221.8594" fill="#84BE84" rx="3" ry="3" style="stroke: #038048; stroke-width: 1.0;"/><text fill="#000000" font-family="sans-serif" font-size="11" lengthAdjust="spacingAndGlyphs" textLength="350" x="43" y="226.2783">eInverseRemove(InternalEObject, int, NotificationChain): NotificationChain</text><ellipse cx="34" cy="235.6953" fill="#84BE84" rx="3" ry="3" style="stroke: #038048; stroke-width: 1.0;"/><text fill="#000000" font-family="sans-serif" font-size="11" lengthAdjust="spacingAndGlyphs" textLength="167" x="43" y="240.1143">eGet(int, boolean, boolean): Object</text><ellipse cx="34" cy="249.5313" fill="#84BE84" rx="3" ry="3" style="stroke: #038048; stroke-width: 1.0;"/><text fill="#000000" font-family="sans-serif" font-size="11" lengthAdjust="spacingAndGlyphs" textLength="104" x="43" y="253.9502">eSet(int, Object): void</text><ellipse cx="34" cy="263.3672" fill="#84BE84" rx="3" ry="3" style="stroke: #038048; stroke-width: 1.0;"/><text fill="#000000" font-family="sans-serif" font-size="11" lengthAdjust="spacingAndGlyphs" textLength="79" x="43" y="267.7861">eUnset(int): void</text><ellipse cx="34" cy="277.2031" fill="#84BE84" rx="3" ry="3" style="stroke: #038048; stroke-width: 1.0;"/><text fill="#000000" font-family="sans-serif" font-size="11" lengthAdjust="spacingAndGlyphs" textLength="93" x="43" y="281.6221">eIsSet(int): boolean</text></a><!--MD5=[b9790bee1642cafe6d19150b67b64b93]
class org.eclipse.epf.uma.impl.MethodPackageImpl--><a href="MethodPackageImpl.html" target="_top" title="MethodPackageImpl.html" xlink:actuate="onRequest" xlink:href="MethodPackageImpl.html" xlink:show="new" xlink:title="MethodPackageImpl.html" xlink:type="simple"><rect codeLine="15" fill="#FEFECE" filter="url(#f69fypjq9qhdt)" height="40.1875" id="org.eclipse.epf.uma.impl.MethodPackageImpl" style="stroke: #A80036; stroke-width: 1.5;" width="162" x="7" y="25"/><ellipse cx="22" cy="45.0938" fill="#A9DCDF" rx="11" ry="11" style="stroke: #A80036; stroke-width: 1.0;"/><path d="M24.1875,46.8594 L20.0469,46.8594 L19.625,47.8906 L20.0469,47.8906 Q20.6563,47.8906 20.9219,48.125 Q21.1875,48.3594 21.1875,48.75 Q21.1875,49.125 20.9219,49.3594 Q20.6563,49.5938 20.0469,49.5938 L17.75,49.5938 Q17.1406,49.5938 16.8906,49.3594 Q16.625,49.125 16.625,48.7344 Q16.625,48.3594 16.9063,48.125 Q17.1719,47.875 17.7969,47.8906 L20.4688,41.2344 L19.3594,41.2344 Q18.75,41.2344 18.4844,41 Q18.2188,40.7656 18.2188,40.375 Q18.2188,40 18.4844,39.7656 Q18.75,39.5313 19.3594,39.5313 L23.0313,39.5313 L26.4219,47.8906 Q27.0156,47.8906 27.2031,48.0313 Q27.5938,48.2969 27.5938,48.75 Q27.5938,49.125 27.3281,49.3594 Q27.0781,49.5938 26.4688,49.5938 L24.1719,49.5938 Q23.5625,49.5938 23.2969,49.3594 Q23.0313,49.125 23.0313,48.7344 Q23.0313,48.3594 23.2969,48.125 Q23.5625,47.8906 24.1719,47.8906 L24.5938,47.8906 L24.1875,46.8594 Z M23.4688,45.1563 L22.1094,41.7813 L20.7344,45.1563 L23.4688,45.1563 Z "/><text fill="#000000" font-family="sans-serif" font-size="14" font-style="italic" lengthAdjust="spacingAndGlyphs" textLength="130" x="36" y="44.5332">MethodPackageImpl</text><text fill="#000000" font-family="sans-serif" font-size="10" font-style="italic" lengthAdjust="spacingAndGlyphs" textLength="114" x="44" y="57.9902">org.eclipse.epf.uma.impl</text></a><!--MD5=[90d16350ef0828c72767a5512346de98]
class org.eclipse.epf.uma.ProcessPackage--><a href="..\ProcessPackage.html" target="_top" title="..\ProcessPackage.html" xlink:actuate="onRequest" xlink:href="..\ProcessPackage.html" xlink:show="new" xlink:title="..\ProcessPackage.html" xlink:type="simple"><rect codeLine="16" fill="#FEFECE" filter="url(#f69fypjq9qhdt)" height="75.8594" id="org.eclipse.epf.uma.ProcessPackage" style="stroke: #A80036; stroke-width: 1.5;" width="260" x="204" y="7"/><ellipse cx="276.25" cy="27.0938" fill="#B4A7E5" rx="11" ry="11" style="stroke: #A80036; stroke-width: 1.0;"/><path d="M277.2031,23.7344 L277.2031,30.3906 L278.9219,30.3906 Q279.5313,30.3906 279.7969,30.625 Q280.0625,30.8594 280.0625,31.25 Q280.0625,31.625 279.7969,31.8594 Q279.5313,32.0938 278.9219,32.0938 L273.7813,32.0938 Q273.1719,32.0938 272.9063,31.8594 Q272.6406,31.625 272.6406,31.2344 Q272.6406,30.8594 272.9063,30.625 Q273.1719,30.3906 273.7813,30.3906 L275.5,30.3906 L275.5,23.7344 L273.7813,23.7344 Q273.1719,23.7344 272.9063,23.5 Q272.6406,23.2656 272.6406,22.875 Q272.6406,22.5 272.9063,22.2656 Q273.1719,22.0313 273.7813,22.0313 L278.9219,22.0313 Q279.5313,22.0313 279.7969,22.2656 Q280.0625,22.5 280.0625,22.875 Q280.0625,23.2656 279.7969,23.5 Q279.5313,23.7344 278.9219,23.7344 L277.2031,23.7344 Z "/><text fill="#000000" font-family="sans-serif" font-size="14" font-style="italic" lengthAdjust="spacingAndGlyphs" textLength="107" x="296.75" y="26.5332">ProcessPackage</text><text fill="#000000" font-family="sans-serif" font-size="10" font-style="italic" lengthAdjust="spacingAndGlyphs" textLength="92" x="304.25" y="39.9902">org.eclipse.epf.uma</text><line style="stroke: #A80036; stroke-width: 1.5;" x1="205" x2="463" y1="47.1875" y2="47.1875"/><ellipse cx="215" cy="58.1875" fill="#84BE84" rx="3" ry="3" style="stroke: #038048; stroke-width: 1.0;"/><text fill="#000000" font-family="sans-serif" font-size="11" font-style="italic" lengthAdjust="spacingAndGlyphs" textLength="234" x="224" y="62.6064">getProcessElements(): EList&lt;ProcessElement&gt;</text><ellipse cx="215" cy="72.0234" fill="#84BE84" rx="3" ry="3" style="stroke: #038048; stroke-width: 1.0;"/><text fill="#000000" font-family="sans-serif" font-size="11" font-style="italic" lengthAdjust="spacingAndGlyphs" textLength="156" x="224" y="76.4424">getDiagrams(): EList&lt;Diagram&gt;</text></a><!--MD5=[64762376b2de27f08ef99ed1e29bb26a]
reverse link org.eclipse.epf.uma.impl.MethodPackageImpl to org.eclipse.epf.uma.impl.ProcessPackageImpl--><path codeLine="21" d="M113.7,81.2 C126.78,99.13 143.18,121.6 158.77,142.95 " fill="none" id="org.eclipse.epf.uma.impl.MethodPackageImpl-backto-org.eclipse.epf.uma.impl.ProcessPackageImpl" style="stroke: #A80036; stroke-width: 1.0;"/><polygon fill="none" points="108.01,85.28,101.87,65,119.32,77.03,108.01,85.28" style="stroke: #A80036; stroke-width: 1.0;"/><!--MD5=[6ed69dfa520fe87f6afe7241ca2c43b4]
reverse link org.eclipse.epf.uma.ProcessPackage to org.eclipse.epf.uma.impl.ProcessPackageImpl--><path codeLine="22" d="M294.62,99.95 C284.63,113.64 273.74,128.56 263.22,142.97 " fill="none" id="org.eclipse.epf.uma.ProcessPackage-backto-org.eclipse.epf.uma.impl.ProcessPackageImpl" style="stroke: #A80036; stroke-width: 1.0; stroke-dasharray: 7.0,7.0;"/><polygon fill="none" points="289.26,95.42,306.7,83.4,300.56,103.68,289.26,95.42" style="stroke: #A80036; stroke-width: 1.0;"/><text fill="#888888" font-family="sans-serif" font-size="10" lengthAdjust="spacingAndGlyphs" textLength="190" x="137.5" y="311.4199">UMLDoclet 2.0.12, PlantUML 1.2020.16</text><!--MD5=[409ba8e9418e9cdb810e2921d034d4e1]
@startuml
    set namespaceSeparator none
    hide empty fields
    hide empty methods

    class "<size:14>ProcessPackageImpl\n<size:10>org.eclipse.epf.uma.impl" as org.eclipse.epf.uma.impl.ProcessPackageImpl [[ProcessPackageImpl.html]] {
        +getProcessElements(): EList<ProcessElement>
        +getDiagrams(): EList<Diagram>
        +eInverseRemove(InternalEObject, int, NotificationChain): NotificationChain
        +eGet(int, boolean, boolean): Object
        +eSet(int, Object): void
        +eUnset(int): void
        +eIsSet(int): boolean
    }

    abstract class "<size:14>MethodPackageImpl\n<size:10>org.eclipse.epf.uma.impl" as org.eclipse.epf.uma.impl.MethodPackageImpl [[MethodPackageImpl.html]]
    interface "<size:14>ProcessPackage\n<size:10>org.eclipse.epf.uma" as org.eclipse.epf.uma.ProcessPackage [[..\ProcessPackage.html]] {
        {abstract} +getProcessElements(): EList<ProcessElement>
        {abstract} +getDiagrams(): EList<Diagram>
    }

    org.eclipse.epf.uma.impl.MethodPackageImpl <|- - org.eclipse.epf.uma.impl.ProcessPackageImpl
    org.eclipse.epf.uma.ProcessPackage <|.. org.eclipse.epf.uma.impl.ProcessPackageImpl

    center footer UMLDoclet 2.0.12, PlantUML 1.2020.16
@enduml

PlantUML version 1.2020.16(Sun Aug 23 22:20:43 CEST 2020)
(APACHE source distribution)
Java Runtime: Java(TM) SE Runtime Environment
JVM: Java HotSpot(TM) 64-Bit Server VM
Default Encoding: Cp1252
Language: es
Country: ES
--></g></svg>