<?xml version="1.0" encoding="UTF-8" standalone="no"?><svg xmlns="http://www.w3.org/2000/svg" xmlns:xlink="http://www.w3.org/1999/xlink" contentScriptType="application/ecmascript" contentStyleType="text/css" height="184px" preserveAspectRatio="none" style="width:379px;height:184px;" version="1.1" viewBox="0 0 379 184" width="379px" zoomAndPan="magnify"><defs><filter height="300%" id="f15gro47kfxwd7" width="300%" x="-1" y="-1"><feGaussianBlur result="blurOut" stdDeviation="2.0"/><feColorMatrix in="blurOut" result="blurOut2" type="matrix" values="0 0 0 0 0 0 0 0 0 0 0 0 0 0 0 0 0 0 .4 0"/><feOffset dx="4.0" dy="4.0" in="blurOut2" result="blurOut3"/><feBlend in="SourceGraphic" in2="blurOut3" mode="normal"/></filter></defs><g><!--MD5=[8c3cf60cf2d9a35cbea2f14b42beac3e]
class org.eclipse.epf.uma.impl.ProcessElementImpl--><a href="ProcessElementImpl.html" target="_top" title="ProcessElementImpl.html" xlink:actuate="onRequest" xlink:href="ProcessElementImpl.html" xlink:show="new" xlink:title="ProcessElementImpl.html" xlink:type="simple"><rect codeLine="5" fill="#FEFECE" filter="url(#f15gro47kfxwd7)" height="40.1875" id="org.eclipse.epf.uma.impl.ProcessElementImpl" style="stroke: #A80036; stroke-width: 1.5;" width="160" x="116" y="107"/><ellipse cx="131" cy="127.0938" fill="#A9DCDF" rx="11" ry="11" style="stroke: #A80036; stroke-width: 1.0;"/><path d="M133.1875,128.8594 L129.0469,128.8594 L128.625,129.8906 L129.0469,129.8906 Q129.6563,129.8906 129.9219,130.125 Q130.1875,130.3594 130.1875,130.75 Q130.1875,131.125 129.9219,131.3594 Q129.6563,131.5938 129.0469,131.5938 L126.75,131.5938 Q126.1406,131.5938 125.8906,131.3594 Q125.625,131.125 125.625,130.7344 Q125.625,130.3594 125.9063,130.125 Q126.1719,129.875 126.7969,129.8906 L129.4688,123.2344 L128.3594,123.2344 Q127.75,123.2344 127.4844,123 Q127.2188,122.7656 127.2188,122.375 Q127.2188,122 127.4844,121.7656 Q127.75,121.5313 128.3594,121.5313 L132.0313,121.5313 L135.4219,129.8906 Q136.0156,129.8906 136.2031,130.0313 Q136.5938,130.2969 136.5938,130.75 Q136.5938,131.125 136.3281,131.3594 Q136.0781,131.5938 135.4688,131.5938 L133.1719,131.5938 Q132.5625,131.5938 132.2969,131.3594 Q132.0313,131.125 132.0313,130.7344 Q132.0313,130.3594 132.2969,130.125 Q132.5625,129.8906 133.1719,129.8906 L133.5938,129.8906 L133.1875,128.8594 Z M132.4688,127.1563 L131.1094,123.7813 L129.7344,127.1563 L132.4688,127.1563 Z "/><text fill="#000000" font-family="sans-serif" font-size="14" font-style="italic" lengthAdjust="spacingAndGlyphs" textLength="128" x="145" y="126.5332">ProcessElementImpl</text><text fill="#000000" font-family="sans-serif" font-size="10" font-style="italic" lengthAdjust="spacingAndGlyphs" textLength="114" x="152" y="139.9902">org.eclipse.epf.uma.impl</text></a><!--MD5=[78f5f826bf2698fc4f184b6015e9a3f0]
class org.eclipse.epf.uma.impl.DescribableElementImpl--><a href="DescribableElementImpl.html" target="_top" title="DescribableElementImpl.html" xlink:actuate="onRequest" xlink:href="DescribableElementImpl.html" xlink:show="new" xlink:title="DescribableElementImpl.html" xlink:type="simple"><rect codeLine="8" fill="#FEFECE" filter="url(#f15gro47kfxwd7)" height="40.1875" id="org.eclipse.epf.uma.impl.DescribableElementImpl" style="stroke: #A80036; stroke-width: 1.5;" width="184" x="7" y="7"/><ellipse cx="22" cy="27.0938" fill="#A9DCDF" rx="11" ry="11" style="stroke: #A80036; stroke-width: 1.0;"/><path d="M24.1875,28.8594 L20.0469,28.8594 L19.625,29.8906 L20.0469,29.8906 Q20.6563,29.8906 20.9219,30.125 Q21.1875,30.3594 21.1875,30.75 Q21.1875,31.125 20.9219,31.3594 Q20.6563,31.5938 20.0469,31.5938 L17.75,31.5938 Q17.1406,31.5938 16.8906,31.3594 Q16.625,31.125 16.625,30.7344 Q16.625,30.3594 16.9063,30.125 Q17.1719,29.875 17.7969,29.8906 L20.4688,23.2344 L19.3594,23.2344 Q18.75,23.2344 18.4844,23 Q18.2188,22.7656 18.2188,22.375 Q18.2188,22 18.4844,21.7656 Q18.75,21.5313 19.3594,21.5313 L23.0313,21.5313 L26.4219,29.8906 Q27.0156,29.8906 27.2031,30.0313 Q27.5938,30.2969 27.5938,30.75 Q27.5938,31.125 27.3281,31.3594 Q27.0781,31.5938 26.4688,31.5938 L24.1719,31.5938 Q23.5625,31.5938 23.2969,31.3594 Q23.0313,31.125 23.0313,30.7344 Q23.0313,30.3594 23.2969,30.125 Q23.5625,29.8906 24.1719,29.8906 L24.5938,29.8906 L24.1875,28.8594 Z M23.4688,27.1563 L22.1094,23.7813 L20.7344,27.1563 L23.4688,27.1563 Z "/><text fill="#000000" font-family="sans-serif" font-size="14" font-style="italic" lengthAdjust="spacingAndGlyphs" textLength="152" x="36" y="26.5332">DescribableElementImpl</text><text fill="#000000" font-family="sans-serif" font-size="10" font-style="italic" lengthAdjust="spacingAndGlyphs" textLength="114" x="55" y="39.9902">org.eclipse.epf.uma.impl</text></a><!--MD5=[639d29844b240ded2a28a02d67e09f6d]
class org.eclipse.epf.uma.ProcessElement--><a href="..\ProcessElement.html" target="_top" title="..\ProcessElement.html" xlink:actuate="onRequest" xlink:href="..\ProcessElement.html" xlink:show="new" xlink:title="..\ProcessElement.html" xlink:type="simple"><rect codeLine="9" fill="#FEFECE" filter="url(#f15gro47kfxwd7)" height="40.1875" id="org.eclipse.epf.uma.ProcessElement" style="stroke: #A80036; stroke-width: 1.5;" width="134" x="226" y="7"/><ellipse cx="241" cy="27.0938" fill="#B4A7E5" rx="11" ry="11" style="stroke: #A80036; stroke-width: 1.0;"/><path d="M241.9531,23.7344 L241.9531,30.3906 L243.6719,30.3906 Q244.2813,30.3906 244.5469,30.625 Q244.8125,30.8594 244.8125,31.25 Q244.8125,31.625 244.5469,31.8594 Q244.2813,32.0938 243.6719,32.0938 L238.5313,32.0938 Q237.9219,32.0938 237.6563,31.8594 Q237.3906,31.625 237.3906,31.2344 Q237.3906,30.8594 237.6563,30.625 Q237.9219,30.3906 238.5313,30.3906 L240.25,30.3906 L240.25,23.7344 L238.5313,23.7344 Q237.9219,23.7344 237.6563,23.5 Q237.3906,23.2656 237.3906,22.875 Q237.3906,22.5 237.6563,22.2656 Q237.9219,22.0313 238.5313,22.0313 L243.6719,22.0313 Q244.2813,22.0313 244.5469,22.2656 Q244.8125,22.5 244.8125,22.875 Q244.8125,23.2656 244.5469,23.5 Q244.2813,23.7344 243.6719,23.7344 L241.9531,23.7344 Z "/><text fill="#000000" font-family="sans-serif" font-size="14" font-style="italic" lengthAdjust="spacingAndGlyphs" textLength="102" x="255" y="26.5332">ProcessElement</text><text fill="#000000" font-family="sans-serif" font-size="10" font-style="italic" lengthAdjust="spacingAndGlyphs" textLength="92" x="260" y="39.9902">org.eclipse.epf.uma</text></a><!--MD5=[c31d2cfccd943645ece99751221b1752]
reverse link org.eclipse.epf.uma.impl.DescribableElementImpl to org.eclipse.epf.uma.impl.ProcessElementImpl--><path codeLine="11" d="M132.59,61.94 C147.4,76.9 164.26,93.94 176.88,106.68 " fill="none" id="org.eclipse.epf.uma.impl.DescribableElementImpl-backto-org.eclipse.epf.uma.impl.ProcessElementImpl" style="stroke: #A80036; stroke-width: 1.0;"/><polygon fill="none" points="127.26,66.5,118.16,47.36,137.21,56.65,127.26,66.5" style="stroke: #A80036; stroke-width: 1.0;"/><!--MD5=[4b568641d51f178bb04fd8b9771452e2]
reverse link org.eclipse.epf.uma.ProcessElement to org.eclipse.epf.uma.impl.ProcessElementImpl--><path codeLine="12" d="M259.41,61.94 C244.6,76.9 227.74,93.94 215.12,106.68 " fill="none" id="org.eclipse.epf.uma.ProcessElement-backto-org.eclipse.epf.uma.impl.ProcessElementImpl" style="stroke: #A80036; stroke-width: 1.0; stroke-dasharray: 7.0,7.0;"/><polygon fill="none" points="254.79,56.65,273.84,47.36,264.74,66.5,254.79,56.65" style="stroke: #A80036; stroke-width: 1.0;"/><text fill="#888888" font-family="sans-serif" font-size="10" lengthAdjust="spacingAndGlyphs" textLength="190" x="85.5" y="170.5684">UMLDoclet 2.0.12, PlantUML 1.2020.16</text><!--MD5=[9edbdff2a643e5ae63aaf43901fa427a]
@startuml
    set namespaceSeparator none
    hide empty fields
    hide empty methods

    abstract class "<size:14>ProcessElementImpl\n<size:10>org.eclipse.epf.uma.impl" as org.eclipse.epf.uma.impl.ProcessElementImpl [[ProcessElementImpl.html]] {
    }

    abstract class "<size:14>DescribableElementImpl\n<size:10>org.eclipse.epf.uma.impl" as org.eclipse.epf.uma.impl.DescribableElementImpl [[DescribableElementImpl.html]]
    interface "<size:14>ProcessElement\n<size:10>org.eclipse.epf.uma" as org.eclipse.epf.uma.ProcessElement [[..\ProcessElement.html]]

    org.eclipse.epf.uma.impl.DescribableElementImpl <|- - org.eclipse.epf.uma.impl.ProcessElementImpl
    org.eclipse.epf.uma.ProcessElement <|.. org.eclipse.epf.uma.impl.ProcessElementImpl

    center footer UMLDoclet 2.0.12, PlantUML 1.2020.16
@enduml

PlantUML version 1.2020.16(Sun Aug 23 22:20:43 CEST 2020)
(APACHE source distribution)
Java Runtime: Java(TM) SE Runtime Environment
JVM: Java HotSpot(TM) 64-Bit Server VM
Default Encoding: Cp1252
Language: es
Country: ES
--></g></svg>