<?xml version="1.0" encoding="UTF-8" standalone="no"?><svg xmlns="http://www.w3.org/2000/svg" xmlns:xlink="http://www.w3.org/1999/xlink" contentScriptType="application/ecmascript" contentStyleType="text/css" height="283px" preserveAspectRatio="none" style="width:439px;height:283px;" version="1.1" viewBox="0 0 439 283" width="439px" zoomAndPan="magnify"><defs><filter height="300%" id="f13os1x8ftx7bu" width="300%" x="-1" y="-1"><feGaussianBlur result="blurOut" stdDeviation="2.0"/><feColorMatrix in="blurOut" result="blurOut2" type="matrix" values="0 0 0 0 0 0 0 0 0 0 0 0 0 0 0 0 0 0 .4 0"/><feOffset dx="4.0" dy="4.0" in="blurOut2" result="blurOut3"/><feBlend in="SourceGraphic" in2="blurOut3" mode="normal"/></filter></defs><g><!--MD5=[22fd0003a3e595d5c3af7ea62eb802d0]
class org.eclipse.epf.uma.impl.ProcessPlanningTemplateImpl--><a href="ProcessPlanningTemplateImpl.html" target="_top" title="ProcessPlanningTemplateImpl.html" xlink:actuate="onRequest" xlink:href="ProcessPlanningTemplateImpl.html" xlink:show="new" xlink:title="ProcessPlanningTemplateImpl.html" xlink:type="simple"><rect codeLine="5" fill="#FEFECE" filter="url(#f13os1x8ftx7bu)" height="117.3672" id="org.eclipse.epf.uma.impl.ProcessPlanningTemplateImpl" style="stroke: #A80036; stroke-width: 1.5;" width="227" x="78.5" y="129"/><ellipse cx="95.75" cy="149.0938" fill="#ADD1B2" rx="11" ry="11" style="stroke: #A80036; stroke-width: 1.0;"/><path d="M98.5156,144.9688 Q98.6719,144.75 98.8594,144.6406 Q99.0469,144.5313 99.2656,144.5313 Q99.6406,144.5313 99.875,144.7969 Q100.1094,145.0469 100.1094,145.6563 L100.1094,147.1094 Q100.1094,147.7188 99.875,147.9844 Q99.6406,148.25 99.2656,148.25 Q98.9219,148.25 98.7188,148.0469 Q98.5156,147.8594 98.4063,147.3438 Q98.3594,146.9844 98.1719,146.7969 Q97.8438,146.4219 97.2344,146.2031 Q96.625,145.9844 96,145.9844 Q95.2344,145.9844 94.5938,146.3125 Q93.9688,146.6406 93.4688,147.3906 Q92.9844,148.1406 92.9844,149.1719 L92.9844,150.2656 Q92.9844,151.5 93.875,152.3281 Q94.7656,153.1406 96.3594,153.1406 Q97.2969,153.1406 97.9531,152.8906 Q98.3438,152.7344 98.7656,152.2969 Q99.0313,152.0313 99.1719,151.9531 Q99.3281,151.875 99.5313,151.875 Q99.8594,151.875 100.1094,152.1406 Q100.375,152.3906 100.375,152.7344 Q100.375,153.0781 100.0313,153.4844 Q99.5313,154.0625 98.7344,154.3906 Q97.6563,154.8438 96.3594,154.8438 Q94.8438,154.8438 93.6406,154.2188 Q92.6563,153.7188 91.9688,152.6563 Q91.2813,151.5781 91.2813,150.2969 L91.2813,149.1406 Q91.2813,147.8125 91.8906,146.6719 Q92.5156,145.5156 93.6094,144.9063 Q94.7031,144.2813 95.9375,144.2813 Q96.6719,144.2813 97.3125,144.4531 Q97.9688,144.6094 98.5156,144.9688 Z "/><text fill="#000000" font-family="sans-serif" font-size="14" lengthAdjust="spacingAndGlyphs" textLength="190" x="110.25" y="148.5332">ProcessPlanningTemplateImpl</text><text fill="#000000" font-family="sans-serif" font-size="10" lengthAdjust="spacingAndGlyphs" textLength="118" x="146.25" y="161.9902">org.eclipse.epf.uma.impl</text><line style="stroke: #A80036; stroke-width: 1.5;" x1="79.5" x2="304.5" y1="169.1875" y2="169.1875"/><ellipse cx="89.5" cy="180.1875" fill="#84BE84" rx="3" ry="3" style="stroke: #038048; stroke-width: 1.0;"/><text fill="#000000" font-family="sans-serif" font-size="11" lengthAdjust="spacingAndGlyphs" textLength="201" x="98.5" y="184.6064">getBasedOnProcesses(): EList&lt;Process&gt;</text><ellipse cx="89.5" cy="194.0234" fill="#84BE84" rx="3" ry="3" style="stroke: #038048; stroke-width: 1.0;"/><text fill="#000000" font-family="sans-serif" font-size="11" lengthAdjust="spacingAndGlyphs" textLength="167" x="98.5" y="198.4424">eGet(int, boolean, boolean): Object</text><ellipse cx="89.5" cy="207.8594" fill="#84BE84" rx="3" ry="3" style="stroke: #038048; stroke-width: 1.0;"/><text fill="#000000" font-family="sans-serif" font-size="11" lengthAdjust="spacingAndGlyphs" textLength="104" x="98.5" y="212.2783">eSet(int, Object): void</text><ellipse cx="89.5" cy="221.6953" fill="#84BE84" rx="3" ry="3" style="stroke: #038048; stroke-width: 1.0;"/><text fill="#000000" font-family="sans-serif" font-size="11" lengthAdjust="spacingAndGlyphs" textLength="79" x="98.5" y="226.1143">eUnset(int): void</text><ellipse cx="89.5" cy="235.5313" fill="#84BE84" rx="3" ry="3" style="stroke: #038048; stroke-width: 1.0;"/><text fill="#000000" font-family="sans-serif" font-size="11" lengthAdjust="spacingAndGlyphs" textLength="93" x="98.5" y="239.9502">eIsSet(int): boolean</text></a><!--MD5=[a669480c26f41a3deaeec69de9cc7790]
class org.eclipse.epf.uma.impl.ProcessImpl--><a href="ProcessImpl.html" target="_top" title="ProcessImpl.html" xlink:actuate="onRequest" xlink:href="ProcessImpl.html" xlink:show="new" xlink:title="ProcessImpl.html" xlink:type="simple"><rect codeLine="13" fill="#FEFECE" filter="url(#f13os1x8ftx7bu)" height="40.1875" id="org.eclipse.epf.uma.impl.ProcessImpl" style="stroke: #A80036; stroke-width: 1.5;" width="146" x="7" y="18"/><ellipse cx="22" cy="38.0938" fill="#A9DCDF" rx="11" ry="11" style="stroke: #A80036; stroke-width: 1.0;"/><path d="M24.1875,39.8594 L20.0469,39.8594 L19.625,40.8906 L20.0469,40.8906 Q20.6563,40.8906 20.9219,41.125 Q21.1875,41.3594 21.1875,41.75 Q21.1875,42.125 20.9219,42.3594 Q20.6563,42.5938 20.0469,42.5938 L17.75,42.5938 Q17.1406,42.5938 16.8906,42.3594 Q16.625,42.125 16.625,41.7344 Q16.625,41.3594 16.9063,41.125 Q17.1719,40.875 17.7969,40.8906 L20.4688,34.2344 L19.3594,34.2344 Q18.75,34.2344 18.4844,34 Q18.2188,33.7656 18.2188,33.375 Q18.2188,33 18.4844,32.7656 Q18.75,32.5313 19.3594,32.5313 L23.0313,32.5313 L26.4219,40.8906 Q27.0156,40.8906 27.2031,41.0313 Q27.5938,41.2969 27.5938,41.75 Q27.5938,42.125 27.3281,42.3594 Q27.0781,42.5938 26.4688,42.5938 L24.1719,42.5938 Q23.5625,42.5938 23.2969,42.3594 Q23.0313,42.125 23.0313,41.7344 Q23.0313,41.3594 23.2969,41.125 Q23.5625,40.8906 24.1719,40.8906 L24.5938,40.8906 L24.1875,39.8594 Z M23.4688,38.1563 L22.1094,34.7813 L20.7344,38.1563 L23.4688,38.1563 Z "/><text fill="#000000" font-family="sans-serif" font-size="14" font-style="italic" lengthAdjust="spacingAndGlyphs" textLength="77" x="54.5" y="37.5332">ProcessImpl</text><text fill="#000000" font-family="sans-serif" font-size="10" font-style="italic" lengthAdjust="spacingAndGlyphs" textLength="114" x="36" y="50.9902">org.eclipse.epf.uma.impl</text></a><!--MD5=[1f95b4498327ff4b425f03bc1e1823a0]
class org.eclipse.epf.uma.ProcessPlanningTemplate--><a href="..\ProcessPlanningTemplate.html" target="_top" title="..\ProcessPlanningTemplate.html" xlink:actuate="onRequest" xlink:href="..\ProcessPlanningTemplate.html" xlink:show="new" xlink:title="..\ProcessPlanningTemplate.html" xlink:type="simple"><rect codeLine="14" fill="#FEFECE" filter="url(#f13os1x8ftx7bu)" height="62.0234" id="org.eclipse.epf.uma.ProcessPlanningTemplate" style="stroke: #A80036; stroke-width: 1.5;" width="232" x="188" y="7"/><ellipse cx="218.75" cy="27.0938" fill="#B4A7E5" rx="11" ry="11" style="stroke: #A80036; stroke-width: 1.0;"/><path d="M219.7031,23.7344 L219.7031,30.3906 L221.4219,30.3906 Q222.0313,30.3906 222.2969,30.625 Q222.5625,30.8594 222.5625,31.25 Q222.5625,31.625 222.2969,31.8594 Q222.0313,32.0938 221.4219,32.0938 L216.2813,32.0938 Q215.6719,32.0938 215.4063,31.8594 Q215.1406,31.625 215.1406,31.2344 Q215.1406,30.8594 215.4063,30.625 Q215.6719,30.3906 216.2813,30.3906 L218,30.3906 L218,23.7344 L216.2813,23.7344 Q215.6719,23.7344 215.4063,23.5 Q215.1406,23.2656 215.1406,22.875 Q215.1406,22.5 215.4063,22.2656 Q215.6719,22.0313 216.2813,22.0313 L221.4219,22.0313 Q222.0313,22.0313 222.2969,22.2656 Q222.5625,22.5 222.5625,22.875 Q222.5625,23.2656 222.2969,23.5 Q222.0313,23.7344 221.4219,23.7344 L219.7031,23.7344 Z "/><text fill="#000000" font-family="sans-serif" font-size="14" font-style="italic" lengthAdjust="spacingAndGlyphs" textLength="165" x="236.25" y="26.5332">ProcessPlanningTemplate</text><text fill="#000000" font-family="sans-serif" font-size="10" font-style="italic" lengthAdjust="spacingAndGlyphs" textLength="92" x="272.75" y="39.9902">org.eclipse.epf.uma</text><line style="stroke: #A80036; stroke-width: 1.5;" x1="189" x2="419" y1="47.1875" y2="47.1875"/><ellipse cx="199" cy="58.1875" fill="#84BE84" rx="3" ry="3" style="stroke: #038048; stroke-width: 1.0;"/><text fill="#000000" font-family="sans-serif" font-size="11" font-style="italic" lengthAdjust="spacingAndGlyphs" textLength="206" x="208" y="62.6064">getBasedOnProcesses(): EList&lt;Process&gt;</text></a><!--MD5=[eed98137b491302955ea20166432a64d]
reverse link org.eclipse.epf.uma.impl.ProcessImpl to org.eclipse.epf.uma.impl.ProcessPlanningTemplateImpl--><path codeLine="18" d="M106.84,74.35 C119.19,90.61 134.17,110.34 148.09,128.68 " fill="none" id="org.eclipse.epf.uma.impl.ProcessImpl-backto-org.eclipse.epf.uma.impl.ProcessPlanningTemplateImpl" style="stroke: #A80036; stroke-width: 1.0;"/><polygon fill="none" points="101.16,78.44,94.64,58.28,112.31,69.98,101.16,78.44" style="stroke: #A80036; stroke-width: 1.0;"/><!--MD5=[2bcc6d256cd4562ba96fd1a95a57a568]
reverse link org.eclipse.epf.uma.ProcessPlanningTemplate to org.eclipse.epf.uma.impl.ProcessPlanningTemplateImpl--><path codeLine="19" d="M268.93,85.19 C258.41,99.04 246.74,114.4 235.74,128.9 " fill="none" id="org.eclipse.epf.uma.ProcessPlanningTemplate-backto-org.eclipse.epf.uma.impl.ProcessPlanningTemplateImpl" style="stroke: #A80036; stroke-width: 1.0; stroke-dasharray: 7.0,7.0;"/><polygon fill="none" points="263.4,80.9,281.06,69.2,274.54,89.37,263.4,80.9" style="stroke: #A80036; stroke-width: 1.0;"/><text fill="#888888" font-family="sans-serif" font-size="10" lengthAdjust="spacingAndGlyphs" textLength="190" x="115.5" y="269.748">UMLDoclet 2.0.12, PlantUML 1.2020.16</text><!--MD5=[3f7d24f5806d3e5e1a4439b325e99ffe]
@startuml
    set namespaceSeparator none
    hide empty fields
    hide empty methods

    class "<size:14>ProcessPlanningTemplateImpl\n<size:10>org.eclipse.epf.uma.impl" as org.eclipse.epf.uma.impl.ProcessPlanningTemplateImpl [[ProcessPlanningTemplateImpl.html]] {
        +getBasedOnProcesses(): EList<Process>
        +eGet(int, boolean, boolean): Object
        +eSet(int, Object): void
        +eUnset(int): void
        +eIsSet(int): boolean
    }

    abstract class "<size:14>ProcessImpl\n<size:10>org.eclipse.epf.uma.impl" as org.eclipse.epf.uma.impl.ProcessImpl [[ProcessImpl.html]]
    interface "<size:14>ProcessPlanningTemplate\n<size:10>org.eclipse.epf.uma" as org.eclipse.epf.uma.ProcessPlanningTemplate [[..\ProcessPlanningTemplate.html]] {
        {abstract} +getBasedOnProcesses(): EList<Process>
    }

    org.eclipse.epf.uma.impl.ProcessImpl <|- - org.eclipse.epf.uma.impl.ProcessPlanningTemplateImpl
    org.eclipse.epf.uma.ProcessPlanningTemplate <|.. org.eclipse.epf.uma.impl.ProcessPlanningTemplateImpl

    center footer UMLDoclet 2.0.12, PlantUML 1.2020.16
@enduml

PlantUML version 1.2020.16(Sun Aug 23 22:20:43 CEST 2020)
(APACHE source distribution)
Java Runtime: Java(TM) SE Runtime Environment
JVM: Java HotSpot(TM) 64-Bit Server VM
Default Encoding: Cp1252
Language: es
Country: ES
--></g></svg>