<?xml version="1.0" encoding="UTF-8" standalone="no"?><svg xmlns="http://www.w3.org/2000/svg" xmlns:xlink="http://www.w3.org/1999/xlink" contentScriptType="application/ecmascript" contentStyleType="text/css" height="560px" preserveAspectRatio="none" style="width:505px;height:560px;" version="1.1" viewBox="0 0 505 560" width="505px" zoomAndPan="magnify"><defs><filter height="300%" id="fk8eu9oh6t0w3" width="300%" x="-1" y="-1"><feGaussianBlur result="blurOut" stdDeviation="2.0"/><feColorMatrix in="blurOut" result="blurOut2" type="matrix" values="0 0 0 0 0 0 0 0 0 0 0 0 0 0 0 0 0 0 .4 0"/><feOffset dx="4.0" dy="4.0" in="blurOut2" result="blurOut3"/><feBlend in="SourceGraphic" in2="blurOut3" mode="normal"/></filter></defs><g><!--MD5=[11b34a480f5728b89f7da82c5940c2ef]
class org.eclipse.epf.uma.impl.ProcessComponentImpl--><a href="ProcessComponentImpl.html" target="_top" title="ProcessComponentImpl.html" xlink:actuate="onRequest" xlink:href="ProcessComponentImpl.html" xlink:show="new" xlink:title="ProcessComponentImpl.html" xlink:type="simple"><rect codeLine="5" fill="#FEFECE" filter="url(#fk8eu9oh6t0w3)" height="366.4141" id="org.eclipse.epf.uma.impl.ProcessComponentImpl" style="stroke: #A80036; stroke-width: 1.5;" width="376" x="28.5" y="157"/><ellipse cx="137.75" cy="177.0938" fill="#ADD1B2" rx="11" ry="11" style="stroke: #A80036; stroke-width: 1.0;"/><path d="M140.5156,172.9688 Q140.6719,172.75 140.8594,172.6406 Q141.0469,172.5313 141.2656,172.5313 Q141.6406,172.5313 141.875,172.7969 Q142.1094,173.0469 142.1094,173.6563 L142.1094,175.1094 Q142.1094,175.7188 141.875,175.9844 Q141.6406,176.25 141.2656,176.25 Q140.9219,176.25 140.7188,176.0469 Q140.5156,175.8594 140.4063,175.3438 Q140.3594,174.9844 140.1719,174.7969 Q139.8438,174.4219 139.2344,174.2031 Q138.625,173.9844 138,173.9844 Q137.2344,173.9844 136.5938,174.3125 Q135.9688,174.6406 135.4688,175.3906 Q134.9844,176.1406 134.9844,177.1719 L134.9844,178.2656 Q134.9844,179.5 135.875,180.3281 Q136.7656,181.1406 138.3594,181.1406 Q139.2969,181.1406 139.9531,180.8906 Q140.3438,180.7344 140.7656,180.2969 Q141.0313,180.0313 141.1719,179.9531 Q141.3281,179.875 141.5313,179.875 Q141.8594,179.875 142.1094,180.1406 Q142.375,180.3906 142.375,180.7344 Q142.375,181.0781 142.0313,181.4844 Q141.5313,182.0625 140.7344,182.3906 Q139.6563,182.8438 138.3594,182.8438 Q136.8438,182.8438 135.6406,182.2188 Q134.6563,181.7188 133.9688,180.6563 Q133.2813,179.5781 133.2813,178.2969 L133.2813,177.1406 Q133.2813,175.8125 133.8906,174.6719 Q134.5156,173.5156 135.6094,172.9063 Q136.7031,172.2813 137.9375,172.2813 Q138.6719,172.2813 139.3125,172.4531 Q139.9688,172.6094 140.5156,172.9688 Z "/><text fill="#000000" font-family="sans-serif" font-size="14" lengthAdjust="spacingAndGlyphs" textLength="149" x="158.25" y="176.5332">ProcessComponentImpl</text><text fill="#000000" font-family="sans-serif" font-size="10" lengthAdjust="spacingAndGlyphs" textLength="118" x="173.75" y="189.9902">org.eclipse.epf.uma.impl</text><line style="stroke: #A80036; stroke-width: 1.5;" x1="29.5" x2="403.5" y1="197.1875" y2="197.1875"/><ellipse cx="39.5" cy="208.1875" fill="#84BE84" rx="3" ry="3" style="stroke: #038048; stroke-width: 1.0;"/><text fill="#000000" font-family="sans-serif" font-size="11" lengthAdjust="spacingAndGlyphs" textLength="96" x="48.5" y="212.6064">getAuthors(): String</text><ellipse cx="39.5" cy="222.0234" fill="#84BE84" rx="3" ry="3" style="stroke: #038048; stroke-width: 1.0;"/><text fill="#000000" font-family="sans-serif" font-size="11" lengthAdjust="spacingAndGlyphs" textLength="116" x="48.5" y="226.4424">setAuthors(String): void</text><ellipse cx="39.5" cy="235.8594" fill="#84BE84" rx="3" ry="3" style="stroke: #038048; stroke-width: 1.0;"/><text fill="#000000" font-family="sans-serif" font-size="11" lengthAdjust="spacingAndGlyphs" textLength="110" x="48.5" y="240.2783">getChangeDate(): Date</text><ellipse cx="39.5" cy="249.6953" fill="#84BE84" rx="3" ry="3" style="stroke: #038048; stroke-width: 1.0;"/><text fill="#000000" font-family="sans-serif" font-size="11" lengthAdjust="spacingAndGlyphs" textLength="130" x="48.5" y="254.1143">setChangeDate(Date): void</text><ellipse cx="39.5" cy="263.5313" fill="#84BE84" rx="3" ry="3" style="stroke: #038048; stroke-width: 1.0;"/><text fill="#000000" font-family="sans-serif" font-size="11" lengthAdjust="spacingAndGlyphs" textLength="148" x="48.5" y="267.9502">getChangeDescription(): String</text><ellipse cx="39.5" cy="277.3672" fill="#84BE84" rx="3" ry="3" style="stroke: #038048; stroke-width: 1.0;"/><text fill="#000000" font-family="sans-serif" font-size="11" lengthAdjust="spacingAndGlyphs" textLength="168" x="48.5" y="281.7861">setChangeDescription(String): void</text><ellipse cx="39.5" cy="291.2031" fill="#84BE84" rx="3" ry="3" style="stroke: #038048; stroke-width: 1.0;"/><text fill="#000000" font-family="sans-serif" font-size="11" lengthAdjust="spacingAndGlyphs" textLength="95" x="48.5" y="295.6221">getVersion(): String</text><ellipse cx="39.5" cy="305.0391" fill="#84BE84" rx="3" ry="3" style="stroke: #038048; stroke-width: 1.0;"/><text fill="#000000" font-family="sans-serif" font-size="11" lengthAdjust="spacingAndGlyphs" textLength="115" x="48.5" y="309.458">setVersion(String): void</text><ellipse cx="39.5" cy="318.875" fill="#84BE84" rx="3" ry="3" style="stroke: #038048; stroke-width: 1.0;"/><text fill="#000000" font-family="sans-serif" font-size="11" lengthAdjust="spacingAndGlyphs" textLength="212" x="48.5" y="323.2939">getCopyrightStatement(): SupportingMaterial</text><ellipse cx="39.5" cy="332.7109" fill="#84BE84" rx="3" ry="3" style="stroke: #038048; stroke-width: 1.0;"/><text fill="#000000" font-family="sans-serif" font-size="11" lengthAdjust="spacingAndGlyphs" textLength="240" x="48.5" y="337.1299">basicGetCopyrightStatement(): SupportingMaterial</text><ellipse cx="39.5" cy="346.5469" fill="#84BE84" rx="3" ry="3" style="stroke: #038048; stroke-width: 1.0;"/><text fill="#000000" font-family="sans-serif" font-size="11" lengthAdjust="spacingAndGlyphs" textLength="232" x="48.5" y="350.9658">setCopyrightStatement(SupportingMaterial): void</text><ellipse cx="39.5" cy="360.3828" fill="#84BE84" rx="3" ry="3" style="stroke: #038048; stroke-width: 1.0;"/><text fill="#000000" font-family="sans-serif" font-size="11" lengthAdjust="spacingAndGlyphs" textLength="250" x="48.5" y="364.8018">getInterfaces(): EList&lt;ProcessComponentInterface&gt;</text><ellipse cx="39.5" cy="374.2188" fill="#84BE84" rx="3" ry="3" style="stroke: #038048; stroke-width: 1.0;"/><text fill="#000000" font-family="sans-serif" font-size="11" lengthAdjust="spacingAndGlyphs" textLength="109" x="48.5" y="378.6377">getProcess(): Process</text><ellipse cx="39.5" cy="388.0547" fill="#84BE84" rx="3" ry="3" style="stroke: #038048; stroke-width: 1.0;"/><text fill="#000000" font-family="sans-serif" font-size="11" lengthAdjust="spacingAndGlyphs" textLength="137" x="48.5" y="392.4736">basicGetProcess(): Process</text><ellipse cx="39.5" cy="401.8906" fill="#84BE84" rx="3" ry="3" style="stroke: #038048; stroke-width: 1.0;"/><text fill="#000000" font-family="sans-serif" font-size="11" lengthAdjust="spacingAndGlyphs" textLength="302" x="48.5" y="406.3096">basicSetProcess(Process, NotificationChain): NotificationChain</text><ellipse cx="39.5" cy="415.7266" fill="#84BE84" rx="3" ry="3" style="stroke: #038048; stroke-width: 1.0;"/><text fill="#000000" font-family="sans-serif" font-size="11" lengthAdjust="spacingAndGlyphs" textLength="129" x="48.5" y="420.1455">setProcess(Process): void</text><ellipse cx="39.5" cy="429.5625" fill="#84BE84" rx="3" ry="3" style="stroke: #038048; stroke-width: 1.0;"/><text fill="#000000" font-family="sans-serif" font-size="11" lengthAdjust="spacingAndGlyphs" textLength="350" x="48.5" y="433.9814">eInverseRemove(InternalEObject, int, NotificationChain): NotificationChain</text><ellipse cx="39.5" cy="443.3984" fill="#84BE84" rx="3" ry="3" style="stroke: #038048; stroke-width: 1.0;"/><text fill="#000000" font-family="sans-serif" font-size="11" lengthAdjust="spacingAndGlyphs" textLength="167" x="48.5" y="447.8174">eGet(int, boolean, boolean): Object</text><ellipse cx="39.5" cy="457.2344" fill="#84BE84" rx="3" ry="3" style="stroke: #038048; stroke-width: 1.0;"/><text fill="#000000" font-family="sans-serif" font-size="11" lengthAdjust="spacingAndGlyphs" textLength="104" x="48.5" y="461.6533">eSet(int, Object): void</text><ellipse cx="39.5" cy="471.0703" fill="#84BE84" rx="3" ry="3" style="stroke: #038048; stroke-width: 1.0;"/><text fill="#000000" font-family="sans-serif" font-size="11" lengthAdjust="spacingAndGlyphs" textLength="79" x="48.5" y="475.4893">eUnset(int): void</text><ellipse cx="39.5" cy="484.9063" fill="#84BE84" rx="3" ry="3" style="stroke: #038048; stroke-width: 1.0;"/><text fill="#000000" font-family="sans-serif" font-size="11" lengthAdjust="spacingAndGlyphs" textLength="93" x="48.5" y="489.3252">eIsSet(int): boolean</text><ellipse cx="39.5" cy="498.7422" fill="#84BE84" rx="3" ry="3" style="stroke: #038048; stroke-width: 1.0;"/><text fill="#000000" font-family="sans-serif" font-size="11" lengthAdjust="spacingAndGlyphs" textLength="211" x="48.5" y="503.1611">eBaseStructuralFeatureID(int, Class&lt;?&gt;): int</text><ellipse cx="39.5" cy="512.5781" fill="#84BE84" rx="3" ry="3" style="stroke: #038048; stroke-width: 1.0;"/><text fill="#000000" font-family="sans-serif" font-size="11" lengthAdjust="spacingAndGlyphs" textLength="223" x="48.5" y="516.9971">eDerivedStructuralFeatureID(int, Class&lt;?&gt;): int</text></a><!--MD5=[9fbeee4ab2c92b83b03e259d3e53ab86]
class org.eclipse.epf.uma.impl.ProcessPackageImpl--><a href="ProcessPackageImpl.html" target="_top" title="ProcessPackageImpl.html" xlink:actuate="onRequest" xlink:href="ProcessPackageImpl.html" xlink:show="new" xlink:title="ProcessPackageImpl.html" xlink:type="simple"><rect codeLine="31" fill="#FEFECE" filter="url(#fk8eu9oh6t0w3)" height="40.1875" id="org.eclipse.epf.uma.impl.ProcessPackageImpl" style="stroke: #A80036; stroke-width: 1.5;" width="163" x="7" y="32"/><ellipse cx="22" cy="52.0938" fill="#ADD1B2" rx="11" ry="11" style="stroke: #A80036; stroke-width: 1.0;"/><path d="M24.7656,47.9688 Q24.9219,47.75 25.1094,47.6406 Q25.2969,47.5313 25.5156,47.5313 Q25.8906,47.5313 26.125,47.7969 Q26.3594,48.0469 26.3594,48.6563 L26.3594,50.1094 Q26.3594,50.7188 26.125,50.9844 Q25.8906,51.25 25.5156,51.25 Q25.1719,51.25 24.9688,51.0469 Q24.7656,50.8594 24.6563,50.3438 Q24.6094,49.9844 24.4219,49.7969 Q24.0938,49.4219 23.4844,49.2031 Q22.875,48.9844 22.25,48.9844 Q21.4844,48.9844 20.8438,49.3125 Q20.2188,49.6406 19.7188,50.3906 Q19.2344,51.1406 19.2344,52.1719 L19.2344,53.2656 Q19.2344,54.5 20.125,55.3281 Q21.0156,56.1406 22.6094,56.1406 Q23.5469,56.1406 24.2031,55.8906 Q24.5938,55.7344 25.0156,55.2969 Q25.2813,55.0313 25.4219,54.9531 Q25.5781,54.875 25.7813,54.875 Q26.1094,54.875 26.3594,55.1406 Q26.625,55.3906 26.625,55.7344 Q26.625,56.0781 26.2813,56.4844 Q25.7813,57.0625 24.9844,57.3906 Q23.9063,57.8438 22.6094,57.8438 Q21.0938,57.8438 19.8906,57.2188 Q18.9063,56.7188 18.2188,55.6563 Q17.5313,54.5781 17.5313,53.2969 L17.5313,52.1406 Q17.5313,50.8125 18.1406,49.6719 Q18.7656,48.5156 19.8594,47.9063 Q20.9531,47.2813 22.1875,47.2813 Q22.9219,47.2813 23.5625,47.4531 Q24.2188,47.6094 24.7656,47.9688 Z "/><text fill="#000000" font-family="sans-serif" font-size="14" lengthAdjust="spacingAndGlyphs" textLength="131" x="36" y="51.5332">ProcessPackageImpl</text><text fill="#000000" font-family="sans-serif" font-size="10" lengthAdjust="spacingAndGlyphs" textLength="118" x="42.5" y="64.9902">org.eclipse.epf.uma.impl</text></a><!--MD5=[68201a609fe25d0d7f77bb1f881f2c72]
class org.eclipse.epf.uma.ProcessComponent--><a href="..\ProcessComponent.html" target="_top" title="..\ProcessComponent.html" xlink:actuate="onRequest" xlink:href="..\ProcessComponent.html" xlink:show="new" xlink:title="..\ProcessComponent.html" xlink:type="simple"><rect codeLine="32" fill="#FEFECE" filter="url(#fk8eu9oh6t0w3)" height="89.6953" id="org.eclipse.epf.uma.ProcessComponent" style="stroke: #A80036; stroke-width: 1.5;" width="281" x="205" y="7"/><ellipse cx="279.25" cy="27.0938" fill="#B4A7E5" rx="11" ry="11" style="stroke: #A80036; stroke-width: 1.0;"/><path d="M280.2031,23.7344 L280.2031,30.3906 L281.9219,30.3906 Q282.5313,30.3906 282.7969,30.625 Q283.0625,30.8594 283.0625,31.25 Q283.0625,31.625 282.7969,31.8594 Q282.5313,32.0938 281.9219,32.0938 L276.7813,32.0938 Q276.1719,32.0938 275.9063,31.8594 Q275.6406,31.625 275.6406,31.2344 Q275.6406,30.8594 275.9063,30.625 Q276.1719,30.3906 276.7813,30.3906 L278.5,30.3906 L278.5,23.7344 L276.7813,23.7344 Q276.1719,23.7344 275.9063,23.5 Q275.6406,23.2656 275.6406,22.875 Q275.6406,22.5 275.9063,22.2656 Q276.1719,22.0313 276.7813,22.0313 L281.9219,22.0313 Q282.5313,22.0313 282.7969,22.2656 Q283.0625,22.5 283.0625,22.875 Q283.0625,23.2656 282.7969,23.5 Q282.5313,23.7344 281.9219,23.7344 L280.2031,23.7344 Z "/><text fill="#000000" font-family="sans-serif" font-size="14" font-style="italic" lengthAdjust="spacingAndGlyphs" textLength="124" x="299.75" y="26.5332">ProcessComponent</text><text fill="#000000" font-family="sans-serif" font-size="10" font-style="italic" lengthAdjust="spacingAndGlyphs" textLength="92" x="315.75" y="39.9902">org.eclipse.epf.uma</text><line style="stroke: #A80036; stroke-width: 1.5;" x1="206" x2="485" y1="47.1875" y2="47.1875"/><ellipse cx="216" cy="58.1875" fill="#84BE84" rx="3" ry="3" style="stroke: #038048; stroke-width: 1.0;"/><text fill="#000000" font-family="sans-serif" font-size="11" font-style="italic" lengthAdjust="spacingAndGlyphs" textLength="255" x="225" y="62.6064">getInterfaces(): EList&lt;ProcessComponentInterface&gt;</text><ellipse cx="216" cy="72.0234" fill="#84BE84" rx="3" ry="3" style="stroke: #038048; stroke-width: 1.0;"/><text fill="#000000" font-family="sans-serif" font-size="11" font-style="italic" lengthAdjust="spacingAndGlyphs" textLength="111" x="225" y="76.4424">getProcess(): Process</text><ellipse cx="216" cy="85.8594" fill="#84BE84" rx="3" ry="3" style="stroke: #038048; stroke-width: 1.0;"/><text fill="#000000" font-family="sans-serif" font-size="11" font-style="italic" lengthAdjust="spacingAndGlyphs" textLength="131" x="225" y="90.2783">setProcess(Process): void</text></a><!--MD5=[a61dd900c7fd1b0f81ef22eb727d0440]
reverse link org.eclipse.epf.uma.impl.ProcessPackageImpl to org.eclipse.epf.uma.impl.ProcessComponentImpl--><path codeLine="38" d="M105.33,90.61 C113.42,108.69 123.78,131.83 134.9,156.68 " fill="none" id="org.eclipse.epf.uma.impl.ProcessPackageImpl-backto-org.eclipse.epf.uma.impl.ProcessComponentImpl" style="stroke: #A80036; stroke-width: 1.0;"/><polygon fill="none" points="98.88,93.32,97.1,72.21,111.66,87.6,98.88,93.32" style="stroke: #A80036; stroke-width: 1.0;"/><!--MD5=[9536aa4e08c31d1d394892f286bb9bb6]
reverse link org.eclipse.epf.uma.ProcessComponent to org.eclipse.epf.uma.impl.ProcessComponentImpl--><path codeLine="39" d="M317.38,115.35 C311.63,128.09 305.31,142.11 298.71,156.73 " fill="none" id="org.eclipse.epf.uma.ProcessComponent-backto-org.eclipse.epf.uma.impl.ProcessComponentImpl" style="stroke: #A80036; stroke-width: 1.0; stroke-dasharray: 7.0,7.0;"/><polygon fill="none" points="311.02,112.41,325.63,97.06,323.78,118.17,311.02,112.41" style="stroke: #A80036; stroke-width: 1.0;"/><text fill="#888888" font-family="sans-serif" font-size="10" lengthAdjust="spacingAndGlyphs" textLength="190" x="148.5" y="546.7949">UMLDoclet 2.0.12, PlantUML 1.2020.16</text><!--MD5=[10066683156ee68ede7a55517e7c8094]
@startuml
    set namespaceSeparator none
    hide empty fields
    hide empty methods

    class "<size:14>ProcessComponentImpl\n<size:10>org.eclipse.epf.uma.impl" as org.eclipse.epf.uma.impl.ProcessComponentImpl [[ProcessComponentImpl.html]] {
        +getAuthors(): String
        +setAuthors(String): void
        +getChangeDate(): Date
        +setChangeDate(Date): void
        +getChangeDescription(): String
        +setChangeDescription(String): void
        +getVersion(): String
        +setVersion(String): void
        +getCopyrightStatement(): SupportingMaterial
        +basicGetCopyrightStatement(): SupportingMaterial
        +setCopyrightStatement(SupportingMaterial): void
        +getInterfaces(): EList<ProcessComponentInterface>
        +getProcess(): Process
        +basicGetProcess(): Process
        +basicSetProcess(Process, NotificationChain): NotificationChain
        +setProcess(Process): void
        +eInverseRemove(InternalEObject, int, NotificationChain): NotificationChain
        +eGet(int, boolean, boolean): Object
        +eSet(int, Object): void
        +eUnset(int): void
        +eIsSet(int): boolean
        +eBaseStructuralFeatureID(int, Class<?>): int
        +eDerivedStructuralFeatureID(int, Class<?>): int
    }

    class "<size:14>ProcessPackageImpl\n<size:10>org.eclipse.epf.uma.impl" as org.eclipse.epf.uma.impl.ProcessPackageImpl [[ProcessPackageImpl.html]]
    interface "<size:14>ProcessComponent\n<size:10>org.eclipse.epf.uma" as org.eclipse.epf.uma.ProcessComponent [[..\ProcessComponent.html]] {
        {abstract} +getInterfaces(): EList<ProcessComponentInterface>
        {abstract} +getProcess(): Process
        {abstract} +setProcess(Process): void
    }

    org.eclipse.epf.uma.impl.ProcessPackageImpl <|- - org.eclipse.epf.uma.impl.ProcessComponentImpl
    org.eclipse.epf.uma.ProcessComponent <|.. org.eclipse.epf.uma.impl.ProcessComponentImpl

    center footer UMLDoclet 2.0.12, PlantUML 1.2020.16
@enduml

PlantUML version 1.2020.16(Sun Aug 23 22:20:43 CEST 2020)
(APACHE source distribution)
Java Runtime: Java(TM) SE Runtime Environment
JVM: Java HotSpot(TM) 64-Bit Server VM
Default Encoding: Cp1252
Language: es
Country: ES
--></g></svg>