<?xml version="1.0" encoding="UTF-8" standalone="no"?><svg xmlns="http://www.w3.org/2000/svg" xmlns:xlink="http://www.w3.org/1999/xlink" contentScriptType="application/ecmascript" contentStyleType="text/css" height="324px" preserveAspectRatio="none" style="width:523px;height:324px;" version="1.1" viewBox="0 0 523 324" width="523px" zoomAndPan="magnify"><defs><filter height="300%" id="f1m49552w94yfb" width="300%" x="-1" y="-1"><feGaussianBlur result="blurOut" stdDeviation="2.0"/><feColorMatrix in="blurOut" result="blurOut2" type="matrix" values="0 0 0 0 0 0 0 0 0 0 0 0 0 0 0 0 0 0 .4 0"/><feOffset dx="4.0" dy="4.0" in="blurOut2" result="blurOut3"/><feBlend in="SourceGraphic" in2="blurOut3" mode="normal"/></filter></defs><g><!--MD5=[aee3a12bbb3c44510a40b2ad7cc93477]
class org.eclipse.epf.uma.impl.ProcessComponentInterfaceImpl--><a href="ProcessComponentInterfaceImpl.html" target="_top" title="ProcessComponentInterfaceImpl.html" xlink:actuate="onRequest" xlink:href="ProcessComponentInterfaceImpl.html" xlink:show="new" xlink:title="ProcessComponentInterfaceImpl.html" xlink:type="simple"><rect codeLine="5" fill="#FEFECE" filter="url(#f1m49552w94yfb)" height="145.0391" id="org.eclipse.epf.uma.impl.ProcessComponentInterfaceImpl" style="stroke: #A80036; stroke-width: 1.5;" width="376" x="42" y="143"/><ellipse cx="123.75" cy="163.0938" fill="#ADD1B2" rx="11" ry="11" style="stroke: #A80036; stroke-width: 1.0;"/><path d="M126.5156,158.9688 Q126.6719,158.75 126.8594,158.6406 Q127.0469,158.5313 127.2656,158.5313 Q127.6406,158.5313 127.875,158.7969 Q128.1094,159.0469 128.1094,159.6563 L128.1094,161.1094 Q128.1094,161.7188 127.875,161.9844 Q127.6406,162.25 127.2656,162.25 Q126.9219,162.25 126.7188,162.0469 Q126.5156,161.8594 126.4063,161.3438 Q126.3594,160.9844 126.1719,160.7969 Q125.8438,160.4219 125.2344,160.2031 Q124.625,159.9844 124,159.9844 Q123.2344,159.9844 122.5938,160.3125 Q121.9688,160.6406 121.4688,161.3906 Q120.9844,162.1406 120.9844,163.1719 L120.9844,164.2656 Q120.9844,165.5 121.875,166.3281 Q122.7656,167.1406 124.3594,167.1406 Q125.2969,167.1406 125.9531,166.8906 Q126.3438,166.7344 126.7656,166.2969 Q127.0313,166.0313 127.1719,165.9531 Q127.3281,165.875 127.5313,165.875 Q127.8594,165.875 128.1094,166.1406 Q128.375,166.3906 128.375,166.7344 Q128.375,167.0781 128.0313,167.4844 Q127.5313,168.0625 126.7344,168.3906 Q125.6563,168.8438 124.3594,168.8438 Q122.8438,168.8438 121.6406,168.2188 Q120.6563,167.7188 119.9688,166.6563 Q119.2813,165.5781 119.2813,164.2969 L119.2813,163.1406 Q119.2813,161.8125 119.8906,160.6719 Q120.5156,159.5156 121.6094,158.9063 Q122.7031,158.2813 123.9375,158.2813 Q124.6719,158.2813 125.3125,158.4531 Q125.9688,158.6094 126.5156,158.9688 Z "/><text fill="#000000" font-family="sans-serif" font-size="14" lengthAdjust="spacingAndGlyphs" textLength="204" x="144.25" y="162.5332">ProcessComponentInterfaceImpl</text><text fill="#000000" font-family="sans-serif" font-size="10" lengthAdjust="spacingAndGlyphs" textLength="118" x="187.25" y="175.9902">org.eclipse.epf.uma.impl</text><line style="stroke: #A80036; stroke-width: 1.5;" x1="43" x2="417" y1="183.1875" y2="183.1875"/><ellipse cx="53" cy="194.1875" fill="#84BE84" rx="3" ry="3" style="stroke: #038048; stroke-width: 1.0;"/><text fill="#000000" font-family="sans-serif" font-size="11" lengthAdjust="spacingAndGlyphs" textLength="248" x="62" y="198.6064">getInterfaceSpecifications(): EList&lt;TaskDescriptor&gt;</text><ellipse cx="53" cy="208.0234" fill="#84BE84" rx="3" ry="3" style="stroke: #038048; stroke-width: 1.0;"/><text fill="#000000" font-family="sans-serif" font-size="11" lengthAdjust="spacingAndGlyphs" textLength="229" x="62" y="212.4424">getInterfaceIO(): EList&lt;WorkProductDescriptor&gt;</text><ellipse cx="53" cy="221.8594" fill="#84BE84" rx="3" ry="3" style="stroke: #038048; stroke-width: 1.0;"/><text fill="#000000" font-family="sans-serif" font-size="11" lengthAdjust="spacingAndGlyphs" textLength="350" x="62" y="226.2783">eInverseRemove(InternalEObject, int, NotificationChain): NotificationChain</text><ellipse cx="53" cy="235.6953" fill="#84BE84" rx="3" ry="3" style="stroke: #038048; stroke-width: 1.0;"/><text fill="#000000" font-family="sans-serif" font-size="11" lengthAdjust="spacingAndGlyphs" textLength="167" x="62" y="240.1143">eGet(int, boolean, boolean): Object</text><ellipse cx="53" cy="249.5313" fill="#84BE84" rx="3" ry="3" style="stroke: #038048; stroke-width: 1.0;"/><text fill="#000000" font-family="sans-serif" font-size="11" lengthAdjust="spacingAndGlyphs" textLength="104" x="62" y="253.9502">eSet(int, Object): void</text><ellipse cx="53" cy="263.3672" fill="#84BE84" rx="3" ry="3" style="stroke: #038048; stroke-width: 1.0;"/><text fill="#000000" font-family="sans-serif" font-size="11" lengthAdjust="spacingAndGlyphs" textLength="79" x="62" y="267.7861">eUnset(int): void</text><ellipse cx="53" cy="277.2031" fill="#84BE84" rx="3" ry="3" style="stroke: #038048; stroke-width: 1.0;"/><text fill="#000000" font-family="sans-serif" font-size="11" lengthAdjust="spacingAndGlyphs" textLength="93" x="62" y="281.6221">eIsSet(int): boolean</text></a><!--MD5=[1b431a39b513a232f6a911769ed0ae3f]
class org.eclipse.epf.uma.impl.BreakdownElementImpl--><a href="BreakdownElementImpl.html" target="_top" title="BreakdownElementImpl.html" xlink:actuate="onRequest" xlink:href="BreakdownElementImpl.html" xlink:show="new" xlink:title="BreakdownElementImpl.html" xlink:type="simple"><rect codeLine="15" fill="#FEFECE" filter="url(#f1m49552w94yfb)" height="40.1875" id="org.eclipse.epf.uma.impl.BreakdownElementImpl" style="stroke: #A80036; stroke-width: 1.5;" width="180" x="7" y="25"/><ellipse cx="22" cy="45.0938" fill="#A9DCDF" rx="11" ry="11" style="stroke: #A80036; stroke-width: 1.0;"/><path d="M24.1875,46.8594 L20.0469,46.8594 L19.625,47.8906 L20.0469,47.8906 Q20.6563,47.8906 20.9219,48.125 Q21.1875,48.3594 21.1875,48.75 Q21.1875,49.125 20.9219,49.3594 Q20.6563,49.5938 20.0469,49.5938 L17.75,49.5938 Q17.1406,49.5938 16.8906,49.3594 Q16.625,49.125 16.625,48.7344 Q16.625,48.3594 16.9063,48.125 Q17.1719,47.875 17.7969,47.8906 L20.4688,41.2344 L19.3594,41.2344 Q18.75,41.2344 18.4844,41 Q18.2188,40.7656 18.2188,40.375 Q18.2188,40 18.4844,39.7656 Q18.75,39.5313 19.3594,39.5313 L23.0313,39.5313 L26.4219,47.8906 Q27.0156,47.8906 27.2031,48.0313 Q27.5938,48.2969 27.5938,48.75 Q27.5938,49.125 27.3281,49.3594 Q27.0781,49.5938 26.4688,49.5938 L24.1719,49.5938 Q23.5625,49.5938 23.2969,49.3594 Q23.0313,49.125 23.0313,48.7344 Q23.0313,48.3594 23.2969,48.125 Q23.5625,47.8906 24.1719,47.8906 L24.5938,47.8906 L24.1875,46.8594 Z M23.4688,45.1563 L22.1094,41.7813 L20.7344,45.1563 L23.4688,45.1563 Z "/><text fill="#000000" font-family="sans-serif" font-size="14" font-style="italic" lengthAdjust="spacingAndGlyphs" textLength="148" x="36" y="44.5332">BreakdownElementImpl</text><text fill="#000000" font-family="sans-serif" font-size="10" font-style="italic" lengthAdjust="spacingAndGlyphs" textLength="114" x="53" y="57.9902">org.eclipse.epf.uma.impl</text></a><!--MD5=[6be10685c0074efa3674e4b00d7f70c7]
class org.eclipse.epf.uma.ProcessComponentInterface--><a href="..\ProcessComponentInterface.html" target="_top" title="..\ProcessComponentInterface.html" xlink:actuate="onRequest" xlink:href="..\ProcessComponentInterface.html" xlink:show="new" xlink:title="..\ProcessComponentInterface.html" xlink:type="simple"><rect codeLine="16" fill="#FEFECE" filter="url(#f1m49552w94yfb)" height="75.8594" id="org.eclipse.epf.uma.ProcessComponentInterface" style="stroke: #A80036; stroke-width: 1.5;" width="282" x="222" y="7"/><ellipse cx="268.75" cy="27.0938" fill="#B4A7E5" rx="11" ry="11" style="stroke: #A80036; stroke-width: 1.0;"/><path d="M269.7031,23.7344 L269.7031,30.3906 L271.4219,30.3906 Q272.0313,30.3906 272.2969,30.625 Q272.5625,30.8594 272.5625,31.25 Q272.5625,31.625 272.2969,31.8594 Q272.0313,32.0938 271.4219,32.0938 L266.2813,32.0938 Q265.6719,32.0938 265.4063,31.8594 Q265.1406,31.625 265.1406,31.2344 Q265.1406,30.8594 265.4063,30.625 Q265.6719,30.3906 266.2813,30.3906 L268,30.3906 L268,23.7344 L266.2813,23.7344 Q265.6719,23.7344 265.4063,23.5 Q265.1406,23.2656 265.1406,22.875 Q265.1406,22.5 265.4063,22.2656 Q265.6719,22.0313 266.2813,22.0313 L271.4219,22.0313 Q272.0313,22.0313 272.2969,22.2656 Q272.5625,22.5 272.5625,22.875 Q272.5625,23.2656 272.2969,23.5 Q272.0313,23.7344 271.4219,23.7344 L269.7031,23.7344 Z "/><text fill="#000000" font-family="sans-serif" font-size="14" font-style="italic" lengthAdjust="spacingAndGlyphs" textLength="180" x="289.25" y="26.5332">ProcessComponentInterface</text><text fill="#000000" font-family="sans-serif" font-size="10" font-style="italic" lengthAdjust="spacingAndGlyphs" textLength="92" x="333.25" y="39.9902">org.eclipse.epf.uma</text><line style="stroke: #A80036; stroke-width: 1.5;" x1="223" x2="503" y1="47.1875" y2="47.1875"/><ellipse cx="233" cy="58.1875" fill="#84BE84" rx="3" ry="3" style="stroke: #038048; stroke-width: 1.0;"/><text fill="#000000" font-family="sans-serif" font-size="11" font-style="italic" lengthAdjust="spacingAndGlyphs" textLength="256" x="242" y="62.6064">getInterfaceSpecifications(): EList&lt;TaskDescriptor&gt;</text><ellipse cx="233" cy="72.0234" fill="#84BE84" rx="3" ry="3" style="stroke: #038048; stroke-width: 1.0;"/><text fill="#000000" font-family="sans-serif" font-size="11" font-style="italic" lengthAdjust="spacingAndGlyphs" textLength="238" x="242" y="76.4424">getInterfaceIO(): EList&lt;WorkProductDescriptor&gt;</text></a><!--MD5=[067f053780735b86341d2ec037414911]
reverse link org.eclipse.epf.uma.impl.BreakdownElementImpl to org.eclipse.epf.uma.impl.ProcessComponentInterfaceImpl--><path codeLine="21" d="M124.56,80.92 C138.75,98.89 156.58,121.48 173.52,142.95 " fill="none" id="org.eclipse.epf.uma.impl.BreakdownElementImpl-backto-org.eclipse.epf.uma.impl.ProcessComponentInterfaceImpl" style="stroke: #A80036; stroke-width: 1.0;"/><polygon fill="none" points="118.9,85.04,112,65,129.88,76.36,118.9,85.04" style="stroke: #A80036; stroke-width: 1.0;"/><!--MD5=[217205ff5d541b52fd1c23635b308374]
reverse link org.eclipse.epf.uma.ProcessComponentInterface to org.eclipse.epf.uma.impl.ProcessComponentInterfaceImpl--><path codeLine="22" d="M320.78,99.49 C309.88,113.3 297.96,128.4 286.46,142.97 " fill="none" id="org.eclipse.epf.uma.ProcessComponentInterface-backto-org.eclipse.epf.uma.impl.ProcessComponentInterfaceImpl" style="stroke: #A80036; stroke-width: 1.0; stroke-dasharray: 7.0,7.0;"/><polygon fill="none" points="315.6,94.76,333.48,83.4,326.59,103.43,315.6,94.76" style="stroke: #A80036; stroke-width: 1.0;"/><text fill="#888888" font-family="sans-serif" font-size="10" lengthAdjust="spacingAndGlyphs" textLength="190" x="157.5" y="311.4199">UMLDoclet 2.0.12, PlantUML 1.2020.16</text><!--MD5=[16a0a95c966e0b46d60c9ca9af932893]
@startuml
    set namespaceSeparator none
    hide empty fields
    hide empty methods

    class "<size:14>ProcessComponentInterfaceImpl\n<size:10>org.eclipse.epf.uma.impl" as org.eclipse.epf.uma.impl.ProcessComponentInterfaceImpl [[ProcessComponentInterfaceImpl.html]] {
        +getInterfaceSpecifications(): EList<TaskDescriptor>
        +getInterfaceIO(): EList<WorkProductDescriptor>
        +eInverseRemove(InternalEObject, int, NotificationChain): NotificationChain
        +eGet(int, boolean, boolean): Object
        +eSet(int, Object): void
        +eUnset(int): void
        +eIsSet(int): boolean
    }

    abstract class "<size:14>BreakdownElementImpl\n<size:10>org.eclipse.epf.uma.impl" as org.eclipse.epf.uma.impl.BreakdownElementImpl [[BreakdownElementImpl.html]]
    interface "<size:14>ProcessComponentInterface\n<size:10>org.eclipse.epf.uma" as org.eclipse.epf.uma.ProcessComponentInterface [[..\ProcessComponentInterface.html]] {
        {abstract} +getInterfaceSpecifications(): EList<TaskDescriptor>
        {abstract} +getInterfaceIO(): EList<WorkProductDescriptor>
    }

    org.eclipse.epf.uma.impl.BreakdownElementImpl <|- - org.eclipse.epf.uma.impl.ProcessComponentInterfaceImpl
    org.eclipse.epf.uma.ProcessComponentInterface <|.. org.eclipse.epf.uma.impl.ProcessComponentInterfaceImpl

    center footer UMLDoclet 2.0.12, PlantUML 1.2020.16
@enduml

PlantUML version 1.2020.16(Sun Aug 23 22:20:43 CEST 2020)
(APACHE source distribution)
Java Runtime: Java(TM) SE Runtime Environment
JVM: Java HotSpot(TM) 64-Bit Server VM
Default Encoding: Cp1252
Language: es
Country: ES
--></g></svg>