<?xml version="1.0" encoding="UTF-8" standalone="no"?><svg xmlns="http://www.w3.org/2000/svg" xmlns:xlink="http://www.w3.org/1999/xlink" contentScriptType="application/ecmascript" contentStyleType="text/css" height="283px" preserveAspectRatio="none" style="width:516px;height:283px;" version="1.1" viewBox="0 0 516 283" width="516px" zoomAndPan="magnify"><defs><filter height="300%" id="f1ik43yy2ewc2x" width="300%" x="-1" y="-1"><feGaussianBlur result="blurOut" stdDeviation="2.0"/><feColorMatrix in="blurOut" result="blurOut2" type="matrix" values="0 0 0 0 0 0 0 0 0 0 0 0 0 0 0 0 0 0 .4 0"/><feOffset dx="4.0" dy="4.0" in="blurOut2" result="blurOut3"/><feBlend in="SourceGraphic" in2="blurOut3" mode="normal"/></filter></defs><g><!--MD5=[e17e0a54e571812725750df4baaa8807]
class org.eclipse.epf.uma.impl.ProcessFamilyImpl--><a href="ProcessFamilyImpl.html" target="_top" title="ProcessFamilyImpl.html" xlink:actuate="onRequest" xlink:href="ProcessFamilyImpl.html" xlink:show="new" xlink:title="ProcessFamilyImpl.html" xlink:type="simple"><rect codeLine="5" fill="#FEFECE" filter="url(#f1ik43yy2ewc2x)" height="117.3672" id="org.eclipse.epf.uma.impl.ProcessFamilyImpl" style="stroke: #A80036; stroke-width: 1.5;" width="260" x="102.5" y="129"/><ellipse cx="169.25" cy="149.0938" fill="#ADD1B2" rx="11" ry="11" style="stroke: #A80036; stroke-width: 1.0;"/><path d="M172.0156,144.9688 Q172.1719,144.75 172.3594,144.6406 Q172.5469,144.5313 172.7656,144.5313 Q173.1406,144.5313 173.375,144.7969 Q173.6094,145.0469 173.6094,145.6563 L173.6094,147.1094 Q173.6094,147.7188 173.375,147.9844 Q173.1406,148.25 172.7656,148.25 Q172.4219,148.25 172.2188,148.0469 Q172.0156,147.8594 171.9063,147.3438 Q171.8594,146.9844 171.6719,146.7969 Q171.3438,146.4219 170.7344,146.2031 Q170.125,145.9844 169.5,145.9844 Q168.7344,145.9844 168.0938,146.3125 Q167.4688,146.6406 166.9688,147.3906 Q166.4844,148.1406 166.4844,149.1719 L166.4844,150.2656 Q166.4844,151.5 167.375,152.3281 Q168.2656,153.1406 169.8594,153.1406 Q170.7969,153.1406 171.4531,152.8906 Q171.8438,152.7344 172.2656,152.2969 Q172.5313,152.0313 172.6719,151.9531 Q172.8281,151.875 173.0313,151.875 Q173.3594,151.875 173.6094,152.1406 Q173.875,152.3906 173.875,152.7344 Q173.875,153.0781 173.5313,153.4844 Q173.0313,154.0625 172.2344,154.3906 Q171.1563,154.8438 169.8594,154.8438 Q168.3438,154.8438 167.1406,154.2188 Q166.1563,153.7188 165.4688,152.6563 Q164.7813,151.5781 164.7813,150.2969 L164.7813,149.1406 Q164.7813,147.8125 165.3906,146.6719 Q166.0156,145.5156 167.1094,144.9063 Q168.2031,144.2813 169.4375,144.2813 Q170.1719,144.2813 170.8125,144.4531 Q171.4688,144.6094 172.0156,144.9688 Z "/><text fill="#000000" font-family="sans-serif" font-size="14" lengthAdjust="spacingAndGlyphs" textLength="117" x="190.25" y="148.5332">ProcessFamilyImpl</text><text fill="#000000" font-family="sans-serif" font-size="10" lengthAdjust="spacingAndGlyphs" textLength="118" x="189.75" y="161.9902">org.eclipse.epf.uma.impl</text><line style="stroke: #A80036; stroke-width: 1.5;" x1="103.5" x2="361.5" y1="169.1875" y2="169.1875"/><ellipse cx="113.5" cy="180.1875" fill="#84BE84" rx="3" ry="3" style="stroke: #038048; stroke-width: 1.0;"/><text fill="#000000" font-family="sans-serif" font-size="11" lengthAdjust="spacingAndGlyphs" textLength="234" x="122.5" y="184.6064">getDeliveryProcesses(): EList&lt;DeliveryProcess&gt;</text><ellipse cx="113.5" cy="194.0234" fill="#84BE84" rx="3" ry="3" style="stroke: #038048; stroke-width: 1.0;"/><text fill="#000000" font-family="sans-serif" font-size="11" lengthAdjust="spacingAndGlyphs" textLength="167" x="122.5" y="198.4424">eGet(int, boolean, boolean): Object</text><ellipse cx="113.5" cy="207.8594" fill="#84BE84" rx="3" ry="3" style="stroke: #038048; stroke-width: 1.0;"/><text fill="#000000" font-family="sans-serif" font-size="11" lengthAdjust="spacingAndGlyphs" textLength="104" x="122.5" y="212.2783">eSet(int, Object): void</text><ellipse cx="113.5" cy="221.6953" fill="#84BE84" rx="3" ry="3" style="stroke: #038048; stroke-width: 1.0;"/><text fill="#000000" font-family="sans-serif" font-size="11" lengthAdjust="spacingAndGlyphs" textLength="79" x="122.5" y="226.1143">eUnset(int): void</text><ellipse cx="113.5" cy="235.5313" fill="#84BE84" rx="3" ry="3" style="stroke: #038048; stroke-width: 1.0;"/><text fill="#000000" font-family="sans-serif" font-size="11" lengthAdjust="spacingAndGlyphs" textLength="93" x="122.5" y="239.9502">eIsSet(int): boolean</text></a><!--MD5=[103802b4d4c34039c2eb3cf608b4ba45]
class org.eclipse.epf.uma.impl.MethodConfigurationImpl--><a href="MethodConfigurationImpl.html" target="_top" title="MethodConfigurationImpl.html" xlink:actuate="onRequest" xlink:href="MethodConfigurationImpl.html" xlink:show="new" xlink:title="MethodConfigurationImpl.html" xlink:type="simple"><rect codeLine="13" fill="#FEFECE" filter="url(#f1ik43yy2ewc2x)" height="40.1875" id="org.eclipse.epf.uma.impl.MethodConfigurationImpl" style="stroke: #A80036; stroke-width: 1.5;" width="189" x="7" y="18"/><ellipse cx="22" cy="38.0938" fill="#ADD1B2" rx="11" ry="11" style="stroke: #A80036; stroke-width: 1.0;"/><path d="M24.7656,33.9688 Q24.9219,33.75 25.1094,33.6406 Q25.2969,33.5313 25.5156,33.5313 Q25.8906,33.5313 26.125,33.7969 Q26.3594,34.0469 26.3594,34.6563 L26.3594,36.1094 Q26.3594,36.7188 26.125,36.9844 Q25.8906,37.25 25.5156,37.25 Q25.1719,37.25 24.9688,37.0469 Q24.7656,36.8594 24.6563,36.3438 Q24.6094,35.9844 24.4219,35.7969 Q24.0938,35.4219 23.4844,35.2031 Q22.875,34.9844 22.25,34.9844 Q21.4844,34.9844 20.8438,35.3125 Q20.2188,35.6406 19.7188,36.3906 Q19.2344,37.1406 19.2344,38.1719 L19.2344,39.2656 Q19.2344,40.5 20.125,41.3281 Q21.0156,42.1406 22.6094,42.1406 Q23.5469,42.1406 24.2031,41.8906 Q24.5938,41.7344 25.0156,41.2969 Q25.2813,41.0313 25.4219,40.9531 Q25.5781,40.875 25.7813,40.875 Q26.1094,40.875 26.3594,41.1406 Q26.625,41.3906 26.625,41.7344 Q26.625,42.0781 26.2813,42.4844 Q25.7813,43.0625 24.9844,43.3906 Q23.9063,43.8438 22.6094,43.8438 Q21.0938,43.8438 19.8906,43.2188 Q18.9063,42.7188 18.2188,41.6563 Q17.5313,40.5781 17.5313,39.2969 L17.5313,38.1406 Q17.5313,36.8125 18.1406,35.6719 Q18.7656,34.5156 19.8594,33.9063 Q20.9531,33.2813 22.1875,33.2813 Q22.9219,33.2813 23.5625,33.4531 Q24.2188,33.6094 24.7656,33.9688 Z "/><text fill="#000000" font-family="sans-serif" font-size="14" lengthAdjust="spacingAndGlyphs" textLength="157" x="36" y="37.5332">MethodConfigurationImpl</text><text fill="#000000" font-family="sans-serif" font-size="10" lengthAdjust="spacingAndGlyphs" textLength="118" x="55.5" y="50.9902">org.eclipse.epf.uma.impl</text></a><!--MD5=[04b8faa8493533376a712271526e7de5]
class org.eclipse.epf.uma.ProcessFamily--><a href="..\ProcessFamily.html" target="_top" title="..\ProcessFamily.html" xlink:actuate="onRequest" xlink:href="..\ProcessFamily.html" xlink:show="new" xlink:title="..\ProcessFamily.html" xlink:type="simple"><rect codeLine="14" fill="#FEFECE" filter="url(#f1ik43yy2ewc2x)" height="62.0234" id="org.eclipse.epf.uma.ProcessFamily" style="stroke: #A80036; stroke-width: 1.5;" width="266" x="231.5" y="7"/><ellipse cx="314.25" cy="27.0938" fill="#B4A7E5" rx="11" ry="11" style="stroke: #A80036; stroke-width: 1.0;"/><path d="M315.2031,23.7344 L315.2031,30.3906 L316.9219,30.3906 Q317.5313,30.3906 317.7969,30.625 Q318.0625,30.8594 318.0625,31.25 Q318.0625,31.625 317.7969,31.8594 Q317.5313,32.0938 316.9219,32.0938 L311.7813,32.0938 Q311.1719,32.0938 310.9063,31.8594 Q310.6406,31.625 310.6406,31.2344 Q310.6406,30.8594 310.9063,30.625 Q311.1719,30.3906 311.7813,30.3906 L313.5,30.3906 L313.5,23.7344 L311.7813,23.7344 Q311.1719,23.7344 310.9063,23.5 Q310.6406,23.2656 310.6406,22.875 Q310.6406,22.5 310.9063,22.2656 Q311.1719,22.0313 311.7813,22.0313 L316.9219,22.0313 Q317.5313,22.0313 317.7969,22.2656 Q318.0625,22.5 318.0625,22.875 Q318.0625,23.2656 317.7969,23.5 Q317.5313,23.7344 316.9219,23.7344 L315.2031,23.7344 Z "/><text fill="#000000" font-family="sans-serif" font-size="14" font-style="italic" lengthAdjust="spacingAndGlyphs" textLength="92" x="334.75" y="26.5332">ProcessFamily</text><text fill="#000000" font-family="sans-serif" font-size="10" font-style="italic" lengthAdjust="spacingAndGlyphs" textLength="92" x="334.75" y="39.9902">org.eclipse.epf.uma</text><line style="stroke: #A80036; stroke-width: 1.5;" x1="232.5" x2="496.5" y1="47.1875" y2="47.1875"/><ellipse cx="242.5" cy="58.1875" fill="#84BE84" rx="3" ry="3" style="stroke: #038048; stroke-width: 1.0;"/><text fill="#000000" font-family="sans-serif" font-size="11" font-style="italic" lengthAdjust="spacingAndGlyphs" textLength="240" x="251.5" y="62.6064">getDeliveryProcesses(): EList&lt;DeliveryProcess&gt;</text></a><!--MD5=[cd50e9211993a53c792e80091df1f305]
reverse link org.eclipse.epf.uma.impl.MethodConfigurationImpl to org.eclipse.epf.uma.impl.ProcessFamilyImpl--><path codeLine="18" d="M131.98,73.31 C146.59,89.77 164.51,109.94 181.15,128.68 " fill="none" id="org.eclipse.epf.uma.impl.MethodConfigurationImpl-backto-org.eclipse.epf.uma.impl.ProcessFamilyImpl" style="stroke: #A80036; stroke-width: 1.0;"/><polygon fill="none" points="126.67,77.89,118.63,58.28,137.14,68.59,126.67,77.89" style="stroke: #A80036; stroke-width: 1.0;"/><!--MD5=[5e8e32f25ee575b536abb4ff8a86928e]
reverse link org.eclipse.epf.uma.ProcessFamily to org.eclipse.epf.uma.impl.ProcessFamilyImpl--><path codeLine="19" d="M323.98,84.28 C311.38,98.36 297.3,114.09 284.05,128.9 " fill="none" id="org.eclipse.epf.uma.ProcessFamily-backto-org.eclipse.epf.uma.impl.ProcessFamilyImpl" style="stroke: #A80036; stroke-width: 1.0; stroke-dasharray: 7.0,7.0;"/><polygon fill="none" points="318.92,79.44,337.47,69.2,329.35,88.78,318.92,79.44" style="stroke: #A80036; stroke-width: 1.0;"/><text fill="#888888" font-family="sans-serif" font-size="10" lengthAdjust="spacingAndGlyphs" textLength="190" x="154.25" y="269.748">UMLDoclet 2.0.12, PlantUML 1.2020.16</text><!--MD5=[e1c6bc57ceb1223d04d67373c3c37bf1]
@startuml
    set namespaceSeparator none
    hide empty fields
    hide empty methods

    class "<size:14>ProcessFamilyImpl\n<size:10>org.eclipse.epf.uma.impl" as org.eclipse.epf.uma.impl.ProcessFamilyImpl [[ProcessFamilyImpl.html]] {
        +getDeliveryProcesses(): EList<DeliveryProcess>
        +eGet(int, boolean, boolean): Object
        +eSet(int, Object): void
        +eUnset(int): void
        +eIsSet(int): boolean
    }

    class "<size:14>MethodConfigurationImpl\n<size:10>org.eclipse.epf.uma.impl" as org.eclipse.epf.uma.impl.MethodConfigurationImpl [[MethodConfigurationImpl.html]]
    interface "<size:14>ProcessFamily\n<size:10>org.eclipse.epf.uma" as org.eclipse.epf.uma.ProcessFamily [[..\ProcessFamily.html]] {
        {abstract} +getDeliveryProcesses(): EList<DeliveryProcess>
    }

    org.eclipse.epf.uma.impl.MethodConfigurationImpl <|- - org.eclipse.epf.uma.impl.ProcessFamilyImpl
    org.eclipse.epf.uma.ProcessFamily <|.. org.eclipse.epf.uma.impl.ProcessFamilyImpl

    center footer UMLDoclet 2.0.12, PlantUML 1.2020.16
@enduml

PlantUML version 1.2020.16(Sun Aug 23 22:20:43 CEST 2020)
(APACHE source distribution)
Java Runtime: Java(TM) SE Runtime Environment
JVM: Java HotSpot(TM) 64-Bit Server VM
Default Encoding: Cp1252
Language: es
Country: ES
--></g></svg>