<?xml version="1.0" encoding="UTF-8" standalone="no"?><svg xmlns="http://www.w3.org/2000/svg" xmlns:xlink="http://www.w3.org/1999/xlink" contentScriptType="application/ecmascript" contentStyleType="text/css" height="366px" preserveAspectRatio="none" style="width:355px;height:366px;" version="1.1" viewBox="0 0 355 366" width="355px" zoomAndPan="magnify"><defs><filter height="300%" id="fanzrpay7cxwd" width="300%" x="-1" y="-1"><feGaussianBlur result="blurOut" stdDeviation="2.0"/><feColorMatrix in="blurOut" result="blurOut2" type="matrix" values="0 0 0 0 0 0 0 0 0 0 0 0 0 0 0 0 0 0 .4 0"/><feOffset dx="4.0" dy="4.0" in="blurOut2" result="blurOut3"/><feBlend in="SourceGraphic" in2="blurOut3" mode="normal"/></filter></defs><g><!--MD5=[f01d1af13e4518bfbfed0be123fcbe7b]
class org.eclipse.epf.uma.impl.PropertyImpl--><a href="PropertyImpl.html" target="_top" title="PropertyImpl.html" xlink:actuate="onRequest" xlink:href="PropertyImpl.html" xlink:show="new" xlink:title="PropertyImpl.html" xlink:type="simple"><rect codeLine="5" fill="#FEFECE" filter="url(#fanzrpay7cxwd)" height="158.875" id="org.eclipse.epf.uma.impl.PropertyImpl" style="stroke: #A80036; stroke-width: 1.5;" width="193" x="82.5" y="171"/><ellipse cx="116.85" cy="191.0938" fill="#ADD1B2" rx="11" ry="11" style="stroke: #A80036; stroke-width: 1.0;"/><path d="M119.6156,186.9688 Q119.7719,186.75 119.9594,186.6406 Q120.1469,186.5313 120.3656,186.5313 Q120.7406,186.5313 120.975,186.7969 Q121.2094,187.0469 121.2094,187.6563 L121.2094,189.1094 Q121.2094,189.7188 120.975,189.9844 Q120.7406,190.25 120.3656,190.25 Q120.0219,190.25 119.8188,190.0469 Q119.6156,189.8594 119.5063,189.3438 Q119.4594,188.9844 119.2719,188.7969 Q118.9438,188.4219 118.3344,188.2031 Q117.725,187.9844 117.1,187.9844 Q116.3344,187.9844 115.6938,188.3125 Q115.0688,188.6406 114.5688,189.3906 Q114.0844,190.1406 114.0844,191.1719 L114.0844,192.2656 Q114.0844,193.5 114.975,194.3281 Q115.8656,195.1406 117.4594,195.1406 Q118.3969,195.1406 119.0531,194.8906 Q119.4438,194.7344 119.8656,194.2969 Q120.1313,194.0313 120.2719,193.9531 Q120.4281,193.875 120.6313,193.875 Q120.9594,193.875 121.2094,194.1406 Q121.475,194.3906 121.475,194.7344 Q121.475,195.0781 121.1313,195.4844 Q120.6313,196.0625 119.8344,196.3906 Q118.7563,196.8438 117.4594,196.8438 Q115.9438,196.8438 114.7406,196.2188 Q113.7563,195.7188 113.0688,194.6563 Q112.3813,193.5781 112.3813,192.2969 L112.3813,191.1406 Q112.3813,189.8125 112.9906,188.6719 Q113.6156,187.5156 114.7094,186.9063 Q115.8031,186.2813 117.0375,186.2813 Q117.7719,186.2813 118.4125,186.4531 Q119.0688,186.6094 119.6156,186.9688 Z "/><text fill="#000000" font-family="sans-serif" font-size="14" lengthAdjust="spacingAndGlyphs" textLength="79" x="154.65" y="190.5332">PropertyImpl</text><text fill="#000000" font-family="sans-serif" font-size="10" lengthAdjust="spacingAndGlyphs" textLength="118" x="135.15" y="203.9902">org.eclipse.epf.uma.impl</text><line style="stroke: #A80036; stroke-width: 1.5;" x1="83.5" x2="274.5" y1="211.1875" y2="211.1875"/><ellipse cx="93.5" cy="222.1875" fill="#84BE84" rx="3" ry="3" style="stroke: #038048; stroke-width: 1.0;"/><text fill="#000000" font-family="sans-serif" font-size="11" lengthAdjust="spacingAndGlyphs" textLength="76" x="102.5" y="226.6064">getKey(): String</text><ellipse cx="93.5" cy="236.0234" fill="#84BE84" rx="3" ry="3" style="stroke: #038048; stroke-width: 1.0;"/><text fill="#000000" font-family="sans-serif" font-size="11" lengthAdjust="spacingAndGlyphs" textLength="96" x="102.5" y="240.4424">setKey(String): void</text><ellipse cx="93.5" cy="249.8594" fill="#84BE84" rx="3" ry="3" style="stroke: #038048; stroke-width: 1.0;"/><text fill="#000000" font-family="sans-serif" font-size="11" lengthAdjust="spacingAndGlyphs" textLength="85" x="102.5" y="254.2783">getValue(): String</text><ellipse cx="93.5" cy="263.6953" fill="#84BE84" rx="3" ry="3" style="stroke: #038048; stroke-width: 1.0;"/><text fill="#000000" font-family="sans-serif" font-size="11" lengthAdjust="spacingAndGlyphs" textLength="105" x="102.5" y="268.1143">setValue(String): void</text><ellipse cx="93.5" cy="277.5313" fill="#84BE84" rx="3" ry="3" style="stroke: #038048; stroke-width: 1.0;"/><text fill="#000000" font-family="sans-serif" font-size="11" lengthAdjust="spacingAndGlyphs" textLength="167" x="102.5" y="281.9502">eGet(int, boolean, boolean): Object</text><ellipse cx="93.5" cy="291.3672" fill="#84BE84" rx="3" ry="3" style="stroke: #038048; stroke-width: 1.0;"/><text fill="#000000" font-family="sans-serif" font-size="11" lengthAdjust="spacingAndGlyphs" textLength="104" x="102.5" y="295.7861">eSet(int, Object): void</text><ellipse cx="93.5" cy="305.2031" fill="#84BE84" rx="3" ry="3" style="stroke: #038048; stroke-width: 1.0;"/><text fill="#000000" font-family="sans-serif" font-size="11" lengthAdjust="spacingAndGlyphs" textLength="79" x="102.5" y="309.6221">eUnset(int): void</text><ellipse cx="93.5" cy="319.0391" fill="#84BE84" rx="3" ry="3" style="stroke: #038048; stroke-width: 1.0;"/><text fill="#000000" font-family="sans-serif" font-size="11" lengthAdjust="spacingAndGlyphs" textLength="93" x="102.5" y="323.458">eIsSet(int): boolean</text></a><!--MD5=[1c2b459c5c50809e62270736e90e6bdc]
class org.eclipse.epf.uma.impl.DiagramElementImpl--><a href="DiagramElementImpl.html" target="_top" title="DiagramElementImpl.html" xlink:actuate="onRequest" xlink:href="DiagramElementImpl.html" xlink:show="new" xlink:title="DiagramElementImpl.html" xlink:type="simple"><rect codeLine="16" fill="#FEFECE" filter="url(#fanzrpay7cxwd)" height="40.1875" id="org.eclipse.epf.uma.impl.DiagramElementImpl" style="stroke: #A80036; stroke-width: 1.5;" width="162" x="7" y="39"/><ellipse cx="22" cy="59.0938" fill="#A9DCDF" rx="11" ry="11" style="stroke: #A80036; stroke-width: 1.0;"/><path d="M24.1875,60.8594 L20.0469,60.8594 L19.625,61.8906 L20.0469,61.8906 Q20.6563,61.8906 20.9219,62.125 Q21.1875,62.3594 21.1875,62.75 Q21.1875,63.125 20.9219,63.3594 Q20.6563,63.5938 20.0469,63.5938 L17.75,63.5938 Q17.1406,63.5938 16.8906,63.3594 Q16.625,63.125 16.625,62.7344 Q16.625,62.3594 16.9063,62.125 Q17.1719,61.875 17.7969,61.8906 L20.4688,55.2344 L19.3594,55.2344 Q18.75,55.2344 18.4844,55 Q18.2188,54.7656 18.2188,54.375 Q18.2188,54 18.4844,53.7656 Q18.75,53.5313 19.3594,53.5313 L23.0313,53.5313 L26.4219,61.8906 Q27.0156,61.8906 27.2031,62.0313 Q27.5938,62.2969 27.5938,62.75 Q27.5938,63.125 27.3281,63.3594 Q27.0781,63.5938 26.4688,63.5938 L24.1719,63.5938 Q23.5625,63.5938 23.2969,63.3594 Q23.0313,63.125 23.0313,62.7344 Q23.0313,62.3594 23.2969,62.125 Q23.5625,61.8906 24.1719,61.8906 L24.5938,61.8906 L24.1875,60.8594 Z M23.4688,59.1563 L22.1094,55.7813 L20.7344,59.1563 L23.4688,59.1563 Z "/><text fill="#000000" font-family="sans-serif" font-size="14" font-style="italic" lengthAdjust="spacingAndGlyphs" textLength="130" x="36" y="58.5332">DiagramElementImpl</text><text fill="#000000" font-family="sans-serif" font-size="10" font-style="italic" lengthAdjust="spacingAndGlyphs" textLength="114" x="44" y="71.9902">org.eclipse.epf.uma.impl</text></a><!--MD5=[9eef6247880e99076e6ac949228c4994]
class org.eclipse.epf.uma.Property--><a href="..\Property.html" target="_top" title="..\Property.html" xlink:actuate="onRequest" xlink:href="..\Property.html" xlink:show="new" xlink:title="..\Property.html" xlink:type="simple"><rect codeLine="17" fill="#FEFECE" filter="url(#fanzrpay7cxwd)" height="103.5313" id="org.eclipse.epf.uma.Property" style="stroke: #A80036; stroke-width: 1.5;" width="132" x="204" y="7"/><ellipse cx="222.6" cy="27.0938" fill="#B4A7E5" rx="11" ry="11" style="stroke: #A80036; stroke-width: 1.0;"/><path d="M223.5531,23.7344 L223.5531,30.3906 L225.2719,30.3906 Q225.8813,30.3906 226.1469,30.625 Q226.4125,30.8594 226.4125,31.25 Q226.4125,31.625 226.1469,31.8594 Q225.8813,32.0938 225.2719,32.0938 L220.1313,32.0938 Q219.5219,32.0938 219.2563,31.8594 Q218.9906,31.625 218.9906,31.2344 Q218.9906,30.8594 219.2563,30.625 Q219.5219,30.3906 220.1313,30.3906 L221.85,30.3906 L221.85,23.7344 L220.1313,23.7344 Q219.5219,23.7344 219.2563,23.5 Q218.9906,23.2656 218.9906,22.875 Q218.9906,22.5 219.2563,22.2656 Q219.5219,22.0313 220.1313,22.0313 L225.2719,22.0313 Q225.8813,22.0313 226.1469,22.2656 Q226.4125,22.5 226.4125,22.875 Q226.4125,23.2656 226.1469,23.5 Q225.8813,23.7344 225.2719,23.7344 L223.5531,23.7344 Z "/><text fill="#000000" font-family="sans-serif" font-size="14" font-style="italic" lengthAdjust="spacingAndGlyphs" textLength="54" x="256.4" y="26.5332">Property</text><text fill="#000000" font-family="sans-serif" font-size="10" font-style="italic" lengthAdjust="spacingAndGlyphs" textLength="92" x="237.4" y="39.9902">org.eclipse.epf.uma</text><line style="stroke: #A80036; stroke-width: 1.5;" x1="205" x2="335" y1="47.1875" y2="47.1875"/><ellipse cx="215" cy="58.1875" fill="#84BE84" rx="3" ry="3" style="stroke: #038048; stroke-width: 1.0;"/><text fill="#000000" font-family="sans-serif" font-size="11" font-style="italic" lengthAdjust="spacingAndGlyphs" textLength="76" x="224" y="62.6064">getKey(): String</text><ellipse cx="215" cy="72.0234" fill="#84BE84" rx="3" ry="3" style="stroke: #038048; stroke-width: 1.0;"/><text fill="#000000" font-family="sans-serif" font-size="11" font-style="italic" lengthAdjust="spacingAndGlyphs" textLength="96" x="224" y="76.4424">setKey(String): void</text><ellipse cx="215" cy="85.8594" fill="#84BE84" rx="3" ry="3" style="stroke: #038048; stroke-width: 1.0;"/><text fill="#000000" font-family="sans-serif" font-size="11" font-style="italic" lengthAdjust="spacingAndGlyphs" textLength="86" x="224" y="90.2783">getValue(): String</text><ellipse cx="215" cy="99.6953" fill="#84BE84" rx="3" ry="3" style="stroke: #038048; stroke-width: 1.0;"/><text fill="#000000" font-family="sans-serif" font-size="11" font-style="italic" lengthAdjust="spacingAndGlyphs" textLength="106" x="224" y="104.1143">setValue(String): void</text></a><!--MD5=[d90c200d7222701d4c92e519fdce4127]
reverse link org.eclipse.epf.uma.impl.DiagramElementImpl to org.eclipse.epf.uma.impl.PropertyImpl--><path codeLine="24" d="M106.03,97.55 C116.08,118.48 128.99,145.36 141.15,170.69 " fill="none" id="org.eclipse.epf.uma.impl.DiagramElementImpl-backto-org.eclipse.epf.uma.impl.PropertyImpl" style="stroke: #A80036; stroke-width: 1.0;"/><polygon fill="none" points="99.57,100.27,97.23,79.21,112.19,94.21,99.57,100.27" style="stroke: #A80036; stroke-width: 1.0;"/><!--MD5=[550de50a39da0acbafd6eb62637654bf]
reverse link org.eclipse.epf.uma.Property to org.eclipse.epf.uma.impl.PropertyImpl--><path codeLine="25" d="M236.58,129.6 C230.15,142.98 223.38,157.09 216.82,170.74 " fill="none" id="org.eclipse.epf.uma.Property-backto-org.eclipse.epf.uma.impl.PropertyImpl" style="stroke: #A80036; stroke-width: 1.0; stroke-dasharray: 7.0,7.0;"/><polygon fill="none" points="230.41,126.28,245.37,111.28,243.03,132.34,230.41,126.28" style="stroke: #A80036; stroke-width: 1.0;"/><text fill="#888888" font-family="sans-serif" font-size="10" lengthAdjust="spacingAndGlyphs" textLength="190" x="73.5" y="353.2559">UMLDoclet 2.0.12, PlantUML 1.2020.16</text><!--MD5=[e0666b68cc359a2a3b715f0c1172eb0d]
@startuml
    set namespaceSeparator none
    hide empty fields
    hide empty methods

    class "<size:14>PropertyImpl\n<size:10>org.eclipse.epf.uma.impl" as org.eclipse.epf.uma.impl.PropertyImpl [[PropertyImpl.html]] {
        +getKey(): String
        +setKey(String): void
        +getValue(): String
        +setValue(String): void
        +eGet(int, boolean, boolean): Object
        +eSet(int, Object): void
        +eUnset(int): void
        +eIsSet(int): boolean
    }

    abstract class "<size:14>DiagramElementImpl\n<size:10>org.eclipse.epf.uma.impl" as org.eclipse.epf.uma.impl.DiagramElementImpl [[DiagramElementImpl.html]]
    interface "<size:14>Property\n<size:10>org.eclipse.epf.uma" as org.eclipse.epf.uma.Property [[..\Property.html]] {
        {abstract} +getKey(): String
        {abstract} +setKey(String): void
        {abstract} +getValue(): String
        {abstract} +setValue(String): void
    }

    org.eclipse.epf.uma.impl.DiagramElementImpl <|- - org.eclipse.epf.uma.impl.PropertyImpl
    org.eclipse.epf.uma.Property <|.. org.eclipse.epf.uma.impl.PropertyImpl

    center footer UMLDoclet 2.0.12, PlantUML 1.2020.16
@enduml

PlantUML version 1.2020.16(Sun Aug 23 22:20:43 CEST 2020)
(APACHE source distribution)
Java Runtime: Java(TM) SE Runtime Environment
JVM: Java HotSpot(TM) 64-Bit Server VM
Default Encoding: Cp1252
Language: es
Country: ES
--></g></svg>