<?xml version="1.0" encoding="UTF-8" standalone="no"?><svg xmlns="http://www.w3.org/2000/svg" xmlns:xlink="http://www.w3.org/1999/xlink" contentScriptType="application/ecmascript" contentStyleType="text/css" height="422px" preserveAspectRatio="none" style="width:469px;height:422px;" version="1.1" viewBox="0 0 469 422" width="469px" zoomAndPan="magnify"><defs><filter height="300%" id="fu9b8r01otnlu" width="300%" x="-1" y="-1"><feGaussianBlur result="blurOut" stdDeviation="2.0"/><feColorMatrix in="blurOut" result="blurOut2" type="matrix" values="0 0 0 0 0 0 0 0 0 0 0 0 0 0 0 0 0 0 .4 0"/><feOffset dx="4.0" dy="4.0" in="blurOut2" result="blurOut3"/><feBlend in="SourceGraphic" in2="blurOut3" mode="normal"/></filter></defs><g><!--MD5=[199fa114ebd1b22d03557996d6c306f4]
class org.eclipse.epf.uma.impl.ReferenceImpl--><a href="ReferenceImpl.html" target="_top" title="ReferenceImpl.html" xlink:actuate="onRequest" xlink:href="ReferenceImpl.html" xlink:show="new" xlink:title="ReferenceImpl.html" xlink:type="simple"><rect codeLine="5" fill="#FEFECE" filter="url(#fu9b8r01otnlu)" height="214.2188" id="org.eclipse.epf.uma.impl.ReferenceImpl" style="stroke: #A80036; stroke-width: 1.5;" width="381" x="16.5" y="171"/><ellipse cx="143.75" cy="191.0938" fill="#ADD1B2" rx="11" ry="11" style="stroke: #A80036; stroke-width: 1.0;"/><path d="M146.5156,186.9688 Q146.6719,186.75 146.8594,186.6406 Q147.0469,186.5313 147.2656,186.5313 Q147.6406,186.5313 147.875,186.7969 Q148.1094,187.0469 148.1094,187.6563 L148.1094,189.1094 Q148.1094,189.7188 147.875,189.9844 Q147.6406,190.25 147.2656,190.25 Q146.9219,190.25 146.7188,190.0469 Q146.5156,189.8594 146.4063,189.3438 Q146.3594,188.9844 146.1719,188.7969 Q145.8438,188.4219 145.2344,188.2031 Q144.625,187.9844 144,187.9844 Q143.2344,187.9844 142.5938,188.3125 Q141.9688,188.6406 141.4688,189.3906 Q140.9844,190.1406 140.9844,191.1719 L140.9844,192.2656 Q140.9844,193.5 141.875,194.3281 Q142.7656,195.1406 144.3594,195.1406 Q145.2969,195.1406 145.9531,194.8906 Q146.3438,194.7344 146.7656,194.2969 Q147.0313,194.0313 147.1719,193.9531 Q147.3281,193.875 147.5313,193.875 Q147.8594,193.875 148.1094,194.1406 Q148.375,194.3906 148.375,194.7344 Q148.375,195.0781 148.0313,195.4844 Q147.5313,196.0625 146.7344,196.3906 Q145.6563,196.8438 144.3594,196.8438 Q142.8438,196.8438 141.6406,196.2188 Q140.6563,195.7188 139.9688,194.6563 Q139.2813,193.5781 139.2813,192.2969 L139.2813,191.1406 Q139.2813,189.8125 139.8906,188.6719 Q140.5156,187.5156 141.6094,186.9063 Q142.7031,186.2813 143.9375,186.2813 Q144.6719,186.2813 145.3125,186.4531 Q145.9688,186.6094 146.5156,186.9688 Z "/><text fill="#000000" font-family="sans-serif" font-size="14" lengthAdjust="spacingAndGlyphs" textLength="91" x="177.75" y="190.5332">ReferenceImpl</text><text fill="#000000" font-family="sans-serif" font-size="10" lengthAdjust="spacingAndGlyphs" textLength="118" x="164.25" y="203.9902">org.eclipse.epf.uma.impl</text><line style="stroke: #A80036; stroke-width: 1.5;" x1="17.5" x2="396.5" y1="211.1875" y2="211.1875"/><ellipse cx="27.5" cy="222.1875" fill="#84BE84" rx="3" ry="3" style="stroke: #038048; stroke-width: 1.0;"/><text fill="#000000" font-family="sans-serif" font-size="11" lengthAdjust="spacingAndGlyphs" textLength="193" x="36.5" y="226.6064">getIsIndividualRepresentation(): Boolean</text><ellipse cx="27.5" cy="236.0234" fill="#84BE84" rx="3" ry="3" style="stroke: #038048; stroke-width: 1.0;"/><text fill="#000000" font-family="sans-serif" font-size="11" lengthAdjust="spacingAndGlyphs" textLength="213" x="36.5" y="240.4424">setIsIndividualRepresentation(Boolean): void</text><ellipse cx="27.5" cy="249.8594" fill="#84BE84" rx="3" ry="3" style="stroke: #038048; stroke-width: 1.0;"/><text fill="#000000" font-family="sans-serif" font-size="11" lengthAdjust="spacingAndGlyphs" textLength="162" x="36.5" y="254.2783">getReferenced(): DiagramElement</text><ellipse cx="27.5" cy="263.6953" fill="#84BE84" rx="3" ry="3" style="stroke: #038048; stroke-width: 1.0;"/><text fill="#000000" font-family="sans-serif" font-size="11" lengthAdjust="spacingAndGlyphs" textLength="190" x="36.5" y="268.1143">basicGetReferenced(): DiagramElement</text><ellipse cx="27.5" cy="277.5313" fill="#84BE84" rx="3" ry="3" style="stroke: #038048; stroke-width: 1.0;"/><text fill="#000000" font-family="sans-serif" font-size="11" lengthAdjust="spacingAndGlyphs" textLength="355" x="36.5" y="281.9502">basicSetReferenced(DiagramElement, NotificationChain): NotificationChain</text><ellipse cx="27.5" cy="291.3672" fill="#84BE84" rx="3" ry="3" style="stroke: #038048; stroke-width: 1.0;"/><text fill="#000000" font-family="sans-serif" font-size="11" lengthAdjust="spacingAndGlyphs" textLength="182" x="36.5" y="295.7861">setReferenced(DiagramElement): void</text><ellipse cx="27.5" cy="305.2031" fill="#84BE84" rx="3" ry="3" style="stroke: #038048; stroke-width: 1.0;"/><text fill="#000000" font-family="sans-serif" font-size="11" lengthAdjust="spacingAndGlyphs" textLength="331" x="36.5" y="309.6221">eInverseAdd(InternalEObject, int, NotificationChain): NotificationChain</text><ellipse cx="27.5" cy="319.0391" fill="#84BE84" rx="3" ry="3" style="stroke: #038048; stroke-width: 1.0;"/><text fill="#000000" font-family="sans-serif" font-size="11" lengthAdjust="spacingAndGlyphs" textLength="350" x="36.5" y="323.458">eInverseRemove(InternalEObject, int, NotificationChain): NotificationChain</text><ellipse cx="27.5" cy="332.875" fill="#84BE84" rx="3" ry="3" style="stroke: #038048; stroke-width: 1.0;"/><text fill="#000000" font-family="sans-serif" font-size="11" lengthAdjust="spacingAndGlyphs" textLength="167" x="36.5" y="337.2939">eGet(int, boolean, boolean): Object</text><ellipse cx="27.5" cy="346.7109" fill="#84BE84" rx="3" ry="3" style="stroke: #038048; stroke-width: 1.0;"/><text fill="#000000" font-family="sans-serif" font-size="11" lengthAdjust="spacingAndGlyphs" textLength="104" x="36.5" y="351.1299">eSet(int, Object): void</text><ellipse cx="27.5" cy="360.5469" fill="#84BE84" rx="3" ry="3" style="stroke: #038048; stroke-width: 1.0;"/><text fill="#000000" font-family="sans-serif" font-size="11" lengthAdjust="spacingAndGlyphs" textLength="79" x="36.5" y="364.9658">eUnset(int): void</text><ellipse cx="27.5" cy="374.3828" fill="#84BE84" rx="3" ry="3" style="stroke: #038048; stroke-width: 1.0;"/><text fill="#000000" font-family="sans-serif" font-size="11" lengthAdjust="spacingAndGlyphs" textLength="93" x="36.5" y="378.8018">eIsSet(int): boolean</text></a><!--MD5=[1c2b459c5c50809e62270736e90e6bdc]
class org.eclipse.epf.uma.impl.DiagramElementImpl--><a href="DiagramElementImpl.html" target="_top" title="DiagramElementImpl.html" xlink:actuate="onRequest" xlink:href="DiagramElementImpl.html" xlink:show="new" xlink:title="DiagramElementImpl.html" xlink:type="simple"><rect codeLine="20" fill="#FEFECE" filter="url(#fu9b8r01otnlu)" height="40.1875" id="org.eclipse.epf.uma.impl.DiagramElementImpl" style="stroke: #A80036; stroke-width: 1.5;" width="162" x="7" y="39"/><ellipse cx="22" cy="59.0938" fill="#A9DCDF" rx="11" ry="11" style="stroke: #A80036; stroke-width: 1.0;"/><path d="M24.1875,60.8594 L20.0469,60.8594 L19.625,61.8906 L20.0469,61.8906 Q20.6563,61.8906 20.9219,62.125 Q21.1875,62.3594 21.1875,62.75 Q21.1875,63.125 20.9219,63.3594 Q20.6563,63.5938 20.0469,63.5938 L17.75,63.5938 Q17.1406,63.5938 16.8906,63.3594 Q16.625,63.125 16.625,62.7344 Q16.625,62.3594 16.9063,62.125 Q17.1719,61.875 17.7969,61.8906 L20.4688,55.2344 L19.3594,55.2344 Q18.75,55.2344 18.4844,55 Q18.2188,54.7656 18.2188,54.375 Q18.2188,54 18.4844,53.7656 Q18.75,53.5313 19.3594,53.5313 L23.0313,53.5313 L26.4219,61.8906 Q27.0156,61.8906 27.2031,62.0313 Q27.5938,62.2969 27.5938,62.75 Q27.5938,63.125 27.3281,63.3594 Q27.0781,63.5938 26.4688,63.5938 L24.1719,63.5938 Q23.5625,63.5938 23.2969,63.3594 Q23.0313,63.125 23.0313,62.7344 Q23.0313,62.3594 23.2969,62.125 Q23.5625,61.8906 24.1719,61.8906 L24.5938,61.8906 L24.1875,60.8594 Z M23.4688,59.1563 L22.1094,55.7813 L20.7344,59.1563 L23.4688,59.1563 Z "/><text fill="#000000" font-family="sans-serif" font-size="14" font-style="italic" lengthAdjust="spacingAndGlyphs" textLength="130" x="36" y="58.5332">DiagramElementImpl</text><text fill="#000000" font-family="sans-serif" font-size="10" font-style="italic" lengthAdjust="spacingAndGlyphs" textLength="114" x="44" y="71.9902">org.eclipse.epf.uma.impl</text></a><!--MD5=[880bead36fd53de23cebe445ca41a35f]
class org.eclipse.epf.uma.Reference--><a href="..\Reference.html" target="_top" title="..\Reference.html" xlink:actuate="onRequest" xlink:href="..\Reference.html" xlink:show="new" xlink:title="..\Reference.html" xlink:type="simple"><rect codeLine="21" fill="#FEFECE" filter="url(#fu9b8r01otnlu)" height="103.5313" id="org.eclipse.epf.uma.Reference" style="stroke: #A80036; stroke-width: 1.5;" width="246" x="204" y="7"/><ellipse cx="276.75" cy="27.0938" fill="#B4A7E5" rx="11" ry="11" style="stroke: #A80036; stroke-width: 1.0;"/><path d="M277.7031,23.7344 L277.7031,30.3906 L279.4219,30.3906 Q280.0313,30.3906 280.2969,30.625 Q280.5625,30.8594 280.5625,31.25 Q280.5625,31.625 280.2969,31.8594 Q280.0313,32.0938 279.4219,32.0938 L274.2813,32.0938 Q273.6719,32.0938 273.4063,31.8594 Q273.1406,31.625 273.1406,31.2344 Q273.1406,30.8594 273.4063,30.625 Q273.6719,30.3906 274.2813,30.3906 L276,30.3906 L276,23.7344 L274.2813,23.7344 Q273.6719,23.7344 273.4063,23.5 Q273.1406,23.2656 273.1406,22.875 Q273.1406,22.5 273.4063,22.2656 Q273.6719,22.0313 274.2813,22.0313 L279.4219,22.0313 Q280.0313,22.0313 280.2969,22.2656 Q280.5625,22.5 280.5625,22.875 Q280.5625,23.2656 280.2969,23.5 Q280.0313,23.7344 279.4219,23.7344 L277.7031,23.7344 Z "/><text fill="#000000" font-family="sans-serif" font-size="14" font-style="italic" lengthAdjust="spacingAndGlyphs" textLength="66" x="310.25" y="26.5332">Reference</text><text fill="#000000" font-family="sans-serif" font-size="10" font-style="italic" lengthAdjust="spacingAndGlyphs" textLength="92" x="297.25" y="39.9902">org.eclipse.epf.uma</text><line style="stroke: #A80036; stroke-width: 1.5;" x1="205" x2="449" y1="47.1875" y2="47.1875"/><ellipse cx="215" cy="58.1875" fill="#84BE84" rx="3" ry="3" style="stroke: #038048; stroke-width: 1.0;"/><text fill="#000000" font-family="sans-serif" font-size="11" font-style="italic" lengthAdjust="spacingAndGlyphs" textLength="200" x="224" y="62.6064">getIsIndividualRepresentation(): Boolean</text><ellipse cx="215" cy="72.0234" fill="#84BE84" rx="3" ry="3" style="stroke: #038048; stroke-width: 1.0;"/><text fill="#000000" font-family="sans-serif" font-size="11" font-style="italic" lengthAdjust="spacingAndGlyphs" textLength="220" x="224" y="76.4424">setIsIndividualRepresentation(Boolean): void</text><ellipse cx="215" cy="85.8594" fill="#84BE84" rx="3" ry="3" style="stroke: #038048; stroke-width: 1.0;"/><text fill="#000000" font-family="sans-serif" font-size="11" font-style="italic" lengthAdjust="spacingAndGlyphs" textLength="168" x="224" y="90.2783">getReferenced(): DiagramElement</text><ellipse cx="215" cy="99.6953" fill="#84BE84" rx="3" ry="3" style="stroke: #038048; stroke-width: 1.0;"/><text fill="#000000" font-family="sans-serif" font-size="11" font-style="italic" lengthAdjust="spacingAndGlyphs" textLength="188" x="224" y="104.1143">setReferenced(DiagramElement): void</text></a><!--MD5=[3f8ec6d6ec82f691218d3201bfbd7516]
reverse link org.eclipse.epf.uma.impl.DiagramElementImpl to org.eclipse.epf.uma.impl.ReferenceImpl--><path codeLine="28" d="M108.22,96.88 C119.51,117.46 134.21,144.26 148.8,170.87 " fill="none" id="org.eclipse.epf.uma.impl.DiagramElementImpl-backto-org.eclipse.epf.uma.impl.ReferenceImpl" style="stroke: #A80036; stroke-width: 1.0;"/><polygon fill="none" points="102.04,100.16,98.56,79.26,114.31,93.43,102.04,100.16" style="stroke: #A80036; stroke-width: 1.0;"/><!--MD5=[f7b3ee09d6923a9b51ca1e675f688179]
reverse link org.eclipse.epf.uma.Reference to org.eclipse.epf.uma.impl.ReferenceImpl--><path codeLine="29" d="M289,128.71 C281.61,142.09 273.69,156.4 265.81,170.66 " fill="none" id="org.eclipse.epf.uma.Reference-backto-org.eclipse.epf.uma.impl.ReferenceImpl" style="stroke: #A80036; stroke-width: 1.0; stroke-dasharray: 7.0,7.0;"/><polygon fill="none" points="282.91,125.27,298.71,111.15,295.16,132.04,282.91,125.27" style="stroke: #A80036; stroke-width: 1.0;"/><text fill="#888888" font-family="sans-serif" font-size="10" lengthAdjust="spacingAndGlyphs" textLength="190" x="130.5" y="408.5996">UMLDoclet 2.0.12, PlantUML 1.2020.16</text><!--MD5=[e50e9d5fd5a391421eb8966a191791a9]
@startuml
    set namespaceSeparator none
    hide empty fields
    hide empty methods

    class "<size:14>ReferenceImpl\n<size:10>org.eclipse.epf.uma.impl" as org.eclipse.epf.uma.impl.ReferenceImpl [[ReferenceImpl.html]] {
        +getIsIndividualRepresentation(): Boolean
        +setIsIndividualRepresentation(Boolean): void
        +getReferenced(): DiagramElement
        +basicGetReferenced(): DiagramElement
        +basicSetReferenced(DiagramElement, NotificationChain): NotificationChain
        +setReferenced(DiagramElement): void
        +eInverseAdd(InternalEObject, int, NotificationChain): NotificationChain
        +eInverseRemove(InternalEObject, int, NotificationChain): NotificationChain
        +eGet(int, boolean, boolean): Object
        +eSet(int, Object): void
        +eUnset(int): void
        +eIsSet(int): boolean
    }

    abstract class "<size:14>DiagramElementImpl\n<size:10>org.eclipse.epf.uma.impl" as org.eclipse.epf.uma.impl.DiagramElementImpl [[DiagramElementImpl.html]]
    interface "<size:14>Reference\n<size:10>org.eclipse.epf.uma" as org.eclipse.epf.uma.Reference [[..\Reference.html]] {
        {abstract} +getIsIndividualRepresentation(): Boolean
        {abstract} +setIsIndividualRepresentation(Boolean): void
        {abstract} +getReferenced(): DiagramElement
        {abstract} +setReferenced(DiagramElement): void
    }

    org.eclipse.epf.uma.impl.DiagramElementImpl <|- - org.eclipse.epf.uma.impl.ReferenceImpl
    org.eclipse.epf.uma.Reference <|.. org.eclipse.epf.uma.impl.ReferenceImpl

    center footer UMLDoclet 2.0.12, PlantUML 1.2020.16
@enduml

PlantUML version 1.2020.16(Sun Aug 23 22:20:43 CEST 2020)
(APACHE source distribution)
Java Runtime: Java(TM) SE Runtime Environment
JVM: Java HotSpot(TM) 64-Bit Server VM
Default Encoding: Cp1252
Language: es
Country: ES
--></g></svg>