<?xml version="1.0" encoding="UTF-8" standalone="no"?><svg xmlns="http://www.w3.org/2000/svg" xmlns:xlink="http://www.w3.org/1999/xlink" contentScriptType="application/ecmascript" contentStyleType="text/css" height="184px" preserveAspectRatio="none" style="width:334px;height:184px;" version="1.1" viewBox="0 0 334 184" width="334px" zoomAndPan="magnify"><defs><filter height="300%" id="fkp1u2w9214zb" width="300%" x="-1" y="-1"><feGaussianBlur result="blurOut" stdDeviation="2.0"/><feColorMatrix in="blurOut" result="blurOut2" type="matrix" values="0 0 0 0 0 0 0 0 0 0 0 0 0 0 0 0 0 0 .4 0"/><feOffset dx="4.0" dy="4.0" in="blurOut2" result="blurOut3"/><feBlend in="SourceGraphic" in2="blurOut3" mode="normal"/></filter></defs><g><!--MD5=[bc3f0c06a57f68642eff0fc85c100418]
class org.eclipse.epf.uma.impl.ReusableAssetImpl--><a href="ReusableAssetImpl.html" target="_top" title="ReusableAssetImpl.html" xlink:actuate="onRequest" xlink:href="ReusableAssetImpl.html" xlink:show="new" xlink:title="ReusableAssetImpl.html" xlink:type="simple"><rect codeLine="5" fill="#FEFECE" filter="url(#fkp1u2w9214zb)" height="40.1875" id="org.eclipse.epf.uma.impl.ReusableAssetImpl" style="stroke: #A80036; stroke-width: 1.5;" width="152" x="90" y="107"/><ellipse cx="105" cy="127.0938" fill="#ADD1B2" rx="11" ry="11" style="stroke: #A80036; stroke-width: 1.0;"/><path d="M107.7656,122.9688 Q107.9219,122.75 108.1094,122.6406 Q108.2969,122.5313 108.5156,122.5313 Q108.8906,122.5313 109.125,122.7969 Q109.3594,123.0469 109.3594,123.6563 L109.3594,125.1094 Q109.3594,125.7188 109.125,125.9844 Q108.8906,126.25 108.5156,126.25 Q108.1719,126.25 107.9688,126.0469 Q107.7656,125.8594 107.6563,125.3438 Q107.6094,124.9844 107.4219,124.7969 Q107.0938,124.4219 106.4844,124.2031 Q105.875,123.9844 105.25,123.9844 Q104.4844,123.9844 103.8438,124.3125 Q103.2188,124.6406 102.7188,125.3906 Q102.2344,126.1406 102.2344,127.1719 L102.2344,128.2656 Q102.2344,129.5 103.125,130.3281 Q104.0156,131.1406 105.6094,131.1406 Q106.5469,131.1406 107.2031,130.8906 Q107.5938,130.7344 108.0156,130.2969 Q108.2813,130.0313 108.4219,129.9531 Q108.5781,129.875 108.7813,129.875 Q109.1094,129.875 109.3594,130.1406 Q109.625,130.3906 109.625,130.7344 Q109.625,131.0781 109.2813,131.4844 Q108.7813,132.0625 107.9844,132.3906 Q106.9063,132.8438 105.6094,132.8438 Q104.0938,132.8438 102.8906,132.2188 Q101.9063,131.7188 101.2188,130.6563 Q100.5313,129.5781 100.5313,128.2969 L100.5313,127.1406 Q100.5313,125.8125 101.1406,124.6719 Q101.7656,123.5156 102.8594,122.9063 Q103.9531,122.2813 105.1875,122.2813 Q105.9219,122.2813 106.5625,122.4531 Q107.2188,122.6094 107.7656,122.9688 Z "/><text fill="#000000" font-family="sans-serif" font-size="14" lengthAdjust="spacingAndGlyphs" textLength="120" x="119" y="126.5332">ReusableAssetImpl</text><text fill="#000000" font-family="sans-serif" font-size="10" lengthAdjust="spacingAndGlyphs" textLength="118" x="120" y="139.9902">org.eclipse.epf.uma.impl</text></a><!--MD5=[4ac47b7f125fe8903eb916935a8c261c]
class org.eclipse.epf.uma.impl.GuidanceImpl--><a href="GuidanceImpl.html" target="_top" title="GuidanceImpl.html" xlink:actuate="onRequest" xlink:href="GuidanceImpl.html" xlink:show="new" xlink:title="GuidanceImpl.html" xlink:type="simple"><rect codeLine="8" fill="#FEFECE" filter="url(#fkp1u2w9214zb)" height="40.1875" id="org.eclipse.epf.uma.impl.GuidanceImpl" style="stroke: #A80036; stroke-width: 1.5;" width="146" x="7" y="7"/><ellipse cx="22" cy="27.0938" fill="#A9DCDF" rx="11" ry="11" style="stroke: #A80036; stroke-width: 1.0;"/><path d="M24.1875,28.8594 L20.0469,28.8594 L19.625,29.8906 L20.0469,29.8906 Q20.6563,29.8906 20.9219,30.125 Q21.1875,30.3594 21.1875,30.75 Q21.1875,31.125 20.9219,31.3594 Q20.6563,31.5938 20.0469,31.5938 L17.75,31.5938 Q17.1406,31.5938 16.8906,31.3594 Q16.625,31.125 16.625,30.7344 Q16.625,30.3594 16.9063,30.125 Q17.1719,29.875 17.7969,29.8906 L20.4688,23.2344 L19.3594,23.2344 Q18.75,23.2344 18.4844,23 Q18.2188,22.7656 18.2188,22.375 Q18.2188,22 18.4844,21.7656 Q18.75,21.5313 19.3594,21.5313 L23.0313,21.5313 L26.4219,29.8906 Q27.0156,29.8906 27.2031,30.0313 Q27.5938,30.2969 27.5938,30.75 Q27.5938,31.125 27.3281,31.3594 Q27.0781,31.5938 26.4688,31.5938 L24.1719,31.5938 Q23.5625,31.5938 23.2969,31.3594 Q23.0313,31.125 23.0313,30.7344 Q23.0313,30.3594 23.2969,30.125 Q23.5625,29.8906 24.1719,29.8906 L24.5938,29.8906 L24.1875,28.8594 Z M23.4688,27.1563 L22.1094,23.7813 L20.7344,27.1563 L23.4688,27.1563 Z "/><text fill="#000000" font-family="sans-serif" font-size="14" font-style="italic" lengthAdjust="spacingAndGlyphs" textLength="87" x="49.5" y="26.5332">GuidanceImpl</text><text fill="#000000" font-family="sans-serif" font-size="10" font-style="italic" lengthAdjust="spacingAndGlyphs" textLength="114" x="36" y="39.9902">org.eclipse.epf.uma.impl</text></a><!--MD5=[2cec81fd09a6ab960632a8cc8bc8ffc7]
class org.eclipse.epf.uma.ReusableAsset--><a href="..\ReusableAsset.html" target="_top" title="..\ReusableAsset.html" xlink:actuate="onRequest" xlink:href="..\ReusableAsset.html" xlink:show="new" xlink:title="..\ReusableAsset.html" xlink:type="simple"><rect codeLine="9" fill="#FEFECE" filter="url(#fkp1u2w9214zb)" height="40.1875" id="org.eclipse.epf.uma.ReusableAsset" style="stroke: #A80036; stroke-width: 1.5;" width="127" x="188.5" y="7"/><ellipse cx="203.5" cy="27.0938" fill="#B4A7E5" rx="11" ry="11" style="stroke: #A80036; stroke-width: 1.0;"/><path d="M204.4531,23.7344 L204.4531,30.3906 L206.1719,30.3906 Q206.7813,30.3906 207.0469,30.625 Q207.3125,30.8594 207.3125,31.25 Q207.3125,31.625 207.0469,31.8594 Q206.7813,32.0938 206.1719,32.0938 L201.0313,32.0938 Q200.4219,32.0938 200.1563,31.8594 Q199.8906,31.625 199.8906,31.2344 Q199.8906,30.8594 200.1563,30.625 Q200.4219,30.3906 201.0313,30.3906 L202.75,30.3906 L202.75,23.7344 L201.0313,23.7344 Q200.4219,23.7344 200.1563,23.5 Q199.8906,23.2656 199.8906,22.875 Q199.8906,22.5 200.1563,22.2656 Q200.4219,22.0313 201.0313,22.0313 L206.1719,22.0313 Q206.7813,22.0313 207.0469,22.2656 Q207.3125,22.5 207.3125,22.875 Q207.3125,23.2656 207.0469,23.5 Q206.7813,23.7344 206.1719,23.7344 L204.4531,23.7344 Z "/><text fill="#000000" font-family="sans-serif" font-size="14" font-style="italic" lengthAdjust="spacingAndGlyphs" textLength="95" x="217.5" y="26.5332">ReusableAsset</text><text fill="#000000" font-family="sans-serif" font-size="10" font-style="italic" lengthAdjust="spacingAndGlyphs" textLength="92" x="219" y="39.9902">org.eclipse.epf.uma</text></a><!--MD5=[190ce5242ffe649f7a655d9843b3a52b]
reverse link org.eclipse.epf.uma.impl.GuidanceImpl to org.eclipse.epf.uma.impl.ReusableAssetImpl--><path codeLine="11" d="M110.2,62.41 C123.22,77.26 137.98,94.07 149.04,106.68 " fill="none" id="org.eclipse.epf.uma.impl.GuidanceImpl-backto-org.eclipse.epf.uma.impl.ReusableAssetImpl" style="stroke: #A80036; stroke-width: 1.0;"/><polygon fill="none" points="104.92,67.01,96.99,47.36,115.44,57.78,104.92,67.01" style="stroke: #A80036; stroke-width: 1.0;"/><!--MD5=[2f1e4a0b656122208cb89f2b6c60cca5]
reverse link org.eclipse.epf.uma.ReusableAsset to org.eclipse.epf.uma.impl.ReusableAssetImpl--><path codeLine="12" d="M221.8,62.41 C208.78,77.26 194.02,94.07 182.96,106.68 " fill="none" id="org.eclipse.epf.uma.ReusableAsset-backto-org.eclipse.epf.uma.impl.ReusableAssetImpl" style="stroke: #A80036; stroke-width: 1.0; stroke-dasharray: 7.0,7.0;"/><polygon fill="none" points="216.56,57.78,235.01,47.36,227.08,67.01,216.56,57.78" style="stroke: #A80036; stroke-width: 1.0;"/><text fill="#888888" font-family="sans-serif" font-size="10" lengthAdjust="spacingAndGlyphs" textLength="190" x="63.25" y="170.5684">UMLDoclet 2.0.12, PlantUML 1.2020.16</text><!--MD5=[f1051b91de740e5e11712a82081c5d16]
@startuml
    set namespaceSeparator none
    hide empty fields
    hide empty methods

    class "<size:14>ReusableAssetImpl\n<size:10>org.eclipse.epf.uma.impl" as org.eclipse.epf.uma.impl.ReusableAssetImpl [[ReusableAssetImpl.html]] {
    }

    abstract class "<size:14>GuidanceImpl\n<size:10>org.eclipse.epf.uma.impl" as org.eclipse.epf.uma.impl.GuidanceImpl [[GuidanceImpl.html]]
    interface "<size:14>ReusableAsset\n<size:10>org.eclipse.epf.uma" as org.eclipse.epf.uma.ReusableAsset [[..\ReusableAsset.html]]

    org.eclipse.epf.uma.impl.GuidanceImpl <|- - org.eclipse.epf.uma.impl.ReusableAssetImpl
    org.eclipse.epf.uma.ReusableAsset <|.. org.eclipse.epf.uma.impl.ReusableAssetImpl

    center footer UMLDoclet 2.0.12, PlantUML 1.2020.16
@enduml

PlantUML version 1.2020.16(Sun Aug 23 22:20:43 CEST 2020)
(APACHE source distribution)
Java Runtime: Java(TM) SE Runtime Environment
JVM: Java HotSpot(TM) 64-Bit Server VM
Default Encoding: Cp1252
Language: es
Country: ES
--></g></svg>