<?xml version="1.0" encoding="UTF-8" standalone="no"?><svg xmlns="http://www.w3.org/2000/svg" xmlns:xlink="http://www.w3.org/1999/xlink" contentScriptType="application/ecmascript" contentStyleType="text/css" height="283px" preserveAspectRatio="none" style="width:371px;height:283px;" version="1.1" viewBox="0 0 371 283" width="371px" zoomAndPan="magnify"><defs><filter height="300%" id="f13johfql771tk" width="300%" x="-1" y="-1"><feGaussianBlur result="blurOut" stdDeviation="2.0"/><feColorMatrix in="blurOut" result="blurOut2" type="matrix" values="0 0 0 0 0 0 0 0 0 0 0 0 0 0 0 0 0 0 .4 0"/><feOffset dx="4.0" dy="4.0" in="blurOut2" result="blurOut3"/><feBlend in="SourceGraphic" in2="blurOut3" mode="normal"/></filter></defs><g><!--MD5=[63d82d7c21fa77335ac3bd287ed93f69]
class org.eclipse.epf.uma.impl.RoleSetImpl--><a href="RoleSetImpl.html" target="_top" title="RoleSetImpl.html" xlink:actuate="onRequest" xlink:href="RoleSetImpl.html" xlink:show="new" xlink:title="RoleSetImpl.html" xlink:type="simple"><rect codeLine="5" fill="#FEFECE" filter="url(#f13johfql771tk)" height="117.3672" id="org.eclipse.epf.uma.impl.RoleSetImpl" style="stroke: #A80036; stroke-width: 1.5;" width="193" x="88.5" y="129"/><ellipse cx="122.85" cy="149.0938" fill="#ADD1B2" rx="11" ry="11" style="stroke: #A80036; stroke-width: 1.0;"/><path d="M125.6156,144.9688 Q125.7719,144.75 125.9594,144.6406 Q126.1469,144.5313 126.3656,144.5313 Q126.7406,144.5313 126.975,144.7969 Q127.2094,145.0469 127.2094,145.6563 L127.2094,147.1094 Q127.2094,147.7188 126.975,147.9844 Q126.7406,148.25 126.3656,148.25 Q126.0219,148.25 125.8188,148.0469 Q125.6156,147.8594 125.5063,147.3438 Q125.4594,146.9844 125.2719,146.7969 Q124.9438,146.4219 124.3344,146.2031 Q123.725,145.9844 123.1,145.9844 Q122.3344,145.9844 121.6938,146.3125 Q121.0688,146.6406 120.5688,147.3906 Q120.0844,148.1406 120.0844,149.1719 L120.0844,150.2656 Q120.0844,151.5 120.975,152.3281 Q121.8656,153.1406 123.4594,153.1406 Q124.3969,153.1406 125.0531,152.8906 Q125.4438,152.7344 125.8656,152.2969 Q126.1313,152.0313 126.2719,151.9531 Q126.4281,151.875 126.6313,151.875 Q126.9594,151.875 127.2094,152.1406 Q127.475,152.3906 127.475,152.7344 Q127.475,153.0781 127.1313,153.4844 Q126.6313,154.0625 125.8344,154.3906 Q124.7563,154.8438 123.4594,154.8438 Q121.9438,154.8438 120.7406,154.2188 Q119.7563,153.7188 119.0688,152.6563 Q118.3813,151.5781 118.3813,150.2969 L118.3813,149.1406 Q118.3813,147.8125 118.9906,146.6719 Q119.6156,145.5156 120.7094,144.9063 Q121.8031,144.2813 123.0375,144.2813 Q123.7719,144.2813 124.4125,144.4531 Q125.0688,144.6094 125.6156,144.9688 Z "/><text fill="#000000" font-family="sans-serif" font-size="14" lengthAdjust="spacingAndGlyphs" textLength="75" x="162.65" y="148.5332">RoleSetImpl</text><text fill="#000000" font-family="sans-serif" font-size="10" lengthAdjust="spacingAndGlyphs" textLength="118" x="141.15" y="161.9902">org.eclipse.epf.uma.impl</text><line style="stroke: #A80036; stroke-width: 1.5;" x1="89.5" x2="280.5" y1="169.1875" y2="169.1875"/><ellipse cx="99.5" cy="180.1875" fill="#84BE84" rx="3" ry="3" style="stroke: #038048; stroke-width: 1.0;"/><text fill="#000000" font-family="sans-serif" font-size="11" lengthAdjust="spacingAndGlyphs" textLength="112" x="108.5" y="184.6064">getRoles(): EList&lt;Role&gt;</text><ellipse cx="99.5" cy="194.0234" fill="#84BE84" rx="3" ry="3" style="stroke: #038048; stroke-width: 1.0;"/><text fill="#000000" font-family="sans-serif" font-size="11" lengthAdjust="spacingAndGlyphs" textLength="167" x="108.5" y="198.4424">eGet(int, boolean, boolean): Object</text><ellipse cx="99.5" cy="207.8594" fill="#84BE84" rx="3" ry="3" style="stroke: #038048; stroke-width: 1.0;"/><text fill="#000000" font-family="sans-serif" font-size="11" lengthAdjust="spacingAndGlyphs" textLength="104" x="108.5" y="212.2783">eSet(int, Object): void</text><ellipse cx="99.5" cy="221.6953" fill="#84BE84" rx="3" ry="3" style="stroke: #038048; stroke-width: 1.0;"/><text fill="#000000" font-family="sans-serif" font-size="11" lengthAdjust="spacingAndGlyphs" textLength="79" x="108.5" y="226.1143">eUnset(int): void</text><ellipse cx="99.5" cy="235.5313" fill="#84BE84" rx="3" ry="3" style="stroke: #038048; stroke-width: 1.0;"/><text fill="#000000" font-family="sans-serif" font-size="11" lengthAdjust="spacingAndGlyphs" textLength="93" x="108.5" y="239.9502">eIsSet(int): boolean</text></a><!--MD5=[80a1fa17d1f3fd257902418e6ad1c457]
class org.eclipse.epf.uma.impl.ContentCategoryImpl--><a href="ContentCategoryImpl.html" target="_top" title="ContentCategoryImpl.html" xlink:actuate="onRequest" xlink:href="ContentCategoryImpl.html" xlink:show="new" xlink:title="ContentCategoryImpl.html" xlink:type="simple"><rect codeLine="13" fill="#FEFECE" filter="url(#f13johfql771tk)" height="40.1875" id="org.eclipse.epf.uma.impl.ContentCategoryImpl" style="stroke: #A80036; stroke-width: 1.5;" width="166" x="7" y="18"/><ellipse cx="22" cy="38.0938" fill="#A9DCDF" rx="11" ry="11" style="stroke: #A80036; stroke-width: 1.0;"/><path d="M24.1875,39.8594 L20.0469,39.8594 L19.625,40.8906 L20.0469,40.8906 Q20.6563,40.8906 20.9219,41.125 Q21.1875,41.3594 21.1875,41.75 Q21.1875,42.125 20.9219,42.3594 Q20.6563,42.5938 20.0469,42.5938 L17.75,42.5938 Q17.1406,42.5938 16.8906,42.3594 Q16.625,42.125 16.625,41.7344 Q16.625,41.3594 16.9063,41.125 Q17.1719,40.875 17.7969,40.8906 L20.4688,34.2344 L19.3594,34.2344 Q18.75,34.2344 18.4844,34 Q18.2188,33.7656 18.2188,33.375 Q18.2188,33 18.4844,32.7656 Q18.75,32.5313 19.3594,32.5313 L23.0313,32.5313 L26.4219,40.8906 Q27.0156,40.8906 27.2031,41.0313 Q27.5938,41.2969 27.5938,41.75 Q27.5938,42.125 27.3281,42.3594 Q27.0781,42.5938 26.4688,42.5938 L24.1719,42.5938 Q23.5625,42.5938 23.2969,42.3594 Q23.0313,42.125 23.0313,41.7344 Q23.0313,41.3594 23.2969,41.125 Q23.5625,40.8906 24.1719,40.8906 L24.5938,40.8906 L24.1875,39.8594 Z M23.4688,38.1563 L22.1094,34.7813 L20.7344,38.1563 L23.4688,38.1563 Z "/><text fill="#000000" font-family="sans-serif" font-size="14" font-style="italic" lengthAdjust="spacingAndGlyphs" textLength="134" x="36" y="37.5332">ContentCategoryImpl</text><text fill="#000000" font-family="sans-serif" font-size="10" font-style="italic" lengthAdjust="spacingAndGlyphs" textLength="114" x="46" y="50.9902">org.eclipse.epf.uma.impl</text></a><!--MD5=[3e1625108a05cbdcd5c7bba6b59ac189]
class org.eclipse.epf.uma.RoleSet--><a href="..\RoleSet.html" target="_top" title="..\RoleSet.html" xlink:actuate="onRequest" xlink:href="..\RoleSet.html" xlink:show="new" xlink:title="..\RoleSet.html" xlink:type="simple"><rect codeLine="14" fill="#FEFECE" filter="url(#f13johfql771tk)" height="62.0234" id="org.eclipse.epf.uma.RoleSet" style="stroke: #A80036; stroke-width: 1.5;" width="144" x="208" y="7"/><ellipse cx="232" cy="27.0938" fill="#B4A7E5" rx="11" ry="11" style="stroke: #A80036; stroke-width: 1.0;"/><path d="M232.9531,23.7344 L232.9531,30.3906 L234.6719,30.3906 Q235.2813,30.3906 235.5469,30.625 Q235.8125,30.8594 235.8125,31.25 Q235.8125,31.625 235.5469,31.8594 Q235.2813,32.0938 234.6719,32.0938 L229.5313,32.0938 Q228.9219,32.0938 228.6563,31.8594 Q228.3906,31.625 228.3906,31.2344 Q228.3906,30.8594 228.6563,30.625 Q228.9219,30.3906 229.5313,30.3906 L231.25,30.3906 L231.25,23.7344 L229.5313,23.7344 Q228.9219,23.7344 228.6563,23.5 Q228.3906,23.2656 228.3906,22.875 Q228.3906,22.5 228.6563,22.2656 Q228.9219,22.0313 229.5313,22.0313 L234.6719,22.0313 Q235.2813,22.0313 235.5469,22.2656 Q235.8125,22.5 235.8125,22.875 Q235.8125,23.2656 235.5469,23.5 Q235.2813,23.7344 234.6719,23.7344 L232.9531,23.7344 Z "/><text fill="#000000" font-family="sans-serif" font-size="14" font-style="italic" lengthAdjust="spacingAndGlyphs" textLength="50" x="269" y="26.5332">RoleSet</text><text fill="#000000" font-family="sans-serif" font-size="10" font-style="italic" lengthAdjust="spacingAndGlyphs" textLength="92" x="248" y="39.9902">org.eclipse.epf.uma</text><line style="stroke: #A80036; stroke-width: 1.5;" x1="209" x2="351" y1="47.1875" y2="47.1875"/><ellipse cx="219" cy="58.1875" fill="#84BE84" rx="3" ry="3" style="stroke: #038048; stroke-width: 1.0;"/><text fill="#000000" font-family="sans-serif" font-size="11" font-style="italic" lengthAdjust="spacingAndGlyphs" textLength="118" x="228" y="62.6064">getRoles(): EList&lt;Role&gt;</text></a><!--MD5=[794096924d5288c4525893403ee1e089]
reverse link org.eclipse.epf.uma.impl.ContentCategoryImpl to org.eclipse.epf.uma.impl.RoleSetImpl--><path codeLine="18" d="M113.27,75.13 C123.65,91.24 136.13,110.63 147.76,128.68 " fill="none" id="org.eclipse.epf.uma.impl.ContentCategoryImpl-backto-org.eclipse.epf.uma.impl.RoleSetImpl" style="stroke: #A80036; stroke-width: 1.0;"/><polygon fill="none" points="107.36,78.89,102.42,58.28,119.13,71.31,107.36,78.89" style="stroke: #A80036; stroke-width: 1.0;"/><!--MD5=[d87ed913896ff7a3fd88df1b2935979a]
reverse link org.eclipse.epf.uma.RoleSet to org.eclipse.epf.uma.impl.RoleSetImpl--><path codeLine="19" d="M249.66,86.1 C240.9,99.71 231.23,114.72 222.1,128.9 " fill="none" id="org.eclipse.epf.uma.RoleSet-backto-org.eclipse.epf.uma.impl.RoleSetImpl" style="stroke: #A80036; stroke-width: 1.0; stroke-dasharray: 7.0,7.0;"/><polygon fill="none" points="243.83,82.23,260.55,69.2,255.6,89.81,243.83,82.23" style="stroke: #A80036; stroke-width: 1.0;"/><text fill="#888888" font-family="sans-serif" font-size="10" lengthAdjust="spacingAndGlyphs" textLength="190" x="81.5" y="269.748">UMLDoclet 2.0.12, PlantUML 1.2020.16</text><!--MD5=[33fefe7e1847fd6cd7455b78eb5fcb8b]
@startuml
    set namespaceSeparator none
    hide empty fields
    hide empty methods

    class "<size:14>RoleSetImpl\n<size:10>org.eclipse.epf.uma.impl" as org.eclipse.epf.uma.impl.RoleSetImpl [[RoleSetImpl.html]] {
        +getRoles(): EList<Role>
        +eGet(int, boolean, boolean): Object
        +eSet(int, Object): void
        +eUnset(int): void
        +eIsSet(int): boolean
    }

    abstract class "<size:14>ContentCategoryImpl\n<size:10>org.eclipse.epf.uma.impl" as org.eclipse.epf.uma.impl.ContentCategoryImpl [[ContentCategoryImpl.html]]
    interface "<size:14>RoleSet\n<size:10>org.eclipse.epf.uma" as org.eclipse.epf.uma.RoleSet [[..\RoleSet.html]] {
        {abstract} +getRoles(): EList<Role>
    }

    org.eclipse.epf.uma.impl.ContentCategoryImpl <|- - org.eclipse.epf.uma.impl.RoleSetImpl
    org.eclipse.epf.uma.RoleSet <|.. org.eclipse.epf.uma.impl.RoleSetImpl

    center footer UMLDoclet 2.0.12, PlantUML 1.2020.16
@enduml

PlantUML version 1.2020.16(Sun Aug 23 22:20:43 CEST 2020)
(APACHE source distribution)
Java Runtime: Java(TM) SE Runtime Environment
JVM: Java HotSpot(TM) 64-Bit Server VM
Default Encoding: Cp1252
Language: es
Country: ES
--></g></svg>