<?xml version="1.0" encoding="UTF-8" standalone="no"?><svg xmlns="http://www.w3.org/2000/svg" xmlns:xlink="http://www.w3.org/1999/xlink" contentScriptType="application/ecmascript" contentStyleType="text/css" height="407px" preserveAspectRatio="none" style="width:496px;height:407px;" version="1.1" viewBox="0 0 496 407" width="496px" zoomAndPan="magnify"><defs><filter height="300%" id="f1lyvbt2ynt322" width="300%" x="-1" y="-1"><feGaussianBlur result="blurOut" stdDeviation="2.0"/><feColorMatrix in="blurOut" result="blurOut2" type="matrix" values="0 0 0 0 0 0 0 0 0 0 0 0 0 0 0 0 0 0 .4 0"/><feOffset dx="4.0" dy="4.0" in="blurOut2" result="blurOut3"/><feBlend in="SourceGraphic" in2="blurOut3" mode="normal"/></filter></defs><g><!--MD5=[8d5278a98368c0df3773dcab3dcbc32f]
class org.eclipse.epf.uma.impl.RoleDescriptorImpl--><a href="RoleDescriptorImpl.html" target="_top" title="RoleDescriptorImpl.html" xlink:actuate="onRequest" xlink:href="RoleDescriptorImpl.html" xlink:show="new" xlink:title="RoleDescriptorImpl.html" xlink:type="simple"><rect codeLine="5" fill="#FEFECE" filter="url(#f1lyvbt2ynt322)" height="186.5469" id="org.eclipse.epf.uma.impl.RoleDescriptorImpl" style="stroke: #A80036; stroke-width: 1.5;" width="277" x="67.5" y="184"/><ellipse cx="142.25" cy="204.0938" fill="#ADD1B2" rx="11" ry="11" style="stroke: #A80036; stroke-width: 1.0;"/><path d="M145.0156,199.9688 Q145.1719,199.75 145.3594,199.6406 Q145.5469,199.5313 145.7656,199.5313 Q146.1406,199.5313 146.375,199.7969 Q146.6094,200.0469 146.6094,200.6563 L146.6094,202.1094 Q146.6094,202.7188 146.375,202.9844 Q146.1406,203.25 145.7656,203.25 Q145.4219,203.25 145.2188,203.0469 Q145.0156,202.8594 144.9063,202.3438 Q144.8594,201.9844 144.6719,201.7969 Q144.3438,201.4219 143.7344,201.2031 Q143.125,200.9844 142.5,200.9844 Q141.7344,200.9844 141.0938,201.3125 Q140.4688,201.6406 139.9688,202.3906 Q139.4844,203.1406 139.4844,204.1719 L139.4844,205.2656 Q139.4844,206.5 140.375,207.3281 Q141.2656,208.1406 142.8594,208.1406 Q143.7969,208.1406 144.4531,207.8906 Q144.8438,207.7344 145.2656,207.2969 Q145.5313,207.0313 145.6719,206.9531 Q145.8281,206.875 146.0313,206.875 Q146.3594,206.875 146.6094,207.1406 Q146.875,207.3906 146.875,207.7344 Q146.875,208.0781 146.5313,208.4844 Q146.0313,209.0625 145.2344,209.3906 Q144.1563,209.8438 142.8594,209.8438 Q141.3438,209.8438 140.1406,209.2188 Q139.1563,208.7188 138.4688,207.6563 Q137.7813,206.5781 137.7813,205.2969 L137.7813,204.1406 Q137.7813,202.8125 138.3906,201.6719 Q139.0156,200.5156 140.1094,199.9063 Q141.2031,199.2813 142.4375,199.2813 Q143.1719,199.2813 143.8125,199.4531 Q144.4688,199.6094 145.0156,199.9688 Z "/><text fill="#000000" font-family="sans-serif" font-size="14" lengthAdjust="spacingAndGlyphs" textLength="119" x="162.75" y="203.5332">RoleDescriptorImpl</text><text fill="#000000" font-family="sans-serif" font-size="10" lengthAdjust="spacingAndGlyphs" textLength="118" x="163.25" y="216.9902">org.eclipse.epf.uma.impl</text><line style="stroke: #A80036; stroke-width: 1.5;" x1="68.5" x2="343.5" y1="224.1875" y2="224.1875"/><ellipse cx="78.5" cy="235.1875" fill="#84BE84" rx="3" ry="3" style="stroke: #038048; stroke-width: 1.0;"/><text fill="#000000" font-family="sans-serif" font-size="11" lengthAdjust="spacingAndGlyphs" textLength="71" x="87.5" y="239.6064">getRole(): Role</text><ellipse cx="78.5" cy="249.0234" fill="#84BE84" rx="3" ry="3" style="stroke: #038048; stroke-width: 1.0;"/><text fill="#000000" font-family="sans-serif" font-size="11" lengthAdjust="spacingAndGlyphs" textLength="99" x="87.5" y="253.4424">basicGetRole(): Role</text><ellipse cx="78.5" cy="262.8594" fill="#84BE84" rx="3" ry="3" style="stroke: #038048; stroke-width: 1.0;"/><text fill="#000000" font-family="sans-serif" font-size="11" lengthAdjust="spacingAndGlyphs" textLength="91" x="87.5" y="267.2783">setRole(Role): void</text><ellipse cx="78.5" cy="276.6953" fill="#84BE84" rx="3" ry="3" style="stroke: #038048; stroke-width: 1.0;"/><text fill="#000000" font-family="sans-serif" font-size="11" lengthAdjust="spacingAndGlyphs" textLength="216" x="87.5" y="281.1143">getModifies(): EList&lt;WorkProductDescriptor&gt;</text><ellipse cx="78.5" cy="290.5313" fill="#84BE84" rx="3" ry="3" style="stroke: #038048; stroke-width: 1.0;"/><text fill="#000000" font-family="sans-serif" font-size="11" lengthAdjust="spacingAndGlyphs" textLength="251" x="87.5" y="294.9502">getResponsibleFor(): EList&lt;WorkProductDescriptor&gt;</text><ellipse cx="78.5" cy="304.3672" fill="#84BE84" rx="3" ry="3" style="stroke: #038048; stroke-width: 1.0;"/><text fill="#000000" font-family="sans-serif" font-size="11" lengthAdjust="spacingAndGlyphs" textLength="239" x="87.5" y="308.7861">getResponsibleForExclude(): EList&lt;WorkProduct&gt;</text><ellipse cx="78.5" cy="318.2031" fill="#84BE84" rx="3" ry="3" style="stroke: #038048; stroke-width: 1.0;"/><text fill="#000000" font-family="sans-serif" font-size="11" lengthAdjust="spacingAndGlyphs" textLength="167" x="87.5" y="322.6221">eGet(int, boolean, boolean): Object</text><ellipse cx="78.5" cy="332.0391" fill="#84BE84" rx="3" ry="3" style="stroke: #038048; stroke-width: 1.0;"/><text fill="#000000" font-family="sans-serif" font-size="11" lengthAdjust="spacingAndGlyphs" textLength="104" x="87.5" y="336.458">eSet(int, Object): void</text><ellipse cx="78.5" cy="345.875" fill="#84BE84" rx="3" ry="3" style="stroke: #038048; stroke-width: 1.0;"/><text fill="#000000" font-family="sans-serif" font-size="11" lengthAdjust="spacingAndGlyphs" textLength="79" x="87.5" y="350.2939">eUnset(int): void</text><ellipse cx="78.5" cy="359.7109" fill="#84BE84" rx="3" ry="3" style="stroke: #038048; stroke-width: 1.0;"/><text fill="#000000" font-family="sans-serif" font-size="11" lengthAdjust="spacingAndGlyphs" textLength="93" x="87.5" y="364.1299">eIsSet(int): boolean</text></a><!--MD5=[165a2d5387423aae99d78796ca3bc826]
class org.eclipse.epf.uma.impl.DescriptorImpl--><a href="DescriptorImpl.html" target="_top" title="DescriptorImpl.html" xlink:actuate="onRequest" xlink:href="DescriptorImpl.html" xlink:show="new" xlink:title="DescriptorImpl.html" xlink:type="simple"><rect codeLine="18" fill="#FEFECE" filter="url(#f1lyvbt2ynt322)" height="40.1875" id="org.eclipse.epf.uma.impl.DescriptorImpl" style="stroke: #A80036; stroke-width: 1.5;" width="146" x="7" y="45.5"/><ellipse cx="22" cy="65.5938" fill="#A9DCDF" rx="11" ry="11" style="stroke: #A80036; stroke-width: 1.0;"/><path d="M24.1875,67.3594 L20.0469,67.3594 L19.625,68.3906 L20.0469,68.3906 Q20.6563,68.3906 20.9219,68.625 Q21.1875,68.8594 21.1875,69.25 Q21.1875,69.625 20.9219,69.8594 Q20.6563,70.0938 20.0469,70.0938 L17.75,70.0938 Q17.1406,70.0938 16.8906,69.8594 Q16.625,69.625 16.625,69.2344 Q16.625,68.8594 16.9063,68.625 Q17.1719,68.375 17.7969,68.3906 L20.4688,61.7344 L19.3594,61.7344 Q18.75,61.7344 18.4844,61.5 Q18.2188,61.2656 18.2188,60.875 Q18.2188,60.5 18.4844,60.2656 Q18.75,60.0313 19.3594,60.0313 L23.0313,60.0313 L26.4219,68.3906 Q27.0156,68.3906 27.2031,68.5313 Q27.5938,68.7969 27.5938,69.25 Q27.5938,69.625 27.3281,69.8594 Q27.0781,70.0938 26.4688,70.0938 L24.1719,70.0938 Q23.5625,70.0938 23.2969,69.8594 Q23.0313,69.625 23.0313,69.2344 Q23.0313,68.8594 23.2969,68.625 Q23.5625,68.3906 24.1719,68.3906 L24.5938,68.3906 L24.1875,67.3594 Z M23.4688,65.6563 L22.1094,62.2813 L20.7344,65.6563 L23.4688,65.6563 Z "/><text fill="#000000" font-family="sans-serif" font-size="14" font-style="italic" lengthAdjust="spacingAndGlyphs" textLength="91" x="47.5" y="65.0332">DescriptorImpl</text><text fill="#000000" font-family="sans-serif" font-size="10" font-style="italic" lengthAdjust="spacingAndGlyphs" textLength="114" x="36" y="78.4902">org.eclipse.epf.uma.impl</text></a><!--MD5=[ab7492900548ec6688946b1b6ca656ed]
class org.eclipse.epf.uma.RoleDescriptor--><a href="..\RoleDescriptor.html" target="_top" title="..\RoleDescriptor.html" xlink:actuate="onRequest" xlink:href="..\RoleDescriptor.html" xlink:show="new" xlink:title="..\RoleDescriptor.html" xlink:type="simple"><rect codeLine="19" fill="#FEFECE" filter="url(#f1lyvbt2ynt322)" height="117.3672" id="org.eclipse.epf.uma.RoleDescriptor" style="stroke: #A80036; stroke-width: 1.5;" width="289" x="188.5" y="7"/><ellipse cx="281.75" cy="27.0938" fill="#B4A7E5" rx="11" ry="11" style="stroke: #A80036; stroke-width: 1.0;"/><path d="M282.7031,23.7344 L282.7031,30.3906 L284.4219,30.3906 Q285.0313,30.3906 285.2969,30.625 Q285.5625,30.8594 285.5625,31.25 Q285.5625,31.625 285.2969,31.8594 Q285.0313,32.0938 284.4219,32.0938 L279.2813,32.0938 Q278.6719,32.0938 278.4063,31.8594 Q278.1406,31.625 278.1406,31.2344 Q278.1406,30.8594 278.4063,30.625 Q278.6719,30.3906 279.2813,30.3906 L281,30.3906 L281,23.7344 L279.2813,23.7344 Q278.6719,23.7344 278.4063,23.5 Q278.1406,23.2656 278.1406,22.875 Q278.1406,22.5 278.4063,22.2656 Q278.6719,22.0313 279.2813,22.0313 L284.4219,22.0313 Q285.0313,22.0313 285.2969,22.2656 Q285.5625,22.5 285.5625,22.875 Q285.5625,23.2656 285.2969,23.5 Q285.0313,23.7344 284.4219,23.7344 L282.7031,23.7344 Z "/><text fill="#000000" font-family="sans-serif" font-size="14" font-style="italic" lengthAdjust="spacingAndGlyphs" textLength="94" x="302.25" y="26.5332">RoleDescriptor</text><text fill="#000000" font-family="sans-serif" font-size="10" font-style="italic" lengthAdjust="spacingAndGlyphs" textLength="92" x="303.25" y="39.9902">org.eclipse.epf.uma</text><line style="stroke: #A80036; stroke-width: 1.5;" x1="189.5" x2="476.5" y1="47.1875" y2="47.1875"/><ellipse cx="199.5" cy="58.1875" fill="#84BE84" rx="3" ry="3" style="stroke: #038048; stroke-width: 1.0;"/><text fill="#000000" font-family="sans-serif" font-size="11" font-style="italic" lengthAdjust="spacingAndGlyphs" textLength="75" x="208.5" y="62.6064">getRole(): Role</text><ellipse cx="199.5" cy="72.0234" fill="#84BE84" rx="3" ry="3" style="stroke: #038048; stroke-width: 1.0;"/><text fill="#000000" font-family="sans-serif" font-size="11" font-style="italic" lengthAdjust="spacingAndGlyphs" textLength="95" x="208.5" y="76.4424">setRole(Role): void</text><ellipse cx="199.5" cy="85.8594" fill="#84BE84" rx="3" ry="3" style="stroke: #038048; stroke-width: 1.0;"/><text fill="#000000" font-family="sans-serif" font-size="11" font-style="italic" lengthAdjust="spacingAndGlyphs" textLength="225" x="208.5" y="90.2783">getModifies(): EList&lt;WorkProductDescriptor&gt;</text><ellipse cx="199.5" cy="99.6953" fill="#84BE84" rx="3" ry="3" style="stroke: #038048; stroke-width: 1.0;"/><text fill="#000000" font-family="sans-serif" font-size="11" font-style="italic" lengthAdjust="spacingAndGlyphs" textLength="263" x="208.5" y="104.1143">getResponsibleFor(): EList&lt;WorkProductDescriptor&gt;</text><ellipse cx="199.5" cy="113.5313" fill="#84BE84" rx="3" ry="3" style="stroke: #038048; stroke-width: 1.0;"/><text fill="#000000" font-family="sans-serif" font-size="11" font-style="italic" lengthAdjust="spacingAndGlyphs" textLength="251" x="208.5" y="117.9502">getResponsibleForExclude(): EList&lt;WorkProduct&gt;</text></a><!--MD5=[2aa06706e7be9375b757ad24151196c0]
reverse link org.eclipse.epf.uma.impl.DescriptorImpl to org.eclipse.epf.uma.impl.RoleDescriptorImpl--><path codeLine="27" d="M101.73,102.72 C115.18,125.14 133.11,155.01 150.3,183.66 " fill="none" id="org.eclipse.epf.uma.impl.DescriptorImpl-backto-org.eclipse.epf.uma.impl.RoleDescriptorImpl" style="stroke: #A80036; stroke-width: 1.0;"/><polygon fill="none" points="95.69,106.26,91.4,85.51,107.7,99.05,95.69,106.26" style="stroke: #A80036; stroke-width: 1.0;"/><!--MD5=[32467da8adf6d804d99af6c9ea1e6985]
reverse link org.eclipse.epf.uma.RoleDescriptor to org.eclipse.epf.uma.impl.RoleDescriptorImpl--><path codeLine="28" d="M287.56,141.63 C279.29,155.31 270.57,169.73 262.04,183.84 " fill="none" id="org.eclipse.epf.uma.RoleDescriptor-backto-org.eclipse.epf.uma.impl.RoleDescriptorImpl" style="stroke: #A80036; stroke-width: 1.0; stroke-dasharray: 7.0,7.0;"/><polygon fill="none" points="281.79,137.65,298.13,124.16,293.77,144.9,281.79,137.65" style="stroke: #A80036; stroke-width: 1.0;"/><text fill="#888888" font-family="sans-serif" font-size="10" lengthAdjust="spacingAndGlyphs" textLength="190" x="144.25" y="393.9277">UMLDoclet 2.0.12, PlantUML 1.2020.16</text><!--MD5=[e4e007b222acca69c4a6a189109d76df]
@startuml
    set namespaceSeparator none
    hide empty fields
    hide empty methods

    class "<size:14>RoleDescriptorImpl\n<size:10>org.eclipse.epf.uma.impl" as org.eclipse.epf.uma.impl.RoleDescriptorImpl [[RoleDescriptorImpl.html]] {
        +getRole(): Role
        +basicGetRole(): Role
        +setRole(Role): void
        +getModifies(): EList<WorkProductDescriptor>
        +getResponsibleFor(): EList<WorkProductDescriptor>
        +getResponsibleForExclude(): EList<WorkProduct>
        +eGet(int, boolean, boolean): Object
        +eSet(int, Object): void
        +eUnset(int): void
        +eIsSet(int): boolean
    }

    abstract class "<size:14>DescriptorImpl\n<size:10>org.eclipse.epf.uma.impl" as org.eclipse.epf.uma.impl.DescriptorImpl [[DescriptorImpl.html]]
    interface "<size:14>RoleDescriptor\n<size:10>org.eclipse.epf.uma" as org.eclipse.epf.uma.RoleDescriptor [[..\RoleDescriptor.html]] {
        {abstract} +getRole(): Role
        {abstract} +setRole(Role): void
        {abstract} +getModifies(): EList<WorkProductDescriptor>
        {abstract} +getResponsibleFor(): EList<WorkProductDescriptor>
        {abstract} +getResponsibleForExclude(): EList<WorkProduct>
    }

    org.eclipse.epf.uma.impl.DescriptorImpl <|- - org.eclipse.epf.uma.impl.RoleDescriptorImpl
    org.eclipse.epf.uma.RoleDescriptor <|.. org.eclipse.epf.uma.impl.RoleDescriptorImpl

    center footer UMLDoclet 2.0.12, PlantUML 1.2020.16
@enduml

PlantUML version 1.2020.16(Sun Aug 23 22:20:43 CEST 2020)
(APACHE source distribution)
Java Runtime: Java(TM) SE Runtime Environment
JVM: Java HotSpot(TM) 64-Bit Server VM
Default Encoding: Cp1252
Language: es
Country: ES
--></g></svg>