<?xml version="1.0" encoding="UTF-8" standalone="no"?><svg xmlns="http://www.w3.org/2000/svg" xmlns:xlink="http://www.w3.org/1999/xlink" contentScriptType="application/ecmascript" contentStyleType="text/css" height="283px" preserveAspectRatio="none" style="width:403px;height:283px;" version="1.1" viewBox="0 0 403 283" width="403px" zoomAndPan="magnify"><defs><filter height="300%" id="fblkybpg50u3l" width="300%" x="-1" y="-1"><feGaussianBlur result="blurOut" stdDeviation="2.0"/><feColorMatrix in="blurOut" result="blurOut2" type="matrix" values="0 0 0 0 0 0 0 0 0 0 0 0 0 0 0 0 0 0 .4 0"/><feOffset dx="4.0" dy="4.0" in="blurOut2" result="blurOut3"/><feBlend in="SourceGraphic" in2="blurOut3" mode="normal"/></filter></defs><g><!--MD5=[6b64587a2084d3d75aac168644e363fb]
class org.eclipse.epf.uma.impl.RoleSetGroupingImpl--><a href="RoleSetGroupingImpl.html" target="_top" title="RoleSetGroupingImpl.html" xlink:actuate="onRequest" xlink:href="RoleSetGroupingImpl.html" xlink:show="new" xlink:title="RoleSetGroupingImpl.html" xlink:type="simple"><rect codeLine="5" fill="#FEFECE" filter="url(#fblkybpg50u3l)" height="117.3672" id="org.eclipse.epf.uma.impl.RoleSetGroupingImpl" style="stroke: #A80036; stroke-width: 1.5;" width="193" x="96.5" y="129"/><ellipse cx="123.65" cy="149.0938" fill="#ADD1B2" rx="11" ry="11" style="stroke: #A80036; stroke-width: 1.0;"/><path d="M126.4156,144.9688 Q126.5719,144.75 126.7594,144.6406 Q126.9469,144.5313 127.1656,144.5313 Q127.5406,144.5313 127.775,144.7969 Q128.0094,145.0469 128.0094,145.6563 L128.0094,147.1094 Q128.0094,147.7188 127.775,147.9844 Q127.5406,148.25 127.1656,148.25 Q126.8219,148.25 126.6188,148.0469 Q126.4156,147.8594 126.3063,147.3438 Q126.2594,146.9844 126.0719,146.7969 Q125.7438,146.4219 125.1344,146.2031 Q124.525,145.9844 123.9,145.9844 Q123.1344,145.9844 122.4938,146.3125 Q121.8688,146.6406 121.3688,147.3906 Q120.8844,148.1406 120.8844,149.1719 L120.8844,150.2656 Q120.8844,151.5 121.775,152.3281 Q122.6656,153.1406 124.2594,153.1406 Q125.1969,153.1406 125.8531,152.8906 Q126.2438,152.7344 126.6656,152.2969 Q126.9313,152.0313 127.0719,151.9531 Q127.2281,151.875 127.4313,151.875 Q127.7594,151.875 128.0094,152.1406 Q128.275,152.3906 128.275,152.7344 Q128.275,153.0781 127.9313,153.4844 Q127.4313,154.0625 126.6344,154.3906 Q125.5563,154.8438 124.2594,154.8438 Q122.7438,154.8438 121.5406,154.2188 Q120.5563,153.7188 119.8688,152.6563 Q119.1813,151.5781 119.1813,150.2969 L119.1813,149.1406 Q119.1813,147.8125 119.7906,146.6719 Q120.4156,145.5156 121.5094,144.9063 Q122.6031,144.2813 123.8375,144.2813 Q124.5719,144.2813 125.2125,144.4531 Q125.8688,144.6094 126.4156,144.9688 Z "/><text fill="#000000" font-family="sans-serif" font-size="14" lengthAdjust="spacingAndGlyphs" textLength="134" x="140.35" y="148.5332">RoleSetGroupingImpl</text><text fill="#000000" font-family="sans-serif" font-size="10" lengthAdjust="spacingAndGlyphs" textLength="118" x="148.35" y="161.9902">org.eclipse.epf.uma.impl</text><line style="stroke: #A80036; stroke-width: 1.5;" x1="97.5" x2="288.5" y1="169.1875" y2="169.1875"/><ellipse cx="107.5" cy="180.1875" fill="#84BE84" rx="3" ry="3" style="stroke: #038048; stroke-width: 1.0;"/><text fill="#000000" font-family="sans-serif" font-size="11" lengthAdjust="spacingAndGlyphs" textLength="144" x="116.5" y="184.6064">getRoleSets(): EList&lt;RoleSet&gt;</text><ellipse cx="107.5" cy="194.0234" fill="#84BE84" rx="3" ry="3" style="stroke: #038048; stroke-width: 1.0;"/><text fill="#000000" font-family="sans-serif" font-size="11" lengthAdjust="spacingAndGlyphs" textLength="167" x="116.5" y="198.4424">eGet(int, boolean, boolean): Object</text><ellipse cx="107.5" cy="207.8594" fill="#84BE84" rx="3" ry="3" style="stroke: #038048; stroke-width: 1.0;"/><text fill="#000000" font-family="sans-serif" font-size="11" lengthAdjust="spacingAndGlyphs" textLength="104" x="116.5" y="212.2783">eSet(int, Object): void</text><ellipse cx="107.5" cy="221.6953" fill="#84BE84" rx="3" ry="3" style="stroke: #038048; stroke-width: 1.0;"/><text fill="#000000" font-family="sans-serif" font-size="11" lengthAdjust="spacingAndGlyphs" textLength="79" x="116.5" y="226.1143">eUnset(int): void</text><ellipse cx="107.5" cy="235.5313" fill="#84BE84" rx="3" ry="3" style="stroke: #038048; stroke-width: 1.0;"/><text fill="#000000" font-family="sans-serif" font-size="11" lengthAdjust="spacingAndGlyphs" textLength="93" x="116.5" y="239.9502">eIsSet(int): boolean</text></a><!--MD5=[80a1fa17d1f3fd257902418e6ad1c457]
class org.eclipse.epf.uma.impl.ContentCategoryImpl--><a href="ContentCategoryImpl.html" target="_top" title="ContentCategoryImpl.html" xlink:actuate="onRequest" xlink:href="ContentCategoryImpl.html" xlink:show="new" xlink:title="ContentCategoryImpl.html" xlink:type="simple"><rect codeLine="13" fill="#FEFECE" filter="url(#fblkybpg50u3l)" height="40.1875" id="org.eclipse.epf.uma.impl.ContentCategoryImpl" style="stroke: #A80036; stroke-width: 1.5;" width="166" x="7" y="18"/><ellipse cx="22" cy="38.0938" fill="#A9DCDF" rx="11" ry="11" style="stroke: #A80036; stroke-width: 1.0;"/><path d="M24.1875,39.8594 L20.0469,39.8594 L19.625,40.8906 L20.0469,40.8906 Q20.6563,40.8906 20.9219,41.125 Q21.1875,41.3594 21.1875,41.75 Q21.1875,42.125 20.9219,42.3594 Q20.6563,42.5938 20.0469,42.5938 L17.75,42.5938 Q17.1406,42.5938 16.8906,42.3594 Q16.625,42.125 16.625,41.7344 Q16.625,41.3594 16.9063,41.125 Q17.1719,40.875 17.7969,40.8906 L20.4688,34.2344 L19.3594,34.2344 Q18.75,34.2344 18.4844,34 Q18.2188,33.7656 18.2188,33.375 Q18.2188,33 18.4844,32.7656 Q18.75,32.5313 19.3594,32.5313 L23.0313,32.5313 L26.4219,40.8906 Q27.0156,40.8906 27.2031,41.0313 Q27.5938,41.2969 27.5938,41.75 Q27.5938,42.125 27.3281,42.3594 Q27.0781,42.5938 26.4688,42.5938 L24.1719,42.5938 Q23.5625,42.5938 23.2969,42.3594 Q23.0313,42.125 23.0313,41.7344 Q23.0313,41.3594 23.2969,41.125 Q23.5625,40.8906 24.1719,40.8906 L24.5938,40.8906 L24.1875,39.8594 Z M23.4688,38.1563 L22.1094,34.7813 L20.7344,38.1563 L23.4688,38.1563 Z "/><text fill="#000000" font-family="sans-serif" font-size="14" font-style="italic" lengthAdjust="spacingAndGlyphs" textLength="134" x="36" y="37.5332">ContentCategoryImpl</text><text fill="#000000" font-family="sans-serif" font-size="10" font-style="italic" lengthAdjust="spacingAndGlyphs" textLength="114" x="46" y="50.9902">org.eclipse.epf.uma.impl</text></a><!--MD5=[f928c1941d8716e4bbebf870a818b4cf]
class org.eclipse.epf.uma.RoleSetGrouping--><a href="..\RoleSetGrouping.html" target="_top" title="..\RoleSetGrouping.html" xlink:actuate="onRequest" xlink:href="..\RoleSetGrouping.html" xlink:show="new" xlink:title="..\RoleSetGrouping.html" xlink:type="simple"><rect codeLine="14" fill="#FEFECE" filter="url(#fblkybpg50u3l)" height="62.0234" id="org.eclipse.epf.uma.RoleSetGrouping" style="stroke: #A80036; stroke-width: 1.5;" width="176" x="208" y="7"/><ellipse cx="238.75" cy="27.0938" fill="#B4A7E5" rx="11" ry="11" style="stroke: #A80036; stroke-width: 1.0;"/><path d="M239.7031,23.7344 L239.7031,30.3906 L241.4219,30.3906 Q242.0313,30.3906 242.2969,30.625 Q242.5625,30.8594 242.5625,31.25 Q242.5625,31.625 242.2969,31.8594 Q242.0313,32.0938 241.4219,32.0938 L236.2813,32.0938 Q235.6719,32.0938 235.4063,31.8594 Q235.1406,31.625 235.1406,31.2344 Q235.1406,30.8594 235.4063,30.625 Q235.6719,30.3906 236.2813,30.3906 L238,30.3906 L238,23.7344 L236.2813,23.7344 Q235.6719,23.7344 235.4063,23.5 Q235.1406,23.2656 235.1406,22.875 Q235.1406,22.5 235.4063,22.2656 Q235.6719,22.0313 236.2813,22.0313 L241.4219,22.0313 Q242.0313,22.0313 242.2969,22.2656 Q242.5625,22.5 242.5625,22.875 Q242.5625,23.2656 242.2969,23.5 Q242.0313,23.7344 241.4219,23.7344 L239.7031,23.7344 Z "/><text fill="#000000" font-family="sans-serif" font-size="14" font-style="italic" lengthAdjust="spacingAndGlyphs" textLength="109" x="256.25" y="26.5332">RoleSetGrouping</text><text fill="#000000" font-family="sans-serif" font-size="10" font-style="italic" lengthAdjust="spacingAndGlyphs" textLength="92" x="264.75" y="39.9902">org.eclipse.epf.uma</text><line style="stroke: #A80036; stroke-width: 1.5;" x1="209" x2="383" y1="47.1875" y2="47.1875"/><ellipse cx="219" cy="58.1875" fill="#84BE84" rx="3" ry="3" style="stroke: #038048; stroke-width: 1.0;"/><text fill="#000000" font-family="sans-serif" font-size="11" font-style="italic" lengthAdjust="spacingAndGlyphs" textLength="150" x="228" y="62.6064">getRoleSets(): EList&lt;RoleSet&gt;</text></a><!--MD5=[cfeb3ae925a6aa057185874a34199241]
reverse link org.eclipse.epf.uma.impl.ContentCategoryImpl to org.eclipse.epf.uma.impl.RoleSetGroupingImpl--><path codeLine="18" d="M115.05,74.87 C126.33,91.03 139.95,110.53 152.62,128.68 " fill="none" id="org.eclipse.epf.uma.impl.ContentCategoryImpl-backto-org.eclipse.epf.uma.impl.RoleSetGroupingImpl" style="stroke: #A80036; stroke-width: 1.0;"/><polygon fill="none" points="109.18,78.69,103.47,58.28,120.66,70.67,109.18,78.69" style="stroke: #A80036; stroke-width: 1.0;"/><!--MD5=[2fff34460bd75dd79691048ef6b74105]
reverse link org.eclipse.epf.uma.RoleSetGrouping to org.eclipse.epf.uma.impl.RoleSetGroupingImpl--><path codeLine="19" d="M263.43,85.64 C253.84,99.38 243.23,114.56 233.23,128.9 " fill="none" id="org.eclipse.epf.uma.RoleSetGrouping-backto-org.eclipse.epf.uma.impl.RoleSetGroupingImpl" style="stroke: #A80036; stroke-width: 1.0; stroke-dasharray: 7.0,7.0;"/><polygon fill="none" points="257.72,81.59,274.91,69.2,269.2,89.61,257.72,81.59" style="stroke: #A80036; stroke-width: 1.0;"/><text fill="#888888" font-family="sans-serif" font-size="10" lengthAdjust="spacingAndGlyphs" textLength="190" x="97.5" y="269.748">UMLDoclet 2.0.12, PlantUML 1.2020.16</text><!--MD5=[1fa82f74738bd6d7582e82d70006299d]
@startuml
    set namespaceSeparator none
    hide empty fields
    hide empty methods

    class "<size:14>RoleSetGroupingImpl\n<size:10>org.eclipse.epf.uma.impl" as org.eclipse.epf.uma.impl.RoleSetGroupingImpl [[RoleSetGroupingImpl.html]] {
        +getRoleSets(): EList<RoleSet>
        +eGet(int, boolean, boolean): Object
        +eSet(int, Object): void
        +eUnset(int): void
        +eIsSet(int): boolean
    }

    abstract class "<size:14>ContentCategoryImpl\n<size:10>org.eclipse.epf.uma.impl" as org.eclipse.epf.uma.impl.ContentCategoryImpl [[ContentCategoryImpl.html]]
    interface "<size:14>RoleSetGrouping\n<size:10>org.eclipse.epf.uma" as org.eclipse.epf.uma.RoleSetGrouping [[..\RoleSetGrouping.html]] {
        {abstract} +getRoleSets(): EList<RoleSet>
    }

    org.eclipse.epf.uma.impl.ContentCategoryImpl <|- - org.eclipse.epf.uma.impl.RoleSetGroupingImpl
    org.eclipse.epf.uma.RoleSetGrouping <|.. org.eclipse.epf.uma.impl.RoleSetGroupingImpl

    center footer UMLDoclet 2.0.12, PlantUML 1.2020.16
@enduml

PlantUML version 1.2020.16(Sun Aug 23 22:20:43 CEST 2020)
(APACHE source distribution)
Java Runtime: Java(TM) SE Runtime Environment
JVM: Java HotSpot(TM) 64-Bit Server VM
Default Encoding: Cp1252
Language: es
Country: ES
--></g></svg>