<?xml version="1.0" encoding="UTF-8" standalone="no"?><svg xmlns="http://www.w3.org/2000/svg" xmlns:xlink="http://www.w3.org/1999/xlink" contentScriptType="application/ecmascript" contentStyleType="text/css" height="421px" preserveAspectRatio="none" style="width:460px;height:421px;" version="1.1" viewBox="0 0 460 421" width="460px" zoomAndPan="magnify"><defs><filter height="300%" id="f7a7gz9n21m2c" width="300%" x="-1" y="-1"><feGaussianBlur result="blurOut" stdDeviation="2.0"/><feColorMatrix in="blurOut" result="blurOut2" type="matrix" values="0 0 0 0 0 0 0 0 0 0 0 0 0 0 0 0 0 0 .4 0"/><feOffset dx="4.0" dy="4.0" in="blurOut2" result="blurOut3"/><feBlend in="SourceGraphic" in2="blurOut3" mode="normal"/></filter></defs><g><!--MD5=[7ef163e324c3cde527f50959bed10990]
class org.eclipse.epf.uma.impl.RoleDescriptionImpl--><a href="RoleDescriptionImpl.html" target="_top" title="RoleDescriptionImpl.html" xlink:actuate="onRequest" xlink:href="RoleDescriptionImpl.html" xlink:show="new" xlink:title="RoleDescriptionImpl.html" xlink:type="simple"><rect codeLine="5" fill="#FEFECE" filter="url(#f7a7gz9n21m2c)" height="186.5469" id="org.eclipse.epf.uma.impl.RoleDescriptionImpl" style="stroke: #A80036; stroke-width: 1.5;" width="220" x="103" y="198"/><ellipse cx="146.35" cy="218.0938" fill="#ADD1B2" rx="11" ry="11" style="stroke: #A80036; stroke-width: 1.0;"/><path d="M149.1156,213.9688 Q149.2719,213.75 149.4594,213.6406 Q149.6469,213.5313 149.8656,213.5313 Q150.2406,213.5313 150.475,213.7969 Q150.7094,214.0469 150.7094,214.6563 L150.7094,216.1094 Q150.7094,216.7188 150.475,216.9844 Q150.2406,217.25 149.8656,217.25 Q149.5219,217.25 149.3188,217.0469 Q149.1156,216.8594 149.0063,216.3438 Q148.9594,215.9844 148.7719,215.7969 Q148.4438,215.4219 147.8344,215.2031 Q147.225,214.9844 146.6,214.9844 Q145.8344,214.9844 145.1938,215.3125 Q144.5688,215.6406 144.0688,216.3906 Q143.5844,217.1406 143.5844,218.1719 L143.5844,219.2656 Q143.5844,220.5 144.475,221.3281 Q145.3656,222.1406 146.9594,222.1406 Q147.8969,222.1406 148.5531,221.8906 Q148.9438,221.7344 149.3656,221.2969 Q149.6313,221.0313 149.7719,220.9531 Q149.9281,220.875 150.1313,220.875 Q150.4594,220.875 150.7094,221.1406 Q150.975,221.3906 150.975,221.7344 Q150.975,222.0781 150.6313,222.4844 Q150.1313,223.0625 149.3344,223.3906 Q148.2563,223.8438 146.9594,223.8438 Q145.4438,223.8438 144.2406,223.2188 Q143.2563,222.7188 142.5688,221.6563 Q141.8813,220.5781 141.8813,219.2969 L141.8813,218.1406 Q141.8813,216.8125 142.4906,215.6719 Q143.1156,214.5156 144.2094,213.9063 Q145.3031,213.2813 146.5375,213.2813 Q147.2719,213.2813 147.9125,213.4531 Q148.5688,213.6094 149.1156,213.9688 Z "/><text fill="#000000" font-family="sans-serif" font-size="14" lengthAdjust="spacingAndGlyphs" textLength="125" x="166.65" y="217.5332">RoleDescriptionImpl</text><text fill="#000000" font-family="sans-serif" font-size="10" lengthAdjust="spacingAndGlyphs" textLength="118" x="170.15" y="230.9902">org.eclipse.epf.uma.impl</text><line style="stroke: #A80036; stroke-width: 1.5;" x1="104" x2="322" y1="238.1875" y2="238.1875"/><ellipse cx="114" cy="249.1875" fill="#84BE84" rx="3" ry="3" style="stroke: #038048; stroke-width: 1.0;"/><text fill="#000000" font-family="sans-serif" font-size="11" lengthAdjust="spacingAndGlyphs" textLength="81" x="123" y="253.6064">getSkills(): String</text><ellipse cx="114" cy="263.0234" fill="#84BE84" rx="3" ry="3" style="stroke: #038048; stroke-width: 1.0;"/><text fill="#000000" font-family="sans-serif" font-size="11" lengthAdjust="spacingAndGlyphs" textLength="101" x="123" y="267.4424">setSkills(String): void</text><ellipse cx="114" cy="276.8594" fill="#84BE84" rx="3" ry="3" style="stroke: #038048; stroke-width: 1.0;"/><text fill="#000000" font-family="sans-serif" font-size="11" lengthAdjust="spacingAndGlyphs" textLength="174" x="123" y="281.2783">getAssignmentApproaches(): String</text><ellipse cx="114" cy="290.6953" fill="#84BE84" rx="3" ry="3" style="stroke: #038048; stroke-width: 1.0;"/><text fill="#000000" font-family="sans-serif" font-size="11" lengthAdjust="spacingAndGlyphs" textLength="194" x="123" y="295.1143">setAssignmentApproaches(String): void</text><ellipse cx="114" cy="304.5313" fill="#84BE84" rx="3" ry="3" style="stroke: #038048; stroke-width: 1.0;"/><text fill="#000000" font-family="sans-serif" font-size="11" lengthAdjust="spacingAndGlyphs" textLength="108" x="123" y="308.9502">getSynonyms(): String</text><ellipse cx="114" cy="318.3672" fill="#84BE84" rx="3" ry="3" style="stroke: #038048; stroke-width: 1.0;"/><text fill="#000000" font-family="sans-serif" font-size="11" lengthAdjust="spacingAndGlyphs" textLength="128" x="123" y="322.7861">setSynonyms(String): void</text><ellipse cx="114" cy="332.2031" fill="#84BE84" rx="3" ry="3" style="stroke: #038048; stroke-width: 1.0;"/><text fill="#000000" font-family="sans-serif" font-size="11" lengthAdjust="spacingAndGlyphs" textLength="167" x="123" y="336.6221">eGet(int, boolean, boolean): Object</text><ellipse cx="114" cy="346.0391" fill="#84BE84" rx="3" ry="3" style="stroke: #038048; stroke-width: 1.0;"/><text fill="#000000" font-family="sans-serif" font-size="11" lengthAdjust="spacingAndGlyphs" textLength="104" x="123" y="350.458">eSet(int, Object): void</text><ellipse cx="114" cy="359.875" fill="#84BE84" rx="3" ry="3" style="stroke: #038048; stroke-width: 1.0;"/><text fill="#000000" font-family="sans-serif" font-size="11" lengthAdjust="spacingAndGlyphs" textLength="79" x="123" y="364.2939">eUnset(int): void</text><ellipse cx="114" cy="373.7109" fill="#84BE84" rx="3" ry="3" style="stroke: #038048; stroke-width: 1.0;"/><text fill="#000000" font-family="sans-serif" font-size="11" lengthAdjust="spacingAndGlyphs" textLength="93" x="123" y="378.1299">eIsSet(int): boolean</text></a><!--MD5=[92b3159b33d4292b6938f7fac228d88c]
class org.eclipse.epf.uma.impl.ContentDescriptionImpl--><a href="ContentDescriptionImpl.html" target="_top" title="ContentDescriptionImpl.html" xlink:actuate="onRequest" xlink:href="ContentDescriptionImpl.html" xlink:show="new" xlink:title="ContentDescriptionImpl.html" xlink:type="simple"><rect codeLine="18" fill="#FEFECE" filter="url(#f7a7gz9n21m2c)" height="40.1875" id="org.eclipse.epf.uma.impl.ContentDescriptionImpl" style="stroke: #A80036; stroke-width: 1.5;" width="178" x="7" y="52.5"/><ellipse cx="22" cy="72.5938" fill="#ADD1B2" rx="11" ry="11" style="stroke: #A80036; stroke-width: 1.0;"/><path d="M24.7656,68.4688 Q24.9219,68.25 25.1094,68.1406 Q25.2969,68.0313 25.5156,68.0313 Q25.8906,68.0313 26.125,68.2969 Q26.3594,68.5469 26.3594,69.1563 L26.3594,70.6094 Q26.3594,71.2188 26.125,71.4844 Q25.8906,71.75 25.5156,71.75 Q25.1719,71.75 24.9688,71.5469 Q24.7656,71.3594 24.6563,70.8438 Q24.6094,70.4844 24.4219,70.2969 Q24.0938,69.9219 23.4844,69.7031 Q22.875,69.4844 22.25,69.4844 Q21.4844,69.4844 20.8438,69.8125 Q20.2188,70.1406 19.7188,70.8906 Q19.2344,71.6406 19.2344,72.6719 L19.2344,73.7656 Q19.2344,75 20.125,75.8281 Q21.0156,76.6406 22.6094,76.6406 Q23.5469,76.6406 24.2031,76.3906 Q24.5938,76.2344 25.0156,75.7969 Q25.2813,75.5313 25.4219,75.4531 Q25.5781,75.375 25.7813,75.375 Q26.1094,75.375 26.3594,75.6406 Q26.625,75.8906 26.625,76.2344 Q26.625,76.5781 26.2813,76.9844 Q25.7813,77.5625 24.9844,77.8906 Q23.9063,78.3438 22.6094,78.3438 Q21.0938,78.3438 19.8906,77.7188 Q18.9063,77.2188 18.2188,76.1563 Q17.5313,75.0781 17.5313,73.7969 L17.5313,72.6406 Q17.5313,71.3125 18.1406,70.1719 Q18.7656,69.0156 19.8594,68.4063 Q20.9531,67.7813 22.1875,67.7813 Q22.9219,67.7813 23.5625,67.9531 Q24.2188,68.1094 24.7656,68.4688 Z "/><text fill="#000000" font-family="sans-serif" font-size="14" lengthAdjust="spacingAndGlyphs" textLength="146" x="36" y="72.0332">ContentDescriptionImpl</text><text fill="#000000" font-family="sans-serif" font-size="10" lengthAdjust="spacingAndGlyphs" textLength="118" x="50" y="85.4902">org.eclipse.epf.uma.impl</text></a><!--MD5=[3a2b6e903e370022e2479ab276e6520e]
class org.eclipse.epf.uma.RoleDescription--><a href="..\RoleDescription.html" target="_top" title="..\RoleDescription.html" xlink:actuate="onRequest" xlink:href="..\RoleDescription.html" xlink:show="new" xlink:title="..\RoleDescription.html" xlink:type="simple"><rect codeLine="19" fill="#FEFECE" filter="url(#f7a7gz9n21m2c)" height="131.2031" id="org.eclipse.epf.uma.RoleDescription" style="stroke: #A80036; stroke-width: 1.5;" width="221" x="220.5" y="7"/><ellipse cx="276.75" cy="27.0938" fill="#B4A7E5" rx="11" ry="11" style="stroke: #A80036; stroke-width: 1.0;"/><path d="M277.7031,23.7344 L277.7031,30.3906 L279.4219,30.3906 Q280.0313,30.3906 280.2969,30.625 Q280.5625,30.8594 280.5625,31.25 Q280.5625,31.625 280.2969,31.8594 Q280.0313,32.0938 279.4219,32.0938 L274.2813,32.0938 Q273.6719,32.0938 273.4063,31.8594 Q273.1406,31.625 273.1406,31.2344 Q273.1406,30.8594 273.4063,30.625 Q273.6719,30.3906 274.2813,30.3906 L276,30.3906 L276,23.7344 L274.2813,23.7344 Q273.6719,23.7344 273.4063,23.5 Q273.1406,23.2656 273.1406,22.875 Q273.1406,22.5 273.4063,22.2656 Q273.6719,22.0313 274.2813,22.0313 L279.4219,22.0313 Q280.0313,22.0313 280.2969,22.2656 Q280.5625,22.5 280.5625,22.875 Q280.5625,23.2656 280.2969,23.5 Q280.0313,23.7344 279.4219,23.7344 L277.7031,23.7344 Z "/><text fill="#000000" font-family="sans-serif" font-size="14" font-style="italic" lengthAdjust="spacingAndGlyphs" textLength="100" x="297.25" y="26.5332">RoleDescription</text><text fill="#000000" font-family="sans-serif" font-size="10" font-style="italic" lengthAdjust="spacingAndGlyphs" textLength="92" x="301.25" y="39.9902">org.eclipse.epf.uma</text><line style="stroke: #A80036; stroke-width: 1.5;" x1="221.5" x2="440.5" y1="47.1875" y2="47.1875"/><ellipse cx="231.5" cy="58.1875" fill="#84BE84" rx="3" ry="3" style="stroke: #038048; stroke-width: 1.0;"/><text fill="#000000" font-family="sans-serif" font-size="11" font-style="italic" lengthAdjust="spacingAndGlyphs" textLength="86" x="240.5" y="62.6064">getSkills(): String</text><ellipse cx="231.5" cy="72.0234" fill="#84BE84" rx="3" ry="3" style="stroke: #038048; stroke-width: 1.0;"/><text fill="#000000" font-family="sans-serif" font-size="11" font-style="italic" lengthAdjust="spacingAndGlyphs" textLength="106" x="240.5" y="76.4424">setSkills(String): void</text><ellipse cx="231.5" cy="85.8594" fill="#84BE84" rx="3" ry="3" style="stroke: #038048; stroke-width: 1.0;"/><text fill="#000000" font-family="sans-serif" font-size="11" font-style="italic" lengthAdjust="spacingAndGlyphs" textLength="175" x="240.5" y="90.2783">getAssignmentApproaches(): String</text><ellipse cx="231.5" cy="99.6953" fill="#84BE84" rx="3" ry="3" style="stroke: #038048; stroke-width: 1.0;"/><text fill="#000000" font-family="sans-serif" font-size="11" font-style="italic" lengthAdjust="spacingAndGlyphs" textLength="195" x="240.5" y="104.1143">setAssignmentApproaches(String): void</text><ellipse cx="231.5" cy="113.5313" fill="#84BE84" rx="3" ry="3" style="stroke: #038048; stroke-width: 1.0;"/><text fill="#000000" font-family="sans-serif" font-size="11" font-style="italic" lengthAdjust="spacingAndGlyphs" textLength="108" x="240.5" y="117.9502">getSynonyms(): String</text><ellipse cx="231.5" cy="127.3672" fill="#84BE84" rx="3" ry="3" style="stroke: #038048; stroke-width: 1.0;"/><text fill="#000000" font-family="sans-serif" font-size="11" font-style="italic" lengthAdjust="spacingAndGlyphs" textLength="128" x="240.5" y="131.7861">setSynonyms(String): void</text></a><!--MD5=[01c43734e03b29dc72954ab1ca972bd9]
reverse link org.eclipse.epf.uma.impl.ContentDescriptionImpl to org.eclipse.epf.uma.impl.RoleDescriptionImpl--><path codeLine="28" d="M115.89,110.39 C128.86,134.45 146.41,167 163.03,197.82 " fill="none" id="org.eclipse.epf.uma.impl.ContentDescriptionImpl-backto-org.eclipse.epf.uma.impl.RoleDescriptionImpl" style="stroke: #A80036; stroke-width: 1.0;"/><polygon fill="none" points="109.71,113.68,106.38,92.76,122.04,107.04,109.71,113.68" style="stroke: #A80036; stroke-width: 1.0;"/><!--MD5=[c71d1a2df335228b0cd527c38f125427]
reverse link org.eclipse.epf.uma.RoleDescription to org.eclipse.epf.uma.impl.RoleDescriptionImpl--><path codeLine="29" d="M286.33,155.66 C278.85,169.39 271.06,183.73 263.45,197.72 " fill="none" id="org.eclipse.epf.uma.RoleDescription-backto-org.eclipse.epf.uma.impl.RoleDescriptionImpl" style="stroke: #A80036; stroke-width: 1.0; stroke-dasharray: 7.0,7.0;"/><polygon fill="none" points="280.21,152.25,295.92,138.02,292.51,158.93,280.21,152.25" style="stroke: #A80036; stroke-width: 1.0;"/><text fill="#888888" font-family="sans-serif" font-size="10" lengthAdjust="spacingAndGlyphs" textLength="190" x="126.25" y="407.9277">UMLDoclet 2.0.12, PlantUML 1.2020.16</text><!--MD5=[49ce2c0f94057fd97ed5ec388fd02a66]
@startuml
    set namespaceSeparator none
    hide empty fields
    hide empty methods

    class "<size:14>RoleDescriptionImpl\n<size:10>org.eclipse.epf.uma.impl" as org.eclipse.epf.uma.impl.RoleDescriptionImpl [[RoleDescriptionImpl.html]] {
        +getSkills(): String
        +setSkills(String): void
        +getAssignmentApproaches(): String
        +setAssignmentApproaches(String): void
        +getSynonyms(): String
        +setSynonyms(String): void
        +eGet(int, boolean, boolean): Object
        +eSet(int, Object): void
        +eUnset(int): void
        +eIsSet(int): boolean
    }

    class "<size:14>ContentDescriptionImpl\n<size:10>org.eclipse.epf.uma.impl" as org.eclipse.epf.uma.impl.ContentDescriptionImpl [[ContentDescriptionImpl.html]]
    interface "<size:14>RoleDescription\n<size:10>org.eclipse.epf.uma" as org.eclipse.epf.uma.RoleDescription [[..\RoleDescription.html]] {
        {abstract} +getSkills(): String
        {abstract} +setSkills(String): void
        {abstract} +getAssignmentApproaches(): String
        {abstract} +setAssignmentApproaches(String): void
        {abstract} +getSynonyms(): String
        {abstract} +setSynonyms(String): void
    }

    org.eclipse.epf.uma.impl.ContentDescriptionImpl <|- - org.eclipse.epf.uma.impl.RoleDescriptionImpl
    org.eclipse.epf.uma.RoleDescription <|.. org.eclipse.epf.uma.impl.RoleDescriptionImpl

    center footer UMLDoclet 2.0.12, PlantUML 1.2020.16
@enduml

PlantUML version 1.2020.16(Sun Aug 23 22:20:43 CEST 2020)
(APACHE source distribution)
Java Runtime: Java(TM) SE Runtime Environment
JVM: Java HotSpot(TM) 64-Bit Server VM
Default Encoding: Cp1252
Language: es
Country: ES
--></g></svg>