<?xml version="1.0" encoding="UTF-8" standalone="no"?><svg xmlns="http://www.w3.org/2000/svg" xmlns:xlink="http://www.w3.org/1999/xlink" contentScriptType="application/ecmascript" contentStyleType="text/css" height="352px" preserveAspectRatio="none" style="width:457px;height:352px;" version="1.1" viewBox="0 0 457 352" width="457px" zoomAndPan="magnify"><defs><filter height="300%" id="fgkaazx7cnzt1" width="300%" x="-1" y="-1"><feGaussianBlur result="blurOut" stdDeviation="2.0"/><feColorMatrix in="blurOut" result="blurOut2" type="matrix" values="0 0 0 0 0 0 0 0 0 0 0 0 0 0 0 0 0 0 .4 0"/><feOffset dx="4.0" dy="4.0" in="blurOut2" result="blurOut3"/><feBlend in="SourceGraphic" in2="blurOut3" mode="normal"/></filter></defs><g><!--MD5=[df4bccdc5f0a54bf2f36d486b7ae0481]
class org.eclipse.epf.uma.impl.RoleImpl--><a href="RoleImpl.html" target="_top" title="RoleImpl.html" xlink:actuate="onRequest" xlink:href="RoleImpl.html" xlink:show="new" xlink:title="RoleImpl.html" xlink:type="simple"><rect codeLine="5" fill="#FEFECE" filter="url(#fgkaazx7cnzt1)" height="172.7109" id="org.eclipse.epf.uma.impl.RoleImpl" style="stroke: #A80036; stroke-width: 1.5;" width="249" x="78" y="143"/><ellipse cx="139.25" cy="163.0938" fill="#ADD1B2" rx="11" ry="11" style="stroke: #A80036; stroke-width: 1.0;"/><path d="M142.0156,158.9688 Q142.1719,158.75 142.3594,158.6406 Q142.5469,158.5313 142.7656,158.5313 Q143.1406,158.5313 143.375,158.7969 Q143.6094,159.0469 143.6094,159.6563 L143.6094,161.1094 Q143.6094,161.7188 143.375,161.9844 Q143.1406,162.25 142.7656,162.25 Q142.4219,162.25 142.2188,162.0469 Q142.0156,161.8594 141.9063,161.3438 Q141.8594,160.9844 141.6719,160.7969 Q141.3438,160.4219 140.7344,160.2031 Q140.125,159.9844 139.5,159.9844 Q138.7344,159.9844 138.0938,160.3125 Q137.4688,160.6406 136.9688,161.3906 Q136.4844,162.1406 136.4844,163.1719 L136.4844,164.2656 Q136.4844,165.5 137.375,166.3281 Q138.2656,167.1406 139.8594,167.1406 Q140.7969,167.1406 141.4531,166.8906 Q141.8438,166.7344 142.2656,166.2969 Q142.5313,166.0313 142.6719,165.9531 Q142.8281,165.875 143.0313,165.875 Q143.3594,165.875 143.6094,166.1406 Q143.875,166.3906 143.875,166.7344 Q143.875,167.0781 143.5313,167.4844 Q143.0313,168.0625 142.2344,168.3906 Q141.1563,168.8438 139.8594,168.8438 Q138.3438,168.8438 137.1406,168.2188 Q136.1563,167.7188 135.4688,166.6563 Q134.7813,165.5781 134.7813,164.2969 L134.7813,163.1406 Q134.7813,161.8125 135.3906,160.6719 Q136.0156,159.5156 137.1094,158.9063 Q138.2031,158.2813 139.4375,158.2813 Q140.1719,158.2813 140.8125,158.4531 Q141.4688,158.6094 142.0156,158.9688 Z "/><text fill="#000000" font-family="sans-serif" font-size="14" lengthAdjust="spacingAndGlyphs" textLength="54" x="191.75" y="162.5332">RoleImpl</text><text fill="#000000" font-family="sans-serif" font-size="10" lengthAdjust="spacingAndGlyphs" textLength="118" x="159.75" y="175.9902">org.eclipse.epf.uma.impl</text><line style="stroke: #A80036; stroke-width: 1.5;" x1="79" x2="326" y1="183.1875" y2="183.1875"/><ellipse cx="89" cy="194.1875" fill="#84BE84" rx="3" ry="3" style="stroke: #038048; stroke-width: 1.0;"/><text fill="#000000" font-family="sans-serif" font-size="11" lengthAdjust="spacingAndGlyphs" textLength="175" x="98" y="198.6064">getFulfills(): EList&lt;FulfillableElement&gt;</text><ellipse cx="89" cy="208.0234" fill="#84BE84" rx="3" ry="3" style="stroke: #038048; stroke-width: 1.0;"/><text fill="#000000" font-family="sans-serif" font-size="11" lengthAdjust="spacingAndGlyphs" textLength="166" x="98" y="212.4424">getModifies(): EList&lt;WorkProduct&gt;</text><ellipse cx="89" cy="221.8594" fill="#84BE84" rx="3" ry="3" style="stroke: #038048; stroke-width: 1.0;"/><text fill="#000000" font-family="sans-serif" font-size="11" lengthAdjust="spacingAndGlyphs" textLength="201" x="98" y="226.2783">getResponsibleFor(): EList&lt;WorkProduct&gt;</text><ellipse cx="89" cy="235.6953" fill="#84BE84" rx="3" ry="3" style="stroke: #038048; stroke-width: 1.0;"/><text fill="#000000" font-family="sans-serif" font-size="11" lengthAdjust="spacingAndGlyphs" textLength="167" x="98" y="240.1143">eGet(int, boolean, boolean): Object</text><ellipse cx="89" cy="249.5313" fill="#84BE84" rx="3" ry="3" style="stroke: #038048; stroke-width: 1.0;"/><text fill="#000000" font-family="sans-serif" font-size="11" lengthAdjust="spacingAndGlyphs" textLength="104" x="98" y="253.9502">eSet(int, Object): void</text><ellipse cx="89" cy="263.3672" fill="#84BE84" rx="3" ry="3" style="stroke: #038048; stroke-width: 1.0;"/><text fill="#000000" font-family="sans-serif" font-size="11" lengthAdjust="spacingAndGlyphs" textLength="79" x="98" y="267.7861">eUnset(int): void</text><ellipse cx="89" cy="277.2031" fill="#84BE84" rx="3" ry="3" style="stroke: #038048; stroke-width: 1.0;"/><text fill="#000000" font-family="sans-serif" font-size="11" lengthAdjust="spacingAndGlyphs" textLength="93" x="98" y="281.6221">eIsSet(int): boolean</text><ellipse cx="89" cy="291.0391" fill="#84BE84" rx="3" ry="3" style="stroke: #038048; stroke-width: 1.0;"/><text fill="#000000" font-family="sans-serif" font-size="11" lengthAdjust="spacingAndGlyphs" textLength="211" x="98" y="295.458">eBaseStructuralFeatureID(int, Class&lt;?&gt;): int</text><ellipse cx="89" cy="304.875" fill="#84BE84" rx="3" ry="3" style="stroke: #038048; stroke-width: 1.0;"/><text fill="#000000" font-family="sans-serif" font-size="11" lengthAdjust="spacingAndGlyphs" textLength="223" x="98" y="309.2939">eDerivedStructuralFeatureID(int, Class&lt;?&gt;): int</text></a><!--MD5=[756787a8587a7ade10dd365aa5346d02]
class org.eclipse.epf.uma.impl.ContentElementImpl--><a href="ContentElementImpl.html" target="_top" title="ContentElementImpl.html" xlink:actuate="onRequest" xlink:href="ContentElementImpl.html" xlink:show="new" xlink:title="ContentElementImpl.html" xlink:type="simple"><rect codeLine="17" fill="#FEFECE" filter="url(#fgkaazx7cnzt1)" height="40.1875" id="org.eclipse.epf.uma.impl.ContentElementImpl" style="stroke: #A80036; stroke-width: 1.5;" width="159" x="7" y="25"/><ellipse cx="22" cy="45.0938" fill="#A9DCDF" rx="11" ry="11" style="stroke: #A80036; stroke-width: 1.0;"/><path d="M24.1875,46.8594 L20.0469,46.8594 L19.625,47.8906 L20.0469,47.8906 Q20.6563,47.8906 20.9219,48.125 Q21.1875,48.3594 21.1875,48.75 Q21.1875,49.125 20.9219,49.3594 Q20.6563,49.5938 20.0469,49.5938 L17.75,49.5938 Q17.1406,49.5938 16.8906,49.3594 Q16.625,49.125 16.625,48.7344 Q16.625,48.3594 16.9063,48.125 Q17.1719,47.875 17.7969,47.8906 L20.4688,41.2344 L19.3594,41.2344 Q18.75,41.2344 18.4844,41 Q18.2188,40.7656 18.2188,40.375 Q18.2188,40 18.4844,39.7656 Q18.75,39.5313 19.3594,39.5313 L23.0313,39.5313 L26.4219,47.8906 Q27.0156,47.8906 27.2031,48.0313 Q27.5938,48.2969 27.5938,48.75 Q27.5938,49.125 27.3281,49.3594 Q27.0781,49.5938 26.4688,49.5938 L24.1719,49.5938 Q23.5625,49.5938 23.2969,49.3594 Q23.0313,49.125 23.0313,48.7344 Q23.0313,48.3594 23.2969,48.125 Q23.5625,47.8906 24.1719,47.8906 L24.5938,47.8906 L24.1875,46.8594 Z M23.4688,45.1563 L22.1094,41.7813 L20.7344,45.1563 L23.4688,45.1563 Z "/><text fill="#000000" font-family="sans-serif" font-size="14" font-style="italic" lengthAdjust="spacingAndGlyphs" textLength="127" x="36" y="44.5332">ContentElementImpl</text><text fill="#000000" font-family="sans-serif" font-size="10" font-style="italic" lengthAdjust="spacingAndGlyphs" textLength="114" x="42.5" y="57.9902">org.eclipse.epf.uma.impl</text></a><!--MD5=[06785e49f63dcaafb18cac2312f44b22]
class org.eclipse.epf.uma.Role--><a href="..\Role.html" target="_top" title="..\Role.html" xlink:actuate="onRequest" xlink:href="..\Role.html" xlink:show="new" xlink:title="..\Role.html" xlink:type="simple"><rect codeLine="18" fill="#FEFECE" filter="url(#fgkaazx7cnzt1)" height="75.8594" id="org.eclipse.epf.uma.Role" style="stroke: #A80036; stroke-width: 1.5;" width="237" x="201" y="7"/><ellipse cx="269.25" cy="27.0938" fill="#B4A7E5" rx="11" ry="11" style="stroke: #A80036; stroke-width: 1.0;"/><path d="M270.2031,23.7344 L270.2031,30.3906 L271.9219,30.3906 Q272.5313,30.3906 272.7969,30.625 Q273.0625,30.8594 273.0625,31.25 Q273.0625,31.625 272.7969,31.8594 Q272.5313,32.0938 271.9219,32.0938 L266.7813,32.0938 Q266.1719,32.0938 265.9063,31.8594 Q265.6406,31.625 265.6406,31.2344 Q265.6406,30.8594 265.9063,30.625 Q266.1719,30.3906 266.7813,30.3906 L268.5,30.3906 L268.5,23.7344 L266.7813,23.7344 Q266.1719,23.7344 265.9063,23.5 Q265.6406,23.2656 265.6406,22.875 Q265.6406,22.5 265.9063,22.2656 Q266.1719,22.0313 266.7813,22.0313 L271.9219,22.0313 Q272.5313,22.0313 272.7969,22.2656 Q273.0625,22.5 273.0625,22.875 Q273.0625,23.2656 272.7969,23.5 Q272.5313,23.7344 271.9219,23.7344 L270.2031,23.7344 Z "/><text fill="#000000" font-family="sans-serif" font-size="14" font-style="italic" lengthAdjust="spacingAndGlyphs" textLength="29" x="321.25" y="26.5332">Role</text><text fill="#000000" font-family="sans-serif" font-size="10" font-style="italic" lengthAdjust="spacingAndGlyphs" textLength="92" x="289.75" y="39.9902">org.eclipse.epf.uma</text><line style="stroke: #A80036; stroke-width: 1.5;" x1="202" x2="437" y1="47.1875" y2="47.1875"/><ellipse cx="212" cy="58.1875" fill="#84BE84" rx="3" ry="3" style="stroke: #038048; stroke-width: 1.0;"/><text fill="#000000" font-family="sans-serif" font-size="11" font-style="italic" lengthAdjust="spacingAndGlyphs" textLength="173" x="221" y="62.6064">getModifies(): EList&lt;WorkProduct&gt;</text><ellipse cx="212" cy="72.0234" fill="#84BE84" rx="3" ry="3" style="stroke: #038048; stroke-width: 1.0;"/><text fill="#000000" font-family="sans-serif" font-size="11" font-style="italic" lengthAdjust="spacingAndGlyphs" textLength="211" x="221" y="76.4424">getResponsibleFor(): EList&lt;WorkProduct&gt;</text></a><!--MD5=[1cd9c05205a842bec2ad36f754d19625]
reverse link org.eclipse.epf.uma.impl.ContentElementImpl to org.eclipse.epf.uma.impl.RoleImpl--><path codeLine="23" d="M109.56,82.27 C120.69,99.79 134.56,121.6 148.15,143 " fill="none" id="org.eclipse.epf.uma.impl.ContentElementImpl-backto-org.eclipse.epf.uma.impl.RoleImpl" style="stroke: #A80036; stroke-width: 1.0;"/><polygon fill="none" points="103.52,85.82,98.69,65.19,115.33,78.31,103.52,85.82" style="stroke: #A80036; stroke-width: 1.0;"/><!--MD5=[797171e765073dfc145359f8960050c9]
reverse link org.eclipse.epf.uma.Role to org.eclipse.epf.uma.impl.RoleImpl--><path codeLine="24" d="M284.47,100.65 C275.92,113.98 266.57,128.57 257.34,142.96 " fill="none" id="org.eclipse.epf.uma.Role-backto-org.eclipse.epf.uma.impl.RoleImpl" style="stroke: #A80036; stroke-width: 1.0; stroke-dasharray: 7.0,7.0;"/><polygon fill="none" points="278.85,96.43,295.54,83.37,290.64,103.99,278.85,96.43" style="stroke: #A80036; stroke-width: 1.0;"/><text fill="#888888" font-family="sans-serif" font-size="10" lengthAdjust="spacingAndGlyphs" textLength="190" x="124.5" y="339.0918">UMLDoclet 2.0.12, PlantUML 1.2020.16</text><!--MD5=[12bbd45a56b603b5148fbb37703227b6]
@startuml
    set namespaceSeparator none
    hide empty fields
    hide empty methods

    class "<size:14>RoleImpl\n<size:10>org.eclipse.epf.uma.impl" as org.eclipse.epf.uma.impl.RoleImpl [[RoleImpl.html]] {
        +getFulfills(): EList<FulfillableElement>
        +getModifies(): EList<WorkProduct>
        +getResponsibleFor(): EList<WorkProduct>
        +eGet(int, boolean, boolean): Object
        +eSet(int, Object): void
        +eUnset(int): void
        +eIsSet(int): boolean
        +eBaseStructuralFeatureID(int, Class<?>): int
        +eDerivedStructuralFeatureID(int, Class<?>): int
    }

    abstract class "<size:14>ContentElementImpl\n<size:10>org.eclipse.epf.uma.impl" as org.eclipse.epf.uma.impl.ContentElementImpl [[ContentElementImpl.html]]
    interface "<size:14>Role\n<size:10>org.eclipse.epf.uma" as org.eclipse.epf.uma.Role [[..\Role.html]] {
        {abstract} +getModifies(): EList<WorkProduct>
        {abstract} +getResponsibleFor(): EList<WorkProduct>
    }

    org.eclipse.epf.uma.impl.ContentElementImpl <|- - org.eclipse.epf.uma.impl.RoleImpl
    org.eclipse.epf.uma.Role <|.. org.eclipse.epf.uma.impl.RoleImpl

    center footer UMLDoclet 2.0.12, PlantUML 1.2020.16
@enduml

PlantUML version 1.2020.16(Sun Aug 23 22:20:43 CEST 2020)
(APACHE source distribution)
Java Runtime: Java(TM) SE Runtime Environment
JVM: Java HotSpot(TM) 64-Bit Server VM
Default Encoding: Cp1252
Language: es
Country: ES
--></g></svg>