<?xml version="1.0" encoding="UTF-8" standalone="no"?><svg xmlns="http://www.w3.org/2000/svg" xmlns:xlink="http://www.w3.org/1999/xlink" contentScriptType="application/ecmascript" contentStyleType="text/css" height="476px" preserveAspectRatio="none" style="width:429px;height:476px;" version="1.1" viewBox="0 0 429 476" width="429px" zoomAndPan="magnify"><defs><filter height="300%" id="f5h6uu7d2vqjo" width="300%" x="-1" y="-1"><feGaussianBlur result="blurOut" stdDeviation="2.0"/><feColorMatrix in="blurOut" result="blurOut2" type="matrix" values="0 0 0 0 0 0 0 0 0 0 0 0 0 0 0 0 0 0 .4 0"/><feOffset dx="4.0" dy="4.0" in="blurOut2" result="blurOut3"/><feBlend in="SourceGraphic" in2="blurOut3" mode="normal"/></filter></defs><g><!--MD5=[774d75f7d4249968ae06ed85a6da3afa]
class org.eclipse.epf.uma.impl.SectionImpl--><a href="SectionImpl.html" target="_top" title="SectionImpl.html" xlink:actuate="onRequest" xlink:href="SectionImpl.html" xlink:show="new" xlink:title="SectionImpl.html" xlink:type="simple"><rect codeLine="5" fill="#FEFECE" filter="url(#f5h6uu7d2vqjo)" height="228.0547" id="org.eclipse.epf.uma.impl.SectionImpl" style="stroke: #A80036; stroke-width: 1.5;" width="376" x="13" y="212"/><ellipse cx="137.75" cy="232.0938" fill="#ADD1B2" rx="11" ry="11" style="stroke: #A80036; stroke-width: 1.0;"/><path d="M140.5156,227.9688 Q140.6719,227.75 140.8594,227.6406 Q141.0469,227.5313 141.2656,227.5313 Q141.6406,227.5313 141.875,227.7969 Q142.1094,228.0469 142.1094,228.6563 L142.1094,230.1094 Q142.1094,230.7188 141.875,230.9844 Q141.6406,231.25 141.2656,231.25 Q140.9219,231.25 140.7188,231.0469 Q140.5156,230.8594 140.4063,230.3438 Q140.3594,229.9844 140.1719,229.7969 Q139.8438,229.4219 139.2344,229.2031 Q138.625,228.9844 138,228.9844 Q137.2344,228.9844 136.5938,229.3125 Q135.9688,229.6406 135.4688,230.3906 Q134.9844,231.1406 134.9844,232.1719 L134.9844,233.2656 Q134.9844,234.5 135.875,235.3281 Q136.7656,236.1406 138.3594,236.1406 Q139.2969,236.1406 139.9531,235.8906 Q140.3438,235.7344 140.7656,235.2969 Q141.0313,235.0313 141.1719,234.9531 Q141.3281,234.875 141.5313,234.875 Q141.8594,234.875 142.1094,235.1406 Q142.375,235.3906 142.375,235.7344 Q142.375,236.0781 142.0313,236.4844 Q141.5313,237.0625 140.7344,237.3906 Q139.6563,237.8438 138.3594,237.8438 Q136.8438,237.8438 135.6406,237.2188 Q134.6563,236.7188 133.9688,235.6563 Q133.2813,234.5781 133.2813,233.2969 L133.2813,232.1406 Q133.2813,230.8125 133.8906,229.6719 Q134.5156,228.5156 135.6094,227.9063 Q136.7031,227.2813 137.9375,227.2813 Q138.6719,227.2813 139.3125,227.4531 Q139.9688,227.6094 140.5156,227.9688 Z "/><text fill="#000000" font-family="sans-serif" font-size="14" lengthAdjust="spacingAndGlyphs" textLength="72" x="181.25" y="231.5332">SectionImpl</text><text fill="#000000" font-family="sans-serif" font-size="10" lengthAdjust="spacingAndGlyphs" textLength="118" x="158.25" y="244.9902">org.eclipse.epf.uma.impl</text><line style="stroke: #A80036; stroke-width: 1.5;" x1="14" x2="388" y1="252.1875" y2="252.1875"/><ellipse cx="24" cy="263.1875" fill="#84BE84" rx="3" ry="3" style="stroke: #038048; stroke-width: 1.0;"/><text fill="#000000" font-family="sans-serif" font-size="11" lengthAdjust="spacingAndGlyphs" textLength="120" x="33" y="267.6064">getSectionName(): String</text><ellipse cx="24" cy="277.0234" fill="#84BE84" rx="3" ry="3" style="stroke: #038048; stroke-width: 1.0;"/><text fill="#000000" font-family="sans-serif" font-size="11" lengthAdjust="spacingAndGlyphs" textLength="140" x="33" y="281.4424">setSectionName(String): void</text><ellipse cx="24" cy="290.8594" fill="#84BE84" rx="3" ry="3" style="stroke: #038048; stroke-width: 1.0;"/><text fill="#000000" font-family="sans-serif" font-size="11" lengthAdjust="spacingAndGlyphs" textLength="147" x="33" y="295.2783">getSectionDescription(): String</text><ellipse cx="24" cy="304.6953" fill="#84BE84" rx="3" ry="3" style="stroke: #038048; stroke-width: 1.0;"/><text fill="#000000" font-family="sans-serif" font-size="11" lengthAdjust="spacingAndGlyphs" textLength="167" x="33" y="309.1143">setSectionDescription(String): void</text><ellipse cx="24" cy="318.5313" fill="#84BE84" rx="3" ry="3" style="stroke: #038048; stroke-width: 1.0;"/><text fill="#000000" font-family="sans-serif" font-size="11" lengthAdjust="spacingAndGlyphs" textLength="161" x="33" y="322.9502">getSubSections(): EList&lt;Section&gt;</text><ellipse cx="24" cy="332.3672" fill="#84BE84" rx="3" ry="3" style="stroke: #038048; stroke-width: 1.0;"/><text fill="#000000" font-family="sans-serif" font-size="11" lengthAdjust="spacingAndGlyphs" textLength="127" x="33" y="336.7861">getPredecessor(): Section</text><ellipse cx="24" cy="346.2031" fill="#84BE84" rx="3" ry="3" style="stroke: #038048; stroke-width: 1.0;"/><text fill="#000000" font-family="sans-serif" font-size="11" lengthAdjust="spacingAndGlyphs" textLength="155" x="33" y="350.6221">basicGetPredecessor(): Section</text><ellipse cx="24" cy="360.0391" fill="#84BE84" rx="3" ry="3" style="stroke: #038048; stroke-width: 1.0;"/><text fill="#000000" font-family="sans-serif" font-size="11" lengthAdjust="spacingAndGlyphs" textLength="147" x="33" y="364.458">setPredecessor(Section): void</text><ellipse cx="24" cy="373.875" fill="#84BE84" rx="3" ry="3" style="stroke: #038048; stroke-width: 1.0;"/><text fill="#000000" font-family="sans-serif" font-size="11" lengthAdjust="spacingAndGlyphs" textLength="350" x="33" y="378.2939">eInverseRemove(InternalEObject, int, NotificationChain): NotificationChain</text><ellipse cx="24" cy="387.7109" fill="#84BE84" rx="3" ry="3" style="stroke: #038048; stroke-width: 1.0;"/><text fill="#000000" font-family="sans-serif" font-size="11" lengthAdjust="spacingAndGlyphs" textLength="167" x="33" y="392.1299">eGet(int, boolean, boolean): Object</text><ellipse cx="24" cy="401.5469" fill="#84BE84" rx="3" ry="3" style="stroke: #038048; stroke-width: 1.0;"/><text fill="#000000" font-family="sans-serif" font-size="11" lengthAdjust="spacingAndGlyphs" textLength="104" x="33" y="405.9658">eSet(int, Object): void</text><ellipse cx="24" cy="415.3828" fill="#84BE84" rx="3" ry="3" style="stroke: #038048; stroke-width: 1.0;"/><text fill="#000000" font-family="sans-serif" font-size="11" lengthAdjust="spacingAndGlyphs" textLength="79" x="33" y="419.8018">eUnset(int): void</text><ellipse cx="24" cy="429.2188" fill="#84BE84" rx="3" ry="3" style="stroke: #038048; stroke-width: 1.0;"/><text fill="#000000" font-family="sans-serif" font-size="11" lengthAdjust="spacingAndGlyphs" textLength="93" x="33" y="433.6377">eIsSet(int): boolean</text></a><!--MD5=[5a4e543df5f71f09a634fc3c0c7fba31]
class org.eclipse.epf.uma.impl.VariabilityElementImpl--><a href="VariabilityElementImpl.html" target="_top" title="VariabilityElementImpl.html" xlink:actuate="onRequest" xlink:href="VariabilityElementImpl.html" xlink:show="new" xlink:title="VariabilityElementImpl.html" xlink:type="simple"><rect codeLine="21" fill="#FEFECE" filter="url(#f5h6uu7d2vqjo)" height="40.1875" id="org.eclipse.epf.uma.impl.VariabilityElementImpl" style="stroke: #A80036; stroke-width: 1.5;" width="170" x="7" y="59.5"/><ellipse cx="22" cy="79.5938" fill="#A9DCDF" rx="11" ry="11" style="stroke: #A80036; stroke-width: 1.0;"/><path d="M24.1875,81.3594 L20.0469,81.3594 L19.625,82.3906 L20.0469,82.3906 Q20.6563,82.3906 20.9219,82.625 Q21.1875,82.8594 21.1875,83.25 Q21.1875,83.625 20.9219,83.8594 Q20.6563,84.0938 20.0469,84.0938 L17.75,84.0938 Q17.1406,84.0938 16.8906,83.8594 Q16.625,83.625 16.625,83.2344 Q16.625,82.8594 16.9063,82.625 Q17.1719,82.375 17.7969,82.3906 L20.4688,75.7344 L19.3594,75.7344 Q18.75,75.7344 18.4844,75.5 Q18.2188,75.2656 18.2188,74.875 Q18.2188,74.5 18.4844,74.2656 Q18.75,74.0313 19.3594,74.0313 L23.0313,74.0313 L26.4219,82.3906 Q27.0156,82.3906 27.2031,82.5313 Q27.5938,82.7969 27.5938,83.25 Q27.5938,83.625 27.3281,83.8594 Q27.0781,84.0938 26.4688,84.0938 L24.1719,84.0938 Q23.5625,84.0938 23.2969,83.8594 Q23.0313,83.625 23.0313,83.2344 Q23.0313,82.8594 23.2969,82.625 Q23.5625,82.3906 24.1719,82.3906 L24.5938,82.3906 L24.1875,81.3594 Z M23.4688,79.6563 L22.1094,76.2813 L20.7344,79.6563 L23.4688,79.6563 Z "/><text fill="#000000" font-family="sans-serif" font-size="14" font-style="italic" lengthAdjust="spacingAndGlyphs" textLength="138" x="36" y="79.0332">VariabilityElementImpl</text><text fill="#000000" font-family="sans-serif" font-size="10" font-style="italic" lengthAdjust="spacingAndGlyphs" textLength="114" x="48" y="92.4902">org.eclipse.epf.uma.impl</text></a><!--MD5=[709cecbf547b83c99423286fd55887c5]
class org.eclipse.epf.uma.Section--><a href="..\Section.html" target="_top" title="..\Section.html" xlink:actuate="onRequest" xlink:href="..\Section.html" xlink:show="new" xlink:title="..\Section.html" xlink:type="simple"><rect codeLine="22" fill="#FEFECE" filter="url(#f5h6uu7d2vqjo)" height="145.0391" id="org.eclipse.epf.uma.Section" style="stroke: #A80036; stroke-width: 1.5;" width="198" x="212" y="7"/><ellipse cx="260.75" cy="27.0938" fill="#B4A7E5" rx="11" ry="11" style="stroke: #A80036; stroke-width: 1.0;"/><path d="M261.7031,23.7344 L261.7031,30.3906 L263.4219,30.3906 Q264.0313,30.3906 264.2969,30.625 Q264.5625,30.8594 264.5625,31.25 Q264.5625,31.625 264.2969,31.8594 Q264.0313,32.0938 263.4219,32.0938 L258.2813,32.0938 Q257.6719,32.0938 257.4063,31.8594 Q257.1406,31.625 257.1406,31.2344 Q257.1406,30.8594 257.4063,30.625 Q257.6719,30.3906 258.2813,30.3906 L260,30.3906 L260,23.7344 L258.2813,23.7344 Q257.6719,23.7344 257.4063,23.5 Q257.1406,23.2656 257.1406,22.875 Q257.1406,22.5 257.4063,22.2656 Q257.6719,22.0313 258.2813,22.0313 L263.4219,22.0313 Q264.0313,22.0313 264.2969,22.2656 Q264.5625,22.5 264.5625,22.875 Q264.5625,23.2656 264.2969,23.5 Q264.0313,23.7344 263.4219,23.7344 L261.7031,23.7344 Z "/><text fill="#000000" font-family="sans-serif" font-size="14" font-style="italic" lengthAdjust="spacingAndGlyphs" textLength="47" x="303.75" y="26.5332">Section</text><text fill="#000000" font-family="sans-serif" font-size="10" font-style="italic" lengthAdjust="spacingAndGlyphs" textLength="92" x="281.25" y="39.9902">org.eclipse.epf.uma</text><line style="stroke: #A80036; stroke-width: 1.5;" x1="213" x2="409" y1="47.1875" y2="47.1875"/><ellipse cx="223" cy="58.1875" fill="#84BE84" rx="3" ry="3" style="stroke: #038048; stroke-width: 1.0;"/><text fill="#000000" font-family="sans-serif" font-size="11" font-style="italic" lengthAdjust="spacingAndGlyphs" textLength="124" x="232" y="62.6064">getSectionName(): String</text><ellipse cx="223" cy="72.0234" fill="#84BE84" rx="3" ry="3" style="stroke: #038048; stroke-width: 1.0;"/><text fill="#000000" font-family="sans-serif" font-size="11" font-style="italic" lengthAdjust="spacingAndGlyphs" textLength="144" x="232" y="76.4424">setSectionName(String): void</text><ellipse cx="223" cy="85.8594" fill="#84BE84" rx="3" ry="3" style="stroke: #038048; stroke-width: 1.0;"/><text fill="#000000" font-family="sans-serif" font-size="11" font-style="italic" lengthAdjust="spacingAndGlyphs" textLength="152" x="232" y="90.2783">getSectionDescription(): String</text><ellipse cx="223" cy="99.6953" fill="#84BE84" rx="3" ry="3" style="stroke: #038048; stroke-width: 1.0;"/><text fill="#000000" font-family="sans-serif" font-size="11" font-style="italic" lengthAdjust="spacingAndGlyphs" textLength="172" x="232" y="104.1143">setSectionDescription(String): void</text><ellipse cx="223" cy="113.5313" fill="#84BE84" rx="3" ry="3" style="stroke: #038048; stroke-width: 1.0;"/><text fill="#000000" font-family="sans-serif" font-size="11" font-style="italic" lengthAdjust="spacingAndGlyphs" textLength="166" x="232" y="117.9502">getSubSections(): EList&lt;Section&gt;</text><ellipse cx="223" cy="127.3672" fill="#84BE84" rx="3" ry="3" style="stroke: #038048; stroke-width: 1.0;"/><text fill="#000000" font-family="sans-serif" font-size="11" font-style="italic" lengthAdjust="spacingAndGlyphs" textLength="129" x="232" y="131.7861">getPredecessor(): Section</text><ellipse cx="223" cy="141.2031" fill="#84BE84" rx="3" ry="3" style="stroke: #038048; stroke-width: 1.0;"/><text fill="#000000" font-family="sans-serif" font-size="11" font-style="italic" lengthAdjust="spacingAndGlyphs" textLength="149" x="232" y="145.6221">setPredecessor(Section): void</text></a><!--MD5=[c866ea951fdbb33fa321290b96c82d01]
reverse link org.eclipse.epf.uma.impl.VariabilityElementImpl to org.eclipse.epf.uma.impl.SectionImpl--><path codeLine="32" d="M108.74,118.05 C119.99,143.28 135.45,177.96 150.5,211.72 " fill="none" id="org.eclipse.epf.uma.impl.VariabilityElementImpl-backto-org.eclipse.epf.uma.impl.SectionImpl" style="stroke: #A80036; stroke-width: 1.0;"/><polygon fill="none" points="102.3,120.8,100.55,99.69,115.09,115.1,102.3,120.8" style="stroke: #A80036; stroke-width: 1.0;"/><!--MD5=[8a0a7db0c01f32d545dbd80dbffa72c5]
reverse link org.eclipse.epf.uma.Section to org.eclipse.epf.uma.impl.SectionImpl--><path codeLine="33" d="M270.4,170.73 C264.37,184.15 258.08,198.12 251.87,211.93 " fill="none" id="org.eclipse.epf.uma.Section-backto-org.eclipse.epf.uma.impl.SectionImpl" style="stroke: #A80036; stroke-width: 1.0; stroke-dasharray: 7.0,7.0;"/><polygon fill="none" points="264.15,167.57,278.74,152.21,276.92,173.32,264.15,167.57" style="stroke: #A80036; stroke-width: 1.0;"/><text fill="#888888" font-family="sans-serif" font-size="10" lengthAdjust="spacingAndGlyphs" textLength="190" x="110.5" y="463.4355">UMLDoclet 2.0.12, PlantUML 1.2020.16</text><!--MD5=[d347bf3ac527aa6df3fda4dbf1912fe2]
@startuml
    set namespaceSeparator none
    hide empty fields
    hide empty methods

    class "<size:14>SectionImpl\n<size:10>org.eclipse.epf.uma.impl" as org.eclipse.epf.uma.impl.SectionImpl [[SectionImpl.html]] {
        +getSectionName(): String
        +setSectionName(String): void
        +getSectionDescription(): String
        +setSectionDescription(String): void
        +getSubSections(): EList<Section>
        +getPredecessor(): Section
        +basicGetPredecessor(): Section
        +setPredecessor(Section): void
        +eInverseRemove(InternalEObject, int, NotificationChain): NotificationChain
        +eGet(int, boolean, boolean): Object
        +eSet(int, Object): void
        +eUnset(int): void
        +eIsSet(int): boolean
    }

    abstract class "<size:14>VariabilityElementImpl\n<size:10>org.eclipse.epf.uma.impl" as org.eclipse.epf.uma.impl.VariabilityElementImpl [[VariabilityElementImpl.html]]
    interface "<size:14>Section\n<size:10>org.eclipse.epf.uma" as org.eclipse.epf.uma.Section [[..\Section.html]] {
        {abstract} +getSectionName(): String
        {abstract} +setSectionName(String): void
        {abstract} +getSectionDescription(): String
        {abstract} +setSectionDescription(String): void
        {abstract} +getSubSections(): EList<Section>
        {abstract} +getPredecessor(): Section
        {abstract} +setPredecessor(Section): void
    }

    org.eclipse.epf.uma.impl.VariabilityElementImpl <|- - org.eclipse.epf.uma.impl.SectionImpl
    org.eclipse.epf.uma.Section <|.. org.eclipse.epf.uma.impl.SectionImpl

    center footer UMLDoclet 2.0.12, PlantUML 1.2020.16
@enduml

PlantUML version 1.2020.16(Sun Aug 23 22:20:43 CEST 2020)
(APACHE source distribution)
Java Runtime: Java(TM) SE Runtime Environment
JVM: Java HotSpot(TM) 64-Bit Server VM
Default Encoding: Cp1252
Language: es
Country: ES
--></g></svg>