<?xml version="1.0" encoding="UTF-8" standalone="no"?><svg xmlns="http://www.w3.org/2000/svg" xmlns:xlink="http://www.w3.org/1999/xlink" contentScriptType="application/ecmascript" contentStyleType="text/css" height="518px" preserveAspectRatio="none" style="width:440px;height:518px;" version="1.1" viewBox="0 0 440 518" width="440px" zoomAndPan="magnify"><defs><filter height="300%" id="fmjtb46mcwicc" width="300%" x="-1" y="-1"><feGaussianBlur result="blurOut" stdDeviation="2.0"/><feColorMatrix in="blurOut" result="blurOut2" type="matrix" values="0 0 0 0 0 0 0 0 0 0 0 0 0 0 0 0 0 0 .4 0"/><feOffset dx="4.0" dy="4.0" in="blurOut2" result="blurOut3"/><feBlend in="SourceGraphic" in2="blurOut3" mode="normal"/></filter></defs><g><!--MD5=[d675b455933a713921d71e55fdc5ea70]
class org.eclipse.epf.uma.impl.SemanticModelBridgeImpl--><a href="SemanticModelBridgeImpl.html" target="_top" title="SemanticModelBridgeImpl.html" xlink:actuate="onRequest" xlink:href="SemanticModelBridgeImpl.html" xlink:show="new" xlink:title="SemanticModelBridgeImpl.html" xlink:type="simple"><rect codeLine="5" fill="#FEFECE" filter="url(#fmjtb46mcwicc)" height="283.3984" id="org.eclipse.epf.uma.impl.SemanticModelBridgeImpl" style="stroke: #A80036; stroke-width: 1.5;" width="382" x="9" y="198"/><ellipse cx="113.75" cy="218.0938" fill="#A9DCDF" rx="11" ry="11" style="stroke: #A80036; stroke-width: 1.0;"/><path d="M115.9375,219.8594 L111.7969,219.8594 L111.375,220.8906 L111.7969,220.8906 Q112.4063,220.8906 112.6719,221.125 Q112.9375,221.3594 112.9375,221.75 Q112.9375,222.125 112.6719,222.3594 Q112.4063,222.5938 111.7969,222.5938 L109.5,222.5938 Q108.8906,222.5938 108.6406,222.3594 Q108.375,222.125 108.375,221.7344 Q108.375,221.3594 108.6563,221.125 Q108.9219,220.875 109.5469,220.8906 L112.2188,214.2344 L111.1094,214.2344 Q110.5,214.2344 110.2344,214 Q109.9688,213.7656 109.9688,213.375 Q109.9688,213 110.2344,212.7656 Q110.5,212.5313 111.1094,212.5313 L114.7813,212.5313 L118.1719,220.8906 Q118.7656,220.8906 118.9531,221.0313 Q119.3438,221.2969 119.3438,221.75 Q119.3438,222.125 119.0781,222.3594 Q118.8281,222.5938 118.2188,222.5938 L115.9219,222.5938 Q115.3125,222.5938 115.0469,222.3594 Q114.7813,222.125 114.7813,221.7344 Q114.7813,221.3594 115.0469,221.125 Q115.3125,220.8906 115.9219,220.8906 L116.3438,220.8906 L115.9375,219.8594 Z M115.2188,218.1563 L113.8594,214.7813 L112.4844,218.1563 L115.2188,218.1563 Z "/><text fill="#000000" font-family="sans-serif" font-size="14" font-style="italic" lengthAdjust="spacingAndGlyphs" textLength="164" x="134.25" y="217.5332">SemanticModelBridgeImpl</text><text fill="#000000" font-family="sans-serif" font-size="10" font-style="italic" lengthAdjust="spacingAndGlyphs" textLength="114" x="159.25" y="230.9902">org.eclipse.epf.uma.impl</text><line style="stroke: #A80036; stroke-width: 1.5;" x1="10" x2="390" y1="238.1875" y2="238.1875"/><ellipse cx="20" cy="249.1875" fill="#84BE84" rx="3" ry="3" style="stroke: #038048; stroke-width: 1.0;"/><text fill="#000000" font-family="sans-serif" font-size="11" lengthAdjust="spacingAndGlyphs" textLength="117" x="29" y="253.6064">getPresentation(): String</text><ellipse cx="20" cy="263.0234" fill="#84BE84" rx="3" ry="3" style="stroke: #038048; stroke-width: 1.0;"/><text fill="#000000" font-family="sans-serif" font-size="11" lengthAdjust="spacingAndGlyphs" textLength="137" x="29" y="267.4424">setPresentation(String): void</text><ellipse cx="20" cy="276.8594" fill="#84BE84" rx="3" ry="3" style="stroke: #038048; stroke-width: 1.0;"/><text fill="#000000" font-family="sans-serif" font-size="11" lengthAdjust="spacingAndGlyphs" textLength="107" x="29" y="281.2783">getDiagram(): Diagram</text><ellipse cx="20" cy="290.6953" fill="#84BE84" rx="3" ry="3" style="stroke: #038048; stroke-width: 1.0;"/><text fill="#000000" font-family="sans-serif" font-size="11" lengthAdjust="spacingAndGlyphs" textLength="135" x="29" y="295.1143">basicGetDiagram(): Diagram</text><ellipse cx="20" cy="304.5313" fill="#84BE84" rx="3" ry="3" style="stroke: #038048; stroke-width: 1.0;"/><text fill="#000000" font-family="sans-serif" font-size="11" lengthAdjust="spacingAndGlyphs" textLength="300" x="29" y="308.9502">basicSetDiagram(Diagram, NotificationChain): NotificationChain</text><ellipse cx="20" cy="318.3672" fill="#84BE84" rx="3" ry="3" style="stroke: #038048; stroke-width: 1.0;"/><text fill="#000000" font-family="sans-serif" font-size="11" lengthAdjust="spacingAndGlyphs" textLength="127" x="29" y="322.7861">setDiagram(Diagram): void</text><ellipse cx="20" cy="332.2031" fill="#84BE84" rx="3" ry="3" style="stroke: #038048; stroke-width: 1.0;"/><text fill="#000000" font-family="sans-serif" font-size="11" lengthAdjust="spacingAndGlyphs" textLength="163" x="29" y="336.6221">getGraphElement(): GraphElement</text><ellipse cx="20" cy="346.0391" fill="#84BE84" rx="3" ry="3" style="stroke: #038048; stroke-width: 1.0;"/><text fill="#000000" font-family="sans-serif" font-size="11" lengthAdjust="spacingAndGlyphs" textLength="191" x="29" y="350.458">basicGetGraphElement(): GraphElement</text><ellipse cx="20" cy="359.875" fill="#84BE84" rx="3" ry="3" style="stroke: #038048; stroke-width: 1.0;"/><text fill="#000000" font-family="sans-serif" font-size="11" lengthAdjust="spacingAndGlyphs" textLength="356" x="29" y="364.2939">basicSetGraphElement(GraphElement, NotificationChain): NotificationChain</text><ellipse cx="20" cy="373.7109" fill="#84BE84" rx="3" ry="3" style="stroke: #038048; stroke-width: 1.0;"/><text fill="#000000" font-family="sans-serif" font-size="11" lengthAdjust="spacingAndGlyphs" textLength="183" x="29" y="378.1299">setGraphElement(GraphElement): void</text><ellipse cx="20" cy="387.5469" fill="#84BE84" rx="3" ry="3" style="stroke: #038048; stroke-width: 1.0;"/><text fill="#000000" font-family="sans-serif" font-size="11" lengthAdjust="spacingAndGlyphs" textLength="331" x="29" y="391.9658">eInverseAdd(InternalEObject, int, NotificationChain): NotificationChain</text><ellipse cx="20" cy="401.3828" fill="#84BE84" rx="3" ry="3" style="stroke: #038048; stroke-width: 1.0;"/><text fill="#000000" font-family="sans-serif" font-size="11" lengthAdjust="spacingAndGlyphs" textLength="350" x="29" y="405.8018">eInverseRemove(InternalEObject, int, NotificationChain): NotificationChain</text><ellipse cx="20" cy="415.2188" fill="#84BE84" rx="3" ry="3" style="stroke: #038048; stroke-width: 1.0;"/><text fill="#000000" font-family="sans-serif" font-size="11" lengthAdjust="spacingAndGlyphs" textLength="353" x="29" y="419.6377">eBasicRemoveFromContainerFeature(NotificationChain): NotificationChain</text><ellipse cx="20" cy="429.0547" fill="#84BE84" rx="3" ry="3" style="stroke: #038048; stroke-width: 1.0;"/><text fill="#000000" font-family="sans-serif" font-size="11" lengthAdjust="spacingAndGlyphs" textLength="167" x="29" y="433.4736">eGet(int, boolean, boolean): Object</text><ellipse cx="20" cy="442.8906" fill="#84BE84" rx="3" ry="3" style="stroke: #038048; stroke-width: 1.0;"/><text fill="#000000" font-family="sans-serif" font-size="11" lengthAdjust="spacingAndGlyphs" textLength="104" x="29" y="447.3096">eSet(int, Object): void</text><ellipse cx="20" cy="456.7266" fill="#84BE84" rx="3" ry="3" style="stroke: #038048; stroke-width: 1.0;"/><text fill="#000000" font-family="sans-serif" font-size="11" lengthAdjust="spacingAndGlyphs" textLength="79" x="29" y="461.1455">eUnset(int): void</text><ellipse cx="20" cy="470.5625" fill="#84BE84" rx="3" ry="3" style="stroke: #038048; stroke-width: 1.0;"/><text fill="#000000" font-family="sans-serif" font-size="11" lengthAdjust="spacingAndGlyphs" textLength="93" x="29" y="474.9814">eIsSet(int): boolean</text></a><!--MD5=[1c2b459c5c50809e62270736e90e6bdc]
class org.eclipse.epf.uma.impl.DiagramElementImpl--><a href="DiagramElementImpl.html" target="_top" title="DiagramElementImpl.html" xlink:actuate="onRequest" xlink:href="DiagramElementImpl.html" xlink:show="new" xlink:title="DiagramElementImpl.html" xlink:type="simple"><rect codeLine="25" fill="#FEFECE" filter="url(#fmjtb46mcwicc)" height="40.1875" id="org.eclipse.epf.uma.impl.DiagramElementImpl" style="stroke: #A80036; stroke-width: 1.5;" width="162" x="7" y="52.5"/><ellipse cx="22" cy="72.5938" fill="#A9DCDF" rx="11" ry="11" style="stroke: #A80036; stroke-width: 1.0;"/><path d="M24.1875,74.3594 L20.0469,74.3594 L19.625,75.3906 L20.0469,75.3906 Q20.6563,75.3906 20.9219,75.625 Q21.1875,75.8594 21.1875,76.25 Q21.1875,76.625 20.9219,76.8594 Q20.6563,77.0938 20.0469,77.0938 L17.75,77.0938 Q17.1406,77.0938 16.8906,76.8594 Q16.625,76.625 16.625,76.2344 Q16.625,75.8594 16.9063,75.625 Q17.1719,75.375 17.7969,75.3906 L20.4688,68.7344 L19.3594,68.7344 Q18.75,68.7344 18.4844,68.5 Q18.2188,68.2656 18.2188,67.875 Q18.2188,67.5 18.4844,67.2656 Q18.75,67.0313 19.3594,67.0313 L23.0313,67.0313 L26.4219,75.3906 Q27.0156,75.3906 27.2031,75.5313 Q27.5938,75.7969 27.5938,76.25 Q27.5938,76.625 27.3281,76.8594 Q27.0781,77.0938 26.4688,77.0938 L24.1719,77.0938 Q23.5625,77.0938 23.2969,76.8594 Q23.0313,76.625 23.0313,76.2344 Q23.0313,75.8594 23.2969,75.625 Q23.5625,75.3906 24.1719,75.3906 L24.5938,75.3906 L24.1875,74.3594 Z M23.4688,72.6563 L22.1094,69.2813 L20.7344,72.6563 L23.4688,72.6563 Z "/><text fill="#000000" font-family="sans-serif" font-size="14" font-style="italic" lengthAdjust="spacingAndGlyphs" textLength="130" x="36" y="72.0332">DiagramElementImpl</text><text fill="#000000" font-family="sans-serif" font-size="10" font-style="italic" lengthAdjust="spacingAndGlyphs" textLength="114" x="44" y="85.4902">org.eclipse.epf.uma.impl</text></a><!--MD5=[53d8060f41800ba002e0cbe7768d6809]
class org.eclipse.epf.uma.SemanticModelBridge--><a href="..\SemanticModelBridge.html" target="_top" title="..\SemanticModelBridge.html" xlink:actuate="onRequest" xlink:href="..\SemanticModelBridge.html" xlink:show="new" xlink:title="..\SemanticModelBridge.html" xlink:type="simple"><rect codeLine="26" fill="#FEFECE" filter="url(#fmjtb46mcwicc)" height="131.2031" id="org.eclipse.epf.uma.SemanticModelBridge" style="stroke: #A80036; stroke-width: 1.5;" width="217" x="204.5" y="7"/><ellipse cx="240.65" cy="27.0938" fill="#B4A7E5" rx="11" ry="11" style="stroke: #A80036; stroke-width: 1.0;"/><path d="M241.6031,23.7344 L241.6031,30.3906 L243.3219,30.3906 Q243.9313,30.3906 244.1969,30.625 Q244.4625,30.8594 244.4625,31.25 Q244.4625,31.625 244.1969,31.8594 Q243.9313,32.0938 243.3219,32.0938 L238.1813,32.0938 Q237.5719,32.0938 237.3063,31.8594 Q237.0406,31.625 237.0406,31.2344 Q237.0406,30.8594 237.3063,30.625 Q237.5719,30.3906 238.1813,30.3906 L239.9,30.3906 L239.9,23.7344 L238.1813,23.7344 Q237.5719,23.7344 237.3063,23.5 Q237.0406,23.2656 237.0406,22.875 Q237.0406,22.5 237.3063,22.2656 Q237.5719,22.0313 238.1813,22.0313 L243.3219,22.0313 Q243.9313,22.0313 244.1969,22.2656 Q244.4625,22.5 244.4625,22.875 Q244.4625,23.2656 244.1969,23.5 Q243.9313,23.7344 243.3219,23.7344 L241.6031,23.7344 Z "/><text fill="#000000" font-family="sans-serif" font-size="14" font-style="italic" lengthAdjust="spacingAndGlyphs" textLength="138" x="259.35" y="26.5332">SemanticModelBridge</text><text fill="#000000" font-family="sans-serif" font-size="10" font-style="italic" lengthAdjust="spacingAndGlyphs" textLength="92" x="282.35" y="39.9902">org.eclipse.epf.uma</text><line style="stroke: #A80036; stroke-width: 1.5;" x1="205.5" x2="420.5" y1="47.1875" y2="47.1875"/><ellipse cx="215.5" cy="58.1875" fill="#84BE84" rx="3" ry="3" style="stroke: #038048; stroke-width: 1.0;"/><text fill="#000000" font-family="sans-serif" font-size="11" font-style="italic" lengthAdjust="spacingAndGlyphs" textLength="120" x="224.5" y="62.6064">getPresentation(): String</text><ellipse cx="215.5" cy="72.0234" fill="#84BE84" rx="3" ry="3" style="stroke: #038048; stroke-width: 1.0;"/><text fill="#000000" font-family="sans-serif" font-size="11" font-style="italic" lengthAdjust="spacingAndGlyphs" textLength="140" x="224.5" y="76.4424">setPresentation(String): void</text><ellipse cx="215.5" cy="85.8594" fill="#84BE84" rx="3" ry="3" style="stroke: #038048; stroke-width: 1.0;"/><text fill="#000000" font-family="sans-serif" font-size="11" font-style="italic" lengthAdjust="spacingAndGlyphs" textLength="113" x="224.5" y="90.2783">getDiagram(): Diagram</text><ellipse cx="215.5" cy="99.6953" fill="#84BE84" rx="3" ry="3" style="stroke: #038048; stroke-width: 1.0;"/><text fill="#000000" font-family="sans-serif" font-size="11" font-style="italic" lengthAdjust="spacingAndGlyphs" textLength="133" x="224.5" y="104.1143">setDiagram(Diagram): void</text><ellipse cx="215.5" cy="113.5313" fill="#84BE84" rx="3" ry="3" style="stroke: #038048; stroke-width: 1.0;"/><text fill="#000000" font-family="sans-serif" font-size="11" font-style="italic" lengthAdjust="spacingAndGlyphs" textLength="171" x="224.5" y="117.9502">getGraphElement(): GraphElement</text><ellipse cx="215.5" cy="127.3672" fill="#84BE84" rx="3" ry="3" style="stroke: #038048; stroke-width: 1.0;"/><text fill="#000000" font-family="sans-serif" font-size="11" font-style="italic" lengthAdjust="spacingAndGlyphs" textLength="191" x="224.5" y="131.7861">setGraphElement(GraphElement): void</text></a><!--MD5=[ae8c875632e5226e728e04ba1061d7b2]
reverse link org.eclipse.epf.uma.impl.DiagramElementImpl to org.eclipse.epf.uma.impl.SemanticModelBridgeImpl--><path codeLine="35" d="M103.85,111.01 C113.67,134.23 126.95,165.65 140.5,197.73 " fill="none" id="org.eclipse.epf.uma.impl.DiagramElementImpl-backto-org.eclipse.epf.uma.impl.SemanticModelBridgeImpl" style="stroke: #A80036; stroke-width: 1.0;"/><polygon fill="none" points="97.39,113.71,96.05,92.56,110.29,108.26,97.39,113.71" style="stroke: #A80036; stroke-width: 1.0;"/><!--MD5=[5206b0ca87b70031bc5a8b88a1c8c6d8]
reverse link org.eclipse.epf.uma.SemanticModelBridge to org.eclipse.epf.uma.impl.SemanticModelBridgeImpl--><path codeLine="36" d="M277.41,156.96 C271.81,170.09 265.89,183.97 259.92,197.97 " fill="none" id="org.eclipse.epf.uma.SemanticModelBridge-backto-org.eclipse.epf.uma.impl.SemanticModelBridgeImpl" style="stroke: #A80036; stroke-width: 1.0; stroke-dasharray: 7.0,7.0;"/><polygon fill="none" points="271.07,153.98,285.36,138.33,283.95,159.47,271.07,153.98" style="stroke: #A80036; stroke-width: 1.0;"/><text fill="#888888" font-family="sans-serif" font-size="10" lengthAdjust="spacingAndGlyphs" textLength="190" x="116.25" y="504.7793">UMLDoclet 2.0.12, PlantUML 1.2020.16</text><!--MD5=[ebe9aba00485571c42718f41d5923706]
@startuml
    set namespaceSeparator none
    hide empty fields
    hide empty methods

    abstract class "<size:14>SemanticModelBridgeImpl\n<size:10>org.eclipse.epf.uma.impl" as org.eclipse.epf.uma.impl.SemanticModelBridgeImpl [[SemanticModelBridgeImpl.html]] {
        +getPresentation(): String
        +setPresentation(String): void
        +getDiagram(): Diagram
        +basicGetDiagram(): Diagram
        +basicSetDiagram(Diagram, NotificationChain): NotificationChain
        +setDiagram(Diagram): void
        +getGraphElement(): GraphElement
        +basicGetGraphElement(): GraphElement
        +basicSetGraphElement(GraphElement, NotificationChain): NotificationChain
        +setGraphElement(GraphElement): void
        +eInverseAdd(InternalEObject, int, NotificationChain): NotificationChain
        +eInverseRemove(InternalEObject, int, NotificationChain): NotificationChain
        +eBasicRemoveFromContainerFeature(NotificationChain): NotificationChain
        +eGet(int, boolean, boolean): Object
        +eSet(int, Object): void
        +eUnset(int): void
        +eIsSet(int): boolean
    }

    abstract class "<size:14>DiagramElementImpl\n<size:10>org.eclipse.epf.uma.impl" as org.eclipse.epf.uma.impl.DiagramElementImpl [[DiagramElementImpl.html]]
    interface "<size:14>SemanticModelBridge\n<size:10>org.eclipse.epf.uma" as org.eclipse.epf.uma.SemanticModelBridge [[..\SemanticModelBridge.html]] {
        {abstract} +getPresentation(): String
        {abstract} +setPresentation(String): void
        {abstract} +getDiagram(): Diagram
        {abstract} +setDiagram(Diagram): void
        {abstract} +getGraphElement(): GraphElement
        {abstract} +setGraphElement(GraphElement): void
    }

    org.eclipse.epf.uma.impl.DiagramElementImpl <|- - org.eclipse.epf.uma.impl.SemanticModelBridgeImpl
    org.eclipse.epf.uma.SemanticModelBridge <|.. org.eclipse.epf.uma.impl.SemanticModelBridgeImpl

    center footer UMLDoclet 2.0.12, PlantUML 1.2020.16
@enduml

PlantUML version 1.2020.16(Sun Aug 23 22:20:43 CEST 2020)
(APACHE source distribution)
Java Runtime: Java(TM) SE Runtime Environment
JVM: Java HotSpot(TM) 64-Bit Server VM
Default Encoding: Cp1252
Language: es
Country: ES
--></g></svg>