<?xml version="1.0" encoding="UTF-8" standalone="no"?><svg xmlns="http://www.w3.org/2000/svg" xmlns:xlink="http://www.w3.org/1999/xlink" contentScriptType="application/ecmascript" contentStyleType="text/css" height="311px" preserveAspectRatio="none" style="width:479px;height:311px;" version="1.1" viewBox="0 0 479 311" width="479px" zoomAndPan="magnify"><defs><filter height="300%" id="fgh818s89dekb" width="300%" x="-1" y="-1"><feGaussianBlur result="blurOut" stdDeviation="2.0"/><feColorMatrix in="blurOut" result="blurOut2" type="matrix" values="0 0 0 0 0 0 0 0 0 0 0 0 0 0 0 0 0 0 .4 0"/><feOffset dx="4.0" dy="4.0" in="blurOut2" result="blurOut3"/><feBlend in="SourceGraphic" in2="blurOut3" mode="normal"/></filter></defs><g><!--MD5=[39c03906f118312a4702457807383a96]
class org.eclipse.epf.uma.impl.SimpleSemanticModelElementImpl--><a href="SimpleSemanticModelElementImpl.html" target="_top" title="SimpleSemanticModelElementImpl.html" xlink:actuate="onRequest" xlink:href="SimpleSemanticModelElementImpl.html" xlink:show="new" xlink:title="SimpleSemanticModelElementImpl.html" xlink:type="simple"><rect codeLine="5" fill="#FEFECE" filter="url(#fgh818s89dekb)" height="131.2031" id="org.eclipse.epf.uma.impl.SimpleSemanticModelElementImpl" style="stroke: #A80036; stroke-width: 1.5;" width="246" x="104" y="143"/><ellipse cx="119" cy="163.0938" fill="#ADD1B2" rx="11" ry="11" style="stroke: #A80036; stroke-width: 1.0;"/><path d="M121.7656,158.9688 Q121.9219,158.75 122.1094,158.6406 Q122.2969,158.5313 122.5156,158.5313 Q122.8906,158.5313 123.125,158.7969 Q123.3594,159.0469 123.3594,159.6563 L123.3594,161.1094 Q123.3594,161.7188 123.125,161.9844 Q122.8906,162.25 122.5156,162.25 Q122.1719,162.25 121.9688,162.0469 Q121.7656,161.8594 121.6563,161.3438 Q121.6094,160.9844 121.4219,160.7969 Q121.0938,160.4219 120.4844,160.2031 Q119.875,159.9844 119.25,159.9844 Q118.4844,159.9844 117.8438,160.3125 Q117.2188,160.6406 116.7188,161.3906 Q116.2344,162.1406 116.2344,163.1719 L116.2344,164.2656 Q116.2344,165.5 117.125,166.3281 Q118.0156,167.1406 119.6094,167.1406 Q120.5469,167.1406 121.2031,166.8906 Q121.5938,166.7344 122.0156,166.2969 Q122.2813,166.0313 122.4219,165.9531 Q122.5781,165.875 122.7813,165.875 Q123.1094,165.875 123.3594,166.1406 Q123.625,166.3906 123.625,166.7344 Q123.625,167.0781 123.2813,167.4844 Q122.7813,168.0625 121.9844,168.3906 Q120.9063,168.8438 119.6094,168.8438 Q118.0938,168.8438 116.8906,168.2188 Q115.9063,167.7188 115.2188,166.6563 Q114.5313,165.5781 114.5313,164.2969 L114.5313,163.1406 Q114.5313,161.8125 115.1406,160.6719 Q115.7656,159.5156 116.8594,158.9063 Q117.9531,158.2813 119.1875,158.2813 Q119.9219,158.2813 120.5625,158.4531 Q121.2188,158.6094 121.7656,158.9688 Z "/><text fill="#000000" font-family="sans-serif" font-size="14" lengthAdjust="spacingAndGlyphs" textLength="214" x="133" y="162.5332">SimpleSemanticModelElementImpl</text><text fill="#000000" font-family="sans-serif" font-size="10" lengthAdjust="spacingAndGlyphs" textLength="118" x="181" y="175.9902">org.eclipse.epf.uma.impl</text><line style="stroke: #A80036; stroke-width: 1.5;" x1="105" x2="349" y1="183.1875" y2="183.1875"/><ellipse cx="115" cy="194.1875" fill="#84BE84" rx="3" ry="3" style="stroke: #038048; stroke-width: 1.0;"/><text fill="#000000" font-family="sans-serif" font-size="11" lengthAdjust="spacingAndGlyphs" textLength="99" x="124" y="198.6064">getTypeInfo(): String</text><ellipse cx="115" cy="208.0234" fill="#84BE84" rx="3" ry="3" style="stroke: #038048; stroke-width: 1.0;"/><text fill="#000000" font-family="sans-serif" font-size="11" lengthAdjust="spacingAndGlyphs" textLength="119" x="124" y="212.4424">setTypeInfo(String): void</text><ellipse cx="115" cy="221.8594" fill="#84BE84" rx="3" ry="3" style="stroke: #038048; stroke-width: 1.0;"/><text fill="#000000" font-family="sans-serif" font-size="11" lengthAdjust="spacingAndGlyphs" textLength="167" x="124" y="226.2783">eGet(int, boolean, boolean): Object</text><ellipse cx="115" cy="235.6953" fill="#84BE84" rx="3" ry="3" style="stroke: #038048; stroke-width: 1.0;"/><text fill="#000000" font-family="sans-serif" font-size="11" lengthAdjust="spacingAndGlyphs" textLength="104" x="124" y="240.1143">eSet(int, Object): void</text><ellipse cx="115" cy="249.5313" fill="#84BE84" rx="3" ry="3" style="stroke: #038048; stroke-width: 1.0;"/><text fill="#000000" font-family="sans-serif" font-size="11" lengthAdjust="spacingAndGlyphs" textLength="79" x="124" y="253.9502">eUnset(int): void</text><ellipse cx="115" cy="263.3672" fill="#84BE84" rx="3" ry="3" style="stroke: #038048; stroke-width: 1.0;"/><text fill="#000000" font-family="sans-serif" font-size="11" lengthAdjust="spacingAndGlyphs" textLength="93" x="124" y="267.7861">eIsSet(int): boolean</text></a><!--MD5=[d675b455933a713921d71e55fdc5ea70]
class org.eclipse.epf.uma.impl.SemanticModelBridgeImpl--><a href="SemanticModelBridgeImpl.html" target="_top" title="SemanticModelBridgeImpl.html" xlink:actuate="onRequest" xlink:href="SemanticModelBridgeImpl.html" xlink:show="new" xlink:title="SemanticModelBridgeImpl.html" xlink:type="simple"><rect codeLine="14" fill="#FEFECE" filter="url(#fgh818s89dekb)" height="40.1875" id="org.eclipse.epf.uma.impl.SemanticModelBridgeImpl" style="stroke: #A80036; stroke-width: 1.5;" width="196" x="7" y="25"/><ellipse cx="22" cy="45.0938" fill="#A9DCDF" rx="11" ry="11" style="stroke: #A80036; stroke-width: 1.0;"/><path d="M24.1875,46.8594 L20.0469,46.8594 L19.625,47.8906 L20.0469,47.8906 Q20.6563,47.8906 20.9219,48.125 Q21.1875,48.3594 21.1875,48.75 Q21.1875,49.125 20.9219,49.3594 Q20.6563,49.5938 20.0469,49.5938 L17.75,49.5938 Q17.1406,49.5938 16.8906,49.3594 Q16.625,49.125 16.625,48.7344 Q16.625,48.3594 16.9063,48.125 Q17.1719,47.875 17.7969,47.8906 L20.4688,41.2344 L19.3594,41.2344 Q18.75,41.2344 18.4844,41 Q18.2188,40.7656 18.2188,40.375 Q18.2188,40 18.4844,39.7656 Q18.75,39.5313 19.3594,39.5313 L23.0313,39.5313 L26.4219,47.8906 Q27.0156,47.8906 27.2031,48.0313 Q27.5938,48.2969 27.5938,48.75 Q27.5938,49.125 27.3281,49.3594 Q27.0781,49.5938 26.4688,49.5938 L24.1719,49.5938 Q23.5625,49.5938 23.2969,49.3594 Q23.0313,49.125 23.0313,48.7344 Q23.0313,48.3594 23.2969,48.125 Q23.5625,47.8906 24.1719,47.8906 L24.5938,47.8906 L24.1875,46.8594 Z M23.4688,45.1563 L22.1094,41.7813 L20.7344,45.1563 L23.4688,45.1563 Z "/><text fill="#000000" font-family="sans-serif" font-size="14" font-style="italic" lengthAdjust="spacingAndGlyphs" textLength="164" x="36" y="44.5332">SemanticModelBridgeImpl</text><text fill="#000000" font-family="sans-serif" font-size="10" font-style="italic" lengthAdjust="spacingAndGlyphs" textLength="114" x="61" y="57.9902">org.eclipse.epf.uma.impl</text></a><!--MD5=[b53a262977fa8f04c6dd604a87dfc1e3]
class org.eclipse.epf.uma.SimpleSemanticModelElement--><a href="..\SimpleSemanticModelElement.html" target="_top" title="..\SimpleSemanticModelElement.html" xlink:actuate="onRequest" xlink:href="..\SimpleSemanticModelElement.html" xlink:show="new" xlink:title="..\SimpleSemanticModelElement.html" xlink:type="simple"><rect codeLine="15" fill="#FEFECE" filter="url(#fgh818s89dekb)" height="75.8594" id="org.eclipse.epf.uma.SimpleSemanticModelElement" style="stroke: #A80036; stroke-width: 1.5;" width="222" x="238" y="7"/><ellipse cx="253" cy="27.0938" fill="#B4A7E5" rx="11" ry="11" style="stroke: #A80036; stroke-width: 1.0;"/><path d="M253.9531,23.7344 L253.9531,30.3906 L255.6719,30.3906 Q256.2813,30.3906 256.5469,30.625 Q256.8125,30.8594 256.8125,31.25 Q256.8125,31.625 256.5469,31.8594 Q256.2813,32.0938 255.6719,32.0938 L250.5313,32.0938 Q249.9219,32.0938 249.6563,31.8594 Q249.3906,31.625 249.3906,31.2344 Q249.3906,30.8594 249.6563,30.625 Q249.9219,30.3906 250.5313,30.3906 L252.25,30.3906 L252.25,23.7344 L250.5313,23.7344 Q249.9219,23.7344 249.6563,23.5 Q249.3906,23.2656 249.3906,22.875 Q249.3906,22.5 249.6563,22.2656 Q249.9219,22.0313 250.5313,22.0313 L255.6719,22.0313 Q256.2813,22.0313 256.5469,22.2656 Q256.8125,22.5 256.8125,22.875 Q256.8125,23.2656 256.5469,23.5 Q256.2813,23.7344 255.6719,23.7344 L253.9531,23.7344 Z "/><text fill="#000000" font-family="sans-serif" font-size="14" font-style="italic" lengthAdjust="spacingAndGlyphs" textLength="190" x="267" y="26.5332">SimpleSemanticModelElement</text><text fill="#000000" font-family="sans-serif" font-size="10" font-style="italic" lengthAdjust="spacingAndGlyphs" textLength="92" x="316" y="39.9902">org.eclipse.epf.uma</text><line style="stroke: #A80036; stroke-width: 1.5;" x1="239" x2="459" y1="47.1875" y2="47.1875"/><ellipse cx="249" cy="58.1875" fill="#84BE84" rx="3" ry="3" style="stroke: #038048; stroke-width: 1.0;"/><text fill="#000000" font-family="sans-serif" font-size="11" font-style="italic" lengthAdjust="spacingAndGlyphs" textLength="100" x="258" y="62.6064">getTypeInfo(): String</text><ellipse cx="249" cy="72.0234" fill="#84BE84" rx="3" ry="3" style="stroke: #038048; stroke-width: 1.0;"/><text fill="#000000" font-family="sans-serif" font-size="11" font-style="italic" lengthAdjust="spacingAndGlyphs" textLength="120" x="258" y="76.4424">setTypeInfo(String): void</text></a><!--MD5=[57b1b0feac77da6729f0ac3de893f6bc]
reverse link org.eclipse.epf.uma.impl.SemanticModelBridgeImpl to org.eclipse.epf.uma.impl.SimpleSemanticModelElementImpl--><path codeLine="20" d="M131.55,81.14 C145.15,99.14 162.14,121.64 178.01,142.65 " fill="none" id="org.eclipse.epf.uma.impl.SemanticModelBridgeImpl-backto-org.eclipse.epf.uma.impl.SimpleSemanticModelElementImpl" style="stroke: #A80036; stroke-width: 1.0;"/><polygon fill="none" points="125.94,85.34,119.47,65.16,137.11,76.9,125.94,85.34" style="stroke: #A80036; stroke-width: 1.0;"/><!--MD5=[c4ee7439b0db223c2e31ecf97c4e575b]
reverse link org.eclipse.epf.uma.SimpleSemanticModelElement to org.eclipse.epf.uma.impl.SimpleSemanticModelElementImpl--><path codeLine="21" d="M308.76,99.27 C298.26,113.17 286.82,128.31 275.92,142.74 " fill="none" id="org.eclipse.epf.uma.SimpleSemanticModelElement-backto-org.eclipse.epf.uma.impl.SimpleSemanticModelElementImpl" style="stroke: #A80036; stroke-width: 1.0; stroke-dasharray: 7.0,7.0;"/><polygon fill="none" points="303.37,94.79,321.01,83.05,314.54,103.23,303.37,94.79" style="stroke: #A80036; stroke-width: 1.0;"/><text fill="#888888" font-family="sans-serif" font-size="10" lengthAdjust="spacingAndGlyphs" textLength="190" x="135.5" y="297.584">UMLDoclet 2.0.12, PlantUML 1.2020.16</text><!--MD5=[31261bb19de7cb6ceb90692caaa84bac]
@startuml
    set namespaceSeparator none
    hide empty fields
    hide empty methods

    class "<size:14>SimpleSemanticModelElementImpl\n<size:10>org.eclipse.epf.uma.impl" as org.eclipse.epf.uma.impl.SimpleSemanticModelElementImpl [[SimpleSemanticModelElementImpl.html]] {
        +getTypeInfo(): String
        +setTypeInfo(String): void
        +eGet(int, boolean, boolean): Object
        +eSet(int, Object): void
        +eUnset(int): void
        +eIsSet(int): boolean
    }

    abstract class "<size:14>SemanticModelBridgeImpl\n<size:10>org.eclipse.epf.uma.impl" as org.eclipse.epf.uma.impl.SemanticModelBridgeImpl [[SemanticModelBridgeImpl.html]]
    interface "<size:14>SimpleSemanticModelElement\n<size:10>org.eclipse.epf.uma" as org.eclipse.epf.uma.SimpleSemanticModelElement [[..\SimpleSemanticModelElement.html]] {
        {abstract} +getTypeInfo(): String
        {abstract} +setTypeInfo(String): void
    }

    org.eclipse.epf.uma.impl.SemanticModelBridgeImpl <|- - org.eclipse.epf.uma.impl.SimpleSemanticModelElementImpl
    org.eclipse.epf.uma.SimpleSemanticModelElement <|.. org.eclipse.epf.uma.impl.SimpleSemanticModelElementImpl

    center footer UMLDoclet 2.0.12, PlantUML 1.2020.16
@enduml

PlantUML version 1.2020.16(Sun Aug 23 22:20:43 CEST 2020)
(APACHE source distribution)
Java Runtime: Java(TM) SE Runtime Environment
JVM: Java HotSpot(TM) 64-Bit Server VM
Default Encoding: Cp1252
Language: es
Country: ES
--></g></svg>