<?xml version="1.0" encoding="UTF-8" standalone="no"?><svg xmlns="http://www.w3.org/2000/svg" xmlns:xlink="http://www.w3.org/1999/xlink" contentScriptType="application/ecmascript" contentStyleType="text/css" height="399px" preserveAspectRatio="none" style="width:402px;height:399px;" version="1.1" viewBox="0 0 402 399" width="402px" zoomAndPan="magnify"><defs><filter height="300%" id="f11l6k6w5ul78n" width="300%" x="-1" y="-1"><feGaussianBlur result="blurOut" stdDeviation="2.0"/><feColorMatrix in="blurOut" result="blurOut2" type="matrix" values="0 0 0 0 0 0 0 0 0 0 0 0 0 0 0 0 0 0 .4 0"/><feOffset dx="4.0" dy="4.0" in="blurOut2" result="blurOut3"/><feBlend in="SourceGraphic" in2="blurOut3" mode="normal"/></filter></defs><g><!--MD5=[bcb8291df2657667b6102c8211807ca1]
class org.eclipse.epf.uma.impl.StepImpl--><a href="StepImpl.html" target="_top" title="StepImpl.html" xlink:actuate="onRequest" xlink:href="StepImpl.html" xlink:show="new" xlink:title="StepImpl.html" xlink:type="simple"><rect codeLine="5" fill="#FEFECE" filter="url(#f11l6k6w5ul78n)" height="255.7266" id="org.eclipse.epf.uma.impl.StepImpl" style="stroke: #A80036; stroke-width: 1.5;" width="376" x="7" y="107"/><ellipse cx="131.75" cy="127.0938" fill="#ADD1B2" rx="11" ry="11" style="stroke: #A80036; stroke-width: 1.0;"/><path d="M134.5156,122.9688 Q134.6719,122.75 134.8594,122.6406 Q135.0469,122.5313 135.2656,122.5313 Q135.6406,122.5313 135.875,122.7969 Q136.1094,123.0469 136.1094,123.6563 L136.1094,125.1094 Q136.1094,125.7188 135.875,125.9844 Q135.6406,126.25 135.2656,126.25 Q134.9219,126.25 134.7188,126.0469 Q134.5156,125.8594 134.4063,125.3438 Q134.3594,124.9844 134.1719,124.7969 Q133.8438,124.4219 133.2344,124.2031 Q132.625,123.9844 132,123.9844 Q131.2344,123.9844 130.5938,124.3125 Q129.9688,124.6406 129.4688,125.3906 Q128.9844,126.1406 128.9844,127.1719 L128.9844,128.2656 Q128.9844,129.5 129.875,130.3281 Q130.7656,131.1406 132.3594,131.1406 Q133.2969,131.1406 133.9531,130.8906 Q134.3438,130.7344 134.7656,130.2969 Q135.0313,130.0313 135.1719,129.9531 Q135.3281,129.875 135.5313,129.875 Q135.8594,129.875 136.1094,130.1406 Q136.375,130.3906 136.375,130.7344 Q136.375,131.0781 136.0313,131.4844 Q135.5313,132.0625 134.7344,132.3906 Q133.6563,132.8438 132.3594,132.8438 Q130.8438,132.8438 129.6406,132.2188 Q128.6563,131.7188 127.9688,130.6563 Q127.2813,129.5781 127.2813,128.2969 L127.2813,127.1406 Q127.2813,125.8125 127.8906,124.6719 Q128.5156,123.5156 129.6094,122.9063 Q130.7031,122.2813 131.9375,122.2813 Q132.6719,122.2813 133.3125,122.4531 Q133.9688,122.6094 134.5156,122.9688 Z "/><text fill="#000000" font-family="sans-serif" font-size="14" lengthAdjust="spacingAndGlyphs" textLength="54" x="184.25" y="126.5332">StepImpl</text><text fill="#000000" font-family="sans-serif" font-size="10" lengthAdjust="spacingAndGlyphs" textLength="118" x="152.25" y="139.9902">org.eclipse.epf.uma.impl</text><line style="stroke: #A80036; stroke-width: 1.5;" x1="8" x2="382" y1="147.1875" y2="147.1875"/><ellipse cx="18" cy="158.1875" fill="#84BE84" rx="3" ry="3" style="stroke: #038048; stroke-width: 1.0;"/><text fill="#000000" font-family="sans-serif" font-size="11" lengthAdjust="spacingAndGlyphs" textLength="137" x="27" y="162.6064">getPrecondition(): Constraint</text><ellipse cx="18" cy="172.0234" fill="#84BE84" rx="3" ry="3" style="stroke: #038048; stroke-width: 1.0;"/><text fill="#000000" font-family="sans-serif" font-size="11" lengthAdjust="spacingAndGlyphs" textLength="165" x="27" y="176.4424">basicGetPrecondition(): Constraint</text><ellipse cx="18" cy="185.8594" fill="#84BE84" rx="3" ry="3" style="stroke: #038048; stroke-width: 1.0;"/><text fill="#000000" font-family="sans-serif" font-size="11" lengthAdjust="spacingAndGlyphs" textLength="330" x="27" y="190.2783">basicSetPrecondition(Constraint, NotificationChain): NotificationChain</text><ellipse cx="18" cy="199.6953" fill="#84BE84" rx="3" ry="3" style="stroke: #038048; stroke-width: 1.0;"/><text fill="#000000" font-family="sans-serif" font-size="11" lengthAdjust="spacingAndGlyphs" textLength="157" x="27" y="204.1143">setPrecondition(Constraint): void</text><ellipse cx="18" cy="213.5313" fill="#84BE84" rx="3" ry="3" style="stroke: #038048; stroke-width: 1.0;"/><text fill="#000000" font-family="sans-serif" font-size="11" lengthAdjust="spacingAndGlyphs" textLength="142" x="27" y="217.9502">getPostcondition(): Constraint</text><ellipse cx="18" cy="227.3672" fill="#84BE84" rx="3" ry="3" style="stroke: #038048; stroke-width: 1.0;"/><text fill="#000000" font-family="sans-serif" font-size="11" lengthAdjust="spacingAndGlyphs" textLength="170" x="27" y="231.7861">basicGetPostcondition(): Constraint</text><ellipse cx="18" cy="241.2031" fill="#84BE84" rx="3" ry="3" style="stroke: #038048; stroke-width: 1.0;"/><text fill="#000000" font-family="sans-serif" font-size="11" lengthAdjust="spacingAndGlyphs" textLength="335" x="27" y="245.6221">basicSetPostcondition(Constraint, NotificationChain): NotificationChain</text><ellipse cx="18" cy="255.0391" fill="#84BE84" rx="3" ry="3" style="stroke: #038048; stroke-width: 1.0;"/><text fill="#000000" font-family="sans-serif" font-size="11" lengthAdjust="spacingAndGlyphs" textLength="162" x="27" y="259.458">setPostcondition(Constraint): void</text><ellipse cx="18" cy="268.875" fill="#84BE84" rx="3" ry="3" style="stroke: #038048; stroke-width: 1.0;"/><text fill="#000000" font-family="sans-serif" font-size="11" lengthAdjust="spacingAndGlyphs" textLength="350" x="27" y="273.2939">eInverseRemove(InternalEObject, int, NotificationChain): NotificationChain</text><ellipse cx="18" cy="282.7109" fill="#84BE84" rx="3" ry="3" style="stroke: #038048; stroke-width: 1.0;"/><text fill="#000000" font-family="sans-serif" font-size="11" lengthAdjust="spacingAndGlyphs" textLength="167" x="27" y="287.1299">eGet(int, boolean, boolean): Object</text><ellipse cx="18" cy="296.5469" fill="#84BE84" rx="3" ry="3" style="stroke: #038048; stroke-width: 1.0;"/><text fill="#000000" font-family="sans-serif" font-size="11" lengthAdjust="spacingAndGlyphs" textLength="104" x="27" y="300.9658">eSet(int, Object): void</text><ellipse cx="18" cy="310.3828" fill="#84BE84" rx="3" ry="3" style="stroke: #038048; stroke-width: 1.0;"/><text fill="#000000" font-family="sans-serif" font-size="11" lengthAdjust="spacingAndGlyphs" textLength="79" x="27" y="314.8018">eUnset(int): void</text><ellipse cx="18" cy="324.2188" fill="#84BE84" rx="3" ry="3" style="stroke: #038048; stroke-width: 1.0;"/><text fill="#000000" font-family="sans-serif" font-size="11" lengthAdjust="spacingAndGlyphs" textLength="93" x="27" y="328.6377">eIsSet(int): boolean</text><ellipse cx="18" cy="338.0547" fill="#84BE84" rx="3" ry="3" style="stroke: #038048; stroke-width: 1.0;"/><text fill="#000000" font-family="sans-serif" font-size="11" lengthAdjust="spacingAndGlyphs" textLength="211" x="27" y="342.4736">eBaseStructuralFeatureID(int, Class&lt;?&gt;): int</text><ellipse cx="18" cy="351.8906" fill="#84BE84" rx="3" ry="3" style="stroke: #038048; stroke-width: 1.0;"/><text fill="#000000" font-family="sans-serif" font-size="11" lengthAdjust="spacingAndGlyphs" textLength="223" x="27" y="356.3096">eDerivedStructuralFeatureID(int, Class&lt;?&gt;): int</text></a><!--MD5=[774d75f7d4249968ae06ed85a6da3afa]
class org.eclipse.epf.uma.impl.SectionImpl--><a href="SectionImpl.html" target="_top" title="SectionImpl.html" xlink:actuate="onRequest" xlink:href="SectionImpl.html" xlink:show="new" xlink:title="SectionImpl.html" xlink:type="simple"><rect codeLine="23" fill="#FEFECE" filter="url(#f11l6k6w5ul78n)" height="40.1875" id="org.eclipse.epf.uma.impl.SectionImpl" style="stroke: #A80036; stroke-width: 1.5;" width="150" x="34" y="7"/><ellipse cx="49" cy="27.0938" fill="#ADD1B2" rx="11" ry="11" style="stroke: #A80036; stroke-width: 1.0;"/><path d="M51.7656,22.9688 Q51.9219,22.75 52.1094,22.6406 Q52.2969,22.5313 52.5156,22.5313 Q52.8906,22.5313 53.125,22.7969 Q53.3594,23.0469 53.3594,23.6563 L53.3594,25.1094 Q53.3594,25.7188 53.125,25.9844 Q52.8906,26.25 52.5156,26.25 Q52.1719,26.25 51.9688,26.0469 Q51.7656,25.8594 51.6563,25.3438 Q51.6094,24.9844 51.4219,24.7969 Q51.0938,24.4219 50.4844,24.2031 Q49.875,23.9844 49.25,23.9844 Q48.4844,23.9844 47.8438,24.3125 Q47.2188,24.6406 46.7188,25.3906 Q46.2344,26.1406 46.2344,27.1719 L46.2344,28.2656 Q46.2344,29.5 47.125,30.3281 Q48.0156,31.1406 49.6094,31.1406 Q50.5469,31.1406 51.2031,30.8906 Q51.5938,30.7344 52.0156,30.2969 Q52.2813,30.0313 52.4219,29.9531 Q52.5781,29.875 52.7813,29.875 Q53.1094,29.875 53.3594,30.1406 Q53.625,30.3906 53.625,30.7344 Q53.625,31.0781 53.2813,31.4844 Q52.7813,32.0625 51.9844,32.3906 Q50.9063,32.8438 49.6094,32.8438 Q48.0938,32.8438 46.8906,32.2188 Q45.9063,31.7188 45.2188,30.6563 Q44.5313,29.5781 44.5313,28.2969 L44.5313,27.1406 Q44.5313,25.8125 45.1406,24.6719 Q45.7656,23.5156 46.8594,22.9063 Q47.9531,22.2813 49.1875,22.2813 Q49.9219,22.2813 50.5625,22.4531 Q51.2188,22.6094 51.7656,22.9688 Z "/><text fill="#000000" font-family="sans-serif" font-size="14" lengthAdjust="spacingAndGlyphs" textLength="72" x="86" y="26.5332">SectionImpl</text><text fill="#000000" font-family="sans-serif" font-size="10" lengthAdjust="spacingAndGlyphs" textLength="118" x="63" y="39.9902">org.eclipse.epf.uma.impl</text></a><!--MD5=[264aa3d430d7dad9e7b8a50f1a3b33c7]
class org.eclipse.epf.uma.Step--><a href="..\Step.html" target="_top" title="..\Step.html" xlink:actuate="onRequest" xlink:href="..\Step.html" xlink:show="new" xlink:title="..\Step.html" xlink:type="simple"><rect codeLine="24" fill="#FEFECE" filter="url(#f11l6k6w5ul78n)" height="40.1875" id="org.eclipse.epf.uma.Step" style="stroke: #A80036; stroke-width: 1.5;" width="124" x="219" y="7"/><ellipse cx="234" cy="27.0938" fill="#B4A7E5" rx="11" ry="11" style="stroke: #A80036; stroke-width: 1.0;"/><path d="M234.9531,23.7344 L234.9531,30.3906 L236.6719,30.3906 Q237.2813,30.3906 237.5469,30.625 Q237.8125,30.8594 237.8125,31.25 Q237.8125,31.625 237.5469,31.8594 Q237.2813,32.0938 236.6719,32.0938 L231.5313,32.0938 Q230.9219,32.0938 230.6563,31.8594 Q230.3906,31.625 230.3906,31.2344 Q230.3906,30.8594 230.6563,30.625 Q230.9219,30.3906 231.5313,30.3906 L233.25,30.3906 L233.25,23.7344 L231.5313,23.7344 Q230.9219,23.7344 230.6563,23.5 Q230.3906,23.2656 230.3906,22.875 Q230.3906,22.5 230.6563,22.2656 Q230.9219,22.0313 231.5313,22.0313 L236.6719,22.0313 Q237.2813,22.0313 237.5469,22.2656 Q237.8125,22.5 237.8125,22.875 Q237.8125,23.2656 237.5469,23.5 Q237.2813,23.7344 236.6719,23.7344 L234.9531,23.7344 Z "/><text fill="#000000" font-family="sans-serif" font-size="14" font-style="italic" lengthAdjust="spacingAndGlyphs" textLength="29" x="279.5" y="26.5332">Step</text><text fill="#000000" font-family="sans-serif" font-size="10" font-style="italic" lengthAdjust="spacingAndGlyphs" textLength="92" x="248" y="39.9902">org.eclipse.epf.uma</text></a><!--MD5=[418321a0b956c549bf49295241002774]
reverse link org.eclipse.epf.uma.impl.SectionImpl to org.eclipse.epf.uma.impl.StepImpl--><path codeLine="26" d="M124.74,65.71 C129.79,77.79 135.68,91.9 141.87,106.72 " fill="none" id="org.eclipse.epf.uma.impl.SectionImpl-backto-org.eclipse.epf.uma.impl.StepImpl" style="stroke: #A80036; stroke-width: 1.0;"/><polygon fill="none" points="118.18,68.16,116.94,47.01,131.1,62.77,118.18,68.16" style="stroke: #A80036; stroke-width: 1.0;"/><!--MD5=[2ad99b598a24faa28cc0811646eca3e8]
reverse link org.eclipse.epf.uma.Step to org.eclipse.epf.uma.impl.StepImpl--><path codeLine="27" d="M265.26,65.71 C260.21,77.79 254.32,91.9 248.13,106.72 " fill="none" id="org.eclipse.epf.uma.Step-backto-org.eclipse.epf.uma.impl.StepImpl" style="stroke: #A80036; stroke-width: 1.0; stroke-dasharray: 7.0,7.0;"/><polygon fill="none" points="258.9,62.77,273.06,47.01,271.82,68.16,258.9,62.77" style="stroke: #A80036; stroke-width: 1.0;"/><text fill="#888888" font-family="sans-serif" font-size="10" lengthAdjust="spacingAndGlyphs" textLength="190" x="97" y="386.1074">UMLDoclet 2.0.12, PlantUML 1.2020.16</text><!--MD5=[76f3bcf7e40c8b83c83d331620ad52a0]
@startuml
    set namespaceSeparator none
    hide empty fields
    hide empty methods

    class "<size:14>StepImpl\n<size:10>org.eclipse.epf.uma.impl" as org.eclipse.epf.uma.impl.StepImpl [[StepImpl.html]] {
        +getPrecondition(): Constraint
        +basicGetPrecondition(): Constraint
        +basicSetPrecondition(Constraint, NotificationChain): NotificationChain
        +setPrecondition(Constraint): void
        +getPostcondition(): Constraint
        +basicGetPostcondition(): Constraint
        +basicSetPostcondition(Constraint, NotificationChain): NotificationChain
        +setPostcondition(Constraint): void
        +eInverseRemove(InternalEObject, int, NotificationChain): NotificationChain
        +eGet(int, boolean, boolean): Object
        +eSet(int, Object): void
        +eUnset(int): void
        +eIsSet(int): boolean
        +eBaseStructuralFeatureID(int, Class<?>): int
        +eDerivedStructuralFeatureID(int, Class<?>): int
    }

    class "<size:14>SectionImpl\n<size:10>org.eclipse.epf.uma.impl" as org.eclipse.epf.uma.impl.SectionImpl [[SectionImpl.html]]
    interface "<size:14>Step\n<size:10>org.eclipse.epf.uma" as org.eclipse.epf.uma.Step [[..\Step.html]]

    org.eclipse.epf.uma.impl.SectionImpl <|- - org.eclipse.epf.uma.impl.StepImpl
    org.eclipse.epf.uma.Step <|.. org.eclipse.epf.uma.impl.StepImpl

    center footer UMLDoclet 2.0.12, PlantUML 1.2020.16
@enduml

PlantUML version 1.2020.16(Sun Aug 23 22:20:43 CEST 2020)
(APACHE source distribution)
Java Runtime: Java(TM) SE Runtime Environment
JVM: Java HotSpot(TM) 64-Bit Server VM
Default Encoding: Cp1252
Language: es
Country: ES
--></g></svg>