<?xml version="1.0" encoding="UTF-8" standalone="no"?><svg xmlns="http://www.w3.org/2000/svg" xmlns:xlink="http://www.w3.org/1999/xlink" contentScriptType="application/ecmascript" contentStyleType="text/css" height="184px" preserveAspectRatio="none" style="width:359px;height:184px;" version="1.1" viewBox="0 0 359 184" width="359px" zoomAndPan="magnify"><defs><filter height="300%" id="f19nuwrlkth5u0" width="300%" x="-1" y="-1"><feGaussianBlur result="blurOut" stdDeviation="2.0"/><feColorMatrix in="blurOut" result="blurOut2" type="matrix" values="0 0 0 0 0 0 0 0 0 0 0 0 0 0 0 0 0 0 .4 0"/><feOffset dx="4.0" dy="4.0" in="blurOut2" result="blurOut3"/><feBlend in="SourceGraphic" in2="blurOut3" mode="normal"/></filter></defs><g><!--MD5=[cb28223bd5378d4448066e9316cd77fb]
class org.eclipse.epf.uma.impl.SupportingMaterialImpl--><a href="SupportingMaterialImpl.html" target="_top" title="SupportingMaterialImpl.html" xlink:actuate="onRequest" xlink:href="SupportingMaterialImpl.html" xlink:show="new" xlink:title="SupportingMaterialImpl.html" xlink:type="simple"><rect codeLine="5" fill="#FEFECE" filter="url(#f19nuwrlkth5u0)" height="40.1875" id="org.eclipse.epf.uma.impl.SupportingMaterialImpl" style="stroke: #A80036; stroke-width: 1.5;" width="176" x="84" y="107"/><ellipse cx="99" cy="127.0938" fill="#ADD1B2" rx="11" ry="11" style="stroke: #A80036; stroke-width: 1.0;"/><path d="M101.7656,122.9688 Q101.9219,122.75 102.1094,122.6406 Q102.2969,122.5313 102.5156,122.5313 Q102.8906,122.5313 103.125,122.7969 Q103.3594,123.0469 103.3594,123.6563 L103.3594,125.1094 Q103.3594,125.7188 103.125,125.9844 Q102.8906,126.25 102.5156,126.25 Q102.1719,126.25 101.9688,126.0469 Q101.7656,125.8594 101.6563,125.3438 Q101.6094,124.9844 101.4219,124.7969 Q101.0938,124.4219 100.4844,124.2031 Q99.875,123.9844 99.25,123.9844 Q98.4844,123.9844 97.8438,124.3125 Q97.2188,124.6406 96.7188,125.3906 Q96.2344,126.1406 96.2344,127.1719 L96.2344,128.2656 Q96.2344,129.5 97.125,130.3281 Q98.0156,131.1406 99.6094,131.1406 Q100.5469,131.1406 101.2031,130.8906 Q101.5938,130.7344 102.0156,130.2969 Q102.2813,130.0313 102.4219,129.9531 Q102.5781,129.875 102.7813,129.875 Q103.1094,129.875 103.3594,130.1406 Q103.625,130.3906 103.625,130.7344 Q103.625,131.0781 103.2813,131.4844 Q102.7813,132.0625 101.9844,132.3906 Q100.9063,132.8438 99.6094,132.8438 Q98.0938,132.8438 96.8906,132.2188 Q95.9063,131.7188 95.2188,130.6563 Q94.5313,129.5781 94.5313,128.2969 L94.5313,127.1406 Q94.5313,125.8125 95.1406,124.6719 Q95.7656,123.5156 96.8594,122.9063 Q97.9531,122.2813 99.1875,122.2813 Q99.9219,122.2813 100.5625,122.4531 Q101.2188,122.6094 101.7656,122.9688 Z "/><text fill="#000000" font-family="sans-serif" font-size="14" lengthAdjust="spacingAndGlyphs" textLength="144" x="113" y="126.5332">SupportingMaterialImpl</text><text fill="#000000" font-family="sans-serif" font-size="10" lengthAdjust="spacingAndGlyphs" textLength="118" x="126" y="139.9902">org.eclipse.epf.uma.impl</text></a><!--MD5=[4ac47b7f125fe8903eb916935a8c261c]
class org.eclipse.epf.uma.impl.GuidanceImpl--><a href="GuidanceImpl.html" target="_top" title="GuidanceImpl.html" xlink:actuate="onRequest" xlink:href="GuidanceImpl.html" xlink:show="new" xlink:title="GuidanceImpl.html" xlink:type="simple"><rect codeLine="8" fill="#FEFECE" filter="url(#f19nuwrlkth5u0)" height="40.1875" id="org.eclipse.epf.uma.impl.GuidanceImpl" style="stroke: #A80036; stroke-width: 1.5;" width="146" x="7" y="7"/><ellipse cx="22" cy="27.0938" fill="#A9DCDF" rx="11" ry="11" style="stroke: #A80036; stroke-width: 1.0;"/><path d="M24.1875,28.8594 L20.0469,28.8594 L19.625,29.8906 L20.0469,29.8906 Q20.6563,29.8906 20.9219,30.125 Q21.1875,30.3594 21.1875,30.75 Q21.1875,31.125 20.9219,31.3594 Q20.6563,31.5938 20.0469,31.5938 L17.75,31.5938 Q17.1406,31.5938 16.8906,31.3594 Q16.625,31.125 16.625,30.7344 Q16.625,30.3594 16.9063,30.125 Q17.1719,29.875 17.7969,29.8906 L20.4688,23.2344 L19.3594,23.2344 Q18.75,23.2344 18.4844,23 Q18.2188,22.7656 18.2188,22.375 Q18.2188,22 18.4844,21.7656 Q18.75,21.5313 19.3594,21.5313 L23.0313,21.5313 L26.4219,29.8906 Q27.0156,29.8906 27.2031,30.0313 Q27.5938,30.2969 27.5938,30.75 Q27.5938,31.125 27.3281,31.3594 Q27.0781,31.5938 26.4688,31.5938 L24.1719,31.5938 Q23.5625,31.5938 23.2969,31.3594 Q23.0313,31.125 23.0313,30.7344 Q23.0313,30.3594 23.2969,30.125 Q23.5625,29.8906 24.1719,29.8906 L24.5938,29.8906 L24.1875,28.8594 Z M23.4688,27.1563 L22.1094,23.7813 L20.7344,27.1563 L23.4688,27.1563 Z "/><text fill="#000000" font-family="sans-serif" font-size="14" font-style="italic" lengthAdjust="spacingAndGlyphs" textLength="87" x="49.5" y="26.5332">GuidanceImpl</text><text fill="#000000" font-family="sans-serif" font-size="10" font-style="italic" lengthAdjust="spacingAndGlyphs" textLength="114" x="36" y="39.9902">org.eclipse.epf.uma.impl</text></a><!--MD5=[c1fa935e5fa5fc24ff441f9efe80cc3e]
class org.eclipse.epf.uma.SupportingMaterial--><a href="..\SupportingMaterial.html" target="_top" title="..\SupportingMaterial.html" xlink:actuate="onRequest" xlink:href="..\SupportingMaterial.html" xlink:show="new" xlink:title="..\SupportingMaterial.html" xlink:type="simple"><rect codeLine="9" fill="#FEFECE" filter="url(#f19nuwrlkth5u0)" height="40.1875" id="org.eclipse.epf.uma.SupportingMaterial" style="stroke: #A80036; stroke-width: 1.5;" width="152" x="188" y="7"/><ellipse cx="203" cy="27.0938" fill="#B4A7E5" rx="11" ry="11" style="stroke: #A80036; stroke-width: 1.0;"/><path d="M203.9531,23.7344 L203.9531,30.3906 L205.6719,30.3906 Q206.2813,30.3906 206.5469,30.625 Q206.8125,30.8594 206.8125,31.25 Q206.8125,31.625 206.5469,31.8594 Q206.2813,32.0938 205.6719,32.0938 L200.5313,32.0938 Q199.9219,32.0938 199.6563,31.8594 Q199.3906,31.625 199.3906,31.2344 Q199.3906,30.8594 199.6563,30.625 Q199.9219,30.3906 200.5313,30.3906 L202.25,30.3906 L202.25,23.7344 L200.5313,23.7344 Q199.9219,23.7344 199.6563,23.5 Q199.3906,23.2656 199.3906,22.875 Q199.3906,22.5 199.6563,22.2656 Q199.9219,22.0313 200.5313,22.0313 L205.6719,22.0313 Q206.2813,22.0313 206.5469,22.2656 Q206.8125,22.5 206.8125,22.875 Q206.8125,23.2656 206.5469,23.5 Q206.2813,23.7344 205.6719,23.7344 L203.9531,23.7344 Z "/><text fill="#000000" font-family="sans-serif" font-size="14" font-style="italic" lengthAdjust="spacingAndGlyphs" textLength="120" x="217" y="26.5332">SupportingMaterial</text><text fill="#000000" font-family="sans-serif" font-size="10" font-style="italic" lengthAdjust="spacingAndGlyphs" textLength="92" x="231" y="39.9902">org.eclipse.epf.uma</text></a><!--MD5=[0e209f191fbf2fa6e36a5560ca48f629]
reverse link org.eclipse.epf.uma.impl.GuidanceImpl to org.eclipse.epf.uma.impl.SupportingMaterialImpl--><path codeLine="11" d="M112.3,62.41 C126.24,77.26 142.03,94.07 153.86,106.68 " fill="none" id="org.eclipse.epf.uma.impl.GuidanceImpl-backto-org.eclipse.epf.uma.impl.SupportingMaterialImpl" style="stroke: #A80036; stroke-width: 1.0;"/><polygon fill="none" points="106.76,66.73,98.18,47.36,116.97,57.15,106.76,66.73" style="stroke: #A80036; stroke-width: 1.0;"/><!--MD5=[21a93862767b99bf85497e4561ae4740]
reverse link org.eclipse.epf.uma.SupportingMaterial to org.eclipse.epf.uma.impl.SupportingMaterialImpl--><path codeLine="12" d="M231.7,62.41 C217.76,77.26 201.97,94.07 190.14,106.68 " fill="none" id="org.eclipse.epf.uma.SupportingMaterial-backto-org.eclipse.epf.uma.impl.SupportingMaterialImpl" style="stroke: #A80036; stroke-width: 1.0; stroke-dasharray: 7.0,7.0;"/><polygon fill="none" points="227.03,57.15,245.82,47.36,237.24,66.73,227.03,57.15" style="stroke: #A80036; stroke-width: 1.0;"/><text fill="#888888" font-family="sans-serif" font-size="10" lengthAdjust="spacingAndGlyphs" textLength="190" x="75.5" y="170.5684">UMLDoclet 2.0.12, PlantUML 1.2020.16</text><!--MD5=[3968d2a33a84b9fcf0d0b2e8c72321cc]
@startuml
    set namespaceSeparator none
    hide empty fields
    hide empty methods

    class "<size:14>SupportingMaterialImpl\n<size:10>org.eclipse.epf.uma.impl" as org.eclipse.epf.uma.impl.SupportingMaterialImpl [[SupportingMaterialImpl.html]] {
    }

    abstract class "<size:14>GuidanceImpl\n<size:10>org.eclipse.epf.uma.impl" as org.eclipse.epf.uma.impl.GuidanceImpl [[GuidanceImpl.html]]
    interface "<size:14>SupportingMaterial\n<size:10>org.eclipse.epf.uma" as org.eclipse.epf.uma.SupportingMaterial [[..\SupportingMaterial.html]]

    org.eclipse.epf.uma.impl.GuidanceImpl <|- - org.eclipse.epf.uma.impl.SupportingMaterialImpl
    org.eclipse.epf.uma.SupportingMaterial <|.. org.eclipse.epf.uma.impl.SupportingMaterialImpl

    center footer UMLDoclet 2.0.12, PlantUML 1.2020.16
@enduml

PlantUML version 1.2020.16(Sun Aug 23 22:20:43 CEST 2020)
(APACHE source distribution)
Java Runtime: Java(TM) SE Runtime Environment
JVM: Java HotSpot(TM) 64-Bit Server VM
Default Encoding: Cp1252
Language: es
Country: ES
--></g></svg>