<?xml version="1.0" encoding="UTF-8" standalone="no"?><svg xmlns="http://www.w3.org/2000/svg" xmlns:xlink="http://www.w3.org/1999/xlink" contentScriptType="application/ecmascript" contentStyleType="text/css" height="366px" preserveAspectRatio="none" style="width:401px;height:366px;" version="1.1" viewBox="0 0 401 366" width="401px" zoomAndPan="magnify"><defs><filter height="300%" id="fsyvesm7curmx" width="300%" x="-1" y="-1"><feGaussianBlur result="blurOut" stdDeviation="2.0"/><feColorMatrix in="blurOut" result="blurOut2" type="matrix" values="0 0 0 0 0 0 0 0 0 0 0 0 0 0 0 0 0 0 .4 0"/><feOffset dx="4.0" dy="4.0" in="blurOut2" result="blurOut3"/><feBlend in="SourceGraphic" in2="blurOut3" mode="normal"/></filter></defs><g><!--MD5=[f760067b6883c11fc702647eb3006ae6]
class org.eclipse.epf.uma.impl.TaskDescriptionImpl--><a href="TaskDescriptionImpl.html" target="_top" title="TaskDescriptionImpl.html" xlink:actuate="onRequest" xlink:href="TaskDescriptionImpl.html" xlink:show="new" xlink:title="TaskDescriptionImpl.html" xlink:type="simple"><rect codeLine="5" fill="#FEFECE" filter="url(#fsyvesm7curmx)" height="158.875" id="org.eclipse.epf.uma.impl.TaskDescriptionImpl" style="stroke: #A80036; stroke-width: 1.5;" width="193" x="101.5" y="171"/><ellipse cx="131.8" cy="191.0938" fill="#ADD1B2" rx="11" ry="11" style="stroke: #A80036; stroke-width: 1.0;"/><path d="M134.5656,186.9688 Q134.7219,186.75 134.9094,186.6406 Q135.0969,186.5313 135.3156,186.5313 Q135.6906,186.5313 135.925,186.7969 Q136.1594,187.0469 136.1594,187.6563 L136.1594,189.1094 Q136.1594,189.7188 135.925,189.9844 Q135.6906,190.25 135.3156,190.25 Q134.9719,190.25 134.7688,190.0469 Q134.5656,189.8594 134.4563,189.3438 Q134.4094,188.9844 134.2219,188.7969 Q133.8938,188.4219 133.2844,188.2031 Q132.675,187.9844 132.05,187.9844 Q131.2844,187.9844 130.6438,188.3125 Q130.0188,188.6406 129.5188,189.3906 Q129.0344,190.1406 129.0344,191.1719 L129.0344,192.2656 Q129.0344,193.5 129.925,194.3281 Q130.8156,195.1406 132.4094,195.1406 Q133.3469,195.1406 134.0031,194.8906 Q134.3938,194.7344 134.8156,194.2969 Q135.0813,194.0313 135.2219,193.9531 Q135.3781,193.875 135.5813,193.875 Q135.9094,193.875 136.1594,194.1406 Q136.425,194.3906 136.425,194.7344 Q136.425,195.0781 136.0813,195.4844 Q135.5813,196.0625 134.7844,196.3906 Q133.7063,196.8438 132.4094,196.8438 Q130.8938,196.8438 129.6906,196.2188 Q128.7063,195.7188 128.0188,194.6563 Q127.3313,193.5781 127.3313,192.2969 L127.3313,191.1406 Q127.3313,189.8125 127.9406,188.6719 Q128.5656,187.5156 129.6594,186.9063 Q130.7531,186.2813 131.9875,186.2813 Q132.7219,186.2813 133.3625,186.4531 Q134.0188,186.6094 134.5656,186.9688 Z "/><text fill="#000000" font-family="sans-serif" font-size="14" lengthAdjust="spacingAndGlyphs" textLength="127" x="149.2" y="190.5332">TaskDescriptionImpl</text><text fill="#000000" font-family="sans-serif" font-size="10" lengthAdjust="spacingAndGlyphs" textLength="118" x="153.7" y="203.9902">org.eclipse.epf.uma.impl</text><line style="stroke: #A80036; stroke-width: 1.5;" x1="102.5" x2="293.5" y1="211.1875" y2="211.1875"/><ellipse cx="112.5" cy="222.1875" fill="#84BE84" rx="3" ry="3" style="stroke: #038048; stroke-width: 1.0;"/><text fill="#000000" font-family="sans-serif" font-size="11" lengthAdjust="spacingAndGlyphs" textLength="97" x="121.5" y="226.6064">getPurpose(): String</text><ellipse cx="112.5" cy="236.0234" fill="#84BE84" rx="3" ry="3" style="stroke: #038048; stroke-width: 1.0;"/><text fill="#000000" font-family="sans-serif" font-size="11" lengthAdjust="spacingAndGlyphs" textLength="117" x="121.5" y="240.4424">setPurpose(String): void</text><ellipse cx="112.5" cy="249.8594" fill="#84BE84" rx="3" ry="3" style="stroke: #038048; stroke-width: 1.0;"/><text fill="#000000" font-family="sans-serif" font-size="11" lengthAdjust="spacingAndGlyphs" textLength="115" x="121.5" y="254.2783">getAlternatives(): String</text><ellipse cx="112.5" cy="263.6953" fill="#84BE84" rx="3" ry="3" style="stroke: #038048; stroke-width: 1.0;"/><text fill="#000000" font-family="sans-serif" font-size="11" lengthAdjust="spacingAndGlyphs" textLength="135" x="121.5" y="268.1143">setAlternatives(String): void</text><ellipse cx="112.5" cy="277.5313" fill="#84BE84" rx="3" ry="3" style="stroke: #038048; stroke-width: 1.0;"/><text fill="#000000" font-family="sans-serif" font-size="11" lengthAdjust="spacingAndGlyphs" textLength="167" x="121.5" y="281.9502">eGet(int, boolean, boolean): Object</text><ellipse cx="112.5" cy="291.3672" fill="#84BE84" rx="3" ry="3" style="stroke: #038048; stroke-width: 1.0;"/><text fill="#000000" font-family="sans-serif" font-size="11" lengthAdjust="spacingAndGlyphs" textLength="104" x="121.5" y="295.7861">eSet(int, Object): void</text><ellipse cx="112.5" cy="305.2031" fill="#84BE84" rx="3" ry="3" style="stroke: #038048; stroke-width: 1.0;"/><text fill="#000000" font-family="sans-serif" font-size="11" lengthAdjust="spacingAndGlyphs" textLength="79" x="121.5" y="309.6221">eUnset(int): void</text><ellipse cx="112.5" cy="319.0391" fill="#84BE84" rx="3" ry="3" style="stroke: #038048; stroke-width: 1.0;"/><text fill="#000000" font-family="sans-serif" font-size="11" lengthAdjust="spacingAndGlyphs" textLength="93" x="121.5" y="323.458">eIsSet(int): boolean</text></a><!--MD5=[92b3159b33d4292b6938f7fac228d88c]
class org.eclipse.epf.uma.impl.ContentDescriptionImpl--><a href="ContentDescriptionImpl.html" target="_top" title="ContentDescriptionImpl.html" xlink:actuate="onRequest" xlink:href="ContentDescriptionImpl.html" xlink:show="new" xlink:title="ContentDescriptionImpl.html" xlink:type="simple"><rect codeLine="16" fill="#FEFECE" filter="url(#fsyvesm7curmx)" height="40.1875" id="org.eclipse.epf.uma.impl.ContentDescriptionImpl" style="stroke: #A80036; stroke-width: 1.5;" width="178" x="7" y="39"/><ellipse cx="22" cy="59.0938" fill="#ADD1B2" rx="11" ry="11" style="stroke: #A80036; stroke-width: 1.0;"/><path d="M24.7656,54.9688 Q24.9219,54.75 25.1094,54.6406 Q25.2969,54.5313 25.5156,54.5313 Q25.8906,54.5313 26.125,54.7969 Q26.3594,55.0469 26.3594,55.6563 L26.3594,57.1094 Q26.3594,57.7188 26.125,57.9844 Q25.8906,58.25 25.5156,58.25 Q25.1719,58.25 24.9688,58.0469 Q24.7656,57.8594 24.6563,57.3438 Q24.6094,56.9844 24.4219,56.7969 Q24.0938,56.4219 23.4844,56.2031 Q22.875,55.9844 22.25,55.9844 Q21.4844,55.9844 20.8438,56.3125 Q20.2188,56.6406 19.7188,57.3906 Q19.2344,58.1406 19.2344,59.1719 L19.2344,60.2656 Q19.2344,61.5 20.125,62.3281 Q21.0156,63.1406 22.6094,63.1406 Q23.5469,63.1406 24.2031,62.8906 Q24.5938,62.7344 25.0156,62.2969 Q25.2813,62.0313 25.4219,61.9531 Q25.5781,61.875 25.7813,61.875 Q26.1094,61.875 26.3594,62.1406 Q26.625,62.3906 26.625,62.7344 Q26.625,63.0781 26.2813,63.4844 Q25.7813,64.0625 24.9844,64.3906 Q23.9063,64.8438 22.6094,64.8438 Q21.0938,64.8438 19.8906,64.2188 Q18.9063,63.7188 18.2188,62.6563 Q17.5313,61.5781 17.5313,60.2969 L17.5313,59.1406 Q17.5313,57.8125 18.1406,56.6719 Q18.7656,55.5156 19.8594,54.9063 Q20.9531,54.2813 22.1875,54.2813 Q22.9219,54.2813 23.5625,54.4531 Q24.2188,54.6094 24.7656,54.9688 Z "/><text fill="#000000" font-family="sans-serif" font-size="14" lengthAdjust="spacingAndGlyphs" textLength="146" x="36" y="58.5332">ContentDescriptionImpl</text><text fill="#000000" font-family="sans-serif" font-size="10" lengthAdjust="spacingAndGlyphs" textLength="118" x="50" y="71.9902">org.eclipse.epf.uma.impl</text></a><!--MD5=[848350c69cfea81397b6daa68e467c95]
class org.eclipse.epf.uma.TaskDescription--><a href="..\TaskDescription.html" target="_top" title="..\TaskDescription.html" xlink:actuate="onRequest" xlink:href="..\TaskDescription.html" xlink:show="new" xlink:title="..\TaskDescription.html" xlink:type="simple"><rect codeLine="17" fill="#FEFECE" filter="url(#fsyvesm7curmx)" height="103.5313" id="org.eclipse.epf.uma.TaskDescription" style="stroke: #A80036; stroke-width: 1.5;" width="162" x="220" y="7"/><ellipse cx="247.15" cy="27.0938" fill="#B4A7E5" rx="11" ry="11" style="stroke: #A80036; stroke-width: 1.0;"/><path d="M248.1031,23.7344 L248.1031,30.3906 L249.8219,30.3906 Q250.4313,30.3906 250.6969,30.625 Q250.9625,30.8594 250.9625,31.25 Q250.9625,31.625 250.6969,31.8594 Q250.4313,32.0938 249.8219,32.0938 L244.6813,32.0938 Q244.0719,32.0938 243.8063,31.8594 Q243.5406,31.625 243.5406,31.2344 Q243.5406,30.8594 243.8063,30.625 Q244.0719,30.3906 244.6813,30.3906 L246.4,30.3906 L246.4,23.7344 L244.6813,23.7344 Q244.0719,23.7344 243.8063,23.5 Q243.5406,23.2656 243.5406,22.875 Q243.5406,22.5 243.8063,22.2656 Q244.0719,22.0313 244.6813,22.0313 L249.8219,22.0313 Q250.4313,22.0313 250.6969,22.2656 Q250.9625,22.5 250.9625,22.875 Q250.9625,23.2656 250.6969,23.5 Q250.4313,23.7344 249.8219,23.7344 L248.1031,23.7344 Z "/><text fill="#000000" font-family="sans-serif" font-size="14" font-style="italic" lengthAdjust="spacingAndGlyphs" textLength="103" x="263.85" y="26.5332">TaskDescription</text><text fill="#000000" font-family="sans-serif" font-size="10" font-style="italic" lengthAdjust="spacingAndGlyphs" textLength="92" x="269.35" y="39.9902">org.eclipse.epf.uma</text><line style="stroke: #A80036; stroke-width: 1.5;" x1="221" x2="381" y1="47.1875" y2="47.1875"/><ellipse cx="231" cy="58.1875" fill="#84BE84" rx="3" ry="3" style="stroke: #038048; stroke-width: 1.0;"/><text fill="#000000" font-family="sans-serif" font-size="11" font-style="italic" lengthAdjust="spacingAndGlyphs" textLength="99" x="240" y="62.6064">getPurpose(): String</text><ellipse cx="231" cy="72.0234" fill="#84BE84" rx="3" ry="3" style="stroke: #038048; stroke-width: 1.0;"/><text fill="#000000" font-family="sans-serif" font-size="11" font-style="italic" lengthAdjust="spacingAndGlyphs" textLength="119" x="240" y="76.4424">setPurpose(String): void</text><ellipse cx="231" cy="85.8594" fill="#84BE84" rx="3" ry="3" style="stroke: #038048; stroke-width: 1.0;"/><text fill="#000000" font-family="sans-serif" font-size="11" font-style="italic" lengthAdjust="spacingAndGlyphs" textLength="116" x="240" y="90.2783">getAlternatives(): String</text><ellipse cx="231" cy="99.6953" fill="#84BE84" rx="3" ry="3" style="stroke: #038048; stroke-width: 1.0;"/><text fill="#000000" font-family="sans-serif" font-size="11" font-style="italic" lengthAdjust="spacingAndGlyphs" textLength="136" x="240" y="104.1143">setAlternatives(String): void</text></a><!--MD5=[cff06a9423e87087c32b5db6e8f91d90]
reverse link org.eclipse.epf.uma.impl.ContentDescriptionImpl to org.eclipse.epf.uma.impl.TaskDescriptionImpl--><path codeLine="24" d="M115.86,96.9 C127.18,117.92 141.81,145.1 155.58,170.69 " fill="none" id="org.eclipse.epf.uma.impl.ContentDescriptionImpl-backto-org.eclipse.epf.uma.impl.TaskDescriptionImpl" style="stroke: #A80036; stroke-width: 1.0;"/><polygon fill="none" points="109.66,100.14,106.34,79.21,121.98,93.51,109.66,100.14" style="stroke: #A80036; stroke-width: 1.0;"/><!--MD5=[a660c7495e192bd2e6b746f1ff182d4f]
reverse link org.eclipse.epf.uma.TaskDescription to org.eclipse.epf.uma.impl.TaskDescriptionImpl--><path codeLine="25" d="M263.42,129.14 C256.07,142.66 248.31,156.93 240.81,170.74 " fill="none" id="org.eclipse.epf.uma.TaskDescription-backto-org.eclipse.epf.uma.impl.TaskDescriptionImpl" style="stroke: #A80036; stroke-width: 1.0; stroke-dasharray: 7.0,7.0;"/><polygon fill="none" points="257.43,125.51,273.13,111.28,269.73,132.2,257.43,125.51" style="stroke: #A80036; stroke-width: 1.0;"/><text fill="#888888" font-family="sans-serif" font-size="10" lengthAdjust="spacingAndGlyphs" textLength="190" x="96.5" y="353.2559">UMLDoclet 2.0.12, PlantUML 1.2020.16</text><!--MD5=[86006a7e9789a3fe5eea8eb184a56bc7]
@startuml
    set namespaceSeparator none
    hide empty fields
    hide empty methods

    class "<size:14>TaskDescriptionImpl\n<size:10>org.eclipse.epf.uma.impl" as org.eclipse.epf.uma.impl.TaskDescriptionImpl [[TaskDescriptionImpl.html]] {
        +getPurpose(): String
        +setPurpose(String): void
        +getAlternatives(): String
        +setAlternatives(String): void
        +eGet(int, boolean, boolean): Object
        +eSet(int, Object): void
        +eUnset(int): void
        +eIsSet(int): boolean
    }

    class "<size:14>ContentDescriptionImpl\n<size:10>org.eclipse.epf.uma.impl" as org.eclipse.epf.uma.impl.ContentDescriptionImpl [[ContentDescriptionImpl.html]]
    interface "<size:14>TaskDescription\n<size:10>org.eclipse.epf.uma" as org.eclipse.epf.uma.TaskDescription [[..\TaskDescription.html]] {
        {abstract} +getPurpose(): String
        {abstract} +setPurpose(String): void
        {abstract} +getAlternatives(): String
        {abstract} +setAlternatives(String): void
    }

    org.eclipse.epf.uma.impl.ContentDescriptionImpl <|- - org.eclipse.epf.uma.impl.TaskDescriptionImpl
    org.eclipse.epf.uma.TaskDescription <|.. org.eclipse.epf.uma.impl.TaskDescriptionImpl

    center footer UMLDoclet 2.0.12, PlantUML 1.2020.16
@enduml

PlantUML version 1.2020.16(Sun Aug 23 22:20:43 CEST 2020)
(APACHE source distribution)
Java Runtime: Java(TM) SE Runtime Environment
JVM: Java HotSpot(TM) 64-Bit Server VM
Default Encoding: Cp1252
Language: es
Country: ES
--></g></svg>