<?xml version="1.0" encoding="UTF-8" standalone="no"?><svg xmlns="http://www.w3.org/2000/svg" xmlns:xlink="http://www.w3.org/1999/xlink" contentScriptType="application/ecmascript" contentStyleType="text/css" height="795px" preserveAspectRatio="none" style="width:563px;height:795px;" version="1.1" viewBox="0 0 563 795" width="563px" zoomAndPan="magnify"><defs><filter height="300%" id="fsc2kks88l9y" width="300%" x="-1" y="-1"><feGaussianBlur result="blurOut" stdDeviation="2.0"/><feColorMatrix in="blurOut" result="blurOut2" type="matrix" values="0 0 0 0 0 0 0 0 0 0 0 0 0 0 0 0 0 0 .4 0"/><feOffset dx="4.0" dy="4.0" in="blurOut2" result="blurOut3"/><feBlend in="SourceGraphic" in2="blurOut3" mode="normal"/></filter></defs><g><!--MD5=[0d2cbf179e9c97b47c82b755a1e31a20]
class org.eclipse.epf.uma.impl.TaskDescriptorImpl--><a href="TaskDescriptorImpl.html" target="_top" title="TaskDescriptorImpl.html" xlink:actuate="onRequest" xlink:href="TaskDescriptorImpl.html" xlink:show="new" xlink:title="TaskDescriptorImpl.html" xlink:type="simple"><rect codeLine="5" fill="#FEFECE" filter="url(#fsc2kks88l9y)" height="421.7578" id="org.eclipse.epf.uma.impl.TaskDescriptorImpl" style="stroke: #A80036; stroke-width: 1.5;" width="279" x="118" y="337"/><ellipse cx="192.75" cy="357.0938" fill="#ADD1B2" rx="11" ry="11" style="stroke: #A80036; stroke-width: 1.0;"/><path d="M195.5156,352.9688 Q195.6719,352.75 195.8594,352.6406 Q196.0469,352.5313 196.2656,352.5313 Q196.6406,352.5313 196.875,352.7969 Q197.1094,353.0469 197.1094,353.6563 L197.1094,355.1094 Q197.1094,355.7188 196.875,355.9844 Q196.6406,356.25 196.2656,356.25 Q195.9219,356.25 195.7188,356.0469 Q195.5156,355.8594 195.4063,355.3438 Q195.3594,354.9844 195.1719,354.7969 Q194.8438,354.4219 194.2344,354.2031 Q193.625,353.9844 193,353.9844 Q192.2344,353.9844 191.5938,354.3125 Q190.9688,354.6406 190.4688,355.3906 Q189.9844,356.1406 189.9844,357.1719 L189.9844,358.2656 Q189.9844,359.5 190.875,360.3281 Q191.7656,361.1406 193.3594,361.1406 Q194.2969,361.1406 194.9531,360.8906 Q195.3438,360.7344 195.7656,360.2969 Q196.0313,360.0313 196.1719,359.9531 Q196.3281,359.875 196.5313,359.875 Q196.8594,359.875 197.1094,360.1406 Q197.375,360.3906 197.375,360.7344 Q197.375,361.0781 197.0313,361.4844 Q196.5313,362.0625 195.7344,362.3906 Q194.6563,362.8438 193.3594,362.8438 Q191.8438,362.8438 190.6406,362.2188 Q189.6563,361.7188 188.9688,360.6563 Q188.2813,359.5781 188.2813,358.2969 L188.2813,357.1406 Q188.2813,355.8125 188.8906,354.6719 Q189.5156,353.5156 190.6094,352.9063 Q191.7031,352.2813 192.9375,352.2813 Q193.6719,352.2813 194.3125,352.4531 Q194.9688,352.6094 195.5156,352.9688 Z "/><text fill="#000000" font-family="sans-serif" font-size="14" lengthAdjust="spacingAndGlyphs" textLength="121" x="213.25" y="356.5332">TaskDescriptorImpl</text><text fill="#000000" font-family="sans-serif" font-size="10" lengthAdjust="spacingAndGlyphs" textLength="118" x="214.75" y="369.9902">org.eclipse.epf.uma.impl</text><line style="stroke: #A80036; stroke-width: 1.5;" x1="119" x2="396" y1="377.1875" y2="377.1875"/><ellipse cx="129" cy="388.1875" fill="#84BE84" rx="3" ry="3" style="stroke: #038048; stroke-width: 1.0;"/><text fill="#000000" font-family="sans-serif" font-size="11" lengthAdjust="spacingAndGlyphs" textLength="199" x="138" y="392.6064">getIsSynchronizedWithSource(): Boolean</text><ellipse cx="129" cy="402.0234" fill="#84BE84" rx="3" ry="3" style="stroke: #038048; stroke-width: 1.0;"/><text fill="#000000" font-family="sans-serif" font-size="11" lengthAdjust="spacingAndGlyphs" textLength="219" x="138" y="406.4424">setIsSynchronizedWithSource(Boolean): void</text><ellipse cx="129" cy="415.8594" fill="#84BE84" rx="3" ry="3" style="stroke: #038048; stroke-width: 1.0;"/><text fill="#000000" font-family="sans-serif" font-size="11" lengthAdjust="spacingAndGlyphs" textLength="194" x="138" y="420.2783">getGuidanceExclude(): EList&lt;Guidance&gt;</text><ellipse cx="129" cy="429.6953" fill="#84BE84" rx="3" ry="3" style="stroke: #038048; stroke-width: 1.0;"/><text fill="#000000" font-family="sans-serif" font-size="11" lengthAdjust="spacingAndGlyphs" textLength="203" x="138" y="434.1143">getGuidanceAdditional(): EList&lt;Guidance&gt;</text><ellipse cx="129" cy="443.5313" fill="#84BE84" rx="3" ry="3" style="stroke: #038048; stroke-width: 1.0;"/><text fill="#000000" font-family="sans-serif" font-size="11" lengthAdjust="spacingAndGlyphs" textLength="75" x="138" y="447.9502">getTask(): Task</text><ellipse cx="129" cy="457.3672" fill="#84BE84" rx="3" ry="3" style="stroke: #038048; stroke-width: 1.0;"/><text fill="#000000" font-family="sans-serif" font-size="11" lengthAdjust="spacingAndGlyphs" textLength="103" x="138" y="461.7861">basicGetTask(): Task</text><ellipse cx="129" cy="471.2031" fill="#84BE84" rx="3" ry="3" style="stroke: #038048; stroke-width: 1.0;"/><text fill="#000000" font-family="sans-serif" font-size="11" lengthAdjust="spacingAndGlyphs" textLength="95" x="138" y="475.6221">setTask(Task): void</text><ellipse cx="129" cy="485.0391" fill="#84BE84" rx="3" ry="3" style="stroke: #038048; stroke-width: 1.0;"/><text fill="#000000" font-family="sans-serif" font-size="11" lengthAdjust="spacingAndGlyphs" textLength="253" x="138" y="489.458">getAdditionallyPerformedBy(): EList&lt;RoleDescriptor&gt;</text><ellipse cx="129" cy="498.875" fill="#84BE84" rx="3" ry="3" style="stroke: #038048; stroke-width: 1.0;"/><text fill="#000000" font-family="sans-serif" font-size="11" lengthAdjust="spacingAndGlyphs" textLength="191" x="138" y="503.2939">getAssistedBy(): EList&lt;RoleDescriptor&gt;</text><ellipse cx="129" cy="512.7109" fill="#84BE84" rx="3" ry="3" style="stroke: #038048; stroke-width: 1.0;"/><text fill="#000000" font-family="sans-serif" font-size="11" lengthAdjust="spacingAndGlyphs" textLength="238" x="138" y="517.1299">getExternalInput(): EList&lt;WorkProductDescriptor&gt;</text><ellipse cx="129" cy="526.5469" fill="#84BE84" rx="3" ry="3" style="stroke: #038048; stroke-width: 1.0;"/><text fill="#000000" font-family="sans-serif" font-size="11" lengthAdjust="spacingAndGlyphs" textLength="250" x="138" y="530.9658">getMandatoryInput(): EList&lt;WorkProductDescriptor&gt;</text><ellipse cx="129" cy="540.3828" fill="#84BE84" rx="3" ry="3" style="stroke: #038048; stroke-width: 1.0;"/><text fill="#000000" font-family="sans-serif" font-size="11" lengthAdjust="spacingAndGlyphs" textLength="238" x="138" y="544.8018">getOptionalInput(): EList&lt;WorkProductDescriptor&gt;</text><ellipse cx="129" cy="554.2188" fill="#84BE84" rx="3" ry="3" style="stroke: #038048; stroke-width: 1.0;"/><text fill="#000000" font-family="sans-serif" font-size="11" lengthAdjust="spacingAndGlyphs" textLength="208" x="138" y="558.6377">getOutput(): EList&lt;WorkProductDescriptor&gt;</text><ellipse cx="129" cy="568.0547" fill="#84BE84" rx="3" ry="3" style="stroke: #038048; stroke-width: 1.0;"/><text fill="#000000" font-family="sans-serif" font-size="11" lengthAdjust="spacingAndGlyphs" textLength="238" x="138" y="572.4736">getPerformedPrimarilyBy(): EList&lt;RoleDescriptor&gt;</text><ellipse cx="129" cy="581.8906" fill="#84BE84" rx="3" ry="3" style="stroke: #038048; stroke-width: 1.0;"/><text fill="#000000" font-family="sans-serif" font-size="11" lengthAdjust="spacingAndGlyphs" textLength="170" x="138" y="586.3096">getSelectedSteps(): EList&lt;Section&gt;</text><ellipse cx="129" cy="595.7266" fill="#84BE84" rx="3" ry="3" style="stroke: #038048; stroke-width: 1.0;"/><text fill="#000000" font-family="sans-serif" font-size="11" lengthAdjust="spacingAndGlyphs" textLength="232" x="138" y="600.1455">getPerformedPrimarilyByExcluded(): EList&lt;Role&gt;</text><ellipse cx="129" cy="609.5625" fill="#84BE84" rx="3" ry="3" style="stroke: #038048; stroke-width: 1.0;"/><text fill="#000000" font-family="sans-serif" font-size="11" lengthAdjust="spacingAndGlyphs" textLength="241" x="138" y="613.9814">getAdditionallyPerformedByExclude(): EList&lt;Role&gt;</text><ellipse cx="129" cy="623.3984" fill="#84BE84" rx="3" ry="3" style="stroke: #038048; stroke-width: 1.0;"/><text fill="#000000" font-family="sans-serif" font-size="11" lengthAdjust="spacingAndGlyphs" textLength="238" x="138" y="627.8174">getMandatoryInputExclude(): EList&lt;WorkProduct&gt;</text><ellipse cx="129" cy="637.2344" fill="#84BE84" rx="3" ry="3" style="stroke: #038048; stroke-width: 1.0;"/><text fill="#000000" font-family="sans-serif" font-size="11" lengthAdjust="spacingAndGlyphs" textLength="226" x="138" y="641.6533">getOptionalInputExclude(): EList&lt;WorkProduct&gt;</text><ellipse cx="129" cy="651.0703" fill="#84BE84" rx="3" ry="3" style="stroke: #038048; stroke-width: 1.0;"/><text fill="#000000" font-family="sans-serif" font-size="11" lengthAdjust="spacingAndGlyphs" textLength="196" x="138" y="655.4893">getOutputExclude(): EList&lt;WorkProduct&gt;</text><ellipse cx="129" cy="664.9063" fill="#84BE84" rx="3" ry="3" style="stroke: #038048; stroke-width: 1.0;"/><text fill="#000000" font-family="sans-serif" font-size="11" lengthAdjust="spacingAndGlyphs" textLength="208" x="138" y="669.3252">getSelectedStepsExclude(): EList&lt;Section&gt;</text><ellipse cx="129" cy="678.7422" fill="#84BE84" rx="3" ry="3" style="stroke: #038048; stroke-width: 1.0;"/><text fill="#000000" font-family="sans-serif" font-size="11" lengthAdjust="spacingAndGlyphs" textLength="167" x="138" y="683.1611">eGet(int, boolean, boolean): Object</text><ellipse cx="129" cy="692.5781" fill="#84BE84" rx="3" ry="3" style="stroke: #038048; stroke-width: 1.0;"/><text fill="#000000" font-family="sans-serif" font-size="11" lengthAdjust="spacingAndGlyphs" textLength="104" x="138" y="696.9971">eSet(int, Object): void</text><ellipse cx="129" cy="706.4141" fill="#84BE84" rx="3" ry="3" style="stroke: #038048; stroke-width: 1.0;"/><text fill="#000000" font-family="sans-serif" font-size="11" lengthAdjust="spacingAndGlyphs" textLength="79" x="138" y="710.833">eUnset(int): void</text><ellipse cx="129" cy="720.25" fill="#84BE84" rx="3" ry="3" style="stroke: #038048; stroke-width: 1.0;"/><text fill="#000000" font-family="sans-serif" font-size="11" lengthAdjust="spacingAndGlyphs" textLength="93" x="138" y="724.6689">eIsSet(int): boolean</text><ellipse cx="129" cy="734.0859" fill="#84BE84" rx="3" ry="3" style="stroke: #038048; stroke-width: 1.0;"/><text fill="#000000" font-family="sans-serif" font-size="11" lengthAdjust="spacingAndGlyphs" textLength="211" x="138" y="738.5049">eBaseStructuralFeatureID(int, Class&lt;?&gt;): int</text><ellipse cx="129" cy="747.9219" fill="#84BE84" rx="3" ry="3" style="stroke: #038048; stroke-width: 1.0;"/><text fill="#000000" font-family="sans-serif" font-size="11" lengthAdjust="spacingAndGlyphs" textLength="223" x="138" y="752.3408">eDerivedStructuralFeatureID(int, Class&lt;?&gt;): int</text></a><!--MD5=[b136c1013b364026b1c1cadbae011495]
class org.eclipse.epf.uma.impl.WorkBreakdownElementImpl--><a href="WorkBreakdownElementImpl.html" target="_top" title="WorkBreakdownElementImpl.html" xlink:actuate="onRequest" xlink:href="WorkBreakdownElementImpl.html" xlink:show="new" xlink:title="WorkBreakdownElementImpl.html" xlink:type="simple"><rect codeLine="35" fill="#FEFECE" filter="url(#fsc2kks88l9y)" height="40.1875" id="org.eclipse.epf.uma.impl.WorkBreakdownElementImpl" style="stroke: #A80036; stroke-width: 1.5;" width="215" x="7" y="122"/><ellipse cx="22" cy="142.0938" fill="#A9DCDF" rx="11" ry="11" style="stroke: #A80036; stroke-width: 1.0;"/><path d="M24.1875,143.8594 L20.0469,143.8594 L19.625,144.8906 L20.0469,144.8906 Q20.6563,144.8906 20.9219,145.125 Q21.1875,145.3594 21.1875,145.75 Q21.1875,146.125 20.9219,146.3594 Q20.6563,146.5938 20.0469,146.5938 L17.75,146.5938 Q17.1406,146.5938 16.8906,146.3594 Q16.625,146.125 16.625,145.7344 Q16.625,145.3594 16.9063,145.125 Q17.1719,144.875 17.7969,144.8906 L20.4688,138.2344 L19.3594,138.2344 Q18.75,138.2344 18.4844,138 Q18.2188,137.7656 18.2188,137.375 Q18.2188,137 18.4844,136.7656 Q18.75,136.5313 19.3594,136.5313 L23.0313,136.5313 L26.4219,144.8906 Q27.0156,144.8906 27.2031,145.0313 Q27.5938,145.2969 27.5938,145.75 Q27.5938,146.125 27.3281,146.3594 Q27.0781,146.5938 26.4688,146.5938 L24.1719,146.5938 Q23.5625,146.5938 23.2969,146.3594 Q23.0313,146.125 23.0313,145.7344 Q23.0313,145.3594 23.2969,145.125 Q23.5625,144.8906 24.1719,144.8906 L24.5938,144.8906 L24.1875,143.8594 Z M23.4688,142.1563 L22.1094,138.7813 L20.7344,142.1563 L23.4688,142.1563 Z "/><text fill="#000000" font-family="sans-serif" font-size="14" font-style="italic" lengthAdjust="spacingAndGlyphs" textLength="183" x="36" y="141.5332">WorkBreakdownElementImpl</text><text fill="#000000" font-family="sans-serif" font-size="10" font-style="italic" lengthAdjust="spacingAndGlyphs" textLength="114" x="70.5" y="154.9902">org.eclipse.epf.uma.impl</text></a><!--MD5=[ab3ba5075bed10c2ff77c344fd30e0d3]
class org.eclipse.epf.uma.TaskDescriptor--><a href="..\TaskDescriptor.html" target="_top" title="..\TaskDescriptor.html" xlink:actuate="onRequest" xlink:href="..\TaskDescriptor.html" xlink:show="new" xlink:title="..\TaskDescriptor.html" xlink:type="simple"><rect codeLine="36" fill="#FEFECE" filter="url(#fsc2kks88l9y)" height="269.5625" id="org.eclipse.epf.uma.TaskDescriptor" style="stroke: #A80036; stroke-width: 1.5;" width="287" x="257" y="7"/><ellipse cx="347.75" cy="27.0938" fill="#B4A7E5" rx="11" ry="11" style="stroke: #A80036; stroke-width: 1.0;"/><path d="M348.7031,23.7344 L348.7031,30.3906 L350.4219,30.3906 Q351.0313,30.3906 351.2969,30.625 Q351.5625,30.8594 351.5625,31.25 Q351.5625,31.625 351.2969,31.8594 Q351.0313,32.0938 350.4219,32.0938 L345.2813,32.0938 Q344.6719,32.0938 344.4063,31.8594 Q344.1406,31.625 344.1406,31.2344 Q344.1406,30.8594 344.4063,30.625 Q344.6719,30.3906 345.2813,30.3906 L347,30.3906 L347,23.7344 L345.2813,23.7344 Q344.6719,23.7344 344.4063,23.5 Q344.1406,23.2656 344.1406,22.875 Q344.1406,22.5 344.4063,22.2656 Q344.6719,22.0313 345.2813,22.0313 L350.4219,22.0313 Q351.0313,22.0313 351.2969,22.2656 Q351.5625,22.5 351.5625,22.875 Q351.5625,23.2656 351.2969,23.5 Q351.0313,23.7344 350.4219,23.7344 L348.7031,23.7344 Z "/><text fill="#000000" font-family="sans-serif" font-size="14" font-style="italic" lengthAdjust="spacingAndGlyphs" textLength="97" x="368.25" y="26.5332">TaskDescriptor</text><text fill="#000000" font-family="sans-serif" font-size="10" font-style="italic" lengthAdjust="spacingAndGlyphs" textLength="92" x="370.75" y="39.9902">org.eclipse.epf.uma</text><line style="stroke: #A80036; stroke-width: 1.5;" x1="258" x2="543" y1="47.1875" y2="47.1875"/><ellipse cx="268" cy="58.1875" fill="#84BE84" rx="3" ry="3" style="stroke: #038048; stroke-width: 1.0;"/><text fill="#000000" font-family="sans-serif" font-size="11" font-style="italic" lengthAdjust="spacingAndGlyphs" textLength="79" x="277" y="62.6064">getTask(): Task</text><ellipse cx="268" cy="72.0234" fill="#84BE84" rx="3" ry="3" style="stroke: #038048; stroke-width: 1.0;"/><text fill="#000000" font-family="sans-serif" font-size="11" font-style="italic" lengthAdjust="spacingAndGlyphs" textLength="99" x="277" y="76.4424">setTask(Task): void</text><ellipse cx="268" cy="85.8594" fill="#84BE84" rx="3" ry="3" style="stroke: #038048; stroke-width: 1.0;"/><text fill="#000000" font-family="sans-serif" font-size="11" font-style="italic" lengthAdjust="spacingAndGlyphs" textLength="261" x="277" y="90.2783">getAdditionallyPerformedBy(): EList&lt;RoleDescriptor&gt;</text><ellipse cx="268" cy="99.6953" fill="#84BE84" rx="3" ry="3" style="stroke: #038048; stroke-width: 1.0;"/><text fill="#000000" font-family="sans-serif" font-size="11" font-style="italic" lengthAdjust="spacingAndGlyphs" textLength="196" x="277" y="104.1143">getAssistedBy(): EList&lt;RoleDescriptor&gt;</text><ellipse cx="268" cy="113.5313" fill="#84BE84" rx="3" ry="3" style="stroke: #038048; stroke-width: 1.0;"/><text fill="#000000" font-family="sans-serif" font-size="11" font-style="italic" lengthAdjust="spacingAndGlyphs" textLength="248" x="277" y="117.9502">getExternalInput(): EList&lt;WorkProductDescriptor&gt;</text><ellipse cx="268" cy="127.3672" fill="#84BE84" rx="3" ry="3" style="stroke: #038048; stroke-width: 1.0;"/><text fill="#000000" font-family="sans-serif" font-size="11" font-style="italic" lengthAdjust="spacingAndGlyphs" textLength="258" x="277" y="131.7861">getMandatoryInput(): EList&lt;WorkProductDescriptor&gt;</text><ellipse cx="268" cy="141.2031" fill="#84BE84" rx="3" ry="3" style="stroke: #038048; stroke-width: 1.0;"/><text fill="#000000" font-family="sans-serif" font-size="11" font-style="italic" lengthAdjust="spacingAndGlyphs" textLength="249" x="277" y="145.6221">getOptionalInput(): EList&lt;WorkProductDescriptor&gt;</text><ellipse cx="268" cy="155.0391" fill="#84BE84" rx="3" ry="3" style="stroke: #038048; stroke-width: 1.0;"/><text fill="#000000" font-family="sans-serif" font-size="11" font-style="italic" lengthAdjust="spacingAndGlyphs" textLength="216" x="277" y="159.458">getOutput(): EList&lt;WorkProductDescriptor&gt;</text><ellipse cx="268" cy="168.875" fill="#84BE84" rx="3" ry="3" style="stroke: #038048; stroke-width: 1.0;"/><text fill="#000000" font-family="sans-serif" font-size="11" font-style="italic" lengthAdjust="spacingAndGlyphs" textLength="248" x="277" y="173.2939">getPerformedPrimarilyBy(): EList&lt;RoleDescriptor&gt;</text><ellipse cx="268" cy="182.7109" fill="#84BE84" rx="3" ry="3" style="stroke: #038048; stroke-width: 1.0;"/><text fill="#000000" font-family="sans-serif" font-size="11" font-style="italic" lengthAdjust="spacingAndGlyphs" textLength="174" x="277" y="187.1299">getSelectedSteps(): EList&lt;Section&gt;</text><ellipse cx="268" cy="196.5469" fill="#84BE84" rx="3" ry="3" style="stroke: #038048; stroke-width: 1.0;"/><text fill="#000000" font-family="sans-serif" font-size="11" font-style="italic" lengthAdjust="spacingAndGlyphs" textLength="242" x="277" y="200.9658">getPerformedPrimarilyByExcluded(): EList&lt;Role&gt;</text><ellipse cx="268" cy="210.3828" fill="#84BE84" rx="3" ry="3" style="stroke: #038048; stroke-width: 1.0;"/><text fill="#000000" font-family="sans-serif" font-size="11" font-style="italic" lengthAdjust="spacingAndGlyphs" textLength="249" x="277" y="214.8018">getAdditionallyPerformedByExclude(): EList&lt;Role&gt;</text><ellipse cx="268" cy="224.2188" fill="#84BE84" rx="3" ry="3" style="stroke: #038048; stroke-width: 1.0;"/><text fill="#000000" font-family="sans-serif" font-size="11" font-style="italic" lengthAdjust="spacingAndGlyphs" textLength="246" x="277" y="228.6377">getMandatoryInputExclude(): EList&lt;WorkProduct&gt;</text><ellipse cx="268" cy="238.0547" fill="#84BE84" rx="3" ry="3" style="stroke: #038048; stroke-width: 1.0;"/><text fill="#000000" font-family="sans-serif" font-size="11" font-style="italic" lengthAdjust="spacingAndGlyphs" textLength="237" x="277" y="242.4736">getOptionalInputExclude(): EList&lt;WorkProduct&gt;</text><ellipse cx="268" cy="251.8906" fill="#84BE84" rx="3" ry="3" style="stroke: #038048; stroke-width: 1.0;"/><text fill="#000000" font-family="sans-serif" font-size="11" font-style="italic" lengthAdjust="spacingAndGlyphs" textLength="204" x="277" y="256.3096">getOutputExclude(): EList&lt;WorkProduct&gt;</text><ellipse cx="268" cy="265.7266" fill="#84BE84" rx="3" ry="3" style="stroke: #038048; stroke-width: 1.0;"/><text fill="#000000" font-family="sans-serif" font-size="11" font-style="italic" lengthAdjust="spacingAndGlyphs" textLength="214" x="277" y="270.1455">getSelectedStepsExclude(): EList&lt;Section&gt;</text></a><!--MD5=[ec5a64f5954b87d217ff2a9e781eb802]
reverse link org.eclipse.epf.uma.impl.WorkBreakdownElementImpl to org.eclipse.epf.uma.impl.TaskDescriptorImpl--><path codeLine="55" d="M128.03,181.23 C141.09,218.12 161.94,277.04 183.14,336.91 " fill="none" id="org.eclipse.epf.uma.impl.WorkBreakdownElementImpl-backto-org.eclipse.epf.uma.impl.TaskDescriptorImpl" style="stroke: #A80036; stroke-width: 1.0;"/><polygon fill="none" points="121.38,183.4,121.3,162.21,134.57,178.73,121.38,183.4" style="stroke: #A80036; stroke-width: 1.0;"/><!--MD5=[d57289bfdcb1f8be146ef995ca8aee7e]
reverse link org.eclipse.epf.uma.TaskDescriptor to org.eclipse.epf.uma.impl.TaskDescriptorImpl--><path codeLine="56" d="M346.21,296.39 C341.52,309.62 336.74,323.14 331.93,336.72 " fill="none" id="org.eclipse.epf.uma.TaskDescriptor-backto-org.eclipse.epf.uma.impl.TaskDescriptorImpl" style="stroke: #A80036; stroke-width: 1.0; stroke-dasharray: 7.0,7.0;"/><polygon fill="none" points="339.71,293.76,352.98,277.25,352.91,298.44,339.71,293.76" style="stroke: #A80036; stroke-width: 1.0;"/><text fill="#888888" font-family="sans-serif" font-size="10" lengthAdjust="spacingAndGlyphs" textLength="190" x="177.5" y="782.1387">UMLDoclet 2.0.12, PlantUML 1.2020.16</text><!--MD5=[509ee2a87fda44901e25c3233c54aa8b]
@startuml
    set namespaceSeparator none
    hide empty fields
    hide empty methods

    class "<size:14>TaskDescriptorImpl\n<size:10>org.eclipse.epf.uma.impl" as org.eclipse.epf.uma.impl.TaskDescriptorImpl [[TaskDescriptorImpl.html]] {
        +getIsSynchronizedWithSource(): Boolean
        +setIsSynchronizedWithSource(Boolean): void
        +getGuidanceExclude(): EList<Guidance>
        +getGuidanceAdditional(): EList<Guidance>
        +getTask(): Task
        +basicGetTask(): Task
        +setTask(Task): void
        +getAdditionallyPerformedBy(): EList<RoleDescriptor>
        +getAssistedBy(): EList<RoleDescriptor>
        +getExternalInput(): EList<WorkProductDescriptor>
        +getMandatoryInput(): EList<WorkProductDescriptor>
        +getOptionalInput(): EList<WorkProductDescriptor>
        +getOutput(): EList<WorkProductDescriptor>
        +getPerformedPrimarilyBy(): EList<RoleDescriptor>
        +getSelectedSteps(): EList<Section>
        +getPerformedPrimarilyByExcluded(): EList<Role>
        +getAdditionallyPerformedByExclude(): EList<Role>
        +getMandatoryInputExclude(): EList<WorkProduct>
        +getOptionalInputExclude(): EList<WorkProduct>
        +getOutputExclude(): EList<WorkProduct>
        +getSelectedStepsExclude(): EList<Section>
        +eGet(int, boolean, boolean): Object
        +eSet(int, Object): void
        +eUnset(int): void
        +eIsSet(int): boolean
        +eBaseStructuralFeatureID(int, Class<?>): int
        +eDerivedStructuralFeatureID(int, Class<?>): int
    }

    abstract class "<size:14>WorkBreakdownElementImpl\n<size:10>org.eclipse.epf.uma.impl" as org.eclipse.epf.uma.impl.WorkBreakdownElementImpl [[WorkBreakdownElementImpl.html]]
    interface "<size:14>TaskDescriptor\n<size:10>org.eclipse.epf.uma" as org.eclipse.epf.uma.TaskDescriptor [[..\TaskDescriptor.html]] {
        {abstract} +getTask(): Task
        {abstract} +setTask(Task): void
        {abstract} +getAdditionallyPerformedBy(): EList<RoleDescriptor>
        {abstract} +getAssistedBy(): EList<RoleDescriptor>
        {abstract} +getExternalInput(): EList<WorkProductDescriptor>
        {abstract} +getMandatoryInput(): EList<WorkProductDescriptor>
        {abstract} +getOptionalInput(): EList<WorkProductDescriptor>
        {abstract} +getOutput(): EList<WorkProductDescriptor>
        {abstract} +getPerformedPrimarilyBy(): EList<RoleDescriptor>
        {abstract} +getSelectedSteps(): EList<Section>
        {abstract} +getPerformedPrimarilyByExcluded(): EList<Role>
        {abstract} +getAdditionallyPerformedByExclude(): EList<Role>
        {abstract} +getMandatoryInputExclude(): EList<WorkProduct>
        {abstract} +getOptionalInputExclude(): EList<WorkProduct>
        {abstract} +getOutputExclude(): EList<WorkProduct>
        {abstract} +getSelectedStepsExclude(): EList<Section>
    }

    org.eclipse.epf.uma.impl.WorkBreakdownElementImpl <|- - org.eclipse.epf.uma.impl.TaskDescriptorImpl
    org.eclipse.epf.uma.TaskDescriptor <|.. org.eclipse.epf.uma.impl.TaskDescriptorImpl

    center footer UMLDoclet 2.0.12, PlantUML 1.2020.16
@enduml

PlantUML version 1.2020.16(Sun Aug 23 22:20:43 CEST 2020)
(APACHE source distribution)
Java Runtime: Java(TM) SE Runtime Environment
JVM: Java HotSpot(TM) 64-Bit Server VM
Default Encoding: Cp1252
Language: es
Country: ES
--></g></svg>