<?xml version="1.0" encoding="UTF-8" standalone="no"?><svg xmlns="http://www.w3.org/2000/svg" xmlns:xlink="http://www.w3.org/1999/xlink" contentScriptType="application/ecmascript" contentStyleType="text/css" height="629px" preserveAspectRatio="none" style="width:566px;height:629px;" version="1.1" viewBox="0 0 566 629" width="566px" zoomAndPan="magnify"><defs><filter height="300%" id="f7anl1bahai5t" width="300%" x="-1" y="-1"><feGaussianBlur result="blurOut" stdDeviation="2.0"/><feColorMatrix in="blurOut" result="blurOut2" type="matrix" values="0 0 0 0 0 0 0 0 0 0 0 0 0 0 0 0 0 0 .4 0"/><feOffset dx="4.0" dy="4.0" in="blurOut2" result="blurOut3"/><feBlend in="SourceGraphic" in2="blurOut3" mode="normal"/></filter></defs><g><!--MD5=[d016608bdf60c447a58e56790821cd7e]
class org.eclipse.epf.uma.impl.TaskImpl--><a href="TaskImpl.html" target="_top" title="TaskImpl.html" xlink:actuate="onRequest" xlink:href="TaskImpl.html" xlink:show="new" xlink:title="TaskImpl.html" xlink:type="simple"><rect codeLine="5" fill="#FEFECE" filter="url(#f7anl1bahai5t)" height="366.4141" id="org.eclipse.epf.uma.impl.TaskImpl" style="stroke: #A80036; stroke-width: 1.5;" width="376" x="42.5" y="226"/><ellipse cx="167.25" cy="246.0938" fill="#ADD1B2" rx="11" ry="11" style="stroke: #A80036; stroke-width: 1.0;"/><path d="M170.0156,241.9688 Q170.1719,241.75 170.3594,241.6406 Q170.5469,241.5313 170.7656,241.5313 Q171.1406,241.5313 171.375,241.7969 Q171.6094,242.0469 171.6094,242.6563 L171.6094,244.1094 Q171.6094,244.7188 171.375,244.9844 Q171.1406,245.25 170.7656,245.25 Q170.4219,245.25 170.2188,245.0469 Q170.0156,244.8594 169.9063,244.3438 Q169.8594,243.9844 169.6719,243.7969 Q169.3438,243.4219 168.7344,243.2031 Q168.125,242.9844 167.5,242.9844 Q166.7344,242.9844 166.0938,243.3125 Q165.4688,243.6406 164.9688,244.3906 Q164.4844,245.1406 164.4844,246.1719 L164.4844,247.2656 Q164.4844,248.5 165.375,249.3281 Q166.2656,250.1406 167.8594,250.1406 Q168.7969,250.1406 169.4531,249.8906 Q169.8438,249.7344 170.2656,249.2969 Q170.5313,249.0313 170.6719,248.9531 Q170.8281,248.875 171.0313,248.875 Q171.3594,248.875 171.6094,249.1406 Q171.875,249.3906 171.875,249.7344 Q171.875,250.0781 171.5313,250.4844 Q171.0313,251.0625 170.2344,251.3906 Q169.1563,251.8438 167.8594,251.8438 Q166.3438,251.8438 165.1406,251.2188 Q164.1563,250.7188 163.4688,249.6563 Q162.7813,248.5781 162.7813,247.2969 L162.7813,246.1406 Q162.7813,244.8125 163.3906,243.6719 Q164.0156,242.5156 165.1094,241.9063 Q166.2031,241.2813 167.4375,241.2813 Q168.1719,241.2813 168.8125,241.4531 Q169.4688,241.6094 170.0156,241.9688 Z "/><text fill="#000000" font-family="sans-serif" font-size="14" lengthAdjust="spacingAndGlyphs" textLength="56" x="218.75" y="245.5332">TaskImpl</text><text fill="#000000" font-family="sans-serif" font-size="10" lengthAdjust="spacingAndGlyphs" textLength="118" x="187.75" y="258.9902">org.eclipse.epf.uma.impl</text><line style="stroke: #A80036; stroke-width: 1.5;" x1="43.5" x2="417.5" y1="266.1875" y2="266.1875"/><ellipse cx="53.5" cy="277.1875" fill="#84BE84" rx="3" ry="3" style="stroke: #038048; stroke-width: 1.0;"/><text fill="#000000" font-family="sans-serif" font-size="11" lengthAdjust="spacingAndGlyphs" textLength="137" x="62.5" y="281.6064">getPrecondition(): Constraint</text><ellipse cx="53.5" cy="291.0234" fill="#84BE84" rx="3" ry="3" style="stroke: #038048; stroke-width: 1.0;"/><text fill="#000000" font-family="sans-serif" font-size="11" lengthAdjust="spacingAndGlyphs" textLength="165" x="62.5" y="295.4424">basicGetPrecondition(): Constraint</text><ellipse cx="53.5" cy="304.8594" fill="#84BE84" rx="3" ry="3" style="stroke: #038048; stroke-width: 1.0;"/><text fill="#000000" font-family="sans-serif" font-size="11" lengthAdjust="spacingAndGlyphs" textLength="330" x="62.5" y="309.2783">basicSetPrecondition(Constraint, NotificationChain): NotificationChain</text><ellipse cx="53.5" cy="318.6953" fill="#84BE84" rx="3" ry="3" style="stroke: #038048; stroke-width: 1.0;"/><text fill="#000000" font-family="sans-serif" font-size="11" lengthAdjust="spacingAndGlyphs" textLength="157" x="62.5" y="323.1143">setPrecondition(Constraint): void</text><ellipse cx="53.5" cy="332.5313" fill="#84BE84" rx="3" ry="3" style="stroke: #038048; stroke-width: 1.0;"/><text fill="#000000" font-family="sans-serif" font-size="11" lengthAdjust="spacingAndGlyphs" textLength="142" x="62.5" y="336.9502">getPostcondition(): Constraint</text><ellipse cx="53.5" cy="346.3672" fill="#84BE84" rx="3" ry="3" style="stroke: #038048; stroke-width: 1.0;"/><text fill="#000000" font-family="sans-serif" font-size="11" lengthAdjust="spacingAndGlyphs" textLength="170" x="62.5" y="350.7861">basicGetPostcondition(): Constraint</text><ellipse cx="53.5" cy="360.2031" fill="#84BE84" rx="3" ry="3" style="stroke: #038048; stroke-width: 1.0;"/><text fill="#000000" font-family="sans-serif" font-size="11" lengthAdjust="spacingAndGlyphs" textLength="335" x="62.5" y="364.6221">basicSetPostcondition(Constraint, NotificationChain): NotificationChain</text><ellipse cx="53.5" cy="374.0391" fill="#84BE84" rx="3" ry="3" style="stroke: #038048; stroke-width: 1.0;"/><text fill="#000000" font-family="sans-serif" font-size="11" lengthAdjust="spacingAndGlyphs" textLength="162" x="62.5" y="378.458">setPostcondition(Constraint): void</text><ellipse cx="53.5" cy="387.875" fill="#84BE84" rx="3" ry="3" style="stroke: #038048; stroke-width: 1.0;"/><text fill="#000000" font-family="sans-serif" font-size="11" lengthAdjust="spacingAndGlyphs" textLength="148" x="62.5" y="392.2939">getPerformedBy(): EList&lt;Role&gt;</text><ellipse cx="53.5" cy="401.7109" fill="#84BE84" rx="3" ry="3" style="stroke: #038048; stroke-width: 1.0;"/><text fill="#000000" font-family="sans-serif" font-size="11" lengthAdjust="spacingAndGlyphs" textLength="200" x="62.5" y="406.1299">getMandatoryInput(): EList&lt;WorkProduct&gt;</text><ellipse cx="53.5" cy="415.5469" fill="#84BE84" rx="3" ry="3" style="stroke: #038048; stroke-width: 1.0;"/><text fill="#000000" font-family="sans-serif" font-size="11" lengthAdjust="spacingAndGlyphs" textLength="158" x="62.5" y="419.9658">getOutput(): EList&lt;WorkProduct&gt;</text><ellipse cx="53.5" cy="429.3828" fill="#84BE84" rx="3" ry="3" style="stroke: #038048; stroke-width: 1.0;"/><text fill="#000000" font-family="sans-serif" font-size="11" lengthAdjust="spacingAndGlyphs" textLength="203" x="62.5" y="433.8018">getAdditionallyPerformedBy(): EList&lt;Role&gt;</text><ellipse cx="53.5" cy="443.2188" fill="#84BE84" rx="3" ry="3" style="stroke: #038048; stroke-width: 1.0;"/><text fill="#000000" font-family="sans-serif" font-size="11" lengthAdjust="spacingAndGlyphs" textLength="188" x="62.5" y="447.6377">getOptionalInput(): EList&lt;WorkProduct&gt;</text><ellipse cx="53.5" cy="457.0547" fill="#84BE84" rx="3" ry="3" style="stroke: #038048; stroke-width: 1.0;"/><text fill="#000000" font-family="sans-serif" font-size="11" lengthAdjust="spacingAndGlyphs" textLength="114" x="62.5" y="461.4736">getSteps(): EList&lt;Step&gt;</text><ellipse cx="53.5" cy="470.8906" fill="#84BE84" rx="3" ry="3" style="stroke: #038048; stroke-width: 1.0;"/><text fill="#000000" font-family="sans-serif" font-size="11" lengthAdjust="spacingAndGlyphs" textLength="176" x="62.5" y="475.3096">getToolMentors(): EList&lt;ToolMentor&gt;</text><ellipse cx="53.5" cy="484.7266" fill="#84BE84" rx="3" ry="3" style="stroke: #038048; stroke-width: 1.0;"/><text fill="#000000" font-family="sans-serif" font-size="11" lengthAdjust="spacingAndGlyphs" textLength="304" x="62.5" y="489.1455">getEstimationConsiderations(): EList&lt;EstimationConsiderations&gt;</text><ellipse cx="53.5" cy="498.5625" fill="#84BE84" rx="3" ry="3" style="stroke: #038048; stroke-width: 1.0;"/><text fill="#000000" font-family="sans-serif" font-size="11" lengthAdjust="spacingAndGlyphs" textLength="350" x="62.5" y="502.9814">eInverseRemove(InternalEObject, int, NotificationChain): NotificationChain</text><ellipse cx="53.5" cy="512.3984" fill="#84BE84" rx="3" ry="3" style="stroke: #038048; stroke-width: 1.0;"/><text fill="#000000" font-family="sans-serif" font-size="11" lengthAdjust="spacingAndGlyphs" textLength="167" x="62.5" y="516.8174">eGet(int, boolean, boolean): Object</text><ellipse cx="53.5" cy="526.2344" fill="#84BE84" rx="3" ry="3" style="stroke: #038048; stroke-width: 1.0;"/><text fill="#000000" font-family="sans-serif" font-size="11" lengthAdjust="spacingAndGlyphs" textLength="104" x="62.5" y="530.6533">eSet(int, Object): void</text><ellipse cx="53.5" cy="540.0703" fill="#84BE84" rx="3" ry="3" style="stroke: #038048; stroke-width: 1.0;"/><text fill="#000000" font-family="sans-serif" font-size="11" lengthAdjust="spacingAndGlyphs" textLength="79" x="62.5" y="544.4893">eUnset(int): void</text><ellipse cx="53.5" cy="553.9063" fill="#84BE84" rx="3" ry="3" style="stroke: #038048; stroke-width: 1.0;"/><text fill="#000000" font-family="sans-serif" font-size="11" lengthAdjust="spacingAndGlyphs" textLength="93" x="62.5" y="558.3252">eIsSet(int): boolean</text><ellipse cx="53.5" cy="567.7422" fill="#84BE84" rx="3" ry="3" style="stroke: #038048; stroke-width: 1.0;"/><text fill="#000000" font-family="sans-serif" font-size="11" lengthAdjust="spacingAndGlyphs" textLength="211" x="62.5" y="572.1611">eBaseStructuralFeatureID(int, Class&lt;?&gt;): int</text><ellipse cx="53.5" cy="581.5781" fill="#84BE84" rx="3" ry="3" style="stroke: #038048; stroke-width: 1.0;"/><text fill="#000000" font-family="sans-serif" font-size="11" lengthAdjust="spacingAndGlyphs" textLength="223" x="62.5" y="585.9971">eDerivedStructuralFeatureID(int, Class&lt;?&gt;): int</text></a><!--MD5=[756787a8587a7ade10dd365aa5346d02]
class org.eclipse.epf.uma.impl.ContentElementImpl--><a href="ContentElementImpl.html" target="_top" title="ContentElementImpl.html" xlink:actuate="onRequest" xlink:href="ContentElementImpl.html" xlink:show="new" xlink:title="ContentElementImpl.html" xlink:type="simple"><rect codeLine="31" fill="#FEFECE" filter="url(#f7anl1bahai5t)" height="40.1875" id="org.eclipse.epf.uma.impl.ContentElementImpl" style="stroke: #A80036; stroke-width: 1.5;" width="159" x="7" y="66.5"/><ellipse cx="22" cy="86.5938" fill="#A9DCDF" rx="11" ry="11" style="stroke: #A80036; stroke-width: 1.0;"/><path d="M24.1875,88.3594 L20.0469,88.3594 L19.625,89.3906 L20.0469,89.3906 Q20.6563,89.3906 20.9219,89.625 Q21.1875,89.8594 21.1875,90.25 Q21.1875,90.625 20.9219,90.8594 Q20.6563,91.0938 20.0469,91.0938 L17.75,91.0938 Q17.1406,91.0938 16.8906,90.8594 Q16.625,90.625 16.625,90.2344 Q16.625,89.8594 16.9063,89.625 Q17.1719,89.375 17.7969,89.3906 L20.4688,82.7344 L19.3594,82.7344 Q18.75,82.7344 18.4844,82.5 Q18.2188,82.2656 18.2188,81.875 Q18.2188,81.5 18.4844,81.2656 Q18.75,81.0313 19.3594,81.0313 L23.0313,81.0313 L26.4219,89.3906 Q27.0156,89.3906 27.2031,89.5313 Q27.5938,89.7969 27.5938,90.25 Q27.5938,90.625 27.3281,90.8594 Q27.0781,91.0938 26.4688,91.0938 L24.1719,91.0938 Q23.5625,91.0938 23.2969,90.8594 Q23.0313,90.625 23.0313,90.2344 Q23.0313,89.8594 23.2969,89.625 Q23.5625,89.3906 24.1719,89.3906 L24.5938,89.3906 L24.1875,88.3594 Z M23.4688,86.6563 L22.1094,83.2813 L20.7344,86.6563 L23.4688,86.6563 Z "/><text fill="#000000" font-family="sans-serif" font-size="14" font-style="italic" lengthAdjust="spacingAndGlyphs" textLength="127" x="36" y="86.0332">ContentElementImpl</text><text fill="#000000" font-family="sans-serif" font-size="10" font-style="italic" lengthAdjust="spacingAndGlyphs" textLength="114" x="42.5" y="99.4902">org.eclipse.epf.uma.impl</text></a><!--MD5=[2b800bb74785722aa0697182a8bc0784]
class org.eclipse.epf.uma.Task--><a href="..\Task.html" target="_top" title="..\Task.html" xlink:actuate="onRequest" xlink:href="..\Task.html" xlink:show="new" xlink:title="..\Task.html" xlink:type="simple"><rect codeLine="32" fill="#FEFECE" filter="url(#f7anl1bahai5t)" height="158.875" id="org.eclipse.epf.uma.Task" style="stroke: #A80036; stroke-width: 1.5;" width="346" x="201.5" y="7"/><ellipse cx="324.25" cy="27.0938" fill="#B4A7E5" rx="11" ry="11" style="stroke: #A80036; stroke-width: 1.0;"/><path d="M325.2031,23.7344 L325.2031,30.3906 L326.9219,30.3906 Q327.5313,30.3906 327.7969,30.625 Q328.0625,30.8594 328.0625,31.25 Q328.0625,31.625 327.7969,31.8594 Q327.5313,32.0938 326.9219,32.0938 L321.7813,32.0938 Q321.1719,32.0938 320.9063,31.8594 Q320.6406,31.625 320.6406,31.2344 Q320.6406,30.8594 320.9063,30.625 Q321.1719,30.3906 321.7813,30.3906 L323.5,30.3906 L323.5,23.7344 L321.7813,23.7344 Q321.1719,23.7344 320.9063,23.5 Q320.6406,23.2656 320.6406,22.875 Q320.6406,22.5 320.9063,22.2656 Q321.1719,22.0313 321.7813,22.0313 L326.9219,22.0313 Q327.5313,22.0313 327.7969,22.2656 Q328.0625,22.5 328.0625,22.875 Q328.0625,23.2656 327.7969,23.5 Q327.5313,23.7344 326.9219,23.7344 L325.2031,23.7344 Z "/><text fill="#000000" font-family="sans-serif" font-size="14" font-style="italic" lengthAdjust="spacingAndGlyphs" textLength="32" x="374.75" y="26.5332">Task</text><text fill="#000000" font-family="sans-serif" font-size="10" font-style="italic" lengthAdjust="spacingAndGlyphs" textLength="92" x="344.75" y="39.9902">org.eclipse.epf.uma</text><line style="stroke: #A80036; stroke-width: 1.5;" x1="202.5" x2="546.5" y1="47.1875" y2="47.1875"/><ellipse cx="212.5" cy="58.1875" fill="#84BE84" rx="3" ry="3" style="stroke: #038048; stroke-width: 1.0;"/><text fill="#000000" font-family="sans-serif" font-size="11" font-style="italic" lengthAdjust="spacingAndGlyphs" textLength="152" x="221.5" y="62.6064">getPerformedBy(): EList&lt;Role&gt;</text><ellipse cx="212.5" cy="72.0234" fill="#84BE84" rx="3" ry="3" style="stroke: #038048; stroke-width: 1.0;"/><text fill="#000000" font-family="sans-serif" font-size="11" font-style="italic" lengthAdjust="spacingAndGlyphs" textLength="206" x="221.5" y="76.4424">getMandatoryInput(): EList&lt;WorkProduct&gt;</text><ellipse cx="212.5" cy="85.8594" fill="#84BE84" rx="3" ry="3" style="stroke: #038048; stroke-width: 1.0;"/><text fill="#000000" font-family="sans-serif" font-size="11" font-style="italic" lengthAdjust="spacingAndGlyphs" textLength="164" x="221.5" y="90.2783">getOutput(): EList&lt;WorkProduct&gt;</text><ellipse cx="212.5" cy="99.6953" fill="#84BE84" rx="3" ry="3" style="stroke: #038048; stroke-width: 1.0;"/><text fill="#000000" font-family="sans-serif" font-size="11" font-style="italic" lengthAdjust="spacingAndGlyphs" textLength="209" x="221.5" y="104.1143">getAdditionallyPerformedBy(): EList&lt;Role&gt;</text><ellipse cx="212.5" cy="113.5313" fill="#84BE84" rx="3" ry="3" style="stroke: #038048; stroke-width: 1.0;"/><text fill="#000000" font-family="sans-serif" font-size="11" font-style="italic" lengthAdjust="spacingAndGlyphs" textLength="197" x="221.5" y="117.9502">getOptionalInput(): EList&lt;WorkProduct&gt;</text><ellipse cx="212.5" cy="127.3672" fill="#84BE84" rx="3" ry="3" style="stroke: #038048; stroke-width: 1.0;"/><text fill="#000000" font-family="sans-serif" font-size="11" font-style="italic" lengthAdjust="spacingAndGlyphs" textLength="116" x="221.5" y="131.7861">getSteps(): EList&lt;Step&gt;</text><ellipse cx="212.5" cy="141.2031" fill="#84BE84" rx="3" ry="3" style="stroke: #038048; stroke-width: 1.0;"/><text fill="#000000" font-family="sans-serif" font-size="11" font-style="italic" lengthAdjust="spacingAndGlyphs" textLength="184" x="221.5" y="145.6221">getToolMentors(): EList&lt;ToolMentor&gt;</text><ellipse cx="212.5" cy="155.0391" fill="#84BE84" rx="3" ry="3" style="stroke: #038048; stroke-width: 1.0;"/><text fill="#000000" font-family="sans-serif" font-size="11" font-style="italic" lengthAdjust="spacingAndGlyphs" textLength="320" x="221.5" y="159.458">getEstimationConsiderations(): EList&lt;EstimationConsiderations&gt;</text></a><!--MD5=[52491e78ecafb9f7bda8d898f2953860]
reverse link org.eclipse.epf.uma.impl.ContentElementImpl to org.eclipse.epf.uma.impl.TaskImpl--><path codeLine="43" d="M103.31,124.92 C114.97,150.87 131.45,187.55 148.69,225.92 " fill="none" id="org.eclipse.epf.uma.impl.ContentElementImpl-backto-org.eclipse.epf.uma.impl.TaskImpl" style="stroke: #A80036; stroke-width: 1.0;"/><polygon fill="none" points="96.89,127.7,95.08,106.59,109.66,121.96,96.89,127.7" style="stroke: #A80036; stroke-width: 1.0;"/><!--MD5=[473bfc03e822bd57909ccfd1ecb95a52]
reverse link org.eclipse.epf.uma.Task to org.eclipse.epf.uma.impl.TaskImpl--><path codeLine="44" d="M330.71,184.95 C324.84,198.03 318.66,211.77 312.39,225.75 " fill="none" id="org.eclipse.epf.uma.Task-backto-org.eclipse.epf.uma.impl.TaskImpl" style="stroke: #A80036; stroke-width: 1.0; stroke-dasharray: 7.0,7.0;"/><polygon fill="none" points="324.51,181.69,339.09,166.31,337.28,187.43,324.51,181.69" style="stroke: #A80036; stroke-width: 1.0;"/><text fill="#888888" font-family="sans-serif" font-size="10" lengthAdjust="spacingAndGlyphs" textLength="190" x="179.25" y="615.7949">UMLDoclet 2.0.12, PlantUML 1.2020.16</text><!--MD5=[2a032e2956ddbe0c73119e61b5160359]
@startuml
    set namespaceSeparator none
    hide empty fields
    hide empty methods

    class "<size:14>TaskImpl\n<size:10>org.eclipse.epf.uma.impl" as org.eclipse.epf.uma.impl.TaskImpl [[TaskImpl.html]] {
        +getPrecondition(): Constraint
        +basicGetPrecondition(): Constraint
        +basicSetPrecondition(Constraint, NotificationChain): NotificationChain
        +setPrecondition(Constraint): void
        +getPostcondition(): Constraint
        +basicGetPostcondition(): Constraint
        +basicSetPostcondition(Constraint, NotificationChain): NotificationChain
        +setPostcondition(Constraint): void
        +getPerformedBy(): EList<Role>
        +getMandatoryInput(): EList<WorkProduct>
        +getOutput(): EList<WorkProduct>
        +getAdditionallyPerformedBy(): EList<Role>
        +getOptionalInput(): EList<WorkProduct>
        +getSteps(): EList<Step>
        +getToolMentors(): EList<ToolMentor>
        +getEstimationConsiderations(): EList<EstimationConsiderations>
        +eInverseRemove(InternalEObject, int, NotificationChain): NotificationChain
        +eGet(int, boolean, boolean): Object
        +eSet(int, Object): void
        +eUnset(int): void
        +eIsSet(int): boolean
        +eBaseStructuralFeatureID(int, Class<?>): int
        +eDerivedStructuralFeatureID(int, Class<?>): int
    }

    abstract class "<size:14>ContentElementImpl\n<size:10>org.eclipse.epf.uma.impl" as org.eclipse.epf.uma.impl.ContentElementImpl [[ContentElementImpl.html]]
    interface "<size:14>Task\n<size:10>org.eclipse.epf.uma" as org.eclipse.epf.uma.Task [[..\Task.html]] {
        {abstract} +getPerformedBy(): EList<Role>
        {abstract} +getMandatoryInput(): EList<WorkProduct>
        {abstract} +getOutput(): EList<WorkProduct>
        {abstract} +getAdditionallyPerformedBy(): EList<Role>
        {abstract} +getOptionalInput(): EList<WorkProduct>
        {abstract} +getSteps(): EList<Step>
        {abstract} +getToolMentors(): EList<ToolMentor>
        {abstract} +getEstimationConsiderations(): EList<EstimationConsiderations>
    }

    org.eclipse.epf.uma.impl.ContentElementImpl <|- - org.eclipse.epf.uma.impl.TaskImpl
    org.eclipse.epf.uma.Task <|.. org.eclipse.epf.uma.impl.TaskImpl

    center footer UMLDoclet 2.0.12, PlantUML 1.2020.16
@enduml

PlantUML version 1.2020.16(Sun Aug 23 22:20:43 CEST 2020)
(APACHE source distribution)
Java Runtime: Java(TM) SE Runtime Environment
JVM: Java HotSpot(TM) 64-Bit Server VM
Default Encoding: Cp1252
Language: es
Country: ES
--></g></svg>