<?xml version="1.0" encoding="UTF-8" standalone="no"?><svg xmlns="http://www.w3.org/2000/svg" xmlns:xlink="http://www.w3.org/1999/xlink" contentScriptType="application/ecmascript" contentStyleType="text/css" height="422px" preserveAspectRatio="none" style="width:465px;height:422px;" version="1.1" viewBox="0 0 465 422" width="465px" zoomAndPan="magnify"><defs><filter height="300%" id="f1bhpcyfjqj3dt" width="300%" x="-1" y="-1"><feGaussianBlur result="blurOut" stdDeviation="2.0"/><feColorMatrix in="blurOut" result="blurOut2" type="matrix" values="0 0 0 0 0 0 0 0 0 0 0 0 0 0 0 0 0 0 .4 0"/><feOffset dx="4.0" dy="4.0" in="blurOut2" result="blurOut3"/><feBlend in="SourceGraphic" in2="blurOut3" mode="normal"/></filter></defs><g><!--MD5=[0fc82305ab1294a2eb887e8ec7238bb8]
class org.eclipse.epf.uma.impl.TeamProfileImpl--><a href="TeamProfileImpl.html" target="_top" title="TeamProfileImpl.html" xlink:actuate="onRequest" xlink:href="TeamProfileImpl.html" xlink:show="new" xlink:title="TeamProfileImpl.html" xlink:type="simple"><rect codeLine="5" fill="#FEFECE" filter="url(#f1bhpcyfjqj3dt)" height="214.2188" id="org.eclipse.epf.uma.impl.TeamProfileImpl" style="stroke: #A80036; stroke-width: 1.5;" width="376" x="27" y="171"/><ellipse cx="151.75" cy="191.0938" fill="#ADD1B2" rx="11" ry="11" style="stroke: #A80036; stroke-width: 1.0;"/><path d="M154.5156,186.9688 Q154.6719,186.75 154.8594,186.6406 Q155.0469,186.5313 155.2656,186.5313 Q155.6406,186.5313 155.875,186.7969 Q156.1094,187.0469 156.1094,187.6563 L156.1094,189.1094 Q156.1094,189.7188 155.875,189.9844 Q155.6406,190.25 155.2656,190.25 Q154.9219,190.25 154.7188,190.0469 Q154.5156,189.8594 154.4063,189.3438 Q154.3594,188.9844 154.1719,188.7969 Q153.8438,188.4219 153.2344,188.2031 Q152.625,187.9844 152,187.9844 Q151.2344,187.9844 150.5938,188.3125 Q149.9688,188.6406 149.4688,189.3906 Q148.9844,190.1406 148.9844,191.1719 L148.9844,192.2656 Q148.9844,193.5 149.875,194.3281 Q150.7656,195.1406 152.3594,195.1406 Q153.2969,195.1406 153.9531,194.8906 Q154.3438,194.7344 154.7656,194.2969 Q155.0313,194.0313 155.1719,193.9531 Q155.3281,193.875 155.5313,193.875 Q155.8594,193.875 156.1094,194.1406 Q156.375,194.3906 156.375,194.7344 Q156.375,195.0781 156.0313,195.4844 Q155.5313,196.0625 154.7344,196.3906 Q153.6563,196.8438 152.3594,196.8438 Q150.8438,196.8438 149.6406,196.2188 Q148.6563,195.7188 147.9688,194.6563 Q147.2813,193.5781 147.2813,192.2969 L147.2813,191.1406 Q147.2813,189.8125 147.8906,188.6719 Q148.5156,187.5156 149.6094,186.9063 Q150.7031,186.2813 151.9375,186.2813 Q152.6719,186.2813 153.3125,186.4531 Q153.9688,186.6094 154.5156,186.9688 Z "/><text fill="#000000" font-family="sans-serif" font-size="14" lengthAdjust="spacingAndGlyphs" textLength="101" x="180.75" y="190.5332">TeamProfileImpl</text><text fill="#000000" font-family="sans-serif" font-size="10" lengthAdjust="spacingAndGlyphs" textLength="118" x="172.25" y="203.9902">org.eclipse.epf.uma.impl</text><line style="stroke: #A80036; stroke-width: 1.5;" x1="28" x2="402" y1="211.1875" y2="211.1875"/><ellipse cx="38" cy="222.1875" fill="#84BE84" rx="3" ry="3" style="stroke: #038048; stroke-width: 1.0;"/><text fill="#000000" font-family="sans-serif" font-size="11" lengthAdjust="spacingAndGlyphs" textLength="188" x="47" y="226.6064">getTeamRoles(): EList&lt;RoleDescriptor&gt;</text><ellipse cx="38" cy="236.0234" fill="#84BE84" rx="3" ry="3" style="stroke: #038048; stroke-width: 1.0;"/><text fill="#000000" font-family="sans-serif" font-size="11" lengthAdjust="spacingAndGlyphs" textLength="140" x="47" y="240.4424">getSuperTeam(): TeamProfile</text><ellipse cx="38" cy="249.8594" fill="#84BE84" rx="3" ry="3" style="stroke: #038048; stroke-width: 1.0;"/><text fill="#000000" font-family="sans-serif" font-size="11" lengthAdjust="spacingAndGlyphs" textLength="168" x="47" y="254.2783">basicGetSuperTeam(): TeamProfile</text><ellipse cx="38" cy="263.6953" fill="#84BE84" rx="3" ry="3" style="stroke: #038048; stroke-width: 1.0;"/><text fill="#000000" font-family="sans-serif" font-size="11" lengthAdjust="spacingAndGlyphs" textLength="333" x="47" y="268.1143">basicSetSuperTeam(TeamProfile, NotificationChain): NotificationChain</text><ellipse cx="38" cy="277.5313" fill="#84BE84" rx="3" ry="3" style="stroke: #038048; stroke-width: 1.0;"/><text fill="#000000" font-family="sans-serif" font-size="11" lengthAdjust="spacingAndGlyphs" textLength="160" x="47" y="281.9502">setSuperTeam(TeamProfile): void</text><ellipse cx="38" cy="291.3672" fill="#84BE84" rx="3" ry="3" style="stroke: #038048; stroke-width: 1.0;"/><text fill="#000000" font-family="sans-serif" font-size="11" lengthAdjust="spacingAndGlyphs" textLength="165" x="47" y="295.7861">getSubTeam(): EList&lt;TeamProfile&gt;</text><ellipse cx="38" cy="305.2031" fill="#84BE84" rx="3" ry="3" style="stroke: #038048; stroke-width: 1.0;"/><text fill="#000000" font-family="sans-serif" font-size="11" lengthAdjust="spacingAndGlyphs" textLength="331" x="47" y="309.6221">eInverseAdd(InternalEObject, int, NotificationChain): NotificationChain</text><ellipse cx="38" cy="319.0391" fill="#84BE84" rx="3" ry="3" style="stroke: #038048; stroke-width: 1.0;"/><text fill="#000000" font-family="sans-serif" font-size="11" lengthAdjust="spacingAndGlyphs" textLength="350" x="47" y="323.458">eInverseRemove(InternalEObject, int, NotificationChain): NotificationChain</text><ellipse cx="38" cy="332.875" fill="#84BE84" rx="3" ry="3" style="stroke: #038048; stroke-width: 1.0;"/><text fill="#000000" font-family="sans-serif" font-size="11" lengthAdjust="spacingAndGlyphs" textLength="167" x="47" y="337.2939">eGet(int, boolean, boolean): Object</text><ellipse cx="38" cy="346.7109" fill="#84BE84" rx="3" ry="3" style="stroke: #038048; stroke-width: 1.0;"/><text fill="#000000" font-family="sans-serif" font-size="11" lengthAdjust="spacingAndGlyphs" textLength="104" x="47" y="351.1299">eSet(int, Object): void</text><ellipse cx="38" cy="360.5469" fill="#84BE84" rx="3" ry="3" style="stroke: #038048; stroke-width: 1.0;"/><text fill="#000000" font-family="sans-serif" font-size="11" lengthAdjust="spacingAndGlyphs" textLength="79" x="47" y="364.9658">eUnset(int): void</text><ellipse cx="38" cy="374.3828" fill="#84BE84" rx="3" ry="3" style="stroke: #038048; stroke-width: 1.0;"/><text fill="#000000" font-family="sans-serif" font-size="11" lengthAdjust="spacingAndGlyphs" textLength="93" x="47" y="378.8018">eIsSet(int): boolean</text></a><!--MD5=[1b431a39b513a232f6a911769ed0ae3f]
class org.eclipse.epf.uma.impl.BreakdownElementImpl--><a href="BreakdownElementImpl.html" target="_top" title="BreakdownElementImpl.html" xlink:actuate="onRequest" xlink:href="BreakdownElementImpl.html" xlink:show="new" xlink:title="BreakdownElementImpl.html" xlink:type="simple"><rect codeLine="20" fill="#FEFECE" filter="url(#f1bhpcyfjqj3dt)" height="40.1875" id="org.eclipse.epf.uma.impl.BreakdownElementImpl" style="stroke: #A80036; stroke-width: 1.5;" width="180" x="7" y="39"/><ellipse cx="22" cy="59.0938" fill="#A9DCDF" rx="11" ry="11" style="stroke: #A80036; stroke-width: 1.0;"/><path d="M24.1875,60.8594 L20.0469,60.8594 L19.625,61.8906 L20.0469,61.8906 Q20.6563,61.8906 20.9219,62.125 Q21.1875,62.3594 21.1875,62.75 Q21.1875,63.125 20.9219,63.3594 Q20.6563,63.5938 20.0469,63.5938 L17.75,63.5938 Q17.1406,63.5938 16.8906,63.3594 Q16.625,63.125 16.625,62.7344 Q16.625,62.3594 16.9063,62.125 Q17.1719,61.875 17.7969,61.8906 L20.4688,55.2344 L19.3594,55.2344 Q18.75,55.2344 18.4844,55 Q18.2188,54.7656 18.2188,54.375 Q18.2188,54 18.4844,53.7656 Q18.75,53.5313 19.3594,53.5313 L23.0313,53.5313 L26.4219,61.8906 Q27.0156,61.8906 27.2031,62.0313 Q27.5938,62.2969 27.5938,62.75 Q27.5938,63.125 27.3281,63.3594 Q27.0781,63.5938 26.4688,63.5938 L24.1719,63.5938 Q23.5625,63.5938 23.2969,63.3594 Q23.0313,63.125 23.0313,62.7344 Q23.0313,62.3594 23.2969,62.125 Q23.5625,61.8906 24.1719,61.8906 L24.5938,61.8906 L24.1875,60.8594 Z M23.4688,59.1563 L22.1094,55.7813 L20.7344,59.1563 L23.4688,59.1563 Z "/><text fill="#000000" font-family="sans-serif" font-size="14" font-style="italic" lengthAdjust="spacingAndGlyphs" textLength="148" x="36" y="58.5332">BreakdownElementImpl</text><text fill="#000000" font-family="sans-serif" font-size="10" font-style="italic" lengthAdjust="spacingAndGlyphs" textLength="114" x="53" y="71.9902">org.eclipse.epf.uma.impl</text></a><!--MD5=[06f8274acbd04fff7b78d0d1e8ff053b]
class org.eclipse.epf.uma.TeamProfile--><a href="..\TeamProfile.html" target="_top" title="..\TeamProfile.html" xlink:actuate="onRequest" xlink:href="..\TeamProfile.html" xlink:show="new" xlink:title="..\TeamProfile.html" xlink:type="simple"><rect codeLine="21" fill="#FEFECE" filter="url(#f1bhpcyfjqj3dt)" height="103.5313" id="org.eclipse.epf.uma.TeamProfile" style="stroke: #A80036; stroke-width: 1.5;" width="224" x="222" y="7"/><ellipse cx="283.75" cy="27.0938" fill="#B4A7E5" rx="11" ry="11" style="stroke: #A80036; stroke-width: 1.0;"/><path d="M284.7031,23.7344 L284.7031,30.3906 L286.4219,30.3906 Q287.0313,30.3906 287.2969,30.625 Q287.5625,30.8594 287.5625,31.25 Q287.5625,31.625 287.2969,31.8594 Q287.0313,32.0938 286.4219,32.0938 L281.2813,32.0938 Q280.6719,32.0938 280.4063,31.8594 Q280.1406,31.625 280.1406,31.2344 Q280.1406,30.8594 280.4063,30.625 Q280.6719,30.3906 281.2813,30.3906 L283,30.3906 L283,23.7344 L281.2813,23.7344 Q280.6719,23.7344 280.4063,23.5 Q280.1406,23.2656 280.1406,22.875 Q280.1406,22.5 280.4063,22.2656 Q280.6719,22.0313 281.2813,22.0313 L286.4219,22.0313 Q287.0313,22.0313 287.2969,22.2656 Q287.5625,22.5 287.5625,22.875 Q287.5625,23.2656 287.2969,23.5 Q287.0313,23.7344 286.4219,23.7344 L284.7031,23.7344 Z "/><text fill="#000000" font-family="sans-serif" font-size="14" font-style="italic" lengthAdjust="spacingAndGlyphs" textLength="76" x="312.25" y="26.5332">TeamProfile</text><text fill="#000000" font-family="sans-serif" font-size="10" font-style="italic" lengthAdjust="spacingAndGlyphs" textLength="92" x="304.25" y="39.9902">org.eclipse.epf.uma</text><line style="stroke: #A80036; stroke-width: 1.5;" x1="223" x2="445" y1="47.1875" y2="47.1875"/><ellipse cx="233" cy="58.1875" fill="#84BE84" rx="3" ry="3" style="stroke: #038048; stroke-width: 1.0;"/><text fill="#000000" font-family="sans-serif" font-size="11" font-style="italic" lengthAdjust="spacingAndGlyphs" textLength="198" x="242" y="62.6064">getTeamRoles(): EList&lt;RoleDescriptor&gt;</text><ellipse cx="233" cy="72.0234" fill="#84BE84" rx="3" ry="3" style="stroke: #038048; stroke-width: 1.0;"/><text fill="#000000" font-family="sans-serif" font-size="11" font-style="italic" lengthAdjust="spacingAndGlyphs" textLength="146" x="242" y="76.4424">getSuperTeam(): TeamProfile</text><ellipse cx="233" cy="85.8594" fill="#84BE84" rx="3" ry="3" style="stroke: #038048; stroke-width: 1.0;"/><text fill="#000000" font-family="sans-serif" font-size="11" font-style="italic" lengthAdjust="spacingAndGlyphs" textLength="166" x="242" y="90.2783">setSuperTeam(TeamProfile): void</text><ellipse cx="233" cy="99.6953" fill="#84BE84" rx="3" ry="3" style="stroke: #038048; stroke-width: 1.0;"/><text fill="#000000" font-family="sans-serif" font-size="11" font-style="italic" lengthAdjust="spacingAndGlyphs" textLength="174" x="242" y="104.1143">getSubTeam(): EList&lt;TeamProfile&gt;</text></a><!--MD5=[6a52dc5b54236d05927ad2c740288aae]
reverse link org.eclipse.epf.uma.impl.BreakdownElementImpl to org.eclipse.epf.uma.impl.TeamProfileImpl--><path codeLine="28" d="M117.05,96.88 C128.25,117.46 142.82,144.26 157.29,170.87 " fill="none" id="org.eclipse.epf.uma.impl.BreakdownElementImpl-backto-org.eclipse.epf.uma.impl.TeamProfileImpl" style="stroke: #A80036; stroke-width: 1.0;"/><polygon fill="none" points="110.88,100.17,107.47,79.26,123.18,93.48,110.88,100.17" style="stroke: #A80036; stroke-width: 1.0;"/><!--MD5=[16e5d98465c09d249ee9cf0222e561d1]
reverse link org.eclipse.epf.uma.TeamProfile to org.eclipse.epf.uma.impl.TeamProfileImpl--><path codeLine="29" d="M296.32,128.71 C288.98,142.09 281.14,156.4 273.32,170.66 " fill="none" id="org.eclipse.epf.uma.TeamProfile-backto-org.eclipse.epf.uma.impl.TeamProfileImpl" style="stroke: #A80036; stroke-width: 1.0; stroke-dasharray: 7.0,7.0;"/><polygon fill="none" points="290.19,125.32,305.95,111.15,302.47,132.05,290.19,125.32" style="stroke: #A80036; stroke-width: 1.0;"/><text fill="#888888" font-family="sans-serif" font-size="10" lengthAdjust="spacingAndGlyphs" textLength="190" x="128.5" y="408.5996">UMLDoclet 2.0.12, PlantUML 1.2020.16</text><!--MD5=[0e621aac82efa3f7279b59adbf067b2f]
@startuml
    set namespaceSeparator none
    hide empty fields
    hide empty methods

    class "<size:14>TeamProfileImpl\n<size:10>org.eclipse.epf.uma.impl" as org.eclipse.epf.uma.impl.TeamProfileImpl [[TeamProfileImpl.html]] {
        +getTeamRoles(): EList<RoleDescriptor>
        +getSuperTeam(): TeamProfile
        +basicGetSuperTeam(): TeamProfile
        +basicSetSuperTeam(TeamProfile, NotificationChain): NotificationChain
        +setSuperTeam(TeamProfile): void
        +getSubTeam(): EList<TeamProfile>
        +eInverseAdd(InternalEObject, int, NotificationChain): NotificationChain
        +eInverseRemove(InternalEObject, int, NotificationChain): NotificationChain
        +eGet(int, boolean, boolean): Object
        +eSet(int, Object): void
        +eUnset(int): void
        +eIsSet(int): boolean
    }

    abstract class "<size:14>BreakdownElementImpl\n<size:10>org.eclipse.epf.uma.impl" as org.eclipse.epf.uma.impl.BreakdownElementImpl [[BreakdownElementImpl.html]]
    interface "<size:14>TeamProfile\n<size:10>org.eclipse.epf.uma" as org.eclipse.epf.uma.TeamProfile [[..\TeamProfile.html]] {
        {abstract} +getTeamRoles(): EList<RoleDescriptor>
        {abstract} +getSuperTeam(): TeamProfile
        {abstract} +setSuperTeam(TeamProfile): void
        {abstract} +getSubTeam(): EList<TeamProfile>
    }

    org.eclipse.epf.uma.impl.BreakdownElementImpl <|- - org.eclipse.epf.uma.impl.TeamProfileImpl
    org.eclipse.epf.uma.TeamProfile <|.. org.eclipse.epf.uma.impl.TeamProfileImpl

    center footer UMLDoclet 2.0.12, PlantUML 1.2020.16
@enduml

PlantUML version 1.2020.16(Sun Aug 23 22:20:43 CEST 2020)
(APACHE source distribution)
Java Runtime: Java(TM) SE Runtime Environment
JVM: Java HotSpot(TM) 64-Bit Server VM
Default Encoding: Cp1252
Language: es
Country: ES
--></g></svg>