<?xml version="1.0" encoding="UTF-8" standalone="no"?><svg xmlns="http://www.w3.org/2000/svg" xmlns:xlink="http://www.w3.org/1999/xlink" contentScriptType="application/ecmascript" contentStyleType="text/css" height="311px" preserveAspectRatio="none" style="width:333px;height:311px;" version="1.1" viewBox="0 0 333 311" width="333px" zoomAndPan="magnify"><defs><filter height="300%" id="f5ropftyxpmlr" width="300%" x="-1" y="-1"><feGaussianBlur result="blurOut" stdDeviation="2.0"/><feColorMatrix in="blurOut" result="blurOut2" type="matrix" values="0 0 0 0 0 0 0 0 0 0 0 0 0 0 0 0 0 0 .4 0"/><feOffset dx="4.0" dy="4.0" in="blurOut2" result="blurOut3"/><feBlend in="SourceGraphic" in2="blurOut3" mode="normal"/></filter></defs><g><!--MD5=[b748bbb9cb0aa71dfed50ebba8e4d0d6]
class org.eclipse.epf.uma.impl.TextElementImpl--><a href="TextElementImpl.html" target="_top" title="TextElementImpl.html" xlink:actuate="onRequest" xlink:href="TextElementImpl.html" xlink:show="new" xlink:title="TextElementImpl.html" xlink:type="simple"><rect codeLine="5" fill="#FEFECE" filter="url(#f5ropftyxpmlr)" height="131.2031" id="org.eclipse.epf.uma.impl.TextElementImpl" style="stroke: #A80036; stroke-width: 1.5;" width="193" x="68.5" y="143"/><ellipse cx="102.85" cy="163.0938" fill="#ADD1B2" rx="11" ry="11" style="stroke: #A80036; stroke-width: 1.0;"/><path d="M105.6156,158.9688 Q105.7719,158.75 105.9594,158.6406 Q106.1469,158.5313 106.3656,158.5313 Q106.7406,158.5313 106.975,158.7969 Q107.2094,159.0469 107.2094,159.6563 L107.2094,161.1094 Q107.2094,161.7188 106.975,161.9844 Q106.7406,162.25 106.3656,162.25 Q106.0219,162.25 105.8188,162.0469 Q105.6156,161.8594 105.5063,161.3438 Q105.4594,160.9844 105.2719,160.7969 Q104.9438,160.4219 104.3344,160.2031 Q103.725,159.9844 103.1,159.9844 Q102.3344,159.9844 101.6938,160.3125 Q101.0688,160.6406 100.5688,161.3906 Q100.0844,162.1406 100.0844,163.1719 L100.0844,164.2656 Q100.0844,165.5 100.975,166.3281 Q101.8656,167.1406 103.4594,167.1406 Q104.3969,167.1406 105.0531,166.8906 Q105.4438,166.7344 105.8656,166.2969 Q106.1313,166.0313 106.2719,165.9531 Q106.4281,165.875 106.6313,165.875 Q106.9594,165.875 107.2094,166.1406 Q107.475,166.3906 107.475,166.7344 Q107.475,167.0781 107.1313,167.4844 Q106.6313,168.0625 105.8344,168.3906 Q104.7563,168.8438 103.4594,168.8438 Q101.9438,168.8438 100.7406,168.2188 Q99.7563,167.7188 99.0688,166.6563 Q98.3813,165.5781 98.3813,164.2969 L98.3813,163.1406 Q98.3813,161.8125 98.9906,160.6719 Q99.6156,159.5156 100.7094,158.9063 Q101.8031,158.2813 103.0375,158.2813 Q103.7719,158.2813 104.4125,158.4531 Q105.0688,158.6094 105.6156,158.9688 Z "/><text fill="#000000" font-family="sans-serif" font-size="14" lengthAdjust="spacingAndGlyphs" textLength="103" x="128.65" y="162.5332">TextElementImpl</text><text fill="#000000" font-family="sans-serif" font-size="10" lengthAdjust="spacingAndGlyphs" textLength="118" x="121.15" y="175.9902">org.eclipse.epf.uma.impl</text><line style="stroke: #A80036; stroke-width: 1.5;" x1="69.5" x2="260.5" y1="183.1875" y2="183.1875"/><ellipse cx="79.5" cy="194.1875" fill="#84BE84" rx="3" ry="3" style="stroke: #038048; stroke-width: 1.0;"/><text fill="#000000" font-family="sans-serif" font-size="11" lengthAdjust="spacingAndGlyphs" textLength="78" x="88.5" y="198.6064">getText(): String</text><ellipse cx="79.5" cy="208.0234" fill="#84BE84" rx="3" ry="3" style="stroke: #038048; stroke-width: 1.0;"/><text fill="#000000" font-family="sans-serif" font-size="11" lengthAdjust="spacingAndGlyphs" textLength="98" x="88.5" y="212.4424">setText(String): void</text><ellipse cx="79.5" cy="221.8594" fill="#84BE84" rx="3" ry="3" style="stroke: #038048; stroke-width: 1.0;"/><text fill="#000000" font-family="sans-serif" font-size="11" lengthAdjust="spacingAndGlyphs" textLength="167" x="88.5" y="226.2783">eGet(int, boolean, boolean): Object</text><ellipse cx="79.5" cy="235.6953" fill="#84BE84" rx="3" ry="3" style="stroke: #038048; stroke-width: 1.0;"/><text fill="#000000" font-family="sans-serif" font-size="11" lengthAdjust="spacingAndGlyphs" textLength="104" x="88.5" y="240.1143">eSet(int, Object): void</text><ellipse cx="79.5" cy="249.5313" fill="#84BE84" rx="3" ry="3" style="stroke: #038048; stroke-width: 1.0;"/><text fill="#000000" font-family="sans-serif" font-size="11" lengthAdjust="spacingAndGlyphs" textLength="79" x="88.5" y="253.9502">eUnset(int): void</text><ellipse cx="79.5" cy="263.3672" fill="#84BE84" rx="3" ry="3" style="stroke: #038048; stroke-width: 1.0;"/><text fill="#000000" font-family="sans-serif" font-size="11" lengthAdjust="spacingAndGlyphs" textLength="93" x="88.5" y="267.7861">eIsSet(int): boolean</text></a><!--MD5=[fbda6fcf825bda8f9fd0add40a433a7c]
class org.eclipse.epf.uma.impl.LeafElementImpl--><a href="LeafElementImpl.html" target="_top" title="LeafElementImpl.html" xlink:actuate="onRequest" xlink:href="LeafElementImpl.html" xlink:show="new" xlink:title="LeafElementImpl.html" xlink:type="simple"><rect codeLine="14" fill="#FEFECE" filter="url(#f5ropftyxpmlr)" height="40.1875" id="org.eclipse.epf.uma.impl.LeafElementImpl" style="stroke: #A80036; stroke-width: 1.5;" width="146" x="7" y="25"/><ellipse cx="22" cy="45.0938" fill="#A9DCDF" rx="11" ry="11" style="stroke: #A80036; stroke-width: 1.0;"/><path d="M24.1875,46.8594 L20.0469,46.8594 L19.625,47.8906 L20.0469,47.8906 Q20.6563,47.8906 20.9219,48.125 Q21.1875,48.3594 21.1875,48.75 Q21.1875,49.125 20.9219,49.3594 Q20.6563,49.5938 20.0469,49.5938 L17.75,49.5938 Q17.1406,49.5938 16.8906,49.3594 Q16.625,49.125 16.625,48.7344 Q16.625,48.3594 16.9063,48.125 Q17.1719,47.875 17.7969,47.8906 L20.4688,41.2344 L19.3594,41.2344 Q18.75,41.2344 18.4844,41 Q18.2188,40.7656 18.2188,40.375 Q18.2188,40 18.4844,39.7656 Q18.75,39.5313 19.3594,39.5313 L23.0313,39.5313 L26.4219,47.8906 Q27.0156,47.8906 27.2031,48.0313 Q27.5938,48.2969 27.5938,48.75 Q27.5938,49.125 27.3281,49.3594 Q27.0781,49.5938 26.4688,49.5938 L24.1719,49.5938 Q23.5625,49.5938 23.2969,49.3594 Q23.0313,49.125 23.0313,48.7344 Q23.0313,48.3594 23.2969,48.125 Q23.5625,47.8906 24.1719,47.8906 L24.5938,47.8906 L24.1875,46.8594 Z M23.4688,45.1563 L22.1094,41.7813 L20.7344,45.1563 L23.4688,45.1563 Z "/><text fill="#000000" font-family="sans-serif" font-size="14" font-style="italic" lengthAdjust="spacingAndGlyphs" textLength="105" x="40.5" y="44.5332">LeafElementImpl</text><text fill="#000000" font-family="sans-serif" font-size="10" font-style="italic" lengthAdjust="spacingAndGlyphs" textLength="114" x="36" y="57.9902">org.eclipse.epf.uma.impl</text></a><!--MD5=[e4ff15d26be2031089f670ea0cdc2723]
class org.eclipse.epf.uma.TextElement--><a href="..\TextElement.html" target="_top" title="..\TextElement.html" xlink:actuate="onRequest" xlink:href="..\TextElement.html" xlink:show="new" xlink:title="..\TextElement.html" xlink:type="simple"><rect codeLine="15" fill="#FEFECE" filter="url(#f5ropftyxpmlr)" height="75.8594" id="org.eclipse.epf.uma.TextElement" style="stroke: #A80036; stroke-width: 1.5;" width="126" x="188" y="7"/><ellipse cx="203.9" cy="27.0938" fill="#B4A7E5" rx="11" ry="11" style="stroke: #A80036; stroke-width: 1.0;"/><path d="M204.8531,23.7344 L204.8531,30.3906 L206.5719,30.3906 Q207.1813,30.3906 207.4469,30.625 Q207.7125,30.8594 207.7125,31.25 Q207.7125,31.625 207.4469,31.8594 Q207.1813,32.0938 206.5719,32.0938 L201.4313,32.0938 Q200.8219,32.0938 200.5563,31.8594 Q200.2906,31.625 200.2906,31.2344 Q200.2906,30.8594 200.5563,30.625 Q200.8219,30.3906 201.4313,30.3906 L203.15,30.3906 L203.15,23.7344 L201.4313,23.7344 Q200.8219,23.7344 200.5563,23.5 Q200.2906,23.2656 200.2906,22.875 Q200.2906,22.5 200.5563,22.2656 Q200.8219,22.0313 201.4313,22.0313 L206.5719,22.0313 Q207.1813,22.0313 207.4469,22.2656 Q207.7125,22.5 207.7125,22.875 Q207.7125,23.2656 207.4469,23.5 Q207.1813,23.7344 206.5719,23.7344 L204.8531,23.7344 Z "/><text fill="#000000" font-family="sans-serif" font-size="14" font-style="italic" lengthAdjust="spacingAndGlyphs" textLength="78" x="225.1" y="26.5332">TextElement</text><text fill="#000000" font-family="sans-serif" font-size="10" font-style="italic" lengthAdjust="spacingAndGlyphs" textLength="92" x="218.1" y="39.9902">org.eclipse.epf.uma</text><line style="stroke: #A80036; stroke-width: 1.5;" x1="189" x2="313" y1="47.1875" y2="47.1875"/><ellipse cx="199" cy="58.1875" fill="#84BE84" rx="3" ry="3" style="stroke: #038048; stroke-width: 1.0;"/><text fill="#000000" font-family="sans-serif" font-size="11" font-style="italic" lengthAdjust="spacingAndGlyphs" textLength="80" x="208" y="62.6064">getText(): String</text><ellipse cx="199" cy="72.0234" fill="#84BE84" rx="3" ry="3" style="stroke: #038048; stroke-width: 1.0;"/><text fill="#000000" font-family="sans-serif" font-size="11" font-style="italic" lengthAdjust="spacingAndGlyphs" textLength="100" x="208" y="76.4424">setText(String): void</text></a><!--MD5=[51815930b89f3f1a88ea036d9072f260]
reverse link org.eclipse.epf.uma.impl.LeafElementImpl to org.eclipse.epf.uma.impl.TextElementImpl--><path codeLine="20" d="M99.54,83.12 C108.83,100.77 120.21,122.41 130.87,142.65 " fill="none" id="org.eclipse.epf.uma.impl.LeafElementImpl-backto-org.eclipse.epf.uma.impl.TextElementImpl" style="stroke: #A80036; stroke-width: 1.0;"/><polygon fill="none" points="93.2,86.12,90.08,65.16,105.59,79.6,93.2,86.12" style="stroke: #A80036; stroke-width: 1.0;"/><!--MD5=[43bf3fd3ba62b61c279f6a82f84cf92a]
reverse link org.eclipse.epf.uma.TextElement to org.eclipse.epf.uma.impl.TextElementImpl--><path codeLine="21" d="M221.65,101.11 C214.52,114.5 206.83,128.95 199.48,142.74 " fill="none" id="org.eclipse.epf.uma.TextElement-backto-org.eclipse.epf.uma.impl.TextElementImpl" style="stroke: #A80036; stroke-width: 1.0; stroke-dasharray: 7.0,7.0;"/><polygon fill="none" points="215.69,97.41,231.27,83.05,228.05,103.99,215.69,97.41" style="stroke: #A80036; stroke-width: 1.0;"/><text fill="#888888" font-family="sans-serif" font-size="10" lengthAdjust="spacingAndGlyphs" textLength="190" x="62.5" y="297.584">UMLDoclet 2.0.12, PlantUML 1.2020.16</text><!--MD5=[2fc17ab44c17919e6c461d0011605c10]
@startuml
    set namespaceSeparator none
    hide empty fields
    hide empty methods

    class "<size:14>TextElementImpl\n<size:10>org.eclipse.epf.uma.impl" as org.eclipse.epf.uma.impl.TextElementImpl [[TextElementImpl.html]] {
        +getText(): String
        +setText(String): void
        +eGet(int, boolean, boolean): Object
        +eSet(int, Object): void
        +eUnset(int): void
        +eIsSet(int): boolean
    }

    abstract class "<size:14>LeafElementImpl\n<size:10>org.eclipse.epf.uma.impl" as org.eclipse.epf.uma.impl.LeafElementImpl [[LeafElementImpl.html]]
    interface "<size:14>TextElement\n<size:10>org.eclipse.epf.uma" as org.eclipse.epf.uma.TextElement [[..\TextElement.html]] {
        {abstract} +getText(): String
        {abstract} +setText(String): void
    }

    org.eclipse.epf.uma.impl.LeafElementImpl <|- - org.eclipse.epf.uma.impl.TextElementImpl
    org.eclipse.epf.uma.TextElement <|.. org.eclipse.epf.uma.impl.TextElementImpl

    center footer UMLDoclet 2.0.12, PlantUML 1.2020.16
@enduml

PlantUML version 1.2020.16(Sun Aug 23 22:20:43 CEST 2020)
(APACHE source distribution)
Java Runtime: Java(TM) SE Runtime Environment
JVM: Java HotSpot(TM) 64-Bit Server VM
Default Encoding: Cp1252
Language: es
Country: ES
--></g></svg>