<?xml version="1.0" encoding="UTF-8" standalone="no"?><svg xmlns="http://www.w3.org/2000/svg" xmlns:xlink="http://www.w3.org/1999/xlink" contentScriptType="application/ecmascript" contentStyleType="text/css" height="283px" preserveAspectRatio="none" style="width:437px;height:283px;" version="1.1" viewBox="0 0 437 283" width="437px" zoomAndPan="magnify"><defs><filter height="300%" id="f3fsqnmyirm14" width="300%" x="-1" y="-1"><feGaussianBlur result="blurOut" stdDeviation="2.0"/><feColorMatrix in="blurOut" result="blurOut2" type="matrix" values="0 0 0 0 0 0 0 0 0 0 0 0 0 0 0 0 0 0 .4 0"/><feOffset dx="4.0" dy="4.0" in="blurOut2" result="blurOut3"/><feBlend in="SourceGraphic" in2="blurOut3" mode="normal"/></filter></defs><g><!--MD5=[b2d75f598a46fbf78497f5b66e7517e8]
class org.eclipse.epf.uma.impl.ToolImpl--><a href="ToolImpl.html" target="_top" title="ToolImpl.html" xlink:actuate="onRequest" xlink:href="ToolImpl.html" xlink:show="new" xlink:title="ToolImpl.html" xlink:type="simple"><rect codeLine="5" fill="#FEFECE" filter="url(#f3fsqnmyirm14)" height="117.3672" id="org.eclipse.epf.uma.impl.ToolImpl" style="stroke: #A80036; stroke-width: 1.5;" width="202" x="100" y="129"/><ellipse cx="138.4" cy="149.0938" fill="#ADD1B2" rx="11" ry="11" style="stroke: #A80036; stroke-width: 1.0;"/><path d="M141.1656,144.9688 Q141.3219,144.75 141.5094,144.6406 Q141.6969,144.5313 141.9156,144.5313 Q142.2906,144.5313 142.525,144.7969 Q142.7594,145.0469 142.7594,145.6563 L142.7594,147.1094 Q142.7594,147.7188 142.525,147.9844 Q142.2906,148.25 141.9156,148.25 Q141.5719,148.25 141.3688,148.0469 Q141.1656,147.8594 141.0563,147.3438 Q141.0094,146.9844 140.8219,146.7969 Q140.4938,146.4219 139.8844,146.2031 Q139.275,145.9844 138.65,145.9844 Q137.8844,145.9844 137.2438,146.3125 Q136.6188,146.6406 136.1188,147.3906 Q135.6344,148.1406 135.6344,149.1719 L135.6344,150.2656 Q135.6344,151.5 136.525,152.3281 Q137.4156,153.1406 139.0094,153.1406 Q139.9469,153.1406 140.6031,152.8906 Q140.9938,152.7344 141.4156,152.2969 Q141.6813,152.0313 141.8219,151.9531 Q141.9781,151.875 142.1813,151.875 Q142.5094,151.875 142.7594,152.1406 Q143.025,152.3906 143.025,152.7344 Q143.025,153.0781 142.6813,153.4844 Q142.1813,154.0625 141.3844,154.3906 Q140.3063,154.8438 139.0094,154.8438 Q137.4938,154.8438 136.2906,154.2188 Q135.3063,153.7188 134.6188,152.6563 Q133.9313,151.5781 133.9313,150.2969 L133.9313,149.1406 Q133.9313,147.8125 134.5406,146.6719 Q135.1656,145.5156 136.2594,144.9063 Q137.3531,144.2813 138.5875,144.2813 Q139.3219,144.2813 139.9625,144.4531 Q140.6188,144.6094 141.1656,144.9688 Z "/><text fill="#000000" font-family="sans-serif" font-size="14" lengthAdjust="spacingAndGlyphs" textLength="53" x="190.1" y="148.5332">ToolImpl</text><text fill="#000000" font-family="sans-serif" font-size="10" lengthAdjust="spacingAndGlyphs" textLength="118" x="157.6" y="161.9902">org.eclipse.epf.uma.impl</text><line style="stroke: #A80036; stroke-width: 1.5;" x1="101" x2="301" y1="169.1875" y2="169.1875"/><ellipse cx="111" cy="180.1875" fill="#84BE84" rx="3" ry="3" style="stroke: #038048; stroke-width: 1.0;"/><text fill="#000000" font-family="sans-serif" font-size="11" lengthAdjust="spacingAndGlyphs" textLength="176" x="120" y="184.6064">getToolMentors(): EList&lt;ToolMentor&gt;</text><ellipse cx="111" cy="194.0234" fill="#84BE84" rx="3" ry="3" style="stroke: #038048; stroke-width: 1.0;"/><text fill="#000000" font-family="sans-serif" font-size="11" lengthAdjust="spacingAndGlyphs" textLength="167" x="120" y="198.4424">eGet(int, boolean, boolean): Object</text><ellipse cx="111" cy="207.8594" fill="#84BE84" rx="3" ry="3" style="stroke: #038048; stroke-width: 1.0;"/><text fill="#000000" font-family="sans-serif" font-size="11" lengthAdjust="spacingAndGlyphs" textLength="104" x="120" y="212.2783">eSet(int, Object): void</text><ellipse cx="111" cy="221.6953" fill="#84BE84" rx="3" ry="3" style="stroke: #038048; stroke-width: 1.0;"/><text fill="#000000" font-family="sans-serif" font-size="11" lengthAdjust="spacingAndGlyphs" textLength="79" x="120" y="226.1143">eUnset(int): void</text><ellipse cx="111" cy="235.5313" fill="#84BE84" rx="3" ry="3" style="stroke: #038048; stroke-width: 1.0;"/><text fill="#000000" font-family="sans-serif" font-size="11" lengthAdjust="spacingAndGlyphs" textLength="93" x="120" y="239.9502">eIsSet(int): boolean</text></a><!--MD5=[80a1fa17d1f3fd257902418e6ad1c457]
class org.eclipse.epf.uma.impl.ContentCategoryImpl--><a href="ContentCategoryImpl.html" target="_top" title="ContentCategoryImpl.html" xlink:actuate="onRequest" xlink:href="ContentCategoryImpl.html" xlink:show="new" xlink:title="ContentCategoryImpl.html" xlink:type="simple"><rect codeLine="13" fill="#FEFECE" filter="url(#f3fsqnmyirm14)" height="40.1875" id="org.eclipse.epf.uma.impl.ContentCategoryImpl" style="stroke: #A80036; stroke-width: 1.5;" width="166" x="7" y="18"/><ellipse cx="22" cy="38.0938" fill="#A9DCDF" rx="11" ry="11" style="stroke: #A80036; stroke-width: 1.0;"/><path d="M24.1875,39.8594 L20.0469,39.8594 L19.625,40.8906 L20.0469,40.8906 Q20.6563,40.8906 20.9219,41.125 Q21.1875,41.3594 21.1875,41.75 Q21.1875,42.125 20.9219,42.3594 Q20.6563,42.5938 20.0469,42.5938 L17.75,42.5938 Q17.1406,42.5938 16.8906,42.3594 Q16.625,42.125 16.625,41.7344 Q16.625,41.3594 16.9063,41.125 Q17.1719,40.875 17.7969,40.8906 L20.4688,34.2344 L19.3594,34.2344 Q18.75,34.2344 18.4844,34 Q18.2188,33.7656 18.2188,33.375 Q18.2188,33 18.4844,32.7656 Q18.75,32.5313 19.3594,32.5313 L23.0313,32.5313 L26.4219,40.8906 Q27.0156,40.8906 27.2031,41.0313 Q27.5938,41.2969 27.5938,41.75 Q27.5938,42.125 27.3281,42.3594 Q27.0781,42.5938 26.4688,42.5938 L24.1719,42.5938 Q23.5625,42.5938 23.2969,42.3594 Q23.0313,42.125 23.0313,41.7344 Q23.0313,41.3594 23.2969,41.125 Q23.5625,40.8906 24.1719,40.8906 L24.5938,40.8906 L24.1875,39.8594 Z M23.4688,38.1563 L22.1094,34.7813 L20.7344,38.1563 L23.4688,38.1563 Z "/><text fill="#000000" font-family="sans-serif" font-size="14" font-style="italic" lengthAdjust="spacingAndGlyphs" textLength="134" x="36" y="37.5332">ContentCategoryImpl</text><text fill="#000000" font-family="sans-serif" font-size="10" font-style="italic" lengthAdjust="spacingAndGlyphs" textLength="114" x="46" y="50.9902">org.eclipse.epf.uma.impl</text></a><!--MD5=[c332e544c832bcd975e6b39852ca3116]
class org.eclipse.epf.uma.Tool--><a href="..\Tool.html" target="_top" title="..\Tool.html" xlink:actuate="onRequest" xlink:href="..\Tool.html" xlink:show="new" xlink:title="..\Tool.html" xlink:type="simple"><rect codeLine="14" fill="#FEFECE" filter="url(#f3fsqnmyirm14)" height="62.0234" id="org.eclipse.epf.uma.Tool" style="stroke: #A80036; stroke-width: 1.5;" width="210" x="208" y="7"/><ellipse cx="262.75" cy="27.0938" fill="#B4A7E5" rx="11" ry="11" style="stroke: #A80036; stroke-width: 1.0;"/><path d="M263.7031,23.7344 L263.7031,30.3906 L265.4219,30.3906 Q266.0313,30.3906 266.2969,30.625 Q266.5625,30.8594 266.5625,31.25 Q266.5625,31.625 266.2969,31.8594 Q266.0313,32.0938 265.4219,32.0938 L260.2813,32.0938 Q259.6719,32.0938 259.4063,31.8594 Q259.1406,31.625 259.1406,31.2344 Q259.1406,30.8594 259.4063,30.625 Q259.6719,30.3906 260.2813,30.3906 L262,30.3906 L262,23.7344 L260.2813,23.7344 Q259.6719,23.7344 259.4063,23.5 Q259.1406,23.2656 259.1406,22.875 Q259.1406,22.5 259.4063,22.2656 Q259.6719,22.0313 260.2813,22.0313 L265.4219,22.0313 Q266.0313,22.0313 266.2969,22.2656 Q266.5625,22.5 266.5625,22.875 Q266.5625,23.2656 266.2969,23.5 Q266.0313,23.7344 265.4219,23.7344 L263.7031,23.7344 Z "/><text fill="#000000" font-family="sans-serif" font-size="14" font-style="italic" lengthAdjust="spacingAndGlyphs" textLength="28" x="315.25" y="26.5332">Tool</text><text fill="#000000" font-family="sans-serif" font-size="10" font-style="italic" lengthAdjust="spacingAndGlyphs" textLength="92" x="283.25" y="39.9902">org.eclipse.epf.uma</text><line style="stroke: #A80036; stroke-width: 1.5;" x1="209" x2="417" y1="47.1875" y2="47.1875"/><ellipse cx="219" cy="58.1875" fill="#84BE84" rx="3" ry="3" style="stroke: #038048; stroke-width: 1.0;"/><text fill="#000000" font-family="sans-serif" font-size="11" font-style="italic" lengthAdjust="spacingAndGlyphs" textLength="184" x="228" y="62.6064">getToolMentors(): EList&lt;ToolMentor&gt;</text></a><!--MD5=[afe623f06df45f8cb77e4fcf1a63666c]
reverse link org.eclipse.epf.uma.impl.ContentCategoryImpl to org.eclipse.epf.uma.impl.ToolImpl--><path codeLine="18" d="M116.6,74.35 C128.84,90.61 143.68,110.34 157.49,128.68 " fill="none" id="org.eclipse.epf.uma.impl.ContentCategoryImpl-backto-org.eclipse.epf.uma.impl.ToolImpl" style="stroke: #A80036; stroke-width: 1.0;"/><polygon fill="none" points="110.94,78.47,104.51,58.28,122.13,70.05,110.94,78.47" style="stroke: #A80036; stroke-width: 1.0;"/><!--MD5=[8ea5c9441c7c8a3732cbce2f4ceee828]
reverse link org.eclipse.epf.uma.Tool to org.eclipse.epf.uma.impl.ToolImpl--><path codeLine="19" d="M277.93,85.19 C267.41,99.04 255.74,114.4 244.74,128.9 " fill="none" id="org.eclipse.epf.uma.Tool-backto-org.eclipse.epf.uma.impl.ToolImpl" style="stroke: #A80036; stroke-width: 1.0; stroke-dasharray: 7.0,7.0;"/><polygon fill="none" points="272.4,80.9,290.06,69.2,283.54,89.37,272.4,80.9" style="stroke: #A80036; stroke-width: 1.0;"/><text fill="#888888" font-family="sans-serif" font-size="10" lengthAdjust="spacingAndGlyphs" textLength="190" x="114.5" y="269.748">UMLDoclet 2.0.12, PlantUML 1.2020.16</text><!--MD5=[5f9baf1fba2b2b1bf99bbde6ef0a97ce]
@startuml
    set namespaceSeparator none
    hide empty fields
    hide empty methods

    class "<size:14>ToolImpl\n<size:10>org.eclipse.epf.uma.impl" as org.eclipse.epf.uma.impl.ToolImpl [[ToolImpl.html]] {
        +getToolMentors(): EList<ToolMentor>
        +eGet(int, boolean, boolean): Object
        +eSet(int, Object): void
        +eUnset(int): void
        +eIsSet(int): boolean
    }

    abstract class "<size:14>ContentCategoryImpl\n<size:10>org.eclipse.epf.uma.impl" as org.eclipse.epf.uma.impl.ContentCategoryImpl [[ContentCategoryImpl.html]]
    interface "<size:14>Tool\n<size:10>org.eclipse.epf.uma" as org.eclipse.epf.uma.Tool [[..\Tool.html]] {
        {abstract} +getToolMentors(): EList<ToolMentor>
    }

    org.eclipse.epf.uma.impl.ContentCategoryImpl <|- - org.eclipse.epf.uma.impl.ToolImpl
    org.eclipse.epf.uma.Tool <|.. org.eclipse.epf.uma.impl.ToolImpl

    center footer UMLDoclet 2.0.12, PlantUML 1.2020.16
@enduml

PlantUML version 1.2020.16(Sun Aug 23 22:20:43 CEST 2020)
(APACHE source distribution)
Java Runtime: Java(TM) SE Runtime Environment
JVM: Java HotSpot(TM) 64-Bit Server VM
Default Encoding: Cp1252
Language: es
Country: ES
--></g></svg>