<?xml version="1.0" encoding="UTF-8" standalone="no"?><svg xmlns="http://www.w3.org/2000/svg" xmlns:xlink="http://www.w3.org/1999/xlink" contentScriptType="application/ecmascript" contentStyleType="text/css" height="184px" preserveAspectRatio="none" style="width:377px;height:184px;" version="1.1" viewBox="0 0 377 184" width="377px" zoomAndPan="magnify"><defs><filter height="300%" id="f1mdd3tkq5qecg" width="300%" x="-1" y="-1"><feGaussianBlur result="blurOut" stdDeviation="2.0"/><feColorMatrix in="blurOut" result="blurOut2" type="matrix" values="0 0 0 0 0 0 0 0 0 0 0 0 0 0 0 0 0 0 .4 0"/><feOffset dx="4.0" dy="4.0" in="blurOut2" result="blurOut3"/><feBlend in="SourceGraphic" in2="blurOut3" mode="normal"/></filter></defs><g><!--MD5=[b6cbfcb936a7ace112243a404d2c237e]
class org.eclipse.epf.uma.impl.TypeImpl--><a href="TypeImpl.html" target="_top" title="TypeImpl.html" xlink:actuate="onRequest" xlink:href="TypeImpl.html" xlink:show="new" xlink:title="TypeImpl.html" xlink:type="simple"><rect codeLine="5" fill="#FEFECE" filter="url(#f1mdd3tkq5qecg)" height="40.1875" id="org.eclipse.epf.uma.impl.TypeImpl" style="stroke: #A80036; stroke-width: 1.5;" width="146" x="126" y="107"/><ellipse cx="141" cy="127.0938" fill="#A9DCDF" rx="11" ry="11" style="stroke: #A80036; stroke-width: 1.0;"/><path d="M143.1875,128.8594 L139.0469,128.8594 L138.625,129.8906 L139.0469,129.8906 Q139.6563,129.8906 139.9219,130.125 Q140.1875,130.3594 140.1875,130.75 Q140.1875,131.125 139.9219,131.3594 Q139.6563,131.5938 139.0469,131.5938 L136.75,131.5938 Q136.1406,131.5938 135.8906,131.3594 Q135.625,131.125 135.625,130.7344 Q135.625,130.3594 135.9063,130.125 Q136.1719,129.875 136.7969,129.8906 L139.4688,123.2344 L138.3594,123.2344 Q137.75,123.2344 137.4844,123 Q137.2188,122.7656 137.2188,122.375 Q137.2188,122 137.4844,121.7656 Q137.75,121.5313 138.3594,121.5313 L142.0313,121.5313 L145.4219,129.8906 Q146.0156,129.8906 146.2031,130.0313 Q146.5938,130.2969 146.5938,130.75 Q146.5938,131.125 146.3281,131.3594 Q146.0781,131.5938 145.4688,131.5938 L143.1719,131.5938 Q142.5625,131.5938 142.2969,131.3594 Q142.0313,131.125 142.0313,130.7344 Q142.0313,130.3594 142.2969,130.125 Q142.5625,129.8906 143.1719,129.8906 L143.5938,129.8906 L143.1875,128.8594 Z M142.4688,127.1563 L141.1094,123.7813 L139.7344,127.1563 L142.4688,127.1563 Z "/><text fill="#000000" font-family="sans-serif" font-size="14" font-style="italic" lengthAdjust="spacingAndGlyphs" textLength="58" x="183" y="126.5332">TypeImpl</text><text fill="#000000" font-family="sans-serif" font-size="10" font-style="italic" lengthAdjust="spacingAndGlyphs" textLength="114" x="155" y="139.9902">org.eclipse.epf.uma.impl</text></a><!--MD5=[2d15bc3cf53f3e8155d390d27215ffc3]
class org.eclipse.epf.uma.impl.PackageableElementImpl--><a href="PackageableElementImpl.html" target="_top" title="PackageableElementImpl.html" xlink:actuate="onRequest" xlink:href="PackageableElementImpl.html" xlink:show="new" xlink:title="PackageableElementImpl.html" xlink:type="simple"><rect codeLine="8" fill="#FEFECE" filter="url(#f1mdd3tkq5qecg)" height="40.1875" id="org.eclipse.epf.uma.impl.PackageableElementImpl" style="stroke: #A80036; stroke-width: 1.5;" width="192" x="7" y="7"/><ellipse cx="22" cy="27.0938" fill="#A9DCDF" rx="11" ry="11" style="stroke: #A80036; stroke-width: 1.0;"/><path d="M24.1875,28.8594 L20.0469,28.8594 L19.625,29.8906 L20.0469,29.8906 Q20.6563,29.8906 20.9219,30.125 Q21.1875,30.3594 21.1875,30.75 Q21.1875,31.125 20.9219,31.3594 Q20.6563,31.5938 20.0469,31.5938 L17.75,31.5938 Q17.1406,31.5938 16.8906,31.3594 Q16.625,31.125 16.625,30.7344 Q16.625,30.3594 16.9063,30.125 Q17.1719,29.875 17.7969,29.8906 L20.4688,23.2344 L19.3594,23.2344 Q18.75,23.2344 18.4844,23 Q18.2188,22.7656 18.2188,22.375 Q18.2188,22 18.4844,21.7656 Q18.75,21.5313 19.3594,21.5313 L23.0313,21.5313 L26.4219,29.8906 Q27.0156,29.8906 27.2031,30.0313 Q27.5938,30.2969 27.5938,30.75 Q27.5938,31.125 27.3281,31.3594 Q27.0781,31.5938 26.4688,31.5938 L24.1719,31.5938 Q23.5625,31.5938 23.2969,31.3594 Q23.0313,31.125 23.0313,30.7344 Q23.0313,30.3594 23.2969,30.125 Q23.5625,29.8906 24.1719,29.8906 L24.5938,29.8906 L24.1875,28.8594 Z M23.4688,27.1563 L22.1094,23.7813 L20.7344,27.1563 L23.4688,27.1563 Z "/><text fill="#000000" font-family="sans-serif" font-size="14" font-style="italic" lengthAdjust="spacingAndGlyphs" textLength="160" x="36" y="26.5332">PackageableElementImpl</text><text fill="#000000" font-family="sans-serif" font-size="10" font-style="italic" lengthAdjust="spacingAndGlyphs" textLength="114" x="59" y="39.9902">org.eclipse.epf.uma.impl</text></a><!--MD5=[879d1c833c5589419cccba5c543dc94c]
class org.eclipse.epf.uma.Type--><a href="..\Type.html" target="_top" title="..\Type.html" xlink:actuate="onRequest" xlink:href="..\Type.html" xlink:show="new" xlink:title="..\Type.html" xlink:type="simple"><rect codeLine="9" fill="#FEFECE" filter="url(#f1mdd3tkq5qecg)" height="40.1875" id="org.eclipse.epf.uma.Type" style="stroke: #A80036; stroke-width: 1.5;" width="124" x="234" y="7"/><ellipse cx="249" cy="27.0938" fill="#B4A7E5" rx="11" ry="11" style="stroke: #A80036; stroke-width: 1.0;"/><path d="M249.9531,23.7344 L249.9531,30.3906 L251.6719,30.3906 Q252.2813,30.3906 252.5469,30.625 Q252.8125,30.8594 252.8125,31.25 Q252.8125,31.625 252.5469,31.8594 Q252.2813,32.0938 251.6719,32.0938 L246.5313,32.0938 Q245.9219,32.0938 245.6563,31.8594 Q245.3906,31.625 245.3906,31.2344 Q245.3906,30.8594 245.6563,30.625 Q245.9219,30.3906 246.5313,30.3906 L248.25,30.3906 L248.25,23.7344 L246.5313,23.7344 Q245.9219,23.7344 245.6563,23.5 Q245.3906,23.2656 245.3906,22.875 Q245.3906,22.5 245.6563,22.2656 Q245.9219,22.0313 246.5313,22.0313 L251.6719,22.0313 Q252.2813,22.0313 252.5469,22.2656 Q252.8125,22.5 252.8125,22.875 Q252.8125,23.2656 252.5469,23.5 Q252.2813,23.7344 251.6719,23.7344 L249.9531,23.7344 Z "/><text fill="#000000" font-family="sans-serif" font-size="14" font-style="italic" lengthAdjust="spacingAndGlyphs" textLength="32" x="293" y="26.5332">Type</text><text fill="#000000" font-family="sans-serif" font-size="10" font-style="italic" lengthAdjust="spacingAndGlyphs" textLength="92" x="263" y="39.9902">org.eclipse.epf.uma</text></a><!--MD5=[8a09a91c10df489cde84876402c8c222]
reverse link org.eclipse.epf.uma.impl.PackageableElementImpl to org.eclipse.epf.uma.impl.TypeImpl--><path codeLine="11" d="M136.24,61.94 C150.9,76.9 167.59,93.94 180.07,106.68 " fill="none" id="org.eclipse.epf.uma.impl.PackageableElementImpl-backto-org.eclipse.epf.uma.impl.TypeImpl" style="stroke: #A80036; stroke-width: 1.0;"/><polygon fill="none" points="130.96,66.55,121.97,47.36,140.96,56.75,130.96,66.55" style="stroke: #A80036; stroke-width: 1.0;"/><!--MD5=[2dc68f725dc3e74fcb21fc72de1a63fa]
reverse link org.eclipse.epf.uma.Type to org.eclipse.epf.uma.impl.TypeImpl--><path codeLine="12" d="M262.41,61.94 C247.6,76.9 230.74,93.94 218.12,106.68 " fill="none" id="org.eclipse.epf.uma.Type-backto-org.eclipse.epf.uma.impl.TypeImpl" style="stroke: #A80036; stroke-width: 1.0; stroke-dasharray: 7.0,7.0;"/><polygon fill="none" points="257.79,56.65,276.84,47.36,267.74,66.5,257.79,56.65" style="stroke: #A80036; stroke-width: 1.0;"/><text fill="#888888" font-family="sans-serif" font-size="10" lengthAdjust="spacingAndGlyphs" textLength="190" x="84.5" y="170.5684">UMLDoclet 2.0.12, PlantUML 1.2020.16</text><!--MD5=[1369d4c47bb9d570f78f045d56b17bfe]
@startuml
    set namespaceSeparator none
    hide empty fields
    hide empty methods

    abstract class "<size:14>TypeImpl\n<size:10>org.eclipse.epf.uma.impl" as org.eclipse.epf.uma.impl.TypeImpl [[TypeImpl.html]] {
    }

    abstract class "<size:14>PackageableElementImpl\n<size:10>org.eclipse.epf.uma.impl" as org.eclipse.epf.uma.impl.PackageableElementImpl [[PackageableElementImpl.html]]
    interface "<size:14>Type\n<size:10>org.eclipse.epf.uma" as org.eclipse.epf.uma.Type [[..\Type.html]]

    org.eclipse.epf.uma.impl.PackageableElementImpl <|- - org.eclipse.epf.uma.impl.TypeImpl
    org.eclipse.epf.uma.Type <|.. org.eclipse.epf.uma.impl.TypeImpl

    center footer UMLDoclet 2.0.12, PlantUML 1.2020.16
@enduml

PlantUML version 1.2020.16(Sun Aug 23 22:20:43 CEST 2020)
(APACHE source distribution)
Java Runtime: Java(TM) SE Runtime Environment
JVM: Java HotSpot(TM) 64-Bit Server VM
Default Encoding: Cp1252
Language: es
Country: ES
--></g></svg>