<?xml version="1.0" encoding="UTF-8" standalone="no"?><svg xmlns="http://www.w3.org/2000/svg" xmlns:xlink="http://www.w3.org/1999/xlink" contentScriptType="application/ecmascript" contentStyleType="text/css" height="324px" preserveAspectRatio="none" style="width:458px;height:324px;" version="1.1" viewBox="0 0 458 324" width="458px" zoomAndPan="magnify"><defs><filter height="300%" id="fx2u7r3qv5dql" width="300%" x="-1" y="-1"><feGaussianBlur result="blurOut" stdDeviation="2.0"/><feColorMatrix in="blurOut" result="blurOut2" type="matrix" values="0 0 0 0 0 0 0 0 0 0 0 0 0 0 0 0 0 0 .4 0"/><feOffset dx="4.0" dy="4.0" in="blurOut2" result="blurOut3"/><feBlend in="SourceGraphic" in2="blurOut3" mode="normal"/></filter></defs><g><!--MD5=[82983d6c3ad2537b8065e44d7ea41d6a]
class org.eclipse.epf.uma.impl.UMASemanticModelBridgeImpl--><a href="UMASemanticModelBridgeImpl.html" target="_top" title="UMASemanticModelBridgeImpl.html" xlink:actuate="onRequest" xlink:href="UMASemanticModelBridgeImpl.html" xlink:show="new" xlink:title="UMASemanticModelBridgeImpl.html" xlink:type="simple"><rect codeLine="5" fill="#FEFECE" filter="url(#fx2u7r3qv5dql)" height="145.0391" id="org.eclipse.epf.uma.impl.UMASemanticModelBridgeImpl" style="stroke: #A80036; stroke-width: 1.5;" width="223" x="110.5" y="143"/><ellipse cx="125.5" cy="163.0938" fill="#ADD1B2" rx="11" ry="11" style="stroke: #A80036; stroke-width: 1.0;"/><path d="M128.2656,158.9688 Q128.4219,158.75 128.6094,158.6406 Q128.7969,158.5313 129.0156,158.5313 Q129.3906,158.5313 129.625,158.7969 Q129.8594,159.0469 129.8594,159.6563 L129.8594,161.1094 Q129.8594,161.7188 129.625,161.9844 Q129.3906,162.25 129.0156,162.25 Q128.6719,162.25 128.4688,162.0469 Q128.2656,161.8594 128.1563,161.3438 Q128.1094,160.9844 127.9219,160.7969 Q127.5938,160.4219 126.9844,160.2031 Q126.375,159.9844 125.75,159.9844 Q124.9844,159.9844 124.3438,160.3125 Q123.7188,160.6406 123.2188,161.3906 Q122.7344,162.1406 122.7344,163.1719 L122.7344,164.2656 Q122.7344,165.5 123.625,166.3281 Q124.5156,167.1406 126.1094,167.1406 Q127.0469,167.1406 127.7031,166.8906 Q128.0938,166.7344 128.5156,166.2969 Q128.7813,166.0313 128.9219,165.9531 Q129.0781,165.875 129.2813,165.875 Q129.6094,165.875 129.8594,166.1406 Q130.125,166.3906 130.125,166.7344 Q130.125,167.0781 129.7813,167.4844 Q129.2813,168.0625 128.4844,168.3906 Q127.4063,168.8438 126.1094,168.8438 Q124.5938,168.8438 123.3906,168.2188 Q122.4063,167.7188 121.7188,166.6563 Q121.0313,165.5781 121.0313,164.2969 L121.0313,163.1406 Q121.0313,161.8125 121.6406,160.6719 Q122.2656,159.5156 123.3594,158.9063 Q124.4531,158.2813 125.6875,158.2813 Q126.4219,158.2813 127.0625,158.4531 Q127.7188,158.6094 128.2656,158.9688 Z "/><text fill="#000000" font-family="sans-serif" font-size="14" lengthAdjust="spacingAndGlyphs" textLength="191" x="139.5" y="162.5332">UMASemanticModelBridgeImpl</text><text fill="#000000" font-family="sans-serif" font-size="10" lengthAdjust="spacingAndGlyphs" textLength="118" x="176" y="175.9902">org.eclipse.epf.uma.impl</text><line style="stroke: #A80036; stroke-width: 1.5;" x1="111.5" x2="332.5" y1="183.1875" y2="183.1875"/><ellipse cx="121.5" cy="194.1875" fill="#84BE84" rx="3" ry="3" style="stroke: #038048; stroke-width: 1.0;"/><text fill="#000000" font-family="sans-serif" font-size="11" lengthAdjust="spacingAndGlyphs" textLength="138" x="130.5" y="198.6064">getElement(): MethodElement</text><ellipse cx="121.5" cy="208.0234" fill="#84BE84" rx="3" ry="3" style="stroke: #038048; stroke-width: 1.0;"/><text fill="#000000" font-family="sans-serif" font-size="11" lengthAdjust="spacingAndGlyphs" textLength="166" x="130.5" y="212.4424">basicGetElement(): MethodElement</text><ellipse cx="121.5" cy="221.8594" fill="#84BE84" rx="3" ry="3" style="stroke: #038048; stroke-width: 1.0;"/><text fill="#000000" font-family="sans-serif" font-size="11" lengthAdjust="spacingAndGlyphs" textLength="158" x="130.5" y="226.2783">setElement(MethodElement): void</text><ellipse cx="121.5" cy="235.6953" fill="#84BE84" rx="3" ry="3" style="stroke: #038048; stroke-width: 1.0;"/><text fill="#000000" font-family="sans-serif" font-size="11" lengthAdjust="spacingAndGlyphs" textLength="167" x="130.5" y="240.1143">eGet(int, boolean, boolean): Object</text><ellipse cx="121.5" cy="249.5313" fill="#84BE84" rx="3" ry="3" style="stroke: #038048; stroke-width: 1.0;"/><text fill="#000000" font-family="sans-serif" font-size="11" lengthAdjust="spacingAndGlyphs" textLength="104" x="130.5" y="253.9502">eSet(int, Object): void</text><ellipse cx="121.5" cy="263.3672" fill="#84BE84" rx="3" ry="3" style="stroke: #038048; stroke-width: 1.0;"/><text fill="#000000" font-family="sans-serif" font-size="11" lengthAdjust="spacingAndGlyphs" textLength="79" x="130.5" y="267.7861">eUnset(int): void</text><ellipse cx="121.5" cy="277.2031" fill="#84BE84" rx="3" ry="3" style="stroke: #038048; stroke-width: 1.0;"/><text fill="#000000" font-family="sans-serif" font-size="11" lengthAdjust="spacingAndGlyphs" textLength="93" x="130.5" y="281.6221">eIsSet(int): boolean</text></a><!--MD5=[d675b455933a713921d71e55fdc5ea70]
class org.eclipse.epf.uma.impl.SemanticModelBridgeImpl--><a href="SemanticModelBridgeImpl.html" target="_top" title="SemanticModelBridgeImpl.html" xlink:actuate="onRequest" xlink:href="SemanticModelBridgeImpl.html" xlink:show="new" xlink:title="SemanticModelBridgeImpl.html" xlink:type="simple"><rect codeLine="15" fill="#FEFECE" filter="url(#fx2u7r3qv5dql)" height="40.1875" id="org.eclipse.epf.uma.impl.SemanticModelBridgeImpl" style="stroke: #A80036; stroke-width: 1.5;" width="196" x="7" y="25"/><ellipse cx="22" cy="45.0938" fill="#A9DCDF" rx="11" ry="11" style="stroke: #A80036; stroke-width: 1.0;"/><path d="M24.1875,46.8594 L20.0469,46.8594 L19.625,47.8906 L20.0469,47.8906 Q20.6563,47.8906 20.9219,48.125 Q21.1875,48.3594 21.1875,48.75 Q21.1875,49.125 20.9219,49.3594 Q20.6563,49.5938 20.0469,49.5938 L17.75,49.5938 Q17.1406,49.5938 16.8906,49.3594 Q16.625,49.125 16.625,48.7344 Q16.625,48.3594 16.9063,48.125 Q17.1719,47.875 17.7969,47.8906 L20.4688,41.2344 L19.3594,41.2344 Q18.75,41.2344 18.4844,41 Q18.2188,40.7656 18.2188,40.375 Q18.2188,40 18.4844,39.7656 Q18.75,39.5313 19.3594,39.5313 L23.0313,39.5313 L26.4219,47.8906 Q27.0156,47.8906 27.2031,48.0313 Q27.5938,48.2969 27.5938,48.75 Q27.5938,49.125 27.3281,49.3594 Q27.0781,49.5938 26.4688,49.5938 L24.1719,49.5938 Q23.5625,49.5938 23.2969,49.3594 Q23.0313,49.125 23.0313,48.7344 Q23.0313,48.3594 23.2969,48.125 Q23.5625,47.8906 24.1719,47.8906 L24.5938,47.8906 L24.1875,46.8594 Z M23.4688,45.1563 L22.1094,41.7813 L20.7344,45.1563 L23.4688,45.1563 Z "/><text fill="#000000" font-family="sans-serif" font-size="14" font-style="italic" lengthAdjust="spacingAndGlyphs" textLength="164" x="36" y="44.5332">SemanticModelBridgeImpl</text><text fill="#000000" font-family="sans-serif" font-size="10" font-style="italic" lengthAdjust="spacingAndGlyphs" textLength="114" x="61" y="57.9902">org.eclipse.epf.uma.impl</text></a><!--MD5=[2a3d8e765b9b58c925469460280fa40d]
class org.eclipse.epf.uma.UMASemanticModelBridge--><a href="..\UMASemanticModelBridge.html" target="_top" title="..\UMASemanticModelBridge.html" xlink:actuate="onRequest" xlink:href="..\UMASemanticModelBridge.html" xlink:show="new" xlink:title="..\UMASemanticModelBridge.html" xlink:type="simple"><rect codeLine="16" fill="#FEFECE" filter="url(#fx2u7r3qv5dql)" height="75.8594" id="org.eclipse.epf.uma.UMASemanticModelBridge" style="stroke: #A80036; stroke-width: 1.5;" width="201" x="238.5" y="7"/><ellipse cx="253.5" cy="27.0938" fill="#B4A7E5" rx="11" ry="11" style="stroke: #A80036; stroke-width: 1.0;"/><path d="M254.4531,23.7344 L254.4531,30.3906 L256.1719,30.3906 Q256.7813,30.3906 257.0469,30.625 Q257.3125,30.8594 257.3125,31.25 Q257.3125,31.625 257.0469,31.8594 Q256.7813,32.0938 256.1719,32.0938 L251.0313,32.0938 Q250.4219,32.0938 250.1563,31.8594 Q249.8906,31.625 249.8906,31.2344 Q249.8906,30.8594 250.1563,30.625 Q250.4219,30.3906 251.0313,30.3906 L252.75,30.3906 L252.75,23.7344 L251.0313,23.7344 Q250.4219,23.7344 250.1563,23.5 Q249.8906,23.2656 249.8906,22.875 Q249.8906,22.5 250.1563,22.2656 Q250.4219,22.0313 251.0313,22.0313 L256.1719,22.0313 Q256.7813,22.0313 257.0469,22.2656 Q257.3125,22.5 257.3125,22.875 Q257.3125,23.2656 257.0469,23.5 Q256.7813,23.7344 256.1719,23.7344 L254.4531,23.7344 Z "/><text fill="#000000" font-family="sans-serif" font-size="14" font-style="italic" lengthAdjust="spacingAndGlyphs" textLength="169" x="267.5" y="26.5332">UMASemanticModelBridge</text><text fill="#000000" font-family="sans-serif" font-size="10" font-style="italic" lengthAdjust="spacingAndGlyphs" textLength="92" x="306" y="39.9902">org.eclipse.epf.uma</text><line style="stroke: #A80036; stroke-width: 1.5;" x1="239.5" x2="438.5" y1="47.1875" y2="47.1875"/><ellipse cx="249.5" cy="58.1875" fill="#84BE84" rx="3" ry="3" style="stroke: #038048; stroke-width: 1.0;"/><text fill="#000000" font-family="sans-serif" font-size="11" font-style="italic" lengthAdjust="spacingAndGlyphs" textLength="145" x="258.5" y="62.6064">getElement(): MethodElement</text><ellipse cx="249.5" cy="72.0234" fill="#84BE84" rx="3" ry="3" style="stroke: #038048; stroke-width: 1.0;"/><text fill="#000000" font-family="sans-serif" font-size="11" font-style="italic" lengthAdjust="spacingAndGlyphs" textLength="165" x="258.5" y="76.4424">setElement(MethodElement): void</text></a><!--MD5=[6179369e1c3aebc92976fc67443d7e2a]
reverse link org.eclipse.epf.uma.impl.SemanticModelBridgeImpl to org.eclipse.epf.uma.impl.UMASemanticModelBridgeImpl--><path codeLine="21" d="M129.64,81.48 C142.05,99.36 157.57,121.71 172.32,142.95 " fill="none" id="org.eclipse.epf.uma.impl.SemanticModelBridgeImpl-backto-org.eclipse.epf.uma.impl.UMASemanticModelBridgeImpl" style="stroke: #A80036; stroke-width: 1.0;"/><polygon fill="none" points="123.85,85.42,118.19,65,135.35,77.44,123.85,85.42" style="stroke: #A80036; stroke-width: 1.0;"/><!--MD5=[00084995d1f370e400af253c92e2b636]
reverse link org.eclipse.epf.uma.UMASemanticModelBridge to org.eclipse.epf.uma.impl.UMASemanticModelBridgeImpl--><path codeLine="22" d="M301.54,99.95 C292.04,113.64 281.68,128.56 271.67,142.97 " fill="none" id="org.eclipse.epf.uma.UMASemanticModelBridge-backto-org.eclipse.epf.uma.impl.UMASemanticModelBridgeImpl" style="stroke: #A80036; stroke-width: 1.0; stroke-dasharray: 7.0,7.0;"/><polygon fill="none" points="295.88,95.83,313.03,83.4,307.38,103.82,295.88,95.83" style="stroke: #A80036; stroke-width: 1.0;"/><text fill="#888888" font-family="sans-serif" font-size="10" lengthAdjust="spacingAndGlyphs" textLength="190" x="125.25" y="311.4199">UMLDoclet 2.0.12, PlantUML 1.2020.16</text><!--MD5=[381f318398418d20329290266f7d81bb]
@startuml
    set namespaceSeparator none
    hide empty fields
    hide empty methods

    class "<size:14>UMASemanticModelBridgeImpl\n<size:10>org.eclipse.epf.uma.impl" as org.eclipse.epf.uma.impl.UMASemanticModelBridgeImpl [[UMASemanticModelBridgeImpl.html]] {
        +getElement(): MethodElement
        +basicGetElement(): MethodElement
        +setElement(MethodElement): void
        +eGet(int, boolean, boolean): Object
        +eSet(int, Object): void
        +eUnset(int): void
        +eIsSet(int): boolean
    }

    abstract class "<size:14>SemanticModelBridgeImpl\n<size:10>org.eclipse.epf.uma.impl" as org.eclipse.epf.uma.impl.SemanticModelBridgeImpl [[SemanticModelBridgeImpl.html]]
    interface "<size:14>UMASemanticModelBridge\n<size:10>org.eclipse.epf.uma" as org.eclipse.epf.uma.UMASemanticModelBridge [[..\UMASemanticModelBridge.html]] {
        {abstract} +getElement(): MethodElement
        {abstract} +setElement(MethodElement): void
    }

    org.eclipse.epf.uma.impl.SemanticModelBridgeImpl <|- - org.eclipse.epf.uma.impl.UMASemanticModelBridgeImpl
    org.eclipse.epf.uma.UMASemanticModelBridge <|.. org.eclipse.epf.uma.impl.UMASemanticModelBridgeImpl

    center footer UMLDoclet 2.0.12, PlantUML 1.2020.16
@enduml

PlantUML version 1.2020.16(Sun Aug 23 22:20:43 CEST 2020)
(APACHE source distribution)
Java Runtime: Java(TM) SE Runtime Environment
JVM: Java HotSpot(TM) 64-Bit Server VM
Default Encoding: Cp1252
Language: es
Country: ES
--></g></svg>