<?xml version="1.0" encoding="UTF-8" standalone="no"?><svg xmlns="http://www.w3.org/2000/svg" xmlns:xlink="http://www.w3.org/1999/xlink" contentScriptType="application/ecmascript" contentStyleType="text/css" height="380px" preserveAspectRatio="none" style="width:519px;height:380px;" version="1.1" viewBox="0 0 519 380" width="519px" zoomAndPan="magnify"><defs><filter height="300%" id="f49vm7xikaeid" width="300%" x="-1" y="-1"><feGaussianBlur result="blurOut" stdDeviation="2.0"/><feColorMatrix in="blurOut" result="blurOut2" type="matrix" values="0 0 0 0 0 0 0 0 0 0 0 0 0 0 0 0 0 0 .4 0"/><feOffset dx="4.0" dy="4.0" in="blurOut2" result="blurOut3"/><feBlend in="SourceGraphic" in2="blurOut3" mode="normal"/></filter></defs><g><!--MD5=[5a4e543df5f71f09a634fc3c0c7fba31]
class org.eclipse.epf.uma.impl.VariabilityElementImpl--><a href="VariabilityElementImpl.html" target="_top" title="VariabilityElementImpl.html" xlink:actuate="onRequest" xlink:href="VariabilityElementImpl.html" xlink:show="new" xlink:title="VariabilityElementImpl.html" xlink:type="simple"><rect codeLine="5" fill="#FEFECE" filter="url(#f49vm7xikaeid)" height="172.7109" id="org.eclipse.epf.uma.impl.VariabilityElementImpl" style="stroke: #A80036; stroke-width: 1.5;" width="296" x="69.5" y="171"/><ellipse cx="144.25" cy="191.0938" fill="#A9DCDF" rx="11" ry="11" style="stroke: #A80036; stroke-width: 1.0;"/><path d="M146.4375,192.8594 L142.2969,192.8594 L141.875,193.8906 L142.2969,193.8906 Q142.9063,193.8906 143.1719,194.125 Q143.4375,194.3594 143.4375,194.75 Q143.4375,195.125 143.1719,195.3594 Q142.9063,195.5938 142.2969,195.5938 L140,195.5938 Q139.3906,195.5938 139.1406,195.3594 Q138.875,195.125 138.875,194.7344 Q138.875,194.3594 139.1563,194.125 Q139.4219,193.875 140.0469,193.8906 L142.7188,187.2344 L141.6094,187.2344 Q141,187.2344 140.7344,187 Q140.4688,186.7656 140.4688,186.375 Q140.4688,186 140.7344,185.7656 Q141,185.5313 141.6094,185.5313 L145.2813,185.5313 L148.6719,193.8906 Q149.2656,193.8906 149.4531,194.0313 Q149.8438,194.2969 149.8438,194.75 Q149.8438,195.125 149.5781,195.3594 Q149.3281,195.5938 148.7188,195.5938 L146.4219,195.5938 Q145.8125,195.5938 145.5469,195.3594 Q145.2813,195.125 145.2813,194.7344 Q145.2813,194.3594 145.5469,194.125 Q145.8125,193.8906 146.4219,193.8906 L146.8438,193.8906 L146.4375,192.8594 Z M145.7188,191.1563 L144.3594,187.7813 L142.9844,191.1563 L145.7188,191.1563 Z "/><text fill="#000000" font-family="sans-serif" font-size="14" font-style="italic" lengthAdjust="spacingAndGlyphs" textLength="138" x="164.75" y="190.5332">VariabilityElementImpl</text><text fill="#000000" font-family="sans-serif" font-size="10" font-style="italic" lengthAdjust="spacingAndGlyphs" textLength="114" x="176.75" y="203.9902">org.eclipse.epf.uma.impl</text><line style="stroke: #A80036; stroke-width: 1.5;" x1="70.5" x2="364.5" y1="211.1875" y2="211.1875"/><ellipse cx="80.5" cy="222.1875" fill="#84BE84" rx="3" ry="3" style="stroke: #038048; stroke-width: 1.0;"/><text fill="#000000" font-family="sans-serif" font-size="11" lengthAdjust="spacingAndGlyphs" textLength="171" x="89.5" y="226.6064">getVariabilityType(): VariabilityType</text><ellipse cx="80.5" cy="236.0234" fill="#84BE84" rx="3" ry="3" style="stroke: #038048; stroke-width: 1.0;"/><text fill="#000000" font-family="sans-serif" font-size="11" lengthAdjust="spacingAndGlyphs" textLength="191" x="89.5" y="240.4424">setVariabilityType(VariabilityType): void</text><ellipse cx="80.5" cy="249.8594" fill="#84BE84" rx="3" ry="3" style="stroke: #038048; stroke-width: 1.0;"/><text fill="#000000" font-family="sans-serif" font-size="11" lengthAdjust="spacingAndGlyphs" textLength="242" x="89.5" y="254.2783">getVariabilityBasedOnElement(): VariabilityElement</text><ellipse cx="80.5" cy="263.6953" fill="#84BE84" rx="3" ry="3" style="stroke: #038048; stroke-width: 1.0;"/><text fill="#000000" font-family="sans-serif" font-size="11" lengthAdjust="spacingAndGlyphs" textLength="270" x="89.5" y="268.1143">basicGetVariabilityBasedOnElement(): VariabilityElement</text><ellipse cx="80.5" cy="277.5313" fill="#84BE84" rx="3" ry="3" style="stroke: #038048; stroke-width: 1.0;"/><text fill="#000000" font-family="sans-serif" font-size="11" lengthAdjust="spacingAndGlyphs" textLength="262" x="89.5" y="281.9502">setVariabilityBasedOnElement(VariabilityElement): void</text><ellipse cx="80.5" cy="291.3672" fill="#84BE84" rx="3" ry="3" style="stroke: #038048; stroke-width: 1.0;"/><text fill="#000000" font-family="sans-serif" font-size="11" lengthAdjust="spacingAndGlyphs" textLength="167" x="89.5" y="295.7861">eGet(int, boolean, boolean): Object</text><ellipse cx="80.5" cy="305.2031" fill="#84BE84" rx="3" ry="3" style="stroke: #038048; stroke-width: 1.0;"/><text fill="#000000" font-family="sans-serif" font-size="11" lengthAdjust="spacingAndGlyphs" textLength="104" x="89.5" y="309.6221">eSet(int, Object): void</text><ellipse cx="80.5" cy="319.0391" fill="#84BE84" rx="3" ry="3" style="stroke: #038048; stroke-width: 1.0;"/><text fill="#000000" font-family="sans-serif" font-size="11" lengthAdjust="spacingAndGlyphs" textLength="79" x="89.5" y="323.458">eUnset(int): void</text><ellipse cx="80.5" cy="332.875" fill="#84BE84" rx="3" ry="3" style="stroke: #038048; stroke-width: 1.0;"/><text fill="#000000" font-family="sans-serif" font-size="11" lengthAdjust="spacingAndGlyphs" textLength="93" x="89.5" y="337.2939">eIsSet(int): boolean</text></a><!--MD5=[96d74128ee637182a637cecce9919dcf]
class org.eclipse.epf.uma.impl.MethodElementImpl--><a href="MethodElementImpl.html" target="_top" title="MethodElementImpl.html" xlink:actuate="onRequest" xlink:href="MethodElementImpl.html" xlink:show="new" xlink:title="MethodElementImpl.html" xlink:type="simple"><rect codeLine="17" fill="#FEFECE" filter="url(#f49vm7xikaeid)" height="40.1875" id="org.eclipse.epf.uma.impl.MethodElementImpl" style="stroke: #A80036; stroke-width: 1.5;" width="157" x="7" y="39"/><ellipse cx="22" cy="59.0938" fill="#A9DCDF" rx="11" ry="11" style="stroke: #A80036; stroke-width: 1.0;"/><path d="M24.1875,60.8594 L20.0469,60.8594 L19.625,61.8906 L20.0469,61.8906 Q20.6563,61.8906 20.9219,62.125 Q21.1875,62.3594 21.1875,62.75 Q21.1875,63.125 20.9219,63.3594 Q20.6563,63.5938 20.0469,63.5938 L17.75,63.5938 Q17.1406,63.5938 16.8906,63.3594 Q16.625,63.125 16.625,62.7344 Q16.625,62.3594 16.9063,62.125 Q17.1719,61.875 17.7969,61.8906 L20.4688,55.2344 L19.3594,55.2344 Q18.75,55.2344 18.4844,55 Q18.2188,54.7656 18.2188,54.375 Q18.2188,54 18.4844,53.7656 Q18.75,53.5313 19.3594,53.5313 L23.0313,53.5313 L26.4219,61.8906 Q27.0156,61.8906 27.2031,62.0313 Q27.5938,62.2969 27.5938,62.75 Q27.5938,63.125 27.3281,63.3594 Q27.0781,63.5938 26.4688,63.5938 L24.1719,63.5938 Q23.5625,63.5938 23.2969,63.3594 Q23.0313,63.125 23.0313,62.7344 Q23.0313,62.3594 23.2969,62.125 Q23.5625,61.8906 24.1719,61.8906 L24.5938,61.8906 L24.1875,60.8594 Z M23.4688,59.1563 L22.1094,55.7813 L20.7344,59.1563 L23.4688,59.1563 Z "/><text fill="#000000" font-family="sans-serif" font-size="14" font-style="italic" lengthAdjust="spacingAndGlyphs" textLength="125" x="36" y="58.5332">MethodElementImpl</text><text fill="#000000" font-family="sans-serif" font-size="10" font-style="italic" lengthAdjust="spacingAndGlyphs" textLength="114" x="41.5" y="71.9902">org.eclipse.epf.uma.impl</text></a><!--MD5=[3feaaf670fc79e387ff2ee6de862556d]
class org.eclipse.epf.uma.VariabilityElement--><a href="..\VariabilityElement.html" target="_top" title="..\VariabilityElement.html" xlink:actuate="onRequest" xlink:href="..\VariabilityElement.html" xlink:show="new" xlink:title="..\VariabilityElement.html" xlink:type="simple"><rect codeLine="18" fill="#FEFECE" filter="url(#f49vm7xikaeid)" height="103.5313" id="org.eclipse.epf.uma.VariabilityElement" style="stroke: #A80036; stroke-width: 1.5;" width="301" x="199" y="7"/><ellipse cx="289.25" cy="27.0938" fill="#B4A7E5" rx="11" ry="11" style="stroke: #A80036; stroke-width: 1.0;"/><path d="M290.2031,23.7344 L290.2031,30.3906 L291.9219,30.3906 Q292.5313,30.3906 292.7969,30.625 Q293.0625,30.8594 293.0625,31.25 Q293.0625,31.625 292.7969,31.8594 Q292.5313,32.0938 291.9219,32.0938 L286.7813,32.0938 Q286.1719,32.0938 285.9063,31.8594 Q285.6406,31.625 285.6406,31.2344 Q285.6406,30.8594 285.9063,30.625 Q286.1719,30.3906 286.7813,30.3906 L288.5,30.3906 L288.5,23.7344 L286.7813,23.7344 Q286.1719,23.7344 285.9063,23.5 Q285.6406,23.2656 285.6406,22.875 Q285.6406,22.5 285.9063,22.2656 Q286.1719,22.0313 286.7813,22.0313 L291.9219,22.0313 Q292.5313,22.0313 292.7969,22.2656 Q293.0625,22.5 293.0625,22.875 Q293.0625,23.2656 292.7969,23.5 Q292.5313,23.7344 291.9219,23.7344 L290.2031,23.7344 Z "/><text fill="#000000" font-family="sans-serif" font-size="14" font-style="italic" lengthAdjust="spacingAndGlyphs" textLength="112" x="309.75" y="26.5332">VariabilityElement</text><text fill="#000000" font-family="sans-serif" font-size="10" font-style="italic" lengthAdjust="spacingAndGlyphs" textLength="92" x="319.75" y="39.9902">org.eclipse.epf.uma</text><line style="stroke: #A80036; stroke-width: 1.5;" x1="200" x2="499" y1="47.1875" y2="47.1875"/><ellipse cx="210" cy="58.1875" fill="#84BE84" rx="3" ry="3" style="stroke: #038048; stroke-width: 1.0;"/><text fill="#000000" font-family="sans-serif" font-size="11" font-style="italic" lengthAdjust="spacingAndGlyphs" textLength="177" x="219" y="62.6064">getVariabilityType(): VariabilityType</text><ellipse cx="210" cy="72.0234" fill="#84BE84" rx="3" ry="3" style="stroke: #038048; stroke-width: 1.0;"/><text fill="#000000" font-family="sans-serif" font-size="11" font-style="italic" lengthAdjust="spacingAndGlyphs" textLength="197" x="219" y="76.4424">setVariabilityType(VariabilityType): void</text><ellipse cx="210" cy="85.8594" fill="#84BE84" rx="3" ry="3" style="stroke: #038048; stroke-width: 1.0;"/><text fill="#000000" font-family="sans-serif" font-size="11" font-style="italic" lengthAdjust="spacingAndGlyphs" textLength="255" x="219" y="90.2783">getVariabilityBasedOnElement(): VariabilityElement</text><ellipse cx="210" cy="99.6953" fill="#84BE84" rx="3" ry="3" style="stroke: #038048; stroke-width: 1.0;"/><text fill="#000000" font-family="sans-serif" font-size="11" font-style="italic" lengthAdjust="spacingAndGlyphs" textLength="275" x="219" y="104.1143">setVariabilityBasedOnElement(VariabilityElement): void</text></a><!--MD5=[c77988c0dbf218b03feae223977a3d51]
reverse link org.eclipse.epf.uma.impl.MethodElementImpl to org.eclipse.epf.uma.impl.VariabilityElementImpl--><path codeLine="25" d="M109.58,95.85 C123.74,116.93 142.29,144.55 160.02,170.93 " fill="none" id="org.eclipse.epf.uma.impl.MethodElementImpl-backto-org.eclipse.epf.uma.impl.VariabilityElementImpl" style="stroke: #A80036; stroke-width: 1.0;"/><polygon fill="none" points="103.74,99.7,98.4,79.2,115.36,91.9,103.74,99.7" style="stroke: #A80036; stroke-width: 1.0;"/><!--MD5=[5c8cc8bc99abba8f81ecf9dc9d2d35f7]
reverse link org.eclipse.epf.uma.VariabilityElement to org.eclipse.epf.uma.impl.VariabilityElementImpl--><path codeLine="26" d="M303.84,127.97 C294.6,141.73 284.77,156.36 275.18,170.63 " fill="none" id="org.eclipse.epf.uma.VariabilityElement-backto-org.eclipse.epf.uma.impl.VariabilityElementImpl" style="stroke: #A80036; stroke-width: 1.0; stroke-dasharray: 7.0,7.0;"/><polygon fill="none" points="298.2,123.81,315.16,111.12,309.82,131.62,298.2,123.81" style="stroke: #A80036; stroke-width: 1.0;"/><text fill="#888888" font-family="sans-serif" font-size="10" lengthAdjust="spacingAndGlyphs" textLength="190" x="155.5" y="367.0918">UMLDoclet 2.0.12, PlantUML 1.2020.16</text><!--MD5=[d32e85fc9f1675611937dc9085c459c1]
@startuml
    set namespaceSeparator none
    hide empty fields
    hide empty methods

    abstract class "<size:14>VariabilityElementImpl\n<size:10>org.eclipse.epf.uma.impl" as org.eclipse.epf.uma.impl.VariabilityElementImpl [[VariabilityElementImpl.html]] {
        +getVariabilityType(): VariabilityType
        +setVariabilityType(VariabilityType): void
        +getVariabilityBasedOnElement(): VariabilityElement
        +basicGetVariabilityBasedOnElement(): VariabilityElement
        +setVariabilityBasedOnElement(VariabilityElement): void
        +eGet(int, boolean, boolean): Object
        +eSet(int, Object): void
        +eUnset(int): void
        +eIsSet(int): boolean
    }

    abstract class "<size:14>MethodElementImpl\n<size:10>org.eclipse.epf.uma.impl" as org.eclipse.epf.uma.impl.MethodElementImpl [[MethodElementImpl.html]]
    interface "<size:14>VariabilityElement\n<size:10>org.eclipse.epf.uma" as org.eclipse.epf.uma.VariabilityElement [[..\VariabilityElement.html]] {
        {abstract} +getVariabilityType(): VariabilityType
        {abstract} +setVariabilityType(VariabilityType): void
        {abstract} +getVariabilityBasedOnElement(): VariabilityElement
        {abstract} +setVariabilityBasedOnElement(VariabilityElement): void
    }

    org.eclipse.epf.uma.impl.MethodElementImpl <|- - org.eclipse.epf.uma.impl.VariabilityElementImpl
    org.eclipse.epf.uma.VariabilityElement <|.. org.eclipse.epf.uma.impl.VariabilityElementImpl

    center footer UMLDoclet 2.0.12, PlantUML 1.2020.16
@enduml

PlantUML version 1.2020.16(Sun Aug 23 22:20:43 CEST 2020)
(APACHE source distribution)
Java Runtime: Java(TM) SE Runtime Environment
JVM: Java HotSpot(TM) 64-Bit Server VM
Default Encoding: Cp1252
Language: es
Country: ES
--></g></svg>