<?xml version="1.0" encoding="UTF-8" standalone="no"?><svg xmlns="http://www.w3.org/2000/svg" xmlns:xlink="http://www.w3.org/1999/xlink" contentScriptType="application/ecmascript" contentStyleType="text/css" height="380px" preserveAspectRatio="none" style="width:440px;height:380px;" version="1.1" viewBox="0 0 440 380" width="440px" zoomAndPan="magnify"><defs><filter height="300%" id="fvye1566059mr" width="300%" x="-1" y="-1"><feGaussianBlur result="blurOut" stdDeviation="2.0"/><feColorMatrix in="blurOut" result="blurOut2" type="matrix" values="0 0 0 0 0 0 0 0 0 0 0 0 0 0 0 0 0 0 .4 0"/><feOffset dx="4.0" dy="4.0" in="blurOut2" result="blurOut3"/><feBlend in="SourceGraphic" in2="blurOut3" mode="normal"/></filter></defs><g><!--MD5=[aefcd006a368260f26eea6f00f5b1a8a]
class org.eclipse.epf.uma.impl.WorkOrderImpl--><a href="WorkOrderImpl.html" target="_top" title="WorkOrderImpl.html" xlink:actuate="onRequest" xlink:href="WorkOrderImpl.html" xlink:show="new" xlink:title="WorkOrderImpl.html" xlink:type="simple"><rect codeLine="5" fill="#FEFECE" filter="url(#fvye1566059mr)" height="172.7109" id="org.eclipse.epf.uma.impl.WorkOrderImpl" style="stroke: #A80036; stroke-width: 1.5;" width="223" x="87.5" y="171"/><ellipse cx="135.75" cy="191.0938" fill="#ADD1B2" rx="11" ry="11" style="stroke: #A80036; stroke-width: 1.0;"/><path d="M138.5156,186.9688 Q138.6719,186.75 138.8594,186.6406 Q139.0469,186.5313 139.2656,186.5313 Q139.6406,186.5313 139.875,186.7969 Q140.1094,187.0469 140.1094,187.6563 L140.1094,189.1094 Q140.1094,189.7188 139.875,189.9844 Q139.6406,190.25 139.2656,190.25 Q138.9219,190.25 138.7188,190.0469 Q138.5156,189.8594 138.4063,189.3438 Q138.3594,188.9844 138.1719,188.7969 Q137.8438,188.4219 137.2344,188.2031 Q136.625,187.9844 136,187.9844 Q135.2344,187.9844 134.5938,188.3125 Q133.9688,188.6406 133.4688,189.3906 Q132.9844,190.1406 132.9844,191.1719 L132.9844,192.2656 Q132.9844,193.5 133.875,194.3281 Q134.7656,195.1406 136.3594,195.1406 Q137.2969,195.1406 137.9531,194.8906 Q138.3438,194.7344 138.7656,194.2969 Q139.0313,194.0313 139.1719,193.9531 Q139.3281,193.875 139.5313,193.875 Q139.8594,193.875 140.1094,194.1406 Q140.375,194.3906 140.375,194.7344 Q140.375,195.0781 140.0313,195.4844 Q139.5313,196.0625 138.7344,196.3906 Q137.6563,196.8438 136.3594,196.8438 Q134.8438,196.8438 133.6406,196.2188 Q132.6563,195.7188 131.9688,194.6563 Q131.2813,193.5781 131.2813,192.2969 L131.2813,191.1406 Q131.2813,189.8125 131.8906,188.6719 Q132.5156,187.5156 133.6094,186.9063 Q134.7031,186.2813 135.9375,186.2813 Q136.6719,186.2813 137.3125,186.4531 Q137.9688,186.6094 138.5156,186.9688 Z "/><text fill="#000000" font-family="sans-serif" font-size="14" lengthAdjust="spacingAndGlyphs" textLength="95" x="167.75" y="190.5332">WorkOrderImpl</text><text fill="#000000" font-family="sans-serif" font-size="10" lengthAdjust="spacingAndGlyphs" textLength="118" x="156.25" y="203.9902">org.eclipse.epf.uma.impl</text><line style="stroke: #A80036; stroke-width: 1.5;" x1="88.5" x2="309.5" y1="211.1875" y2="211.1875"/><ellipse cx="98.5" cy="222.1875" fill="#84BE84" rx="3" ry="3" style="stroke: #038048; stroke-width: 1.0;"/><text fill="#000000" font-family="sans-serif" font-size="11" lengthAdjust="spacingAndGlyphs" textLength="149" x="107.5" y="226.6064">getLinkType(): WorkOrderType</text><ellipse cx="98.5" cy="236.0234" fill="#84BE84" rx="3" ry="3" style="stroke: #038048; stroke-width: 1.0;"/><text fill="#000000" font-family="sans-serif" font-size="11" lengthAdjust="spacingAndGlyphs" textLength="169" x="107.5" y="240.4424">setLinkType(WorkOrderType): void</text><ellipse cx="98.5" cy="249.8594" fill="#84BE84" rx="3" ry="3" style="stroke: #038048; stroke-width: 1.0;"/><text fill="#000000" font-family="sans-serif" font-size="11" lengthAdjust="spacingAndGlyphs" textLength="169" x="107.5" y="254.2783">getPred(): WorkBreakdownElement</text><ellipse cx="98.5" cy="263.6953" fill="#84BE84" rx="3" ry="3" style="stroke: #038048; stroke-width: 1.0;"/><text fill="#000000" font-family="sans-serif" font-size="11" lengthAdjust="spacingAndGlyphs" textLength="197" x="107.5" y="268.1143">basicGetPred(): WorkBreakdownElement</text><ellipse cx="98.5" cy="277.5313" fill="#84BE84" rx="3" ry="3" style="stroke: #038048; stroke-width: 1.0;"/><text fill="#000000" font-family="sans-serif" font-size="11" lengthAdjust="spacingAndGlyphs" textLength="189" x="107.5" y="281.9502">setPred(WorkBreakdownElement): void</text><ellipse cx="98.5" cy="291.3672" fill="#84BE84" rx="3" ry="3" style="stroke: #038048; stroke-width: 1.0;"/><text fill="#000000" font-family="sans-serif" font-size="11" lengthAdjust="spacingAndGlyphs" textLength="167" x="107.5" y="295.7861">eGet(int, boolean, boolean): Object</text><ellipse cx="98.5" cy="305.2031" fill="#84BE84" rx="3" ry="3" style="stroke: #038048; stroke-width: 1.0;"/><text fill="#000000" font-family="sans-serif" font-size="11" lengthAdjust="spacingAndGlyphs" textLength="104" x="107.5" y="309.6221">eSet(int, Object): void</text><ellipse cx="98.5" cy="319.0391" fill="#84BE84" rx="3" ry="3" style="stroke: #038048; stroke-width: 1.0;"/><text fill="#000000" font-family="sans-serif" font-size="11" lengthAdjust="spacingAndGlyphs" textLength="79" x="107.5" y="323.458">eUnset(int): void</text><ellipse cx="98.5" cy="332.875" fill="#84BE84" rx="3" ry="3" style="stroke: #038048; stroke-width: 1.0;"/><text fill="#000000" font-family="sans-serif" font-size="11" lengthAdjust="spacingAndGlyphs" textLength="93" x="107.5" y="337.2939">eIsSet(int): boolean</text></a><!--MD5=[8c3cf60cf2d9a35cbea2f14b42beac3e]
class org.eclipse.epf.uma.impl.ProcessElementImpl--><a href="ProcessElementImpl.html" target="_top" title="ProcessElementImpl.html" xlink:actuate="onRequest" xlink:href="ProcessElementImpl.html" xlink:show="new" xlink:title="ProcessElementImpl.html" xlink:type="simple"><rect codeLine="17" fill="#FEFECE" filter="url(#fvye1566059mr)" height="40.1875" id="org.eclipse.epf.uma.impl.ProcessElementImpl" style="stroke: #A80036; stroke-width: 1.5;" width="160" x="7" y="39"/><ellipse cx="22" cy="59.0938" fill="#A9DCDF" rx="11" ry="11" style="stroke: #A80036; stroke-width: 1.0;"/><path d="M24.1875,60.8594 L20.0469,60.8594 L19.625,61.8906 L20.0469,61.8906 Q20.6563,61.8906 20.9219,62.125 Q21.1875,62.3594 21.1875,62.75 Q21.1875,63.125 20.9219,63.3594 Q20.6563,63.5938 20.0469,63.5938 L17.75,63.5938 Q17.1406,63.5938 16.8906,63.3594 Q16.625,63.125 16.625,62.7344 Q16.625,62.3594 16.9063,62.125 Q17.1719,61.875 17.7969,61.8906 L20.4688,55.2344 L19.3594,55.2344 Q18.75,55.2344 18.4844,55 Q18.2188,54.7656 18.2188,54.375 Q18.2188,54 18.4844,53.7656 Q18.75,53.5313 19.3594,53.5313 L23.0313,53.5313 L26.4219,61.8906 Q27.0156,61.8906 27.2031,62.0313 Q27.5938,62.2969 27.5938,62.75 Q27.5938,63.125 27.3281,63.3594 Q27.0781,63.5938 26.4688,63.5938 L24.1719,63.5938 Q23.5625,63.5938 23.2969,63.3594 Q23.0313,63.125 23.0313,62.7344 Q23.0313,62.3594 23.2969,62.125 Q23.5625,61.8906 24.1719,61.8906 L24.5938,61.8906 L24.1875,60.8594 Z M23.4688,59.1563 L22.1094,55.7813 L20.7344,59.1563 L23.4688,59.1563 Z "/><text fill="#000000" font-family="sans-serif" font-size="14" font-style="italic" lengthAdjust="spacingAndGlyphs" textLength="128" x="36" y="58.5332">ProcessElementImpl</text><text fill="#000000" font-family="sans-serif" font-size="10" font-style="italic" lengthAdjust="spacingAndGlyphs" textLength="114" x="43" y="71.9902">org.eclipse.epf.uma.impl</text></a><!--MD5=[cb06fe2f8e143876a2e5c06d621516f3]
class org.eclipse.epf.uma.WorkOrder--><a href="..\WorkOrder.html" target="_top" title="..\WorkOrder.html" xlink:actuate="onRequest" xlink:href="..\WorkOrder.html" xlink:show="new" xlink:title="..\WorkOrder.html" xlink:type="simple"><rect codeLine="18" fill="#FEFECE" filter="url(#fvye1566059mr)" height="103.5313" id="org.eclipse.epf.uma.WorkOrder" style="stroke: #A80036; stroke-width: 1.5;" width="219" x="202.5" y="7"/><ellipse cx="261.75" cy="27.0938" fill="#B4A7E5" rx="11" ry="11" style="stroke: #A80036; stroke-width: 1.0;"/><path d="M262.7031,23.7344 L262.7031,30.3906 L264.4219,30.3906 Q265.0313,30.3906 265.2969,30.625 Q265.5625,30.8594 265.5625,31.25 Q265.5625,31.625 265.2969,31.8594 Q265.0313,32.0938 264.4219,32.0938 L259.2813,32.0938 Q258.6719,32.0938 258.4063,31.8594 Q258.1406,31.625 258.1406,31.2344 Q258.1406,30.8594 258.4063,30.625 Q258.6719,30.3906 259.2813,30.3906 L261,30.3906 L261,23.7344 L259.2813,23.7344 Q258.6719,23.7344 258.4063,23.5 Q258.1406,23.2656 258.1406,22.875 Q258.1406,22.5 258.4063,22.2656 Q258.6719,22.0313 259.2813,22.0313 L264.4219,22.0313 Q265.0313,22.0313 265.2969,22.2656 Q265.5625,22.5 265.5625,22.875 Q265.5625,23.2656 265.2969,23.5 Q265.0313,23.7344 264.4219,23.7344 L262.7031,23.7344 Z "/><text fill="#000000" font-family="sans-serif" font-size="14" font-style="italic" lengthAdjust="spacingAndGlyphs" textLength="72" x="292.25" y="26.5332">WorkOrder</text><text fill="#000000" font-family="sans-serif" font-size="10" font-style="italic" lengthAdjust="spacingAndGlyphs" textLength="92" x="282.25" y="39.9902">org.eclipse.epf.uma</text><line style="stroke: #A80036; stroke-width: 1.5;" x1="203.5" x2="420.5" y1="47.1875" y2="47.1875"/><ellipse cx="213.5" cy="58.1875" fill="#84BE84" rx="3" ry="3" style="stroke: #038048; stroke-width: 1.0;"/><text fill="#000000" font-family="sans-serif" font-size="11" font-style="italic" lengthAdjust="spacingAndGlyphs" textLength="154" x="222.5" y="62.6064">getLinkType(): WorkOrderType</text><ellipse cx="213.5" cy="72.0234" fill="#84BE84" rx="3" ry="3" style="stroke: #038048; stroke-width: 1.0;"/><text fill="#000000" font-family="sans-serif" font-size="11" font-style="italic" lengthAdjust="spacingAndGlyphs" textLength="174" x="222.5" y="76.4424">setLinkType(WorkOrderType): void</text><ellipse cx="213.5" cy="85.8594" fill="#84BE84" rx="3" ry="3" style="stroke: #038048; stroke-width: 1.0;"/><text fill="#000000" font-family="sans-serif" font-size="11" font-style="italic" lengthAdjust="spacingAndGlyphs" textLength="173" x="222.5" y="90.2783">getPred(): WorkBreakdownElement</text><ellipse cx="213.5" cy="99.6953" fill="#84BE84" rx="3" ry="3" style="stroke: #038048; stroke-width: 1.0;"/><text fill="#000000" font-family="sans-serif" font-size="11" font-style="italic" lengthAdjust="spacingAndGlyphs" textLength="193" x="222.5" y="104.1143">setPred(WorkBreakdownElement): void</text></a><!--MD5=[fa0dfec00d56abc04b759c4e2606a9b9]
reverse link org.eclipse.epf.uma.impl.ProcessElementImpl to org.eclipse.epf.uma.impl.WorkOrderImpl--><path codeLine="25" d="M107.98,96.81 C119.92,117.76 135.42,144.95 150.23,170.93 " fill="none" id="org.eclipse.epf.uma.impl.ProcessElementImpl-backto-org.eclipse.epf.uma.impl.WorkOrderImpl" style="stroke: #A80036; stroke-width: 1.0;"/><polygon fill="none" points="101.77,100.04,97.94,79.2,113.93,93.11,101.77,100.04" style="stroke: #A80036; stroke-width: 1.0;"/><!--MD5=[92ba90f94c6608dcc601505b35315546]
reverse link org.eclipse.epf.uma.WorkOrder to org.eclipse.epf.uma.impl.WorkOrderImpl--><path codeLine="26" d="M272.38,128.89 C264.63,142.38 256.41,156.68 248.38,170.63 " fill="none" id="org.eclipse.epf.uma.WorkOrder-backto-org.eclipse.epf.uma.impl.WorkOrderImpl" style="stroke: #A80036; stroke-width: 1.0; stroke-dasharray: 7.0,7.0;"/><polygon fill="none" points="266.57,124.96,282.61,111.12,278.7,131.94,266.57,124.96" style="stroke: #A80036; stroke-width: 1.0;"/><text fill="#888888" font-family="sans-serif" font-size="10" lengthAdjust="spacingAndGlyphs" textLength="190" x="116.25" y="367.0918">UMLDoclet 2.0.12, PlantUML 1.2020.16</text><!--MD5=[fa90106df98143ccd684089c5ac622e8]
@startuml
    set namespaceSeparator none
    hide empty fields
    hide empty methods

    class "<size:14>WorkOrderImpl\n<size:10>org.eclipse.epf.uma.impl" as org.eclipse.epf.uma.impl.WorkOrderImpl [[WorkOrderImpl.html]] {
        +getLinkType(): WorkOrderType
        +setLinkType(WorkOrderType): void
        +getPred(): WorkBreakdownElement
        +basicGetPred(): WorkBreakdownElement
        +setPred(WorkBreakdownElement): void
        +eGet(int, boolean, boolean): Object
        +eSet(int, Object): void
        +eUnset(int): void
        +eIsSet(int): boolean
    }

    abstract class "<size:14>ProcessElementImpl\n<size:10>org.eclipse.epf.uma.impl" as org.eclipse.epf.uma.impl.ProcessElementImpl [[ProcessElementImpl.html]]
    interface "<size:14>WorkOrder\n<size:10>org.eclipse.epf.uma" as org.eclipse.epf.uma.WorkOrder [[..\WorkOrder.html]] {
        {abstract} +getLinkType(): WorkOrderType
        {abstract} +setLinkType(WorkOrderType): void
        {abstract} +getPred(): WorkBreakdownElement
        {abstract} +setPred(WorkBreakdownElement): void
    }

    org.eclipse.epf.uma.impl.ProcessElementImpl <|- - org.eclipse.epf.uma.impl.WorkOrderImpl
    org.eclipse.epf.uma.WorkOrder <|.. org.eclipse.epf.uma.impl.WorkOrderImpl

    center footer UMLDoclet 2.0.12, PlantUML 1.2020.16
@enduml

PlantUML version 1.2020.16(Sun Aug 23 22:20:43 CEST 2020)
(APACHE source distribution)
Java Runtime: Java(TM) SE Runtime Environment
JVM: Java HotSpot(TM) 64-Bit Server VM
Default Encoding: Cp1252
Language: es
Country: ES
--></g></svg>