<?xml version="1.0" encoding="UTF-8" standalone="no"?><svg xmlns="http://www.w3.org/2000/svg" xmlns:xlink="http://www.w3.org/1999/xlink" contentScriptType="application/ecmascript" contentStyleType="text/css" height="408px" preserveAspectRatio="none" style="width:566px;height:408px;" version="1.1" viewBox="0 0 566 408" width="566px" zoomAndPan="magnify"><defs><filter height="300%" id="f1uthxs6k8sfjl" width="300%" x="-1" y="-1"><feGaussianBlur result="blurOut" stdDeviation="2.0"/><feColorMatrix in="blurOut" result="blurOut2" type="matrix" values="0 0 0 0 0 0 0 0 0 0 0 0 0 0 0 0 0 0 .4 0"/><feOffset dx="4.0" dy="4.0" in="blurOut2" result="blurOut3"/><feBlend in="SourceGraphic" in2="blurOut3" mode="normal"/></filter></defs><g><!--MD5=[bf2f7d7047b7d9f74826b15896e0d3a5]
class org.eclipse.epf.uma.impl.WorkProductImpl--><a href="WorkProductImpl.html" target="_top" title="WorkProductImpl.html" xlink:actuate="onRequest" xlink:href="WorkProductImpl.html" xlink:show="new" xlink:title="WorkProductImpl.html" xlink:type="simple"><rect codeLine="5" fill="#FEFECE" filter="url(#f1uthxs6k8sfjl)" height="200.3828" id="org.eclipse.epf.uma.impl.WorkProductImpl" style="stroke: #A80036; stroke-width: 1.5;" width="330" x="65.5" y="171"/><ellipse cx="167.25" cy="191.0938" fill="#ADD1B2" rx="11" ry="11" style="stroke: #A80036; stroke-width: 1.0;"/><path d="M170.0156,186.9688 Q170.1719,186.75 170.3594,186.6406 Q170.5469,186.5313 170.7656,186.5313 Q171.1406,186.5313 171.375,186.7969 Q171.6094,187.0469 171.6094,187.6563 L171.6094,189.1094 Q171.6094,189.7188 171.375,189.9844 Q171.1406,190.25 170.7656,190.25 Q170.4219,190.25 170.2188,190.0469 Q170.0156,189.8594 169.9063,189.3438 Q169.8594,188.9844 169.6719,188.7969 Q169.3438,188.4219 168.7344,188.2031 Q168.125,187.9844 167.5,187.9844 Q166.7344,187.9844 166.0938,188.3125 Q165.4688,188.6406 164.9688,189.3906 Q164.4844,190.1406 164.4844,191.1719 L164.4844,192.2656 Q164.4844,193.5 165.375,194.3281 Q166.2656,195.1406 167.8594,195.1406 Q168.7969,195.1406 169.4531,194.8906 Q169.8438,194.7344 170.2656,194.2969 Q170.5313,194.0313 170.6719,193.9531 Q170.8281,193.875 171.0313,193.875 Q171.3594,193.875 171.6094,194.1406 Q171.875,194.3906 171.875,194.7344 Q171.875,195.0781 171.5313,195.4844 Q171.0313,196.0625 170.2344,196.3906 Q169.1563,196.8438 167.8594,196.8438 Q166.3438,196.8438 165.1406,196.2188 Q164.1563,195.7188 163.4688,194.6563 Q162.7813,193.5781 162.7813,192.2969 L162.7813,191.1406 Q162.7813,189.8125 163.3906,188.6719 Q164.0156,187.5156 165.1094,186.9063 Q166.2031,186.2813 167.4375,186.2813 Q168.1719,186.2813 168.8125,186.4531 Q169.4688,186.6094 170.0156,186.9688 Z "/><text fill="#000000" font-family="sans-serif" font-size="14" lengthAdjust="spacingAndGlyphs" textLength="107" x="193.25" y="190.5332">WorkProductImpl</text><text fill="#000000" font-family="sans-serif" font-size="10" lengthAdjust="spacingAndGlyphs" textLength="118" x="187.75" y="203.9902">org.eclipse.epf.uma.impl</text><line style="stroke: #A80036; stroke-width: 1.5;" x1="66.5" x2="394.5" y1="211.1875" y2="211.1875"/><ellipse cx="76.5" cy="222.1875" fill="#84BE84" rx="3" ry="3" style="stroke: #038048; stroke-width: 1.0;"/><text fill="#000000" font-family="sans-serif" font-size="11" lengthAdjust="spacingAndGlyphs" textLength="175" x="85.5" y="226.6064">getFulfills(): EList&lt;FulfillableElement&gt;</text><ellipse cx="76.5" cy="236.0234" fill="#84BE84" rx="3" ry="3" style="stroke: #038048; stroke-width: 1.0;"/><text fill="#000000" font-family="sans-serif" font-size="11" lengthAdjust="spacingAndGlyphs" textLength="134" x="85.5" y="240.4424">getReports(): EList&lt;Report&gt;</text><ellipse cx="76.5" cy="249.8594" fill="#84BE84" rx="3" ry="3" style="stroke: #038048; stroke-width: 1.0;"/><text fill="#000000" font-family="sans-serif" font-size="11" lengthAdjust="spacingAndGlyphs" textLength="156" x="85.5" y="254.2783">getTemplates(): EList&lt;Template&gt;</text><ellipse cx="76.5" cy="263.6953" fill="#84BE84" rx="3" ry="3" style="stroke: #038048; stroke-width: 1.0;"/><text fill="#000000" font-family="sans-serif" font-size="11" lengthAdjust="spacingAndGlyphs" textLength="176" x="85.5" y="268.1143">getToolMentors(): EList&lt;ToolMentor&gt;</text><ellipse cx="76.5" cy="277.5313" fill="#84BE84" rx="3" ry="3" style="stroke: #038048; stroke-width: 1.0;"/><text fill="#000000" font-family="sans-serif" font-size="11" lengthAdjust="spacingAndGlyphs" textLength="304" x="85.5" y="281.9502">getEstimationConsiderations(): EList&lt;EstimationConsiderations&gt;</text><ellipse cx="76.5" cy="291.3672" fill="#84BE84" rx="3" ry="3" style="stroke: #038048; stroke-width: 1.0;"/><text fill="#000000" font-family="sans-serif" font-size="11" lengthAdjust="spacingAndGlyphs" textLength="167" x="85.5" y="295.7861">eGet(int, boolean, boolean): Object</text><ellipse cx="76.5" cy="305.2031" fill="#84BE84" rx="3" ry="3" style="stroke: #038048; stroke-width: 1.0;"/><text fill="#000000" font-family="sans-serif" font-size="11" lengthAdjust="spacingAndGlyphs" textLength="104" x="85.5" y="309.6221">eSet(int, Object): void</text><ellipse cx="76.5" cy="319.0391" fill="#84BE84" rx="3" ry="3" style="stroke: #038048; stroke-width: 1.0;"/><text fill="#000000" font-family="sans-serif" font-size="11" lengthAdjust="spacingAndGlyphs" textLength="79" x="85.5" y="323.458">eUnset(int): void</text><ellipse cx="76.5" cy="332.875" fill="#84BE84" rx="3" ry="3" style="stroke: #038048; stroke-width: 1.0;"/><text fill="#000000" font-family="sans-serif" font-size="11" lengthAdjust="spacingAndGlyphs" textLength="93" x="85.5" y="337.2939">eIsSet(int): boolean</text><ellipse cx="76.5" cy="346.7109" fill="#84BE84" rx="3" ry="3" style="stroke: #038048; stroke-width: 1.0;"/><text fill="#000000" font-family="sans-serif" font-size="11" lengthAdjust="spacingAndGlyphs" textLength="211" x="85.5" y="351.1299">eBaseStructuralFeatureID(int, Class&lt;?&gt;): int</text><ellipse cx="76.5" cy="360.5469" fill="#84BE84" rx="3" ry="3" style="stroke: #038048; stroke-width: 1.0;"/><text fill="#000000" font-family="sans-serif" font-size="11" lengthAdjust="spacingAndGlyphs" textLength="223" x="85.5" y="364.9658">eDerivedStructuralFeatureID(int, Class&lt;?&gt;): int</text></a><!--MD5=[756787a8587a7ade10dd365aa5346d02]
class org.eclipse.epf.uma.impl.ContentElementImpl--><a href="ContentElementImpl.html" target="_top" title="ContentElementImpl.html" xlink:actuate="onRequest" xlink:href="ContentElementImpl.html" xlink:show="new" xlink:title="ContentElementImpl.html" xlink:type="simple"><rect codeLine="19" fill="#FEFECE" filter="url(#f1uthxs6k8sfjl)" height="40.1875" id="org.eclipse.epf.uma.impl.ContentElementImpl" style="stroke: #A80036; stroke-width: 1.5;" width="159" x="7" y="39"/><ellipse cx="22" cy="59.0938" fill="#A9DCDF" rx="11" ry="11" style="stroke: #A80036; stroke-width: 1.0;"/><path d="M24.1875,60.8594 L20.0469,60.8594 L19.625,61.8906 L20.0469,61.8906 Q20.6563,61.8906 20.9219,62.125 Q21.1875,62.3594 21.1875,62.75 Q21.1875,63.125 20.9219,63.3594 Q20.6563,63.5938 20.0469,63.5938 L17.75,63.5938 Q17.1406,63.5938 16.8906,63.3594 Q16.625,63.125 16.625,62.7344 Q16.625,62.3594 16.9063,62.125 Q17.1719,61.875 17.7969,61.8906 L20.4688,55.2344 L19.3594,55.2344 Q18.75,55.2344 18.4844,55 Q18.2188,54.7656 18.2188,54.375 Q18.2188,54 18.4844,53.7656 Q18.75,53.5313 19.3594,53.5313 L23.0313,53.5313 L26.4219,61.8906 Q27.0156,61.8906 27.2031,62.0313 Q27.5938,62.2969 27.5938,62.75 Q27.5938,63.125 27.3281,63.3594 Q27.0781,63.5938 26.4688,63.5938 L24.1719,63.5938 Q23.5625,63.5938 23.2969,63.3594 Q23.0313,63.125 23.0313,62.7344 Q23.0313,62.3594 23.2969,62.125 Q23.5625,61.8906 24.1719,61.8906 L24.5938,61.8906 L24.1875,60.8594 Z M23.4688,59.1563 L22.1094,55.7813 L20.7344,59.1563 L23.4688,59.1563 Z "/><text fill="#000000" font-family="sans-serif" font-size="14" font-style="italic" lengthAdjust="spacingAndGlyphs" textLength="127" x="36" y="58.5332">ContentElementImpl</text><text fill="#000000" font-family="sans-serif" font-size="10" font-style="italic" lengthAdjust="spacingAndGlyphs" textLength="114" x="42.5" y="71.9902">org.eclipse.epf.uma.impl</text></a><!--MD5=[ea3ff2f0efb256b8a76238534cfa65f7]
class org.eclipse.epf.uma.WorkProduct--><a href="..\WorkProduct.html" target="_top" title="..\WorkProduct.html" xlink:actuate="onRequest" xlink:href="..\WorkProduct.html" xlink:show="new" xlink:title="..\WorkProduct.html" xlink:type="simple"><rect codeLine="20" fill="#FEFECE" filter="url(#f1uthxs6k8sfjl)" height="103.5313" id="org.eclipse.epf.uma.WorkProduct" style="stroke: #A80036; stroke-width: 1.5;" width="346" x="201.5" y="7"/><ellipse cx="324.25" cy="27.0938" fill="#B4A7E5" rx="11" ry="11" style="stroke: #A80036; stroke-width: 1.0;"/><path d="M325.2031,23.7344 L325.2031,30.3906 L326.9219,30.3906 Q327.5313,30.3906 327.7969,30.625 Q328.0625,30.8594 328.0625,31.25 Q328.0625,31.625 327.7969,31.8594 Q327.5313,32.0938 326.9219,32.0938 L321.7813,32.0938 Q321.1719,32.0938 320.9063,31.8594 Q320.6406,31.625 320.6406,31.2344 Q320.6406,30.8594 320.9063,30.625 Q321.1719,30.3906 321.7813,30.3906 L323.5,30.3906 L323.5,23.7344 L321.7813,23.7344 Q321.1719,23.7344 320.9063,23.5 Q320.6406,23.2656 320.6406,22.875 Q320.6406,22.5 320.9063,22.2656 Q321.1719,22.0313 321.7813,22.0313 L326.9219,22.0313 Q327.5313,22.0313 327.7969,22.2656 Q328.0625,22.5 328.0625,22.875 Q328.0625,23.2656 327.7969,23.5 Q327.5313,23.7344 326.9219,23.7344 L325.2031,23.7344 Z "/><text fill="#000000" font-family="sans-serif" font-size="14" font-style="italic" lengthAdjust="spacingAndGlyphs" textLength="84" x="348.75" y="26.5332">WorkProduct</text><text fill="#000000" font-family="sans-serif" font-size="10" font-style="italic" lengthAdjust="spacingAndGlyphs" textLength="92" x="344.75" y="39.9902">org.eclipse.epf.uma</text><line style="stroke: #A80036; stroke-width: 1.5;" x1="202.5" x2="546.5" y1="47.1875" y2="47.1875"/><ellipse cx="212.5" cy="58.1875" fill="#84BE84" rx="3" ry="3" style="stroke: #038048; stroke-width: 1.0;"/><text fill="#000000" font-family="sans-serif" font-size="11" font-style="italic" lengthAdjust="spacingAndGlyphs" textLength="138" x="221.5" y="62.6064">getReports(): EList&lt;Report&gt;</text><ellipse cx="212.5" cy="72.0234" fill="#84BE84" rx="3" ry="3" style="stroke: #038048; stroke-width: 1.0;"/><text fill="#000000" font-family="sans-serif" font-size="11" font-style="italic" lengthAdjust="spacingAndGlyphs" textLength="164" x="221.5" y="76.4424">getTemplates(): EList&lt;Template&gt;</text><ellipse cx="212.5" cy="85.8594" fill="#84BE84" rx="3" ry="3" style="stroke: #038048; stroke-width: 1.0;"/><text fill="#000000" font-family="sans-serif" font-size="11" font-style="italic" lengthAdjust="spacingAndGlyphs" textLength="184" x="221.5" y="90.2783">getToolMentors(): EList&lt;ToolMentor&gt;</text><ellipse cx="212.5" cy="99.6953" fill="#84BE84" rx="3" ry="3" style="stroke: #038048; stroke-width: 1.0;"/><text fill="#000000" font-family="sans-serif" font-size="11" font-style="italic" lengthAdjust="spacingAndGlyphs" textLength="320" x="221.5" y="104.1143">getEstimationConsiderations(): EList&lt;EstimationConsiderations&gt;</text></a><!--MD5=[1c03b560d8745e8bf12d4ea2e4dd7fad]
reverse link org.eclipse.epf.uma.impl.ContentElementImpl to org.eclipse.epf.uma.impl.WorkProductImpl--><path codeLine="27" d="M111.03,95.78 C125.33,116.62 144.12,144.03 162.56,170.92 " fill="none" id="org.eclipse.epf.uma.impl.ContentElementImpl-backto-org.eclipse.epf.uma.impl.WorkProductImpl" style="stroke: #A80036; stroke-width: 1.0;"/><polygon fill="none" points="105.07,99.46,99.53,79.01,116.62,91.54,105.07,99.46" style="stroke: #A80036; stroke-width: 1.0;"/><!--MD5=[31f2bfde84c8eae4828ec03adeffede4]
reverse link org.eclipse.epf.uma.WorkProduct to org.eclipse.epf.uma.impl.WorkProductImpl--><path codeLine="28" d="M327.94,127.9 C318.51,141.65 308.43,156.36 298.44,170.92 " fill="none" id="org.eclipse.epf.uma.WorkProduct-backto-org.eclipse.epf.uma.impl.WorkProductImpl" style="stroke: #A80036; stroke-width: 1.0; stroke-dasharray: 7.0,7.0;"/><polygon fill="none" points="322.37,123.64,339.46,111.1,333.92,131.56,322.37,123.64" style="stroke: #A80036; stroke-width: 1.0;"/><text fill="#888888" font-family="sans-serif" font-size="10" lengthAdjust="spacingAndGlyphs" textLength="190" x="179.25" y="394.7637">UMLDoclet 2.0.12, PlantUML 1.2020.16</text><!--MD5=[868558d8481919a4328d0888900ef263]
@startuml
    set namespaceSeparator none
    hide empty fields
    hide empty methods

    class "<size:14>WorkProductImpl\n<size:10>org.eclipse.epf.uma.impl" as org.eclipse.epf.uma.impl.WorkProductImpl [[WorkProductImpl.html]] {
        +getFulfills(): EList<FulfillableElement>
        +getReports(): EList<Report>
        +getTemplates(): EList<Template>
        +getToolMentors(): EList<ToolMentor>
        +getEstimationConsiderations(): EList<EstimationConsiderations>
        +eGet(int, boolean, boolean): Object
        +eSet(int, Object): void
        +eUnset(int): void
        +eIsSet(int): boolean
        +eBaseStructuralFeatureID(int, Class<?>): int
        +eDerivedStructuralFeatureID(int, Class<?>): int
    }

    abstract class "<size:14>ContentElementImpl\n<size:10>org.eclipse.epf.uma.impl" as org.eclipse.epf.uma.impl.ContentElementImpl [[ContentElementImpl.html]]
    interface "<size:14>WorkProduct\n<size:10>org.eclipse.epf.uma" as org.eclipse.epf.uma.WorkProduct [[..\WorkProduct.html]] {
        {abstract} +getReports(): EList<Report>
        {abstract} +getTemplates(): EList<Template>
        {abstract} +getToolMentors(): EList<ToolMentor>
        {abstract} +getEstimationConsiderations(): EList<EstimationConsiderations>
    }

    org.eclipse.epf.uma.impl.ContentElementImpl <|- - org.eclipse.epf.uma.impl.WorkProductImpl
    org.eclipse.epf.uma.WorkProduct <|.. org.eclipse.epf.uma.impl.WorkProductImpl

    center footer UMLDoclet 2.0.12, PlantUML 1.2020.16
@enduml

PlantUML version 1.2020.16(Sun Aug 23 22:20:43 CEST 2020)
(APACHE source distribution)
Java Runtime: Java(TM) SE Runtime Environment
JVM: Java HotSpot(TM) 64-Bit Server VM
Default Encoding: Cp1252
Language: es
Country: ES
--></g></svg>