<?xml version="1.0" encoding="UTF-8" standalone="no"?><svg xmlns="http://www.w3.org/2000/svg" xmlns:xlink="http://www.w3.org/1999/xlink" contentScriptType="application/ecmascript" contentStyleType="text/css" height="283px" preserveAspectRatio="none" style="width:455px;height:283px;" version="1.1" viewBox="0 0 455 283" width="455px" zoomAndPan="magnify"><defs><filter height="300%" id="f1lmzjqencx08s" width="300%" x="-1" y="-1"><feGaussianBlur result="blurOut" stdDeviation="2.0"/><feColorMatrix in="blurOut" result="blurOut2" type="matrix" values="0 0 0 0 0 0 0 0 0 0 0 0 0 0 0 0 0 0 .4 0"/><feOffset dx="4.0" dy="4.0" in="blurOut2" result="blurOut3"/><feBlend in="SourceGraphic" in2="blurOut3" mode="normal"/></filter></defs><g><!--MD5=[c36085e7eff11cbf941192c3058891d3]
class org.eclipse.epf.uma.impl.WorkProductTypeImpl--><a href="WorkProductTypeImpl.html" target="_top" title="WorkProductTypeImpl.html" xlink:actuate="onRequest" xlink:href="WorkProductTypeImpl.html" xlink:show="new" xlink:title="WorkProductTypeImpl.html" xlink:type="simple"><rect codeLine="5" fill="#FEFECE" filter="url(#f1lmzjqencx08s)" height="117.3672" id="org.eclipse.epf.uma.impl.WorkProductTypeImpl" style="stroke: #A80036; stroke-width: 1.5;" width="220" x="96" y="129"/><ellipse cx="133.05" cy="149.0938" fill="#ADD1B2" rx="11" ry="11" style="stroke: #A80036; stroke-width: 1.0;"/><path d="M135.8156,144.9688 Q135.9719,144.75 136.1594,144.6406 Q136.3469,144.5313 136.5656,144.5313 Q136.9406,144.5313 137.175,144.7969 Q137.4094,145.0469 137.4094,145.6563 L137.4094,147.1094 Q137.4094,147.7188 137.175,147.9844 Q136.9406,148.25 136.5656,148.25 Q136.2219,148.25 136.0188,148.0469 Q135.8156,147.8594 135.7063,147.3438 Q135.6594,146.9844 135.4719,146.7969 Q135.1438,146.4219 134.5344,146.2031 Q133.925,145.9844 133.3,145.9844 Q132.5344,145.9844 131.8938,146.3125 Q131.2688,146.6406 130.7688,147.3906 Q130.2844,148.1406 130.2844,149.1719 L130.2844,150.2656 Q130.2844,151.5 131.175,152.3281 Q132.0656,153.1406 133.6594,153.1406 Q134.5969,153.1406 135.2531,152.8906 Q135.6438,152.7344 136.0656,152.2969 Q136.3313,152.0313 136.4719,151.9531 Q136.6281,151.875 136.8313,151.875 Q137.1594,151.875 137.4094,152.1406 Q137.675,152.3906 137.675,152.7344 Q137.675,153.0781 137.3313,153.4844 Q136.8313,154.0625 136.0344,154.3906 Q134.9563,154.8438 133.6594,154.8438 Q132.1438,154.8438 130.9406,154.2188 Q129.9563,153.7188 129.2688,152.6563 Q128.5813,151.5781 128.5813,150.2969 L128.5813,149.1406 Q128.5813,147.8125 129.1906,146.6719 Q129.8156,145.5156 130.9094,144.9063 Q132.0031,144.2813 133.2375,144.2813 Q133.9719,144.2813 134.6125,144.4531 Q135.2688,144.6094 135.8156,144.9688 Z "/><text fill="#000000" font-family="sans-serif" font-size="14" lengthAdjust="spacingAndGlyphs" textLength="139" x="151.95" y="148.5332">WorkProductTypeImpl</text><text fill="#000000" font-family="sans-serif" font-size="10" lengthAdjust="spacingAndGlyphs" textLength="118" x="162.45" y="161.9902">org.eclipse.epf.uma.impl</text><line style="stroke: #A80036; stroke-width: 1.5;" x1="97" x2="315" y1="169.1875" y2="169.1875"/><ellipse cx="107" cy="180.1875" fill="#84BE84" rx="3" ry="3" style="stroke: #038048; stroke-width: 1.0;"/><text fill="#000000" font-family="sans-serif" font-size="11" lengthAdjust="spacingAndGlyphs" textLength="194" x="116" y="184.6064">getWorkProducts(): EList&lt;WorkProduct&gt;</text><ellipse cx="107" cy="194.0234" fill="#84BE84" rx="3" ry="3" style="stroke: #038048; stroke-width: 1.0;"/><text fill="#000000" font-family="sans-serif" font-size="11" lengthAdjust="spacingAndGlyphs" textLength="167" x="116" y="198.4424">eGet(int, boolean, boolean): Object</text><ellipse cx="107" cy="207.8594" fill="#84BE84" rx="3" ry="3" style="stroke: #038048; stroke-width: 1.0;"/><text fill="#000000" font-family="sans-serif" font-size="11" lengthAdjust="spacingAndGlyphs" textLength="104" x="116" y="212.2783">eSet(int, Object): void</text><ellipse cx="107" cy="221.6953" fill="#84BE84" rx="3" ry="3" style="stroke: #038048; stroke-width: 1.0;"/><text fill="#000000" font-family="sans-serif" font-size="11" lengthAdjust="spacingAndGlyphs" textLength="79" x="116" y="226.1143">eUnset(int): void</text><ellipse cx="107" cy="235.5313" fill="#84BE84" rx="3" ry="3" style="stroke: #038048; stroke-width: 1.0;"/><text fill="#000000" font-family="sans-serif" font-size="11" lengthAdjust="spacingAndGlyphs" textLength="93" x="116" y="239.9502">eIsSet(int): boolean</text></a><!--MD5=[80a1fa17d1f3fd257902418e6ad1c457]
class org.eclipse.epf.uma.impl.ContentCategoryImpl--><a href="ContentCategoryImpl.html" target="_top" title="ContentCategoryImpl.html" xlink:actuate="onRequest" xlink:href="ContentCategoryImpl.html" xlink:show="new" xlink:title="ContentCategoryImpl.html" xlink:type="simple"><rect codeLine="13" fill="#FEFECE" filter="url(#f1lmzjqencx08s)" height="40.1875" id="org.eclipse.epf.uma.impl.ContentCategoryImpl" style="stroke: #A80036; stroke-width: 1.5;" width="166" x="7" y="18"/><ellipse cx="22" cy="38.0938" fill="#A9DCDF" rx="11" ry="11" style="stroke: #A80036; stroke-width: 1.0;"/><path d="M24.1875,39.8594 L20.0469,39.8594 L19.625,40.8906 L20.0469,40.8906 Q20.6563,40.8906 20.9219,41.125 Q21.1875,41.3594 21.1875,41.75 Q21.1875,42.125 20.9219,42.3594 Q20.6563,42.5938 20.0469,42.5938 L17.75,42.5938 Q17.1406,42.5938 16.8906,42.3594 Q16.625,42.125 16.625,41.7344 Q16.625,41.3594 16.9063,41.125 Q17.1719,40.875 17.7969,40.8906 L20.4688,34.2344 L19.3594,34.2344 Q18.75,34.2344 18.4844,34 Q18.2188,33.7656 18.2188,33.375 Q18.2188,33 18.4844,32.7656 Q18.75,32.5313 19.3594,32.5313 L23.0313,32.5313 L26.4219,40.8906 Q27.0156,40.8906 27.2031,41.0313 Q27.5938,41.2969 27.5938,41.75 Q27.5938,42.125 27.3281,42.3594 Q27.0781,42.5938 26.4688,42.5938 L24.1719,42.5938 Q23.5625,42.5938 23.2969,42.3594 Q23.0313,42.125 23.0313,41.7344 Q23.0313,41.3594 23.2969,41.125 Q23.5625,40.8906 24.1719,40.8906 L24.5938,40.8906 L24.1875,39.8594 Z M23.4688,38.1563 L22.1094,34.7813 L20.7344,38.1563 L23.4688,38.1563 Z "/><text fill="#000000" font-family="sans-serif" font-size="14" font-style="italic" lengthAdjust="spacingAndGlyphs" textLength="134" x="36" y="37.5332">ContentCategoryImpl</text><text fill="#000000" font-family="sans-serif" font-size="10" font-style="italic" lengthAdjust="spacingAndGlyphs" textLength="114" x="46" y="50.9902">org.eclipse.epf.uma.impl</text></a><!--MD5=[66961d7515a93675855371021ab799be]
class org.eclipse.epf.uma.WorkProductType--><a href="..\WorkProductType.html" target="_top" title="..\WorkProductType.html" xlink:actuate="onRequest" xlink:href="..\WorkProductType.html" xlink:show="new" xlink:title="..\WorkProductType.html" xlink:type="simple"><rect codeLine="14" fill="#FEFECE" filter="url(#f1lmzjqencx08s)" height="62.0234" id="org.eclipse.epf.uma.WorkProductType" style="stroke: #A80036; stroke-width: 1.5;" width="228" x="208" y="7"/><ellipse cx="259.75" cy="27.0938" fill="#B4A7E5" rx="11" ry="11" style="stroke: #A80036; stroke-width: 1.0;"/><path d="M260.7031,23.7344 L260.7031,30.3906 L262.4219,30.3906 Q263.0313,30.3906 263.2969,30.625 Q263.5625,30.8594 263.5625,31.25 Q263.5625,31.625 263.2969,31.8594 Q263.0313,32.0938 262.4219,32.0938 L257.2813,32.0938 Q256.6719,32.0938 256.4063,31.8594 Q256.1406,31.625 256.1406,31.2344 Q256.1406,30.8594 256.4063,30.625 Q256.6719,30.3906 257.2813,30.3906 L259,30.3906 L259,23.7344 L257.2813,23.7344 Q256.6719,23.7344 256.4063,23.5 Q256.1406,23.2656 256.1406,22.875 Q256.1406,22.5 256.4063,22.2656 Q256.6719,22.0313 257.2813,22.0313 L262.4219,22.0313 Q263.0313,22.0313 263.2969,22.2656 Q263.5625,22.5 263.5625,22.875 Q263.5625,23.2656 263.2969,23.5 Q263.0313,23.7344 262.4219,23.7344 L260.7031,23.7344 Z "/><text fill="#000000" font-family="sans-serif" font-size="14" font-style="italic" lengthAdjust="spacingAndGlyphs" textLength="116" x="280.25" y="26.5332">WorkProductType</text><text fill="#000000" font-family="sans-serif" font-size="10" font-style="italic" lengthAdjust="spacingAndGlyphs" textLength="92" x="292.25" y="39.9902">org.eclipse.epf.uma</text><line style="stroke: #A80036; stroke-width: 1.5;" x1="209" x2="435" y1="47.1875" y2="47.1875"/><ellipse cx="219" cy="58.1875" fill="#84BE84" rx="3" ry="3" style="stroke: #038048; stroke-width: 1.0;"/><text fill="#000000" font-family="sans-serif" font-size="11" font-style="italic" lengthAdjust="spacingAndGlyphs" textLength="202" x="228" y="62.6064">getWorkProducts(): EList&lt;WorkProduct&gt;</text></a><!--MD5=[0b0679e394a771305985cae0fbdafac7]
reverse link org.eclipse.epf.uma.impl.ContentCategoryImpl to org.eclipse.epf.uma.impl.WorkProductTypeImpl--><path codeLine="18" d="M117.59,74.09 C130.43,90.4 146.02,110.24 160.53,128.68 " fill="none" id="org.eclipse.epf.uma.impl.ContentCategoryImpl-backto-org.eclipse.epf.uma.impl.WorkProductTypeImpl" style="stroke: #A80036; stroke-width: 1.0;"/><polygon fill="none" points="112.03,78.33,105.16,58.28,123.03,69.68,112.03,78.33" style="stroke: #A80036; stroke-width: 1.0;"/><!--MD5=[8a57b9d525fa517744587befed571d39]
reverse link org.eclipse.epf.uma.WorkProductType to org.eclipse.epf.uma.impl.WorkProductTypeImpl--><path codeLine="19" d="M285.68,85.19 C274.78,99.04 262.7,114.4 251.3,128.9 " fill="none" id="org.eclipse.epf.uma.WorkProductType-backto-org.eclipse.epf.uma.impl.WorkProductTypeImpl" style="stroke: #A80036; stroke-width: 1.0; stroke-dasharray: 7.0,7.0;"/><polygon fill="none" points="280.38,80.6,298.25,69.2,291.38,89.25,280.38,80.6" style="stroke: #A80036; stroke-width: 1.0;"/><text fill="#888888" font-family="sans-serif" font-size="10" lengthAdjust="spacingAndGlyphs" textLength="190" x="123.5" y="269.748">UMLDoclet 2.0.12, PlantUML 1.2020.16</text><!--MD5=[4f11e8f573e3198d22ad2e55f8f3a3f0]
@startuml
    set namespaceSeparator none
    hide empty fields
    hide empty methods

    class "<size:14>WorkProductTypeImpl\n<size:10>org.eclipse.epf.uma.impl" as org.eclipse.epf.uma.impl.WorkProductTypeImpl [[WorkProductTypeImpl.html]] {
        +getWorkProducts(): EList<WorkProduct>
        +eGet(int, boolean, boolean): Object
        +eSet(int, Object): void
        +eUnset(int): void
        +eIsSet(int): boolean
    }

    abstract class "<size:14>ContentCategoryImpl\n<size:10>org.eclipse.epf.uma.impl" as org.eclipse.epf.uma.impl.ContentCategoryImpl [[ContentCategoryImpl.html]]
    interface "<size:14>WorkProductType\n<size:10>org.eclipse.epf.uma" as org.eclipse.epf.uma.WorkProductType [[..\WorkProductType.html]] {
        {abstract} +getWorkProducts(): EList<WorkProduct>
    }

    org.eclipse.epf.uma.impl.ContentCategoryImpl <|- - org.eclipse.epf.uma.impl.WorkProductTypeImpl
    org.eclipse.epf.uma.WorkProductType <|.. org.eclipse.epf.uma.impl.WorkProductTypeImpl

    center footer UMLDoclet 2.0.12, PlantUML 1.2020.16
@enduml

PlantUML version 1.2020.16(Sun Aug 23 22:20:43 CEST 2020)
(APACHE source distribution)
Java Runtime: Java(TM) SE Runtime Environment
JVM: Java HotSpot(TM) 64-Bit Server VM
Default Encoding: Cp1252
Language: es
Country: ES
--></g></svg>