<?xml version="1.0" encoding="UTF-8" standalone="no"?><svg xmlns="http://www.w3.org/2000/svg" xmlns:xlink="http://www.w3.org/1999/xlink" contentScriptType="application/ecmascript" contentStyleType="text/css" height="449px" preserveAspectRatio="none" style="width:486px;height:449px;" version="1.1" viewBox="0 0 486 449" width="486px" zoomAndPan="magnify"><defs><filter height="300%" id="f2oe8ikbct6uk" width="300%" x="-1" y="-1"><feGaussianBlur result="blurOut" stdDeviation="2.0"/><feColorMatrix in="blurOut" result="blurOut2" type="matrix" values="0 0 0 0 0 0 0 0 0 0 0 0 0 0 0 0 0 0 .4 0"/><feOffset dx="4.0" dy="4.0" in="blurOut2" result="blurOut3"/><feBlend in="SourceGraphic" in2="blurOut3" mode="normal"/></filter></defs><g><!--MD5=[b136c1013b364026b1c1cadbae011495]
class org.eclipse.epf.uma.impl.WorkBreakdownElementImpl--><a href="WorkBreakdownElementImpl.html" target="_top" title="WorkBreakdownElementImpl.html" xlink:actuate="onRequest" xlink:href="WorkBreakdownElementImpl.html" xlink:show="new" xlink:title="WorkBreakdownElementImpl.html" xlink:type="simple"><rect codeLine="5" fill="#FEFECE" filter="url(#f2oe8ikbct6uk)" height="200.3828" id="org.eclipse.epf.uma.impl.WorkBreakdownElementImpl" style="stroke: #A80036; stroke-width: 1.5;" width="236" x="103" y="212"/><ellipse cx="127.45" cy="232.0938" fill="#A9DCDF" rx="11" ry="11" style="stroke: #A80036; stroke-width: 1.0;"/><path d="M129.6375,233.8594 L125.4969,233.8594 L125.075,234.8906 L125.4969,234.8906 Q126.1063,234.8906 126.3719,235.125 Q126.6375,235.3594 126.6375,235.75 Q126.6375,236.125 126.3719,236.3594 Q126.1063,236.5938 125.4969,236.5938 L123.2,236.5938 Q122.5906,236.5938 122.3406,236.3594 Q122.075,236.125 122.075,235.7344 Q122.075,235.3594 122.3563,235.125 Q122.6219,234.875 123.2469,234.8906 L125.9188,228.2344 L124.8094,228.2344 Q124.2,228.2344 123.9344,228 Q123.6688,227.7656 123.6688,227.375 Q123.6688,227 123.9344,226.7656 Q124.2,226.5313 124.8094,226.5313 L128.4813,226.5313 L131.8719,234.8906 Q132.4656,234.8906 132.6531,235.0313 Q133.0438,235.2969 133.0438,235.75 Q133.0438,236.125 132.7781,236.3594 Q132.5281,236.5938 131.9188,236.5938 L129.6219,236.5938 Q129.0125,236.5938 128.7469,236.3594 Q128.4813,236.125 128.4813,235.7344 Q128.4813,235.3594 128.7469,235.125 Q129.0125,234.8906 129.6219,234.8906 L130.0438,234.8906 L129.6375,233.8594 Z M128.9188,232.1563 L127.5594,228.7813 L126.1844,232.1563 L128.9188,232.1563 Z "/><text fill="#000000" font-family="sans-serif" font-size="14" font-style="italic" lengthAdjust="spacingAndGlyphs" textLength="183" x="143.55" y="231.5332">WorkBreakdownElementImpl</text><text fill="#000000" font-family="sans-serif" font-size="10" font-style="italic" lengthAdjust="spacingAndGlyphs" textLength="114" x="178.05" y="244.9902">org.eclipse.epf.uma.impl</text><line style="stroke: #A80036; stroke-width: 1.5;" x1="104" x2="338" y1="252.1875" y2="252.1875"/><ellipse cx="114" cy="263.1875" fill="#84BE84" rx="3" ry="3" style="stroke: #038048; stroke-width: 1.0;"/><text fill="#000000" font-family="sans-serif" font-size="11" lengthAdjust="spacingAndGlyphs" textLength="130" x="123" y="267.6064">getIsRepeatable(): Boolean</text><ellipse cx="114" cy="277.0234" fill="#84BE84" rx="3" ry="3" style="stroke: #038048; stroke-width: 1.0;"/><text fill="#000000" font-family="sans-serif" font-size="11" lengthAdjust="spacingAndGlyphs" textLength="150" x="123" y="281.4424">setIsRepeatable(Boolean): void</text><ellipse cx="114" cy="290.8594" fill="#84BE84" rx="3" ry="3" style="stroke: #038048; stroke-width: 1.0;"/><text fill="#000000" font-family="sans-serif" font-size="11" lengthAdjust="spacingAndGlyphs" textLength="116" x="123" y="295.2783">getIsOngoing(): Boolean</text><ellipse cx="114" cy="304.6953" fill="#84BE84" rx="3" ry="3" style="stroke: #038048; stroke-width: 1.0;"/><text fill="#000000" font-family="sans-serif" font-size="11" lengthAdjust="spacingAndGlyphs" textLength="136" x="123" y="309.1143">setIsOngoing(Boolean): void</text><ellipse cx="114" cy="318.5313" fill="#84BE84" rx="3" ry="3" style="stroke: #038048; stroke-width: 1.0;"/><text fill="#000000" font-family="sans-serif" font-size="11" lengthAdjust="spacingAndGlyphs" textLength="134" x="123" y="322.9502">getIsEventDriven(): Boolean</text><ellipse cx="114" cy="332.3672" fill="#84BE84" rx="3" ry="3" style="stroke: #038048; stroke-width: 1.0;"/><text fill="#000000" font-family="sans-serif" font-size="11" lengthAdjust="spacingAndGlyphs" textLength="154" x="123" y="336.7861">setIsEventDriven(Boolean): void</text><ellipse cx="114" cy="346.2031" fill="#84BE84" rx="3" ry="3" style="stroke: #038048; stroke-width: 1.0;"/><text fill="#000000" font-family="sans-serif" font-size="11" lengthAdjust="spacingAndGlyphs" textLength="210" x="123" y="350.6221">getLinkToPredecessor(): EList&lt;WorkOrder&gt;</text><ellipse cx="114" cy="360.0391" fill="#84BE84" rx="3" ry="3" style="stroke: #038048; stroke-width: 1.0;"/><text fill="#000000" font-family="sans-serif" font-size="11" lengthAdjust="spacingAndGlyphs" textLength="167" x="123" y="364.458">eGet(int, boolean, boolean): Object</text><ellipse cx="114" cy="373.875" fill="#84BE84" rx="3" ry="3" style="stroke: #038048; stroke-width: 1.0;"/><text fill="#000000" font-family="sans-serif" font-size="11" lengthAdjust="spacingAndGlyphs" textLength="104" x="123" y="378.2939">eSet(int, Object): void</text><ellipse cx="114" cy="387.7109" fill="#84BE84" rx="3" ry="3" style="stroke: #038048; stroke-width: 1.0;"/><text fill="#000000" font-family="sans-serif" font-size="11" lengthAdjust="spacingAndGlyphs" textLength="79" x="123" y="392.1299">eUnset(int): void</text><ellipse cx="114" cy="401.5469" fill="#84BE84" rx="3" ry="3" style="stroke: #038048; stroke-width: 1.0;"/><text fill="#000000" font-family="sans-serif" font-size="11" lengthAdjust="spacingAndGlyphs" textLength="93" x="123" y="405.9658">eIsSet(int): boolean</text></a><!--MD5=[1b431a39b513a232f6a911769ed0ae3f]
class org.eclipse.epf.uma.impl.BreakdownElementImpl--><a href="BreakdownElementImpl.html" target="_top" title="BreakdownElementImpl.html" xlink:actuate="onRequest" xlink:href="BreakdownElementImpl.html" xlink:show="new" xlink:title="BreakdownElementImpl.html" xlink:type="simple"><rect codeLine="19" fill="#FEFECE" filter="url(#f2oe8ikbct6uk)" height="40.1875" id="org.eclipse.epf.uma.impl.BreakdownElementImpl" style="stroke: #A80036; stroke-width: 1.5;" width="180" x="7" y="59.5"/><ellipse cx="22" cy="79.5938" fill="#A9DCDF" rx="11" ry="11" style="stroke: #A80036; stroke-width: 1.0;"/><path d="M24.1875,81.3594 L20.0469,81.3594 L19.625,82.3906 L20.0469,82.3906 Q20.6563,82.3906 20.9219,82.625 Q21.1875,82.8594 21.1875,83.25 Q21.1875,83.625 20.9219,83.8594 Q20.6563,84.0938 20.0469,84.0938 L17.75,84.0938 Q17.1406,84.0938 16.8906,83.8594 Q16.625,83.625 16.625,83.2344 Q16.625,82.8594 16.9063,82.625 Q17.1719,82.375 17.7969,82.3906 L20.4688,75.7344 L19.3594,75.7344 Q18.75,75.7344 18.4844,75.5 Q18.2188,75.2656 18.2188,74.875 Q18.2188,74.5 18.4844,74.2656 Q18.75,74.0313 19.3594,74.0313 L23.0313,74.0313 L26.4219,82.3906 Q27.0156,82.3906 27.2031,82.5313 Q27.5938,82.7969 27.5938,83.25 Q27.5938,83.625 27.3281,83.8594 Q27.0781,84.0938 26.4688,84.0938 L24.1719,84.0938 Q23.5625,84.0938 23.2969,83.8594 Q23.0313,83.625 23.0313,83.2344 Q23.0313,82.8594 23.2969,82.625 Q23.5625,82.3906 24.1719,82.3906 L24.5938,82.3906 L24.1875,81.3594 Z M23.4688,79.6563 L22.1094,76.2813 L20.7344,79.6563 L23.4688,79.6563 Z "/><text fill="#000000" font-family="sans-serif" font-size="14" font-style="italic" lengthAdjust="spacingAndGlyphs" textLength="148" x="36" y="79.0332">BreakdownElementImpl</text><text fill="#000000" font-family="sans-serif" font-size="10" font-style="italic" lengthAdjust="spacingAndGlyphs" textLength="114" x="53" y="92.4902">org.eclipse.epf.uma.impl</text></a><!--MD5=[2faf845886558de7d4384c143b6f4057]
class org.eclipse.epf.uma.WorkBreakdownElement--><a href="..\WorkBreakdownElement.html" target="_top" title="..\WorkBreakdownElement.html" xlink:actuate="onRequest" xlink:href="..\WorkBreakdownElement.html" xlink:show="new" xlink:title="..\WorkBreakdownElement.html" xlink:type="simple"><rect codeLine="20" fill="#FEFECE" filter="url(#f2oe8ikbct6uk)" height="145.0391" id="org.eclipse.epf.uma.WorkBreakdownElement" style="stroke: #A80036; stroke-width: 1.5;" width="245" x="222.5" y="7"/><ellipse cx="262.7" cy="27.0938" fill="#B4A7E5" rx="11" ry="11" style="stroke: #A80036; stroke-width: 1.0;"/><path d="M263.6531,23.7344 L263.6531,30.3906 L265.3719,30.3906 Q265.9813,30.3906 266.2469,30.625 Q266.5125,30.8594 266.5125,31.25 Q266.5125,31.625 266.2469,31.8594 Q265.9813,32.0938 265.3719,32.0938 L260.2313,32.0938 Q259.6219,32.0938 259.3563,31.8594 Q259.0906,31.625 259.0906,31.2344 Q259.0906,30.8594 259.3563,30.625 Q259.6219,30.3906 260.2313,30.3906 L261.95,30.3906 L261.95,23.7344 L260.2313,23.7344 Q259.6219,23.7344 259.3563,23.5 Q259.0906,23.2656 259.0906,22.875 Q259.0906,22.5 259.3563,22.2656 Q259.6219,22.0313 260.2313,22.0313 L265.3719,22.0313 Q265.9813,22.0313 266.2469,22.2656 Q266.5125,22.5 266.5125,22.875 Q266.5125,23.2656 266.2469,23.5 Q265.9813,23.7344 265.3719,23.7344 L263.6531,23.7344 Z "/><text fill="#000000" font-family="sans-serif" font-size="14" font-style="italic" lengthAdjust="spacingAndGlyphs" textLength="157" x="282.3" y="26.5332">WorkBreakdownElement</text><text fill="#000000" font-family="sans-serif" font-size="10" font-style="italic" lengthAdjust="spacingAndGlyphs" textLength="92" x="314.8" y="39.9902">org.eclipse.epf.uma</text><line style="stroke: #A80036; stroke-width: 1.5;" x1="223.5" x2="466.5" y1="47.1875" y2="47.1875"/><ellipse cx="233.5" cy="58.1875" fill="#84BE84" rx="3" ry="3" style="stroke: #038048; stroke-width: 1.0;"/><text fill="#000000" font-family="sans-serif" font-size="11" font-style="italic" lengthAdjust="spacingAndGlyphs" textLength="135" x="242.5" y="62.6064">getIsRepeatable(): Boolean</text><ellipse cx="233.5" cy="72.0234" fill="#84BE84" rx="3" ry="3" style="stroke: #038048; stroke-width: 1.0;"/><text fill="#000000" font-family="sans-serif" font-size="11" font-style="italic" lengthAdjust="spacingAndGlyphs" textLength="155" x="242.5" y="76.4424">setIsRepeatable(Boolean): void</text><ellipse cx="233.5" cy="85.8594" fill="#84BE84" rx="3" ry="3" style="stroke: #038048; stroke-width: 1.0;"/><text fill="#000000" font-family="sans-serif" font-size="11" font-style="italic" lengthAdjust="spacingAndGlyphs" textLength="120" x="242.5" y="90.2783">getIsOngoing(): Boolean</text><ellipse cx="233.5" cy="99.6953" fill="#84BE84" rx="3" ry="3" style="stroke: #038048; stroke-width: 1.0;"/><text fill="#000000" font-family="sans-serif" font-size="11" font-style="italic" lengthAdjust="spacingAndGlyphs" textLength="140" x="242.5" y="104.1143">setIsOngoing(Boolean): void</text><ellipse cx="233.5" cy="113.5313" fill="#84BE84" rx="3" ry="3" style="stroke: #038048; stroke-width: 1.0;"/><text fill="#000000" font-family="sans-serif" font-size="11" font-style="italic" lengthAdjust="spacingAndGlyphs" textLength="137" x="242.5" y="117.9502">getIsEventDriven(): Boolean</text><ellipse cx="233.5" cy="127.3672" fill="#84BE84" rx="3" ry="3" style="stroke: #038048; stroke-width: 1.0;"/><text fill="#000000" font-family="sans-serif" font-size="11" font-style="italic" lengthAdjust="spacingAndGlyphs" textLength="157" x="242.5" y="131.7861">setIsEventDriven(Boolean): void</text><ellipse cx="233.5" cy="141.2031" fill="#84BE84" rx="3" ry="3" style="stroke: #038048; stroke-width: 1.0;"/><text fill="#000000" font-family="sans-serif" font-size="11" font-style="italic" lengthAdjust="spacingAndGlyphs" textLength="219" x="242.5" y="145.6221">getLinkToPredecessor(): EList&lt;WorkOrder&gt;</text></a><!--MD5=[54540035ab7af69d8b3a4ddb5fa2cffc]
reverse link org.eclipse.epf.uma.impl.BreakdownElementImpl to org.eclipse.epf.uma.impl.WorkBreakdownElementImpl--><path codeLine="30" d="M116.97,117.61 C130.74,143.21 149.74,178.53 167.74,211.99 " fill="none" id="org.eclipse.epf.uma.impl.BreakdownElementImpl-backto-org.eclipse.epf.uma.impl.WorkBreakdownElementImpl" style="stroke: #A80036; stroke-width: 1.0;"/><polygon fill="none" points="110.67,120.69,107.36,99.76,123,114.05,110.67,120.69" style="stroke: #A80036; stroke-width: 1.0;"/><!--MD5=[0e50a10327fdfbbef84a563737b98fe8]
reverse link org.eclipse.epf.uma.WorkBreakdownElement to org.eclipse.epf.uma.impl.WorkBreakdownElementImpl--><path codeLine="31" d="M296.92,169.88 C289.52,183.64 281.84,197.91 274.33,211.87 " fill="none" id="org.eclipse.epf.uma.WorkBreakdownElement-backto-org.eclipse.epf.uma.impl.WorkBreakdownElementImpl" style="stroke: #A80036; stroke-width: 1.0; stroke-dasharray: 7.0,7.0;"/><polygon fill="none" points="290.81,166.46,306.45,152.17,303.13,173.1,290.81,166.46" style="stroke: #A80036; stroke-width: 1.0;"/><text fill="#888888" font-family="sans-serif" font-size="10" lengthAdjust="spacingAndGlyphs" textLength="190" x="139.25" y="435.7637">UMLDoclet 2.0.12, PlantUML 1.2020.16</text><!--MD5=[22b4ed5d307e1a6d22813e384e691405]
@startuml
    set namespaceSeparator none
    hide empty fields
    hide empty methods

    abstract class "<size:14>WorkBreakdownElementImpl\n<size:10>org.eclipse.epf.uma.impl" as org.eclipse.epf.uma.impl.WorkBreakdownElementImpl [[WorkBreakdownElementImpl.html]] {
        +getIsRepeatable(): Boolean
        +setIsRepeatable(Boolean): void
        +getIsOngoing(): Boolean
        +setIsOngoing(Boolean): void
        +getIsEventDriven(): Boolean
        +setIsEventDriven(Boolean): void
        +getLinkToPredecessor(): EList<WorkOrder>
        +eGet(int, boolean, boolean): Object
        +eSet(int, Object): void
        +eUnset(int): void
        +eIsSet(int): boolean
    }

    abstract class "<size:14>BreakdownElementImpl\n<size:10>org.eclipse.epf.uma.impl" as org.eclipse.epf.uma.impl.BreakdownElementImpl [[BreakdownElementImpl.html]]
    interface "<size:14>WorkBreakdownElement\n<size:10>org.eclipse.epf.uma" as org.eclipse.epf.uma.WorkBreakdownElement [[..\WorkBreakdownElement.html]] {
        {abstract} +getIsRepeatable(): Boolean
        {abstract} +setIsRepeatable(Boolean): void
        {abstract} +getIsOngoing(): Boolean
        {abstract} +setIsOngoing(Boolean): void
        {abstract} +getIsEventDriven(): Boolean
        {abstract} +setIsEventDriven(Boolean): void
        {abstract} +getLinkToPredecessor(): EList<WorkOrder>
    }

    org.eclipse.epf.uma.impl.BreakdownElementImpl <|- - org.eclipse.epf.uma.impl.WorkBreakdownElementImpl
    org.eclipse.epf.uma.WorkBreakdownElement <|.. org.eclipse.epf.uma.impl.WorkBreakdownElementImpl

    center footer UMLDoclet 2.0.12, PlantUML 1.2020.16
@enduml

PlantUML version 1.2020.16(Sun Aug 23 22:20:43 CEST 2020)
(APACHE source distribution)
Java Runtime: Java(TM) SE Runtime Environment
JVM: Java HotSpot(TM) 64-Bit Server VM
Default Encoding: Cp1252
Language: es
Country: ES
--></g></svg>