<?xml version="1.0" encoding="UTF-8" standalone="no"?><svg xmlns="http://www.w3.org/2000/svg" xmlns:xlink="http://www.w3.org/1999/xlink" contentScriptType="application/ecmascript" contentStyleType="text/css" height="435px" preserveAspectRatio="none" style="width:415px;height:435px;" version="1.1" viewBox="0 0 415 435" width="415px" zoomAndPan="magnify"><defs><filter height="300%" id="f13c0dw4d1kz3g" width="300%" x="-1" y="-1"><feGaussianBlur result="blurOut" stdDeviation="2.0"/><feColorMatrix in="blurOut" result="blurOut2" type="matrix" values="0 0 0 0 0 0 0 0 0 0 0 0 0 0 0 0 0 0 .4 0"/><feOffset dx="4.0" dy="4.0" in="blurOut2" result="blurOut3"/><feBlend in="SourceGraphic" in2="blurOut3" mode="normal"/></filter></defs><g><!--MD5=[65073b10ca6b22df664398df22ca60e4]
class org.eclipse.epf.uma.impl.WorkDefinitionImpl--><a href="WorkDefinitionImpl.html" target="_top" title="WorkDefinitionImpl.html" xlink:actuate="onRequest" xlink:href="WorkDefinitionImpl.html" xlink:show="new" xlink:title="WorkDefinitionImpl.html" xlink:type="simple"><rect codeLine="5" fill="#FEFECE" filter="url(#f13c0dw4d1kz3g)" height="228.0547" id="org.eclipse.epf.uma.impl.WorkDefinitionImpl" style="stroke: #A80036; stroke-width: 1.5;" width="376" x="7" y="171"/><ellipse cx="130.75" cy="191.0938" fill="#A9DCDF" rx="11" ry="11" style="stroke: #A80036; stroke-width: 1.0;"/><path d="M132.9375,192.8594 L128.7969,192.8594 L128.375,193.8906 L128.7969,193.8906 Q129.4063,193.8906 129.6719,194.125 Q129.9375,194.3594 129.9375,194.75 Q129.9375,195.125 129.6719,195.3594 Q129.4063,195.5938 128.7969,195.5938 L126.5,195.5938 Q125.8906,195.5938 125.6406,195.3594 Q125.375,195.125 125.375,194.7344 Q125.375,194.3594 125.6563,194.125 Q125.9219,193.875 126.5469,193.8906 L129.2188,187.2344 L128.1094,187.2344 Q127.5,187.2344 127.2344,187 Q126.9688,186.7656 126.9688,186.375 Q126.9688,186 127.2344,185.7656 Q127.5,185.5313 128.1094,185.5313 L131.7813,185.5313 L135.1719,193.8906 Q135.7656,193.8906 135.9531,194.0313 Q136.3438,194.2969 136.3438,194.75 Q136.3438,195.125 136.0781,195.3594 Q135.8281,195.5938 135.2188,195.5938 L132.9219,195.5938 Q132.3125,195.5938 132.0469,195.3594 Q131.7813,195.125 131.7813,194.7344 Q131.7813,194.3594 132.0469,194.125 Q132.3125,193.8906 132.9219,193.8906 L133.3438,193.8906 L132.9375,192.8594 Z M132.2188,191.1563 L130.8594,187.7813 L129.4844,191.1563 L132.2188,191.1563 Z "/><text fill="#000000" font-family="sans-serif" font-size="14" font-style="italic" lengthAdjust="spacingAndGlyphs" textLength="120" x="151.25" y="190.5332">WorkDefinitionImpl</text><text fill="#000000" font-family="sans-serif" font-size="10" font-style="italic" lengthAdjust="spacingAndGlyphs" textLength="114" x="154.25" y="203.9902">org.eclipse.epf.uma.impl</text><line style="stroke: #A80036; stroke-width: 1.5;" x1="8" x2="382" y1="211.1875" y2="211.1875"/><ellipse cx="18" cy="222.1875" fill="#84BE84" rx="3" ry="3" style="stroke: #038048; stroke-width: 1.0;"/><text fill="#000000" font-family="sans-serif" font-size="11" lengthAdjust="spacingAndGlyphs" textLength="137" x="27" y="226.6064">getPrecondition(): Constraint</text><ellipse cx="18" cy="236.0234" fill="#84BE84" rx="3" ry="3" style="stroke: #038048; stroke-width: 1.0;"/><text fill="#000000" font-family="sans-serif" font-size="11" lengthAdjust="spacingAndGlyphs" textLength="165" x="27" y="240.4424">basicGetPrecondition(): Constraint</text><ellipse cx="18" cy="249.8594" fill="#84BE84" rx="3" ry="3" style="stroke: #038048; stroke-width: 1.0;"/><text fill="#000000" font-family="sans-serif" font-size="11" lengthAdjust="spacingAndGlyphs" textLength="330" x="27" y="254.2783">basicSetPrecondition(Constraint, NotificationChain): NotificationChain</text><ellipse cx="18" cy="263.6953" fill="#84BE84" rx="3" ry="3" style="stroke: #038048; stroke-width: 1.0;"/><text fill="#000000" font-family="sans-serif" font-size="11" lengthAdjust="spacingAndGlyphs" textLength="157" x="27" y="268.1143">setPrecondition(Constraint): void</text><ellipse cx="18" cy="277.5313" fill="#84BE84" rx="3" ry="3" style="stroke: #038048; stroke-width: 1.0;"/><text fill="#000000" font-family="sans-serif" font-size="11" lengthAdjust="spacingAndGlyphs" textLength="142" x="27" y="281.9502">getPostcondition(): Constraint</text><ellipse cx="18" cy="291.3672" fill="#84BE84" rx="3" ry="3" style="stroke: #038048; stroke-width: 1.0;"/><text fill="#000000" font-family="sans-serif" font-size="11" lengthAdjust="spacingAndGlyphs" textLength="170" x="27" y="295.7861">basicGetPostcondition(): Constraint</text><ellipse cx="18" cy="305.2031" fill="#84BE84" rx="3" ry="3" style="stroke: #038048; stroke-width: 1.0;"/><text fill="#000000" font-family="sans-serif" font-size="11" lengthAdjust="spacingAndGlyphs" textLength="335" x="27" y="309.6221">basicSetPostcondition(Constraint, NotificationChain): NotificationChain</text><ellipse cx="18" cy="319.0391" fill="#84BE84" rx="3" ry="3" style="stroke: #038048; stroke-width: 1.0;"/><text fill="#000000" font-family="sans-serif" font-size="11" lengthAdjust="spacingAndGlyphs" textLength="162" x="27" y="323.458">setPostcondition(Constraint): void</text><ellipse cx="18" cy="332.875" fill="#84BE84" rx="3" ry="3" style="stroke: #038048; stroke-width: 1.0;"/><text fill="#000000" font-family="sans-serif" font-size="11" lengthAdjust="spacingAndGlyphs" textLength="350" x="27" y="337.2939">eInverseRemove(InternalEObject, int, NotificationChain): NotificationChain</text><ellipse cx="18" cy="346.7109" fill="#84BE84" rx="3" ry="3" style="stroke: #038048; stroke-width: 1.0;"/><text fill="#000000" font-family="sans-serif" font-size="11" lengthAdjust="spacingAndGlyphs" textLength="167" x="27" y="351.1299">eGet(int, boolean, boolean): Object</text><ellipse cx="18" cy="360.5469" fill="#84BE84" rx="3" ry="3" style="stroke: #038048; stroke-width: 1.0;"/><text fill="#000000" font-family="sans-serif" font-size="11" lengthAdjust="spacingAndGlyphs" textLength="104" x="27" y="364.9658">eSet(int, Object): void</text><ellipse cx="18" cy="374.3828" fill="#84BE84" rx="3" ry="3" style="stroke: #038048; stroke-width: 1.0;"/><text fill="#000000" font-family="sans-serif" font-size="11" lengthAdjust="spacingAndGlyphs" textLength="79" x="27" y="378.8018">eUnset(int): void</text><ellipse cx="18" cy="388.2188" fill="#84BE84" rx="3" ry="3" style="stroke: #038048; stroke-width: 1.0;"/><text fill="#000000" font-family="sans-serif" font-size="11" lengthAdjust="spacingAndGlyphs" textLength="93" x="27" y="392.6377">eIsSet(int): boolean</text></a><!--MD5=[96d74128ee637182a637cecce9919dcf]
class org.eclipse.epf.uma.impl.MethodElementImpl--><a href="MethodElementImpl.html" target="_top" title="MethodElementImpl.html" xlink:actuate="onRequest" xlink:href="MethodElementImpl.html" xlink:show="new" xlink:title="MethodElementImpl.html" xlink:type="simple"><rect codeLine="21" fill="#FEFECE" filter="url(#f13c0dw4d1kz3g)" height="40.1875" id="org.eclipse.epf.uma.impl.MethodElementImpl" style="stroke: #A80036; stroke-width: 1.5;" width="157" x="11.5" y="39"/><ellipse cx="26.5" cy="59.0938" fill="#A9DCDF" rx="11" ry="11" style="stroke: #A80036; stroke-width: 1.0;"/><path d="M28.6875,60.8594 L24.5469,60.8594 L24.125,61.8906 L24.5469,61.8906 Q25.1563,61.8906 25.4219,62.125 Q25.6875,62.3594 25.6875,62.75 Q25.6875,63.125 25.4219,63.3594 Q25.1563,63.5938 24.5469,63.5938 L22.25,63.5938 Q21.6406,63.5938 21.3906,63.3594 Q21.125,63.125 21.125,62.7344 Q21.125,62.3594 21.4063,62.125 Q21.6719,61.875 22.2969,61.8906 L24.9688,55.2344 L23.8594,55.2344 Q23.25,55.2344 22.9844,55 Q22.7188,54.7656 22.7188,54.375 Q22.7188,54 22.9844,53.7656 Q23.25,53.5313 23.8594,53.5313 L27.5313,53.5313 L30.9219,61.8906 Q31.5156,61.8906 31.7031,62.0313 Q32.0938,62.2969 32.0938,62.75 Q32.0938,63.125 31.8281,63.3594 Q31.5781,63.5938 30.9688,63.5938 L28.6719,63.5938 Q28.0625,63.5938 27.7969,63.3594 Q27.5313,63.125 27.5313,62.7344 Q27.5313,62.3594 27.7969,62.125 Q28.0625,61.8906 28.6719,61.8906 L29.0938,61.8906 L28.6875,60.8594 Z M27.9688,59.1563 L26.6094,55.7813 L25.2344,59.1563 L27.9688,59.1563 Z "/><text fill="#000000" font-family="sans-serif" font-size="14" font-style="italic" lengthAdjust="spacingAndGlyphs" textLength="125" x="40.5" y="58.5332">MethodElementImpl</text><text fill="#000000" font-family="sans-serif" font-size="10" font-style="italic" lengthAdjust="spacingAndGlyphs" textLength="114" x="46" y="71.9902">org.eclipse.epf.uma.impl</text></a><!--MD5=[3c99a5eaea672cd8b6c6b711cc4fc612]
class org.eclipse.epf.uma.WorkDefinition--><a href="..\WorkDefinition.html" target="_top" title="..\WorkDefinition.html" xlink:actuate="onRequest" xlink:href="..\WorkDefinition.html" xlink:show="new" xlink:title="..\WorkDefinition.html" xlink:type="simple"><rect codeLine="22" fill="#FEFECE" filter="url(#f13c0dw4d1kz3g)" height="103.5313" id="org.eclipse.epf.uma.WorkDefinition" style="stroke: #A80036; stroke-width: 1.5;" width="193" x="203.5" y="7"/><ellipse cx="248.75" cy="27.0938" fill="#B4A7E5" rx="11" ry="11" style="stroke: #A80036; stroke-width: 1.0;"/><path d="M249.7031,23.7344 L249.7031,30.3906 L251.4219,30.3906 Q252.0313,30.3906 252.2969,30.625 Q252.5625,30.8594 252.5625,31.25 Q252.5625,31.625 252.2969,31.8594 Q252.0313,32.0938 251.4219,32.0938 L246.2813,32.0938 Q245.6719,32.0938 245.4063,31.8594 Q245.1406,31.625 245.1406,31.2344 Q245.1406,30.8594 245.4063,30.625 Q245.6719,30.3906 246.2813,30.3906 L248,30.3906 L248,23.7344 L246.2813,23.7344 Q245.6719,23.7344 245.4063,23.5 Q245.1406,23.2656 245.1406,22.875 Q245.1406,22.5 245.4063,22.2656 Q245.6719,22.0313 246.2813,22.0313 L251.4219,22.0313 Q252.0313,22.0313 252.2969,22.2656 Q252.5625,22.5 252.5625,22.875 Q252.5625,23.2656 252.2969,23.5 Q252.0313,23.7344 251.4219,23.7344 L249.7031,23.7344 Z "/><text fill="#000000" font-family="sans-serif" font-size="14" font-style="italic" lengthAdjust="spacingAndGlyphs" textLength="94" x="269.25" y="26.5332">WorkDefinition</text><text fill="#000000" font-family="sans-serif" font-size="10" font-style="italic" lengthAdjust="spacingAndGlyphs" textLength="92" x="270.25" y="39.9902">org.eclipse.epf.uma</text><line style="stroke: #A80036; stroke-width: 1.5;" x1="204.5" x2="395.5" y1="47.1875" y2="47.1875"/><ellipse cx="214.5" cy="58.1875" fill="#84BE84" rx="3" ry="3" style="stroke: #038048; stroke-width: 1.0;"/><text fill="#000000" font-family="sans-serif" font-size="11" font-style="italic" lengthAdjust="spacingAndGlyphs" textLength="142" x="223.5" y="62.6064">getPrecondition(): Constraint</text><ellipse cx="214.5" cy="72.0234" fill="#84BE84" rx="3" ry="3" style="stroke: #038048; stroke-width: 1.0;"/><text fill="#000000" font-family="sans-serif" font-size="11" font-style="italic" lengthAdjust="spacingAndGlyphs" textLength="162" x="223.5" y="76.4424">setPrecondition(Constraint): void</text><ellipse cx="214.5" cy="85.8594" fill="#84BE84" rx="3" ry="3" style="stroke: #038048; stroke-width: 1.0;"/><text fill="#000000" font-family="sans-serif" font-size="11" font-style="italic" lengthAdjust="spacingAndGlyphs" textLength="147" x="223.5" y="90.2783">getPostcondition(): Constraint</text><ellipse cx="214.5" cy="99.6953" fill="#84BE84" rx="3" ry="3" style="stroke: #038048; stroke-width: 1.0;"/><text fill="#000000" font-family="sans-serif" font-size="11" font-style="italic" lengthAdjust="spacingAndGlyphs" textLength="167" x="223.5" y="104.1143">setPostcondition(Constraint): void</text></a><!--MD5=[89fb78054069e6fb65b4aa77719702b7]
reverse link org.eclipse.epf.uma.impl.MethodElementImpl to org.eclipse.epf.uma.impl.WorkDefinitionImpl--><path codeLine="29" d="M107.48,97.29 C117.07,117.75 129.52,144.32 142.01,170.96 " fill="none" id="org.eclipse.epf.uma.impl.MethodElementImpl-backto-org.eclipse.epf.uma.impl.WorkDefinitionImpl" style="stroke: #A80036; stroke-width: 1.0;"/><polygon fill="none" points="101.1,100.18,98.95,79.1,113.78,94.24,101.1,100.18" style="stroke: #A80036; stroke-width: 1.0;"/><!--MD5=[a987b7b1b47b1ed1d42e1382f8ccfecc]
reverse link org.eclipse.epf.uma.WorkDefinition to org.eclipse.epf.uma.impl.WorkDefinitionImpl--><path codeLine="30" d="M267.36,129.64 C261.18,142.81 254.58,156.89 247.97,171 " fill="none" id="org.eclipse.epf.uma.WorkDefinition-backto-org.eclipse.epf.uma.impl.WorkDefinitionImpl" style="stroke: #A80036; stroke-width: 1.0; stroke-dasharray: 7.0,7.0;"/><polygon fill="none" points="261.22,126.25,276.04,111.11,273.89,132.19,261.22,126.25" style="stroke: #A80036; stroke-width: 1.0;"/><text fill="#888888" font-family="sans-serif" font-size="10" lengthAdjust="spacingAndGlyphs" textLength="190" x="103.75" y="422.4355">UMLDoclet 2.0.12, PlantUML 1.2020.16</text><!--MD5=[d18791db512a8b6f2239ab2ab04315fc]
@startuml
    set namespaceSeparator none
    hide empty fields
    hide empty methods

    abstract class "<size:14>WorkDefinitionImpl\n<size:10>org.eclipse.epf.uma.impl" as org.eclipse.epf.uma.impl.WorkDefinitionImpl [[WorkDefinitionImpl.html]] {
        +getPrecondition(): Constraint
        +basicGetPrecondition(): Constraint
        +basicSetPrecondition(Constraint, NotificationChain): NotificationChain
        +setPrecondition(Constraint): void
        +getPostcondition(): Constraint
        +basicGetPostcondition(): Constraint
        +basicSetPostcondition(Constraint, NotificationChain): NotificationChain
        +setPostcondition(Constraint): void
        +eInverseRemove(InternalEObject, int, NotificationChain): NotificationChain
        +eGet(int, boolean, boolean): Object
        +eSet(int, Object): void
        +eUnset(int): void
        +eIsSet(int): boolean
    }

    abstract class "<size:14>MethodElementImpl\n<size:10>org.eclipse.epf.uma.impl" as org.eclipse.epf.uma.impl.MethodElementImpl [[MethodElementImpl.html]]
    interface "<size:14>WorkDefinition\n<size:10>org.eclipse.epf.uma" as org.eclipse.epf.uma.WorkDefinition [[..\WorkDefinition.html]] {
        {abstract} +getPrecondition(): Constraint
        {abstract} +setPrecondition(Constraint): void
        {abstract} +getPostcondition(): Constraint
        {abstract} +setPostcondition(Constraint): void
    }

    org.eclipse.epf.uma.impl.MethodElementImpl <|- - org.eclipse.epf.uma.impl.WorkDefinitionImpl
    org.eclipse.epf.uma.WorkDefinition <|.. org.eclipse.epf.uma.impl.WorkDefinitionImpl

    center footer UMLDoclet 2.0.12, PlantUML 1.2020.16
@enduml

PlantUML version 1.2020.16(Sun Aug 23 22:20:43 CEST 2020)
(APACHE source distribution)
Java Runtime: Java(TM) SE Runtime Environment
JVM: Java HotSpot(TM) 64-Bit Server VM
Default Encoding: Cp1252
Language: es
Country: ES
--></g></svg>