<?xml version="1.0" encoding="UTF-8" standalone="no"?><svg xmlns="http://www.w3.org/2000/svg" xmlns:xlink="http://www.w3.org/1999/xlink" contentScriptType="application/ecmascript" contentStyleType="text/css" height="574px" preserveAspectRatio="none" style="width:499px;height:574px;" version="1.1" viewBox="0 0 499 574" width="499px" zoomAndPan="magnify"><defs><filter height="300%" id="fk8nbgbeygyod" width="300%" x="-1" y="-1"><feGaussianBlur result="blurOut" stdDeviation="2.0"/><feColorMatrix in="blurOut" result="blurOut2" type="matrix" values="0 0 0 0 0 0 0 0 0 0 0 0 0 0 0 0 0 0 .4 0"/><feOffset dx="4.0" dy="4.0" in="blurOut2" result="blurOut3"/><feBlend in="SourceGraphic" in2="blurOut3" mode="normal"/></filter></defs><g><!--MD5=[4fe0d540d956bd4e9296c58d1fcc8f14]
class org.eclipse.epf.uma.impl.WorkProductDescriptorImpl--><a href="WorkProductDescriptorImpl.html" target="_top" title="WorkProductDescriptorImpl.html" xlink:actuate="onRequest" xlink:href="WorkProductDescriptorImpl.html" xlink:show="new" xlink:title="WorkProductDescriptorImpl.html" xlink:type="simple"><rect codeLine="5" fill="#FEFECE" filter="url(#fk8nbgbeygyod)" height="283.3984" id="org.eclipse.epf.uma.impl.WorkProductDescriptorImpl" style="stroke: #A80036; stroke-width: 1.5;" width="376" x="19" y="254"/><ellipse cx="116.75" cy="274.0938" fill="#ADD1B2" rx="11" ry="11" style="stroke: #A80036; stroke-width: 1.0;"/><path d="M119.5156,269.9688 Q119.6719,269.75 119.8594,269.6406 Q120.0469,269.5313 120.2656,269.5313 Q120.6406,269.5313 120.875,269.7969 Q121.1094,270.0469 121.1094,270.6563 L121.1094,272.1094 Q121.1094,272.7188 120.875,272.9844 Q120.6406,273.25 120.2656,273.25 Q119.9219,273.25 119.7188,273.0469 Q119.5156,272.8594 119.4063,272.3438 Q119.3594,271.9844 119.1719,271.7969 Q118.8438,271.4219 118.2344,271.2031 Q117.625,270.9844 117,270.9844 Q116.2344,270.9844 115.5938,271.3125 Q114.9688,271.6406 114.4688,272.3906 Q113.9844,273.1406 113.9844,274.1719 L113.9844,275.2656 Q113.9844,276.5 114.875,277.3281 Q115.7656,278.1406 117.3594,278.1406 Q118.2969,278.1406 118.9531,277.8906 Q119.3438,277.7344 119.7656,277.2969 Q120.0313,277.0313 120.1719,276.9531 Q120.3281,276.875 120.5313,276.875 Q120.8594,276.875 121.1094,277.1406 Q121.375,277.3906 121.375,277.7344 Q121.375,278.0781 121.0313,278.4844 Q120.5313,279.0625 119.7344,279.3906 Q118.6563,279.8438 117.3594,279.8438 Q115.8438,279.8438 114.6406,279.2188 Q113.6563,278.7188 112.9688,277.6563 Q112.2813,276.5781 112.2813,275.2969 L112.2813,274.1406 Q112.2813,272.8125 112.8906,271.6719 Q113.5156,270.5156 114.6094,269.9063 Q115.7031,269.2813 116.9375,269.2813 Q117.6719,269.2813 118.3125,269.4531 Q118.9688,269.6094 119.5156,269.9688 Z "/><text fill="#000000" font-family="sans-serif" font-size="14" lengthAdjust="spacingAndGlyphs" textLength="172" x="137.25" y="273.5332">WorkProductDescriptorImpl</text><text fill="#000000" font-family="sans-serif" font-size="10" lengthAdjust="spacingAndGlyphs" textLength="118" x="164.25" y="286.9902">org.eclipse.epf.uma.impl</text><line style="stroke: #A80036; stroke-width: 1.5;" x1="20" x2="394" y1="294.1875" y2="294.1875"/><ellipse cx="30" cy="305.1875" fill="#84BE84" rx="3" ry="3" style="stroke: #038048; stroke-width: 1.0;"/><text fill="#000000" font-family="sans-serif" font-size="11" lengthAdjust="spacingAndGlyphs" textLength="143" x="39" y="309.6064">getActivityEntryState(): String</text><ellipse cx="30" cy="319.0234" fill="#84BE84" rx="3" ry="3" style="stroke: #038048; stroke-width: 1.0;"/><text fill="#000000" font-family="sans-serif" font-size="11" lengthAdjust="spacingAndGlyphs" textLength="163" x="39" y="323.4424">setActivityEntryState(String): void</text><ellipse cx="30" cy="332.8594" fill="#84BE84" rx="3" ry="3" style="stroke: #038048; stroke-width: 1.0;"/><text fill="#000000" font-family="sans-serif" font-size="11" lengthAdjust="spacingAndGlyphs" textLength="135" x="39" y="337.2783">getActivityExitState(): String</text><ellipse cx="30" cy="346.6953" fill="#84BE84" rx="3" ry="3" style="stroke: #038048; stroke-width: 1.0;"/><text fill="#000000" font-family="sans-serif" font-size="11" lengthAdjust="spacingAndGlyphs" textLength="155" x="39" y="351.1143">setActivityExitState(String): void</text><ellipse cx="30" cy="360.5313" fill="#84BE84" rx="3" ry="3" style="stroke: #038048; stroke-width: 1.0;"/><text fill="#000000" font-family="sans-serif" font-size="11" lengthAdjust="spacingAndGlyphs" textLength="153" x="39" y="364.9502">getWorkProduct(): WorkProduct</text><ellipse cx="30" cy="374.3672" fill="#84BE84" rx="3" ry="3" style="stroke: #038048; stroke-width: 1.0;"/><text fill="#000000" font-family="sans-serif" font-size="11" lengthAdjust="spacingAndGlyphs" textLength="181" x="39" y="378.7861">basicGetWorkProduct(): WorkProduct</text><ellipse cx="30" cy="388.2031" fill="#84BE84" rx="3" ry="3" style="stroke: #038048; stroke-width: 1.0;"/><text fill="#000000" font-family="sans-serif" font-size="11" lengthAdjust="spacingAndGlyphs" textLength="173" x="39" y="392.6221">setWorkProduct(WorkProduct): void</text><ellipse cx="30" cy="402.0391" fill="#84BE84" rx="3" ry="3" style="stroke: #038048; stroke-width: 1.0;"/><text fill="#000000" font-family="sans-serif" font-size="11" lengthAdjust="spacingAndGlyphs" textLength="232" x="39" y="406.458">getImpactedBy(): EList&lt;WorkProductDescriptor&gt;</text><ellipse cx="30" cy="415.875" fill="#84BE84" rx="3" ry="3" style="stroke: #038048; stroke-width: 1.0;"/><text fill="#000000" font-family="sans-serif" font-size="11" lengthAdjust="spacingAndGlyphs" textLength="213" x="39" y="420.2939">getImpacts(): EList&lt;WorkProductDescriptor&gt;</text><ellipse cx="30" cy="429.7109" fill="#84BE84" rx="3" ry="3" style="stroke: #038048; stroke-width: 1.0;"/><text fill="#000000" font-family="sans-serif" font-size="11" lengthAdjust="spacingAndGlyphs" textLength="254" x="39" y="434.1299">getDeliverableParts(): EList&lt;WorkProductDescriptor&gt;</text><ellipse cx="30" cy="443.5469" fill="#84BE84" rx="3" ry="3" style="stroke: #038048; stroke-width: 1.0;"/><text fill="#000000" font-family="sans-serif" font-size="11" lengthAdjust="spacingAndGlyphs" textLength="242" x="39" y="447.9658">getDeliverablePartsExclude(): EList&lt;WorkProduct&gt;</text><ellipse cx="30" cy="457.3828" fill="#84BE84" rx="3" ry="3" style="stroke: #038048; stroke-width: 1.0;"/><text fill="#000000" font-family="sans-serif" font-size="11" lengthAdjust="spacingAndGlyphs" textLength="331" x="39" y="461.8018">eInverseAdd(InternalEObject, int, NotificationChain): NotificationChain</text><ellipse cx="30" cy="471.2188" fill="#84BE84" rx="3" ry="3" style="stroke: #038048; stroke-width: 1.0;"/><text fill="#000000" font-family="sans-serif" font-size="11" lengthAdjust="spacingAndGlyphs" textLength="350" x="39" y="475.6377">eInverseRemove(InternalEObject, int, NotificationChain): NotificationChain</text><ellipse cx="30" cy="485.0547" fill="#84BE84" rx="3" ry="3" style="stroke: #038048; stroke-width: 1.0;"/><text fill="#000000" font-family="sans-serif" font-size="11" lengthAdjust="spacingAndGlyphs" textLength="167" x="39" y="489.4736">eGet(int, boolean, boolean): Object</text><ellipse cx="30" cy="498.8906" fill="#84BE84" rx="3" ry="3" style="stroke: #038048; stroke-width: 1.0;"/><text fill="#000000" font-family="sans-serif" font-size="11" lengthAdjust="spacingAndGlyphs" textLength="104" x="39" y="503.3096">eSet(int, Object): void</text><ellipse cx="30" cy="512.7266" fill="#84BE84" rx="3" ry="3" style="stroke: #038048; stroke-width: 1.0;"/><text fill="#000000" font-family="sans-serif" font-size="11" lengthAdjust="spacingAndGlyphs" textLength="79" x="39" y="517.1455">eUnset(int): void</text><ellipse cx="30" cy="526.5625" fill="#84BE84" rx="3" ry="3" style="stroke: #038048; stroke-width: 1.0;"/><text fill="#000000" font-family="sans-serif" font-size="11" lengthAdjust="spacingAndGlyphs" textLength="93" x="39" y="530.9814">eIsSet(int): boolean</text></a><!--MD5=[165a2d5387423aae99d78796ca3bc826]
class org.eclipse.epf.uma.impl.DescriptorImpl--><a href="DescriptorImpl.html" target="_top" title="DescriptorImpl.html" xlink:actuate="onRequest" xlink:href="DescriptorImpl.html" xlink:show="new" xlink:title="DescriptorImpl.html" xlink:type="simple"><rect codeLine="25" fill="#FEFECE" filter="url(#fk8nbgbeygyod)" height="40.1875" id="org.eclipse.epf.uma.impl.DescriptorImpl" style="stroke: #A80036; stroke-width: 1.5;" width="146" x="7" y="80.5"/><ellipse cx="22" cy="100.5938" fill="#A9DCDF" rx="11" ry="11" style="stroke: #A80036; stroke-width: 1.0;"/><path d="M24.1875,102.3594 L20.0469,102.3594 L19.625,103.3906 L20.0469,103.3906 Q20.6563,103.3906 20.9219,103.625 Q21.1875,103.8594 21.1875,104.25 Q21.1875,104.625 20.9219,104.8594 Q20.6563,105.0938 20.0469,105.0938 L17.75,105.0938 Q17.1406,105.0938 16.8906,104.8594 Q16.625,104.625 16.625,104.2344 Q16.625,103.8594 16.9063,103.625 Q17.1719,103.375 17.7969,103.3906 L20.4688,96.7344 L19.3594,96.7344 Q18.75,96.7344 18.4844,96.5 Q18.2188,96.2656 18.2188,95.875 Q18.2188,95.5 18.4844,95.2656 Q18.75,95.0313 19.3594,95.0313 L23.0313,95.0313 L26.4219,103.3906 Q27.0156,103.3906 27.2031,103.5313 Q27.5938,103.7969 27.5938,104.25 Q27.5938,104.625 27.3281,104.8594 Q27.0781,105.0938 26.4688,105.0938 L24.1719,105.0938 Q23.5625,105.0938 23.2969,104.8594 Q23.0313,104.625 23.0313,104.2344 Q23.0313,103.8594 23.2969,103.625 Q23.5625,103.3906 24.1719,103.3906 L24.5938,103.3906 L24.1875,102.3594 Z M23.4688,100.6563 L22.1094,97.2813 L20.7344,100.6563 L23.4688,100.6563 Z "/><text fill="#000000" font-family="sans-serif" font-size="14" font-style="italic" lengthAdjust="spacingAndGlyphs" textLength="91" x="47.5" y="100.0332">DescriptorImpl</text><text fill="#000000" font-family="sans-serif" font-size="10" font-style="italic" lengthAdjust="spacingAndGlyphs" textLength="114" x="36" y="113.4902">org.eclipse.epf.uma.impl</text></a><!--MD5=[d904302649b893251f2d7a8b80baa00b]
class org.eclipse.epf.uma.WorkProductDescriptor--><a href="..\WorkProductDescriptor.html" target="_top" title="..\WorkProductDescriptor.html" xlink:actuate="onRequest" xlink:href="..\WorkProductDescriptor.html" xlink:show="new" xlink:title="..\WorkProductDescriptor.html" xlink:type="simple"><rect codeLine="26" fill="#FEFECE" filter="url(#fk8nbgbeygyod)" height="186.5469" id="org.eclipse.epf.uma.WorkProductDescriptor" style="stroke: #A80036; stroke-width: 1.5;" width="292" x="188" y="7"/><ellipse cx="255.25" cy="27.0938" fill="#B4A7E5" rx="11" ry="11" style="stroke: #A80036; stroke-width: 1.0;"/><path d="M256.2031,23.7344 L256.2031,30.3906 L257.9219,30.3906 Q258.5313,30.3906 258.7969,30.625 Q259.0625,30.8594 259.0625,31.25 Q259.0625,31.625 258.7969,31.8594 Q258.5313,32.0938 257.9219,32.0938 L252.7813,32.0938 Q252.1719,32.0938 251.9063,31.8594 Q251.6406,31.625 251.6406,31.2344 Q251.6406,30.8594 251.9063,30.625 Q252.1719,30.3906 252.7813,30.3906 L254.5,30.3906 L254.5,23.7344 L252.7813,23.7344 Q252.1719,23.7344 251.9063,23.5 Q251.6406,23.2656 251.6406,22.875 Q251.6406,22.5 251.9063,22.2656 Q252.1719,22.0313 252.7813,22.0313 L257.9219,22.0313 Q258.5313,22.0313 258.7969,22.2656 Q259.0625,22.5 259.0625,22.875 Q259.0625,23.2656 258.7969,23.5 Q258.5313,23.7344 257.9219,23.7344 L256.2031,23.7344 Z "/><text fill="#000000" font-family="sans-serif" font-size="14" font-style="italic" lengthAdjust="spacingAndGlyphs" textLength="149" x="275.75" y="26.5332">WorkProductDescriptor</text><text fill="#000000" font-family="sans-serif" font-size="10" font-style="italic" lengthAdjust="spacingAndGlyphs" textLength="92" x="304.25" y="39.9902">org.eclipse.epf.uma</text><line style="stroke: #A80036; stroke-width: 1.5;" x1="189" x2="479" y1="47.1875" y2="47.1875"/><ellipse cx="199" cy="58.1875" fill="#84BE84" rx="3" ry="3" style="stroke: #038048; stroke-width: 1.0;"/><text fill="#000000" font-family="sans-serif" font-size="11" font-style="italic" lengthAdjust="spacingAndGlyphs" textLength="143" x="208" y="62.6064">getActivityEntryState(): String</text><ellipse cx="199" cy="72.0234" fill="#84BE84" rx="3" ry="3" style="stroke: #038048; stroke-width: 1.0;"/><text fill="#000000" font-family="sans-serif" font-size="11" font-style="italic" lengthAdjust="spacingAndGlyphs" textLength="163" x="208" y="76.4424">setActivityEntryState(String): void</text><ellipse cx="199" cy="85.8594" fill="#84BE84" rx="3" ry="3" style="stroke: #038048; stroke-width: 1.0;"/><text fill="#000000" font-family="sans-serif" font-size="11" font-style="italic" lengthAdjust="spacingAndGlyphs" textLength="137" x="208" y="90.2783">getActivityExitState(): String</text><ellipse cx="199" cy="99.6953" fill="#84BE84" rx="3" ry="3" style="stroke: #038048; stroke-width: 1.0;"/><text fill="#000000" font-family="sans-serif" font-size="11" font-style="italic" lengthAdjust="spacingAndGlyphs" textLength="157" x="208" y="104.1143">setActivityExitState(String): void</text><ellipse cx="199" cy="113.5313" fill="#84BE84" rx="3" ry="3" style="stroke: #038048; stroke-width: 1.0;"/><text fill="#000000" font-family="sans-serif" font-size="11" font-style="italic" lengthAdjust="spacingAndGlyphs" textLength="159" x="208" y="117.9502">getWorkProduct(): WorkProduct</text><ellipse cx="199" cy="127.3672" fill="#84BE84" rx="3" ry="3" style="stroke: #038048; stroke-width: 1.0;"/><text fill="#000000" font-family="sans-serif" font-size="11" font-style="italic" lengthAdjust="spacingAndGlyphs" textLength="179" x="208" y="131.7861">setWorkProduct(WorkProduct): void</text><ellipse cx="199" cy="141.2031" fill="#84BE84" rx="3" ry="3" style="stroke: #038048; stroke-width: 1.0;"/><text fill="#000000" font-family="sans-serif" font-size="11" font-style="italic" lengthAdjust="spacingAndGlyphs" textLength="240" x="208" y="145.6221">getImpactedBy(): EList&lt;WorkProductDescriptor&gt;</text><ellipse cx="199" cy="155.0391" fill="#84BE84" rx="3" ry="3" style="stroke: #038048; stroke-width: 1.0;"/><text fill="#000000" font-family="sans-serif" font-size="11" font-style="italic" lengthAdjust="spacingAndGlyphs" textLength="222" x="208" y="159.458">getImpacts(): EList&lt;WorkProductDescriptor&gt;</text><ellipse cx="199" cy="168.875" fill="#84BE84" rx="3" ry="3" style="stroke: #038048; stroke-width: 1.0;"/><text fill="#000000" font-family="sans-serif" font-size="11" font-style="italic" lengthAdjust="spacingAndGlyphs" textLength="266" x="208" y="173.2939">getDeliverableParts(): EList&lt;WorkProductDescriptor&gt;</text><ellipse cx="199" cy="182.7109" fill="#84BE84" rx="3" ry="3" style="stroke: #038048; stroke-width: 1.0;"/><text fill="#000000" font-family="sans-serif" font-size="11" font-style="italic" lengthAdjust="spacingAndGlyphs" textLength="254" x="208" y="187.1299">getDeliverablePartsExclude(): EList&lt;WorkProduct&gt;</text></a><!--MD5=[ee83d0f37095f5d75976cab924f31743]
reverse link org.eclipse.epf.uma.impl.DescriptorImpl to org.eclipse.epf.uma.impl.WorkProductDescriptorImpl--><path codeLine="39" d="M96.33,139.18 C109.09,168.62 127.68,211.49 145.98,253.73 " fill="none" id="org.eclipse.epf.uma.impl.DescriptorImpl-backto-org.eclipse.epf.uma.impl.WorkProductDescriptorImpl" style="stroke: #A80036; stroke-width: 1.0;"/><polygon fill="none" points="89.86,141.86,88.33,120.72,102.71,136.29,89.86,141.86" style="stroke: #A80036; stroke-width: 1.0;"/><!--MD5=[7fcbbb97bb36f4164cfaf24853dc5ed2]
reverse link org.eclipse.epf.uma.WorkProductDescriptor to org.eclipse.epf.uma.impl.WorkProductDescriptorImpl--><path codeLine="40" d="M285.73,212.87 C279.9,226.31 273.89,240.17 267.92,253.95 " fill="none" id="org.eclipse.epf.uma.WorkProductDescriptor-backto-org.eclipse.epf.uma.impl.WorkProductDescriptorImpl" style="stroke: #A80036; stroke-width: 1.0; stroke-dasharray: 7.0,7.0;"/><polygon fill="none" points="279.44,209.77,293.82,194.21,292.29,215.34,279.44,209.77" style="stroke: #A80036; stroke-width: 1.0;"/><text fill="#888888" font-family="sans-serif" font-size="10" lengthAdjust="spacingAndGlyphs" textLength="190" x="145.5" y="560.7793">UMLDoclet 2.0.12, PlantUML 1.2020.16</text><!--MD5=[f3227cdeb280d185222103f1fa862b1e]
@startuml
    set namespaceSeparator none
    hide empty fields
    hide empty methods

    class "<size:14>WorkProductDescriptorImpl\n<size:10>org.eclipse.epf.uma.impl" as org.eclipse.epf.uma.impl.WorkProductDescriptorImpl [[WorkProductDescriptorImpl.html]] {
        +getActivityEntryState(): String
        +setActivityEntryState(String): void
        +getActivityExitState(): String
        +setActivityExitState(String): void
        +getWorkProduct(): WorkProduct
        +basicGetWorkProduct(): WorkProduct
        +setWorkProduct(WorkProduct): void
        +getImpactedBy(): EList<WorkProductDescriptor>
        +getImpacts(): EList<WorkProductDescriptor>
        +getDeliverableParts(): EList<WorkProductDescriptor>
        +getDeliverablePartsExclude(): EList<WorkProduct>
        +eInverseAdd(InternalEObject, int, NotificationChain): NotificationChain
        +eInverseRemove(InternalEObject, int, NotificationChain): NotificationChain
        +eGet(int, boolean, boolean): Object
        +eSet(int, Object): void
        +eUnset(int): void
        +eIsSet(int): boolean
    }

    abstract class "<size:14>DescriptorImpl\n<size:10>org.eclipse.epf.uma.impl" as org.eclipse.epf.uma.impl.DescriptorImpl [[DescriptorImpl.html]]
    interface "<size:14>WorkProductDescriptor\n<size:10>org.eclipse.epf.uma" as org.eclipse.epf.uma.WorkProductDescriptor [[..\WorkProductDescriptor.html]] {
        {abstract} +getActivityEntryState(): String
        {abstract} +setActivityEntryState(String): void
        {abstract} +getActivityExitState(): String
        {abstract} +setActivityExitState(String): void
        {abstract} +getWorkProduct(): WorkProduct
        {abstract} +setWorkProduct(WorkProduct): void
        {abstract} +getImpactedBy(): EList<WorkProductDescriptor>
        {abstract} +getImpacts(): EList<WorkProductDescriptor>
        {abstract} +getDeliverableParts(): EList<WorkProductDescriptor>
        {abstract} +getDeliverablePartsExclude(): EList<WorkProduct>
    }

    org.eclipse.epf.uma.impl.DescriptorImpl <|- - org.eclipse.epf.uma.impl.WorkProductDescriptorImpl
    org.eclipse.epf.uma.WorkProductDescriptor <|.. org.eclipse.epf.uma.impl.WorkProductDescriptorImpl

    center footer UMLDoclet 2.0.12, PlantUML 1.2020.16
@enduml

PlantUML version 1.2020.16(Sun Aug 23 22:20:43 CEST 2020)
(APACHE source distribution)
Java Runtime: Java(TM) SE Runtime Environment
JVM: Java HotSpot(TM) 64-Bit Server VM
Default Encoding: Cp1252
Language: es
Country: ES
--></g></svg>