<?xml version="1.0" encoding="UTF-8" standalone="no"?><svg xmlns="http://www.w3.org/2000/svg" xmlns:xlink="http://www.w3.org/1999/xlink" contentScriptType="application/ecmascript" contentStyleType="text/css" height="421px" preserveAspectRatio="none" style="width:462px;height:421px;" version="1.1" viewBox="0 0 462 421" width="462px" zoomAndPan="magnify"><defs><filter height="300%" id="fx1v9ar1p9klc" width="300%" x="-1" y="-1"><feGaussianBlur result="blurOut" stdDeviation="2.0"/><feColorMatrix in="blurOut" result="blurOut2" type="matrix" values="0 0 0 0 0 0 0 0 0 0 0 0 0 0 0 0 0 0 .4 0"/><feOffset dx="4.0" dy="4.0" in="blurOut2" result="blurOut3"/><feBlend in="SourceGraphic" in2="blurOut3" mode="normal"/></filter></defs><g><!--MD5=[bf653f505598baa77f3947f3d5c236b1]
class org.eclipse.epf.uma.impl.WorkProductDescriptionImpl--><a href="WorkProductDescriptionImpl.html" target="_top" title="WorkProductDescriptionImpl.html" xlink:actuate="onRequest" xlink:href="WorkProductDescriptionImpl.html" xlink:show="new" xlink:title="WorkProductDescriptionImpl.html" xlink:type="simple"><rect codeLine="5" fill="#FEFECE" filter="url(#fx1v9ar1p9klc)" height="186.5469" id="org.eclipse.epf.uma.impl.WorkProductDescriptionImpl" style="stroke: #A80036; stroke-width: 1.5;" width="217" x="105.5" y="198"/><ellipse cx="123.65" cy="218.0938" fill="#ADD1B2" rx="11" ry="11" style="stroke: #A80036; stroke-width: 1.0;"/><path d="M126.4156,213.9688 Q126.5719,213.75 126.7594,213.6406 Q126.9469,213.5313 127.1656,213.5313 Q127.5406,213.5313 127.775,213.7969 Q128.0094,214.0469 128.0094,214.6563 L128.0094,216.1094 Q128.0094,216.7188 127.775,216.9844 Q127.5406,217.25 127.1656,217.25 Q126.8219,217.25 126.6188,217.0469 Q126.4156,216.8594 126.3063,216.3438 Q126.2594,215.9844 126.0719,215.7969 Q125.7438,215.4219 125.1344,215.2031 Q124.525,214.9844 123.9,214.9844 Q123.1344,214.9844 122.4938,215.3125 Q121.8688,215.6406 121.3688,216.3906 Q120.8844,217.1406 120.8844,218.1719 L120.8844,219.2656 Q120.8844,220.5 121.775,221.3281 Q122.6656,222.1406 124.2594,222.1406 Q125.1969,222.1406 125.8531,221.8906 Q126.2438,221.7344 126.6656,221.2969 Q126.9313,221.0313 127.0719,220.9531 Q127.2281,220.875 127.4313,220.875 Q127.7594,220.875 128.0094,221.1406 Q128.275,221.3906 128.275,221.7344 Q128.275,222.0781 127.9313,222.4844 Q127.4313,223.0625 126.6344,223.3906 Q125.5563,223.8438 124.2594,223.8438 Q122.7438,223.8438 121.5406,223.2188 Q120.5563,222.7188 119.8688,221.6563 Q119.1813,220.5781 119.1813,219.2969 L119.1813,218.1406 Q119.1813,216.8125 119.7906,215.6719 Q120.4156,214.5156 121.5094,213.9063 Q122.6031,213.2813 123.8375,213.2813 Q124.5719,213.2813 125.2125,213.4531 Q125.8688,213.6094 126.4156,213.9688 Z "/><text fill="#000000" font-family="sans-serif" font-size="14" lengthAdjust="spacingAndGlyphs" textLength="178" x="138.35" y="217.5332">WorkProductDescriptionImpl</text><text fill="#000000" font-family="sans-serif" font-size="10" lengthAdjust="spacingAndGlyphs" textLength="118" x="168.35" y="230.9902">org.eclipse.epf.uma.impl</text><line style="stroke: #A80036; stroke-width: 1.5;" x1="106.5" x2="321.5" y1="238.1875" y2="238.1875"/><ellipse cx="116.5" cy="249.1875" fill="#84BE84" rx="3" ry="3" style="stroke: #038048; stroke-width: 1.0;"/><text fill="#000000" font-family="sans-serif" font-size="11" lengthAdjust="spacingAndGlyphs" textLength="97" x="125.5" y="253.6064">getPurpose(): String</text><ellipse cx="116.5" cy="263.0234" fill="#84BE84" rx="3" ry="3" style="stroke: #038048; stroke-width: 1.0;"/><text fill="#000000" font-family="sans-serif" font-size="11" lengthAdjust="spacingAndGlyphs" textLength="117" x="125.5" y="267.4424">setPurpose(String): void</text><ellipse cx="116.5" cy="276.8594" fill="#84BE84" rx="3" ry="3" style="stroke: #038048; stroke-width: 1.0;"/><text fill="#000000" font-family="sans-serif" font-size="11" lengthAdjust="spacingAndGlyphs" textLength="149" x="125.5" y="281.2783">getImpactOfNotHaving(): String</text><ellipse cx="116.5" cy="290.6953" fill="#84BE84" rx="3" ry="3" style="stroke: #038048; stroke-width: 1.0;"/><text fill="#000000" font-family="sans-serif" font-size="11" lengthAdjust="spacingAndGlyphs" textLength="169" x="125.5" y="295.1143">setImpactOfNotHaving(String): void</text><ellipse cx="116.5" cy="304.5313" fill="#84BE84" rx="3" ry="3" style="stroke: #038048; stroke-width: 1.0;"/><text fill="#000000" font-family="sans-serif" font-size="11" lengthAdjust="spacingAndGlyphs" textLength="171" x="125.5" y="308.9502">getReasonsForNotNeeding(): String</text><ellipse cx="116.5" cy="318.3672" fill="#84BE84" rx="3" ry="3" style="stroke: #038048; stroke-width: 1.0;"/><text fill="#000000" font-family="sans-serif" font-size="11" lengthAdjust="spacingAndGlyphs" textLength="191" x="125.5" y="322.7861">setReasonsForNotNeeding(String): void</text><ellipse cx="116.5" cy="332.2031" fill="#84BE84" rx="3" ry="3" style="stroke: #038048; stroke-width: 1.0;"/><text fill="#000000" font-family="sans-serif" font-size="11" lengthAdjust="spacingAndGlyphs" textLength="167" x="125.5" y="336.6221">eGet(int, boolean, boolean): Object</text><ellipse cx="116.5" cy="346.0391" fill="#84BE84" rx="3" ry="3" style="stroke: #038048; stroke-width: 1.0;"/><text fill="#000000" font-family="sans-serif" font-size="11" lengthAdjust="spacingAndGlyphs" textLength="104" x="125.5" y="350.458">eSet(int, Object): void</text><ellipse cx="116.5" cy="359.875" fill="#84BE84" rx="3" ry="3" style="stroke: #038048; stroke-width: 1.0;"/><text fill="#000000" font-family="sans-serif" font-size="11" lengthAdjust="spacingAndGlyphs" textLength="79" x="125.5" y="364.2939">eUnset(int): void</text><ellipse cx="116.5" cy="373.7109" fill="#84BE84" rx="3" ry="3" style="stroke: #038048; stroke-width: 1.0;"/><text fill="#000000" font-family="sans-serif" font-size="11" lengthAdjust="spacingAndGlyphs" textLength="93" x="125.5" y="378.1299">eIsSet(int): boolean</text></a><!--MD5=[92b3159b33d4292b6938f7fac228d88c]
class org.eclipse.epf.uma.impl.ContentDescriptionImpl--><a href="ContentDescriptionImpl.html" target="_top" title="ContentDescriptionImpl.html" xlink:actuate="onRequest" xlink:href="ContentDescriptionImpl.html" xlink:show="new" xlink:title="ContentDescriptionImpl.html" xlink:type="simple"><rect codeLine="18" fill="#FEFECE" filter="url(#fx1v9ar1p9klc)" height="40.1875" id="org.eclipse.epf.uma.impl.ContentDescriptionImpl" style="stroke: #A80036; stroke-width: 1.5;" width="178" x="7" y="52.5"/><ellipse cx="22" cy="72.5938" fill="#ADD1B2" rx="11" ry="11" style="stroke: #A80036; stroke-width: 1.0;"/><path d="M24.7656,68.4688 Q24.9219,68.25 25.1094,68.1406 Q25.2969,68.0313 25.5156,68.0313 Q25.8906,68.0313 26.125,68.2969 Q26.3594,68.5469 26.3594,69.1563 L26.3594,70.6094 Q26.3594,71.2188 26.125,71.4844 Q25.8906,71.75 25.5156,71.75 Q25.1719,71.75 24.9688,71.5469 Q24.7656,71.3594 24.6563,70.8438 Q24.6094,70.4844 24.4219,70.2969 Q24.0938,69.9219 23.4844,69.7031 Q22.875,69.4844 22.25,69.4844 Q21.4844,69.4844 20.8438,69.8125 Q20.2188,70.1406 19.7188,70.8906 Q19.2344,71.6406 19.2344,72.6719 L19.2344,73.7656 Q19.2344,75 20.125,75.8281 Q21.0156,76.6406 22.6094,76.6406 Q23.5469,76.6406 24.2031,76.3906 Q24.5938,76.2344 25.0156,75.7969 Q25.2813,75.5313 25.4219,75.4531 Q25.5781,75.375 25.7813,75.375 Q26.1094,75.375 26.3594,75.6406 Q26.625,75.8906 26.625,76.2344 Q26.625,76.5781 26.2813,76.9844 Q25.7813,77.5625 24.9844,77.8906 Q23.9063,78.3438 22.6094,78.3438 Q21.0938,78.3438 19.8906,77.7188 Q18.9063,77.2188 18.2188,76.1563 Q17.5313,75.0781 17.5313,73.7969 L17.5313,72.6406 Q17.5313,71.3125 18.1406,70.1719 Q18.7656,69.0156 19.8594,68.4063 Q20.9531,67.7813 22.1875,67.7813 Q22.9219,67.7813 23.5625,67.9531 Q24.2188,68.1094 24.7656,68.4688 Z "/><text fill="#000000" font-family="sans-serif" font-size="14" lengthAdjust="spacingAndGlyphs" textLength="146" x="36" y="72.0332">ContentDescriptionImpl</text><text fill="#000000" font-family="sans-serif" font-size="10" lengthAdjust="spacingAndGlyphs" textLength="118" x="50" y="85.4902">org.eclipse.epf.uma.impl</text></a><!--MD5=[35ce8d4e8138c1db7930018eea7bfc8d]
class org.eclipse.epf.uma.WorkProductDescription--><a href="..\WorkProductDescription.html" target="_top" title="..\WorkProductDescription.html" xlink:actuate="onRequest" xlink:href="..\WorkProductDescription.html" xlink:show="new" xlink:title="..\WorkProductDescription.html" xlink:type="simple"><rect codeLine="19" fill="#FEFECE" filter="url(#fx1v9ar1p9klc)" height="131.2031" id="org.eclipse.epf.uma.WorkProductDescription" style="stroke: #A80036; stroke-width: 1.5;" width="223" x="220.5" y="7"/><ellipse cx="251.7" cy="27.0938" fill="#B4A7E5" rx="11" ry="11" style="stroke: #A80036; stroke-width: 1.0;"/><path d="M252.6531,23.7344 L252.6531,30.3906 L254.3719,30.3906 Q254.9813,30.3906 255.2469,30.625 Q255.5125,30.8594 255.5125,31.25 Q255.5125,31.625 255.2469,31.8594 Q254.9813,32.0938 254.3719,32.0938 L249.2313,32.0938 Q248.6219,32.0938 248.3563,31.8594 Q248.0906,31.625 248.0906,31.2344 Q248.0906,30.8594 248.3563,30.625 Q248.6219,30.3906 249.2313,30.3906 L250.95,30.3906 L250.95,23.7344 L249.2313,23.7344 Q248.6219,23.7344 248.3563,23.5 Q248.0906,23.2656 248.0906,22.875 Q248.0906,22.5 248.3563,22.2656 Q248.6219,22.0313 249.2313,22.0313 L254.3719,22.0313 Q254.9813,22.0313 255.2469,22.2656 Q255.5125,22.5 255.5125,22.875 Q255.5125,23.2656 255.2469,23.5 Q254.9813,23.7344 254.3719,23.7344 L252.6531,23.7344 Z "/><text fill="#000000" font-family="sans-serif" font-size="14" font-style="italic" lengthAdjust="spacingAndGlyphs" textLength="155" x="269.3" y="26.5332">WorkProductDescription</text><text fill="#000000" font-family="sans-serif" font-size="10" font-style="italic" lengthAdjust="spacingAndGlyphs" textLength="92" x="300.8" y="39.9902">org.eclipse.epf.uma</text><line style="stroke: #A80036; stroke-width: 1.5;" x1="221.5" x2="442.5" y1="47.1875" y2="47.1875"/><ellipse cx="231.5" cy="58.1875" fill="#84BE84" rx="3" ry="3" style="stroke: #038048; stroke-width: 1.0;"/><text fill="#000000" font-family="sans-serif" font-size="11" font-style="italic" lengthAdjust="spacingAndGlyphs" textLength="99" x="240.5" y="62.6064">getPurpose(): String</text><ellipse cx="231.5" cy="72.0234" fill="#84BE84" rx="3" ry="3" style="stroke: #038048; stroke-width: 1.0;"/><text fill="#000000" font-family="sans-serif" font-size="11" font-style="italic" lengthAdjust="spacingAndGlyphs" textLength="119" x="240.5" y="76.4424">setPurpose(String): void</text><ellipse cx="231.5" cy="85.8594" fill="#84BE84" rx="3" ry="3" style="stroke: #038048; stroke-width: 1.0;"/><text fill="#000000" font-family="sans-serif" font-size="11" font-style="italic" lengthAdjust="spacingAndGlyphs" textLength="154" x="240.5" y="90.2783">getImpactOfNotHaving(): String</text><ellipse cx="231.5" cy="99.6953" fill="#84BE84" rx="3" ry="3" style="stroke: #038048; stroke-width: 1.0;"/><text fill="#000000" font-family="sans-serif" font-size="11" font-style="italic" lengthAdjust="spacingAndGlyphs" textLength="174" x="240.5" y="104.1143">setImpactOfNotHaving(String): void</text><ellipse cx="231.5" cy="113.5313" fill="#84BE84" rx="3" ry="3" style="stroke: #038048; stroke-width: 1.0;"/><text fill="#000000" font-family="sans-serif" font-size="11" font-style="italic" lengthAdjust="spacingAndGlyphs" textLength="177" x="240.5" y="117.9502">getReasonsForNotNeeding(): String</text><ellipse cx="231.5" cy="127.3672" fill="#84BE84" rx="3" ry="3" style="stroke: #038048; stroke-width: 1.0;"/><text fill="#000000" font-family="sans-serif" font-size="11" font-style="italic" lengthAdjust="spacingAndGlyphs" textLength="197" x="240.5" y="131.7861">setReasonsForNotNeeding(String): void</text></a><!--MD5=[bb6d0cb5c16e88720bd4463fad8e6fa3]
reverse link org.eclipse.epf.uma.impl.ContentDescriptionImpl to org.eclipse.epf.uma.impl.WorkProductDescriptionImpl--><path codeLine="28" d="M116.06,110.39 C129.15,134.45 146.85,167 163.6,197.82 " fill="none" id="org.eclipse.epf.uma.impl.ContentDescriptionImpl-backto-org.eclipse.epf.uma.impl.WorkProductDescriptionImpl" style="stroke: #A80036; stroke-width: 1.0;"/><polygon fill="none" points="109.88,113.67,106.47,92.76,122.18,106.98,109.88,113.67" style="stroke: #A80036; stroke-width: 1.0;"/><!--MD5=[a01c4bd3c32a66e135a87cb3b7252f3b]
reverse link org.eclipse.epf.uma.WorkProductDescription to org.eclipse.epf.uma.impl.WorkProductDescriptionImpl--><path codeLine="29" d="M287.33,155.66 C279.85,169.39 272.06,183.73 264.45,197.72 " fill="none" id="org.eclipse.epf.uma.WorkProductDescription-backto-org.eclipse.epf.uma.impl.WorkProductDescriptionImpl" style="stroke: #A80036; stroke-width: 1.0; stroke-dasharray: 7.0,7.0;"/><polygon fill="none" points="281.21,152.25,296.92,138.02,293.51,158.93,281.21,152.25" style="stroke: #A80036; stroke-width: 1.0;"/><text fill="#888888" font-family="sans-serif" font-size="10" lengthAdjust="spacingAndGlyphs" textLength="190" x="127.25" y="407.9277">UMLDoclet 2.0.12, PlantUML 1.2020.16</text><!--MD5=[90584be273e3d3f2f99cad11e21c222f]
@startuml
    set namespaceSeparator none
    hide empty fields
    hide empty methods

    class "<size:14>WorkProductDescriptionImpl\n<size:10>org.eclipse.epf.uma.impl" as org.eclipse.epf.uma.impl.WorkProductDescriptionImpl [[WorkProductDescriptionImpl.html]] {
        +getPurpose(): String
        +setPurpose(String): void
        +getImpactOfNotHaving(): String
        +setImpactOfNotHaving(String): void
        +getReasonsForNotNeeding(): String
        +setReasonsForNotNeeding(String): void
        +eGet(int, boolean, boolean): Object
        +eSet(int, Object): void
        +eUnset(int): void
        +eIsSet(int): boolean
    }

    class "<size:14>ContentDescriptionImpl\n<size:10>org.eclipse.epf.uma.impl" as org.eclipse.epf.uma.impl.ContentDescriptionImpl [[ContentDescriptionImpl.html]]
    interface "<size:14>WorkProductDescription\n<size:10>org.eclipse.epf.uma" as org.eclipse.epf.uma.WorkProductDescription [[..\WorkProductDescription.html]] {
        {abstract} +getPurpose(): String
        {abstract} +setPurpose(String): void
        {abstract} +getImpactOfNotHaving(): String
        {abstract} +setImpactOfNotHaving(String): void
        {abstract} +getReasonsForNotNeeding(): String
        {abstract} +setReasonsForNotNeeding(String): void
    }

    org.eclipse.epf.uma.impl.ContentDescriptionImpl <|- - org.eclipse.epf.uma.impl.WorkProductDescriptionImpl
    org.eclipse.epf.uma.WorkProductDescription <|.. org.eclipse.epf.uma.impl.WorkProductDescriptionImpl

    center footer UMLDoclet 2.0.12, PlantUML 1.2020.16
@enduml

PlantUML version 1.2020.16(Sun Aug 23 22:20:43 CEST 2020)
(APACHE source distribution)
Java Runtime: Java(TM) SE Runtime Environment
JVM: Java HotSpot(TM) 64-Bit Server VM
Default Encoding: Cp1252
Language: es
Country: ES
--></g></svg>