<?xml version="1.0" encoding="UTF-8" standalone="no"?><svg xmlns="http://www.w3.org/2000/svg" xmlns:xlink="http://www.w3.org/1999/xlink" contentScriptType="application/ecmascript" contentStyleType="text/css" height="243px" preserveAspectRatio="none" style="width:321px;height:243px;" version="1.1" viewBox="0 0 321 243" width="321px" zoomAndPan="magnify"><defs><filter height="300%" id="f3tkggyf0o7ya" width="300%" x="-1" y="-1"><feGaussianBlur result="blurOut" stdDeviation="2.0"/><feColorMatrix in="blurOut" result="blurOut2" type="matrix" values="0 0 0 0 0 0 0 0 0 0 0 0 0 0 0 0 0 0 .4 0"/><feOffset dx="4.0" dy="4.0" in="blurOut2" result="blurOut3"/><feBlend in="SourceGraphic" in2="blurOut3" mode="normal"/></filter></defs><g><!--MD5=[9bc225eb5a7d94347c53ae3915a8717a]
cluster org.eclipse.xtext.uma.ui.contentassist--><polygon fill="#FFFFFF" filter="url(#f3tkggyf0o7ya)" points="16,6,289,6,296,29.6094,299,29.6094,299,214,16,214,16,6" style="stroke: #000000; stroke-width: 1.5;"/><line style="stroke: #000000; stroke-width: 1.5;" x1="16" x2="296" y1="29.6094" y2="29.6094"/><text fill="#000000" font-family="sans-serif" font-size="14" font-weight="bold" lengthAdjust="spacingAndGlyphs" textLength="267" x="20" y="22.5332">org.eclipse.xtext.uma.ui.contentassist</text><!--MD5=[80ae5908996738059f0033d2c469869c]
class org.eclipse.xtext.uma.ui.contentassist.UmalProposalProvider--><a href="UmalProposalProvider.html" target="_top" title="UmalProposalProvider.html" xlink:actuate="onRequest" xlink:href="UmalProposalProvider.html" xlink:show="new" xlink:title="UmalProposalProvider.html" xlink:type="simple"><rect codeLine="3" fill="#FEFECE" filter="url(#f3tkggyf0o7ya)" height="48" id="org.eclipse.xtext.uma.ui.contentassist.UmalProposalProvider" style="stroke: #A80036; stroke-width: 1.5;" width="157" x="78.5" y="150"/><ellipse cx="93.5" cy="166" fill="#ADD1B2" rx="11" ry="11" style="stroke: #A80036; stroke-width: 1.0;"/><path d="M96.2656,161.875 Q96.4219,161.6563 96.6094,161.5469 Q96.7969,161.4375 97.0156,161.4375 Q97.3906,161.4375 97.625,161.7031 Q97.8594,161.9531 97.8594,162.5625 L97.8594,164.0156 Q97.8594,164.625 97.625,164.8906 Q97.3906,165.1563 97.0156,165.1563 Q96.6719,165.1563 96.4688,164.9531 Q96.2656,164.7656 96.1563,164.25 Q96.1094,163.8906 95.9219,163.7031 Q95.5938,163.3281 94.9844,163.1094 Q94.375,162.8906 93.75,162.8906 Q92.9844,162.8906 92.3438,163.2188 Q91.7188,163.5469 91.2188,164.2969 Q90.7344,165.0469 90.7344,166.0781 L90.7344,167.1719 Q90.7344,168.4063 91.625,169.2344 Q92.5156,170.0469 94.1094,170.0469 Q95.0469,170.0469 95.7031,169.7969 Q96.0938,169.6406 96.5156,169.2031 Q96.7813,168.9375 96.9219,168.8594 Q97.0781,168.7813 97.2813,168.7813 Q97.6094,168.7813 97.8594,169.0469 Q98.125,169.2969 98.125,169.6406 Q98.125,169.9844 97.7813,170.3906 Q97.2813,170.9688 96.4844,171.2969 Q95.4063,171.75 94.1094,171.75 Q92.5938,171.75 91.3906,171.125 Q90.4063,170.625 89.7188,169.5625 Q89.0313,168.4844 89.0313,167.2031 L89.0313,166.0469 Q89.0313,164.7188 89.6406,163.5781 Q90.2656,162.4219 91.3594,161.8125 Q92.4531,161.1875 93.6875,161.1875 Q94.4219,161.1875 95.0625,161.3594 Q95.7188,161.5156 96.2656,161.875 Z "/><text fill="#000000" font-family="sans-serif" font-size="12" lengthAdjust="spacingAndGlyphs" textLength="125" x="107.5" y="170.9102">UmalProposalProvider</text><line style="stroke: #A80036; stroke-width: 1.5;" x1="79.5" x2="234.5" y1="182" y2="182"/><line style="stroke: #A80036; stroke-width: 1.5;" x1="79.5" x2="234.5" y1="190" y2="190"/></a><!--MD5=[ef2d61cf708890348c919e09bf817fc2]
class org.eclipse.xtext.uma.ui.contentassist.AbstractUmalProposalProvider--><rect fill="#FEFECE" filter="url(#f3tkggyf0o7ya)" height="48" id="org.eclipse.xtext.uma.ui.contentassist.AbstractUmalProposalProvider" style="stroke: #A80036; stroke-width: 1.5;" width="201" x="56.5" y="42"/><ellipse cx="71.5" cy="58" fill="#ADD1B2" rx="11" ry="11" style="stroke: #A80036; stroke-width: 1.0;"/><path d="M74.2656,53.875 Q74.4219,53.6563 74.6094,53.5469 Q74.7969,53.4375 75.0156,53.4375 Q75.3906,53.4375 75.625,53.7031 Q75.8594,53.9531 75.8594,54.5625 L75.8594,56.0156 Q75.8594,56.625 75.625,56.8906 Q75.3906,57.1563 75.0156,57.1563 Q74.6719,57.1563 74.4688,56.9531 Q74.2656,56.7656 74.1563,56.25 Q74.1094,55.8906 73.9219,55.7031 Q73.5938,55.3281 72.9844,55.1094 Q72.375,54.8906 71.75,54.8906 Q70.9844,54.8906 70.3438,55.2188 Q69.7188,55.5469 69.2188,56.2969 Q68.7344,57.0469 68.7344,58.0781 L68.7344,59.1719 Q68.7344,60.4063 69.625,61.2344 Q70.5156,62.0469 72.1094,62.0469 Q73.0469,62.0469 73.7031,61.7969 Q74.0938,61.6406 74.5156,61.2031 Q74.7813,60.9375 74.9219,60.8594 Q75.0781,60.7813 75.2813,60.7813 Q75.6094,60.7813 75.8594,61.0469 Q76.125,61.2969 76.125,61.6406 Q76.125,61.9844 75.7813,62.3906 Q75.2813,62.9688 74.4844,63.2969 Q73.4063,63.75 72.1094,63.75 Q70.5938,63.75 69.3906,63.125 Q68.4063,62.625 67.7188,61.5625 Q67.0313,60.4844 67.0313,59.2031 L67.0313,58.0469 Q67.0313,56.7188 67.6406,55.5781 Q68.2656,54.4219 69.3594,53.8125 Q70.4531,53.1875 71.6875,53.1875 Q72.4219,53.1875 73.0625,53.3594 Q73.7188,53.5156 74.2656,53.875 Z "/><text fill="#000000" font-family="sans-serif" font-size="12" lengthAdjust="spacingAndGlyphs" textLength="169" x="85.5" y="62.9102">AbstractUmalProposalProvider</text><line style="stroke: #A80036; stroke-width: 1.5;" x1="57.5" x2="256.5" y1="74" y2="74"/><line style="stroke: #A80036; stroke-width: 1.5;" x1="57.5" x2="256.5" y1="82" y2="82"/><!--MD5=[a85adf6fadfbca6ed67ca6f18d183a85]
reverse link org.eclipse.xtext.uma.ui.contentassist.AbstractUmalProposalProvider to org.eclipse.xtext.uma.ui.contentassist.UmalProposalProvider--><path codeLine="5" d="M157,110.02 C157,123.58 157,138.04 157,149.68 " fill="none" id="org.eclipse.xtext.uma.ui.contentassist.AbstractUmalProposalProvider-backto-org.eclipse.xtext.uma.ui.contentassist.UmalProposalProvider" style="stroke: #A80036; stroke-width: 1.0;"/><polygon fill="none" points="150,110,157,90,164,110,150,110" style="stroke: #A80036; stroke-width: 1.0;"/><text fill="#888888" font-family="sans-serif" font-size="10" lengthAdjust="spacingAndGlyphs" textLength="190" x="56.5" y="230.3809">UMLDoclet 2.0.12, PlantUML 1.2020.16</text><!--MD5=[00707b9b1b3deac6f119e9fc93de845b]
@startuml
    namespace org.eclipse.xtext.uma.ui.contentassist {

        class UmalProposalProvider [[UmalProposalProvider.html]]

        AbstractUmalProposalProvider <|- - UmalProposalProvider
    }

    center footer UMLDoclet 2.0.12, PlantUML 1.2020.16
@enduml

PlantUML version 1.2020.16(Sun Aug 23 22:20:43 CEST 2020)
(APACHE source distribution)
Java Runtime: Java(TM) SE Runtime Environment
JVM: Java HotSpot(TM) 64-Bit Server VM
Default Encoding: Cp1252
Language: es
Country: ES
--></g></svg>