<?xml version="1.0" encoding="UTF-8" standalone="no"?><svg xmlns="http://www.w3.org/2000/svg" xmlns:xlink="http://www.w3.org/1999/xlink" contentScriptType="application/ecmascript" contentStyleType="text/css" height="184px" preserveAspectRatio="none" style="width:250px;height:184px;" version="1.1" viewBox="0 0 250 184" width="250px" zoomAndPan="magnify"><defs><filter height="300%" id="f42dydbbrdumq" width="300%" x="-1" y="-1"><feGaussianBlur result="blurOut" stdDeviation="2.0"/><feColorMatrix in="blurOut" result="blurOut2" type="matrix" values="0 0 0 0 0 0 0 0 0 0 0 0 0 0 0 0 0 0 .4 0"/><feOffset dx="4.0" dy="4.0" in="blurOut2" result="blurOut3"/><feBlend in="SourceGraphic" in2="blurOut3" mode="normal"/></filter></defs><g><!--MD5=[80ae5908996738059f0033d2c469869c]
class org.eclipse.xtext.uma.ui.contentassist.UmalProposalProvider--><a href="UmalProposalProvider.html" target="_top" title="UmalProposalProvider.html" xlink:actuate="onRequest" xlink:href="UmalProposalProvider.html" xlink:show="new" xlink:title="UmalProposalProvider.html" xlink:type="simple"><rect codeLine="5" fill="#FEFECE" filter="url(#f42dydbbrdumq)" height="40.1875" id="org.eclipse.xtext.uma.ui.contentassist.UmalProposalProvider" style="stroke: #A80036; stroke-width: 1.5;" width="208" x="15" y="107"/><ellipse cx="30" cy="127.0938" fill="#ADD1B2" rx="11" ry="11" style="stroke: #A80036; stroke-width: 1.0;"/><path d="M32.7656,122.9688 Q32.9219,122.75 33.1094,122.6406 Q33.2969,122.5313 33.5156,122.5313 Q33.8906,122.5313 34.125,122.7969 Q34.3594,123.0469 34.3594,123.6563 L34.3594,125.1094 Q34.3594,125.7188 34.125,125.9844 Q33.8906,126.25 33.5156,126.25 Q33.1719,126.25 32.9688,126.0469 Q32.7656,125.8594 32.6563,125.3438 Q32.6094,124.9844 32.4219,124.7969 Q32.0938,124.4219 31.4844,124.2031 Q30.875,123.9844 30.25,123.9844 Q29.4844,123.9844 28.8438,124.3125 Q28.2188,124.6406 27.7188,125.3906 Q27.2344,126.1406 27.2344,127.1719 L27.2344,128.2656 Q27.2344,129.5 28.125,130.3281 Q29.0156,131.1406 30.6094,131.1406 Q31.5469,131.1406 32.2031,130.8906 Q32.5938,130.7344 33.0156,130.2969 Q33.2813,130.0313 33.4219,129.9531 Q33.5781,129.875 33.7813,129.875 Q34.1094,129.875 34.3594,130.1406 Q34.625,130.3906 34.625,130.7344 Q34.625,131.0781 34.2813,131.4844 Q33.7813,132.0625 32.9844,132.3906 Q31.9063,132.8438 30.6094,132.8438 Q29.0938,132.8438 27.8906,132.2188 Q26.9063,131.7188 26.2188,130.6563 Q25.5313,129.5781 25.5313,128.2969 L25.5313,127.1406 Q25.5313,125.8125 26.1406,124.6719 Q26.7656,123.5156 27.8594,122.9063 Q28.9531,122.2813 30.1875,122.2813 Q30.9219,122.2813 31.5625,122.4531 Q32.2188,122.6094 32.7656,122.9688 Z "/><text fill="#000000" font-family="sans-serif" font-size="14" lengthAdjust="spacingAndGlyphs" textLength="140" x="62" y="126.5332">UmalProposalProvider</text><text fill="#000000" font-family="sans-serif" font-size="10" lengthAdjust="spacingAndGlyphs" textLength="176" x="44" y="139.9902">org.eclipse.xtext.uma.ui.contentassist</text></a><!--MD5=[ef2d61cf708890348c919e09bf817fc2]
class org.eclipse.xtext.uma.ui.contentassist.AbstractUmalProposalProvider--><rect codeLine="7" fill="#FEFECE" filter="url(#f42dydbbrdumq)" height="40.1875" id="org.eclipse.xtext.uma.ui.contentassist.AbstractUmalProposalProvider" style="stroke: #A80036; stroke-width: 1.5;" width="224" x="7" y="7"/><ellipse cx="22" cy="27.0938" fill="#A9DCDF" rx="11" ry="11" style="stroke: #A80036; stroke-width: 1.0;"/><path d="M24.1875,28.8594 L20.0469,28.8594 L19.625,29.8906 L20.0469,29.8906 Q20.6563,29.8906 20.9219,30.125 Q21.1875,30.3594 21.1875,30.75 Q21.1875,31.125 20.9219,31.3594 Q20.6563,31.5938 20.0469,31.5938 L17.75,31.5938 Q17.1406,31.5938 16.8906,31.3594 Q16.625,31.125 16.625,30.7344 Q16.625,30.3594 16.9063,30.125 Q17.1719,29.875 17.7969,29.8906 L20.4688,23.2344 L19.3594,23.2344 Q18.75,23.2344 18.4844,23 Q18.2188,22.7656 18.2188,22.375 Q18.2188,22 18.4844,21.7656 Q18.75,21.5313 19.3594,21.5313 L23.0313,21.5313 L26.4219,29.8906 Q27.0156,29.8906 27.2031,30.0313 Q27.5938,30.2969 27.5938,30.75 Q27.5938,31.125 27.3281,31.3594 Q27.0781,31.5938 26.4688,31.5938 L24.1719,31.5938 Q23.5625,31.5938 23.2969,31.3594 Q23.0313,31.125 23.0313,30.7344 Q23.0313,30.3594 23.2969,30.125 Q23.5625,29.8906 24.1719,29.8906 L24.5938,29.8906 L24.1875,28.8594 Z M23.4688,27.1563 L22.1094,23.7813 L20.7344,27.1563 L23.4688,27.1563 Z "/><text fill="#000000" font-family="sans-serif" font-size="14" font-style="italic" lengthAdjust="spacingAndGlyphs" textLength="192" x="36" y="26.5332">AbstractUmalProposalProvider</text><text fill="#000000" font-family="sans-serif" font-size="10" font-style="italic" lengthAdjust="spacingAndGlyphs" textLength="176" x="44" y="39.9902">org.eclipse.xtext.uma.ui.contentassist</text><!--MD5=[a85adf6fadfbca6ed67ca6f18d183a85]
reverse link org.eclipse.xtext.uma.ui.contentassist.AbstractUmalProposalProvider to org.eclipse.xtext.uma.ui.contentassist.UmalProposalProvider--><path codeLine="9" d="M119,67.69 C119,81.13 119,95.55 119,106.68 " fill="none" id="org.eclipse.xtext.uma.ui.contentassist.AbstractUmalProposalProvider-backto-org.eclipse.xtext.uma.ui.contentassist.UmalProposalProvider" style="stroke: #A80036; stroke-width: 1.0;"/><polygon fill="none" points="112,67.36,119,47.36,126,67.36,112,67.36" style="stroke: #A80036; stroke-width: 1.0;"/><text fill="#888888" font-family="sans-serif" font-size="10" lengthAdjust="spacingAndGlyphs" textLength="190" x="21" y="170.5684">UMLDoclet 2.0.12, PlantUML 1.2020.16</text><!--MD5=[8ae8193301f9692589b65eea555bc802]
@startuml
    set namespaceSeparator none
    hide empty fields
    hide empty methods

    class "<size:14>UmalProposalProvider\n<size:10>org.eclipse.xtext.uma.ui.contentassist" as org.eclipse.xtext.uma.ui.contentassist.UmalProposalProvider [[UmalProposalProvider.html]]

    abstract class "<size:14>AbstractUmalProposalProvider\n<size:10>org.eclipse.xtext.uma.ui.contentassist" as org.eclipse.xtext.uma.ui.contentassist.AbstractUmalProposalProvider

    org.eclipse.xtext.uma.ui.contentassist.AbstractUmalProposalProvider <|- - org.eclipse.xtext.uma.ui.contentassist.UmalProposalProvider

    center footer UMLDoclet 2.0.12, PlantUML 1.2020.16
@enduml

PlantUML version 1.2020.16(Sun Aug 23 22:20:43 CEST 2020)
(APACHE source distribution)
Java Runtime: Java(TM) SE Runtime Environment
JVM: Java HotSpot(TM) 64-Bit Server VM
Default Encoding: Cp1252
Language: es
Country: ES
--></g></svg>