<?xml version="1.0" encoding="UTF-8" standalone="no"?><svg xmlns="http://www.w3.org/2000/svg" xmlns:xlink="http://www.w3.org/1999/xlink" contentScriptType="application/ecmascript" contentStyleType="text/css" height="283px" preserveAspectRatio="none" style="width:582px;height:283px;" version="1.1" viewBox="0 0 582 283" width="582px" zoomAndPan="magnify"><defs><filter height="300%" id="f1hdzfbcyeh5me" width="300%" x="-1" y="-1"><feGaussianBlur result="blurOut" stdDeviation="2.0"/><feColorMatrix in="blurOut" result="blurOut2" type="matrix" values="0 0 0 0 0 0 0 0 0 0 0 0 0 0 0 0 0 0 .4 0"/><feOffset dx="4.0" dy="4.0" in="blurOut2" result="blurOut3"/><feBlend in="SourceGraphic" in2="blurOut3" mode="normal"/></filter></defs><g><!--MD5=[046bb89cef173aa9f5f59d8968b259cc]
class org.eclipse.epf.uma.presentation.UmaActionBarContributor--><a href="UmaActionBarContributor.html" target="_top" title="UmaActionBarContributor.html" xlink:actuate="onRequest" xlink:href="UmaActionBarContributor.html" xlink:show="new" xlink:title="UmaActionBarContributor.html" xlink:type="simple"><rect codeLine="5" fill="#FEFECE" filter="url(#f1hdzfbcyeh5me)" height="117.3672" id="org.eclipse.epf.uma.presentation.UmaActionBarContributor" style="stroke: #A80036; stroke-width: 1.5;" width="260" x="152.5" y="129"/><ellipse cx="198.25" cy="149.0938" fill="#ADD1B2" rx="11" ry="11" style="stroke: #A80036; stroke-width: 1.0;"/><path d="M201.0156,144.9688 Q201.1719,144.75 201.3594,144.6406 Q201.5469,144.5313 201.7656,144.5313 Q202.1406,144.5313 202.375,144.7969 Q202.6094,145.0469 202.6094,145.6563 L202.6094,147.1094 Q202.6094,147.7188 202.375,147.9844 Q202.1406,148.25 201.7656,148.25 Q201.4219,148.25 201.2188,148.0469 Q201.0156,147.8594 200.9063,147.3438 Q200.8594,146.9844 200.6719,146.7969 Q200.3438,146.4219 199.7344,146.2031 Q199.125,145.9844 198.5,145.9844 Q197.7344,145.9844 197.0938,146.3125 Q196.4688,146.6406 195.9688,147.3906 Q195.4844,148.1406 195.4844,149.1719 L195.4844,150.2656 Q195.4844,151.5 196.375,152.3281 Q197.2656,153.1406 198.8594,153.1406 Q199.7969,153.1406 200.4531,152.8906 Q200.8438,152.7344 201.2656,152.2969 Q201.5313,152.0313 201.6719,151.9531 Q201.8281,151.875 202.0313,151.875 Q202.3594,151.875 202.6094,152.1406 Q202.875,152.3906 202.875,152.7344 Q202.875,153.0781 202.5313,153.4844 Q202.0313,154.0625 201.2344,154.3906 Q200.1563,154.8438 198.8594,154.8438 Q197.3438,154.8438 196.1406,154.2188 Q195.1563,153.7188 194.4688,152.6563 Q193.7813,151.5781 193.7813,150.2969 L193.7813,149.1406 Q193.7813,147.8125 194.3906,146.6719 Q195.0156,145.5156 196.1094,144.9063 Q197.2031,144.2813 198.4375,144.2813 Q199.1719,144.2813 199.8125,144.4531 Q200.4688,144.6094 201.0156,144.9688 Z "/><text fill="#000000" font-family="sans-serif" font-size="14" lengthAdjust="spacingAndGlyphs" textLength="160" x="218.75" y="148.5332">UmaActionBarContributor</text><text fill="#000000" font-family="sans-serif" font-size="10" lengthAdjust="spacingAndGlyphs" textLength="155" x="221.25" y="161.9902">org.eclipse.epf.uma.presentation</text><line style="stroke: #A80036; stroke-width: 1.5;" x1="153.5" x2="411.5" y1="169.1875" y2="169.1875"/><ellipse cx="163.5" cy="180.1875" fill="#84BE84" rx="3" ry="3" style="stroke: #038048; stroke-width: 1.0;"/><text fill="#000000" font-family="sans-serif" font-size="11" lengthAdjust="spacingAndGlyphs" textLength="212" x="172.5" y="184.6064">contributeToToolBar(IToolBarManager): void</text><ellipse cx="163.5" cy="194.0234" fill="#84BE84" rx="3" ry="3" style="stroke: #038048; stroke-width: 1.0;"/><text fill="#000000" font-family="sans-serif" font-size="11" lengthAdjust="spacingAndGlyphs" textLength="190" x="172.5" y="198.4424">contributeToMenu(IMenuManager): void</text><ellipse cx="163.5" cy="207.8594" fill="#84BE84" rx="3" ry="3" style="stroke: #038048; stroke-width: 1.0;"/><text fill="#000000" font-family="sans-serif" font-size="11" lengthAdjust="spacingAndGlyphs" textLength="155" x="172.5" y="212.2783">setActiveEditor(IEditorPart): void</text><ellipse cx="163.5" cy="221.6953" fill="#84BE84" rx="3" ry="3" style="stroke: #038048; stroke-width: 1.0;"/><text fill="#000000" font-family="sans-serif" font-size="11" lengthAdjust="spacingAndGlyphs" textLength="234" x="172.5" y="226.1143">selectionChanged(SelectionChangedEvent): void</text><ellipse cx="163.5" cy="235.5313" fill="#84BE84" rx="3" ry="3" style="stroke: #038048; stroke-width: 1.0;"/><text fill="#000000" font-family="sans-serif" font-size="11" lengthAdjust="spacingAndGlyphs" textLength="200" x="172.5" y="239.9502">menuAboutToShow(IMenuManager): void</text></a><!--MD5=[11309f5886bbe889d6757eb53fedc4c7]
class org.eclipse.emf.edit.ui.action.EditingDomainActionBarContributor--><rect codeLine="13" fill="#FEFECE" filter="url(#f1hdzfbcyeh5me)" height="40.1875" id="org.eclipse.emf.edit.ui.action.EditingDomainActionBarContributor" style="stroke: #A80036; stroke-width: 1.5;" width="255" x="7" y="18"/><ellipse cx="22" cy="38.0938" fill="#ADD1B2" rx="11" ry="11" style="stroke: #A80036; stroke-width: 1.0;"/><path d="M24.7656,33.9688 Q24.9219,33.75 25.1094,33.6406 Q25.2969,33.5313 25.5156,33.5313 Q25.8906,33.5313 26.125,33.7969 Q26.3594,34.0469 26.3594,34.6563 L26.3594,36.1094 Q26.3594,36.7188 26.125,36.9844 Q25.8906,37.25 25.5156,37.25 Q25.1719,37.25 24.9688,37.0469 Q24.7656,36.8594 24.6563,36.3438 Q24.6094,35.9844 24.4219,35.7969 Q24.0938,35.4219 23.4844,35.2031 Q22.875,34.9844 22.25,34.9844 Q21.4844,34.9844 20.8438,35.3125 Q20.2188,35.6406 19.7188,36.3906 Q19.2344,37.1406 19.2344,38.1719 L19.2344,39.2656 Q19.2344,40.5 20.125,41.3281 Q21.0156,42.1406 22.6094,42.1406 Q23.5469,42.1406 24.2031,41.8906 Q24.5938,41.7344 25.0156,41.2969 Q25.2813,41.0313 25.4219,40.9531 Q25.5781,40.875 25.7813,40.875 Q26.1094,40.875 26.3594,41.1406 Q26.625,41.3906 26.625,41.7344 Q26.625,42.0781 26.2813,42.4844 Q25.7813,43.0625 24.9844,43.3906 Q23.9063,43.8438 22.6094,43.8438 Q21.0938,43.8438 19.8906,43.2188 Q18.9063,42.7188 18.2188,41.6563 Q17.5313,40.5781 17.5313,39.2969 L17.5313,38.1406 Q17.5313,36.8125 18.1406,35.6719 Q18.7656,34.5156 19.8594,33.9063 Q20.9531,33.2813 22.1875,33.2813 Q22.9219,33.2813 23.5625,33.4531 Q24.2188,33.6094 24.7656,33.9688 Z "/><text fill="#000000" font-family="sans-serif" font-size="14" lengthAdjust="spacingAndGlyphs" textLength="223" x="36" y="37.5332">EditingDomainActionBarContributor</text><text fill="#000000" font-family="sans-serif" font-size="10" lengthAdjust="spacingAndGlyphs" textLength="139" x="78" y="50.9902">org.eclipse.emf.edit.ui.action</text><!--MD5=[4dfdd3a56a9a74530e8b0ceed51e865e]
class org.eclipse.jface.viewers.ISelectionChangedListener--><rect codeLine="14" fill="#FEFECE" filter="url(#f1hdzfbcyeh5me)" height="62.0234" id="org.eclipse.jface.viewers.ISelectionChangedListener" style="stroke: #A80036; stroke-width: 1.5;" width="266" x="297.5" y="7"/><ellipse cx="340.85" cy="27.0938" fill="#B4A7E5" rx="11" ry="11" style="stroke: #A80036; stroke-width: 1.0;"/><path d="M341.8031,23.7344 L341.8031,30.3906 L343.5219,30.3906 Q344.1313,30.3906 344.3969,30.625 Q344.6625,30.8594 344.6625,31.25 Q344.6625,31.625 344.3969,31.8594 Q344.1313,32.0938 343.5219,32.0938 L338.3813,32.0938 Q337.7719,32.0938 337.5063,31.8594 Q337.2406,31.625 337.2406,31.2344 Q337.2406,30.8594 337.5063,30.625 Q337.7719,30.3906 338.3813,30.3906 L340.1,30.3906 L340.1,23.7344 L338.3813,23.7344 Q337.7719,23.7344 337.5063,23.5 Q337.2406,23.2656 337.2406,22.875 Q337.2406,22.5 337.5063,22.2656 Q337.7719,22.0313 338.3813,22.0313 L343.5219,22.0313 Q344.1313,22.0313 344.3969,22.2656 Q344.6625,22.5 344.6625,22.875 Q344.6625,23.2656 344.3969,23.5 Q344.1313,23.7344 343.5219,23.7344 L341.8031,23.7344 Z "/><text fill="#000000" font-family="sans-serif" font-size="14" font-style="italic" lengthAdjust="spacingAndGlyphs" textLength="171" x="361.15" y="26.5332">ISelectionChangedListener</text><text fill="#000000" font-family="sans-serif" font-size="10" font-style="italic" lengthAdjust="spacingAndGlyphs" textLength="116" x="388.65" y="39.9902">org.eclipse.jface.viewers</text><line style="stroke: #A80036; stroke-width: 1.5;" x1="298.5" x2="562.5" y1="47.1875" y2="47.1875"/><ellipse cx="308.5" cy="58.1875" fill="#84BE84" rx="3" ry="3" style="stroke: #038048; stroke-width: 1.0;"/><text fill="#000000" font-family="sans-serif" font-size="11" font-style="italic" lengthAdjust="spacingAndGlyphs" textLength="240" x="317.5" y="62.6064">selectionChanged(SelectionChangedEvent): void</text><!--MD5=[698994816d27c821d0cd1b45bd875ac9]
reverse link org.eclipse.emf.edit.ui.action.EditingDomainActionBarContributor to org.eclipse.epf.uma.presentation.UmaActionBarContributor--><path codeLine="18" d="M168.16,72.55 C184.81,89.14 205.39,109.65 224.48,128.68 " fill="none" id="org.eclipse.emf.edit.ui.action.EditingDomainActionBarContributor-backto-org.eclipse.epf.uma.presentation.UmaActionBarContributor" style="stroke: #A80036; stroke-width: 1.0;"/><polygon fill="none" points="163.07,77.36,153.85,58.28,172.96,67.44,163.07,77.36" style="stroke: #A80036; stroke-width: 1.0;"/><!--MD5=[aad651296103196740588d4ba7eb060a]
reverse link org.eclipse.jface.viewers.ISelectionChangedListener to org.eclipse.epf.uma.presentation.UmaActionBarContributor--><path codeLine="19" d="M385.98,83.37 C371.62,97.69 355.48,113.77 340.3,128.9 " fill="none" id="org.eclipse.jface.viewers.ISelectionChangedListener-backto-org.eclipse.epf.uma.presentation.UmaActionBarContributor" style="stroke: #A80036; stroke-width: 1.0; stroke-dasharray: 7.0,7.0;"/><polygon fill="none" points="381.09,78.36,400.19,69.2,390.97,88.28,381.09,78.36" style="stroke: #A80036; stroke-width: 1.0;"/><text fill="#888888" font-family="sans-serif" font-size="10" lengthAdjust="spacingAndGlyphs" textLength="190" x="187.25" y="269.748">UMLDoclet 2.0.12, PlantUML 1.2020.16</text><!--MD5=[3f2fa205f562cde8ad630d3d4c817665]
@startuml
    set namespaceSeparator none
    hide empty fields
    hide empty methods

    class "<size:14>UmaActionBarContributor\n<size:10>org.eclipse.epf.uma.presentation" as org.eclipse.epf.uma.presentation.UmaActionBarContributor [[UmaActionBarContributor.html]] {
        +contributeToToolBar(IToolBarManager): void
        +contributeToMenu(IMenuManager): void
        +setActiveEditor(IEditorPart): void
        +selectionChanged(SelectionChangedEvent): void
        +menuAboutToShow(IMenuManager): void
    }

    class "<size:14>EditingDomainActionBarContributor\n<size:10>org.eclipse.emf.edit.ui.action" as org.eclipse.emf.edit.ui.action.EditingDomainActionBarContributor
    interface "<size:14>ISelectionChangedListener\n<size:10>org.eclipse.jface.viewers" as org.eclipse.jface.viewers.ISelectionChangedListener {
        {abstract} +selectionChanged(SelectionChangedEvent): void
    }

    org.eclipse.emf.edit.ui.action.EditingDomainActionBarContributor <|- - org.eclipse.epf.uma.presentation.UmaActionBarContributor
    org.eclipse.jface.viewers.ISelectionChangedListener <|.. org.eclipse.epf.uma.presentation.UmaActionBarContributor

    center footer UMLDoclet 2.0.12, PlantUML 1.2020.16
@enduml

PlantUML version 1.2020.16(Sun Aug 23 22:20:43 CEST 2020)
(APACHE source distribution)
Java Runtime: Java(TM) SE Runtime Environment
JVM: Java HotSpot(TM) 64-Bit Server VM
Default Encoding: Cp1252
Language: es
Country: ES
--></g></svg>