<?xml version="1.0" encoding="UTF-8" standalone="no"?><svg xmlns="http://www.w3.org/2000/svg" xmlns:xlink="http://www.w3.org/1999/xlink" contentScriptType="application/ecmascript" contentStyleType="text/css" height="364px" preserveAspectRatio="none" style="width:282px;height:364px;" version="1.1" viewBox="0 0 282 364" width="282px" zoomAndPan="magnify"><defs><filter height="300%" id="f1rzislix8bh0x" width="300%" x="-1" y="-1"><feGaussianBlur result="blurOut" stdDeviation="2.0"/><feColorMatrix in="blurOut" result="blurOut2" type="matrix" values="0 0 0 0 0 0 0 0 0 0 0 0 0 0 0 0 0 0 .4 0"/><feOffset dx="4.0" dy="4.0" in="blurOut2" result="blurOut3"/><feBlend in="SourceGraphic" in2="blurOut3" mode="normal"/></filter></defs><g><!--MD5=[f37b78ab9d814d8fa3cf60f52f548695]
class org.eclipse.epf.uma.presentation.UmaEditorPlugin--><a href="UmaEditorPlugin.html" target="_top" title="UmaEditorPlugin.html" xlink:actuate="onRequest" xlink:href="UmaEditorPlugin.html" xlink:show="new" xlink:title="UmaEditorPlugin.html" xlink:type="simple"><rect codeLine="5" fill="#FEFECE" filter="url(#f1rzislix8bh0x)" height="97.6953" id="org.eclipse.epf.uma.presentation.UmaEditorPlugin" style="stroke: #A80036; stroke-width: 1.5;" width="251" x="9.5" y="129"/><ellipse cx="53.3" cy="149.0938" fill="#ADD1B2" rx="11" ry="11" style="stroke: #A80036; stroke-width: 1.0;"/><path d="M56.0656,144.9688 Q56.2219,144.75 56.4094,144.6406 Q56.5969,144.5313 56.8156,144.5313 Q57.1906,144.5313 57.425,144.7969 Q57.6594,145.0469 57.6594,145.6563 L57.6594,147.1094 Q57.6594,147.7188 57.425,147.9844 Q57.1906,148.25 56.8156,148.25 Q56.4719,148.25 56.2688,148.0469 Q56.0656,147.8594 55.9563,147.3438 Q55.9094,146.9844 55.7219,146.7969 Q55.3938,146.4219 54.7844,146.2031 Q54.175,145.9844 53.55,145.9844 Q52.7844,145.9844 52.1438,146.3125 Q51.5188,146.6406 51.0188,147.3906 Q50.5344,148.1406 50.5344,149.1719 L50.5344,150.2656 Q50.5344,151.5 51.425,152.3281 Q52.3156,153.1406 53.9094,153.1406 Q54.8469,153.1406 55.5031,152.8906 Q55.8938,152.7344 56.3156,152.2969 Q56.5813,152.0313 56.7219,151.9531 Q56.8781,151.875 57.0813,151.875 Q57.4094,151.875 57.6594,152.1406 Q57.925,152.3906 57.925,152.7344 Q57.925,153.0781 57.5813,153.4844 Q57.0813,154.0625 56.2844,154.3906 Q55.2063,154.8438 53.9094,154.8438 Q52.3938,154.8438 51.1906,154.2188 Q50.2063,153.7188 49.5188,152.6563 Q48.8313,151.5781 48.8313,150.2969 L48.8313,149.1406 Q48.8313,147.8125 49.4406,146.6719 Q50.0656,145.5156 51.1594,144.9063 Q52.2531,144.2813 53.4875,144.2813 Q54.2219,144.2813 54.8625,144.4531 Q55.5188,144.6094 56.0656,144.9688 Z "/><text fill="#000000" font-family="sans-serif" font-size="14" lengthAdjust="spacingAndGlyphs" textLength="104" x="99.2" y="148.5332">UmaEditorPlugin</text><text fill="#000000" font-family="sans-serif" font-size="10" lengthAdjust="spacingAndGlyphs" textLength="155" x="73.7" y="161.9902">org.eclipse.epf.uma.presentation</text><line style="stroke: #A80036; stroke-width: 1.5;" x1="10.5" x2="259.5" y1="169.1875" y2="169.1875"/><ellipse cx="20.5" cy="180.1875" fill="none" rx="3" ry="3" style="stroke: #038048; stroke-width: 1.0;"/><text fill="#000000" font-family="sans-serif" font-size="11" lengthAdjust="spacingAndGlyphs" text-decoration="underline" textLength="132" x="29.5" y="184.6064">INSTANCE: UmaEditorPlugin</text><line style="stroke: #A80036; stroke-width: 1.5;" x1="10.5" x2="259.5" y1="191.0234" y2="191.0234"/><ellipse cx="20.5" cy="202.0234" fill="#84BE84" rx="3" ry="3" style="stroke: #038048; stroke-width: 1.0;"/><text fill="#000000" font-family="sans-serif" font-size="11" lengthAdjust="spacingAndGlyphs" textLength="225" x="29.5" y="206.4424">getPluginResourceLocator(): ResourceLocator</text><ellipse cx="20.5" cy="215.8594" fill="#84BE84" rx="3" ry="3" style="stroke: #038048; stroke-width: 1.0;"/><text fill="#000000" font-family="sans-serif" font-size="11" lengthAdjust="spacingAndGlyphs" text-decoration="underline" textLength="127" x="29.5" y="220.2783">getPlugin(): Implementation</text></a><!--MD5=[f58696c35037629c5852628dc70d81bd]
class org.eclipse.emf.common.EMFPlugin--><rect codeLine="11" fill="#FEFECE" filter="url(#f1rzislix8bh0x)" height="62.0234" id="org.eclipse.emf.common.EMFPlugin" style="stroke: #A80036; stroke-width: 1.5;" width="256" x="7" y="7"/><ellipse cx="75.25" cy="27.0938" fill="#A9DCDF" rx="11" ry="11" style="stroke: #A80036; stroke-width: 1.0;"/><path d="M77.4375,28.8594 L73.2969,28.8594 L72.875,29.8906 L73.2969,29.8906 Q73.9063,29.8906 74.1719,30.125 Q74.4375,30.3594 74.4375,30.75 Q74.4375,31.125 74.1719,31.3594 Q73.9063,31.5938 73.2969,31.5938 L71,31.5938 Q70.3906,31.5938 70.1406,31.3594 Q69.875,31.125 69.875,30.7344 Q69.875,30.3594 70.1563,30.125 Q70.4219,29.875 71.0469,29.8906 L73.7188,23.2344 L72.6094,23.2344 Q72,23.2344 71.7344,23 Q71.4688,22.7656 71.4688,22.375 Q71.4688,22 71.7344,21.7656 Q72,21.5313 72.6094,21.5313 L76.2813,21.5313 L79.6719,29.8906 Q80.2656,29.8906 80.4531,30.0313 Q80.8438,30.2969 80.8438,30.75 Q80.8438,31.125 80.5781,31.3594 Q80.3281,31.5938 79.7188,31.5938 L77.4219,31.5938 Q76.8125,31.5938 76.5469,31.3594 Q76.2813,31.125 76.2813,30.7344 Q76.2813,30.3594 76.5469,30.125 Q76.8125,29.8906 77.4219,29.8906 L77.8438,29.8906 L77.4375,28.8594 Z M76.7188,27.1563 L75.3594,23.7813 L73.9844,27.1563 L76.7188,27.1563 Z "/><text fill="#000000" font-family="sans-serif" font-size="14" font-style="italic" lengthAdjust="spacingAndGlyphs" textLength="69" x="116.75" y="26.5332">EMFPlugin</text><text fill="#000000" font-family="sans-serif" font-size="10" font-style="italic" lengthAdjust="spacingAndGlyphs" textLength="111" x="95.75" y="39.9902">org.eclipse.emf.common</text><line style="stroke: #A80036; stroke-width: 1.5;" x1="8" x2="262" y1="47.1875" y2="47.1875"/><ellipse cx="18" cy="58.1875" fill="#84BE84" rx="3" ry="3" style="stroke: #038048; stroke-width: 1.0;"/><text fill="#000000" font-family="sans-serif" font-size="11" font-style="italic" lengthAdjust="spacingAndGlyphs" textLength="230" x="27" y="62.6064">getPluginResourceLocator(): ResourceLocator</text><!--MD5=[e1d78cac782eb733dd2f5c4e6cec1e4a]
class org.eclipse.epf.uma.presentation.UmaEditorPlugin.Implementation--><a href="UmaEditorPlugin.Implementation.html" target="_top" title="UmaEditorPlugin.Implementation.html" xlink:actuate="onRequest" xlink:href="UmaEditorPlugin.Implementation.html" xlink:show="new" xlink:title="UmaEditorPlugin.Implementation.html" xlink:type="simple"><rect codeLine="14" fill="#FEFECE" filter="url(#f1rzislix8bh0x)" height="40.1875" id="org.eclipse.epf.uma.presentation.UmaEditorPlugin.Implementation" style="stroke: #A80036; stroke-width: 1.5;" width="235" x="17.5" y="287"/><ellipse cx="32.5" cy="307.0938" fill="#ADD1B2" rx="11" ry="11" style="stroke: #A80036; stroke-width: 1.0;"/><path d="M35.2656,302.9688 Q35.4219,302.75 35.6094,302.6406 Q35.7969,302.5313 36.0156,302.5313 Q36.3906,302.5313 36.625,302.7969 Q36.8594,303.0469 36.8594,303.6563 L36.8594,305.1094 Q36.8594,305.7188 36.625,305.9844 Q36.3906,306.25 36.0156,306.25 Q35.6719,306.25 35.4688,306.0469 Q35.2656,305.8594 35.1563,305.3438 Q35.1094,304.9844 34.9219,304.7969 Q34.5938,304.4219 33.9844,304.2031 Q33.375,303.9844 32.75,303.9844 Q31.9844,303.9844 31.3438,304.3125 Q30.7188,304.6406 30.2188,305.3906 Q29.7344,306.1406 29.7344,307.1719 L29.7344,308.2656 Q29.7344,309.5 30.625,310.3281 Q31.5156,311.1406 33.1094,311.1406 Q34.0469,311.1406 34.7031,310.8906 Q35.0938,310.7344 35.5156,310.2969 Q35.7813,310.0313 35.9219,309.9531 Q36.0781,309.875 36.2813,309.875 Q36.6094,309.875 36.8594,310.1406 Q37.125,310.3906 37.125,310.7344 Q37.125,311.0781 36.7813,311.4844 Q36.2813,312.0625 35.4844,312.3906 Q34.4063,312.8438 33.1094,312.8438 Q31.5938,312.8438 30.3906,312.2188 Q29.4063,311.7188 28.7188,310.6563 Q28.0313,309.5781 28.0313,308.2969 L28.0313,307.1406 Q28.0313,305.8125 28.6406,304.6719 Q29.2656,303.5156 30.3594,302.9063 Q31.4531,302.2813 32.6875,302.2813 Q33.4219,302.2813 34.0625,302.4531 Q34.7188,302.6094 35.2656,302.9688 Z "/><text fill="#000000" font-family="sans-serif" font-size="14" lengthAdjust="spacingAndGlyphs" textLength="203" x="46.5" y="306.5332">UmaEditorPlugin.Implementation</text><text fill="#000000" font-family="sans-serif" font-size="10" lengthAdjust="spacingAndGlyphs" textLength="155" x="70.5" y="319.9902">org.eclipse.epf.uma.presentation</text></a><!--MD5=[a99fcf6646e0d33badc8ff444b89732a]
reverse link org.eclipse.emf.common.EMFPlugin to org.eclipse.epf.uma.presentation.UmaEditorPlugin--><path codeLine="16" d="M135,89.65 C135,102.47 135,116.2 135,128.89 " fill="none" id="org.eclipse.emf.common.EMFPlugin-backto-org.eclipse.epf.uma.presentation.UmaEditorPlugin" style="stroke: #A80036; stroke-width: 1.0;"/><polygon fill="none" points="128,89.28,135,69.28,142,89.28,128,89.28" style="stroke: #A80036; stroke-width: 1.0;"/><!--MD5=[c7091f2d85c6dfda832abe866cffdc14]
reverse link org.eclipse.epf.uma.presentation.UmaEditorPlugin to org.eclipse.epf.uma.presentation.UmaEditorPlugin.Implementation--><path codeLine="17" d="M135,242.15 C135,258.42 135,274.73 135,286.79 " fill="none" id="org.eclipse.epf.uma.presentation.UmaEditorPlugin-backto-org.eclipse.epf.uma.presentation.UmaEditorPlugin.Implementation" style="stroke: #A80036; stroke-width: 1.0;"/><ellipse cx="135" cy="235.01" fill="#FFFFFF" rx="8" ry="8" style="stroke: #A80036; stroke-width: 1.0;"/><line style="stroke: #A80036; stroke-width: 1.0;" x1="135" x2="135" y1="243.01" y2="227.01"/><line style="stroke: #A80036; stroke-width: 1.0;" x1="127" x2="143" y1="235.01" y2="235.01"/><text fill="#888888" font-family="sans-serif" font-size="10" lengthAdjust="spacingAndGlyphs" textLength="190" x="37" y="350.5684">UMLDoclet 2.0.12, PlantUML 1.2020.16</text><!--MD5=[d703cc904917c3f94c1b03577be741a2]
@startuml
    set namespaceSeparator none
    hide empty fields
    hide empty methods

    class "<size:14>UmaEditorPlugin\n<size:10>org.eclipse.epf.uma.presentation" as org.eclipse.epf.uma.presentation.UmaEditorPlugin [[UmaEditorPlugin.html]] {
        {static} +INSTANCE: UmaEditorPlugin
        +getPluginResourceLocator(): ResourceLocator
        {static} +getPlugin(): Implementation
    }

    abstract class "<size:14>EMFPlugin\n<size:10>org.eclipse.emf.common" as org.eclipse.emf.common.EMFPlugin {
        {abstract} +getPluginResourceLocator(): ResourceLocator
    }
    class "<size:14>UmaEditorPlugin.Implementation\n<size:10>org.eclipse.epf.uma.presentation" as org.eclipse.epf.uma.presentation.UmaEditorPlugin.Implementation [[UmaEditorPlugin.Implementation.html]]

    org.eclipse.emf.common.EMFPlugin <|- - org.eclipse.epf.uma.presentation.UmaEditorPlugin
    org.eclipse.epf.uma.presentation.UmaEditorPlugin +- - org.eclipse.epf.uma.presentation.UmaEditorPlugin.Implementation

    center footer UMLDoclet 2.0.12, PlantUML 1.2020.16
@enduml

PlantUML version 1.2020.16(Sun Aug 23 22:20:43 CEST 2020)
(APACHE source distribution)
Java Runtime: Java(TM) SE Runtime Environment
JVM: Java HotSpot(TM) 64-Bit Server VM
Default Encoding: Cp1252
Language: es
Country: ES
--></g></svg>