<?xml version="1.0" encoding="UTF-8" standalone="no"?><svg xmlns="http://www.w3.org/2000/svg" xmlns:xlink="http://www.w3.org/1999/xlink" contentScriptType="application/ecmascript" contentStyleType="text/css" height="261px" preserveAspectRatio="none" style="width:481px;height:261px;" version="1.1" viewBox="0 0 481 261" width="481px" zoomAndPan="magnify"><defs><filter height="300%" id="f1bsxadvsx79rz" width="300%" x="-1" y="-1"><feGaussianBlur result="blurOut" stdDeviation="2.0"/><feColorMatrix in="blurOut" result="blurOut2" type="matrix" values="0 0 0 0 0 0 0 0 0 0 0 0 0 0 0 0 0 0 .4 0"/><feOffset dx="4.0" dy="4.0" in="blurOut2" result="blurOut3"/><feBlend in="SourceGraphic" in2="blurOut3" mode="normal"/></filter></defs><g><!--MD5=[2eb759f53f33afd3a08956eb114727ed]
class org.eclipse.epf.uma.presentation.UmaEditor.ReverseAdapterFactoryContentProvider--><a href="UmaEditor.ReverseAdapterFactoryContentProvider.html" target="_top" title="UmaEditor.ReverseAdapterFactoryContentProvider.html" xlink:actuate="onRequest" xlink:href="UmaEditor.ReverseAdapterFactoryContentProvider.html" xlink:show="new" xlink:title="UmaEditor.ReverseAdapterFactoryContentProvider.html" xlink:type="simple"><rect codeLine="5" fill="#FEFECE" filter="url(#f1bsxadvsx79rz)" height="117.3672" id="org.eclipse.epf.uma.presentation.UmaEditor.ReverseAdapterFactoryContentProvider" style="stroke: #A80036; stroke-width: 1.5;" width="355" x="68" y="107"/><ellipse cx="83" cy="127.0938" fill="#ADD1B2" rx="11" ry="11" style="stroke: #A80036; stroke-width: 1.0;"/><path d="M85.7656,122.9688 Q85.9219,122.75 86.1094,122.6406 Q86.2969,122.5313 86.5156,122.5313 Q86.8906,122.5313 87.125,122.7969 Q87.3594,123.0469 87.3594,123.6563 L87.3594,125.1094 Q87.3594,125.7188 87.125,125.9844 Q86.8906,126.25 86.5156,126.25 Q86.1719,126.25 85.9688,126.0469 Q85.7656,125.8594 85.6563,125.3438 Q85.6094,124.9844 85.4219,124.7969 Q85.0938,124.4219 84.4844,124.2031 Q83.875,123.9844 83.25,123.9844 Q82.4844,123.9844 81.8438,124.3125 Q81.2188,124.6406 80.7188,125.3906 Q80.2344,126.1406 80.2344,127.1719 L80.2344,128.2656 Q80.2344,129.5 81.125,130.3281 Q82.0156,131.1406 83.6094,131.1406 Q84.5469,131.1406 85.2031,130.8906 Q85.5938,130.7344 86.0156,130.2969 Q86.2813,130.0313 86.4219,129.9531 Q86.5781,129.875 86.7813,129.875 Q87.1094,129.875 87.3594,130.1406 Q87.625,130.3906 87.625,130.7344 Q87.625,131.0781 87.2813,131.4844 Q86.7813,132.0625 85.9844,132.3906 Q84.9063,132.8438 83.6094,132.8438 Q82.0938,132.8438 80.8906,132.2188 Q79.9063,131.7188 79.2188,130.6563 Q78.5313,129.5781 78.5313,128.2969 L78.5313,127.1406 Q78.5313,125.8125 79.1406,124.6719 Q79.7656,123.5156 80.8594,122.9063 Q81.9531,122.2813 83.1875,122.2813 Q83.9219,122.2813 84.5625,122.4531 Q85.2188,122.6094 85.7656,122.9688 Z "/><text fill="#000000" font-family="sans-serif" font-size="14" lengthAdjust="spacingAndGlyphs" textLength="323" x="97" y="126.5332">UmaEditor.ReverseAdapterFactoryContentProvider</text><text fill="#000000" font-family="sans-serif" font-size="10" lengthAdjust="spacingAndGlyphs" textLength="155" x="181" y="139.9902">org.eclipse.epf.uma.presentation</text><line style="stroke: #A80036; stroke-width: 1.5;" x1="69" x2="422" y1="147.1875" y2="147.1875"/><ellipse cx="79" cy="158.1875" fill="#84BE84" rx="3" ry="3" style="stroke: #038048; stroke-width: 1.0;"/><text fill="#000000" font-family="sans-serif" font-size="11" lengthAdjust="spacingAndGlyphs" textLength="278" x="88" y="162.6064">ReverseAdapterFactoryContentProvider(AdapterFactory)</text><ellipse cx="79" cy="172.0234" fill="#84BE84" rx="3" ry="3" style="stroke: #038048; stroke-width: 1.0;"/><text fill="#000000" font-family="sans-serif" font-size="11" lengthAdjust="spacingAndGlyphs" textLength="140" x="88" y="176.4424">getElements(Object): Object[]</text><ellipse cx="79" cy="185.8594" fill="#84BE84" rx="3" ry="3" style="stroke: #038048; stroke-width: 1.0;"/><text fill="#000000" font-family="sans-serif" font-size="11" lengthAdjust="spacingAndGlyphs" textLength="136" x="88" y="190.2783">getChildren(Object): Object[]</text><ellipse cx="79" cy="199.6953" fill="#84BE84" rx="3" ry="3" style="stroke: #038048; stroke-width: 1.0;"/><text fill="#000000" font-family="sans-serif" font-size="11" lengthAdjust="spacingAndGlyphs" textLength="140" x="88" y="204.1143">hasChildren(Object): boolean</text><ellipse cx="79" cy="213.5313" fill="#84BE84" rx="3" ry="3" style="stroke: #038048; stroke-width: 1.0;"/><text fill="#000000" font-family="sans-serif" font-size="11" lengthAdjust="spacingAndGlyphs" textLength="122" x="88" y="217.9502">getParent(Object): Object</text></a><!--MD5=[35e1e824f9723654487f47432c05aa3d]
class org.eclipse.emf.edit.ui.provider.AdapterFactoryContentProvider--><rect codeLine="13" fill="#FEFECE" filter="url(#f1bsxadvsx79rz)" height="40.1875" id="org.eclipse.emf.edit.ui.provider.AdapterFactoryContentProvider" style="stroke: #A80036; stroke-width: 1.5;" width="233" x="7" y="7"/><ellipse cx="22" cy="27.0938" fill="#ADD1B2" rx="11" ry="11" style="stroke: #A80036; stroke-width: 1.0;"/><path d="M24.7656,22.9688 Q24.9219,22.75 25.1094,22.6406 Q25.2969,22.5313 25.5156,22.5313 Q25.8906,22.5313 26.125,22.7969 Q26.3594,23.0469 26.3594,23.6563 L26.3594,25.1094 Q26.3594,25.7188 26.125,25.9844 Q25.8906,26.25 25.5156,26.25 Q25.1719,26.25 24.9688,26.0469 Q24.7656,25.8594 24.6563,25.3438 Q24.6094,24.9844 24.4219,24.7969 Q24.0938,24.4219 23.4844,24.2031 Q22.875,23.9844 22.25,23.9844 Q21.4844,23.9844 20.8438,24.3125 Q20.2188,24.6406 19.7188,25.3906 Q19.2344,26.1406 19.2344,27.1719 L19.2344,28.2656 Q19.2344,29.5 20.125,30.3281 Q21.0156,31.1406 22.6094,31.1406 Q23.5469,31.1406 24.2031,30.8906 Q24.5938,30.7344 25.0156,30.2969 Q25.2813,30.0313 25.4219,29.9531 Q25.5781,29.875 25.7813,29.875 Q26.1094,29.875 26.3594,30.1406 Q26.625,30.3906 26.625,30.7344 Q26.625,31.0781 26.2813,31.4844 Q25.7813,32.0625 24.9844,32.3906 Q23.9063,32.8438 22.6094,32.8438 Q21.0938,32.8438 19.8906,32.2188 Q18.9063,31.7188 18.2188,30.6563 Q17.5313,29.5781 17.5313,28.2969 L17.5313,27.1406 Q17.5313,25.8125 18.1406,24.6719 Q18.7656,23.5156 19.8594,22.9063 Q20.9531,22.2813 22.1875,22.2813 Q22.9219,22.2813 23.5625,22.4531 Q24.2188,22.6094 24.7656,22.9688 Z "/><text fill="#000000" font-family="sans-serif" font-size="14" lengthAdjust="spacingAndGlyphs" textLength="201" x="36" y="26.5332">AdapterFactoryContentProvider</text><text fill="#000000" font-family="sans-serif" font-size="10" lengthAdjust="spacingAndGlyphs" textLength="147" x="63" y="39.9902">org.eclipse.emf.edit.ui.provider</text><!--MD5=[1e4e6550c0a479236a5b8295709cc78f]
class org.eclipse.epf.uma.presentation.UmaEditor--><a href="UmaEditor.html" target="_top" title="UmaEditor.html" xlink:actuate="onRequest" xlink:href="UmaEditor.html" xlink:show="new" xlink:title="UmaEditor.html" xlink:type="simple"><rect codeLine="14" fill="#FEFECE" filter="url(#f1bsxadvsx79rz)" height="40.1875" id="org.eclipse.epf.uma.presentation.UmaEditor" style="stroke: #A80036; stroke-width: 1.5;" width="187" x="275" y="7"/><ellipse cx="290" cy="27.0938" fill="#ADD1B2" rx="11" ry="11" style="stroke: #A80036; stroke-width: 1.0;"/><path d="M292.7656,22.9688 Q292.9219,22.75 293.1094,22.6406 Q293.2969,22.5313 293.5156,22.5313 Q293.8906,22.5313 294.125,22.7969 Q294.3594,23.0469 294.3594,23.6563 L294.3594,25.1094 Q294.3594,25.7188 294.125,25.9844 Q293.8906,26.25 293.5156,26.25 Q293.1719,26.25 292.9688,26.0469 Q292.7656,25.8594 292.6563,25.3438 Q292.6094,24.9844 292.4219,24.7969 Q292.0938,24.4219 291.4844,24.2031 Q290.875,23.9844 290.25,23.9844 Q289.4844,23.9844 288.8438,24.3125 Q288.2188,24.6406 287.7188,25.3906 Q287.2344,26.1406 287.2344,27.1719 L287.2344,28.2656 Q287.2344,29.5 288.125,30.3281 Q289.0156,31.1406 290.6094,31.1406 Q291.5469,31.1406 292.2031,30.8906 Q292.5938,30.7344 293.0156,30.2969 Q293.2813,30.0313 293.4219,29.9531 Q293.5781,29.875 293.7813,29.875 Q294.1094,29.875 294.3594,30.1406 Q294.625,30.3906 294.625,30.7344 Q294.625,31.0781 294.2813,31.4844 Q293.7813,32.0625 292.9844,32.3906 Q291.9063,32.8438 290.6094,32.8438 Q289.0938,32.8438 287.8906,32.2188 Q286.9063,31.7188 286.2188,30.6563 Q285.5313,29.5781 285.5313,28.2969 L285.5313,27.1406 Q285.5313,25.8125 286.1406,24.6719 Q286.7656,23.5156 287.8594,22.9063 Q288.9531,22.2813 290.1875,22.2813 Q290.9219,22.2813 291.5625,22.4531 Q292.2188,22.6094 292.7656,22.9688 Z "/><text fill="#000000" font-family="sans-serif" font-size="14" lengthAdjust="spacingAndGlyphs" textLength="65" x="349" y="26.5332">UmaEditor</text><text fill="#000000" font-family="sans-serif" font-size="10" lengthAdjust="spacingAndGlyphs" textLength="155" x="304" y="39.9902">org.eclipse.epf.uma.presentation</text></a><!--MD5=[06f54474c686b90483750f0cb52e0c25]
reverse link org.eclipse.emf.edit.ui.provider.AdapterFactoryContentProvider to org.eclipse.epf.uma.presentation.UmaEditor.ReverseAdapterFactoryContentProvider--><path codeLine="16" d="M154.22,62.37 C166.31,75.9 180.52,91.79 194.08,106.97 " fill="none" id="org.eclipse.emf.edit.ui.provider.AdapterFactoryContentProvider-backto-org.eclipse.epf.uma.presentation.UmaEditor.ReverseAdapterFactoryContentProvider" style="stroke: #A80036; stroke-width: 1.0;"/><polygon fill="none" points="148.83,66.84,140.72,47.27,159.27,57.51,148.83,66.84" style="stroke: #A80036; stroke-width: 1.0;"/><!--MD5=[a8da1450cf55ca2f2dd2cebdcfe9036a]
reverse link org.eclipse.epf.uma.presentation.UmaEditor to org.eclipse.epf.uma.presentation.UmaEditor.ReverseAdapterFactoryContentProvider--><path codeLine="17" d="M341.08,58.43 C328.18,72.74 312.37,90.29 297.34,106.97 " fill="none" id="org.eclipse.epf.uma.presentation.UmaEditor-backto-org.eclipse.epf.uma.presentation.UmaEditor.ReverseAdapterFactoryContentProvider" style="stroke: #A80036; stroke-width: 1.0;"/><ellipse cx="345.7841" cy="53.2126" fill="#FFFFFF" rx="8" ry="8" style="stroke: #A80036; stroke-width: 1.0;"/><line style="stroke: #A80036; stroke-width: 1.0;" x1="340.4281" x2="351.14" y1="59.1551" y2="47.27"/><line style="stroke: #A80036; stroke-width: 1.0;" x1="339.8415" x2="351.7266" y1="47.8566" y2="58.5685"/><text fill="#888888" font-family="sans-serif" font-size="10" lengthAdjust="spacingAndGlyphs" textLength="190" x="136.5" y="247.748">UMLDoclet 2.0.12, PlantUML 1.2020.16</text><!--MD5=[b5abf5e1327d69157a7640349d278c6c]
@startuml
    set namespaceSeparator none
    hide empty fields
    hide empty methods

    class "<size:14>UmaEditor.ReverseAdapterFactoryContentProvider\n<size:10>org.eclipse.epf.uma.presentation" as org.eclipse.epf.uma.presentation.UmaEditor.ReverseAdapterFactoryContentProvider [[UmaEditor.ReverseAdapterFactoryContentProvider.html]] {
        +ReverseAdapterFactoryContentProvider(AdapterFactory)
        +getElements(Object): Object[]
        +getChildren(Object): Object[]
        +hasChildren(Object): boolean
        +getParent(Object): Object
    }

    class "<size:14>AdapterFactoryContentProvider\n<size:10>org.eclipse.emf.edit.ui.provider" as org.eclipse.emf.edit.ui.provider.AdapterFactoryContentProvider
    class "<size:14>UmaEditor\n<size:10>org.eclipse.epf.uma.presentation" as org.eclipse.epf.uma.presentation.UmaEditor [[UmaEditor.html]]

    org.eclipse.emf.edit.ui.provider.AdapterFactoryContentProvider <|- - org.eclipse.epf.uma.presentation.UmaEditor.ReverseAdapterFactoryContentProvider
    org.eclipse.epf.uma.presentation.UmaEditor +- - org.eclipse.epf.uma.presentation.UmaEditor.ReverseAdapterFactoryContentProvider

    center footer UMLDoclet 2.0.12, PlantUML 1.2020.16
@enduml

PlantUML version 1.2020.16(Sun Aug 23 22:20:43 CEST 2020)
(APACHE source distribution)
Java Runtime: Java(TM) SE Runtime Environment
JVM: Java HotSpot(TM) 64-Bit Server VM
Default Encoding: Cp1252
Language: es
Country: ES
--></g></svg>