<?xml version="1.0" encoding="UTF-8" standalone="no"?><svg xmlns="http://www.w3.org/2000/svg" xmlns:xlink="http://www.w3.org/1999/xlink" contentScriptType="application/ecmascript" contentStyleType="text/css" height="184px" preserveAspectRatio="none" style="width:403px;height:184px;" version="1.1" viewBox="0 0 403 184" width="403px" zoomAndPan="magnify"><defs><filter height="300%" id="f1b8eutsk4wbv4" width="300%" x="-1" y="-1"><feGaussianBlur result="blurOut" stdDeviation="2.0"/><feColorMatrix in="blurOut" result="blurOut2" type="matrix" values="0 0 0 0 0 0 0 0 0 0 0 0 0 0 0 0 0 0 .4 0"/><feOffset dx="4.0" dy="4.0" in="blurOut2" result="blurOut3"/><feBlend in="SourceGraphic" in2="blurOut3" mode="normal"/></filter></defs><g><!--MD5=[e1d78cac782eb733dd2f5c4e6cec1e4a]
class org.eclipse.epf.uma.presentation.UmaEditorPlugin.Implementation--><a href="UmaEditorPlugin.Implementation.html" target="_top" title="UmaEditorPlugin.Implementation.html" xlink:actuate="onRequest" xlink:href="UmaEditorPlugin.Implementation.html" xlink:show="new" xlink:title="UmaEditorPlugin.Implementation.html" xlink:type="simple"><rect codeLine="5" fill="#FEFECE" filter="url(#f1b8eutsk4wbv4)" height="40.1875" id="org.eclipse.epf.uma.presentation.UmaEditorPlugin.Implementation" style="stroke: #A80036; stroke-width: 1.5;" width="235" x="70" y="107"/><ellipse cx="85" cy="127.0938" fill="#ADD1B2" rx="11" ry="11" style="stroke: #A80036; stroke-width: 1.0;"/><path d="M87.7656,122.9688 Q87.9219,122.75 88.1094,122.6406 Q88.2969,122.5313 88.5156,122.5313 Q88.8906,122.5313 89.125,122.7969 Q89.3594,123.0469 89.3594,123.6563 L89.3594,125.1094 Q89.3594,125.7188 89.125,125.9844 Q88.8906,126.25 88.5156,126.25 Q88.1719,126.25 87.9688,126.0469 Q87.7656,125.8594 87.6563,125.3438 Q87.6094,124.9844 87.4219,124.7969 Q87.0938,124.4219 86.4844,124.2031 Q85.875,123.9844 85.25,123.9844 Q84.4844,123.9844 83.8438,124.3125 Q83.2188,124.6406 82.7188,125.3906 Q82.2344,126.1406 82.2344,127.1719 L82.2344,128.2656 Q82.2344,129.5 83.125,130.3281 Q84.0156,131.1406 85.6094,131.1406 Q86.5469,131.1406 87.2031,130.8906 Q87.5938,130.7344 88.0156,130.2969 Q88.2813,130.0313 88.4219,129.9531 Q88.5781,129.875 88.7813,129.875 Q89.1094,129.875 89.3594,130.1406 Q89.625,130.3906 89.625,130.7344 Q89.625,131.0781 89.2813,131.4844 Q88.7813,132.0625 87.9844,132.3906 Q86.9063,132.8438 85.6094,132.8438 Q84.0938,132.8438 82.8906,132.2188 Q81.9063,131.7188 81.2188,130.6563 Q80.5313,129.5781 80.5313,128.2969 L80.5313,127.1406 Q80.5313,125.8125 81.1406,124.6719 Q81.7656,123.5156 82.8594,122.9063 Q83.9531,122.2813 85.1875,122.2813 Q85.9219,122.2813 86.5625,122.4531 Q87.2188,122.6094 87.7656,122.9688 Z "/><text fill="#000000" font-family="sans-serif" font-size="14" lengthAdjust="spacingAndGlyphs" textLength="203" x="99" y="126.5332">UmaEditorPlugin.Implementation</text><text fill="#000000" font-family="sans-serif" font-size="10" lengthAdjust="spacingAndGlyphs" textLength="155" x="123" y="139.9902">org.eclipse.epf.uma.presentation</text></a><!--MD5=[30ee1938e4e86c763167e102500fcd0a]
class org.eclipse.emf.common.ui.EclipseUIPlugin--><rect codeLine="7" fill="#FEFECE" filter="url(#f1b8eutsk4wbv4)" height="40.1875" id="org.eclipse.emf.common.ui.EclipseUIPlugin" style="stroke: #A80036; stroke-width: 1.5;" width="155" x="7" y="7"/><ellipse cx="22" cy="27.0938" fill="#A9DCDF" rx="11" ry="11" style="stroke: #A80036; stroke-width: 1.0;"/><path d="M24.1875,28.8594 L20.0469,28.8594 L19.625,29.8906 L20.0469,29.8906 Q20.6563,29.8906 20.9219,30.125 Q21.1875,30.3594 21.1875,30.75 Q21.1875,31.125 20.9219,31.3594 Q20.6563,31.5938 20.0469,31.5938 L17.75,31.5938 Q17.1406,31.5938 16.8906,31.3594 Q16.625,31.125 16.625,30.7344 Q16.625,30.3594 16.9063,30.125 Q17.1719,29.875 17.7969,29.8906 L20.4688,23.2344 L19.3594,23.2344 Q18.75,23.2344 18.4844,23 Q18.2188,22.7656 18.2188,22.375 Q18.2188,22 18.4844,21.7656 Q18.75,21.5313 19.3594,21.5313 L23.0313,21.5313 L26.4219,29.8906 Q27.0156,29.8906 27.2031,30.0313 Q27.5938,30.2969 27.5938,30.75 Q27.5938,31.125 27.3281,31.3594 Q27.0781,31.5938 26.4688,31.5938 L24.1719,31.5938 Q23.5625,31.5938 23.2969,31.3594 Q23.0313,31.125 23.0313,30.7344 Q23.0313,30.3594 23.2969,30.125 Q23.5625,29.8906 24.1719,29.8906 L24.5938,29.8906 L24.1875,28.8594 Z M23.4688,27.1563 L22.1094,23.7813 L20.7344,27.1563 L23.4688,27.1563 Z "/><text fill="#000000" font-family="sans-serif" font-size="14" font-style="italic" lengthAdjust="spacingAndGlyphs" textLength="98" x="48.5" y="26.5332">EclipseUIPlugin</text><text fill="#000000" font-family="sans-serif" font-size="10" font-style="italic" lengthAdjust="spacingAndGlyphs" textLength="123" x="36" y="39.9902">org.eclipse.emf.common.ui</text><!--MD5=[f37b78ab9d814d8fa3cf60f52f548695]
class org.eclipse.epf.uma.presentation.UmaEditorPlugin--><a href="UmaEditorPlugin.html" target="_top" title="UmaEditorPlugin.html" xlink:actuate="onRequest" xlink:href="UmaEditorPlugin.html" xlink:show="new" xlink:title="UmaEditorPlugin.html" xlink:type="simple"><rect codeLine="8" fill="#FEFECE" filter="url(#f1b8eutsk4wbv4)" height="40.1875" id="org.eclipse.epf.uma.presentation.UmaEditorPlugin" style="stroke: #A80036; stroke-width: 1.5;" width="187" x="197" y="7"/><ellipse cx="212" cy="27.0938" fill="#ADD1B2" rx="11" ry="11" style="stroke: #A80036; stroke-width: 1.0;"/><path d="M214.7656,22.9688 Q214.9219,22.75 215.1094,22.6406 Q215.2969,22.5313 215.5156,22.5313 Q215.8906,22.5313 216.125,22.7969 Q216.3594,23.0469 216.3594,23.6563 L216.3594,25.1094 Q216.3594,25.7188 216.125,25.9844 Q215.8906,26.25 215.5156,26.25 Q215.1719,26.25 214.9688,26.0469 Q214.7656,25.8594 214.6563,25.3438 Q214.6094,24.9844 214.4219,24.7969 Q214.0938,24.4219 213.4844,24.2031 Q212.875,23.9844 212.25,23.9844 Q211.4844,23.9844 210.8438,24.3125 Q210.2188,24.6406 209.7188,25.3906 Q209.2344,26.1406 209.2344,27.1719 L209.2344,28.2656 Q209.2344,29.5 210.125,30.3281 Q211.0156,31.1406 212.6094,31.1406 Q213.5469,31.1406 214.2031,30.8906 Q214.5938,30.7344 215.0156,30.2969 Q215.2813,30.0313 215.4219,29.9531 Q215.5781,29.875 215.7813,29.875 Q216.1094,29.875 216.3594,30.1406 Q216.625,30.3906 216.625,30.7344 Q216.625,31.0781 216.2813,31.4844 Q215.7813,32.0625 214.9844,32.3906 Q213.9063,32.8438 212.6094,32.8438 Q211.0938,32.8438 209.8906,32.2188 Q208.9063,31.7188 208.2188,30.6563 Q207.5313,29.5781 207.5313,28.2969 L207.5313,27.1406 Q207.5313,25.8125 208.1406,24.6719 Q208.7656,23.5156 209.8594,22.9063 Q210.9531,22.2813 212.1875,22.2813 Q212.9219,22.2813 213.5625,22.4531 Q214.2188,22.6094 214.7656,22.9688 Z "/><text fill="#000000" font-family="sans-serif" font-size="14" lengthAdjust="spacingAndGlyphs" textLength="104" x="251.5" y="26.5332">UmaEditorPlugin</text><text fill="#000000" font-family="sans-serif" font-size="10" lengthAdjust="spacingAndGlyphs" textLength="155" x="226" y="39.9902">org.eclipse.epf.uma.presentation</text></a><!--MD5=[d570c63475ca96c0c16a0f404ec19eee]
reverse link org.eclipse.emf.common.ui.EclipseUIPlugin to org.eclipse.epf.uma.presentation.UmaEditorPlugin.Implementation--><path codeLine="10" d="M119.67,61.46 C135.52,76.54 153.66,93.8 167.19,106.68 " fill="none" id="org.eclipse.emf.common.ui.EclipseUIPlugin-backto-org.eclipse.epf.uma.presentation.UmaEditorPlugin.Implementation" style="stroke: #A80036; stroke-width: 1.0;"/><polygon fill="none" points="114.51,66.22,104.85,47.36,124.16,56.08,114.51,66.22" style="stroke: #A80036; stroke-width: 1.0;"/><!--MD5=[c7091f2d85c6dfda832abe866cffdc14]
reverse link org.eclipse.epf.uma.presentation.UmaEditorPlugin to org.eclipse.epf.uma.presentation.UmaEditorPlugin.Implementation--><path codeLine="11" d="M259.24,57.74 C242.54,73.63 222.47,92.73 207.81,106.68 " fill="none" id="org.eclipse.epf.uma.presentation.UmaEditorPlugin-backto-org.eclipse.epf.uma.presentation.UmaEditorPlugin.Implementation" style="stroke: #A80036; stroke-width: 1.0;"/><ellipse cx="264.3576" cy="52.878" fill="#FFFFFF" rx="8" ry="8" style="stroke: #A80036; stroke-width: 1.0;"/><line style="stroke: #A80036; stroke-width: 1.0;" x1="258.5652" x2="270.15" y1="58.396" y2="47.36"/><line style="stroke: #A80036; stroke-width: 1.0;" x1="258.8396" x2="269.8756" y1="47.0856" y2="58.6704"/><text fill="#888888" font-family="sans-serif" font-size="10" lengthAdjust="spacingAndGlyphs" textLength="190" x="97.5" y="170.5684">UMLDoclet 2.0.12, PlantUML 1.2020.16</text><!--MD5=[a801b15d02fcaaee32852b60f9c1a91e]
@startuml
    set namespaceSeparator none
    hide empty fields
    hide empty methods

    class "<size:14>UmaEditorPlugin.Implementation\n<size:10>org.eclipse.epf.uma.presentation" as org.eclipse.epf.uma.presentation.UmaEditorPlugin.Implementation [[UmaEditorPlugin.Implementation.html]]

    abstract class "<size:14>EclipseUIPlugin\n<size:10>org.eclipse.emf.common.ui" as org.eclipse.emf.common.ui.EclipseUIPlugin
    class "<size:14>UmaEditorPlugin\n<size:10>org.eclipse.epf.uma.presentation" as org.eclipse.epf.uma.presentation.UmaEditorPlugin [[UmaEditorPlugin.html]]

    org.eclipse.emf.common.ui.EclipseUIPlugin <|- - org.eclipse.epf.uma.presentation.UmaEditorPlugin.Implementation
    org.eclipse.epf.uma.presentation.UmaEditorPlugin +- - org.eclipse.epf.uma.presentation.UmaEditorPlugin.Implementation

    center footer UMLDoclet 2.0.12, PlantUML 1.2020.16
@enduml

PlantUML version 1.2020.16(Sun Aug 23 22:20:43 CEST 2020)
(APACHE source distribution)
Java Runtime: Java(TM) SE Runtime Environment
JVM: Java HotSpot(TM) 64-Bit Server VM
Default Encoding: Cp1252
Language: es
Country: ES
--></g></svg>