<?xml version="1.0" encoding="UTF-8" standalone="no"?><svg xmlns="http://www.w3.org/2000/svg" xmlns:xlink="http://www.w3.org/1999/xlink" contentScriptType="application/ecmascript" contentStyleType="text/css" height="757px" preserveAspectRatio="none" style="width:1490px;height:757px;" version="1.1" viewBox="0 0 1490 757" width="1490px" zoomAndPan="magnify"><defs><filter height="300%" id="f1g3480jmdkdzc" width="300%" x="-1" y="-1"><feGaussianBlur result="blurOut" stdDeviation="2.0"/><feColorMatrix in="blurOut" result="blurOut2" type="matrix" values="0 0 0 0 0 0 0 0 0 0 0 0 0 0 0 0 0 0 .4 0"/><feOffset dx="4.0" dy="4.0" in="blurOut2" result="blurOut3"/><feBlend in="SourceGraphic" in2="blurOut3" mode="normal"/></filter></defs><g><!--MD5=[1e4e6550c0a479236a5b8295709cc78f]
class org.eclipse.epf.uma.presentation.UmaEditor--><a href="UmaEditor.html" target="_top" title="UmaEditor.html" xlink:actuate="onRequest" xlink:href="UmaEditor.html" xlink:show="new" xlink:title="UmaEditor.html" xlink:type="simple"><rect codeLine="5" fill="#FEFECE" filter="url(#f1g3480jmdkdzc)" height="449.4297" id="org.eclipse.epf.uma.presentation.UmaEditor" style="stroke: #A80036; stroke-width: 1.5;" width="350" x="603" y="171"/><ellipse cx="696.25" cy="191.0938" fill="#ADD1B2" rx="11" ry="11" style="stroke: #A80036; stroke-width: 1.0;"/><path d="M699.0156,186.9688 Q699.1719,186.75 699.3594,186.6406 Q699.5469,186.5313 699.7656,186.5313 Q700.1406,186.5313 700.375,186.7969 Q700.6094,187.0469 700.6094,187.6563 L700.6094,189.1094 Q700.6094,189.7188 700.375,189.9844 Q700.1406,190.25 699.7656,190.25 Q699.4219,190.25 699.2188,190.0469 Q699.0156,189.8594 698.9063,189.3438 Q698.8594,188.9844 698.6719,188.7969 Q698.3438,188.4219 697.7344,188.2031 Q697.125,187.9844 696.5,187.9844 Q695.7344,187.9844 695.0938,188.3125 Q694.4688,188.6406 693.9688,189.3906 Q693.4844,190.1406 693.4844,191.1719 L693.4844,192.2656 Q693.4844,193.5 694.375,194.3281 Q695.2656,195.1406 696.8594,195.1406 Q697.7969,195.1406 698.4531,194.8906 Q698.8438,194.7344 699.2656,194.2969 Q699.5313,194.0313 699.6719,193.9531 Q699.8281,193.875 700.0313,193.875 Q700.3594,193.875 700.6094,194.1406 Q700.875,194.3906 700.875,194.7344 Q700.875,195.0781 700.5313,195.4844 Q700.0313,196.0625 699.2344,196.3906 Q698.1563,196.8438 696.8594,196.8438 Q695.3438,196.8438 694.1406,196.2188 Q693.1563,195.7188 692.4688,194.6563 Q691.7813,193.5781 691.7813,192.2969 L691.7813,191.1406 Q691.7813,189.8125 692.3906,188.6719 Q693.0156,187.5156 694.1094,186.9063 Q695.2031,186.2813 696.4375,186.2813 Q697.1719,186.2813 697.8125,186.4531 Q698.4688,186.6094 699.0156,186.9688 Z "/><text fill="#000000" font-family="sans-serif" font-size="14" lengthAdjust="spacingAndGlyphs" textLength="65" x="761.75" y="190.5332">UmaEditor</text><text fill="#000000" font-family="sans-serif" font-size="10" lengthAdjust="spacingAndGlyphs" textLength="155" x="716.75" y="203.9902">org.eclipse.epf.uma.presentation</text><line style="stroke: #A80036; stroke-width: 1.5;" x1="604" x2="952" y1="211.1875" y2="211.1875"/><ellipse cx="614" cy="222.1875" fill="#84BE84" rx="3" ry="3" style="stroke: #038048; stroke-width: 1.0;"/><text fill="#000000" font-family="sans-serif" font-size="11" lengthAdjust="spacingAndGlyphs" textLength="205" x="623" y="226.6064">setSelectionToViewer(Collection&lt;?&gt;): void</text><ellipse cx="614" cy="236.0234" fill="#84BE84" rx="3" ry="3" style="stroke: #038048; stroke-width: 1.0;"/><text fill="#000000" font-family="sans-serif" font-size="11" lengthAdjust="spacingAndGlyphs" textLength="161" x="623" y="240.4424">getEditingDomain(): EditingDomain</text><ellipse cx="614" cy="249.8594" fill="#84BE84" rx="3" ry="3" style="stroke: #038048; stroke-width: 1.0;"/><text fill="#000000" font-family="sans-serif" font-size="11" lengthAdjust="spacingAndGlyphs" textLength="205" x="623" y="254.2783">setCurrentViewerPane(ViewerPane): void</text><ellipse cx="614" cy="263.6953" fill="#84BE84" rx="3" ry="3" style="stroke: #038048; stroke-width: 1.0;"/><text fill="#000000" font-family="sans-serif" font-size="11" lengthAdjust="spacingAndGlyphs" textLength="157" x="623" y="268.1143">setCurrentViewer(Viewer): void</text><ellipse cx="614" cy="277.5313" fill="#84BE84" rx="3" ry="3" style="stroke: #038048; stroke-width: 1.0;"/><text fill="#000000" font-family="sans-serif" font-size="11" lengthAdjust="spacingAndGlyphs" textLength="101" x="623" y="281.9502">getViewer(): Viewer</text><ellipse cx="614" cy="291.3672" fill="#84BE84" rx="3" ry="3" style="stroke: #038048; stroke-width: 1.0;"/><text fill="#000000" font-family="sans-serif" font-size="11" lengthAdjust="spacingAndGlyphs" textLength="93" x="623" y="295.7861">createModel(): void</text><ellipse cx="614" cy="305.2031" fill="#84BE84" rx="3" ry="3" style="stroke: #038048; stroke-width: 1.0;"/><text fill="#000000" font-family="sans-serif" font-size="11" lengthAdjust="spacingAndGlyphs" textLength="293" x="623" y="309.6221">analyzeResourceProblems(Resource, Exception): Diagnostic</text><ellipse cx="614" cy="319.0391" fill="#84BE84" rx="3" ry="3" style="stroke: #038048; stroke-width: 1.0;"/><text fill="#000000" font-family="sans-serif" font-size="11" lengthAdjust="spacingAndGlyphs" textLength="95" x="623" y="323.458">createPages(): void</text><ellipse cx="614" cy="332.875" fill="#84BE84" rx="3" ry="3" style="stroke: #038048; stroke-width: 1.0;"/><text fill="#000000" font-family="sans-serif" font-size="11" lengthAdjust="spacingAndGlyphs" textLength="119" x="623" y="337.2939">getAdapter(Class&lt;T&gt;): T</text><ellipse cx="614" cy="346.7109" fill="#84BE84" rx="3" ry="3" style="stroke: #038048; stroke-width: 1.0;"/><text fill="#000000" font-family="sans-serif" font-size="11" lengthAdjust="spacingAndGlyphs" textLength="219" x="623" y="351.1299">getContentOutlinePage(): IContentOutlinePage</text><ellipse cx="614" cy="360.5469" fill="#84BE84" rx="3" ry="3" style="stroke: #038048; stroke-width: 1.0;"/><text fill="#000000" font-family="sans-serif" font-size="11" lengthAdjust="spacingAndGlyphs" textLength="217" x="623" y="364.9658">getPropertySheetPage(): IPropertySheetPage</text><ellipse cx="614" cy="374.3828" fill="#84BE84" rx="3" ry="3" style="stroke: #038048; stroke-width: 1.0;"/><text fill="#000000" font-family="sans-serif" font-size="11" lengthAdjust="spacingAndGlyphs" textLength="226" x="623" y="378.8018">handleContentOutlineSelection(ISelection): void</text><ellipse cx="614" cy="388.2188" fill="#84BE84" rx="3" ry="3" style="stroke: #038048; stroke-width: 1.0;"/><text fill="#000000" font-family="sans-serif" font-size="11" lengthAdjust="spacingAndGlyphs" textLength="82" x="623" y="392.6377">isDirty(): boolean</text><ellipse cx="614" cy="402.0547" fill="#84BE84" rx="3" ry="3" style="stroke: #038048; stroke-width: 1.0;"/><text fill="#000000" font-family="sans-serif" font-size="11" lengthAdjust="spacingAndGlyphs" textLength="152" x="623" y="406.4736">doSave(IProgressMonitor): void</text><ellipse cx="614" cy="415.8906" fill="#84BE84" rx="3" ry="3" style="stroke: #038048; stroke-width: 1.0;"/><text fill="#000000" font-family="sans-serif" font-size="11" lengthAdjust="spacingAndGlyphs" textLength="139" x="623" y="420.3096">isSaveAsAllowed(): boolean</text><ellipse cx="614" cy="429.7266" fill="#84BE84" rx="3" ry="3" style="stroke: #038048; stroke-width: 1.0;"/><text fill="#000000" font-family="sans-serif" font-size="11" lengthAdjust="spacingAndGlyphs" textLength="85" x="623" y="434.1455">doSaveAs(): void</text><ellipse cx="614" cy="443.5625" fill="#84BE84" rx="3" ry="3" style="stroke: #038048; stroke-width: 1.0;"/><text fill="#000000" font-family="sans-serif" font-size="11" lengthAdjust="spacingAndGlyphs" textLength="123" x="623" y="447.9814">gotoMarker(IMarker): void</text><ellipse cx="614" cy="457.3984" fill="#84BE84" rx="3" ry="3" style="stroke: #038048; stroke-width: 1.0;"/><text fill="#000000" font-family="sans-serif" font-size="11" lengthAdjust="spacingAndGlyphs" textLength="152" x="623" y="461.8174">init(IEditorSite, IEditorInput): void</text><ellipse cx="614" cy="471.2344" fill="#84BE84" rx="3" ry="3" style="stroke: #038048; stroke-width: 1.0;"/><text fill="#000000" font-family="sans-serif" font-size="11" lengthAdjust="spacingAndGlyphs" textLength="79" x="623" y="475.6533">setFocus(): void</text><ellipse cx="614" cy="485.0703" fill="#84BE84" rx="3" ry="3" style="stroke: #038048; stroke-width: 1.0;"/><text fill="#000000" font-family="sans-serif" font-size="11" lengthAdjust="spacingAndGlyphs" textLength="306" x="623" y="489.4893">addSelectionChangedListener(ISelectionChangedListener): void</text><ellipse cx="614" cy="498.9063" fill="#84BE84" rx="3" ry="3" style="stroke: #038048; stroke-width: 1.0;"/><text fill="#000000" font-family="sans-serif" font-size="11" lengthAdjust="spacingAndGlyphs" textLength="324" x="623" y="503.3252">removeSelectionChangedListener(ISelectionChangedListener): void</text><ellipse cx="614" cy="512.7422" fill="#84BE84" rx="3" ry="3" style="stroke: #038048; stroke-width: 1.0;"/><text fill="#000000" font-family="sans-serif" font-size="11" lengthAdjust="spacingAndGlyphs" textLength="119" x="623" y="517.1611">getSelection(): ISelection</text><ellipse cx="614" cy="526.5781" fill="#84BE84" rx="3" ry="3" style="stroke: #038048; stroke-width: 1.0;"/><text fill="#000000" font-family="sans-serif" font-size="11" lengthAdjust="spacingAndGlyphs" textLength="139" x="623" y="530.9971">setSelection(ISelection): void</text><ellipse cx="614" cy="540.4141" fill="#84BE84" rx="3" ry="3" style="stroke: #038048; stroke-width: 1.0;"/><text fill="#000000" font-family="sans-serif" font-size="11" lengthAdjust="spacingAndGlyphs" textLength="188" x="623" y="544.833">setStatusLineManager(ISelection): void</text><ellipse cx="614" cy="554.25" fill="#84BE84" rx="3" ry="3" style="stroke: #038048; stroke-width: 1.0;"/><text fill="#000000" font-family="sans-serif" font-size="11" lengthAdjust="spacingAndGlyphs" textLength="200" x="623" y="558.6689">menuAboutToShow(IMenuManager): void</text><ellipse cx="614" cy="568.0859" fill="#84BE84" rx="3" ry="3" style="stroke: #038048; stroke-width: 1.0;"/><text fill="#000000" font-family="sans-serif" font-size="11" lengthAdjust="spacingAndGlyphs" textLength="297" x="623" y="572.5049">getActionBarContributor(): EditingDomainActionBarContributor</text><ellipse cx="614" cy="581.9219" fill="#84BE84" rx="3" ry="3" style="stroke: #038048; stroke-width: 1.0;"/><text fill="#000000" font-family="sans-serif" font-size="11" lengthAdjust="spacingAndGlyphs" textLength="139" x="623" y="586.3408">getActionBars(): IActionBars</text><ellipse cx="614" cy="595.7578" fill="#84BE84" rx="3" ry="3" style="stroke: #038048; stroke-width: 1.0;"/><text fill="#000000" font-family="sans-serif" font-size="11" lengthAdjust="spacingAndGlyphs" textLength="181" x="623" y="600.1768">getAdapterFactory(): AdapterFactory</text><ellipse cx="614" cy="609.5938" fill="#84BE84" rx="3" ry="3" style="stroke: #038048; stroke-width: 1.0;"/><text fill="#000000" font-family="sans-serif" font-size="11" lengthAdjust="spacingAndGlyphs" textLength="72" x="623" y="614.0127">dispose(): void</text></a><!--MD5=[6fdb25ac3b434d8a13a5eb69f385947a]
class org.eclipse.ui.part.MultiPageEditorPart--><rect codeLine="37" fill="#FEFECE" filter="url(#f1g3480jmdkdzc)" height="40.1875" id="org.eclipse.ui.part.MultiPageEditorPart" style="stroke: #A80036; stroke-width: 1.5;" width="158" x="7" y="39"/><ellipse cx="22" cy="59.0938" fill="#A9DCDF" rx="11" ry="11" style="stroke: #A80036; stroke-width: 1.0;"/><path d="M24.1875,60.8594 L20.0469,60.8594 L19.625,61.8906 L20.0469,61.8906 Q20.6563,61.8906 20.9219,62.125 Q21.1875,62.3594 21.1875,62.75 Q21.1875,63.125 20.9219,63.3594 Q20.6563,63.5938 20.0469,63.5938 L17.75,63.5938 Q17.1406,63.5938 16.8906,63.3594 Q16.625,63.125 16.625,62.7344 Q16.625,62.3594 16.9063,62.125 Q17.1719,61.875 17.7969,61.8906 L20.4688,55.2344 L19.3594,55.2344 Q18.75,55.2344 18.4844,55 Q18.2188,54.7656 18.2188,54.375 Q18.2188,54 18.4844,53.7656 Q18.75,53.5313 19.3594,53.5313 L23.0313,53.5313 L26.4219,61.8906 Q27.0156,61.8906 27.2031,62.0313 Q27.5938,62.2969 27.5938,62.75 Q27.5938,63.125 27.3281,63.3594 Q27.0781,63.5938 26.4688,63.5938 L24.1719,63.5938 Q23.5625,63.5938 23.2969,63.3594 Q23.0313,63.125 23.0313,62.7344 Q23.0313,62.3594 23.2969,62.125 Q23.5625,61.8906 24.1719,61.8906 L24.5938,61.8906 L24.1875,60.8594 Z M23.4688,59.1563 L22.1094,55.7813 L20.7344,59.1563 L23.4688,59.1563 Z "/><text fill="#000000" font-family="sans-serif" font-size="14" font-style="italic" lengthAdjust="spacingAndGlyphs" textLength="126" x="36" y="58.5332">MultiPageEditorPart</text><text fill="#000000" font-family="sans-serif" font-size="10" font-style="italic" lengthAdjust="spacingAndGlyphs" textLength="85" x="56.5" y="71.9902">org.eclipse.ui.part</text><!--MD5=[74d376f71833063a5f8bfddf21aa78ab]
class org.eclipse.emf.edit.domain.IEditingDomainProvider--><rect codeLine="39" fill="#FEFECE" filter="url(#f1g3480jmdkdzc)" height="62.0234" id="org.eclipse.emf.edit.domain.IEditingDomainProvider" style="stroke: #A80036; stroke-width: 1.5;" width="199" x="200.5" y="28"/><ellipse cx="224.5" cy="48.0938" fill="#B4A7E5" rx="11" ry="11" style="stroke: #A80036; stroke-width: 1.0;"/><path d="M225.4531,44.7344 L225.4531,51.3906 L227.1719,51.3906 Q227.7813,51.3906 228.0469,51.625 Q228.3125,51.8594 228.3125,52.25 Q228.3125,52.625 228.0469,52.8594 Q227.7813,53.0938 227.1719,53.0938 L222.0313,53.0938 Q221.4219,53.0938 221.1563,52.8594 Q220.8906,52.625 220.8906,52.2344 Q220.8906,51.8594 221.1563,51.625 Q221.4219,51.3906 222.0313,51.3906 L223.75,51.3906 L223.75,44.7344 L222.0313,44.7344 Q221.4219,44.7344 221.1563,44.5 Q220.8906,44.2656 220.8906,43.875 Q220.8906,43.5 221.1563,43.2656 Q221.4219,43.0313 222.0313,43.0313 L227.1719,43.0313 Q227.7813,43.0313 228.0469,43.2656 Q228.3125,43.5 228.3125,43.875 Q228.3125,44.2656 228.0469,44.5 Q227.7813,44.7344 227.1719,44.7344 L225.4531,44.7344 Z "/><text fill="#000000" font-family="sans-serif" font-size="14" font-style="italic" lengthAdjust="spacingAndGlyphs" textLength="147" x="240.5" y="47.5332">IEditingDomainProvider</text><text fill="#000000" font-family="sans-serif" font-size="10" font-style="italic" lengthAdjust="spacingAndGlyphs" textLength="129" x="249.5" y="60.9902">org.eclipse.emf.edit.domain</text><line style="stroke: #A80036; stroke-width: 1.5;" x1="201.5" x2="398.5" y1="68.1875" y2="68.1875"/><ellipse cx="211.5" cy="79.1875" fill="#84BE84" rx="3" ry="3" style="stroke: #038048; stroke-width: 1.0;"/><text fill="#000000" font-family="sans-serif" font-size="11" font-style="italic" lengthAdjust="spacingAndGlyphs" textLength="173" x="220.5" y="83.6064">getEditingDomain(): EditingDomain</text><!--MD5=[9c024d31dc7b9be30bb76d3faa8e2822]
class org.eclipse.jface.viewers.ISelectionProvider--><rect codeLine="42" fill="#FEFECE" filter="url(#f1g3480jmdkdzc)" height="103.5313" id="org.eclipse.jface.viewers.ISelectionProvider" style="stroke: #A80036; stroke-width: 1.5;" width="359" x="434.5" y="7"/><ellipse cx="551.75" cy="27.0938" fill="#B4A7E5" rx="11" ry="11" style="stroke: #A80036; stroke-width: 1.0;"/><path d="M552.7031,23.7344 L552.7031,30.3906 L554.4219,30.3906 Q555.0313,30.3906 555.2969,30.625 Q555.5625,30.8594 555.5625,31.25 Q555.5625,31.625 555.2969,31.8594 Q555.0313,32.0938 554.4219,32.0938 L549.2813,32.0938 Q548.6719,32.0938 548.4063,31.8594 Q548.1406,31.625 548.1406,31.2344 Q548.1406,30.8594 548.4063,30.625 Q548.6719,30.3906 549.2813,30.3906 L551,30.3906 L551,23.7344 L549.2813,23.7344 Q548.6719,23.7344 548.4063,23.5 Q548.1406,23.2656 548.1406,22.875 Q548.1406,22.5 548.4063,22.2656 Q548.6719,22.0313 549.2813,22.0313 L554.4219,22.0313 Q555.0313,22.0313 555.2969,22.2656 Q555.5625,22.5 555.5625,22.875 Q555.5625,23.2656 555.2969,23.5 Q555.0313,23.7344 554.4219,23.7344 L552.7031,23.7344 Z "/><text fill="#000000" font-family="sans-serif" font-size="14" font-style="italic" lengthAdjust="spacingAndGlyphs" textLength="114" x="573.25" y="26.5332">ISelectionProvider</text><text fill="#000000" font-family="sans-serif" font-size="10" font-style="italic" lengthAdjust="spacingAndGlyphs" textLength="116" x="572.25" y="39.9902">org.eclipse.jface.viewers</text><line style="stroke: #A80036; stroke-width: 1.5;" x1="435.5" x2="792.5" y1="47.1875" y2="47.1875"/><ellipse cx="445.5" cy="58.1875" fill="#84BE84" rx="3" ry="3" style="stroke: #038048; stroke-width: 1.0;"/><text fill="#000000" font-family="sans-serif" font-size="11" font-style="italic" lengthAdjust="spacingAndGlyphs" textLength="315" x="454.5" y="62.6064">addSelectionChangedListener(ISelectionChangedListener): void</text><ellipse cx="445.5" cy="72.0234" fill="#84BE84" rx="3" ry="3" style="stroke: #038048; stroke-width: 1.0;"/><text fill="#000000" font-family="sans-serif" font-size="11" font-style="italic" lengthAdjust="spacingAndGlyphs" textLength="124" x="454.5" y="76.4424">getSelection(): ISelection</text><ellipse cx="445.5" cy="85.8594" fill="#84BE84" rx="3" ry="3" style="stroke: #038048; stroke-width: 1.0;"/><text fill="#000000" font-family="sans-serif" font-size="11" font-style="italic" lengthAdjust="spacingAndGlyphs" textLength="333" x="454.5" y="90.2783">removeSelectionChangedListener(ISelectionChangedListener): void</text><ellipse cx="445.5" cy="99.6953" fill="#84BE84" rx="3" ry="3" style="stroke: #038048; stroke-width: 1.0;"/><text fill="#000000" font-family="sans-serif" font-size="11" font-style="italic" lengthAdjust="spacingAndGlyphs" textLength="144" x="454.5" y="104.1143">setSelection(ISelection): void</text><!--MD5=[17ea9c87806730ec5196b70dd3845378]
class org.eclipse.jface.action.IMenuListener--><rect codeLine="48" fill="#FEFECE" filter="url(#f1g3480jmdkdzc)" height="62.0234" id="org.eclipse.jface.action.IMenuListener" style="stroke: #A80036; stroke-width: 1.5;" width="228" x="829" y="28"/><ellipse cx="884.25" cy="48.0938" fill="#B4A7E5" rx="11" ry="11" style="stroke: #A80036; stroke-width: 1.0;"/><path d="M885.2031,44.7344 L885.2031,51.3906 L886.9219,51.3906 Q887.5313,51.3906 887.7969,51.625 Q888.0625,51.8594 888.0625,52.25 Q888.0625,52.625 887.7969,52.8594 Q887.5313,53.0938 886.9219,53.0938 L881.7813,53.0938 Q881.1719,53.0938 880.9063,52.8594 Q880.6406,52.625 880.6406,52.2344 Q880.6406,51.8594 880.9063,51.625 Q881.1719,51.3906 881.7813,51.3906 L883.5,51.3906 L883.5,44.7344 L881.7813,44.7344 Q881.1719,44.7344 880.9063,44.5 Q880.6406,44.2656 880.6406,43.875 Q880.6406,43.5 880.9063,43.2656 Q881.1719,43.0313 881.7813,43.0313 L886.9219,43.0313 Q887.5313,43.0313 887.7969,43.2656 Q888.0625,43.5 888.0625,43.875 Q888.0625,44.2656 887.7969,44.5 Q887.5313,44.7344 886.9219,44.7344 L885.2031,44.7344 Z "/><text fill="#000000" font-family="sans-serif" font-size="14" font-style="italic" lengthAdjust="spacingAndGlyphs" textLength="91" x="913.75" y="47.5332">IMenuListener</text><text fill="#000000" font-family="sans-serif" font-size="10" font-style="italic" lengthAdjust="spacingAndGlyphs" textLength="109" x="904.75" y="60.9902">org.eclipse.jface.action</text><line style="stroke: #A80036; stroke-width: 1.5;" x1="830" x2="1056" y1="68.1875" y2="68.1875"/><ellipse cx="840" cy="79.1875" fill="#84BE84" rx="3" ry="3" style="stroke: #038048; stroke-width: 1.0;"/><text fill="#000000" font-family="sans-serif" font-size="11" font-style="italic" lengthAdjust="spacingAndGlyphs" textLength="202" x="849" y="83.6064">menuAboutToShow(IMenuManager): void</text><!--MD5=[4c9c49e2abcb15eaf9c3d3d2c549ae8a]
class org.eclipse.emf.common.ui.viewer.IViewerProvider--><rect codeLine="51" fill="#FEFECE" filter="url(#f1g3480jmdkdzc)" height="62.0234" id="org.eclipse.emf.common.ui.viewer.IViewerProvider" style="stroke: #A80036; stroke-width: 1.5;" width="189" x="1092.5" y="28"/><ellipse cx="1107.5" cy="48.0938" fill="#B4A7E5" rx="11" ry="11" style="stroke: #A80036; stroke-width: 1.0;"/><path d="M1108.4531,44.7344 L1108.4531,51.3906 L1110.1719,51.3906 Q1110.7813,51.3906 1111.0469,51.625 Q1111.3125,51.8594 1111.3125,52.25 Q1111.3125,52.625 1111.0469,52.8594 Q1110.7813,53.0938 1110.1719,53.0938 L1105.0313,53.0938 Q1104.4219,53.0938 1104.1563,52.8594 Q1103.8906,52.625 1103.8906,52.2344 Q1103.8906,51.8594 1104.1563,51.625 Q1104.4219,51.3906 1105.0313,51.3906 L1106.75,51.3906 L1106.75,44.7344 L1105.0313,44.7344 Q1104.4219,44.7344 1104.1563,44.5 Q1103.8906,44.2656 1103.8906,43.875 Q1103.8906,43.5 1104.1563,43.2656 Q1104.4219,43.0313 1105.0313,43.0313 L1110.1719,43.0313 Q1110.7813,43.0313 1111.0469,43.2656 Q1111.3125,43.5 1111.3125,43.875 Q1111.3125,44.2656 1111.0469,44.5 Q1110.7813,44.7344 1110.1719,44.7344 L1108.4531,44.7344 Z "/><text fill="#000000" font-family="sans-serif" font-size="14" font-style="italic" lengthAdjust="spacingAndGlyphs" textLength="98" x="1151" y="47.5332">IViewerProvider</text><text fill="#000000" font-family="sans-serif" font-size="10" font-style="italic" lengthAdjust="spacingAndGlyphs" textLength="157" x="1121.5" y="60.9902">org.eclipse.emf.common.ui.viewer</text><line style="stroke: #A80036; stroke-width: 1.5;" x1="1093.5" x2="1280.5" y1="68.1875" y2="68.1875"/><ellipse cx="1103.5" cy="79.1875" fill="#84BE84" rx="3" ry="3" style="stroke: #038048; stroke-width: 1.0;"/><text fill="#000000" font-family="sans-serif" font-size="11" font-style="italic" lengthAdjust="spacingAndGlyphs" textLength="95" x="1112.5" y="83.6064">getViewer(): Viewer</text><!--MD5=[85ab7cb6cfa0967b14961a79d05faf54]
class org.eclipse.ui.ide.IGotoMarker--><rect codeLine="54" fill="#FEFECE" filter="url(#f1g3480jmdkdzc)" height="62.0234" id="org.eclipse.ui.ide.IGotoMarker" style="stroke: #A80036; stroke-width: 1.5;" width="154" x="1317" y="28"/><ellipse cx="1350" cy="48.0938" fill="#B4A7E5" rx="11" ry="11" style="stroke: #A80036; stroke-width: 1.0;"/><path d="M1350.9531,44.7344 L1350.9531,51.3906 L1352.6719,51.3906 Q1353.2813,51.3906 1353.5469,51.625 Q1353.8125,51.8594 1353.8125,52.25 Q1353.8125,52.625 1353.5469,52.8594 Q1353.2813,53.0938 1352.6719,53.0938 L1347.5313,53.0938 Q1346.9219,53.0938 1346.6563,52.8594 Q1346.3906,52.625 1346.3906,52.2344 Q1346.3906,51.8594 1346.6563,51.625 Q1346.9219,51.3906 1347.5313,51.3906 L1349.25,51.3906 L1349.25,44.7344 L1347.5313,44.7344 Q1346.9219,44.7344 1346.6563,44.5 Q1346.3906,44.2656 1346.3906,43.875 Q1346.3906,43.5 1346.6563,43.2656 Q1346.9219,43.0313 1347.5313,43.0313 L1352.6719,43.0313 Q1353.2813,43.0313 1353.5469,43.2656 Q1353.8125,43.5 1353.8125,43.875 Q1353.8125,44.2656 1353.5469,44.5 Q1353.2813,44.7344 1352.6719,44.7344 L1350.9531,44.7344 Z "/><text fill="#000000" font-family="sans-serif" font-size="14" font-style="italic" lengthAdjust="spacingAndGlyphs" textLength="81" x="1368.5" y="47.5332">IGotoMarker</text><text fill="#000000" font-family="sans-serif" font-size="10" font-style="italic" lengthAdjust="spacingAndGlyphs" textLength="82" x="1368" y="60.9902">org.eclipse.ui.ide</text><line style="stroke: #A80036; stroke-width: 1.5;" x1="1318" x2="1470" y1="68.1875" y2="68.1875"/><ellipse cx="1328" cy="79.1875" fill="#84BE84" rx="3" ry="3" style="stroke: #038048; stroke-width: 1.0;"/><text fill="#000000" font-family="sans-serif" font-size="11" font-style="italic" lengthAdjust="spacingAndGlyphs" textLength="128" x="1337" y="83.6064">gotoMarker(IMarker): void</text><!--MD5=[2eb759f53f33afd3a08956eb114727ed]
class org.eclipse.epf.uma.presentation.UmaEditor.ReverseAdapterFactoryContentProvider--><a href="UmaEditor.ReverseAdapterFactoryContentProvider.html" target="_top" title="UmaEditor.ReverseAdapterFactoryContentProvider.html" xlink:actuate="onRequest" xlink:href="UmaEditor.ReverseAdapterFactoryContentProvider.html" xlink:show="new" xlink:title="UmaEditor.ReverseAdapterFactoryContentProvider.html" xlink:type="simple"><rect codeLine="57" fill="#FEFECE" filter="url(#f1g3480jmdkdzc)" height="40.1875" id="org.eclipse.epf.uma.presentation.UmaEditor.ReverseAdapterFactoryContentProvider" style="stroke: #A80036; stroke-width: 1.5;" width="355" x="600.5" y="680"/><ellipse cx="615.5" cy="700.0938" fill="#ADD1B2" rx="11" ry="11" style="stroke: #A80036; stroke-width: 1.0;"/><path d="M618.2656,695.9688 Q618.4219,695.75 618.6094,695.6406 Q618.7969,695.5313 619.0156,695.5313 Q619.3906,695.5313 619.625,695.7969 Q619.8594,696.0469 619.8594,696.6563 L619.8594,698.1094 Q619.8594,698.7188 619.625,698.9844 Q619.3906,699.25 619.0156,699.25 Q618.6719,699.25 618.4688,699.0469 Q618.2656,698.8594 618.1563,698.3438 Q618.1094,697.9844 617.9219,697.7969 Q617.5938,697.4219 616.9844,697.2031 Q616.375,696.9844 615.75,696.9844 Q614.9844,696.9844 614.3438,697.3125 Q613.7188,697.6406 613.2188,698.3906 Q612.7344,699.1406 612.7344,700.1719 L612.7344,701.2656 Q612.7344,702.5 613.625,703.3281 Q614.5156,704.1406 616.1094,704.1406 Q617.0469,704.1406 617.7031,703.8906 Q618.0938,703.7344 618.5156,703.2969 Q618.7813,703.0313 618.9219,702.9531 Q619.0781,702.875 619.2813,702.875 Q619.6094,702.875 619.8594,703.1406 Q620.125,703.3906 620.125,703.7344 Q620.125,704.0781 619.7813,704.4844 Q619.2813,705.0625 618.4844,705.3906 Q617.4063,705.8438 616.1094,705.8438 Q614.5938,705.8438 613.3906,705.2188 Q612.4063,704.7188 611.7188,703.6563 Q611.0313,702.5781 611.0313,701.2969 L611.0313,700.1406 Q611.0313,698.8125 611.6406,697.6719 Q612.2656,696.5156 613.3594,695.9063 Q614.4531,695.2813 615.6875,695.2813 Q616.4219,695.2813 617.0625,695.4531 Q617.7188,695.6094 618.2656,695.9688 Z "/><text fill="#000000" font-family="sans-serif" font-size="14" lengthAdjust="spacingAndGlyphs" textLength="323" x="629.5" y="699.5332">UmaEditor.ReverseAdapterFactoryContentProvider</text><text fill="#000000" font-family="sans-serif" font-size="10" lengthAdjust="spacingAndGlyphs" textLength="155" x="713.5" y="712.9902">org.eclipse.epf.uma.presentation</text></a><!--MD5=[fcad620a372958017b68ad1b9bbf1e19]
reverse link org.eclipse.ui.part.MultiPageEditorPart to org.eclipse.epf.uma.presentation.UmaEditor--><path codeLine="59" d="M139.46,88.59 C153.56,96 168.81,103.89 183,111 C323.16,181.2 483.71,257.46 602.68,313.19 " fill="none" id="org.eclipse.ui.part.MultiPageEditorPart-backto-org.eclipse.epf.uma.presentation.UmaEditor" style="stroke: #A80036; stroke-width: 1.0;"/><polygon fill="none" points="136.17,94.77,121.76,79.23,142.71,82.39,136.17,94.77" style="stroke: #A80036; stroke-width: 1.0;"/><!--MD5=[6f1c233106fa8798a4ef3688dd109ed8]
reverse link org.eclipse.emf.edit.domain.IEditingDomainProvider to org.eclipse.epf.uma.presentation.UmaEditor--><path codeLine="60" d="M359.77,101.82 C420.5,144.32 517.52,212.22 602.83,271.91 " fill="none" id="org.eclipse.emf.edit.domain.IEditingDomainProvider-backto-org.eclipse.epf.uma.presentation.UmaEditor" style="stroke: #A80036; stroke-width: 1.0; stroke-dasharray: 7.0,7.0;"/><polygon fill="none" points="355.64,107.48,343.26,90.27,363.66,96.01,355.64,107.48" style="stroke: #A80036; stroke-width: 1.0;"/><!--MD5=[12bace9ffe9b703bab44cf07f92681cf]
reverse link org.eclipse.jface.viewers.ISelectionProvider to org.eclipse.epf.uma.presentation.UmaEditor--><path codeLine="61" d="M648.09,129.53 C654.33,142.27 661.15,156.17 668.28,170.71 " fill="none" id="org.eclipse.jface.viewers.ISelectionProvider-backto-org.eclipse.epf.uma.presentation.UmaEditor" style="stroke: #A80036; stroke-width: 1.0; stroke-dasharray: 7.0,7.0;"/><polygon fill="none" points="641.61,132.21,639.09,111.17,654.18,126.04,641.61,132.21" style="stroke: #A80036; stroke-width: 1.0;"/><!--MD5=[5296d830859403bd76f99c2061db6608]
reverse link org.eclipse.jface.action.IMenuListener to org.eclipse.epf.uma.presentation.UmaEditor--><path codeLine="62" d="M919.17,108.32 C910.4,126.08 899.81,147.55 888.42,170.65 " fill="none" id="org.eclipse.jface.action.IMenuListener-backto-org.eclipse.epf.uma.presentation.UmaEditor" style="stroke: #A80036; stroke-width: 1.0; stroke-dasharray: 7.0,7.0;"/><polygon fill="none" points="912.94,105.11,928.07,90.27,925.5,111.31,912.94,105.11" style="stroke: #A80036; stroke-width: 1.0;"/><!--MD5=[138a15066bf9824fbc23f5b3f432c0fd]
reverse link org.eclipse.emf.common.ui.viewer.IViewerProvider to org.eclipse.epf.uma.presentation.UmaEditor--><path codeLine="63" d="M1134.41,103.01 C1088.31,140.72 1018.59,197.74 953,251.38 " fill="none" id="org.eclipse.emf.common.ui.viewer.IViewerProvider-backto-org.eclipse.epf.uma.presentation.UmaEditor" style="stroke: #A80036; stroke-width: 1.0; stroke-dasharray: 7.0,7.0;"/><polygon fill="none" points="1130.07,97.52,1149.98,90.27,1138.93,108.35,1130.07,97.52" style="stroke: #A80036; stroke-width: 1.0;"/><!--MD5=[38de648be2cc784dd843e282b277a8a0]
reverse link org.eclipse.ui.ide.IGotoMarker to org.eclipse.epf.uma.presentation.UmaEditor--><path codeLine="64" d="M1320.88,99.71 C1230.8,148.62 1074.77,233.35 953.04,299.45 " fill="none" id="org.eclipse.ui.ide.IGotoMarker-backto-org.eclipse.epf.uma.presentation.UmaEditor" style="stroke: #A80036; stroke-width: 1.0; stroke-dasharray: 7.0,7.0;"/><polygon fill="none" points="1317.6,93.52,1338.52,90.13,1324.28,105.82,1317.6,93.52" style="stroke: #A80036; stroke-width: 1.0;"/><!--MD5=[a8da1450cf55ca2f2dd2cebdcfe9036a]
reverse link org.eclipse.epf.uma.presentation.UmaEditor to org.eclipse.epf.uma.presentation.UmaEditor.ReverseAdapterFactoryContentProvider--><path codeLine="65" d="M778,635.44 C778,653.24 778,668.56 778,679.7 " fill="none" id="org.eclipse.epf.uma.presentation.UmaEditor-backto-org.eclipse.epf.uma.presentation.UmaEditor.ReverseAdapterFactoryContentProvider" style="stroke: #A80036; stroke-width: 1.0;"/><ellipse cx="778" cy="628.31" fill="#FFFFFF" rx="8" ry="8" style="stroke: #A80036; stroke-width: 1.0;"/><line style="stroke: #A80036; stroke-width: 1.0;" x1="778" x2="778" y1="636.31" y2="620.31"/><line style="stroke: #A80036; stroke-width: 1.0;" x1="770" x2="786" y1="628.31" y2="628.31"/><text fill="#888888" font-family="sans-serif" font-size="10" lengthAdjust="spacingAndGlyphs" textLength="190" x="641" y="743.5684">UMLDoclet 2.0.12, PlantUML 1.2020.16</text><!--MD5=[817883b4a45adbcd64800a86c4315aab]
@startuml
    set namespaceSeparator none
    hide empty fields
    hide empty methods

    class "<size:14>UmaEditor\n<size:10>org.eclipse.epf.uma.presentation" as org.eclipse.epf.uma.presentation.UmaEditor [[UmaEditor.html]] {
        +setSelectionToViewer(Collection<?>): void
        +getEditingDomain(): EditingDomain
        +setCurrentViewerPane(ViewerPane): void
        +setCurrentViewer(Viewer): void
        +getViewer(): Viewer
        +createModel(): void
        +analyzeResourceProblems(Resource, Exception): Diagnostic
        +createPages(): void
        +getAdapter(Class<T>): T
        +getContentOutlinePage(): IContentOutlinePage
        +getPropertySheetPage(): IPropertySheetPage
        +handleContentOutlineSelection(ISelection): void
        +isDirty(): boolean
        +doSave(IProgressMonitor): void
        +isSaveAsAllowed(): boolean
        +doSaveAs(): void
        +gotoMarker(IMarker): void
        +init(IEditorSite, IEditorInput): void
        +setFocus(): void
        +addSelectionChangedListener(ISelectionChangedListener): void
        +removeSelectionChangedListener(ISelectionChangedListener): void
        +getSelection(): ISelection
        +setSelection(ISelection): void
        +setStatusLineManager(ISelection): void
        +menuAboutToShow(IMenuManager): void
        +getActionBarContributor(): EditingDomainActionBarContributor
        +getActionBars(): IActionBars
        +getAdapterFactory(): AdapterFactory
        +dispose(): void
    }

    abstract class "<size:14>MultiPageEditorPart\n<size:10>org.eclipse.ui.part" as org.eclipse.ui.part.MultiPageEditorPart {
    }
    interface "<size:14>IEditingDomainProvider\n<size:10>org.eclipse.emf.edit.domain" as org.eclipse.emf.edit.domain.IEditingDomainProvider {
        {abstract} +getEditingDomain(): EditingDomain
    }
    interface "<size:14>ISelectionProvider\n<size:10>org.eclipse.jface.viewers" as org.eclipse.jface.viewers.ISelectionProvider {
        {abstract} +addSelectionChangedListener(ISelectionChangedListener): void
        {abstract} +getSelection(): ISelection
        {abstract} +removeSelectionChangedListener(ISelectionChangedListener): void
        {abstract} +setSelection(ISelection): void
    }
    interface "<size:14>IMenuListener\n<size:10>org.eclipse.jface.action" as org.eclipse.jface.action.IMenuListener {
        {abstract} +menuAboutToShow(IMenuManager): void
    }
    interface "<size:14>IViewerProvider\n<size:10>org.eclipse.emf.common.ui.viewer" as org.eclipse.emf.common.ui.viewer.IViewerProvider {
        {abstract} +getViewer(): Viewer
    }
    interface "<size:14>IGotoMarker\n<size:10>org.eclipse.ui.ide" as org.eclipse.ui.ide.IGotoMarker {
        {abstract} +gotoMarker(IMarker): void
    }
    class "<size:14>UmaEditor.ReverseAdapterFactoryContentProvider\n<size:10>org.eclipse.epf.uma.presentation" as org.eclipse.epf.uma.presentation.UmaEditor.ReverseAdapterFactoryContentProvider [[UmaEditor.ReverseAdapterFactoryContentProvider.html]]

    org.eclipse.ui.part.MultiPageEditorPart <|- - org.eclipse.epf.uma.presentation.UmaEditor
    org.eclipse.emf.edit.domain.IEditingDomainProvider <|.. org.eclipse.epf.uma.presentation.UmaEditor
    org.eclipse.jface.viewers.ISelectionProvider <|.. org.eclipse.epf.uma.presentation.UmaEditor
    org.eclipse.jface.action.IMenuListener <|.. org.eclipse.epf.uma.presentation.UmaEditor
    org.eclipse.emf.common.ui.viewer.IViewerProvider <|.. org.eclipse.epf.uma.presentation.UmaEditor
    org.eclipse.ui.ide.IGotoMarker <|.. org.eclipse.epf.uma.presentation.UmaEditor
    org.eclipse.epf.uma.presentation.UmaEditor +- - org.eclipse.epf.uma.presentation.UmaEditor.ReverseAdapterFactoryContentProvider

    center footer UMLDoclet 2.0.12, PlantUML 1.2020.16
@enduml

PlantUML version 1.2020.16(Sun Aug 23 22:20:43 CEST 2020)
(APACHE source distribution)
Java Runtime: Java(TM) SE Runtime Environment
JVM: Java HotSpot(TM) 64-Bit Server VM
Default Encoding: Cp1252
Language: es
Country: ES
--></g></svg>