<?xml version="1.0" encoding="UTF-8" standalone="no"?><svg xmlns="http://www.w3.org/2000/svg" xmlns:xlink="http://www.w3.org/1999/xlink" contentScriptType="application/ecmascript" contentStyleType="text/css" height="261px" preserveAspectRatio="none" style="width:440px;height:261px;" version="1.1" viewBox="0 0 440 261" width="440px" zoomAndPan="magnify"><defs><filter height="300%" id="fnuafbnszp7u9" width="300%" x="-1" y="-1"><feGaussianBlur result="blurOut" stdDeviation="2.0"/><feColorMatrix in="blurOut" result="blurOut2" type="matrix" values="0 0 0 0 0 0 0 0 0 0 0 0 0 0 0 0 0 0 .4 0"/><feOffset dx="4.0" dy="4.0" in="blurOut2" result="blurOut3"/><feBlend in="SourceGraphic" in2="blurOut3" mode="normal"/></filter></defs><g><!--MD5=[d7c48869fc2ef8ff4a22187093a556d7]
class org.eclipse.epf.uma.presentation.UmaModelWizard.UmaModelWizardInitialObjectCreationPage--><a href="UmaModelWizard.UmaModelWizardInitialObjectCreationPage.html" target="_top" title="UmaModelWizard.UmaModelWizardInitialObjectCreationPage.html" xlink:actuate="onRequest" xlink:href="UmaModelWizard.UmaModelWizardInitialObjectCreationPage.html" xlink:show="new" xlink:title="UmaModelWizard.UmaModelWizardInitialObjectCreationPage.html" xlink:type="simple"><rect codeLine="5" fill="#FEFECE" filter="url(#fnuafbnszp7u9)" height="117.3672" id="org.eclipse.epf.uma.presentation.UmaModelWizard.UmaModelWizardInitialObjectCreationPage" style="stroke: #A80036; stroke-width: 1.5;" width="414" x="7" y="107"/><ellipse cx="22" cy="127.0938" fill="#ADD1B2" rx="11" ry="11" style="stroke: #A80036; stroke-width: 1.0;"/><path d="M24.7656,122.9688 Q24.9219,122.75 25.1094,122.6406 Q25.2969,122.5313 25.5156,122.5313 Q25.8906,122.5313 26.125,122.7969 Q26.3594,123.0469 26.3594,123.6563 L26.3594,125.1094 Q26.3594,125.7188 26.125,125.9844 Q25.8906,126.25 25.5156,126.25 Q25.1719,126.25 24.9688,126.0469 Q24.7656,125.8594 24.6563,125.3438 Q24.6094,124.9844 24.4219,124.7969 Q24.0938,124.4219 23.4844,124.2031 Q22.875,123.9844 22.25,123.9844 Q21.4844,123.9844 20.8438,124.3125 Q20.2188,124.6406 19.7188,125.3906 Q19.2344,126.1406 19.2344,127.1719 L19.2344,128.2656 Q19.2344,129.5 20.125,130.3281 Q21.0156,131.1406 22.6094,131.1406 Q23.5469,131.1406 24.2031,130.8906 Q24.5938,130.7344 25.0156,130.2969 Q25.2813,130.0313 25.4219,129.9531 Q25.5781,129.875 25.7813,129.875 Q26.1094,129.875 26.3594,130.1406 Q26.625,130.3906 26.625,130.7344 Q26.625,131.0781 26.2813,131.4844 Q25.7813,132.0625 24.9844,132.3906 Q23.9063,132.8438 22.6094,132.8438 Q21.0938,132.8438 19.8906,132.2188 Q18.9063,131.7188 18.2188,130.6563 Q17.5313,129.5781 17.5313,128.2969 L17.5313,127.1406 Q17.5313,125.8125 18.1406,124.6719 Q18.7656,123.5156 19.8594,122.9063 Q20.9531,122.2813 22.1875,122.2813 Q22.9219,122.2813 23.5625,122.4531 Q24.2188,122.6094 24.7656,122.9688 Z "/><text fill="#000000" font-family="sans-serif" font-size="14" lengthAdjust="spacingAndGlyphs" textLength="382" x="36" y="126.5332">UmaModelWizard.UmaModelWizardInitialObjectCreationPage</text><text fill="#000000" font-family="sans-serif" font-size="10" lengthAdjust="spacingAndGlyphs" textLength="155" x="149.5" y="139.9902">org.eclipse.epf.uma.presentation</text><line style="stroke: #A80036; stroke-width: 1.5;" x1="8" x2="420" y1="147.1875" y2="147.1875"/><ellipse cx="18" cy="158.1875" fill="#84BE84" rx="3" ry="3" style="stroke: #038048; stroke-width: 1.0;"/><text fill="#000000" font-family="sans-serif" font-size="11" lengthAdjust="spacingAndGlyphs" textLength="237" x="27" y="162.6064">UmaModelWizardInitialObjectCreationPage(String)</text><ellipse cx="18" cy="172.0234" fill="#84BE84" rx="3" ry="3" style="stroke: #038048; stroke-width: 1.0;"/><text fill="#000000" font-family="sans-serif" font-size="11" lengthAdjust="spacingAndGlyphs" textLength="149" x="27" y="176.4424">createControl(Composite): void</text><ellipse cx="18" cy="185.8594" fill="#84BE84" rx="3" ry="3" style="stroke: #038048; stroke-width: 1.0;"/><text fill="#000000" font-family="sans-serif" font-size="11" lengthAdjust="spacingAndGlyphs" textLength="119" x="27" y="190.2783">setVisible(boolean): void</text><ellipse cx="18" cy="199.6953" fill="#84BE84" rx="3" ry="3" style="stroke: #038048; stroke-width: 1.0;"/><text fill="#000000" font-family="sans-serif" font-size="11" lengthAdjust="spacingAndGlyphs" textLength="138" x="27" y="204.1143">getInitialObjectName(): String</text><ellipse cx="18" cy="213.5313" fill="#84BE84" rx="3" ry="3" style="stroke: #038048; stroke-width: 1.0;"/><text fill="#000000" font-family="sans-serif" font-size="11" lengthAdjust="spacingAndGlyphs" textLength="101" x="27" y="217.9502">getEncoding(): String</text></a><!--MD5=[c9a75648c178966811a8266b723e485c]
class org.eclipse.jface.wizard.WizardPage--><rect codeLine="13" fill="#FEFECE" filter="url(#fnuafbnszp7u9)" height="40.1875" id="org.eclipse.jface.wizard.WizardPage" style="stroke: #A80036; stroke-width: 1.5;" width="143" x="42.5" y="7"/><ellipse cx="57.5" cy="27.0938" fill="#A9DCDF" rx="11" ry="11" style="stroke: #A80036; stroke-width: 1.0;"/><path d="M59.6875,28.8594 L55.5469,28.8594 L55.125,29.8906 L55.5469,29.8906 Q56.1563,29.8906 56.4219,30.125 Q56.6875,30.3594 56.6875,30.75 Q56.6875,31.125 56.4219,31.3594 Q56.1563,31.5938 55.5469,31.5938 L53.25,31.5938 Q52.6406,31.5938 52.3906,31.3594 Q52.125,31.125 52.125,30.7344 Q52.125,30.3594 52.4063,30.125 Q52.6719,29.875 53.2969,29.8906 L55.9688,23.2344 L54.8594,23.2344 Q54.25,23.2344 53.9844,23 Q53.7188,22.7656 53.7188,22.375 Q53.7188,22 53.9844,21.7656 Q54.25,21.5313 54.8594,21.5313 L58.5313,21.5313 L61.9219,29.8906 Q62.5156,29.8906 62.7031,30.0313 Q63.0938,30.2969 63.0938,30.75 Q63.0938,31.125 62.8281,31.3594 Q62.5781,31.5938 61.9688,31.5938 L59.6719,31.5938 Q59.0625,31.5938 58.7969,31.3594 Q58.5313,31.125 58.5313,30.7344 Q58.5313,30.3594 58.7969,30.125 Q59.0625,29.8906 59.6719,29.8906 L60.0938,29.8906 L59.6875,28.8594 Z M58.9688,27.1563 L57.6094,23.7813 L56.2344,27.1563 L58.9688,27.1563 Z "/><text fill="#000000" font-family="sans-serif" font-size="14" font-style="italic" lengthAdjust="spacingAndGlyphs" textLength="78" x="88" y="26.5332">WizardPage</text><text fill="#000000" font-family="sans-serif" font-size="10" font-style="italic" lengthAdjust="spacingAndGlyphs" textLength="111" x="71.5" y="39.9902">org.eclipse.jface.wizard</text><!--MD5=[78e58cba9de59f4e9847b78eb35e2bc3]
class org.eclipse.epf.uma.presentation.UmaModelWizard--><a href="UmaModelWizard.html" target="_top" title="UmaModelWizard.html" xlink:actuate="onRequest" xlink:href="UmaModelWizard.html" xlink:show="new" xlink:title="UmaModelWizard.html" xlink:type="simple"><rect codeLine="14" fill="#FEFECE" filter="url(#fnuafbnszp7u9)" height="40.1875" id="org.eclipse.epf.uma.presentation.UmaModelWizard" style="stroke: #A80036; stroke-width: 1.5;" width="187" x="220.5" y="7"/><ellipse cx="235.5" cy="27.0938" fill="#ADD1B2" rx="11" ry="11" style="stroke: #A80036; stroke-width: 1.0;"/><path d="M238.2656,22.9688 Q238.4219,22.75 238.6094,22.6406 Q238.7969,22.5313 239.0156,22.5313 Q239.3906,22.5313 239.625,22.7969 Q239.8594,23.0469 239.8594,23.6563 L239.8594,25.1094 Q239.8594,25.7188 239.625,25.9844 Q239.3906,26.25 239.0156,26.25 Q238.6719,26.25 238.4688,26.0469 Q238.2656,25.8594 238.1563,25.3438 Q238.1094,24.9844 237.9219,24.7969 Q237.5938,24.4219 236.9844,24.2031 Q236.375,23.9844 235.75,23.9844 Q234.9844,23.9844 234.3438,24.3125 Q233.7188,24.6406 233.2188,25.3906 Q232.7344,26.1406 232.7344,27.1719 L232.7344,28.2656 Q232.7344,29.5 233.625,30.3281 Q234.5156,31.1406 236.1094,31.1406 Q237.0469,31.1406 237.7031,30.8906 Q238.0938,30.7344 238.5156,30.2969 Q238.7813,30.0313 238.9219,29.9531 Q239.0781,29.875 239.2813,29.875 Q239.6094,29.875 239.8594,30.1406 Q240.125,30.3906 240.125,30.7344 Q240.125,31.0781 239.7813,31.4844 Q239.2813,32.0625 238.4844,32.3906 Q237.4063,32.8438 236.1094,32.8438 Q234.5938,32.8438 233.3906,32.2188 Q232.4063,31.7188 231.7188,30.6563 Q231.0313,29.5781 231.0313,28.2969 L231.0313,27.1406 Q231.0313,25.8125 231.6406,24.6719 Q232.2656,23.5156 233.3594,22.9063 Q234.4531,22.2813 235.6875,22.2813 Q236.4219,22.2813 237.0625,22.4531 Q237.7188,22.6094 238.2656,22.9688 Z "/><text fill="#000000" font-family="sans-serif" font-size="14" lengthAdjust="spacingAndGlyphs" textLength="109" x="272.5" y="26.5332">UmaModelWizard</text><text fill="#000000" font-family="sans-serif" font-size="10" lengthAdjust="spacingAndGlyphs" textLength="155" x="249.5" y="39.9902">org.eclipse.epf.uma.presentation</text></a><!--MD5=[bb7ae56be2843ea350132ae69c05cd7d]
reverse link org.eclipse.jface.wizard.WizardPage to org.eclipse.epf.uma.presentation.UmaModelWizard.UmaModelWizardInitialObjectCreationPage--><path codeLine="16" d="M140.17,63.72 C149.86,76.94 161.1,92.29 171.85,106.97 " fill="none" id="org.eclipse.jface.wizard.WizardPage-backto-org.eclipse.epf.uma.presentation.UmaModelWizard.UmaModelWizardInitialObjectCreationPage" style="stroke: #A80036; stroke-width: 1.0;"/><polygon fill="none" points="134.29,67.54,128.12,47.27,145.58,59.26,134.29,67.54" style="stroke: #A80036; stroke-width: 1.0;"/><!--MD5=[8119dfcfbcb334e017ec0b89a6d373b4]
reverse link org.eclipse.epf.uma.presentation.UmaModelWizard to org.eclipse.epf.uma.presentation.UmaModelWizard.UmaModelWizardInitialObjectCreationPage--><path codeLine="17" d="M290.75,59.73 C280.45,73.8 268,90.79 256.15,106.97 " fill="none" id="org.eclipse.epf.uma.presentation.UmaModelWizard-backto-org.eclipse.epf.uma.presentation.UmaModelWizard.UmaModelWizardInitialObjectCreationPage" style="stroke: #A80036; stroke-width: 1.0;"/><ellipse cx="295.1547" cy="53.7254" fill="#FFFFFF" rx="8" ry="8" style="stroke: #A80036; stroke-width: 1.0;"/><line style="stroke: #A80036; stroke-width: 1.0;" x1="290.4294" x2="299.88" y1="60.1807" y2="47.27"/><line style="stroke: #A80036; stroke-width: 1.0;" x1="288.6994" x2="301.6101" y1="49.0001" y2="58.4506"/><text fill="#888888" font-family="sans-serif" font-size="10" lengthAdjust="spacingAndGlyphs" textLength="190" x="116" y="247.748">UMLDoclet 2.0.12, PlantUML 1.2020.16</text><!--MD5=[663b97db39ab8d34722802d340411686]
@startuml
    set namespaceSeparator none
    hide empty fields
    hide empty methods

    class "<size:14>UmaModelWizard.UmaModelWizardInitialObjectCreationPage\n<size:10>org.eclipse.epf.uma.presentation" as org.eclipse.epf.uma.presentation.UmaModelWizard.UmaModelWizardInitialObjectCreationPage [[UmaModelWizard.UmaModelWizardInitialObjectCreationPage.html]] {
        +UmaModelWizardInitialObjectCreationPage(String)
        +createControl(Composite): void
        +setVisible(boolean): void
        +getInitialObjectName(): String
        +getEncoding(): String
    }

    abstract class "<size:14>WizardPage\n<size:10>org.eclipse.jface.wizard" as org.eclipse.jface.wizard.WizardPage
    class "<size:14>UmaModelWizard\n<size:10>org.eclipse.epf.uma.presentation" as org.eclipse.epf.uma.presentation.UmaModelWizard [[UmaModelWizard.html]]

    org.eclipse.jface.wizard.WizardPage <|- - org.eclipse.epf.uma.presentation.UmaModelWizard.UmaModelWizardInitialObjectCreationPage
    org.eclipse.epf.uma.presentation.UmaModelWizard +- - org.eclipse.epf.uma.presentation.UmaModelWizard.UmaModelWizardInitialObjectCreationPage

    center footer UMLDoclet 2.0.12, PlantUML 1.2020.16
@enduml

PlantUML version 1.2020.16(Sun Aug 23 22:20:43 CEST 2020)
(APACHE source distribution)
Java Runtime: Java(TM) SE Runtime Environment
JVM: Java HotSpot(TM) 64-Bit Server VM
Default Encoding: Cp1252
Language: es
Country: ES
--></g></svg>