<?xml version="1.0" encoding="UTF-8" standalone="no"?><svg xmlns="http://www.w3.org/2000/svg" xmlns:xlink="http://www.w3.org/1999/xlink" contentScriptType="application/ecmascript" contentStyleType="text/css" height="219px" preserveAspectRatio="none" style="width:459px;height:219px;" version="1.1" viewBox="0 0 459 219" width="459px" zoomAndPan="magnify"><defs><filter height="300%" id="fm4vit6wib7gv" width="300%" x="-1" y="-1"><feGaussianBlur result="blurOut" stdDeviation="2.0"/><feColorMatrix in="blurOut" result="blurOut2" type="matrix" values="0 0 0 0 0 0 0 0 0 0 0 0 0 0 0 0 0 0 .4 0"/><feOffset dx="4.0" dy="4.0" in="blurOut2" result="blurOut3"/><feBlend in="SourceGraphic" in2="blurOut3" mode="normal"/></filter></defs><g><!--MD5=[d88768fab6a03753f8378ff9fb6e6d56]
class org.eclipse.epf.uma.presentation.UmaModelWizard.UmaModelWizardNewFileCreationPage--><a href="UmaModelWizard.UmaModelWizardNewFileCreationPage.html" target="_top" title="UmaModelWizard.UmaModelWizardNewFileCreationPage.html" xlink:actuate="onRequest" xlink:href="UmaModelWizard.UmaModelWizardNewFileCreationPage.html" xlink:show="new" xlink:title="UmaModelWizard.UmaModelWizardNewFileCreationPage.html" xlink:type="simple"><rect codeLine="5" fill="#FEFECE" filter="url(#fm4vit6wib7gv)" height="75.8594" id="org.eclipse.epf.uma.presentation.UmaModelWizard.UmaModelWizardNewFileCreationPage" style="stroke: #A80036; stroke-width: 1.5;" width="390" x="34.5" y="107"/><ellipse cx="49.5" cy="127.0938" fill="#ADD1B2" rx="11" ry="11" style="stroke: #A80036; stroke-width: 1.0;"/><path d="M52.2656,122.9688 Q52.4219,122.75 52.6094,122.6406 Q52.7969,122.5313 53.0156,122.5313 Q53.3906,122.5313 53.625,122.7969 Q53.8594,123.0469 53.8594,123.6563 L53.8594,125.1094 Q53.8594,125.7188 53.625,125.9844 Q53.3906,126.25 53.0156,126.25 Q52.6719,126.25 52.4688,126.0469 Q52.2656,125.8594 52.1563,125.3438 Q52.1094,124.9844 51.9219,124.7969 Q51.5938,124.4219 50.9844,124.2031 Q50.375,123.9844 49.75,123.9844 Q48.9844,123.9844 48.3438,124.3125 Q47.7188,124.6406 47.2188,125.3906 Q46.7344,126.1406 46.7344,127.1719 L46.7344,128.2656 Q46.7344,129.5 47.625,130.3281 Q48.5156,131.1406 50.1094,131.1406 Q51.0469,131.1406 51.7031,130.8906 Q52.0938,130.7344 52.5156,130.2969 Q52.7813,130.0313 52.9219,129.9531 Q53.0781,129.875 53.2813,129.875 Q53.6094,129.875 53.8594,130.1406 Q54.125,130.3906 54.125,130.7344 Q54.125,131.0781 53.7813,131.4844 Q53.2813,132.0625 52.4844,132.3906 Q51.4063,132.8438 50.1094,132.8438 Q48.5938,132.8438 47.3906,132.2188 Q46.4063,131.7188 45.7188,130.6563 Q45.0313,129.5781 45.0313,128.2969 L45.0313,127.1406 Q45.0313,125.8125 45.6406,124.6719 Q46.2656,123.5156 47.3594,122.9063 Q48.4531,122.2813 49.6875,122.2813 Q50.4219,122.2813 51.0625,122.4531 Q51.7188,122.6094 52.2656,122.9688 Z "/><text fill="#000000" font-family="sans-serif" font-size="14" lengthAdjust="spacingAndGlyphs" textLength="358" x="63.5" y="126.5332">UmaModelWizard.UmaModelWizardNewFileCreationPage</text><text fill="#000000" font-family="sans-serif" font-size="10" lengthAdjust="spacingAndGlyphs" textLength="155" x="165" y="139.9902">org.eclipse.epf.uma.presentation</text><line style="stroke: #A80036; stroke-width: 1.5;" x1="35.5" x2="423.5" y1="147.1875" y2="147.1875"/><ellipse cx="45.5" cy="158.1875" fill="#84BE84" rx="3" ry="3" style="stroke: #038048; stroke-width: 1.0;"/><text fill="#000000" font-family="sans-serif" font-size="11" lengthAdjust="spacingAndGlyphs" textLength="325" x="54.5" y="162.6064">UmaModelWizardNewFileCreationPage(String, IStructuredSelection)</text><ellipse cx="45.5" cy="172.0234" fill="#84BE84" rx="3" ry="3" style="stroke: #038048; stroke-width: 1.0;"/><text fill="#000000" font-family="sans-serif" font-size="11" lengthAdjust="spacingAndGlyphs" textLength="91" x="54.5" y="176.4424">getModelFile(): IFile</text></a><!--MD5=[d041d718ba2dd803a832e75b965a722c]
class org.eclipse.ui.dialogs.WizardNewFileCreationPage--><rect codeLine="10" fill="#FEFECE" filter="url(#fm4vit6wib7gv)" height="40.1875" id="org.eclipse.ui.dialogs.WizardNewFileCreationPage" style="stroke: #A80036; stroke-width: 1.5;" width="211" x="7" y="7"/><ellipse cx="22" cy="27.0938" fill="#ADD1B2" rx="11" ry="11" style="stroke: #A80036; stroke-width: 1.0;"/><path d="M24.7656,22.9688 Q24.9219,22.75 25.1094,22.6406 Q25.2969,22.5313 25.5156,22.5313 Q25.8906,22.5313 26.125,22.7969 Q26.3594,23.0469 26.3594,23.6563 L26.3594,25.1094 Q26.3594,25.7188 26.125,25.9844 Q25.8906,26.25 25.5156,26.25 Q25.1719,26.25 24.9688,26.0469 Q24.7656,25.8594 24.6563,25.3438 Q24.6094,24.9844 24.4219,24.7969 Q24.0938,24.4219 23.4844,24.2031 Q22.875,23.9844 22.25,23.9844 Q21.4844,23.9844 20.8438,24.3125 Q20.2188,24.6406 19.7188,25.3906 Q19.2344,26.1406 19.2344,27.1719 L19.2344,28.2656 Q19.2344,29.5 20.125,30.3281 Q21.0156,31.1406 22.6094,31.1406 Q23.5469,31.1406 24.2031,30.8906 Q24.5938,30.7344 25.0156,30.2969 Q25.2813,30.0313 25.4219,29.9531 Q25.5781,29.875 25.7813,29.875 Q26.1094,29.875 26.3594,30.1406 Q26.625,30.3906 26.625,30.7344 Q26.625,31.0781 26.2813,31.4844 Q25.7813,32.0625 24.9844,32.3906 Q23.9063,32.8438 22.6094,32.8438 Q21.0938,32.8438 19.8906,32.2188 Q18.9063,31.7188 18.2188,30.6563 Q17.5313,29.5781 17.5313,28.2969 L17.5313,27.1406 Q17.5313,25.8125 18.1406,24.6719 Q18.7656,23.5156 19.8594,22.9063 Q20.9531,22.2813 22.1875,22.2813 Q22.9219,22.2813 23.5625,22.4531 Q24.2188,22.6094 24.7656,22.9688 Z "/><text fill="#000000" font-family="sans-serif" font-size="14" lengthAdjust="spacingAndGlyphs" textLength="179" x="36" y="26.5332">WizardNewFileCreationPage</text><text fill="#000000" font-family="sans-serif" font-size="10" lengthAdjust="spacingAndGlyphs" textLength="101" x="75" y="39.9902">org.eclipse.ui.dialogs</text><!--MD5=[78e58cba9de59f4e9847b78eb35e2bc3]
class org.eclipse.epf.uma.presentation.UmaModelWizard--><a href="UmaModelWizard.html" target="_top" title="UmaModelWizard.html" xlink:actuate="onRequest" xlink:href="UmaModelWizard.html" xlink:show="new" xlink:title="UmaModelWizard.html" xlink:type="simple"><rect codeLine="11" fill="#FEFECE" filter="url(#fm4vit6wib7gv)" height="40.1875" id="org.eclipse.epf.uma.presentation.UmaModelWizard" style="stroke: #A80036; stroke-width: 1.5;" width="187" x="253" y="7"/><ellipse cx="268" cy="27.0938" fill="#ADD1B2" rx="11" ry="11" style="stroke: #A80036; stroke-width: 1.0;"/><path d="M270.7656,22.9688 Q270.9219,22.75 271.1094,22.6406 Q271.2969,22.5313 271.5156,22.5313 Q271.8906,22.5313 272.125,22.7969 Q272.3594,23.0469 272.3594,23.6563 L272.3594,25.1094 Q272.3594,25.7188 272.125,25.9844 Q271.8906,26.25 271.5156,26.25 Q271.1719,26.25 270.9688,26.0469 Q270.7656,25.8594 270.6563,25.3438 Q270.6094,24.9844 270.4219,24.7969 Q270.0938,24.4219 269.4844,24.2031 Q268.875,23.9844 268.25,23.9844 Q267.4844,23.9844 266.8438,24.3125 Q266.2188,24.6406 265.7188,25.3906 Q265.2344,26.1406 265.2344,27.1719 L265.2344,28.2656 Q265.2344,29.5 266.125,30.3281 Q267.0156,31.1406 268.6094,31.1406 Q269.5469,31.1406 270.2031,30.8906 Q270.5938,30.7344 271.0156,30.2969 Q271.2813,30.0313 271.4219,29.9531 Q271.5781,29.875 271.7813,29.875 Q272.1094,29.875 272.3594,30.1406 Q272.625,30.3906 272.625,30.7344 Q272.625,31.0781 272.2813,31.4844 Q271.7813,32.0625 270.9844,32.3906 Q269.9063,32.8438 268.6094,32.8438 Q267.0938,32.8438 265.8906,32.2188 Q264.9063,31.7188 264.2188,30.6563 Q263.5313,29.5781 263.5313,28.2969 L263.5313,27.1406 Q263.5313,25.8125 264.1406,24.6719 Q264.7656,23.5156 265.8594,22.9063 Q266.9531,22.2813 268.1875,22.2813 Q268.9219,22.2813 269.5625,22.4531 Q270.2188,22.6094 270.7656,22.9688 Z "/><text fill="#000000" font-family="sans-serif" font-size="14" lengthAdjust="spacingAndGlyphs" textLength="109" x="305" y="26.5332">UmaModelWizard</text><text fill="#000000" font-family="sans-serif" font-size="10" lengthAdjust="spacingAndGlyphs" textLength="155" x="282" y="39.9902">org.eclipse.epf.uma.presentation</text></a><!--MD5=[bc933e47bebbb1a69eb2ccee8bad5ba3]
reverse link org.eclipse.ui.dialogs.WizardNewFileCreationPage to org.eclipse.epf.uma.presentation.UmaModelWizard.UmaModelWizardNewFileCreationPage--><path codeLine="13" d="M146.24,61.45 C160.61,75.7 177.43,92.37 192.17,106.99 " fill="none" id="org.eclipse.ui.dialogs.WizardNewFileCreationPage-backto-org.eclipse.epf.uma.presentation.UmaModelWizard.UmaModelWizardNewFileCreationPage" style="stroke: #A80036; stroke-width: 1.0;"/><polygon fill="none" points="141.09,66.21,131.82,47.16,150.95,56.27,141.09,66.21" style="stroke: #A80036; stroke-width: 1.0;"/><!--MD5=[edcaebe52876649d03f68945d9222f30]
reverse link org.eclipse.epf.uma.presentation.UmaModelWizard to org.eclipse.epf.uma.presentation.UmaModelWizard.UmaModelWizardNewFileCreationPage--><path codeLine="14" d="M316.37,57.87 C301.27,72.85 282.83,91.13 266.83,106.99 " fill="none" id="org.eclipse.epf.uma.presentation.UmaModelWizard-backto-org.eclipse.epf.uma.presentation.UmaModelWizard.UmaModelWizardNewFileCreationPage" style="stroke: #A80036; stroke-width: 1.0;"/><ellipse cx="321.5003" cy="52.7939" fill="#FFFFFF" rx="8" ry="8" style="stroke: #A80036; stroke-width: 1.0;"/><line style="stroke: #A80036; stroke-width: 1.0;" x1="315.8206" x2="327.18" y1="58.4279" y2="47.16"/><line style="stroke: #A80036; stroke-width: 1.0;" x1="315.8664" x2="327.1343" y1="47.1143" y2="58.4736"/><text fill="#888888" font-family="sans-serif" font-size="10" lengthAdjust="spacingAndGlyphs" textLength="190" x="125.5" y="206.2402">UMLDoclet 2.0.12, PlantUML 1.2020.16</text><!--MD5=[55125b003828700a657b9227134f2368]
@startuml
    set namespaceSeparator none
    hide empty fields
    hide empty methods

    class "<size:14>UmaModelWizard.UmaModelWizardNewFileCreationPage\n<size:10>org.eclipse.epf.uma.presentation" as org.eclipse.epf.uma.presentation.UmaModelWizard.UmaModelWizardNewFileCreationPage [[UmaModelWizard.UmaModelWizardNewFileCreationPage.html]] {
        +UmaModelWizardNewFileCreationPage(String, IStructuredSelection)
        +getModelFile(): IFile
    }

    class "<size:14>WizardNewFileCreationPage\n<size:10>org.eclipse.ui.dialogs" as org.eclipse.ui.dialogs.WizardNewFileCreationPage
    class "<size:14>UmaModelWizard\n<size:10>org.eclipse.epf.uma.presentation" as org.eclipse.epf.uma.presentation.UmaModelWizard [[UmaModelWizard.html]]

    org.eclipse.ui.dialogs.WizardNewFileCreationPage <|- - org.eclipse.epf.uma.presentation.UmaModelWizard.UmaModelWizardNewFileCreationPage
    org.eclipse.epf.uma.presentation.UmaModelWizard +- - org.eclipse.epf.uma.presentation.UmaModelWizard.UmaModelWizardNewFileCreationPage

    center footer UMLDoclet 2.0.12, PlantUML 1.2020.16
@enduml

PlantUML version 1.2020.16(Sun Aug 23 22:20:43 CEST 2020)
(APACHE source distribution)
Java Runtime: Java(TM) SE Runtime Environment
JVM: Java HotSpot(TM) 64-Bit Server VM
Default Encoding: Cp1252
Language: es
Country: ES
--></g></svg>