<?xml version="1.0" encoding="UTF-8" standalone="no"?><svg xmlns="http://www.w3.org/2000/svg" xmlns:xlink="http://www.w3.org/1999/xlink" contentScriptType="application/ecmascript" contentStyleType="text/css" height="405px" preserveAspectRatio="none" style="width:865px;height:405px;" version="1.1" viewBox="0 0 865 405" width="865px" zoomAndPan="magnify"><defs><filter height="300%" id="f1iqhyd479vasg" width="300%" x="-1" y="-1"><feGaussianBlur result="blurOut" stdDeviation="2.0"/><feColorMatrix in="blurOut" result="blurOut2" type="matrix" values="0 0 0 0 0 0 0 0 0 0 0 0 0 0 0 0 0 0 .4 0"/><feOffset dx="4.0" dy="4.0" in="blurOut2" result="blurOut3"/><feBlend in="SourceGraphic" in2="blurOut3" mode="normal"/></filter></defs><g><!--MD5=[78e58cba9de59f4e9847b78eb35e2bc3]
class org.eclipse.epf.uma.presentation.UmaModelWizard--><a href="UmaModelWizard.html" target="_top" title="UmaModelWizard.html" xlink:actuate="onRequest" xlink:href="UmaModelWizard.html" xlink:show="new" xlink:title="UmaModelWizard.html" xlink:type="simple"><rect codeLine="5" fill="#FEFECE" filter="url(#f1iqhyd479vasg)" height="139.2031" id="org.eclipse.epf.uma.presentation.UmaModelWizard" style="stroke: #A80036; stroke-width: 1.5;" width="233" x="303.5" y="129"/><ellipse cx="339.2" cy="149.0938" fill="#ADD1B2" rx="11" ry="11" style="stroke: #A80036; stroke-width: 1.0;"/><path d="M341.9656,144.9688 Q342.1219,144.75 342.3094,144.6406 Q342.4969,144.5313 342.7156,144.5313 Q343.0906,144.5313 343.325,144.7969 Q343.5594,145.0469 343.5594,145.6563 L343.5594,147.1094 Q343.5594,147.7188 343.325,147.9844 Q343.0906,148.25 342.7156,148.25 Q342.3719,148.25 342.1688,148.0469 Q341.9656,147.8594 341.8563,147.3438 Q341.8094,146.9844 341.6219,146.7969 Q341.2938,146.4219 340.6844,146.2031 Q340.075,145.9844 339.45,145.9844 Q338.6844,145.9844 338.0438,146.3125 Q337.4188,146.6406 336.9188,147.3906 Q336.4344,148.1406 336.4344,149.1719 L336.4344,150.2656 Q336.4344,151.5 337.325,152.3281 Q338.2156,153.1406 339.8094,153.1406 Q340.7469,153.1406 341.4031,152.8906 Q341.7938,152.7344 342.2156,152.2969 Q342.4813,152.0313 342.6219,151.9531 Q342.7781,151.875 342.9813,151.875 Q343.3094,151.875 343.5594,152.1406 Q343.825,152.3906 343.825,152.7344 Q343.825,153.0781 343.4813,153.4844 Q342.9813,154.0625 342.1844,154.3906 Q341.1063,154.8438 339.8094,154.8438 Q338.2938,154.8438 337.0906,154.2188 Q336.1063,153.7188 335.4188,152.6563 Q334.7313,151.5781 334.7313,150.2969 L334.7313,149.1406 Q334.7313,147.8125 335.3406,146.6719 Q335.9656,145.5156 337.0594,144.9063 Q338.1531,144.2813 339.3875,144.2813 Q340.1219,144.2813 340.7625,144.4531 Q341.4188,144.6094 341.9656,144.9688 Z "/><text fill="#000000" font-family="sans-serif" font-size="14" lengthAdjust="spacingAndGlyphs" textLength="109" x="380.8" y="148.5332">UmaModelWizard</text><text fill="#000000" font-family="sans-serif" font-size="10" lengthAdjust="spacingAndGlyphs" textLength="155" x="357.8" y="161.9902">org.eclipse.epf.uma.presentation</text><line style="stroke: #A80036; stroke-width: 1.5;" x1="304.5" x2="535.5" y1="169.1875" y2="169.1875"/><ellipse cx="314.5" cy="180.1875" fill="none" rx="3" ry="3" style="stroke: #038048; stroke-width: 1.0;"/><text fill="#000000" font-family="sans-serif" font-size="11" lengthAdjust="spacingAndGlyphs" text-decoration="underline" textLength="152" x="323.5" y="184.6064">FILE_EXTENSIONS: List&lt;String&gt;</text><ellipse cx="314.5" cy="194.0234" fill="none" rx="3" ry="3" style="stroke: #038048; stroke-width: 1.0;"/><text fill="#000000" font-family="sans-serif" font-size="11" lengthAdjust="spacingAndGlyphs" text-decoration="underline" textLength="191" x="323.5" y="198.4424">FORMATTED_FILE_EXTENSIONS: String</text><line style="stroke: #A80036; stroke-width: 1.5;" x1="304.5" x2="535.5" y1="204.8594" y2="204.8594"/><ellipse cx="314.5" cy="215.8594" fill="#84BE84" rx="3" ry="3" style="stroke: #038048; stroke-width: 1.0;"/><text fill="#000000" font-family="sans-serif" font-size="11" lengthAdjust="spacingAndGlyphs" textLength="207" x="323.5" y="220.2783">init(IWorkbench, IStructuredSelection): void</text><ellipse cx="314.5" cy="229.6953" fill="#84BE84" rx="3" ry="3" style="stroke: #038048; stroke-width: 1.0;"/><text fill="#000000" font-family="sans-serif" font-size="11" lengthAdjust="spacingAndGlyphs" textLength="118" x="323.5" y="234.1143">performFinish(): boolean</text><ellipse cx="314.5" cy="243.5313" fill="#84BE84" rx="3" ry="3" style="stroke: #038048; stroke-width: 1.0;"/><text fill="#000000" font-family="sans-serif" font-size="11" lengthAdjust="spacingAndGlyphs" textLength="82" x="323.5" y="247.9502">addPages(): void</text><ellipse cx="314.5" cy="257.3672" fill="#84BE84" rx="3" ry="3" style="stroke: #038048; stroke-width: 1.0;"/><text fill="#000000" font-family="sans-serif" font-size="11" lengthAdjust="spacingAndGlyphs" textLength="91" x="323.5" y="261.7861">getModelFile(): IFile</text></a><!--MD5=[147e0a53f265f16bc4a7efac00f80d41]
class org.eclipse.jface.wizard.Wizard--><rect codeLine="14" fill="#FEFECE" filter="url(#f1iqhyd479vasg)" height="62.0234" id="org.eclipse.jface.wizard.Wizard" style="stroke: #A80036; stroke-width: 1.5;" width="149" x="263.5" y="7"/><ellipse cx="281.2" cy="27.0938" fill="#A9DCDF" rx="11" ry="11" style="stroke: #A80036; stroke-width: 1.0;"/><path d="M283.3875,28.8594 L279.2469,28.8594 L278.825,29.8906 L279.2469,29.8906 Q279.8563,29.8906 280.1219,30.125 Q280.3875,30.3594 280.3875,30.75 Q280.3875,31.125 280.1219,31.3594 Q279.8563,31.5938 279.2469,31.5938 L276.95,31.5938 Q276.3406,31.5938 276.0906,31.3594 Q275.825,31.125 275.825,30.7344 Q275.825,30.3594 276.1063,30.125 Q276.3719,29.875 276.9969,29.8906 L279.6688,23.2344 L278.5594,23.2344 Q277.95,23.2344 277.6844,23 Q277.4188,22.7656 277.4188,22.375 Q277.4188,22 277.6844,21.7656 Q277.95,21.5313 278.5594,21.5313 L282.2313,21.5313 L285.6219,29.8906 Q286.2156,29.8906 286.4031,30.0313 Q286.7938,30.2969 286.7938,30.75 Q286.7938,31.125 286.5281,31.3594 Q286.2781,31.5938 285.6688,31.5938 L283.3719,31.5938 Q282.7625,31.5938 282.4969,31.3594 Q282.2313,31.125 282.2313,30.7344 Q282.2313,30.3594 282.4969,30.125 Q282.7625,29.8906 283.3719,29.8906 L283.7938,29.8906 L283.3875,28.8594 Z M282.6688,27.1563 L281.3094,23.7813 L279.9344,27.1563 L282.6688,27.1563 Z "/><text fill="#000000" font-family="sans-serif" font-size="14" font-style="italic" lengthAdjust="spacingAndGlyphs" textLength="45" x="328.8" y="26.5332">Wizard</text><text fill="#000000" font-family="sans-serif" font-size="10" font-style="italic" lengthAdjust="spacingAndGlyphs" textLength="111" x="295.8" y="39.9902">org.eclipse.jface.wizard</text><line style="stroke: #A80036; stroke-width: 1.5;" x1="264.5" x2="411.5" y1="47.1875" y2="47.1875"/><ellipse cx="274.5" cy="58.1875" fill="#84BE84" rx="3" ry="3" style="stroke: #038048; stroke-width: 1.0;"/><text fill="#000000" font-family="sans-serif" font-size="11" font-style="italic" lengthAdjust="spacingAndGlyphs" textLength="123" x="283.5" y="62.6064">performFinish(): boolean</text><!--MD5=[8a46876446133894bea8db8b788d6ff2]
class org.eclipse.ui.INewWizard--><rect codeLine="17" fill="#FEFECE" filter="url(#f1iqhyd479vasg)" height="40.1875" id="org.eclipse.ui.INewWizard" style="stroke: #A80036; stroke-width: 1.5;" width="108" x="448" y="18"/><ellipse cx="463" cy="38.0938" fill="#B4A7E5" rx="11" ry="11" style="stroke: #A80036; stroke-width: 1.0;"/><path d="M463.9531,34.7344 L463.9531,41.3906 L465.6719,41.3906 Q466.2813,41.3906 466.5469,41.625 Q466.8125,41.8594 466.8125,42.25 Q466.8125,42.625 466.5469,42.8594 Q466.2813,43.0938 465.6719,43.0938 L460.5313,43.0938 Q459.9219,43.0938 459.6563,42.8594 Q459.3906,42.625 459.3906,42.2344 Q459.3906,41.8594 459.6563,41.625 Q459.9219,41.3906 460.5313,41.3906 L462.25,41.3906 L462.25,34.7344 L460.5313,34.7344 Q459.9219,34.7344 459.6563,34.5 Q459.3906,34.2656 459.3906,33.875 Q459.3906,33.5 459.6563,33.2656 Q459.9219,33.0313 460.5313,33.0313 L465.6719,33.0313 Q466.2813,33.0313 466.5469,33.2656 Q466.8125,33.5 466.8125,33.875 Q466.8125,34.2656 466.5469,34.5 Q466.2813,34.7344 465.6719,34.7344 L463.9531,34.7344 Z "/><text fill="#000000" font-family="sans-serif" font-size="14" font-style="italic" lengthAdjust="spacingAndGlyphs" textLength="76" x="477" y="37.5332">INewWizard</text><text fill="#000000" font-family="sans-serif" font-size="10" font-style="italic" lengthAdjust="spacingAndGlyphs" textLength="64" x="483" y="50.9902">org.eclipse.ui</text><!--MD5=[d88768fab6a03753f8378ff9fb6e6d56]
class org.eclipse.epf.uma.presentation.UmaModelWizard.UmaModelWizardNewFileCreationPage--><a href="UmaModelWizard.UmaModelWizardNewFileCreationPage.html" target="_top" title="UmaModelWizard.UmaModelWizardNewFileCreationPage.html" xlink:actuate="onRequest" xlink:href="UmaModelWizard.UmaModelWizardNewFileCreationPage.html" xlink:show="new" xlink:title="UmaModelWizard.UmaModelWizardNewFileCreationPage.html" xlink:type="simple"><rect codeLine="18" fill="#FEFECE" filter="url(#f1iqhyd479vasg)" height="40.1875" id="org.eclipse.epf.uma.presentation.UmaModelWizard.UmaModelWizardNewFileCreationPage" style="stroke: #A80036; stroke-width: 1.5;" width="390" x="7" y="328"/><ellipse cx="22" cy="348.0938" fill="#ADD1B2" rx="11" ry="11" style="stroke: #A80036; stroke-width: 1.0;"/><path d="M24.7656,343.9688 Q24.9219,343.75 25.1094,343.6406 Q25.2969,343.5313 25.5156,343.5313 Q25.8906,343.5313 26.125,343.7969 Q26.3594,344.0469 26.3594,344.6563 L26.3594,346.1094 Q26.3594,346.7188 26.125,346.9844 Q25.8906,347.25 25.5156,347.25 Q25.1719,347.25 24.9688,347.0469 Q24.7656,346.8594 24.6563,346.3438 Q24.6094,345.9844 24.4219,345.7969 Q24.0938,345.4219 23.4844,345.2031 Q22.875,344.9844 22.25,344.9844 Q21.4844,344.9844 20.8438,345.3125 Q20.2188,345.6406 19.7188,346.3906 Q19.2344,347.1406 19.2344,348.1719 L19.2344,349.2656 Q19.2344,350.5 20.125,351.3281 Q21.0156,352.1406 22.6094,352.1406 Q23.5469,352.1406 24.2031,351.8906 Q24.5938,351.7344 25.0156,351.2969 Q25.2813,351.0313 25.4219,350.9531 Q25.5781,350.875 25.7813,350.875 Q26.1094,350.875 26.3594,351.1406 Q26.625,351.3906 26.625,351.7344 Q26.625,352.0781 26.2813,352.4844 Q25.7813,353.0625 24.9844,353.3906 Q23.9063,353.8438 22.6094,353.8438 Q21.0938,353.8438 19.8906,353.2188 Q18.9063,352.7188 18.2188,351.6563 Q17.5313,350.5781 17.5313,349.2969 L17.5313,348.1406 Q17.5313,346.8125 18.1406,345.6719 Q18.7656,344.5156 19.8594,343.9063 Q20.9531,343.2813 22.1875,343.2813 Q22.9219,343.2813 23.5625,343.4531 Q24.2188,343.6094 24.7656,343.9688 Z "/><text fill="#000000" font-family="sans-serif" font-size="14" lengthAdjust="spacingAndGlyphs" textLength="358" x="36" y="347.5332">UmaModelWizard.UmaModelWizardNewFileCreationPage</text><text fill="#000000" font-family="sans-serif" font-size="10" lengthAdjust="spacingAndGlyphs" textLength="155" x="137.5" y="360.9902">org.eclipse.epf.uma.presentation</text></a><!--MD5=[d7c48869fc2ef8ff4a22187093a556d7]
class org.eclipse.epf.uma.presentation.UmaModelWizard.UmaModelWizardInitialObjectCreationPage--><a href="UmaModelWizard.UmaModelWizardInitialObjectCreationPage.html" target="_top" title="UmaModelWizard.UmaModelWizardInitialObjectCreationPage.html" xlink:actuate="onRequest" xlink:href="UmaModelWizard.UmaModelWizardInitialObjectCreationPage.html" xlink:show="new" xlink:title="UmaModelWizard.UmaModelWizardInitialObjectCreationPage.html" xlink:type="simple"><rect codeLine="19" fill="#FEFECE" filter="url(#f1iqhyd479vasg)" height="40.1875" id="org.eclipse.epf.uma.presentation.UmaModelWizard.UmaModelWizardInitialObjectCreationPage" style="stroke: #A80036; stroke-width: 1.5;" width="414" x="432" y="328"/><ellipse cx="447" cy="348.0938" fill="#ADD1B2" rx="11" ry="11" style="stroke: #A80036; stroke-width: 1.0;"/><path d="M449.7656,343.9688 Q449.9219,343.75 450.1094,343.6406 Q450.2969,343.5313 450.5156,343.5313 Q450.8906,343.5313 451.125,343.7969 Q451.3594,344.0469 451.3594,344.6563 L451.3594,346.1094 Q451.3594,346.7188 451.125,346.9844 Q450.8906,347.25 450.5156,347.25 Q450.1719,347.25 449.9688,347.0469 Q449.7656,346.8594 449.6563,346.3438 Q449.6094,345.9844 449.4219,345.7969 Q449.0938,345.4219 448.4844,345.2031 Q447.875,344.9844 447.25,344.9844 Q446.4844,344.9844 445.8438,345.3125 Q445.2188,345.6406 444.7188,346.3906 Q444.2344,347.1406 444.2344,348.1719 L444.2344,349.2656 Q444.2344,350.5 445.125,351.3281 Q446.0156,352.1406 447.6094,352.1406 Q448.5469,352.1406 449.2031,351.8906 Q449.5938,351.7344 450.0156,351.2969 Q450.2813,351.0313 450.4219,350.9531 Q450.5781,350.875 450.7813,350.875 Q451.1094,350.875 451.3594,351.1406 Q451.625,351.3906 451.625,351.7344 Q451.625,352.0781 451.2813,352.4844 Q450.7813,353.0625 449.9844,353.3906 Q448.9063,353.8438 447.6094,353.8438 Q446.0938,353.8438 444.8906,353.2188 Q443.9063,352.7188 443.2188,351.6563 Q442.5313,350.5781 442.5313,349.2969 L442.5313,348.1406 Q442.5313,346.8125 443.1406,345.6719 Q443.7656,344.5156 444.8594,343.9063 Q445.9531,343.2813 447.1875,343.2813 Q447.9219,343.2813 448.5625,343.4531 Q449.2188,343.6094 449.7656,343.9688 Z "/><text fill="#000000" font-family="sans-serif" font-size="14" lengthAdjust="spacingAndGlyphs" textLength="382" x="461" y="347.5332">UmaModelWizard.UmaModelWizardInitialObjectCreationPage</text><text fill="#000000" font-family="sans-serif" font-size="10" lengthAdjust="spacingAndGlyphs" textLength="155" x="574.5" y="360.9902">org.eclipse.epf.uma.presentation</text></a><!--MD5=[ec31ece53fb6f517239fbebcf4df33fa]
reverse link org.eclipse.jface.wizard.Wizard to org.eclipse.epf.uma.presentation.UmaModelWizard--><path codeLine="21" d="M362.98,87.28 C369.79,100.44 377.29,114.95 384.56,129 " fill="none" id="org.eclipse.jface.wizard.Wizard-backto-org.eclipse.epf.uma.presentation.UmaModelWizard" style="stroke: #A80036; stroke-width: 1.0;"/><polygon fill="none" points="356.59,90.17,353.62,69.19,369.02,83.73,356.59,90.17" style="stroke: #A80036; stroke-width: 1.0;"/><!--MD5=[c271b856478c981884efac256f1bf47e]
reverse link org.eclipse.ui.INewWizard to org.eclipse.epf.uma.presentation.UmaModelWizard--><path codeLine="22" d="M482.82,76.06 C474.69,91.78 464.95,110.62 455.58,128.72 " fill="none" id="org.eclipse.ui.INewWizard-backto-org.eclipse.epf.uma.presentation.UmaModelWizard" style="stroke: #A80036; stroke-width: 1.0; stroke-dasharray: 7.0,7.0;"/><polygon fill="none" points="476.7,72.67,492.11,58.12,489.14,79.1,476.7,72.67" style="stroke: #A80036; stroke-width: 1.0;"/><!--MD5=[edcaebe52876649d03f68945d9222f30]
reverse link org.eclipse.epf.uma.presentation.UmaModelWizard to org.eclipse.epf.uma.presentation.UmaModelWizard.UmaModelWizardNewFileCreationPage--><path codeLine="23" d="M306.08,276.58 C277.76,295.74 249.89,314.6 230.12,327.97 " fill="none" id="org.eclipse.epf.uma.presentation.UmaModelWizard-backto-org.eclipse.epf.uma.presentation.UmaModelWizard.UmaModelWizardNewFileCreationPage" style="stroke: #A80036; stroke-width: 1.0;"/><ellipse cx="312.0378" cy="272.5585" fill="#FFFFFF" rx="8" ry="8" style="stroke: #A80036; stroke-width: 1.0;"/><line style="stroke: #A80036; stroke-width: 1.0;" x1="305.4156" x2="318.66" y1="277.0469" y2="268.07"/><line style="stroke: #A80036; stroke-width: 1.0;" x1="307.5493" x2="316.5263" y1="265.9363" y2="279.1807"/><!--MD5=[8119dfcfbcb334e017ec0b89a6d373b4]
reverse link org.eclipse.epf.uma.presentation.UmaModelWizard to org.eclipse.epf.uma.presentation.UmaModelWizard.UmaModelWizardInitialObjectCreationPage--><path codeLine="24" d="M534.44,276.58 C562.89,295.74 590.89,314.6 610.75,327.97 " fill="none" id="org.eclipse.epf.uma.presentation.UmaModelWizard-backto-org.eclipse.epf.uma.presentation.UmaModelWizard.UmaModelWizardInitialObjectCreationPage" style="stroke: #A80036; stroke-width: 1.0;"/><ellipse cx="528.4441" cy="272.5409" fill="#FFFFFF" rx="8" ry="8" style="stroke: #A80036; stroke-width: 1.0;"/><line style="stroke: #A80036; stroke-width: 1.0;" x1="535.0781" x2="521.81" y1="277.0119" y2="268.07"/><line style="stroke: #A80036; stroke-width: 1.0;" x1="523.9731" x2="532.915" y1="279.175" y2="265.9069"/><text fill="#888888" font-family="sans-serif" font-size="10" lengthAdjust="spacingAndGlyphs" textLength="190" x="328.5" y="391.5684">UMLDoclet 2.0.12, PlantUML 1.2020.16</text><!--MD5=[d13dba35784332dd882872306105449c]
@startuml
    set namespaceSeparator none
    hide empty fields
    hide empty methods

    class "<size:14>UmaModelWizard\n<size:10>org.eclipse.epf.uma.presentation" as org.eclipse.epf.uma.presentation.UmaModelWizard [[UmaModelWizard.html]] {
        {static} +FILE_EXTENSIONS: List<String>
        {static} +FORMATTED_FILE_EXTENSIONS: String
        +init(IWorkbench, IStructuredSelection): void
        +performFinish(): boolean
        +addPages(): void
        +getModelFile(): IFile
    }

    abstract class "<size:14>Wizard\n<size:10>org.eclipse.jface.wizard" as org.eclipse.jface.wizard.Wizard {
        {abstract} +performFinish(): boolean
    }
    interface "<size:14>INewWizard\n<size:10>org.eclipse.ui" as org.eclipse.ui.INewWizard
    class "<size:14>UmaModelWizard.UmaModelWizardNewFileCreationPage\n<size:10>org.eclipse.epf.uma.presentation" as org.eclipse.epf.uma.presentation.UmaModelWizard.UmaModelWizardNewFileCreationPage [[UmaModelWizard.UmaModelWizardNewFileCreationPage.html]]
    class "<size:14>UmaModelWizard.UmaModelWizardInitialObjectCreationPage\n<size:10>org.eclipse.epf.uma.presentation" as org.eclipse.epf.uma.presentation.UmaModelWizard.UmaModelWizardInitialObjectCreationPage [[UmaModelWizard.UmaModelWizardInitialObjectCreationPage.html]]

    org.eclipse.jface.wizard.Wizard <|- - org.eclipse.epf.uma.presentation.UmaModelWizard
    org.eclipse.ui.INewWizard <|.. org.eclipse.epf.uma.presentation.UmaModelWizard
    org.eclipse.epf.uma.presentation.UmaModelWizard +- - org.eclipse.epf.uma.presentation.UmaModelWizard.UmaModelWizardNewFileCreationPage
    org.eclipse.epf.uma.presentation.UmaModelWizard +- - org.eclipse.epf.uma.presentation.UmaModelWizard.UmaModelWizardInitialObjectCreationPage

    center footer UMLDoclet 2.0.12, PlantUML 1.2020.16
@enduml

PlantUML version 1.2020.16(Sun Aug 23 22:20:43 CEST 2020)
(APACHE source distribution)
Java Runtime: Java(TM) SE Runtime Environment
JVM: Java HotSpot(TM) 64-Bit Server VM
Default Encoding: Cp1252
Language: es
Country: ES
--></g></svg>