<?xml version="1.0" encoding="UTF-8" standalone="no"?><svg xmlns="http://www.w3.org/2000/svg" xmlns:xlink="http://www.w3.org/1999/xlink" contentScriptType="application/ecmascript" contentStyleType="text/css" height="259px" preserveAspectRatio="none" style="width:321px;height:259px;" version="1.1" viewBox="0 0 321 259" width="321px" zoomAndPan="magnify"><defs><filter height="300%" id="fqfdeao7ajzfq" width="300%" x="-1" y="-1"><feGaussianBlur result="blurOut" stdDeviation="2.0"/><feColorMatrix in="blurOut" result="blurOut2" type="matrix" values="0 0 0 0 0 0 0 0 0 0 0 0 0 0 0 0 0 0 .4 0"/><feOffset dx="4.0" dy="4.0" in="blurOut2" result="blurOut3"/><feBlend in="SourceGraphic" in2="blurOut3" mode="normal"/></filter></defs><g><!--MD5=[77f1ff8bf26a15ab275e0bffa783936f]
cluster org.eclipse.xtext.uma.ui.outline--><polygon fill="#FFFFFF" filter="url(#fqfdeao7ajzfq)" points="40,130,267,130,274,153.6094,277,153.6094,277,230,40,230,40,130" style="stroke: #000000; stroke-width: 1.5;"/><line style="stroke: #000000; stroke-width: 1.5;" x1="40" x2="274" y1="153.6094" y2="153.6094"/><text fill="#000000" font-family="sans-serif" font-size="14" font-weight="bold" lengthAdjust="spacingAndGlyphs" textLength="221" x="44" y="146.5332">org.eclipse.xtext.uma.ui.outline</text><!--MD5=[854c773435e2dc1389e5e89a091834df]
cluster org.eclipse.xtext.ui.editor.outline.impl--><polygon fill="#FFFFFF" filter="url(#fqfdeao7ajzfq)" points="16,6,289,6,296,29.6094,299,29.6094,299,106,16,106,16,6" style="stroke: #000000; stroke-width: 1.5;"/><line style="stroke: #000000; stroke-width: 1.5;" x1="16" x2="296" y1="29.6094" y2="29.6094"/><text fill="#000000" font-family="sans-serif" font-size="14" font-weight="bold" lengthAdjust="spacingAndGlyphs" textLength="267" x="20" y="22.5332">org.eclipse.xtext.ui.editor.outline.impl</text><!--MD5=[c1e3894ee5e27e7fa3f633c777db9ace]
class org.eclipse.xtext.uma.ui.outline.UmalOutlineTreeProvider--><a href="UmalOutlineTreeProvider.html" target="_top" title="UmalOutlineTreeProvider.html" xlink:actuate="onRequest" xlink:href="UmalOutlineTreeProvider.html" xlink:show="new" xlink:title="UmalOutlineTreeProvider.html" xlink:type="simple"><rect codeLine="3" fill="#FEFECE" filter="url(#fqfdeao7ajzfq)" height="48" id="org.eclipse.xtext.uma.ui.outline.UmalOutlineTreeProvider" style="stroke: #A80036; stroke-width: 1.5;" width="171" x="58.5" y="166"/><ellipse cx="73.5" cy="182" fill="#ADD1B2" rx="11" ry="11" style="stroke: #A80036; stroke-width: 1.0;"/><path d="M76.2656,177.875 Q76.4219,177.6563 76.6094,177.5469 Q76.7969,177.4375 77.0156,177.4375 Q77.3906,177.4375 77.625,177.7031 Q77.8594,177.9531 77.8594,178.5625 L77.8594,180.0156 Q77.8594,180.625 77.625,180.8906 Q77.3906,181.1563 77.0156,181.1563 Q76.6719,181.1563 76.4688,180.9531 Q76.2656,180.7656 76.1563,180.25 Q76.1094,179.8906 75.9219,179.7031 Q75.5938,179.3281 74.9844,179.1094 Q74.375,178.8906 73.75,178.8906 Q72.9844,178.8906 72.3438,179.2188 Q71.7188,179.5469 71.2188,180.2969 Q70.7344,181.0469 70.7344,182.0781 L70.7344,183.1719 Q70.7344,184.4063 71.625,185.2344 Q72.5156,186.0469 74.1094,186.0469 Q75.0469,186.0469 75.7031,185.7969 Q76.0938,185.6406 76.5156,185.2031 Q76.7813,184.9375 76.9219,184.8594 Q77.0781,184.7813 77.2813,184.7813 Q77.6094,184.7813 77.8594,185.0469 Q78.125,185.2969 78.125,185.6406 Q78.125,185.9844 77.7813,186.3906 Q77.2813,186.9688 76.4844,187.2969 Q75.4063,187.75 74.1094,187.75 Q72.5938,187.75 71.3906,187.125 Q70.4063,186.625 69.7188,185.5625 Q69.0313,184.4844 69.0313,183.2031 L69.0313,182.0469 Q69.0313,180.7188 69.6406,179.5781 Q70.2656,178.4219 71.3594,177.8125 Q72.4531,177.1875 73.6875,177.1875 Q74.4219,177.1875 75.0625,177.3594 Q75.7188,177.5156 76.2656,177.875 Z "/><text fill="#000000" font-family="sans-serif" font-size="12" lengthAdjust="spacingAndGlyphs" textLength="139" x="87.5" y="186.9102">UmalOutlineTreeProvider</text><line style="stroke: #A80036; stroke-width: 1.5;" x1="59.5" x2="228.5" y1="198" y2="198"/><line style="stroke: #A80036; stroke-width: 1.5;" x1="59.5" x2="228.5" y1="206" y2="206"/></a><!--MD5=[6e80262f4c1f36e1f1ce53d95b4d5701]
class org.eclipse.xtext.ui.editor.outline.impl.DefaultOutlineTreeProvider--><rect codeLine="9" fill="#FEFECE" filter="url(#fqfdeao7ajzfq)" height="48" id="org.eclipse.xtext.ui.editor.outline.impl.DefaultOutlineTreeProvider" style="stroke: #A80036; stroke-width: 1.5;" width="180" x="54" y="42"/><ellipse cx="69" cy="58" fill="#ADD1B2" rx="11" ry="11" style="stroke: #A80036; stroke-width: 1.0;"/><path d="M71.7656,53.875 Q71.9219,53.6563 72.1094,53.5469 Q72.2969,53.4375 72.5156,53.4375 Q72.8906,53.4375 73.125,53.7031 Q73.3594,53.9531 73.3594,54.5625 L73.3594,56.0156 Q73.3594,56.625 73.125,56.8906 Q72.8906,57.1563 72.5156,57.1563 Q72.1719,57.1563 71.9688,56.9531 Q71.7656,56.7656 71.6563,56.25 Q71.6094,55.8906 71.4219,55.7031 Q71.0938,55.3281 70.4844,55.1094 Q69.875,54.8906 69.25,54.8906 Q68.4844,54.8906 67.8438,55.2188 Q67.2188,55.5469 66.7188,56.2969 Q66.2344,57.0469 66.2344,58.0781 L66.2344,59.1719 Q66.2344,60.4063 67.125,61.2344 Q68.0156,62.0469 69.6094,62.0469 Q70.5469,62.0469 71.2031,61.7969 Q71.5938,61.6406 72.0156,61.2031 Q72.2813,60.9375 72.4219,60.8594 Q72.5781,60.7813 72.7813,60.7813 Q73.1094,60.7813 73.3594,61.0469 Q73.625,61.2969 73.625,61.6406 Q73.625,61.9844 73.2813,62.3906 Q72.7813,62.9688 71.9844,63.2969 Q70.9063,63.75 69.6094,63.75 Q68.0938,63.75 66.8906,63.125 Q65.9063,62.625 65.2188,61.5625 Q64.5313,60.4844 64.5313,59.2031 L64.5313,58.0469 Q64.5313,56.7188 65.1406,55.5781 Q65.7656,54.4219 66.8594,53.8125 Q67.9531,53.1875 69.1875,53.1875 Q69.9219,53.1875 70.5625,53.3594 Q71.2188,53.5156 71.7656,53.875 Z "/><text fill="#000000" font-family="sans-serif" font-size="12" lengthAdjust="spacingAndGlyphs" textLength="148" x="83" y="62.9102">DefaultOutlineTreeProvider</text><line style="stroke: #A80036; stroke-width: 1.5;" x1="55" x2="233" y1="74" y2="74"/><line style="stroke: #A80036; stroke-width: 1.5;" x1="55" x2="233" y1="82" y2="82"/><!--MD5=[695d7e6babad31c9787740afd838f55c]
reverse link org.eclipse.xtext.ui.editor.outline.impl.DefaultOutlineTreeProvider to org.eclipse.xtext.uma.ui.outline.UmalOutlineTreeProvider--><path codeLine="5" d="M144,110.27 C144,129.01 144,150.18 144,165.85 " fill="none" id="org.eclipse.xtext.ui.editor.outline.impl.DefaultOutlineTreeProvider-backto-org.eclipse.xtext.uma.ui.outline.UmalOutlineTreeProvider" style="stroke: #A80036; stroke-width: 1.0;"/><polygon fill="none" points="137,110.23,144,90.23,151,110.23,137,110.23" style="stroke: #A80036; stroke-width: 1.0;"/><text fill="#888888" font-family="sans-serif" font-size="10" lengthAdjust="spacingAndGlyphs" textLength="190" x="56.5" y="246.3809">UMLDoclet 2.0.12, PlantUML 1.2020.16</text><!--MD5=[720d9aae0752d118f35600e0603d45df]
@startuml
    namespace org.eclipse.xtext.uma.ui.outline {

        class UmalOutlineTreeProvider [[UmalOutlineTreeProvider.html]]

        org.eclipse.xtext.ui.editor.outline.impl.DefaultOutlineTreeProvider <|- - UmalOutlineTreeProvider
    }

    namespace org.eclipse.xtext.ui.editor.outline.impl {
        class DefaultOutlineTreeProvider {
        }
    }

    center footer UMLDoclet 2.0.12, PlantUML 1.2020.16
@enduml

PlantUML version 1.2020.16(Sun Aug 23 22:20:43 CEST 2020)
(APACHE source distribution)
Java Runtime: Java(TM) SE Runtime Environment
JVM: Java HotSpot(TM) 64-Bit Server VM
Default Encoding: Cp1252
Language: es
Country: ES
--></g></svg>