<?xml version="1.0" encoding="UTF-8" standalone="no"?><svg xmlns="http://www.w3.org/2000/svg" xmlns:xlink="http://www.w3.org/1999/xlink" contentScriptType="application/ecmascript" contentStyleType="text/css" height="184px" preserveAspectRatio="none" style="width:237px;height:184px;" version="1.1" viewBox="0 0 237 184" width="237px" zoomAndPan="magnify"><defs><filter height="300%" id="ftj4ehyvpyb6k" width="300%" x="-1" y="-1"><feGaussianBlur result="blurOut" stdDeviation="2.0"/><feColorMatrix in="blurOut" result="blurOut2" type="matrix" values="0 0 0 0 0 0 0 0 0 0 0 0 0 0 0 0 0 0 .4 0"/><feOffset dx="4.0" dy="4.0" in="blurOut2" result="blurOut3"/><feBlend in="SourceGraphic" in2="blurOut3" mode="normal"/></filter></defs><g><!--MD5=[c1e3894ee5e27e7fa3f633c777db9ace]
class org.eclipse.xtext.uma.ui.outline.UmalOutlineTreeProvider--><a href="UmalOutlineTreeProvider.html" target="_top" title="UmalOutlineTreeProvider.html" xlink:actuate="onRequest" xlink:href="UmalOutlineTreeProvider.html" xlink:show="new" xlink:title="UmalOutlineTreeProvider.html" xlink:type="simple"><rect codeLine="5" fill="#FEFECE" filter="url(#ftj4ehyvpyb6k)" height="40.1875" id="org.eclipse.xtext.uma.ui.outline.UmalOutlineTreeProvider" style="stroke: #A80036; stroke-width: 1.5;" width="191" x="17" y="107"/><ellipse cx="32" cy="127.0938" fill="#ADD1B2" rx="11" ry="11" style="stroke: #A80036; stroke-width: 1.0;"/><path d="M34.7656,122.9688 Q34.9219,122.75 35.1094,122.6406 Q35.2969,122.5313 35.5156,122.5313 Q35.8906,122.5313 36.125,122.7969 Q36.3594,123.0469 36.3594,123.6563 L36.3594,125.1094 Q36.3594,125.7188 36.125,125.9844 Q35.8906,126.25 35.5156,126.25 Q35.1719,126.25 34.9688,126.0469 Q34.7656,125.8594 34.6563,125.3438 Q34.6094,124.9844 34.4219,124.7969 Q34.0938,124.4219 33.4844,124.2031 Q32.875,123.9844 32.25,123.9844 Q31.4844,123.9844 30.8438,124.3125 Q30.2188,124.6406 29.7188,125.3906 Q29.2344,126.1406 29.2344,127.1719 L29.2344,128.2656 Q29.2344,129.5 30.125,130.3281 Q31.0156,131.1406 32.6094,131.1406 Q33.5469,131.1406 34.2031,130.8906 Q34.5938,130.7344 35.0156,130.2969 Q35.2813,130.0313 35.4219,129.9531 Q35.5781,129.875 35.7813,129.875 Q36.1094,129.875 36.3594,130.1406 Q36.625,130.3906 36.625,130.7344 Q36.625,131.0781 36.2813,131.4844 Q35.7813,132.0625 34.9844,132.3906 Q33.9063,132.8438 32.6094,132.8438 Q31.0938,132.8438 29.8906,132.2188 Q28.9063,131.7188 28.2188,130.6563 Q27.5313,129.5781 27.5313,128.2969 L27.5313,127.1406 Q27.5313,125.8125 28.1406,124.6719 Q28.7656,123.5156 29.8594,122.9063 Q30.9531,122.2813 32.1875,122.2813 Q32.9219,122.2813 33.5625,122.4531 Q34.2188,122.6094 34.7656,122.9688 Z "/><text fill="#000000" font-family="sans-serif" font-size="14" lengthAdjust="spacingAndGlyphs" textLength="159" x="46" y="126.5332">UmalOutlineTreeProvider</text><text fill="#000000" font-family="sans-serif" font-size="10" lengthAdjust="spacingAndGlyphs" textLength="149" x="51" y="139.9902">org.eclipse.xtext.uma.ui.outline</text></a><!--MD5=[6e80262f4c1f36e1f1ce53d95b4d5701]
class org.eclipse.xtext.ui.editor.outline.impl.DefaultOutlineTreeProvider--><rect codeLine="7" fill="#FEFECE" filter="url(#ftj4ehyvpyb6k)" height="40.1875" id="org.eclipse.xtext.ui.editor.outline.impl.DefaultOutlineTreeProvider" style="stroke: #A80036; stroke-width: 1.5;" width="211" x="7" y="7"/><ellipse cx="22" cy="27.0938" fill="#ADD1B2" rx="11" ry="11" style="stroke: #A80036; stroke-width: 1.0;"/><path d="M24.7656,22.9688 Q24.9219,22.75 25.1094,22.6406 Q25.2969,22.5313 25.5156,22.5313 Q25.8906,22.5313 26.125,22.7969 Q26.3594,23.0469 26.3594,23.6563 L26.3594,25.1094 Q26.3594,25.7188 26.125,25.9844 Q25.8906,26.25 25.5156,26.25 Q25.1719,26.25 24.9688,26.0469 Q24.7656,25.8594 24.6563,25.3438 Q24.6094,24.9844 24.4219,24.7969 Q24.0938,24.4219 23.4844,24.2031 Q22.875,23.9844 22.25,23.9844 Q21.4844,23.9844 20.8438,24.3125 Q20.2188,24.6406 19.7188,25.3906 Q19.2344,26.1406 19.2344,27.1719 L19.2344,28.2656 Q19.2344,29.5 20.125,30.3281 Q21.0156,31.1406 22.6094,31.1406 Q23.5469,31.1406 24.2031,30.8906 Q24.5938,30.7344 25.0156,30.2969 Q25.2813,30.0313 25.4219,29.9531 Q25.5781,29.875 25.7813,29.875 Q26.1094,29.875 26.3594,30.1406 Q26.625,30.3906 26.625,30.7344 Q26.625,31.0781 26.2813,31.4844 Q25.7813,32.0625 24.9844,32.3906 Q23.9063,32.8438 22.6094,32.8438 Q21.0938,32.8438 19.8906,32.2188 Q18.9063,31.7188 18.2188,30.6563 Q17.5313,29.5781 17.5313,28.2969 L17.5313,27.1406 Q17.5313,25.8125 18.1406,24.6719 Q18.7656,23.5156 19.8594,22.9063 Q20.9531,22.2813 22.1875,22.2813 Q22.9219,22.2813 23.5625,22.4531 Q24.2188,22.6094 24.7656,22.9688 Z "/><text fill="#000000" font-family="sans-serif" font-size="14" lengthAdjust="spacingAndGlyphs" textLength="173" x="39" y="26.5332">DefaultOutlineTreeProvider</text><text fill="#000000" font-family="sans-serif" font-size="10" lengthAdjust="spacingAndGlyphs" textLength="179" x="36" y="39.9902">org.eclipse.xtext.ui.editor.outline.impl</text><!--MD5=[695d7e6babad31c9787740afd838f55c]
reverse link org.eclipse.xtext.ui.editor.outline.impl.DefaultOutlineTreeProvider to org.eclipse.xtext.uma.ui.outline.UmalOutlineTreeProvider--><path codeLine="9" d="M112.5,67.69 C112.5,81.13 112.5,95.55 112.5,106.68 " fill="none" id="org.eclipse.xtext.ui.editor.outline.impl.DefaultOutlineTreeProvider-backto-org.eclipse.xtext.uma.ui.outline.UmalOutlineTreeProvider" style="stroke: #A80036; stroke-width: 1.0;"/><polygon fill="none" points="105.5,67.36,112.5,47.36,119.5,67.36,105.5,67.36" style="stroke: #A80036; stroke-width: 1.0;"/><text fill="#888888" font-family="sans-serif" font-size="10" lengthAdjust="spacingAndGlyphs" textLength="190" x="14.5" y="170.5684">UMLDoclet 2.0.12, PlantUML 1.2020.16</text><!--MD5=[32eac1df17cec22a10d7008851672407]
@startuml
    set namespaceSeparator none
    hide empty fields
    hide empty methods

    class "<size:14>UmalOutlineTreeProvider\n<size:10>org.eclipse.xtext.uma.ui.outline" as org.eclipse.xtext.uma.ui.outline.UmalOutlineTreeProvider [[UmalOutlineTreeProvider.html]]

    class "<size:14>DefaultOutlineTreeProvider\n<size:10>org.eclipse.xtext.ui.editor.outline.impl" as org.eclipse.xtext.ui.editor.outline.impl.DefaultOutlineTreeProvider

    org.eclipse.xtext.ui.editor.outline.impl.DefaultOutlineTreeProvider <|- - org.eclipse.xtext.uma.ui.outline.UmalOutlineTreeProvider

    center footer UMLDoclet 2.0.12, PlantUML 1.2020.16
@enduml

PlantUML version 1.2020.16(Sun Aug 23 22:20:43 CEST 2020)
(APACHE source distribution)
Java Runtime: Java(TM) SE Runtime Environment
JVM: Java HotSpot(TM) 64-Bit Server VM
Default Encoding: Cp1252
Language: es
Country: ES
--></g></svg>