<?xml version="1.0" encoding="UTF-8" standalone="no"?><svg xmlns="http://www.w3.org/2000/svg" xmlns:xlink="http://www.w3.org/1999/xlink" contentScriptType="application/ecmascript" contentStyleType="text/css" height="273px" preserveAspectRatio="none" style="width:572px;height:273px;" version="1.1" viewBox="0 0 572 273" width="572px" zoomAndPan="magnify"><defs><filter height="300%" id="f13fc6fo0ovzrl" width="300%" x="-1" y="-1"><feGaussianBlur result="blurOut" stdDeviation="2.0"/><feColorMatrix in="blurOut" result="blurOut2" type="matrix" values="0 0 0 0 0 0 0 0 0 0 0 0 0 0 0 0 0 0 .4 0"/><feOffset dx="4.0" dy="4.0" in="blurOut2" result="blurOut3"/><feBlend in="SourceGraphic" in2="blurOut3" mode="normal"/></filter></defs><g><!--MD5=[4df2eb1c43b2fd456a9c888d9d42a772]
cluster org.eclipse.xtext.uma.ui.labeling--><polygon fill="#FFFFFF" filter="url(#f13fc6fo0ovzrl)" points="16,130,250,130,257,153.6094,550,153.6094,550,244,16,244,16,130" style="stroke: #000000; stroke-width: 1.5;"/><line style="stroke: #000000; stroke-width: 1.5;" x1="16" x2="257" y1="153.6094" y2="153.6094"/><text fill="#000000" font-family="sans-serif" font-size="14" font-weight="bold" lengthAdjust="spacingAndGlyphs" textLength="228" x="20" y="146.5332">org.eclipse.xtext.uma.ui.labeling</text><!--MD5=[905827f3f6b1bf2a44a28efa1569ac02]
cluster org.eclipse.xtext.ui.label--><polygon fill="#FFFFFF" filter="url(#f13fc6fo0ovzrl)" points="68,6,247,6,254,29.6094,535,29.6094,535,106,68,106,68,6" style="stroke: #000000; stroke-width: 1.5;"/><line style="stroke: #000000; stroke-width: 1.5;" x1="68" x2="254" y1="29.6094" y2="29.6094"/><text fill="#000000" font-family="sans-serif" font-size="14" font-weight="bold" lengthAdjust="spacingAndGlyphs" textLength="173" x="72" y="22.5332">org.eclipse.xtext.ui.label</text><!--MD5=[f08b09293ceab71415c4a6e79ea8756b]
class org.eclipse.xtext.uma.ui.labeling.UmalDescriptionLabelProvider--><a href="UmalDescriptionLabelProvider.html" target="_top" title="UmalDescriptionLabelProvider.html" xlink:actuate="onRequest" xlink:href="UmalDescriptionLabelProvider.html" xlink:show="new" xlink:title="UmalDescriptionLabelProvider.html" xlink:type="simple"><rect codeLine="3" fill="#FEFECE" filter="url(#f13fc6fo0ovzrl)" height="48" id="org.eclipse.xtext.uma.ui.labeling.UmalDescriptionLabelProvider" style="stroke: #A80036; stroke-width: 1.5;" width="201" x="332.5" y="173"/><ellipse cx="347.5" cy="189" fill="#ADD1B2" rx="11" ry="11" style="stroke: #A80036; stroke-width: 1.0;"/><path d="M350.2656,184.875 Q350.4219,184.6563 350.6094,184.5469 Q350.7969,184.4375 351.0156,184.4375 Q351.3906,184.4375 351.625,184.7031 Q351.8594,184.9531 351.8594,185.5625 L351.8594,187.0156 Q351.8594,187.625 351.625,187.8906 Q351.3906,188.1563 351.0156,188.1563 Q350.6719,188.1563 350.4688,187.9531 Q350.2656,187.7656 350.1563,187.25 Q350.1094,186.8906 349.9219,186.7031 Q349.5938,186.3281 348.9844,186.1094 Q348.375,185.8906 347.75,185.8906 Q346.9844,185.8906 346.3438,186.2188 Q345.7188,186.5469 345.2188,187.2969 Q344.7344,188.0469 344.7344,189.0781 L344.7344,190.1719 Q344.7344,191.4063 345.625,192.2344 Q346.5156,193.0469 348.1094,193.0469 Q349.0469,193.0469 349.7031,192.7969 Q350.0938,192.6406 350.5156,192.2031 Q350.7813,191.9375 350.9219,191.8594 Q351.0781,191.7813 351.2813,191.7813 Q351.6094,191.7813 351.8594,192.0469 Q352.125,192.2969 352.125,192.6406 Q352.125,192.9844 351.7813,193.3906 Q351.2813,193.9688 350.4844,194.2969 Q349.4063,194.75 348.1094,194.75 Q346.5938,194.75 345.3906,194.125 Q344.4063,193.625 343.7188,192.5625 Q343.0313,191.4844 343.0313,190.2031 L343.0313,189.0469 Q343.0313,187.7188 343.6406,186.5781 Q344.2656,185.4219 345.3594,184.8125 Q346.4531,184.1875 347.6875,184.1875 Q348.4219,184.1875 349.0625,184.3594 Q349.7188,184.5156 350.2656,184.875 Z "/><text fill="#000000" font-family="sans-serif" font-size="12" lengthAdjust="spacingAndGlyphs" textLength="169" x="361.5" y="193.9102">UmalDescriptionLabelProvider</text><line style="stroke: #A80036; stroke-width: 1.5;" x1="333.5" x2="532.5" y1="205" y2="205"/><line style="stroke: #A80036; stroke-width: 1.5;" x1="333.5" x2="532.5" y1="213" y2="213"/></a><!--MD5=[e6b9f279f185f02338d8e29435c9a8df]
class org.eclipse.xtext.uma.ui.labeling.UmalLabelProvider--><a href="UmalLabelProvider.html" target="_top" title="UmalLabelProvider.html" xlink:actuate="onRequest" xlink:href="UmalLabelProvider.html" xlink:show="new" xlink:title="UmalLabelProvider.html" xlink:type="simple"><rect codeLine="5" fill="#FEFECE" filter="url(#f13fc6fo0ovzrl)" height="61.8359" id="org.eclipse.xtext.uma.ui.labeling.UmalLabelProvider" style="stroke: #A80036; stroke-width: 1.5;" width="265" x="32.5" y="166"/><ellipse cx="107.75" cy="182" fill="#ADD1B2" rx="11" ry="11" style="stroke: #A80036; stroke-width: 1.0;"/><path d="M110.5156,177.875 Q110.6719,177.6563 110.8594,177.5469 Q111.0469,177.4375 111.2656,177.4375 Q111.6406,177.4375 111.875,177.7031 Q112.1094,177.9531 112.1094,178.5625 L112.1094,180.0156 Q112.1094,180.625 111.875,180.8906 Q111.6406,181.1563 111.2656,181.1563 Q110.9219,181.1563 110.7188,180.9531 Q110.5156,180.7656 110.4063,180.25 Q110.3594,179.8906 110.1719,179.7031 Q109.8438,179.3281 109.2344,179.1094 Q108.625,178.8906 108,178.8906 Q107.2344,178.8906 106.5938,179.2188 Q105.9688,179.5469 105.4688,180.2969 Q104.9844,181.0469 104.9844,182.0781 L104.9844,183.1719 Q104.9844,184.4063 105.875,185.2344 Q106.7656,186.0469 108.3594,186.0469 Q109.2969,186.0469 109.9531,185.7969 Q110.3438,185.6406 110.7656,185.2031 Q111.0313,184.9375 111.1719,184.8594 Q111.3281,184.7813 111.5313,184.7813 Q111.8594,184.7813 112.1094,185.0469 Q112.375,185.2969 112.375,185.6406 Q112.375,185.9844 112.0313,186.3906 Q111.5313,186.9688 110.7344,187.2969 Q109.6563,187.75 108.3594,187.75 Q106.8438,187.75 105.6406,187.125 Q104.6563,186.625 103.9688,185.5625 Q103.2813,184.4844 103.2813,183.2031 L103.2813,182.0469 Q103.2813,180.7188 103.8906,179.5781 Q104.5156,178.4219 105.6094,177.8125 Q106.7031,177.1875 107.9375,177.1875 Q108.6719,177.1875 109.3125,177.3594 Q109.9688,177.5156 110.5156,177.875 Z "/><text fill="#000000" font-family="sans-serif" font-size="12" lengthAdjust="spacingAndGlyphs" textLength="106" x="128.25" y="186.9102">UmalLabelProvider</text><line style="stroke: #A80036; stroke-width: 1.5;" x1="33.5" x2="296.5" y1="198" y2="198"/><line style="stroke: #A80036; stroke-width: 1.5;" x1="33.5" x2="296.5" y1="206" y2="206"/><ellipse cx="43.5" cy="217" fill="#84BE84" rx="3" ry="3" style="stroke: #038048; stroke-width: 1.0;"/><text fill="#000000" font-family="sans-serif" font-size="11" lengthAdjust="spacingAndGlyphs" textLength="239" x="52.5" y="221.4189">UmalLabelProvider(AdapterFactoryLabelProvider)</text></a><!--MD5=[09cd9f23f24cdd4074e9d280148725d6]
class org.eclipse.xtext.ui.label.DefaultDescriptionLabelProvider--><rect codeLine="14" fill="#FEFECE" filter="url(#f13fc6fo0ovzrl)" height="48" id="org.eclipse.xtext.ui.label.DefaultDescriptionLabelProvider" style="stroke: #A80036; stroke-width: 1.5;" width="210" x="309" y="42"/><ellipse cx="324" cy="58" fill="#ADD1B2" rx="11" ry="11" style="stroke: #A80036; stroke-width: 1.0;"/><path d="M326.7656,53.875 Q326.9219,53.6563 327.1094,53.5469 Q327.2969,53.4375 327.5156,53.4375 Q327.8906,53.4375 328.125,53.7031 Q328.3594,53.9531 328.3594,54.5625 L328.3594,56.0156 Q328.3594,56.625 328.125,56.8906 Q327.8906,57.1563 327.5156,57.1563 Q327.1719,57.1563 326.9688,56.9531 Q326.7656,56.7656 326.6563,56.25 Q326.6094,55.8906 326.4219,55.7031 Q326.0938,55.3281 325.4844,55.1094 Q324.875,54.8906 324.25,54.8906 Q323.4844,54.8906 322.8438,55.2188 Q322.2188,55.5469 321.7188,56.2969 Q321.2344,57.0469 321.2344,58.0781 L321.2344,59.1719 Q321.2344,60.4063 322.125,61.2344 Q323.0156,62.0469 324.6094,62.0469 Q325.5469,62.0469 326.2031,61.7969 Q326.5938,61.6406 327.0156,61.2031 Q327.2813,60.9375 327.4219,60.8594 Q327.5781,60.7813 327.7813,60.7813 Q328.1094,60.7813 328.3594,61.0469 Q328.625,61.2969 328.625,61.6406 Q328.625,61.9844 328.2813,62.3906 Q327.7813,62.9688 326.9844,63.2969 Q325.9063,63.75 324.6094,63.75 Q323.0938,63.75 321.8906,63.125 Q320.9063,62.625 320.2188,61.5625 Q319.5313,60.4844 319.5313,59.2031 L319.5313,58.0469 Q319.5313,56.7188 320.1406,55.5781 Q320.7656,54.4219 321.8594,53.8125 Q322.9531,53.1875 324.1875,53.1875 Q324.9219,53.1875 325.5625,53.3594 Q326.2188,53.5156 326.7656,53.875 Z "/><text fill="#000000" font-family="sans-serif" font-size="12" lengthAdjust="spacingAndGlyphs" textLength="178" x="338" y="62.9102">DefaultDescriptionLabelProvider</text><line style="stroke: #A80036; stroke-width: 1.5;" x1="310" x2="518" y1="74" y2="74"/><line style="stroke: #A80036; stroke-width: 1.5;" x1="310" x2="518" y1="82" y2="82"/><!--MD5=[5784c51bd12cce37de5b39c323d5f573]
class org.eclipse.xtext.ui.label.DefaultEObjectLabelProvider--><rect codeLine="16" fill="#FEFECE" filter="url(#f13fc6fo0ovzrl)" height="48" id="org.eclipse.xtext.ui.label.DefaultEObjectLabelProvider" style="stroke: #A80036; stroke-width: 1.5;" width="190" x="84" y="42"/><ellipse cx="99" cy="58" fill="#ADD1B2" rx="11" ry="11" style="stroke: #A80036; stroke-width: 1.0;"/><path d="M101.7656,53.875 Q101.9219,53.6563 102.1094,53.5469 Q102.2969,53.4375 102.5156,53.4375 Q102.8906,53.4375 103.125,53.7031 Q103.3594,53.9531 103.3594,54.5625 L103.3594,56.0156 Q103.3594,56.625 103.125,56.8906 Q102.8906,57.1563 102.5156,57.1563 Q102.1719,57.1563 101.9688,56.9531 Q101.7656,56.7656 101.6563,56.25 Q101.6094,55.8906 101.4219,55.7031 Q101.0938,55.3281 100.4844,55.1094 Q99.875,54.8906 99.25,54.8906 Q98.4844,54.8906 97.8438,55.2188 Q97.2188,55.5469 96.7188,56.2969 Q96.2344,57.0469 96.2344,58.0781 L96.2344,59.1719 Q96.2344,60.4063 97.125,61.2344 Q98.0156,62.0469 99.6094,62.0469 Q100.5469,62.0469 101.2031,61.7969 Q101.5938,61.6406 102.0156,61.2031 Q102.2813,60.9375 102.4219,60.8594 Q102.5781,60.7813 102.7813,60.7813 Q103.1094,60.7813 103.3594,61.0469 Q103.625,61.2969 103.625,61.6406 Q103.625,61.9844 103.2813,62.3906 Q102.7813,62.9688 101.9844,63.2969 Q100.9063,63.75 99.6094,63.75 Q98.0938,63.75 96.8906,63.125 Q95.9063,62.625 95.2188,61.5625 Q94.5313,60.4844 94.5313,59.2031 L94.5313,58.0469 Q94.5313,56.7188 95.1406,55.5781 Q95.7656,54.4219 96.8594,53.8125 Q97.9531,53.1875 99.1875,53.1875 Q99.9219,53.1875 100.5625,53.3594 Q101.2188,53.5156 101.7656,53.875 Z "/><text fill="#000000" font-family="sans-serif" font-size="12" lengthAdjust="spacingAndGlyphs" textLength="158" x="113" y="62.9102">DefaultEObjectLabelProvider</text><line style="stroke: #A80036; stroke-width: 1.5;" x1="85" x2="273" y1="74" y2="74"/><line style="stroke: #A80036; stroke-width: 1.5;" x1="85" x2="273" y1="82" y2="82"/><!--MD5=[ba23fca7956bcad8e4e35b5a2ee03ac8]
reverse link org.eclipse.xtext.ui.label.DefaultDescriptionLabelProvider to org.eclipse.xtext.uma.ui.labeling.UmalDescriptionLabelProvider--><path codeLine="9" d="M420.31,109.86 C423.4,130.82 426.99,155.23 429.57,172.7 " fill="none" id="org.eclipse.xtext.ui.label.DefaultDescriptionLabelProvider-backto-org.eclipse.xtext.uma.ui.labeling.UmalDescriptionLabelProvider" style="stroke: #A80036; stroke-width: 1.0;"/><polygon fill="none" points="413.39,110.87,417.4,90.06,427.24,108.83,413.39,110.87" style="stroke: #A80036; stroke-width: 1.0;"/><!--MD5=[bcd36276cd4635d8467968900f3af9e6]
reverse link org.eclipse.xtext.ui.label.DefaultEObjectLabelProvider to org.eclipse.xtext.uma.ui.labeling.UmalLabelProvider--><path codeLine="10" d="M174.34,109.95 C172.35,128.27 170.08,149.22 168.27,165.85 " fill="none" id="org.eclipse.xtext.ui.label.DefaultEObjectLabelProvider-backto-org.eclipse.xtext.uma.ui.labeling.UmalLabelProvider" style="stroke: #A80036; stroke-width: 1.0;"/><polygon fill="none" points="167.38,109.19,176.5,90.06,181.3,110.7,167.38,109.19" style="stroke: #A80036; stroke-width: 1.0;"/><text fill="#888888" font-family="sans-serif" font-size="10" lengthAdjust="spacingAndGlyphs" textLength="190" x="182" y="260.3809">UMLDoclet 2.0.12, PlantUML 1.2020.16</text><!--MD5=[8d8f57bf50ffae03fa5b747ae6425af1]
@startuml
    namespace org.eclipse.xtext.uma.ui.labeling {

        class UmalDescriptionLabelProvider [[UmalDescriptionLabelProvider.html]]

        class UmalLabelProvider [[UmalLabelProvider.html]] {
            +UmalLabelProvider(AdapterFactoryLabelProvider)
        }

        org.eclipse.xtext.ui.label.DefaultDescriptionLabelProvider <|- - UmalDescriptionLabelProvider
        org.eclipse.xtext.ui.label.DefaultEObjectLabelProvider <|- - UmalLabelProvider
    }

    namespace org.eclipse.xtext.ui.label {
        class DefaultDescriptionLabelProvider {
        }
        class DefaultEObjectLabelProvider
    }

    center footer UMLDoclet 2.0.12, PlantUML 1.2020.16
@enduml

PlantUML version 1.2020.16(Sun Aug 23 22:20:43 CEST 2020)
(APACHE source distribution)
Java Runtime: Java(TM) SE Runtime Environment
JVM: Java HotSpot(TM) 64-Bit Server VM
Default Encoding: Cp1252
Language: es
Country: ES
--></g></svg>