<?xml version="1.0" encoding="UTF-8" standalone="no"?><svg xmlns="http://www.w3.org/2000/svg" xmlns:xlink="http://www.w3.org/1999/xlink" contentScriptType="application/ecmascript" contentStyleType="text/css" height="184px" preserveAspectRatio="none" style="width:262px;height:184px;" version="1.1" viewBox="0 0 262 184" width="262px" zoomAndPan="magnify"><defs><filter height="300%" id="f1hnkhft0mrp1v" width="300%" x="-1" y="-1"><feGaussianBlur result="blurOut" stdDeviation="2.0"/><feColorMatrix in="blurOut" result="blurOut2" type="matrix" values="0 0 0 0 0 0 0 0 0 0 0 0 0 0 0 0 0 0 .4 0"/><feOffset dx="4.0" dy="4.0" in="blurOut2" result="blurOut3"/><feBlend in="SourceGraphic" in2="blurOut3" mode="normal"/></filter></defs><g><!--MD5=[f08b09293ceab71415c4a6e79ea8756b]
class org.eclipse.xtext.uma.ui.labeling.UmalDescriptionLabelProvider--><a href="UmalDescriptionLabelProvider.html" target="_top" title="UmalDescriptionLabelProvider.html" xlink:actuate="onRequest" xlink:href="UmalDescriptionLabelProvider.html" xlink:show="new" xlink:title="UmalDescriptionLabelProvider.html" xlink:type="simple"><rect codeLine="5" fill="#FEFECE" filter="url(#f1hnkhft0mrp1v)" height="40.1875" id="org.eclipse.xtext.uma.ui.labeling.UmalDescriptionLabelProvider" style="stroke: #A80036; stroke-width: 1.5;" width="222" x="14" y="107"/><ellipse cx="29" cy="127.0938" fill="#ADD1B2" rx="11" ry="11" style="stroke: #A80036; stroke-width: 1.0;"/><path d="M31.7656,122.9688 Q31.9219,122.75 32.1094,122.6406 Q32.2969,122.5313 32.5156,122.5313 Q32.8906,122.5313 33.125,122.7969 Q33.3594,123.0469 33.3594,123.6563 L33.3594,125.1094 Q33.3594,125.7188 33.125,125.9844 Q32.8906,126.25 32.5156,126.25 Q32.1719,126.25 31.9688,126.0469 Q31.7656,125.8594 31.6563,125.3438 Q31.6094,124.9844 31.4219,124.7969 Q31.0938,124.4219 30.4844,124.2031 Q29.875,123.9844 29.25,123.9844 Q28.4844,123.9844 27.8438,124.3125 Q27.2188,124.6406 26.7188,125.3906 Q26.2344,126.1406 26.2344,127.1719 L26.2344,128.2656 Q26.2344,129.5 27.125,130.3281 Q28.0156,131.1406 29.6094,131.1406 Q30.5469,131.1406 31.2031,130.8906 Q31.5938,130.7344 32.0156,130.2969 Q32.2813,130.0313 32.4219,129.9531 Q32.5781,129.875 32.7813,129.875 Q33.1094,129.875 33.3594,130.1406 Q33.625,130.3906 33.625,130.7344 Q33.625,131.0781 33.2813,131.4844 Q32.7813,132.0625 31.9844,132.3906 Q30.9063,132.8438 29.6094,132.8438 Q28.0938,132.8438 26.8906,132.2188 Q25.9063,131.7188 25.2188,130.6563 Q24.5313,129.5781 24.5313,128.2969 L24.5313,127.1406 Q24.5313,125.8125 25.1406,124.6719 Q25.7656,123.5156 26.8594,122.9063 Q27.9531,122.2813 29.1875,122.2813 Q29.9219,122.2813 30.5625,122.4531 Q31.2188,122.6094 31.7656,122.9688 Z "/><text fill="#000000" font-family="sans-serif" font-size="14" lengthAdjust="spacingAndGlyphs" textLength="190" x="43" y="126.5332">UmalDescriptionLabelProvider</text><text fill="#000000" font-family="sans-serif" font-size="10" lengthAdjust="spacingAndGlyphs" textLength="155" x="60.5" y="139.9902">org.eclipse.xtext.uma.ui.labeling</text></a><!--MD5=[09cd9f23f24cdd4074e9d280148725d6]
class org.eclipse.xtext.ui.label.DefaultDescriptionLabelProvider--><rect codeLine="7" fill="#FEFECE" filter="url(#f1hnkhft0mrp1v)" height="40.1875" id="org.eclipse.xtext.ui.label.DefaultDescriptionLabelProvider" style="stroke: #A80036; stroke-width: 1.5;" width="236" x="7" y="7"/><ellipse cx="22" cy="27.0938" fill="#ADD1B2" rx="11" ry="11" style="stroke: #A80036; stroke-width: 1.0;"/><path d="M24.7656,22.9688 Q24.9219,22.75 25.1094,22.6406 Q25.2969,22.5313 25.5156,22.5313 Q25.8906,22.5313 26.125,22.7969 Q26.3594,23.0469 26.3594,23.6563 L26.3594,25.1094 Q26.3594,25.7188 26.125,25.9844 Q25.8906,26.25 25.5156,26.25 Q25.1719,26.25 24.9688,26.0469 Q24.7656,25.8594 24.6563,25.3438 Q24.6094,24.9844 24.4219,24.7969 Q24.0938,24.4219 23.4844,24.2031 Q22.875,23.9844 22.25,23.9844 Q21.4844,23.9844 20.8438,24.3125 Q20.2188,24.6406 19.7188,25.3906 Q19.2344,26.1406 19.2344,27.1719 L19.2344,28.2656 Q19.2344,29.5 20.125,30.3281 Q21.0156,31.1406 22.6094,31.1406 Q23.5469,31.1406 24.2031,30.8906 Q24.5938,30.7344 25.0156,30.2969 Q25.2813,30.0313 25.4219,29.9531 Q25.5781,29.875 25.7813,29.875 Q26.1094,29.875 26.3594,30.1406 Q26.625,30.3906 26.625,30.7344 Q26.625,31.0781 26.2813,31.4844 Q25.7813,32.0625 24.9844,32.3906 Q23.9063,32.8438 22.6094,32.8438 Q21.0938,32.8438 19.8906,32.2188 Q18.9063,31.7188 18.2188,30.6563 Q17.5313,29.5781 17.5313,28.2969 L17.5313,27.1406 Q17.5313,25.8125 18.1406,24.6719 Q18.7656,23.5156 19.8594,22.9063 Q20.9531,22.2813 22.1875,22.2813 Q22.9219,22.2813 23.5625,22.4531 Q24.2188,22.6094 24.7656,22.9688 Z "/><text fill="#000000" font-family="sans-serif" font-size="14" lengthAdjust="spacingAndGlyphs" textLength="204" x="36" y="26.5332">DefaultDescriptionLabelProvider</text><text fill="#000000" font-family="sans-serif" font-size="10" lengthAdjust="spacingAndGlyphs" textLength="116" x="80" y="39.9902">org.eclipse.xtext.ui.label</text><!--MD5=[ba23fca7956bcad8e4e35b5a2ee03ac8]
reverse link org.eclipse.xtext.ui.label.DefaultDescriptionLabelProvider to org.eclipse.xtext.uma.ui.labeling.UmalDescriptionLabelProvider--><path codeLine="9" d="M125,67.69 C125,81.13 125,95.55 125,106.68 " fill="none" id="org.eclipse.xtext.ui.label.DefaultDescriptionLabelProvider-backto-org.eclipse.xtext.uma.ui.labeling.UmalDescriptionLabelProvider" style="stroke: #A80036; stroke-width: 1.0;"/><polygon fill="none" points="118,67.36,125,47.36,132,67.36,118,67.36" style="stroke: #A80036; stroke-width: 1.0;"/><text fill="#888888" font-family="sans-serif" font-size="10" lengthAdjust="spacingAndGlyphs" textLength="190" x="27" y="170.5684">UMLDoclet 2.0.12, PlantUML 1.2020.16</text><!--MD5=[48f0eb5458b26ffcc1160f39400da229]
@startuml
    set namespaceSeparator none
    hide empty fields
    hide empty methods

    class "<size:14>UmalDescriptionLabelProvider\n<size:10>org.eclipse.xtext.uma.ui.labeling" as org.eclipse.xtext.uma.ui.labeling.UmalDescriptionLabelProvider [[UmalDescriptionLabelProvider.html]]

    class "<size:14>DefaultDescriptionLabelProvider\n<size:10>org.eclipse.xtext.ui.label" as org.eclipse.xtext.ui.label.DefaultDescriptionLabelProvider

    org.eclipse.xtext.ui.label.DefaultDescriptionLabelProvider <|- - org.eclipse.xtext.uma.ui.labeling.UmalDescriptionLabelProvider

    center footer UMLDoclet 2.0.12, PlantUML 1.2020.16
@enduml

PlantUML version 1.2020.16(Sun Aug 23 22:20:43 CEST 2020)
(APACHE source distribution)
Java Runtime: Java(TM) SE Runtime Environment
JVM: Java HotSpot(TM) 64-Bit Server VM
Default Encoding: Cp1252
Language: es
Country: ES
--></g></svg>