<?xml version="1.0" encoding="UTF-8" standalone="no"?><svg xmlns="http://www.w3.org/2000/svg" xmlns:xlink="http://www.w3.org/1999/xlink" contentScriptType="application/ecmascript" contentStyleType="text/css" height="205px" preserveAspectRatio="none" style="width:291px;height:205px;" version="1.1" viewBox="0 0 291 205" width="291px" zoomAndPan="magnify"><defs><filter height="300%" id="f1odtepzniikq5" width="300%" x="-1" y="-1"><feGaussianBlur result="blurOut" stdDeviation="2.0"/><feColorMatrix in="blurOut" result="blurOut2" type="matrix" values="0 0 0 0 0 0 0 0 0 0 0 0 0 0 0 0 0 0 .4 0"/><feOffset dx="4.0" dy="4.0" in="blurOut2" result="blurOut3"/><feBlend in="SourceGraphic" in2="blurOut3" mode="normal"/></filter></defs><g><!--MD5=[e6b9f279f185f02338d8e29435c9a8df]
class org.eclipse.xtext.uma.ui.labeling.UmalLabelProvider--><a href="UmalLabelProvider.html" target="_top" title="UmalLabelProvider.html" xlink:actuate="onRequest" xlink:href="UmalLabelProvider.html" xlink:show="new" xlink:title="UmalLabelProvider.html" xlink:type="simple"><rect codeLine="5" fill="#FEFECE" filter="url(#f1odtepzniikq5)" height="62.0234" id="org.eclipse.xtext.uma.ui.labeling.UmalLabelProvider" style="stroke: #A80036; stroke-width: 1.5;" width="265" x="7" y="107"/><ellipse cx="57.75" cy="127.0938" fill="#ADD1B2" rx="11" ry="11" style="stroke: #A80036; stroke-width: 1.0;"/><path d="M60.5156,122.9688 Q60.6719,122.75 60.8594,122.6406 Q61.0469,122.5313 61.2656,122.5313 Q61.6406,122.5313 61.875,122.7969 Q62.1094,123.0469 62.1094,123.6563 L62.1094,125.1094 Q62.1094,125.7188 61.875,125.9844 Q61.6406,126.25 61.2656,126.25 Q60.9219,126.25 60.7188,126.0469 Q60.5156,125.8594 60.4063,125.3438 Q60.3594,124.9844 60.1719,124.7969 Q59.8438,124.4219 59.2344,124.2031 Q58.625,123.9844 58,123.9844 Q57.2344,123.9844 56.5938,124.3125 Q55.9688,124.6406 55.4688,125.3906 Q54.9844,126.1406 54.9844,127.1719 L54.9844,128.2656 Q54.9844,129.5 55.875,130.3281 Q56.7656,131.1406 58.3594,131.1406 Q59.2969,131.1406 59.9531,130.8906 Q60.3438,130.7344 60.7656,130.2969 Q61.0313,130.0313 61.1719,129.9531 Q61.3281,129.875 61.5313,129.875 Q61.8594,129.875 62.1094,130.1406 Q62.375,130.3906 62.375,130.7344 Q62.375,131.0781 62.0313,131.4844 Q61.5313,132.0625 60.7344,132.3906 Q59.6563,132.8438 58.3594,132.8438 Q56.8438,132.8438 55.6406,132.2188 Q54.6563,131.7188 53.9688,130.6563 Q53.2813,129.5781 53.2813,128.2969 L53.2813,127.1406 Q53.2813,125.8125 53.8906,124.6719 Q54.5156,123.5156 55.6094,122.9063 Q56.7031,122.2813 57.9375,122.2813 Q58.6719,122.2813 59.3125,122.4531 Q59.9688,122.6094 60.5156,122.9688 Z "/><text fill="#000000" font-family="sans-serif" font-size="14" lengthAdjust="spacingAndGlyphs" textLength="119" x="96.25" y="126.5332">UmalLabelProvider</text><text fill="#000000" font-family="sans-serif" font-size="10" lengthAdjust="spacingAndGlyphs" textLength="155" x="78.25" y="139.9902">org.eclipse.xtext.uma.ui.labeling</text><line style="stroke: #A80036; stroke-width: 1.5;" x1="8" x2="271" y1="147.1875" y2="147.1875"/><ellipse cx="18" cy="158.1875" fill="#84BE84" rx="3" ry="3" style="stroke: #038048; stroke-width: 1.0;"/><text fill="#000000" font-family="sans-serif" font-size="11" lengthAdjust="spacingAndGlyphs" textLength="239" x="27" y="162.6064">UmalLabelProvider(AdapterFactoryLabelProvider)</text></a><!--MD5=[5784c51bd12cce37de5b39c323d5f573]
class org.eclipse.xtext.ui.label.DefaultEObjectLabelProvider--><rect codeLine="9" fill="#FEFECE" filter="url(#f1odtepzniikq5)" height="40.1875" id="org.eclipse.xtext.ui.label.DefaultEObjectLabelProvider" style="stroke: #A80036; stroke-width: 1.5;" width="215" x="32" y="7"/><ellipse cx="47" cy="27.0938" fill="#ADD1B2" rx="11" ry="11" style="stroke: #A80036; stroke-width: 1.0;"/><path d="M49.7656,22.9688 Q49.9219,22.75 50.1094,22.6406 Q50.2969,22.5313 50.5156,22.5313 Q50.8906,22.5313 51.125,22.7969 Q51.3594,23.0469 51.3594,23.6563 L51.3594,25.1094 Q51.3594,25.7188 51.125,25.9844 Q50.8906,26.25 50.5156,26.25 Q50.1719,26.25 49.9688,26.0469 Q49.7656,25.8594 49.6563,25.3438 Q49.6094,24.9844 49.4219,24.7969 Q49.0938,24.4219 48.4844,24.2031 Q47.875,23.9844 47.25,23.9844 Q46.4844,23.9844 45.8438,24.3125 Q45.2188,24.6406 44.7188,25.3906 Q44.2344,26.1406 44.2344,27.1719 L44.2344,28.2656 Q44.2344,29.5 45.125,30.3281 Q46.0156,31.1406 47.6094,31.1406 Q48.5469,31.1406 49.2031,30.8906 Q49.5938,30.7344 50.0156,30.2969 Q50.2813,30.0313 50.4219,29.9531 Q50.5781,29.875 50.7813,29.875 Q51.1094,29.875 51.3594,30.1406 Q51.625,30.3906 51.625,30.7344 Q51.625,31.0781 51.2813,31.4844 Q50.7813,32.0625 49.9844,32.3906 Q48.9063,32.8438 47.6094,32.8438 Q46.0938,32.8438 44.8906,32.2188 Q43.9063,31.7188 43.2188,30.6563 Q42.5313,29.5781 42.5313,28.2969 L42.5313,27.1406 Q42.5313,25.8125 43.1406,24.6719 Q43.7656,23.5156 44.8594,22.9063 Q45.9531,22.2813 47.1875,22.2813 Q47.9219,22.2813 48.5625,22.4531 Q49.2188,22.6094 49.7656,22.9688 Z "/><text fill="#000000" font-family="sans-serif" font-size="14" lengthAdjust="spacingAndGlyphs" textLength="183" x="61" y="26.5332">DefaultEObjectLabelProvider</text><text fill="#000000" font-family="sans-serif" font-size="10" lengthAdjust="spacingAndGlyphs" textLength="116" x="94.5" y="39.9902">org.eclipse.xtext.ui.label</text><!--MD5=[bcd36276cd4635d8467968900f3af9e6]
reverse link org.eclipse.xtext.ui.label.DefaultEObjectLabelProvider to org.eclipse.xtext.uma.ui.labeling.UmalLabelProvider--><path codeLine="11" d="M139.5,67.37 C139.5,80.38 139.5,94.65 139.5,106.86 " fill="none" id="org.eclipse.xtext.ui.label.DefaultEObjectLabelProvider-backto-org.eclipse.xtext.uma.ui.labeling.UmalLabelProvider" style="stroke: #A80036; stroke-width: 1.0;"/><polygon fill="none" points="132.5,67.24,139.5,47.24,146.5,67.24,132.5,67.24" style="stroke: #A80036; stroke-width: 1.0;"/><text fill="#888888" font-family="sans-serif" font-size="10" lengthAdjust="spacingAndGlyphs" textLength="190" x="41.5" y="192.4043">UMLDoclet 2.0.12, PlantUML 1.2020.16</text><!--MD5=[44d4fc5e678c13da2cae59b5fcb79d42]
@startuml
    set namespaceSeparator none
    hide empty fields
    hide empty methods

    class "<size:14>UmalLabelProvider\n<size:10>org.eclipse.xtext.uma.ui.labeling" as org.eclipse.xtext.uma.ui.labeling.UmalLabelProvider [[UmalLabelProvider.html]] {
        +UmalLabelProvider(AdapterFactoryLabelProvider)
    }

    class "<size:14>DefaultEObjectLabelProvider\n<size:10>org.eclipse.xtext.ui.label" as org.eclipse.xtext.ui.label.DefaultEObjectLabelProvider

    org.eclipse.xtext.ui.label.DefaultEObjectLabelProvider <|- - org.eclipse.xtext.uma.ui.labeling.UmalLabelProvider

    center footer UMLDoclet 2.0.12, PlantUML 1.2020.16
@enduml

PlantUML version 1.2020.16(Sun Aug 23 22:20:43 CEST 2020)
(APACHE source distribution)
Java Runtime: Java(TM) SE Runtime Environment
JVM: Java HotSpot(TM) 64-Bit Server VM
Default Encoding: Cp1252
Language: es
Country: ES
--></g></svg>