<?xml version="1.0" encoding="UTF-8" standalone="no"?><svg xmlns="http://www.w3.org/2000/svg" xmlns:xlink="http://www.w3.org/1999/xlink" contentScriptType="application/ecmascript" contentStyleType="text/css" height="243px" preserveAspectRatio="none" style="width:265px;height:243px;" version="1.1" viewBox="0 0 265 243" width="265px" zoomAndPan="magnify"><defs><filter height="300%" id="ffburokwo8huj" width="300%" x="-1" y="-1"><feGaussianBlur result="blurOut" stdDeviation="2.0"/><feColorMatrix in="blurOut" result="blurOut2" type="matrix" values="0 0 0 0 0 0 0 0 0 0 0 0 0 0 0 0 0 0 .4 0"/><feOffset dx="4.0" dy="4.0" in="blurOut2" result="blurOut3"/><feBlend in="SourceGraphic" in2="blurOut3" mode="normal"/></filter></defs><g><!--MD5=[43b1d2e46194fbda85c43cc8f4857a84]
cluster org.eclipse.xtext.uma.scoping--><polygon fill="#FFFFFF" filter="url(#ffburokwo8huj)" points="16,6,233,6,240,29.6094,243,29.6094,243,214,16,214,16,6" style="stroke: #000000; stroke-width: 1.5;"/><line style="stroke: #000000; stroke-width: 1.5;" x1="16" x2="240" y1="29.6094" y2="29.6094"/><text fill="#000000" font-family="sans-serif" font-size="14" font-weight="bold" lengthAdjust="spacingAndGlyphs" textLength="211" x="20" y="22.5332">org.eclipse.xtext.uma.scoping</text><!--MD5=[cc4f58d3a470e44a7c3c4fbae3e036e4]
class org.eclipse.xtext.uma.scoping.UmalScopeProvider--><a href="UmalScopeProvider.html" target="_top" title="UmalScopeProvider.html" xlink:actuate="onRequest" xlink:href="UmalScopeProvider.html" xlink:show="new" xlink:title="UmalScopeProvider.html" xlink:type="simple"><rect codeLine="3" fill="#FEFECE" filter="url(#ffburokwo8huj)" height="48" id="org.eclipse.xtext.uma.scoping.UmalScopeProvider" style="stroke: #A80036; stroke-width: 1.5;" width="142" x="58" y="150"/><ellipse cx="73" cy="166" fill="#ADD1B2" rx="11" ry="11" style="stroke: #A80036; stroke-width: 1.0;"/><path d="M75.7656,161.875 Q75.9219,161.6563 76.1094,161.5469 Q76.2969,161.4375 76.5156,161.4375 Q76.8906,161.4375 77.125,161.7031 Q77.3594,161.9531 77.3594,162.5625 L77.3594,164.0156 Q77.3594,164.625 77.125,164.8906 Q76.8906,165.1563 76.5156,165.1563 Q76.1719,165.1563 75.9688,164.9531 Q75.7656,164.7656 75.6563,164.25 Q75.6094,163.8906 75.4219,163.7031 Q75.0938,163.3281 74.4844,163.1094 Q73.875,162.8906 73.25,162.8906 Q72.4844,162.8906 71.8438,163.2188 Q71.2188,163.5469 70.7188,164.2969 Q70.2344,165.0469 70.2344,166.0781 L70.2344,167.1719 Q70.2344,168.4063 71.125,169.2344 Q72.0156,170.0469 73.6094,170.0469 Q74.5469,170.0469 75.2031,169.7969 Q75.5938,169.6406 76.0156,169.2031 Q76.2813,168.9375 76.4219,168.8594 Q76.5781,168.7813 76.7813,168.7813 Q77.1094,168.7813 77.3594,169.0469 Q77.625,169.2969 77.625,169.6406 Q77.625,169.9844 77.2813,170.3906 Q76.7813,170.9688 75.9844,171.2969 Q74.9063,171.75 73.6094,171.75 Q72.0938,171.75 70.8906,171.125 Q69.9063,170.625 69.2188,169.5625 Q68.5313,168.4844 68.5313,167.2031 L68.5313,166.0469 Q68.5313,164.7188 69.1406,163.5781 Q69.7656,162.4219 70.8594,161.8125 Q71.9531,161.1875 73.1875,161.1875 Q73.9219,161.1875 74.5625,161.3594 Q75.2188,161.5156 75.7656,161.875 Z "/><text fill="#000000" font-family="sans-serif" font-size="12" lengthAdjust="spacingAndGlyphs" textLength="110" x="87" y="170.9102">UmalScopeProvider</text><line style="stroke: #A80036; stroke-width: 1.5;" x1="59" x2="199" y1="182" y2="182"/><line style="stroke: #A80036; stroke-width: 1.5;" x1="59" x2="199" y1="190" y2="190"/></a><!--MD5=[16c55d627bd71b9af22aaa67b0fcfd91]
class org.eclipse.xtext.uma.scoping.AbstractUmalScopeProvider--><rect fill="#FEFECE" filter="url(#ffburokwo8huj)" height="48" id="org.eclipse.xtext.uma.scoping.AbstractUmalScopeProvider" style="stroke: #A80036; stroke-width: 1.5;" width="186" x="36" y="42"/><ellipse cx="51" cy="58" fill="#ADD1B2" rx="11" ry="11" style="stroke: #A80036; stroke-width: 1.0;"/><path d="M53.7656,53.875 Q53.9219,53.6563 54.1094,53.5469 Q54.2969,53.4375 54.5156,53.4375 Q54.8906,53.4375 55.125,53.7031 Q55.3594,53.9531 55.3594,54.5625 L55.3594,56.0156 Q55.3594,56.625 55.125,56.8906 Q54.8906,57.1563 54.5156,57.1563 Q54.1719,57.1563 53.9688,56.9531 Q53.7656,56.7656 53.6563,56.25 Q53.6094,55.8906 53.4219,55.7031 Q53.0938,55.3281 52.4844,55.1094 Q51.875,54.8906 51.25,54.8906 Q50.4844,54.8906 49.8438,55.2188 Q49.2188,55.5469 48.7188,56.2969 Q48.2344,57.0469 48.2344,58.0781 L48.2344,59.1719 Q48.2344,60.4063 49.125,61.2344 Q50.0156,62.0469 51.6094,62.0469 Q52.5469,62.0469 53.2031,61.7969 Q53.5938,61.6406 54.0156,61.2031 Q54.2813,60.9375 54.4219,60.8594 Q54.5781,60.7813 54.7813,60.7813 Q55.1094,60.7813 55.3594,61.0469 Q55.625,61.2969 55.625,61.6406 Q55.625,61.9844 55.2813,62.3906 Q54.7813,62.9688 53.9844,63.2969 Q52.9063,63.75 51.6094,63.75 Q50.0938,63.75 48.8906,63.125 Q47.9063,62.625 47.2188,61.5625 Q46.5313,60.4844 46.5313,59.2031 L46.5313,58.0469 Q46.5313,56.7188 47.1406,55.5781 Q47.7656,54.4219 48.8594,53.8125 Q49.9531,53.1875 51.1875,53.1875 Q51.9219,53.1875 52.5625,53.3594 Q53.2188,53.5156 53.7656,53.875 Z "/><text fill="#000000" font-family="sans-serif" font-size="12" lengthAdjust="spacingAndGlyphs" textLength="154" x="65" y="62.9102">AbstractUmalScopeProvider</text><line style="stroke: #A80036; stroke-width: 1.5;" x1="37" x2="221" y1="74" y2="74"/><line style="stroke: #A80036; stroke-width: 1.5;" x1="37" x2="221" y1="82" y2="82"/><!--MD5=[4eae2f838a1efd49b5507a1c42f6edb4]
reverse link org.eclipse.xtext.uma.scoping.AbstractUmalScopeProvider to org.eclipse.xtext.uma.scoping.UmalScopeProvider--><path codeLine="5" d="M129,110.02 C129,123.58 129,138.04 129,149.68 " fill="none" id="org.eclipse.xtext.uma.scoping.AbstractUmalScopeProvider-backto-org.eclipse.xtext.uma.scoping.UmalScopeProvider" style="stroke: #A80036; stroke-width: 1.0;"/><polygon fill="none" points="122,110,129,90,136,110,122,110" style="stroke: #A80036; stroke-width: 1.0;"/><text fill="#888888" font-family="sans-serif" font-size="10" lengthAdjust="spacingAndGlyphs" textLength="190" x="28.5" y="230.3809">UMLDoclet 2.0.12, PlantUML 1.2020.16</text><!--MD5=[21e4763e6800064a47f5e2c0d0d4e4d1]
@startuml
    namespace org.eclipse.xtext.uma.scoping {

        class UmalScopeProvider [[UmalScopeProvider.html]]

        AbstractUmalScopeProvider <|- - UmalScopeProvider
    }

    center footer UMLDoclet 2.0.12, PlantUML 1.2020.16
@enduml

PlantUML version 1.2020.16(Sun Aug 23 22:20:43 CEST 2020)
(APACHE source distribution)
Java Runtime: Java(TM) SE Runtime Environment
JVM: Java HotSpot(TM) 64-Bit Server VM
Default Encoding: Cp1252
Language: es
Country: ES
--></g></svg>