<?xml version="1.0" encoding="UTF-8" standalone="no"?><svg xmlns="http://www.w3.org/2000/svg" xmlns:xlink="http://www.w3.org/1999/xlink" contentScriptType="application/ecmascript" contentStyleType="text/css" height="184px" preserveAspectRatio="none" style="width:234px;height:184px;" version="1.1" viewBox="0 0 234 184" width="234px" zoomAndPan="magnify"><defs><filter height="300%" id="f1uzukm7ldm5vk" width="300%" x="-1" y="-1"><feGaussianBlur result="blurOut" stdDeviation="2.0"/><feColorMatrix in="blurOut" result="blurOut2" type="matrix" values="0 0 0 0 0 0 0 0 0 0 0 0 0 0 0 0 0 0 .4 0"/><feOffset dx="4.0" dy="4.0" in="blurOut2" result="blurOut3"/><feBlend in="SourceGraphic" in2="blurOut3" mode="normal"/></filter></defs><g><!--MD5=[cc4f58d3a470e44a7c3c4fbae3e036e4]
class org.eclipse.xtext.uma.scoping.UmalScopeProvider--><a href="UmalScopeProvider.html" target="_top" title="UmalScopeProvider.html" xlink:actuate="onRequest" xlink:href="UmalScopeProvider.html" xlink:show="new" xlink:title="UmalScopeProvider.html" xlink:type="simple"><rect codeLine="5" fill="#FEFECE" filter="url(#f1uzukm7ldm5vk)" height="40.1875" id="org.eclipse.xtext.uma.scoping.UmalScopeProvider" style="stroke: #A80036; stroke-width: 1.5;" width="173" x="24.5" y="107"/><ellipse cx="39.5" cy="127.0938" fill="#ADD1B2" rx="11" ry="11" style="stroke: #A80036; stroke-width: 1.0;"/><path d="M42.2656,122.9688 Q42.4219,122.75 42.6094,122.6406 Q42.7969,122.5313 43.0156,122.5313 Q43.3906,122.5313 43.625,122.7969 Q43.8594,123.0469 43.8594,123.6563 L43.8594,125.1094 Q43.8594,125.7188 43.625,125.9844 Q43.3906,126.25 43.0156,126.25 Q42.6719,126.25 42.4688,126.0469 Q42.2656,125.8594 42.1563,125.3438 Q42.1094,124.9844 41.9219,124.7969 Q41.5938,124.4219 40.9844,124.2031 Q40.375,123.9844 39.75,123.9844 Q38.9844,123.9844 38.3438,124.3125 Q37.7188,124.6406 37.2188,125.3906 Q36.7344,126.1406 36.7344,127.1719 L36.7344,128.2656 Q36.7344,129.5 37.625,130.3281 Q38.5156,131.1406 40.1094,131.1406 Q41.0469,131.1406 41.7031,130.8906 Q42.0938,130.7344 42.5156,130.2969 Q42.7813,130.0313 42.9219,129.9531 Q43.0781,129.875 43.2813,129.875 Q43.6094,129.875 43.8594,130.1406 Q44.125,130.3906 44.125,130.7344 Q44.125,131.0781 43.7813,131.4844 Q43.2813,132.0625 42.4844,132.3906 Q41.4063,132.8438 40.1094,132.8438 Q38.5938,132.8438 37.3906,132.2188 Q36.4063,131.7188 35.7188,130.6563 Q35.0313,129.5781 35.0313,128.2969 L35.0313,127.1406 Q35.0313,125.8125 35.6406,124.6719 Q36.2656,123.5156 37.3594,122.9063 Q38.4531,122.2813 39.6875,122.2813 Q40.4219,122.2813 41.0625,122.4531 Q41.7188,122.6094 42.2656,122.9688 Z "/><text fill="#000000" font-family="sans-serif" font-size="14" lengthAdjust="spacingAndGlyphs" textLength="124" x="62" y="126.5332">UmalScopeProvider</text><text fill="#000000" font-family="sans-serif" font-size="10" lengthAdjust="spacingAndGlyphs" textLength="141" x="53.5" y="139.9902">org.eclipse.xtext.uma.scoping</text></a><!--MD5=[16c55d627bd71b9af22aaa67b0fcfd91]
class org.eclipse.xtext.uma.scoping.AbstractUmalScopeProvider--><rect codeLine="7" fill="#FEFECE" filter="url(#f1uzukm7ldm5vk)" height="40.1875" id="org.eclipse.xtext.uma.scoping.AbstractUmalScopeProvider" style="stroke: #A80036; stroke-width: 1.5;" width="208" x="7" y="7"/><ellipse cx="22" cy="27.0938" fill="#A9DCDF" rx="11" ry="11" style="stroke: #A80036; stroke-width: 1.0;"/><path d="M24.1875,28.8594 L20.0469,28.8594 L19.625,29.8906 L20.0469,29.8906 Q20.6563,29.8906 20.9219,30.125 Q21.1875,30.3594 21.1875,30.75 Q21.1875,31.125 20.9219,31.3594 Q20.6563,31.5938 20.0469,31.5938 L17.75,31.5938 Q17.1406,31.5938 16.8906,31.3594 Q16.625,31.125 16.625,30.7344 Q16.625,30.3594 16.9063,30.125 Q17.1719,29.875 17.7969,29.8906 L20.4688,23.2344 L19.3594,23.2344 Q18.75,23.2344 18.4844,23 Q18.2188,22.7656 18.2188,22.375 Q18.2188,22 18.4844,21.7656 Q18.75,21.5313 19.3594,21.5313 L23.0313,21.5313 L26.4219,29.8906 Q27.0156,29.8906 27.2031,30.0313 Q27.5938,30.2969 27.5938,30.75 Q27.5938,31.125 27.3281,31.3594 Q27.0781,31.5938 26.4688,31.5938 L24.1719,31.5938 Q23.5625,31.5938 23.2969,31.3594 Q23.0313,31.125 23.0313,30.7344 Q23.0313,30.3594 23.2969,30.125 Q23.5625,29.8906 24.1719,29.8906 L24.5938,29.8906 L24.1875,28.8594 Z M23.4688,27.1563 L22.1094,23.7813 L20.7344,27.1563 L23.4688,27.1563 Z "/><text fill="#000000" font-family="sans-serif" font-size="14" font-style="italic" lengthAdjust="spacingAndGlyphs" textLength="176" x="36" y="26.5332">AbstractUmalScopeProvider</text><text fill="#000000" font-family="sans-serif" font-size="10" font-style="italic" lengthAdjust="spacingAndGlyphs" textLength="139" x="54.5" y="39.9902">org.eclipse.xtext.uma.scoping</text><!--MD5=[4eae2f838a1efd49b5507a1c42f6edb4]
reverse link org.eclipse.xtext.uma.scoping.AbstractUmalScopeProvider to org.eclipse.xtext.uma.scoping.UmalScopeProvider--><path codeLine="9" d="M111,67.69 C111,81.13 111,95.55 111,106.68 " fill="none" id="org.eclipse.xtext.uma.scoping.AbstractUmalScopeProvider-backto-org.eclipse.xtext.uma.scoping.UmalScopeProvider" style="stroke: #A80036; stroke-width: 1.0;"/><polygon fill="none" points="104,67.36,111,47.36,118,67.36,104,67.36" style="stroke: #A80036; stroke-width: 1.0;"/><text fill="#888888" font-family="sans-serif" font-size="10" lengthAdjust="spacingAndGlyphs" textLength="190" x="13" y="170.5684">UMLDoclet 2.0.12, PlantUML 1.2020.16</text><!--MD5=[2b6ed6857321a3dce96f55f21be366d0]
@startuml
    set namespaceSeparator none
    hide empty fields
    hide empty methods

    class "<size:14>UmalScopeProvider\n<size:10>org.eclipse.xtext.uma.scoping" as org.eclipse.xtext.uma.scoping.UmalScopeProvider [[UmalScopeProvider.html]]

    abstract class "<size:14>AbstractUmalScopeProvider\n<size:10>org.eclipse.xtext.uma.scoping" as org.eclipse.xtext.uma.scoping.AbstractUmalScopeProvider

    org.eclipse.xtext.uma.scoping.AbstractUmalScopeProvider <|- - org.eclipse.xtext.uma.scoping.UmalScopeProvider

    center footer UMLDoclet 2.0.12, PlantUML 1.2020.16
@enduml

PlantUML version 1.2020.16(Sun Aug 23 22:20:43 CEST 2020)
(APACHE source distribution)
Java Runtime: Java(TM) SE Runtime Environment
JVM: Java HotSpot(TM) 64-Bit Server VM
Default Encoding: Cp1252
Language: es
Country: ES
--></g></svg>