<?xml version="1.0" encoding="UTF-8" standalone="no"?><svg xmlns="http://www.w3.org/2000/svg" xmlns:xlink="http://www.w3.org/1999/xlink" contentScriptType="application/ecmascript" contentStyleType="text/css" height="259px" preserveAspectRatio="none" style="width:294px;height:259px;" version="1.1" viewBox="0 0 294 259" width="294px" zoomAndPan="magnify"><defs><filter height="300%" id="f4fknvrfajbko" width="300%" x="-1" y="-1"><feGaussianBlur result="blurOut" stdDeviation="2.0"/><feColorMatrix in="blurOut" result="blurOut2" type="matrix" values="0 0 0 0 0 0 0 0 0 0 0 0 0 0 0 0 0 0 .4 0"/><feOffset dx="4.0" dy="4.0" in="blurOut2" result="blurOut3"/><feBlend in="SourceGraphic" in2="blurOut3" mode="normal"/></filter></defs><g><!--MD5=[bb610c3ee4f2984c3a02d6d8fd004315]
cluster org.eclipse.xtext.uma.ui.quickfix--><polygon fill="#FFFFFF" filter="url(#f4fknvrfajbko)" points="23,130,256,130,263,153.6094,266,153.6094,266,230,23,230,23,130" style="stroke: #000000; stroke-width: 1.5;"/><line style="stroke: #000000; stroke-width: 1.5;" x1="23" x2="263" y1="153.6094" y2="153.6094"/><text fill="#000000" font-family="sans-serif" font-size="14" font-weight="bold" lengthAdjust="spacingAndGlyphs" textLength="227" x="27" y="146.5332">org.eclipse.xtext.uma.ui.quickfix</text><!--MD5=[cf8b0ed9326b9f83dc57de054f555cb2]
cluster org.eclipse.xtext.ui.editor.quickfix--><polygon fill="#FFFFFF" filter="url(#f4fknvrfajbko)" points="16,6,262,6,269,29.6094,272,29.6094,272,106,16,106,16,6" style="stroke: #000000; stroke-width: 1.5;"/><line style="stroke: #000000; stroke-width: 1.5;" x1="16" x2="269" y1="29.6094" y2="29.6094"/><text fill="#000000" font-family="sans-serif" font-size="14" font-weight="bold" lengthAdjust="spacingAndGlyphs" textLength="240" x="20" y="22.5332">org.eclipse.xtext.ui.editor.quickfix</text><!--MD5=[4c71d57055b0a71b7d5d04e94dff1545]
class org.eclipse.xtext.uma.ui.quickfix.UmalQuickfixProvider--><a href="UmalQuickfixProvider.html" target="_top" title="UmalQuickfixProvider.html" xlink:actuate="onRequest" xlink:href="UmalQuickfixProvider.html" xlink:show="new" xlink:title="UmalQuickfixProvider.html" xlink:type="simple"><rect codeLine="3" fill="#FEFECE" filter="url(#f4fknvrfajbko)" height="48" id="org.eclipse.xtext.uma.ui.quickfix.UmalQuickfixProvider" style="stroke: #A80036; stroke-width: 1.5;" width="149" x="41.5" y="166"/><ellipse cx="56.5" cy="182" fill="#ADD1B2" rx="11" ry="11" style="stroke: #A80036; stroke-width: 1.0;"/><path d="M59.2656,177.875 Q59.4219,177.6563 59.6094,177.5469 Q59.7969,177.4375 60.0156,177.4375 Q60.3906,177.4375 60.625,177.7031 Q60.8594,177.9531 60.8594,178.5625 L60.8594,180.0156 Q60.8594,180.625 60.625,180.8906 Q60.3906,181.1563 60.0156,181.1563 Q59.6719,181.1563 59.4688,180.9531 Q59.2656,180.7656 59.1563,180.25 Q59.1094,179.8906 58.9219,179.7031 Q58.5938,179.3281 57.9844,179.1094 Q57.375,178.8906 56.75,178.8906 Q55.9844,178.8906 55.3438,179.2188 Q54.7188,179.5469 54.2188,180.2969 Q53.7344,181.0469 53.7344,182.0781 L53.7344,183.1719 Q53.7344,184.4063 54.625,185.2344 Q55.5156,186.0469 57.1094,186.0469 Q58.0469,186.0469 58.7031,185.7969 Q59.0938,185.6406 59.5156,185.2031 Q59.7813,184.9375 59.9219,184.8594 Q60.0781,184.7813 60.2813,184.7813 Q60.6094,184.7813 60.8594,185.0469 Q61.125,185.2969 61.125,185.6406 Q61.125,185.9844 60.7813,186.3906 Q60.2813,186.9688 59.4844,187.2969 Q58.4063,187.75 57.1094,187.75 Q55.5938,187.75 54.3906,187.125 Q53.4063,186.625 52.7188,185.5625 Q52.0313,184.4844 52.0313,183.2031 L52.0313,182.0469 Q52.0313,180.7188 52.6406,179.5781 Q53.2656,178.4219 54.3594,177.8125 Q55.4531,177.1875 56.6875,177.1875 Q57.4219,177.1875 58.0625,177.3594 Q58.7188,177.5156 59.2656,177.875 Z "/><text fill="#000000" font-family="sans-serif" font-size="12" lengthAdjust="spacingAndGlyphs" textLength="117" x="70.5" y="186.9102">UmalQuickfixProvider</text><line style="stroke: #A80036; stroke-width: 1.5;" x1="42.5" x2="189.5" y1="198" y2="198"/><line style="stroke: #A80036; stroke-width: 1.5;" x1="42.5" x2="189.5" y1="206" y2="206"/></a><!--MD5=[2c21bc02162a7fd0c50b373784036406]
class org.eclipse.xtext.ui.editor.quickfix.DefaultQuickfixProvider--><rect codeLine="9" fill="#FEFECE" filter="url(#f4fknvrfajbko)" height="48" id="org.eclipse.xtext.ui.editor.quickfix.DefaultQuickfixProvider" style="stroke: #A80036; stroke-width: 1.5;" width="158" x="37" y="42"/><ellipse cx="52" cy="58" fill="#ADD1B2" rx="11" ry="11" style="stroke: #A80036; stroke-width: 1.0;"/><path d="M54.7656,53.875 Q54.9219,53.6563 55.1094,53.5469 Q55.2969,53.4375 55.5156,53.4375 Q55.8906,53.4375 56.125,53.7031 Q56.3594,53.9531 56.3594,54.5625 L56.3594,56.0156 Q56.3594,56.625 56.125,56.8906 Q55.8906,57.1563 55.5156,57.1563 Q55.1719,57.1563 54.9688,56.9531 Q54.7656,56.7656 54.6563,56.25 Q54.6094,55.8906 54.4219,55.7031 Q54.0938,55.3281 53.4844,55.1094 Q52.875,54.8906 52.25,54.8906 Q51.4844,54.8906 50.8438,55.2188 Q50.2188,55.5469 49.7188,56.2969 Q49.2344,57.0469 49.2344,58.0781 L49.2344,59.1719 Q49.2344,60.4063 50.125,61.2344 Q51.0156,62.0469 52.6094,62.0469 Q53.5469,62.0469 54.2031,61.7969 Q54.5938,61.6406 55.0156,61.2031 Q55.2813,60.9375 55.4219,60.8594 Q55.5781,60.7813 55.7813,60.7813 Q56.1094,60.7813 56.3594,61.0469 Q56.625,61.2969 56.625,61.6406 Q56.625,61.9844 56.2813,62.3906 Q55.7813,62.9688 54.9844,63.2969 Q53.9063,63.75 52.6094,63.75 Q51.0938,63.75 49.8906,63.125 Q48.9063,62.625 48.2188,61.5625 Q47.5313,60.4844 47.5313,59.2031 L47.5313,58.0469 Q47.5313,56.7188 48.1406,55.5781 Q48.7656,54.4219 49.8594,53.8125 Q50.9531,53.1875 52.1875,53.1875 Q52.9219,53.1875 53.5625,53.3594 Q54.2188,53.5156 54.7656,53.875 Z "/><text fill="#000000" font-family="sans-serif" font-size="12" lengthAdjust="spacingAndGlyphs" textLength="126" x="66" y="62.9102">DefaultQuickfixProvider</text><line style="stroke: #A80036; stroke-width: 1.5;" x1="38" x2="194" y1="74" y2="74"/><line style="stroke: #A80036; stroke-width: 1.5;" x1="38" x2="194" y1="82" y2="82"/><!--MD5=[3301db279856dd0ebe2a409ff3733b4e]
reverse link org.eclipse.xtext.ui.editor.quickfix.DefaultQuickfixProvider to org.eclipse.xtext.uma.ui.quickfix.UmalQuickfixProvider--><path codeLine="5" d="M116,110.27 C116,129.01 116,150.18 116,165.85 " fill="none" id="org.eclipse.xtext.ui.editor.quickfix.DefaultQuickfixProvider-backto-org.eclipse.xtext.uma.ui.quickfix.UmalQuickfixProvider" style="stroke: #A80036; stroke-width: 1.0;"/><polygon fill="none" points="109,110.23,116,90.23,123,110.23,109,110.23" style="stroke: #A80036; stroke-width: 1.0;"/><text fill="#888888" font-family="sans-serif" font-size="10" lengthAdjust="spacingAndGlyphs" textLength="190" x="43" y="246.3809">UMLDoclet 2.0.12, PlantUML 1.2020.16</text><!--MD5=[5c360c60991dc502c595ae7a90ad55f1]
@startuml
    namespace org.eclipse.xtext.uma.ui.quickfix {

        class UmalQuickfixProvider [[UmalQuickfixProvider.html]]

        org.eclipse.xtext.ui.editor.quickfix.DefaultQuickfixProvider <|- - UmalQuickfixProvider
    }

    namespace org.eclipse.xtext.ui.editor.quickfix {
        class DefaultQuickfixProvider {
        }
    }

    center footer UMLDoclet 2.0.12, PlantUML 1.2020.16
@enduml

PlantUML version 1.2020.16(Sun Aug 23 22:20:43 CEST 2020)
(APACHE source distribution)
Java Runtime: Java(TM) SE Runtime Environment
JVM: Java HotSpot(TM) 64-Bit Server VM
Default Encoding: Cp1252
Language: es
Country: ES
--></g></svg>