<?xml version="1.0" encoding="UTF-8" standalone="no"?><svg xmlns="http://www.w3.org/2000/svg" xmlns:xlink="http://www.w3.org/1999/xlink" contentScriptType="application/ecmascript" contentStyleType="text/css" height="184px" preserveAspectRatio="none" style="width:216px;height:184px;" version="1.1" viewBox="0 0 216 184" width="216px" zoomAndPan="magnify"><defs><filter height="300%" id="f642tj0ozexzm" width="300%" x="-1" y="-1"><feGaussianBlur result="blurOut" stdDeviation="2.0"/><feColorMatrix in="blurOut" result="blurOut2" type="matrix" values="0 0 0 0 0 0 0 0 0 0 0 0 0 0 0 0 0 0 .4 0"/><feOffset dx="4.0" dy="4.0" in="blurOut2" result="blurOut3"/><feBlend in="SourceGraphic" in2="blurOut3" mode="normal"/></filter></defs><g><!--MD5=[4c71d57055b0a71b7d5d04e94dff1545]
class org.eclipse.xtext.uma.ui.quickfix.UmalQuickfixProvider--><a href="UmalQuickfixProvider.html" target="_top" title="UmalQuickfixProvider.html" xlink:actuate="onRequest" xlink:href="UmalQuickfixProvider.html" xlink:show="new" xlink:title="UmalQuickfixProvider.html" xlink:type="simple"><rect codeLine="5" fill="#FEFECE" filter="url(#f642tj0ozexzm)" height="40.1875" id="org.eclipse.xtext.uma.ui.quickfix.UmalQuickfixProvider" style="stroke: #A80036; stroke-width: 1.5;" width="184" x="10" y="107"/><ellipse cx="25" cy="127.0938" fill="#ADD1B2" rx="11" ry="11" style="stroke: #A80036; stroke-width: 1.0;"/><path d="M27.7656,122.9688 Q27.9219,122.75 28.1094,122.6406 Q28.2969,122.5313 28.5156,122.5313 Q28.8906,122.5313 29.125,122.7969 Q29.3594,123.0469 29.3594,123.6563 L29.3594,125.1094 Q29.3594,125.7188 29.125,125.9844 Q28.8906,126.25 28.5156,126.25 Q28.1719,126.25 27.9688,126.0469 Q27.7656,125.8594 27.6563,125.3438 Q27.6094,124.9844 27.4219,124.7969 Q27.0938,124.4219 26.4844,124.2031 Q25.875,123.9844 25.25,123.9844 Q24.4844,123.9844 23.8438,124.3125 Q23.2188,124.6406 22.7188,125.3906 Q22.2344,126.1406 22.2344,127.1719 L22.2344,128.2656 Q22.2344,129.5 23.125,130.3281 Q24.0156,131.1406 25.6094,131.1406 Q26.5469,131.1406 27.2031,130.8906 Q27.5938,130.7344 28.0156,130.2969 Q28.2813,130.0313 28.4219,129.9531 Q28.5781,129.875 28.7813,129.875 Q29.1094,129.875 29.3594,130.1406 Q29.625,130.3906 29.625,130.7344 Q29.625,131.0781 29.2813,131.4844 Q28.7813,132.0625 27.9844,132.3906 Q26.9063,132.8438 25.6094,132.8438 Q24.0938,132.8438 22.8906,132.2188 Q21.9063,131.7188 21.2188,130.6563 Q20.5313,129.5781 20.5313,128.2969 L20.5313,127.1406 Q20.5313,125.8125 21.1406,124.6719 Q21.7656,123.5156 22.8594,122.9063 Q23.9531,122.2813 25.1875,122.2813 Q25.9219,122.2813 26.5625,122.4531 Q27.2188,122.6094 27.7656,122.9688 Z "/><text fill="#000000" font-family="sans-serif" font-size="14" lengthAdjust="spacingAndGlyphs" textLength="133" x="48.5" y="126.5332">UmalQuickfixProvider</text><text fill="#000000" font-family="sans-serif" font-size="10" lengthAdjust="spacingAndGlyphs" textLength="152" x="39" y="139.9902">org.eclipse.xtext.uma.ui.quickfix</text></a><!--MD5=[2c21bc02162a7fd0c50b373784036406]
class org.eclipse.xtext.ui.editor.quickfix.DefaultQuickfixProvider--><rect codeLine="7" fill="#FEFECE" filter="url(#f642tj0ozexzm)" height="40.1875" id="org.eclipse.xtext.ui.editor.quickfix.DefaultQuickfixProvider" style="stroke: #A80036; stroke-width: 1.5;" width="190" x="7" y="7"/><ellipse cx="22" cy="27.0938" fill="#ADD1B2" rx="11" ry="11" style="stroke: #A80036; stroke-width: 1.0;"/><path d="M24.7656,22.9688 Q24.9219,22.75 25.1094,22.6406 Q25.2969,22.5313 25.5156,22.5313 Q25.8906,22.5313 26.125,22.7969 Q26.3594,23.0469 26.3594,23.6563 L26.3594,25.1094 Q26.3594,25.7188 26.125,25.9844 Q25.8906,26.25 25.5156,26.25 Q25.1719,26.25 24.9688,26.0469 Q24.7656,25.8594 24.6563,25.3438 Q24.6094,24.9844 24.4219,24.7969 Q24.0938,24.4219 23.4844,24.2031 Q22.875,23.9844 22.25,23.9844 Q21.4844,23.9844 20.8438,24.3125 Q20.2188,24.6406 19.7188,25.3906 Q19.2344,26.1406 19.2344,27.1719 L19.2344,28.2656 Q19.2344,29.5 20.125,30.3281 Q21.0156,31.1406 22.6094,31.1406 Q23.5469,31.1406 24.2031,30.8906 Q24.5938,30.7344 25.0156,30.2969 Q25.2813,30.0313 25.4219,29.9531 Q25.5781,29.875 25.7813,29.875 Q26.1094,29.875 26.3594,30.1406 Q26.625,30.3906 26.625,30.7344 Q26.625,31.0781 26.2813,31.4844 Q25.7813,32.0625 24.9844,32.3906 Q23.9063,32.8438 22.6094,32.8438 Q21.0938,32.8438 19.8906,32.2188 Q18.9063,31.7188 18.2188,30.6563 Q17.5313,29.5781 17.5313,28.2969 L17.5313,27.1406 Q17.5313,25.8125 18.1406,24.6719 Q18.7656,23.5156 19.8594,22.9063 Q20.9531,22.2813 22.1875,22.2813 Q22.9219,22.2813 23.5625,22.4531 Q24.2188,22.6094 24.7656,22.9688 Z "/><text fill="#000000" font-family="sans-serif" font-size="14" lengthAdjust="spacingAndGlyphs" textLength="147" x="41.5" y="26.5332">DefaultQuickfixProvider</text><text fill="#000000" font-family="sans-serif" font-size="10" lengthAdjust="spacingAndGlyphs" textLength="158" x="36" y="39.9902">org.eclipse.xtext.ui.editor.quickfix</text><!--MD5=[3301db279856dd0ebe2a409ff3733b4e]
reverse link org.eclipse.xtext.ui.editor.quickfix.DefaultQuickfixProvider to org.eclipse.xtext.uma.ui.quickfix.UmalQuickfixProvider--><path codeLine="9" d="M102,67.69 C102,81.13 102,95.55 102,106.68 " fill="none" id="org.eclipse.xtext.ui.editor.quickfix.DefaultQuickfixProvider-backto-org.eclipse.xtext.uma.ui.quickfix.UmalQuickfixProvider" style="stroke: #A80036; stroke-width: 1.0;"/><polygon fill="none" points="95,67.36,102,47.36,109,67.36,95,67.36" style="stroke: #A80036; stroke-width: 1.0;"/><text fill="#888888" font-family="sans-serif" font-size="10" lengthAdjust="spacingAndGlyphs" textLength="190" x="4" y="170.5684">UMLDoclet 2.0.12, PlantUML 1.2020.16</text><!--MD5=[cf177ec9efff280c7958c99cdc6d2788]
@startuml
    set namespaceSeparator none
    hide empty fields
    hide empty methods

    class "<size:14>UmalQuickfixProvider\n<size:10>org.eclipse.xtext.uma.ui.quickfix" as org.eclipse.xtext.uma.ui.quickfix.UmalQuickfixProvider [[UmalQuickfixProvider.html]]

    class "<size:14>DefaultQuickfixProvider\n<size:10>org.eclipse.xtext.ui.editor.quickfix" as org.eclipse.xtext.ui.editor.quickfix.DefaultQuickfixProvider

    org.eclipse.xtext.ui.editor.quickfix.DefaultQuickfixProvider <|- - org.eclipse.xtext.uma.ui.quickfix.UmalQuickfixProvider

    center footer UMLDoclet 2.0.12, PlantUML 1.2020.16
@enduml

PlantUML version 1.2020.16(Sun Aug 23 22:20:43 CEST 2020)
(APACHE source distribution)
Java Runtime: Java(TM) SE Runtime Environment
JVM: Java HotSpot(TM) 64-Bit Server VM
Default Encoding: Cp1252
Language: es
Country: ES
--></g></svg>