<?xml version="1.0" encoding="UTF-8" standalone="no"?><svg xmlns="http://www.w3.org/2000/svg" xmlns:xlink="http://www.w3.org/1999/xlink" contentScriptType="application/ecmascript" contentStyleType="text/css" height="184px" preserveAspectRatio="none" style="width:203px;height:184px;" version="1.1" viewBox="0 0 203 184" width="203px" zoomAndPan="magnify"><defs><filter height="300%" id="ft9taudp7kmm9" width="300%" x="-1" y="-1"><feGaussianBlur result="blurOut" stdDeviation="2.0"/><feColorMatrix in="blurOut" result="blurOut2" type="matrix" values="0 0 0 0 0 0 0 0 0 0 0 0 0 0 0 0 0 0 .4 0"/><feOffset dx="4.0" dy="4.0" in="blurOut2" result="blurOut3"/><feBlend in="SourceGraphic" in2="blurOut3" mode="normal"/></filter></defs><g><!--MD5=[bed9af468df4809236b3fc60602d2aac]
class org.eclipse.epf.diagram.model.ActivityDiagram--><a href="ActivityDiagram.html" target="_top" title="ActivityDiagram.html" xlink:actuate="onRequest" xlink:href="ActivityDiagram.html" xlink:show="new" xlink:title="ActivityDiagram.html" xlink:type="simple"><rect codeLine="5" fill="#FEFECE" filter="url(#ft9taudp7kmm9)" height="40.1875" id="org.eclipse.epf.diagram.model.ActivityDiagram" style="stroke: #A80036; stroke-width: 1.5;" width="173" x="11.5" y="107"/><ellipse cx="26.5" cy="127.0938" fill="#B4A7E5" rx="11" ry="11" style="stroke: #A80036; stroke-width: 1.0;"/><path d="M27.4531,123.7344 L27.4531,130.3906 L29.1719,130.3906 Q29.7813,130.3906 30.0469,130.625 Q30.3125,130.8594 30.3125,131.25 Q30.3125,131.625 30.0469,131.8594 Q29.7813,132.0938 29.1719,132.0938 L24.0313,132.0938 Q23.4219,132.0938 23.1563,131.8594 Q22.8906,131.625 22.8906,131.2344 Q22.8906,130.8594 23.1563,130.625 Q23.4219,130.3906 24.0313,130.3906 L25.75,130.3906 L25.75,123.7344 L24.0313,123.7344 Q23.4219,123.7344 23.1563,123.5 Q22.8906,123.2656 22.8906,122.875 Q22.8906,122.5 23.1563,122.2656 Q23.4219,122.0313 24.0313,122.0313 L29.1719,122.0313 Q29.7813,122.0313 30.0469,122.2656 Q30.3125,122.5 30.3125,122.875 Q30.3125,123.2656 30.0469,123.5 Q29.7813,123.7344 29.1719,123.7344 L27.4531,123.7344 Z "/><text fill="#000000" font-family="sans-serif" font-size="14" font-style="italic" lengthAdjust="spacingAndGlyphs" textLength="96" x="63" y="126.5332">ActivityDiagram</text><text fill="#000000" font-family="sans-serif" font-size="10" font-style="italic" lengthAdjust="spacingAndGlyphs" textLength="141" x="40.5" y="139.9902">org.eclipse.epf.diagram.model</text></a><!--MD5=[2f0e1f53566d4089fe4de1bc63efad40]
class org.eclipse.epf.diagram.model.Diagram--><a href="Diagram.html" target="_top" title="Diagram.html" xlink:actuate="onRequest" xlink:href="Diagram.html" xlink:show="new" xlink:title="Diagram.html" xlink:type="simple"><rect codeLine="7" fill="#FEFECE" filter="url(#ft9taudp7kmm9)" height="40.1875" id="org.eclipse.epf.diagram.model.Diagram" style="stroke: #A80036; stroke-width: 1.5;" width="173" x="11.5" y="7"/><ellipse cx="26.5" cy="27.0938" fill="#B4A7E5" rx="11" ry="11" style="stroke: #A80036; stroke-width: 1.0;"/><path d="M27.4531,23.7344 L27.4531,30.3906 L29.1719,30.3906 Q29.7813,30.3906 30.0469,30.625 Q30.3125,30.8594 30.3125,31.25 Q30.3125,31.625 30.0469,31.8594 Q29.7813,32.0938 29.1719,32.0938 L24.0313,32.0938 Q23.4219,32.0938 23.1563,31.8594 Q22.8906,31.625 22.8906,31.2344 Q22.8906,30.8594 23.1563,30.625 Q23.4219,30.3906 24.0313,30.3906 L25.75,30.3906 L25.75,23.7344 L24.0313,23.7344 Q23.4219,23.7344 23.1563,23.5 Q22.8906,23.2656 22.8906,22.875 Q22.8906,22.5 23.1563,22.2656 Q23.4219,22.0313 24.0313,22.0313 L29.1719,22.0313 Q29.7813,22.0313 30.0469,22.2656 Q30.3125,22.5 30.3125,22.875 Q30.3125,23.2656 30.0469,23.5 Q29.7813,23.7344 29.1719,23.7344 L27.4531,23.7344 Z "/><text fill="#000000" font-family="sans-serif" font-size="14" font-style="italic" lengthAdjust="spacingAndGlyphs" textLength="53" x="84.5" y="26.5332">Diagram</text><text fill="#000000" font-family="sans-serif" font-size="10" font-style="italic" lengthAdjust="spacingAndGlyphs" textLength="141" x="40.5" y="39.9902">org.eclipse.epf.diagram.model</text></a><!--MD5=[29a3c80e3adac90b0e3f73d233cc0bb2]
reverse link org.eclipse.epf.diagram.model.Diagram to org.eclipse.epf.diagram.model.ActivityDiagram--><path codeLine="9" d="M98,67.69 C98,81.13 98,95.55 98,106.68 " fill="none" id="org.eclipse.epf.diagram.model.Diagram-backto-org.eclipse.epf.diagram.model.ActivityDiagram" style="stroke: #A80036; stroke-width: 1.0;"/><polygon fill="none" points="91,67.36,98,47.36,105,67.36,91,67.36" style="stroke: #A80036; stroke-width: 1.0;"/><text fill="#888888" font-family="sans-serif" font-size="10" lengthAdjust="spacingAndGlyphs" textLength="190" x="0" y="170.5684">UMLDoclet 2.0.12, PlantUML 1.2020.16</text><!--MD5=[acd80dc77fcd054c0ff363c8898a97e8]
@startuml
    set namespaceSeparator none
    hide empty fields
    hide empty methods

    interface "<size:14>ActivityDiagram\n<size:10>org.eclipse.epf.diagram.model" as org.eclipse.epf.diagram.model.ActivityDiagram [[ActivityDiagram.html]]

    interface "<size:14>Diagram\n<size:10>org.eclipse.epf.diagram.model" as org.eclipse.epf.diagram.model.Diagram [[Diagram.html]]

    org.eclipse.epf.diagram.model.Diagram <|- - org.eclipse.epf.diagram.model.ActivityDiagram

    center footer UMLDoclet 2.0.12, PlantUML 1.2020.16
@enduml

PlantUML version 1.2020.16(Sun Aug 23 22:20:43 CEST 2020)
(APACHE source distribution)
Java Runtime: Java(TM) SE Runtime Environment
JVM: Java HotSpot(TM) 64-Bit Server VM
Default Encoding: Cp1252
Language: es
Country: ES
--></g></svg>