<?xml version="1.0" encoding="UTF-8" standalone="no"?><svg xmlns="http://www.w3.org/2000/svg" xmlns:xlink="http://www.w3.org/1999/xlink" contentScriptType="application/ecmascript" contentStyleType="text/css" height="408px" preserveAspectRatio="none" style="width:250px;height:408px;" version="1.1" viewBox="0 0 250 408" width="250px" zoomAndPan="magnify"><defs><filter height="300%" id="f19l9kkxz1k3hd" width="300%" x="-1" y="-1"><feGaussianBlur result="blurOut" stdDeviation="2.0"/><feColorMatrix in="blurOut" result="blurOut2" type="matrix" values="0 0 0 0 0 0 0 0 0 0 0 0 0 0 0 0 0 0 .4 0"/><feOffset dx="4.0" dy="4.0" in="blurOut2" result="blurOut3"/><feBlend in="SourceGraphic" in2="blurOut3" mode="normal"/></filter></defs><g><!--MD5=[e2b3c0926322a5db9ac6374677f7ce4d]
class org.eclipse.epf.diagram.model.Link--><a href="Link.html" target="_top" title="Link.html" xlink:actuate="onRequest" xlink:href="Link.html" xlink:show="new" xlink:title="Link.html" xlink:type="simple"><rect codeLine="5" fill="#FEFECE" filter="url(#f19l9kkxz1k3hd)" height="200.3828" id="org.eclipse.epf.diagram.model.Link" style="stroke: #A80036; stroke-width: 1.5;" width="179" x="29.5" y="171"/><ellipse cx="47.2" cy="191.0938" fill="#B4A7E5" rx="11" ry="11" style="stroke: #A80036; stroke-width: 1.0;"/><path d="M48.1531,187.7344 L48.1531,194.3906 L49.8719,194.3906 Q50.4813,194.3906 50.7469,194.625 Q51.0125,194.8594 51.0125,195.25 Q51.0125,195.625 50.7469,195.8594 Q50.4813,196.0938 49.8719,196.0938 L44.7313,196.0938 Q44.1219,196.0938 43.8563,195.8594 Q43.5906,195.625 43.5906,195.2344 Q43.5906,194.8594 43.8563,194.625 Q44.1219,194.3906 44.7313,194.3906 L46.45,194.3906 L46.45,187.7344 L44.7313,187.7344 Q44.1219,187.7344 43.8563,187.5 Q43.5906,187.2656 43.5906,186.875 Q43.5906,186.5 43.8563,186.2656 Q44.1219,186.0313 44.7313,186.0313 L49.8719,186.0313 Q50.4813,186.0313 50.7469,186.2656 Q51.0125,186.5 51.0125,186.875 Q51.0125,187.2656 50.7469,187.5 Q50.4813,187.7344 49.8719,187.7344 L48.1531,187.7344 Z "/><text fill="#000000" font-family="sans-serif" font-size="14" font-style="italic" lengthAdjust="spacingAndGlyphs" textLength="27" x="118.8" y="190.5332">Link</text><text fill="#000000" font-family="sans-serif" font-size="10" font-style="italic" lengthAdjust="spacingAndGlyphs" textLength="141" x="61.8" y="203.9902">org.eclipse.epf.diagram.model</text><line style="stroke: #A80036; stroke-width: 1.5;" x1="30.5" x2="207.5" y1="211.1875" y2="211.1875"/><ellipse cx="40.5" cy="222.1875" fill="#84BE84" rx="3" ry="3" style="stroke: #038048; stroke-width: 1.0;"/><text fill="#000000" font-family="sans-serif" font-size="11" font-style="italic" lengthAdjust="spacingAndGlyphs" textLength="87" x="49.5" y="226.6064">getName(): String</text><ellipse cx="40.5" cy="236.0234" fill="#84BE84" rx="3" ry="3" style="stroke: #038048; stroke-width: 1.0;"/><text fill="#000000" font-family="sans-serif" font-size="11" font-style="italic" lengthAdjust="spacingAndGlyphs" textLength="107" x="49.5" y="240.4424">setName(String): void</text><ellipse cx="40.5" cy="249.8594" fill="#84BE84" rx="3" ry="3" style="stroke: #038048; stroke-width: 1.0;"/><text fill="#000000" font-family="sans-serif" font-size="11" font-style="italic" lengthAdjust="spacingAndGlyphs" textLength="90" x="49.5" y="254.2783">getSource(): Node</text><ellipse cx="40.5" cy="263.6953" fill="#84BE84" rx="3" ry="3" style="stroke: #038048; stroke-width: 1.0;"/><text fill="#000000" font-family="sans-serif" font-size="11" font-style="italic" lengthAdjust="spacingAndGlyphs" textLength="110" x="49.5" y="268.1143">setSource(Node): void</text><ellipse cx="40.5" cy="277.5313" fill="#84BE84" rx="3" ry="3" style="stroke: #038048; stroke-width: 1.0;"/><text fill="#000000" font-family="sans-serif" font-size="11" font-style="italic" lengthAdjust="spacingAndGlyphs" textLength="87" x="49.5" y="281.9502">getTarget(): Node</text><ellipse cx="40.5" cy="291.3672" fill="#84BE84" rx="3" ry="3" style="stroke: #038048; stroke-width: 1.0;"/><text fill="#000000" font-family="sans-serif" font-size="11" font-style="italic" lengthAdjust="spacingAndGlyphs" textLength="107" x="49.5" y="295.7861">setTarget(Node): void</text><ellipse cx="40.5" cy="305.2031" fill="#84BE84" rx="3" ry="3" style="stroke: #038048; stroke-width: 1.0;"/><text fill="#000000" font-family="sans-serif" font-size="11" font-style="italic" lengthAdjust="spacingAndGlyphs" textLength="109" x="49.5" y="309.6221">getBendpoints(): EList</text><ellipse cx="40.5" cy="319.0391" fill="#84BE84" rx="3" ry="3" style="stroke: #038048; stroke-width: 1.0;"/><text fill="#000000" font-family="sans-serif" font-size="11" font-style="italic" lengthAdjust="spacingAndGlyphs" textLength="133" x="49.5" y="323.458">getSourceEndPoint(): Point</text><ellipse cx="40.5" cy="332.875" fill="#84BE84" rx="3" ry="3" style="stroke: #038048; stroke-width: 1.0;"/><text fill="#000000" font-family="sans-serif" font-size="11" font-style="italic" lengthAdjust="spacingAndGlyphs" textLength="153" x="49.5" y="337.2939">setSourceEndPoint(Point): void</text><ellipse cx="40.5" cy="346.7109" fill="#84BE84" rx="3" ry="3" style="stroke: #038048; stroke-width: 1.0;"/><text fill="#000000" font-family="sans-serif" font-size="11" font-style="italic" lengthAdjust="spacingAndGlyphs" textLength="130" x="49.5" y="351.1299">getTargetEndPoint(): Point</text><ellipse cx="40.5" cy="360.5469" fill="#84BE84" rx="3" ry="3" style="stroke: #038048; stroke-width: 1.0;"/><text fill="#000000" font-family="sans-serif" font-size="11" font-style="italic" lengthAdjust="spacingAndGlyphs" textLength="150" x="49.5" y="364.9658">setTargetEndPoint(Point): void</text></a><!--MD5=[7cc579e5dd5aac4f853eaf1b6770b9c8]
class org.eclipse.epf.diagram.model.LinkedObject--><a href="LinkedObject.html" target="_top" title="LinkedObject.html" xlink:actuate="onRequest" xlink:href="LinkedObject.html" xlink:show="new" xlink:title="LinkedObject.html" xlink:type="simple"><rect codeLine="19" fill="#FEFECE" filter="url(#f19l9kkxz1k3hd)" height="103.5313" id="org.eclipse.epf.diagram.model.LinkedObject" style="stroke: #A80036; stroke-width: 1.5;" width="224" x="7" y="7"/><ellipse cx="44.95" cy="27.0938" fill="#B4A7E5" rx="11" ry="11" style="stroke: #A80036; stroke-width: 1.0;"/><path d="M45.9031,23.7344 L45.9031,30.3906 L47.6219,30.3906 Q48.2313,30.3906 48.4969,30.625 Q48.7625,30.8594 48.7625,31.25 Q48.7625,31.625 48.4969,31.8594 Q48.2313,32.0938 47.6219,32.0938 L42.4813,32.0938 Q41.8719,32.0938 41.6063,31.8594 Q41.3406,31.625 41.3406,31.2344 Q41.3406,30.8594 41.6063,30.625 Q41.8719,30.3906 42.4813,30.3906 L44.2,30.3906 L44.2,23.7344 L42.4813,23.7344 Q41.8719,23.7344 41.6063,23.5 Q41.3406,23.2656 41.3406,22.875 Q41.3406,22.5 41.6063,22.2656 Q41.8719,22.0313 42.4813,22.0313 L47.6219,22.0313 Q48.2313,22.0313 48.4969,22.2656 Q48.7625,22.5 48.7625,22.875 Q48.7625,23.2656 48.4969,23.5 Q48.2313,23.7344 47.6219,23.7344 L45.9031,23.7344 Z "/><text fill="#000000" font-family="sans-serif" font-size="14" font-style="italic" lengthAdjust="spacingAndGlyphs" textLength="84" x="92.55" y="26.5332">LinkedObject</text><text fill="#000000" font-family="sans-serif" font-size="10" font-style="italic" lengthAdjust="spacingAndGlyphs" textLength="141" x="64.05" y="39.9902">org.eclipse.epf.diagram.model</text><line style="stroke: #A80036; stroke-width: 1.5;" x1="8" x2="230" y1="47.1875" y2="47.1875"/><ellipse cx="18" cy="58.1875" fill="#84BE84" rx="3" ry="3" style="stroke: #038048; stroke-width: 1.0;"/><text fill="#000000" font-family="sans-serif" font-size="11" font-style="italic" lengthAdjust="spacingAndGlyphs" textLength="178" x="27" y="62.6064">getLinkedElement(): MethodElement</text><ellipse cx="18" cy="72.0234" fill="#84BE84" rx="3" ry="3" style="stroke: #038048; stroke-width: 1.0;"/><text fill="#000000" font-family="sans-serif" font-size="11" font-style="italic" lengthAdjust="spacingAndGlyphs" textLength="198" x="27" y="76.4424">setLinkedElement(MethodElement): void</text><ellipse cx="18" cy="85.8594" fill="#84BE84" rx="3" ry="3" style="stroke: #038048; stroke-width: 1.0;"/><text fill="#000000" font-family="sans-serif" font-size="11" font-style="italic" lengthAdjust="spacingAndGlyphs" textLength="97" x="27" y="90.2783">getObject(): Object</text><ellipse cx="18" cy="99.6953" fill="#84BE84" rx="3" ry="3" style="stroke: #038048; stroke-width: 1.0;"/><text fill="#000000" font-family="sans-serif" font-size="11" font-style="italic" lengthAdjust="spacingAndGlyphs" textLength="117" x="27" y="104.1143">setObject(Object): void</text></a><!--MD5=[2181b85035b689ab38248e969a13e232]
reverse link org.eclipse.epf.diagram.model.LinkedObject to org.eclipse.epf.diagram.model.Link--><path codeLine="26" d="M119,131.13 C119,143.93 119,157.49 119,170.92 " fill="none" id="org.eclipse.epf.diagram.model.LinkedObject-backto-org.eclipse.epf.diagram.model.Link" style="stroke: #A80036; stroke-width: 1.0;"/><polygon fill="none" points="112,131.1,119,111.1,126,131.1,112,131.1" style="stroke: #A80036; stroke-width: 1.0;"/><text fill="#888888" font-family="sans-serif" font-size="10" lengthAdjust="spacingAndGlyphs" textLength="190" x="21" y="394.7637">UMLDoclet 2.0.12, PlantUML 1.2020.16</text><!--MD5=[bec6e694c9184b0c7929ee73ffa113fe]
@startuml
    set namespaceSeparator none
    hide empty fields
    hide empty methods

    interface "<size:14>Link\n<size:10>org.eclipse.epf.diagram.model" as org.eclipse.epf.diagram.model.Link [[Link.html]] {
        {abstract} +getName(): String
        {abstract} +setName(String): void
        {abstract} +getSource(): Node
        {abstract} +setSource(Node): void
        {abstract} +getTarget(): Node
        {abstract} +setTarget(Node): void
        {abstract} +getBendpoints(): EList
        {abstract} +getSourceEndPoint(): Point
        {abstract} +setSourceEndPoint(Point): void
        {abstract} +getTargetEndPoint(): Point
        {abstract} +setTargetEndPoint(Point): void
    }

    interface "<size:14>LinkedObject\n<size:10>org.eclipse.epf.diagram.model" as org.eclipse.epf.diagram.model.LinkedObject [[LinkedObject.html]] {
        {abstract} +getLinkedElement(): MethodElement
        {abstract} +setLinkedElement(MethodElement): void
        {abstract} +getObject(): Object
        {abstract} +setObject(Object): void
    }

    org.eclipse.epf.diagram.model.LinkedObject <|- - org.eclipse.epf.diagram.model.Link

    center footer UMLDoclet 2.0.12, PlantUML 1.2020.16
@enduml

PlantUML version 1.2020.16(Sun Aug 23 22:20:43 CEST 2020)
(APACHE source distribution)
Java Runtime: Java(TM) SE Runtime Environment
JVM: Java HotSpot(TM) 64-Bit Server VM
Default Encoding: Cp1252
Language: es
Country: ES
--></g></svg>