<?xml version="1.0" encoding="UTF-8" standalone="no"?><svg xmlns="http://www.w3.org/2000/svg" xmlns:xlink="http://www.w3.org/1999/xlink" contentScriptType="application/ecmascript" contentStyleType="text/css" height="498px" preserveAspectRatio="none" style="width:433px;height:498px;" version="1.1" viewBox="0 0 433 498" width="433px" zoomAndPan="magnify"><defs><filter height="300%" id="fhb5hh4yu7tg8" width="300%" x="-1" y="-1"><feGaussianBlur result="blurOut" stdDeviation="2.0"/><feColorMatrix in="blurOut" result="blurOut2" type="matrix" values="0 0 0 0 0 0 0 0 0 0 0 0 0 0 0 0 0 0 .4 0"/><feOffset dx="4.0" dy="4.0" in="blurOut2" result="blurOut3"/><feBlend in="SourceGraphic" in2="blurOut3" mode="normal"/></filter></defs><g><!--MD5=[cdf2ccbd329d697f337652029c16fea2]
class org.eclipse.epf.diagram.model.ModelFactory--><a href="ModelFactory.html" target="_top" title="ModelFactory.html" xlink:actuate="onRequest" xlink:href="ModelFactory.html" xlink:show="new" xlink:title="ModelFactory.html" xlink:type="simple"><rect codeLine="5" fill="#FEFECE" filter="url(#fhb5hh4yu7tg8)" height="277.5625" id="org.eclipse.epf.diagram.model.ModelFactory" style="stroke: #A80036; stroke-width: 1.5;" width="407" x="7" y="184"/><ellipse cx="135.75" cy="204.0938" fill="#B4A7E5" rx="11" ry="11" style="stroke: #A80036; stroke-width: 1.0;"/><path d="M136.7031,200.7344 L136.7031,207.3906 L138.4219,207.3906 Q139.0313,207.3906 139.2969,207.625 Q139.5625,207.8594 139.5625,208.25 Q139.5625,208.625 139.2969,208.8594 Q139.0313,209.0938 138.4219,209.0938 L133.2813,209.0938 Q132.6719,209.0938 132.4063,208.8594 Q132.1406,208.625 132.1406,208.2344 Q132.1406,207.8594 132.4063,207.625 Q132.6719,207.3906 133.2813,207.3906 L135,207.3906 L135,200.7344 L133.2813,200.7344 Q132.6719,200.7344 132.4063,200.5 Q132.1406,200.2656 132.1406,199.875 Q132.1406,199.5 132.4063,199.2656 Q132.6719,199.0313 133.2813,199.0313 L138.4219,199.0313 Q139.0313,199.0313 139.2969,199.2656 Q139.5625,199.5 139.5625,199.875 Q139.5625,200.2656 139.2969,200.5 Q139.0313,200.7344 138.4219,200.7344 L136.7031,200.7344 Z "/><text fill="#000000" font-family="sans-serif" font-size="14" font-style="italic" lengthAdjust="spacingAndGlyphs" textLength="87" x="183.25" y="203.5332">ModelFactory</text><text fill="#000000" font-family="sans-serif" font-size="10" font-style="italic" lengthAdjust="spacingAndGlyphs" textLength="141" x="156.25" y="216.9902">org.eclipse.epf.diagram.model</text><line style="stroke: #A80036; stroke-width: 1.5;" x1="8" x2="413" y1="224.1875" y2="224.1875"/><ellipse cx="18" cy="235.1875" fill="none" rx="3" ry="3" style="stroke: #038048; stroke-width: 1.0;"/><text fill="#000000" font-family="sans-serif" font-size="11" lengthAdjust="spacingAndGlyphs" text-decoration="underline" textLength="127" x="27" y="239.6064">eINSTANCE: ModelFactory</text><line style="stroke: #A80036; stroke-width: 1.5;" x1="8" x2="413" y1="246.0234" y2="246.0234"/><ellipse cx="18" cy="257.0234" fill="#84BE84" rx="3" ry="3" style="stroke: #038048; stroke-width: 1.0;"/><text fill="#000000" font-family="sans-serif" font-size="11" font-style="italic" lengthAdjust="spacingAndGlyphs" textLength="129" x="27" y="261.4424">createDiagram(): Diagram</text><ellipse cx="18" cy="270.8594" fill="#84BE84" rx="3" ry="3" style="stroke: #038048; stroke-width: 1.0;"/><text fill="#000000" font-family="sans-serif" font-size="11" font-style="italic" lengthAdjust="spacingAndGlyphs" textLength="87" x="27" y="275.2783">createLink(): Link</text><ellipse cx="18" cy="284.6953" fill="#84BE84" rx="3" ry="3" style="stroke: #038048; stroke-width: 1.0;"/><text fill="#000000" font-family="sans-serif" font-size="11" font-style="italic" lengthAdjust="spacingAndGlyphs" textLength="167" x="27" y="289.1143">createNamedNode(): NamedNode</text><ellipse cx="18" cy="298.5313" fill="#84BE84" rx="3" ry="3" style="stroke: #038048; stroke-width: 1.0;"/><text fill="#000000" font-family="sans-serif" font-size="11" font-style="italic" lengthAdjust="spacingAndGlyphs" textLength="199" x="27" y="302.9502">createActivityDiagram(): ActivityDiagram</text><ellipse cx="18" cy="312.3672" fill="#84BE84" rx="3" ry="3" style="stroke: #038048; stroke-width: 1.0;"/><text fill="#000000" font-family="sans-serif" font-size="11" font-style="italic" lengthAdjust="spacingAndGlyphs" textLength="157" x="27" y="316.7861">createTypedNode(): TypedNode</text><ellipse cx="18" cy="326.2031" fill="#84BE84" rx="3" ry="3" style="stroke: #038048; stroke-width: 1.0;"/><text fill="#000000" font-family="sans-serif" font-size="11" font-style="italic" lengthAdjust="spacingAndGlyphs" textLength="381" x="27" y="330.6221">createWorkProductDependencyDiagram(): WorkProductDependencyDiagram</text><ellipse cx="18" cy="340.0391" fill="#84BE84" rx="3" ry="3" style="stroke: #038048; stroke-width: 1.0;"/><text fill="#000000" font-family="sans-serif" font-size="11" font-style="italic" lengthAdjust="spacingAndGlyphs" textLength="227" x="27" y="344.458">createWorkProductNode(): WorkProductNode</text><ellipse cx="18" cy="353.875" fill="#84BE84" rx="3" ry="3" style="stroke: #038048; stroke-width: 1.0;"/><text fill="#000000" font-family="sans-serif" font-size="11" font-style="italic" lengthAdjust="spacingAndGlyphs" textLength="257" x="27" y="358.2939">createActivityDetailDiagram(): ActivityDetailDiagram</text><ellipse cx="18" cy="367.7109" fill="#84BE84" rx="3" ry="3" style="stroke: #038048; stroke-width: 1.0;"/><text fill="#000000" font-family="sans-serif" font-size="11" font-style="italic" lengthAdjust="spacingAndGlyphs" textLength="143" x="27" y="372.1299">createRoleNode(): RoleNode</text><ellipse cx="18" cy="381.5469" fill="#84BE84" rx="3" ry="3" style="stroke: #038048; stroke-width: 1.0;"/><text fill="#000000" font-family="sans-serif" font-size="11" font-style="italic" lengthAdjust="spacingAndGlyphs" textLength="247" x="27" y="385.9658">createRoleTaskComposite(): RoleTaskComposite</text><ellipse cx="18" cy="395.3828" fill="#84BE84" rx="3" ry="3" style="stroke: #038048; stroke-width: 1.0;"/><text fill="#000000" font-family="sans-serif" font-size="11" font-style="italic" lengthAdjust="spacingAndGlyphs" textLength="147" x="27" y="399.8018">createTaskNode(): TaskNode</text><ellipse cx="18" cy="409.2188" fill="#84BE84" rx="3" ry="3" style="stroke: #038048; stroke-width: 1.0;"/><text fill="#000000" font-family="sans-serif" font-size="11" font-style="italic" lengthAdjust="spacingAndGlyphs" textLength="331" x="27" y="413.6377">createWorkProductDescriptorNode(): WorkProductDescriptorNode</text><ellipse cx="18" cy="423.0547" fill="#84BE84" rx="3" ry="3" style="stroke: #038048; stroke-width: 1.0;"/><text fill="#000000" font-family="sans-serif" font-size="11" font-style="italic" lengthAdjust="spacingAndGlyphs" textLength="339" x="27" y="427.4736">createWorkBreakdownElementNode(): WorkBreakdownElementNode</text><ellipse cx="18" cy="436.8906" fill="#84BE84" rx="3" ry="3" style="stroke: #038048; stroke-width: 1.0;"/><text fill="#000000" font-family="sans-serif" font-size="11" font-style="italic" lengthAdjust="spacingAndGlyphs" textLength="281" x="27" y="441.3096">createWorkProductComposite(): WorkProductComposite</text><ellipse cx="18" cy="450.7266" fill="#84BE84" rx="3" ry="3" style="stroke: #038048; stroke-width: 1.0;"/><text fill="#000000" font-family="sans-serif" font-size="11" font-style="italic" lengthAdjust="spacingAndGlyphs" textLength="175" x="27" y="455.1455">getModelPackage(): ModelPackage</text></a><!--MD5=[f412e24a574ed4ede2b2c0aa097a2879]
class org.eclipse.emf.ecore.EFactory--><rect codeLine="24" fill="#FEFECE" filter="url(#fhb5hh4yu7tg8)" height="117.3672" id="org.eclipse.emf.ecore.EFactory" style="stroke: #A80036; stroke-width: 1.5;" width="249" x="86" y="7"/><ellipse cx="156.25" cy="27.0938" fill="#B4A7E5" rx="11" ry="11" style="stroke: #A80036; stroke-width: 1.0;"/><path d="M157.2031,23.7344 L157.2031,30.3906 L158.9219,30.3906 Q159.5313,30.3906 159.7969,30.625 Q160.0625,30.8594 160.0625,31.25 Q160.0625,31.625 159.7969,31.8594 Q159.5313,32.0938 158.9219,32.0938 L153.7813,32.0938 Q153.1719,32.0938 152.9063,31.8594 Q152.6406,31.625 152.6406,31.2344 Q152.6406,30.8594 152.9063,30.625 Q153.1719,30.3906 153.7813,30.3906 L155.5,30.3906 L155.5,23.7344 L153.7813,23.7344 Q153.1719,23.7344 152.9063,23.5 Q152.6406,23.2656 152.6406,22.875 Q152.6406,22.5 152.9063,22.2656 Q153.1719,22.0313 153.7813,22.0313 L158.9219,22.0313 Q159.5313,22.0313 159.7969,22.2656 Q160.0625,22.5 160.0625,22.875 Q160.0625,23.2656 159.7969,23.5 Q159.5313,23.7344 158.9219,23.7344 L157.2031,23.7344 Z "/><text fill="#000000" font-family="sans-serif" font-size="14" font-style="italic" lengthAdjust="spacingAndGlyphs" textLength="57" x="198.25" y="26.5332">EFactory</text><text fill="#000000" font-family="sans-serif" font-size="10" font-style="italic" lengthAdjust="spacingAndGlyphs" textLength="100" x="176.75" y="39.9902">org.eclipse.emf.ecore</text><line style="stroke: #A80036; stroke-width: 1.5;" x1="87" x2="334" y1="47.1875" y2="47.1875"/><ellipse cx="97" cy="58.1875" fill="#84BE84" rx="3" ry="3" style="stroke: #038048; stroke-width: 1.0;"/><text fill="#000000" font-family="sans-serif" font-size="11" font-style="italic" lengthAdjust="spacingAndGlyphs" textLength="129" x="106" y="62.6064">getEPackage(): EPackage</text><ellipse cx="97" cy="72.0234" fill="#84BE84" rx="3" ry="3" style="stroke: #038048; stroke-width: 1.0;"/><text fill="#000000" font-family="sans-serif" font-size="11" font-style="italic" lengthAdjust="spacingAndGlyphs" textLength="149" x="106" y="76.4424">setEPackage(EPackage): void</text><ellipse cx="97" cy="85.8594" fill="#84BE84" rx="3" ry="3" style="stroke: #038048; stroke-width: 1.0;"/><text fill="#000000" font-family="sans-serif" font-size="11" font-style="italic" lengthAdjust="spacingAndGlyphs" textLength="122" x="106" y="90.2783">create(EClass): EObject</text><ellipse cx="97" cy="99.6953" fill="#84BE84" rx="3" ry="3" style="stroke: #038048; stroke-width: 1.0;"/><text fill="#000000" font-family="sans-serif" font-size="11" font-style="italic" lengthAdjust="spacingAndGlyphs" textLength="223" x="106" y="104.1143">createFromString(EDataType, String): Object</text><ellipse cx="97" cy="113.5313" fill="#84BE84" rx="3" ry="3" style="stroke: #038048; stroke-width: 1.0;"/><text fill="#000000" font-family="sans-serif" font-size="11" font-style="italic" lengthAdjust="spacingAndGlyphs" textLength="215" x="106" y="117.9502">convertToString(EDataType, Object): String</text><!--MD5=[a7ea0c56bd5467bd1abd5b88f2b3ec90]
reverse link org.eclipse.emf.ecore.EFactory to org.eclipse.epf.diagram.model.ModelFactory--><path codeLine="32" d="M210.5,144.45 C210.5,156.99 210.5,170.3 210.5,183.76 " fill="none" id="org.eclipse.emf.ecore.EFactory-backto-org.eclipse.epf.diagram.model.ModelFactory" style="stroke: #A80036; stroke-width: 1.0;"/><polygon fill="none" points="203.5,144.16,210.5,124.16,217.5,144.16,203.5,144.16" style="stroke: #A80036; stroke-width: 1.0;"/><text fill="#888888" font-family="sans-serif" font-size="10" lengthAdjust="spacingAndGlyphs" textLength="190" x="112.5" y="484.9434">UMLDoclet 2.0.12, PlantUML 1.2020.16</text><!--MD5=[5f39bfbef554dcf15a339b3a1e2e7ab8]
@startuml
    set namespaceSeparator none
    hide empty fields
    hide empty methods

    interface "<size:14>ModelFactory\n<size:10>org.eclipse.epf.diagram.model" as org.eclipse.epf.diagram.model.ModelFactory [[ModelFactory.html]] {
        {static} +eINSTANCE: ModelFactory
        {abstract} +createDiagram(): Diagram
        {abstract} +createLink(): Link
        {abstract} +createNamedNode(): NamedNode
        {abstract} +createActivityDiagram(): ActivityDiagram
        {abstract} +createTypedNode(): TypedNode
        {abstract} +createWorkProductDependencyDiagram(): WorkProductDependencyDiagram
        {abstract} +createWorkProductNode(): WorkProductNode
        {abstract} +createActivityDetailDiagram(): ActivityDetailDiagram
        {abstract} +createRoleNode(): RoleNode
        {abstract} +createRoleTaskComposite(): RoleTaskComposite
        {abstract} +createTaskNode(): TaskNode
        {abstract} +createWorkProductDescriptorNode(): WorkProductDescriptorNode
        {abstract} +createWorkBreakdownElementNode(): WorkBreakdownElementNode
        {abstract} +createWorkProductComposite(): WorkProductComposite
        {abstract} +getModelPackage(): ModelPackage
    }

    interface "<size:14>EFactory\n<size:10>org.eclipse.emf.ecore" as org.eclipse.emf.ecore.EFactory {
        {abstract} +getEPackage(): EPackage
        {abstract} +setEPackage(EPackage): void
        {abstract} +create(EClass): EObject
        {abstract} +createFromString(EDataType, String): Object
        {abstract} +convertToString(EDataType, Object): String
    }

    org.eclipse.emf.ecore.EFactory <|- - org.eclipse.epf.diagram.model.ModelFactory

    center footer UMLDoclet 2.0.12, PlantUML 1.2020.16
@enduml

PlantUML version 1.2020.16(Sun Aug 23 22:20:43 CEST 2020)
(APACHE source distribution)
Java Runtime: Java(TM) SE Runtime Environment
JVM: Java HotSpot(TM) 64-Bit Server VM
Default Encoding: Cp1252
Language: es
Country: ES
--></g></svg>