<?xml version="1.0" encoding="UTF-8" standalone="no"?><svg xmlns="http://www.w3.org/2000/svg" xmlns:xlink="http://www.w3.org/1999/xlink" contentScriptType="application/ecmascript" contentStyleType="text/css" height="366px" preserveAspectRatio="none" style="width:213px;height:366px;" version="1.1" viewBox="0 0 213 366" width="213px" zoomAndPan="magnify"><defs><filter height="300%" id="ff9yuxbd3dgdz" width="300%" x="-1" y="-1"><feGaussianBlur result="blurOut" stdDeviation="2.0"/><feColorMatrix in="blurOut" result="blurOut2" type="matrix" values="0 0 0 0 0 0 0 0 0 0 0 0 0 0 0 0 0 0 .4 0"/><feOffset dx="4.0" dy="4.0" in="blurOut2" result="blurOut3"/><feBlend in="SourceGraphic" in2="blurOut3" mode="normal"/></filter></defs><g><!--MD5=[98c680c8c8d2fd85638f75c500d434f0]
class org.eclipse.epf.diagram.model.TypedNode--><a href="TypedNode.html" target="_top" title="TypedNode.html" xlink:actuate="onRequest" xlink:href="TypedNode.html" xlink:show="new" xlink:title="TypedNode.html" xlink:type="simple"><rect codeLine="5" fill="#FEFECE" filter="url(#ff9yuxbd3dgdz)" height="75.8594" id="org.eclipse.epf.diagram.model.TypedNode" style="stroke: #A80036; stroke-width: 1.5;" width="173" x="14" y="254"/><ellipse cx="29" cy="274.0938" fill="#B4A7E5" rx="11" ry="11" style="stroke: #A80036; stroke-width: 1.0;"/><path d="M29.9531,270.7344 L29.9531,277.3906 L31.6719,277.3906 Q32.2813,277.3906 32.5469,277.625 Q32.8125,277.8594 32.8125,278.25 Q32.8125,278.625 32.5469,278.8594 Q32.2813,279.0938 31.6719,279.0938 L26.5313,279.0938 Q25.9219,279.0938 25.6563,278.8594 Q25.3906,278.625 25.3906,278.2344 Q25.3906,277.8594 25.6563,277.625 Q25.9219,277.3906 26.5313,277.3906 L28.25,277.3906 L28.25,270.7344 L26.5313,270.7344 Q25.9219,270.7344 25.6563,270.5 Q25.3906,270.2656 25.3906,269.875 Q25.3906,269.5 25.6563,269.2656 Q25.9219,269.0313 26.5313,269.0313 L31.6719,269.0313 Q32.2813,269.0313 32.5469,269.2656 Q32.8125,269.5 32.8125,269.875 Q32.8125,270.2656 32.5469,270.5 Q32.2813,270.7344 31.6719,270.7344 L29.9531,270.7344 Z "/><text fill="#000000" font-family="sans-serif" font-size="14" font-style="italic" lengthAdjust="spacingAndGlyphs" textLength="74" x="76.5" y="273.5332">TypedNode</text><text fill="#000000" font-family="sans-serif" font-size="10" font-style="italic" lengthAdjust="spacingAndGlyphs" textLength="141" x="43" y="286.9902">org.eclipse.epf.diagram.model</text><line style="stroke: #A80036; stroke-width: 1.5;" x1="15" x2="186" y1="294.1875" y2="294.1875"/><ellipse cx="25" cy="305.1875" fill="#84BE84" rx="3" ry="3" style="stroke: #038048; stroke-width: 1.0;"/><text fill="#000000" font-family="sans-serif" font-size="11" font-style="italic" lengthAdjust="spacingAndGlyphs" textLength="65" x="34" y="309.6064">getType(): int</text><ellipse cx="25" cy="319.0234" fill="#84BE84" rx="3" ry="3" style="stroke: #038048; stroke-width: 1.0;"/><text fill="#000000" font-family="sans-serif" font-size="11" font-style="italic" lengthAdjust="spacingAndGlyphs" textLength="85" x="34" y="323.4424">setType(int): void</text></a><!--MD5=[ec3b728bff6e1e64ae9e2317014b71a5]
class org.eclipse.epf.diagram.model.Node--><a href="Node.html" target="_top" title="Node.html" xlink:actuate="onRequest" xlink:href="Node.html" xlink:show="new" xlink:title="Node.html" xlink:type="simple"><rect codeLine="10" fill="#FEFECE" filter="url(#ff9yuxbd3dgdz)" height="186.5469" id="org.eclipse.epf.diagram.model.Node" style="stroke: #A80036; stroke-width: 1.5;" width="187" x="7" y="7"/><ellipse cx="28.3" cy="27.0938" fill="#B4A7E5" rx="11" ry="11" style="stroke: #A80036; stroke-width: 1.0;"/><path d="M29.2531,23.7344 L29.2531,30.3906 L30.9719,30.3906 Q31.5813,30.3906 31.8469,30.625 Q32.1125,30.8594 32.1125,31.25 Q32.1125,31.625 31.8469,31.8594 Q31.5813,32.0938 30.9719,32.0938 L25.8313,32.0938 Q25.2219,32.0938 24.9563,31.8594 Q24.6906,31.625 24.6906,31.2344 Q24.6906,30.8594 24.9563,30.625 Q25.2219,30.3906 25.8313,30.3906 L27.55,30.3906 L27.55,23.7344 L25.8313,23.7344 Q25.2219,23.7344 24.9563,23.5 Q24.6906,23.2656 24.6906,22.875 Q24.6906,22.5 24.9563,22.2656 Q25.2219,22.0313 25.8313,22.0313 L30.9719,22.0313 Q31.5813,22.0313 31.8469,22.2656 Q32.1125,22.5 32.1125,22.875 Q32.1125,23.2656 31.8469,23.5 Q31.5813,23.7344 30.9719,23.7344 L29.2531,23.7344 Z "/><text fill="#000000" font-family="sans-serif" font-size="14" font-style="italic" lengthAdjust="spacingAndGlyphs" textLength="34" x="97.2" y="26.5332">Node</text><text fill="#000000" font-family="sans-serif" font-size="10" font-style="italic" lengthAdjust="spacingAndGlyphs" textLength="141" x="43.7" y="39.9902">org.eclipse.epf.diagram.model</text><line style="stroke: #A80036; stroke-width: 1.5;" x1="8" x2="193" y1="47.1875" y2="47.1875"/><ellipse cx="18" cy="58.1875" fill="#84BE84" rx="3" ry="3" style="stroke: #038048; stroke-width: 1.0;"/><text fill="#000000" font-family="sans-serif" font-size="11" font-style="italic" lengthAdjust="spacingAndGlyphs" textLength="96" x="27" y="62.6064">getLocation(): Point</text><ellipse cx="18" cy="72.0234" fill="#84BE84" rx="3" ry="3" style="stroke: #038048; stroke-width: 1.0;"/><text fill="#000000" font-family="sans-serif" font-size="11" font-style="italic" lengthAdjust="spacingAndGlyphs" textLength="116" x="27" y="76.4424">setLocation(Point): void</text><ellipse cx="18" cy="85.8594" fill="#84BE84" rx="3" ry="3" style="stroke: #038048; stroke-width: 1.0;"/><text fill="#000000" font-family="sans-serif" font-size="11" font-style="italic" lengthAdjust="spacingAndGlyphs" textLength="70" x="27" y="90.2783">getWidth(): int</text><ellipse cx="18" cy="99.6953" fill="#84BE84" rx="3" ry="3" style="stroke: #038048; stroke-width: 1.0;"/><text fill="#000000" font-family="sans-serif" font-size="11" font-style="italic" lengthAdjust="spacingAndGlyphs" textLength="90" x="27" y="104.1143">setWidth(int): void</text><ellipse cx="18" cy="113.5313" fill="#84BE84" rx="3" ry="3" style="stroke: #038048; stroke-width: 1.0;"/><text fill="#000000" font-family="sans-serif" font-size="11" font-style="italic" lengthAdjust="spacingAndGlyphs" textLength="73" x="27" y="117.9502">getHeight(): int</text><ellipse cx="18" cy="127.3672" fill="#84BE84" rx="3" ry="3" style="stroke: #038048; stroke-width: 1.0;"/><text fill="#000000" font-family="sans-serif" font-size="11" font-style="italic" lengthAdjust="spacingAndGlyphs" textLength="93" x="27" y="131.7861">setHeight(int): void</text><ellipse cx="18" cy="141.2031" fill="#84BE84" rx="3" ry="3" style="stroke: #038048; stroke-width: 1.0;"/><text fill="#000000" font-family="sans-serif" font-size="11" font-style="italic" lengthAdjust="spacingAndGlyphs" textLength="161" x="27" y="145.6221">getIncomingConnections(): EList</text><ellipse cx="18" cy="155.0391" fill="#84BE84" rx="3" ry="3" style="stroke: #038048; stroke-width: 1.0;"/><text fill="#000000" font-family="sans-serif" font-size="11" font-style="italic" lengthAdjust="spacingAndGlyphs" textLength="161" x="27" y="159.458">getOutgoingConnections(): EList</text><ellipse cx="18" cy="168.875" fill="#84BE84" rx="3" ry="3" style="stroke: #038048; stroke-width: 1.0;"/><text fill="#000000" font-family="sans-serif" font-size="11" font-style="italic" lengthAdjust="spacingAndGlyphs" textLength="112" x="27" y="173.2939">isReadOnly(): boolean</text><ellipse cx="18" cy="182.7109" fill="#84BE84" rx="3" ry="3" style="stroke: #038048; stroke-width: 1.0;"/><text fill="#000000" font-family="sans-serif" font-size="11" font-style="italic" lengthAdjust="spacingAndGlyphs" textLength="138" x="27" y="187.1299">setReadOnly(boolean): void</text></a><!--MD5=[2a36c1f5b2ccbcf9937e93a78d3608f4]
reverse link org.eclipse.epf.diagram.model.Node to org.eclipse.epf.diagram.model.TypedNode--><path codeLine="23" d="M100.5,214.34 C100.5,228.54 100.5,242.17 100.5,253.91 " fill="none" id="org.eclipse.epf.diagram.model.Node-backto-org.eclipse.epf.diagram.model.TypedNode" style="stroke: #A80036; stroke-width: 1.0;"/><polygon fill="none" points="93.5,214.03,100.5,194.03,107.5,214.03,93.5,214.03" style="stroke: #A80036; stroke-width: 1.0;"/><text fill="#888888" font-family="sans-serif" font-size="10" lengthAdjust="spacingAndGlyphs" textLength="190" x="2.5" y="353.2402">UMLDoclet 2.0.12, PlantUML 1.2020.16</text><!--MD5=[74202025c5a42230088a5c1f09095efc]
@startuml
    set namespaceSeparator none
    hide empty fields
    hide empty methods

    interface "<size:14>TypedNode\n<size:10>org.eclipse.epf.diagram.model" as org.eclipse.epf.diagram.model.TypedNode [[TypedNode.html]] {
        {abstract} +getType(): int
        {abstract} +setType(int): void
    }

    interface "<size:14>Node\n<size:10>org.eclipse.epf.diagram.model" as org.eclipse.epf.diagram.model.Node [[Node.html]] {
        {abstract} +getLocation(): Point
        {abstract} +setLocation(Point): void
        {abstract} +getWidth(): int
        {abstract} +setWidth(int): void
        {abstract} +getHeight(): int
        {abstract} +setHeight(int): void
        {abstract} +getIncomingConnections(): EList
        {abstract} +getOutgoingConnections(): EList
        {abstract} +isReadOnly(): boolean
        {abstract} +setReadOnly(boolean): void
    }

    org.eclipse.epf.diagram.model.Node <|- - org.eclipse.epf.diagram.model.TypedNode

    center footer UMLDoclet 2.0.12, PlantUML 1.2020.16
@enduml

PlantUML version 1.2020.16(Sun Aug 23 22:20:43 CEST 2020)
(APACHE source distribution)
Java Runtime: Java(TM) SE Runtime Environment
JVM: Java HotSpot(TM) 64-Bit Server VM
Default Encoding: Cp1252
Language: es
Country: ES
--></g></svg>