<?xml version="1.0" encoding="UTF-8" standalone="no"?><svg xmlns="http://www.w3.org/2000/svg" xmlns:xlink="http://www.w3.org/1999/xlink" contentScriptType="application/ecmascript" contentStyleType="text/css" height="220px" preserveAspectRatio="none" style="width:249px;height:220px;" version="1.1" viewBox="0 0 249 220" width="249px" zoomAndPan="magnify"><defs><filter height="300%" id="fau1zundqlao0" width="300%" x="-1" y="-1"><feGaussianBlur result="blurOut" stdDeviation="2.0"/><feColorMatrix in="blurOut" result="blurOut2" type="matrix" values="0 0 0 0 0 0 0 0 0 0 0 0 0 0 0 0 0 0 .4 0"/><feOffset dx="4.0" dy="4.0" in="blurOut2" result="blurOut3"/><feBlend in="SourceGraphic" in2="blurOut3" mode="normal"/></filter></defs><g><!--MD5=[b054cb523e1ffa10d02e7c6d7704f536]
class org.eclipse.epf.diagram.model.WorkBreakdownElementNode--><a href="WorkBreakdownElementNode.html" target="_top" title="WorkBreakdownElementNode.html" xlink:actuate="onRequest" xlink:href="WorkBreakdownElementNode.html" xlink:show="new" xlink:title="WorkBreakdownElementNode.html" xlink:type="simple"><rect codeLine="5" fill="#FEFECE" filter="url(#fau1zundqlao0)" height="40.1875" id="org.eclipse.epf.diagram.model.WorkBreakdownElementNode" style="stroke: #A80036; stroke-width: 1.5;" width="223" x="7" y="143"/><ellipse cx="22" cy="163.0938" fill="#B4A7E5" rx="11" ry="11" style="stroke: #A80036; stroke-width: 1.0;"/><path d="M22.9531,159.7344 L22.9531,166.3906 L24.6719,166.3906 Q25.2813,166.3906 25.5469,166.625 Q25.8125,166.8594 25.8125,167.25 Q25.8125,167.625 25.5469,167.8594 Q25.2813,168.0938 24.6719,168.0938 L19.5313,168.0938 Q18.9219,168.0938 18.6563,167.8594 Q18.3906,167.625 18.3906,167.2344 Q18.3906,166.8594 18.6563,166.625 Q18.9219,166.3906 19.5313,166.3906 L21.25,166.3906 L21.25,159.7344 L19.5313,159.7344 Q18.9219,159.7344 18.6563,159.5 Q18.3906,159.2656 18.3906,158.875 Q18.3906,158.5 18.6563,158.2656 Q18.9219,158.0313 19.5313,158.0313 L24.6719,158.0313 Q25.2813,158.0313 25.5469,158.2656 Q25.8125,158.5 25.8125,158.875 Q25.8125,159.2656 25.5469,159.5 Q25.2813,159.7344 24.6719,159.7344 L22.9531,159.7344 Z "/><text fill="#000000" font-family="sans-serif" font-size="14" font-style="italic" lengthAdjust="spacingAndGlyphs" textLength="191" x="36" y="162.5332">WorkBreakdownElementNode</text><text fill="#000000" font-family="sans-serif" font-size="10" font-style="italic" lengthAdjust="spacingAndGlyphs" textLength="141" x="61" y="175.9902">org.eclipse.epf.diagram.model</text></a><!--MD5=[440ff02f3d39fc70d00980ee1f19f50a]
class org.eclipse.epf.diagram.model.NamedNode--><a href="NamedNode.html" target="_top" title="NamedNode.html" xlink:actuate="onRequest" xlink:href="NamedNode.html" xlink:show="new" xlink:title="NamedNode.html" xlink:type="simple"><rect codeLine="7" fill="#FEFECE" filter="url(#fau1zundqlao0)" height="75.8594" id="org.eclipse.epf.diagram.model.NamedNode" style="stroke: #A80036; stroke-width: 1.5;" width="173" x="32" y="7"/><ellipse cx="47" cy="27.0938" fill="#B4A7E5" rx="11" ry="11" style="stroke: #A80036; stroke-width: 1.0;"/><path d="M47.9531,23.7344 L47.9531,30.3906 L49.6719,30.3906 Q50.2813,30.3906 50.5469,30.625 Q50.8125,30.8594 50.8125,31.25 Q50.8125,31.625 50.5469,31.8594 Q50.2813,32.0938 49.6719,32.0938 L44.5313,32.0938 Q43.9219,32.0938 43.6563,31.8594 Q43.3906,31.625 43.3906,31.2344 Q43.3906,30.8594 43.6563,30.625 Q43.9219,30.3906 44.5313,30.3906 L46.25,30.3906 L46.25,23.7344 L44.5313,23.7344 Q43.9219,23.7344 43.6563,23.5 Q43.3906,23.2656 43.3906,22.875 Q43.3906,22.5 43.6563,22.2656 Q43.9219,22.0313 44.5313,22.0313 L49.6719,22.0313 Q50.2813,22.0313 50.5469,22.2656 Q50.8125,22.5 50.8125,22.875 Q50.8125,23.2656 50.5469,23.5 Q50.2813,23.7344 49.6719,23.7344 L47.9531,23.7344 Z "/><text fill="#000000" font-family="sans-serif" font-size="14" font-style="italic" lengthAdjust="spacingAndGlyphs" textLength="79" x="92" y="26.5332">NamedNode</text><text fill="#000000" font-family="sans-serif" font-size="10" font-style="italic" lengthAdjust="spacingAndGlyphs" textLength="141" x="61" y="39.9902">org.eclipse.epf.diagram.model</text><line style="stroke: #A80036; stroke-width: 1.5;" x1="33" x2="204" y1="47.1875" y2="47.1875"/><ellipse cx="43" cy="58.1875" fill="#84BE84" rx="3" ry="3" style="stroke: #038048; stroke-width: 1.0;"/><text fill="#000000" font-family="sans-serif" font-size="11" font-style="italic" lengthAdjust="spacingAndGlyphs" textLength="87" x="52" y="62.6064">getName(): String</text><ellipse cx="43" cy="72.0234" fill="#84BE84" rx="3" ry="3" style="stroke: #038048; stroke-width: 1.0;"/><text fill="#000000" font-family="sans-serif" font-size="11" font-style="italic" lengthAdjust="spacingAndGlyphs" textLength="107" x="52" y="76.4424">setName(String): void</text></a><!--MD5=[94fe807af1aa19f1811fb88b6f9d59c1]
reverse link org.eclipse.epf.diagram.model.NamedNode to org.eclipse.epf.diagram.model.WorkBreakdownElementNode--><path codeLine="12" d="M118.5,103.43 C118.5,117.66 118.5,131.93 118.5,142.82 " fill="none" id="org.eclipse.epf.diagram.model.NamedNode-backto-org.eclipse.epf.diagram.model.WorkBreakdownElementNode" style="stroke: #A80036; stroke-width: 1.0;"/><polygon fill="none" points="111.5,103.02,118.5,83.02,125.5,103.02,111.5,103.02" style="stroke: #A80036; stroke-width: 1.0;"/><text fill="#888888" font-family="sans-serif" font-size="10" lengthAdjust="spacingAndGlyphs" textLength="190" x="20.5" y="206.5684">UMLDoclet 2.0.12, PlantUML 1.2020.16</text><!--MD5=[fb930c314d7176b868a10fb333c61f19]
@startuml
    set namespaceSeparator none
    hide empty fields
    hide empty methods

    interface "<size:14>WorkBreakdownElementNode\n<size:10>org.eclipse.epf.diagram.model" as org.eclipse.epf.diagram.model.WorkBreakdownElementNode [[WorkBreakdownElementNode.html]]

    interface "<size:14>NamedNode\n<size:10>org.eclipse.epf.diagram.model" as org.eclipse.epf.diagram.model.NamedNode [[NamedNode.html]] {
        {abstract} +getName(): String
        {abstract} +setName(String): void
    }

    org.eclipse.epf.diagram.model.NamedNode <|- - org.eclipse.epf.diagram.model.WorkBreakdownElementNode

    center footer UMLDoclet 2.0.12, PlantUML 1.2020.16
@enduml

PlantUML version 1.2020.16(Sun Aug 23 22:20:43 CEST 2020)
(APACHE source distribution)
Java Runtime: Java(TM) SE Runtime Environment
JVM: Java HotSpot(TM) 64-Bit Server VM
Default Encoding: Cp1252
Language: es
Country: ES
--></g></svg>