<?xml version="1.0" encoding="UTF-8" standalone="no"?><svg xmlns="http://www.w3.org/2000/svg" xmlns:xlink="http://www.w3.org/1999/xlink" contentScriptType="application/ecmascript" contentStyleType="text/css" height="184px" preserveAspectRatio="none" style="width:275px;height:184px;" version="1.1" viewBox="0 0 275 184" width="275px" zoomAndPan="magnify"><defs><filter height="300%" id="f9mmafkdfdq57" width="300%" x="-1" y="-1"><feGaussianBlur result="blurOut" stdDeviation="2.0"/><feColorMatrix in="blurOut" result="blurOut2" type="matrix" values="0 0 0 0 0 0 0 0 0 0 0 0 0 0 0 0 0 0 .4 0"/><feOffset dx="4.0" dy="4.0" in="blurOut2" result="blurOut3"/><feBlend in="SourceGraphic" in2="blurOut3" mode="normal"/></filter></defs><g><!--MD5=[a4bab5c87714f3c8c3557d02243c03a8]
class org.eclipse.epf.diagram.model.WorkProductDependencyDiagram--><a href="WorkProductDependencyDiagram.html" target="_top" title="WorkProductDependencyDiagram.html" xlink:actuate="onRequest" xlink:href="WorkProductDependencyDiagram.html" xlink:show="new" xlink:title="WorkProductDependencyDiagram.html" xlink:type="simple"><rect codeLine="5" fill="#FEFECE" filter="url(#f9mmafkdfdq57)" height="40.1875" id="org.eclipse.epf.diagram.model.WorkProductDependencyDiagram" style="stroke: #A80036; stroke-width: 1.5;" width="249" x="7" y="107"/><ellipse cx="22" cy="127.0938" fill="#B4A7E5" rx="11" ry="11" style="stroke: #A80036; stroke-width: 1.0;"/><path d="M22.9531,123.7344 L22.9531,130.3906 L24.6719,130.3906 Q25.2813,130.3906 25.5469,130.625 Q25.8125,130.8594 25.8125,131.25 Q25.8125,131.625 25.5469,131.8594 Q25.2813,132.0938 24.6719,132.0938 L19.5313,132.0938 Q18.9219,132.0938 18.6563,131.8594 Q18.3906,131.625 18.3906,131.2344 Q18.3906,130.8594 18.6563,130.625 Q18.9219,130.3906 19.5313,130.3906 L21.25,130.3906 L21.25,123.7344 L19.5313,123.7344 Q18.9219,123.7344 18.6563,123.5 Q18.3906,123.2656 18.3906,122.875 Q18.3906,122.5 18.6563,122.2656 Q18.9219,122.0313 19.5313,122.0313 L24.6719,122.0313 Q25.2813,122.0313 25.5469,122.2656 Q25.8125,122.5 25.8125,122.875 Q25.8125,123.2656 25.5469,123.5 Q25.2813,123.7344 24.6719,123.7344 L22.9531,123.7344 Z "/><text fill="#000000" font-family="sans-serif" font-size="14" font-style="italic" lengthAdjust="spacingAndGlyphs" textLength="217" x="36" y="126.5332">WorkProductDependencyDiagram</text><text fill="#000000" font-family="sans-serif" font-size="10" font-style="italic" lengthAdjust="spacingAndGlyphs" textLength="141" x="74" y="139.9902">org.eclipse.epf.diagram.model</text></a><!--MD5=[2f0e1f53566d4089fe4de1bc63efad40]
class org.eclipse.epf.diagram.model.Diagram--><a href="Diagram.html" target="_top" title="Diagram.html" xlink:actuate="onRequest" xlink:href="Diagram.html" xlink:show="new" xlink:title="Diagram.html" xlink:type="simple"><rect codeLine="7" fill="#FEFECE" filter="url(#f9mmafkdfdq57)" height="40.1875" id="org.eclipse.epf.diagram.model.Diagram" style="stroke: #A80036; stroke-width: 1.5;" width="173" x="45" y="7"/><ellipse cx="60" cy="27.0938" fill="#B4A7E5" rx="11" ry="11" style="stroke: #A80036; stroke-width: 1.0;"/><path d="M60.9531,23.7344 L60.9531,30.3906 L62.6719,30.3906 Q63.2813,30.3906 63.5469,30.625 Q63.8125,30.8594 63.8125,31.25 Q63.8125,31.625 63.5469,31.8594 Q63.2813,32.0938 62.6719,32.0938 L57.5313,32.0938 Q56.9219,32.0938 56.6563,31.8594 Q56.3906,31.625 56.3906,31.2344 Q56.3906,30.8594 56.6563,30.625 Q56.9219,30.3906 57.5313,30.3906 L59.25,30.3906 L59.25,23.7344 L57.5313,23.7344 Q56.9219,23.7344 56.6563,23.5 Q56.3906,23.2656 56.3906,22.875 Q56.3906,22.5 56.6563,22.2656 Q56.9219,22.0313 57.5313,22.0313 L62.6719,22.0313 Q63.2813,22.0313 63.5469,22.2656 Q63.8125,22.5 63.8125,22.875 Q63.8125,23.2656 63.5469,23.5 Q63.2813,23.7344 62.6719,23.7344 L60.9531,23.7344 Z "/><text fill="#000000" font-family="sans-serif" font-size="14" font-style="italic" lengthAdjust="spacingAndGlyphs" textLength="53" x="118" y="26.5332">Diagram</text><text fill="#000000" font-family="sans-serif" font-size="10" font-style="italic" lengthAdjust="spacingAndGlyphs" textLength="141" x="74" y="39.9902">org.eclipse.epf.diagram.model</text></a><!--MD5=[86407c662cccb46b03c4f7695308b989]
reverse link org.eclipse.epf.diagram.model.Diagram to org.eclipse.epf.diagram.model.WorkProductDependencyDiagram--><path codeLine="9" d="M131.5,67.69 C131.5,81.13 131.5,95.55 131.5,106.68 " fill="none" id="org.eclipse.epf.diagram.model.Diagram-backto-org.eclipse.epf.diagram.model.WorkProductDependencyDiagram" style="stroke: #A80036; stroke-width: 1.0;"/><polygon fill="none" points="124.5,67.36,131.5,47.36,138.5,67.36,124.5,67.36" style="stroke: #A80036; stroke-width: 1.0;"/><text fill="#888888" font-family="sans-serif" font-size="10" lengthAdjust="spacingAndGlyphs" textLength="190" x="33.5" y="170.5684">UMLDoclet 2.0.12, PlantUML 1.2020.16</text><!--MD5=[0105659d9be1bd315e31159cd77af2d5]
@startuml
    set namespaceSeparator none
    hide empty fields
    hide empty methods

    interface "<size:14>WorkProductDependencyDiagram\n<size:10>org.eclipse.epf.diagram.model" as org.eclipse.epf.diagram.model.WorkProductDependencyDiagram [[WorkProductDependencyDiagram.html]]

    interface "<size:14>Diagram\n<size:10>org.eclipse.epf.diagram.model" as org.eclipse.epf.diagram.model.Diagram [[Diagram.html]]

    org.eclipse.epf.diagram.model.Diagram <|- - org.eclipse.epf.diagram.model.WorkProductDependencyDiagram

    center footer UMLDoclet 2.0.12, PlantUML 1.2020.16
@enduml

PlantUML version 1.2020.16(Sun Aug 23 22:20:43 CEST 2020)
(APACHE source distribution)
Java Runtime: Java(TM) SE Runtime Environment
JVM: Java HotSpot(TM) 64-Bit Server VM
Default Encoding: Cp1252
Language: es
Country: ES
--></g></svg>