<?xml version="1.0" encoding="UTF-8" standalone="no"?><svg xmlns="http://www.w3.org/2000/svg" xmlns:xlink="http://www.w3.org/1999/xlink" contentScriptType="application/ecmascript" contentStyleType="text/css" height="220px" preserveAspectRatio="none" style="width:241px;height:220px;" version="1.1" viewBox="0 0 241 220" width="241px" zoomAndPan="magnify"><defs><filter height="300%" id="fc17qtw7smt7o" width="300%" x="-1" y="-1"><feGaussianBlur result="blurOut" stdDeviation="2.0"/><feColorMatrix in="blurOut" result="blurOut2" type="matrix" values="0 0 0 0 0 0 0 0 0 0 0 0 0 0 0 0 0 0 .4 0"/><feOffset dx="4.0" dy="4.0" in="blurOut2" result="blurOut3"/><feBlend in="SourceGraphic" in2="blurOut3" mode="normal"/></filter></defs><g><!--MD5=[2374402d69dc7f2e3091a3f5f14721ff]
class org.eclipse.epf.diagram.model.WorkProductDescriptorNode--><a href="WorkProductDescriptorNode.html" target="_top" title="WorkProductDescriptorNode.html" xlink:actuate="onRequest" xlink:href="WorkProductDescriptorNode.html" xlink:show="new" xlink:title="WorkProductDescriptorNode.html" xlink:type="simple"><rect codeLine="5" fill="#FEFECE" filter="url(#fc17qtw7smt7o)" height="40.1875" id="org.eclipse.epf.diagram.model.WorkProductDescriptorNode" style="stroke: #A80036; stroke-width: 1.5;" width="215" x="7" y="143"/><ellipse cx="22" cy="163.0938" fill="#B4A7E5" rx="11" ry="11" style="stroke: #A80036; stroke-width: 1.0;"/><path d="M22.9531,159.7344 L22.9531,166.3906 L24.6719,166.3906 Q25.2813,166.3906 25.5469,166.625 Q25.8125,166.8594 25.8125,167.25 Q25.8125,167.625 25.5469,167.8594 Q25.2813,168.0938 24.6719,168.0938 L19.5313,168.0938 Q18.9219,168.0938 18.6563,167.8594 Q18.3906,167.625 18.3906,167.2344 Q18.3906,166.8594 18.6563,166.625 Q18.9219,166.3906 19.5313,166.3906 L21.25,166.3906 L21.25,159.7344 L19.5313,159.7344 Q18.9219,159.7344 18.6563,159.5 Q18.3906,159.2656 18.3906,158.875 Q18.3906,158.5 18.6563,158.2656 Q18.9219,158.0313 19.5313,158.0313 L24.6719,158.0313 Q25.2813,158.0313 25.5469,158.2656 Q25.8125,158.5 25.8125,158.875 Q25.8125,159.2656 25.5469,159.5 Q25.2813,159.7344 24.6719,159.7344 L22.9531,159.7344 Z "/><text fill="#000000" font-family="sans-serif" font-size="14" font-style="italic" lengthAdjust="spacingAndGlyphs" textLength="183" x="36" y="162.5332">WorkProductDescriptorNode</text><text fill="#000000" font-family="sans-serif" font-size="10" font-style="italic" lengthAdjust="spacingAndGlyphs" textLength="141" x="57" y="175.9902">org.eclipse.epf.diagram.model</text></a><!--MD5=[440ff02f3d39fc70d00980ee1f19f50a]
class org.eclipse.epf.diagram.model.NamedNode--><a href="NamedNode.html" target="_top" title="NamedNode.html" xlink:actuate="onRequest" xlink:href="NamedNode.html" xlink:show="new" xlink:title="NamedNode.html" xlink:type="simple"><rect codeLine="7" fill="#FEFECE" filter="url(#fc17qtw7smt7o)" height="75.8594" id="org.eclipse.epf.diagram.model.NamedNode" style="stroke: #A80036; stroke-width: 1.5;" width="173" x="28" y="7"/><ellipse cx="43" cy="27.0938" fill="#B4A7E5" rx="11" ry="11" style="stroke: #A80036; stroke-width: 1.0;"/><path d="M43.9531,23.7344 L43.9531,30.3906 L45.6719,30.3906 Q46.2813,30.3906 46.5469,30.625 Q46.8125,30.8594 46.8125,31.25 Q46.8125,31.625 46.5469,31.8594 Q46.2813,32.0938 45.6719,32.0938 L40.5313,32.0938 Q39.9219,32.0938 39.6563,31.8594 Q39.3906,31.625 39.3906,31.2344 Q39.3906,30.8594 39.6563,30.625 Q39.9219,30.3906 40.5313,30.3906 L42.25,30.3906 L42.25,23.7344 L40.5313,23.7344 Q39.9219,23.7344 39.6563,23.5 Q39.3906,23.2656 39.3906,22.875 Q39.3906,22.5 39.6563,22.2656 Q39.9219,22.0313 40.5313,22.0313 L45.6719,22.0313 Q46.2813,22.0313 46.5469,22.2656 Q46.8125,22.5 46.8125,22.875 Q46.8125,23.2656 46.5469,23.5 Q46.2813,23.7344 45.6719,23.7344 L43.9531,23.7344 Z "/><text fill="#000000" font-family="sans-serif" font-size="14" font-style="italic" lengthAdjust="spacingAndGlyphs" textLength="79" x="88" y="26.5332">NamedNode</text><text fill="#000000" font-family="sans-serif" font-size="10" font-style="italic" lengthAdjust="spacingAndGlyphs" textLength="141" x="57" y="39.9902">org.eclipse.epf.diagram.model</text><line style="stroke: #A80036; stroke-width: 1.5;" x1="29" x2="200" y1="47.1875" y2="47.1875"/><ellipse cx="39" cy="58.1875" fill="#84BE84" rx="3" ry="3" style="stroke: #038048; stroke-width: 1.0;"/><text fill="#000000" font-family="sans-serif" font-size="11" font-style="italic" lengthAdjust="spacingAndGlyphs" textLength="87" x="48" y="62.6064">getName(): String</text><ellipse cx="39" cy="72.0234" fill="#84BE84" rx="3" ry="3" style="stroke: #038048; stroke-width: 1.0;"/><text fill="#000000" font-family="sans-serif" font-size="11" font-style="italic" lengthAdjust="spacingAndGlyphs" textLength="107" x="48" y="76.4424">setName(String): void</text></a><!--MD5=[ec2ac0ce17700e4e69bcb8dd78cddc08]
reverse link org.eclipse.epf.diagram.model.NamedNode to org.eclipse.epf.diagram.model.WorkProductDescriptorNode--><path codeLine="12" d="M114.5,103.43 C114.5,117.66 114.5,131.93 114.5,142.82 " fill="none" id="org.eclipse.epf.diagram.model.NamedNode-backto-org.eclipse.epf.diagram.model.WorkProductDescriptorNode" style="stroke: #A80036; stroke-width: 1.0;"/><polygon fill="none" points="107.5,103.02,114.5,83.02,121.5,103.02,107.5,103.02" style="stroke: #A80036; stroke-width: 1.0;"/><text fill="#888888" font-family="sans-serif" font-size="10" lengthAdjust="spacingAndGlyphs" textLength="190" x="16.5" y="206.5684">UMLDoclet 2.0.12, PlantUML 1.2020.16</text><!--MD5=[7ed2594c9c48f61da2054017f6cf495d]
@startuml
    set namespaceSeparator none
    hide empty fields
    hide empty methods

    interface "<size:14>WorkProductDescriptorNode\n<size:10>org.eclipse.epf.diagram.model" as org.eclipse.epf.diagram.model.WorkProductDescriptorNode [[WorkProductDescriptorNode.html]]

    interface "<size:14>NamedNode\n<size:10>org.eclipse.epf.diagram.model" as org.eclipse.epf.diagram.model.NamedNode [[NamedNode.html]] {
        {abstract} +getName(): String
        {abstract} +setName(String): void
    }

    org.eclipse.epf.diagram.model.NamedNode <|- - org.eclipse.epf.diagram.model.WorkProductDescriptorNode

    center footer UMLDoclet 2.0.12, PlantUML 1.2020.16
@enduml

PlantUML version 1.2020.16(Sun Aug 23 22:20:43 CEST 2020)
(APACHE source distribution)
Java Runtime: Java(TM) SE Runtime Environment
JVM: Java HotSpot(TM) 64-Bit Server VM
Default Encoding: Cp1252
Language: es
Country: ES
--></g></svg>