<?xml version="1.0" encoding="UTF-8" standalone="no"?><svg xmlns="http://www.w3.org/2000/svg" xmlns:xlink="http://www.w3.org/1999/xlink" contentScriptType="application/ecmascript" contentStyleType="text/css" height="241px" preserveAspectRatio="none" style="width:209px;height:241px;" version="1.1" viewBox="0 0 209 241" width="209px" zoomAndPan="magnify"><defs><filter height="300%" id="fvovz5sqt3m9y" width="300%" x="-1" y="-1"><feGaussianBlur result="blurOut" stdDeviation="2.0"/><feColorMatrix in="blurOut" result="blurOut2" type="matrix" values="0 0 0 0 0 0 0 0 0 0 0 0 0 0 0 0 0 0 .4 0"/><feOffset dx="4.0" dy="4.0" in="blurOut2" result="blurOut3"/><feBlend in="SourceGraphic" in2="blurOut3" mode="normal"/></filter></defs><g><!--MD5=[1dd8999a22c807f6f9f7f6b679c2c9ce]
class org.eclipse.epf.diagram.model.WorkProductComposite--><a href="WorkProductComposite.html" target="_top" title="WorkProductComposite.html" xlink:actuate="onRequest" xlink:href="WorkProductComposite.html" xlink:show="new" xlink:title="WorkProductComposite.html" xlink:type="simple"><rect codeLine="5" fill="#FEFECE" filter="url(#fvovz5sqt3m9y)" height="75.8594" id="org.eclipse.epf.diagram.model.WorkProductComposite" style="stroke: #A80036; stroke-width: 1.5;" width="183" x="7" y="129"/><ellipse cx="22" cy="149.0938" fill="#B4A7E5" rx="11" ry="11" style="stroke: #A80036; stroke-width: 1.0;"/><path d="M22.9531,145.7344 L22.9531,152.3906 L24.6719,152.3906 Q25.2813,152.3906 25.5469,152.625 Q25.8125,152.8594 25.8125,153.25 Q25.8125,153.625 25.5469,153.8594 Q25.2813,154.0938 24.6719,154.0938 L19.5313,154.0938 Q18.9219,154.0938 18.6563,153.8594 Q18.3906,153.625 18.3906,153.2344 Q18.3906,152.8594 18.6563,152.625 Q18.9219,152.3906 19.5313,152.3906 L21.25,152.3906 L21.25,145.7344 L19.5313,145.7344 Q18.9219,145.7344 18.6563,145.5 Q18.3906,145.2656 18.3906,144.875 Q18.3906,144.5 18.6563,144.2656 Q18.9219,144.0313 19.5313,144.0313 L24.6719,144.0313 Q25.2813,144.0313 25.5469,144.2656 Q25.8125,144.5 25.8125,144.875 Q25.8125,145.2656 25.5469,145.5 Q25.2813,145.7344 24.6719,145.7344 L22.9531,145.7344 Z "/><text fill="#000000" font-family="sans-serif" font-size="14" font-style="italic" lengthAdjust="spacingAndGlyphs" textLength="151" x="36" y="148.5332">WorkProductComposite</text><text fill="#000000" font-family="sans-serif" font-size="10" font-style="italic" lengthAdjust="spacingAndGlyphs" textLength="141" x="41" y="161.9902">org.eclipse.epf.diagram.model</text><line style="stroke: #A80036; stroke-width: 1.5;" x1="8" x2="189" y1="169.1875" y2="169.1875"/><ellipse cx="18" cy="180.1875" fill="#84BE84" rx="3" ry="3" style="stroke: #038048; stroke-width: 1.0;"/><text fill="#000000" font-family="sans-serif" font-size="11" font-style="italic" lengthAdjust="spacingAndGlyphs" textLength="65" x="27" y="184.6064">getType(): int</text><ellipse cx="18" cy="194.0234" fill="#84BE84" rx="3" ry="3" style="stroke: #038048; stroke-width: 1.0;"/><text fill="#000000" font-family="sans-serif" font-size="11" font-style="italic" lengthAdjust="spacingAndGlyphs" textLength="85" x="27" y="198.4424">setType(int): void</text></a><!--MD5=[ecc1d7a0d11f82960db629ec4a998de8]
class org.eclipse.epf.diagram.model.NodeContainer--><a href="NodeContainer.html" target="_top" title="NodeContainer.html" xlink:actuate="onRequest" xlink:href="NodeContainer.html" xlink:show="new" xlink:title="NodeContainer.html" xlink:type="simple"><rect codeLine="10" fill="#FEFECE" filter="url(#fvovz5sqt3m9y)" height="62.0234" id="org.eclipse.epf.diagram.model.NodeContainer" style="stroke: #A80036; stroke-width: 1.5;" width="173" x="12" y="7"/><ellipse cx="27" cy="27.0938" fill="#B4A7E5" rx="11" ry="11" style="stroke: #A80036; stroke-width: 1.0;"/><path d="M27.9531,23.7344 L27.9531,30.3906 L29.6719,30.3906 Q30.2813,30.3906 30.5469,30.625 Q30.8125,30.8594 30.8125,31.25 Q30.8125,31.625 30.5469,31.8594 Q30.2813,32.0938 29.6719,32.0938 L24.5313,32.0938 Q23.9219,32.0938 23.6563,31.8594 Q23.3906,31.625 23.3906,31.2344 Q23.3906,30.8594 23.6563,30.625 Q23.9219,30.3906 24.5313,30.3906 L26.25,30.3906 L26.25,23.7344 L24.5313,23.7344 Q23.9219,23.7344 23.6563,23.5 Q23.3906,23.2656 23.3906,22.875 Q23.3906,22.5 23.6563,22.2656 Q23.9219,22.0313 24.5313,22.0313 L29.6719,22.0313 Q30.2813,22.0313 30.5469,22.2656 Q30.8125,22.5 30.8125,22.875 Q30.8125,23.2656 30.5469,23.5 Q30.2813,23.7344 29.6719,23.7344 L27.9531,23.7344 Z "/><text fill="#000000" font-family="sans-serif" font-size="14" font-style="italic" lengthAdjust="spacingAndGlyphs" textLength="96" x="63.5" y="26.5332">NodeContainer</text><text fill="#000000" font-family="sans-serif" font-size="10" font-style="italic" lengthAdjust="spacingAndGlyphs" textLength="141" x="41" y="39.9902">org.eclipse.epf.diagram.model</text><line style="stroke: #A80036; stroke-width: 1.5;" x1="13" x2="184" y1="47.1875" y2="47.1875"/><ellipse cx="23" cy="58.1875" fill="#84BE84" rx="3" ry="3" style="stroke: #038048; stroke-width: 1.0;"/><text fill="#000000" font-family="sans-serif" font-size="11" font-style="italic" lengthAdjust="spacingAndGlyphs" textLength="86" x="32" y="62.6064">getNodes(): EList</text></a><!--MD5=[89be945f1b51526f08e4a276a8ebca7e]
reverse link org.eclipse.epf.diagram.model.NodeContainer to org.eclipse.epf.diagram.model.WorkProductComposite--><path codeLine="14" d="M98.5,89.43 C98.5,102.59 98.5,116.53 98.5,128.86 " fill="none" id="org.eclipse.epf.diagram.model.NodeContainer-backto-org.eclipse.epf.diagram.model.WorkProductComposite" style="stroke: #A80036; stroke-width: 1.0;"/><polygon fill="none" points="91.5,89.1,98.5,69.1,105.5,89.1,91.5,89.1" style="stroke: #A80036; stroke-width: 1.0;"/><text fill="#888888" font-family="sans-serif" font-size="10" lengthAdjust="spacingAndGlyphs" textLength="190" x="0.5" y="228.2402">UMLDoclet 2.0.12, PlantUML 1.2020.16</text><!--MD5=[ef7404409d64dbf059536bcbaa7ced6c]
@startuml
    set namespaceSeparator none
    hide empty fields
    hide empty methods

    interface "<size:14>WorkProductComposite\n<size:10>org.eclipse.epf.diagram.model" as org.eclipse.epf.diagram.model.WorkProductComposite [[WorkProductComposite.html]] {
        {abstract} +getType(): int
        {abstract} +setType(int): void
    }

    interface "<size:14>NodeContainer\n<size:10>org.eclipse.epf.diagram.model" as org.eclipse.epf.diagram.model.NodeContainer [[NodeContainer.html]] {
        {abstract} +getNodes(): EList
    }

    org.eclipse.epf.diagram.model.NodeContainer <|- - org.eclipse.epf.diagram.model.WorkProductComposite

    center footer UMLDoclet 2.0.12, PlantUML 1.2020.16
@enduml

PlantUML version 1.2020.16(Sun Aug 23 22:20:43 CEST 2020)
(APACHE source distribution)
Java Runtime: Java(TM) SE Runtime Environment
JVM: Java HotSpot(TM) 64-Bit Server VM
Default Encoding: Cp1252
Language: es
Country: ES
--></g></svg>