<?xml version="1.0" encoding="UTF-8" standalone="no"?><svg xmlns="http://www.w3.org/2000/svg" xmlns:xlink="http://www.w3.org/1999/xlink" contentScriptType="application/ecmascript" contentStyleType="text/css" height="261px" preserveAspectRatio="none" style="width:350px;height:261px;" version="1.1" viewBox="0 0 350 261" width="350px" zoomAndPan="magnify"><defs><filter height="300%" id="f16yt7qvff08p3" width="300%" x="-1" y="-1"><feGaussianBlur result="blurOut" stdDeviation="2.0"/><feColorMatrix in="blurOut" result="blurOut2" type="matrix" values="0 0 0 0 0 0 0 0 0 0 0 0 0 0 0 0 0 0 .4 0"/><feOffset dx="4.0" dy="4.0" in="blurOut2" result="blurOut3"/><feBlend in="SourceGraphic" in2="blurOut3" mode="normal"/></filter></defs><g><!--MD5=[544135a8dc8a67ecd5729aba6a52280d]
class org.eclipse.epf.uma.provider.ActivityDescriptionItemProvider--><a href="ActivityDescriptionItemProvider.html" target="_top" title="ActivityDescriptionItemProvider.html" xlink:actuate="onRequest" xlink:href="ActivityDescriptionItemProvider.html" xlink:show="new" xlink:title="ActivityDescriptionItemProvider.html" xlink:type="simple"><rect codeLine="5" fill="#FEFECE" filter="url(#f16yt7qvff08p3)" height="117.3672" id="org.eclipse.epf.uma.provider.ActivityDescriptionItemProvider" style="stroke: #A80036; stroke-width: 1.5;" width="324" x="7" y="107"/><ellipse cx="67.75" cy="127.0938" fill="#ADD1B2" rx="11" ry="11" style="stroke: #A80036; stroke-width: 1.0;"/><path d="M70.5156,122.9688 Q70.6719,122.75 70.8594,122.6406 Q71.0469,122.5313 71.2656,122.5313 Q71.6406,122.5313 71.875,122.7969 Q72.1094,123.0469 72.1094,123.6563 L72.1094,125.1094 Q72.1094,125.7188 71.875,125.9844 Q71.6406,126.25 71.2656,126.25 Q70.9219,126.25 70.7188,126.0469 Q70.5156,125.8594 70.4063,125.3438 Q70.3594,124.9844 70.1719,124.7969 Q69.8438,124.4219 69.2344,124.2031 Q68.625,123.9844 68,123.9844 Q67.2344,123.9844 66.5938,124.3125 Q65.9688,124.6406 65.4688,125.3906 Q64.9844,126.1406 64.9844,127.1719 L64.9844,128.2656 Q64.9844,129.5 65.875,130.3281 Q66.7656,131.1406 68.3594,131.1406 Q69.2969,131.1406 69.9531,130.8906 Q70.3438,130.7344 70.7656,130.2969 Q71.0313,130.0313 71.1719,129.9531 Q71.3281,129.875 71.5313,129.875 Q71.8594,129.875 72.1094,130.1406 Q72.375,130.3906 72.375,130.7344 Q72.375,131.0781 72.0313,131.4844 Q71.5313,132.0625 70.7344,132.3906 Q69.6563,132.8438 68.3594,132.8438 Q66.8438,132.8438 65.6406,132.2188 Q64.6563,131.7188 63.9688,130.6563 Q63.2813,129.5781 63.2813,128.2969 L63.2813,127.1406 Q63.2813,125.8125 63.8906,124.6719 Q64.5156,123.5156 65.6094,122.9063 Q66.7031,122.2813 67.9375,122.2813 Q68.6719,122.2813 69.3125,122.4531 Q69.9688,122.6094 70.5156,122.9688 Z "/><text fill="#000000" font-family="sans-serif" font-size="14" lengthAdjust="spacingAndGlyphs" textLength="194" x="88.25" y="126.5332">ActivityDescriptionItemProvider</text><text fill="#000000" font-family="sans-serif" font-size="10" lengthAdjust="spacingAndGlyphs" textLength="135" x="117.75" y="139.9902">org.eclipse.epf.uma.provider</text><line style="stroke: #A80036; stroke-width: 1.5;" x1="8" x2="330" y1="147.1875" y2="147.1875"/><ellipse cx="18" cy="158.1875" fill="#84BE84" rx="3" ry="3" style="stroke: #038048; stroke-width: 1.0;"/><text fill="#000000" font-family="sans-serif" font-size="11" lengthAdjust="spacingAndGlyphs" textLength="233" x="27" y="162.6064">ActivityDescriptionItemProvider(AdapterFactory)</text><ellipse cx="18" cy="172.0234" fill="#84BE84" rx="3" ry="3" style="stroke: #038048; stroke-width: 1.0;"/><text fill="#000000" font-family="sans-serif" font-size="11" lengthAdjust="spacingAndGlyphs" textLength="298" x="27" y="176.4424">getPropertyDescriptors(Object): List&lt;IItemPropertyDescriptor&gt;</text><ellipse cx="18" cy="185.8594" fill="#84BE84" rx="3" ry="3" style="stroke: #038048; stroke-width: 1.0;"/><text fill="#000000" font-family="sans-serif" font-size="11" lengthAdjust="spacingAndGlyphs" textLength="119" x="27" y="190.2783">getImage(Object): Object</text><ellipse cx="18" cy="199.6953" fill="#84BE84" rx="3" ry="3" style="stroke: #038048; stroke-width: 1.0;"/><text fill="#000000" font-family="sans-serif" font-size="11" lengthAdjust="spacingAndGlyphs" textLength="109" x="27" y="204.1143">getText(Object): String</text><ellipse cx="18" cy="213.5313" fill="#84BE84" rx="3" ry="3" style="stroke: #038048; stroke-width: 1.0;"/><text fill="#000000" font-family="sans-serif" font-size="11" lengthAdjust="spacingAndGlyphs" textLength="157" x="27" y="217.9502">notifyChanged(Notification): void</text></a><!--MD5=[9e9ea074611f266377a7e5fb5a5bf2d5]
class org.eclipse.epf.uma.provider.BreakdownElementDescriptionItemProvider--><a href="BreakdownElementDescriptionItemProvider.html" target="_top" title="BreakdownElementDescriptionItemProvider.html" xlink:actuate="onRequest" xlink:href="BreakdownElementDescriptionItemProvider.html" xlink:show="new" xlink:title="BreakdownElementDescriptionItemProvider.html" xlink:type="simple"><rect codeLine="13" fill="#FEFECE" filter="url(#f16yt7qvff08p3)" height="40.1875" id="org.eclipse.epf.uma.provider.BreakdownElementDescriptionItemProvider" style="stroke: #A80036; stroke-width: 1.5;" width="303" x="17.5" y="7"/><ellipse cx="32.5" cy="27.0938" fill="#ADD1B2" rx="11" ry="11" style="stroke: #A80036; stroke-width: 1.0;"/><path d="M35.2656,22.9688 Q35.4219,22.75 35.6094,22.6406 Q35.7969,22.5313 36.0156,22.5313 Q36.3906,22.5313 36.625,22.7969 Q36.8594,23.0469 36.8594,23.6563 L36.8594,25.1094 Q36.8594,25.7188 36.625,25.9844 Q36.3906,26.25 36.0156,26.25 Q35.6719,26.25 35.4688,26.0469 Q35.2656,25.8594 35.1563,25.3438 Q35.1094,24.9844 34.9219,24.7969 Q34.5938,24.4219 33.9844,24.2031 Q33.375,23.9844 32.75,23.9844 Q31.9844,23.9844 31.3438,24.3125 Q30.7188,24.6406 30.2188,25.3906 Q29.7344,26.1406 29.7344,27.1719 L29.7344,28.2656 Q29.7344,29.5 30.625,30.3281 Q31.5156,31.1406 33.1094,31.1406 Q34.0469,31.1406 34.7031,30.8906 Q35.0938,30.7344 35.5156,30.2969 Q35.7813,30.0313 35.9219,29.9531 Q36.0781,29.875 36.2813,29.875 Q36.6094,29.875 36.8594,30.1406 Q37.125,30.3906 37.125,30.7344 Q37.125,31.0781 36.7813,31.4844 Q36.2813,32.0625 35.4844,32.3906 Q34.4063,32.8438 33.1094,32.8438 Q31.5938,32.8438 30.3906,32.2188 Q29.4063,31.7188 28.7188,30.6563 Q28.0313,29.5781 28.0313,28.2969 L28.0313,27.1406 Q28.0313,25.8125 28.6406,24.6719 Q29.2656,23.5156 30.3594,22.9063 Q31.4531,22.2813 32.6875,22.2813 Q33.4219,22.2813 34.0625,22.4531 Q34.7188,22.6094 35.2656,22.9688 Z "/><text fill="#000000" font-family="sans-serif" font-size="14" lengthAdjust="spacingAndGlyphs" textLength="271" x="46.5" y="26.5332">BreakdownElementDescriptionItemProvider</text><text fill="#000000" font-family="sans-serif" font-size="10" lengthAdjust="spacingAndGlyphs" textLength="135" x="114.5" y="39.9902">org.eclipse.epf.uma.provider</text></a><!--MD5=[519e513d21c04bc1e6fc00a664418f65]
reverse link org.eclipse.epf.uma.provider.BreakdownElementDescriptionItemProvider to org.eclipse.epf.uma.provider.ActivityDescriptionItemProvider--><path codeLine="15" d="M169,67.38 C169,79.73 169,93.63 169,106.97 " fill="none" id="org.eclipse.epf.uma.provider.BreakdownElementDescriptionItemProvider-backto-org.eclipse.epf.uma.provider.ActivityDescriptionItemProvider" style="stroke: #A80036; stroke-width: 1.0;"/><polygon fill="none" points="162,67.27,169,47.27,176,67.27,162,67.27" style="stroke: #A80036; stroke-width: 1.0;"/><text fill="#888888" font-family="sans-serif" font-size="10" lengthAdjust="spacingAndGlyphs" textLength="190" x="71" y="247.748">UMLDoclet 2.0.12, PlantUML 1.2020.16</text><!--MD5=[980a02572554252bc483c5ca8d7e8884]
@startuml
    set namespaceSeparator none
    hide empty fields
    hide empty methods

    class "<size:14>ActivityDescriptionItemProvider\n<size:10>org.eclipse.epf.uma.provider" as org.eclipse.epf.uma.provider.ActivityDescriptionItemProvider [[ActivityDescriptionItemProvider.html]] {
        +ActivityDescriptionItemProvider(AdapterFactory)
        +getPropertyDescriptors(Object): List<IItemPropertyDescriptor>
        +getImage(Object): Object
        +getText(Object): String
        +notifyChanged(Notification): void
    }

    class "<size:14>BreakdownElementDescriptionItemProvider\n<size:10>org.eclipse.epf.uma.provider" as org.eclipse.epf.uma.provider.BreakdownElementDescriptionItemProvider [[BreakdownElementDescriptionItemProvider.html]]

    org.eclipse.epf.uma.provider.BreakdownElementDescriptionItemProvider <|- - org.eclipse.epf.uma.provider.ActivityDescriptionItemProvider

    center footer UMLDoclet 2.0.12, PlantUML 1.2020.16
@enduml

PlantUML version 1.2020.16(Sun Aug 23 22:20:43 CEST 2020)
(APACHE source distribution)
Java Runtime: Java(TM) SE Runtime Environment
JVM: Java HotSpot(TM) 64-Bit Server VM
Default Encoding: Cp1252
Language: es
Country: ES
--></g></svg>