<?xml version="1.0" encoding="UTF-8" standalone="no"?><svg xmlns="http://www.w3.org/2000/svg" xmlns:xlink="http://www.w3.org/1999/xlink" contentScriptType="application/ecmascript" contentStyleType="text/css" height="288px" preserveAspectRatio="none" style="width:393px;height:288px;" version="1.1" viewBox="0 0 393 288" width="393px" zoomAndPan="magnify"><defs><filter height="300%" id="faruphyhj3dl4" width="300%" x="-1" y="-1"><feGaussianBlur result="blurOut" stdDeviation="2.0"/><feColorMatrix in="blurOut" result="blurOut2" type="matrix" values="0 0 0 0 0 0 0 0 0 0 0 0 0 0 0 0 0 0 .4 0"/><feOffset dx="4.0" dy="4.0" in="blurOut2" result="blurOut3"/><feBlend in="SourceGraphic" in2="blurOut3" mode="normal"/></filter></defs><g><!--MD5=[548677043ad0cab30fecedbc5abe6a0b]
class org.eclipse.epf.uma.provider.ActivityItemProvider--><a href="ActivityItemProvider.html" target="_top" title="ActivityItemProvider.html" xlink:actuate="onRequest" xlink:href="ActivityItemProvider.html" xlink:show="new" xlink:title="ActivityItemProvider.html" xlink:type="simple"><rect codeLine="5" fill="#FEFECE" filter="url(#faruphyhj3dl4)" height="145.0391" id="org.eclipse.epf.uma.provider.ActivityItemProvider" style="stroke: #A80036; stroke-width: 1.5;" width="367" x="7" y="107"/><ellipse cx="118.75" cy="127.0938" fill="#ADD1B2" rx="11" ry="11" style="stroke: #A80036; stroke-width: 1.0;"/><path d="M121.5156,122.9688 Q121.6719,122.75 121.8594,122.6406 Q122.0469,122.5313 122.2656,122.5313 Q122.6406,122.5313 122.875,122.7969 Q123.1094,123.0469 123.1094,123.6563 L123.1094,125.1094 Q123.1094,125.7188 122.875,125.9844 Q122.6406,126.25 122.2656,126.25 Q121.9219,126.25 121.7188,126.0469 Q121.5156,125.8594 121.4063,125.3438 Q121.3594,124.9844 121.1719,124.7969 Q120.8438,124.4219 120.2344,124.2031 Q119.625,123.9844 119,123.9844 Q118.2344,123.9844 117.5938,124.3125 Q116.9688,124.6406 116.4688,125.3906 Q115.9844,126.1406 115.9844,127.1719 L115.9844,128.2656 Q115.9844,129.5 116.875,130.3281 Q117.7656,131.1406 119.3594,131.1406 Q120.2969,131.1406 120.9531,130.8906 Q121.3438,130.7344 121.7656,130.2969 Q122.0313,130.0313 122.1719,129.9531 Q122.3281,129.875 122.5313,129.875 Q122.8594,129.875 123.1094,130.1406 Q123.375,130.3906 123.375,130.7344 Q123.375,131.0781 123.0313,131.4844 Q122.5313,132.0625 121.7344,132.3906 Q120.6563,132.8438 119.3594,132.8438 Q117.8438,132.8438 116.6406,132.2188 Q115.6563,131.7188 114.9688,130.6563 Q114.2813,129.5781 114.2813,128.2969 L114.2813,127.1406 Q114.2813,125.8125 114.8906,124.6719 Q115.5156,123.5156 116.6094,122.9063 Q117.7031,122.2813 118.9375,122.2813 Q119.6719,122.2813 120.3125,122.4531 Q120.9688,122.6094 121.5156,122.9688 Z "/><text fill="#000000" font-family="sans-serif" font-size="14" lengthAdjust="spacingAndGlyphs" textLength="123" x="145.25" y="126.5332">ActivityItemProvider</text><text fill="#000000" font-family="sans-serif" font-size="10" lengthAdjust="spacingAndGlyphs" textLength="135" x="139.25" y="139.9902">org.eclipse.epf.uma.provider</text><line style="stroke: #A80036; stroke-width: 1.5;" x1="8" x2="373" y1="147.1875" y2="147.1875"/><ellipse cx="18" cy="158.1875" fill="#84BE84" rx="3" ry="3" style="stroke: #038048; stroke-width: 1.0;"/><text fill="#000000" font-family="sans-serif" font-size="11" lengthAdjust="spacingAndGlyphs" textLength="179" x="27" y="162.6064">ActivityItemProvider(AdapterFactory)</text><ellipse cx="18" cy="172.0234" fill="#84BE84" rx="3" ry="3" style="stroke: #038048; stroke-width: 1.0;"/><text fill="#000000" font-family="sans-serif" font-size="11" lengthAdjust="spacingAndGlyphs" textLength="298" x="27" y="176.4424">getPropertyDescriptors(Object): List&lt;IItemPropertyDescriptor&gt;</text><ellipse cx="18" cy="185.8594" fill="#84BE84" rx="3" ry="3" style="stroke: #038048; stroke-width: 1.0;"/><text fill="#000000" font-family="sans-serif" font-size="11" lengthAdjust="spacingAndGlyphs" textLength="341" x="27" y="190.2783">getChildrenFeatures(Object): Collection&lt;? extends EStructuralFeature&gt;</text><ellipse cx="18" cy="199.6953" fill="#84BE84" rx="3" ry="3" style="stroke: #038048; stroke-width: 1.0;"/><text fill="#000000" font-family="sans-serif" font-size="11" lengthAdjust="spacingAndGlyphs" textLength="119" x="27" y="204.1143">getImage(Object): Object</text><ellipse cx="18" cy="213.5313" fill="#84BE84" rx="3" ry="3" style="stroke: #038048; stroke-width: 1.0;"/><text fill="#000000" font-family="sans-serif" font-size="11" lengthAdjust="spacingAndGlyphs" textLength="109" x="27" y="217.9502">getText(Object): String</text><ellipse cx="18" cy="227.3672" fill="#84BE84" rx="3" ry="3" style="stroke: #038048; stroke-width: 1.0;"/><text fill="#000000" font-family="sans-serif" font-size="11" lengthAdjust="spacingAndGlyphs" textLength="157" x="27" y="231.7861">notifyChanged(Notification): void</text><ellipse cx="18" cy="241.2031" fill="#84BE84" rx="3" ry="3" style="stroke: #038048; stroke-width: 1.0;"/><text fill="#000000" font-family="sans-serif" font-size="11" lengthAdjust="spacingAndGlyphs" textLength="308" x="27" y="245.6221">getCreateChildText(Object, Object, Object, Collection&lt;?&gt;): String</text></a><!--MD5=[c26b6ff3d0a53690a11611da3c3a935a]
class org.eclipse.epf.uma.provider.WorkBreakdownElementItemProvider--><a href="WorkBreakdownElementItemProvider.html" target="_top" title="WorkBreakdownElementItemProvider.html" xlink:actuate="onRequest" xlink:href="WorkBreakdownElementItemProvider.html" xlink:show="new" xlink:title="WorkBreakdownElementItemProvider.html" xlink:type="simple"><rect codeLine="15" fill="#FEFECE" filter="url(#faruphyhj3dl4)" height="40.1875" id="org.eclipse.epf.uma.provider.WorkBreakdownElementItemProvider" style="stroke: #A80036; stroke-width: 1.5;" width="265" x="58" y="7"/><ellipse cx="73" cy="27.0938" fill="#ADD1B2" rx="11" ry="11" style="stroke: #A80036; stroke-width: 1.0;"/><path d="M75.7656,22.9688 Q75.9219,22.75 76.1094,22.6406 Q76.2969,22.5313 76.5156,22.5313 Q76.8906,22.5313 77.125,22.7969 Q77.3594,23.0469 77.3594,23.6563 L77.3594,25.1094 Q77.3594,25.7188 77.125,25.9844 Q76.8906,26.25 76.5156,26.25 Q76.1719,26.25 75.9688,26.0469 Q75.7656,25.8594 75.6563,25.3438 Q75.6094,24.9844 75.4219,24.7969 Q75.0938,24.4219 74.4844,24.2031 Q73.875,23.9844 73.25,23.9844 Q72.4844,23.9844 71.8438,24.3125 Q71.2188,24.6406 70.7188,25.3906 Q70.2344,26.1406 70.2344,27.1719 L70.2344,28.2656 Q70.2344,29.5 71.125,30.3281 Q72.0156,31.1406 73.6094,31.1406 Q74.5469,31.1406 75.2031,30.8906 Q75.5938,30.7344 76.0156,30.2969 Q76.2813,30.0313 76.4219,29.9531 Q76.5781,29.875 76.7813,29.875 Q77.1094,29.875 77.3594,30.1406 Q77.625,30.3906 77.625,30.7344 Q77.625,31.0781 77.2813,31.4844 Q76.7813,32.0625 75.9844,32.3906 Q74.9063,32.8438 73.6094,32.8438 Q72.0938,32.8438 70.8906,32.2188 Q69.9063,31.7188 69.2188,30.6563 Q68.5313,29.5781 68.5313,28.2969 L68.5313,27.1406 Q68.5313,25.8125 69.1406,24.6719 Q69.7656,23.5156 70.8594,22.9063 Q71.9531,22.2813 73.1875,22.2813 Q73.9219,22.2813 74.5625,22.4531 Q75.2188,22.6094 75.7656,22.9688 Z "/><text fill="#000000" font-family="sans-serif" font-size="14" lengthAdjust="spacingAndGlyphs" textLength="233" x="87" y="26.5332">WorkBreakdownElementItemProvider</text><text fill="#000000" font-family="sans-serif" font-size="10" lengthAdjust="spacingAndGlyphs" textLength="135" x="136" y="39.9902">org.eclipse.epf.uma.provider</text></a><!--MD5=[7b5442d8045ea0b97283228866b640e8]
reverse link org.eclipse.epf.uma.provider.WorkBreakdownElementItemProvider to org.eclipse.epf.uma.provider.ActivityItemProvider--><path codeLine="17" d="M190.5,67.32 C190.5,79.44 190.5,93.19 190.5,106.79 " fill="none" id="org.eclipse.epf.uma.provider.WorkBreakdownElementItemProvider-backto-org.eclipse.epf.uma.provider.ActivityItemProvider" style="stroke: #A80036; stroke-width: 1.0;"/><polygon fill="none" points="183.5,67.06,190.5,47.06,197.5,67.06,183.5,67.06" style="stroke: #A80036; stroke-width: 1.0;"/><text fill="#888888" font-family="sans-serif" font-size="10" lengthAdjust="spacingAndGlyphs" textLength="190" x="92.5" y="275.4199">UMLDoclet 2.0.12, PlantUML 1.2020.16</text><!--MD5=[38f764d8831f31723191098f27e6d6ac]
@startuml
    set namespaceSeparator none
    hide empty fields
    hide empty methods

    class "<size:14>ActivityItemProvider\n<size:10>org.eclipse.epf.uma.provider" as org.eclipse.epf.uma.provider.ActivityItemProvider [[ActivityItemProvider.html]] {
        +ActivityItemProvider(AdapterFactory)
        +getPropertyDescriptors(Object): List<IItemPropertyDescriptor>
        +getChildrenFeatures(Object): Collection<? extends EStructuralFeature>
        +getImage(Object): Object
        +getText(Object): String
        +notifyChanged(Notification): void
        +getCreateChildText(Object, Object, Object, Collection<?>): String
    }

    class "<size:14>WorkBreakdownElementItemProvider\n<size:10>org.eclipse.epf.uma.provider" as org.eclipse.epf.uma.provider.WorkBreakdownElementItemProvider [[WorkBreakdownElementItemProvider.html]]

    org.eclipse.epf.uma.provider.WorkBreakdownElementItemProvider <|- - org.eclipse.epf.uma.provider.ActivityItemProvider

    center footer UMLDoclet 2.0.12, PlantUML 1.2020.16
@enduml

PlantUML version 1.2020.16(Sun Aug 23 22:20:43 CEST 2020)
(APACHE source distribution)
Java Runtime: Java(TM) SE Runtime Environment
JVM: Java HotSpot(TM) 64-Bit Server VM
Default Encoding: Cp1252
Language: es
Country: ES
--></g></svg>