<?xml version="1.0" encoding="UTF-8" standalone="no"?><svg xmlns="http://www.w3.org/2000/svg" xmlns:xlink="http://www.w3.org/1999/xlink" contentScriptType="application/ecmascript" contentStyleType="text/css" height="261px" preserveAspectRatio="none" style="width:350px;height:261px;" version="1.1" viewBox="0 0 350 261" width="350px" zoomAndPan="magnify"><defs><filter height="300%" id="f1cusle5mnwbjg" width="300%" x="-1" y="-1"><feGaussianBlur result="blurOut" stdDeviation="2.0"/><feColorMatrix in="blurOut" result="blurOut2" type="matrix" values="0 0 0 0 0 0 0 0 0 0 0 0 0 0 0 0 0 0 .4 0"/><feOffset dx="4.0" dy="4.0" in="blurOut2" result="blurOut3"/><feBlend in="SourceGraphic" in2="blurOut3" mode="normal"/></filter></defs><g><!--MD5=[64a3fb0f5eb0010b6b66143760f92bf7]
class org.eclipse.epf.uma.provider.ApplicableMetaClassInfoItemProvider--><a href="ApplicableMetaClassInfoItemProvider.html" target="_top" title="ApplicableMetaClassInfoItemProvider.html" xlink:actuate="onRequest" xlink:href="ApplicableMetaClassInfoItemProvider.html" xlink:show="new" xlink:title="ApplicableMetaClassInfoItemProvider.html" xlink:type="simple"><rect codeLine="5" fill="#FEFECE" filter="url(#f1cusle5mnwbjg)" height="117.3672" id="org.eclipse.epf.uma.provider.ApplicableMetaClassInfoItemProvider" style="stroke: #A80036; stroke-width: 1.5;" width="324" x="7" y="107"/><ellipse cx="48.55" cy="127.0938" fill="#ADD1B2" rx="11" ry="11" style="stroke: #A80036; stroke-width: 1.0;"/><path d="M51.3156,122.9688 Q51.4719,122.75 51.6594,122.6406 Q51.8469,122.5313 52.0656,122.5313 Q52.4406,122.5313 52.675,122.7969 Q52.9094,123.0469 52.9094,123.6563 L52.9094,125.1094 Q52.9094,125.7188 52.675,125.9844 Q52.4406,126.25 52.0656,126.25 Q51.7219,126.25 51.5188,126.0469 Q51.3156,125.8594 51.2063,125.3438 Q51.1594,124.9844 50.9719,124.7969 Q50.6438,124.4219 50.0344,124.2031 Q49.425,123.9844 48.8,123.9844 Q48.0344,123.9844 47.3938,124.3125 Q46.7688,124.6406 46.2688,125.3906 Q45.7844,126.1406 45.7844,127.1719 L45.7844,128.2656 Q45.7844,129.5 46.675,130.3281 Q47.5656,131.1406 49.1594,131.1406 Q50.0969,131.1406 50.7531,130.8906 Q51.1438,130.7344 51.5656,130.2969 Q51.8313,130.0313 51.9719,129.9531 Q52.1281,129.875 52.3313,129.875 Q52.6594,129.875 52.9094,130.1406 Q53.175,130.3906 53.175,130.7344 Q53.175,131.0781 52.8313,131.4844 Q52.3313,132.0625 51.5344,132.3906 Q50.4563,132.8438 49.1594,132.8438 Q47.6438,132.8438 46.4406,132.2188 Q45.4563,131.7188 44.7688,130.6563 Q44.0813,129.5781 44.0813,128.2969 L44.0813,127.1406 Q44.0813,125.8125 44.6906,124.6719 Q45.3156,123.5156 46.4094,122.9063 Q47.5031,122.2813 48.7375,122.2813 Q49.4719,122.2813 50.1125,122.4531 Q50.7688,122.6094 51.3156,122.9688 Z "/><text fill="#000000" font-family="sans-serif" font-size="14" lengthAdjust="spacingAndGlyphs" textLength="233" x="68.45" y="126.5332">ApplicableMetaClassInfoItemProvider</text><text fill="#000000" font-family="sans-serif" font-size="10" lengthAdjust="spacingAndGlyphs" textLength="135" x="117.45" y="139.9902">org.eclipse.epf.uma.provider</text><line style="stroke: #A80036; stroke-width: 1.5;" x1="8" x2="330" y1="147.1875" y2="147.1875"/><ellipse cx="18" cy="158.1875" fill="#84BE84" rx="3" ry="3" style="stroke: #038048; stroke-width: 1.0;"/><text fill="#000000" font-family="sans-serif" font-size="11" lengthAdjust="spacingAndGlyphs" textLength="261" x="27" y="162.6064">ApplicableMetaClassInfoItemProvider(AdapterFactory)</text><ellipse cx="18" cy="172.0234" fill="#84BE84" rx="3" ry="3" style="stroke: #038048; stroke-width: 1.0;"/><text fill="#000000" font-family="sans-serif" font-size="11" lengthAdjust="spacingAndGlyphs" textLength="298" x="27" y="176.4424">getPropertyDescriptors(Object): List&lt;IItemPropertyDescriptor&gt;</text><ellipse cx="18" cy="185.8594" fill="#84BE84" rx="3" ry="3" style="stroke: #038048; stroke-width: 1.0;"/><text fill="#000000" font-family="sans-serif" font-size="11" lengthAdjust="spacingAndGlyphs" textLength="119" x="27" y="190.2783">getImage(Object): Object</text><ellipse cx="18" cy="199.6953" fill="#84BE84" rx="3" ry="3" style="stroke: #038048; stroke-width: 1.0;"/><text fill="#000000" font-family="sans-serif" font-size="11" lengthAdjust="spacingAndGlyphs" textLength="109" x="27" y="204.1143">getText(Object): String</text><ellipse cx="18" cy="213.5313" fill="#84BE84" rx="3" ry="3" style="stroke: #038048; stroke-width: 1.0;"/><text fill="#000000" font-family="sans-serif" font-size="11" lengthAdjust="spacingAndGlyphs" textLength="157" x="27" y="217.9502">notifyChanged(Notification): void</text></a><!--MD5=[68b415de37b217b1627220dfca70a4bc]
class org.eclipse.epf.uma.provider.ClassifierItemProvider--><a href="ClassifierItemProvider.html" target="_top" title="ClassifierItemProvider.html" xlink:actuate="onRequest" xlink:href="ClassifierItemProvider.html" xlink:show="new" xlink:title="ClassifierItemProvider.html" xlink:type="simple"><rect codeLine="13" fill="#FEFECE" filter="url(#f1cusle5mnwbjg)" height="40.1875" id="org.eclipse.epf.uma.provider.ClassifierItemProvider" style="stroke: #A80036; stroke-width: 1.5;" width="169" x="84.5" y="7"/><ellipse cx="99.5" cy="27.0938" fill="#ADD1B2" rx="11" ry="11" style="stroke: #A80036; stroke-width: 1.0;"/><path d="M102.2656,22.9688 Q102.4219,22.75 102.6094,22.6406 Q102.7969,22.5313 103.0156,22.5313 Q103.3906,22.5313 103.625,22.7969 Q103.8594,23.0469 103.8594,23.6563 L103.8594,25.1094 Q103.8594,25.7188 103.625,25.9844 Q103.3906,26.25 103.0156,26.25 Q102.6719,26.25 102.4688,26.0469 Q102.2656,25.8594 102.1563,25.3438 Q102.1094,24.9844 101.9219,24.7969 Q101.5938,24.4219 100.9844,24.2031 Q100.375,23.9844 99.75,23.9844 Q98.9844,23.9844 98.3438,24.3125 Q97.7188,24.6406 97.2188,25.3906 Q96.7344,26.1406 96.7344,27.1719 L96.7344,28.2656 Q96.7344,29.5 97.625,30.3281 Q98.5156,31.1406 100.1094,31.1406 Q101.0469,31.1406 101.7031,30.8906 Q102.0938,30.7344 102.5156,30.2969 Q102.7813,30.0313 102.9219,29.9531 Q103.0781,29.875 103.2813,29.875 Q103.6094,29.875 103.8594,30.1406 Q104.125,30.3906 104.125,30.7344 Q104.125,31.0781 103.7813,31.4844 Q103.2813,32.0625 102.4844,32.3906 Q101.4063,32.8438 100.1094,32.8438 Q98.5938,32.8438 97.3906,32.2188 Q96.4063,31.7188 95.7188,30.6563 Q95.0313,29.5781 95.0313,28.2969 L95.0313,27.1406 Q95.0313,25.8125 95.6406,24.6719 Q96.2656,23.5156 97.3594,22.9063 Q98.4531,22.2813 99.6875,22.2813 Q100.4219,22.2813 101.0625,22.4531 Q101.7188,22.6094 102.2656,22.9688 Z "/><text fill="#000000" font-family="sans-serif" font-size="14" lengthAdjust="spacingAndGlyphs" textLength="137" x="113.5" y="26.5332">ClassifierItemProvider</text><text fill="#000000" font-family="sans-serif" font-size="10" lengthAdjust="spacingAndGlyphs" textLength="135" x="114.5" y="39.9902">org.eclipse.epf.uma.provider</text></a><!--MD5=[53ff0275be02cc1d7cb1258bd5d187ab]
reverse link org.eclipse.epf.uma.provider.ClassifierItemProvider to org.eclipse.epf.uma.provider.ApplicableMetaClassInfoItemProvider--><path codeLine="15" d="M169,67.38 C169,79.73 169,93.63 169,106.97 " fill="none" id="org.eclipse.epf.uma.provider.ClassifierItemProvider-backto-org.eclipse.epf.uma.provider.ApplicableMetaClassInfoItemProvider" style="stroke: #A80036; stroke-width: 1.0;"/><polygon fill="none" points="162,67.27,169,47.27,176,67.27,162,67.27" style="stroke: #A80036; stroke-width: 1.0;"/><text fill="#888888" font-family="sans-serif" font-size="10" lengthAdjust="spacingAndGlyphs" textLength="190" x="71" y="247.748">UMLDoclet 2.0.12, PlantUML 1.2020.16</text><!--MD5=[5702c9d462fc19ccc550f67d84a1290b]
@startuml
    set namespaceSeparator none
    hide empty fields
    hide empty methods

    class "<size:14>ApplicableMetaClassInfoItemProvider\n<size:10>org.eclipse.epf.uma.provider" as org.eclipse.epf.uma.provider.ApplicableMetaClassInfoItemProvider [[ApplicableMetaClassInfoItemProvider.html]] {
        +ApplicableMetaClassInfoItemProvider(AdapterFactory)
        +getPropertyDescriptors(Object): List<IItemPropertyDescriptor>
        +getImage(Object): Object
        +getText(Object): String
        +notifyChanged(Notification): void
    }

    class "<size:14>ClassifierItemProvider\n<size:10>org.eclipse.epf.uma.provider" as org.eclipse.epf.uma.provider.ClassifierItemProvider [[ClassifierItemProvider.html]]

    org.eclipse.epf.uma.provider.ClassifierItemProvider <|- - org.eclipse.epf.uma.provider.ApplicableMetaClassInfoItemProvider

    center footer UMLDoclet 2.0.12, PlantUML 1.2020.16
@enduml

PlantUML version 1.2020.16(Sun Aug 23 22:20:43 CEST 2020)
(APACHE source distribution)
Java Runtime: Java(TM) SE Runtime Environment
JVM: Java HotSpot(TM) 64-Bit Server VM
Default Encoding: Cp1252
Language: es
Country: ES
--></g></svg>