<?xml version="1.0" encoding="UTF-8" standalone="no"?><svg xmlns="http://www.w3.org/2000/svg" xmlns:xlink="http://www.w3.org/1999/xlink" contentScriptType="application/ecmascript" contentStyleType="text/css" height="261px" preserveAspectRatio="none" style="width:350px;height:261px;" version="1.1" viewBox="0 0 350 261" width="350px" zoomAndPan="magnify"><defs><filter height="300%" id="f1fv6t2jpbjjtu" width="300%" x="-1" y="-1"><feGaussianBlur result="blurOut" stdDeviation="2.0"/><feColorMatrix in="blurOut" result="blurOut2" type="matrix" values="0 0 0 0 0 0 0 0 0 0 0 0 0 0 0 0 0 0 .4 0"/><feOffset dx="4.0" dy="4.0" in="blurOut2" result="blurOut3"/><feBlend in="SourceGraphic" in2="blurOut3" mode="normal"/></filter></defs><g><!--MD5=[e3c3b951f390f530beec5873ca9526f0]
class org.eclipse.epf.uma.provider.ArtifactDescriptionItemProvider--><a href="ArtifactDescriptionItemProvider.html" target="_top" title="ArtifactDescriptionItemProvider.html" xlink:actuate="onRequest" xlink:href="ArtifactDescriptionItemProvider.html" xlink:show="new" xlink:title="ArtifactDescriptionItemProvider.html" xlink:type="simple"><rect codeLine="5" fill="#FEFECE" filter="url(#f1fv6t2jpbjjtu)" height="117.3672" id="org.eclipse.epf.uma.provider.ArtifactDescriptionItemProvider" style="stroke: #A80036; stroke-width: 1.5;" width="324" x="7" y="107"/><ellipse cx="67.75" cy="127.0938" fill="#ADD1B2" rx="11" ry="11" style="stroke: #A80036; stroke-width: 1.0;"/><path d="M70.5156,122.9688 Q70.6719,122.75 70.8594,122.6406 Q71.0469,122.5313 71.2656,122.5313 Q71.6406,122.5313 71.875,122.7969 Q72.1094,123.0469 72.1094,123.6563 L72.1094,125.1094 Q72.1094,125.7188 71.875,125.9844 Q71.6406,126.25 71.2656,126.25 Q70.9219,126.25 70.7188,126.0469 Q70.5156,125.8594 70.4063,125.3438 Q70.3594,124.9844 70.1719,124.7969 Q69.8438,124.4219 69.2344,124.2031 Q68.625,123.9844 68,123.9844 Q67.2344,123.9844 66.5938,124.3125 Q65.9688,124.6406 65.4688,125.3906 Q64.9844,126.1406 64.9844,127.1719 L64.9844,128.2656 Q64.9844,129.5 65.875,130.3281 Q66.7656,131.1406 68.3594,131.1406 Q69.2969,131.1406 69.9531,130.8906 Q70.3438,130.7344 70.7656,130.2969 Q71.0313,130.0313 71.1719,129.9531 Q71.3281,129.875 71.5313,129.875 Q71.8594,129.875 72.1094,130.1406 Q72.375,130.3906 72.375,130.7344 Q72.375,131.0781 72.0313,131.4844 Q71.5313,132.0625 70.7344,132.3906 Q69.6563,132.8438 68.3594,132.8438 Q66.8438,132.8438 65.6406,132.2188 Q64.6563,131.7188 63.9688,130.6563 Q63.2813,129.5781 63.2813,128.2969 L63.2813,127.1406 Q63.2813,125.8125 63.8906,124.6719 Q64.5156,123.5156 65.6094,122.9063 Q66.7031,122.2813 67.9375,122.2813 Q68.6719,122.2813 69.3125,122.4531 Q69.9688,122.6094 70.5156,122.9688 Z "/><text fill="#000000" font-family="sans-serif" font-size="14" lengthAdjust="spacingAndGlyphs" textLength="194" x="88.25" y="126.5332">ArtifactDescriptionItemProvider</text><text fill="#000000" font-family="sans-serif" font-size="10" lengthAdjust="spacingAndGlyphs" textLength="135" x="117.75" y="139.9902">org.eclipse.epf.uma.provider</text><line style="stroke: #A80036; stroke-width: 1.5;" x1="8" x2="330" y1="147.1875" y2="147.1875"/><ellipse cx="18" cy="158.1875" fill="#84BE84" rx="3" ry="3" style="stroke: #038048; stroke-width: 1.0;"/><text fill="#000000" font-family="sans-serif" font-size="11" lengthAdjust="spacingAndGlyphs" textLength="233" x="27" y="162.6064">ArtifactDescriptionItemProvider(AdapterFactory)</text><ellipse cx="18" cy="172.0234" fill="#84BE84" rx="3" ry="3" style="stroke: #038048; stroke-width: 1.0;"/><text fill="#000000" font-family="sans-serif" font-size="11" lengthAdjust="spacingAndGlyphs" textLength="298" x="27" y="176.4424">getPropertyDescriptors(Object): List&lt;IItemPropertyDescriptor&gt;</text><ellipse cx="18" cy="185.8594" fill="#84BE84" rx="3" ry="3" style="stroke: #038048; stroke-width: 1.0;"/><text fill="#000000" font-family="sans-serif" font-size="11" lengthAdjust="spacingAndGlyphs" textLength="119" x="27" y="190.2783">getImage(Object): Object</text><ellipse cx="18" cy="199.6953" fill="#84BE84" rx="3" ry="3" style="stroke: #038048; stroke-width: 1.0;"/><text fill="#000000" font-family="sans-serif" font-size="11" lengthAdjust="spacingAndGlyphs" textLength="109" x="27" y="204.1143">getText(Object): String</text><ellipse cx="18" cy="213.5313" fill="#84BE84" rx="3" ry="3" style="stroke: #038048; stroke-width: 1.0;"/><text fill="#000000" font-family="sans-serif" font-size="11" lengthAdjust="spacingAndGlyphs" textLength="157" x="27" y="217.9502">notifyChanged(Notification): void</text></a><!--MD5=[2a9dd0474984d694339c853ed830c5d2]
class org.eclipse.epf.uma.provider.WorkProductDescriptionItemProvider--><a href="WorkProductDescriptionItemProvider.html" target="_top" title="WorkProductDescriptionItemProvider.html" xlink:actuate="onRequest" xlink:href="WorkProductDescriptionItemProvider.html" xlink:show="new" xlink:title="WorkProductDescriptionItemProvider.html" xlink:type="simple"><rect codeLine="13" fill="#FEFECE" filter="url(#f1fv6t2jpbjjtu)" height="40.1875" id="org.eclipse.epf.uma.provider.WorkProductDescriptionItemProvider" style="stroke: #A80036; stroke-width: 1.5;" width="264" x="37" y="7"/><ellipse cx="52" cy="27.0938" fill="#ADD1B2" rx="11" ry="11" style="stroke: #A80036; stroke-width: 1.0;"/><path d="M54.7656,22.9688 Q54.9219,22.75 55.1094,22.6406 Q55.2969,22.5313 55.5156,22.5313 Q55.8906,22.5313 56.125,22.7969 Q56.3594,23.0469 56.3594,23.6563 L56.3594,25.1094 Q56.3594,25.7188 56.125,25.9844 Q55.8906,26.25 55.5156,26.25 Q55.1719,26.25 54.9688,26.0469 Q54.7656,25.8594 54.6563,25.3438 Q54.6094,24.9844 54.4219,24.7969 Q54.0938,24.4219 53.4844,24.2031 Q52.875,23.9844 52.25,23.9844 Q51.4844,23.9844 50.8438,24.3125 Q50.2188,24.6406 49.7188,25.3906 Q49.2344,26.1406 49.2344,27.1719 L49.2344,28.2656 Q49.2344,29.5 50.125,30.3281 Q51.0156,31.1406 52.6094,31.1406 Q53.5469,31.1406 54.2031,30.8906 Q54.5938,30.7344 55.0156,30.2969 Q55.2813,30.0313 55.4219,29.9531 Q55.5781,29.875 55.7813,29.875 Q56.1094,29.875 56.3594,30.1406 Q56.625,30.3906 56.625,30.7344 Q56.625,31.0781 56.2813,31.4844 Q55.7813,32.0625 54.9844,32.3906 Q53.9063,32.8438 52.6094,32.8438 Q51.0938,32.8438 49.8906,32.2188 Q48.9063,31.7188 48.2188,30.6563 Q47.5313,29.5781 47.5313,28.2969 L47.5313,27.1406 Q47.5313,25.8125 48.1406,24.6719 Q48.7656,23.5156 49.8594,22.9063 Q50.9531,22.2813 52.1875,22.2813 Q52.9219,22.2813 53.5625,22.4531 Q54.2188,22.6094 54.7656,22.9688 Z "/><text fill="#000000" font-family="sans-serif" font-size="14" lengthAdjust="spacingAndGlyphs" textLength="232" x="66" y="26.5332">WorkProductDescriptionItemProvider</text><text fill="#000000" font-family="sans-serif" font-size="10" lengthAdjust="spacingAndGlyphs" textLength="135" x="114.5" y="39.9902">org.eclipse.epf.uma.provider</text></a><!--MD5=[04f52b52d86a70b72eea68266e4ee1c3]
reverse link org.eclipse.epf.uma.provider.WorkProductDescriptionItemProvider to org.eclipse.epf.uma.provider.ArtifactDescriptionItemProvider--><path codeLine="15" d="M169,67.38 C169,79.73 169,93.63 169,106.97 " fill="none" id="org.eclipse.epf.uma.provider.WorkProductDescriptionItemProvider-backto-org.eclipse.epf.uma.provider.ArtifactDescriptionItemProvider" style="stroke: #A80036; stroke-width: 1.0;"/><polygon fill="none" points="162,67.27,169,47.27,176,67.27,162,67.27" style="stroke: #A80036; stroke-width: 1.0;"/><text fill="#888888" font-family="sans-serif" font-size="10" lengthAdjust="spacingAndGlyphs" textLength="190" x="71" y="247.748">UMLDoclet 2.0.12, PlantUML 1.2020.16</text><!--MD5=[16674bba3b924f4d3be49841c8358d63]
@startuml
    set namespaceSeparator none
    hide empty fields
    hide empty methods

    class "<size:14>ArtifactDescriptionItemProvider\n<size:10>org.eclipse.epf.uma.provider" as org.eclipse.epf.uma.provider.ArtifactDescriptionItemProvider [[ArtifactDescriptionItemProvider.html]] {
        +ArtifactDescriptionItemProvider(AdapterFactory)
        +getPropertyDescriptors(Object): List<IItemPropertyDescriptor>
        +getImage(Object): Object
        +getText(Object): String
        +notifyChanged(Notification): void
    }

    class "<size:14>WorkProductDescriptionItemProvider\n<size:10>org.eclipse.epf.uma.provider" as org.eclipse.epf.uma.provider.WorkProductDescriptionItemProvider [[WorkProductDescriptionItemProvider.html]]

    org.eclipse.epf.uma.provider.WorkProductDescriptionItemProvider <|- - org.eclipse.epf.uma.provider.ArtifactDescriptionItemProvider

    center footer UMLDoclet 2.0.12, PlantUML 1.2020.16
@enduml

PlantUML version 1.2020.16(Sun Aug 23 22:20:43 CEST 2020)
(APACHE source distribution)
Java Runtime: Java(TM) SE Runtime Environment
JVM: Java HotSpot(TM) 64-Bit Server VM
Default Encoding: Cp1252
Language: es
Country: ES
--></g></svg>