<?xml version="1.0" encoding="UTF-8" standalone="no"?><svg xmlns="http://www.w3.org/2000/svg" xmlns:xlink="http://www.w3.org/1999/xlink" contentScriptType="application/ecmascript" contentStyleType="text/css" height="261px" preserveAspectRatio="none" style="width:350px;height:261px;" version="1.1" viewBox="0 0 350 261" width="350px" zoomAndPan="magnify"><defs><filter height="300%" id="fx6tzzgu6t8p3" width="300%" x="-1" y="-1"><feGaussianBlur result="blurOut" stdDeviation="2.0"/><feColorMatrix in="blurOut" result="blurOut2" type="matrix" values="0 0 0 0 0 0 0 0 0 0 0 0 0 0 0 0 0 0 .4 0"/><feOffset dx="4.0" dy="4.0" in="blurOut2" result="blurOut3"/><feBlend in="SourceGraphic" in2="blurOut3" mode="normal"/></filter></defs><g><!--MD5=[c927d13a582243a67dc6cab6b487d1ad]
class org.eclipse.epf.uma.provider.CompositeRoleItemProvider--><a href="CompositeRoleItemProvider.html" target="_top" title="CompositeRoleItemProvider.html" xlink:actuate="onRequest" xlink:href="CompositeRoleItemProvider.html" xlink:show="new" xlink:title="CompositeRoleItemProvider.html" xlink:type="simple"><rect codeLine="5" fill="#FEFECE" filter="url(#fx6tzzgu6t8p3)" height="117.3672" id="org.eclipse.epf.uma.provider.CompositeRoleItemProvider" style="stroke: #A80036; stroke-width: 1.5;" width="324" x="7" y="107"/><ellipse cx="77.25" cy="127.0938" fill="#ADD1B2" rx="11" ry="11" style="stroke: #A80036; stroke-width: 1.0;"/><path d="M80.0156,122.9688 Q80.1719,122.75 80.3594,122.6406 Q80.5469,122.5313 80.7656,122.5313 Q81.1406,122.5313 81.375,122.7969 Q81.6094,123.0469 81.6094,123.6563 L81.6094,125.1094 Q81.6094,125.7188 81.375,125.9844 Q81.1406,126.25 80.7656,126.25 Q80.4219,126.25 80.2188,126.0469 Q80.0156,125.8594 79.9063,125.3438 Q79.8594,124.9844 79.6719,124.7969 Q79.3438,124.4219 78.7344,124.2031 Q78.125,123.9844 77.5,123.9844 Q76.7344,123.9844 76.0938,124.3125 Q75.4688,124.6406 74.9688,125.3906 Q74.4844,126.1406 74.4844,127.1719 L74.4844,128.2656 Q74.4844,129.5 75.375,130.3281 Q76.2656,131.1406 77.8594,131.1406 Q78.7969,131.1406 79.4531,130.8906 Q79.8438,130.7344 80.2656,130.2969 Q80.5313,130.0313 80.6719,129.9531 Q80.8281,129.875 81.0313,129.875 Q81.3594,129.875 81.6094,130.1406 Q81.875,130.3906 81.875,130.7344 Q81.875,131.0781 81.5313,131.4844 Q81.0313,132.0625 80.2344,132.3906 Q79.1563,132.8438 77.8594,132.8438 Q76.3438,132.8438 75.1406,132.2188 Q74.1563,131.7188 73.4688,130.6563 Q72.7813,129.5781 72.7813,128.2969 L72.7813,127.1406 Q72.7813,125.8125 73.3906,124.6719 Q74.0156,123.5156 75.1094,122.9063 Q76.2031,122.2813 77.4375,122.2813 Q78.1719,122.2813 78.8125,122.4531 Q79.4688,122.6094 80.0156,122.9688 Z "/><text fill="#000000" font-family="sans-serif" font-size="14" lengthAdjust="spacingAndGlyphs" textLength="175" x="97.75" y="126.5332">CompositeRoleItemProvider</text><text fill="#000000" font-family="sans-serif" font-size="10" lengthAdjust="spacingAndGlyphs" textLength="135" x="117.75" y="139.9902">org.eclipse.epf.uma.provider</text><line style="stroke: #A80036; stroke-width: 1.5;" x1="8" x2="330" y1="147.1875" y2="147.1875"/><ellipse cx="18" cy="158.1875" fill="#84BE84" rx="3" ry="3" style="stroke: #038048; stroke-width: 1.0;"/><text fill="#000000" font-family="sans-serif" font-size="11" lengthAdjust="spacingAndGlyphs" textLength="214" x="27" y="162.6064">CompositeRoleItemProvider(AdapterFactory)</text><ellipse cx="18" cy="172.0234" fill="#84BE84" rx="3" ry="3" style="stroke: #038048; stroke-width: 1.0;"/><text fill="#000000" font-family="sans-serif" font-size="11" lengthAdjust="spacingAndGlyphs" textLength="298" x="27" y="176.4424">getPropertyDescriptors(Object): List&lt;IItemPropertyDescriptor&gt;</text><ellipse cx="18" cy="185.8594" fill="#84BE84" rx="3" ry="3" style="stroke: #038048; stroke-width: 1.0;"/><text fill="#000000" font-family="sans-serif" font-size="11" lengthAdjust="spacingAndGlyphs" textLength="119" x="27" y="190.2783">getImage(Object): Object</text><ellipse cx="18" cy="199.6953" fill="#84BE84" rx="3" ry="3" style="stroke: #038048; stroke-width: 1.0;"/><text fill="#000000" font-family="sans-serif" font-size="11" lengthAdjust="spacingAndGlyphs" textLength="109" x="27" y="204.1143">getText(Object): String</text><ellipse cx="18" cy="213.5313" fill="#84BE84" rx="3" ry="3" style="stroke: #038048; stroke-width: 1.0;"/><text fill="#000000" font-family="sans-serif" font-size="11" lengthAdjust="spacingAndGlyphs" textLength="157" x="27" y="217.9502">notifyChanged(Notification): void</text></a><!--MD5=[ee23d6e62047f700e77c3e74a589f508]
class org.eclipse.epf.uma.provider.RoleDescriptorItemProvider--><a href="RoleDescriptorItemProvider.html" target="_top" title="RoleDescriptorItemProvider.html" xlink:actuate="onRequest" xlink:href="RoleDescriptorItemProvider.html" xlink:show="new" xlink:title="RoleDescriptorItemProvider.html" xlink:type="simple"><rect codeLine="13" fill="#FEFECE" filter="url(#fx6tzzgu6t8p3)" height="40.1875" id="org.eclipse.epf.uma.provider.RoleDescriptorItemProvider" style="stroke: #A80036; stroke-width: 1.5;" width="205" x="66.5" y="7"/><ellipse cx="81.5" cy="27.0938" fill="#ADD1B2" rx="11" ry="11" style="stroke: #A80036; stroke-width: 1.0;"/><path d="M84.2656,22.9688 Q84.4219,22.75 84.6094,22.6406 Q84.7969,22.5313 85.0156,22.5313 Q85.3906,22.5313 85.625,22.7969 Q85.8594,23.0469 85.8594,23.6563 L85.8594,25.1094 Q85.8594,25.7188 85.625,25.9844 Q85.3906,26.25 85.0156,26.25 Q84.6719,26.25 84.4688,26.0469 Q84.2656,25.8594 84.1563,25.3438 Q84.1094,24.9844 83.9219,24.7969 Q83.5938,24.4219 82.9844,24.2031 Q82.375,23.9844 81.75,23.9844 Q80.9844,23.9844 80.3438,24.3125 Q79.7188,24.6406 79.2188,25.3906 Q78.7344,26.1406 78.7344,27.1719 L78.7344,28.2656 Q78.7344,29.5 79.625,30.3281 Q80.5156,31.1406 82.1094,31.1406 Q83.0469,31.1406 83.7031,30.8906 Q84.0938,30.7344 84.5156,30.2969 Q84.7813,30.0313 84.9219,29.9531 Q85.0781,29.875 85.2813,29.875 Q85.6094,29.875 85.8594,30.1406 Q86.125,30.3906 86.125,30.7344 Q86.125,31.0781 85.7813,31.4844 Q85.2813,32.0625 84.4844,32.3906 Q83.4063,32.8438 82.1094,32.8438 Q80.5938,32.8438 79.3906,32.2188 Q78.4063,31.7188 77.7188,30.6563 Q77.0313,29.5781 77.0313,28.2969 L77.0313,27.1406 Q77.0313,25.8125 77.6406,24.6719 Q78.2656,23.5156 79.3594,22.9063 Q80.4531,22.2813 81.6875,22.2813 Q82.4219,22.2813 83.0625,22.4531 Q83.7188,22.6094 84.2656,22.9688 Z "/><text fill="#000000" font-family="sans-serif" font-size="14" lengthAdjust="spacingAndGlyphs" textLength="173" x="95.5" y="26.5332">RoleDescriptorItemProvider</text><text fill="#000000" font-family="sans-serif" font-size="10" lengthAdjust="spacingAndGlyphs" textLength="135" x="114.5" y="39.9902">org.eclipse.epf.uma.provider</text></a><!--MD5=[1cbf99577adca32e156d8f84e82cde14]
reverse link org.eclipse.epf.uma.provider.RoleDescriptorItemProvider to org.eclipse.epf.uma.provider.CompositeRoleItemProvider--><path codeLine="15" d="M169,67.38 C169,79.73 169,93.63 169,106.97 " fill="none" id="org.eclipse.epf.uma.provider.RoleDescriptorItemProvider-backto-org.eclipse.epf.uma.provider.CompositeRoleItemProvider" style="stroke: #A80036; stroke-width: 1.0;"/><polygon fill="none" points="162,67.27,169,47.27,176,67.27,162,67.27" style="stroke: #A80036; stroke-width: 1.0;"/><text fill="#888888" font-family="sans-serif" font-size="10" lengthAdjust="spacingAndGlyphs" textLength="190" x="71" y="247.748">UMLDoclet 2.0.12, PlantUML 1.2020.16</text><!--MD5=[f7414aca46b27624c2f3112402ab1b93]
@startuml
    set namespaceSeparator none
    hide empty fields
    hide empty methods

    class "<size:14>CompositeRoleItemProvider\n<size:10>org.eclipse.epf.uma.provider" as org.eclipse.epf.uma.provider.CompositeRoleItemProvider [[CompositeRoleItemProvider.html]] {
        +CompositeRoleItemProvider(AdapterFactory)
        +getPropertyDescriptors(Object): List<IItemPropertyDescriptor>
        +getImage(Object): Object
        +getText(Object): String
        +notifyChanged(Notification): void
    }

    class "<size:14>RoleDescriptorItemProvider\n<size:10>org.eclipse.epf.uma.provider" as org.eclipse.epf.uma.provider.RoleDescriptorItemProvider [[RoleDescriptorItemProvider.html]]

    org.eclipse.epf.uma.provider.RoleDescriptorItemProvider <|- - org.eclipse.epf.uma.provider.CompositeRoleItemProvider

    center footer UMLDoclet 2.0.12, PlantUML 1.2020.16
@enduml

PlantUML version 1.2020.16(Sun Aug 23 22:20:43 CEST 2020)
(APACHE source distribution)
Java Runtime: Java(TM) SE Runtime Environment
JVM: Java HotSpot(TM) 64-Bit Server VM
Default Encoding: Cp1252
Language: es
Country: ES
--></g></svg>