<?xml version="1.0" encoding="UTF-8" standalone="no"?><svg xmlns="http://www.w3.org/2000/svg" xmlns:xlink="http://www.w3.org/1999/xlink" contentScriptType="application/ecmascript" contentStyleType="text/css" height="261px" preserveAspectRatio="none" style="width:350px;height:261px;" version="1.1" viewBox="0 0 350 261" width="350px" zoomAndPan="magnify"><defs><filter height="300%" id="fed6ogv1zhg9d" width="300%" x="-1" y="-1"><feGaussianBlur result="blurOut" stdDeviation="2.0"/><feColorMatrix in="blurOut" result="blurOut2" type="matrix" values="0 0 0 0 0 0 0 0 0 0 0 0 0 0 0 0 0 0 .4 0"/><feOffset dx="4.0" dy="4.0" in="blurOut2" result="blurOut3"/><feBlend in="SourceGraphic" in2="blurOut3" mode="normal"/></filter></defs><g><!--MD5=[e3744b382a46d98ca50490dbe99314ee]
class org.eclipse.epf.uma.provider.ConstraintItemProvider--><a href="ConstraintItemProvider.html" target="_top" title="ConstraintItemProvider.html" xlink:actuate="onRequest" xlink:href="ConstraintItemProvider.html" xlink:show="new" xlink:title="ConstraintItemProvider.html" xlink:type="simple"><rect codeLine="5" fill="#FEFECE" filter="url(#fed6ogv1zhg9d)" height="117.3672" id="org.eclipse.epf.uma.provider.ConstraintItemProvider" style="stroke: #A80036; stroke-width: 1.5;" width="324" x="7" y="107"/><ellipse cx="92.75" cy="127.0938" fill="#ADD1B2" rx="11" ry="11" style="stroke: #A80036; stroke-width: 1.0;"/><path d="M95.5156,122.9688 Q95.6719,122.75 95.8594,122.6406 Q96.0469,122.5313 96.2656,122.5313 Q96.6406,122.5313 96.875,122.7969 Q97.1094,123.0469 97.1094,123.6563 L97.1094,125.1094 Q97.1094,125.7188 96.875,125.9844 Q96.6406,126.25 96.2656,126.25 Q95.9219,126.25 95.7188,126.0469 Q95.5156,125.8594 95.4063,125.3438 Q95.3594,124.9844 95.1719,124.7969 Q94.8438,124.4219 94.2344,124.2031 Q93.625,123.9844 93,123.9844 Q92.2344,123.9844 91.5938,124.3125 Q90.9688,124.6406 90.4688,125.3906 Q89.9844,126.1406 89.9844,127.1719 L89.9844,128.2656 Q89.9844,129.5 90.875,130.3281 Q91.7656,131.1406 93.3594,131.1406 Q94.2969,131.1406 94.9531,130.8906 Q95.3438,130.7344 95.7656,130.2969 Q96.0313,130.0313 96.1719,129.9531 Q96.3281,129.875 96.5313,129.875 Q96.8594,129.875 97.1094,130.1406 Q97.375,130.3906 97.375,130.7344 Q97.375,131.0781 97.0313,131.4844 Q96.5313,132.0625 95.7344,132.3906 Q94.6563,132.8438 93.3594,132.8438 Q91.8438,132.8438 90.6406,132.2188 Q89.6563,131.7188 88.9688,130.6563 Q88.2813,129.5781 88.2813,128.2969 L88.2813,127.1406 Q88.2813,125.8125 88.8906,124.6719 Q89.5156,123.5156 90.6094,122.9063 Q91.7031,122.2813 92.9375,122.2813 Q93.6719,122.2813 94.3125,122.4531 Q94.9688,122.6094 95.5156,122.9688 Z "/><text fill="#000000" font-family="sans-serif" font-size="14" lengthAdjust="spacingAndGlyphs" textLength="144" x="113.25" y="126.5332">ConstraintItemProvider</text><text fill="#000000" font-family="sans-serif" font-size="10" lengthAdjust="spacingAndGlyphs" textLength="135" x="117.75" y="139.9902">org.eclipse.epf.uma.provider</text><line style="stroke: #A80036; stroke-width: 1.5;" x1="8" x2="330" y1="147.1875" y2="147.1875"/><ellipse cx="18" cy="158.1875" fill="#84BE84" rx="3" ry="3" style="stroke: #038048; stroke-width: 1.0;"/><text fill="#000000" font-family="sans-serif" font-size="11" lengthAdjust="spacingAndGlyphs" textLength="192" x="27" y="162.6064">ConstraintItemProvider(AdapterFactory)</text><ellipse cx="18" cy="172.0234" fill="#84BE84" rx="3" ry="3" style="stroke: #038048; stroke-width: 1.0;"/><text fill="#000000" font-family="sans-serif" font-size="11" lengthAdjust="spacingAndGlyphs" textLength="298" x="27" y="176.4424">getPropertyDescriptors(Object): List&lt;IItemPropertyDescriptor&gt;</text><ellipse cx="18" cy="185.8594" fill="#84BE84" rx="3" ry="3" style="stroke: #038048; stroke-width: 1.0;"/><text fill="#000000" font-family="sans-serif" font-size="11" lengthAdjust="spacingAndGlyphs" textLength="119" x="27" y="190.2783">getImage(Object): Object</text><ellipse cx="18" cy="199.6953" fill="#84BE84" rx="3" ry="3" style="stroke: #038048; stroke-width: 1.0;"/><text fill="#000000" font-family="sans-serif" font-size="11" lengthAdjust="spacingAndGlyphs" textLength="109" x="27" y="204.1143">getText(Object): String</text><ellipse cx="18" cy="213.5313" fill="#84BE84" rx="3" ry="3" style="stroke: #038048; stroke-width: 1.0;"/><text fill="#000000" font-family="sans-serif" font-size="11" lengthAdjust="spacingAndGlyphs" textLength="157" x="27" y="217.9502">notifyChanged(Notification): void</text></a><!--MD5=[742f79c2473b5b60b51151f979ccdcb1]
class org.eclipse.epf.uma.provider.MethodElementItemProvider--><a href="MethodElementItemProvider.html" target="_top" title="MethodElementItemProvider.html" xlink:actuate="onRequest" xlink:href="MethodElementItemProvider.html" xlink:show="new" xlink:title="MethodElementItemProvider.html" xlink:type="simple"><rect codeLine="13" fill="#FEFECE" filter="url(#fed6ogv1zhg9d)" height="40.1875" id="org.eclipse.epf.uma.provider.MethodElementItemProvider" style="stroke: #A80036; stroke-width: 1.5;" width="209" x="64.5" y="7"/><ellipse cx="79.5" cy="27.0938" fill="#ADD1B2" rx="11" ry="11" style="stroke: #A80036; stroke-width: 1.0;"/><path d="M82.2656,22.9688 Q82.4219,22.75 82.6094,22.6406 Q82.7969,22.5313 83.0156,22.5313 Q83.3906,22.5313 83.625,22.7969 Q83.8594,23.0469 83.8594,23.6563 L83.8594,25.1094 Q83.8594,25.7188 83.625,25.9844 Q83.3906,26.25 83.0156,26.25 Q82.6719,26.25 82.4688,26.0469 Q82.2656,25.8594 82.1563,25.3438 Q82.1094,24.9844 81.9219,24.7969 Q81.5938,24.4219 80.9844,24.2031 Q80.375,23.9844 79.75,23.9844 Q78.9844,23.9844 78.3438,24.3125 Q77.7188,24.6406 77.2188,25.3906 Q76.7344,26.1406 76.7344,27.1719 L76.7344,28.2656 Q76.7344,29.5 77.625,30.3281 Q78.5156,31.1406 80.1094,31.1406 Q81.0469,31.1406 81.7031,30.8906 Q82.0938,30.7344 82.5156,30.2969 Q82.7813,30.0313 82.9219,29.9531 Q83.0781,29.875 83.2813,29.875 Q83.6094,29.875 83.8594,30.1406 Q84.125,30.3906 84.125,30.7344 Q84.125,31.0781 83.7813,31.4844 Q83.2813,32.0625 82.4844,32.3906 Q81.4063,32.8438 80.1094,32.8438 Q78.5938,32.8438 77.3906,32.2188 Q76.4063,31.7188 75.7188,30.6563 Q75.0313,29.5781 75.0313,28.2969 L75.0313,27.1406 Q75.0313,25.8125 75.6406,24.6719 Q76.2656,23.5156 77.3594,22.9063 Q78.4531,22.2813 79.6875,22.2813 Q80.4219,22.2813 81.0625,22.4531 Q81.7188,22.6094 82.2656,22.9688 Z "/><text fill="#000000" font-family="sans-serif" font-size="14" lengthAdjust="spacingAndGlyphs" textLength="177" x="93.5" y="26.5332">MethodElementItemProvider</text><text fill="#000000" font-family="sans-serif" font-size="10" lengthAdjust="spacingAndGlyphs" textLength="135" x="114.5" y="39.9902">org.eclipse.epf.uma.provider</text></a><!--MD5=[f127b04fcd078575fa1af6fcfcb34c55]
reverse link org.eclipse.epf.uma.provider.MethodElementItemProvider to org.eclipse.epf.uma.provider.ConstraintItemProvider--><path codeLine="15" d="M169,67.38 C169,79.73 169,93.63 169,106.97 " fill="none" id="org.eclipse.epf.uma.provider.MethodElementItemProvider-backto-org.eclipse.epf.uma.provider.ConstraintItemProvider" style="stroke: #A80036; stroke-width: 1.0;"/><polygon fill="none" points="162,67.27,169,47.27,176,67.27,162,67.27" style="stroke: #A80036; stroke-width: 1.0;"/><text fill="#888888" font-family="sans-serif" font-size="10" lengthAdjust="spacingAndGlyphs" textLength="190" x="71" y="247.748">UMLDoclet 2.0.12, PlantUML 1.2020.16</text><!--MD5=[d218e4c1d2defd9a2b6119b2fa2c29d0]
@startuml
    set namespaceSeparator none
    hide empty fields
    hide empty methods

    class "<size:14>ConstraintItemProvider\n<size:10>org.eclipse.epf.uma.provider" as org.eclipse.epf.uma.provider.ConstraintItemProvider [[ConstraintItemProvider.html]] {
        +ConstraintItemProvider(AdapterFactory)
        +getPropertyDescriptors(Object): List<IItemPropertyDescriptor>
        +getImage(Object): Object
        +getText(Object): String
        +notifyChanged(Notification): void
    }

    class "<size:14>MethodElementItemProvider\n<size:10>org.eclipse.epf.uma.provider" as org.eclipse.epf.uma.provider.MethodElementItemProvider [[MethodElementItemProvider.html]]

    org.eclipse.epf.uma.provider.MethodElementItemProvider <|- - org.eclipse.epf.uma.provider.ConstraintItemProvider

    center footer UMLDoclet 2.0.12, PlantUML 1.2020.16
@enduml

PlantUML version 1.2020.16(Sun Aug 23 22:20:43 CEST 2020)
(APACHE source distribution)
Java Runtime: Java(TM) SE Runtime Environment
JVM: Java HotSpot(TM) 64-Bit Server VM
Default Encoding: Cp1252
Language: es
Country: ES
--></g></svg>