<?xml version="1.0" encoding="UTF-8" standalone="no"?><svg xmlns="http://www.w3.org/2000/svg" xmlns:xlink="http://www.w3.org/1999/xlink" contentScriptType="application/ecmascript" contentStyleType="text/css" height="275px" preserveAspectRatio="none" style="width:393px;height:275px;" version="1.1" viewBox="0 0 393 275" width="393px" zoomAndPan="magnify"><defs><filter height="300%" id="fk5ml2xn9yv4z" width="300%" x="-1" y="-1"><feGaussianBlur result="blurOut" stdDeviation="2.0"/><feColorMatrix in="blurOut" result="blurOut2" type="matrix" values="0 0 0 0 0 0 0 0 0 0 0 0 0 0 0 0 0 0 .4 0"/><feOffset dx="4.0" dy="4.0" in="blurOut2" result="blurOut3"/><feBlend in="SourceGraphic" in2="blurOut3" mode="normal"/></filter></defs><g><!--MD5=[51de06e52fa2c76029d70c6ddf5565fb]
class org.eclipse.epf.uma.provider.ContentDescriptionItemProvider--><a href="ContentDescriptionItemProvider.html" target="_top" title="ContentDescriptionItemProvider.html" xlink:actuate="onRequest" xlink:href="ContentDescriptionItemProvider.html" xlink:show="new" xlink:title="ContentDescriptionItemProvider.html" xlink:type="simple"><rect codeLine="5" fill="#FEFECE" filter="url(#fk5ml2xn9yv4z)" height="131.2031" id="org.eclipse.epf.uma.provider.ContentDescriptionItemProvider" style="stroke: #A80036; stroke-width: 1.5;" width="367" x="7" y="107"/><ellipse cx="86.25" cy="127.0938" fill="#ADD1B2" rx="11" ry="11" style="stroke: #A80036; stroke-width: 1.0;"/><path d="M89.0156,122.9688 Q89.1719,122.75 89.3594,122.6406 Q89.5469,122.5313 89.7656,122.5313 Q90.1406,122.5313 90.375,122.7969 Q90.6094,123.0469 90.6094,123.6563 L90.6094,125.1094 Q90.6094,125.7188 90.375,125.9844 Q90.1406,126.25 89.7656,126.25 Q89.4219,126.25 89.2188,126.0469 Q89.0156,125.8594 88.9063,125.3438 Q88.8594,124.9844 88.6719,124.7969 Q88.3438,124.4219 87.7344,124.2031 Q87.125,123.9844 86.5,123.9844 Q85.7344,123.9844 85.0938,124.3125 Q84.4688,124.6406 83.9688,125.3906 Q83.4844,126.1406 83.4844,127.1719 L83.4844,128.2656 Q83.4844,129.5 84.375,130.3281 Q85.2656,131.1406 86.8594,131.1406 Q87.7969,131.1406 88.4531,130.8906 Q88.8438,130.7344 89.2656,130.2969 Q89.5313,130.0313 89.6719,129.9531 Q89.8281,129.875 90.0313,129.875 Q90.3594,129.875 90.6094,130.1406 Q90.875,130.3906 90.875,130.7344 Q90.875,131.0781 90.5313,131.4844 Q90.0313,132.0625 89.2344,132.3906 Q88.1563,132.8438 86.8594,132.8438 Q85.3438,132.8438 84.1406,132.2188 Q83.1563,131.7188 82.4688,130.6563 Q81.7813,129.5781 81.7813,128.2969 L81.7813,127.1406 Q81.7813,125.8125 82.3906,124.6719 Q83.0156,123.5156 84.1094,122.9063 Q85.2031,122.2813 86.4375,122.2813 Q87.1719,122.2813 87.8125,122.4531 Q88.4688,122.6094 89.0156,122.9688 Z "/><text fill="#000000" font-family="sans-serif" font-size="14" lengthAdjust="spacingAndGlyphs" textLength="200" x="106.75" y="126.5332">ContentDescriptionItemProvider</text><text fill="#000000" font-family="sans-serif" font-size="10" lengthAdjust="spacingAndGlyphs" textLength="135" x="139.25" y="139.9902">org.eclipse.epf.uma.provider</text><line style="stroke: #A80036; stroke-width: 1.5;" x1="8" x2="373" y1="147.1875" y2="147.1875"/><ellipse cx="18" cy="158.1875" fill="#84BE84" rx="3" ry="3" style="stroke: #038048; stroke-width: 1.0;"/><text fill="#000000" font-family="sans-serif" font-size="11" lengthAdjust="spacingAndGlyphs" textLength="234" x="27" y="162.6064">ContentDescriptionItemProvider(AdapterFactory)</text><ellipse cx="18" cy="172.0234" fill="#84BE84" rx="3" ry="3" style="stroke: #038048; stroke-width: 1.0;"/><text fill="#000000" font-family="sans-serif" font-size="11" lengthAdjust="spacingAndGlyphs" textLength="298" x="27" y="176.4424">getPropertyDescriptors(Object): List&lt;IItemPropertyDescriptor&gt;</text><ellipse cx="18" cy="185.8594" fill="#84BE84" rx="3" ry="3" style="stroke: #038048; stroke-width: 1.0;"/><text fill="#000000" font-family="sans-serif" font-size="11" lengthAdjust="spacingAndGlyphs" textLength="341" x="27" y="190.2783">getChildrenFeatures(Object): Collection&lt;? extends EStructuralFeature&gt;</text><ellipse cx="18" cy="199.6953" fill="#84BE84" rx="3" ry="3" style="stroke: #038048; stroke-width: 1.0;"/><text fill="#000000" font-family="sans-serif" font-size="11" lengthAdjust="spacingAndGlyphs" textLength="119" x="27" y="204.1143">getImage(Object): Object</text><ellipse cx="18" cy="213.5313" fill="#84BE84" rx="3" ry="3" style="stroke: #038048; stroke-width: 1.0;"/><text fill="#000000" font-family="sans-serif" font-size="11" lengthAdjust="spacingAndGlyphs" textLength="109" x="27" y="217.9502">getText(Object): String</text><ellipse cx="18" cy="227.3672" fill="#84BE84" rx="3" ry="3" style="stroke: #038048; stroke-width: 1.0;"/><text fill="#000000" font-family="sans-serif" font-size="11" lengthAdjust="spacingAndGlyphs" textLength="157" x="27" y="231.7861">notifyChanged(Notification): void</text></a><!--MD5=[794200b41f79d97cf4fb95fa0600be94]
class org.eclipse.epf.uma.provider.MethodUnitItemProvider--><a href="MethodUnitItemProvider.html" target="_top" title="MethodUnitItemProvider.html" xlink:actuate="onRequest" xlink:href="MethodUnitItemProvider.html" xlink:show="new" xlink:title="MethodUnitItemProvider.html" xlink:type="simple"><rect codeLine="14" fill="#FEFECE" filter="url(#fk5ml2xn9yv4z)" height="40.1875" id="org.eclipse.epf.uma.provider.MethodUnitItemProvider" style="stroke: #A80036; stroke-width: 1.5;" width="182" x="99.5" y="7"/><ellipse cx="114.5" cy="27.0938" fill="#ADD1B2" rx="11" ry="11" style="stroke: #A80036; stroke-width: 1.0;"/><path d="M117.2656,22.9688 Q117.4219,22.75 117.6094,22.6406 Q117.7969,22.5313 118.0156,22.5313 Q118.3906,22.5313 118.625,22.7969 Q118.8594,23.0469 118.8594,23.6563 L118.8594,25.1094 Q118.8594,25.7188 118.625,25.9844 Q118.3906,26.25 118.0156,26.25 Q117.6719,26.25 117.4688,26.0469 Q117.2656,25.8594 117.1563,25.3438 Q117.1094,24.9844 116.9219,24.7969 Q116.5938,24.4219 115.9844,24.2031 Q115.375,23.9844 114.75,23.9844 Q113.9844,23.9844 113.3438,24.3125 Q112.7188,24.6406 112.2188,25.3906 Q111.7344,26.1406 111.7344,27.1719 L111.7344,28.2656 Q111.7344,29.5 112.625,30.3281 Q113.5156,31.1406 115.1094,31.1406 Q116.0469,31.1406 116.7031,30.8906 Q117.0938,30.7344 117.5156,30.2969 Q117.7813,30.0313 117.9219,29.9531 Q118.0781,29.875 118.2813,29.875 Q118.6094,29.875 118.8594,30.1406 Q119.125,30.3906 119.125,30.7344 Q119.125,31.0781 118.7813,31.4844 Q118.2813,32.0625 117.4844,32.3906 Q116.4063,32.8438 115.1094,32.8438 Q113.5938,32.8438 112.3906,32.2188 Q111.4063,31.7188 110.7188,30.6563 Q110.0313,29.5781 110.0313,28.2969 L110.0313,27.1406 Q110.0313,25.8125 110.6406,24.6719 Q111.2656,23.5156 112.3594,22.9063 Q113.4531,22.2813 114.6875,22.2813 Q115.4219,22.2813 116.0625,22.4531 Q116.7188,22.6094 117.2656,22.9688 Z "/><text fill="#000000" font-family="sans-serif" font-size="14" lengthAdjust="spacingAndGlyphs" textLength="150" x="128.5" y="26.5332">MethodUnitItemProvider</text><text fill="#000000" font-family="sans-serif" font-size="10" lengthAdjust="spacingAndGlyphs" textLength="135" x="136" y="39.9902">org.eclipse.epf.uma.provider</text></a><!--MD5=[63d080065a27a06a966e91971039607f]
reverse link org.eclipse.epf.uma.provider.MethodUnitItemProvider to org.eclipse.epf.uma.provider.ContentDescriptionItemProvider--><path codeLine="16" d="M190.5,67.46 C190.5,79.65 190.5,93.4 190.5,106.82 " fill="none" id="org.eclipse.epf.uma.provider.MethodUnitItemProvider-backto-org.eclipse.epf.uma.provider.ContentDescriptionItemProvider" style="stroke: #A80036; stroke-width: 1.0;"/><polygon fill="none" points="183.5,67.06,190.5,47.06,197.5,67.06,183.5,67.06" style="stroke: #A80036; stroke-width: 1.0;"/><text fill="#888888" font-family="sans-serif" font-size="10" lengthAdjust="spacingAndGlyphs" textLength="190" x="92.5" y="261.584">UMLDoclet 2.0.12, PlantUML 1.2020.16</text><!--MD5=[d2473c1e86d7f49eb220491528ff77ea]
@startuml
    set namespaceSeparator none
    hide empty fields
    hide empty methods

    class "<size:14>ContentDescriptionItemProvider\n<size:10>org.eclipse.epf.uma.provider" as org.eclipse.epf.uma.provider.ContentDescriptionItemProvider [[ContentDescriptionItemProvider.html]] {
        +ContentDescriptionItemProvider(AdapterFactory)
        +getPropertyDescriptors(Object): List<IItemPropertyDescriptor>
        +getChildrenFeatures(Object): Collection<? extends EStructuralFeature>
        +getImage(Object): Object
        +getText(Object): String
        +notifyChanged(Notification): void
    }

    class "<size:14>MethodUnitItemProvider\n<size:10>org.eclipse.epf.uma.provider" as org.eclipse.epf.uma.provider.MethodUnitItemProvider [[MethodUnitItemProvider.html]]

    org.eclipse.epf.uma.provider.MethodUnitItemProvider <|- - org.eclipse.epf.uma.provider.ContentDescriptionItemProvider

    center footer UMLDoclet 2.0.12, PlantUML 1.2020.16
@enduml

PlantUML version 1.2020.16(Sun Aug 23 22:20:43 CEST 2020)
(APACHE source distribution)
Java Runtime: Java(TM) SE Runtime Environment
JVM: Java HotSpot(TM) 64-Bit Server VM
Default Encoding: Cp1252
Language: es
Country: ES
--></g></svg>