<?xml version="1.0" encoding="UTF-8" standalone="no"?><svg xmlns="http://www.w3.org/2000/svg" xmlns:xlink="http://www.w3.org/1999/xlink" contentScriptType="application/ecmascript" contentStyleType="text/css" height="275px" preserveAspectRatio="none" style="width:393px;height:275px;" version="1.1" viewBox="0 0 393 275" width="393px" zoomAndPan="magnify"><defs><filter height="300%" id="f1i2qab02xtkxp" width="300%" x="-1" y="-1"><feGaussianBlur result="blurOut" stdDeviation="2.0"/><feColorMatrix in="blurOut" result="blurOut2" type="matrix" values="0 0 0 0 0 0 0 0 0 0 0 0 0 0 0 0 0 0 .4 0"/><feOffset dx="4.0" dy="4.0" in="blurOut2" result="blurOut3"/><feBlend in="SourceGraphic" in2="blurOut3" mode="normal"/></filter></defs><g><!--MD5=[6496d47a59a90ff630dc620375c66d13]
class org.eclipse.epf.uma.provider.ContentPackageItemProvider--><a href="ContentPackageItemProvider.html" target="_top" title="ContentPackageItemProvider.html" xlink:actuate="onRequest" xlink:href="ContentPackageItemProvider.html" xlink:show="new" xlink:title="ContentPackageItemProvider.html" xlink:type="simple"><rect codeLine="5" fill="#FEFECE" filter="url(#f1i2qab02xtkxp)" height="131.2031" id="org.eclipse.epf.uma.provider.ContentPackageItemProvider" style="stroke: #A80036; stroke-width: 1.5;" width="367" x="7" y="107"/><ellipse cx="94.25" cy="127.0938" fill="#ADD1B2" rx="11" ry="11" style="stroke: #A80036; stroke-width: 1.0;"/><path d="M97.0156,122.9688 Q97.1719,122.75 97.3594,122.6406 Q97.5469,122.5313 97.7656,122.5313 Q98.1406,122.5313 98.375,122.7969 Q98.6094,123.0469 98.6094,123.6563 L98.6094,125.1094 Q98.6094,125.7188 98.375,125.9844 Q98.1406,126.25 97.7656,126.25 Q97.4219,126.25 97.2188,126.0469 Q97.0156,125.8594 96.9063,125.3438 Q96.8594,124.9844 96.6719,124.7969 Q96.3438,124.4219 95.7344,124.2031 Q95.125,123.9844 94.5,123.9844 Q93.7344,123.9844 93.0938,124.3125 Q92.4688,124.6406 91.9688,125.3906 Q91.4844,126.1406 91.4844,127.1719 L91.4844,128.2656 Q91.4844,129.5 92.375,130.3281 Q93.2656,131.1406 94.8594,131.1406 Q95.7969,131.1406 96.4531,130.8906 Q96.8438,130.7344 97.2656,130.2969 Q97.5313,130.0313 97.6719,129.9531 Q97.8281,129.875 98.0313,129.875 Q98.3594,129.875 98.6094,130.1406 Q98.875,130.3906 98.875,130.7344 Q98.875,131.0781 98.5313,131.4844 Q98.0313,132.0625 97.2344,132.3906 Q96.1563,132.8438 94.8594,132.8438 Q93.3438,132.8438 92.1406,132.2188 Q91.1563,131.7188 90.4688,130.6563 Q89.7813,129.5781 89.7813,128.2969 L89.7813,127.1406 Q89.7813,125.8125 90.3906,124.6719 Q91.0156,123.5156 92.1094,122.9063 Q93.2031,122.2813 94.4375,122.2813 Q95.1719,122.2813 95.8125,122.4531 Q96.4688,122.6094 97.0156,122.9688 Z "/><text fill="#000000" font-family="sans-serif" font-size="14" lengthAdjust="spacingAndGlyphs" textLength="184" x="114.75" y="126.5332">ContentPackageItemProvider</text><text fill="#000000" font-family="sans-serif" font-size="10" lengthAdjust="spacingAndGlyphs" textLength="135" x="139.25" y="139.9902">org.eclipse.epf.uma.provider</text><line style="stroke: #A80036; stroke-width: 1.5;" x1="8" x2="373" y1="147.1875" y2="147.1875"/><ellipse cx="18" cy="158.1875" fill="#84BE84" rx="3" ry="3" style="stroke: #038048; stroke-width: 1.0;"/><text fill="#000000" font-family="sans-serif" font-size="11" lengthAdjust="spacingAndGlyphs" textLength="221" x="27" y="162.6064">ContentPackageItemProvider(AdapterFactory)</text><ellipse cx="18" cy="172.0234" fill="#84BE84" rx="3" ry="3" style="stroke: #038048; stroke-width: 1.0;"/><text fill="#000000" font-family="sans-serif" font-size="11" lengthAdjust="spacingAndGlyphs" textLength="298" x="27" y="176.4424">getPropertyDescriptors(Object): List&lt;IItemPropertyDescriptor&gt;</text><ellipse cx="18" cy="185.8594" fill="#84BE84" rx="3" ry="3" style="stroke: #038048; stroke-width: 1.0;"/><text fill="#000000" font-family="sans-serif" font-size="11" lengthAdjust="spacingAndGlyphs" textLength="341" x="27" y="190.2783">getChildrenFeatures(Object): Collection&lt;? extends EStructuralFeature&gt;</text><ellipse cx="18" cy="199.6953" fill="#84BE84" rx="3" ry="3" style="stroke: #038048; stroke-width: 1.0;"/><text fill="#000000" font-family="sans-serif" font-size="11" lengthAdjust="spacingAndGlyphs" textLength="119" x="27" y="204.1143">getImage(Object): Object</text><ellipse cx="18" cy="213.5313" fill="#84BE84" rx="3" ry="3" style="stroke: #038048; stroke-width: 1.0;"/><text fill="#000000" font-family="sans-serif" font-size="11" lengthAdjust="spacingAndGlyphs" textLength="109" x="27" y="217.9502">getText(Object): String</text><ellipse cx="18" cy="227.3672" fill="#84BE84" rx="3" ry="3" style="stroke: #038048; stroke-width: 1.0;"/><text fill="#000000" font-family="sans-serif" font-size="11" lengthAdjust="spacingAndGlyphs" textLength="157" x="27" y="231.7861">notifyChanged(Notification): void</text></a><!--MD5=[b85110a0652a969fc54a2153196b0309]
class org.eclipse.epf.uma.provider.MethodPackageItemProvider--><a href="MethodPackageItemProvider.html" target="_top" title="MethodPackageItemProvider.html" xlink:actuate="onRequest" xlink:href="MethodPackageItemProvider.html" xlink:show="new" xlink:title="MethodPackageItemProvider.html" xlink:type="simple"><rect codeLine="14" fill="#FEFECE" filter="url(#f1i2qab02xtkxp)" height="40.1875" id="org.eclipse.epf.uma.provider.MethodPackageItemProvider" style="stroke: #A80036; stroke-width: 1.5;" width="213" x="84" y="7"/><ellipse cx="99" cy="27.0938" fill="#ADD1B2" rx="11" ry="11" style="stroke: #A80036; stroke-width: 1.0;"/><path d="M101.7656,22.9688 Q101.9219,22.75 102.1094,22.6406 Q102.2969,22.5313 102.5156,22.5313 Q102.8906,22.5313 103.125,22.7969 Q103.3594,23.0469 103.3594,23.6563 L103.3594,25.1094 Q103.3594,25.7188 103.125,25.9844 Q102.8906,26.25 102.5156,26.25 Q102.1719,26.25 101.9688,26.0469 Q101.7656,25.8594 101.6563,25.3438 Q101.6094,24.9844 101.4219,24.7969 Q101.0938,24.4219 100.4844,24.2031 Q99.875,23.9844 99.25,23.9844 Q98.4844,23.9844 97.8438,24.3125 Q97.2188,24.6406 96.7188,25.3906 Q96.2344,26.1406 96.2344,27.1719 L96.2344,28.2656 Q96.2344,29.5 97.125,30.3281 Q98.0156,31.1406 99.6094,31.1406 Q100.5469,31.1406 101.2031,30.8906 Q101.5938,30.7344 102.0156,30.2969 Q102.2813,30.0313 102.4219,29.9531 Q102.5781,29.875 102.7813,29.875 Q103.1094,29.875 103.3594,30.1406 Q103.625,30.3906 103.625,30.7344 Q103.625,31.0781 103.2813,31.4844 Q102.7813,32.0625 101.9844,32.3906 Q100.9063,32.8438 99.6094,32.8438 Q98.0938,32.8438 96.8906,32.2188 Q95.9063,31.7188 95.2188,30.6563 Q94.5313,29.5781 94.5313,28.2969 L94.5313,27.1406 Q94.5313,25.8125 95.1406,24.6719 Q95.7656,23.5156 96.8594,22.9063 Q97.9531,22.2813 99.1875,22.2813 Q99.9219,22.2813 100.5625,22.4531 Q101.2188,22.6094 101.7656,22.9688 Z "/><text fill="#000000" font-family="sans-serif" font-size="14" lengthAdjust="spacingAndGlyphs" textLength="181" x="113" y="26.5332">MethodPackageItemProvider</text><text fill="#000000" font-family="sans-serif" font-size="10" lengthAdjust="spacingAndGlyphs" textLength="135" x="136" y="39.9902">org.eclipse.epf.uma.provider</text></a><!--MD5=[4522db6f07d2e25a0885314ef200e626]
reverse link org.eclipse.epf.uma.provider.MethodPackageItemProvider to org.eclipse.epf.uma.provider.ContentPackageItemProvider--><path codeLine="16" d="M190.5,67.46 C190.5,79.65 190.5,93.4 190.5,106.82 " fill="none" id="org.eclipse.epf.uma.provider.MethodPackageItemProvider-backto-org.eclipse.epf.uma.provider.ContentPackageItemProvider" style="stroke: #A80036; stroke-width: 1.0;"/><polygon fill="none" points="183.5,67.06,190.5,47.06,197.5,67.06,183.5,67.06" style="stroke: #A80036; stroke-width: 1.0;"/><text fill="#888888" font-family="sans-serif" font-size="10" lengthAdjust="spacingAndGlyphs" textLength="190" x="92.5" y="261.584">UMLDoclet 2.0.12, PlantUML 1.2020.16</text><!--MD5=[5c55d0ad2c999796842440588115915f]
@startuml
    set namespaceSeparator none
    hide empty fields
    hide empty methods

    class "<size:14>ContentPackageItemProvider\n<size:10>org.eclipse.epf.uma.provider" as org.eclipse.epf.uma.provider.ContentPackageItemProvider [[ContentPackageItemProvider.html]] {
        +ContentPackageItemProvider(AdapterFactory)
        +getPropertyDescriptors(Object): List<IItemPropertyDescriptor>
        +getChildrenFeatures(Object): Collection<? extends EStructuralFeature>
        +getImage(Object): Object
        +getText(Object): String
        +notifyChanged(Notification): void
    }

    class "<size:14>MethodPackageItemProvider\n<size:10>org.eclipse.epf.uma.provider" as org.eclipse.epf.uma.provider.MethodPackageItemProvider [[MethodPackageItemProvider.html]]

    org.eclipse.epf.uma.provider.MethodPackageItemProvider <|- - org.eclipse.epf.uma.provider.ContentPackageItemProvider

    center footer UMLDoclet 2.0.12, PlantUML 1.2020.16
@enduml

PlantUML version 1.2020.16(Sun Aug 23 22:20:43 CEST 2020)
(APACHE source distribution)
Java Runtime: Java(TM) SE Runtime Environment
JVM: Java HotSpot(TM) 64-Bit Server VM
Default Encoding: Cp1252
Language: es
Country: ES
--></g></svg>