<?xml version="1.0" encoding="UTF-8" standalone="no"?><svg xmlns="http://www.w3.org/2000/svg" xmlns:xlink="http://www.w3.org/1999/xlink" contentScriptType="application/ecmascript" contentStyleType="text/css" height="247px" preserveAspectRatio="none" style="width:350px;height:247px;" version="1.1" viewBox="0 0 350 247" width="350px" zoomAndPan="magnify"><defs><filter height="300%" id="f14yra0jqz0azx" width="300%" x="-1" y="-1"><feGaussianBlur result="blurOut" stdDeviation="2.0"/><feColorMatrix in="blurOut" result="blurOut2" type="matrix" values="0 0 0 0 0 0 0 0 0 0 0 0 0 0 0 0 0 0 .4 0"/><feOffset dx="4.0" dy="4.0" in="blurOut2" result="blurOut3"/><feBlend in="SourceGraphic" in2="blurOut3" mode="normal"/></filter></defs><g><!--MD5=[7b5cbb136e15c2ca83e34d6bf95be865]
class org.eclipse.epf.uma.provider.ContentCategoryItemProvider--><a href="ContentCategoryItemProvider.html" target="_top" title="ContentCategoryItemProvider.html" xlink:actuate="onRequest" xlink:href="ContentCategoryItemProvider.html" xlink:show="new" xlink:title="ContentCategoryItemProvider.html" xlink:type="simple"><rect codeLine="5" fill="#FEFECE" filter="url(#f14yra0jqz0azx)" height="103.5313" id="org.eclipse.epf.uma.provider.ContentCategoryItemProvider" style="stroke: #A80036; stroke-width: 1.5;" width="324" x="7" y="107"/><ellipse cx="71.25" cy="127.0938" fill="#ADD1B2" rx="11" ry="11" style="stroke: #A80036; stroke-width: 1.0;"/><path d="M74.0156,122.9688 Q74.1719,122.75 74.3594,122.6406 Q74.5469,122.5313 74.7656,122.5313 Q75.1406,122.5313 75.375,122.7969 Q75.6094,123.0469 75.6094,123.6563 L75.6094,125.1094 Q75.6094,125.7188 75.375,125.9844 Q75.1406,126.25 74.7656,126.25 Q74.4219,126.25 74.2188,126.0469 Q74.0156,125.8594 73.9063,125.3438 Q73.8594,124.9844 73.6719,124.7969 Q73.3438,124.4219 72.7344,124.2031 Q72.125,123.9844 71.5,123.9844 Q70.7344,123.9844 70.0938,124.3125 Q69.4688,124.6406 68.9688,125.3906 Q68.4844,126.1406 68.4844,127.1719 L68.4844,128.2656 Q68.4844,129.5 69.375,130.3281 Q70.2656,131.1406 71.8594,131.1406 Q72.7969,131.1406 73.4531,130.8906 Q73.8438,130.7344 74.2656,130.2969 Q74.5313,130.0313 74.6719,129.9531 Q74.8281,129.875 75.0313,129.875 Q75.3594,129.875 75.6094,130.1406 Q75.875,130.3906 75.875,130.7344 Q75.875,131.0781 75.5313,131.4844 Q75.0313,132.0625 74.2344,132.3906 Q73.1563,132.8438 71.8594,132.8438 Q70.3438,132.8438 69.1406,132.2188 Q68.1563,131.7188 67.4688,130.6563 Q66.7813,129.5781 66.7813,128.2969 L66.7813,127.1406 Q66.7813,125.8125 67.3906,124.6719 Q68.0156,123.5156 69.1094,122.9063 Q70.2031,122.2813 71.4375,122.2813 Q72.1719,122.2813 72.8125,122.4531 Q73.4688,122.6094 74.0156,122.9688 Z "/><text fill="#000000" font-family="sans-serif" font-size="14" lengthAdjust="spacingAndGlyphs" textLength="187" x="91.75" y="126.5332">ContentCategoryItemProvider</text><text fill="#000000" font-family="sans-serif" font-size="10" lengthAdjust="spacingAndGlyphs" textLength="135" x="117.75" y="139.9902">org.eclipse.epf.uma.provider</text><line style="stroke: #A80036; stroke-width: 1.5;" x1="8" x2="330" y1="147.1875" y2="147.1875"/><ellipse cx="18" cy="158.1875" fill="#84BE84" rx="3" ry="3" style="stroke: #038048; stroke-width: 1.0;"/><text fill="#000000" font-family="sans-serif" font-size="11" lengthAdjust="spacingAndGlyphs" textLength="224" x="27" y="162.6064">ContentCategoryItemProvider(AdapterFactory)</text><ellipse cx="18" cy="172.0234" fill="#84BE84" rx="3" ry="3" style="stroke: #038048; stroke-width: 1.0;"/><text fill="#000000" font-family="sans-serif" font-size="11" lengthAdjust="spacingAndGlyphs" textLength="298" x="27" y="176.4424">getPropertyDescriptors(Object): List&lt;IItemPropertyDescriptor&gt;</text><ellipse cx="18" cy="185.8594" fill="#84BE84" rx="3" ry="3" style="stroke: #038048; stroke-width: 1.0;"/><text fill="#000000" font-family="sans-serif" font-size="11" lengthAdjust="spacingAndGlyphs" textLength="109" x="27" y="190.2783">getText(Object): String</text><ellipse cx="18" cy="199.6953" fill="#84BE84" rx="3" ry="3" style="stroke: #038048; stroke-width: 1.0;"/><text fill="#000000" font-family="sans-serif" font-size="11" lengthAdjust="spacingAndGlyphs" textLength="157" x="27" y="204.1143">notifyChanged(Notification): void</text></a><!--MD5=[4016343f8d6f5b939b649f5cb8d77d02]
class org.eclipse.epf.uma.provider.ContentElementItemProvider--><a href="ContentElementItemProvider.html" target="_top" title="ContentElementItemProvider.html" xlink:actuate="onRequest" xlink:href="ContentElementItemProvider.html" xlink:show="new" xlink:title="ContentElementItemProvider.html" xlink:type="simple"><rect codeLine="12" fill="#FEFECE" filter="url(#f14yra0jqz0azx)" height="40.1875" id="org.eclipse.epf.uma.provider.ContentElementItemProvider" style="stroke: #A80036; stroke-width: 1.5;" width="212" x="63" y="7"/><ellipse cx="78" cy="27.0938" fill="#ADD1B2" rx="11" ry="11" style="stroke: #A80036; stroke-width: 1.0;"/><path d="M80.7656,22.9688 Q80.9219,22.75 81.1094,22.6406 Q81.2969,22.5313 81.5156,22.5313 Q81.8906,22.5313 82.125,22.7969 Q82.3594,23.0469 82.3594,23.6563 L82.3594,25.1094 Q82.3594,25.7188 82.125,25.9844 Q81.8906,26.25 81.5156,26.25 Q81.1719,26.25 80.9688,26.0469 Q80.7656,25.8594 80.6563,25.3438 Q80.6094,24.9844 80.4219,24.7969 Q80.0938,24.4219 79.4844,24.2031 Q78.875,23.9844 78.25,23.9844 Q77.4844,23.9844 76.8438,24.3125 Q76.2188,24.6406 75.7188,25.3906 Q75.2344,26.1406 75.2344,27.1719 L75.2344,28.2656 Q75.2344,29.5 76.125,30.3281 Q77.0156,31.1406 78.6094,31.1406 Q79.5469,31.1406 80.2031,30.8906 Q80.5938,30.7344 81.0156,30.2969 Q81.2813,30.0313 81.4219,29.9531 Q81.5781,29.875 81.7813,29.875 Q82.1094,29.875 82.3594,30.1406 Q82.625,30.3906 82.625,30.7344 Q82.625,31.0781 82.2813,31.4844 Q81.7813,32.0625 80.9844,32.3906 Q79.9063,32.8438 78.6094,32.8438 Q77.0938,32.8438 75.8906,32.2188 Q74.9063,31.7188 74.2188,30.6563 Q73.5313,29.5781 73.5313,28.2969 L73.5313,27.1406 Q73.5313,25.8125 74.1406,24.6719 Q74.7656,23.5156 75.8594,22.9063 Q76.9531,22.2813 78.1875,22.2813 Q78.9219,22.2813 79.5625,22.4531 Q80.2188,22.6094 80.7656,22.9688 Z "/><text fill="#000000" font-family="sans-serif" font-size="14" lengthAdjust="spacingAndGlyphs" textLength="180" x="92" y="26.5332">ContentElementItemProvider</text><text fill="#000000" font-family="sans-serif" font-size="10" lengthAdjust="spacingAndGlyphs" textLength="135" x="114.5" y="39.9902">org.eclipse.epf.uma.provider</text></a><!--MD5=[4897d20e336ea25b100196096ed56c21]
reverse link org.eclipse.epf.uma.provider.ContentElementItemProvider to org.eclipse.epf.uma.provider.ContentCategoryItemProvider--><path codeLine="14" d="M169,67.49 C169,79.93 169,93.86 169,106.99 " fill="none" id="org.eclipse.epf.uma.provider.ContentElementItemProvider-backto-org.eclipse.epf.uma.provider.ContentCategoryItemProvider" style="stroke: #A80036; stroke-width: 1.0;"/><polygon fill="none" points="162,67.18,169,47.18,176,67.18,162,67.18" style="stroke: #A80036; stroke-width: 1.0;"/><text fill="#888888" font-family="sans-serif" font-size="10" lengthAdjust="spacingAndGlyphs" textLength="190" x="71" y="233.9121">UMLDoclet 2.0.12, PlantUML 1.2020.16</text><!--MD5=[4f6cc1ef1124fb582a8dca0fc677ac17]
@startuml
    set namespaceSeparator none
    hide empty fields
    hide empty methods

    class "<size:14>ContentCategoryItemProvider\n<size:10>org.eclipse.epf.uma.provider" as org.eclipse.epf.uma.provider.ContentCategoryItemProvider [[ContentCategoryItemProvider.html]] {
        +ContentCategoryItemProvider(AdapterFactory)
        +getPropertyDescriptors(Object): List<IItemPropertyDescriptor>
        +getText(Object): String
        +notifyChanged(Notification): void
    }

    class "<size:14>ContentElementItemProvider\n<size:10>org.eclipse.epf.uma.provider" as org.eclipse.epf.uma.provider.ContentElementItemProvider [[ContentElementItemProvider.html]]

    org.eclipse.epf.uma.provider.ContentElementItemProvider <|- - org.eclipse.epf.uma.provider.ContentCategoryItemProvider

    center footer UMLDoclet 2.0.12, PlantUML 1.2020.16
@enduml

PlantUML version 1.2020.16(Sun Aug 23 22:20:43 CEST 2020)
(APACHE source distribution)
Java Runtime: Java(TM) SE Runtime Environment
JVM: Java HotSpot(TM) 64-Bit Server VM
Default Encoding: Cp1252
Language: es
Country: ES
--></g></svg>