<?xml version="1.0" encoding="UTF-8" standalone="no"?><svg xmlns="http://www.w3.org/2000/svg" xmlns:xlink="http://www.w3.org/1999/xlink" contentScriptType="application/ecmascript" contentStyleType="text/css" height="261px" preserveAspectRatio="none" style="width:350px;height:261px;" version="1.1" viewBox="0 0 350 261" width="350px" zoomAndPan="magnify"><defs><filter height="300%" id="f584cie5x5bzv" width="300%" x="-1" y="-1"><feGaussianBlur result="blurOut" stdDeviation="2.0"/><feColorMatrix in="blurOut" result="blurOut2" type="matrix" values="0 0 0 0 0 0 0 0 0 0 0 0 0 0 0 0 0 0 .4 0"/><feOffset dx="4.0" dy="4.0" in="blurOut2" result="blurOut3"/><feBlend in="SourceGraphic" in2="blurOut3" mode="normal"/></filter></defs><g><!--MD5=[36119c20d8cdc4f6eca46f4e70a613b4]
class org.eclipse.epf.uma.provider.DeliveryProcessDescriptionItemProvider--><a href="DeliveryProcessDescriptionItemProvider.html" target="_top" title="DeliveryProcessDescriptionItemProvider.html" xlink:actuate="onRequest" xlink:href="DeliveryProcessDescriptionItemProvider.html" xlink:show="new" xlink:title="DeliveryProcessDescriptionItemProvider.html" xlink:type="simple"><rect codeLine="5" fill="#FEFECE" filter="url(#f584cie5x5bzv)" height="117.3672" id="org.eclipse.epf.uma.provider.DeliveryProcessDescriptionItemProvider" style="stroke: #A80036; stroke-width: 1.5;" width="324" x="7" y="107"/><ellipse cx="40" cy="127.0938" fill="#ADD1B2" rx="11" ry="11" style="stroke: #A80036; stroke-width: 1.0;"/><path d="M42.7656,122.9688 Q42.9219,122.75 43.1094,122.6406 Q43.2969,122.5313 43.5156,122.5313 Q43.8906,122.5313 44.125,122.7969 Q44.3594,123.0469 44.3594,123.6563 L44.3594,125.1094 Q44.3594,125.7188 44.125,125.9844 Q43.8906,126.25 43.5156,126.25 Q43.1719,126.25 42.9688,126.0469 Q42.7656,125.8594 42.6563,125.3438 Q42.6094,124.9844 42.4219,124.7969 Q42.0938,124.4219 41.4844,124.2031 Q40.875,123.9844 40.25,123.9844 Q39.4844,123.9844 38.8438,124.3125 Q38.2188,124.6406 37.7188,125.3906 Q37.2344,126.1406 37.2344,127.1719 L37.2344,128.2656 Q37.2344,129.5 38.125,130.3281 Q39.0156,131.1406 40.6094,131.1406 Q41.5469,131.1406 42.2031,130.8906 Q42.5938,130.7344 43.0156,130.2969 Q43.2813,130.0313 43.4219,129.9531 Q43.5781,129.875 43.7813,129.875 Q44.1094,129.875 44.3594,130.1406 Q44.625,130.3906 44.625,130.7344 Q44.625,131.0781 44.2813,131.4844 Q43.7813,132.0625 42.9844,132.3906 Q41.9063,132.8438 40.6094,132.8438 Q39.0938,132.8438 37.8906,132.2188 Q36.9063,131.7188 36.2188,130.6563 Q35.5313,129.5781 35.5313,128.2969 L35.5313,127.1406 Q35.5313,125.8125 36.1406,124.6719 Q36.7656,123.5156 37.8594,122.9063 Q38.9531,122.2813 40.1875,122.2813 Q40.9219,122.2813 41.5625,122.4531 Q42.2188,122.6094 42.7656,122.9688 Z "/><text fill="#000000" font-family="sans-serif" font-size="14" lengthAdjust="spacingAndGlyphs" textLength="252" x="58" y="126.5332">DeliveryProcessDescriptionItemProvider</text><text fill="#000000" font-family="sans-serif" font-size="10" lengthAdjust="spacingAndGlyphs" textLength="135" x="116.5" y="139.9902">org.eclipse.epf.uma.provider</text><line style="stroke: #A80036; stroke-width: 1.5;" x1="8" x2="330" y1="147.1875" y2="147.1875"/><ellipse cx="18" cy="158.1875" fill="#84BE84" rx="3" ry="3" style="stroke: #038048; stroke-width: 1.0;"/><text fill="#000000" font-family="sans-serif" font-size="11" lengthAdjust="spacingAndGlyphs" textLength="276" x="27" y="162.6064">DeliveryProcessDescriptionItemProvider(AdapterFactory)</text><ellipse cx="18" cy="172.0234" fill="#84BE84" rx="3" ry="3" style="stroke: #038048; stroke-width: 1.0;"/><text fill="#000000" font-family="sans-serif" font-size="11" lengthAdjust="spacingAndGlyphs" textLength="298" x="27" y="176.4424">getPropertyDescriptors(Object): List&lt;IItemPropertyDescriptor&gt;</text><ellipse cx="18" cy="185.8594" fill="#84BE84" rx="3" ry="3" style="stroke: #038048; stroke-width: 1.0;"/><text fill="#000000" font-family="sans-serif" font-size="11" lengthAdjust="spacingAndGlyphs" textLength="119" x="27" y="190.2783">getImage(Object): Object</text><ellipse cx="18" cy="199.6953" fill="#84BE84" rx="3" ry="3" style="stroke: #038048; stroke-width: 1.0;"/><text fill="#000000" font-family="sans-serif" font-size="11" lengthAdjust="spacingAndGlyphs" textLength="109" x="27" y="204.1143">getText(Object): String</text><ellipse cx="18" cy="213.5313" fill="#84BE84" rx="3" ry="3" style="stroke: #038048; stroke-width: 1.0;"/><text fill="#000000" font-family="sans-serif" font-size="11" lengthAdjust="spacingAndGlyphs" textLength="157" x="27" y="217.9502">notifyChanged(Notification): void</text></a><!--MD5=[e30b81b36b4554d2ffd868e5aa7f5882]
class org.eclipse.epf.uma.provider.ProcessDescriptionItemProvider--><a href="ProcessDescriptionItemProvider.html" target="_top" title="ProcessDescriptionItemProvider.html" xlink:actuate="onRequest" xlink:href="ProcessDescriptionItemProvider.html" xlink:show="new" xlink:title="ProcessDescriptionItemProvider.html" xlink:type="simple"><rect codeLine="13" fill="#FEFECE" filter="url(#f584cie5x5bzv)" height="40.1875" id="org.eclipse.epf.uma.provider.ProcessDescriptionItemProvider" style="stroke: #A80036; stroke-width: 1.5;" width="233" x="52.5" y="7"/><ellipse cx="67.5" cy="27.0938" fill="#ADD1B2" rx="11" ry="11" style="stroke: #A80036; stroke-width: 1.0;"/><path d="M70.2656,22.9688 Q70.4219,22.75 70.6094,22.6406 Q70.7969,22.5313 71.0156,22.5313 Q71.3906,22.5313 71.625,22.7969 Q71.8594,23.0469 71.8594,23.6563 L71.8594,25.1094 Q71.8594,25.7188 71.625,25.9844 Q71.3906,26.25 71.0156,26.25 Q70.6719,26.25 70.4688,26.0469 Q70.2656,25.8594 70.1563,25.3438 Q70.1094,24.9844 69.9219,24.7969 Q69.5938,24.4219 68.9844,24.2031 Q68.375,23.9844 67.75,23.9844 Q66.9844,23.9844 66.3438,24.3125 Q65.7188,24.6406 65.2188,25.3906 Q64.7344,26.1406 64.7344,27.1719 L64.7344,28.2656 Q64.7344,29.5 65.625,30.3281 Q66.5156,31.1406 68.1094,31.1406 Q69.0469,31.1406 69.7031,30.8906 Q70.0938,30.7344 70.5156,30.2969 Q70.7813,30.0313 70.9219,29.9531 Q71.0781,29.875 71.2813,29.875 Q71.6094,29.875 71.8594,30.1406 Q72.125,30.3906 72.125,30.7344 Q72.125,31.0781 71.7813,31.4844 Q71.2813,32.0625 70.4844,32.3906 Q69.4063,32.8438 68.1094,32.8438 Q66.5938,32.8438 65.3906,32.2188 Q64.4063,31.7188 63.7188,30.6563 Q63.0313,29.5781 63.0313,28.2969 L63.0313,27.1406 Q63.0313,25.8125 63.6406,24.6719 Q64.2656,23.5156 65.3594,22.9063 Q66.4531,22.2813 67.6875,22.2813 Q68.4219,22.2813 69.0625,22.4531 Q69.7188,22.6094 70.2656,22.9688 Z "/><text fill="#000000" font-family="sans-serif" font-size="14" lengthAdjust="spacingAndGlyphs" textLength="201" x="81.5" y="26.5332">ProcessDescriptionItemProvider</text><text fill="#000000" font-family="sans-serif" font-size="10" lengthAdjust="spacingAndGlyphs" textLength="135" x="114.5" y="39.9902">org.eclipse.epf.uma.provider</text></a><!--MD5=[bb93be16e1f1e763ed160fad03e9260c]
reverse link org.eclipse.epf.uma.provider.ProcessDescriptionItemProvider to org.eclipse.epf.uma.provider.DeliveryProcessDescriptionItemProvider--><path codeLine="15" d="M169,67.38 C169,79.73 169,93.63 169,106.97 " fill="none" id="org.eclipse.epf.uma.provider.ProcessDescriptionItemProvider-backto-org.eclipse.epf.uma.provider.DeliveryProcessDescriptionItemProvider" style="stroke: #A80036; stroke-width: 1.0;"/><polygon fill="none" points="162,67.27,169,47.27,176,67.27,162,67.27" style="stroke: #A80036; stroke-width: 1.0;"/><text fill="#888888" font-family="sans-serif" font-size="10" lengthAdjust="spacingAndGlyphs" textLength="190" x="71" y="247.748">UMLDoclet 2.0.12, PlantUML 1.2020.16</text><!--MD5=[bfd086d448acb0a09b2020cd20cda337]
@startuml
    set namespaceSeparator none
    hide empty fields
    hide empty methods

    class "<size:14>DeliveryProcessDescriptionItemProvider\n<size:10>org.eclipse.epf.uma.provider" as org.eclipse.epf.uma.provider.DeliveryProcessDescriptionItemProvider [[DeliveryProcessDescriptionItemProvider.html]] {
        +DeliveryProcessDescriptionItemProvider(AdapterFactory)
        +getPropertyDescriptors(Object): List<IItemPropertyDescriptor>
        +getImage(Object): Object
        +getText(Object): String
        +notifyChanged(Notification): void
    }

    class "<size:14>ProcessDescriptionItemProvider\n<size:10>org.eclipse.epf.uma.provider" as org.eclipse.epf.uma.provider.ProcessDescriptionItemProvider [[ProcessDescriptionItemProvider.html]]

    org.eclipse.epf.uma.provider.ProcessDescriptionItemProvider <|- - org.eclipse.epf.uma.provider.DeliveryProcessDescriptionItemProvider

    center footer UMLDoclet 2.0.12, PlantUML 1.2020.16
@enduml

PlantUML version 1.2020.16(Sun Aug 23 22:20:43 CEST 2020)
(APACHE source distribution)
Java Runtime: Java(TM) SE Runtime Environment
JVM: Java HotSpot(TM) 64-Bit Server VM
Default Encoding: Cp1252
Language: es
Country: ES
--></g></svg>