<?xml version="1.0" encoding="UTF-8" standalone="no"?><svg xmlns="http://www.w3.org/2000/svg" xmlns:xlink="http://www.w3.org/1999/xlink" contentScriptType="application/ecmascript" contentStyleType="text/css" height="247px" preserveAspectRatio="none" style="width:350px;height:247px;" version="1.1" viewBox="0 0 350 247" width="350px" zoomAndPan="magnify"><defs><filter height="300%" id="facm0s8r1u25r" width="300%" x="-1" y="-1"><feGaussianBlur result="blurOut" stdDeviation="2.0"/><feColorMatrix in="blurOut" result="blurOut2" type="matrix" values="0 0 0 0 0 0 0 0 0 0 0 0 0 0 0 0 0 0 .4 0"/><feOffset dx="4.0" dy="4.0" in="blurOut2" result="blurOut3"/><feBlend in="SourceGraphic" in2="blurOut3" mode="normal"/></filter></defs><g><!--MD5=[426a62f909488c300da243a010d35ec2]
class org.eclipse.epf.uma.provider.DescriptorItemProvider--><a href="DescriptorItemProvider.html" target="_top" title="DescriptorItemProvider.html" xlink:actuate="onRequest" xlink:href="DescriptorItemProvider.html" xlink:show="new" xlink:title="DescriptorItemProvider.html" xlink:type="simple"><rect codeLine="5" fill="#FEFECE" filter="url(#facm0s8r1u25r)" height="103.5313" id="org.eclipse.epf.uma.provider.DescriptorItemProvider" style="stroke: #A80036; stroke-width: 1.5;" width="324" x="7" y="107"/><ellipse cx="92.75" cy="127.0938" fill="#ADD1B2" rx="11" ry="11" style="stroke: #A80036; stroke-width: 1.0;"/><path d="M95.5156,122.9688 Q95.6719,122.75 95.8594,122.6406 Q96.0469,122.5313 96.2656,122.5313 Q96.6406,122.5313 96.875,122.7969 Q97.1094,123.0469 97.1094,123.6563 L97.1094,125.1094 Q97.1094,125.7188 96.875,125.9844 Q96.6406,126.25 96.2656,126.25 Q95.9219,126.25 95.7188,126.0469 Q95.5156,125.8594 95.4063,125.3438 Q95.3594,124.9844 95.1719,124.7969 Q94.8438,124.4219 94.2344,124.2031 Q93.625,123.9844 93,123.9844 Q92.2344,123.9844 91.5938,124.3125 Q90.9688,124.6406 90.4688,125.3906 Q89.9844,126.1406 89.9844,127.1719 L89.9844,128.2656 Q89.9844,129.5 90.875,130.3281 Q91.7656,131.1406 93.3594,131.1406 Q94.2969,131.1406 94.9531,130.8906 Q95.3438,130.7344 95.7656,130.2969 Q96.0313,130.0313 96.1719,129.9531 Q96.3281,129.875 96.5313,129.875 Q96.8594,129.875 97.1094,130.1406 Q97.375,130.3906 97.375,130.7344 Q97.375,131.0781 97.0313,131.4844 Q96.5313,132.0625 95.7344,132.3906 Q94.6563,132.8438 93.3594,132.8438 Q91.8438,132.8438 90.6406,132.2188 Q89.6563,131.7188 88.9688,130.6563 Q88.2813,129.5781 88.2813,128.2969 L88.2813,127.1406 Q88.2813,125.8125 88.8906,124.6719 Q89.5156,123.5156 90.6094,122.9063 Q91.7031,122.2813 92.9375,122.2813 Q93.6719,122.2813 94.3125,122.4531 Q94.9688,122.6094 95.5156,122.9688 Z "/><text fill="#000000" font-family="sans-serif" font-size="14" lengthAdjust="spacingAndGlyphs" textLength="144" x="113.25" y="126.5332">DescriptorItemProvider</text><text fill="#000000" font-family="sans-serif" font-size="10" lengthAdjust="spacingAndGlyphs" textLength="135" x="117.75" y="139.9902">org.eclipse.epf.uma.provider</text><line style="stroke: #A80036; stroke-width: 1.5;" x1="8" x2="330" y1="147.1875" y2="147.1875"/><ellipse cx="18" cy="158.1875" fill="#84BE84" rx="3" ry="3" style="stroke: #038048; stroke-width: 1.0;"/><text fill="#000000" font-family="sans-serif" font-size="11" lengthAdjust="spacingAndGlyphs" textLength="193" x="27" y="162.6064">DescriptorItemProvider(AdapterFactory)</text><ellipse cx="18" cy="172.0234" fill="#84BE84" rx="3" ry="3" style="stroke: #038048; stroke-width: 1.0;"/><text fill="#000000" font-family="sans-serif" font-size="11" lengthAdjust="spacingAndGlyphs" textLength="298" x="27" y="176.4424">getPropertyDescriptors(Object): List&lt;IItemPropertyDescriptor&gt;</text><ellipse cx="18" cy="185.8594" fill="#84BE84" rx="3" ry="3" style="stroke: #038048; stroke-width: 1.0;"/><text fill="#000000" font-family="sans-serif" font-size="11" lengthAdjust="spacingAndGlyphs" textLength="109" x="27" y="190.2783">getText(Object): String</text><ellipse cx="18" cy="199.6953" fill="#84BE84" rx="3" ry="3" style="stroke: #038048; stroke-width: 1.0;"/><text fill="#000000" font-family="sans-serif" font-size="11" lengthAdjust="spacingAndGlyphs" textLength="157" x="27" y="204.1143">notifyChanged(Notification): void</text></a><!--MD5=[4d733c9b63805ad9f8a76e566aef6752]
class org.eclipse.epf.uma.provider.BreakdownElementItemProvider--><a href="BreakdownElementItemProvider.html" target="_top" title="BreakdownElementItemProvider.html" xlink:actuate="onRequest" xlink:href="BreakdownElementItemProvider.html" xlink:show="new" xlink:title="BreakdownElementItemProvider.html" xlink:type="simple"><rect codeLine="12" fill="#FEFECE" filter="url(#facm0s8r1u25r)" height="40.1875" id="org.eclipse.epf.uma.provider.BreakdownElementItemProvider" style="stroke: #A80036; stroke-width: 1.5;" width="232" x="53" y="7"/><ellipse cx="68" cy="27.0938" fill="#ADD1B2" rx="11" ry="11" style="stroke: #A80036; stroke-width: 1.0;"/><path d="M70.7656,22.9688 Q70.9219,22.75 71.1094,22.6406 Q71.2969,22.5313 71.5156,22.5313 Q71.8906,22.5313 72.125,22.7969 Q72.3594,23.0469 72.3594,23.6563 L72.3594,25.1094 Q72.3594,25.7188 72.125,25.9844 Q71.8906,26.25 71.5156,26.25 Q71.1719,26.25 70.9688,26.0469 Q70.7656,25.8594 70.6563,25.3438 Q70.6094,24.9844 70.4219,24.7969 Q70.0938,24.4219 69.4844,24.2031 Q68.875,23.9844 68.25,23.9844 Q67.4844,23.9844 66.8438,24.3125 Q66.2188,24.6406 65.7188,25.3906 Q65.2344,26.1406 65.2344,27.1719 L65.2344,28.2656 Q65.2344,29.5 66.125,30.3281 Q67.0156,31.1406 68.6094,31.1406 Q69.5469,31.1406 70.2031,30.8906 Q70.5938,30.7344 71.0156,30.2969 Q71.2813,30.0313 71.4219,29.9531 Q71.5781,29.875 71.7813,29.875 Q72.1094,29.875 72.3594,30.1406 Q72.625,30.3906 72.625,30.7344 Q72.625,31.0781 72.2813,31.4844 Q71.7813,32.0625 70.9844,32.3906 Q69.9063,32.8438 68.6094,32.8438 Q67.0938,32.8438 65.8906,32.2188 Q64.9063,31.7188 64.2188,30.6563 Q63.5313,29.5781 63.5313,28.2969 L63.5313,27.1406 Q63.5313,25.8125 64.1406,24.6719 Q64.7656,23.5156 65.8594,22.9063 Q66.9531,22.2813 68.1875,22.2813 Q68.9219,22.2813 69.5625,22.4531 Q70.2188,22.6094 70.7656,22.9688 Z "/><text fill="#000000" font-family="sans-serif" font-size="14" lengthAdjust="spacingAndGlyphs" textLength="200" x="82" y="26.5332">BreakdownElementItemProvider</text><text fill="#000000" font-family="sans-serif" font-size="10" lengthAdjust="spacingAndGlyphs" textLength="135" x="114.5" y="39.9902">org.eclipse.epf.uma.provider</text></a><!--MD5=[8720cf925e63d7d09cf10ce90d6db7c8]
reverse link org.eclipse.epf.uma.provider.BreakdownElementItemProvider to org.eclipse.epf.uma.provider.DescriptorItemProvider--><path codeLine="14" d="M169,67.49 C169,79.93 169,93.86 169,106.99 " fill="none" id="org.eclipse.epf.uma.provider.BreakdownElementItemProvider-backto-org.eclipse.epf.uma.provider.DescriptorItemProvider" style="stroke: #A80036; stroke-width: 1.0;"/><polygon fill="none" points="162,67.18,169,47.18,176,67.18,162,67.18" style="stroke: #A80036; stroke-width: 1.0;"/><text fill="#888888" font-family="sans-serif" font-size="10" lengthAdjust="spacingAndGlyphs" textLength="190" x="71" y="233.9121">UMLDoclet 2.0.12, PlantUML 1.2020.16</text><!--MD5=[2cc8147c55ede3ea1db19e99f8e5162e]
@startuml
    set namespaceSeparator none
    hide empty fields
    hide empty methods

    class "<size:14>DescriptorItemProvider\n<size:10>org.eclipse.epf.uma.provider" as org.eclipse.epf.uma.provider.DescriptorItemProvider [[DescriptorItemProvider.html]] {
        +DescriptorItemProvider(AdapterFactory)
        +getPropertyDescriptors(Object): List<IItemPropertyDescriptor>
        +getText(Object): String
        +notifyChanged(Notification): void
    }

    class "<size:14>BreakdownElementItemProvider\n<size:10>org.eclipse.epf.uma.provider" as org.eclipse.epf.uma.provider.BreakdownElementItemProvider [[BreakdownElementItemProvider.html]]

    org.eclipse.epf.uma.provider.BreakdownElementItemProvider <|- - org.eclipse.epf.uma.provider.DescriptorItemProvider

    center footer UMLDoclet 2.0.12, PlantUML 1.2020.16
@enduml

PlantUML version 1.2020.16(Sun Aug 23 22:20:43 CEST 2020)
(APACHE source distribution)
Java Runtime: Java(TM) SE Runtime Environment
JVM: Java HotSpot(TM) 64-Bit Server VM
Default Encoding: Cp1252
Language: es
Country: ES
--></g></svg>