<?xml version="1.0" encoding="UTF-8" standalone="no"?><svg xmlns="http://www.w3.org/2000/svg" xmlns:xlink="http://www.w3.org/1999/xlink" contentScriptType="application/ecmascript" contentStyleType="text/css" height="288px" preserveAspectRatio="none" style="width:393px;height:288px;" version="1.1" viewBox="0 0 393 288" width="393px" zoomAndPan="magnify"><defs><filter height="300%" id="fkr7foo95ruc" width="300%" x="-1" y="-1"><feGaussianBlur result="blurOut" stdDeviation="2.0"/><feColorMatrix in="blurOut" result="blurOut2" type="matrix" values="0 0 0 0 0 0 0 0 0 0 0 0 0 0 0 0 0 0 .4 0"/><feOffset dx="4.0" dy="4.0" in="blurOut2" result="blurOut3"/><feBlend in="SourceGraphic" in2="blurOut3" mode="normal"/></filter></defs><g><!--MD5=[4d5dc8fc682c14a39d79ffd18352095d]
class org.eclipse.epf.uma.provider.DiagramItemProvider--><a href="DiagramItemProvider.html" target="_top" title="DiagramItemProvider.html" xlink:actuate="onRequest" xlink:href="DiagramItemProvider.html" xlink:show="new" xlink:title="DiagramItemProvider.html" xlink:type="simple"><rect codeLine="5" fill="#FEFECE" filter="url(#fkr7foo95ruc)" height="145.0391" id="org.eclipse.epf.uma.provider.DiagramItemProvider" style="stroke: #A80036; stroke-width: 1.5;" width="367" x="7" y="107"/><ellipse cx="118.75" cy="127.0938" fill="#ADD1B2" rx="11" ry="11" style="stroke: #A80036; stroke-width: 1.0;"/><path d="M121.5156,122.9688 Q121.6719,122.75 121.8594,122.6406 Q122.0469,122.5313 122.2656,122.5313 Q122.6406,122.5313 122.875,122.7969 Q123.1094,123.0469 123.1094,123.6563 L123.1094,125.1094 Q123.1094,125.7188 122.875,125.9844 Q122.6406,126.25 122.2656,126.25 Q121.9219,126.25 121.7188,126.0469 Q121.5156,125.8594 121.4063,125.3438 Q121.3594,124.9844 121.1719,124.7969 Q120.8438,124.4219 120.2344,124.2031 Q119.625,123.9844 119,123.9844 Q118.2344,123.9844 117.5938,124.3125 Q116.9688,124.6406 116.4688,125.3906 Q115.9844,126.1406 115.9844,127.1719 L115.9844,128.2656 Q115.9844,129.5 116.875,130.3281 Q117.7656,131.1406 119.3594,131.1406 Q120.2969,131.1406 120.9531,130.8906 Q121.3438,130.7344 121.7656,130.2969 Q122.0313,130.0313 122.1719,129.9531 Q122.3281,129.875 122.5313,129.875 Q122.8594,129.875 123.1094,130.1406 Q123.375,130.3906 123.375,130.7344 Q123.375,131.0781 123.0313,131.4844 Q122.5313,132.0625 121.7344,132.3906 Q120.6563,132.8438 119.3594,132.8438 Q117.8438,132.8438 116.6406,132.2188 Q115.6563,131.7188 114.9688,130.6563 Q114.2813,129.5781 114.2813,128.2969 L114.2813,127.1406 Q114.2813,125.8125 114.8906,124.6719 Q115.5156,123.5156 116.6094,122.9063 Q117.7031,122.2813 118.9375,122.2813 Q119.6719,122.2813 120.3125,122.4531 Q120.9688,122.6094 121.5156,122.9688 Z "/><text fill="#000000" font-family="sans-serif" font-size="14" lengthAdjust="spacingAndGlyphs" textLength="132" x="140.75" y="126.5332">DiagramItemProvider</text><text fill="#000000" font-family="sans-serif" font-size="10" lengthAdjust="spacingAndGlyphs" textLength="135" x="139.25" y="139.9902">org.eclipse.epf.uma.provider</text><line style="stroke: #A80036; stroke-width: 1.5;" x1="8" x2="373" y1="147.1875" y2="147.1875"/><ellipse cx="18" cy="158.1875" fill="#84BE84" rx="3" ry="3" style="stroke: #038048; stroke-width: 1.0;"/><text fill="#000000" font-family="sans-serif" font-size="11" lengthAdjust="spacingAndGlyphs" textLength="182" x="27" y="162.6064">DiagramItemProvider(AdapterFactory)</text><ellipse cx="18" cy="172.0234" fill="#84BE84" rx="3" ry="3" style="stroke: #038048; stroke-width: 1.0;"/><text fill="#000000" font-family="sans-serif" font-size="11" lengthAdjust="spacingAndGlyphs" textLength="298" x="27" y="176.4424">getPropertyDescriptors(Object): List&lt;IItemPropertyDescriptor&gt;</text><ellipse cx="18" cy="185.8594" fill="#84BE84" rx="3" ry="3" style="stroke: #038048; stroke-width: 1.0;"/><text fill="#000000" font-family="sans-serif" font-size="11" lengthAdjust="spacingAndGlyphs" textLength="341" x="27" y="190.2783">getChildrenFeatures(Object): Collection&lt;? extends EStructuralFeature&gt;</text><ellipse cx="18" cy="199.6953" fill="#84BE84" rx="3" ry="3" style="stroke: #038048; stroke-width: 1.0;"/><text fill="#000000" font-family="sans-serif" font-size="11" lengthAdjust="spacingAndGlyphs" textLength="119" x="27" y="204.1143">getImage(Object): Object</text><ellipse cx="18" cy="213.5313" fill="#84BE84" rx="3" ry="3" style="stroke: #038048; stroke-width: 1.0;"/><text fill="#000000" font-family="sans-serif" font-size="11" lengthAdjust="spacingAndGlyphs" textLength="109" x="27" y="217.9502">getText(Object): String</text><ellipse cx="18" cy="227.3672" fill="#84BE84" rx="3" ry="3" style="stroke: #038048; stroke-width: 1.0;"/><text fill="#000000" font-family="sans-serif" font-size="11" lengthAdjust="spacingAndGlyphs" textLength="157" x="27" y="231.7861">notifyChanged(Notification): void</text><ellipse cx="18" cy="241.2031" fill="#84BE84" rx="3" ry="3" style="stroke: #038048; stroke-width: 1.0;"/><text fill="#000000" font-family="sans-serif" font-size="11" lengthAdjust="spacingAndGlyphs" textLength="308" x="27" y="245.6221">getCreateChildText(Object, Object, Object, Collection&lt;?&gt;): String</text></a><!--MD5=[05d08c789838a67e9ffd26fb757a105f]
class org.eclipse.epf.uma.provider.GraphNodeItemProvider--><a href="GraphNodeItemProvider.html" target="_top" title="GraphNodeItemProvider.html" xlink:actuate="onRequest" xlink:href="GraphNodeItemProvider.html" xlink:show="new" xlink:title="GraphNodeItemProvider.html" xlink:type="simple"><rect codeLine="15" fill="#FEFECE" filter="url(#fkr7foo95ruc)" height="40.1875" id="org.eclipse.epf.uma.provider.GraphNodeItemProvider" style="stroke: #A80036; stroke-width: 1.5;" width="184" x="98.5" y="7"/><ellipse cx="113.5" cy="27.0938" fill="#ADD1B2" rx="11" ry="11" style="stroke: #A80036; stroke-width: 1.0;"/><path d="M116.2656,22.9688 Q116.4219,22.75 116.6094,22.6406 Q116.7969,22.5313 117.0156,22.5313 Q117.3906,22.5313 117.625,22.7969 Q117.8594,23.0469 117.8594,23.6563 L117.8594,25.1094 Q117.8594,25.7188 117.625,25.9844 Q117.3906,26.25 117.0156,26.25 Q116.6719,26.25 116.4688,26.0469 Q116.2656,25.8594 116.1563,25.3438 Q116.1094,24.9844 115.9219,24.7969 Q115.5938,24.4219 114.9844,24.2031 Q114.375,23.9844 113.75,23.9844 Q112.9844,23.9844 112.3438,24.3125 Q111.7188,24.6406 111.2188,25.3906 Q110.7344,26.1406 110.7344,27.1719 L110.7344,28.2656 Q110.7344,29.5 111.625,30.3281 Q112.5156,31.1406 114.1094,31.1406 Q115.0469,31.1406 115.7031,30.8906 Q116.0938,30.7344 116.5156,30.2969 Q116.7813,30.0313 116.9219,29.9531 Q117.0781,29.875 117.2813,29.875 Q117.6094,29.875 117.8594,30.1406 Q118.125,30.3906 118.125,30.7344 Q118.125,31.0781 117.7813,31.4844 Q117.2813,32.0625 116.4844,32.3906 Q115.4063,32.8438 114.1094,32.8438 Q112.5938,32.8438 111.3906,32.2188 Q110.4063,31.7188 109.7188,30.6563 Q109.0313,29.5781 109.0313,28.2969 L109.0313,27.1406 Q109.0313,25.8125 109.6406,24.6719 Q110.2656,23.5156 111.3594,22.9063 Q112.4531,22.2813 113.6875,22.2813 Q114.4219,22.2813 115.0625,22.4531 Q115.7188,22.6094 116.2656,22.9688 Z "/><text fill="#000000" font-family="sans-serif" font-size="14" lengthAdjust="spacingAndGlyphs" textLength="152" x="127.5" y="26.5332">GraphNodeItemProvider</text><text fill="#000000" font-family="sans-serif" font-size="10" lengthAdjust="spacingAndGlyphs" textLength="135" x="136" y="39.9902">org.eclipse.epf.uma.provider</text></a><!--MD5=[495dff0ca31cdc9cef79f961516749c7]
reverse link org.eclipse.epf.uma.provider.GraphNodeItemProvider to org.eclipse.epf.uma.provider.DiagramItemProvider--><path codeLine="17" d="M190.5,67.32 C190.5,79.44 190.5,93.19 190.5,106.79 " fill="none" id="org.eclipse.epf.uma.provider.GraphNodeItemProvider-backto-org.eclipse.epf.uma.provider.DiagramItemProvider" style="stroke: #A80036; stroke-width: 1.0;"/><polygon fill="none" points="183.5,67.06,190.5,47.06,197.5,67.06,183.5,67.06" style="stroke: #A80036; stroke-width: 1.0;"/><text fill="#888888" font-family="sans-serif" font-size="10" lengthAdjust="spacingAndGlyphs" textLength="190" x="92.5" y="275.4199">UMLDoclet 2.0.12, PlantUML 1.2020.16</text><!--MD5=[bf852ea7c294b8b5a16120a3fb91290d]
@startuml
    set namespaceSeparator none
    hide empty fields
    hide empty methods

    class "<size:14>DiagramItemProvider\n<size:10>org.eclipse.epf.uma.provider" as org.eclipse.epf.uma.provider.DiagramItemProvider [[DiagramItemProvider.html]] {
        +DiagramItemProvider(AdapterFactory)
        +getPropertyDescriptors(Object): List<IItemPropertyDescriptor>
        +getChildrenFeatures(Object): Collection<? extends EStructuralFeature>
        +getImage(Object): Object
        +getText(Object): String
        +notifyChanged(Notification): void
        +getCreateChildText(Object, Object, Object, Collection<?>): String
    }

    class "<size:14>GraphNodeItemProvider\n<size:10>org.eclipse.epf.uma.provider" as org.eclipse.epf.uma.provider.GraphNodeItemProvider [[GraphNodeItemProvider.html]]

    org.eclipse.epf.uma.provider.GraphNodeItemProvider <|- - org.eclipse.epf.uma.provider.DiagramItemProvider

    center footer UMLDoclet 2.0.12, PlantUML 1.2020.16
@enduml

PlantUML version 1.2020.16(Sun Aug 23 22:20:43 CEST 2020)
(APACHE source distribution)
Java Runtime: Java(TM) SE Runtime Environment
JVM: Java HotSpot(TM) 64-Bit Server VM
Default Encoding: Cp1252
Language: es
Country: ES
--></g></svg>