<?xml version="1.0" encoding="UTF-8" standalone="no"?><svg xmlns="http://www.w3.org/2000/svg" xmlns:xlink="http://www.w3.org/1999/xlink" contentScriptType="application/ecmascript" contentStyleType="text/css" height="275px" preserveAspectRatio="none" style="width:393px;height:275px;" version="1.1" viewBox="0 0 393 275" width="393px" zoomAndPan="magnify"><defs><filter height="300%" id="f156b9tywy2f5o" width="300%" x="-1" y="-1"><feGaussianBlur result="blurOut" stdDeviation="2.0"/><feColorMatrix in="blurOut" result="blurOut2" type="matrix" values="0 0 0 0 0 0 0 0 0 0 0 0 0 0 0 0 0 0 .4 0"/><feOffset dx="4.0" dy="4.0" in="blurOut2" result="blurOut3"/><feBlend in="SourceGraphic" in2="blurOut3" mode="normal"/></filter></defs><g><!--MD5=[78d5a8046323b982bf0b4be3a9d4a904]
class org.eclipse.epf.uma.provider.DisciplineItemProvider--><a href="DisciplineItemProvider.html" target="_top" title="DisciplineItemProvider.html" xlink:actuate="onRequest" xlink:href="DisciplineItemProvider.html" xlink:show="new" xlink:title="DisciplineItemProvider.html" xlink:type="simple"><rect codeLine="5" fill="#FEFECE" filter="url(#f156b9tywy2f5o)" height="131.2031" id="org.eclipse.epf.uma.provider.DisciplineItemProvider" style="stroke: #A80036; stroke-width: 1.5;" width="367" x="7" y="107"/><ellipse cx="116.75" cy="127.0938" fill="#ADD1B2" rx="11" ry="11" style="stroke: #A80036; stroke-width: 1.0;"/><path d="M119.5156,122.9688 Q119.6719,122.75 119.8594,122.6406 Q120.0469,122.5313 120.2656,122.5313 Q120.6406,122.5313 120.875,122.7969 Q121.1094,123.0469 121.1094,123.6563 L121.1094,125.1094 Q121.1094,125.7188 120.875,125.9844 Q120.6406,126.25 120.2656,126.25 Q119.9219,126.25 119.7188,126.0469 Q119.5156,125.8594 119.4063,125.3438 Q119.3594,124.9844 119.1719,124.7969 Q118.8438,124.4219 118.2344,124.2031 Q117.625,123.9844 117,123.9844 Q116.2344,123.9844 115.5938,124.3125 Q114.9688,124.6406 114.4688,125.3906 Q113.9844,126.1406 113.9844,127.1719 L113.9844,128.2656 Q113.9844,129.5 114.875,130.3281 Q115.7656,131.1406 117.3594,131.1406 Q118.2969,131.1406 118.9531,130.8906 Q119.3438,130.7344 119.7656,130.2969 Q120.0313,130.0313 120.1719,129.9531 Q120.3281,129.875 120.5313,129.875 Q120.8594,129.875 121.1094,130.1406 Q121.375,130.3906 121.375,130.7344 Q121.375,131.0781 121.0313,131.4844 Q120.5313,132.0625 119.7344,132.3906 Q118.6563,132.8438 117.3594,132.8438 Q115.8438,132.8438 114.6406,132.2188 Q113.6563,131.7188 112.9688,130.6563 Q112.2813,129.5781 112.2813,128.2969 L112.2813,127.1406 Q112.2813,125.8125 112.8906,124.6719 Q113.5156,123.5156 114.6094,122.9063 Q115.7031,122.2813 116.9375,122.2813 Q117.6719,122.2813 118.3125,122.4531 Q118.9688,122.6094 119.5156,122.9688 Z "/><text fill="#000000" font-family="sans-serif" font-size="14" lengthAdjust="spacingAndGlyphs" textLength="139" x="137.25" y="126.5332">DisciplineItemProvider</text><text fill="#000000" font-family="sans-serif" font-size="10" lengthAdjust="spacingAndGlyphs" textLength="135" x="139.25" y="139.9902">org.eclipse.epf.uma.provider</text><line style="stroke: #A80036; stroke-width: 1.5;" x1="8" x2="373" y1="147.1875" y2="147.1875"/><ellipse cx="18" cy="158.1875" fill="#84BE84" rx="3" ry="3" style="stroke: #038048; stroke-width: 1.0;"/><text fill="#000000" font-family="sans-serif" font-size="11" lengthAdjust="spacingAndGlyphs" textLength="188" x="27" y="162.6064">DisciplineItemProvider(AdapterFactory)</text><ellipse cx="18" cy="172.0234" fill="#84BE84" rx="3" ry="3" style="stroke: #038048; stroke-width: 1.0;"/><text fill="#000000" font-family="sans-serif" font-size="11" lengthAdjust="spacingAndGlyphs" textLength="298" x="27" y="176.4424">getPropertyDescriptors(Object): List&lt;IItemPropertyDescriptor&gt;</text><ellipse cx="18" cy="185.8594" fill="#84BE84" rx="3" ry="3" style="stroke: #038048; stroke-width: 1.0;"/><text fill="#000000" font-family="sans-serif" font-size="11" lengthAdjust="spacingAndGlyphs" textLength="341" x="27" y="190.2783">getChildrenFeatures(Object): Collection&lt;? extends EStructuralFeature&gt;</text><ellipse cx="18" cy="199.6953" fill="#84BE84" rx="3" ry="3" style="stroke: #038048; stroke-width: 1.0;"/><text fill="#000000" font-family="sans-serif" font-size="11" lengthAdjust="spacingAndGlyphs" textLength="119" x="27" y="204.1143">getImage(Object): Object</text><ellipse cx="18" cy="213.5313" fill="#84BE84" rx="3" ry="3" style="stroke: #038048; stroke-width: 1.0;"/><text fill="#000000" font-family="sans-serif" font-size="11" lengthAdjust="spacingAndGlyphs" textLength="109" x="27" y="217.9502">getText(Object): String</text><ellipse cx="18" cy="227.3672" fill="#84BE84" rx="3" ry="3" style="stroke: #038048; stroke-width: 1.0;"/><text fill="#000000" font-family="sans-serif" font-size="11" lengthAdjust="spacingAndGlyphs" textLength="157" x="27" y="231.7861">notifyChanged(Notification): void</text></a><!--MD5=[7b5cbb136e15c2ca83e34d6bf95be865]
class org.eclipse.epf.uma.provider.ContentCategoryItemProvider--><a href="ContentCategoryItemProvider.html" target="_top" title="ContentCategoryItemProvider.html" xlink:actuate="onRequest" xlink:href="ContentCategoryItemProvider.html" xlink:show="new" xlink:title="ContentCategoryItemProvider.html" xlink:type="simple"><rect codeLine="14" fill="#FEFECE" filter="url(#f156b9tywy2f5o)" height="40.1875" id="org.eclipse.epf.uma.provider.ContentCategoryItemProvider" style="stroke: #A80036; stroke-width: 1.5;" width="219" x="81" y="7"/><ellipse cx="96" cy="27.0938" fill="#ADD1B2" rx="11" ry="11" style="stroke: #A80036; stroke-width: 1.0;"/><path d="M98.7656,22.9688 Q98.9219,22.75 99.1094,22.6406 Q99.2969,22.5313 99.5156,22.5313 Q99.8906,22.5313 100.125,22.7969 Q100.3594,23.0469 100.3594,23.6563 L100.3594,25.1094 Q100.3594,25.7188 100.125,25.9844 Q99.8906,26.25 99.5156,26.25 Q99.1719,26.25 98.9688,26.0469 Q98.7656,25.8594 98.6563,25.3438 Q98.6094,24.9844 98.4219,24.7969 Q98.0938,24.4219 97.4844,24.2031 Q96.875,23.9844 96.25,23.9844 Q95.4844,23.9844 94.8438,24.3125 Q94.2188,24.6406 93.7188,25.3906 Q93.2344,26.1406 93.2344,27.1719 L93.2344,28.2656 Q93.2344,29.5 94.125,30.3281 Q95.0156,31.1406 96.6094,31.1406 Q97.5469,31.1406 98.2031,30.8906 Q98.5938,30.7344 99.0156,30.2969 Q99.2813,30.0313 99.4219,29.9531 Q99.5781,29.875 99.7813,29.875 Q100.1094,29.875 100.3594,30.1406 Q100.625,30.3906 100.625,30.7344 Q100.625,31.0781 100.2813,31.4844 Q99.7813,32.0625 98.9844,32.3906 Q97.9063,32.8438 96.6094,32.8438 Q95.0938,32.8438 93.8906,32.2188 Q92.9063,31.7188 92.2188,30.6563 Q91.5313,29.5781 91.5313,28.2969 L91.5313,27.1406 Q91.5313,25.8125 92.1406,24.6719 Q92.7656,23.5156 93.8594,22.9063 Q94.9531,22.2813 96.1875,22.2813 Q96.9219,22.2813 97.5625,22.4531 Q98.2188,22.6094 98.7656,22.9688 Z "/><text fill="#000000" font-family="sans-serif" font-size="14" lengthAdjust="spacingAndGlyphs" textLength="187" x="110" y="26.5332">ContentCategoryItemProvider</text><text fill="#000000" font-family="sans-serif" font-size="10" lengthAdjust="spacingAndGlyphs" textLength="135" x="136" y="39.9902">org.eclipse.epf.uma.provider</text></a><!--MD5=[17425f922ee364b147efb6e3bb9b0461]
reverse link org.eclipse.epf.uma.provider.ContentCategoryItemProvider to org.eclipse.epf.uma.provider.DisciplineItemProvider--><path codeLine="16" d="M190.5,67.46 C190.5,79.65 190.5,93.4 190.5,106.82 " fill="none" id="org.eclipse.epf.uma.provider.ContentCategoryItemProvider-backto-org.eclipse.epf.uma.provider.DisciplineItemProvider" style="stroke: #A80036; stroke-width: 1.0;"/><polygon fill="none" points="183.5,67.06,190.5,47.06,197.5,67.06,183.5,67.06" style="stroke: #A80036; stroke-width: 1.0;"/><text fill="#888888" font-family="sans-serif" font-size="10" lengthAdjust="spacingAndGlyphs" textLength="190" x="92.5" y="261.584">UMLDoclet 2.0.12, PlantUML 1.2020.16</text><!--MD5=[af4b80a2eace8b34c99f574e2079e600]
@startuml
    set namespaceSeparator none
    hide empty fields
    hide empty methods

    class "<size:14>DisciplineItemProvider\n<size:10>org.eclipse.epf.uma.provider" as org.eclipse.epf.uma.provider.DisciplineItemProvider [[DisciplineItemProvider.html]] {
        +DisciplineItemProvider(AdapterFactory)
        +getPropertyDescriptors(Object): List<IItemPropertyDescriptor>
        +getChildrenFeatures(Object): Collection<? extends EStructuralFeature>
        +getImage(Object): Object
        +getText(Object): String
        +notifyChanged(Notification): void
    }

    class "<size:14>ContentCategoryItemProvider\n<size:10>org.eclipse.epf.uma.provider" as org.eclipse.epf.uma.provider.ContentCategoryItemProvider [[ContentCategoryItemProvider.html]]

    org.eclipse.epf.uma.provider.ContentCategoryItemProvider <|- - org.eclipse.epf.uma.provider.DisciplineItemProvider

    center footer UMLDoclet 2.0.12, PlantUML 1.2020.16
@enduml

PlantUML version 1.2020.16(Sun Aug 23 22:20:43 CEST 2020)
(APACHE source distribution)
Java Runtime: Java(TM) SE Runtime Environment
JVM: Java HotSpot(TM) 64-Bit Server VM
Default Encoding: Cp1252
Language: es
Country: ES
--></g></svg>