<?xml version="1.0" encoding="UTF-8" standalone="no"?><svg xmlns="http://www.w3.org/2000/svg" xmlns:xlink="http://www.w3.org/1999/xlink" contentScriptType="application/ecmascript" contentStyleType="text/css" height="261px" preserveAspectRatio="none" style="width:350px;height:261px;" version="1.1" viewBox="0 0 350 261" width="350px" zoomAndPan="magnify"><defs><filter height="300%" id="f17i7tvg5swjvy" width="300%" x="-1" y="-1"><feGaussianBlur result="blurOut" stdDeviation="2.0"/><feColorMatrix in="blurOut" result="blurOut2" type="matrix" values="0 0 0 0 0 0 0 0 0 0 0 0 0 0 0 0 0 0 .4 0"/><feOffset dx="4.0" dy="4.0" in="blurOut2" result="blurOut3"/><feBlend in="SourceGraphic" in2="blurOut3" mode="normal"/></filter></defs><g><!--MD5=[b11415ddcfa6204f465f4288725cd45c]
class org.eclipse.epf.uma.provider.EstimationConsiderationsItemProvider--><a href="EstimationConsiderationsItemProvider.html" target="_top" title="EstimationConsiderationsItemProvider.html" xlink:actuate="onRequest" xlink:href="EstimationConsiderationsItemProvider.html" xlink:show="new" xlink:title="EstimationConsiderationsItemProvider.html" xlink:type="simple"><rect codeLine="5" fill="#FEFECE" filter="url(#f17i7tvg5swjvy)" height="117.3672" id="org.eclipse.epf.uma.provider.EstimationConsiderationsItemProvider" style="stroke: #A80036; stroke-width: 1.5;" width="324" x="7" y="107"/><ellipse cx="45.85" cy="127.0938" fill="#ADD1B2" rx="11" ry="11" style="stroke: #A80036; stroke-width: 1.0;"/><path d="M48.6156,122.9688 Q48.7719,122.75 48.9594,122.6406 Q49.1469,122.5313 49.3656,122.5313 Q49.7406,122.5313 49.975,122.7969 Q50.2094,123.0469 50.2094,123.6563 L50.2094,125.1094 Q50.2094,125.7188 49.975,125.9844 Q49.7406,126.25 49.3656,126.25 Q49.0219,126.25 48.8188,126.0469 Q48.6156,125.8594 48.5063,125.3438 Q48.4594,124.9844 48.2719,124.7969 Q47.9438,124.4219 47.3344,124.2031 Q46.725,123.9844 46.1,123.9844 Q45.3344,123.9844 44.6938,124.3125 Q44.0688,124.6406 43.5688,125.3906 Q43.0844,126.1406 43.0844,127.1719 L43.0844,128.2656 Q43.0844,129.5 43.975,130.3281 Q44.8656,131.1406 46.4594,131.1406 Q47.3969,131.1406 48.0531,130.8906 Q48.4438,130.7344 48.8656,130.2969 Q49.1313,130.0313 49.2719,129.9531 Q49.4281,129.875 49.6313,129.875 Q49.9594,129.875 50.2094,130.1406 Q50.475,130.3906 50.475,130.7344 Q50.475,131.0781 50.1313,131.4844 Q49.6313,132.0625 48.8344,132.3906 Q47.7563,132.8438 46.4594,132.8438 Q44.9438,132.8438 43.7406,132.2188 Q42.7563,131.7188 42.0688,130.6563 Q41.3813,129.5781 41.3813,128.2969 L41.3813,127.1406 Q41.3813,125.8125 41.9906,124.6719 Q42.6156,123.5156 43.7094,122.9063 Q44.8031,122.2813 46.0375,122.2813 Q46.7719,122.2813 47.4125,122.4531 Q48.0688,122.6094 48.6156,122.9688 Z "/><text fill="#000000" font-family="sans-serif" font-size="14" lengthAdjust="spacingAndGlyphs" textLength="239" x="65.15" y="126.5332">EstimationConsiderationsItemProvider</text><text fill="#000000" font-family="sans-serif" font-size="10" lengthAdjust="spacingAndGlyphs" textLength="135" x="117.15" y="139.9902">org.eclipse.epf.uma.provider</text><line style="stroke: #A80036; stroke-width: 1.5;" x1="8" x2="330" y1="147.1875" y2="147.1875"/><ellipse cx="18" cy="158.1875" fill="#84BE84" rx="3" ry="3" style="stroke: #038048; stroke-width: 1.0;"/><text fill="#000000" font-family="sans-serif" font-size="11" lengthAdjust="spacingAndGlyphs" textLength="263" x="27" y="162.6064">EstimationConsiderationsItemProvider(AdapterFactory)</text><ellipse cx="18" cy="172.0234" fill="#84BE84" rx="3" ry="3" style="stroke: #038048; stroke-width: 1.0;"/><text fill="#000000" font-family="sans-serif" font-size="11" lengthAdjust="spacingAndGlyphs" textLength="298" x="27" y="176.4424">getPropertyDescriptors(Object): List&lt;IItemPropertyDescriptor&gt;</text><ellipse cx="18" cy="185.8594" fill="#84BE84" rx="3" ry="3" style="stroke: #038048; stroke-width: 1.0;"/><text fill="#000000" font-family="sans-serif" font-size="11" lengthAdjust="spacingAndGlyphs" textLength="119" x="27" y="190.2783">getImage(Object): Object</text><ellipse cx="18" cy="199.6953" fill="#84BE84" rx="3" ry="3" style="stroke: #038048; stroke-width: 1.0;"/><text fill="#000000" font-family="sans-serif" font-size="11" lengthAdjust="spacingAndGlyphs" textLength="109" x="27" y="204.1143">getText(Object): String</text><ellipse cx="18" cy="213.5313" fill="#84BE84" rx="3" ry="3" style="stroke: #038048; stroke-width: 1.0;"/><text fill="#000000" font-family="sans-serif" font-size="11" lengthAdjust="spacingAndGlyphs" textLength="157" x="27" y="217.9502">notifyChanged(Notification): void</text></a><!--MD5=[8f108d7b66e7cfe66647e0553e0c4782]
class org.eclipse.epf.uma.provider.GuidanceItemProvider--><a href="GuidanceItemProvider.html" target="_top" title="GuidanceItemProvider.html" xlink:actuate="onRequest" xlink:href="GuidanceItemProvider.html" xlink:show="new" xlink:title="GuidanceItemProvider.html" xlink:type="simple"><rect codeLine="13" fill="#FEFECE" filter="url(#f17i7tvg5swjvy)" height="40.1875" id="org.eclipse.epf.uma.provider.GuidanceItemProvider" style="stroke: #A80036; stroke-width: 1.5;" width="172" x="83" y="7"/><ellipse cx="98" cy="27.0938" fill="#ADD1B2" rx="11" ry="11" style="stroke: #A80036; stroke-width: 1.0;"/><path d="M100.7656,22.9688 Q100.9219,22.75 101.1094,22.6406 Q101.2969,22.5313 101.5156,22.5313 Q101.8906,22.5313 102.125,22.7969 Q102.3594,23.0469 102.3594,23.6563 L102.3594,25.1094 Q102.3594,25.7188 102.125,25.9844 Q101.8906,26.25 101.5156,26.25 Q101.1719,26.25 100.9688,26.0469 Q100.7656,25.8594 100.6563,25.3438 Q100.6094,24.9844 100.4219,24.7969 Q100.0938,24.4219 99.4844,24.2031 Q98.875,23.9844 98.25,23.9844 Q97.4844,23.9844 96.8438,24.3125 Q96.2188,24.6406 95.7188,25.3906 Q95.2344,26.1406 95.2344,27.1719 L95.2344,28.2656 Q95.2344,29.5 96.125,30.3281 Q97.0156,31.1406 98.6094,31.1406 Q99.5469,31.1406 100.2031,30.8906 Q100.5938,30.7344 101.0156,30.2969 Q101.2813,30.0313 101.4219,29.9531 Q101.5781,29.875 101.7813,29.875 Q102.1094,29.875 102.3594,30.1406 Q102.625,30.3906 102.625,30.7344 Q102.625,31.0781 102.2813,31.4844 Q101.7813,32.0625 100.9844,32.3906 Q99.9063,32.8438 98.6094,32.8438 Q97.0938,32.8438 95.8906,32.2188 Q94.9063,31.7188 94.2188,30.6563 Q93.5313,29.5781 93.5313,28.2969 L93.5313,27.1406 Q93.5313,25.8125 94.1406,24.6719 Q94.7656,23.5156 95.8594,22.9063 Q96.9531,22.2813 98.1875,22.2813 Q98.9219,22.2813 99.5625,22.4531 Q100.2188,22.6094 100.7656,22.9688 Z "/><text fill="#000000" font-family="sans-serif" font-size="14" lengthAdjust="spacingAndGlyphs" textLength="140" x="112" y="26.5332">GuidanceItemProvider</text><text fill="#000000" font-family="sans-serif" font-size="10" lengthAdjust="spacingAndGlyphs" textLength="135" x="114.5" y="39.9902">org.eclipse.epf.uma.provider</text></a><!--MD5=[913a73730c0d2052ceb7a0e064f1960e]
reverse link org.eclipse.epf.uma.provider.GuidanceItemProvider to org.eclipse.epf.uma.provider.EstimationConsiderationsItemProvider--><path codeLine="15" d="M169,67.38 C169,79.73 169,93.63 169,106.97 " fill="none" id="org.eclipse.epf.uma.provider.GuidanceItemProvider-backto-org.eclipse.epf.uma.provider.EstimationConsiderationsItemProvider" style="stroke: #A80036; stroke-width: 1.0;"/><polygon fill="none" points="162,67.27,169,47.27,176,67.27,162,67.27" style="stroke: #A80036; stroke-width: 1.0;"/><text fill="#888888" font-family="sans-serif" font-size="10" lengthAdjust="spacingAndGlyphs" textLength="190" x="71" y="247.748">UMLDoclet 2.0.12, PlantUML 1.2020.16</text><!--MD5=[e9d79e443ee84a20da1693319445a911]
@startuml
    set namespaceSeparator none
    hide empty fields
    hide empty methods

    class "<size:14>EstimationConsiderationsItemProvider\n<size:10>org.eclipse.epf.uma.provider" as org.eclipse.epf.uma.provider.EstimationConsiderationsItemProvider [[EstimationConsiderationsItemProvider.html]] {
        +EstimationConsiderationsItemProvider(AdapterFactory)
        +getPropertyDescriptors(Object): List<IItemPropertyDescriptor>
        +getImage(Object): Object
        +getText(Object): String
        +notifyChanged(Notification): void
    }

    class "<size:14>GuidanceItemProvider\n<size:10>org.eclipse.epf.uma.provider" as org.eclipse.epf.uma.provider.GuidanceItemProvider [[GuidanceItemProvider.html]]

    org.eclipse.epf.uma.provider.GuidanceItemProvider <|- - org.eclipse.epf.uma.provider.EstimationConsiderationsItemProvider

    center footer UMLDoclet 2.0.12, PlantUML 1.2020.16
@enduml

PlantUML version 1.2020.16(Sun Aug 23 22:20:43 CEST 2020)
(APACHE source distribution)
Java Runtime: Java(TM) SE Runtime Environment
JVM: Java HotSpot(TM) 64-Bit Server VM
Default Encoding: Cp1252
Language: es
Country: ES
--></g></svg>