<?xml version="1.0" encoding="UTF-8" standalone="no"?><svg xmlns="http://www.w3.org/2000/svg" xmlns:xlink="http://www.w3.org/1999/xlink" contentScriptType="application/ecmascript" contentStyleType="text/css" height="261px" preserveAspectRatio="none" style="width:350px;height:261px;" version="1.1" viewBox="0 0 350 261" width="350px" zoomAndPan="magnify"><defs><filter height="300%" id="f1v4ebni85i9am" width="300%" x="-1" y="-1"><feGaussianBlur result="blurOut" stdDeviation="2.0"/><feColorMatrix in="blurOut" result="blurOut2" type="matrix" values="0 0 0 0 0 0 0 0 0 0 0 0 0 0 0 0 0 0 .4 0"/><feOffset dx="4.0" dy="4.0" in="blurOut2" result="blurOut3"/><feBlend in="SourceGraphic" in2="blurOut3" mode="normal"/></filter></defs><g><!--MD5=[03589d1d3e256abcea15fa5a7b940e1b]
class org.eclipse.epf.uma.provider.FulfillableElementItemProvider--><a href="FulfillableElementItemProvider.html" target="_top" title="FulfillableElementItemProvider.html" xlink:actuate="onRequest" xlink:href="FulfillableElementItemProvider.html" xlink:show="new" xlink:title="FulfillableElementItemProvider.html" xlink:type="simple"><rect codeLine="5" fill="#FEFECE" filter="url(#f1v4ebni85i9am)" height="117.3672" id="org.eclipse.epf.uma.provider.FulfillableElementItemProvider" style="stroke: #A80036; stroke-width: 1.5;" width="324" x="7" y="107"/><ellipse cx="69.75" cy="127.0938" fill="#ADD1B2" rx="11" ry="11" style="stroke: #A80036; stroke-width: 1.0;"/><path d="M72.5156,122.9688 Q72.6719,122.75 72.8594,122.6406 Q73.0469,122.5313 73.2656,122.5313 Q73.6406,122.5313 73.875,122.7969 Q74.1094,123.0469 74.1094,123.6563 L74.1094,125.1094 Q74.1094,125.7188 73.875,125.9844 Q73.6406,126.25 73.2656,126.25 Q72.9219,126.25 72.7188,126.0469 Q72.5156,125.8594 72.4063,125.3438 Q72.3594,124.9844 72.1719,124.7969 Q71.8438,124.4219 71.2344,124.2031 Q70.625,123.9844 70,123.9844 Q69.2344,123.9844 68.5938,124.3125 Q67.9688,124.6406 67.4688,125.3906 Q66.9844,126.1406 66.9844,127.1719 L66.9844,128.2656 Q66.9844,129.5 67.875,130.3281 Q68.7656,131.1406 70.3594,131.1406 Q71.2969,131.1406 71.9531,130.8906 Q72.3438,130.7344 72.7656,130.2969 Q73.0313,130.0313 73.1719,129.9531 Q73.3281,129.875 73.5313,129.875 Q73.8594,129.875 74.1094,130.1406 Q74.375,130.3906 74.375,130.7344 Q74.375,131.0781 74.0313,131.4844 Q73.5313,132.0625 72.7344,132.3906 Q71.6563,132.8438 70.3594,132.8438 Q68.8438,132.8438 67.6406,132.2188 Q66.6563,131.7188 65.9688,130.6563 Q65.2813,129.5781 65.2813,128.2969 L65.2813,127.1406 Q65.2813,125.8125 65.8906,124.6719 Q66.5156,123.5156 67.6094,122.9063 Q68.7031,122.2813 69.9375,122.2813 Q70.6719,122.2813 71.3125,122.4531 Q71.9688,122.6094 72.5156,122.9688 Z "/><text fill="#000000" font-family="sans-serif" font-size="14" lengthAdjust="spacingAndGlyphs" textLength="190" x="90.25" y="126.5332">FulfillableElementItemProvider</text><text fill="#000000" font-family="sans-serif" font-size="10" lengthAdjust="spacingAndGlyphs" textLength="135" x="117.75" y="139.9902">org.eclipse.epf.uma.provider</text><line style="stroke: #A80036; stroke-width: 1.5;" x1="8" x2="330" y1="147.1875" y2="147.1875"/><ellipse cx="18" cy="158.1875" fill="#84BE84" rx="3" ry="3" style="stroke: #038048; stroke-width: 1.0;"/><text fill="#000000" font-family="sans-serif" font-size="11" lengthAdjust="spacingAndGlyphs" textLength="224" x="27" y="162.6064">FulfillableElementItemProvider(AdapterFactory)</text><ellipse cx="18" cy="172.0234" fill="#84BE84" rx="3" ry="3" style="stroke: #038048; stroke-width: 1.0;"/><text fill="#000000" font-family="sans-serif" font-size="11" lengthAdjust="spacingAndGlyphs" textLength="298" x="27" y="176.4424">getPropertyDescriptors(Object): List&lt;IItemPropertyDescriptor&gt;</text><ellipse cx="18" cy="185.8594" fill="#84BE84" rx="3" ry="3" style="stroke: #038048; stroke-width: 1.0;"/><text fill="#000000" font-family="sans-serif" font-size="11" lengthAdjust="spacingAndGlyphs" textLength="119" x="27" y="190.2783">getImage(Object): Object</text><ellipse cx="18" cy="199.6953" fill="#84BE84" rx="3" ry="3" style="stroke: #038048; stroke-width: 1.0;"/><text fill="#000000" font-family="sans-serif" font-size="11" lengthAdjust="spacingAndGlyphs" textLength="109" x="27" y="204.1143">getText(Object): String</text><ellipse cx="18" cy="213.5313" fill="#84BE84" rx="3" ry="3" style="stroke: #038048; stroke-width: 1.0;"/><text fill="#000000" font-family="sans-serif" font-size="11" lengthAdjust="spacingAndGlyphs" textLength="157" x="27" y="217.9502">notifyChanged(Notification): void</text></a><!--MD5=[2ff0eb74af4ff762d18efeaf98cca433]
class org.eclipse.epf.uma.provider.DescribableElementItemProvider--><a href="DescribableElementItemProvider.html" target="_top" title="DescribableElementItemProvider.html" xlink:actuate="onRequest" xlink:href="DescribableElementItemProvider.html" xlink:show="new" xlink:title="DescribableElementItemProvider.html" xlink:type="simple"><rect codeLine="13" fill="#FEFECE" filter="url(#f1v4ebni85i9am)" height="40.1875" id="org.eclipse.epf.uma.provider.DescribableElementItemProvider" style="stroke: #A80036; stroke-width: 1.5;" width="237" x="50.5" y="7"/><ellipse cx="65.5" cy="27.0938" fill="#ADD1B2" rx="11" ry="11" style="stroke: #A80036; stroke-width: 1.0;"/><path d="M68.2656,22.9688 Q68.4219,22.75 68.6094,22.6406 Q68.7969,22.5313 69.0156,22.5313 Q69.3906,22.5313 69.625,22.7969 Q69.8594,23.0469 69.8594,23.6563 L69.8594,25.1094 Q69.8594,25.7188 69.625,25.9844 Q69.3906,26.25 69.0156,26.25 Q68.6719,26.25 68.4688,26.0469 Q68.2656,25.8594 68.1563,25.3438 Q68.1094,24.9844 67.9219,24.7969 Q67.5938,24.4219 66.9844,24.2031 Q66.375,23.9844 65.75,23.9844 Q64.9844,23.9844 64.3438,24.3125 Q63.7188,24.6406 63.2188,25.3906 Q62.7344,26.1406 62.7344,27.1719 L62.7344,28.2656 Q62.7344,29.5 63.625,30.3281 Q64.5156,31.1406 66.1094,31.1406 Q67.0469,31.1406 67.7031,30.8906 Q68.0938,30.7344 68.5156,30.2969 Q68.7813,30.0313 68.9219,29.9531 Q69.0781,29.875 69.2813,29.875 Q69.6094,29.875 69.8594,30.1406 Q70.125,30.3906 70.125,30.7344 Q70.125,31.0781 69.7813,31.4844 Q69.2813,32.0625 68.4844,32.3906 Q67.4063,32.8438 66.1094,32.8438 Q64.5938,32.8438 63.3906,32.2188 Q62.4063,31.7188 61.7188,30.6563 Q61.0313,29.5781 61.0313,28.2969 L61.0313,27.1406 Q61.0313,25.8125 61.6406,24.6719 Q62.2656,23.5156 63.3594,22.9063 Q64.4531,22.2813 65.6875,22.2813 Q66.4219,22.2813 67.0625,22.4531 Q67.7188,22.6094 68.2656,22.9688 Z "/><text fill="#000000" font-family="sans-serif" font-size="14" lengthAdjust="spacingAndGlyphs" textLength="205" x="79.5" y="26.5332">DescribableElementItemProvider</text><text fill="#000000" font-family="sans-serif" font-size="10" lengthAdjust="spacingAndGlyphs" textLength="135" x="114.5" y="39.9902">org.eclipse.epf.uma.provider</text></a><!--MD5=[6e15920d6dd2e9bd1791250ac20757b1]
reverse link org.eclipse.epf.uma.provider.DescribableElementItemProvider to org.eclipse.epf.uma.provider.FulfillableElementItemProvider--><path codeLine="15" d="M169,67.38 C169,79.73 169,93.63 169,106.97 " fill="none" id="org.eclipse.epf.uma.provider.DescribableElementItemProvider-backto-org.eclipse.epf.uma.provider.FulfillableElementItemProvider" style="stroke: #A80036; stroke-width: 1.0;"/><polygon fill="none" points="162,67.27,169,47.27,176,67.27,162,67.27" style="stroke: #A80036; stroke-width: 1.0;"/><text fill="#888888" font-family="sans-serif" font-size="10" lengthAdjust="spacingAndGlyphs" textLength="190" x="71" y="247.748">UMLDoclet 2.0.12, PlantUML 1.2020.16</text><!--MD5=[4f756e961fcd2cf80aca67c3453e3986]
@startuml
    set namespaceSeparator none
    hide empty fields
    hide empty methods

    class "<size:14>FulfillableElementItemProvider\n<size:10>org.eclipse.epf.uma.provider" as org.eclipse.epf.uma.provider.FulfillableElementItemProvider [[FulfillableElementItemProvider.html]] {
        +FulfillableElementItemProvider(AdapterFactory)
        +getPropertyDescriptors(Object): List<IItemPropertyDescriptor>
        +getImage(Object): Object
        +getText(Object): String
        +notifyChanged(Notification): void
    }

    class "<size:14>DescribableElementItemProvider\n<size:10>org.eclipse.epf.uma.provider" as org.eclipse.epf.uma.provider.DescribableElementItemProvider [[DescribableElementItemProvider.html]]

    org.eclipse.epf.uma.provider.DescribableElementItemProvider <|- - org.eclipse.epf.uma.provider.FulfillableElementItemProvider

    center footer UMLDoclet 2.0.12, PlantUML 1.2020.16
@enduml

PlantUML version 1.2020.16(Sun Aug 23 22:20:43 CEST 2020)
(APACHE source distribution)
Java Runtime: Java(TM) SE Runtime Environment
JVM: Java HotSpot(TM) 64-Bit Server VM
Default Encoding: Cp1252
Language: es
Country: ES
--></g></svg>