<?xml version="1.0" encoding="UTF-8" standalone="no"?><svg xmlns="http://www.w3.org/2000/svg" xmlns:xlink="http://www.w3.org/1999/xlink" contentScriptType="application/ecmascript" contentStyleType="text/css" height="288px" preserveAspectRatio="none" style="width:393px;height:288px;" version="1.1" viewBox="0 0 393 288" width="393px" zoomAndPan="magnify"><defs><filter height="300%" id="fuvppuj863jde" width="300%" x="-1" y="-1"><feGaussianBlur result="blurOut" stdDeviation="2.0"/><feColorMatrix in="blurOut" result="blurOut2" type="matrix" values="0 0 0 0 0 0 0 0 0 0 0 0 0 0 0 0 0 0 .4 0"/><feOffset dx="4.0" dy="4.0" in="blurOut2" result="blurOut3"/><feBlend in="SourceGraphic" in2="blurOut3" mode="normal"/></filter></defs><g><!--MD5=[466fb32d8adb6487aa36eda842b1ce6b]
class org.eclipse.epf.uma.provider.GraphEdgeItemProvider--><a href="GraphEdgeItemProvider.html" target="_top" title="GraphEdgeItemProvider.html" xlink:actuate="onRequest" xlink:href="GraphEdgeItemProvider.html" xlink:show="new" xlink:title="GraphEdgeItemProvider.html" xlink:type="simple"><rect codeLine="5" fill="#FEFECE" filter="url(#fuvppuj863jde)" height="145.0391" id="org.eclipse.epf.uma.provider.GraphEdgeItemProvider" style="stroke: #A80036; stroke-width: 1.5;" width="367" x="7" y="107"/><ellipse cx="110.25" cy="127.0938" fill="#ADD1B2" rx="11" ry="11" style="stroke: #A80036; stroke-width: 1.0;"/><path d="M113.0156,122.9688 Q113.1719,122.75 113.3594,122.6406 Q113.5469,122.5313 113.7656,122.5313 Q114.1406,122.5313 114.375,122.7969 Q114.6094,123.0469 114.6094,123.6563 L114.6094,125.1094 Q114.6094,125.7188 114.375,125.9844 Q114.1406,126.25 113.7656,126.25 Q113.4219,126.25 113.2188,126.0469 Q113.0156,125.8594 112.9063,125.3438 Q112.8594,124.9844 112.6719,124.7969 Q112.3438,124.4219 111.7344,124.2031 Q111.125,123.9844 110.5,123.9844 Q109.7344,123.9844 109.0938,124.3125 Q108.4688,124.6406 107.9688,125.3906 Q107.4844,126.1406 107.4844,127.1719 L107.4844,128.2656 Q107.4844,129.5 108.375,130.3281 Q109.2656,131.1406 110.8594,131.1406 Q111.7969,131.1406 112.4531,130.8906 Q112.8438,130.7344 113.2656,130.2969 Q113.5313,130.0313 113.6719,129.9531 Q113.8281,129.875 114.0313,129.875 Q114.3594,129.875 114.6094,130.1406 Q114.875,130.3906 114.875,130.7344 Q114.875,131.0781 114.5313,131.4844 Q114.0313,132.0625 113.2344,132.3906 Q112.1563,132.8438 110.8594,132.8438 Q109.3438,132.8438 108.1406,132.2188 Q107.1563,131.7188 106.4688,130.6563 Q105.7813,129.5781 105.7813,128.2969 L105.7813,127.1406 Q105.7813,125.8125 106.3906,124.6719 Q107.0156,123.5156 108.1094,122.9063 Q109.2031,122.2813 110.4375,122.2813 Q111.1719,122.2813 111.8125,122.4531 Q112.4688,122.6094 113.0156,122.9688 Z "/><text fill="#000000" font-family="sans-serif" font-size="14" lengthAdjust="spacingAndGlyphs" textLength="152" x="130.75" y="126.5332">GraphEdgeItemProvider</text><text fill="#000000" font-family="sans-serif" font-size="10" lengthAdjust="spacingAndGlyphs" textLength="135" x="139.25" y="139.9902">org.eclipse.epf.uma.provider</text><line style="stroke: #A80036; stroke-width: 1.5;" x1="8" x2="373" y1="147.1875" y2="147.1875"/><ellipse cx="18" cy="158.1875" fill="#84BE84" rx="3" ry="3" style="stroke: #038048; stroke-width: 1.0;"/><text fill="#000000" font-family="sans-serif" font-size="11" lengthAdjust="spacingAndGlyphs" textLength="197" x="27" y="162.6064">GraphEdgeItemProvider(AdapterFactory)</text><ellipse cx="18" cy="172.0234" fill="#84BE84" rx="3" ry="3" style="stroke: #038048; stroke-width: 1.0;"/><text fill="#000000" font-family="sans-serif" font-size="11" lengthAdjust="spacingAndGlyphs" textLength="298" x="27" y="176.4424">getPropertyDescriptors(Object): List&lt;IItemPropertyDescriptor&gt;</text><ellipse cx="18" cy="185.8594" fill="#84BE84" rx="3" ry="3" style="stroke: #038048; stroke-width: 1.0;"/><text fill="#000000" font-family="sans-serif" font-size="11" lengthAdjust="spacingAndGlyphs" textLength="341" x="27" y="190.2783">getChildrenFeatures(Object): Collection&lt;? extends EStructuralFeature&gt;</text><ellipse cx="18" cy="199.6953" fill="#84BE84" rx="3" ry="3" style="stroke: #038048; stroke-width: 1.0;"/><text fill="#000000" font-family="sans-serif" font-size="11" lengthAdjust="spacingAndGlyphs" textLength="119" x="27" y="204.1143">getImage(Object): Object</text><ellipse cx="18" cy="213.5313" fill="#84BE84" rx="3" ry="3" style="stroke: #038048; stroke-width: 1.0;"/><text fill="#000000" font-family="sans-serif" font-size="11" lengthAdjust="spacingAndGlyphs" textLength="109" x="27" y="217.9502">getText(Object): String</text><ellipse cx="18" cy="227.3672" fill="#84BE84" rx="3" ry="3" style="stroke: #038048; stroke-width: 1.0;"/><text fill="#000000" font-family="sans-serif" font-size="11" lengthAdjust="spacingAndGlyphs" textLength="157" x="27" y="231.7861">notifyChanged(Notification): void</text><ellipse cx="18" cy="241.2031" fill="#84BE84" rx="3" ry="3" style="stroke: #038048; stroke-width: 1.0;"/><text fill="#000000" font-family="sans-serif" font-size="11" lengthAdjust="spacingAndGlyphs" textLength="308" x="27" y="245.6221">getCreateChildText(Object, Object, Object, Collection&lt;?&gt;): String</text></a><!--MD5=[65d9090ac21d1f1c4bb97467137462ef]
class org.eclipse.epf.uma.provider.GraphElementItemProvider--><a href="GraphElementItemProvider.html" target="_top" title="GraphElementItemProvider.html" xlink:actuate="onRequest" xlink:href="GraphElementItemProvider.html" xlink:show="new" xlink:title="GraphElementItemProvider.html" xlink:type="simple"><rect codeLine="15" fill="#FEFECE" filter="url(#fuvppuj863jde)" height="40.1875" id="org.eclipse.epf.uma.provider.GraphElementItemProvider" style="stroke: #A80036; stroke-width: 1.5;" width="202" x="89.5" y="7"/><ellipse cx="104.5" cy="27.0938" fill="#ADD1B2" rx="11" ry="11" style="stroke: #A80036; stroke-width: 1.0;"/><path d="M107.2656,22.9688 Q107.4219,22.75 107.6094,22.6406 Q107.7969,22.5313 108.0156,22.5313 Q108.3906,22.5313 108.625,22.7969 Q108.8594,23.0469 108.8594,23.6563 L108.8594,25.1094 Q108.8594,25.7188 108.625,25.9844 Q108.3906,26.25 108.0156,26.25 Q107.6719,26.25 107.4688,26.0469 Q107.2656,25.8594 107.1563,25.3438 Q107.1094,24.9844 106.9219,24.7969 Q106.5938,24.4219 105.9844,24.2031 Q105.375,23.9844 104.75,23.9844 Q103.9844,23.9844 103.3438,24.3125 Q102.7188,24.6406 102.2188,25.3906 Q101.7344,26.1406 101.7344,27.1719 L101.7344,28.2656 Q101.7344,29.5 102.625,30.3281 Q103.5156,31.1406 105.1094,31.1406 Q106.0469,31.1406 106.7031,30.8906 Q107.0938,30.7344 107.5156,30.2969 Q107.7813,30.0313 107.9219,29.9531 Q108.0781,29.875 108.2813,29.875 Q108.6094,29.875 108.8594,30.1406 Q109.125,30.3906 109.125,30.7344 Q109.125,31.0781 108.7813,31.4844 Q108.2813,32.0625 107.4844,32.3906 Q106.4063,32.8438 105.1094,32.8438 Q103.5938,32.8438 102.3906,32.2188 Q101.4063,31.7188 100.7188,30.6563 Q100.0313,29.5781 100.0313,28.2969 L100.0313,27.1406 Q100.0313,25.8125 100.6406,24.6719 Q101.2656,23.5156 102.3594,22.9063 Q103.4531,22.2813 104.6875,22.2813 Q105.4219,22.2813 106.0625,22.4531 Q106.7188,22.6094 107.2656,22.9688 Z "/><text fill="#000000" font-family="sans-serif" font-size="14" lengthAdjust="spacingAndGlyphs" textLength="170" x="118.5" y="26.5332">GraphElementItemProvider</text><text fill="#000000" font-family="sans-serif" font-size="10" lengthAdjust="spacingAndGlyphs" textLength="135" x="136" y="39.9902">org.eclipse.epf.uma.provider</text></a><!--MD5=[436afaa0399bc87a54156c191e68abe5]
reverse link org.eclipse.epf.uma.provider.GraphElementItemProvider to org.eclipse.epf.uma.provider.GraphEdgeItemProvider--><path codeLine="17" d="M190.5,67.32 C190.5,79.44 190.5,93.19 190.5,106.79 " fill="none" id="org.eclipse.epf.uma.provider.GraphElementItemProvider-backto-org.eclipse.epf.uma.provider.GraphEdgeItemProvider" style="stroke: #A80036; stroke-width: 1.0;"/><polygon fill="none" points="183.5,67.06,190.5,47.06,197.5,67.06,183.5,67.06" style="stroke: #A80036; stroke-width: 1.0;"/><text fill="#888888" font-family="sans-serif" font-size="10" lengthAdjust="spacingAndGlyphs" textLength="190" x="92.5" y="275.4199">UMLDoclet 2.0.12, PlantUML 1.2020.16</text><!--MD5=[e3b078738190cb4cee7dac7a36217190]
@startuml
    set namespaceSeparator none
    hide empty fields
    hide empty methods

    class "<size:14>GraphEdgeItemProvider\n<size:10>org.eclipse.epf.uma.provider" as org.eclipse.epf.uma.provider.GraphEdgeItemProvider [[GraphEdgeItemProvider.html]] {
        +GraphEdgeItemProvider(AdapterFactory)
        +getPropertyDescriptors(Object): List<IItemPropertyDescriptor>
        +getChildrenFeatures(Object): Collection<? extends EStructuralFeature>
        +getImage(Object): Object
        +getText(Object): String
        +notifyChanged(Notification): void
        +getCreateChildText(Object, Object, Object, Collection<?>): String
    }

    class "<size:14>GraphElementItemProvider\n<size:10>org.eclipse.epf.uma.provider" as org.eclipse.epf.uma.provider.GraphElementItemProvider [[GraphElementItemProvider.html]]

    org.eclipse.epf.uma.provider.GraphElementItemProvider <|- - org.eclipse.epf.uma.provider.GraphEdgeItemProvider

    center footer UMLDoclet 2.0.12, PlantUML 1.2020.16
@enduml

PlantUML version 1.2020.16(Sun Aug 23 22:20:43 CEST 2020)
(APACHE source distribution)
Java Runtime: Java(TM) SE Runtime Environment
JVM: Java HotSpot(TM) 64-Bit Server VM
Default Encoding: Cp1252
Language: es
Country: ES
--></g></svg>