<?xml version="1.0" encoding="UTF-8" standalone="no"?><svg xmlns="http://www.w3.org/2000/svg" xmlns:xlink="http://www.w3.org/1999/xlink" contentScriptType="application/ecmascript" contentStyleType="text/css" height="275px" preserveAspectRatio="none" style="width:393px;height:275px;" version="1.1" viewBox="0 0 393 275" width="393px" zoomAndPan="magnify"><defs><filter height="300%" id="fr6jvds8236rl" width="300%" x="-1" y="-1"><feGaussianBlur result="blurOut" stdDeviation="2.0"/><feColorMatrix in="blurOut" result="blurOut2" type="matrix" values="0 0 0 0 0 0 0 0 0 0 0 0 0 0 0 0 0 0 .4 0"/><feOffset dx="4.0" dy="4.0" in="blurOut2" result="blurOut3"/><feBlend in="SourceGraphic" in2="blurOut3" mode="normal"/></filter></defs><g><!--MD5=[65d9090ac21d1f1c4bb97467137462ef]
class org.eclipse.epf.uma.provider.GraphElementItemProvider--><a href="GraphElementItemProvider.html" target="_top" title="GraphElementItemProvider.html" xlink:actuate="onRequest" xlink:href="GraphElementItemProvider.html" xlink:show="new" xlink:title="GraphElementItemProvider.html" xlink:type="simple"><rect codeLine="5" fill="#FEFECE" filter="url(#fr6jvds8236rl)" height="131.2031" id="org.eclipse.epf.uma.provider.GraphElementItemProvider" style="stroke: #A80036; stroke-width: 1.5;" width="367" x="7" y="107"/><ellipse cx="101.25" cy="127.0938" fill="#ADD1B2" rx="11" ry="11" style="stroke: #A80036; stroke-width: 1.0;"/><path d="M104.0156,122.9688 Q104.1719,122.75 104.3594,122.6406 Q104.5469,122.5313 104.7656,122.5313 Q105.1406,122.5313 105.375,122.7969 Q105.6094,123.0469 105.6094,123.6563 L105.6094,125.1094 Q105.6094,125.7188 105.375,125.9844 Q105.1406,126.25 104.7656,126.25 Q104.4219,126.25 104.2188,126.0469 Q104.0156,125.8594 103.9063,125.3438 Q103.8594,124.9844 103.6719,124.7969 Q103.3438,124.4219 102.7344,124.2031 Q102.125,123.9844 101.5,123.9844 Q100.7344,123.9844 100.0938,124.3125 Q99.4688,124.6406 98.9688,125.3906 Q98.4844,126.1406 98.4844,127.1719 L98.4844,128.2656 Q98.4844,129.5 99.375,130.3281 Q100.2656,131.1406 101.8594,131.1406 Q102.7969,131.1406 103.4531,130.8906 Q103.8438,130.7344 104.2656,130.2969 Q104.5313,130.0313 104.6719,129.9531 Q104.8281,129.875 105.0313,129.875 Q105.3594,129.875 105.6094,130.1406 Q105.875,130.3906 105.875,130.7344 Q105.875,131.0781 105.5313,131.4844 Q105.0313,132.0625 104.2344,132.3906 Q103.1563,132.8438 101.8594,132.8438 Q100.3438,132.8438 99.1406,132.2188 Q98.1563,131.7188 97.4688,130.6563 Q96.7813,129.5781 96.7813,128.2969 L96.7813,127.1406 Q96.7813,125.8125 97.3906,124.6719 Q98.0156,123.5156 99.1094,122.9063 Q100.2031,122.2813 101.4375,122.2813 Q102.1719,122.2813 102.8125,122.4531 Q103.4688,122.6094 104.0156,122.9688 Z "/><text fill="#000000" font-family="sans-serif" font-size="14" lengthAdjust="spacingAndGlyphs" textLength="170" x="121.75" y="126.5332">GraphElementItemProvider</text><text fill="#000000" font-family="sans-serif" font-size="10" lengthAdjust="spacingAndGlyphs" textLength="135" x="139.25" y="139.9902">org.eclipse.epf.uma.provider</text><line style="stroke: #A80036; stroke-width: 1.5;" x1="8" x2="373" y1="147.1875" y2="147.1875"/><ellipse cx="18" cy="158.1875" fill="#84BE84" rx="3" ry="3" style="stroke: #038048; stroke-width: 1.0;"/><text fill="#000000" font-family="sans-serif" font-size="11" lengthAdjust="spacingAndGlyphs" textLength="210" x="27" y="162.6064">GraphElementItemProvider(AdapterFactory)</text><ellipse cx="18" cy="172.0234" fill="#84BE84" rx="3" ry="3" style="stroke: #038048; stroke-width: 1.0;"/><text fill="#000000" font-family="sans-serif" font-size="11" lengthAdjust="spacingAndGlyphs" textLength="298" x="27" y="176.4424">getPropertyDescriptors(Object): List&lt;IItemPropertyDescriptor&gt;</text><ellipse cx="18" cy="185.8594" fill="#84BE84" rx="3" ry="3" style="stroke: #038048; stroke-width: 1.0;"/><text fill="#000000" font-family="sans-serif" font-size="11" lengthAdjust="spacingAndGlyphs" textLength="341" x="27" y="190.2783">getChildrenFeatures(Object): Collection&lt;? extends EStructuralFeature&gt;</text><ellipse cx="18" cy="199.6953" fill="#84BE84" rx="3" ry="3" style="stroke: #038048; stroke-width: 1.0;"/><text fill="#000000" font-family="sans-serif" font-size="11" lengthAdjust="spacingAndGlyphs" textLength="109" x="27" y="204.1143">getText(Object): String</text><ellipse cx="18" cy="213.5313" fill="#84BE84" rx="3" ry="3" style="stroke: #038048; stroke-width: 1.0;"/><text fill="#000000" font-family="sans-serif" font-size="11" lengthAdjust="spacingAndGlyphs" textLength="157" x="27" y="217.9502">notifyChanged(Notification): void</text><ellipse cx="18" cy="227.3672" fill="#84BE84" rx="3" ry="3" style="stroke: #038048; stroke-width: 1.0;"/><text fill="#000000" font-family="sans-serif" font-size="11" lengthAdjust="spacingAndGlyphs" textLength="308" x="27" y="231.7861">getCreateChildText(Object, Object, Object, Collection&lt;?&gt;): String</text></a><!--MD5=[2e18af2ce01ffe7432f9981a436a8320]
class org.eclipse.epf.uma.provider.DiagramElementItemProvider--><a href="DiagramElementItemProvider.html" target="_top" title="DiagramElementItemProvider.html" xlink:actuate="onRequest" xlink:href="DiagramElementItemProvider.html" xlink:show="new" xlink:title="DiagramElementItemProvider.html" xlink:type="simple"><rect codeLine="14" fill="#FEFECE" filter="url(#fr6jvds8236rl)" height="40.1875" id="org.eclipse.epf.uma.provider.DiagramElementItemProvider" style="stroke: #A80036; stroke-width: 1.5;" width="215" x="83" y="7"/><ellipse cx="98" cy="27.0938" fill="#ADD1B2" rx="11" ry="11" style="stroke: #A80036; stroke-width: 1.0;"/><path d="M100.7656,22.9688 Q100.9219,22.75 101.1094,22.6406 Q101.2969,22.5313 101.5156,22.5313 Q101.8906,22.5313 102.125,22.7969 Q102.3594,23.0469 102.3594,23.6563 L102.3594,25.1094 Q102.3594,25.7188 102.125,25.9844 Q101.8906,26.25 101.5156,26.25 Q101.1719,26.25 100.9688,26.0469 Q100.7656,25.8594 100.6563,25.3438 Q100.6094,24.9844 100.4219,24.7969 Q100.0938,24.4219 99.4844,24.2031 Q98.875,23.9844 98.25,23.9844 Q97.4844,23.9844 96.8438,24.3125 Q96.2188,24.6406 95.7188,25.3906 Q95.2344,26.1406 95.2344,27.1719 L95.2344,28.2656 Q95.2344,29.5 96.125,30.3281 Q97.0156,31.1406 98.6094,31.1406 Q99.5469,31.1406 100.2031,30.8906 Q100.5938,30.7344 101.0156,30.2969 Q101.2813,30.0313 101.4219,29.9531 Q101.5781,29.875 101.7813,29.875 Q102.1094,29.875 102.3594,30.1406 Q102.625,30.3906 102.625,30.7344 Q102.625,31.0781 102.2813,31.4844 Q101.7813,32.0625 100.9844,32.3906 Q99.9063,32.8438 98.6094,32.8438 Q97.0938,32.8438 95.8906,32.2188 Q94.9063,31.7188 94.2188,30.6563 Q93.5313,29.5781 93.5313,28.2969 L93.5313,27.1406 Q93.5313,25.8125 94.1406,24.6719 Q94.7656,23.5156 95.8594,22.9063 Q96.9531,22.2813 98.1875,22.2813 Q98.9219,22.2813 99.5625,22.4531 Q100.2188,22.6094 100.7656,22.9688 Z "/><text fill="#000000" font-family="sans-serif" font-size="14" lengthAdjust="spacingAndGlyphs" textLength="183" x="112" y="26.5332">DiagramElementItemProvider</text><text fill="#000000" font-family="sans-serif" font-size="10" lengthAdjust="spacingAndGlyphs" textLength="135" x="136" y="39.9902">org.eclipse.epf.uma.provider</text></a><!--MD5=[8e5c56f8a9da36d068e5b1e28b4048f4]
reverse link org.eclipse.epf.uma.provider.DiagramElementItemProvider to org.eclipse.epf.uma.provider.GraphElementItemProvider--><path codeLine="16" d="M190.5,67.46 C190.5,79.65 190.5,93.4 190.5,106.82 " fill="none" id="org.eclipse.epf.uma.provider.DiagramElementItemProvider-backto-org.eclipse.epf.uma.provider.GraphElementItemProvider" style="stroke: #A80036; stroke-width: 1.0;"/><polygon fill="none" points="183.5,67.06,190.5,47.06,197.5,67.06,183.5,67.06" style="stroke: #A80036; stroke-width: 1.0;"/><text fill="#888888" font-family="sans-serif" font-size="10" lengthAdjust="spacingAndGlyphs" textLength="190" x="92.5" y="261.584">UMLDoclet 2.0.12, PlantUML 1.2020.16</text><!--MD5=[1185a89a714e8ab4f5b9f75db398ff32]
@startuml
    set namespaceSeparator none
    hide empty fields
    hide empty methods

    class "<size:14>GraphElementItemProvider\n<size:10>org.eclipse.epf.uma.provider" as org.eclipse.epf.uma.provider.GraphElementItemProvider [[GraphElementItemProvider.html]] {
        +GraphElementItemProvider(AdapterFactory)
        +getPropertyDescriptors(Object): List<IItemPropertyDescriptor>
        +getChildrenFeatures(Object): Collection<? extends EStructuralFeature>
        +getText(Object): String
        +notifyChanged(Notification): void
        +getCreateChildText(Object, Object, Object, Collection<?>): String
    }

    class "<size:14>DiagramElementItemProvider\n<size:10>org.eclipse.epf.uma.provider" as org.eclipse.epf.uma.provider.DiagramElementItemProvider [[DiagramElementItemProvider.html]]

    org.eclipse.epf.uma.provider.DiagramElementItemProvider <|- - org.eclipse.epf.uma.provider.GraphElementItemProvider

    center footer UMLDoclet 2.0.12, PlantUML 1.2020.16
@enduml

PlantUML version 1.2020.16(Sun Aug 23 22:20:43 CEST 2020)
(APACHE source distribution)
Java Runtime: Java(TM) SE Runtime Environment
JVM: Java HotSpot(TM) 64-Bit Server VM
Default Encoding: Cp1252
Language: es
Country: ES
--></g></svg>