<?xml version="1.0" encoding="UTF-8" standalone="no"?><svg xmlns="http://www.w3.org/2000/svg" xmlns:xlink="http://www.w3.org/1999/xlink" contentScriptType="application/ecmascript" contentStyleType="text/css" height="275px" preserveAspectRatio="none" style="width:360px;height:275px;" version="1.1" viewBox="0 0 360 275" width="360px" zoomAndPan="magnify"><defs><filter height="300%" id="fnf4625f5vz1j" width="300%" x="-1" y="-1"><feGaussianBlur result="blurOut" stdDeviation="2.0"/><feColorMatrix in="blurOut" result="blurOut2" type="matrix" values="0 0 0 0 0 0 0 0 0 0 0 0 0 0 0 0 0 0 .4 0"/><feOffset dx="4.0" dy="4.0" in="blurOut2" result="blurOut3"/><feBlend in="SourceGraphic" in2="blurOut3" mode="normal"/></filter></defs><g><!--MD5=[05d08c789838a67e9ffd26fb757a105f]
class org.eclipse.epf.uma.provider.GraphNodeItemProvider--><a href="GraphNodeItemProvider.html" target="_top" title="GraphNodeItemProvider.html" xlink:actuate="onRequest" xlink:href="GraphNodeItemProvider.html" xlink:show="new" xlink:title="GraphNodeItemProvider.html" xlink:type="simple"><rect codeLine="5" fill="#FEFECE" filter="url(#fnf4625f5vz1j)" height="131.2031" id="org.eclipse.epf.uma.provider.GraphNodeItemProvider" style="stroke: #A80036; stroke-width: 1.5;" width="334" x="7" y="107"/><ellipse cx="93.75" cy="127.0938" fill="#ADD1B2" rx="11" ry="11" style="stroke: #A80036; stroke-width: 1.0;"/><path d="M96.5156,122.9688 Q96.6719,122.75 96.8594,122.6406 Q97.0469,122.5313 97.2656,122.5313 Q97.6406,122.5313 97.875,122.7969 Q98.1094,123.0469 98.1094,123.6563 L98.1094,125.1094 Q98.1094,125.7188 97.875,125.9844 Q97.6406,126.25 97.2656,126.25 Q96.9219,126.25 96.7188,126.0469 Q96.5156,125.8594 96.4063,125.3438 Q96.3594,124.9844 96.1719,124.7969 Q95.8438,124.4219 95.2344,124.2031 Q94.625,123.9844 94,123.9844 Q93.2344,123.9844 92.5938,124.3125 Q91.9688,124.6406 91.4688,125.3906 Q90.9844,126.1406 90.9844,127.1719 L90.9844,128.2656 Q90.9844,129.5 91.875,130.3281 Q92.7656,131.1406 94.3594,131.1406 Q95.2969,131.1406 95.9531,130.8906 Q96.3438,130.7344 96.7656,130.2969 Q97.0313,130.0313 97.1719,129.9531 Q97.3281,129.875 97.5313,129.875 Q97.8594,129.875 98.1094,130.1406 Q98.375,130.3906 98.375,130.7344 Q98.375,131.0781 98.0313,131.4844 Q97.5313,132.0625 96.7344,132.3906 Q95.6563,132.8438 94.3594,132.8438 Q92.8438,132.8438 91.6406,132.2188 Q90.6563,131.7188 89.9688,130.6563 Q89.2813,129.5781 89.2813,128.2969 L89.2813,127.1406 Q89.2813,125.8125 89.8906,124.6719 Q90.5156,123.5156 91.6094,122.9063 Q92.7031,122.2813 93.9375,122.2813 Q94.6719,122.2813 95.3125,122.4531 Q95.9688,122.6094 96.5156,122.9688 Z "/><text fill="#000000" font-family="sans-serif" font-size="14" lengthAdjust="spacingAndGlyphs" textLength="152" x="114.25" y="126.5332">GraphNodeItemProvider</text><text fill="#000000" font-family="sans-serif" font-size="10" lengthAdjust="spacingAndGlyphs" textLength="135" x="122.75" y="139.9902">org.eclipse.epf.uma.provider</text><line style="stroke: #A80036; stroke-width: 1.5;" x1="8" x2="340" y1="147.1875" y2="147.1875"/><ellipse cx="18" cy="158.1875" fill="#84BE84" rx="3" ry="3" style="stroke: #038048; stroke-width: 1.0;"/><text fill="#000000" font-family="sans-serif" font-size="11" lengthAdjust="spacingAndGlyphs" textLength="198" x="27" y="162.6064">GraphNodeItemProvider(AdapterFactory)</text><ellipse cx="18" cy="172.0234" fill="#84BE84" rx="3" ry="3" style="stroke: #038048; stroke-width: 1.0;"/><text fill="#000000" font-family="sans-serif" font-size="11" lengthAdjust="spacingAndGlyphs" textLength="298" x="27" y="176.4424">getPropertyDescriptors(Object): List&lt;IItemPropertyDescriptor&gt;</text><ellipse cx="18" cy="185.8594" fill="#84BE84" rx="3" ry="3" style="stroke: #038048; stroke-width: 1.0;"/><text fill="#000000" font-family="sans-serif" font-size="11" lengthAdjust="spacingAndGlyphs" textLength="119" x="27" y="190.2783">getImage(Object): Object</text><ellipse cx="18" cy="199.6953" fill="#84BE84" rx="3" ry="3" style="stroke: #038048; stroke-width: 1.0;"/><text fill="#000000" font-family="sans-serif" font-size="11" lengthAdjust="spacingAndGlyphs" textLength="109" x="27" y="204.1143">getText(Object): String</text><ellipse cx="18" cy="213.5313" fill="#84BE84" rx="3" ry="3" style="stroke: #038048; stroke-width: 1.0;"/><text fill="#000000" font-family="sans-serif" font-size="11" lengthAdjust="spacingAndGlyphs" textLength="157" x="27" y="217.9502">notifyChanged(Notification): void</text><ellipse cx="18" cy="227.3672" fill="#84BE84" rx="3" ry="3" style="stroke: #038048; stroke-width: 1.0;"/><text fill="#000000" font-family="sans-serif" font-size="11" lengthAdjust="spacingAndGlyphs" textLength="308" x="27" y="231.7861">getCreateChildText(Object, Object, Object, Collection&lt;?&gt;): String</text></a><!--MD5=[65d9090ac21d1f1c4bb97467137462ef]
class org.eclipse.epf.uma.provider.GraphElementItemProvider--><a href="GraphElementItemProvider.html" target="_top" title="GraphElementItemProvider.html" xlink:actuate="onRequest" xlink:href="GraphElementItemProvider.html" xlink:show="new" xlink:title="GraphElementItemProvider.html" xlink:type="simple"><rect codeLine="14" fill="#FEFECE" filter="url(#fnf4625f5vz1j)" height="40.1875" id="org.eclipse.epf.uma.provider.GraphElementItemProvider" style="stroke: #A80036; stroke-width: 1.5;" width="202" x="73" y="7"/><ellipse cx="88" cy="27.0938" fill="#ADD1B2" rx="11" ry="11" style="stroke: #A80036; stroke-width: 1.0;"/><path d="M90.7656,22.9688 Q90.9219,22.75 91.1094,22.6406 Q91.2969,22.5313 91.5156,22.5313 Q91.8906,22.5313 92.125,22.7969 Q92.3594,23.0469 92.3594,23.6563 L92.3594,25.1094 Q92.3594,25.7188 92.125,25.9844 Q91.8906,26.25 91.5156,26.25 Q91.1719,26.25 90.9688,26.0469 Q90.7656,25.8594 90.6563,25.3438 Q90.6094,24.9844 90.4219,24.7969 Q90.0938,24.4219 89.4844,24.2031 Q88.875,23.9844 88.25,23.9844 Q87.4844,23.9844 86.8438,24.3125 Q86.2188,24.6406 85.7188,25.3906 Q85.2344,26.1406 85.2344,27.1719 L85.2344,28.2656 Q85.2344,29.5 86.125,30.3281 Q87.0156,31.1406 88.6094,31.1406 Q89.5469,31.1406 90.2031,30.8906 Q90.5938,30.7344 91.0156,30.2969 Q91.2813,30.0313 91.4219,29.9531 Q91.5781,29.875 91.7813,29.875 Q92.1094,29.875 92.3594,30.1406 Q92.625,30.3906 92.625,30.7344 Q92.625,31.0781 92.2813,31.4844 Q91.7813,32.0625 90.9844,32.3906 Q89.9063,32.8438 88.6094,32.8438 Q87.0938,32.8438 85.8906,32.2188 Q84.9063,31.7188 84.2188,30.6563 Q83.5313,29.5781 83.5313,28.2969 L83.5313,27.1406 Q83.5313,25.8125 84.1406,24.6719 Q84.7656,23.5156 85.8594,22.9063 Q86.9531,22.2813 88.1875,22.2813 Q88.9219,22.2813 89.5625,22.4531 Q90.2188,22.6094 90.7656,22.9688 Z "/><text fill="#000000" font-family="sans-serif" font-size="14" lengthAdjust="spacingAndGlyphs" textLength="170" x="102" y="26.5332">GraphElementItemProvider</text><text fill="#000000" font-family="sans-serif" font-size="10" lengthAdjust="spacingAndGlyphs" textLength="135" x="119.5" y="39.9902">org.eclipse.epf.uma.provider</text></a><!--MD5=[1ba72f30d3a6ef90c4556ab4e0c60738]
reverse link org.eclipse.epf.uma.provider.GraphElementItemProvider to org.eclipse.epf.uma.provider.GraphNodeItemProvider--><path codeLine="16" d="M174,67.46 C174,79.65 174,93.4 174,106.82 " fill="none" id="org.eclipse.epf.uma.provider.GraphElementItemProvider-backto-org.eclipse.epf.uma.provider.GraphNodeItemProvider" style="stroke: #A80036; stroke-width: 1.0;"/><polygon fill="none" points="167,67.06,174,47.06,181,67.06,167,67.06" style="stroke: #A80036; stroke-width: 1.0;"/><text fill="#888888" font-family="sans-serif" font-size="10" lengthAdjust="spacingAndGlyphs" textLength="190" x="76" y="261.584">UMLDoclet 2.0.12, PlantUML 1.2020.16</text><!--MD5=[54ccd17d097bd82eebed51771eb86423]
@startuml
    set namespaceSeparator none
    hide empty fields
    hide empty methods

    class "<size:14>GraphNodeItemProvider\n<size:10>org.eclipse.epf.uma.provider" as org.eclipse.epf.uma.provider.GraphNodeItemProvider [[GraphNodeItemProvider.html]] {
        +GraphNodeItemProvider(AdapterFactory)
        +getPropertyDescriptors(Object): List<IItemPropertyDescriptor>
        +getImage(Object): Object
        +getText(Object): String
        +notifyChanged(Notification): void
        +getCreateChildText(Object, Object, Object, Collection<?>): String
    }

    class "<size:14>GraphElementItemProvider\n<size:10>org.eclipse.epf.uma.provider" as org.eclipse.epf.uma.provider.GraphElementItemProvider [[GraphElementItemProvider.html]]

    org.eclipse.epf.uma.provider.GraphElementItemProvider <|- - org.eclipse.epf.uma.provider.GraphNodeItemProvider

    center footer UMLDoclet 2.0.12, PlantUML 1.2020.16
@enduml

PlantUML version 1.2020.16(Sun Aug 23 22:20:43 CEST 2020)
(APACHE source distribution)
Java Runtime: Java(TM) SE Runtime Environment
JVM: Java HotSpot(TM) 64-Bit Server VM
Default Encoding: Cp1252
Language: es
Country: ES
--></g></svg>