<?xml version="1.0" encoding="UTF-8" standalone="no"?><svg xmlns="http://www.w3.org/2000/svg" xmlns:xlink="http://www.w3.org/1999/xlink" contentScriptType="application/ecmascript" contentStyleType="text/css" height="275px" preserveAspectRatio="none" style="width:360px;height:275px;" version="1.1" viewBox="0 0 360 275" width="360px" zoomAndPan="magnify"><defs><filter height="300%" id="fdv1g4r9ri5s4" width="300%" x="-1" y="-1"><feGaussianBlur result="blurOut" stdDeviation="2.0"/><feColorMatrix in="blurOut" result="blurOut2" type="matrix" values="0 0 0 0 0 0 0 0 0 0 0 0 0 0 0 0 0 0 .4 0"/><feOffset dx="4.0" dy="4.0" in="blurOut2" result="blurOut3"/><feBlend in="SourceGraphic" in2="blurOut3" mode="normal"/></filter></defs><g><!--MD5=[a4e9dab20d964bd9762d62985347911e]
class org.eclipse.epf.uma.provider.GraphConnectorItemProvider--><a href="GraphConnectorItemProvider.html" target="_top" title="GraphConnectorItemProvider.html" xlink:actuate="onRequest" xlink:href="GraphConnectorItemProvider.html" xlink:show="new" xlink:title="GraphConnectorItemProvider.html" xlink:type="simple"><rect codeLine="5" fill="#FEFECE" filter="url(#fdv1g4r9ri5s4)" height="131.2031" id="org.eclipse.epf.uma.provider.GraphConnectorItemProvider" style="stroke: #A80036; stroke-width: 1.5;" width="334" x="7" y="107"/><ellipse cx="77.25" cy="127.0938" fill="#ADD1B2" rx="11" ry="11" style="stroke: #A80036; stroke-width: 1.0;"/><path d="M80.0156,122.9688 Q80.1719,122.75 80.3594,122.6406 Q80.5469,122.5313 80.7656,122.5313 Q81.1406,122.5313 81.375,122.7969 Q81.6094,123.0469 81.6094,123.6563 L81.6094,125.1094 Q81.6094,125.7188 81.375,125.9844 Q81.1406,126.25 80.7656,126.25 Q80.4219,126.25 80.2188,126.0469 Q80.0156,125.8594 79.9063,125.3438 Q79.8594,124.9844 79.6719,124.7969 Q79.3438,124.4219 78.7344,124.2031 Q78.125,123.9844 77.5,123.9844 Q76.7344,123.9844 76.0938,124.3125 Q75.4688,124.6406 74.9688,125.3906 Q74.4844,126.1406 74.4844,127.1719 L74.4844,128.2656 Q74.4844,129.5 75.375,130.3281 Q76.2656,131.1406 77.8594,131.1406 Q78.7969,131.1406 79.4531,130.8906 Q79.8438,130.7344 80.2656,130.2969 Q80.5313,130.0313 80.6719,129.9531 Q80.8281,129.875 81.0313,129.875 Q81.3594,129.875 81.6094,130.1406 Q81.875,130.3906 81.875,130.7344 Q81.875,131.0781 81.5313,131.4844 Q81.0313,132.0625 80.2344,132.3906 Q79.1563,132.8438 77.8594,132.8438 Q76.3438,132.8438 75.1406,132.2188 Q74.1563,131.7188 73.4688,130.6563 Q72.7813,129.5781 72.7813,128.2969 L72.7813,127.1406 Q72.7813,125.8125 73.3906,124.6719 Q74.0156,123.5156 75.1094,122.9063 Q76.2031,122.2813 77.4375,122.2813 Q78.1719,122.2813 78.8125,122.4531 Q79.4688,122.6094 80.0156,122.9688 Z "/><text fill="#000000" font-family="sans-serif" font-size="14" lengthAdjust="spacingAndGlyphs" textLength="185" x="97.75" y="126.5332">GraphConnectorItemProvider</text><text fill="#000000" font-family="sans-serif" font-size="10" lengthAdjust="spacingAndGlyphs" textLength="135" x="122.75" y="139.9902">org.eclipse.epf.uma.provider</text><line style="stroke: #A80036; stroke-width: 1.5;" x1="8" x2="340" y1="147.1875" y2="147.1875"/><ellipse cx="18" cy="158.1875" fill="#84BE84" rx="3" ry="3" style="stroke: #038048; stroke-width: 1.0;"/><text fill="#000000" font-family="sans-serif" font-size="11" lengthAdjust="spacingAndGlyphs" textLength="223" x="27" y="162.6064">GraphConnectorItemProvider(AdapterFactory)</text><ellipse cx="18" cy="172.0234" fill="#84BE84" rx="3" ry="3" style="stroke: #038048; stroke-width: 1.0;"/><text fill="#000000" font-family="sans-serif" font-size="11" lengthAdjust="spacingAndGlyphs" textLength="298" x="27" y="176.4424">getPropertyDescriptors(Object): List&lt;IItemPropertyDescriptor&gt;</text><ellipse cx="18" cy="185.8594" fill="#84BE84" rx="3" ry="3" style="stroke: #038048; stroke-width: 1.0;"/><text fill="#000000" font-family="sans-serif" font-size="11" lengthAdjust="spacingAndGlyphs" textLength="119" x="27" y="190.2783">getImage(Object): Object</text><ellipse cx="18" cy="199.6953" fill="#84BE84" rx="3" ry="3" style="stroke: #038048; stroke-width: 1.0;"/><text fill="#000000" font-family="sans-serif" font-size="11" lengthAdjust="spacingAndGlyphs" textLength="109" x="27" y="204.1143">getText(Object): String</text><ellipse cx="18" cy="213.5313" fill="#84BE84" rx="3" ry="3" style="stroke: #038048; stroke-width: 1.0;"/><text fill="#000000" font-family="sans-serif" font-size="11" lengthAdjust="spacingAndGlyphs" textLength="157" x="27" y="217.9502">notifyChanged(Notification): void</text><ellipse cx="18" cy="227.3672" fill="#84BE84" rx="3" ry="3" style="stroke: #038048; stroke-width: 1.0;"/><text fill="#000000" font-family="sans-serif" font-size="11" lengthAdjust="spacingAndGlyphs" textLength="308" x="27" y="231.7861">getCreateChildText(Object, Object, Object, Collection&lt;?&gt;): String</text></a><!--MD5=[65d9090ac21d1f1c4bb97467137462ef]
class org.eclipse.epf.uma.provider.GraphElementItemProvider--><a href="GraphElementItemProvider.html" target="_top" title="GraphElementItemProvider.html" xlink:actuate="onRequest" xlink:href="GraphElementItemProvider.html" xlink:show="new" xlink:title="GraphElementItemProvider.html" xlink:type="simple"><rect codeLine="14" fill="#FEFECE" filter="url(#fdv1g4r9ri5s4)" height="40.1875" id="org.eclipse.epf.uma.provider.GraphElementItemProvider" style="stroke: #A80036; stroke-width: 1.5;" width="202" x="73" y="7"/><ellipse cx="88" cy="27.0938" fill="#ADD1B2" rx="11" ry="11" style="stroke: #A80036; stroke-width: 1.0;"/><path d="M90.7656,22.9688 Q90.9219,22.75 91.1094,22.6406 Q91.2969,22.5313 91.5156,22.5313 Q91.8906,22.5313 92.125,22.7969 Q92.3594,23.0469 92.3594,23.6563 L92.3594,25.1094 Q92.3594,25.7188 92.125,25.9844 Q91.8906,26.25 91.5156,26.25 Q91.1719,26.25 90.9688,26.0469 Q90.7656,25.8594 90.6563,25.3438 Q90.6094,24.9844 90.4219,24.7969 Q90.0938,24.4219 89.4844,24.2031 Q88.875,23.9844 88.25,23.9844 Q87.4844,23.9844 86.8438,24.3125 Q86.2188,24.6406 85.7188,25.3906 Q85.2344,26.1406 85.2344,27.1719 L85.2344,28.2656 Q85.2344,29.5 86.125,30.3281 Q87.0156,31.1406 88.6094,31.1406 Q89.5469,31.1406 90.2031,30.8906 Q90.5938,30.7344 91.0156,30.2969 Q91.2813,30.0313 91.4219,29.9531 Q91.5781,29.875 91.7813,29.875 Q92.1094,29.875 92.3594,30.1406 Q92.625,30.3906 92.625,30.7344 Q92.625,31.0781 92.2813,31.4844 Q91.7813,32.0625 90.9844,32.3906 Q89.9063,32.8438 88.6094,32.8438 Q87.0938,32.8438 85.8906,32.2188 Q84.9063,31.7188 84.2188,30.6563 Q83.5313,29.5781 83.5313,28.2969 L83.5313,27.1406 Q83.5313,25.8125 84.1406,24.6719 Q84.7656,23.5156 85.8594,22.9063 Q86.9531,22.2813 88.1875,22.2813 Q88.9219,22.2813 89.5625,22.4531 Q90.2188,22.6094 90.7656,22.9688 Z "/><text fill="#000000" font-family="sans-serif" font-size="14" lengthAdjust="spacingAndGlyphs" textLength="170" x="102" y="26.5332">GraphElementItemProvider</text><text fill="#000000" font-family="sans-serif" font-size="10" lengthAdjust="spacingAndGlyphs" textLength="135" x="119.5" y="39.9902">org.eclipse.epf.uma.provider</text></a><!--MD5=[69423d62a77a60f0482246454dbc0174]
reverse link org.eclipse.epf.uma.provider.GraphElementItemProvider to org.eclipse.epf.uma.provider.GraphConnectorItemProvider--><path codeLine="16" d="M174,67.46 C174,79.65 174,93.4 174,106.82 " fill="none" id="org.eclipse.epf.uma.provider.GraphElementItemProvider-backto-org.eclipse.epf.uma.provider.GraphConnectorItemProvider" style="stroke: #A80036; stroke-width: 1.0;"/><polygon fill="none" points="167,67.06,174,47.06,181,67.06,167,67.06" style="stroke: #A80036; stroke-width: 1.0;"/><text fill="#888888" font-family="sans-serif" font-size="10" lengthAdjust="spacingAndGlyphs" textLength="190" x="76" y="261.584">UMLDoclet 2.0.12, PlantUML 1.2020.16</text><!--MD5=[0f1c590bf65773e929d48bf338580187]
@startuml
    set namespaceSeparator none
    hide empty fields
    hide empty methods

    class "<size:14>GraphConnectorItemProvider\n<size:10>org.eclipse.epf.uma.provider" as org.eclipse.epf.uma.provider.GraphConnectorItemProvider [[GraphConnectorItemProvider.html]] {
        +GraphConnectorItemProvider(AdapterFactory)
        +getPropertyDescriptors(Object): List<IItemPropertyDescriptor>
        +getImage(Object): Object
        +getText(Object): String
        +notifyChanged(Notification): void
        +getCreateChildText(Object, Object, Object, Collection<?>): String
    }

    class "<size:14>GraphElementItemProvider\n<size:10>org.eclipse.epf.uma.provider" as org.eclipse.epf.uma.provider.GraphElementItemProvider [[GraphElementItemProvider.html]]

    org.eclipse.epf.uma.provider.GraphElementItemProvider <|- - org.eclipse.epf.uma.provider.GraphConnectorItemProvider

    center footer UMLDoclet 2.0.12, PlantUML 1.2020.16
@enduml

PlantUML version 1.2020.16(Sun Aug 23 22:20:43 CEST 2020)
(APACHE source distribution)
Java Runtime: Java(TM) SE Runtime Environment
JVM: Java HotSpot(TM) 64-Bit Server VM
Default Encoding: Cp1252
Language: es
Country: ES
--></g></svg>