<?xml version="1.0" encoding="UTF-8" standalone="no"?><svg xmlns="http://www.w3.org/2000/svg" xmlns:xlink="http://www.w3.org/1999/xlink" contentScriptType="application/ecmascript" contentStyleType="text/css" height="261px" preserveAspectRatio="none" style="width:350px;height:261px;" version="1.1" viewBox="0 0 350 261" width="350px" zoomAndPan="magnify"><defs><filter height="300%" id="fc2uq2oinuqf5" width="300%" x="-1" y="-1"><feGaussianBlur result="blurOut" stdDeviation="2.0"/><feColorMatrix in="blurOut" result="blurOut2" type="matrix" values="0 0 0 0 0 0 0 0 0 0 0 0 0 0 0 0 0 0 .4 0"/><feOffset dx="4.0" dy="4.0" in="blurOut2" result="blurOut3"/><feBlend in="SourceGraphic" in2="blurOut3" mode="normal"/></filter></defs><g><!--MD5=[57255def81b01769b79c35628059e6ed]
class org.eclipse.epf.uma.provider.ImageItemProvider--><a href="ImageItemProvider.html" target="_top" title="ImageItemProvider.html" xlink:actuate="onRequest" xlink:href="ImageItemProvider.html" xlink:show="new" xlink:title="ImageItemProvider.html" xlink:type="simple"><rect codeLine="5" fill="#FEFECE" filter="url(#fc2uq2oinuqf5)" height="117.3672" id="org.eclipse.epf.uma.provider.ImageItemProvider" style="stroke: #A80036; stroke-width: 1.5;" width="324" x="7" y="107"/><ellipse cx="97.25" cy="127.0938" fill="#ADD1B2" rx="11" ry="11" style="stroke: #A80036; stroke-width: 1.0;"/><path d="M100.0156,122.9688 Q100.1719,122.75 100.3594,122.6406 Q100.5469,122.5313 100.7656,122.5313 Q101.1406,122.5313 101.375,122.7969 Q101.6094,123.0469 101.6094,123.6563 L101.6094,125.1094 Q101.6094,125.7188 101.375,125.9844 Q101.1406,126.25 100.7656,126.25 Q100.4219,126.25 100.2188,126.0469 Q100.0156,125.8594 99.9063,125.3438 Q99.8594,124.9844 99.6719,124.7969 Q99.3438,124.4219 98.7344,124.2031 Q98.125,123.9844 97.5,123.9844 Q96.7344,123.9844 96.0938,124.3125 Q95.4688,124.6406 94.9688,125.3906 Q94.4844,126.1406 94.4844,127.1719 L94.4844,128.2656 Q94.4844,129.5 95.375,130.3281 Q96.2656,131.1406 97.8594,131.1406 Q98.7969,131.1406 99.4531,130.8906 Q99.8438,130.7344 100.2656,130.2969 Q100.5313,130.0313 100.6719,129.9531 Q100.8281,129.875 101.0313,129.875 Q101.3594,129.875 101.6094,130.1406 Q101.875,130.3906 101.875,130.7344 Q101.875,131.0781 101.5313,131.4844 Q101.0313,132.0625 100.2344,132.3906 Q99.1563,132.8438 97.8594,132.8438 Q96.3438,132.8438 95.1406,132.2188 Q94.1563,131.7188 93.4688,130.6563 Q92.7813,129.5781 92.7813,128.2969 L92.7813,127.1406 Q92.7813,125.8125 93.3906,124.6719 Q94.0156,123.5156 95.1094,122.9063 Q96.2031,122.2813 97.4375,122.2813 Q98.1719,122.2813 98.8125,122.4531 Q99.4688,122.6094 100.0156,122.9688 Z "/><text fill="#000000" font-family="sans-serif" font-size="14" lengthAdjust="spacingAndGlyphs" textLength="117" x="126.75" y="126.5332">ImageItemProvider</text><text fill="#000000" font-family="sans-serif" font-size="10" lengthAdjust="spacingAndGlyphs" textLength="135" x="117.75" y="139.9902">org.eclipse.epf.uma.provider</text><line style="stroke: #A80036; stroke-width: 1.5;" x1="8" x2="330" y1="147.1875" y2="147.1875"/><ellipse cx="18" cy="158.1875" fill="#84BE84" rx="3" ry="3" style="stroke: #038048; stroke-width: 1.0;"/><text fill="#000000" font-family="sans-serif" font-size="11" lengthAdjust="spacingAndGlyphs" textLength="171" x="27" y="162.6064">ImageItemProvider(AdapterFactory)</text><ellipse cx="18" cy="172.0234" fill="#84BE84" rx="3" ry="3" style="stroke: #038048; stroke-width: 1.0;"/><text fill="#000000" font-family="sans-serif" font-size="11" lengthAdjust="spacingAndGlyphs" textLength="298" x="27" y="176.4424">getPropertyDescriptors(Object): List&lt;IItemPropertyDescriptor&gt;</text><ellipse cx="18" cy="185.8594" fill="#84BE84" rx="3" ry="3" style="stroke: #038048; stroke-width: 1.0;"/><text fill="#000000" font-family="sans-serif" font-size="11" lengthAdjust="spacingAndGlyphs" textLength="119" x="27" y="190.2783">getImage(Object): Object</text><ellipse cx="18" cy="199.6953" fill="#84BE84" rx="3" ry="3" style="stroke: #038048; stroke-width: 1.0;"/><text fill="#000000" font-family="sans-serif" font-size="11" lengthAdjust="spacingAndGlyphs" textLength="109" x="27" y="204.1143">getText(Object): String</text><ellipse cx="18" cy="213.5313" fill="#84BE84" rx="3" ry="3" style="stroke: #038048; stroke-width: 1.0;"/><text fill="#000000" font-family="sans-serif" font-size="11" lengthAdjust="spacingAndGlyphs" textLength="157" x="27" y="217.9502">notifyChanged(Notification): void</text></a><!--MD5=[6dcad99b368fd08df77f4fe73b58d9e3]
class org.eclipse.epf.uma.provider.LeafElementItemProvider--><a href="LeafElementItemProvider.html" target="_top" title="LeafElementItemProvider.html" xlink:actuate="onRequest" xlink:href="LeafElementItemProvider.html" xlink:show="new" xlink:title="LeafElementItemProvider.html" xlink:type="simple"><rect codeLine="13" fill="#FEFECE" filter="url(#fc2uq2oinuqf5)" height="40.1875" id="org.eclipse.epf.uma.provider.LeafElementItemProvider" style="stroke: #A80036; stroke-width: 1.5;" width="190" x="74" y="7"/><ellipse cx="89" cy="27.0938" fill="#ADD1B2" rx="11" ry="11" style="stroke: #A80036; stroke-width: 1.0;"/><path d="M91.7656,22.9688 Q91.9219,22.75 92.1094,22.6406 Q92.2969,22.5313 92.5156,22.5313 Q92.8906,22.5313 93.125,22.7969 Q93.3594,23.0469 93.3594,23.6563 L93.3594,25.1094 Q93.3594,25.7188 93.125,25.9844 Q92.8906,26.25 92.5156,26.25 Q92.1719,26.25 91.9688,26.0469 Q91.7656,25.8594 91.6563,25.3438 Q91.6094,24.9844 91.4219,24.7969 Q91.0938,24.4219 90.4844,24.2031 Q89.875,23.9844 89.25,23.9844 Q88.4844,23.9844 87.8438,24.3125 Q87.2188,24.6406 86.7188,25.3906 Q86.2344,26.1406 86.2344,27.1719 L86.2344,28.2656 Q86.2344,29.5 87.125,30.3281 Q88.0156,31.1406 89.6094,31.1406 Q90.5469,31.1406 91.2031,30.8906 Q91.5938,30.7344 92.0156,30.2969 Q92.2813,30.0313 92.4219,29.9531 Q92.5781,29.875 92.7813,29.875 Q93.1094,29.875 93.3594,30.1406 Q93.625,30.3906 93.625,30.7344 Q93.625,31.0781 93.2813,31.4844 Q92.7813,32.0625 91.9844,32.3906 Q90.9063,32.8438 89.6094,32.8438 Q88.0938,32.8438 86.8906,32.2188 Q85.9063,31.7188 85.2188,30.6563 Q84.5313,29.5781 84.5313,28.2969 L84.5313,27.1406 Q84.5313,25.8125 85.1406,24.6719 Q85.7656,23.5156 86.8594,22.9063 Q87.9531,22.2813 89.1875,22.2813 Q89.9219,22.2813 90.5625,22.4531 Q91.2188,22.6094 91.7656,22.9688 Z "/><text fill="#000000" font-family="sans-serif" font-size="14" lengthAdjust="spacingAndGlyphs" textLength="158" x="103" y="26.5332">LeafElementItemProvider</text><text fill="#000000" font-family="sans-serif" font-size="10" lengthAdjust="spacingAndGlyphs" textLength="135" x="114.5" y="39.9902">org.eclipse.epf.uma.provider</text></a><!--MD5=[34c35b7f9a3037d3f4737432ff7a412a]
reverse link org.eclipse.epf.uma.provider.LeafElementItemProvider to org.eclipse.epf.uma.provider.ImageItemProvider--><path codeLine="15" d="M169,67.38 C169,79.73 169,93.63 169,106.97 " fill="none" id="org.eclipse.epf.uma.provider.LeafElementItemProvider-backto-org.eclipse.epf.uma.provider.ImageItemProvider" style="stroke: #A80036; stroke-width: 1.0;"/><polygon fill="none" points="162,67.27,169,47.27,176,67.27,162,67.27" style="stroke: #A80036; stroke-width: 1.0;"/><text fill="#888888" font-family="sans-serif" font-size="10" lengthAdjust="spacingAndGlyphs" textLength="190" x="71" y="247.748">UMLDoclet 2.0.12, PlantUML 1.2020.16</text><!--MD5=[050589b26ad0dd8913eeb9f796f4b453]
@startuml
    set namespaceSeparator none
    hide empty fields
    hide empty methods

    class "<size:14>ImageItemProvider\n<size:10>org.eclipse.epf.uma.provider" as org.eclipse.epf.uma.provider.ImageItemProvider [[ImageItemProvider.html]] {
        +ImageItemProvider(AdapterFactory)
        +getPropertyDescriptors(Object): List<IItemPropertyDescriptor>
        +getImage(Object): Object
        +getText(Object): String
        +notifyChanged(Notification): void
    }

    class "<size:14>LeafElementItemProvider\n<size:10>org.eclipse.epf.uma.provider" as org.eclipse.epf.uma.provider.LeafElementItemProvider [[LeafElementItemProvider.html]]

    org.eclipse.epf.uma.provider.LeafElementItemProvider <|- - org.eclipse.epf.uma.provider.ImageItemProvider

    center footer UMLDoclet 2.0.12, PlantUML 1.2020.16
@enduml

PlantUML version 1.2020.16(Sun Aug 23 22:20:43 CEST 2020)
(APACHE source distribution)
Java Runtime: Java(TM) SE Runtime Environment
JVM: Java HotSpot(TM) 64-Bit Server VM
Default Encoding: Cp1252
Language: es
Country: ES
--></g></svg>