<?xml version="1.0" encoding="UTF-8" standalone="no"?><svg xmlns="http://www.w3.org/2000/svg" xmlns:xlink="http://www.w3.org/1999/xlink" contentScriptType="application/ecmascript" contentStyleType="text/css" height="261px" preserveAspectRatio="none" style="width:393px;height:261px;" version="1.1" viewBox="0 0 393 261" width="393px" zoomAndPan="magnify"><defs><filter height="300%" id="f1nzuzs3zfuoqj" width="300%" x="-1" y="-1"><feGaussianBlur result="blurOut" stdDeviation="2.0"/><feColorMatrix in="blurOut" result="blurOut2" type="matrix" values="0 0 0 0 0 0 0 0 0 0 0 0 0 0 0 0 0 0 .4 0"/><feOffset dx="4.0" dy="4.0" in="blurOut2" result="blurOut3"/><feBlend in="SourceGraphic" in2="blurOut3" mode="normal"/></filter></defs><g><!--MD5=[742f79c2473b5b60b51151f979ccdcb1]
class org.eclipse.epf.uma.provider.MethodElementItemProvider--><a href="MethodElementItemProvider.html" target="_top" title="MethodElementItemProvider.html" xlink:actuate="onRequest" xlink:href="MethodElementItemProvider.html" xlink:show="new" xlink:title="MethodElementItemProvider.html" xlink:type="simple"><rect codeLine="5" fill="#FEFECE" filter="url(#f1nzuzs3zfuoqj)" height="117.3672" id="org.eclipse.epf.uma.provider.MethodElementItemProvider" style="stroke: #A80036; stroke-width: 1.5;" width="367" x="7" y="107"/><ellipse cx="97.75" cy="127.0938" fill="#ADD1B2" rx="11" ry="11" style="stroke: #A80036; stroke-width: 1.0;"/><path d="M100.5156,122.9688 Q100.6719,122.75 100.8594,122.6406 Q101.0469,122.5313 101.2656,122.5313 Q101.6406,122.5313 101.875,122.7969 Q102.1094,123.0469 102.1094,123.6563 L102.1094,125.1094 Q102.1094,125.7188 101.875,125.9844 Q101.6406,126.25 101.2656,126.25 Q100.9219,126.25 100.7188,126.0469 Q100.5156,125.8594 100.4063,125.3438 Q100.3594,124.9844 100.1719,124.7969 Q99.8438,124.4219 99.2344,124.2031 Q98.625,123.9844 98,123.9844 Q97.2344,123.9844 96.5938,124.3125 Q95.9688,124.6406 95.4688,125.3906 Q94.9844,126.1406 94.9844,127.1719 L94.9844,128.2656 Q94.9844,129.5 95.875,130.3281 Q96.7656,131.1406 98.3594,131.1406 Q99.2969,131.1406 99.9531,130.8906 Q100.3438,130.7344 100.7656,130.2969 Q101.0313,130.0313 101.1719,129.9531 Q101.3281,129.875 101.5313,129.875 Q101.8594,129.875 102.1094,130.1406 Q102.375,130.3906 102.375,130.7344 Q102.375,131.0781 102.0313,131.4844 Q101.5313,132.0625 100.7344,132.3906 Q99.6563,132.8438 98.3594,132.8438 Q96.8438,132.8438 95.6406,132.2188 Q94.6563,131.7188 93.9688,130.6563 Q93.2813,129.5781 93.2813,128.2969 L93.2813,127.1406 Q93.2813,125.8125 93.8906,124.6719 Q94.5156,123.5156 95.6094,122.9063 Q96.7031,122.2813 97.9375,122.2813 Q98.6719,122.2813 99.3125,122.4531 Q99.9688,122.6094 100.5156,122.9688 Z "/><text fill="#000000" font-family="sans-serif" font-size="14" lengthAdjust="spacingAndGlyphs" textLength="177" x="118.25" y="126.5332">MethodElementItemProvider</text><text fill="#000000" font-family="sans-serif" font-size="10" lengthAdjust="spacingAndGlyphs" textLength="135" x="139.25" y="139.9902">org.eclipse.epf.uma.provider</text><line style="stroke: #A80036; stroke-width: 1.5;" x1="8" x2="373" y1="147.1875" y2="147.1875"/><ellipse cx="18" cy="158.1875" fill="#84BE84" rx="3" ry="3" style="stroke: #038048; stroke-width: 1.0;"/><text fill="#000000" font-family="sans-serif" font-size="11" lengthAdjust="spacingAndGlyphs" textLength="215" x="27" y="162.6064">MethodElementItemProvider(AdapterFactory)</text><ellipse cx="18" cy="172.0234" fill="#84BE84" rx="3" ry="3" style="stroke: #038048; stroke-width: 1.0;"/><text fill="#000000" font-family="sans-serif" font-size="11" lengthAdjust="spacingAndGlyphs" textLength="298" x="27" y="176.4424">getPropertyDescriptors(Object): List&lt;IItemPropertyDescriptor&gt;</text><ellipse cx="18" cy="185.8594" fill="#84BE84" rx="3" ry="3" style="stroke: #038048; stroke-width: 1.0;"/><text fill="#000000" font-family="sans-serif" font-size="11" lengthAdjust="spacingAndGlyphs" textLength="341" x="27" y="190.2783">getChildrenFeatures(Object): Collection&lt;? extends EStructuralFeature&gt;</text><ellipse cx="18" cy="199.6953" fill="#84BE84" rx="3" ry="3" style="stroke: #038048; stroke-width: 1.0;"/><text fill="#000000" font-family="sans-serif" font-size="11" lengthAdjust="spacingAndGlyphs" textLength="109" x="27" y="204.1143">getText(Object): String</text><ellipse cx="18" cy="213.5313" fill="#84BE84" rx="3" ry="3" style="stroke: #038048; stroke-width: 1.0;"/><text fill="#000000" font-family="sans-serif" font-size="11" lengthAdjust="spacingAndGlyphs" textLength="157" x="27" y="217.9502">notifyChanged(Notification): void</text></a><!--MD5=[194e651fccbeeaa783366163e0c73ae0]
class org.eclipse.epf.uma.provider.PackageableElementItemProvider--><a href="PackageableElementItemProvider.html" target="_top" title="PackageableElementItemProvider.html" xlink:actuate="onRequest" xlink:href="PackageableElementItemProvider.html" xlink:show="new" xlink:title="PackageableElementItemProvider.html" xlink:type="simple"><rect codeLine="13" fill="#FEFECE" filter="url(#f1nzuzs3zfuoqj)" height="40.1875" id="org.eclipse.epf.uma.provider.PackageableElementItemProvider" style="stroke: #A80036; stroke-width: 1.5;" width="244" x="68.5" y="7"/><ellipse cx="83.5" cy="27.0938" fill="#ADD1B2" rx="11" ry="11" style="stroke: #A80036; stroke-width: 1.0;"/><path d="M86.2656,22.9688 Q86.4219,22.75 86.6094,22.6406 Q86.7969,22.5313 87.0156,22.5313 Q87.3906,22.5313 87.625,22.7969 Q87.8594,23.0469 87.8594,23.6563 L87.8594,25.1094 Q87.8594,25.7188 87.625,25.9844 Q87.3906,26.25 87.0156,26.25 Q86.6719,26.25 86.4688,26.0469 Q86.2656,25.8594 86.1563,25.3438 Q86.1094,24.9844 85.9219,24.7969 Q85.5938,24.4219 84.9844,24.2031 Q84.375,23.9844 83.75,23.9844 Q82.9844,23.9844 82.3438,24.3125 Q81.7188,24.6406 81.2188,25.3906 Q80.7344,26.1406 80.7344,27.1719 L80.7344,28.2656 Q80.7344,29.5 81.625,30.3281 Q82.5156,31.1406 84.1094,31.1406 Q85.0469,31.1406 85.7031,30.8906 Q86.0938,30.7344 86.5156,30.2969 Q86.7813,30.0313 86.9219,29.9531 Q87.0781,29.875 87.2813,29.875 Q87.6094,29.875 87.8594,30.1406 Q88.125,30.3906 88.125,30.7344 Q88.125,31.0781 87.7813,31.4844 Q87.2813,32.0625 86.4844,32.3906 Q85.4063,32.8438 84.1094,32.8438 Q82.5938,32.8438 81.3906,32.2188 Q80.4063,31.7188 79.7188,30.6563 Q79.0313,29.5781 79.0313,28.2969 L79.0313,27.1406 Q79.0313,25.8125 79.6406,24.6719 Q80.2656,23.5156 81.3594,22.9063 Q82.4531,22.2813 83.6875,22.2813 Q84.4219,22.2813 85.0625,22.4531 Q85.7188,22.6094 86.2656,22.9688 Z "/><text fill="#000000" font-family="sans-serif" font-size="14" lengthAdjust="spacingAndGlyphs" textLength="212" x="97.5" y="26.5332">PackageableElementItemProvider</text><text fill="#000000" font-family="sans-serif" font-size="10" lengthAdjust="spacingAndGlyphs" textLength="135" x="136" y="39.9902">org.eclipse.epf.uma.provider</text></a><!--MD5=[b820fde00d8564fcf4cb520d30be9e21]
reverse link org.eclipse.epf.uma.provider.PackageableElementItemProvider to org.eclipse.epf.uma.provider.MethodElementItemProvider--><path codeLine="15" d="M190.5,67.38 C190.5,79.73 190.5,93.63 190.5,106.97 " fill="none" id="org.eclipse.epf.uma.provider.PackageableElementItemProvider-backto-org.eclipse.epf.uma.provider.MethodElementItemProvider" style="stroke: #A80036; stroke-width: 1.0;"/><polygon fill="none" points="183.5,67.27,190.5,47.27,197.5,67.27,183.5,67.27" style="stroke: #A80036; stroke-width: 1.0;"/><text fill="#888888" font-family="sans-serif" font-size="10" lengthAdjust="spacingAndGlyphs" textLength="190" x="92.5" y="247.748">UMLDoclet 2.0.12, PlantUML 1.2020.16</text><!--MD5=[8ebe5e91ff952bb7926a2dae5208776f]
@startuml
    set namespaceSeparator none
    hide empty fields
    hide empty methods

    class "<size:14>MethodElementItemProvider\n<size:10>org.eclipse.epf.uma.provider" as org.eclipse.epf.uma.provider.MethodElementItemProvider [[MethodElementItemProvider.html]] {
        +MethodElementItemProvider(AdapterFactory)
        +getPropertyDescriptors(Object): List<IItemPropertyDescriptor>
        +getChildrenFeatures(Object): Collection<? extends EStructuralFeature>
        +getText(Object): String
        +notifyChanged(Notification): void
    }

    class "<size:14>PackageableElementItemProvider\n<size:10>org.eclipse.epf.uma.provider" as org.eclipse.epf.uma.provider.PackageableElementItemProvider [[PackageableElementItemProvider.html]]

    org.eclipse.epf.uma.provider.PackageableElementItemProvider <|- - org.eclipse.epf.uma.provider.MethodElementItemProvider

    center footer UMLDoclet 2.0.12, PlantUML 1.2020.16
@enduml

PlantUML version 1.2020.16(Sun Aug 23 22:20:43 CEST 2020)
(APACHE source distribution)
Java Runtime: Java(TM) SE Runtime Environment
JVM: Java HotSpot(TM) 64-Bit Server VM
Default Encoding: Cp1252
Language: es
Country: ES
--></g></svg>