<?xml version="1.0" encoding="UTF-8" standalone="no"?><svg xmlns="http://www.w3.org/2000/svg" xmlns:xlink="http://www.w3.org/1999/xlink" contentScriptType="application/ecmascript" contentStyleType="text/css" height="261px" preserveAspectRatio="none" style="width:350px;height:261px;" version="1.1" viewBox="0 0 350 261" width="350px" zoomAndPan="magnify"><defs><filter height="300%" id="fcn3qdea2xms4" width="300%" x="-1" y="-1"><feGaussianBlur result="blurOut" stdDeviation="2.0"/><feColorMatrix in="blurOut" result="blurOut2" type="matrix" values="0 0 0 0 0 0 0 0 0 0 0 0 0 0 0 0 0 0 .4 0"/><feOffset dx="4.0" dy="4.0" in="blurOut2" result="blurOut3"/><feBlend in="SourceGraphic" in2="blurOut3" mode="normal"/></filter></defs><g><!--MD5=[e99f7f66d9598db9918fb72e9858c8e2]
class org.eclipse.epf.uma.provider.MethodElementPropertyItemProvider--><a href="MethodElementPropertyItemProvider.html" target="_top" title="MethodElementPropertyItemProvider.html" xlink:actuate="onRequest" xlink:href="MethodElementPropertyItemProvider.html" xlink:show="new" xlink:title="MethodElementPropertyItemProvider.html" xlink:type="simple"><rect codeLine="5" fill="#FEFECE" filter="url(#fcn3qdea2xms4)" height="117.3672" id="org.eclipse.epf.uma.provider.MethodElementPropertyItemProvider" style="stroke: #A80036; stroke-width: 1.5;" width="324" x="7" y="107"/><ellipse cx="49.45" cy="127.0938" fill="#ADD1B2" rx="11" ry="11" style="stroke: #A80036; stroke-width: 1.0;"/><path d="M52.2156,122.9688 Q52.3719,122.75 52.5594,122.6406 Q52.7469,122.5313 52.9656,122.5313 Q53.3406,122.5313 53.575,122.7969 Q53.8094,123.0469 53.8094,123.6563 L53.8094,125.1094 Q53.8094,125.7188 53.575,125.9844 Q53.3406,126.25 52.9656,126.25 Q52.6219,126.25 52.4188,126.0469 Q52.2156,125.8594 52.1063,125.3438 Q52.0594,124.9844 51.8719,124.7969 Q51.5438,124.4219 50.9344,124.2031 Q50.325,123.9844 49.7,123.9844 Q48.9344,123.9844 48.2938,124.3125 Q47.6688,124.6406 47.1688,125.3906 Q46.6844,126.1406 46.6844,127.1719 L46.6844,128.2656 Q46.6844,129.5 47.575,130.3281 Q48.4656,131.1406 50.0594,131.1406 Q50.9969,131.1406 51.6531,130.8906 Q52.0438,130.7344 52.4656,130.2969 Q52.7313,130.0313 52.8719,129.9531 Q53.0281,129.875 53.2313,129.875 Q53.5594,129.875 53.8094,130.1406 Q54.075,130.3906 54.075,130.7344 Q54.075,131.0781 53.7313,131.4844 Q53.2313,132.0625 52.4344,132.3906 Q51.3563,132.8438 50.0594,132.8438 Q48.5438,132.8438 47.3406,132.2188 Q46.3563,131.7188 45.6688,130.6563 Q44.9813,129.5781 44.9813,128.2969 L44.9813,127.1406 Q44.9813,125.8125 45.5906,124.6719 Q46.2156,123.5156 47.3094,122.9063 Q48.4031,122.2813 49.6375,122.2813 Q50.3719,122.2813 51.0125,122.4531 Q51.6688,122.6094 52.2156,122.9688 Z "/><text fill="#000000" font-family="sans-serif" font-size="14" lengthAdjust="spacingAndGlyphs" textLength="231" x="69.55" y="126.5332">MethodElementPropertyItemProvider</text><text fill="#000000" font-family="sans-serif" font-size="10" lengthAdjust="spacingAndGlyphs" textLength="135" x="117.55" y="139.9902">org.eclipse.epf.uma.provider</text><line style="stroke: #A80036; stroke-width: 1.5;" x1="8" x2="330" y1="147.1875" y2="147.1875"/><ellipse cx="18" cy="158.1875" fill="#84BE84" rx="3" ry="3" style="stroke: #038048; stroke-width: 1.0;"/><text fill="#000000" font-family="sans-serif" font-size="11" lengthAdjust="spacingAndGlyphs" textLength="256" x="27" y="162.6064">MethodElementPropertyItemProvider(AdapterFactory)</text><ellipse cx="18" cy="172.0234" fill="#84BE84" rx="3" ry="3" style="stroke: #038048; stroke-width: 1.0;"/><text fill="#000000" font-family="sans-serif" font-size="11" lengthAdjust="spacingAndGlyphs" textLength="298" x="27" y="176.4424">getPropertyDescriptors(Object): List&lt;IItemPropertyDescriptor&gt;</text><ellipse cx="18" cy="185.8594" fill="#84BE84" rx="3" ry="3" style="stroke: #038048; stroke-width: 1.0;"/><text fill="#000000" font-family="sans-serif" font-size="11" lengthAdjust="spacingAndGlyphs" textLength="119" x="27" y="190.2783">getImage(Object): Object</text><ellipse cx="18" cy="199.6953" fill="#84BE84" rx="3" ry="3" style="stroke: #038048; stroke-width: 1.0;"/><text fill="#000000" font-family="sans-serif" font-size="11" lengthAdjust="spacingAndGlyphs" textLength="109" x="27" y="204.1143">getText(Object): String</text><ellipse cx="18" cy="213.5313" fill="#84BE84" rx="3" ry="3" style="stroke: #038048; stroke-width: 1.0;"/><text fill="#000000" font-family="sans-serif" font-size="11" lengthAdjust="spacingAndGlyphs" textLength="157" x="27" y="217.9502">notifyChanged(Notification): void</text></a><!--MD5=[194e651fccbeeaa783366163e0c73ae0]
class org.eclipse.epf.uma.provider.PackageableElementItemProvider--><a href="PackageableElementItemProvider.html" target="_top" title="PackageableElementItemProvider.html" xlink:actuate="onRequest" xlink:href="PackageableElementItemProvider.html" xlink:show="new" xlink:title="PackageableElementItemProvider.html" xlink:type="simple"><rect codeLine="13" fill="#FEFECE" filter="url(#fcn3qdea2xms4)" height="40.1875" id="org.eclipse.epf.uma.provider.PackageableElementItemProvider" style="stroke: #A80036; stroke-width: 1.5;" width="244" x="47" y="7"/><ellipse cx="62" cy="27.0938" fill="#ADD1B2" rx="11" ry="11" style="stroke: #A80036; stroke-width: 1.0;"/><path d="M64.7656,22.9688 Q64.9219,22.75 65.1094,22.6406 Q65.2969,22.5313 65.5156,22.5313 Q65.8906,22.5313 66.125,22.7969 Q66.3594,23.0469 66.3594,23.6563 L66.3594,25.1094 Q66.3594,25.7188 66.125,25.9844 Q65.8906,26.25 65.5156,26.25 Q65.1719,26.25 64.9688,26.0469 Q64.7656,25.8594 64.6563,25.3438 Q64.6094,24.9844 64.4219,24.7969 Q64.0938,24.4219 63.4844,24.2031 Q62.875,23.9844 62.25,23.9844 Q61.4844,23.9844 60.8438,24.3125 Q60.2188,24.6406 59.7188,25.3906 Q59.2344,26.1406 59.2344,27.1719 L59.2344,28.2656 Q59.2344,29.5 60.125,30.3281 Q61.0156,31.1406 62.6094,31.1406 Q63.5469,31.1406 64.2031,30.8906 Q64.5938,30.7344 65.0156,30.2969 Q65.2813,30.0313 65.4219,29.9531 Q65.5781,29.875 65.7813,29.875 Q66.1094,29.875 66.3594,30.1406 Q66.625,30.3906 66.625,30.7344 Q66.625,31.0781 66.2813,31.4844 Q65.7813,32.0625 64.9844,32.3906 Q63.9063,32.8438 62.6094,32.8438 Q61.0938,32.8438 59.8906,32.2188 Q58.9063,31.7188 58.2188,30.6563 Q57.5313,29.5781 57.5313,28.2969 L57.5313,27.1406 Q57.5313,25.8125 58.1406,24.6719 Q58.7656,23.5156 59.8594,22.9063 Q60.9531,22.2813 62.1875,22.2813 Q62.9219,22.2813 63.5625,22.4531 Q64.2188,22.6094 64.7656,22.9688 Z "/><text fill="#000000" font-family="sans-serif" font-size="14" lengthAdjust="spacingAndGlyphs" textLength="212" x="76" y="26.5332">PackageableElementItemProvider</text><text fill="#000000" font-family="sans-serif" font-size="10" lengthAdjust="spacingAndGlyphs" textLength="135" x="114.5" y="39.9902">org.eclipse.epf.uma.provider</text></a><!--MD5=[ea22000407b124da31a5de95aebb07fa]
reverse link org.eclipse.epf.uma.provider.PackageableElementItemProvider to org.eclipse.epf.uma.provider.MethodElementPropertyItemProvider--><path codeLine="15" d="M169,67.38 C169,79.73 169,93.63 169,106.97 " fill="none" id="org.eclipse.epf.uma.provider.PackageableElementItemProvider-backto-org.eclipse.epf.uma.provider.MethodElementPropertyItemProvider" style="stroke: #A80036; stroke-width: 1.0;"/><polygon fill="none" points="162,67.27,169,47.27,176,67.27,162,67.27" style="stroke: #A80036; stroke-width: 1.0;"/><text fill="#888888" font-family="sans-serif" font-size="10" lengthAdjust="spacingAndGlyphs" textLength="190" x="71" y="247.748">UMLDoclet 2.0.12, PlantUML 1.2020.16</text><!--MD5=[fe17d16fcd381eafbe9907f8419ea4ef]
@startuml
    set namespaceSeparator none
    hide empty fields
    hide empty methods

    class "<size:14>MethodElementPropertyItemProvider\n<size:10>org.eclipse.epf.uma.provider" as org.eclipse.epf.uma.provider.MethodElementPropertyItemProvider [[MethodElementPropertyItemProvider.html]] {
        +MethodElementPropertyItemProvider(AdapterFactory)
        +getPropertyDescriptors(Object): List<IItemPropertyDescriptor>
        +getImage(Object): Object
        +getText(Object): String
        +notifyChanged(Notification): void
    }

    class "<size:14>PackageableElementItemProvider\n<size:10>org.eclipse.epf.uma.provider" as org.eclipse.epf.uma.provider.PackageableElementItemProvider [[PackageableElementItemProvider.html]]

    org.eclipse.epf.uma.provider.PackageableElementItemProvider <|- - org.eclipse.epf.uma.provider.MethodElementPropertyItemProvider

    center footer UMLDoclet 2.0.12, PlantUML 1.2020.16
@enduml

PlantUML version 1.2020.16(Sun Aug 23 22:20:43 CEST 2020)
(APACHE source distribution)
Java Runtime: Java(TM) SE Runtime Environment
JVM: Java HotSpot(TM) 64-Bit Server VM
Default Encoding: Cp1252
Language: es
Country: ES
--></g></svg>