<?xml version="1.0" encoding="UTF-8" standalone="no"?><svg xmlns="http://www.w3.org/2000/svg" xmlns:xlink="http://www.w3.org/1999/xlink" contentScriptType="application/ecmascript" contentStyleType="text/css" height="275px" preserveAspectRatio="none" style="width:393px;height:275px;" version="1.1" viewBox="0 0 393 275" width="393px" zoomAndPan="magnify"><defs><filter height="300%" id="fxwkl1usvt0y6" width="300%" x="-1" y="-1"><feGaussianBlur result="blurOut" stdDeviation="2.0"/><feColorMatrix in="blurOut" result="blurOut2" type="matrix" values="0 0 0 0 0 0 0 0 0 0 0 0 0 0 0 0 0 0 .4 0"/><feOffset dx="4.0" dy="4.0" in="blurOut2" result="blurOut3"/><feBlend in="SourceGraphic" in2="blurOut3" mode="normal"/></filter></defs><g><!--MD5=[5ddff7484dcd2061b631b03c2e3f598d]
class org.eclipse.epf.uma.provider.MethodPluginItemProvider--><a href="MethodPluginItemProvider.html" target="_top" title="MethodPluginItemProvider.html" xlink:actuate="onRequest" xlink:href="MethodPluginItemProvider.html" xlink:show="new" xlink:title="MethodPluginItemProvider.html" xlink:type="simple"><rect codeLine="5" fill="#FEFECE" filter="url(#fxwkl1usvt0y6)" height="131.2031" id="org.eclipse.epf.uma.provider.MethodPluginItemProvider" style="stroke: #A80036; stroke-width: 1.5;" width="367" x="7" y="107"/><ellipse cx="103.75" cy="127.0938" fill="#ADD1B2" rx="11" ry="11" style="stroke: #A80036; stroke-width: 1.0;"/><path d="M106.5156,122.9688 Q106.6719,122.75 106.8594,122.6406 Q107.0469,122.5313 107.2656,122.5313 Q107.6406,122.5313 107.875,122.7969 Q108.1094,123.0469 108.1094,123.6563 L108.1094,125.1094 Q108.1094,125.7188 107.875,125.9844 Q107.6406,126.25 107.2656,126.25 Q106.9219,126.25 106.7188,126.0469 Q106.5156,125.8594 106.4063,125.3438 Q106.3594,124.9844 106.1719,124.7969 Q105.8438,124.4219 105.2344,124.2031 Q104.625,123.9844 104,123.9844 Q103.2344,123.9844 102.5938,124.3125 Q101.9688,124.6406 101.4688,125.3906 Q100.9844,126.1406 100.9844,127.1719 L100.9844,128.2656 Q100.9844,129.5 101.875,130.3281 Q102.7656,131.1406 104.3594,131.1406 Q105.2969,131.1406 105.9531,130.8906 Q106.3438,130.7344 106.7656,130.2969 Q107.0313,130.0313 107.1719,129.9531 Q107.3281,129.875 107.5313,129.875 Q107.8594,129.875 108.1094,130.1406 Q108.375,130.3906 108.375,130.7344 Q108.375,131.0781 108.0313,131.4844 Q107.5313,132.0625 106.7344,132.3906 Q105.6563,132.8438 104.3594,132.8438 Q102.8438,132.8438 101.6406,132.2188 Q100.6563,131.7188 99.9688,130.6563 Q99.2813,129.5781 99.2813,128.2969 L99.2813,127.1406 Q99.2813,125.8125 99.8906,124.6719 Q100.5156,123.5156 101.6094,122.9063 Q102.7031,122.2813 103.9375,122.2813 Q104.6719,122.2813 105.3125,122.4531 Q105.9688,122.6094 106.5156,122.9688 Z "/><text fill="#000000" font-family="sans-serif" font-size="14" lengthAdjust="spacingAndGlyphs" textLength="165" x="124.25" y="126.5332">MethodPluginItemProvider</text><text fill="#000000" font-family="sans-serif" font-size="10" lengthAdjust="spacingAndGlyphs" textLength="135" x="139.25" y="139.9902">org.eclipse.epf.uma.provider</text><line style="stroke: #A80036; stroke-width: 1.5;" x1="8" x2="373" y1="147.1875" y2="147.1875"/><ellipse cx="18" cy="158.1875" fill="#84BE84" rx="3" ry="3" style="stroke: #038048; stroke-width: 1.0;"/><text fill="#000000" font-family="sans-serif" font-size="11" lengthAdjust="spacingAndGlyphs" textLength="206" x="27" y="162.6064">MethodPluginItemProvider(AdapterFactory)</text><ellipse cx="18" cy="172.0234" fill="#84BE84" rx="3" ry="3" style="stroke: #038048; stroke-width: 1.0;"/><text fill="#000000" font-family="sans-serif" font-size="11" lengthAdjust="spacingAndGlyphs" textLength="298" x="27" y="176.4424">getPropertyDescriptors(Object): List&lt;IItemPropertyDescriptor&gt;</text><ellipse cx="18" cy="185.8594" fill="#84BE84" rx="3" ry="3" style="stroke: #038048; stroke-width: 1.0;"/><text fill="#000000" font-family="sans-serif" font-size="11" lengthAdjust="spacingAndGlyphs" textLength="341" x="27" y="190.2783">getChildrenFeatures(Object): Collection&lt;? extends EStructuralFeature&gt;</text><ellipse cx="18" cy="199.6953" fill="#84BE84" rx="3" ry="3" style="stroke: #038048; stroke-width: 1.0;"/><text fill="#000000" font-family="sans-serif" font-size="11" lengthAdjust="spacingAndGlyphs" textLength="119" x="27" y="204.1143">getImage(Object): Object</text><ellipse cx="18" cy="213.5313" fill="#84BE84" rx="3" ry="3" style="stroke: #038048; stroke-width: 1.0;"/><text fill="#000000" font-family="sans-serif" font-size="11" lengthAdjust="spacingAndGlyphs" textLength="109" x="27" y="217.9502">getText(Object): String</text><ellipse cx="18" cy="227.3672" fill="#84BE84" rx="3" ry="3" style="stroke: #038048; stroke-width: 1.0;"/><text fill="#000000" font-family="sans-serif" font-size="11" lengthAdjust="spacingAndGlyphs" textLength="157" x="27" y="231.7861">notifyChanged(Notification): void</text></a><!--MD5=[794200b41f79d97cf4fb95fa0600be94]
class org.eclipse.epf.uma.provider.MethodUnitItemProvider--><a href="MethodUnitItemProvider.html" target="_top" title="MethodUnitItemProvider.html" xlink:actuate="onRequest" xlink:href="MethodUnitItemProvider.html" xlink:show="new" xlink:title="MethodUnitItemProvider.html" xlink:type="simple"><rect codeLine="14" fill="#FEFECE" filter="url(#fxwkl1usvt0y6)" height="40.1875" id="org.eclipse.epf.uma.provider.MethodUnitItemProvider" style="stroke: #A80036; stroke-width: 1.5;" width="182" x="99.5" y="7"/><ellipse cx="114.5" cy="27.0938" fill="#ADD1B2" rx="11" ry="11" style="stroke: #A80036; stroke-width: 1.0;"/><path d="M117.2656,22.9688 Q117.4219,22.75 117.6094,22.6406 Q117.7969,22.5313 118.0156,22.5313 Q118.3906,22.5313 118.625,22.7969 Q118.8594,23.0469 118.8594,23.6563 L118.8594,25.1094 Q118.8594,25.7188 118.625,25.9844 Q118.3906,26.25 118.0156,26.25 Q117.6719,26.25 117.4688,26.0469 Q117.2656,25.8594 117.1563,25.3438 Q117.1094,24.9844 116.9219,24.7969 Q116.5938,24.4219 115.9844,24.2031 Q115.375,23.9844 114.75,23.9844 Q113.9844,23.9844 113.3438,24.3125 Q112.7188,24.6406 112.2188,25.3906 Q111.7344,26.1406 111.7344,27.1719 L111.7344,28.2656 Q111.7344,29.5 112.625,30.3281 Q113.5156,31.1406 115.1094,31.1406 Q116.0469,31.1406 116.7031,30.8906 Q117.0938,30.7344 117.5156,30.2969 Q117.7813,30.0313 117.9219,29.9531 Q118.0781,29.875 118.2813,29.875 Q118.6094,29.875 118.8594,30.1406 Q119.125,30.3906 119.125,30.7344 Q119.125,31.0781 118.7813,31.4844 Q118.2813,32.0625 117.4844,32.3906 Q116.4063,32.8438 115.1094,32.8438 Q113.5938,32.8438 112.3906,32.2188 Q111.4063,31.7188 110.7188,30.6563 Q110.0313,29.5781 110.0313,28.2969 L110.0313,27.1406 Q110.0313,25.8125 110.6406,24.6719 Q111.2656,23.5156 112.3594,22.9063 Q113.4531,22.2813 114.6875,22.2813 Q115.4219,22.2813 116.0625,22.4531 Q116.7188,22.6094 117.2656,22.9688 Z "/><text fill="#000000" font-family="sans-serif" font-size="14" lengthAdjust="spacingAndGlyphs" textLength="150" x="128.5" y="26.5332">MethodUnitItemProvider</text><text fill="#000000" font-family="sans-serif" font-size="10" lengthAdjust="spacingAndGlyphs" textLength="135" x="136" y="39.9902">org.eclipse.epf.uma.provider</text></a><!--MD5=[bb477ee1f3e16a93578e38ae83804a2d]
reverse link org.eclipse.epf.uma.provider.MethodUnitItemProvider to org.eclipse.epf.uma.provider.MethodPluginItemProvider--><path codeLine="16" d="M190.5,67.46 C190.5,79.65 190.5,93.4 190.5,106.82 " fill="none" id="org.eclipse.epf.uma.provider.MethodUnitItemProvider-backto-org.eclipse.epf.uma.provider.MethodPluginItemProvider" style="stroke: #A80036; stroke-width: 1.0;"/><polygon fill="none" points="183.5,67.06,190.5,47.06,197.5,67.06,183.5,67.06" style="stroke: #A80036; stroke-width: 1.0;"/><text fill="#888888" font-family="sans-serif" font-size="10" lengthAdjust="spacingAndGlyphs" textLength="190" x="92.5" y="261.584">UMLDoclet 2.0.12, PlantUML 1.2020.16</text><!--MD5=[7cbfd82f85b5fdab7a645b9df7af0ec7]
@startuml
    set namespaceSeparator none
    hide empty fields
    hide empty methods

    class "<size:14>MethodPluginItemProvider\n<size:10>org.eclipse.epf.uma.provider" as org.eclipse.epf.uma.provider.MethodPluginItemProvider [[MethodPluginItemProvider.html]] {
        +MethodPluginItemProvider(AdapterFactory)
        +getPropertyDescriptors(Object): List<IItemPropertyDescriptor>
        +getChildrenFeatures(Object): Collection<? extends EStructuralFeature>
        +getImage(Object): Object
        +getText(Object): String
        +notifyChanged(Notification): void
    }

    class "<size:14>MethodUnitItemProvider\n<size:10>org.eclipse.epf.uma.provider" as org.eclipse.epf.uma.provider.MethodUnitItemProvider [[MethodUnitItemProvider.html]]

    org.eclipse.epf.uma.provider.MethodUnitItemProvider <|- - org.eclipse.epf.uma.provider.MethodPluginItemProvider

    center footer UMLDoclet 2.0.12, PlantUML 1.2020.16
@enduml

PlantUML version 1.2020.16(Sun Aug 23 22:20:43 CEST 2020)
(APACHE source distribution)
Java Runtime: Java(TM) SE Runtime Environment
JVM: Java HotSpot(TM) 64-Bit Server VM
Default Encoding: Cp1252
Language: es
Country: ES
--></g></svg>