<?xml version="1.0" encoding="UTF-8" standalone="no"?><svg xmlns="http://www.w3.org/2000/svg" xmlns:xlink="http://www.w3.org/1999/xlink" contentScriptType="application/ecmascript" contentStyleType="text/css" height="261px" preserveAspectRatio="none" style="width:350px;height:261px;" version="1.1" viewBox="0 0 350 261" width="350px" zoomAndPan="magnify"><defs><filter height="300%" id="fuxzvn7l3qx0s" width="300%" x="-1" y="-1"><feGaussianBlur result="blurOut" stdDeviation="2.0"/><feColorMatrix in="blurOut" result="blurOut2" type="matrix" values="0 0 0 0 0 0 0 0 0 0 0 0 0 0 0 0 0 0 .4 0"/><feOffset dx="4.0" dy="4.0" in="blurOut2" result="blurOut3"/><feBlend in="SourceGraphic" in2="blurOut3" mode="normal"/></filter></defs><g><!--MD5=[18279163f0c7d84f1ab94ef1cb4c6889]
class org.eclipse.epf.uma.provider.MilestoneItemProvider--><a href="MilestoneItemProvider.html" target="_top" title="MilestoneItemProvider.html" xlink:actuate="onRequest" xlink:href="MilestoneItemProvider.html" xlink:show="new" xlink:title="MilestoneItemProvider.html" xlink:type="simple"><rect codeLine="5" fill="#FEFECE" filter="url(#fuxzvn7l3qx0s)" height="117.3672" id="org.eclipse.epf.uma.provider.MilestoneItemProvider" style="stroke: #A80036; stroke-width: 1.5;" width="324" x="7" y="107"/><ellipse cx="95.25" cy="127.0938" fill="#ADD1B2" rx="11" ry="11" style="stroke: #A80036; stroke-width: 1.0;"/><path d="M98.0156,122.9688 Q98.1719,122.75 98.3594,122.6406 Q98.5469,122.5313 98.7656,122.5313 Q99.1406,122.5313 99.375,122.7969 Q99.6094,123.0469 99.6094,123.6563 L99.6094,125.1094 Q99.6094,125.7188 99.375,125.9844 Q99.1406,126.25 98.7656,126.25 Q98.4219,126.25 98.2188,126.0469 Q98.0156,125.8594 97.9063,125.3438 Q97.8594,124.9844 97.6719,124.7969 Q97.3438,124.4219 96.7344,124.2031 Q96.125,123.9844 95.5,123.9844 Q94.7344,123.9844 94.0938,124.3125 Q93.4688,124.6406 92.9688,125.3906 Q92.4844,126.1406 92.4844,127.1719 L92.4844,128.2656 Q92.4844,129.5 93.375,130.3281 Q94.2656,131.1406 95.8594,131.1406 Q96.7969,131.1406 97.4531,130.8906 Q97.8438,130.7344 98.2656,130.2969 Q98.5313,130.0313 98.6719,129.9531 Q98.8281,129.875 99.0313,129.875 Q99.3594,129.875 99.6094,130.1406 Q99.875,130.3906 99.875,130.7344 Q99.875,131.0781 99.5313,131.4844 Q99.0313,132.0625 98.2344,132.3906 Q97.1563,132.8438 95.8594,132.8438 Q94.3438,132.8438 93.1406,132.2188 Q92.1563,131.7188 91.4688,130.6563 Q90.7813,129.5781 90.7813,128.2969 L90.7813,127.1406 Q90.7813,125.8125 91.3906,124.6719 Q92.0156,123.5156 93.1094,122.9063 Q94.2031,122.2813 95.4375,122.2813 Q96.1719,122.2813 96.8125,122.4531 Q97.4688,122.6094 98.0156,122.9688 Z "/><text fill="#000000" font-family="sans-serif" font-size="14" lengthAdjust="spacingAndGlyphs" textLength="139" x="115.75" y="126.5332">MilestoneItemProvider</text><text fill="#000000" font-family="sans-serif" font-size="10" lengthAdjust="spacingAndGlyphs" textLength="135" x="117.75" y="139.9902">org.eclipse.epf.uma.provider</text><line style="stroke: #A80036; stroke-width: 1.5;" x1="8" x2="330" y1="147.1875" y2="147.1875"/><ellipse cx="18" cy="158.1875" fill="#84BE84" rx="3" ry="3" style="stroke: #038048; stroke-width: 1.0;"/><text fill="#000000" font-family="sans-serif" font-size="11" lengthAdjust="spacingAndGlyphs" textLength="188" x="27" y="162.6064">MilestoneItemProvider(AdapterFactory)</text><ellipse cx="18" cy="172.0234" fill="#84BE84" rx="3" ry="3" style="stroke: #038048; stroke-width: 1.0;"/><text fill="#000000" font-family="sans-serif" font-size="11" lengthAdjust="spacingAndGlyphs" textLength="298" x="27" y="176.4424">getPropertyDescriptors(Object): List&lt;IItemPropertyDescriptor&gt;</text><ellipse cx="18" cy="185.8594" fill="#84BE84" rx="3" ry="3" style="stroke: #038048; stroke-width: 1.0;"/><text fill="#000000" font-family="sans-serif" font-size="11" lengthAdjust="spacingAndGlyphs" textLength="119" x="27" y="190.2783">getImage(Object): Object</text><ellipse cx="18" cy="199.6953" fill="#84BE84" rx="3" ry="3" style="stroke: #038048; stroke-width: 1.0;"/><text fill="#000000" font-family="sans-serif" font-size="11" lengthAdjust="spacingAndGlyphs" textLength="109" x="27" y="204.1143">getText(Object): String</text><ellipse cx="18" cy="213.5313" fill="#84BE84" rx="3" ry="3" style="stroke: #038048; stroke-width: 1.0;"/><text fill="#000000" font-family="sans-serif" font-size="11" lengthAdjust="spacingAndGlyphs" textLength="157" x="27" y="217.9502">notifyChanged(Notification): void</text></a><!--MD5=[c26b6ff3d0a53690a11611da3c3a935a]
class org.eclipse.epf.uma.provider.WorkBreakdownElementItemProvider--><a href="WorkBreakdownElementItemProvider.html" target="_top" title="WorkBreakdownElementItemProvider.html" xlink:actuate="onRequest" xlink:href="WorkBreakdownElementItemProvider.html" xlink:show="new" xlink:title="WorkBreakdownElementItemProvider.html" xlink:type="simple"><rect codeLine="13" fill="#FEFECE" filter="url(#fuxzvn7l3qx0s)" height="40.1875" id="org.eclipse.epf.uma.provider.WorkBreakdownElementItemProvider" style="stroke: #A80036; stroke-width: 1.5;" width="265" x="36.5" y="7"/><ellipse cx="51.5" cy="27.0938" fill="#ADD1B2" rx="11" ry="11" style="stroke: #A80036; stroke-width: 1.0;"/><path d="M54.2656,22.9688 Q54.4219,22.75 54.6094,22.6406 Q54.7969,22.5313 55.0156,22.5313 Q55.3906,22.5313 55.625,22.7969 Q55.8594,23.0469 55.8594,23.6563 L55.8594,25.1094 Q55.8594,25.7188 55.625,25.9844 Q55.3906,26.25 55.0156,26.25 Q54.6719,26.25 54.4688,26.0469 Q54.2656,25.8594 54.1563,25.3438 Q54.1094,24.9844 53.9219,24.7969 Q53.5938,24.4219 52.9844,24.2031 Q52.375,23.9844 51.75,23.9844 Q50.9844,23.9844 50.3438,24.3125 Q49.7188,24.6406 49.2188,25.3906 Q48.7344,26.1406 48.7344,27.1719 L48.7344,28.2656 Q48.7344,29.5 49.625,30.3281 Q50.5156,31.1406 52.1094,31.1406 Q53.0469,31.1406 53.7031,30.8906 Q54.0938,30.7344 54.5156,30.2969 Q54.7813,30.0313 54.9219,29.9531 Q55.0781,29.875 55.2813,29.875 Q55.6094,29.875 55.8594,30.1406 Q56.125,30.3906 56.125,30.7344 Q56.125,31.0781 55.7813,31.4844 Q55.2813,32.0625 54.4844,32.3906 Q53.4063,32.8438 52.1094,32.8438 Q50.5938,32.8438 49.3906,32.2188 Q48.4063,31.7188 47.7188,30.6563 Q47.0313,29.5781 47.0313,28.2969 L47.0313,27.1406 Q47.0313,25.8125 47.6406,24.6719 Q48.2656,23.5156 49.3594,22.9063 Q50.4531,22.2813 51.6875,22.2813 Q52.4219,22.2813 53.0625,22.4531 Q53.7188,22.6094 54.2656,22.9688 Z "/><text fill="#000000" font-family="sans-serif" font-size="14" lengthAdjust="spacingAndGlyphs" textLength="233" x="65.5" y="26.5332">WorkBreakdownElementItemProvider</text><text fill="#000000" font-family="sans-serif" font-size="10" lengthAdjust="spacingAndGlyphs" textLength="135" x="114.5" y="39.9902">org.eclipse.epf.uma.provider</text></a><!--MD5=[ca5640a397c344dcf84bbcd665f92ad1]
reverse link org.eclipse.epf.uma.provider.WorkBreakdownElementItemProvider to org.eclipse.epf.uma.provider.MilestoneItemProvider--><path codeLine="15" d="M169,67.38 C169,79.73 169,93.63 169,106.97 " fill="none" id="org.eclipse.epf.uma.provider.WorkBreakdownElementItemProvider-backto-org.eclipse.epf.uma.provider.MilestoneItemProvider" style="stroke: #A80036; stroke-width: 1.0;"/><polygon fill="none" points="162,67.27,169,47.27,176,67.27,162,67.27" style="stroke: #A80036; stroke-width: 1.0;"/><text fill="#888888" font-family="sans-serif" font-size="10" lengthAdjust="spacingAndGlyphs" textLength="190" x="71" y="247.748">UMLDoclet 2.0.12, PlantUML 1.2020.16</text><!--MD5=[b0134a6fac75d458517571c7fe169d2c]
@startuml
    set namespaceSeparator none
    hide empty fields
    hide empty methods

    class "<size:14>MilestoneItemProvider\n<size:10>org.eclipse.epf.uma.provider" as org.eclipse.epf.uma.provider.MilestoneItemProvider [[MilestoneItemProvider.html]] {
        +MilestoneItemProvider(AdapterFactory)
        +getPropertyDescriptors(Object): List<IItemPropertyDescriptor>
        +getImage(Object): Object
        +getText(Object): String
        +notifyChanged(Notification): void
    }

    class "<size:14>WorkBreakdownElementItemProvider\n<size:10>org.eclipse.epf.uma.provider" as org.eclipse.epf.uma.provider.WorkBreakdownElementItemProvider [[WorkBreakdownElementItemProvider.html]]

    org.eclipse.epf.uma.provider.WorkBreakdownElementItemProvider <|- - org.eclipse.epf.uma.provider.MilestoneItemProvider

    center footer UMLDoclet 2.0.12, PlantUML 1.2020.16
@enduml

PlantUML version 1.2020.16(Sun Aug 23 22:20:43 CEST 2020)
(APACHE source distribution)
Java Runtime: Java(TM) SE Runtime Environment
JVM: Java HotSpot(TM) 64-Bit Server VM
Default Encoding: Cp1252
Language: es
Country: ES
--></g></svg>