<?xml version="1.0" encoding="UTF-8" standalone="no"?><svg xmlns="http://www.w3.org/2000/svg" xmlns:xlink="http://www.w3.org/1999/xlink" contentScriptType="application/ecmascript" contentStyleType="text/css" height="247px" preserveAspectRatio="none" style="width:350px;height:247px;" version="1.1" viewBox="0 0 350 247" width="350px" zoomAndPan="magnify"><defs><filter height="300%" id="f14od5thh460xl" width="300%" x="-1" y="-1"><feGaussianBlur result="blurOut" stdDeviation="2.0"/><feColorMatrix in="blurOut" result="blurOut2" type="matrix" values="0 0 0 0 0 0 0 0 0 0 0 0 0 0 0 0 0 0 .4 0"/><feOffset dx="4.0" dy="4.0" in="blurOut2" result="blurOut3"/><feBlend in="SourceGraphic" in2="blurOut3" mode="normal"/></filter></defs><g><!--MD5=[743d5bd26a7003a110bc9993c70bc477]
class org.eclipse.epf.uma.provider.NamespaceItemProvider--><a href="NamespaceItemProvider.html" target="_top" title="NamespaceItemProvider.html" xlink:actuate="onRequest" xlink:href="NamespaceItemProvider.html" xlink:show="new" xlink:title="NamespaceItemProvider.html" xlink:type="simple"><rect codeLine="5" fill="#FEFECE" filter="url(#f14od5thh460xl)" height="103.5313" id="org.eclipse.epf.uma.provider.NamespaceItemProvider" style="stroke: #A80036; stroke-width: 1.5;" width="324" x="7" y="107"/><ellipse cx="88.25" cy="127.0938" fill="#ADD1B2" rx="11" ry="11" style="stroke: #A80036; stroke-width: 1.0;"/><path d="M91.0156,122.9688 Q91.1719,122.75 91.3594,122.6406 Q91.5469,122.5313 91.7656,122.5313 Q92.1406,122.5313 92.375,122.7969 Q92.6094,123.0469 92.6094,123.6563 L92.6094,125.1094 Q92.6094,125.7188 92.375,125.9844 Q92.1406,126.25 91.7656,126.25 Q91.4219,126.25 91.2188,126.0469 Q91.0156,125.8594 90.9063,125.3438 Q90.8594,124.9844 90.6719,124.7969 Q90.3438,124.4219 89.7344,124.2031 Q89.125,123.9844 88.5,123.9844 Q87.7344,123.9844 87.0938,124.3125 Q86.4688,124.6406 85.9688,125.3906 Q85.4844,126.1406 85.4844,127.1719 L85.4844,128.2656 Q85.4844,129.5 86.375,130.3281 Q87.2656,131.1406 88.8594,131.1406 Q89.7969,131.1406 90.4531,130.8906 Q90.8438,130.7344 91.2656,130.2969 Q91.5313,130.0313 91.6719,129.9531 Q91.8281,129.875 92.0313,129.875 Q92.3594,129.875 92.6094,130.1406 Q92.875,130.3906 92.875,130.7344 Q92.875,131.0781 92.5313,131.4844 Q92.0313,132.0625 91.2344,132.3906 Q90.1563,132.8438 88.8594,132.8438 Q87.3438,132.8438 86.1406,132.2188 Q85.1563,131.7188 84.4688,130.6563 Q83.7813,129.5781 83.7813,128.2969 L83.7813,127.1406 Q83.7813,125.8125 84.3906,124.6719 Q85.0156,123.5156 86.1094,122.9063 Q87.2031,122.2813 88.4375,122.2813 Q89.1719,122.2813 89.8125,122.4531 Q90.4688,122.6094 91.0156,122.9688 Z "/><text fill="#000000" font-family="sans-serif" font-size="14" lengthAdjust="spacingAndGlyphs" textLength="153" x="108.75" y="126.5332">NamespaceItemProvider</text><text fill="#000000" font-family="sans-serif" font-size="10" lengthAdjust="spacingAndGlyphs" textLength="135" x="117.75" y="139.9902">org.eclipse.epf.uma.provider</text><line style="stroke: #A80036; stroke-width: 1.5;" x1="8" x2="330" y1="147.1875" y2="147.1875"/><ellipse cx="18" cy="158.1875" fill="#84BE84" rx="3" ry="3" style="stroke: #038048; stroke-width: 1.0;"/><text fill="#000000" font-family="sans-serif" font-size="11" lengthAdjust="spacingAndGlyphs" textLength="200" x="27" y="162.6064">NamespaceItemProvider(AdapterFactory)</text><ellipse cx="18" cy="172.0234" fill="#84BE84" rx="3" ry="3" style="stroke: #038048; stroke-width: 1.0;"/><text fill="#000000" font-family="sans-serif" font-size="11" lengthAdjust="spacingAndGlyphs" textLength="298" x="27" y="176.4424">getPropertyDescriptors(Object): List&lt;IItemPropertyDescriptor&gt;</text><ellipse cx="18" cy="185.8594" fill="#84BE84" rx="3" ry="3" style="stroke: #038048; stroke-width: 1.0;"/><text fill="#000000" font-family="sans-serif" font-size="11" lengthAdjust="spacingAndGlyphs" textLength="109" x="27" y="190.2783">getText(Object): String</text><ellipse cx="18" cy="199.6953" fill="#84BE84" rx="3" ry="3" style="stroke: #038048; stroke-width: 1.0;"/><text fill="#000000" font-family="sans-serif" font-size="11" lengthAdjust="spacingAndGlyphs" textLength="157" x="27" y="204.1143">notifyChanged(Notification): void</text></a><!--MD5=[564b495961acafdebeeb651c1d337dd6]
class org.eclipse.epf.uma.provider.NamedElementItemProvider--><a href="NamedElementItemProvider.html" target="_top" title="NamedElementItemProvider.html" xlink:actuate="onRequest" xlink:href="NamedElementItemProvider.html" xlink:show="new" xlink:title="NamedElementItemProvider.html" xlink:type="simple"><rect codeLine="12" fill="#FEFECE" filter="url(#f14od5thh460xl)" height="40.1875" id="org.eclipse.epf.uma.provider.NamedElementItemProvider" style="stroke: #A80036; stroke-width: 1.5;" width="206" x="66" y="7"/><ellipse cx="81" cy="27.0938" fill="#ADD1B2" rx="11" ry="11" style="stroke: #A80036; stroke-width: 1.0;"/><path d="M83.7656,22.9688 Q83.9219,22.75 84.1094,22.6406 Q84.2969,22.5313 84.5156,22.5313 Q84.8906,22.5313 85.125,22.7969 Q85.3594,23.0469 85.3594,23.6563 L85.3594,25.1094 Q85.3594,25.7188 85.125,25.9844 Q84.8906,26.25 84.5156,26.25 Q84.1719,26.25 83.9688,26.0469 Q83.7656,25.8594 83.6563,25.3438 Q83.6094,24.9844 83.4219,24.7969 Q83.0938,24.4219 82.4844,24.2031 Q81.875,23.9844 81.25,23.9844 Q80.4844,23.9844 79.8438,24.3125 Q79.2188,24.6406 78.7188,25.3906 Q78.2344,26.1406 78.2344,27.1719 L78.2344,28.2656 Q78.2344,29.5 79.125,30.3281 Q80.0156,31.1406 81.6094,31.1406 Q82.5469,31.1406 83.2031,30.8906 Q83.5938,30.7344 84.0156,30.2969 Q84.2813,30.0313 84.4219,29.9531 Q84.5781,29.875 84.7813,29.875 Q85.1094,29.875 85.3594,30.1406 Q85.625,30.3906 85.625,30.7344 Q85.625,31.0781 85.2813,31.4844 Q84.7813,32.0625 83.9844,32.3906 Q82.9063,32.8438 81.6094,32.8438 Q80.0938,32.8438 78.8906,32.2188 Q77.9063,31.7188 77.2188,30.6563 Q76.5313,29.5781 76.5313,28.2969 L76.5313,27.1406 Q76.5313,25.8125 77.1406,24.6719 Q77.7656,23.5156 78.8594,22.9063 Q79.9531,22.2813 81.1875,22.2813 Q81.9219,22.2813 82.5625,22.4531 Q83.2188,22.6094 83.7656,22.9688 Z "/><text fill="#000000" font-family="sans-serif" font-size="14" lengthAdjust="spacingAndGlyphs" textLength="174" x="95" y="26.5332">NamedElementItemProvider</text><text fill="#000000" font-family="sans-serif" font-size="10" lengthAdjust="spacingAndGlyphs" textLength="135" x="114.5" y="39.9902">org.eclipse.epf.uma.provider</text></a><!--MD5=[e5ceed5ce5b3cd24a7ddcd50d42bfbd5]
reverse link org.eclipse.epf.uma.provider.NamedElementItemProvider to org.eclipse.epf.uma.provider.NamespaceItemProvider--><path codeLine="14" d="M169,67.49 C169,79.93 169,93.86 169,106.99 " fill="none" id="org.eclipse.epf.uma.provider.NamedElementItemProvider-backto-org.eclipse.epf.uma.provider.NamespaceItemProvider" style="stroke: #A80036; stroke-width: 1.0;"/><polygon fill="none" points="162,67.18,169,47.18,176,67.18,162,67.18" style="stroke: #A80036; stroke-width: 1.0;"/><text fill="#888888" font-family="sans-serif" font-size="10" lengthAdjust="spacingAndGlyphs" textLength="190" x="71" y="233.9121">UMLDoclet 2.0.12, PlantUML 1.2020.16</text><!--MD5=[f1099ee9b6d737de471aec925840d6c5]
@startuml
    set namespaceSeparator none
    hide empty fields
    hide empty methods

    class "<size:14>NamespaceItemProvider\n<size:10>org.eclipse.epf.uma.provider" as org.eclipse.epf.uma.provider.NamespaceItemProvider [[NamespaceItemProvider.html]] {
        +NamespaceItemProvider(AdapterFactory)
        +getPropertyDescriptors(Object): List<IItemPropertyDescriptor>
        +getText(Object): String
        +notifyChanged(Notification): void
    }

    class "<size:14>NamedElementItemProvider\n<size:10>org.eclipse.epf.uma.provider" as org.eclipse.epf.uma.provider.NamedElementItemProvider [[NamedElementItemProvider.html]]

    org.eclipse.epf.uma.provider.NamedElementItemProvider <|- - org.eclipse.epf.uma.provider.NamespaceItemProvider

    center footer UMLDoclet 2.0.12, PlantUML 1.2020.16
@enduml

PlantUML version 1.2020.16(Sun Aug 23 22:20:43 CEST 2020)
(APACHE source distribution)
Java Runtime: Java(TM) SE Runtime Environment
JVM: Java HotSpot(TM) 64-Bit Server VM
Default Encoding: Cp1252
Language: es
Country: ES
--></g></svg>