<?xml version="1.0" encoding="UTF-8" standalone="no"?><svg xmlns="http://www.w3.org/2000/svg" xmlns:xlink="http://www.w3.org/1999/xlink" contentScriptType="application/ecmascript" contentStyleType="text/css" height="247px" preserveAspectRatio="none" style="width:350px;height:247px;" version="1.1" viewBox="0 0 350 247" width="350px" zoomAndPan="magnify"><defs><filter height="300%" id="f1h8giuwgh12j3" width="300%" x="-1" y="-1"><feGaussianBlur result="blurOut" stdDeviation="2.0"/><feColorMatrix in="blurOut" result="blurOut2" type="matrix" values="0 0 0 0 0 0 0 0 0 0 0 0 0 0 0 0 0 0 .4 0"/><feOffset dx="4.0" dy="4.0" in="blurOut2" result="blurOut3"/><feBlend in="SourceGraphic" in2="blurOut3" mode="normal"/></filter></defs><g><!--MD5=[564b495961acafdebeeb651c1d337dd6]
class org.eclipse.epf.uma.provider.NamedElementItemProvider--><a href="NamedElementItemProvider.html" target="_top" title="NamedElementItemProvider.html" xlink:actuate="onRequest" xlink:href="NamedElementItemProvider.html" xlink:show="new" xlink:title="NamedElementItemProvider.html" xlink:type="simple"><rect codeLine="5" fill="#FEFECE" filter="url(#f1h8giuwgh12j3)" height="103.5313" id="org.eclipse.epf.uma.provider.NamedElementItemProvider" style="stroke: #A80036; stroke-width: 1.5;" width="324" x="7" y="107"/><ellipse cx="77.75" cy="127.0938" fill="#ADD1B2" rx="11" ry="11" style="stroke: #A80036; stroke-width: 1.0;"/><path d="M80.5156,122.9688 Q80.6719,122.75 80.8594,122.6406 Q81.0469,122.5313 81.2656,122.5313 Q81.6406,122.5313 81.875,122.7969 Q82.1094,123.0469 82.1094,123.6563 L82.1094,125.1094 Q82.1094,125.7188 81.875,125.9844 Q81.6406,126.25 81.2656,126.25 Q80.9219,126.25 80.7188,126.0469 Q80.5156,125.8594 80.4063,125.3438 Q80.3594,124.9844 80.1719,124.7969 Q79.8438,124.4219 79.2344,124.2031 Q78.625,123.9844 78,123.9844 Q77.2344,123.9844 76.5938,124.3125 Q75.9688,124.6406 75.4688,125.3906 Q74.9844,126.1406 74.9844,127.1719 L74.9844,128.2656 Q74.9844,129.5 75.875,130.3281 Q76.7656,131.1406 78.3594,131.1406 Q79.2969,131.1406 79.9531,130.8906 Q80.3438,130.7344 80.7656,130.2969 Q81.0313,130.0313 81.1719,129.9531 Q81.3281,129.875 81.5313,129.875 Q81.8594,129.875 82.1094,130.1406 Q82.375,130.3906 82.375,130.7344 Q82.375,131.0781 82.0313,131.4844 Q81.5313,132.0625 80.7344,132.3906 Q79.6563,132.8438 78.3594,132.8438 Q76.8438,132.8438 75.6406,132.2188 Q74.6563,131.7188 73.9688,130.6563 Q73.2813,129.5781 73.2813,128.2969 L73.2813,127.1406 Q73.2813,125.8125 73.8906,124.6719 Q74.5156,123.5156 75.6094,122.9063 Q76.7031,122.2813 77.9375,122.2813 Q78.6719,122.2813 79.3125,122.4531 Q79.9688,122.6094 80.5156,122.9688 Z "/><text fill="#000000" font-family="sans-serif" font-size="14" lengthAdjust="spacingAndGlyphs" textLength="174" x="98.25" y="126.5332">NamedElementItemProvider</text><text fill="#000000" font-family="sans-serif" font-size="10" lengthAdjust="spacingAndGlyphs" textLength="135" x="117.75" y="139.9902">org.eclipse.epf.uma.provider</text><line style="stroke: #A80036; stroke-width: 1.5;" x1="8" x2="330" y1="147.1875" y2="147.1875"/><ellipse cx="18" cy="158.1875" fill="#84BE84" rx="3" ry="3" style="stroke: #038048; stroke-width: 1.0;"/><text fill="#000000" font-family="sans-serif" font-size="11" lengthAdjust="spacingAndGlyphs" textLength="213" x="27" y="162.6064">NamedElementItemProvider(AdapterFactory)</text><ellipse cx="18" cy="172.0234" fill="#84BE84" rx="3" ry="3" style="stroke: #038048; stroke-width: 1.0;"/><text fill="#000000" font-family="sans-serif" font-size="11" lengthAdjust="spacingAndGlyphs" textLength="298" x="27" y="176.4424">getPropertyDescriptors(Object): List&lt;IItemPropertyDescriptor&gt;</text><ellipse cx="18" cy="185.8594" fill="#84BE84" rx="3" ry="3" style="stroke: #038048; stroke-width: 1.0;"/><text fill="#000000" font-family="sans-serif" font-size="11" lengthAdjust="spacingAndGlyphs" textLength="109" x="27" y="190.2783">getText(Object): String</text><ellipse cx="18" cy="199.6953" fill="#84BE84" rx="3" ry="3" style="stroke: #038048; stroke-width: 1.0;"/><text fill="#000000" font-family="sans-serif" font-size="11" lengthAdjust="spacingAndGlyphs" textLength="157" x="27" y="204.1143">notifyChanged(Notification): void</text></a><!--MD5=[81ba690482a39a23723a6bd57753cea9]
class org.eclipse.epf.uma.provider.ElementItemProvider--><a href="ElementItemProvider.html" target="_top" title="ElementItemProvider.html" xlink:actuate="onRequest" xlink:href="ElementItemProvider.html" xlink:show="new" xlink:title="ElementItemProvider.html" xlink:type="simple"><rect codeLine="12" fill="#FEFECE" filter="url(#f1h8giuwgh12j3)" height="40.1875" id="org.eclipse.epf.uma.provider.ElementItemProvider" style="stroke: #A80036; stroke-width: 1.5;" width="167" x="85.5" y="7"/><ellipse cx="100.5" cy="27.0938" fill="#ADD1B2" rx="11" ry="11" style="stroke: #A80036; stroke-width: 1.0;"/><path d="M103.2656,22.9688 Q103.4219,22.75 103.6094,22.6406 Q103.7969,22.5313 104.0156,22.5313 Q104.3906,22.5313 104.625,22.7969 Q104.8594,23.0469 104.8594,23.6563 L104.8594,25.1094 Q104.8594,25.7188 104.625,25.9844 Q104.3906,26.25 104.0156,26.25 Q103.6719,26.25 103.4688,26.0469 Q103.2656,25.8594 103.1563,25.3438 Q103.1094,24.9844 102.9219,24.7969 Q102.5938,24.4219 101.9844,24.2031 Q101.375,23.9844 100.75,23.9844 Q99.9844,23.9844 99.3438,24.3125 Q98.7188,24.6406 98.2188,25.3906 Q97.7344,26.1406 97.7344,27.1719 L97.7344,28.2656 Q97.7344,29.5 98.625,30.3281 Q99.5156,31.1406 101.1094,31.1406 Q102.0469,31.1406 102.7031,30.8906 Q103.0938,30.7344 103.5156,30.2969 Q103.7813,30.0313 103.9219,29.9531 Q104.0781,29.875 104.2813,29.875 Q104.6094,29.875 104.8594,30.1406 Q105.125,30.3906 105.125,30.7344 Q105.125,31.0781 104.7813,31.4844 Q104.2813,32.0625 103.4844,32.3906 Q102.4063,32.8438 101.1094,32.8438 Q99.5938,32.8438 98.3906,32.2188 Q97.4063,31.7188 96.7188,30.6563 Q96.0313,29.5781 96.0313,28.2969 L96.0313,27.1406 Q96.0313,25.8125 96.6406,24.6719 Q97.2656,23.5156 98.3594,22.9063 Q99.4531,22.2813 100.6875,22.2813 Q101.4219,22.2813 102.0625,22.4531 Q102.7188,22.6094 103.2656,22.9688 Z "/><text fill="#000000" font-family="sans-serif" font-size="14" lengthAdjust="spacingAndGlyphs" textLength="130" x="117" y="26.5332">ElementItemProvider</text><text fill="#000000" font-family="sans-serif" font-size="10" lengthAdjust="spacingAndGlyphs" textLength="135" x="114.5" y="39.9902">org.eclipse.epf.uma.provider</text></a><!--MD5=[bcdcddd39529577e5f96ec0d29fc52a7]
reverse link org.eclipse.epf.uma.provider.ElementItemProvider to org.eclipse.epf.uma.provider.NamedElementItemProvider--><path codeLine="14" d="M169,67.49 C169,79.93 169,93.86 169,106.99 " fill="none" id="org.eclipse.epf.uma.provider.ElementItemProvider-backto-org.eclipse.epf.uma.provider.NamedElementItemProvider" style="stroke: #A80036; stroke-width: 1.0;"/><polygon fill="none" points="162,67.18,169,47.18,176,67.18,162,67.18" style="stroke: #A80036; stroke-width: 1.0;"/><text fill="#888888" font-family="sans-serif" font-size="10" lengthAdjust="spacingAndGlyphs" textLength="190" x="71" y="233.9121">UMLDoclet 2.0.12, PlantUML 1.2020.16</text><!--MD5=[da5d8feef606a1991799f9962470af1c]
@startuml
    set namespaceSeparator none
    hide empty fields
    hide empty methods

    class "<size:14>NamedElementItemProvider\n<size:10>org.eclipse.epf.uma.provider" as org.eclipse.epf.uma.provider.NamedElementItemProvider [[NamedElementItemProvider.html]] {
        +NamedElementItemProvider(AdapterFactory)
        +getPropertyDescriptors(Object): List<IItemPropertyDescriptor>
        +getText(Object): String
        +notifyChanged(Notification): void
    }

    class "<size:14>ElementItemProvider\n<size:10>org.eclipse.epf.uma.provider" as org.eclipse.epf.uma.provider.ElementItemProvider [[ElementItemProvider.html]]

    org.eclipse.epf.uma.provider.ElementItemProvider <|- - org.eclipse.epf.uma.provider.NamedElementItemProvider

    center footer UMLDoclet 2.0.12, PlantUML 1.2020.16
@enduml

PlantUML version 1.2020.16(Sun Aug 23 22:20:43 CEST 2020)
(APACHE source distribution)
Java Runtime: Java(TM) SE Runtime Environment
JVM: Java HotSpot(TM) 64-Bit Server VM
Default Encoding: Cp1252
Language: es
Country: ES
--></g></svg>