<?xml version="1.0" encoding="UTF-8" standalone="no"?><svg xmlns="http://www.w3.org/2000/svg" xmlns:xlink="http://www.w3.org/1999/xlink" contentScriptType="application/ecmascript" contentStyleType="text/css" height="261px" preserveAspectRatio="none" style="width:350px;height:261px;" version="1.1" viewBox="0 0 350 261" width="350px" zoomAndPan="magnify"><defs><filter height="300%" id="fppxjkziych14" width="300%" x="-1" y="-1"><feGaussianBlur result="blurOut" stdDeviation="2.0"/><feColorMatrix in="blurOut" result="blurOut2" type="matrix" values="0 0 0 0 0 0 0 0 0 0 0 0 0 0 0 0 0 0 .4 0"/><feOffset dx="4.0" dy="4.0" in="blurOut2" result="blurOut3"/><feBlend in="SourceGraphic" in2="blurOut3" mode="normal"/></filter></defs><g><!--MD5=[e2787b136a620d7d6cc68aa888a575e8]
class org.eclipse.epf.uma.provider.OutcomeItemProvider--><a href="OutcomeItemProvider.html" target="_top" title="OutcomeItemProvider.html" xlink:actuate="onRequest" xlink:href="OutcomeItemProvider.html" xlink:show="new" xlink:title="OutcomeItemProvider.html" xlink:type="simple"><rect codeLine="5" fill="#FEFECE" filter="url(#fppxjkziych14)" height="117.3672" id="org.eclipse.epf.uma.provider.OutcomeItemProvider" style="stroke: #A80036; stroke-width: 1.5;" width="324" x="7" y="107"/><ellipse cx="96.75" cy="127.0938" fill="#ADD1B2" rx="11" ry="11" style="stroke: #A80036; stroke-width: 1.0;"/><path d="M99.5156,122.9688 Q99.6719,122.75 99.8594,122.6406 Q100.0469,122.5313 100.2656,122.5313 Q100.6406,122.5313 100.875,122.7969 Q101.1094,123.0469 101.1094,123.6563 L101.1094,125.1094 Q101.1094,125.7188 100.875,125.9844 Q100.6406,126.25 100.2656,126.25 Q99.9219,126.25 99.7188,126.0469 Q99.5156,125.8594 99.4063,125.3438 Q99.3594,124.9844 99.1719,124.7969 Q98.8438,124.4219 98.2344,124.2031 Q97.625,123.9844 97,123.9844 Q96.2344,123.9844 95.5938,124.3125 Q94.9688,124.6406 94.4688,125.3906 Q93.9844,126.1406 93.9844,127.1719 L93.9844,128.2656 Q93.9844,129.5 94.875,130.3281 Q95.7656,131.1406 97.3594,131.1406 Q98.2969,131.1406 98.9531,130.8906 Q99.3438,130.7344 99.7656,130.2969 Q100.0313,130.0313 100.1719,129.9531 Q100.3281,129.875 100.5313,129.875 Q100.8594,129.875 101.1094,130.1406 Q101.375,130.3906 101.375,130.7344 Q101.375,131.0781 101.0313,131.4844 Q100.5313,132.0625 99.7344,132.3906 Q98.6563,132.8438 97.3594,132.8438 Q95.8438,132.8438 94.6406,132.2188 Q93.6563,131.7188 92.9688,130.6563 Q92.2813,129.5781 92.2813,128.2969 L92.2813,127.1406 Q92.2813,125.8125 92.8906,124.6719 Q93.5156,123.5156 94.6094,122.9063 Q95.7031,122.2813 96.9375,122.2813 Q97.6719,122.2813 98.3125,122.4531 Q98.9688,122.6094 99.5156,122.9688 Z "/><text fill="#000000" font-family="sans-serif" font-size="14" lengthAdjust="spacingAndGlyphs" textLength="136" x="117.25" y="126.5332">OutcomeItemProvider</text><text fill="#000000" font-family="sans-serif" font-size="10" lengthAdjust="spacingAndGlyphs" textLength="135" x="117.75" y="139.9902">org.eclipse.epf.uma.provider</text><line style="stroke: #A80036; stroke-width: 1.5;" x1="8" x2="330" y1="147.1875" y2="147.1875"/><ellipse cx="18" cy="158.1875" fill="#84BE84" rx="3" ry="3" style="stroke: #038048; stroke-width: 1.0;"/><text fill="#000000" font-family="sans-serif" font-size="11" lengthAdjust="spacingAndGlyphs" textLength="186" x="27" y="162.6064">OutcomeItemProvider(AdapterFactory)</text><ellipse cx="18" cy="172.0234" fill="#84BE84" rx="3" ry="3" style="stroke: #038048; stroke-width: 1.0;"/><text fill="#000000" font-family="sans-serif" font-size="11" lengthAdjust="spacingAndGlyphs" textLength="298" x="27" y="176.4424">getPropertyDescriptors(Object): List&lt;IItemPropertyDescriptor&gt;</text><ellipse cx="18" cy="185.8594" fill="#84BE84" rx="3" ry="3" style="stroke: #038048; stroke-width: 1.0;"/><text fill="#000000" font-family="sans-serif" font-size="11" lengthAdjust="spacingAndGlyphs" textLength="119" x="27" y="190.2783">getImage(Object): Object</text><ellipse cx="18" cy="199.6953" fill="#84BE84" rx="3" ry="3" style="stroke: #038048; stroke-width: 1.0;"/><text fill="#000000" font-family="sans-serif" font-size="11" lengthAdjust="spacingAndGlyphs" textLength="109" x="27" y="204.1143">getText(Object): String</text><ellipse cx="18" cy="213.5313" fill="#84BE84" rx="3" ry="3" style="stroke: #038048; stroke-width: 1.0;"/><text fill="#000000" font-family="sans-serif" font-size="11" lengthAdjust="spacingAndGlyphs" textLength="157" x="27" y="217.9502">notifyChanged(Notification): void</text></a><!--MD5=[7cb6972ffdfbb8841e518d475e791ec4]
class org.eclipse.epf.uma.provider.WorkProductItemProvider--><a href="WorkProductItemProvider.html" target="_top" title="WorkProductItemProvider.html" xlink:actuate="onRequest" xlink:href="WorkProductItemProvider.html" xlink:show="new" xlink:title="WorkProductItemProvider.html" xlink:type="simple"><rect codeLine="13" fill="#FEFECE" filter="url(#fppxjkziych14)" height="40.1875" id="org.eclipse.epf.uma.provider.WorkProductItemProvider" style="stroke: #A80036; stroke-width: 1.5;" width="193" x="72.5" y="7"/><ellipse cx="87.5" cy="27.0938" fill="#ADD1B2" rx="11" ry="11" style="stroke: #A80036; stroke-width: 1.0;"/><path d="M90.2656,22.9688 Q90.4219,22.75 90.6094,22.6406 Q90.7969,22.5313 91.0156,22.5313 Q91.3906,22.5313 91.625,22.7969 Q91.8594,23.0469 91.8594,23.6563 L91.8594,25.1094 Q91.8594,25.7188 91.625,25.9844 Q91.3906,26.25 91.0156,26.25 Q90.6719,26.25 90.4688,26.0469 Q90.2656,25.8594 90.1563,25.3438 Q90.1094,24.9844 89.9219,24.7969 Q89.5938,24.4219 88.9844,24.2031 Q88.375,23.9844 87.75,23.9844 Q86.9844,23.9844 86.3438,24.3125 Q85.7188,24.6406 85.2188,25.3906 Q84.7344,26.1406 84.7344,27.1719 L84.7344,28.2656 Q84.7344,29.5 85.625,30.3281 Q86.5156,31.1406 88.1094,31.1406 Q89.0469,31.1406 89.7031,30.8906 Q90.0938,30.7344 90.5156,30.2969 Q90.7813,30.0313 90.9219,29.9531 Q91.0781,29.875 91.2813,29.875 Q91.6094,29.875 91.8594,30.1406 Q92.125,30.3906 92.125,30.7344 Q92.125,31.0781 91.7813,31.4844 Q91.2813,32.0625 90.4844,32.3906 Q89.4063,32.8438 88.1094,32.8438 Q86.5938,32.8438 85.3906,32.2188 Q84.4063,31.7188 83.7188,30.6563 Q83.0313,29.5781 83.0313,28.2969 L83.0313,27.1406 Q83.0313,25.8125 83.6406,24.6719 Q84.2656,23.5156 85.3594,22.9063 Q86.4531,22.2813 87.6875,22.2813 Q88.4219,22.2813 89.0625,22.4531 Q89.7188,22.6094 90.2656,22.9688 Z "/><text fill="#000000" font-family="sans-serif" font-size="14" lengthAdjust="spacingAndGlyphs" textLength="161" x="101.5" y="26.5332">WorkProductItemProvider</text><text fill="#000000" font-family="sans-serif" font-size="10" lengthAdjust="spacingAndGlyphs" textLength="135" x="114.5" y="39.9902">org.eclipse.epf.uma.provider</text></a><!--MD5=[38d3597bbb7dea2eb9cbc8bf0ebfc8f4]
reverse link org.eclipse.epf.uma.provider.WorkProductItemProvider to org.eclipse.epf.uma.provider.OutcomeItemProvider--><path codeLine="15" d="M169,67.38 C169,79.73 169,93.63 169,106.97 " fill="none" id="org.eclipse.epf.uma.provider.WorkProductItemProvider-backto-org.eclipse.epf.uma.provider.OutcomeItemProvider" style="stroke: #A80036; stroke-width: 1.0;"/><polygon fill="none" points="162,67.27,169,47.27,176,67.27,162,67.27" style="stroke: #A80036; stroke-width: 1.0;"/><text fill="#888888" font-family="sans-serif" font-size="10" lengthAdjust="spacingAndGlyphs" textLength="190" x="71" y="247.748">UMLDoclet 2.0.12, PlantUML 1.2020.16</text><!--MD5=[48419825f58dc4324632642860772877]
@startuml
    set namespaceSeparator none
    hide empty fields
    hide empty methods

    class "<size:14>OutcomeItemProvider\n<size:10>org.eclipse.epf.uma.provider" as org.eclipse.epf.uma.provider.OutcomeItemProvider [[OutcomeItemProvider.html]] {
        +OutcomeItemProvider(AdapterFactory)
        +getPropertyDescriptors(Object): List<IItemPropertyDescriptor>
        +getImage(Object): Object
        +getText(Object): String
        +notifyChanged(Notification): void
    }

    class "<size:14>WorkProductItemProvider\n<size:10>org.eclipse.epf.uma.provider" as org.eclipse.epf.uma.provider.WorkProductItemProvider [[WorkProductItemProvider.html]]

    org.eclipse.epf.uma.provider.WorkProductItemProvider <|- - org.eclipse.epf.uma.provider.OutcomeItemProvider

    center footer UMLDoclet 2.0.12, PlantUML 1.2020.16
@enduml

PlantUML version 1.2020.16(Sun Aug 23 22:20:43 CEST 2020)
(APACHE source distribution)
Java Runtime: Java(TM) SE Runtime Environment
JVM: Java HotSpot(TM) 64-Bit Server VM
Default Encoding: Cp1252
Language: es
Country: ES
--></g></svg>