<?xml version="1.0" encoding="UTF-8" standalone="no"?><svg xmlns="http://www.w3.org/2000/svg" xmlns:xlink="http://www.w3.org/1999/xlink" contentScriptType="application/ecmascript" contentStyleType="text/css" height="247px" preserveAspectRatio="none" style="width:350px;height:247px;" version="1.1" viewBox="0 0 350 247" width="350px" zoomAndPan="magnify"><defs><filter height="300%" id="fdr8bgoe9leaw" width="300%" x="-1" y="-1"><feGaussianBlur result="blurOut" stdDeviation="2.0"/><feColorMatrix in="blurOut" result="blurOut2" type="matrix" values="0 0 0 0 0 0 0 0 0 0 0 0 0 0 0 0 0 0 .4 0"/><feOffset dx="4.0" dy="4.0" in="blurOut2" result="blurOut3"/><feBlend in="SourceGraphic" in2="blurOut3" mode="normal"/></filter></defs><g><!--MD5=[194e651fccbeeaa783366163e0c73ae0]
class org.eclipse.epf.uma.provider.PackageableElementItemProvider--><a href="PackageableElementItemProvider.html" target="_top" title="PackageableElementItemProvider.html" xlink:actuate="onRequest" xlink:href="PackageableElementItemProvider.html" xlink:show="new" xlink:title="PackageableElementItemProvider.html" xlink:type="simple"><rect codeLine="5" fill="#FEFECE" filter="url(#fdr8bgoe9leaw)" height="103.5313" id="org.eclipse.epf.uma.provider.PackageableElementItemProvider" style="stroke: #A80036; stroke-width: 1.5;" width="324" x="7" y="107"/><ellipse cx="58.75" cy="127.0938" fill="#ADD1B2" rx="11" ry="11" style="stroke: #A80036; stroke-width: 1.0;"/><path d="M61.5156,122.9688 Q61.6719,122.75 61.8594,122.6406 Q62.0469,122.5313 62.2656,122.5313 Q62.6406,122.5313 62.875,122.7969 Q63.1094,123.0469 63.1094,123.6563 L63.1094,125.1094 Q63.1094,125.7188 62.875,125.9844 Q62.6406,126.25 62.2656,126.25 Q61.9219,126.25 61.7188,126.0469 Q61.5156,125.8594 61.4063,125.3438 Q61.3594,124.9844 61.1719,124.7969 Q60.8438,124.4219 60.2344,124.2031 Q59.625,123.9844 59,123.9844 Q58.2344,123.9844 57.5938,124.3125 Q56.9688,124.6406 56.4688,125.3906 Q55.9844,126.1406 55.9844,127.1719 L55.9844,128.2656 Q55.9844,129.5 56.875,130.3281 Q57.7656,131.1406 59.3594,131.1406 Q60.2969,131.1406 60.9531,130.8906 Q61.3438,130.7344 61.7656,130.2969 Q62.0313,130.0313 62.1719,129.9531 Q62.3281,129.875 62.5313,129.875 Q62.8594,129.875 63.1094,130.1406 Q63.375,130.3906 63.375,130.7344 Q63.375,131.0781 63.0313,131.4844 Q62.5313,132.0625 61.7344,132.3906 Q60.6563,132.8438 59.3594,132.8438 Q57.8438,132.8438 56.6406,132.2188 Q55.6563,131.7188 54.9688,130.6563 Q54.2813,129.5781 54.2813,128.2969 L54.2813,127.1406 Q54.2813,125.8125 54.8906,124.6719 Q55.5156,123.5156 56.6094,122.9063 Q57.7031,122.2813 58.9375,122.2813 Q59.6719,122.2813 60.3125,122.4531 Q60.9688,122.6094 61.5156,122.9688 Z "/><text fill="#000000" font-family="sans-serif" font-size="14" lengthAdjust="spacingAndGlyphs" textLength="212" x="79.25" y="126.5332">PackageableElementItemProvider</text><text fill="#000000" font-family="sans-serif" font-size="10" lengthAdjust="spacingAndGlyphs" textLength="135" x="117.75" y="139.9902">org.eclipse.epf.uma.provider</text><line style="stroke: #A80036; stroke-width: 1.5;" x1="8" x2="330" y1="147.1875" y2="147.1875"/><ellipse cx="18" cy="158.1875" fill="#84BE84" rx="3" ry="3" style="stroke: #038048; stroke-width: 1.0;"/><text fill="#000000" font-family="sans-serif" font-size="11" lengthAdjust="spacingAndGlyphs" textLength="241" x="27" y="162.6064">PackageableElementItemProvider(AdapterFactory)</text><ellipse cx="18" cy="172.0234" fill="#84BE84" rx="3" ry="3" style="stroke: #038048; stroke-width: 1.0;"/><text fill="#000000" font-family="sans-serif" font-size="11" lengthAdjust="spacingAndGlyphs" textLength="298" x="27" y="176.4424">getPropertyDescriptors(Object): List&lt;IItemPropertyDescriptor&gt;</text><ellipse cx="18" cy="185.8594" fill="#84BE84" rx="3" ry="3" style="stroke: #038048; stroke-width: 1.0;"/><text fill="#000000" font-family="sans-serif" font-size="11" lengthAdjust="spacingAndGlyphs" textLength="109" x="27" y="190.2783">getText(Object): String</text><ellipse cx="18" cy="199.6953" fill="#84BE84" rx="3" ry="3" style="stroke: #038048; stroke-width: 1.0;"/><text fill="#000000" font-family="sans-serif" font-size="11" lengthAdjust="spacingAndGlyphs" textLength="157" x="27" y="204.1143">notifyChanged(Notification): void</text></a><!--MD5=[564b495961acafdebeeb651c1d337dd6]
class org.eclipse.epf.uma.provider.NamedElementItemProvider--><a href="NamedElementItemProvider.html" target="_top" title="NamedElementItemProvider.html" xlink:actuate="onRequest" xlink:href="NamedElementItemProvider.html" xlink:show="new" xlink:title="NamedElementItemProvider.html" xlink:type="simple"><rect codeLine="12" fill="#FEFECE" filter="url(#fdr8bgoe9leaw)" height="40.1875" id="org.eclipse.epf.uma.provider.NamedElementItemProvider" style="stroke: #A80036; stroke-width: 1.5;" width="206" x="66" y="7"/><ellipse cx="81" cy="27.0938" fill="#ADD1B2" rx="11" ry="11" style="stroke: #A80036; stroke-width: 1.0;"/><path d="M83.7656,22.9688 Q83.9219,22.75 84.1094,22.6406 Q84.2969,22.5313 84.5156,22.5313 Q84.8906,22.5313 85.125,22.7969 Q85.3594,23.0469 85.3594,23.6563 L85.3594,25.1094 Q85.3594,25.7188 85.125,25.9844 Q84.8906,26.25 84.5156,26.25 Q84.1719,26.25 83.9688,26.0469 Q83.7656,25.8594 83.6563,25.3438 Q83.6094,24.9844 83.4219,24.7969 Q83.0938,24.4219 82.4844,24.2031 Q81.875,23.9844 81.25,23.9844 Q80.4844,23.9844 79.8438,24.3125 Q79.2188,24.6406 78.7188,25.3906 Q78.2344,26.1406 78.2344,27.1719 L78.2344,28.2656 Q78.2344,29.5 79.125,30.3281 Q80.0156,31.1406 81.6094,31.1406 Q82.5469,31.1406 83.2031,30.8906 Q83.5938,30.7344 84.0156,30.2969 Q84.2813,30.0313 84.4219,29.9531 Q84.5781,29.875 84.7813,29.875 Q85.1094,29.875 85.3594,30.1406 Q85.625,30.3906 85.625,30.7344 Q85.625,31.0781 85.2813,31.4844 Q84.7813,32.0625 83.9844,32.3906 Q82.9063,32.8438 81.6094,32.8438 Q80.0938,32.8438 78.8906,32.2188 Q77.9063,31.7188 77.2188,30.6563 Q76.5313,29.5781 76.5313,28.2969 L76.5313,27.1406 Q76.5313,25.8125 77.1406,24.6719 Q77.7656,23.5156 78.8594,22.9063 Q79.9531,22.2813 81.1875,22.2813 Q81.9219,22.2813 82.5625,22.4531 Q83.2188,22.6094 83.7656,22.9688 Z "/><text fill="#000000" font-family="sans-serif" font-size="14" lengthAdjust="spacingAndGlyphs" textLength="174" x="95" y="26.5332">NamedElementItemProvider</text><text fill="#000000" font-family="sans-serif" font-size="10" lengthAdjust="spacingAndGlyphs" textLength="135" x="114.5" y="39.9902">org.eclipse.epf.uma.provider</text></a><!--MD5=[a2dc2fc4cb04e812bb21e31e22fe66be]
reverse link org.eclipse.epf.uma.provider.NamedElementItemProvider to org.eclipse.epf.uma.provider.PackageableElementItemProvider--><path codeLine="14" d="M169,67.49 C169,79.93 169,93.86 169,106.99 " fill="none" id="org.eclipse.epf.uma.provider.NamedElementItemProvider-backto-org.eclipse.epf.uma.provider.PackageableElementItemProvider" style="stroke: #A80036; stroke-width: 1.0;"/><polygon fill="none" points="162,67.18,169,47.18,176,67.18,162,67.18" style="stroke: #A80036; stroke-width: 1.0;"/><text fill="#888888" font-family="sans-serif" font-size="10" lengthAdjust="spacingAndGlyphs" textLength="190" x="71" y="233.9121">UMLDoclet 2.0.12, PlantUML 1.2020.16</text><!--MD5=[bf60d0736d369bfb3ae54cc854d76663]
@startuml
    set namespaceSeparator none
    hide empty fields
    hide empty methods

    class "<size:14>PackageableElementItemProvider\n<size:10>org.eclipse.epf.uma.provider" as org.eclipse.epf.uma.provider.PackageableElementItemProvider [[PackageableElementItemProvider.html]] {
        +PackageableElementItemProvider(AdapterFactory)
        +getPropertyDescriptors(Object): List<IItemPropertyDescriptor>
        +getText(Object): String
        +notifyChanged(Notification): void
    }

    class "<size:14>NamedElementItemProvider\n<size:10>org.eclipse.epf.uma.provider" as org.eclipse.epf.uma.provider.NamedElementItemProvider [[NamedElementItemProvider.html]]

    org.eclipse.epf.uma.provider.NamedElementItemProvider <|- - org.eclipse.epf.uma.provider.PackageableElementItemProvider

    center footer UMLDoclet 2.0.12, PlantUML 1.2020.16
@enduml

PlantUML version 1.2020.16(Sun Aug 23 22:20:43 CEST 2020)
(APACHE source distribution)
Java Runtime: Java(TM) SE Runtime Environment
JVM: Java HotSpot(TM) 64-Bit Server VM
Default Encoding: Cp1252
Language: es
Country: ES
--></g></svg>