<?xml version="1.0" encoding="UTF-8" standalone="no"?><svg xmlns="http://www.w3.org/2000/svg" xmlns:xlink="http://www.w3.org/1999/xlink" contentScriptType="application/ecmascript" contentStyleType="text/css" height="261px" preserveAspectRatio="none" style="width:350px;height:261px;" version="1.1" viewBox="0 0 350 261" width="350px" zoomAndPan="magnify"><defs><filter height="300%" id="fpjiwt4qlvjzz" width="300%" x="-1" y="-1"><feGaussianBlur result="blurOut" stdDeviation="2.0"/><feColorMatrix in="blurOut" result="blurOut2" type="matrix" values="0 0 0 0 0 0 0 0 0 0 0 0 0 0 0 0 0 0 .4 0"/><feOffset dx="4.0" dy="4.0" in="blurOut2" result="blurOut3"/><feBlend in="SourceGraphic" in2="blurOut3" mode="normal"/></filter></defs><g><!--MD5=[b627036c1f4c586b1ff6fa9b4a28908b]
class org.eclipse.epf.uma.provider.PlanningDataItemProvider--><a href="PlanningDataItemProvider.html" target="_top" title="PlanningDataItemProvider.html" xlink:actuate="onRequest" xlink:href="PlanningDataItemProvider.html" xlink:show="new" xlink:title="PlanningDataItemProvider.html" xlink:type="simple"><rect codeLine="5" fill="#FEFECE" filter="url(#fpjiwt4qlvjzz)" height="117.3672" id="org.eclipse.epf.uma.provider.PlanningDataItemProvider" style="stroke: #A80036; stroke-width: 1.5;" width="324" x="7" y="107"/><ellipse cx="82.75" cy="127.0938" fill="#ADD1B2" rx="11" ry="11" style="stroke: #A80036; stroke-width: 1.0;"/><path d="M85.5156,122.9688 Q85.6719,122.75 85.8594,122.6406 Q86.0469,122.5313 86.2656,122.5313 Q86.6406,122.5313 86.875,122.7969 Q87.1094,123.0469 87.1094,123.6563 L87.1094,125.1094 Q87.1094,125.7188 86.875,125.9844 Q86.6406,126.25 86.2656,126.25 Q85.9219,126.25 85.7188,126.0469 Q85.5156,125.8594 85.4063,125.3438 Q85.3594,124.9844 85.1719,124.7969 Q84.8438,124.4219 84.2344,124.2031 Q83.625,123.9844 83,123.9844 Q82.2344,123.9844 81.5938,124.3125 Q80.9688,124.6406 80.4688,125.3906 Q79.9844,126.1406 79.9844,127.1719 L79.9844,128.2656 Q79.9844,129.5 80.875,130.3281 Q81.7656,131.1406 83.3594,131.1406 Q84.2969,131.1406 84.9531,130.8906 Q85.3438,130.7344 85.7656,130.2969 Q86.0313,130.0313 86.1719,129.9531 Q86.3281,129.875 86.5313,129.875 Q86.8594,129.875 87.1094,130.1406 Q87.375,130.3906 87.375,130.7344 Q87.375,131.0781 87.0313,131.4844 Q86.5313,132.0625 85.7344,132.3906 Q84.6563,132.8438 83.3594,132.8438 Q81.8438,132.8438 80.6406,132.2188 Q79.6563,131.7188 78.9688,130.6563 Q78.2813,129.5781 78.2813,128.2969 L78.2813,127.1406 Q78.2813,125.8125 78.8906,124.6719 Q79.5156,123.5156 80.6094,122.9063 Q81.7031,122.2813 82.9375,122.2813 Q83.6719,122.2813 84.3125,122.4531 Q84.9688,122.6094 85.5156,122.9688 Z "/><text fill="#000000" font-family="sans-serif" font-size="14" lengthAdjust="spacingAndGlyphs" textLength="164" x="103.25" y="126.5332">PlanningDataItemProvider</text><text fill="#000000" font-family="sans-serif" font-size="10" lengthAdjust="spacingAndGlyphs" textLength="135" x="117.75" y="139.9902">org.eclipse.epf.uma.provider</text><line style="stroke: #A80036; stroke-width: 1.5;" x1="8" x2="330" y1="147.1875" y2="147.1875"/><ellipse cx="18" cy="158.1875" fill="#84BE84" rx="3" ry="3" style="stroke: #038048; stroke-width: 1.0;"/><text fill="#000000" font-family="sans-serif" font-size="11" lengthAdjust="spacingAndGlyphs" textLength="205" x="27" y="162.6064">PlanningDataItemProvider(AdapterFactory)</text><ellipse cx="18" cy="172.0234" fill="#84BE84" rx="3" ry="3" style="stroke: #038048; stroke-width: 1.0;"/><text fill="#000000" font-family="sans-serif" font-size="11" lengthAdjust="spacingAndGlyphs" textLength="298" x="27" y="176.4424">getPropertyDescriptors(Object): List&lt;IItemPropertyDescriptor&gt;</text><ellipse cx="18" cy="185.8594" fill="#84BE84" rx="3" ry="3" style="stroke: #038048; stroke-width: 1.0;"/><text fill="#000000" font-family="sans-serif" font-size="11" lengthAdjust="spacingAndGlyphs" textLength="119" x="27" y="190.2783">getImage(Object): Object</text><ellipse cx="18" cy="199.6953" fill="#84BE84" rx="3" ry="3" style="stroke: #038048; stroke-width: 1.0;"/><text fill="#000000" font-family="sans-serif" font-size="11" lengthAdjust="spacingAndGlyphs" textLength="109" x="27" y="204.1143">getText(Object): String</text><ellipse cx="18" cy="213.5313" fill="#84BE84" rx="3" ry="3" style="stroke: #038048; stroke-width: 1.0;"/><text fill="#000000" font-family="sans-serif" font-size="11" lengthAdjust="spacingAndGlyphs" textLength="157" x="27" y="217.9502">notifyChanged(Notification): void</text></a><!--MD5=[8490f5ce6fa0b34cfe1ade481282368e]
class org.eclipse.epf.uma.provider.ProcessElementItemProvider--><a href="ProcessElementItemProvider.html" target="_top" title="ProcessElementItemProvider.html" xlink:actuate="onRequest" xlink:href="ProcessElementItemProvider.html" xlink:show="new" xlink:title="ProcessElementItemProvider.html" xlink:type="simple"><rect codeLine="13" fill="#FEFECE" filter="url(#fpjiwt4qlvjzz)" height="40.1875" id="org.eclipse.epf.uma.provider.ProcessElementItemProvider" style="stroke: #A80036; stroke-width: 1.5;" width="213" x="62.5" y="7"/><ellipse cx="77.5" cy="27.0938" fill="#ADD1B2" rx="11" ry="11" style="stroke: #A80036; stroke-width: 1.0;"/><path d="M80.2656,22.9688 Q80.4219,22.75 80.6094,22.6406 Q80.7969,22.5313 81.0156,22.5313 Q81.3906,22.5313 81.625,22.7969 Q81.8594,23.0469 81.8594,23.6563 L81.8594,25.1094 Q81.8594,25.7188 81.625,25.9844 Q81.3906,26.25 81.0156,26.25 Q80.6719,26.25 80.4688,26.0469 Q80.2656,25.8594 80.1563,25.3438 Q80.1094,24.9844 79.9219,24.7969 Q79.5938,24.4219 78.9844,24.2031 Q78.375,23.9844 77.75,23.9844 Q76.9844,23.9844 76.3438,24.3125 Q75.7188,24.6406 75.2188,25.3906 Q74.7344,26.1406 74.7344,27.1719 L74.7344,28.2656 Q74.7344,29.5 75.625,30.3281 Q76.5156,31.1406 78.1094,31.1406 Q79.0469,31.1406 79.7031,30.8906 Q80.0938,30.7344 80.5156,30.2969 Q80.7813,30.0313 80.9219,29.9531 Q81.0781,29.875 81.2813,29.875 Q81.6094,29.875 81.8594,30.1406 Q82.125,30.3906 82.125,30.7344 Q82.125,31.0781 81.7813,31.4844 Q81.2813,32.0625 80.4844,32.3906 Q79.4063,32.8438 78.1094,32.8438 Q76.5938,32.8438 75.3906,32.2188 Q74.4063,31.7188 73.7188,30.6563 Q73.0313,29.5781 73.0313,28.2969 L73.0313,27.1406 Q73.0313,25.8125 73.6406,24.6719 Q74.2656,23.5156 75.3594,22.9063 Q76.4531,22.2813 77.6875,22.2813 Q78.4219,22.2813 79.0625,22.4531 Q79.7188,22.6094 80.2656,22.9688 Z "/><text fill="#000000" font-family="sans-serif" font-size="14" lengthAdjust="spacingAndGlyphs" textLength="181" x="91.5" y="26.5332">ProcessElementItemProvider</text><text fill="#000000" font-family="sans-serif" font-size="10" lengthAdjust="spacingAndGlyphs" textLength="135" x="114.5" y="39.9902">org.eclipse.epf.uma.provider</text></a><!--MD5=[3fdb3fd1002e729dcecc1ff95ce5e874]
reverse link org.eclipse.epf.uma.provider.ProcessElementItemProvider to org.eclipse.epf.uma.provider.PlanningDataItemProvider--><path codeLine="15" d="M169,67.38 C169,79.73 169,93.63 169,106.97 " fill="none" id="org.eclipse.epf.uma.provider.ProcessElementItemProvider-backto-org.eclipse.epf.uma.provider.PlanningDataItemProvider" style="stroke: #A80036; stroke-width: 1.0;"/><polygon fill="none" points="162,67.27,169,47.27,176,67.27,162,67.27" style="stroke: #A80036; stroke-width: 1.0;"/><text fill="#888888" font-family="sans-serif" font-size="10" lengthAdjust="spacingAndGlyphs" textLength="190" x="71" y="247.748">UMLDoclet 2.0.12, PlantUML 1.2020.16</text><!--MD5=[8780f5323a3f4a8f95c3bbb097866c07]
@startuml
    set namespaceSeparator none
    hide empty fields
    hide empty methods

    class "<size:14>PlanningDataItemProvider\n<size:10>org.eclipse.epf.uma.provider" as org.eclipse.epf.uma.provider.PlanningDataItemProvider [[PlanningDataItemProvider.html]] {
        +PlanningDataItemProvider(AdapterFactory)
        +getPropertyDescriptors(Object): List<IItemPropertyDescriptor>
        +getImage(Object): Object
        +getText(Object): String
        +notifyChanged(Notification): void
    }

    class "<size:14>ProcessElementItemProvider\n<size:10>org.eclipse.epf.uma.provider" as org.eclipse.epf.uma.provider.ProcessElementItemProvider [[ProcessElementItemProvider.html]]

    org.eclipse.epf.uma.provider.ProcessElementItemProvider <|- - org.eclipse.epf.uma.provider.PlanningDataItemProvider

    center footer UMLDoclet 2.0.12, PlantUML 1.2020.16
@enduml

PlantUML version 1.2020.16(Sun Aug 23 22:20:43 CEST 2020)
(APACHE source distribution)
Java Runtime: Java(TM) SE Runtime Environment
JVM: Java HotSpot(TM) 64-Bit Server VM
Default Encoding: Cp1252
Language: es
Country: ES
--></g></svg>