<?xml version="1.0" encoding="UTF-8" standalone="no"?><svg xmlns="http://www.w3.org/2000/svg" xmlns:xlink="http://www.w3.org/1999/xlink" contentScriptType="application/ecmascript" contentStyleType="text/css" height="339px" preserveAspectRatio="none" style="width:1841px;height:339px;" version="1.1" viewBox="0 0 1841 339" width="1841px" zoomAndPan="magnify"><defs><filter height="300%" id="f161mk8740ewl4" width="300%" x="-1" y="-1"><feGaussianBlur result="blurOut" stdDeviation="2.0"/><feColorMatrix in="blurOut" result="blurOut2" type="matrix" values="0 0 0 0 0 0 0 0 0 0 0 0 0 0 0 0 0 0 .4 0"/><feOffset dx="4.0" dy="4.0" in="blurOut2" result="blurOut3"/><feBlend in="SourceGraphic" in2="blurOut3" mode="normal"/></filter></defs><g><!--MD5=[fd219633b5b083e1559d925778cb36cd]
class org.eclipse.epf.uma.provider.PointItemProvider--><a href="PointItemProvider.html" target="_top" title="PointItemProvider.html" xlink:actuate="onRequest" xlink:href="PointItemProvider.html" xlink:show="new" xlink:title="PointItemProvider.html" xlink:type="simple"><rect codeLine="5" fill="#FEFECE" filter="url(#f161mk8740ewl4)" height="131.2031" id="org.eclipse.epf.uma.provider.PointItemProvider" style="stroke: #A80036; stroke-width: 1.5;" width="324" x="861.5" y="171"/><ellipse cx="951.75" cy="191.0938" fill="#ADD1B2" rx="11" ry="11" style="stroke: #A80036; stroke-width: 1.0;"/><path d="M954.5156,186.9688 Q954.6719,186.75 954.8594,186.6406 Q955.0469,186.5313 955.2656,186.5313 Q955.6406,186.5313 955.875,186.7969 Q956.1094,187.0469 956.1094,187.6563 L956.1094,189.1094 Q956.1094,189.7188 955.875,189.9844 Q955.6406,190.25 955.2656,190.25 Q954.9219,190.25 954.7188,190.0469 Q954.5156,189.8594 954.4063,189.3438 Q954.3594,188.9844 954.1719,188.7969 Q953.8438,188.4219 953.2344,188.2031 Q952.625,187.9844 952,187.9844 Q951.2344,187.9844 950.5938,188.3125 Q949.9688,188.6406 949.4688,189.3906 Q948.9844,190.1406 948.9844,191.1719 L948.9844,192.2656 Q948.9844,193.5 949.875,194.3281 Q950.7656,195.1406 952.3594,195.1406 Q953.2969,195.1406 953.9531,194.8906 Q954.3438,194.7344 954.7656,194.2969 Q955.0313,194.0313 955.1719,193.9531 Q955.3281,193.875 955.5313,193.875 Q955.8594,193.875 956.1094,194.1406 Q956.375,194.3906 956.375,194.7344 Q956.375,195.0781 956.0313,195.4844 Q955.5313,196.0625 954.7344,196.3906 Q953.6563,196.8438 952.3594,196.8438 Q950.8438,196.8438 949.6406,196.2188 Q948.6563,195.7188 947.9688,194.6563 Q947.2813,193.5781 947.2813,192.2969 L947.2813,191.1406 Q947.2813,189.8125 947.8906,188.6719 Q948.5156,187.5156 949.6094,186.9063 Q950.7031,186.2813 951.9375,186.2813 Q952.6719,186.2813 953.3125,186.4531 Q953.9688,186.6094 954.5156,186.9688 Z "/><text fill="#000000" font-family="sans-serif" font-size="14" lengthAdjust="spacingAndGlyphs" textLength="111" x="984.25" y="190.5332">PointItemProvider</text><text fill="#000000" font-family="sans-serif" font-size="10" lengthAdjust="spacingAndGlyphs" textLength="135" x="972.25" y="203.9902">org.eclipse.epf.uma.provider</text><line style="stroke: #A80036; stroke-width: 1.5;" x1="862.5" x2="1184.5" y1="211.1875" y2="211.1875"/><ellipse cx="872.5" cy="222.1875" fill="#84BE84" rx="3" ry="3" style="stroke: #038048; stroke-width: 1.0;"/><text fill="#000000" font-family="sans-serif" font-size="11" lengthAdjust="spacingAndGlyphs" textLength="166" x="881.5" y="226.6064">PointItemProvider(AdapterFactory)</text><ellipse cx="872.5" cy="236.0234" fill="#84BE84" rx="3" ry="3" style="stroke: #038048; stroke-width: 1.0;"/><text fill="#000000" font-family="sans-serif" font-size="11" lengthAdjust="spacingAndGlyphs" textLength="298" x="881.5" y="240.4424">getPropertyDescriptors(Object): List&lt;IItemPropertyDescriptor&gt;</text><ellipse cx="872.5" cy="249.8594" fill="#84BE84" rx="3" ry="3" style="stroke: #038048; stroke-width: 1.0;"/><text fill="#000000" font-family="sans-serif" font-size="11" lengthAdjust="spacingAndGlyphs" textLength="119" x="881.5" y="254.2783">getImage(Object): Object</text><ellipse cx="872.5" cy="263.6953" fill="#84BE84" rx="3" ry="3" style="stroke: #038048; stroke-width: 1.0;"/><text fill="#000000" font-family="sans-serif" font-size="11" lengthAdjust="spacingAndGlyphs" textLength="109" x="881.5" y="268.1143">getText(Object): String</text><ellipse cx="872.5" cy="277.5313" fill="#84BE84" rx="3" ry="3" style="stroke: #038048; stroke-width: 1.0;"/><text fill="#000000" font-family="sans-serif" font-size="11" lengthAdjust="spacingAndGlyphs" textLength="157" x="881.5" y="281.9502">notifyChanged(Notification): void</text><ellipse cx="872.5" cy="291.3672" fill="#84BE84" rx="3" ry="3" style="stroke: #038048; stroke-width: 1.0;"/><text fill="#000000" font-family="sans-serif" font-size="11" lengthAdjust="spacingAndGlyphs" textLength="197" x="881.5" y="295.7861">getResourceLocator(): ResourceLocator</text></a><!--MD5=[a4e71ac0e97d2a8f86d109131271dc8c]
class org.eclipse.emf.edit.provider.ItemProviderAdapter--><rect codeLine="14" fill="#FEFECE" filter="url(#f161mk8740ewl4)" height="40.1875" id="org.eclipse.emf.edit.provider.ItemProviderAdapter" style="stroke: #A80036; stroke-width: 1.5;" width="167" x="7" y="39"/><ellipse cx="22" cy="59.0938" fill="#ADD1B2" rx="11" ry="11" style="stroke: #A80036; stroke-width: 1.0;"/><path d="M24.7656,54.9688 Q24.9219,54.75 25.1094,54.6406 Q25.2969,54.5313 25.5156,54.5313 Q25.8906,54.5313 26.125,54.7969 Q26.3594,55.0469 26.3594,55.6563 L26.3594,57.1094 Q26.3594,57.7188 26.125,57.9844 Q25.8906,58.25 25.5156,58.25 Q25.1719,58.25 24.9688,58.0469 Q24.7656,57.8594 24.6563,57.3438 Q24.6094,56.9844 24.4219,56.7969 Q24.0938,56.4219 23.4844,56.2031 Q22.875,55.9844 22.25,55.9844 Q21.4844,55.9844 20.8438,56.3125 Q20.2188,56.6406 19.7188,57.3906 Q19.2344,58.1406 19.2344,59.1719 L19.2344,60.2656 Q19.2344,61.5 20.125,62.3281 Q21.0156,63.1406 22.6094,63.1406 Q23.5469,63.1406 24.2031,62.8906 Q24.5938,62.7344 25.0156,62.2969 Q25.2813,62.0313 25.4219,61.9531 Q25.5781,61.875 25.7813,61.875 Q26.1094,61.875 26.3594,62.1406 Q26.625,62.3906 26.625,62.7344 Q26.625,63.0781 26.2813,63.4844 Q25.7813,64.0625 24.9844,64.3906 Q23.9063,64.8438 22.6094,64.8438 Q21.0938,64.8438 19.8906,64.2188 Q18.9063,63.7188 18.2188,62.6563 Q17.5313,61.5781 17.5313,60.2969 L17.5313,59.1406 Q17.5313,57.8125 18.1406,56.6719 Q18.7656,55.5156 19.8594,54.9063 Q20.9531,54.2813 22.1875,54.2813 Q22.9219,54.2813 23.5625,54.4531 Q24.2188,54.6094 24.7656,54.9688 Z "/><text fill="#000000" font-family="sans-serif" font-size="14" lengthAdjust="spacingAndGlyphs" textLength="129" x="39" y="58.5332">ItemProviderAdapter</text><text fill="#000000" font-family="sans-serif" font-size="10" lengthAdjust="spacingAndGlyphs" textLength="135" x="36" y="71.9902">org.eclipse.emf.edit.provider</text><!--MD5=[5c7b4527110b4476ce147b67bd4135f1]
class org.eclipse.emf.edit.provider.IEditingDomainItemProvider--><rect codeLine="15" fill="#FEFECE" filter="url(#f161mk8740ewl4)" height="103.5313" id="org.eclipse.emf.edit.provider.IEditingDomainItemProvider" style="stroke: #A80036; stroke-width: 1.5;" width="538" x="209.5" y="7"/><ellipse cx="387.25" cy="27.0938" fill="#B4A7E5" rx="11" ry="11" style="stroke: #A80036; stroke-width: 1.0;"/><path d="M388.2031,23.7344 L388.2031,30.3906 L389.9219,30.3906 Q390.5313,30.3906 390.7969,30.625 Q391.0625,30.8594 391.0625,31.25 Q391.0625,31.625 390.7969,31.8594 Q390.5313,32.0938 389.9219,32.0938 L384.7813,32.0938 Q384.1719,32.0938 383.9063,31.8594 Q383.6406,31.625 383.6406,31.2344 Q383.6406,30.8594 383.9063,30.625 Q384.1719,30.3906 384.7813,30.3906 L386.5,30.3906 L386.5,23.7344 L384.7813,23.7344 Q384.1719,23.7344 383.9063,23.5 Q383.6406,23.2656 383.6406,22.875 Q383.6406,22.5 383.9063,22.2656 Q384.1719,22.0313 384.7813,22.0313 L389.9219,22.0313 Q390.5313,22.0313 390.7969,22.2656 Q391.0625,22.5 391.0625,22.875 Q391.0625,23.2656 390.7969,23.5 Q390.5313,23.7344 389.9219,23.7344 L388.2031,23.7344 Z "/><text fill="#000000" font-family="sans-serif" font-size="14" font-style="italic" lengthAdjust="spacingAndGlyphs" textLength="174" x="407.75" y="26.5332">IEditingDomainItemProvider</text><text fill="#000000" font-family="sans-serif" font-size="10" font-style="italic" lengthAdjust="spacingAndGlyphs" textLength="133" x="428.25" y="39.9902">org.eclipse.emf.edit.provider</text><line style="stroke: #A80036; stroke-width: 1.5;" x1="210.5" x2="746.5" y1="47.1875" y2="47.1875"/><ellipse cx="220.5" cy="58.1875" fill="#84BE84" rx="3" ry="3" style="stroke: #038048; stroke-width: 1.0;"/><text fill="#000000" font-family="sans-serif" font-size="11" font-style="italic" lengthAdjust="spacingAndGlyphs" textLength="173" x="229.5" y="62.6064">getChildren(Object): Collection&lt;?&gt;</text><ellipse cx="220.5" cy="72.0234" fill="#84BE84" rx="3" ry="3" style="stroke: #038048; stroke-width: 1.0;"/><text fill="#000000" font-family="sans-serif" font-size="11" font-style="italic" lengthAdjust="spacingAndGlyphs" textLength="129" x="229.5" y="76.4424">getParent(Object): Object</text><ellipse cx="220.5" cy="85.8594" fill="#84BE84" rx="3" ry="3" style="stroke: #038048; stroke-width: 1.0;"/><text fill="#000000" font-family="sans-serif" font-size="11" font-style="italic" lengthAdjust="spacingAndGlyphs" textLength="354" x="229.5" y="90.2783">getNewChildDescriptors(Object, EditingDomain, Object): Collection&lt;?&gt;</text><ellipse cx="220.5" cy="99.6953" fill="#84BE84" rx="3" ry="3" style="stroke: #038048; stroke-width: 1.0;"/><text fill="#000000" font-family="sans-serif" font-size="11" font-style="italic" lengthAdjust="spacingAndGlyphs" textLength="512" x="229.5" y="104.1143">createCommand(Object, EditingDomain, Class&lt;? extends Command&gt;, CommandParameter): Command</text><!--MD5=[0bc89d7ed19b8236bc0330d085a77c0c]
class org.eclipse.emf.edit.provider.IStructuredItemContentProvider--><rect codeLine="21" fill="#FEFECE" filter="url(#f161mk8740ewl4)" height="62.0234" id="org.eclipse.emf.edit.provider.IStructuredItemContentProvider" style="stroke: #A80036; stroke-width: 1.5;" width="231" x="783" y="28"/><ellipse cx="798" cy="48.0938" fill="#B4A7E5" rx="11" ry="11" style="stroke: #A80036; stroke-width: 1.0;"/><path d="M798.9531,44.7344 L798.9531,51.3906 L800.6719,51.3906 Q801.2813,51.3906 801.5469,51.625 Q801.8125,51.8594 801.8125,52.25 Q801.8125,52.625 801.5469,52.8594 Q801.2813,53.0938 800.6719,53.0938 L795.5313,53.0938 Q794.9219,53.0938 794.6563,52.8594 Q794.3906,52.625 794.3906,52.2344 Q794.3906,51.8594 794.6563,51.625 Q794.9219,51.3906 795.5313,51.3906 L797.25,51.3906 L797.25,44.7344 L795.5313,44.7344 Q794.9219,44.7344 794.6563,44.5 Q794.3906,44.2656 794.3906,43.875 Q794.3906,43.5 794.6563,43.2656 Q794.9219,43.0313 795.5313,43.0313 L800.6719,43.0313 Q801.2813,43.0313 801.5469,43.2656 Q801.8125,43.5 801.8125,43.875 Q801.8125,44.2656 801.5469,44.5 Q801.2813,44.7344 800.6719,44.7344 L798.9531,44.7344 Z "/><text fill="#000000" font-family="sans-serif" font-size="14" font-style="italic" lengthAdjust="spacingAndGlyphs" textLength="199" x="812" y="47.5332">IStructuredItemContentProvider</text><text fill="#000000" font-family="sans-serif" font-size="10" font-style="italic" lengthAdjust="spacingAndGlyphs" textLength="133" x="845" y="60.9902">org.eclipse.emf.edit.provider</text><line style="stroke: #A80036; stroke-width: 1.5;" x1="784" x2="1013" y1="68.1875" y2="68.1875"/><ellipse cx="794" cy="79.1875" fill="#84BE84" rx="3" ry="3" style="stroke: #038048; stroke-width: 1.0;"/><text fill="#000000" font-family="sans-serif" font-size="11" font-style="italic" lengthAdjust="spacingAndGlyphs" textLength="177" x="803" y="83.6064">getElements(Object): Collection&lt;?&gt;</text><!--MD5=[e48dac3a1e3482d11e24e95e5b47a447]
class org.eclipse.emf.edit.provider.ITreeItemContentProvider--><rect codeLine="24" fill="#FEFECE" filter="url(#f161mk8740ewl4)" height="89.6953" id="org.eclipse.emf.edit.provider.ITreeItemContentProvider" style="stroke: #A80036; stroke-width: 1.5;" width="199" x="1049" y="14"/><ellipse cx="1065.8" cy="34.0938" fill="#B4A7E5" rx="11" ry="11" style="stroke: #A80036; stroke-width: 1.0;"/><path d="M1066.7531,30.7344 L1066.7531,37.3906 L1068.4719,37.3906 Q1069.0813,37.3906 1069.3469,37.625 Q1069.6125,37.8594 1069.6125,38.25 Q1069.6125,38.625 1069.3469,38.8594 Q1069.0813,39.0938 1068.4719,39.0938 L1063.3313,39.0938 Q1062.7219,39.0938 1062.4563,38.8594 Q1062.1906,38.625 1062.1906,38.2344 Q1062.1906,37.8594 1062.4563,37.625 Q1062.7219,37.3906 1063.3313,37.3906 L1065.05,37.3906 L1065.05,30.7344 L1063.3313,30.7344 Q1062.7219,30.7344 1062.4563,30.5 Q1062.1906,30.2656 1062.1906,29.875 Q1062.1906,29.5 1062.4563,29.2656 Q1062.7219,29.0313 1063.3313,29.0313 L1068.4719,29.0313 Q1069.0813,29.0313 1069.3469,29.2656 Q1069.6125,29.5 1069.6125,29.875 Q1069.6125,30.2656 1069.3469,30.5 Q1069.0813,30.7344 1068.4719,30.7344 L1066.7531,30.7344 Z "/><text fill="#000000" font-family="sans-serif" font-size="14" font-style="italic" lengthAdjust="spacingAndGlyphs" textLength="163" x="1080.2" y="33.5332">ITreeItemContentProvider</text><text fill="#000000" font-family="sans-serif" font-size="10" font-style="italic" lengthAdjust="spacingAndGlyphs" textLength="133" x="1095.2" y="46.9902">org.eclipse.emf.edit.provider</text><line style="stroke: #A80036; stroke-width: 1.5;" x1="1050" x2="1247" y1="54.1875" y2="54.1875"/><ellipse cx="1060" cy="65.1875" fill="#84BE84" rx="3" ry="3" style="stroke: #038048; stroke-width: 1.0;"/><text fill="#000000" font-family="sans-serif" font-size="11" font-style="italic" lengthAdjust="spacingAndGlyphs" textLength="173" x="1069" y="69.6064">getChildren(Object): Collection&lt;?&gt;</text><ellipse cx="1060" cy="79.0234" fill="#84BE84" rx="3" ry="3" style="stroke: #038048; stroke-width: 1.0;"/><text fill="#000000" font-family="sans-serif" font-size="11" font-style="italic" lengthAdjust="spacingAndGlyphs" textLength="148" x="1069" y="83.4424">hasChildren(Object): boolean</text><ellipse cx="1060" cy="92.8594" fill="#84BE84" rx="3" ry="3" style="stroke: #038048; stroke-width: 1.0;"/><text fill="#000000" font-family="sans-serif" font-size="11" font-style="italic" lengthAdjust="spacingAndGlyphs" textLength="129" x="1069" y="97.2783">getParent(Object): Object</text><!--MD5=[81ebfaead489b76de4fadd79aaab3822]
class org.eclipse.emf.edit.provider.IItemLabelProvider--><rect codeLine="29" fill="#FEFECE" filter="url(#f161mk8740ewl4)" height="75.8594" id="org.eclipse.emf.edit.provider.IItemLabelProvider" style="stroke: #A80036; stroke-width: 1.5;" width="165" x="1283" y="21"/><ellipse cx="1298" cy="41.0938" fill="#B4A7E5" rx="11" ry="11" style="stroke: #A80036; stroke-width: 1.0;"/><path d="M1298.9531,37.7344 L1298.9531,44.3906 L1300.6719,44.3906 Q1301.2813,44.3906 1301.5469,44.625 Q1301.8125,44.8594 1301.8125,45.25 Q1301.8125,45.625 1301.5469,45.8594 Q1301.2813,46.0938 1300.6719,46.0938 L1295.5313,46.0938 Q1294.9219,46.0938 1294.6563,45.8594 Q1294.3906,45.625 1294.3906,45.2344 Q1294.3906,44.8594 1294.6563,44.625 Q1294.9219,44.3906 1295.5313,44.3906 L1297.25,44.3906 L1297.25,37.7344 L1295.5313,37.7344 Q1294.9219,37.7344 1294.6563,37.5 Q1294.3906,37.2656 1294.3906,36.875 Q1294.3906,36.5 1294.6563,36.2656 Q1294.9219,36.0313 1295.5313,36.0313 L1300.6719,36.0313 Q1301.2813,36.0313 1301.5469,36.2656 Q1301.8125,36.5 1301.8125,36.875 Q1301.8125,37.2656 1301.5469,37.5 Q1301.2813,37.7344 1300.6719,37.7344 L1298.9531,37.7344 Z "/><text fill="#000000" font-family="sans-serif" font-size="14" font-style="italic" lengthAdjust="spacingAndGlyphs" textLength="118" x="1319.5" y="40.5332">IItemLabelProvider</text><text fill="#000000" font-family="sans-serif" font-size="10" font-style="italic" lengthAdjust="spacingAndGlyphs" textLength="133" x="1312" y="53.9902">org.eclipse.emf.edit.provider</text><line style="stroke: #A80036; stroke-width: 1.5;" x1="1284" x2="1447" y1="61.1875" y2="61.1875"/><ellipse cx="1294" cy="72.1875" fill="#84BE84" rx="3" ry="3" style="stroke: #038048; stroke-width: 1.0;"/><text fill="#000000" font-family="sans-serif" font-size="11" font-style="italic" lengthAdjust="spacingAndGlyphs" textLength="114" x="1303" y="76.6064">getText(Object): String</text><ellipse cx="1294" cy="86.0234" fill="#84BE84" rx="3" ry="3" style="stroke: #038048; stroke-width: 1.0;"/><text fill="#000000" font-family="sans-serif" font-size="11" font-style="italic" lengthAdjust="spacingAndGlyphs" textLength="127" x="1303" y="90.4424">getImage(Object): Object</text><!--MD5=[e751977cc71be81ce50c5a4113fa22f1]
class org.eclipse.emf.edit.provider.IItemPropertySource--><rect codeLine="33" fill="#FEFECE" filter="url(#f161mk8740ewl4)" height="89.6953" id="org.eclipse.emf.edit.provider.IItemPropertySource" style="stroke: #A80036; stroke-width: 1.5;" width="339" x="1483" y="14"/><ellipse cx="1581.75" cy="34.0938" fill="#B4A7E5" rx="11" ry="11" style="stroke: #A80036; stroke-width: 1.0;"/><path d="M1582.7031,30.7344 L1582.7031,37.3906 L1584.4219,37.3906 Q1585.0313,37.3906 1585.2969,37.625 Q1585.5625,37.8594 1585.5625,38.25 Q1585.5625,38.625 1585.2969,38.8594 Q1585.0313,39.0938 1584.4219,39.0938 L1579.2813,39.0938 Q1578.6719,39.0938 1578.4063,38.8594 Q1578.1406,38.625 1578.1406,38.2344 Q1578.1406,37.8594 1578.4063,37.625 Q1578.6719,37.3906 1579.2813,37.3906 L1581,37.3906 L1581,30.7344 L1579.2813,30.7344 Q1578.6719,30.7344 1578.4063,30.5 Q1578.1406,30.2656 1578.1406,29.875 Q1578.1406,29.5 1578.4063,29.2656 Q1578.6719,29.0313 1579.2813,29.0313 L1584.4219,29.0313 Q1585.0313,29.0313 1585.2969,29.2656 Q1585.5625,29.5 1585.5625,29.875 Q1585.5625,30.2656 1585.2969,30.5 Q1585.0313,30.7344 1584.4219,30.7344 L1582.7031,30.7344 Z "/><text fill="#000000" font-family="sans-serif" font-size="14" font-style="italic" lengthAdjust="spacingAndGlyphs" textLength="130" x="1603.75" y="33.5332">IItemPropertySource</text><text fill="#000000" font-family="sans-serif" font-size="10" font-style="italic" lengthAdjust="spacingAndGlyphs" textLength="133" x="1602.25" y="46.9902">org.eclipse.emf.edit.provider</text><line style="stroke: #A80036; stroke-width: 1.5;" x1="1484" x2="1821" y1="54.1875" y2="54.1875"/><ellipse cx="1494" cy="65.1875" fill="#84BE84" rx="3" ry="3" style="stroke: #038048; stroke-width: 1.0;"/><text fill="#000000" font-family="sans-serif" font-size="11" font-style="italic" lengthAdjust="spacingAndGlyphs" textLength="309" x="1503" y="69.6064">getPropertyDescriptors(Object): List&lt;IItemPropertyDescriptor&gt;</text><ellipse cx="1494" cy="79.0234" fill="#84BE84" rx="3" ry="3" style="stroke: #038048; stroke-width: 1.0;"/><text fill="#000000" font-family="sans-serif" font-size="11" font-style="italic" lengthAdjust="spacingAndGlyphs" textLength="313" x="1503" y="83.4424">getPropertyDescriptor(Object, Object): IItemPropertyDescriptor</text><ellipse cx="1494" cy="92.8594" fill="#84BE84" rx="3" ry="3" style="stroke: #038048; stroke-width: 1.0;"/><text fill="#000000" font-family="sans-serif" font-size="11" font-style="italic" lengthAdjust="spacingAndGlyphs" textLength="166" x="1503" y="97.2783">getEditableValue(Object): Object</text><!--MD5=[f2c1997125d705f9817a1e7a1512d068]
reverse link org.eclipse.emf.edit.provider.ItemProviderAdapter to org.eclipse.epf.uma.provider.PointItemProvider--><path codeLine="39" d="M139.43,88.65 C155.55,97.01 173.88,105.39 191.5,111 C417.31,182.85 691.1,213.64 861.34,226.55 " fill="none" id="org.eclipse.emf.edit.provider.ItemProviderAdapter-backto-org.eclipse.epf.uma.provider.PointItemProvider" style="stroke: #A80036; stroke-width: 1.0;"/><polygon fill="none" points="135.92,94.72,121.69,79.02,142.6,82.41,135.92,94.72" style="stroke: #A80036; stroke-width: 1.0;"/><!--MD5=[33aee594f48ced42b1e4bd6f2dccce8c]
reverse link org.eclipse.emf.edit.provider.IEditingDomainItemProvider to org.eclipse.epf.uma.provider.PointItemProvider--><path codeLine="40" d="M656.49,117.32 C722.39,138.54 796.72,162.47 861.16,183.22 " fill="none" id="org.eclipse.emf.edit.provider.IEditingDomainItemProvider-backto-org.eclipse.epf.uma.provider.PointItemProvider" style="stroke: #A80036; stroke-width: 1.0; stroke-dasharray: 7.0,7.0;"/><polygon fill="none" points="654.13,123.91,637.24,111.12,658.42,110.58,654.13,123.91" style="stroke: #A80036; stroke-width: 1.0;"/><!--MD5=[bf38048f2198879aa0dc969cacceb031]
reverse link org.eclipse.emf.edit.provider.IStructuredItemContentProvider to org.eclipse.epf.uma.provider.PointItemProvider--><path codeLine="41" d="M931.79,106.73 C945.79,126.39 962.32,149.6 977.46,170.85 " fill="none" id="org.eclipse.emf.edit.provider.IStructuredItemContentProvider-backto-org.eclipse.epf.uma.provider.PointItemProvider" style="stroke: #A80036; stroke-width: 1.0; stroke-dasharray: 7.0,7.0;"/><polygon fill="none" points="925.89,110.52,919.99,90.17,937.29,102.4,925.89,110.52" style="stroke: #A80036; stroke-width: 1.0;"/><!--MD5=[e22fda3c7b20ac6dc108aa654725b016]
reverse link org.eclipse.emf.edit.provider.ITreeItemContentProvider to org.eclipse.epf.uma.provider.PointItemProvider--><path codeLine="42" d="M1105.32,120.63 C1093.73,136.89 1081.17,154.53 1069.44,171 " fill="none" id="org.eclipse.emf.edit.provider.ITreeItemContentProvider-backto-org.eclipse.epf.uma.provider.PointItemProvider" style="stroke: #A80036; stroke-width: 1.0; stroke-dasharray: 7.0,7.0;"/><polygon fill="none" points="1099.65,116.52,1116.96,104.29,1111.06,124.64,1099.65,116.52" style="stroke: #A80036; stroke-width: 1.0;"/><!--MD5=[ec1ad22756be9c8ee3bd25b7cfa82575]
reverse link org.eclipse.emf.edit.provider.IItemLabelProvider to org.eclipse.epf.uma.provider.PointItemProvider--><path codeLine="43" d="M1275.38,106.25 C1236.85,126.02 1191.2,149.44 1149.42,170.88 " fill="none" id="org.eclipse.emf.edit.provider.IItemLabelProvider-backto-org.eclipse.epf.uma.provider.PointItemProvider" style="stroke: #A80036; stroke-width: 1.0; stroke-dasharray: 7.0,7.0;"/><polygon fill="none" points="1272.4,99.91,1293.39,97,1278.79,112.36,1272.4,99.91" style="stroke: #A80036; stroke-width: 1.0;"/><!--MD5=[a5bc5e6fe77f4daae895752a01044a53]
reverse link org.eclipse.emf.edit.provider.IItemPropertySource to org.eclipse.epf.uma.provider.PointItemProvider--><path codeLine="44" d="M1475.19,109.47 C1384.24,134.85 1274.25,165.54 1185.59,190.28 " fill="none" id="org.eclipse.emf.edit.provider.IItemPropertySource-backto-org.eclipse.epf.uma.provider.PointItemProvider" style="stroke: #A80036; stroke-width: 1.0; stroke-dasharray: 7.0,7.0;"/><polygon fill="none" points="1473.44,102.69,1494.59,104.06,1477.21,116.18,1473.44,102.69" style="stroke: #A80036; stroke-width: 1.0;"/><text fill="#888888" font-family="sans-serif" font-size="10" lengthAdjust="spacingAndGlyphs" textLength="190" x="816.5" y="325.584">UMLDoclet 2.0.12, PlantUML 1.2020.16</text><!--MD5=[bbab1176a258bab16ecc48dd927db865]
@startuml
    set namespaceSeparator none
    hide empty fields
    hide empty methods

    class "<size:14>PointItemProvider\n<size:10>org.eclipse.epf.uma.provider" as org.eclipse.epf.uma.provider.PointItemProvider [[PointItemProvider.html]] {
        +PointItemProvider(AdapterFactory)
        +getPropertyDescriptors(Object): List<IItemPropertyDescriptor>
        +getImage(Object): Object
        +getText(Object): String
        +notifyChanged(Notification): void
        +getResourceLocator(): ResourceLocator
    }

    class "<size:14>ItemProviderAdapter\n<size:10>org.eclipse.emf.edit.provider" as org.eclipse.emf.edit.provider.ItemProviderAdapter
    interface "<size:14>IEditingDomainItemProvider\n<size:10>org.eclipse.emf.edit.provider" as org.eclipse.emf.edit.provider.IEditingDomainItemProvider {
        {abstract} +getChildren(Object): Collection<?>
        {abstract} +getParent(Object): Object
        {abstract} +getNewChildDescriptors(Object, EditingDomain, Object): Collection<?>
        {abstract} +createCommand(Object, EditingDomain, Class<? extends Command>, CommandParameter): Command
    }
    interface "<size:14>IStructuredItemContentProvider\n<size:10>org.eclipse.emf.edit.provider" as org.eclipse.emf.edit.provider.IStructuredItemContentProvider {
        {abstract} +getElements(Object): Collection<?>
    }
    interface "<size:14>ITreeItemContentProvider\n<size:10>org.eclipse.emf.edit.provider" as org.eclipse.emf.edit.provider.ITreeItemContentProvider {
        {abstract} +getChildren(Object): Collection<?>
        {abstract} +hasChildren(Object): boolean
        {abstract} +getParent(Object): Object
    }
    interface "<size:14>IItemLabelProvider\n<size:10>org.eclipse.emf.edit.provider" as org.eclipse.emf.edit.provider.IItemLabelProvider {
        {abstract} +getText(Object): String
        {abstract} +getImage(Object): Object
    }
    interface "<size:14>IItemPropertySource\n<size:10>org.eclipse.emf.edit.provider" as org.eclipse.emf.edit.provider.IItemPropertySource {
        {abstract} +getPropertyDescriptors(Object): List<IItemPropertyDescriptor>
        {abstract} +getPropertyDescriptor(Object, Object): IItemPropertyDescriptor
        {abstract} +getEditableValue(Object): Object
    }

    org.eclipse.emf.edit.provider.ItemProviderAdapter <|- - org.eclipse.epf.uma.provider.PointItemProvider
    org.eclipse.emf.edit.provider.IEditingDomainItemProvider <|.. org.eclipse.epf.uma.provider.PointItemProvider
    org.eclipse.emf.edit.provider.IStructuredItemContentProvider <|.. org.eclipse.epf.uma.provider.PointItemProvider
    org.eclipse.emf.edit.provider.ITreeItemContentProvider <|.. org.eclipse.epf.uma.provider.PointItemProvider
    org.eclipse.emf.edit.provider.IItemLabelProvider <|.. org.eclipse.epf.uma.provider.PointItemProvider
    org.eclipse.emf.edit.provider.IItemPropertySource <|.. org.eclipse.epf.uma.provider.PointItemProvider

    center footer UMLDoclet 2.0.12, PlantUML 1.2020.16
@enduml

PlantUML version 1.2020.16(Sun Aug 23 22:20:43 CEST 2020)
(APACHE source distribution)
Java Runtime: Java(TM) SE Runtime Environment
JVM: Java HotSpot(TM) 64-Bit Server VM
Default Encoding: Cp1252
Language: es
Country: ES
--></g></svg>