<?xml version="1.0" encoding="UTF-8" standalone="no"?><svg xmlns="http://www.w3.org/2000/svg" xmlns:xlink="http://www.w3.org/1999/xlink" contentScriptType="application/ecmascript" contentStyleType="text/css" height="275px" preserveAspectRatio="none" style="width:393px;height:275px;" version="1.1" viewBox="0 0 393 275" width="393px" zoomAndPan="magnify"><defs><filter height="300%" id="f1hngl2djod5hq" width="300%" x="-1" y="-1"><feGaussianBlur result="blurOut" stdDeviation="2.0"/><feColorMatrix in="blurOut" result="blurOut2" type="matrix" values="0 0 0 0 0 0 0 0 0 0 0 0 0 0 0 0 0 0 .4 0"/><feOffset dx="4.0" dy="4.0" in="blurOut2" result="blurOut3"/><feBlend in="SourceGraphic" in2="blurOut3" mode="normal"/></filter></defs><g><!--MD5=[181343baf19d0d564d12b2e4071c0a28]
class org.eclipse.epf.uma.provider.PolylineItemProvider--><a href="PolylineItemProvider.html" target="_top" title="PolylineItemProvider.html" xlink:actuate="onRequest" xlink:href="PolylineItemProvider.html" xlink:show="new" xlink:title="PolylineItemProvider.html" xlink:type="simple"><rect codeLine="5" fill="#FEFECE" filter="url(#f1hngl2djod5hq)" height="131.2031" id="org.eclipse.epf.uma.provider.PolylineItemProvider" style="stroke: #A80036; stroke-width: 1.5;" width="367" x="7" y="107"/><ellipse cx="118.75" cy="127.0938" fill="#ADD1B2" rx="11" ry="11" style="stroke: #A80036; stroke-width: 1.0;"/><path d="M121.5156,122.9688 Q121.6719,122.75 121.8594,122.6406 Q122.0469,122.5313 122.2656,122.5313 Q122.6406,122.5313 122.875,122.7969 Q123.1094,123.0469 123.1094,123.6563 L123.1094,125.1094 Q123.1094,125.7188 122.875,125.9844 Q122.6406,126.25 122.2656,126.25 Q121.9219,126.25 121.7188,126.0469 Q121.5156,125.8594 121.4063,125.3438 Q121.3594,124.9844 121.1719,124.7969 Q120.8438,124.4219 120.2344,124.2031 Q119.625,123.9844 119,123.9844 Q118.2344,123.9844 117.5938,124.3125 Q116.9688,124.6406 116.4688,125.3906 Q115.9844,126.1406 115.9844,127.1719 L115.9844,128.2656 Q115.9844,129.5 116.875,130.3281 Q117.7656,131.1406 119.3594,131.1406 Q120.2969,131.1406 120.9531,130.8906 Q121.3438,130.7344 121.7656,130.2969 Q122.0313,130.0313 122.1719,129.9531 Q122.3281,129.875 122.5313,129.875 Q122.8594,129.875 123.1094,130.1406 Q123.375,130.3906 123.375,130.7344 Q123.375,131.0781 123.0313,131.4844 Q122.5313,132.0625 121.7344,132.3906 Q120.6563,132.8438 119.3594,132.8438 Q117.8438,132.8438 116.6406,132.2188 Q115.6563,131.7188 114.9688,130.6563 Q114.2813,129.5781 114.2813,128.2969 L114.2813,127.1406 Q114.2813,125.8125 114.8906,124.6719 Q115.5156,123.5156 116.6094,122.9063 Q117.7031,122.2813 118.9375,122.2813 Q119.6719,122.2813 120.3125,122.4531 Q120.9688,122.6094 121.5156,122.9688 Z "/><text fill="#000000" font-family="sans-serif" font-size="14" lengthAdjust="spacingAndGlyphs" textLength="128" x="142.75" y="126.5332">PolylineItemProvider</text><text fill="#000000" font-family="sans-serif" font-size="10" lengthAdjust="spacingAndGlyphs" textLength="135" x="139.25" y="139.9902">org.eclipse.epf.uma.provider</text><line style="stroke: #A80036; stroke-width: 1.5;" x1="8" x2="373" y1="147.1875" y2="147.1875"/><ellipse cx="18" cy="158.1875" fill="#84BE84" rx="3" ry="3" style="stroke: #038048; stroke-width: 1.0;"/><text fill="#000000" font-family="sans-serif" font-size="11" lengthAdjust="spacingAndGlyphs" textLength="179" x="27" y="162.6064">PolylineItemProvider(AdapterFactory)</text><ellipse cx="18" cy="172.0234" fill="#84BE84" rx="3" ry="3" style="stroke: #038048; stroke-width: 1.0;"/><text fill="#000000" font-family="sans-serif" font-size="11" lengthAdjust="spacingAndGlyphs" textLength="298" x="27" y="176.4424">getPropertyDescriptors(Object): List&lt;IItemPropertyDescriptor&gt;</text><ellipse cx="18" cy="185.8594" fill="#84BE84" rx="3" ry="3" style="stroke: #038048; stroke-width: 1.0;"/><text fill="#000000" font-family="sans-serif" font-size="11" lengthAdjust="spacingAndGlyphs" textLength="341" x="27" y="190.2783">getChildrenFeatures(Object): Collection&lt;? extends EStructuralFeature&gt;</text><ellipse cx="18" cy="199.6953" fill="#84BE84" rx="3" ry="3" style="stroke: #038048; stroke-width: 1.0;"/><text fill="#000000" font-family="sans-serif" font-size="11" lengthAdjust="spacingAndGlyphs" textLength="119" x="27" y="204.1143">getImage(Object): Object</text><ellipse cx="18" cy="213.5313" fill="#84BE84" rx="3" ry="3" style="stroke: #038048; stroke-width: 1.0;"/><text fill="#000000" font-family="sans-serif" font-size="11" lengthAdjust="spacingAndGlyphs" textLength="109" x="27" y="217.9502">getText(Object): String</text><ellipse cx="18" cy="227.3672" fill="#84BE84" rx="3" ry="3" style="stroke: #038048; stroke-width: 1.0;"/><text fill="#000000" font-family="sans-serif" font-size="11" lengthAdjust="spacingAndGlyphs" textLength="157" x="27" y="231.7861">notifyChanged(Notification): void</text></a><!--MD5=[b04b467f06ad7af418c9e7e3aca093c1]
class org.eclipse.epf.uma.provider.GraphicPrimitiveItemProvider--><a href="GraphicPrimitiveItemProvider.html" target="_top" title="GraphicPrimitiveItemProvider.html" xlink:actuate="onRequest" xlink:href="GraphicPrimitiveItemProvider.html" xlink:show="new" xlink:title="GraphicPrimitiveItemProvider.html" xlink:type="simple"><rect codeLine="14" fill="#FEFECE" filter="url(#f1hngl2djod5hq)" height="40.1875" id="org.eclipse.epf.uma.provider.GraphicPrimitiveItemProvider" style="stroke: #A80036; stroke-width: 1.5;" width="214" x="83.5" y="7"/><ellipse cx="98.5" cy="27.0938" fill="#ADD1B2" rx="11" ry="11" style="stroke: #A80036; stroke-width: 1.0;"/><path d="M101.2656,22.9688 Q101.4219,22.75 101.6094,22.6406 Q101.7969,22.5313 102.0156,22.5313 Q102.3906,22.5313 102.625,22.7969 Q102.8594,23.0469 102.8594,23.6563 L102.8594,25.1094 Q102.8594,25.7188 102.625,25.9844 Q102.3906,26.25 102.0156,26.25 Q101.6719,26.25 101.4688,26.0469 Q101.2656,25.8594 101.1563,25.3438 Q101.1094,24.9844 100.9219,24.7969 Q100.5938,24.4219 99.9844,24.2031 Q99.375,23.9844 98.75,23.9844 Q97.9844,23.9844 97.3438,24.3125 Q96.7188,24.6406 96.2188,25.3906 Q95.7344,26.1406 95.7344,27.1719 L95.7344,28.2656 Q95.7344,29.5 96.625,30.3281 Q97.5156,31.1406 99.1094,31.1406 Q100.0469,31.1406 100.7031,30.8906 Q101.0938,30.7344 101.5156,30.2969 Q101.7813,30.0313 101.9219,29.9531 Q102.0781,29.875 102.2813,29.875 Q102.6094,29.875 102.8594,30.1406 Q103.125,30.3906 103.125,30.7344 Q103.125,31.0781 102.7813,31.4844 Q102.2813,32.0625 101.4844,32.3906 Q100.4063,32.8438 99.1094,32.8438 Q97.5938,32.8438 96.3906,32.2188 Q95.4063,31.7188 94.7188,30.6563 Q94.0313,29.5781 94.0313,28.2969 L94.0313,27.1406 Q94.0313,25.8125 94.6406,24.6719 Q95.2656,23.5156 96.3594,22.9063 Q97.4531,22.2813 98.6875,22.2813 Q99.4219,22.2813 100.0625,22.4531 Q100.7188,22.6094 101.2656,22.9688 Z "/><text fill="#000000" font-family="sans-serif" font-size="14" lengthAdjust="spacingAndGlyphs" textLength="182" x="112.5" y="26.5332">GraphicPrimitiveItemProvider</text><text fill="#000000" font-family="sans-serif" font-size="10" lengthAdjust="spacingAndGlyphs" textLength="135" x="136" y="39.9902">org.eclipse.epf.uma.provider</text></a><!--MD5=[fc8034d0d151615eef0deeda5c2228fa]
reverse link org.eclipse.epf.uma.provider.GraphicPrimitiveItemProvider to org.eclipse.epf.uma.provider.PolylineItemProvider--><path codeLine="16" d="M190.5,67.46 C190.5,79.65 190.5,93.4 190.5,106.82 " fill="none" id="org.eclipse.epf.uma.provider.GraphicPrimitiveItemProvider-backto-org.eclipse.epf.uma.provider.PolylineItemProvider" style="stroke: #A80036; stroke-width: 1.0;"/><polygon fill="none" points="183.5,67.06,190.5,47.06,197.5,67.06,183.5,67.06" style="stroke: #A80036; stroke-width: 1.0;"/><text fill="#888888" font-family="sans-serif" font-size="10" lengthAdjust="spacingAndGlyphs" textLength="190" x="92.5" y="261.584">UMLDoclet 2.0.12, PlantUML 1.2020.16</text><!--MD5=[9f433e645dc96be49d36ad6f10c205db]
@startuml
    set namespaceSeparator none
    hide empty fields
    hide empty methods

    class "<size:14>PolylineItemProvider\n<size:10>org.eclipse.epf.uma.provider" as org.eclipse.epf.uma.provider.PolylineItemProvider [[PolylineItemProvider.html]] {
        +PolylineItemProvider(AdapterFactory)
        +getPropertyDescriptors(Object): List<IItemPropertyDescriptor>
        +getChildrenFeatures(Object): Collection<? extends EStructuralFeature>
        +getImage(Object): Object
        +getText(Object): String
        +notifyChanged(Notification): void
    }

    class "<size:14>GraphicPrimitiveItemProvider\n<size:10>org.eclipse.epf.uma.provider" as org.eclipse.epf.uma.provider.GraphicPrimitiveItemProvider [[GraphicPrimitiveItemProvider.html]]

    org.eclipse.epf.uma.provider.GraphicPrimitiveItemProvider <|- - org.eclipse.epf.uma.provider.PolylineItemProvider

    center footer UMLDoclet 2.0.12, PlantUML 1.2020.16
@enduml

PlantUML version 1.2020.16(Sun Aug 23 22:20:43 CEST 2020)
(APACHE source distribution)
Java Runtime: Java(TM) SE Runtime Environment
JVM: Java HotSpot(TM) 64-Bit Server VM
Default Encoding: Cp1252
Language: es
Country: ES
--></g></svg>