<?xml version="1.0" encoding="UTF-8" standalone="no"?><svg xmlns="http://www.w3.org/2000/svg" xmlns:xlink="http://www.w3.org/1999/xlink" contentScriptType="application/ecmascript" contentStyleType="text/css" height="275px" preserveAspectRatio="none" style="width:360px;height:275px;" version="1.1" viewBox="0 0 360 275" width="360px" zoomAndPan="magnify"><defs><filter height="300%" id="fuqm3oyufs2c3" width="300%" x="-1" y="-1"><feGaussianBlur result="blurOut" stdDeviation="2.0"/><feColorMatrix in="blurOut" result="blurOut2" type="matrix" values="0 0 0 0 0 0 0 0 0 0 0 0 0 0 0 0 0 0 .4 0"/><feOffset dx="4.0" dy="4.0" in="blurOut2" result="blurOut3"/><feBlend in="SourceGraphic" in2="blurOut3" mode="normal"/></filter></defs><g><!--MD5=[840482b53b134ad526b42a9b478e7daf]
class org.eclipse.epf.uma.provider.ProcessPlanningTemplateItemProvider--><a href="ProcessPlanningTemplateItemProvider.html" target="_top" title="ProcessPlanningTemplateItemProvider.html" xlink:actuate="onRequest" xlink:href="ProcessPlanningTemplateItemProvider.html" xlink:show="new" xlink:title="ProcessPlanningTemplateItemProvider.html" xlink:type="simple"><rect codeLine="5" fill="#FEFECE" filter="url(#fuqm3oyufs2c3)" height="131.2031" id="org.eclipse.epf.uma.provider.ProcessPlanningTemplateItemProvider" style="stroke: #A80036; stroke-width: 1.5;" width="334" x="7" y="107"/><ellipse cx="48.1" cy="127.0938" fill="#ADD1B2" rx="11" ry="11" style="stroke: #A80036; stroke-width: 1.0;"/><path d="M50.8656,122.9688 Q51.0219,122.75 51.2094,122.6406 Q51.3969,122.5313 51.6156,122.5313 Q51.9906,122.5313 52.225,122.7969 Q52.4594,123.0469 52.4594,123.6563 L52.4594,125.1094 Q52.4594,125.7188 52.225,125.9844 Q51.9906,126.25 51.6156,126.25 Q51.2719,126.25 51.0688,126.0469 Q50.8656,125.8594 50.7563,125.3438 Q50.7094,124.9844 50.5219,124.7969 Q50.1938,124.4219 49.5844,124.2031 Q48.975,123.9844 48.35,123.9844 Q47.5844,123.9844 46.9438,124.3125 Q46.3188,124.6406 45.8188,125.3906 Q45.3344,126.1406 45.3344,127.1719 L45.3344,128.2656 Q45.3344,129.5 46.225,130.3281 Q47.1156,131.1406 48.7094,131.1406 Q49.6469,131.1406 50.3031,130.8906 Q50.6938,130.7344 51.1156,130.2969 Q51.3813,130.0313 51.5219,129.9531 Q51.6781,129.875 51.8813,129.875 Q52.2094,129.875 52.4594,130.1406 Q52.725,130.3906 52.725,130.7344 Q52.725,131.0781 52.3813,131.4844 Q51.8813,132.0625 51.0844,132.3906 Q50.0063,132.8438 48.7094,132.8438 Q47.1938,132.8438 45.9906,132.2188 Q45.0063,131.7188 44.3188,130.6563 Q43.6313,129.5781 43.6313,128.2969 L43.6313,127.1406 Q43.6313,125.8125 44.2406,124.6719 Q44.8656,123.5156 45.9594,122.9063 Q47.0531,122.2813 48.2875,122.2813 Q49.0219,122.2813 49.6625,122.4531 Q50.3188,122.6094 50.8656,122.9688 Z "/><text fill="#000000" font-family="sans-serif" font-size="14" lengthAdjust="spacingAndGlyphs" textLength="244" x="67.9" y="126.5332">ProcessPlanningTemplateItemProvider</text><text fill="#000000" font-family="sans-serif" font-size="10" lengthAdjust="spacingAndGlyphs" textLength="135" x="122.4" y="139.9902">org.eclipse.epf.uma.provider</text><line style="stroke: #A80036; stroke-width: 1.5;" x1="8" x2="340" y1="147.1875" y2="147.1875"/><ellipse cx="18" cy="158.1875" fill="#84BE84" rx="3" ry="3" style="stroke: #038048; stroke-width: 1.0;"/><text fill="#000000" font-family="sans-serif" font-size="11" lengthAdjust="spacingAndGlyphs" textLength="266" x="27" y="162.6064">ProcessPlanningTemplateItemProvider(AdapterFactory)</text><ellipse cx="18" cy="172.0234" fill="#84BE84" rx="3" ry="3" style="stroke: #038048; stroke-width: 1.0;"/><text fill="#000000" font-family="sans-serif" font-size="11" lengthAdjust="spacingAndGlyphs" textLength="298" x="27" y="176.4424">getPropertyDescriptors(Object): List&lt;IItemPropertyDescriptor&gt;</text><ellipse cx="18" cy="185.8594" fill="#84BE84" rx="3" ry="3" style="stroke: #038048; stroke-width: 1.0;"/><text fill="#000000" font-family="sans-serif" font-size="11" lengthAdjust="spacingAndGlyphs" textLength="119" x="27" y="190.2783">getImage(Object): Object</text><ellipse cx="18" cy="199.6953" fill="#84BE84" rx="3" ry="3" style="stroke: #038048; stroke-width: 1.0;"/><text fill="#000000" font-family="sans-serif" font-size="11" lengthAdjust="spacingAndGlyphs" textLength="109" x="27" y="204.1143">getText(Object): String</text><ellipse cx="18" cy="213.5313" fill="#84BE84" rx="3" ry="3" style="stroke: #038048; stroke-width: 1.0;"/><text fill="#000000" font-family="sans-serif" font-size="11" lengthAdjust="spacingAndGlyphs" textLength="157" x="27" y="217.9502">notifyChanged(Notification): void</text><ellipse cx="18" cy="227.3672" fill="#84BE84" rx="3" ry="3" style="stroke: #038048; stroke-width: 1.0;"/><text fill="#000000" font-family="sans-serif" font-size="11" lengthAdjust="spacingAndGlyphs" textLength="308" x="27" y="231.7861">getCreateChildText(Object, Object, Object, Collection&lt;?&gt;): String</text></a><!--MD5=[0b153e55156c91fbe094efae5a9a224c]
class org.eclipse.epf.uma.provider.ProcessItemProvider--><a href="ProcessItemProvider.html" target="_top" title="ProcessItemProvider.html" xlink:actuate="onRequest" xlink:href="ProcessItemProvider.html" xlink:show="new" xlink:title="ProcessItemProvider.html" xlink:type="simple"><rect codeLine="14" fill="#FEFECE" filter="url(#fuqm3oyufs2c3)" height="40.1875" id="org.eclipse.epf.uma.provider.ProcessItemProvider" style="stroke: #A80036; stroke-width: 1.5;" width="167" x="90.5" y="7"/><ellipse cx="105.5" cy="27.0938" fill="#ADD1B2" rx="11" ry="11" style="stroke: #A80036; stroke-width: 1.0;"/><path d="M108.2656,22.9688 Q108.4219,22.75 108.6094,22.6406 Q108.7969,22.5313 109.0156,22.5313 Q109.3906,22.5313 109.625,22.7969 Q109.8594,23.0469 109.8594,23.6563 L109.8594,25.1094 Q109.8594,25.7188 109.625,25.9844 Q109.3906,26.25 109.0156,26.25 Q108.6719,26.25 108.4688,26.0469 Q108.2656,25.8594 108.1563,25.3438 Q108.1094,24.9844 107.9219,24.7969 Q107.5938,24.4219 106.9844,24.2031 Q106.375,23.9844 105.75,23.9844 Q104.9844,23.9844 104.3438,24.3125 Q103.7188,24.6406 103.2188,25.3906 Q102.7344,26.1406 102.7344,27.1719 L102.7344,28.2656 Q102.7344,29.5 103.625,30.3281 Q104.5156,31.1406 106.1094,31.1406 Q107.0469,31.1406 107.7031,30.8906 Q108.0938,30.7344 108.5156,30.2969 Q108.7813,30.0313 108.9219,29.9531 Q109.0781,29.875 109.2813,29.875 Q109.6094,29.875 109.8594,30.1406 Q110.125,30.3906 110.125,30.7344 Q110.125,31.0781 109.7813,31.4844 Q109.2813,32.0625 108.4844,32.3906 Q107.4063,32.8438 106.1094,32.8438 Q104.5938,32.8438 103.3906,32.2188 Q102.4063,31.7188 101.7188,30.6563 Q101.0313,29.5781 101.0313,28.2969 L101.0313,27.1406 Q101.0313,25.8125 101.6406,24.6719 Q102.2656,23.5156 103.3594,22.9063 Q104.4531,22.2813 105.6875,22.2813 Q106.4219,22.2813 107.0625,22.4531 Q107.7188,22.6094 108.2656,22.9688 Z "/><text fill="#000000" font-family="sans-serif" font-size="14" lengthAdjust="spacingAndGlyphs" textLength="130" x="122" y="26.5332">ProcessItemProvider</text><text fill="#000000" font-family="sans-serif" font-size="10" lengthAdjust="spacingAndGlyphs" textLength="135" x="119.5" y="39.9902">org.eclipse.epf.uma.provider</text></a><!--MD5=[1bfa3ba5310da897553e7c236fad2559]
reverse link org.eclipse.epf.uma.provider.ProcessItemProvider to org.eclipse.epf.uma.provider.ProcessPlanningTemplateItemProvider--><path codeLine="16" d="M174,67.46 C174,79.65 174,93.4 174,106.82 " fill="none" id="org.eclipse.epf.uma.provider.ProcessItemProvider-backto-org.eclipse.epf.uma.provider.ProcessPlanningTemplateItemProvider" style="stroke: #A80036; stroke-width: 1.0;"/><polygon fill="none" points="167,67.06,174,47.06,181,67.06,167,67.06" style="stroke: #A80036; stroke-width: 1.0;"/><text fill="#888888" font-family="sans-serif" font-size="10" lengthAdjust="spacingAndGlyphs" textLength="190" x="76" y="261.584">UMLDoclet 2.0.12, PlantUML 1.2020.16</text><!--MD5=[a58241a2105ca16d842aefc4e64b7d4f]
@startuml
    set namespaceSeparator none
    hide empty fields
    hide empty methods

    class "<size:14>ProcessPlanningTemplateItemProvider\n<size:10>org.eclipse.epf.uma.provider" as org.eclipse.epf.uma.provider.ProcessPlanningTemplateItemProvider [[ProcessPlanningTemplateItemProvider.html]] {
        +ProcessPlanningTemplateItemProvider(AdapterFactory)
        +getPropertyDescriptors(Object): List<IItemPropertyDescriptor>
        +getImage(Object): Object
        +getText(Object): String
        +notifyChanged(Notification): void
        +getCreateChildText(Object, Object, Object, Collection<?>): String
    }

    class "<size:14>ProcessItemProvider\n<size:10>org.eclipse.epf.uma.provider" as org.eclipse.epf.uma.provider.ProcessItemProvider [[ProcessItemProvider.html]]

    org.eclipse.epf.uma.provider.ProcessItemProvider <|- - org.eclipse.epf.uma.provider.ProcessPlanningTemplateItemProvider

    center footer UMLDoclet 2.0.12, PlantUML 1.2020.16
@enduml

PlantUML version 1.2020.16(Sun Aug 23 22:20:43 CEST 2020)
(APACHE source distribution)
Java Runtime: Java(TM) SE Runtime Environment
JVM: Java HotSpot(TM) 64-Bit Server VM
Default Encoding: Cp1252
Language: es
Country: ES
--></g></svg>