<?xml version="1.0" encoding="UTF-8" standalone="no"?><svg xmlns="http://www.w3.org/2000/svg" xmlns:xlink="http://www.w3.org/1999/xlink" contentScriptType="application/ecmascript" contentStyleType="text/css" height="247px" preserveAspectRatio="none" style="width:350px;height:247px;" version="1.1" viewBox="0 0 350 247" width="350px" zoomAndPan="magnify"><defs><filter height="300%" id="feqoifkd863ap" width="300%" x="-1" y="-1"><feGaussianBlur result="blurOut" stdDeviation="2.0"/><feColorMatrix in="blurOut" result="blurOut2" type="matrix" values="0 0 0 0 0 0 0 0 0 0 0 0 0 0 0 0 0 0 .4 0"/><feOffset dx="4.0" dy="4.0" in="blurOut2" result="blurOut3"/><feBlend in="SourceGraphic" in2="blurOut3" mode="normal"/></filter></defs><g><!--MD5=[8490f5ce6fa0b34cfe1ade481282368e]
class org.eclipse.epf.uma.provider.ProcessElementItemProvider--><a href="ProcessElementItemProvider.html" target="_top" title="ProcessElementItemProvider.html" xlink:actuate="onRequest" xlink:href="ProcessElementItemProvider.html" xlink:show="new" xlink:title="ProcessElementItemProvider.html" xlink:type="simple"><rect codeLine="5" fill="#FEFECE" filter="url(#feqoifkd863ap)" height="103.5313" id="org.eclipse.epf.uma.provider.ProcessElementItemProvider" style="stroke: #A80036; stroke-width: 1.5;" width="324" x="7" y="107"/><ellipse cx="74.25" cy="127.0938" fill="#ADD1B2" rx="11" ry="11" style="stroke: #A80036; stroke-width: 1.0;"/><path d="M77.0156,122.9688 Q77.1719,122.75 77.3594,122.6406 Q77.5469,122.5313 77.7656,122.5313 Q78.1406,122.5313 78.375,122.7969 Q78.6094,123.0469 78.6094,123.6563 L78.6094,125.1094 Q78.6094,125.7188 78.375,125.9844 Q78.1406,126.25 77.7656,126.25 Q77.4219,126.25 77.2188,126.0469 Q77.0156,125.8594 76.9063,125.3438 Q76.8594,124.9844 76.6719,124.7969 Q76.3438,124.4219 75.7344,124.2031 Q75.125,123.9844 74.5,123.9844 Q73.7344,123.9844 73.0938,124.3125 Q72.4688,124.6406 71.9688,125.3906 Q71.4844,126.1406 71.4844,127.1719 L71.4844,128.2656 Q71.4844,129.5 72.375,130.3281 Q73.2656,131.1406 74.8594,131.1406 Q75.7969,131.1406 76.4531,130.8906 Q76.8438,130.7344 77.2656,130.2969 Q77.5313,130.0313 77.6719,129.9531 Q77.8281,129.875 78.0313,129.875 Q78.3594,129.875 78.6094,130.1406 Q78.875,130.3906 78.875,130.7344 Q78.875,131.0781 78.5313,131.4844 Q78.0313,132.0625 77.2344,132.3906 Q76.1563,132.8438 74.8594,132.8438 Q73.3438,132.8438 72.1406,132.2188 Q71.1563,131.7188 70.4688,130.6563 Q69.7813,129.5781 69.7813,128.2969 L69.7813,127.1406 Q69.7813,125.8125 70.3906,124.6719 Q71.0156,123.5156 72.1094,122.9063 Q73.2031,122.2813 74.4375,122.2813 Q75.1719,122.2813 75.8125,122.4531 Q76.4688,122.6094 77.0156,122.9688 Z "/><text fill="#000000" font-family="sans-serif" font-size="14" lengthAdjust="spacingAndGlyphs" textLength="181" x="94.75" y="126.5332">ProcessElementItemProvider</text><text fill="#000000" font-family="sans-serif" font-size="10" lengthAdjust="spacingAndGlyphs" textLength="135" x="117.75" y="139.9902">org.eclipse.epf.uma.provider</text><line style="stroke: #A80036; stroke-width: 1.5;" x1="8" x2="330" y1="147.1875" y2="147.1875"/><ellipse cx="18" cy="158.1875" fill="#84BE84" rx="3" ry="3" style="stroke: #038048; stroke-width: 1.0;"/><text fill="#000000" font-family="sans-serif" font-size="11" lengthAdjust="spacingAndGlyphs" textLength="220" x="27" y="162.6064">ProcessElementItemProvider(AdapterFactory)</text><ellipse cx="18" cy="172.0234" fill="#84BE84" rx="3" ry="3" style="stroke: #038048; stroke-width: 1.0;"/><text fill="#000000" font-family="sans-serif" font-size="11" lengthAdjust="spacingAndGlyphs" textLength="298" x="27" y="176.4424">getPropertyDescriptors(Object): List&lt;IItemPropertyDescriptor&gt;</text><ellipse cx="18" cy="185.8594" fill="#84BE84" rx="3" ry="3" style="stroke: #038048; stroke-width: 1.0;"/><text fill="#000000" font-family="sans-serif" font-size="11" lengthAdjust="spacingAndGlyphs" textLength="109" x="27" y="190.2783">getText(Object): String</text><ellipse cx="18" cy="199.6953" fill="#84BE84" rx="3" ry="3" style="stroke: #038048; stroke-width: 1.0;"/><text fill="#000000" font-family="sans-serif" font-size="11" lengthAdjust="spacingAndGlyphs" textLength="157" x="27" y="204.1143">notifyChanged(Notification): void</text></a><!--MD5=[2ff0eb74af4ff762d18efeaf98cca433]
class org.eclipse.epf.uma.provider.DescribableElementItemProvider--><a href="DescribableElementItemProvider.html" target="_top" title="DescribableElementItemProvider.html" xlink:actuate="onRequest" xlink:href="DescribableElementItemProvider.html" xlink:show="new" xlink:title="DescribableElementItemProvider.html" xlink:type="simple"><rect codeLine="12" fill="#FEFECE" filter="url(#feqoifkd863ap)" height="40.1875" id="org.eclipse.epf.uma.provider.DescribableElementItemProvider" style="stroke: #A80036; stroke-width: 1.5;" width="237" x="50.5" y="7"/><ellipse cx="65.5" cy="27.0938" fill="#ADD1B2" rx="11" ry="11" style="stroke: #A80036; stroke-width: 1.0;"/><path d="M68.2656,22.9688 Q68.4219,22.75 68.6094,22.6406 Q68.7969,22.5313 69.0156,22.5313 Q69.3906,22.5313 69.625,22.7969 Q69.8594,23.0469 69.8594,23.6563 L69.8594,25.1094 Q69.8594,25.7188 69.625,25.9844 Q69.3906,26.25 69.0156,26.25 Q68.6719,26.25 68.4688,26.0469 Q68.2656,25.8594 68.1563,25.3438 Q68.1094,24.9844 67.9219,24.7969 Q67.5938,24.4219 66.9844,24.2031 Q66.375,23.9844 65.75,23.9844 Q64.9844,23.9844 64.3438,24.3125 Q63.7188,24.6406 63.2188,25.3906 Q62.7344,26.1406 62.7344,27.1719 L62.7344,28.2656 Q62.7344,29.5 63.625,30.3281 Q64.5156,31.1406 66.1094,31.1406 Q67.0469,31.1406 67.7031,30.8906 Q68.0938,30.7344 68.5156,30.2969 Q68.7813,30.0313 68.9219,29.9531 Q69.0781,29.875 69.2813,29.875 Q69.6094,29.875 69.8594,30.1406 Q70.125,30.3906 70.125,30.7344 Q70.125,31.0781 69.7813,31.4844 Q69.2813,32.0625 68.4844,32.3906 Q67.4063,32.8438 66.1094,32.8438 Q64.5938,32.8438 63.3906,32.2188 Q62.4063,31.7188 61.7188,30.6563 Q61.0313,29.5781 61.0313,28.2969 L61.0313,27.1406 Q61.0313,25.8125 61.6406,24.6719 Q62.2656,23.5156 63.3594,22.9063 Q64.4531,22.2813 65.6875,22.2813 Q66.4219,22.2813 67.0625,22.4531 Q67.7188,22.6094 68.2656,22.9688 Z "/><text fill="#000000" font-family="sans-serif" font-size="14" lengthAdjust="spacingAndGlyphs" textLength="205" x="79.5" y="26.5332">DescribableElementItemProvider</text><text fill="#000000" font-family="sans-serif" font-size="10" lengthAdjust="spacingAndGlyphs" textLength="135" x="114.5" y="39.9902">org.eclipse.epf.uma.provider</text></a><!--MD5=[c981ed60f5c4e3b214174cfca8c33de1]
reverse link org.eclipse.epf.uma.provider.DescribableElementItemProvider to org.eclipse.epf.uma.provider.ProcessElementItemProvider--><path codeLine="14" d="M169,67.49 C169,79.93 169,93.86 169,106.99 " fill="none" id="org.eclipse.epf.uma.provider.DescribableElementItemProvider-backto-org.eclipse.epf.uma.provider.ProcessElementItemProvider" style="stroke: #A80036; stroke-width: 1.0;"/><polygon fill="none" points="162,67.18,169,47.18,176,67.18,162,67.18" style="stroke: #A80036; stroke-width: 1.0;"/><text fill="#888888" font-family="sans-serif" font-size="10" lengthAdjust="spacingAndGlyphs" textLength="190" x="71" y="233.9121">UMLDoclet 2.0.12, PlantUML 1.2020.16</text><!--MD5=[9c0368fc4ef51a5ac1961ccb20561f31]
@startuml
    set namespaceSeparator none
    hide empty fields
    hide empty methods

    class "<size:14>ProcessElementItemProvider\n<size:10>org.eclipse.epf.uma.provider" as org.eclipse.epf.uma.provider.ProcessElementItemProvider [[ProcessElementItemProvider.html]] {
        +ProcessElementItemProvider(AdapterFactory)
        +getPropertyDescriptors(Object): List<IItemPropertyDescriptor>
        +getText(Object): String
        +notifyChanged(Notification): void
    }

    class "<size:14>DescribableElementItemProvider\n<size:10>org.eclipse.epf.uma.provider" as org.eclipse.epf.uma.provider.DescribableElementItemProvider [[DescribableElementItemProvider.html]]

    org.eclipse.epf.uma.provider.DescribableElementItemProvider <|- - org.eclipse.epf.uma.provider.ProcessElementItemProvider

    center footer UMLDoclet 2.0.12, PlantUML 1.2020.16
@enduml

PlantUML version 1.2020.16(Sun Aug 23 22:20:43 CEST 2020)
(APACHE source distribution)
Java Runtime: Java(TM) SE Runtime Environment
JVM: Java HotSpot(TM) 64-Bit Server VM
Default Encoding: Cp1252
Language: es
Country: ES
--></g></svg>