<?xml version="1.0" encoding="UTF-8" standalone="no"?><svg xmlns="http://www.w3.org/2000/svg" xmlns:xlink="http://www.w3.org/1999/xlink" contentScriptType="application/ecmascript" contentStyleType="text/css" height="261px" preserveAspectRatio="none" style="width:350px;height:261px;" version="1.1" viewBox="0 0 350 261" width="350px" zoomAndPan="magnify"><defs><filter height="300%" id="f7fyr51sp1ykl" width="300%" x="-1" y="-1"><feGaussianBlur result="blurOut" stdDeviation="2.0"/><feColorMatrix in="blurOut" result="blurOut2" type="matrix" values="0 0 0 0 0 0 0 0 0 0 0 0 0 0 0 0 0 0 .4 0"/><feOffset dx="4.0" dy="4.0" in="blurOut2" result="blurOut3"/><feBlend in="SourceGraphic" in2="blurOut3" mode="normal"/></filter></defs><g><!--MD5=[b994b91fe6a3ada1d57fd2559e9341fa]
class org.eclipse.epf.uma.provider.ProcessComponentDescriptorItemProvider--><a href="ProcessComponentDescriptorItemProvider.html" target="_top" title="ProcessComponentDescriptorItemProvider.html" xlink:actuate="onRequest" xlink:href="ProcessComponentDescriptorItemProvider.html" xlink:show="new" xlink:title="ProcessComponentDescriptorItemProvider.html" xlink:type="simple"><rect codeLine="5" fill="#FEFECE" filter="url(#f7fyr51sp1ykl)" height="117.3672" id="org.eclipse.epf.uma.provider.ProcessComponentDescriptorItemProvider" style="stroke: #A80036; stroke-width: 1.5;" width="324" x="7" y="107"/><ellipse cx="32.8" cy="127.0938" fill="#ADD1B2" rx="11" ry="11" style="stroke: #A80036; stroke-width: 1.0;"/><path d="M35.5656,122.9688 Q35.7219,122.75 35.9094,122.6406 Q36.0969,122.5313 36.3156,122.5313 Q36.6906,122.5313 36.925,122.7969 Q37.1594,123.0469 37.1594,123.6563 L37.1594,125.1094 Q37.1594,125.7188 36.925,125.9844 Q36.6906,126.25 36.3156,126.25 Q35.9719,126.25 35.7688,126.0469 Q35.5656,125.8594 35.4563,125.3438 Q35.4094,124.9844 35.2219,124.7969 Q34.8938,124.4219 34.2844,124.2031 Q33.675,123.9844 33.05,123.9844 Q32.2844,123.9844 31.6437,124.3125 Q31.0187,124.6406 30.5187,125.3906 Q30.0344,126.1406 30.0344,127.1719 L30.0344,128.2656 Q30.0344,129.5 30.925,130.3281 Q31.8156,131.1406 33.4094,131.1406 Q34.3469,131.1406 35.0031,130.8906 Q35.3938,130.7344 35.8156,130.2969 Q36.0813,130.0313 36.2219,129.9531 Q36.3781,129.875 36.5813,129.875 Q36.9094,129.875 37.1594,130.1406 Q37.425,130.3906 37.425,130.7344 Q37.425,131.0781 37.0813,131.4844 Q36.5813,132.0625 35.7844,132.3906 Q34.7063,132.8438 33.4094,132.8438 Q31.8937,132.8438 30.6906,132.2188 Q29.7062,131.7188 29.0187,130.6563 Q28.3312,129.5781 28.3312,128.2969 L28.3312,127.1406 Q28.3312,125.8125 28.9406,124.6719 Q29.5656,123.5156 30.6594,122.9063 Q31.7531,122.2813 32.9875,122.2813 Q33.7219,122.2813 34.3625,122.4531 Q35.0188,122.6094 35.5656,122.9688 Z "/><text fill="#000000" font-family="sans-serif" font-size="14" lengthAdjust="spacingAndGlyphs" textLength="268" x="49.2" y="126.5332">ProcessComponentDescriptorItemProvider</text><text fill="#000000" font-family="sans-serif" font-size="10" lengthAdjust="spacingAndGlyphs" textLength="135" x="115.7" y="139.9902">org.eclipse.epf.uma.provider</text><line style="stroke: #A80036; stroke-width: 1.5;" x1="8" x2="330" y1="147.1875" y2="147.1875"/><ellipse cx="18" cy="158.1875" fill="#84BE84" rx="3" ry="3" style="stroke: #038048; stroke-width: 1.0;"/><text fill="#000000" font-family="sans-serif" font-size="11" lengthAdjust="spacingAndGlyphs" textLength="287" x="27" y="162.6064">ProcessComponentDescriptorItemProvider(AdapterFactory)</text><ellipse cx="18" cy="172.0234" fill="#84BE84" rx="3" ry="3" style="stroke: #038048; stroke-width: 1.0;"/><text fill="#000000" font-family="sans-serif" font-size="11" lengthAdjust="spacingAndGlyphs" textLength="298" x="27" y="176.4424">getPropertyDescriptors(Object): List&lt;IItemPropertyDescriptor&gt;</text><ellipse cx="18" cy="185.8594" fill="#84BE84" rx="3" ry="3" style="stroke: #038048; stroke-width: 1.0;"/><text fill="#000000" font-family="sans-serif" font-size="11" lengthAdjust="spacingAndGlyphs" textLength="119" x="27" y="190.2783">getImage(Object): Object</text><ellipse cx="18" cy="199.6953" fill="#84BE84" rx="3" ry="3" style="stroke: #038048; stroke-width: 1.0;"/><text fill="#000000" font-family="sans-serif" font-size="11" lengthAdjust="spacingAndGlyphs" textLength="109" x="27" y="204.1143">getText(Object): String</text><ellipse cx="18" cy="213.5313" fill="#84BE84" rx="3" ry="3" style="stroke: #038048; stroke-width: 1.0;"/><text fill="#000000" font-family="sans-serif" font-size="11" lengthAdjust="spacingAndGlyphs" textLength="157" x="27" y="217.9502">notifyChanged(Notification): void</text></a><!--MD5=[426a62f909488c300da243a010d35ec2]
class org.eclipse.epf.uma.provider.DescriptorItemProvider--><a href="DescriptorItemProvider.html" target="_top" title="DescriptorItemProvider.html" xlink:actuate="onRequest" xlink:href="DescriptorItemProvider.html" xlink:show="new" xlink:title="DescriptorItemProvider.html" xlink:type="simple"><rect codeLine="13" fill="#FEFECE" filter="url(#f7fyr51sp1ykl)" height="40.1875" id="org.eclipse.epf.uma.provider.DescriptorItemProvider" style="stroke: #A80036; stroke-width: 1.5;" width="176" x="81" y="7"/><ellipse cx="96" cy="27.0938" fill="#ADD1B2" rx="11" ry="11" style="stroke: #A80036; stroke-width: 1.0;"/><path d="M98.7656,22.9688 Q98.9219,22.75 99.1094,22.6406 Q99.2969,22.5313 99.5156,22.5313 Q99.8906,22.5313 100.125,22.7969 Q100.3594,23.0469 100.3594,23.6563 L100.3594,25.1094 Q100.3594,25.7188 100.125,25.9844 Q99.8906,26.25 99.5156,26.25 Q99.1719,26.25 98.9688,26.0469 Q98.7656,25.8594 98.6563,25.3438 Q98.6094,24.9844 98.4219,24.7969 Q98.0938,24.4219 97.4844,24.2031 Q96.875,23.9844 96.25,23.9844 Q95.4844,23.9844 94.8438,24.3125 Q94.2188,24.6406 93.7188,25.3906 Q93.2344,26.1406 93.2344,27.1719 L93.2344,28.2656 Q93.2344,29.5 94.125,30.3281 Q95.0156,31.1406 96.6094,31.1406 Q97.5469,31.1406 98.2031,30.8906 Q98.5938,30.7344 99.0156,30.2969 Q99.2813,30.0313 99.4219,29.9531 Q99.5781,29.875 99.7813,29.875 Q100.1094,29.875 100.3594,30.1406 Q100.625,30.3906 100.625,30.7344 Q100.625,31.0781 100.2813,31.4844 Q99.7813,32.0625 98.9844,32.3906 Q97.9063,32.8438 96.6094,32.8438 Q95.0938,32.8438 93.8906,32.2188 Q92.9063,31.7188 92.2188,30.6563 Q91.5313,29.5781 91.5313,28.2969 L91.5313,27.1406 Q91.5313,25.8125 92.1406,24.6719 Q92.7656,23.5156 93.8594,22.9063 Q94.9531,22.2813 96.1875,22.2813 Q96.9219,22.2813 97.5625,22.4531 Q98.2188,22.6094 98.7656,22.9688 Z "/><text fill="#000000" font-family="sans-serif" font-size="14" lengthAdjust="spacingAndGlyphs" textLength="144" x="110" y="26.5332">DescriptorItemProvider</text><text fill="#000000" font-family="sans-serif" font-size="10" lengthAdjust="spacingAndGlyphs" textLength="135" x="114.5" y="39.9902">org.eclipse.epf.uma.provider</text></a><!--MD5=[a72c0954e2d9e07d49611ee311dc0263]
reverse link org.eclipse.epf.uma.provider.DescriptorItemProvider to org.eclipse.epf.uma.provider.ProcessComponentDescriptorItemProvider--><path codeLine="15" d="M169,67.38 C169,79.73 169,93.63 169,106.97 " fill="none" id="org.eclipse.epf.uma.provider.DescriptorItemProvider-backto-org.eclipse.epf.uma.provider.ProcessComponentDescriptorItemProvider" style="stroke: #A80036; stroke-width: 1.0;"/><polygon fill="none" points="162,67.27,169,47.27,176,67.27,162,67.27" style="stroke: #A80036; stroke-width: 1.0;"/><text fill="#888888" font-family="sans-serif" font-size="10" lengthAdjust="spacingAndGlyphs" textLength="190" x="71" y="247.748">UMLDoclet 2.0.12, PlantUML 1.2020.16</text><!--MD5=[3348bb5c9100b62d49eaa1533636825b]
@startuml
    set namespaceSeparator none
    hide empty fields
    hide empty methods

    class "<size:14>ProcessComponentDescriptorItemProvider\n<size:10>org.eclipse.epf.uma.provider" as org.eclipse.epf.uma.provider.ProcessComponentDescriptorItemProvider [[ProcessComponentDescriptorItemProvider.html]] {
        +ProcessComponentDescriptorItemProvider(AdapterFactory)
        +getPropertyDescriptors(Object): List<IItemPropertyDescriptor>
        +getImage(Object): Object
        +getText(Object): String
        +notifyChanged(Notification): void
    }

    class "<size:14>DescriptorItemProvider\n<size:10>org.eclipse.epf.uma.provider" as org.eclipse.epf.uma.provider.DescriptorItemProvider [[DescriptorItemProvider.html]]

    org.eclipse.epf.uma.provider.DescriptorItemProvider <|- - org.eclipse.epf.uma.provider.ProcessComponentDescriptorItemProvider

    center footer UMLDoclet 2.0.12, PlantUML 1.2020.16
@enduml

PlantUML version 1.2020.16(Sun Aug 23 22:20:43 CEST 2020)
(APACHE source distribution)
Java Runtime: Java(TM) SE Runtime Environment
JVM: Java HotSpot(TM) 64-Bit Server VM
Default Encoding: Cp1252
Language: es
Country: ES
--></g></svg>