<?xml version="1.0" encoding="UTF-8" standalone="no"?><svg xmlns="http://www.w3.org/2000/svg" xmlns:xlink="http://www.w3.org/1999/xlink" contentScriptType="application/ecmascript" contentStyleType="text/css" height="275px" preserveAspectRatio="none" style="width:393px;height:275px;" version="1.1" viewBox="0 0 393 275" width="393px" zoomAndPan="magnify"><defs><filter height="300%" id="ft27v5vulwp15" width="300%" x="-1" y="-1"><feGaussianBlur result="blurOut" stdDeviation="2.0"/><feColorMatrix in="blurOut" result="blurOut2" type="matrix" values="0 0 0 0 0 0 0 0 0 0 0 0 0 0 0 0 0 0 .4 0"/><feOffset dx="4.0" dy="4.0" in="blurOut2" result="blurOut3"/><feBlend in="SourceGraphic" in2="blurOut3" mode="normal"/></filter></defs><g><!--MD5=[53184dc1f467f581b7c005d266153083]
class org.eclipse.epf.uma.provider.ProcessComponentInterfaceItemProvider--><a href="ProcessComponentInterfaceItemProvider.html" target="_top" title="ProcessComponentInterfaceItemProvider.html" xlink:actuate="onRequest" xlink:href="ProcessComponentInterfaceItemProvider.html" xlink:show="new" xlink:title="ProcessComponentInterfaceItemProvider.html" xlink:type="simple"><rect codeLine="5" fill="#FEFECE" filter="url(#ft27v5vulwp15)" height="131.2031" id="org.eclipse.epf.uma.provider.ProcessComponentInterfaceItemProvider" style="stroke: #A80036; stroke-width: 1.5;" width="367" x="7" y="107"/><ellipse cx="57.25" cy="127.0938" fill="#ADD1B2" rx="11" ry="11" style="stroke: #A80036; stroke-width: 1.0;"/><path d="M60.0156,122.9688 Q60.1719,122.75 60.3594,122.6406 Q60.5469,122.5313 60.7656,122.5313 Q61.1406,122.5313 61.375,122.7969 Q61.6094,123.0469 61.6094,123.6563 L61.6094,125.1094 Q61.6094,125.7188 61.375,125.9844 Q61.1406,126.25 60.7656,126.25 Q60.4219,126.25 60.2188,126.0469 Q60.0156,125.8594 59.9063,125.3438 Q59.8594,124.9844 59.6719,124.7969 Q59.3438,124.4219 58.7344,124.2031 Q58.125,123.9844 57.5,123.9844 Q56.7344,123.9844 56.0938,124.3125 Q55.4688,124.6406 54.9688,125.3906 Q54.4844,126.1406 54.4844,127.1719 L54.4844,128.2656 Q54.4844,129.5 55.375,130.3281 Q56.2656,131.1406 57.8594,131.1406 Q58.7969,131.1406 59.4531,130.8906 Q59.8438,130.7344 60.2656,130.2969 Q60.5313,130.0313 60.6719,129.9531 Q60.8281,129.875 61.0313,129.875 Q61.3594,129.875 61.6094,130.1406 Q61.875,130.3906 61.875,130.7344 Q61.875,131.0781 61.5313,131.4844 Q61.0313,132.0625 60.2344,132.3906 Q59.1563,132.8438 57.8594,132.8438 Q56.3438,132.8438 55.1406,132.2188 Q54.1563,131.7188 53.4688,130.6563 Q52.7813,129.5781 52.7813,128.2969 L52.7813,127.1406 Q52.7813,125.8125 53.3906,124.6719 Q54.0156,123.5156 55.1094,122.9063 Q56.2031,122.2813 57.4375,122.2813 Q58.1719,122.2813 58.8125,122.4531 Q59.4688,122.6094 60.0156,122.9688 Z "/><text fill="#000000" font-family="sans-serif" font-size="14" lengthAdjust="spacingAndGlyphs" textLength="258" x="77.75" y="126.5332">ProcessComponentInterfaceItemProvider</text><text fill="#000000" font-family="sans-serif" font-size="10" lengthAdjust="spacingAndGlyphs" textLength="135" x="139.25" y="139.9902">org.eclipse.epf.uma.provider</text><line style="stroke: #A80036; stroke-width: 1.5;" x1="8" x2="373" y1="147.1875" y2="147.1875"/><ellipse cx="18" cy="158.1875" fill="#84BE84" rx="3" ry="3" style="stroke: #038048; stroke-width: 1.0;"/><text fill="#000000" font-family="sans-serif" font-size="11" lengthAdjust="spacingAndGlyphs" textLength="280" x="27" y="162.6064">ProcessComponentInterfaceItemProvider(AdapterFactory)</text><ellipse cx="18" cy="172.0234" fill="#84BE84" rx="3" ry="3" style="stroke: #038048; stroke-width: 1.0;"/><text fill="#000000" font-family="sans-serif" font-size="11" lengthAdjust="spacingAndGlyphs" textLength="298" x="27" y="176.4424">getPropertyDescriptors(Object): List&lt;IItemPropertyDescriptor&gt;</text><ellipse cx="18" cy="185.8594" fill="#84BE84" rx="3" ry="3" style="stroke: #038048; stroke-width: 1.0;"/><text fill="#000000" font-family="sans-serif" font-size="11" lengthAdjust="spacingAndGlyphs" textLength="341" x="27" y="190.2783">getChildrenFeatures(Object): Collection&lt;? extends EStructuralFeature&gt;</text><ellipse cx="18" cy="199.6953" fill="#84BE84" rx="3" ry="3" style="stroke: #038048; stroke-width: 1.0;"/><text fill="#000000" font-family="sans-serif" font-size="11" lengthAdjust="spacingAndGlyphs" textLength="119" x="27" y="204.1143">getImage(Object): Object</text><ellipse cx="18" cy="213.5313" fill="#84BE84" rx="3" ry="3" style="stroke: #038048; stroke-width: 1.0;"/><text fill="#000000" font-family="sans-serif" font-size="11" lengthAdjust="spacingAndGlyphs" textLength="109" x="27" y="217.9502">getText(Object): String</text><ellipse cx="18" cy="227.3672" fill="#84BE84" rx="3" ry="3" style="stroke: #038048; stroke-width: 1.0;"/><text fill="#000000" font-family="sans-serif" font-size="11" lengthAdjust="spacingAndGlyphs" textLength="157" x="27" y="231.7861">notifyChanged(Notification): void</text></a><!--MD5=[4d733c9b63805ad9f8a76e566aef6752]
class org.eclipse.epf.uma.provider.BreakdownElementItemProvider--><a href="BreakdownElementItemProvider.html" target="_top" title="BreakdownElementItemProvider.html" xlink:actuate="onRequest" xlink:href="BreakdownElementItemProvider.html" xlink:show="new" xlink:title="BreakdownElementItemProvider.html" xlink:type="simple"><rect codeLine="14" fill="#FEFECE" filter="url(#ft27v5vulwp15)" height="40.1875" id="org.eclipse.epf.uma.provider.BreakdownElementItemProvider" style="stroke: #A80036; stroke-width: 1.5;" width="232" x="74.5" y="7"/><ellipse cx="89.5" cy="27.0938" fill="#ADD1B2" rx="11" ry="11" style="stroke: #A80036; stroke-width: 1.0;"/><path d="M92.2656,22.9688 Q92.4219,22.75 92.6094,22.6406 Q92.7969,22.5313 93.0156,22.5313 Q93.3906,22.5313 93.625,22.7969 Q93.8594,23.0469 93.8594,23.6563 L93.8594,25.1094 Q93.8594,25.7188 93.625,25.9844 Q93.3906,26.25 93.0156,26.25 Q92.6719,26.25 92.4688,26.0469 Q92.2656,25.8594 92.1563,25.3438 Q92.1094,24.9844 91.9219,24.7969 Q91.5938,24.4219 90.9844,24.2031 Q90.375,23.9844 89.75,23.9844 Q88.9844,23.9844 88.3438,24.3125 Q87.7188,24.6406 87.2188,25.3906 Q86.7344,26.1406 86.7344,27.1719 L86.7344,28.2656 Q86.7344,29.5 87.625,30.3281 Q88.5156,31.1406 90.1094,31.1406 Q91.0469,31.1406 91.7031,30.8906 Q92.0938,30.7344 92.5156,30.2969 Q92.7813,30.0313 92.9219,29.9531 Q93.0781,29.875 93.2813,29.875 Q93.6094,29.875 93.8594,30.1406 Q94.125,30.3906 94.125,30.7344 Q94.125,31.0781 93.7813,31.4844 Q93.2813,32.0625 92.4844,32.3906 Q91.4063,32.8438 90.1094,32.8438 Q88.5938,32.8438 87.3906,32.2188 Q86.4063,31.7188 85.7188,30.6563 Q85.0313,29.5781 85.0313,28.2969 L85.0313,27.1406 Q85.0313,25.8125 85.6406,24.6719 Q86.2656,23.5156 87.3594,22.9063 Q88.4531,22.2813 89.6875,22.2813 Q90.4219,22.2813 91.0625,22.4531 Q91.7188,22.6094 92.2656,22.9688 Z "/><text fill="#000000" font-family="sans-serif" font-size="14" lengthAdjust="spacingAndGlyphs" textLength="200" x="103.5" y="26.5332">BreakdownElementItemProvider</text><text fill="#000000" font-family="sans-serif" font-size="10" lengthAdjust="spacingAndGlyphs" textLength="135" x="136" y="39.9902">org.eclipse.epf.uma.provider</text></a><!--MD5=[c85f24b2218aa955eced2c90f19c6fb6]
reverse link org.eclipse.epf.uma.provider.BreakdownElementItemProvider to org.eclipse.epf.uma.provider.ProcessComponentInterfaceItemProvider--><path codeLine="16" d="M190.5,67.46 C190.5,79.65 190.5,93.4 190.5,106.82 " fill="none" id="org.eclipse.epf.uma.provider.BreakdownElementItemProvider-backto-org.eclipse.epf.uma.provider.ProcessComponentInterfaceItemProvider" style="stroke: #A80036; stroke-width: 1.0;"/><polygon fill="none" points="183.5,67.06,190.5,47.06,197.5,67.06,183.5,67.06" style="stroke: #A80036; stroke-width: 1.0;"/><text fill="#888888" font-family="sans-serif" font-size="10" lengthAdjust="spacingAndGlyphs" textLength="190" x="92.5" y="261.584">UMLDoclet 2.0.12, PlantUML 1.2020.16</text><!--MD5=[dd4b72e638e8c28774b8a8b50fddcf48]
@startuml
    set namespaceSeparator none
    hide empty fields
    hide empty methods

    class "<size:14>ProcessComponentInterfaceItemProvider\n<size:10>org.eclipse.epf.uma.provider" as org.eclipse.epf.uma.provider.ProcessComponentInterfaceItemProvider [[ProcessComponentInterfaceItemProvider.html]] {
        +ProcessComponentInterfaceItemProvider(AdapterFactory)
        +getPropertyDescriptors(Object): List<IItemPropertyDescriptor>
        +getChildrenFeatures(Object): Collection<? extends EStructuralFeature>
        +getImage(Object): Object
        +getText(Object): String
        +notifyChanged(Notification): void
    }

    class "<size:14>BreakdownElementItemProvider\n<size:10>org.eclipse.epf.uma.provider" as org.eclipse.epf.uma.provider.BreakdownElementItemProvider [[BreakdownElementItemProvider.html]]

    org.eclipse.epf.uma.provider.BreakdownElementItemProvider <|- - org.eclipse.epf.uma.provider.ProcessComponentInterfaceItemProvider

    center footer UMLDoclet 2.0.12, PlantUML 1.2020.16
@enduml

PlantUML version 1.2020.16(Sun Aug 23 22:20:43 CEST 2020)
(APACHE source distribution)
Java Runtime: Java(TM) SE Runtime Environment
JVM: Java HotSpot(TM) 64-Bit Server VM
Default Encoding: Cp1252
Language: es
Country: ES
--></g></svg>