<?xml version="1.0" encoding="UTF-8" standalone="no"?><svg xmlns="http://www.w3.org/2000/svg" xmlns:xlink="http://www.w3.org/1999/xlink" contentScriptType="application/ecmascript" contentStyleType="text/css" height="288px" preserveAspectRatio="none" style="width:393px;height:288px;" version="1.1" viewBox="0 0 393 288" width="393px" zoomAndPan="magnify"><defs><filter height="300%" id="fxmt12k560u99" width="300%" x="-1" y="-1"><feGaussianBlur result="blurOut" stdDeviation="2.0"/><feColorMatrix in="blurOut" result="blurOut2" type="matrix" values="0 0 0 0 0 0 0 0 0 0 0 0 0 0 0 0 0 0 .4 0"/><feOffset dx="4.0" dy="4.0" in="blurOut2" result="blurOut3"/><feBlend in="SourceGraphic" in2="blurOut3" mode="normal"/></filter></defs><g><!--MD5=[10b4ec01837eef71c9df6a4bfda43dca]
class org.eclipse.epf.uma.provider.ProcessComponentItemProvider--><a href="ProcessComponentItemProvider.html" target="_top" title="ProcessComponentItemProvider.html" xlink:actuate="onRequest" xlink:href="ProcessComponentItemProvider.html" xlink:show="new" xlink:title="ProcessComponentItemProvider.html" xlink:type="simple"><rect codeLine="5" fill="#FEFECE" filter="url(#fxmt12k560u99)" height="145.0391" id="org.eclipse.epf.uma.provider.ProcessComponentItemProvider" style="stroke: #A80036; stroke-width: 1.5;" width="367" x="7" y="107"/><ellipse cx="84.75" cy="127.0938" fill="#ADD1B2" rx="11" ry="11" style="stroke: #A80036; stroke-width: 1.0;"/><path d="M87.5156,122.9688 Q87.6719,122.75 87.8594,122.6406 Q88.0469,122.5313 88.2656,122.5313 Q88.6406,122.5313 88.875,122.7969 Q89.1094,123.0469 89.1094,123.6563 L89.1094,125.1094 Q89.1094,125.7188 88.875,125.9844 Q88.6406,126.25 88.2656,126.25 Q87.9219,126.25 87.7188,126.0469 Q87.5156,125.8594 87.4063,125.3438 Q87.3594,124.9844 87.1719,124.7969 Q86.8438,124.4219 86.2344,124.2031 Q85.625,123.9844 85,123.9844 Q84.2344,123.9844 83.5938,124.3125 Q82.9688,124.6406 82.4688,125.3906 Q81.9844,126.1406 81.9844,127.1719 L81.9844,128.2656 Q81.9844,129.5 82.875,130.3281 Q83.7656,131.1406 85.3594,131.1406 Q86.2969,131.1406 86.9531,130.8906 Q87.3438,130.7344 87.7656,130.2969 Q88.0313,130.0313 88.1719,129.9531 Q88.3281,129.875 88.5313,129.875 Q88.8594,129.875 89.1094,130.1406 Q89.375,130.3906 89.375,130.7344 Q89.375,131.0781 89.0313,131.4844 Q88.5313,132.0625 87.7344,132.3906 Q86.6563,132.8438 85.3594,132.8438 Q83.8438,132.8438 82.6406,132.2188 Q81.6563,131.7188 80.9688,130.6563 Q80.2813,129.5781 80.2813,128.2969 L80.2813,127.1406 Q80.2813,125.8125 80.8906,124.6719 Q81.5156,123.5156 82.6094,122.9063 Q83.7031,122.2813 84.9375,122.2813 Q85.6719,122.2813 86.3125,122.4531 Q86.9688,122.6094 87.5156,122.9688 Z "/><text fill="#000000" font-family="sans-serif" font-size="14" lengthAdjust="spacingAndGlyphs" textLength="203" x="105.25" y="126.5332">ProcessComponentItemProvider</text><text fill="#000000" font-family="sans-serif" font-size="10" lengthAdjust="spacingAndGlyphs" textLength="135" x="139.25" y="139.9902">org.eclipse.epf.uma.provider</text><line style="stroke: #A80036; stroke-width: 1.5;" x1="8" x2="373" y1="147.1875" y2="147.1875"/><ellipse cx="18" cy="158.1875" fill="#84BE84" rx="3" ry="3" style="stroke: #038048; stroke-width: 1.0;"/><text fill="#000000" font-family="sans-serif" font-size="11" lengthAdjust="spacingAndGlyphs" textLength="237" x="27" y="162.6064">ProcessComponentItemProvider(AdapterFactory)</text><ellipse cx="18" cy="172.0234" fill="#84BE84" rx="3" ry="3" style="stroke: #038048; stroke-width: 1.0;"/><text fill="#000000" font-family="sans-serif" font-size="11" lengthAdjust="spacingAndGlyphs" textLength="298" x="27" y="176.4424">getPropertyDescriptors(Object): List&lt;IItemPropertyDescriptor&gt;</text><ellipse cx="18" cy="185.8594" fill="#84BE84" rx="3" ry="3" style="stroke: #038048; stroke-width: 1.0;"/><text fill="#000000" font-family="sans-serif" font-size="11" lengthAdjust="spacingAndGlyphs" textLength="341" x="27" y="190.2783">getChildrenFeatures(Object): Collection&lt;? extends EStructuralFeature&gt;</text><ellipse cx="18" cy="199.6953" fill="#84BE84" rx="3" ry="3" style="stroke: #038048; stroke-width: 1.0;"/><text fill="#000000" font-family="sans-serif" font-size="11" lengthAdjust="spacingAndGlyphs" textLength="119" x="27" y="204.1143">getImage(Object): Object</text><ellipse cx="18" cy="213.5313" fill="#84BE84" rx="3" ry="3" style="stroke: #038048; stroke-width: 1.0;"/><text fill="#000000" font-family="sans-serif" font-size="11" lengthAdjust="spacingAndGlyphs" textLength="109" x="27" y="217.9502">getText(Object): String</text><ellipse cx="18" cy="227.3672" fill="#84BE84" rx="3" ry="3" style="stroke: #038048; stroke-width: 1.0;"/><text fill="#000000" font-family="sans-serif" font-size="11" lengthAdjust="spacingAndGlyphs" textLength="157" x="27" y="231.7861">notifyChanged(Notification): void</text><ellipse cx="18" cy="241.2031" fill="#84BE84" rx="3" ry="3" style="stroke: #038048; stroke-width: 1.0;"/><text fill="#000000" font-family="sans-serif" font-size="11" lengthAdjust="spacingAndGlyphs" textLength="308" x="27" y="245.6221">getCreateChildText(Object, Object, Object, Collection&lt;?&gt;): String</text></a><!--MD5=[4e950a89bcae1ff1495aa2a059b28d50]
class org.eclipse.epf.uma.provider.ProcessPackageItemProvider--><a href="ProcessPackageItemProvider.html" target="_top" title="ProcessPackageItemProvider.html" xlink:actuate="onRequest" xlink:href="ProcessPackageItemProvider.html" xlink:show="new" xlink:title="ProcessPackageItemProvider.html" xlink:type="simple"><rect codeLine="15" fill="#FEFECE" filter="url(#fxmt12k560u99)" height="40.1875" id="org.eclipse.epf.uma.provider.ProcessPackageItemProvider" style="stroke: #A80036; stroke-width: 1.5;" width="217" x="82" y="7"/><ellipse cx="97" cy="27.0938" fill="#ADD1B2" rx="11" ry="11" style="stroke: #A80036; stroke-width: 1.0;"/><path d="M99.7656,22.9688 Q99.9219,22.75 100.1094,22.6406 Q100.2969,22.5313 100.5156,22.5313 Q100.8906,22.5313 101.125,22.7969 Q101.3594,23.0469 101.3594,23.6563 L101.3594,25.1094 Q101.3594,25.7188 101.125,25.9844 Q100.8906,26.25 100.5156,26.25 Q100.1719,26.25 99.9688,26.0469 Q99.7656,25.8594 99.6563,25.3438 Q99.6094,24.9844 99.4219,24.7969 Q99.0938,24.4219 98.4844,24.2031 Q97.875,23.9844 97.25,23.9844 Q96.4844,23.9844 95.8438,24.3125 Q95.2188,24.6406 94.7188,25.3906 Q94.2344,26.1406 94.2344,27.1719 L94.2344,28.2656 Q94.2344,29.5 95.125,30.3281 Q96.0156,31.1406 97.6094,31.1406 Q98.5469,31.1406 99.2031,30.8906 Q99.5938,30.7344 100.0156,30.2969 Q100.2813,30.0313 100.4219,29.9531 Q100.5781,29.875 100.7813,29.875 Q101.1094,29.875 101.3594,30.1406 Q101.625,30.3906 101.625,30.7344 Q101.625,31.0781 101.2813,31.4844 Q100.7813,32.0625 99.9844,32.3906 Q98.9063,32.8438 97.6094,32.8438 Q96.0938,32.8438 94.8906,32.2188 Q93.9063,31.7188 93.2188,30.6563 Q92.5313,29.5781 92.5313,28.2969 L92.5313,27.1406 Q92.5313,25.8125 93.1406,24.6719 Q93.7656,23.5156 94.8594,22.9063 Q95.9531,22.2813 97.1875,22.2813 Q97.9219,22.2813 98.5625,22.4531 Q99.2188,22.6094 99.7656,22.9688 Z "/><text fill="#000000" font-family="sans-serif" font-size="14" lengthAdjust="spacingAndGlyphs" textLength="185" x="111" y="26.5332">ProcessPackageItemProvider</text><text fill="#000000" font-family="sans-serif" font-size="10" lengthAdjust="spacingAndGlyphs" textLength="135" x="136" y="39.9902">org.eclipse.epf.uma.provider</text></a><!--MD5=[69299318d366446ae05fb8ac1dcfdeae]
reverse link org.eclipse.epf.uma.provider.ProcessPackageItemProvider to org.eclipse.epf.uma.provider.ProcessComponentItemProvider--><path codeLine="17" d="M190.5,67.32 C190.5,79.44 190.5,93.19 190.5,106.79 " fill="none" id="org.eclipse.epf.uma.provider.ProcessPackageItemProvider-backto-org.eclipse.epf.uma.provider.ProcessComponentItemProvider" style="stroke: #A80036; stroke-width: 1.0;"/><polygon fill="none" points="183.5,67.06,190.5,47.06,197.5,67.06,183.5,67.06" style="stroke: #A80036; stroke-width: 1.0;"/><text fill="#888888" font-family="sans-serif" font-size="10" lengthAdjust="spacingAndGlyphs" textLength="190" x="92.5" y="275.4199">UMLDoclet 2.0.12, PlantUML 1.2020.16</text><!--MD5=[db5116de00547432c6ed5d99eecf147c]
@startuml
    set namespaceSeparator none
    hide empty fields
    hide empty methods

    class "<size:14>ProcessComponentItemProvider\n<size:10>org.eclipse.epf.uma.provider" as org.eclipse.epf.uma.provider.ProcessComponentItemProvider [[ProcessComponentItemProvider.html]] {
        +ProcessComponentItemProvider(AdapterFactory)
        +getPropertyDescriptors(Object): List<IItemPropertyDescriptor>
        +getChildrenFeatures(Object): Collection<? extends EStructuralFeature>
        +getImage(Object): Object
        +getText(Object): String
        +notifyChanged(Notification): void
        +getCreateChildText(Object, Object, Object, Collection<?>): String
    }

    class "<size:14>ProcessPackageItemProvider\n<size:10>org.eclipse.epf.uma.provider" as org.eclipse.epf.uma.provider.ProcessPackageItemProvider [[ProcessPackageItemProvider.html]]

    org.eclipse.epf.uma.provider.ProcessPackageItemProvider <|- - org.eclipse.epf.uma.provider.ProcessComponentItemProvider

    center footer UMLDoclet 2.0.12, PlantUML 1.2020.16
@enduml

PlantUML version 1.2020.16(Sun Aug 23 22:20:43 CEST 2020)
(APACHE source distribution)
Java Runtime: Java(TM) SE Runtime Environment
JVM: Java HotSpot(TM) 64-Bit Server VM
Default Encoding: Cp1252
Language: es
Country: ES
--></g></svg>