<?xml version="1.0" encoding="UTF-8" standalone="no"?><svg xmlns="http://www.w3.org/2000/svg" xmlns:xlink="http://www.w3.org/1999/xlink" contentScriptType="application/ecmascript" contentStyleType="text/css" height="261px" preserveAspectRatio="none" style="width:350px;height:261px;" version="1.1" viewBox="0 0 350 261" width="350px" zoomAndPan="magnify"><defs><filter height="300%" id="faf3jvai8ijmh" width="300%" x="-1" y="-1"><feGaussianBlur result="blurOut" stdDeviation="2.0"/><feColorMatrix in="blurOut" result="blurOut2" type="matrix" values="0 0 0 0 0 0 0 0 0 0 0 0 0 0 0 0 0 0 .4 0"/><feOffset dx="4.0" dy="4.0" in="blurOut2" result="blurOut3"/><feBlend in="SourceGraphic" in2="blurOut3" mode="normal"/></filter></defs><g><!--MD5=[22b70cce1c1dc54196f6467de1e75f2c]
class org.eclipse.epf.uma.provider.ProcessFamilyItemProvider--><a href="ProcessFamilyItemProvider.html" target="_top" title="ProcessFamilyItemProvider.html" xlink:actuate="onRequest" xlink:href="ProcessFamilyItemProvider.html" xlink:show="new" xlink:title="ProcessFamilyItemProvider.html" xlink:type="simple"><rect codeLine="5" fill="#FEFECE" filter="url(#faf3jvai8ijmh)" height="117.3672" id="org.eclipse.epf.uma.provider.ProcessFamilyItemProvider" style="stroke: #A80036; stroke-width: 1.5;" width="324" x="7" y="107"/><ellipse cx="79.25" cy="127.0938" fill="#ADD1B2" rx="11" ry="11" style="stroke: #A80036; stroke-width: 1.0;"/><path d="M82.0156,122.9688 Q82.1719,122.75 82.3594,122.6406 Q82.5469,122.5313 82.7656,122.5313 Q83.1406,122.5313 83.375,122.7969 Q83.6094,123.0469 83.6094,123.6563 L83.6094,125.1094 Q83.6094,125.7188 83.375,125.9844 Q83.1406,126.25 82.7656,126.25 Q82.4219,126.25 82.2188,126.0469 Q82.0156,125.8594 81.9063,125.3438 Q81.8594,124.9844 81.6719,124.7969 Q81.3438,124.4219 80.7344,124.2031 Q80.125,123.9844 79.5,123.9844 Q78.7344,123.9844 78.0938,124.3125 Q77.4688,124.6406 76.9688,125.3906 Q76.4844,126.1406 76.4844,127.1719 L76.4844,128.2656 Q76.4844,129.5 77.375,130.3281 Q78.2656,131.1406 79.8594,131.1406 Q80.7969,131.1406 81.4531,130.8906 Q81.8438,130.7344 82.2656,130.2969 Q82.5313,130.0313 82.6719,129.9531 Q82.8281,129.875 83.0313,129.875 Q83.3594,129.875 83.6094,130.1406 Q83.875,130.3906 83.875,130.7344 Q83.875,131.0781 83.5313,131.4844 Q83.0313,132.0625 82.2344,132.3906 Q81.1563,132.8438 79.8594,132.8438 Q78.3438,132.8438 77.1406,132.2188 Q76.1563,131.7188 75.4688,130.6563 Q74.7813,129.5781 74.7813,128.2969 L74.7813,127.1406 Q74.7813,125.8125 75.3906,124.6719 Q76.0156,123.5156 77.1094,122.9063 Q78.2031,122.2813 79.4375,122.2813 Q80.1719,122.2813 80.8125,122.4531 Q81.4688,122.6094 82.0156,122.9688 Z "/><text fill="#000000" font-family="sans-serif" font-size="14" lengthAdjust="spacingAndGlyphs" textLength="171" x="99.75" y="126.5332">ProcessFamilyItemProvider</text><text fill="#000000" font-family="sans-serif" font-size="10" lengthAdjust="spacingAndGlyphs" textLength="135" x="117.75" y="139.9902">org.eclipse.epf.uma.provider</text><line style="stroke: #A80036; stroke-width: 1.5;" x1="8" x2="330" y1="147.1875" y2="147.1875"/><ellipse cx="18" cy="158.1875" fill="#84BE84" rx="3" ry="3" style="stroke: #038048; stroke-width: 1.0;"/><text fill="#000000" font-family="sans-serif" font-size="11" lengthAdjust="spacingAndGlyphs" textLength="213" x="27" y="162.6064">ProcessFamilyItemProvider(AdapterFactory)</text><ellipse cx="18" cy="172.0234" fill="#84BE84" rx="3" ry="3" style="stroke: #038048; stroke-width: 1.0;"/><text fill="#000000" font-family="sans-serif" font-size="11" lengthAdjust="spacingAndGlyphs" textLength="298" x="27" y="176.4424">getPropertyDescriptors(Object): List&lt;IItemPropertyDescriptor&gt;</text><ellipse cx="18" cy="185.8594" fill="#84BE84" rx="3" ry="3" style="stroke: #038048; stroke-width: 1.0;"/><text fill="#000000" font-family="sans-serif" font-size="11" lengthAdjust="spacingAndGlyphs" textLength="119" x="27" y="190.2783">getImage(Object): Object</text><ellipse cx="18" cy="199.6953" fill="#84BE84" rx="3" ry="3" style="stroke: #038048; stroke-width: 1.0;"/><text fill="#000000" font-family="sans-serif" font-size="11" lengthAdjust="spacingAndGlyphs" textLength="109" x="27" y="204.1143">getText(Object): String</text><ellipse cx="18" cy="213.5313" fill="#84BE84" rx="3" ry="3" style="stroke: #038048; stroke-width: 1.0;"/><text fill="#000000" font-family="sans-serif" font-size="11" lengthAdjust="spacingAndGlyphs" textLength="157" x="27" y="217.9502">notifyChanged(Notification): void</text></a><!--MD5=[1920697ae3f08c5f1874e61974023650]
class org.eclipse.epf.uma.provider.MethodConfigurationItemProvider--><a href="MethodConfigurationItemProvider.html" target="_top" title="MethodConfigurationItemProvider.html" xlink:actuate="onRequest" xlink:href="MethodConfigurationItemProvider.html" xlink:show="new" xlink:title="MethodConfigurationItemProvider.html" xlink:type="simple"><rect codeLine="13" fill="#FEFECE" filter="url(#faf3jvai8ijmh)" height="40.1875" id="org.eclipse.epf.uma.provider.MethodConfigurationItemProvider" style="stroke: #A80036; stroke-width: 1.5;" width="243" x="47.5" y="7"/><ellipse cx="62.5" cy="27.0938" fill="#ADD1B2" rx="11" ry="11" style="stroke: #A80036; stroke-width: 1.0;"/><path d="M65.2656,22.9688 Q65.4219,22.75 65.6094,22.6406 Q65.7969,22.5313 66.0156,22.5313 Q66.3906,22.5313 66.625,22.7969 Q66.8594,23.0469 66.8594,23.6563 L66.8594,25.1094 Q66.8594,25.7188 66.625,25.9844 Q66.3906,26.25 66.0156,26.25 Q65.6719,26.25 65.4688,26.0469 Q65.2656,25.8594 65.1563,25.3438 Q65.1094,24.9844 64.9219,24.7969 Q64.5938,24.4219 63.9844,24.2031 Q63.375,23.9844 62.75,23.9844 Q61.9844,23.9844 61.3438,24.3125 Q60.7188,24.6406 60.2188,25.3906 Q59.7344,26.1406 59.7344,27.1719 L59.7344,28.2656 Q59.7344,29.5 60.625,30.3281 Q61.5156,31.1406 63.1094,31.1406 Q64.0469,31.1406 64.7031,30.8906 Q65.0938,30.7344 65.5156,30.2969 Q65.7813,30.0313 65.9219,29.9531 Q66.0781,29.875 66.2813,29.875 Q66.6094,29.875 66.8594,30.1406 Q67.125,30.3906 67.125,30.7344 Q67.125,31.0781 66.7813,31.4844 Q66.2813,32.0625 65.4844,32.3906 Q64.4063,32.8438 63.1094,32.8438 Q61.5938,32.8438 60.3906,32.2188 Q59.4063,31.7188 58.7188,30.6563 Q58.0313,29.5781 58.0313,28.2969 L58.0313,27.1406 Q58.0313,25.8125 58.6406,24.6719 Q59.2656,23.5156 60.3594,22.9063 Q61.4531,22.2813 62.6875,22.2813 Q63.4219,22.2813 64.0625,22.4531 Q64.7188,22.6094 65.2656,22.9688 Z "/><text fill="#000000" font-family="sans-serif" font-size="14" lengthAdjust="spacingAndGlyphs" textLength="211" x="76.5" y="26.5332">MethodConfigurationItemProvider</text><text fill="#000000" font-family="sans-serif" font-size="10" lengthAdjust="spacingAndGlyphs" textLength="135" x="114.5" y="39.9902">org.eclipse.epf.uma.provider</text></a><!--MD5=[f4f9636d5b77133db268869a9540e89e]
reverse link org.eclipse.epf.uma.provider.MethodConfigurationItemProvider to org.eclipse.epf.uma.provider.ProcessFamilyItemProvider--><path codeLine="15" d="M169,67.38 C169,79.73 169,93.63 169,106.97 " fill="none" id="org.eclipse.epf.uma.provider.MethodConfigurationItemProvider-backto-org.eclipse.epf.uma.provider.ProcessFamilyItemProvider" style="stroke: #A80036; stroke-width: 1.0;"/><polygon fill="none" points="162,67.27,169,47.27,176,67.27,162,67.27" style="stroke: #A80036; stroke-width: 1.0;"/><text fill="#888888" font-family="sans-serif" font-size="10" lengthAdjust="spacingAndGlyphs" textLength="190" x="71" y="247.748">UMLDoclet 2.0.12, PlantUML 1.2020.16</text><!--MD5=[cf99105e8756faddfb3c8d5d982adca1]
@startuml
    set namespaceSeparator none
    hide empty fields
    hide empty methods

    class "<size:14>ProcessFamilyItemProvider\n<size:10>org.eclipse.epf.uma.provider" as org.eclipse.epf.uma.provider.ProcessFamilyItemProvider [[ProcessFamilyItemProvider.html]] {
        +ProcessFamilyItemProvider(AdapterFactory)
        +getPropertyDescriptors(Object): List<IItemPropertyDescriptor>
        +getImage(Object): Object
        +getText(Object): String
        +notifyChanged(Notification): void
    }

    class "<size:14>MethodConfigurationItemProvider\n<size:10>org.eclipse.epf.uma.provider" as org.eclipse.epf.uma.provider.MethodConfigurationItemProvider [[MethodConfigurationItemProvider.html]]

    org.eclipse.epf.uma.provider.MethodConfigurationItemProvider <|- - org.eclipse.epf.uma.provider.ProcessFamilyItemProvider

    center footer UMLDoclet 2.0.12, PlantUML 1.2020.16
@enduml

PlantUML version 1.2020.16(Sun Aug 23 22:20:43 CEST 2020)
(APACHE source distribution)
Java Runtime: Java(TM) SE Runtime Environment
JVM: Java HotSpot(TM) 64-Bit Server VM
Default Encoding: Cp1252
Language: es
Country: ES
--></g></svg>