<?xml version="1.0" encoding="UTF-8" standalone="no"?><svg xmlns="http://www.w3.org/2000/svg" xmlns:xlink="http://www.w3.org/1999/xlink" contentScriptType="application/ecmascript" contentStyleType="text/css" height="261px" preserveAspectRatio="none" style="width:350px;height:261px;" version="1.1" viewBox="0 0 350 261" width="350px" zoomAndPan="magnify"><defs><filter height="300%" id="f1myox2xmjxlnr" width="300%" x="-1" y="-1"><feGaussianBlur result="blurOut" stdDeviation="2.0"/><feColorMatrix in="blurOut" result="blurOut2" type="matrix" values="0 0 0 0 0 0 0 0 0 0 0 0 0 0 0 0 0 0 .4 0"/><feOffset dx="4.0" dy="4.0" in="blurOut2" result="blurOut3"/><feBlend in="SourceGraphic" in2="blurOut3" mode="normal"/></filter></defs><g><!--MD5=[a22e162e5c57b5496c40a9e2892c0783]
class org.eclipse.epf.uma.provider.PropertyItemProvider--><a href="PropertyItemProvider.html" target="_top" title="PropertyItemProvider.html" xlink:actuate="onRequest" xlink:href="PropertyItemProvider.html" xlink:show="new" xlink:title="PropertyItemProvider.html" xlink:type="simple"><rect codeLine="5" fill="#FEFECE" filter="url(#f1myox2xmjxlnr)" height="117.3672" id="org.eclipse.epf.uma.provider.PropertyItemProvider" style="stroke: #A80036; stroke-width: 1.5;" width="324" x="7" y="107"/><ellipse cx="97.25" cy="127.0938" fill="#ADD1B2" rx="11" ry="11" style="stroke: #A80036; stroke-width: 1.0;"/><path d="M100.0156,122.9688 Q100.1719,122.75 100.3594,122.6406 Q100.5469,122.5313 100.7656,122.5313 Q101.1406,122.5313 101.375,122.7969 Q101.6094,123.0469 101.6094,123.6563 L101.6094,125.1094 Q101.6094,125.7188 101.375,125.9844 Q101.1406,126.25 100.7656,126.25 Q100.4219,126.25 100.2188,126.0469 Q100.0156,125.8594 99.9063,125.3438 Q99.8594,124.9844 99.6719,124.7969 Q99.3438,124.4219 98.7344,124.2031 Q98.125,123.9844 97.5,123.9844 Q96.7344,123.9844 96.0938,124.3125 Q95.4688,124.6406 94.9688,125.3906 Q94.4844,126.1406 94.4844,127.1719 L94.4844,128.2656 Q94.4844,129.5 95.375,130.3281 Q96.2656,131.1406 97.8594,131.1406 Q98.7969,131.1406 99.4531,130.8906 Q99.8438,130.7344 100.2656,130.2969 Q100.5313,130.0313 100.6719,129.9531 Q100.8281,129.875 101.0313,129.875 Q101.3594,129.875 101.6094,130.1406 Q101.875,130.3906 101.875,130.7344 Q101.875,131.0781 101.5313,131.4844 Q101.0313,132.0625 100.2344,132.3906 Q99.1563,132.8438 97.8594,132.8438 Q96.3438,132.8438 95.1406,132.2188 Q94.1563,131.7188 93.4688,130.6563 Q92.7813,129.5781 92.7813,128.2969 L92.7813,127.1406 Q92.7813,125.8125 93.3906,124.6719 Q94.0156,123.5156 95.1094,122.9063 Q96.2031,122.2813 97.4375,122.2813 Q98.1719,122.2813 98.8125,122.4531 Q99.4688,122.6094 100.0156,122.9688 Z "/><text fill="#000000" font-family="sans-serif" font-size="14" lengthAdjust="spacingAndGlyphs" textLength="133" x="118.75" y="126.5332">PropertyItemProvider</text><text fill="#000000" font-family="sans-serif" font-size="10" lengthAdjust="spacingAndGlyphs" textLength="135" x="117.75" y="139.9902">org.eclipse.epf.uma.provider</text><line style="stroke: #A80036; stroke-width: 1.5;" x1="8" x2="330" y1="147.1875" y2="147.1875"/><ellipse cx="18" cy="158.1875" fill="#84BE84" rx="3" ry="3" style="stroke: #038048; stroke-width: 1.0;"/><text fill="#000000" font-family="sans-serif" font-size="11" lengthAdjust="spacingAndGlyphs" textLength="184" x="27" y="162.6064">PropertyItemProvider(AdapterFactory)</text><ellipse cx="18" cy="172.0234" fill="#84BE84" rx="3" ry="3" style="stroke: #038048; stroke-width: 1.0;"/><text fill="#000000" font-family="sans-serif" font-size="11" lengthAdjust="spacingAndGlyphs" textLength="298" x="27" y="176.4424">getPropertyDescriptors(Object): List&lt;IItemPropertyDescriptor&gt;</text><ellipse cx="18" cy="185.8594" fill="#84BE84" rx="3" ry="3" style="stroke: #038048; stroke-width: 1.0;"/><text fill="#000000" font-family="sans-serif" font-size="11" lengthAdjust="spacingAndGlyphs" textLength="119" x="27" y="190.2783">getImage(Object): Object</text><ellipse cx="18" cy="199.6953" fill="#84BE84" rx="3" ry="3" style="stroke: #038048; stroke-width: 1.0;"/><text fill="#000000" font-family="sans-serif" font-size="11" lengthAdjust="spacingAndGlyphs" textLength="109" x="27" y="204.1143">getText(Object): String</text><ellipse cx="18" cy="213.5313" fill="#84BE84" rx="3" ry="3" style="stroke: #038048; stroke-width: 1.0;"/><text fill="#000000" font-family="sans-serif" font-size="11" lengthAdjust="spacingAndGlyphs" textLength="157" x="27" y="217.9502">notifyChanged(Notification): void</text></a><!--MD5=[2e18af2ce01ffe7432f9981a436a8320]
class org.eclipse.epf.uma.provider.DiagramElementItemProvider--><a href="DiagramElementItemProvider.html" target="_top" title="DiagramElementItemProvider.html" xlink:actuate="onRequest" xlink:href="DiagramElementItemProvider.html" xlink:show="new" xlink:title="DiagramElementItemProvider.html" xlink:type="simple"><rect codeLine="13" fill="#FEFECE" filter="url(#f1myox2xmjxlnr)" height="40.1875" id="org.eclipse.epf.uma.provider.DiagramElementItemProvider" style="stroke: #A80036; stroke-width: 1.5;" width="215" x="61.5" y="7"/><ellipse cx="76.5" cy="27.0938" fill="#ADD1B2" rx="11" ry="11" style="stroke: #A80036; stroke-width: 1.0;"/><path d="M79.2656,22.9688 Q79.4219,22.75 79.6094,22.6406 Q79.7969,22.5313 80.0156,22.5313 Q80.3906,22.5313 80.625,22.7969 Q80.8594,23.0469 80.8594,23.6563 L80.8594,25.1094 Q80.8594,25.7188 80.625,25.9844 Q80.3906,26.25 80.0156,26.25 Q79.6719,26.25 79.4688,26.0469 Q79.2656,25.8594 79.1563,25.3438 Q79.1094,24.9844 78.9219,24.7969 Q78.5938,24.4219 77.9844,24.2031 Q77.375,23.9844 76.75,23.9844 Q75.9844,23.9844 75.3438,24.3125 Q74.7188,24.6406 74.2188,25.3906 Q73.7344,26.1406 73.7344,27.1719 L73.7344,28.2656 Q73.7344,29.5 74.625,30.3281 Q75.5156,31.1406 77.1094,31.1406 Q78.0469,31.1406 78.7031,30.8906 Q79.0938,30.7344 79.5156,30.2969 Q79.7813,30.0313 79.9219,29.9531 Q80.0781,29.875 80.2813,29.875 Q80.6094,29.875 80.8594,30.1406 Q81.125,30.3906 81.125,30.7344 Q81.125,31.0781 80.7813,31.4844 Q80.2813,32.0625 79.4844,32.3906 Q78.4063,32.8438 77.1094,32.8438 Q75.5938,32.8438 74.3906,32.2188 Q73.4063,31.7188 72.7188,30.6563 Q72.0313,29.5781 72.0313,28.2969 L72.0313,27.1406 Q72.0313,25.8125 72.6406,24.6719 Q73.2656,23.5156 74.3594,22.9063 Q75.4531,22.2813 76.6875,22.2813 Q77.4219,22.2813 78.0625,22.4531 Q78.7188,22.6094 79.2656,22.9688 Z "/><text fill="#000000" font-family="sans-serif" font-size="14" lengthAdjust="spacingAndGlyphs" textLength="183" x="90.5" y="26.5332">DiagramElementItemProvider</text><text fill="#000000" font-family="sans-serif" font-size="10" lengthAdjust="spacingAndGlyphs" textLength="135" x="114.5" y="39.9902">org.eclipse.epf.uma.provider</text></a><!--MD5=[6f1bf1a0944419e88e067c605c3bb902]
reverse link org.eclipse.epf.uma.provider.DiagramElementItemProvider to org.eclipse.epf.uma.provider.PropertyItemProvider--><path codeLine="15" d="M169,67.38 C169,79.73 169,93.63 169,106.97 " fill="none" id="org.eclipse.epf.uma.provider.DiagramElementItemProvider-backto-org.eclipse.epf.uma.provider.PropertyItemProvider" style="stroke: #A80036; stroke-width: 1.0;"/><polygon fill="none" points="162,67.27,169,47.27,176,67.27,162,67.27" style="stroke: #A80036; stroke-width: 1.0;"/><text fill="#888888" font-family="sans-serif" font-size="10" lengthAdjust="spacingAndGlyphs" textLength="190" x="71" y="247.748">UMLDoclet 2.0.12, PlantUML 1.2020.16</text><!--MD5=[43414226ef5fadf52ec20d27d2019fb0]
@startuml
    set namespaceSeparator none
    hide empty fields
    hide empty methods

    class "<size:14>PropertyItemProvider\n<size:10>org.eclipse.epf.uma.provider" as org.eclipse.epf.uma.provider.PropertyItemProvider [[PropertyItemProvider.html]] {
        +PropertyItemProvider(AdapterFactory)
        +getPropertyDescriptors(Object): List<IItemPropertyDescriptor>
        +getImage(Object): Object
        +getText(Object): String
        +notifyChanged(Notification): void
    }

    class "<size:14>DiagramElementItemProvider\n<size:10>org.eclipse.epf.uma.provider" as org.eclipse.epf.uma.provider.DiagramElementItemProvider [[DiagramElementItemProvider.html]]

    org.eclipse.epf.uma.provider.DiagramElementItemProvider <|- - org.eclipse.epf.uma.provider.PropertyItemProvider

    center footer UMLDoclet 2.0.12, PlantUML 1.2020.16
@enduml

PlantUML version 1.2020.16(Sun Aug 23 22:20:43 CEST 2020)
(APACHE source distribution)
Java Runtime: Java(TM) SE Runtime Environment
JVM: Java HotSpot(TM) 64-Bit Server VM
Default Encoding: Cp1252
Language: es
Country: ES
--></g></svg>