<?xml version="1.0" encoding="UTF-8" standalone="no"?><svg xmlns="http://www.w3.org/2000/svg" xmlns:xlink="http://www.w3.org/1999/xlink" contentScriptType="application/ecmascript" contentStyleType="text/css" height="261px" preserveAspectRatio="none" style="width:350px;height:261px;" version="1.1" viewBox="0 0 350 261" width="350px" zoomAndPan="magnify"><defs><filter height="300%" id="f10i2pgsy8y20d" width="300%" x="-1" y="-1"><feGaussianBlur result="blurOut" stdDeviation="2.0"/><feColorMatrix in="blurOut" result="blurOut2" type="matrix" values="0 0 0 0 0 0 0 0 0 0 0 0 0 0 0 0 0 0 .4 0"/><feOffset dx="4.0" dy="4.0" in="blurOut2" result="blurOut3"/><feBlend in="SourceGraphic" in2="blurOut3" mode="normal"/></filter></defs><g><!--MD5=[22df407c27067bace4acfa6c86a76df2]
class org.eclipse.epf.uma.provider.ReferenceItemProvider--><a href="ReferenceItemProvider.html" target="_top" title="ReferenceItemProvider.html" xlink:actuate="onRequest" xlink:href="ReferenceItemProvider.html" xlink:show="new" xlink:title="ReferenceItemProvider.html" xlink:type="simple"><rect codeLine="5" fill="#FEFECE" filter="url(#f10i2pgsy8y20d)" height="117.3672" id="org.eclipse.epf.uma.provider.ReferenceItemProvider" style="stroke: #A80036; stroke-width: 1.5;" width="324" x="7" y="107"/><ellipse cx="92.25" cy="127.0938" fill="#ADD1B2" rx="11" ry="11" style="stroke: #A80036; stroke-width: 1.0;"/><path d="M95.0156,122.9688 Q95.1719,122.75 95.3594,122.6406 Q95.5469,122.5313 95.7656,122.5313 Q96.1406,122.5313 96.375,122.7969 Q96.6094,123.0469 96.6094,123.6563 L96.6094,125.1094 Q96.6094,125.7188 96.375,125.9844 Q96.1406,126.25 95.7656,126.25 Q95.4219,126.25 95.2188,126.0469 Q95.0156,125.8594 94.9063,125.3438 Q94.8594,124.9844 94.6719,124.7969 Q94.3438,124.4219 93.7344,124.2031 Q93.125,123.9844 92.5,123.9844 Q91.7344,123.9844 91.0938,124.3125 Q90.4688,124.6406 89.9688,125.3906 Q89.4844,126.1406 89.4844,127.1719 L89.4844,128.2656 Q89.4844,129.5 90.375,130.3281 Q91.2656,131.1406 92.8594,131.1406 Q93.7969,131.1406 94.4531,130.8906 Q94.8438,130.7344 95.2656,130.2969 Q95.5313,130.0313 95.6719,129.9531 Q95.8281,129.875 96.0313,129.875 Q96.3594,129.875 96.6094,130.1406 Q96.875,130.3906 96.875,130.7344 Q96.875,131.0781 96.5313,131.4844 Q96.0313,132.0625 95.2344,132.3906 Q94.1563,132.8438 92.8594,132.8438 Q91.3438,132.8438 90.1406,132.2188 Q89.1563,131.7188 88.4688,130.6563 Q87.7813,129.5781 87.7813,128.2969 L87.7813,127.1406 Q87.7813,125.8125 88.3906,124.6719 Q89.0156,123.5156 90.1094,122.9063 Q91.2031,122.2813 92.4375,122.2813 Q93.1719,122.2813 93.8125,122.4531 Q94.4688,122.6094 95.0156,122.9688 Z "/><text fill="#000000" font-family="sans-serif" font-size="14" lengthAdjust="spacingAndGlyphs" textLength="145" x="112.75" y="126.5332">ReferenceItemProvider</text><text fill="#000000" font-family="sans-serif" font-size="10" lengthAdjust="spacingAndGlyphs" textLength="135" x="117.75" y="139.9902">org.eclipse.epf.uma.provider</text><line style="stroke: #A80036; stroke-width: 1.5;" x1="8" x2="330" y1="147.1875" y2="147.1875"/><ellipse cx="18" cy="158.1875" fill="#84BE84" rx="3" ry="3" style="stroke: #038048; stroke-width: 1.0;"/><text fill="#000000" font-family="sans-serif" font-size="11" lengthAdjust="spacingAndGlyphs" textLength="194" x="27" y="162.6064">ReferenceItemProvider(AdapterFactory)</text><ellipse cx="18" cy="172.0234" fill="#84BE84" rx="3" ry="3" style="stroke: #038048; stroke-width: 1.0;"/><text fill="#000000" font-family="sans-serif" font-size="11" lengthAdjust="spacingAndGlyphs" textLength="298" x="27" y="176.4424">getPropertyDescriptors(Object): List&lt;IItemPropertyDescriptor&gt;</text><ellipse cx="18" cy="185.8594" fill="#84BE84" rx="3" ry="3" style="stroke: #038048; stroke-width: 1.0;"/><text fill="#000000" font-family="sans-serif" font-size="11" lengthAdjust="spacingAndGlyphs" textLength="119" x="27" y="190.2783">getImage(Object): Object</text><ellipse cx="18" cy="199.6953" fill="#84BE84" rx="3" ry="3" style="stroke: #038048; stroke-width: 1.0;"/><text fill="#000000" font-family="sans-serif" font-size="11" lengthAdjust="spacingAndGlyphs" textLength="109" x="27" y="204.1143">getText(Object): String</text><ellipse cx="18" cy="213.5313" fill="#84BE84" rx="3" ry="3" style="stroke: #038048; stroke-width: 1.0;"/><text fill="#000000" font-family="sans-serif" font-size="11" lengthAdjust="spacingAndGlyphs" textLength="157" x="27" y="217.9502">notifyChanged(Notification): void</text></a><!--MD5=[2e18af2ce01ffe7432f9981a436a8320]
class org.eclipse.epf.uma.provider.DiagramElementItemProvider--><a href="DiagramElementItemProvider.html" target="_top" title="DiagramElementItemProvider.html" xlink:actuate="onRequest" xlink:href="DiagramElementItemProvider.html" xlink:show="new" xlink:title="DiagramElementItemProvider.html" xlink:type="simple"><rect codeLine="13" fill="#FEFECE" filter="url(#f10i2pgsy8y20d)" height="40.1875" id="org.eclipse.epf.uma.provider.DiagramElementItemProvider" style="stroke: #A80036; stroke-width: 1.5;" width="215" x="61.5" y="7"/><ellipse cx="76.5" cy="27.0938" fill="#ADD1B2" rx="11" ry="11" style="stroke: #A80036; stroke-width: 1.0;"/><path d="M79.2656,22.9688 Q79.4219,22.75 79.6094,22.6406 Q79.7969,22.5313 80.0156,22.5313 Q80.3906,22.5313 80.625,22.7969 Q80.8594,23.0469 80.8594,23.6563 L80.8594,25.1094 Q80.8594,25.7188 80.625,25.9844 Q80.3906,26.25 80.0156,26.25 Q79.6719,26.25 79.4688,26.0469 Q79.2656,25.8594 79.1563,25.3438 Q79.1094,24.9844 78.9219,24.7969 Q78.5938,24.4219 77.9844,24.2031 Q77.375,23.9844 76.75,23.9844 Q75.9844,23.9844 75.3438,24.3125 Q74.7188,24.6406 74.2188,25.3906 Q73.7344,26.1406 73.7344,27.1719 L73.7344,28.2656 Q73.7344,29.5 74.625,30.3281 Q75.5156,31.1406 77.1094,31.1406 Q78.0469,31.1406 78.7031,30.8906 Q79.0938,30.7344 79.5156,30.2969 Q79.7813,30.0313 79.9219,29.9531 Q80.0781,29.875 80.2813,29.875 Q80.6094,29.875 80.8594,30.1406 Q81.125,30.3906 81.125,30.7344 Q81.125,31.0781 80.7813,31.4844 Q80.2813,32.0625 79.4844,32.3906 Q78.4063,32.8438 77.1094,32.8438 Q75.5938,32.8438 74.3906,32.2188 Q73.4063,31.7188 72.7188,30.6563 Q72.0313,29.5781 72.0313,28.2969 L72.0313,27.1406 Q72.0313,25.8125 72.6406,24.6719 Q73.2656,23.5156 74.3594,22.9063 Q75.4531,22.2813 76.6875,22.2813 Q77.4219,22.2813 78.0625,22.4531 Q78.7188,22.6094 79.2656,22.9688 Z "/><text fill="#000000" font-family="sans-serif" font-size="14" lengthAdjust="spacingAndGlyphs" textLength="183" x="90.5" y="26.5332">DiagramElementItemProvider</text><text fill="#000000" font-family="sans-serif" font-size="10" lengthAdjust="spacingAndGlyphs" textLength="135" x="114.5" y="39.9902">org.eclipse.epf.uma.provider</text></a><!--MD5=[56e3f0461880442b6691b1aada3bd06f]
reverse link org.eclipse.epf.uma.provider.DiagramElementItemProvider to org.eclipse.epf.uma.provider.ReferenceItemProvider--><path codeLine="15" d="M169,67.38 C169,79.73 169,93.63 169,106.97 " fill="none" id="org.eclipse.epf.uma.provider.DiagramElementItemProvider-backto-org.eclipse.epf.uma.provider.ReferenceItemProvider" style="stroke: #A80036; stroke-width: 1.0;"/><polygon fill="none" points="162,67.27,169,47.27,176,67.27,162,67.27" style="stroke: #A80036; stroke-width: 1.0;"/><text fill="#888888" font-family="sans-serif" font-size="10" lengthAdjust="spacingAndGlyphs" textLength="190" x="71" y="247.748">UMLDoclet 2.0.12, PlantUML 1.2020.16</text><!--MD5=[2bfe798913d6a18da4cdd9c8c439f8b0]
@startuml
    set namespaceSeparator none
    hide empty fields
    hide empty methods

    class "<size:14>ReferenceItemProvider\n<size:10>org.eclipse.epf.uma.provider" as org.eclipse.epf.uma.provider.ReferenceItemProvider [[ReferenceItemProvider.html]] {
        +ReferenceItemProvider(AdapterFactory)
        +getPropertyDescriptors(Object): List<IItemPropertyDescriptor>
        +getImage(Object): Object
        +getText(Object): String
        +notifyChanged(Notification): void
    }

    class "<size:14>DiagramElementItemProvider\n<size:10>org.eclipse.epf.uma.provider" as org.eclipse.epf.uma.provider.DiagramElementItemProvider [[DiagramElementItemProvider.html]]

    org.eclipse.epf.uma.provider.DiagramElementItemProvider <|- - org.eclipse.epf.uma.provider.ReferenceItemProvider

    center footer UMLDoclet 2.0.12, PlantUML 1.2020.16
@enduml

PlantUML version 1.2020.16(Sun Aug 23 22:20:43 CEST 2020)
(APACHE source distribution)
Java Runtime: Java(TM) SE Runtime Environment
JVM: Java HotSpot(TM) 64-Bit Server VM
Default Encoding: Cp1252
Language: es
Country: ES
--></g></svg>