<?xml version="1.0" encoding="UTF-8" standalone="no"?><svg xmlns="http://www.w3.org/2000/svg" xmlns:xlink="http://www.w3.org/1999/xlink" contentScriptType="application/ecmascript" contentStyleType="text/css" height="261px" preserveAspectRatio="none" style="width:350px;height:261px;" version="1.1" viewBox="0 0 350 261" width="350px" zoomAndPan="magnify"><defs><filter height="300%" id="f8nrdbvw1y3ib" width="300%" x="-1" y="-1"><feGaussianBlur result="blurOut" stdDeviation="2.0"/><feColorMatrix in="blurOut" result="blurOut2" type="matrix" values="0 0 0 0 0 0 0 0 0 0 0 0 0 0 0 0 0 0 .4 0"/><feOffset dx="4.0" dy="4.0" in="blurOut2" result="blurOut3"/><feBlend in="SourceGraphic" in2="blurOut3" mode="normal"/></filter></defs><g><!--MD5=[a7afd01755bec03a7627d8fa9cae2bbd]
class org.eclipse.epf.uma.provider.SimpleSemanticModelElementItemProvider--><a href="SimpleSemanticModelElementItemProvider.html" target="_top" title="SimpleSemanticModelElementItemProvider.html" xlink:actuate="onRequest" xlink:href="SimpleSemanticModelElementItemProvider.html" xlink:show="new" xlink:title="SimpleSemanticModelElementItemProvider.html" xlink:type="simple"><rect codeLine="5" fill="#FEFECE" filter="url(#f8nrdbvw1y3ib)" height="117.3672" id="org.eclipse.epf.uma.provider.SimpleSemanticModelElementItemProvider" style="stroke: #A80036; stroke-width: 1.5;" width="324" x="7" y="107"/><ellipse cx="32.8" cy="127.0938" fill="#ADD1B2" rx="11" ry="11" style="stroke: #A80036; stroke-width: 1.0;"/><path d="M35.5656,122.9688 Q35.7219,122.75 35.9094,122.6406 Q36.0969,122.5313 36.3156,122.5313 Q36.6906,122.5313 36.925,122.7969 Q37.1594,123.0469 37.1594,123.6563 L37.1594,125.1094 Q37.1594,125.7188 36.925,125.9844 Q36.6906,126.25 36.3156,126.25 Q35.9719,126.25 35.7688,126.0469 Q35.5656,125.8594 35.4563,125.3438 Q35.4094,124.9844 35.2219,124.7969 Q34.8938,124.4219 34.2844,124.2031 Q33.675,123.9844 33.05,123.9844 Q32.2844,123.9844 31.6437,124.3125 Q31.0187,124.6406 30.5187,125.3906 Q30.0344,126.1406 30.0344,127.1719 L30.0344,128.2656 Q30.0344,129.5 30.925,130.3281 Q31.8156,131.1406 33.4094,131.1406 Q34.3469,131.1406 35.0031,130.8906 Q35.3938,130.7344 35.8156,130.2969 Q36.0813,130.0313 36.2219,129.9531 Q36.3781,129.875 36.5813,129.875 Q36.9094,129.875 37.1594,130.1406 Q37.425,130.3906 37.425,130.7344 Q37.425,131.0781 37.0813,131.4844 Q36.5813,132.0625 35.7844,132.3906 Q34.7063,132.8438 33.4094,132.8438 Q31.8937,132.8438 30.6906,132.2188 Q29.7062,131.7188 29.0187,130.6563 Q28.3312,129.5781 28.3312,128.2969 L28.3312,127.1406 Q28.3312,125.8125 28.9406,124.6719 Q29.5656,123.5156 30.6594,122.9063 Q31.7531,122.2813 32.9875,122.2813 Q33.7219,122.2813 34.3625,122.4531 Q35.0188,122.6094 35.5656,122.9688 Z "/><text fill="#000000" font-family="sans-serif" font-size="14" lengthAdjust="spacingAndGlyphs" textLength="268" x="49.2" y="126.5332">SimpleSemanticModelElementItemProvider</text><text fill="#000000" font-family="sans-serif" font-size="10" lengthAdjust="spacingAndGlyphs" textLength="135" x="115.7" y="139.9902">org.eclipse.epf.uma.provider</text><line style="stroke: #A80036; stroke-width: 1.5;" x1="8" x2="330" y1="147.1875" y2="147.1875"/><ellipse cx="18" cy="158.1875" fill="#84BE84" rx="3" ry="3" style="stroke: #038048; stroke-width: 1.0;"/><text fill="#000000" font-family="sans-serif" font-size="11" lengthAdjust="spacingAndGlyphs" textLength="283" x="27" y="162.6064">SimpleSemanticModelElementItemProvider(AdapterFactory)</text><ellipse cx="18" cy="172.0234" fill="#84BE84" rx="3" ry="3" style="stroke: #038048; stroke-width: 1.0;"/><text fill="#000000" font-family="sans-serif" font-size="11" lengthAdjust="spacingAndGlyphs" textLength="298" x="27" y="176.4424">getPropertyDescriptors(Object): List&lt;IItemPropertyDescriptor&gt;</text><ellipse cx="18" cy="185.8594" fill="#84BE84" rx="3" ry="3" style="stroke: #038048; stroke-width: 1.0;"/><text fill="#000000" font-family="sans-serif" font-size="11" lengthAdjust="spacingAndGlyphs" textLength="119" x="27" y="190.2783">getImage(Object): Object</text><ellipse cx="18" cy="199.6953" fill="#84BE84" rx="3" ry="3" style="stroke: #038048; stroke-width: 1.0;"/><text fill="#000000" font-family="sans-serif" font-size="11" lengthAdjust="spacingAndGlyphs" textLength="109" x="27" y="204.1143">getText(Object): String</text><ellipse cx="18" cy="213.5313" fill="#84BE84" rx="3" ry="3" style="stroke: #038048; stroke-width: 1.0;"/><text fill="#000000" font-family="sans-serif" font-size="11" lengthAdjust="spacingAndGlyphs" textLength="157" x="27" y="217.9502">notifyChanged(Notification): void</text></a><!--MD5=[f91200287aa1bbc3827e647fbe9e8840]
class org.eclipse.epf.uma.provider.SemanticModelBridgeItemProvider--><a href="SemanticModelBridgeItemProvider.html" target="_top" title="SemanticModelBridgeItemProvider.html" xlink:actuate="onRequest" xlink:href="SemanticModelBridgeItemProvider.html" xlink:show="new" xlink:title="SemanticModelBridgeItemProvider.html" xlink:type="simple"><rect codeLine="13" fill="#FEFECE" filter="url(#f8nrdbvw1y3ib)" height="40.1875" id="org.eclipse.epf.uma.provider.SemanticModelBridgeItemProvider" style="stroke: #A80036; stroke-width: 1.5;" width="248" x="45" y="7"/><ellipse cx="60" cy="27.0938" fill="#ADD1B2" rx="11" ry="11" style="stroke: #A80036; stroke-width: 1.0;"/><path d="M62.7656,22.9688 Q62.9219,22.75 63.1094,22.6406 Q63.2969,22.5313 63.5156,22.5313 Q63.8906,22.5313 64.125,22.7969 Q64.3594,23.0469 64.3594,23.6563 L64.3594,25.1094 Q64.3594,25.7188 64.125,25.9844 Q63.8906,26.25 63.5156,26.25 Q63.1719,26.25 62.9688,26.0469 Q62.7656,25.8594 62.6563,25.3438 Q62.6094,24.9844 62.4219,24.7969 Q62.0938,24.4219 61.4844,24.2031 Q60.875,23.9844 60.25,23.9844 Q59.4844,23.9844 58.8438,24.3125 Q58.2188,24.6406 57.7188,25.3906 Q57.2344,26.1406 57.2344,27.1719 L57.2344,28.2656 Q57.2344,29.5 58.125,30.3281 Q59.0156,31.1406 60.6094,31.1406 Q61.5469,31.1406 62.2031,30.8906 Q62.5938,30.7344 63.0156,30.2969 Q63.2813,30.0313 63.4219,29.9531 Q63.5781,29.875 63.7813,29.875 Q64.1094,29.875 64.3594,30.1406 Q64.625,30.3906 64.625,30.7344 Q64.625,31.0781 64.2813,31.4844 Q63.7813,32.0625 62.9844,32.3906 Q61.9063,32.8438 60.6094,32.8438 Q59.0938,32.8438 57.8906,32.2188 Q56.9063,31.7188 56.2188,30.6563 Q55.5313,29.5781 55.5313,28.2969 L55.5313,27.1406 Q55.5313,25.8125 56.1406,24.6719 Q56.7656,23.5156 57.8594,22.9063 Q58.9531,22.2813 60.1875,22.2813 Q60.9219,22.2813 61.5625,22.4531 Q62.2188,22.6094 62.7656,22.9688 Z "/><text fill="#000000" font-family="sans-serif" font-size="14" lengthAdjust="spacingAndGlyphs" textLength="216" x="74" y="26.5332">SemanticModelBridgeItemProvider</text><text fill="#000000" font-family="sans-serif" font-size="10" lengthAdjust="spacingAndGlyphs" textLength="135" x="114.5" y="39.9902">org.eclipse.epf.uma.provider</text></a><!--MD5=[3be05cea6a5fddf8fc7721abeac917b1]
reverse link org.eclipse.epf.uma.provider.SemanticModelBridgeItemProvider to org.eclipse.epf.uma.provider.SimpleSemanticModelElementItemProvider--><path codeLine="15" d="M169,67.38 C169,79.73 169,93.63 169,106.97 " fill="none" id="org.eclipse.epf.uma.provider.SemanticModelBridgeItemProvider-backto-org.eclipse.epf.uma.provider.SimpleSemanticModelElementItemProvider" style="stroke: #A80036; stroke-width: 1.0;"/><polygon fill="none" points="162,67.27,169,47.27,176,67.27,162,67.27" style="stroke: #A80036; stroke-width: 1.0;"/><text fill="#888888" font-family="sans-serif" font-size="10" lengthAdjust="spacingAndGlyphs" textLength="190" x="71" y="247.748">UMLDoclet 2.0.12, PlantUML 1.2020.16</text><!--MD5=[a0efdc7a64ddd48f170b62bfdc326d34]
@startuml
    set namespaceSeparator none
    hide empty fields
    hide empty methods

    class "<size:14>SimpleSemanticModelElementItemProvider\n<size:10>org.eclipse.epf.uma.provider" as org.eclipse.epf.uma.provider.SimpleSemanticModelElementItemProvider [[SimpleSemanticModelElementItemProvider.html]] {
        +SimpleSemanticModelElementItemProvider(AdapterFactory)
        +getPropertyDescriptors(Object): List<IItemPropertyDescriptor>
        +getImage(Object): Object
        +getText(Object): String
        +notifyChanged(Notification): void
    }

    class "<size:14>SemanticModelBridgeItemProvider\n<size:10>org.eclipse.epf.uma.provider" as org.eclipse.epf.uma.provider.SemanticModelBridgeItemProvider [[SemanticModelBridgeItemProvider.html]]

    org.eclipse.epf.uma.provider.SemanticModelBridgeItemProvider <|- - org.eclipse.epf.uma.provider.SimpleSemanticModelElementItemProvider

    center footer UMLDoclet 2.0.12, PlantUML 1.2020.16
@enduml

PlantUML version 1.2020.16(Sun Aug 23 22:20:43 CEST 2020)
(APACHE source distribution)
Java Runtime: Java(TM) SE Runtime Environment
JVM: Java HotSpot(TM) 64-Bit Server VM
Default Encoding: Cp1252
Language: es
Country: ES
--></g></svg>