<?xml version="1.0" encoding="UTF-8" standalone="no"?><svg xmlns="http://www.w3.org/2000/svg" xmlns:xlink="http://www.w3.org/1999/xlink" contentScriptType="application/ecmascript" contentStyleType="text/css" height="288px" preserveAspectRatio="none" style="width:393px;height:288px;" version="1.1" viewBox="0 0 393 288" width="393px" zoomAndPan="magnify"><defs><filter height="300%" id="f4wttzmfjoy4c" width="300%" x="-1" y="-1"><feGaussianBlur result="blurOut" stdDeviation="2.0"/><feColorMatrix in="blurOut" result="blurOut2" type="matrix" values="0 0 0 0 0 0 0 0 0 0 0 0 0 0 0 0 0 0 .4 0"/><feOffset dx="4.0" dy="4.0" in="blurOut2" result="blurOut3"/><feBlend in="SourceGraphic" in2="blurOut3" mode="normal"/></filter></defs><g><!--MD5=[19b011df1cf64921f4f392b208e5a4e9]
class org.eclipse.epf.uma.provider.TaskItemProvider--><a href="TaskItemProvider.html" target="_top" title="TaskItemProvider.html" xlink:actuate="onRequest" xlink:href="TaskItemProvider.html" xlink:show="new" xlink:title="TaskItemProvider.html" xlink:type="simple"><rect codeLine="5" fill="#FEFECE" filter="url(#f4wttzmfjoy4c)" height="145.0391" id="org.eclipse.epf.uma.provider.TaskItemProvider" style="stroke: #A80036; stroke-width: 1.5;" width="367" x="7" y="107"/><ellipse cx="118.75" cy="127.0938" fill="#ADD1B2" rx="11" ry="11" style="stroke: #A80036; stroke-width: 1.0;"/><path d="M121.5156,122.9688 Q121.6719,122.75 121.8594,122.6406 Q122.0469,122.5313 122.2656,122.5313 Q122.6406,122.5313 122.875,122.7969 Q123.1094,123.0469 123.1094,123.6563 L123.1094,125.1094 Q123.1094,125.7188 122.875,125.9844 Q122.6406,126.25 122.2656,126.25 Q121.9219,126.25 121.7188,126.0469 Q121.5156,125.8594 121.4063,125.3438 Q121.3594,124.9844 121.1719,124.7969 Q120.8438,124.4219 120.2344,124.2031 Q119.625,123.9844 119,123.9844 Q118.2344,123.9844 117.5938,124.3125 Q116.9688,124.6406 116.4688,125.3906 Q115.9844,126.1406 115.9844,127.1719 L115.9844,128.2656 Q115.9844,129.5 116.875,130.3281 Q117.7656,131.1406 119.3594,131.1406 Q120.2969,131.1406 120.9531,130.8906 Q121.3438,130.7344 121.7656,130.2969 Q122.0313,130.0313 122.1719,129.9531 Q122.3281,129.875 122.5313,129.875 Q122.8594,129.875 123.1094,130.1406 Q123.375,130.3906 123.375,130.7344 Q123.375,131.0781 123.0313,131.4844 Q122.5313,132.0625 121.7344,132.3906 Q120.6563,132.8438 119.3594,132.8438 Q117.8438,132.8438 116.6406,132.2188 Q115.6563,131.7188 114.9688,130.6563 Q114.2813,129.5781 114.2813,128.2969 L114.2813,127.1406 Q114.2813,125.8125 114.8906,124.6719 Q115.5156,123.5156 116.6094,122.9063 Q117.7031,122.2813 118.9375,122.2813 Q119.6719,122.2813 120.3125,122.4531 Q120.9688,122.6094 121.5156,122.9688 Z "/><text fill="#000000" font-family="sans-serif" font-size="14" lengthAdjust="spacingAndGlyphs" textLength="110" x="151.75" y="126.5332">TaskItemProvider</text><text fill="#000000" font-family="sans-serif" font-size="10" lengthAdjust="spacingAndGlyphs" textLength="135" x="139.25" y="139.9902">org.eclipse.epf.uma.provider</text><line style="stroke: #A80036; stroke-width: 1.5;" x1="8" x2="373" y1="147.1875" y2="147.1875"/><ellipse cx="18" cy="158.1875" fill="#84BE84" rx="3" ry="3" style="stroke: #038048; stroke-width: 1.0;"/><text fill="#000000" font-family="sans-serif" font-size="11" lengthAdjust="spacingAndGlyphs" textLength="166" x="27" y="162.6064">TaskItemProvider(AdapterFactory)</text><ellipse cx="18" cy="172.0234" fill="#84BE84" rx="3" ry="3" style="stroke: #038048; stroke-width: 1.0;"/><text fill="#000000" font-family="sans-serif" font-size="11" lengthAdjust="spacingAndGlyphs" textLength="298" x="27" y="176.4424">getPropertyDescriptors(Object): List&lt;IItemPropertyDescriptor&gt;</text><ellipse cx="18" cy="185.8594" fill="#84BE84" rx="3" ry="3" style="stroke: #038048; stroke-width: 1.0;"/><text fill="#000000" font-family="sans-serif" font-size="11" lengthAdjust="spacingAndGlyphs" textLength="341" x="27" y="190.2783">getChildrenFeatures(Object): Collection&lt;? extends EStructuralFeature&gt;</text><ellipse cx="18" cy="199.6953" fill="#84BE84" rx="3" ry="3" style="stroke: #038048; stroke-width: 1.0;"/><text fill="#000000" font-family="sans-serif" font-size="11" lengthAdjust="spacingAndGlyphs" textLength="119" x="27" y="204.1143">getImage(Object): Object</text><ellipse cx="18" cy="213.5313" fill="#84BE84" rx="3" ry="3" style="stroke: #038048; stroke-width: 1.0;"/><text fill="#000000" font-family="sans-serif" font-size="11" lengthAdjust="spacingAndGlyphs" textLength="109" x="27" y="217.9502">getText(Object): String</text><ellipse cx="18" cy="227.3672" fill="#84BE84" rx="3" ry="3" style="stroke: #038048; stroke-width: 1.0;"/><text fill="#000000" font-family="sans-serif" font-size="11" lengthAdjust="spacingAndGlyphs" textLength="157" x="27" y="231.7861">notifyChanged(Notification): void</text><ellipse cx="18" cy="241.2031" fill="#84BE84" rx="3" ry="3" style="stroke: #038048; stroke-width: 1.0;"/><text fill="#000000" font-family="sans-serif" font-size="11" lengthAdjust="spacingAndGlyphs" textLength="308" x="27" y="245.6221">getCreateChildText(Object, Object, Object, Collection&lt;?&gt;): String</text></a><!--MD5=[4016343f8d6f5b939b649f5cb8d77d02]
class org.eclipse.epf.uma.provider.ContentElementItemProvider--><a href="ContentElementItemProvider.html" target="_top" title="ContentElementItemProvider.html" xlink:actuate="onRequest" xlink:href="ContentElementItemProvider.html" xlink:show="new" xlink:title="ContentElementItemProvider.html" xlink:type="simple"><rect codeLine="15" fill="#FEFECE" filter="url(#f4wttzmfjoy4c)" height="40.1875" id="org.eclipse.epf.uma.provider.ContentElementItemProvider" style="stroke: #A80036; stroke-width: 1.5;" width="212" x="84.5" y="7"/><ellipse cx="99.5" cy="27.0938" fill="#ADD1B2" rx="11" ry="11" style="stroke: #A80036; stroke-width: 1.0;"/><path d="M102.2656,22.9688 Q102.4219,22.75 102.6094,22.6406 Q102.7969,22.5313 103.0156,22.5313 Q103.3906,22.5313 103.625,22.7969 Q103.8594,23.0469 103.8594,23.6563 L103.8594,25.1094 Q103.8594,25.7188 103.625,25.9844 Q103.3906,26.25 103.0156,26.25 Q102.6719,26.25 102.4688,26.0469 Q102.2656,25.8594 102.1563,25.3438 Q102.1094,24.9844 101.9219,24.7969 Q101.5938,24.4219 100.9844,24.2031 Q100.375,23.9844 99.75,23.9844 Q98.9844,23.9844 98.3438,24.3125 Q97.7188,24.6406 97.2188,25.3906 Q96.7344,26.1406 96.7344,27.1719 L96.7344,28.2656 Q96.7344,29.5 97.625,30.3281 Q98.5156,31.1406 100.1094,31.1406 Q101.0469,31.1406 101.7031,30.8906 Q102.0938,30.7344 102.5156,30.2969 Q102.7813,30.0313 102.9219,29.9531 Q103.0781,29.875 103.2813,29.875 Q103.6094,29.875 103.8594,30.1406 Q104.125,30.3906 104.125,30.7344 Q104.125,31.0781 103.7813,31.4844 Q103.2813,32.0625 102.4844,32.3906 Q101.4063,32.8438 100.1094,32.8438 Q98.5938,32.8438 97.3906,32.2188 Q96.4063,31.7188 95.7188,30.6563 Q95.0313,29.5781 95.0313,28.2969 L95.0313,27.1406 Q95.0313,25.8125 95.6406,24.6719 Q96.2656,23.5156 97.3594,22.9063 Q98.4531,22.2813 99.6875,22.2813 Q100.4219,22.2813 101.0625,22.4531 Q101.7188,22.6094 102.2656,22.9688 Z "/><text fill="#000000" font-family="sans-serif" font-size="14" lengthAdjust="spacingAndGlyphs" textLength="180" x="113.5" y="26.5332">ContentElementItemProvider</text><text fill="#000000" font-family="sans-serif" font-size="10" lengthAdjust="spacingAndGlyphs" textLength="135" x="136" y="39.9902">org.eclipse.epf.uma.provider</text></a><!--MD5=[55e96162858270e878beedf884f034bf]
reverse link org.eclipse.epf.uma.provider.ContentElementItemProvider to org.eclipse.epf.uma.provider.TaskItemProvider--><path codeLine="17" d="M190.5,67.32 C190.5,79.44 190.5,93.19 190.5,106.79 " fill="none" id="org.eclipse.epf.uma.provider.ContentElementItemProvider-backto-org.eclipse.epf.uma.provider.TaskItemProvider" style="stroke: #A80036; stroke-width: 1.0;"/><polygon fill="none" points="183.5,67.06,190.5,47.06,197.5,67.06,183.5,67.06" style="stroke: #A80036; stroke-width: 1.0;"/><text fill="#888888" font-family="sans-serif" font-size="10" lengthAdjust="spacingAndGlyphs" textLength="190" x="92.5" y="275.4199">UMLDoclet 2.0.12, PlantUML 1.2020.16</text><!--MD5=[a25bc33645eb728323f487ed688e7aa6]
@startuml
    set namespaceSeparator none
    hide empty fields
    hide empty methods

    class "<size:14>TaskItemProvider\n<size:10>org.eclipse.epf.uma.provider" as org.eclipse.epf.uma.provider.TaskItemProvider [[TaskItemProvider.html]] {
        +TaskItemProvider(AdapterFactory)
        +getPropertyDescriptors(Object): List<IItemPropertyDescriptor>
        +getChildrenFeatures(Object): Collection<? extends EStructuralFeature>
        +getImage(Object): Object
        +getText(Object): String
        +notifyChanged(Notification): void
        +getCreateChildText(Object, Object, Object, Collection<?>): String
    }

    class "<size:14>ContentElementItemProvider\n<size:10>org.eclipse.epf.uma.provider" as org.eclipse.epf.uma.provider.ContentElementItemProvider [[ContentElementItemProvider.html]]

    org.eclipse.epf.uma.provider.ContentElementItemProvider <|- - org.eclipse.epf.uma.provider.TaskItemProvider

    center footer UMLDoclet 2.0.12, PlantUML 1.2020.16
@enduml

PlantUML version 1.2020.16(Sun Aug 23 22:20:43 CEST 2020)
(APACHE source distribution)
Java Runtime: Java(TM) SE Runtime Environment
JVM: Java HotSpot(TM) 64-Bit Server VM
Default Encoding: Cp1252
Language: es
Country: ES
--></g></svg>