<?xml version="1.0" encoding="UTF-8" standalone="no"?><svg xmlns="http://www.w3.org/2000/svg" xmlns:xlink="http://www.w3.org/1999/xlink" contentScriptType="application/ecmascript" contentStyleType="text/css" height="261px" preserveAspectRatio="none" style="width:350px;height:261px;" version="1.1" viewBox="0 0 350 261" width="350px" zoomAndPan="magnify"><defs><filter height="300%" id="fpmmacseojvau" width="300%" x="-1" y="-1"><feGaussianBlur result="blurOut" stdDeviation="2.0"/><feColorMatrix in="blurOut" result="blurOut2" type="matrix" values="0 0 0 0 0 0 0 0 0 0 0 0 0 0 0 0 0 0 .4 0"/><feOffset dx="4.0" dy="4.0" in="blurOut2" result="blurOut3"/><feBlend in="SourceGraphic" in2="blurOut3" mode="normal"/></filter></defs><g><!--MD5=[ac4baca636bf0ce7d3c907b54187ee37]
class org.eclipse.epf.uma.provider.TeamProfileItemProvider--><a href="TeamProfileItemProvider.html" target="_top" title="TeamProfileItemProvider.html" xlink:actuate="onRequest" xlink:href="TeamProfileItemProvider.html" xlink:show="new" xlink:title="TeamProfileItemProvider.html" xlink:type="simple"><rect codeLine="5" fill="#FEFECE" filter="url(#fpmmacseojvau)" height="117.3672" id="org.eclipse.epf.uma.provider.TeamProfileItemProvider" style="stroke: #A80036; stroke-width: 1.5;" width="324" x="7" y="107"/><ellipse cx="87.25" cy="127.0938" fill="#ADD1B2" rx="11" ry="11" style="stroke: #A80036; stroke-width: 1.0;"/><path d="M90.0156,122.9688 Q90.1719,122.75 90.3594,122.6406 Q90.5469,122.5313 90.7656,122.5313 Q91.1406,122.5313 91.375,122.7969 Q91.6094,123.0469 91.6094,123.6563 L91.6094,125.1094 Q91.6094,125.7188 91.375,125.9844 Q91.1406,126.25 90.7656,126.25 Q90.4219,126.25 90.2188,126.0469 Q90.0156,125.8594 89.9063,125.3438 Q89.8594,124.9844 89.6719,124.7969 Q89.3438,124.4219 88.7344,124.2031 Q88.125,123.9844 87.5,123.9844 Q86.7344,123.9844 86.0938,124.3125 Q85.4688,124.6406 84.9688,125.3906 Q84.4844,126.1406 84.4844,127.1719 L84.4844,128.2656 Q84.4844,129.5 85.375,130.3281 Q86.2656,131.1406 87.8594,131.1406 Q88.7969,131.1406 89.4531,130.8906 Q89.8438,130.7344 90.2656,130.2969 Q90.5313,130.0313 90.6719,129.9531 Q90.8281,129.875 91.0313,129.875 Q91.3594,129.875 91.6094,130.1406 Q91.875,130.3906 91.875,130.7344 Q91.875,131.0781 91.5313,131.4844 Q91.0313,132.0625 90.2344,132.3906 Q89.1563,132.8438 87.8594,132.8438 Q86.3438,132.8438 85.1406,132.2188 Q84.1563,131.7188 83.4688,130.6563 Q82.7813,129.5781 82.7813,128.2969 L82.7813,127.1406 Q82.7813,125.8125 83.3906,124.6719 Q84.0156,123.5156 85.1094,122.9063 Q86.2031,122.2813 87.4375,122.2813 Q88.1719,122.2813 88.8125,122.4531 Q89.4688,122.6094 90.0156,122.9688 Z "/><text fill="#000000" font-family="sans-serif" font-size="14" lengthAdjust="spacingAndGlyphs" textLength="155" x="107.75" y="126.5332">TeamProfileItemProvider</text><text fill="#000000" font-family="sans-serif" font-size="10" lengthAdjust="spacingAndGlyphs" textLength="135" x="117.75" y="139.9902">org.eclipse.epf.uma.provider</text><line style="stroke: #A80036; stroke-width: 1.5;" x1="8" x2="330" y1="147.1875" y2="147.1875"/><ellipse cx="18" cy="158.1875" fill="#84BE84" rx="3" ry="3" style="stroke: #038048; stroke-width: 1.0;"/><text fill="#000000" font-family="sans-serif" font-size="11" lengthAdjust="spacingAndGlyphs" textLength="199" x="27" y="162.6064">TeamProfileItemProvider(AdapterFactory)</text><ellipse cx="18" cy="172.0234" fill="#84BE84" rx="3" ry="3" style="stroke: #038048; stroke-width: 1.0;"/><text fill="#000000" font-family="sans-serif" font-size="11" lengthAdjust="spacingAndGlyphs" textLength="298" x="27" y="176.4424">getPropertyDescriptors(Object): List&lt;IItemPropertyDescriptor&gt;</text><ellipse cx="18" cy="185.8594" fill="#84BE84" rx="3" ry="3" style="stroke: #038048; stroke-width: 1.0;"/><text fill="#000000" font-family="sans-serif" font-size="11" lengthAdjust="spacingAndGlyphs" textLength="119" x="27" y="190.2783">getImage(Object): Object</text><ellipse cx="18" cy="199.6953" fill="#84BE84" rx="3" ry="3" style="stroke: #038048; stroke-width: 1.0;"/><text fill="#000000" font-family="sans-serif" font-size="11" lengthAdjust="spacingAndGlyphs" textLength="109" x="27" y="204.1143">getText(Object): String</text><ellipse cx="18" cy="213.5313" fill="#84BE84" rx="3" ry="3" style="stroke: #038048; stroke-width: 1.0;"/><text fill="#000000" font-family="sans-serif" font-size="11" lengthAdjust="spacingAndGlyphs" textLength="157" x="27" y="217.9502">notifyChanged(Notification): void</text></a><!--MD5=[4d733c9b63805ad9f8a76e566aef6752]
class org.eclipse.epf.uma.provider.BreakdownElementItemProvider--><a href="BreakdownElementItemProvider.html" target="_top" title="BreakdownElementItemProvider.html" xlink:actuate="onRequest" xlink:href="BreakdownElementItemProvider.html" xlink:show="new" xlink:title="BreakdownElementItemProvider.html" xlink:type="simple"><rect codeLine="13" fill="#FEFECE" filter="url(#fpmmacseojvau)" height="40.1875" id="org.eclipse.epf.uma.provider.BreakdownElementItemProvider" style="stroke: #A80036; stroke-width: 1.5;" width="232" x="53" y="7"/><ellipse cx="68" cy="27.0938" fill="#ADD1B2" rx="11" ry="11" style="stroke: #A80036; stroke-width: 1.0;"/><path d="M70.7656,22.9688 Q70.9219,22.75 71.1094,22.6406 Q71.2969,22.5313 71.5156,22.5313 Q71.8906,22.5313 72.125,22.7969 Q72.3594,23.0469 72.3594,23.6563 L72.3594,25.1094 Q72.3594,25.7188 72.125,25.9844 Q71.8906,26.25 71.5156,26.25 Q71.1719,26.25 70.9688,26.0469 Q70.7656,25.8594 70.6563,25.3438 Q70.6094,24.9844 70.4219,24.7969 Q70.0938,24.4219 69.4844,24.2031 Q68.875,23.9844 68.25,23.9844 Q67.4844,23.9844 66.8438,24.3125 Q66.2188,24.6406 65.7188,25.3906 Q65.2344,26.1406 65.2344,27.1719 L65.2344,28.2656 Q65.2344,29.5 66.125,30.3281 Q67.0156,31.1406 68.6094,31.1406 Q69.5469,31.1406 70.2031,30.8906 Q70.5938,30.7344 71.0156,30.2969 Q71.2813,30.0313 71.4219,29.9531 Q71.5781,29.875 71.7813,29.875 Q72.1094,29.875 72.3594,30.1406 Q72.625,30.3906 72.625,30.7344 Q72.625,31.0781 72.2813,31.4844 Q71.7813,32.0625 70.9844,32.3906 Q69.9063,32.8438 68.6094,32.8438 Q67.0938,32.8438 65.8906,32.2188 Q64.9063,31.7188 64.2188,30.6563 Q63.5313,29.5781 63.5313,28.2969 L63.5313,27.1406 Q63.5313,25.8125 64.1406,24.6719 Q64.7656,23.5156 65.8594,22.9063 Q66.9531,22.2813 68.1875,22.2813 Q68.9219,22.2813 69.5625,22.4531 Q70.2188,22.6094 70.7656,22.9688 Z "/><text fill="#000000" font-family="sans-serif" font-size="14" lengthAdjust="spacingAndGlyphs" textLength="200" x="82" y="26.5332">BreakdownElementItemProvider</text><text fill="#000000" font-family="sans-serif" font-size="10" lengthAdjust="spacingAndGlyphs" textLength="135" x="114.5" y="39.9902">org.eclipse.epf.uma.provider</text></a><!--MD5=[95e7e0ed6c663bcc455446711cef09f4]
reverse link org.eclipse.epf.uma.provider.BreakdownElementItemProvider to org.eclipse.epf.uma.provider.TeamProfileItemProvider--><path codeLine="15" d="M169,67.38 C169,79.73 169,93.63 169,106.97 " fill="none" id="org.eclipse.epf.uma.provider.BreakdownElementItemProvider-backto-org.eclipse.epf.uma.provider.TeamProfileItemProvider" style="stroke: #A80036; stroke-width: 1.0;"/><polygon fill="none" points="162,67.27,169,47.27,176,67.27,162,67.27" style="stroke: #A80036; stroke-width: 1.0;"/><text fill="#888888" font-family="sans-serif" font-size="10" lengthAdjust="spacingAndGlyphs" textLength="190" x="71" y="247.748">UMLDoclet 2.0.12, PlantUML 1.2020.16</text><!--MD5=[15d4978422601b09de455ae9f81ec9e9]
@startuml
    set namespaceSeparator none
    hide empty fields
    hide empty methods

    class "<size:14>TeamProfileItemProvider\n<size:10>org.eclipse.epf.uma.provider" as org.eclipse.epf.uma.provider.TeamProfileItemProvider [[TeamProfileItemProvider.html]] {
        +TeamProfileItemProvider(AdapterFactory)
        +getPropertyDescriptors(Object): List<IItemPropertyDescriptor>
        +getImage(Object): Object
        +getText(Object): String
        +notifyChanged(Notification): void
    }

    class "<size:14>BreakdownElementItemProvider\n<size:10>org.eclipse.epf.uma.provider" as org.eclipse.epf.uma.provider.BreakdownElementItemProvider [[BreakdownElementItemProvider.html]]

    org.eclipse.epf.uma.provider.BreakdownElementItemProvider <|- - org.eclipse.epf.uma.provider.TeamProfileItemProvider

    center footer UMLDoclet 2.0.12, PlantUML 1.2020.16
@enduml

PlantUML version 1.2020.16(Sun Aug 23 22:20:43 CEST 2020)
(APACHE source distribution)
Java Runtime: Java(TM) SE Runtime Environment
JVM: Java HotSpot(TM) 64-Bit Server VM
Default Encoding: Cp1252
Language: es
Country: ES
--></g></svg>