<?xml version="1.0" encoding="UTF-8" standalone="no"?><svg xmlns="http://www.w3.org/2000/svg" xmlns:xlink="http://www.w3.org/1999/xlink" contentScriptType="application/ecmascript" contentStyleType="text/css" height="364px" preserveAspectRatio="none" style="width:282px;height:364px;" version="1.1" viewBox="0 0 282 364" width="282px" zoomAndPan="magnify"><defs><filter height="300%" id="f13uamattunrri" width="300%" x="-1" y="-1"><feGaussianBlur result="blurOut" stdDeviation="2.0"/><feColorMatrix in="blurOut" result="blurOut2" type="matrix" values="0 0 0 0 0 0 0 0 0 0 0 0 0 0 0 0 0 0 .4 0"/><feOffset dx="4.0" dy="4.0" in="blurOut2" result="blurOut3"/><feBlend in="SourceGraphic" in2="blurOut3" mode="normal"/></filter></defs><g><!--MD5=[7c4259884db90277c92ece7a144fd14d]
class org.eclipse.epf.uma.provider.UmaEditPlugin--><a href="UmaEditPlugin.html" target="_top" title="UmaEditPlugin.html" xlink:actuate="onRequest" xlink:href="UmaEditPlugin.html" xlink:show="new" xlink:title="UmaEditPlugin.html" xlink:type="simple"><rect codeLine="5" fill="#FEFECE" filter="url(#f13uamattunrri)" height="97.6953" id="org.eclipse.epf.uma.provider.UmaEditPlugin" style="stroke: #A80036; stroke-width: 1.5;" width="251" x="9.5" y="129"/><ellipse cx="63.25" cy="149.0938" fill="#ADD1B2" rx="11" ry="11" style="stroke: #A80036; stroke-width: 1.0;"/><path d="M66.0156,144.9688 Q66.1719,144.75 66.3594,144.6406 Q66.5469,144.5313 66.7656,144.5313 Q67.1406,144.5313 67.375,144.7969 Q67.6094,145.0469 67.6094,145.6563 L67.6094,147.1094 Q67.6094,147.7188 67.375,147.9844 Q67.1406,148.25 66.7656,148.25 Q66.4219,148.25 66.2188,148.0469 Q66.0156,147.8594 65.9063,147.3438 Q65.8594,146.9844 65.6719,146.7969 Q65.3438,146.4219 64.7344,146.2031 Q64.125,145.9844 63.5,145.9844 Q62.7344,145.9844 62.0938,146.3125 Q61.4688,146.6406 60.9688,147.3906 Q60.4844,148.1406 60.4844,149.1719 L60.4844,150.2656 Q60.4844,151.5 61.375,152.3281 Q62.2656,153.1406 63.8594,153.1406 Q64.7969,153.1406 65.4531,152.8906 Q65.8438,152.7344 66.2656,152.2969 Q66.5313,152.0313 66.6719,151.9531 Q66.8281,151.875 67.0313,151.875 Q67.3594,151.875 67.6094,152.1406 Q67.875,152.3906 67.875,152.7344 Q67.875,153.0781 67.5313,153.4844 Q67.0313,154.0625 66.2344,154.3906 Q65.1563,154.8438 63.8594,154.8438 Q62.3438,154.8438 61.1406,154.2188 Q60.1563,153.7188 59.4688,152.6563 Q58.7813,151.5781 58.7813,150.2969 L58.7813,149.1406 Q58.7813,147.8125 59.3906,146.6719 Q60.0156,145.5156 61.1094,144.9063 Q62.2031,144.2813 63.4375,144.2813 Q64.1719,144.2813 64.8125,144.4531 Q65.4688,144.6094 66.0156,144.9688 Z "/><text fill="#000000" font-family="sans-serif" font-size="14" lengthAdjust="spacingAndGlyphs" textLength="91" x="105.75" y="148.5332">UmaEditPlugin</text><text fill="#000000" font-family="sans-serif" font-size="10" lengthAdjust="spacingAndGlyphs" textLength="135" x="83.75" y="161.9902">org.eclipse.epf.uma.provider</text><line style="stroke: #A80036; stroke-width: 1.5;" x1="10.5" x2="259.5" y1="169.1875" y2="169.1875"/><ellipse cx="20.5" cy="180.1875" fill="none" rx="3" ry="3" style="stroke: #038048; stroke-width: 1.0;"/><text fill="#000000" font-family="sans-serif" font-size="11" lengthAdjust="spacingAndGlyphs" text-decoration="underline" textLength="122" x="29.5" y="184.6064">INSTANCE: UmaEditPlugin</text><line style="stroke: #A80036; stroke-width: 1.5;" x1="10.5" x2="259.5" y1="191.0234" y2="191.0234"/><ellipse cx="20.5" cy="202.0234" fill="#84BE84" rx="3" ry="3" style="stroke: #038048; stroke-width: 1.0;"/><text fill="#000000" font-family="sans-serif" font-size="11" lengthAdjust="spacingAndGlyphs" textLength="225" x="29.5" y="206.4424">getPluginResourceLocator(): ResourceLocator</text><ellipse cx="20.5" cy="215.8594" fill="#84BE84" rx="3" ry="3" style="stroke: #038048; stroke-width: 1.0;"/><text fill="#000000" font-family="sans-serif" font-size="11" lengthAdjust="spacingAndGlyphs" text-decoration="underline" textLength="127" x="29.5" y="220.2783">getPlugin(): Implementation</text></a><!--MD5=[f58696c35037629c5852628dc70d81bd]
class org.eclipse.emf.common.EMFPlugin--><rect codeLine="11" fill="#FEFECE" filter="url(#f13uamattunrri)" height="62.0234" id="org.eclipse.emf.common.EMFPlugin" style="stroke: #A80036; stroke-width: 1.5;" width="256" x="7" y="7"/><ellipse cx="75.25" cy="27.0938" fill="#A9DCDF" rx="11" ry="11" style="stroke: #A80036; stroke-width: 1.0;"/><path d="M77.4375,28.8594 L73.2969,28.8594 L72.875,29.8906 L73.2969,29.8906 Q73.9063,29.8906 74.1719,30.125 Q74.4375,30.3594 74.4375,30.75 Q74.4375,31.125 74.1719,31.3594 Q73.9063,31.5938 73.2969,31.5938 L71,31.5938 Q70.3906,31.5938 70.1406,31.3594 Q69.875,31.125 69.875,30.7344 Q69.875,30.3594 70.1563,30.125 Q70.4219,29.875 71.0469,29.8906 L73.7188,23.2344 L72.6094,23.2344 Q72,23.2344 71.7344,23 Q71.4688,22.7656 71.4688,22.375 Q71.4688,22 71.7344,21.7656 Q72,21.5313 72.6094,21.5313 L76.2813,21.5313 L79.6719,29.8906 Q80.2656,29.8906 80.4531,30.0313 Q80.8438,30.2969 80.8438,30.75 Q80.8438,31.125 80.5781,31.3594 Q80.3281,31.5938 79.7188,31.5938 L77.4219,31.5938 Q76.8125,31.5938 76.5469,31.3594 Q76.2813,31.125 76.2813,30.7344 Q76.2813,30.3594 76.5469,30.125 Q76.8125,29.8906 77.4219,29.8906 L77.8438,29.8906 L77.4375,28.8594 Z M76.7188,27.1563 L75.3594,23.7813 L73.9844,27.1563 L76.7188,27.1563 Z "/><text fill="#000000" font-family="sans-serif" font-size="14" font-style="italic" lengthAdjust="spacingAndGlyphs" textLength="69" x="116.75" y="26.5332">EMFPlugin</text><text fill="#000000" font-family="sans-serif" font-size="10" font-style="italic" lengthAdjust="spacingAndGlyphs" textLength="111" x="95.75" y="39.9902">org.eclipse.emf.common</text><line style="stroke: #A80036; stroke-width: 1.5;" x1="8" x2="262" y1="47.1875" y2="47.1875"/><ellipse cx="18" cy="58.1875" fill="#84BE84" rx="3" ry="3" style="stroke: #038048; stroke-width: 1.0;"/><text fill="#000000" font-family="sans-serif" font-size="11" font-style="italic" lengthAdjust="spacingAndGlyphs" textLength="230" x="27" y="62.6064">getPluginResourceLocator(): ResourceLocator</text><!--MD5=[f3ed2aee97142d35520afe12bfea3d4f]
class org.eclipse.epf.uma.provider.UmaEditPlugin.Implementation--><a href="UmaEditPlugin.Implementation.html" target="_top" title="UmaEditPlugin.Implementation.html" xlink:actuate="onRequest" xlink:href="UmaEditPlugin.Implementation.html" xlink:show="new" xlink:title="UmaEditPlugin.Implementation.html" xlink:type="simple"><rect codeLine="14" fill="#FEFECE" filter="url(#f13uamattunrri)" height="40.1875" id="org.eclipse.epf.uma.provider.UmaEditPlugin.Implementation" style="stroke: #A80036; stroke-width: 1.5;" width="222" x="24" y="287"/><ellipse cx="39" cy="307.0938" fill="#ADD1B2" rx="11" ry="11" style="stroke: #A80036; stroke-width: 1.0;"/><path d="M41.7656,302.9688 Q41.9219,302.75 42.1094,302.6406 Q42.2969,302.5313 42.5156,302.5313 Q42.8906,302.5313 43.125,302.7969 Q43.3594,303.0469 43.3594,303.6563 L43.3594,305.1094 Q43.3594,305.7188 43.125,305.9844 Q42.8906,306.25 42.5156,306.25 Q42.1719,306.25 41.9688,306.0469 Q41.7656,305.8594 41.6563,305.3438 Q41.6094,304.9844 41.4219,304.7969 Q41.0938,304.4219 40.4844,304.2031 Q39.875,303.9844 39.25,303.9844 Q38.4844,303.9844 37.8438,304.3125 Q37.2188,304.6406 36.7188,305.3906 Q36.2344,306.1406 36.2344,307.1719 L36.2344,308.2656 Q36.2344,309.5 37.125,310.3281 Q38.0156,311.1406 39.6094,311.1406 Q40.5469,311.1406 41.2031,310.8906 Q41.5938,310.7344 42.0156,310.2969 Q42.2813,310.0313 42.4219,309.9531 Q42.5781,309.875 42.7813,309.875 Q43.1094,309.875 43.3594,310.1406 Q43.625,310.3906 43.625,310.7344 Q43.625,311.0781 43.2813,311.4844 Q42.7813,312.0625 41.9844,312.3906 Q40.9063,312.8438 39.6094,312.8438 Q38.0938,312.8438 36.8906,312.2188 Q35.9063,311.7188 35.2188,310.6563 Q34.5313,309.5781 34.5313,308.2969 L34.5313,307.1406 Q34.5313,305.8125 35.1406,304.6719 Q35.7656,303.5156 36.8594,302.9063 Q37.9531,302.2813 39.1875,302.2813 Q39.9219,302.2813 40.5625,302.4531 Q41.2188,302.6094 41.7656,302.9688 Z "/><text fill="#000000" font-family="sans-serif" font-size="14" lengthAdjust="spacingAndGlyphs" textLength="190" x="53" y="306.5332">UmaEditPlugin.Implementation</text><text fill="#000000" font-family="sans-serif" font-size="10" lengthAdjust="spacingAndGlyphs" textLength="135" x="80.5" y="319.9902">org.eclipse.epf.uma.provider</text></a><!--MD5=[af02e25e7c471513ff527e32506cd84c]
reverse link org.eclipse.emf.common.EMFPlugin to org.eclipse.epf.uma.provider.UmaEditPlugin--><path codeLine="16" d="M135,89.65 C135,102.47 135,116.2 135,128.89 " fill="none" id="org.eclipse.emf.common.EMFPlugin-backto-org.eclipse.epf.uma.provider.UmaEditPlugin" style="stroke: #A80036; stroke-width: 1.0;"/><polygon fill="none" points="128,89.28,135,69.28,142,89.28,128,89.28" style="stroke: #A80036; stroke-width: 1.0;"/><!--MD5=[68c88f12a003ab6cba8e427fedda2c98]
reverse link org.eclipse.epf.uma.provider.UmaEditPlugin to org.eclipse.epf.uma.provider.UmaEditPlugin.Implementation--><path codeLine="17" d="M135,242.15 C135,258.42 135,274.73 135,286.79 " fill="none" id="org.eclipse.epf.uma.provider.UmaEditPlugin-backto-org.eclipse.epf.uma.provider.UmaEditPlugin.Implementation" style="stroke: #A80036; stroke-width: 1.0;"/><ellipse cx="135" cy="235.01" fill="#FFFFFF" rx="8" ry="8" style="stroke: #A80036; stroke-width: 1.0;"/><line style="stroke: #A80036; stroke-width: 1.0;" x1="135" x2="135" y1="243.01" y2="227.01"/><line style="stroke: #A80036; stroke-width: 1.0;" x1="127" x2="143" y1="235.01" y2="235.01"/><text fill="#888888" font-family="sans-serif" font-size="10" lengthAdjust="spacingAndGlyphs" textLength="190" x="37" y="350.5684">UMLDoclet 2.0.12, PlantUML 1.2020.16</text><!--MD5=[bc651df5c72877fe59626d003f1a6564]
@startuml
    set namespaceSeparator none
    hide empty fields
    hide empty methods

    class "<size:14>UmaEditPlugin\n<size:10>org.eclipse.epf.uma.provider" as org.eclipse.epf.uma.provider.UmaEditPlugin [[UmaEditPlugin.html]] {
        {static} +INSTANCE: UmaEditPlugin
        +getPluginResourceLocator(): ResourceLocator
        {static} +getPlugin(): Implementation
    }

    abstract class "<size:14>EMFPlugin\n<size:10>org.eclipse.emf.common" as org.eclipse.emf.common.EMFPlugin {
        {abstract} +getPluginResourceLocator(): ResourceLocator
    }
    class "<size:14>UmaEditPlugin.Implementation\n<size:10>org.eclipse.epf.uma.provider" as org.eclipse.epf.uma.provider.UmaEditPlugin.Implementation [[UmaEditPlugin.Implementation.html]]

    org.eclipse.emf.common.EMFPlugin <|- - org.eclipse.epf.uma.provider.UmaEditPlugin
    org.eclipse.epf.uma.provider.UmaEditPlugin +- - org.eclipse.epf.uma.provider.UmaEditPlugin.Implementation

    center footer UMLDoclet 2.0.12, PlantUML 1.2020.16
@enduml

PlantUML version 1.2020.16(Sun Aug 23 22:20:43 CEST 2020)
(APACHE source distribution)
Java Runtime: Java(TM) SE Runtime Environment
JVM: Java HotSpot(TM) 64-Bit Server VM
Default Encoding: Cp1252
Language: es
Country: ES
--></g></svg>