<?xml version="1.0" encoding="UTF-8" standalone="no"?><svg xmlns="http://www.w3.org/2000/svg" xmlns:xlink="http://www.w3.org/1999/xlink" contentScriptType="application/ecmascript" contentStyleType="text/css" height="184px" preserveAspectRatio="none" style="width:417px;height:184px;" version="1.1" viewBox="0 0 417 184" width="417px" zoomAndPan="magnify"><defs><filter height="300%" id="fpnkhw4hexn6b" width="300%" x="-1" y="-1"><feGaussianBlur result="blurOut" stdDeviation="2.0"/><feColorMatrix in="blurOut" result="blurOut2" type="matrix" values="0 0 0 0 0 0 0 0 0 0 0 0 0 0 0 0 0 0 .4 0"/><feOffset dx="4.0" dy="4.0" in="blurOut2" result="blurOut3"/><feBlend in="SourceGraphic" in2="blurOut3" mode="normal"/></filter></defs><g><!--MD5=[f3ed2aee97142d35520afe12bfea3d4f]
class org.eclipse.epf.uma.provider.UmaEditPlugin.Implementation--><a href="UmaEditPlugin.Implementation.html" target="_top" title="UmaEditPlugin.Implementation.html" xlink:actuate="onRequest" xlink:href="UmaEditPlugin.Implementation.html" xlink:show="new" xlink:title="UmaEditPlugin.Implementation.html" xlink:type="simple"><rect codeLine="5" fill="#FEFECE" filter="url(#fpnkhw4hexn6b)" height="40.1875" id="org.eclipse.epf.uma.provider.UmaEditPlugin.Implementation" style="stroke: #A80036; stroke-width: 1.5;" width="222" x="96.5" y="107"/><ellipse cx="111.5" cy="127.0938" fill="#ADD1B2" rx="11" ry="11" style="stroke: #A80036; stroke-width: 1.0;"/><path d="M114.2656,122.9688 Q114.4219,122.75 114.6094,122.6406 Q114.7969,122.5313 115.0156,122.5313 Q115.3906,122.5313 115.625,122.7969 Q115.8594,123.0469 115.8594,123.6563 L115.8594,125.1094 Q115.8594,125.7188 115.625,125.9844 Q115.3906,126.25 115.0156,126.25 Q114.6719,126.25 114.4688,126.0469 Q114.2656,125.8594 114.1563,125.3438 Q114.1094,124.9844 113.9219,124.7969 Q113.5938,124.4219 112.9844,124.2031 Q112.375,123.9844 111.75,123.9844 Q110.9844,123.9844 110.3438,124.3125 Q109.7188,124.6406 109.2188,125.3906 Q108.7344,126.1406 108.7344,127.1719 L108.7344,128.2656 Q108.7344,129.5 109.625,130.3281 Q110.5156,131.1406 112.1094,131.1406 Q113.0469,131.1406 113.7031,130.8906 Q114.0938,130.7344 114.5156,130.2969 Q114.7813,130.0313 114.9219,129.9531 Q115.0781,129.875 115.2813,129.875 Q115.6094,129.875 115.8594,130.1406 Q116.125,130.3906 116.125,130.7344 Q116.125,131.0781 115.7813,131.4844 Q115.2813,132.0625 114.4844,132.3906 Q113.4063,132.8438 112.1094,132.8438 Q110.5938,132.8438 109.3906,132.2188 Q108.4063,131.7188 107.7188,130.6563 Q107.0313,129.5781 107.0313,128.2969 L107.0313,127.1406 Q107.0313,125.8125 107.6406,124.6719 Q108.2656,123.5156 109.3594,122.9063 Q110.4531,122.2813 111.6875,122.2813 Q112.4219,122.2813 113.0625,122.4531 Q113.7188,122.6094 114.2656,122.9688 Z "/><text fill="#000000" font-family="sans-serif" font-size="14" lengthAdjust="spacingAndGlyphs" textLength="190" x="125.5" y="126.5332">UmaEditPlugin.Implementation</text><text fill="#000000" font-family="sans-serif" font-size="10" lengthAdjust="spacingAndGlyphs" textLength="135" x="153" y="139.9902">org.eclipse.epf.uma.provider</text></a><!--MD5=[8a23cb1dc26c080bf9c0c087de721d0e]
class org.eclipse.emf.common.EMFPlugin.EclipsePlugin--><rect codeLine="7" fill="#FEFECE" filter="url(#fpnkhw4hexn6b)" height="40.1875" id="org.eclipse.emf.common.EMFPlugin.EclipsePlugin" style="stroke: #A80036; stroke-width: 1.5;" width="189" x="7" y="7"/><ellipse cx="22" cy="27.0938" fill="#A9DCDF" rx="11" ry="11" style="stroke: #A80036; stroke-width: 1.0;"/><path d="M24.1875,28.8594 L20.0469,28.8594 L19.625,29.8906 L20.0469,29.8906 Q20.6563,29.8906 20.9219,30.125 Q21.1875,30.3594 21.1875,30.75 Q21.1875,31.125 20.9219,31.3594 Q20.6563,31.5938 20.0469,31.5938 L17.75,31.5938 Q17.1406,31.5938 16.8906,31.3594 Q16.625,31.125 16.625,30.7344 Q16.625,30.3594 16.9063,30.125 Q17.1719,29.875 17.7969,29.8906 L20.4688,23.2344 L19.3594,23.2344 Q18.75,23.2344 18.4844,23 Q18.2188,22.7656 18.2188,22.375 Q18.2188,22 18.4844,21.7656 Q18.75,21.5313 19.3594,21.5313 L23.0313,21.5313 L26.4219,29.8906 Q27.0156,29.8906 27.2031,30.0313 Q27.5938,30.2969 27.5938,30.75 Q27.5938,31.125 27.3281,31.3594 Q27.0781,31.5938 26.4688,31.5938 L24.1719,31.5938 Q23.5625,31.5938 23.2969,31.3594 Q23.0313,31.125 23.0313,30.7344 Q23.0313,30.3594 23.2969,30.125 Q23.5625,29.8906 24.1719,29.8906 L24.5938,29.8906 L24.1875,28.8594 Z M23.4688,27.1563 L22.1094,23.7813 L20.7344,27.1563 L23.4688,27.1563 Z "/><text fill="#000000" font-family="sans-serif" font-size="14" font-style="italic" lengthAdjust="spacingAndGlyphs" textLength="157" x="36" y="26.5332">EMFPlugin.EclipsePlugin</text><text fill="#000000" font-family="sans-serif" font-size="10" font-style="italic" lengthAdjust="spacingAndGlyphs" textLength="111" x="59" y="39.9902">org.eclipse.emf.common</text><!--MD5=[7c4259884db90277c92ece7a144fd14d]
class org.eclipse.epf.uma.provider.UmaEditPlugin--><a href="UmaEditPlugin.html" target="_top" title="UmaEditPlugin.html" xlink:actuate="onRequest" xlink:href="UmaEditPlugin.html" xlink:show="new" xlink:title="UmaEditPlugin.html" xlink:type="simple"><rect codeLine="8" fill="#FEFECE" filter="url(#fpnkhw4hexn6b)" height="40.1875" id="org.eclipse.epf.uma.provider.UmaEditPlugin" style="stroke: #A80036; stroke-width: 1.5;" width="167" x="231" y="7"/><ellipse cx="246" cy="27.0938" fill="#ADD1B2" rx="11" ry="11" style="stroke: #A80036; stroke-width: 1.0;"/><path d="M248.7656,22.9688 Q248.9219,22.75 249.1094,22.6406 Q249.2969,22.5313 249.5156,22.5313 Q249.8906,22.5313 250.125,22.7969 Q250.3594,23.0469 250.3594,23.6563 L250.3594,25.1094 Q250.3594,25.7188 250.125,25.9844 Q249.8906,26.25 249.5156,26.25 Q249.1719,26.25 248.9688,26.0469 Q248.7656,25.8594 248.6563,25.3438 Q248.6094,24.9844 248.4219,24.7969 Q248.0938,24.4219 247.4844,24.2031 Q246.875,23.9844 246.25,23.9844 Q245.4844,23.9844 244.8438,24.3125 Q244.2188,24.6406 243.7188,25.3906 Q243.2344,26.1406 243.2344,27.1719 L243.2344,28.2656 Q243.2344,29.5 244.125,30.3281 Q245.0156,31.1406 246.6094,31.1406 Q247.5469,31.1406 248.2031,30.8906 Q248.5938,30.7344 249.0156,30.2969 Q249.2813,30.0313 249.4219,29.9531 Q249.5781,29.875 249.7813,29.875 Q250.1094,29.875 250.3594,30.1406 Q250.625,30.3906 250.625,30.7344 Q250.625,31.0781 250.2813,31.4844 Q249.7813,32.0625 248.9844,32.3906 Q247.9063,32.8438 246.6094,32.8438 Q245.0938,32.8438 243.8906,32.2188 Q242.9063,31.7188 242.2188,30.6563 Q241.5313,29.5781 241.5313,28.2969 L241.5313,27.1406 Q241.5313,25.8125 242.1406,24.6719 Q242.7656,23.5156 243.8594,22.9063 Q244.9531,22.2813 246.1875,22.2813 Q246.9219,22.2813 247.5625,22.4531 Q248.2188,22.6094 248.7656,22.9688 Z "/><text fill="#000000" font-family="sans-serif" font-size="14" lengthAdjust="spacingAndGlyphs" textLength="91" x="282" y="26.5332">UmaEditPlugin</text><text fill="#000000" font-family="sans-serif" font-size="10" lengthAdjust="spacingAndGlyphs" textLength="135" x="260" y="39.9902">org.eclipse.epf.uma.provider</text></a><!--MD5=[aaa06f59d2ed3be4b76e9753bb561af8]
reverse link org.eclipse.emf.common.EMFPlugin.EclipsePlugin to org.eclipse.epf.uma.provider.UmaEditPlugin.Implementation--><path codeLine="10" d="M137.04,60.85 C153.6,76.17 172.72,93.85 186.86,106.92 " fill="none" id="org.eclipse.emf.common.EMFPlugin.EclipsePlugin-backto-org.eclipse.epf.uma.provider.UmaEditPlugin.Implementation" style="stroke: #A80036; stroke-width: 1.0;"/><polygon fill="none" points="132.12,65.85,122.19,47.13,141.63,55.57,132.12,65.85" style="stroke: #A80036; stroke-width: 1.0;"/><!--MD5=[68c88f12a003ab6cba8e427fedda2c98]
reverse link org.eclipse.epf.uma.provider.UmaEditPlugin to org.eclipse.epf.uma.provider.UmaEditPlugin.Implementation--><path codeLine="11" d="M282.46,57.35 C264.93,73.4 243.71,92.83 228.33,106.92 " fill="none" id="org.eclipse.epf.uma.provider.UmaEditPlugin-backto-org.eclipse.epf.uma.provider.UmaEditPlugin.Implementation" style="stroke: #A80036; stroke-width: 1.0;"/><ellipse cx="287.7209" cy="52.5337" fill="#FFFFFF" rx="8" ry="8" style="stroke: #A80036; stroke-width: 1.0;"/><line style="stroke: #A80036; stroke-width: 1.0;" x1="281.8217" x2="293.62" y1="57.9375" y2="47.13"/><line style="stroke: #A80036; stroke-width: 1.0;" x1="282.3171" x2="293.1246" y1="46.6346" y2="58.4329"/><text fill="#888888" font-family="sans-serif" font-size="10" lengthAdjust="spacingAndGlyphs" textLength="190" x="104.5" y="170.5684">UMLDoclet 2.0.12, PlantUML 1.2020.16</text><!--MD5=[90540e3f19567bb3f32df27bef2aa470]
@startuml
    set namespaceSeparator none
    hide empty fields
    hide empty methods

    class "<size:14>UmaEditPlugin.Implementation\n<size:10>org.eclipse.epf.uma.provider" as org.eclipse.epf.uma.provider.UmaEditPlugin.Implementation [[UmaEditPlugin.Implementation.html]]

    abstract class "<size:14>EMFPlugin.EclipsePlugin\n<size:10>org.eclipse.emf.common" as org.eclipse.emf.common.EMFPlugin.EclipsePlugin
    class "<size:14>UmaEditPlugin\n<size:10>org.eclipse.epf.uma.provider" as org.eclipse.epf.uma.provider.UmaEditPlugin [[UmaEditPlugin.html]]

    org.eclipse.emf.common.EMFPlugin.EclipsePlugin <|- - org.eclipse.epf.uma.provider.UmaEditPlugin.Implementation
    org.eclipse.epf.uma.provider.UmaEditPlugin +- - org.eclipse.epf.uma.provider.UmaEditPlugin.Implementation

    center footer UMLDoclet 2.0.12, PlantUML 1.2020.16
@enduml

PlantUML version 1.2020.16(Sun Aug 23 22:20:43 CEST 2020)
(APACHE source distribution)
Java Runtime: Java(TM) SE Runtime Environment
JVM: Java HotSpot(TM) 64-Bit Server VM
Default Encoding: Cp1252
Language: es
Country: ES
--></g></svg>