<?xml version="1.0" encoding="UTF-8" standalone="no"?><svg xmlns="http://www.w3.org/2000/svg" xmlns:xlink="http://www.w3.org/1999/xlink" contentScriptType="application/ecmascript" contentStyleType="text/css" height="1584px" preserveAspectRatio="none" style="width:1015px;height:1584px;" version="1.1" viewBox="0 0 1015 1584" width="1015px" zoomAndPan="magnify"><defs><filter height="300%" id="f1xk3157ndwagj" width="300%" x="-1" y="-1"><feGaussianBlur result="blurOut" stdDeviation="2.0"/><feColorMatrix in="blurOut" result="blurOut2" type="matrix" values="0 0 0 0 0 0 0 0 0 0 0 0 0 0 0 0 0 0 .4 0"/><feOffset dx="4.0" dy="4.0" in="blurOut2" result="blurOut3"/><feBlend in="SourceGraphic" in2="blurOut3" mode="normal"/></filter></defs><g><!--MD5=[dfe963c1f474e5a99f915a8d454a189a]
class org.eclipse.epf.uma.provider.UmaItemProviderAdapterFactory--><a href="UmaItemProviderAdapterFactory.html" target="_top" title="UmaItemProviderAdapterFactory.html" xlink:actuate="onRequest" xlink:href="UmaItemProviderAdapterFactory.html" xlink:show="new" xlink:title="UmaItemProviderAdapterFactory.html" xlink:type="simple"><rect codeLine="5" fill="#FEFECE" filter="url(#f1xk3157ndwagj)" height="1390.2734" id="org.eclipse.epf.uma.provider.UmaItemProviderAdapterFactory" style="stroke: #A80036; stroke-width: 1.5;" width="309" x="358.5" y="157"/><ellipse cx="406.25" cy="177.0938" fill="#ADD1B2" rx="11" ry="11" style="stroke: #A80036; stroke-width: 1.0;"/><path d="M409.0156,172.9688 Q409.1719,172.75 409.3594,172.6406 Q409.5469,172.5313 409.7656,172.5313 Q410.1406,172.5313 410.375,172.7969 Q410.6094,173.0469 410.6094,173.6563 L410.6094,175.1094 Q410.6094,175.7188 410.375,175.9844 Q410.1406,176.25 409.7656,176.25 Q409.4219,176.25 409.2188,176.0469 Q409.0156,175.8594 408.9063,175.3438 Q408.8594,174.9844 408.6719,174.7969 Q408.3438,174.4219 407.7344,174.2031 Q407.125,173.9844 406.5,173.9844 Q405.7344,173.9844 405.0938,174.3125 Q404.4688,174.6406 403.9688,175.3906 Q403.4844,176.1406 403.4844,177.1719 L403.4844,178.2656 Q403.4844,179.5 404.375,180.3281 Q405.2656,181.1406 406.8594,181.1406 Q407.7969,181.1406 408.4531,180.8906 Q408.8438,180.7344 409.2656,180.2969 Q409.5313,180.0313 409.6719,179.9531 Q409.8281,179.875 410.0313,179.875 Q410.3594,179.875 410.6094,180.1406 Q410.875,180.3906 410.875,180.7344 Q410.875,181.0781 410.5313,181.4844 Q410.0313,182.0625 409.2344,182.3906 Q408.1563,182.8438 406.8594,182.8438 Q405.3438,182.8438 404.1406,182.2188 Q403.1563,181.7188 402.4688,180.6563 Q401.7813,179.5781 401.7813,178.2969 L401.7813,177.1406 Q401.7813,175.8125 402.3906,174.6719 Q403.0156,173.5156 404.1094,172.9063 Q405.2031,172.2813 406.4375,172.2813 Q407.1719,172.2813 407.8125,172.4531 Q408.4688,172.6094 409.0156,172.9688 Z "/><text fill="#000000" font-family="sans-serif" font-size="14" lengthAdjust="spacingAndGlyphs" textLength="205" x="426.75" y="176.5332">UmaItemProviderAdapterFactory</text><text fill="#000000" font-family="sans-serif" font-size="10" lengthAdjust="spacingAndGlyphs" textLength="135" x="461.75" y="189.9902">org.eclipse.epf.uma.provider</text><line style="stroke: #A80036; stroke-width: 1.5;" x1="359.5" x2="666.5" y1="197.1875" y2="197.1875"/><ellipse cx="369.5" cy="208.1875" fill="#84BE84" rx="3" ry="3" style="stroke: #038048; stroke-width: 1.0;"/><text fill="#000000" font-family="sans-serif" font-size="11" lengthAdjust="spacingAndGlyphs" textLength="164" x="378.5" y="212.6064">createPackageAdapter(): Adapter</text><ellipse cx="369.5" cy="222.0234" fill="#84BE84" rx="3" ry="3" style="stroke: #038048; stroke-width: 1.0;"/><text fill="#000000" font-family="sans-serif" font-size="11" lengthAdjust="spacingAndGlyphs" textLength="172" x="378.5" y="226.4424">createConstraintAdapter(): Adapter</text><ellipse cx="369.5" cy="235.8594" fill="#84BE84" rx="3" ry="3" style="stroke: #038048; stroke-width: 1.0;"/><text fill="#000000" font-family="sans-serif" font-size="11" lengthAdjust="spacingAndGlyphs" textLength="236" x="378.5" y="240.2783">createMethodElementPropertyAdapter(): Adapter</text><ellipse cx="369.5" cy="249.6953" fill="#84BE84" rx="3" ry="3" style="stroke: #038048; stroke-width: 1.0;"/><text fill="#000000" font-family="sans-serif" font-size="11" lengthAdjust="spacingAndGlyphs" textLength="144" x="378.5" y="254.1143">createKindAdapter(): Adapter</text><ellipse cx="369.5" cy="263.5313" fill="#84BE84" rx="3" ry="3" style="stroke: #038048; stroke-width: 1.0;"/><text fill="#000000" font-family="sans-serif" font-size="11" lengthAdjust="spacingAndGlyphs" textLength="214" x="378.5" y="267.9502">createContentDescriptionAdapter(): Adapter</text><ellipse cx="369.5" cy="277.3672" fill="#84BE84" rx="3" ry="3" style="stroke: #038048; stroke-width: 1.0;"/><text fill="#000000" font-family="sans-serif" font-size="11" lengthAdjust="spacingAndGlyphs" textLength="212" x="378.5" y="281.7861">createSupportingMaterialAdapter(): Adapter</text><ellipse cx="369.5" cy="291.2031" fill="#84BE84" rx="3" ry="3" style="stroke: #038048; stroke-width: 1.0;"/><text fill="#000000" font-family="sans-serif" font-size="11" lengthAdjust="spacingAndGlyphs" textLength="159" x="378.5" y="295.6221">createSectionAdapter(): Adapter</text><ellipse cx="369.5" cy="305.0391" fill="#84BE84" rx="3" ry="3" style="stroke: #038048; stroke-width: 1.0;"/><text fill="#000000" font-family="sans-serif" font-size="11" lengthAdjust="spacingAndGlyphs" textLength="163" x="378.5" y="309.458">createConceptAdapter(): Adapter</text><ellipse cx="369.5" cy="318.875" fill="#84BE84" rx="3" ry="3" style="stroke: #038048; stroke-width: 1.0;"/><text fill="#000000" font-family="sans-serif" font-size="11" lengthAdjust="spacingAndGlyphs" textLength="166" x="378.5" y="323.2939">createChecklistAdapter(): Adapter</text><ellipse cx="369.5" cy="332.7109" fill="#84BE84" rx="3" ry="3" style="stroke: #038048; stroke-width: 1.0;"/><text fill="#000000" font-family="sans-serif" font-size="11" lengthAdjust="spacingAndGlyphs" textLength="167" x="378.5" y="337.1299">createGuidelineAdapter(): Adapter</text><ellipse cx="369.5" cy="346.5469" fill="#84BE84" rx="3" ry="3" style="stroke: #038048; stroke-width: 1.0;"/><text fill="#000000" font-family="sans-serif" font-size="11" lengthAdjust="spacingAndGlyphs" textLength="163" x="378.5" y="350.9658">createExampleAdapter(): Adapter</text><ellipse cx="369.5" cy="360.3828" fill="#84BE84" rx="3" ry="3" style="stroke: #038048; stroke-width: 1.0;"/><text fill="#000000" font-family="sans-serif" font-size="11" lengthAdjust="spacingAndGlyphs" textLength="197" x="378.5" y="364.8018">createReusableAssetAdapter(): Adapter</text><ellipse cx="369.5" cy="374.2188" fill="#84BE84" rx="3" ry="3" style="stroke: #038048; stroke-width: 1.0;"/><text fill="#000000" font-family="sans-serif" font-size="11" lengthAdjust="spacingAndGlyphs" textLength="191" x="378.5" y="378.6377">createTermDefinitionAdapter(): Adapter</text><ellipse cx="369.5" cy="388.0547" fill="#84BE84" rx="3" ry="3" style="stroke: #038048; stroke-width: 1.0;"/><text fill="#000000" font-family="sans-serif" font-size="11" lengthAdjust="spacingAndGlyphs" textLength="241" x="378.5" y="392.4736">createApplicableMetaClassInfoAdapter(): Adapter</text><ellipse cx="369.5" cy="401.8906" fill="#84BE84" rx="3" ry="3" style="stroke: #038048; stroke-width: 1.0;"/><text fill="#000000" font-family="sans-serif" font-size="11" lengthAdjust="spacingAndGlyphs" textLength="159" x="378.5" y="406.3096">createArtifactAdapter(): Adapter</text><ellipse cx="369.5" cy="415.7266" fill="#84BE84" rx="3" ry="3" style="stroke: #038048; stroke-width: 1.0;"/><text fill="#000000" font-family="sans-serif" font-size="11" lengthAdjust="spacingAndGlyphs" textLength="185" x="378.5" y="420.1455">createWorkProductAdapter(): Adapter</text><ellipse cx="369.5" cy="429.5625" fill="#84BE84" rx="3" ry="3" style="stroke: #038048; stroke-width: 1.0;"/><text fill="#000000" font-family="sans-serif" font-size="11" lengthAdjust="spacingAndGlyphs" textLength="204" x="378.5" y="433.9814">createFulfillableElementAdapter(): Adapter</text><ellipse cx="369.5" cy="443.3984" fill="#84BE84" rx="3" ry="3" style="stroke: #038048; stroke-width: 1.0;"/><text fill="#000000" font-family="sans-serif" font-size="11" lengthAdjust="spacingAndGlyphs" textLength="155" x="378.5" y="447.8174">createReportAdapter(): Adapter</text><ellipse cx="369.5" cy="457.2344" fill="#84BE84" rx="3" ry="3" style="stroke: #038048; stroke-width: 1.0;"/><text fill="#000000" font-family="sans-serif" font-size="11" lengthAdjust="spacingAndGlyphs" textLength="166" x="378.5" y="461.6533">createTemplateAdapter(): Adapter</text><ellipse cx="369.5" cy="471.0703" fill="#84BE84" rx="3" ry="3" style="stroke: #038048; stroke-width: 1.0;"/><text fill="#000000" font-family="sans-serif" font-size="11" lengthAdjust="spacingAndGlyphs" textLength="176" x="378.5" y="475.4893">createToolMentorAdapter(): Adapter</text><ellipse cx="369.5" cy="484.9063" fill="#84BE84" rx="3" ry="3" style="stroke: #038048; stroke-width: 1.0;"/><text fill="#000000" font-family="sans-serif" font-size="11" lengthAdjust="spacingAndGlyphs" textLength="243" x="378.5" y="489.3252">createEstimationConsiderationsAdapter(): Adapter</text><ellipse cx="369.5" cy="498.7422" fill="#84BE84" rx="3" ry="3" style="stroke: #038048; stroke-width: 1.0;"/><text fill="#000000" font-family="sans-serif" font-size="11" lengthAdjust="spacingAndGlyphs" textLength="176" x="378.5" y="503.1611">createDeliverableAdapter(): Adapter</text><ellipse cx="369.5" cy="512.5781" fill="#84BE84" rx="3" ry="3" style="stroke: #038048; stroke-width: 1.0;"/><text fill="#000000" font-family="sans-serif" font-size="11" lengthAdjust="spacingAndGlyphs" textLength="166" x="378.5" y="516.9971">createOutcomeAdapter(): Adapter</text><ellipse cx="369.5" cy="526.4141" fill="#84BE84" rx="3" ry="3" style="stroke: #038048; stroke-width: 1.0;"/><text fill="#000000" font-family="sans-serif" font-size="11" lengthAdjust="spacingAndGlyphs" textLength="145" x="378.5" y="530.833">createStepAdapter(): Adapter</text><ellipse cx="369.5" cy="540.25" fill="#84BE84" rx="3" ry="3" style="stroke: #038048; stroke-width: 1.0;"/><text fill="#000000" font-family="sans-serif" font-size="11" lengthAdjust="spacingAndGlyphs" textLength="178" x="378.5" y="544.6689">createWhitepaperAdapter(): Adapter</text><ellipse cx="369.5" cy="554.0859" fill="#84BE84" rx="3" ry="3" style="stroke: #038048; stroke-width: 1.0;"/><text fill="#000000" font-family="sans-serif" font-size="11" lengthAdjust="spacingAndGlyphs" textLength="146" x="378.5" y="558.5049">createTaskAdapter(): Adapter</text><ellipse cx="369.5" cy="567.9219" fill="#84BE84" rx="3" ry="3" style="stroke: #038048; stroke-width: 1.0;"/><text fill="#000000" font-family="sans-serif" font-size="11" lengthAdjust="spacingAndGlyphs" textLength="144" x="378.5" y="572.3408">createRoleAdapter(): Adapter</text><ellipse cx="369.5" cy="581.7578" fill="#84BE84" rx="3" ry="3" style="stroke: #038048; stroke-width: 1.0;"/><text fill="#000000" font-family="sans-serif" font-size="11" lengthAdjust="spacingAndGlyphs" textLength="213" x="378.5" y="586.1768">createArtifactDescriptionAdapter(): Adapter</text><ellipse cx="369.5" cy="595.5938" fill="#84BE84" rx="3" ry="3" style="stroke: #038048; stroke-width: 1.0;"/><text fill="#000000" font-family="sans-serif" font-size="11" lengthAdjust="spacingAndGlyphs" textLength="239" x="378.5" y="600.0127">createWorkProductDescriptionAdapter(): Adapter</text><ellipse cx="369.5" cy="609.4297" fill="#84BE84" rx="3" ry="3" style="stroke: #038048; stroke-width: 1.0;"/><text fill="#000000" font-family="sans-serif" font-size="11" lengthAdjust="spacingAndGlyphs" textLength="230" x="378.5" y="613.8486">createDeliverableDescriptionAdapter(): Adapter</text><ellipse cx="369.5" cy="623.2656" fill="#84BE84" rx="3" ry="3" style="stroke: #038048; stroke-width: 1.0;"/><text fill="#000000" font-family="sans-serif" font-size="11" lengthAdjust="spacingAndGlyphs" textLength="198" x="378.5" y="627.6846">createRoleDescriptionAdapter(): Adapter</text><ellipse cx="369.5" cy="637.1016" fill="#84BE84" rx="3" ry="3" style="stroke: #038048; stroke-width: 1.0;"/><text fill="#000000" font-family="sans-serif" font-size="11" lengthAdjust="spacingAndGlyphs" textLength="200" x="378.5" y="641.5205">createTaskDescriptionAdapter(): Adapter</text><ellipse cx="369.5" cy="650.9375" fill="#84BE84" rx="3" ry="3" style="stroke: #038048; stroke-width: 1.0;"/><text fill="#000000" font-family="sans-serif" font-size="11" lengthAdjust="spacingAndGlyphs" textLength="223" x="378.5" y="655.3564">createGuidanceDescriptionAdapter(): Adapter</text><ellipse cx="369.5" cy="664.7734" fill="#84BE84" rx="3" ry="3" style="stroke: #038048; stroke-width: 1.0;"/><text fill="#000000" font-family="sans-serif" font-size="11" lengthAdjust="spacingAndGlyphs" textLength="216" x="378.5" y="669.1924">createPracticeDescriptionAdapter(): Adapter</text><ellipse cx="369.5" cy="678.6094" fill="#84BE84" rx="3" ry="3" style="stroke: #038048; stroke-width: 1.0;"/><text fill="#000000" font-family="sans-serif" font-size="11" lengthAdjust="spacingAndGlyphs" textLength="160" x="378.5" y="683.0283">createRoleSetAdapter(): Adapter</text><ellipse cx="369.5" cy="692.4453" fill="#84BE84" rx="3" ry="3" style="stroke: #038048; stroke-width: 1.0;"/><text fill="#000000" font-family="sans-serif" font-size="11" lengthAdjust="spacingAndGlyphs" textLength="158" x="378.5" y="696.8643">createDomainAdapter(): Adapter</text><ellipse cx="369.5" cy="706.2813" fill="#84BE84" rx="3" ry="3" style="stroke: #038048; stroke-width: 1.0;"/><text fill="#000000" font-family="sans-serif" font-size="11" lengthAdjust="spacingAndGlyphs" textLength="209" x="378.5" y="710.7002">createWorkProductTypeAdapter(): Adapter</text><ellipse cx="369.5" cy="720.1172" fill="#84BE84" rx="3" ry="3" style="stroke: #038048; stroke-width: 1.0;"/><text fill="#000000" font-family="sans-serif" font-size="11" lengthAdjust="spacingAndGlyphs" textLength="212" x="378.5" y="724.5361">createDisciplineGroupingAdapter(): Adapter</text><ellipse cx="369.5" cy="733.9531" fill="#84BE84" rx="3" ry="3" style="stroke: #038048; stroke-width: 1.0;"/><text fill="#000000" font-family="sans-serif" font-size="11" lengthAdjust="spacingAndGlyphs" textLength="168" x="378.5" y="738.3721">createDisciplineAdapter(): Adapter</text><ellipse cx="369.5" cy="747.7891" fill="#84BE84" rx="3" ry="3" style="stroke: #038048; stroke-width: 1.0;"/><text fill="#000000" font-family="sans-serif" font-size="11" lengthAdjust="spacingAndGlyphs" textLength="159" x="378.5" y="752.208">createActivityAdapter(): Adapter</text><ellipse cx="369.5" cy="761.625" fill="#84BE84" rx="3" ry="3" style="stroke: #038048; stroke-width: 1.0;"/><text fill="#000000" font-family="sans-serif" font-size="11" lengthAdjust="spacingAndGlyphs" textLength="185" x="378.5" y="766.0439">createPlanningDataAdapter(): Adapter</text><ellipse cx="369.5" cy="775.4609" fill="#84BE84" rx="3" ry="3" style="stroke: #038048; stroke-width: 1.0;"/><text fill="#000000" font-family="sans-serif" font-size="11" lengthAdjust="spacingAndGlyphs" textLength="176" x="378.5" y="779.8799">createWorkOrderAdapter(): Adapter</text><ellipse cx="369.5" cy="789.2969" fill="#84BE84" rx="3" ry="3" style="stroke: #038048; stroke-width: 1.0;"/><text fill="#000000" font-family="sans-serif" font-size="11" lengthAdjust="spacingAndGlyphs" textLength="168" x="378.5" y="793.7158">createRoadmapAdapter(): Adapter</text><ellipse cx="369.5" cy="803.1328" fill="#84BE84" rx="3" ry="3" style="stroke: #038048; stroke-width: 1.0;"/><text fill="#000000" font-family="sans-serif" font-size="11" lengthAdjust="spacingAndGlyphs" textLength="143" x="378.5" y="807.5518">createToolAdapter(): Adapter</text><ellipse cx="369.5" cy="816.9688" fill="#84BE84" rx="3" ry="3" style="stroke: #038048; stroke-width: 1.0;"/><text fill="#000000" font-family="sans-serif" font-size="11" lengthAdjust="spacingAndGlyphs" textLength="204" x="378.5" y="821.3877">createRoleSetGroupingAdapter(): Adapter</text><ellipse cx="369.5" cy="830.8047" fill="#84BE84" rx="3" ry="3" style="stroke: #038048; stroke-width: 1.0;"/><text fill="#000000" font-family="sans-serif" font-size="11" lengthAdjust="spacingAndGlyphs" textLength="203" x="378.5" y="835.2236">createCustomCategoryAdapter(): Adapter</text><ellipse cx="369.5" cy="844.6406" fill="#84BE84" rx="3" ry="3" style="stroke: #038048; stroke-width: 1.0;"/><text fill="#000000" font-family="sans-serif" font-size="11" lengthAdjust="spacingAndGlyphs" textLength="201" x="378.5" y="849.0596">createContentPackageAdapter(): Adapter</text><ellipse cx="369.5" cy="858.4766" fill="#84BE84" rx="3" ry="3" style="stroke: #038048; stroke-width: 1.0;"/><text fill="#000000" font-family="sans-serif" font-size="11" lengthAdjust="spacingAndGlyphs" textLength="168" x="378.5" y="862.8955">createMilestoneAdapter(): Adapter</text><ellipse cx="369.5" cy="872.3125" fill="#84BE84" rx="3" ry="3" style="stroke: #038048; stroke-width: 1.0;"/><text fill="#000000" font-family="sans-serif" font-size="11" lengthAdjust="spacingAndGlyphs" textLength="235" x="378.5" y="876.7314">createWorkProductDescriptorAdapter(): Adapter</text><ellipse cx="369.5" cy="886.1484" fill="#84BE84" rx="3" ry="3" style="stroke: #038048; stroke-width: 1.0;"/><text fill="#000000" font-family="sans-serif" font-size="11" lengthAdjust="spacingAndGlyphs" textLength="161" x="378.5" y="890.5674">createIterationAdapter(): Adapter</text><ellipse cx="369.5" cy="899.9844" fill="#84BE84" rx="3" ry="3" style="stroke: #038048; stroke-width: 1.0;"/><text fill="#000000" font-family="sans-serif" font-size="11" lengthAdjust="spacingAndGlyphs" textLength="153" x="378.5" y="904.4033">createPhaseAdapter(): Adapter</text><ellipse cx="369.5" cy="913.8203" fill="#84BE84" rx="3" ry="3" style="stroke: #038048; stroke-width: 1.0;"/><text fill="#000000" font-family="sans-serif" font-size="11" lengthAdjust="spacingAndGlyphs" textLength="179" x="378.5" y="918.2393">createTeamProfileAdapter(): Adapter</text><ellipse cx="369.5" cy="927.6563" fill="#84BE84" rx="3" ry="3" style="stroke: #038048; stroke-width: 1.0;"/><text fill="#000000" font-family="sans-serif" font-size="11" lengthAdjust="spacingAndGlyphs" textLength="194" x="378.5" y="932.0752">createRoleDescriptorAdapter(): Adapter</text><ellipse cx="369.5" cy="941.4922" fill="#84BE84" rx="3" ry="3" style="stroke: #038048; stroke-width: 1.0;"/><text fill="#000000" font-family="sans-serif" font-size="11" lengthAdjust="spacingAndGlyphs" textLength="196" x="378.5" y="945.9111">createTaskDescriptorAdapter(): Adapter</text><ellipse cx="369.5" cy="955.3281" fill="#84BE84" rx="3" ry="3" style="stroke: #038048; stroke-width: 1.0;"/><text fill="#000000" font-family="sans-serif" font-size="11" lengthAdjust="spacingAndGlyphs" textLength="194" x="378.5" y="959.7471">createCompositeRoleAdapter(): Adapter</text><ellipse cx="369.5" cy="969.1641" fill="#84BE84" rx="3" ry="3" style="stroke: #038048; stroke-width: 1.0;"/><text fill="#000000" font-family="sans-serif" font-size="11" lengthAdjust="spacingAndGlyphs" textLength="202" x="378.5" y="973.583">createDeliveryProcessAdapter(): Adapter</text><ellipse cx="369.5" cy="983" fill="#84BE84" rx="3" ry="3" style="stroke: #038048; stroke-width: 1.0;"/><text fill="#000000" font-family="sans-serif" font-size="11" lengthAdjust="spacingAndGlyphs" textLength="203" x="378.5" y="987.4189">createCapabilityPatternAdapter(): Adapter</text><ellipse cx="369.5" cy="996.8359" fill="#84BE84" rx="3" ry="3" style="stroke: #038048; stroke-width: 1.0;"/><text fill="#000000" font-family="sans-serif" font-size="11" lengthAdjust="spacingAndGlyphs" textLength="222" x="378.5" y="1001.2549">createMethodConfigurationAdapter(): Adapter</text><ellipse cx="369.5" cy="1010.6719" fill="#84BE84" rx="3" ry="3" style="stroke: #038048; stroke-width: 1.0;"/><text fill="#000000" font-family="sans-serif" font-size="11" lengthAdjust="spacingAndGlyphs" textLength="186" x="378.5" y="1015.0908">createMethodPluginAdapter(): Adapter</text><ellipse cx="369.5" cy="1024.5078" fill="#84BE84" rx="3" ry="3" style="stroke: #038048; stroke-width: 1.0;"/><text fill="#000000" font-family="sans-serif" font-size="11" lengthAdjust="spacingAndGlyphs" textLength="246" x="378.5" y="1028.9268">createProcessPlanningTemplateAdapter(): Adapter</text><ellipse cx="369.5" cy="1038.3438" fill="#84BE84" rx="3" ry="3" style="stroke: #038048; stroke-width: 1.0;"/><text fill="#000000" font-family="sans-serif" font-size="11" lengthAdjust="spacingAndGlyphs" textLength="162" x="378.5" y="1042.7627">createPracticeAdapter(): Adapter</text><ellipse cx="369.5" cy="1052.1797" fill="#84BE84" rx="3" ry="3" style="stroke: #038048; stroke-width: 1.0;"/><text fill="#000000" font-family="sans-serif" font-size="11" lengthAdjust="spacingAndGlyphs" textLength="270" x="378.5" y="1056.5986">createBreakdownElementDescriptionAdapter(): Adapter</text><ellipse cx="369.5" cy="1066.0156" fill="#84BE84" rx="3" ry="3" style="stroke: #038048; stroke-width: 1.0;"/><text fill="#000000" font-family="sans-serif" font-size="11" lengthAdjust="spacingAndGlyphs" textLength="213" x="378.5" y="1070.4346">createActivityDescriptionAdapter(): Adapter</text><ellipse cx="369.5" cy="1079.8516" fill="#84BE84" rx="3" ry="3" style="stroke: #038048; stroke-width: 1.0;"/><text fill="#000000" font-family="sans-serif" font-size="11" lengthAdjust="spacingAndGlyphs" textLength="256" x="378.5" y="1084.2705">createDeliveryProcessDescriptionAdapter(): Adapter</text><ellipse cx="369.5" cy="1093.6875" fill="#84BE84" rx="3" ry="3" style="stroke: #038048; stroke-width: 1.0;"/><text fill="#000000" font-family="sans-serif" font-size="11" lengthAdjust="spacingAndGlyphs" textLength="217" x="378.5" y="1098.1064">createProcessDescriptionAdapter(): Adapter</text><ellipse cx="369.5" cy="1107.5234" fill="#84BE84" rx="3" ry="3" style="stroke: #038048; stroke-width: 1.0;"/><text fill="#000000" font-family="sans-serif" font-size="11" lengthAdjust="spacingAndGlyphs" textLength="227" x="378.5" y="1111.9424">createDescriptorDescriptionAdapter(): Adapter</text><ellipse cx="369.5" cy="1121.3594" fill="#84BE84" rx="3" ry="3" style="stroke: #038048; stroke-width: 1.0;"/><text fill="#000000" font-family="sans-serif" font-size="11" lengthAdjust="spacingAndGlyphs" textLength="267" x="378.5" y="1125.7783">createProcessComponentDescriptorAdapter(): Adapter</text><ellipse cx="369.5" cy="1135.1953" fill="#84BE84" rx="3" ry="3" style="stroke: #038048; stroke-width: 1.0;"/><text fill="#000000" font-family="sans-serif" font-size="11" lengthAdjust="spacingAndGlyphs" textLength="217" x="378.5" y="1139.6143">createProcessComponentAdapter(): Adapter</text><ellipse cx="369.5" cy="1149.0313" fill="#84BE84" rx="3" ry="3" style="stroke: #038048; stroke-width: 1.0;"/><text fill="#000000" font-family="sans-serif" font-size="11" lengthAdjust="spacingAndGlyphs" textLength="204" x="378.5" y="1153.4502">createProcessPackageAdapter(): Adapter</text><ellipse cx="369.5" cy="1162.8672" fill="#84BE84" rx="3" ry="3" style="stroke: #038048; stroke-width: 1.0;"/><text fill="#000000" font-family="sans-serif" font-size="11" lengthAdjust="spacingAndGlyphs" textLength="162" x="378.5" y="1167.2861">createDiagramAdapter(): Adapter</text><ellipse cx="369.5" cy="1176.7031" fill="#84BE84" rx="3" ry="3" style="stroke: #038048; stroke-width: 1.0;"/><text fill="#000000" font-family="sans-serif" font-size="11" lengthAdjust="spacingAndGlyphs" textLength="178" x="378.5" y="1181.1221">createGraphNodeAdapter(): Adapter</text><ellipse cx="369.5" cy="1190.5391" fill="#84BE84" rx="3" ry="3" style="stroke: #038048; stroke-width: 1.0;"/><text fill="#000000" font-family="sans-serif" font-size="11" lengthAdjust="spacingAndGlyphs" textLength="174" x="378.5" y="1194.958">createReferenceAdapter(): Adapter</text><ellipse cx="369.5" cy="1204.375" fill="#84BE84" rx="3" ry="3" style="stroke: #038048; stroke-width: 1.0;"/><text fill="#000000" font-family="sans-serif" font-size="11" lengthAdjust="spacingAndGlyphs" textLength="164" x="378.5" y="1208.7939">createPropertyAdapter(): Adapter</text><ellipse cx="369.5" cy="1218.2109" fill="#84BE84" rx="3" ry="3" style="stroke: #038048; stroke-width: 1.0;"/><text fill="#000000" font-family="sans-serif" font-size="11" lengthAdjust="spacingAndGlyphs" textLength="146" x="378.5" y="1222.6299">createPointAdapter(): Adapter</text><ellipse cx="369.5" cy="1232.0469" fill="#84BE84" rx="3" ry="3" style="stroke: #038048; stroke-width: 1.0;"/><text fill="#000000" font-family="sans-serif" font-size="11" lengthAdjust="spacingAndGlyphs" textLength="181" x="378.5" y="1236.4658">createDiagramLinkAdapter(): Adapter</text><ellipse cx="369.5" cy="1245.8828" fill="#84BE84" rx="3" ry="3" style="stroke: #038048; stroke-width: 1.0;"/><text fill="#000000" font-family="sans-serif" font-size="11" lengthAdjust="spacingAndGlyphs" textLength="203" x="378.5" y="1250.3018">createGraphConnectorAdapter(): Adapter</text><ellipse cx="369.5" cy="1259.7188" fill="#84BE84" rx="3" ry="3" style="stroke: #038048; stroke-width: 1.0;"/><text fill="#000000" font-family="sans-serif" font-size="11" lengthAdjust="spacingAndGlyphs" textLength="177" x="378.5" y="1264.1377">createGraphEdgeAdapter(): Adapter</text><ellipse cx="369.5" cy="1273.5547" fill="#84BE84" rx="3" ry="3" style="stroke: #038048; stroke-width: 1.0;"/><text fill="#000000" font-family="sans-serif" font-size="11" lengthAdjust="spacingAndGlyphs" textLength="172" x="378.5" y="1277.9736">createDimensionAdapter(): Adapter</text><ellipse cx="369.5" cy="1287.3906" fill="#84BE84" rx="3" ry="3" style="stroke: #038048; stroke-width: 1.0;"/><text fill="#000000" font-family="sans-serif" font-size="11" lengthAdjust="spacingAndGlyphs" textLength="260" x="378.5" y="1291.8096">createProcessComponentInterfaceAdapter(): Adapter</text><ellipse cx="369.5" cy="1301.2266" fill="#84BE84" rx="3" ry="3" style="stroke: #038048; stroke-width: 1.0;"/><text fill="#000000" font-family="sans-serif" font-size="11" lengthAdjust="spacingAndGlyphs" textLength="263" x="378.5" y="1305.6455">createSimpleSemanticModelElementAdapter(): Adapter</text><ellipse cx="369.5" cy="1315.0625" fill="#84BE84" rx="3" ry="3" style="stroke: #038048; stroke-width: 1.0;"/><text fill="#000000" font-family="sans-serif" font-size="11" lengthAdjust="spacingAndGlyphs" textLength="249" x="378.5" y="1319.4814">createUMASemanticModelBridgeAdapter(): Adapter</text><ellipse cx="369.5" cy="1328.8984" fill="#84BE84" rx="3" ry="3" style="stroke: #038048; stroke-width: 1.0;"/><text fill="#000000" font-family="sans-serif" font-size="11" lengthAdjust="spacingAndGlyphs" textLength="249" x="378.5" y="1333.3174">createCoreSemanticModelBridgeAdapter(): Adapter</text><ellipse cx="369.5" cy="1342.7344" fill="#84BE84" rx="3" ry="3" style="stroke: #038048; stroke-width: 1.0;"/><text fill="#000000" font-family="sans-serif" font-size="11" lengthAdjust="spacingAndGlyphs" textLength="181" x="378.5" y="1347.1533">createTextElementAdapter(): Adapter</text><ellipse cx="369.5" cy="1356.5703" fill="#84BE84" rx="3" ry="3" style="stroke: #038048; stroke-width: 1.0;"/><text fill="#000000" font-family="sans-serif" font-size="11" lengthAdjust="spacingAndGlyphs" textLength="151" x="378.5" y="1360.9893">createImageAdapter(): Adapter</text><ellipse cx="369.5" cy="1370.4063" fill="#84BE84" rx="3" ry="3" style="stroke: #038048; stroke-width: 1.0;"/><text fill="#000000" font-family="sans-serif" font-size="11" lengthAdjust="spacingAndGlyphs" textLength="159" x="378.5" y="1374.8252">createPolylineAdapter(): Adapter</text><ellipse cx="369.5" cy="1384.2422" fill="#84BE84" rx="3" ry="3" style="stroke: #038048; stroke-width: 1.0;"/><text fill="#000000" font-family="sans-serif" font-size="11" lengthAdjust="spacingAndGlyphs" textLength="153" x="378.5" y="1388.6611">createEllipseAdapter(): Adapter</text><ellipse cx="369.5" cy="1398.0781" fill="#84BE84" rx="3" ry="3" style="stroke: #038048; stroke-width: 1.0;"/><text fill="#000000" font-family="sans-serif" font-size="11" lengthAdjust="spacingAndGlyphs" textLength="193" x="378.5" y="1402.4971">createProcessFamilyAdapter(): Adapter</text><ellipse cx="369.5" cy="1411.9141" fill="#84BE84" rx="3" ry="3" style="stroke: #038048; stroke-width: 1.0;"/><text fill="#000000" font-family="sans-serif" font-size="11" lengthAdjust="spacingAndGlyphs" textLength="192" x="378.5" y="1416.333">createMethodLibraryAdapter(): Adapter</text><ellipse cx="369.5" cy="1425.75" fill="#84BE84" rx="3" ry="3" style="stroke: #038048; stroke-width: 1.0;"/><text fill="#000000" font-family="sans-serif" font-size="11" lengthAdjust="spacingAndGlyphs" textLength="268" x="378.5" y="1430.1689">getRootAdapterFactory(): ComposeableAdapterFactory</text><ellipse cx="369.5" cy="1439.5859" fill="#84BE84" rx="3" ry="3" style="stroke: #038048; stroke-width: 1.0;"/><text fill="#000000" font-family="sans-serif" font-size="11" lengthAdjust="spacingAndGlyphs" textLength="283" x="378.5" y="1444.0049">setParentAdapterFactory(ComposedAdapterFactory): void</text><ellipse cx="369.5" cy="1453.4219" fill="#84BE84" rx="3" ry="3" style="stroke: #038048; stroke-width: 1.0;"/><text fill="#000000" font-family="sans-serif" font-size="11" lengthAdjust="spacingAndGlyphs" textLength="168" x="378.5" y="1457.8408">isFactoryForType(Object): boolean</text><ellipse cx="369.5" cy="1467.2578" fill="#84BE84" rx="3" ry="3" style="stroke: #038048; stroke-width: 1.0;"/><text fill="#000000" font-family="sans-serif" font-size="11" lengthAdjust="spacingAndGlyphs" textLength="151" x="378.5" y="1471.6768">adapt(Notifier, Object): Adapter</text><ellipse cx="369.5" cy="1481.0938" fill="#84BE84" rx="3" ry="3" style="stroke: #038048; stroke-width: 1.0;"/><text fill="#000000" font-family="sans-serif" font-size="11" lengthAdjust="spacingAndGlyphs" textLength="140" x="378.5" y="1485.5127">adapt(Object, Object): Object</text><ellipse cx="369.5" cy="1494.9297" fill="#84BE84" rx="3" ry="3" style="stroke: #038048; stroke-width: 1.0;"/><text fill="#000000" font-family="sans-serif" font-size="11" lengthAdjust="spacingAndGlyphs" textLength="203" x="378.5" y="1499.3486">addListener(INotifyChangedListener): void</text><ellipse cx="369.5" cy="1508.7656" fill="#84BE84" rx="3" ry="3" style="stroke: #038048; stroke-width: 1.0;"/><text fill="#000000" font-family="sans-serif" font-size="11" lengthAdjust="spacingAndGlyphs" textLength="221" x="378.5" y="1513.1846">removeListener(INotifyChangedListener): void</text><ellipse cx="369.5" cy="1522.6016" fill="#84BE84" rx="3" ry="3" style="stroke: #038048; stroke-width: 1.0;"/><text fill="#000000" font-family="sans-serif" font-size="11" lengthAdjust="spacingAndGlyphs" textLength="174" x="378.5" y="1527.0205">fireNotifyChanged(Notification): void</text><ellipse cx="369.5" cy="1536.4375" fill="#84BE84" rx="3" ry="3" style="stroke: #038048; stroke-width: 1.0;"/><text fill="#000000" font-family="sans-serif" font-size="11" lengthAdjust="spacingAndGlyphs" textLength="72" x="378.5" y="1540.8564">dispose(): void</text></a><!--MD5=[6e11cb85b2c023698b0f1f55f9edfa7d]
class org.eclipse.epf.uma.util.UmaAdapterFactory--><a href="..\util\UmaAdapterFactory.html" target="_top" title="..\util\UmaAdapterFactory.html" xlink:actuate="onRequest" xlink:href="..\util\UmaAdapterFactory.html" xlink:show="new" xlink:title="..\util\UmaAdapterFactory.html" xlink:type="simple"><rect codeLine="105" fill="#FEFECE" filter="url(#f1xk3157ndwagj)" height="40.1875" id="org.eclipse.epf.uma.util.UmaAdapterFactory" style="stroke: #A80036; stroke-width: 1.5;" width="158" x="7" y="32"/><ellipse cx="22" cy="52.0938" fill="#ADD1B2" rx="11" ry="11" style="stroke: #A80036; stroke-width: 1.0;"/><path d="M24.7656,47.9688 Q24.9219,47.75 25.1094,47.6406 Q25.2969,47.5313 25.5156,47.5313 Q25.8906,47.5313 26.125,47.7969 Q26.3594,48.0469 26.3594,48.6563 L26.3594,50.1094 Q26.3594,50.7188 26.125,50.9844 Q25.8906,51.25 25.5156,51.25 Q25.1719,51.25 24.9688,51.0469 Q24.7656,50.8594 24.6563,50.3438 Q24.6094,49.9844 24.4219,49.7969 Q24.0938,49.4219 23.4844,49.2031 Q22.875,48.9844 22.25,48.9844 Q21.4844,48.9844 20.8438,49.3125 Q20.2188,49.6406 19.7188,50.3906 Q19.2344,51.1406 19.2344,52.1719 L19.2344,53.2656 Q19.2344,54.5 20.125,55.3281 Q21.0156,56.1406 22.6094,56.1406 Q23.5469,56.1406 24.2031,55.8906 Q24.5938,55.7344 25.0156,55.2969 Q25.2813,55.0313 25.4219,54.9531 Q25.5781,54.875 25.7813,54.875 Q26.1094,54.875 26.3594,55.1406 Q26.625,55.3906 26.625,55.7344 Q26.625,56.0781 26.2813,56.4844 Q25.7813,57.0625 24.9844,57.3906 Q23.9063,57.8438 22.6094,57.8438 Q21.0938,57.8438 19.8906,57.2188 Q18.9063,56.7188 18.2188,55.6563 Q17.5313,54.5781 17.5313,53.2969 L17.5313,52.1406 Q17.5313,50.8125 18.1406,49.6719 Q18.7656,48.5156 19.8594,47.9063 Q20.9531,47.2813 22.1875,47.2813 Q22.9219,47.2813 23.5625,47.4531 Q24.2188,47.6094 24.7656,47.9688 Z "/><text fill="#000000" font-family="sans-serif" font-size="14" lengthAdjust="spacingAndGlyphs" textLength="126" x="36" y="51.5332">UmaAdapterFactory</text><text fill="#000000" font-family="sans-serif" font-size="10" lengthAdjust="spacingAndGlyphs" textLength="112" x="43" y="64.9902">org.eclipse.epf.uma.util</text></a><!--MD5=[6ad1cee2f01adc5ec9129f93fb0b0b11]
class org.eclipse.emf.edit.provider.ComposeableAdapterFactory--><rect codeLine="106" fill="#FEFECE" filter="url(#f1xk3157ndwagj)" height="75.8594" id="org.eclipse.emf.edit.provider.ComposeableAdapterFactory" style="stroke: #A80036; stroke-width: 1.5;" width="310" x="200" y="14"/><ellipse cx="258.25" cy="34.0938" fill="#B4A7E5" rx="11" ry="11" style="stroke: #A80036; stroke-width: 1.0;"/><path d="M259.2031,30.7344 L259.2031,37.3906 L260.9219,37.3906 Q261.5313,37.3906 261.7969,37.625 Q262.0625,37.8594 262.0625,38.25 Q262.0625,38.625 261.7969,38.8594 Q261.5313,39.0938 260.9219,39.0938 L255.7813,39.0938 Q255.1719,39.0938 254.9063,38.8594 Q254.6406,38.625 254.6406,38.2344 Q254.6406,37.8594 254.9063,37.625 Q255.1719,37.3906 255.7813,37.3906 L257.5,37.3906 L257.5,30.7344 L255.7813,30.7344 Q255.1719,30.7344 254.9063,30.5 Q254.6406,30.2656 254.6406,29.875 Q254.6406,29.5 254.9063,29.2656 Q255.1719,29.0313 255.7813,29.0313 L260.9219,29.0313 Q261.5313,29.0313 261.7969,29.2656 Q262.0625,29.5 262.0625,29.875 Q262.0625,30.2656 261.7969,30.5 Q261.5313,30.7344 260.9219,30.7344 L259.2031,30.7344 Z "/><text fill="#000000" font-family="sans-serif" font-size="14" font-style="italic" lengthAdjust="spacingAndGlyphs" textLength="185" x="278.75" y="33.5332">ComposeableAdapterFactory</text><text fill="#000000" font-family="sans-serif" font-size="10" font-style="italic" lengthAdjust="spacingAndGlyphs" textLength="133" x="304.75" y="46.9902">org.eclipse.emf.edit.provider</text><line style="stroke: #A80036; stroke-width: 1.5;" x1="201" x2="509" y1="54.1875" y2="54.1875"/><ellipse cx="211" cy="65.1875" fill="#84BE84" rx="3" ry="3" style="stroke: #038048; stroke-width: 1.0;"/><text fill="#000000" font-family="sans-serif" font-size="11" font-style="italic" lengthAdjust="spacingAndGlyphs" textLength="271" x="220" y="69.6064">getRootAdapterFactory(): ComposeableAdapterFactory</text><ellipse cx="211" cy="79.0234" fill="#84BE84" rx="3" ry="3" style="stroke: #038048; stroke-width: 1.0;"/><text fill="#000000" font-family="sans-serif" font-size="11" font-style="italic" lengthAdjust="spacingAndGlyphs" textLength="284" x="220" y="83.4424">setParentAdapterFactory(ComposedAdapterFactory): void</text><!--MD5=[3b8d8092cefa8a1aa60d12a8d8e4ab67]
class org.eclipse.emf.edit.provider.IChangeNotifier--><rect codeLine="110" fill="#FEFECE" filter="url(#f1xk3157ndwagj)" height="89.6953" id="org.eclipse.emf.edit.provider.IChangeNotifier" style="stroke: #A80036; stroke-width: 1.5;" width="251" x="545.5" y="7"/><ellipse cx="600.25" cy="27.0938" fill="#B4A7E5" rx="11" ry="11" style="stroke: #A80036; stroke-width: 1.0;"/><path d="M601.2031,23.7344 L601.2031,30.3906 L602.9219,30.3906 Q603.5313,30.3906 603.7969,30.625 Q604.0625,30.8594 604.0625,31.25 Q604.0625,31.625 603.7969,31.8594 Q603.5313,32.0938 602.9219,32.0938 L597.7813,32.0938 Q597.1719,32.0938 596.9063,31.8594 Q596.6406,31.625 596.6406,31.2344 Q596.6406,30.8594 596.9063,30.625 Q597.1719,30.3906 597.7813,30.3906 L599.5,30.3906 L599.5,23.7344 L597.7813,23.7344 Q597.1719,23.7344 596.9063,23.5 Q596.6406,23.2656 596.6406,22.875 Q596.6406,22.5 596.9063,22.2656 Q597.1719,22.0313 597.7813,22.0313 L602.9219,22.0313 Q603.5313,22.0313 603.7969,22.2656 Q604.0625,22.5 604.0625,22.875 Q604.0625,23.2656 603.7969,23.5 Q603.5313,23.7344 602.9219,23.7344 L601.2031,23.7344 Z "/><text fill="#000000" font-family="sans-serif" font-size="14" font-style="italic" lengthAdjust="spacingAndGlyphs" textLength="99" x="637.75" y="26.5332">IChangeNotifier</text><text fill="#000000" font-family="sans-serif" font-size="10" font-style="italic" lengthAdjust="spacingAndGlyphs" textLength="133" x="620.75" y="39.9902">org.eclipse.emf.edit.provider</text><line style="stroke: #A80036; stroke-width: 1.5;" x1="546.5" x2="795.5" y1="47.1875" y2="47.1875"/><ellipse cx="556.5" cy="58.1875" fill="#84BE84" rx="3" ry="3" style="stroke: #038048; stroke-width: 1.0;"/><text fill="#000000" font-family="sans-serif" font-size="11" font-style="italic" lengthAdjust="spacingAndGlyphs" textLength="178" x="565.5" y="62.6064">fireNotifyChanged(Notification): void</text><ellipse cx="556.5" cy="72.0234" fill="#84BE84" rx="3" ry="3" style="stroke: #038048; stroke-width: 1.0;"/><text fill="#000000" font-family="sans-serif" font-size="11" font-style="italic" lengthAdjust="spacingAndGlyphs" textLength="207" x="565.5" y="76.4424">addListener(INotifyChangedListener): void</text><ellipse cx="556.5" cy="85.8594" fill="#84BE84" rx="3" ry="3" style="stroke: #038048; stroke-width: 1.0;"/><text fill="#000000" font-family="sans-serif" font-size="11" font-style="italic" lengthAdjust="spacingAndGlyphs" textLength="225" x="565.5" y="90.2783">removeListener(INotifyChangedListener): void</text><!--MD5=[70449b2787b7027a5283c8300bd80477]
class org.eclipse.emf.edit.provider.IDisposable--><rect codeLine="115" fill="#FEFECE" filter="url(#f1xk3157ndwagj)" height="62.0234" id="org.eclipse.emf.edit.provider.IDisposable" style="stroke: #A80036; stroke-width: 1.5;" width="165" x="831.5" y="21"/><ellipse cx="846.5" cy="41.0938" fill="#B4A7E5" rx="11" ry="11" style="stroke: #A80036; stroke-width: 1.0;"/><path d="M847.4531,37.7344 L847.4531,44.3906 L849.1719,44.3906 Q849.7813,44.3906 850.0469,44.625 Q850.3125,44.8594 850.3125,45.25 Q850.3125,45.625 850.0469,45.8594 Q849.7813,46.0938 849.1719,46.0938 L844.0313,46.0938 Q843.4219,46.0938 843.1563,45.8594 Q842.8906,45.625 842.8906,45.2344 Q842.8906,44.8594 843.1563,44.625 Q843.4219,44.3906 844.0313,44.3906 L845.75,44.3906 L845.75,37.7344 L844.0313,37.7344 Q843.4219,37.7344 843.1563,37.5 Q842.8906,37.2656 842.8906,36.875 Q842.8906,36.5 843.1563,36.2656 Q843.4219,36.0313 844.0313,36.0313 L849.1719,36.0313 Q849.7813,36.0313 850.0469,36.2656 Q850.3125,36.5 850.3125,36.875 Q850.3125,37.2656 850.0469,37.5 Q849.7813,37.7344 849.1719,37.7344 L847.4531,37.7344 Z "/><text fill="#000000" font-family="sans-serif" font-size="14" font-style="italic" lengthAdjust="spacingAndGlyphs" textLength="74" x="890" y="40.5332">IDisposable</text><text fill="#000000" font-family="sans-serif" font-size="10" font-style="italic" lengthAdjust="spacingAndGlyphs" textLength="133" x="860.5" y="53.9902">org.eclipse.emf.edit.provider</text><line style="stroke: #A80036; stroke-width: 1.5;" x1="832.5" x2="995.5" y1="61.1875" y2="61.1875"/><ellipse cx="842.5" cy="72.1875" fill="#84BE84" rx="3" ry="3" style="stroke: #038048; stroke-width: 1.0;"/><text fill="#000000" font-family="sans-serif" font-size="11" font-style="italic" lengthAdjust="spacingAndGlyphs" textLength="73" x="851.5" y="76.6064">dispose(): void</text><!--MD5=[c3a2e95e044a7c0cf06fb323d98be1fe]
reverse link org.eclipse.epf.uma.util.UmaAdapterFactory to org.eclipse.epf.uma.provider.UmaItemProviderAdapterFactory--><path codeLine="119" d="M105.89,90.17 C150.7,173.91 263.09,383.95 358.45,562.18 " fill="none" id="org.eclipse.epf.uma.util.UmaAdapterFactory-backto-org.eclipse.epf.uma.provider.UmaItemProviderAdapterFactory" style="stroke: #A80036; stroke-width: 1.0;"/><polygon fill="none" points="99.61,93.27,96.34,72.33,111.95,86.66,99.61,93.27" style="stroke: #A80036; stroke-width: 1.0;"/><!--MD5=[a4f7fe6699d97c7ef29b0ea8022b18b6]
reverse link org.eclipse.emf.edit.provider.ComposeableAdapterFactory to org.eclipse.epf.uma.provider.UmaItemProviderAdapterFactory--><path codeLine="120" d="M366.25,109.83 C368.96,123.5 372.08,139.28 375.55,156.78 " fill="none" id="org.eclipse.emf.edit.provider.ComposeableAdapterFactory-backto-org.eclipse.epf.uma.provider.UmaItemProviderAdapterFactory" style="stroke: #A80036; stroke-width: 1.0; stroke-dasharray: 7.0,7.0;"/><polygon fill="none" points="359.37,111.13,362.36,90.15,373.11,108.41,359.37,111.13" style="stroke: #A80036; stroke-width: 1.0;"/><!--MD5=[37a6bbcb9046489d239c02f112798fd7]
reverse link org.eclipse.emf.edit.provider.IChangeNotifier to org.eclipse.epf.uma.provider.UmaItemProviderAdapterFactory--><path codeLine="121" d="M658.34,116.95 C655.98,128.88 653.33,142.23 650.46,156.76 " fill="none" id="org.eclipse.emf.edit.provider.IChangeNotifier-backto-org.eclipse.epf.uma.provider.UmaItemProviderAdapterFactory" style="stroke: #A80036; stroke-width: 1.0; stroke-dasharray: 7.0,7.0;"/><polygon fill="none" points="651.53,115.3,662.28,97.04,665.26,118.02,651.53,115.3" style="stroke: #A80036; stroke-width: 1.0;"/><!--MD5=[5741c1dd5b0bb7e464a341bbc7b0737d]
reverse link org.eclipse.emf.edit.provider.IDisposable to org.eclipse.epf.uma.provider.UmaItemProviderAdapterFactory--><path codeLine="122" d="M889.79,101.18 C846.2,187.92 751.27,376.84 667.6,543.34 " fill="none" id="org.eclipse.emf.edit.provider.IDisposable-backto-org.eclipse.epf.uma.provider.UmaItemProviderAdapterFactory" style="stroke: #A80036; stroke-width: 1.0; stroke-dasharray: 7.0,7.0;"/><polygon fill="none" points="883.54,98.04,898.77,83.31,896.04,104.32,883.54,98.04" style="stroke: #A80036; stroke-width: 1.0;"/><text fill="#888888" font-family="sans-serif" font-size="10" lengthAdjust="spacingAndGlyphs" textLength="190" x="403.75" y="1570.6543">UMLDoclet 2.0.12, PlantUML 1.2020.16</text><!--MD5=[f58015d7a0dec3005e2320badb32ff0d]
@startuml
    set namespaceSeparator none
    hide empty fields
    hide empty methods

    class "<size:14>UmaItemProviderAdapterFactory\n<size:10>org.eclipse.epf.uma.provider" as org.eclipse.epf.uma.provider.UmaItemProviderAdapterFactory [[UmaItemProviderAdapterFactory.html]] {
        +createPackageAdapter(): Adapter
        +createConstraintAdapter(): Adapter
        +createMethodElementPropertyAdapter(): Adapter
        +createKindAdapter(): Adapter
        +createContentDescriptionAdapter(): Adapter
        +createSupportingMaterialAdapter(): Adapter
        +createSectionAdapter(): Adapter
        +createConceptAdapter(): Adapter
        +createChecklistAdapter(): Adapter
        +createGuidelineAdapter(): Adapter
        +createExampleAdapter(): Adapter
        +createReusableAssetAdapter(): Adapter
        +createTermDefinitionAdapter(): Adapter
        +createApplicableMetaClassInfoAdapter(): Adapter
        +createArtifactAdapter(): Adapter
        +createWorkProductAdapter(): Adapter
        +createFulfillableElementAdapter(): Adapter
        +createReportAdapter(): Adapter
        +createTemplateAdapter(): Adapter
        +createToolMentorAdapter(): Adapter
        +createEstimationConsiderationsAdapter(): Adapter
        +createDeliverableAdapter(): Adapter
        +createOutcomeAdapter(): Adapter
        +createStepAdapter(): Adapter
        +createWhitepaperAdapter(): Adapter
        +createTaskAdapter(): Adapter
        +createRoleAdapter(): Adapter
        +createArtifactDescriptionAdapter(): Adapter
        +createWorkProductDescriptionAdapter(): Adapter
        +createDeliverableDescriptionAdapter(): Adapter
        +createRoleDescriptionAdapter(): Adapter
        +createTaskDescriptionAdapter(): Adapter
        +createGuidanceDescriptionAdapter(): Adapter
        +createPracticeDescriptionAdapter(): Adapter
        +createRoleSetAdapter(): Adapter
        +createDomainAdapter(): Adapter
        +createWorkProductTypeAdapter(): Adapter
        +createDisciplineGroupingAdapter(): Adapter
        +createDisciplineAdapter(): Adapter
        +createActivityAdapter(): Adapter
        +createPlanningDataAdapter(): Adapter
        +createWorkOrderAdapter(): Adapter
        +createRoadmapAdapter(): Adapter
        +createToolAdapter(): Adapter
        +createRoleSetGroupingAdapter(): Adapter
        +createCustomCategoryAdapter(): Adapter
        +createContentPackageAdapter(): Adapter
        +createMilestoneAdapter(): Adapter
        +createWorkProductDescriptorAdapter(): Adapter
        +createIterationAdapter(): Adapter
        +createPhaseAdapter(): Adapter
        +createTeamProfileAdapter(): Adapter
        +createRoleDescriptorAdapter(): Adapter
        +createTaskDescriptorAdapter(): Adapter
        +createCompositeRoleAdapter(): Adapter
        +createDeliveryProcessAdapter(): Adapter
        +createCapabilityPatternAdapter(): Adapter
        +createMethodConfigurationAdapter(): Adapter
        +createMethodPluginAdapter(): Adapter
        +createProcessPlanningTemplateAdapter(): Adapter
        +createPracticeAdapter(): Adapter
        +createBreakdownElementDescriptionAdapter(): Adapter
        +createActivityDescriptionAdapter(): Adapter
        +createDeliveryProcessDescriptionAdapter(): Adapter
        +createProcessDescriptionAdapter(): Adapter
        +createDescriptorDescriptionAdapter(): Adapter
        +createProcessComponentDescriptorAdapter(): Adapter
        +createProcessComponentAdapter(): Adapter
        +createProcessPackageAdapter(): Adapter
        +createDiagramAdapter(): Adapter
        +createGraphNodeAdapter(): Adapter
        +createReferenceAdapter(): Adapter
        +createPropertyAdapter(): Adapter
        +createPointAdapter(): Adapter
        +createDiagramLinkAdapter(): Adapter
        +createGraphConnectorAdapter(): Adapter
        +createGraphEdgeAdapter(): Adapter
        +createDimensionAdapter(): Adapter
        +createProcessComponentInterfaceAdapter(): Adapter
        +createSimpleSemanticModelElementAdapter(): Adapter
        +createUMASemanticModelBridgeAdapter(): Adapter
        +createCoreSemanticModelBridgeAdapter(): Adapter
        +createTextElementAdapter(): Adapter
        +createImageAdapter(): Adapter
        +createPolylineAdapter(): Adapter
        +createEllipseAdapter(): Adapter
        +createProcessFamilyAdapter(): Adapter
        +createMethodLibraryAdapter(): Adapter
        +getRootAdapterFactory(): ComposeableAdapterFactory
        +setParentAdapterFactory(ComposedAdapterFactory): void
        +isFactoryForType(Object): boolean
        +adapt(Notifier, Object): Adapter
        +adapt(Object, Object): Object
        +addListener(INotifyChangedListener): void
        +removeListener(INotifyChangedListener): void
        +fireNotifyChanged(Notification): void
        +dispose(): void
    }

    class "<size:14>UmaAdapterFactory\n<size:10>org.eclipse.epf.uma.util" as org.eclipse.epf.uma.util.UmaAdapterFactory [[..\util\UmaAdapterFactory.html]]
    interface "<size:14>ComposeableAdapterFactory\n<size:10>org.eclipse.emf.edit.provider" as org.eclipse.emf.edit.provider.ComposeableAdapterFactory {
        {abstract} +getRootAdapterFactory(): ComposeableAdapterFactory
        {abstract} +setParentAdapterFactory(ComposedAdapterFactory): void
    }
    interface "<size:14>IChangeNotifier\n<size:10>org.eclipse.emf.edit.provider" as org.eclipse.emf.edit.provider.IChangeNotifier {
        {abstract} +fireNotifyChanged(Notification): void
        {abstract} +addListener(INotifyChangedListener): void
        {abstract} +removeListener(INotifyChangedListener): void
    }
    interface "<size:14>IDisposable\n<size:10>org.eclipse.emf.edit.provider" as org.eclipse.emf.edit.provider.IDisposable {
        {abstract} +dispose(): void
    }

    org.eclipse.epf.uma.util.UmaAdapterFactory <|- - org.eclipse.epf.uma.provider.UmaItemProviderAdapterFactory
    org.eclipse.emf.edit.provider.ComposeableAdapterFactory <|.. org.eclipse.epf.uma.provider.UmaItemProviderAdapterFactory
    org.eclipse.emf.edit.provider.IChangeNotifier <|.. org.eclipse.epf.uma.provider.UmaItemProviderAdapterFactory
    org.eclipse.emf.edit.provider.IDisposable <|.. org.eclipse.epf.uma.provider.UmaItemProviderAdapterFactory

    center footer UMLDoclet 2.0.12, PlantUML 1.2020.16
@enduml

PlantUML version 1.2020.16(Sun Aug 23 22:20:43 CEST 2020)
(APACHE source distribution)
Java Runtime: Java(TM) SE Runtime Environment
JVM: Java HotSpot(TM) 64-Bit Server VM
Default Encoding: Cp1252
Language: es
Country: ES
--></g></svg>