<?xml version="1.0" encoding="UTF-8" standalone="no"?><svg xmlns="http://www.w3.org/2000/svg" xmlns:xlink="http://www.w3.org/1999/xlink" contentScriptType="application/ecmascript" contentStyleType="text/css" height="261px" preserveAspectRatio="none" style="width:350px;height:261px;" version="1.1" viewBox="0 0 350 261" width="350px" zoomAndPan="magnify"><defs><filter height="300%" id="f1ktkrgim0wj11" width="300%" x="-1" y="-1"><feGaussianBlur result="blurOut" stdDeviation="2.0"/><feColorMatrix in="blurOut" result="blurOut2" type="matrix" values="0 0 0 0 0 0 0 0 0 0 0 0 0 0 0 0 0 0 .4 0"/><feOffset dx="4.0" dy="4.0" in="blurOut2" result="blurOut3"/><feBlend in="SourceGraphic" in2="blurOut3" mode="normal"/></filter></defs><g><!--MD5=[ba63571fc004a8ba398a793c250bd9be]
class org.eclipse.epf.uma.provider.UMASemanticModelBridgeItemProvider--><a href="UMASemanticModelBridgeItemProvider.html" target="_top" title="UMASemanticModelBridgeItemProvider.html" xlink:actuate="onRequest" xlink:href="UMASemanticModelBridgeItemProvider.html" xlink:show="new" xlink:title="UMASemanticModelBridgeItemProvider.html" xlink:type="simple"><rect codeLine="5" fill="#FEFECE" filter="url(#f1ktkrgim0wj11)" height="117.3672" id="org.eclipse.epf.uma.provider.UMASemanticModelBridgeItemProvider" style="stroke: #A80036; stroke-width: 1.5;" width="324" x="7" y="107"/><ellipse cx="43.15" cy="127.0938" fill="#ADD1B2" rx="11" ry="11" style="stroke: #A80036; stroke-width: 1.0;"/><path d="M45.9156,122.9688 Q46.0719,122.75 46.2594,122.6406 Q46.4469,122.5313 46.6656,122.5313 Q47.0406,122.5313 47.275,122.7969 Q47.5094,123.0469 47.5094,123.6563 L47.5094,125.1094 Q47.5094,125.7188 47.275,125.9844 Q47.0406,126.25 46.6656,126.25 Q46.3219,126.25 46.1188,126.0469 Q45.9156,125.8594 45.8063,125.3438 Q45.7594,124.9844 45.5719,124.7969 Q45.2438,124.4219 44.6344,124.2031 Q44.025,123.9844 43.4,123.9844 Q42.6344,123.9844 41.9938,124.3125 Q41.3688,124.6406 40.8688,125.3906 Q40.3844,126.1406 40.3844,127.1719 L40.3844,128.2656 Q40.3844,129.5 41.275,130.3281 Q42.1656,131.1406 43.7594,131.1406 Q44.6969,131.1406 45.3531,130.8906 Q45.7438,130.7344 46.1656,130.2969 Q46.4313,130.0313 46.5719,129.9531 Q46.7281,129.875 46.9313,129.875 Q47.2594,129.875 47.5094,130.1406 Q47.775,130.3906 47.775,130.7344 Q47.775,131.0781 47.4313,131.4844 Q46.9313,132.0625 46.1344,132.3906 Q45.0563,132.8438 43.7594,132.8438 Q42.2438,132.8438 41.0406,132.2188 Q40.0563,131.7188 39.3688,130.6563 Q38.6813,129.5781 38.6813,128.2969 L38.6813,127.1406 Q38.6813,125.8125 39.2906,124.6719 Q39.9156,123.5156 41.0094,122.9063 Q42.1031,122.2813 43.3375,122.2813 Q44.0719,122.2813 44.7125,122.4531 Q45.3688,122.6094 45.9156,122.9688 Z "/><text fill="#000000" font-family="sans-serif" font-size="14" lengthAdjust="spacingAndGlyphs" textLength="245" x="61.85" y="126.5332">UMASemanticModelBridgeItemProvider</text><text fill="#000000" font-family="sans-serif" font-size="10" lengthAdjust="spacingAndGlyphs" textLength="135" x="116.85" y="139.9902">org.eclipse.epf.uma.provider</text><line style="stroke: #A80036; stroke-width: 1.5;" x1="8" x2="330" y1="147.1875" y2="147.1875"/><ellipse cx="18" cy="158.1875" fill="#84BE84" rx="3" ry="3" style="stroke: #038048; stroke-width: 1.0;"/><text fill="#000000" font-family="sans-serif" font-size="11" lengthAdjust="spacingAndGlyphs" textLength="269" x="27" y="162.6064">UMASemanticModelBridgeItemProvider(AdapterFactory)</text><ellipse cx="18" cy="172.0234" fill="#84BE84" rx="3" ry="3" style="stroke: #038048; stroke-width: 1.0;"/><text fill="#000000" font-family="sans-serif" font-size="11" lengthAdjust="spacingAndGlyphs" textLength="298" x="27" y="176.4424">getPropertyDescriptors(Object): List&lt;IItemPropertyDescriptor&gt;</text><ellipse cx="18" cy="185.8594" fill="#84BE84" rx="3" ry="3" style="stroke: #038048; stroke-width: 1.0;"/><text fill="#000000" font-family="sans-serif" font-size="11" lengthAdjust="spacingAndGlyphs" textLength="119" x="27" y="190.2783">getImage(Object): Object</text><ellipse cx="18" cy="199.6953" fill="#84BE84" rx="3" ry="3" style="stroke: #038048; stroke-width: 1.0;"/><text fill="#000000" font-family="sans-serif" font-size="11" lengthAdjust="spacingAndGlyphs" textLength="109" x="27" y="204.1143">getText(Object): String</text><ellipse cx="18" cy="213.5313" fill="#84BE84" rx="3" ry="3" style="stroke: #038048; stroke-width: 1.0;"/><text fill="#000000" font-family="sans-serif" font-size="11" lengthAdjust="spacingAndGlyphs" textLength="157" x="27" y="217.9502">notifyChanged(Notification): void</text></a><!--MD5=[f91200287aa1bbc3827e647fbe9e8840]
class org.eclipse.epf.uma.provider.SemanticModelBridgeItemProvider--><a href="SemanticModelBridgeItemProvider.html" target="_top" title="SemanticModelBridgeItemProvider.html" xlink:actuate="onRequest" xlink:href="SemanticModelBridgeItemProvider.html" xlink:show="new" xlink:title="SemanticModelBridgeItemProvider.html" xlink:type="simple"><rect codeLine="13" fill="#FEFECE" filter="url(#f1ktkrgim0wj11)" height="40.1875" id="org.eclipse.epf.uma.provider.SemanticModelBridgeItemProvider" style="stroke: #A80036; stroke-width: 1.5;" width="248" x="45" y="7"/><ellipse cx="60" cy="27.0938" fill="#ADD1B2" rx="11" ry="11" style="stroke: #A80036; stroke-width: 1.0;"/><path d="M62.7656,22.9688 Q62.9219,22.75 63.1094,22.6406 Q63.2969,22.5313 63.5156,22.5313 Q63.8906,22.5313 64.125,22.7969 Q64.3594,23.0469 64.3594,23.6563 L64.3594,25.1094 Q64.3594,25.7188 64.125,25.9844 Q63.8906,26.25 63.5156,26.25 Q63.1719,26.25 62.9688,26.0469 Q62.7656,25.8594 62.6563,25.3438 Q62.6094,24.9844 62.4219,24.7969 Q62.0938,24.4219 61.4844,24.2031 Q60.875,23.9844 60.25,23.9844 Q59.4844,23.9844 58.8438,24.3125 Q58.2188,24.6406 57.7188,25.3906 Q57.2344,26.1406 57.2344,27.1719 L57.2344,28.2656 Q57.2344,29.5 58.125,30.3281 Q59.0156,31.1406 60.6094,31.1406 Q61.5469,31.1406 62.2031,30.8906 Q62.5938,30.7344 63.0156,30.2969 Q63.2813,30.0313 63.4219,29.9531 Q63.5781,29.875 63.7813,29.875 Q64.1094,29.875 64.3594,30.1406 Q64.625,30.3906 64.625,30.7344 Q64.625,31.0781 64.2813,31.4844 Q63.7813,32.0625 62.9844,32.3906 Q61.9063,32.8438 60.6094,32.8438 Q59.0938,32.8438 57.8906,32.2188 Q56.9063,31.7188 56.2188,30.6563 Q55.5313,29.5781 55.5313,28.2969 L55.5313,27.1406 Q55.5313,25.8125 56.1406,24.6719 Q56.7656,23.5156 57.8594,22.9063 Q58.9531,22.2813 60.1875,22.2813 Q60.9219,22.2813 61.5625,22.4531 Q62.2188,22.6094 62.7656,22.9688 Z "/><text fill="#000000" font-family="sans-serif" font-size="14" lengthAdjust="spacingAndGlyphs" textLength="216" x="74" y="26.5332">SemanticModelBridgeItemProvider</text><text fill="#000000" font-family="sans-serif" font-size="10" lengthAdjust="spacingAndGlyphs" textLength="135" x="114.5" y="39.9902">org.eclipse.epf.uma.provider</text></a><!--MD5=[87f93fc32135243e3ff0a353260937c3]
reverse link org.eclipse.epf.uma.provider.SemanticModelBridgeItemProvider to org.eclipse.epf.uma.provider.UMASemanticModelBridgeItemProvider--><path codeLine="15" d="M169,67.38 C169,79.73 169,93.63 169,106.97 " fill="none" id="org.eclipse.epf.uma.provider.SemanticModelBridgeItemProvider-backto-org.eclipse.epf.uma.provider.UMASemanticModelBridgeItemProvider" style="stroke: #A80036; stroke-width: 1.0;"/><polygon fill="none" points="162,67.27,169,47.27,176,67.27,162,67.27" style="stroke: #A80036; stroke-width: 1.0;"/><text fill="#888888" font-family="sans-serif" font-size="10" lengthAdjust="spacingAndGlyphs" textLength="190" x="71" y="247.748">UMLDoclet 2.0.12, PlantUML 1.2020.16</text><!--MD5=[39d7719b05e09ea849d01ae553f72dcd]
@startuml
    set namespaceSeparator none
    hide empty fields
    hide empty methods

    class "<size:14>UMASemanticModelBridgeItemProvider\n<size:10>org.eclipse.epf.uma.provider" as org.eclipse.epf.uma.provider.UMASemanticModelBridgeItemProvider [[UMASemanticModelBridgeItemProvider.html]] {
        +UMASemanticModelBridgeItemProvider(AdapterFactory)
        +getPropertyDescriptors(Object): List<IItemPropertyDescriptor>
        +getImage(Object): Object
        +getText(Object): String
        +notifyChanged(Notification): void
    }

    class "<size:14>SemanticModelBridgeItemProvider\n<size:10>org.eclipse.epf.uma.provider" as org.eclipse.epf.uma.provider.SemanticModelBridgeItemProvider [[SemanticModelBridgeItemProvider.html]]

    org.eclipse.epf.uma.provider.SemanticModelBridgeItemProvider <|- - org.eclipse.epf.uma.provider.UMASemanticModelBridgeItemProvider

    center footer UMLDoclet 2.0.12, PlantUML 1.2020.16
@enduml

PlantUML version 1.2020.16(Sun Aug 23 22:20:43 CEST 2020)
(APACHE source distribution)
Java Runtime: Java(TM) SE Runtime Environment
JVM: Java HotSpot(TM) 64-Bit Server VM
Default Encoding: Cp1252
Language: es
Country: ES
--></g></svg>