<?xml version="1.0" encoding="UTF-8" standalone="no"?><svg xmlns="http://www.w3.org/2000/svg" xmlns:xlink="http://www.w3.org/1999/xlink" contentScriptType="application/ecmascript" contentStyleType="text/css" height="247px" preserveAspectRatio="none" style="width:350px;height:247px;" version="1.1" viewBox="0 0 350 247" width="350px" zoomAndPan="magnify"><defs><filter height="300%" id="fa6xkoe8a0j7m" width="300%" x="-1" y="-1"><feGaussianBlur result="blurOut" stdDeviation="2.0"/><feColorMatrix in="blurOut" result="blurOut2" type="matrix" values="0 0 0 0 0 0 0 0 0 0 0 0 0 0 0 0 0 0 .4 0"/><feOffset dx="4.0" dy="4.0" in="blurOut2" result="blurOut3"/><feBlend in="SourceGraphic" in2="blurOut3" mode="normal"/></filter></defs><g><!--MD5=[7d1215778d6674826b8e36e989b6c12e]
class org.eclipse.epf.uma.provider.VariabilityElementItemProvider--><a href="VariabilityElementItemProvider.html" target="_top" title="VariabilityElementItemProvider.html" xlink:actuate="onRequest" xlink:href="VariabilityElementItemProvider.html" xlink:show="new" xlink:title="VariabilityElementItemProvider.html" xlink:type="simple"><rect codeLine="5" fill="#FEFECE" filter="url(#fa6xkoe8a0j7m)" height="103.5313" id="org.eclipse.epf.uma.provider.VariabilityElementItemProvider" style="stroke: #A80036; stroke-width: 1.5;" width="324" x="7" y="107"/><ellipse cx="69.25" cy="127.0938" fill="#ADD1B2" rx="11" ry="11" style="stroke: #A80036; stroke-width: 1.0;"/><path d="M72.0156,122.9688 Q72.1719,122.75 72.3594,122.6406 Q72.5469,122.5313 72.7656,122.5313 Q73.1406,122.5313 73.375,122.7969 Q73.6094,123.0469 73.6094,123.6563 L73.6094,125.1094 Q73.6094,125.7188 73.375,125.9844 Q73.1406,126.25 72.7656,126.25 Q72.4219,126.25 72.2188,126.0469 Q72.0156,125.8594 71.9063,125.3438 Q71.8594,124.9844 71.6719,124.7969 Q71.3438,124.4219 70.7344,124.2031 Q70.125,123.9844 69.5,123.9844 Q68.7344,123.9844 68.0938,124.3125 Q67.4688,124.6406 66.9688,125.3906 Q66.4844,126.1406 66.4844,127.1719 L66.4844,128.2656 Q66.4844,129.5 67.375,130.3281 Q68.2656,131.1406 69.8594,131.1406 Q70.7969,131.1406 71.4531,130.8906 Q71.8438,130.7344 72.2656,130.2969 Q72.5313,130.0313 72.6719,129.9531 Q72.8281,129.875 73.0313,129.875 Q73.3594,129.875 73.6094,130.1406 Q73.875,130.3906 73.875,130.7344 Q73.875,131.0781 73.5313,131.4844 Q73.0313,132.0625 72.2344,132.3906 Q71.1563,132.8438 69.8594,132.8438 Q68.3438,132.8438 67.1406,132.2188 Q66.1563,131.7188 65.4688,130.6563 Q64.7813,129.5781 64.7813,128.2969 L64.7813,127.1406 Q64.7813,125.8125 65.3906,124.6719 Q66.0156,123.5156 67.1094,122.9063 Q68.2031,122.2813 69.4375,122.2813 Q70.1719,122.2813 70.8125,122.4531 Q71.4688,122.6094 72.0156,122.9688 Z "/><text fill="#000000" font-family="sans-serif" font-size="14" lengthAdjust="spacingAndGlyphs" textLength="191" x="89.75" y="126.5332">VariabilityElementItemProvider</text><text fill="#000000" font-family="sans-serif" font-size="10" lengthAdjust="spacingAndGlyphs" textLength="135" x="117.75" y="139.9902">org.eclipse.epf.uma.provider</text><line style="stroke: #A80036; stroke-width: 1.5;" x1="8" x2="330" y1="147.1875" y2="147.1875"/><ellipse cx="18" cy="158.1875" fill="#84BE84" rx="3" ry="3" style="stroke: #038048; stroke-width: 1.0;"/><text fill="#000000" font-family="sans-serif" font-size="11" lengthAdjust="spacingAndGlyphs" textLength="227" x="27" y="162.6064">VariabilityElementItemProvider(AdapterFactory)</text><ellipse cx="18" cy="172.0234" fill="#84BE84" rx="3" ry="3" style="stroke: #038048; stroke-width: 1.0;"/><text fill="#000000" font-family="sans-serif" font-size="11" lengthAdjust="spacingAndGlyphs" textLength="298" x="27" y="176.4424">getPropertyDescriptors(Object): List&lt;IItemPropertyDescriptor&gt;</text><ellipse cx="18" cy="185.8594" fill="#84BE84" rx="3" ry="3" style="stroke: #038048; stroke-width: 1.0;"/><text fill="#000000" font-family="sans-serif" font-size="11" lengthAdjust="spacingAndGlyphs" textLength="109" x="27" y="190.2783">getText(Object): String</text><ellipse cx="18" cy="199.6953" fill="#84BE84" rx="3" ry="3" style="stroke: #038048; stroke-width: 1.0;"/><text fill="#000000" font-family="sans-serif" font-size="11" lengthAdjust="spacingAndGlyphs" textLength="157" x="27" y="204.1143">notifyChanged(Notification): void</text></a><!--MD5=[742f79c2473b5b60b51151f979ccdcb1]
class org.eclipse.epf.uma.provider.MethodElementItemProvider--><a href="MethodElementItemProvider.html" target="_top" title="MethodElementItemProvider.html" xlink:actuate="onRequest" xlink:href="MethodElementItemProvider.html" xlink:show="new" xlink:title="MethodElementItemProvider.html" xlink:type="simple"><rect codeLine="12" fill="#FEFECE" filter="url(#fa6xkoe8a0j7m)" height="40.1875" id="org.eclipse.epf.uma.provider.MethodElementItemProvider" style="stroke: #A80036; stroke-width: 1.5;" width="209" x="64.5" y="7"/><ellipse cx="79.5" cy="27.0938" fill="#ADD1B2" rx="11" ry="11" style="stroke: #A80036; stroke-width: 1.0;"/><path d="M82.2656,22.9688 Q82.4219,22.75 82.6094,22.6406 Q82.7969,22.5313 83.0156,22.5313 Q83.3906,22.5313 83.625,22.7969 Q83.8594,23.0469 83.8594,23.6563 L83.8594,25.1094 Q83.8594,25.7188 83.625,25.9844 Q83.3906,26.25 83.0156,26.25 Q82.6719,26.25 82.4688,26.0469 Q82.2656,25.8594 82.1563,25.3438 Q82.1094,24.9844 81.9219,24.7969 Q81.5938,24.4219 80.9844,24.2031 Q80.375,23.9844 79.75,23.9844 Q78.9844,23.9844 78.3438,24.3125 Q77.7188,24.6406 77.2188,25.3906 Q76.7344,26.1406 76.7344,27.1719 L76.7344,28.2656 Q76.7344,29.5 77.625,30.3281 Q78.5156,31.1406 80.1094,31.1406 Q81.0469,31.1406 81.7031,30.8906 Q82.0938,30.7344 82.5156,30.2969 Q82.7813,30.0313 82.9219,29.9531 Q83.0781,29.875 83.2813,29.875 Q83.6094,29.875 83.8594,30.1406 Q84.125,30.3906 84.125,30.7344 Q84.125,31.0781 83.7813,31.4844 Q83.2813,32.0625 82.4844,32.3906 Q81.4063,32.8438 80.1094,32.8438 Q78.5938,32.8438 77.3906,32.2188 Q76.4063,31.7188 75.7188,30.6563 Q75.0313,29.5781 75.0313,28.2969 L75.0313,27.1406 Q75.0313,25.8125 75.6406,24.6719 Q76.2656,23.5156 77.3594,22.9063 Q78.4531,22.2813 79.6875,22.2813 Q80.4219,22.2813 81.0625,22.4531 Q81.7188,22.6094 82.2656,22.9688 Z "/><text fill="#000000" font-family="sans-serif" font-size="14" lengthAdjust="spacingAndGlyphs" textLength="177" x="93.5" y="26.5332">MethodElementItemProvider</text><text fill="#000000" font-family="sans-serif" font-size="10" lengthAdjust="spacingAndGlyphs" textLength="135" x="114.5" y="39.9902">org.eclipse.epf.uma.provider</text></a><!--MD5=[6950197348b813792848cf21e84542e2]
reverse link org.eclipse.epf.uma.provider.MethodElementItemProvider to org.eclipse.epf.uma.provider.VariabilityElementItemProvider--><path codeLine="14" d="M169,67.49 C169,79.93 169,93.86 169,106.99 " fill="none" id="org.eclipse.epf.uma.provider.MethodElementItemProvider-backto-org.eclipse.epf.uma.provider.VariabilityElementItemProvider" style="stroke: #A80036; stroke-width: 1.0;"/><polygon fill="none" points="162,67.18,169,47.18,176,67.18,162,67.18" style="stroke: #A80036; stroke-width: 1.0;"/><text fill="#888888" font-family="sans-serif" font-size="10" lengthAdjust="spacingAndGlyphs" textLength="190" x="71" y="233.9121">UMLDoclet 2.0.12, PlantUML 1.2020.16</text><!--MD5=[1ed123ea47d0a1e81e987d355dd743fc]
@startuml
    set namespaceSeparator none
    hide empty fields
    hide empty methods

    class "<size:14>VariabilityElementItemProvider\n<size:10>org.eclipse.epf.uma.provider" as org.eclipse.epf.uma.provider.VariabilityElementItemProvider [[VariabilityElementItemProvider.html]] {
        +VariabilityElementItemProvider(AdapterFactory)
        +getPropertyDescriptors(Object): List<IItemPropertyDescriptor>
        +getText(Object): String
        +notifyChanged(Notification): void
    }

    class "<size:14>MethodElementItemProvider\n<size:10>org.eclipse.epf.uma.provider" as org.eclipse.epf.uma.provider.MethodElementItemProvider [[MethodElementItemProvider.html]]

    org.eclipse.epf.uma.provider.MethodElementItemProvider <|- - org.eclipse.epf.uma.provider.VariabilityElementItemProvider

    center footer UMLDoclet 2.0.12, PlantUML 1.2020.16
@enduml

PlantUML version 1.2020.16(Sun Aug 23 22:20:43 CEST 2020)
(APACHE source distribution)
Java Runtime: Java(TM) SE Runtime Environment
JVM: Java HotSpot(TM) 64-Bit Server VM
Default Encoding: Cp1252
Language: es
Country: ES
--></g></svg>