<?xml version="1.0" encoding="UTF-8" standalone="no"?><svg xmlns="http://www.w3.org/2000/svg" xmlns:xlink="http://www.w3.org/1999/xlink" contentScriptType="application/ecmascript" contentStyleType="text/css" height="261px" preserveAspectRatio="none" style="width:350px;height:261px;" version="1.1" viewBox="0 0 350 261" width="350px" zoomAndPan="magnify"><defs><filter height="300%" id="f14bkgfalg9cgn" width="300%" x="-1" y="-1"><feGaussianBlur result="blurOut" stdDeviation="2.0"/><feColorMatrix in="blurOut" result="blurOut2" type="matrix" values="0 0 0 0 0 0 0 0 0 0 0 0 0 0 0 0 0 0 .4 0"/><feOffset dx="4.0" dy="4.0" in="blurOut2" result="blurOut3"/><feBlend in="SourceGraphic" in2="blurOut3" mode="normal"/></filter></defs><g><!--MD5=[ba54213b373f68dd5def933c32636c5e]
class org.eclipse.epf.uma.provider.WorkOrderItemProvider--><a href="WorkOrderItemProvider.html" target="_top" title="WorkOrderItemProvider.html" xlink:actuate="onRequest" xlink:href="WorkOrderItemProvider.html" xlink:show="new" xlink:title="WorkOrderItemProvider.html" xlink:type="simple"><rect codeLine="5" fill="#FEFECE" filter="url(#f14bkgfalg9cgn)" height="117.3672" id="org.eclipse.epf.uma.provider.WorkOrderItemProvider" style="stroke: #A80036; stroke-width: 1.5;" width="324" x="7" y="107"/><ellipse cx="90.25" cy="127.0938" fill="#ADD1B2" rx="11" ry="11" style="stroke: #A80036; stroke-width: 1.0;"/><path d="M93.0156,122.9688 Q93.1719,122.75 93.3594,122.6406 Q93.5469,122.5313 93.7656,122.5313 Q94.1406,122.5313 94.375,122.7969 Q94.6094,123.0469 94.6094,123.6563 L94.6094,125.1094 Q94.6094,125.7188 94.375,125.9844 Q94.1406,126.25 93.7656,126.25 Q93.4219,126.25 93.2188,126.0469 Q93.0156,125.8594 92.9063,125.3438 Q92.8594,124.9844 92.6719,124.7969 Q92.3438,124.4219 91.7344,124.2031 Q91.125,123.9844 90.5,123.9844 Q89.7344,123.9844 89.0938,124.3125 Q88.4688,124.6406 87.9688,125.3906 Q87.4844,126.1406 87.4844,127.1719 L87.4844,128.2656 Q87.4844,129.5 88.375,130.3281 Q89.2656,131.1406 90.8594,131.1406 Q91.7969,131.1406 92.4531,130.8906 Q92.8438,130.7344 93.2656,130.2969 Q93.5313,130.0313 93.6719,129.9531 Q93.8281,129.875 94.0313,129.875 Q94.3594,129.875 94.6094,130.1406 Q94.875,130.3906 94.875,130.7344 Q94.875,131.0781 94.5313,131.4844 Q94.0313,132.0625 93.2344,132.3906 Q92.1563,132.8438 90.8594,132.8438 Q89.3438,132.8438 88.1406,132.2188 Q87.1563,131.7188 86.4688,130.6563 Q85.7813,129.5781 85.7813,128.2969 L85.7813,127.1406 Q85.7813,125.8125 86.3906,124.6719 Q87.0156,123.5156 88.1094,122.9063 Q89.2031,122.2813 90.4375,122.2813 Q91.1719,122.2813 91.8125,122.4531 Q92.4688,122.6094 93.0156,122.9688 Z "/><text fill="#000000" font-family="sans-serif" font-size="14" lengthAdjust="spacingAndGlyphs" textLength="149" x="110.75" y="126.5332">WorkOrderItemProvider</text><text fill="#000000" font-family="sans-serif" font-size="10" lengthAdjust="spacingAndGlyphs" textLength="135" x="117.75" y="139.9902">org.eclipse.epf.uma.provider</text><line style="stroke: #A80036; stroke-width: 1.5;" x1="8" x2="330" y1="147.1875" y2="147.1875"/><ellipse cx="18" cy="158.1875" fill="#84BE84" rx="3" ry="3" style="stroke: #038048; stroke-width: 1.0;"/><text fill="#000000" font-family="sans-serif" font-size="11" lengthAdjust="spacingAndGlyphs" textLength="196" x="27" y="162.6064">WorkOrderItemProvider(AdapterFactory)</text><ellipse cx="18" cy="172.0234" fill="#84BE84" rx="3" ry="3" style="stroke: #038048; stroke-width: 1.0;"/><text fill="#000000" font-family="sans-serif" font-size="11" lengthAdjust="spacingAndGlyphs" textLength="298" x="27" y="176.4424">getPropertyDescriptors(Object): List&lt;IItemPropertyDescriptor&gt;</text><ellipse cx="18" cy="185.8594" fill="#84BE84" rx="3" ry="3" style="stroke: #038048; stroke-width: 1.0;"/><text fill="#000000" font-family="sans-serif" font-size="11" lengthAdjust="spacingAndGlyphs" textLength="119" x="27" y="190.2783">getImage(Object): Object</text><ellipse cx="18" cy="199.6953" fill="#84BE84" rx="3" ry="3" style="stroke: #038048; stroke-width: 1.0;"/><text fill="#000000" font-family="sans-serif" font-size="11" lengthAdjust="spacingAndGlyphs" textLength="109" x="27" y="204.1143">getText(Object): String</text><ellipse cx="18" cy="213.5313" fill="#84BE84" rx="3" ry="3" style="stroke: #038048; stroke-width: 1.0;"/><text fill="#000000" font-family="sans-serif" font-size="11" lengthAdjust="spacingAndGlyphs" textLength="157" x="27" y="217.9502">notifyChanged(Notification): void</text></a><!--MD5=[8490f5ce6fa0b34cfe1ade481282368e]
class org.eclipse.epf.uma.provider.ProcessElementItemProvider--><a href="ProcessElementItemProvider.html" target="_top" title="ProcessElementItemProvider.html" xlink:actuate="onRequest" xlink:href="ProcessElementItemProvider.html" xlink:show="new" xlink:title="ProcessElementItemProvider.html" xlink:type="simple"><rect codeLine="13" fill="#FEFECE" filter="url(#f14bkgfalg9cgn)" height="40.1875" id="org.eclipse.epf.uma.provider.ProcessElementItemProvider" style="stroke: #A80036; stroke-width: 1.5;" width="213" x="62.5" y="7"/><ellipse cx="77.5" cy="27.0938" fill="#ADD1B2" rx="11" ry="11" style="stroke: #A80036; stroke-width: 1.0;"/><path d="M80.2656,22.9688 Q80.4219,22.75 80.6094,22.6406 Q80.7969,22.5313 81.0156,22.5313 Q81.3906,22.5313 81.625,22.7969 Q81.8594,23.0469 81.8594,23.6563 L81.8594,25.1094 Q81.8594,25.7188 81.625,25.9844 Q81.3906,26.25 81.0156,26.25 Q80.6719,26.25 80.4688,26.0469 Q80.2656,25.8594 80.1563,25.3438 Q80.1094,24.9844 79.9219,24.7969 Q79.5938,24.4219 78.9844,24.2031 Q78.375,23.9844 77.75,23.9844 Q76.9844,23.9844 76.3438,24.3125 Q75.7188,24.6406 75.2188,25.3906 Q74.7344,26.1406 74.7344,27.1719 L74.7344,28.2656 Q74.7344,29.5 75.625,30.3281 Q76.5156,31.1406 78.1094,31.1406 Q79.0469,31.1406 79.7031,30.8906 Q80.0938,30.7344 80.5156,30.2969 Q80.7813,30.0313 80.9219,29.9531 Q81.0781,29.875 81.2813,29.875 Q81.6094,29.875 81.8594,30.1406 Q82.125,30.3906 82.125,30.7344 Q82.125,31.0781 81.7813,31.4844 Q81.2813,32.0625 80.4844,32.3906 Q79.4063,32.8438 78.1094,32.8438 Q76.5938,32.8438 75.3906,32.2188 Q74.4063,31.7188 73.7188,30.6563 Q73.0313,29.5781 73.0313,28.2969 L73.0313,27.1406 Q73.0313,25.8125 73.6406,24.6719 Q74.2656,23.5156 75.3594,22.9063 Q76.4531,22.2813 77.6875,22.2813 Q78.4219,22.2813 79.0625,22.4531 Q79.7188,22.6094 80.2656,22.9688 Z "/><text fill="#000000" font-family="sans-serif" font-size="14" lengthAdjust="spacingAndGlyphs" textLength="181" x="91.5" y="26.5332">ProcessElementItemProvider</text><text fill="#000000" font-family="sans-serif" font-size="10" lengthAdjust="spacingAndGlyphs" textLength="135" x="114.5" y="39.9902">org.eclipse.epf.uma.provider</text></a><!--MD5=[4e929373b48ef3d6b2bcf98b96168baa]
reverse link org.eclipse.epf.uma.provider.ProcessElementItemProvider to org.eclipse.epf.uma.provider.WorkOrderItemProvider--><path codeLine="15" d="M169,67.38 C169,79.73 169,93.63 169,106.97 " fill="none" id="org.eclipse.epf.uma.provider.ProcessElementItemProvider-backto-org.eclipse.epf.uma.provider.WorkOrderItemProvider" style="stroke: #A80036; stroke-width: 1.0;"/><polygon fill="none" points="162,67.27,169,47.27,176,67.27,162,67.27" style="stroke: #A80036; stroke-width: 1.0;"/><text fill="#888888" font-family="sans-serif" font-size="10" lengthAdjust="spacingAndGlyphs" textLength="190" x="71" y="247.748">UMLDoclet 2.0.12, PlantUML 1.2020.16</text><!--MD5=[0c5b2d0b8dc2639b88f980761592f57b]
@startuml
    set namespaceSeparator none
    hide empty fields
    hide empty methods

    class "<size:14>WorkOrderItemProvider\n<size:10>org.eclipse.epf.uma.provider" as org.eclipse.epf.uma.provider.WorkOrderItemProvider [[WorkOrderItemProvider.html]] {
        +WorkOrderItemProvider(AdapterFactory)
        +getPropertyDescriptors(Object): List<IItemPropertyDescriptor>
        +getImage(Object): Object
        +getText(Object): String
        +notifyChanged(Notification): void
    }

    class "<size:14>ProcessElementItemProvider\n<size:10>org.eclipse.epf.uma.provider" as org.eclipse.epf.uma.provider.ProcessElementItemProvider [[ProcessElementItemProvider.html]]

    org.eclipse.epf.uma.provider.ProcessElementItemProvider <|- - org.eclipse.epf.uma.provider.WorkOrderItemProvider

    center footer UMLDoclet 2.0.12, PlantUML 1.2020.16
@enduml

PlantUML version 1.2020.16(Sun Aug 23 22:20:43 CEST 2020)
(APACHE source distribution)
Java Runtime: Java(TM) SE Runtime Environment
JVM: Java HotSpot(TM) 64-Bit Server VM
Default Encoding: Cp1252
Language: es
Country: ES
--></g></svg>