<?xml version="1.0" encoding="UTF-8" standalone="no"?><svg xmlns="http://www.w3.org/2000/svg" xmlns:xlink="http://www.w3.org/1999/xlink" contentScriptType="application/ecmascript" contentStyleType="text/css" height="261px" preserveAspectRatio="none" style="width:350px;height:261px;" version="1.1" viewBox="0 0 350 261" width="350px" zoomAndPan="magnify"><defs><filter height="300%" id="flj360ke4hjct" width="300%" x="-1" y="-1"><feGaussianBlur result="blurOut" stdDeviation="2.0"/><feColorMatrix in="blurOut" result="blurOut2" type="matrix" values="0 0 0 0 0 0 0 0 0 0 0 0 0 0 0 0 0 0 .4 0"/><feOffset dx="4.0" dy="4.0" in="blurOut2" result="blurOut3"/><feBlend in="SourceGraphic" in2="blurOut3" mode="normal"/></filter></defs><g><!--MD5=[22d5aeebb1a4ead4085f582359cebf4c]
class org.eclipse.epf.uma.provider.WorkProductDescriptorItemProvider--><a href="WorkProductDescriptorItemProvider.html" target="_top" title="WorkProductDescriptorItemProvider.html" xlink:actuate="onRequest" xlink:href="WorkProductDescriptorItemProvider.html" xlink:show="new" xlink:title="WorkProductDescriptorItemProvider.html" xlink:type="simple"><rect codeLine="5" fill="#FEFECE" filter="url(#flj360ke4hjct)" height="117.3672" id="org.eclipse.epf.uma.provider.WorkProductDescriptorItemProvider" style="stroke: #A80036; stroke-width: 1.5;" width="324" x="7" y="107"/><ellipse cx="51.75" cy="127.0938" fill="#ADD1B2" rx="11" ry="11" style="stroke: #A80036; stroke-width: 1.0;"/><path d="M54.5156,122.9688 Q54.6719,122.75 54.8594,122.6406 Q55.0469,122.5313 55.2656,122.5313 Q55.6406,122.5313 55.875,122.7969 Q56.1094,123.0469 56.1094,123.6563 L56.1094,125.1094 Q56.1094,125.7188 55.875,125.9844 Q55.6406,126.25 55.2656,126.25 Q54.9219,126.25 54.7188,126.0469 Q54.5156,125.8594 54.4063,125.3438 Q54.3594,124.9844 54.1719,124.7969 Q53.8438,124.4219 53.2344,124.2031 Q52.625,123.9844 52,123.9844 Q51.2344,123.9844 50.5938,124.3125 Q49.9688,124.6406 49.4688,125.3906 Q48.9844,126.1406 48.9844,127.1719 L48.9844,128.2656 Q48.9844,129.5 49.875,130.3281 Q50.7656,131.1406 52.3594,131.1406 Q53.2969,131.1406 53.9531,130.8906 Q54.3438,130.7344 54.7656,130.2969 Q55.0313,130.0313 55.1719,129.9531 Q55.3281,129.875 55.5313,129.875 Q55.8594,129.875 56.1094,130.1406 Q56.375,130.3906 56.375,130.7344 Q56.375,131.0781 56.0313,131.4844 Q55.5313,132.0625 54.7344,132.3906 Q53.6563,132.8438 52.3594,132.8438 Q50.8438,132.8438 49.6406,132.2188 Q48.6563,131.7188 47.9688,130.6563 Q47.2813,129.5781 47.2813,128.2969 L47.2813,127.1406 Q47.2813,125.8125 47.8906,124.6719 Q48.5156,123.5156 49.6094,122.9063 Q50.7031,122.2813 51.9375,122.2813 Q52.6719,122.2813 53.3125,122.4531 Q53.9688,122.6094 54.5156,122.9688 Z "/><text fill="#000000" font-family="sans-serif" font-size="14" lengthAdjust="spacingAndGlyphs" textLength="226" x="72.25" y="126.5332">WorkProductDescriptorItemProvider</text><text fill="#000000" font-family="sans-serif" font-size="10" lengthAdjust="spacingAndGlyphs" textLength="135" x="117.75" y="139.9902">org.eclipse.epf.uma.provider</text><line style="stroke: #A80036; stroke-width: 1.5;" x1="8" x2="330" y1="147.1875" y2="147.1875"/><ellipse cx="18" cy="158.1875" fill="#84BE84" rx="3" ry="3" style="stroke: #038048; stroke-width: 1.0;"/><text fill="#000000" font-family="sans-serif" font-size="11" lengthAdjust="spacingAndGlyphs" textLength="255" x="27" y="162.6064">WorkProductDescriptorItemProvider(AdapterFactory)</text><ellipse cx="18" cy="172.0234" fill="#84BE84" rx="3" ry="3" style="stroke: #038048; stroke-width: 1.0;"/><text fill="#000000" font-family="sans-serif" font-size="11" lengthAdjust="spacingAndGlyphs" textLength="298" x="27" y="176.4424">getPropertyDescriptors(Object): List&lt;IItemPropertyDescriptor&gt;</text><ellipse cx="18" cy="185.8594" fill="#84BE84" rx="3" ry="3" style="stroke: #038048; stroke-width: 1.0;"/><text fill="#000000" font-family="sans-serif" font-size="11" lengthAdjust="spacingAndGlyphs" textLength="119" x="27" y="190.2783">getImage(Object): Object</text><ellipse cx="18" cy="199.6953" fill="#84BE84" rx="3" ry="3" style="stroke: #038048; stroke-width: 1.0;"/><text fill="#000000" font-family="sans-serif" font-size="11" lengthAdjust="spacingAndGlyphs" textLength="109" x="27" y="204.1143">getText(Object): String</text><ellipse cx="18" cy="213.5313" fill="#84BE84" rx="3" ry="3" style="stroke: #038048; stroke-width: 1.0;"/><text fill="#000000" font-family="sans-serif" font-size="11" lengthAdjust="spacingAndGlyphs" textLength="157" x="27" y="217.9502">notifyChanged(Notification): void</text></a><!--MD5=[426a62f909488c300da243a010d35ec2]
class org.eclipse.epf.uma.provider.DescriptorItemProvider--><a href="DescriptorItemProvider.html" target="_top" title="DescriptorItemProvider.html" xlink:actuate="onRequest" xlink:href="DescriptorItemProvider.html" xlink:show="new" xlink:title="DescriptorItemProvider.html" xlink:type="simple"><rect codeLine="13" fill="#FEFECE" filter="url(#flj360ke4hjct)" height="40.1875" id="org.eclipse.epf.uma.provider.DescriptorItemProvider" style="stroke: #A80036; stroke-width: 1.5;" width="176" x="81" y="7"/><ellipse cx="96" cy="27.0938" fill="#ADD1B2" rx="11" ry="11" style="stroke: #A80036; stroke-width: 1.0;"/><path d="M98.7656,22.9688 Q98.9219,22.75 99.1094,22.6406 Q99.2969,22.5313 99.5156,22.5313 Q99.8906,22.5313 100.125,22.7969 Q100.3594,23.0469 100.3594,23.6563 L100.3594,25.1094 Q100.3594,25.7188 100.125,25.9844 Q99.8906,26.25 99.5156,26.25 Q99.1719,26.25 98.9688,26.0469 Q98.7656,25.8594 98.6563,25.3438 Q98.6094,24.9844 98.4219,24.7969 Q98.0938,24.4219 97.4844,24.2031 Q96.875,23.9844 96.25,23.9844 Q95.4844,23.9844 94.8438,24.3125 Q94.2188,24.6406 93.7188,25.3906 Q93.2344,26.1406 93.2344,27.1719 L93.2344,28.2656 Q93.2344,29.5 94.125,30.3281 Q95.0156,31.1406 96.6094,31.1406 Q97.5469,31.1406 98.2031,30.8906 Q98.5938,30.7344 99.0156,30.2969 Q99.2813,30.0313 99.4219,29.9531 Q99.5781,29.875 99.7813,29.875 Q100.1094,29.875 100.3594,30.1406 Q100.625,30.3906 100.625,30.7344 Q100.625,31.0781 100.2813,31.4844 Q99.7813,32.0625 98.9844,32.3906 Q97.9063,32.8438 96.6094,32.8438 Q95.0938,32.8438 93.8906,32.2188 Q92.9063,31.7188 92.2188,30.6563 Q91.5313,29.5781 91.5313,28.2969 L91.5313,27.1406 Q91.5313,25.8125 92.1406,24.6719 Q92.7656,23.5156 93.8594,22.9063 Q94.9531,22.2813 96.1875,22.2813 Q96.9219,22.2813 97.5625,22.4531 Q98.2188,22.6094 98.7656,22.9688 Z "/><text fill="#000000" font-family="sans-serif" font-size="14" lengthAdjust="spacingAndGlyphs" textLength="144" x="110" y="26.5332">DescriptorItemProvider</text><text fill="#000000" font-family="sans-serif" font-size="10" lengthAdjust="spacingAndGlyphs" textLength="135" x="114.5" y="39.9902">org.eclipse.epf.uma.provider</text></a><!--MD5=[9b4df2593f00e4cd79472b9b415e0492]
reverse link org.eclipse.epf.uma.provider.DescriptorItemProvider to org.eclipse.epf.uma.provider.WorkProductDescriptorItemProvider--><path codeLine="15" d="M169,67.38 C169,79.73 169,93.63 169,106.97 " fill="none" id="org.eclipse.epf.uma.provider.DescriptorItemProvider-backto-org.eclipse.epf.uma.provider.WorkProductDescriptorItemProvider" style="stroke: #A80036; stroke-width: 1.0;"/><polygon fill="none" points="162,67.27,169,47.27,176,67.27,162,67.27" style="stroke: #A80036; stroke-width: 1.0;"/><text fill="#888888" font-family="sans-serif" font-size="10" lengthAdjust="spacingAndGlyphs" textLength="190" x="71" y="247.748">UMLDoclet 2.0.12, PlantUML 1.2020.16</text><!--MD5=[a2e9a99a95941f69d7074d1e938c9a42]
@startuml
    set namespaceSeparator none
    hide empty fields
    hide empty methods

    class "<size:14>WorkProductDescriptorItemProvider\n<size:10>org.eclipse.epf.uma.provider" as org.eclipse.epf.uma.provider.WorkProductDescriptorItemProvider [[WorkProductDescriptorItemProvider.html]] {
        +WorkProductDescriptorItemProvider(AdapterFactory)
        +getPropertyDescriptors(Object): List<IItemPropertyDescriptor>
        +getImage(Object): Object
        +getText(Object): String
        +notifyChanged(Notification): void
    }

    class "<size:14>DescriptorItemProvider\n<size:10>org.eclipse.epf.uma.provider" as org.eclipse.epf.uma.provider.DescriptorItemProvider [[DescriptorItemProvider.html]]

    org.eclipse.epf.uma.provider.DescriptorItemProvider <|- - org.eclipse.epf.uma.provider.WorkProductDescriptorItemProvider

    center footer UMLDoclet 2.0.12, PlantUML 1.2020.16
@enduml

PlantUML version 1.2020.16(Sun Aug 23 22:20:43 CEST 2020)
(APACHE source distribution)
Java Runtime: Java(TM) SE Runtime Environment
JVM: Java HotSpot(TM) 64-Bit Server VM
Default Encoding: Cp1252
Language: es
Country: ES
--></g></svg>