<?xml version="1.0" encoding="UTF-8" standalone="no"?><svg xmlns="http://www.w3.org/2000/svg" xmlns:xlink="http://www.w3.org/1999/xlink" contentScriptType="application/ecmascript" contentStyleType="text/css" height="261px" preserveAspectRatio="none" style="width:350px;height:261px;" version="1.1" viewBox="0 0 350 261" width="350px" zoomAndPan="magnify"><defs><filter height="300%" id="f16l20rl1gczo0" width="300%" x="-1" y="-1"><feGaussianBlur result="blurOut" stdDeviation="2.0"/><feColorMatrix in="blurOut" result="blurOut2" type="matrix" values="0 0 0 0 0 0 0 0 0 0 0 0 0 0 0 0 0 0 .4 0"/><feOffset dx="4.0" dy="4.0" in="blurOut2" result="blurOut3"/><feBlend in="SourceGraphic" in2="blurOut3" mode="normal"/></filter></defs><g><!--MD5=[62bceed3bfd6d0772c7cc0290c751caf]
class org.eclipse.epf.uma.provider.WorkProductTypeItemProvider--><a href="WorkProductTypeItemProvider.html" target="_top" title="WorkProductTypeItemProvider.html" xlink:actuate="onRequest" xlink:href="WorkProductTypeItemProvider.html" xlink:show="new" xlink:title="WorkProductTypeItemProvider.html" xlink:type="simple"><rect codeLine="5" fill="#FEFECE" filter="url(#f16l20rl1gczo0)" height="117.3672" id="org.eclipse.epf.uma.provider.WorkProductTypeItemProvider" style="stroke: #A80036; stroke-width: 1.5;" width="324" x="7" y="107"/><ellipse cx="68.25" cy="127.0938" fill="#ADD1B2" rx="11" ry="11" style="stroke: #A80036; stroke-width: 1.0;"/><path d="M71.0156,122.9688 Q71.1719,122.75 71.3594,122.6406 Q71.5469,122.5313 71.7656,122.5313 Q72.1406,122.5313 72.375,122.7969 Q72.6094,123.0469 72.6094,123.6563 L72.6094,125.1094 Q72.6094,125.7188 72.375,125.9844 Q72.1406,126.25 71.7656,126.25 Q71.4219,126.25 71.2188,126.0469 Q71.0156,125.8594 70.9063,125.3438 Q70.8594,124.9844 70.6719,124.7969 Q70.3438,124.4219 69.7344,124.2031 Q69.125,123.9844 68.5,123.9844 Q67.7344,123.9844 67.0938,124.3125 Q66.4688,124.6406 65.9688,125.3906 Q65.4844,126.1406 65.4844,127.1719 L65.4844,128.2656 Q65.4844,129.5 66.375,130.3281 Q67.2656,131.1406 68.8594,131.1406 Q69.7969,131.1406 70.4531,130.8906 Q70.8438,130.7344 71.2656,130.2969 Q71.5313,130.0313 71.6719,129.9531 Q71.8281,129.875 72.0313,129.875 Q72.3594,129.875 72.6094,130.1406 Q72.875,130.3906 72.875,130.7344 Q72.875,131.0781 72.5313,131.4844 Q72.0313,132.0625 71.2344,132.3906 Q70.1563,132.8438 68.8594,132.8438 Q67.3438,132.8438 66.1406,132.2188 Q65.1563,131.7188 64.4688,130.6563 Q63.7813,129.5781 63.7813,128.2969 L63.7813,127.1406 Q63.7813,125.8125 64.3906,124.6719 Q65.0156,123.5156 66.1094,122.9063 Q67.2031,122.2813 68.4375,122.2813 Q69.1719,122.2813 69.8125,122.4531 Q70.4688,122.6094 71.0156,122.9688 Z "/><text fill="#000000" font-family="sans-serif" font-size="14" lengthAdjust="spacingAndGlyphs" textLength="193" x="88.75" y="126.5332">WorkProductTypeItemProvider</text><text fill="#000000" font-family="sans-serif" font-size="10" lengthAdjust="spacingAndGlyphs" textLength="135" x="117.75" y="139.9902">org.eclipse.epf.uma.provider</text><line style="stroke: #A80036; stroke-width: 1.5;" x1="8" x2="330" y1="147.1875" y2="147.1875"/><ellipse cx="18" cy="158.1875" fill="#84BE84" rx="3" ry="3" style="stroke: #038048; stroke-width: 1.0;"/><text fill="#000000" font-family="sans-serif" font-size="11" lengthAdjust="spacingAndGlyphs" textLength="229" x="27" y="162.6064">WorkProductTypeItemProvider(AdapterFactory)</text><ellipse cx="18" cy="172.0234" fill="#84BE84" rx="3" ry="3" style="stroke: #038048; stroke-width: 1.0;"/><text fill="#000000" font-family="sans-serif" font-size="11" lengthAdjust="spacingAndGlyphs" textLength="298" x="27" y="176.4424">getPropertyDescriptors(Object): List&lt;IItemPropertyDescriptor&gt;</text><ellipse cx="18" cy="185.8594" fill="#84BE84" rx="3" ry="3" style="stroke: #038048; stroke-width: 1.0;"/><text fill="#000000" font-family="sans-serif" font-size="11" lengthAdjust="spacingAndGlyphs" textLength="119" x="27" y="190.2783">getImage(Object): Object</text><ellipse cx="18" cy="199.6953" fill="#84BE84" rx="3" ry="3" style="stroke: #038048; stroke-width: 1.0;"/><text fill="#000000" font-family="sans-serif" font-size="11" lengthAdjust="spacingAndGlyphs" textLength="109" x="27" y="204.1143">getText(Object): String</text><ellipse cx="18" cy="213.5313" fill="#84BE84" rx="3" ry="3" style="stroke: #038048; stroke-width: 1.0;"/><text fill="#000000" font-family="sans-serif" font-size="11" lengthAdjust="spacingAndGlyphs" textLength="157" x="27" y="217.9502">notifyChanged(Notification): void</text></a><!--MD5=[7b5cbb136e15c2ca83e34d6bf95be865]
class org.eclipse.epf.uma.provider.ContentCategoryItemProvider--><a href="ContentCategoryItemProvider.html" target="_top" title="ContentCategoryItemProvider.html" xlink:actuate="onRequest" xlink:href="ContentCategoryItemProvider.html" xlink:show="new" xlink:title="ContentCategoryItemProvider.html" xlink:type="simple"><rect codeLine="13" fill="#FEFECE" filter="url(#f16l20rl1gczo0)" height="40.1875" id="org.eclipse.epf.uma.provider.ContentCategoryItemProvider" style="stroke: #A80036; stroke-width: 1.5;" width="219" x="59.5" y="7"/><ellipse cx="74.5" cy="27.0938" fill="#ADD1B2" rx="11" ry="11" style="stroke: #A80036; stroke-width: 1.0;"/><path d="M77.2656,22.9688 Q77.4219,22.75 77.6094,22.6406 Q77.7969,22.5313 78.0156,22.5313 Q78.3906,22.5313 78.625,22.7969 Q78.8594,23.0469 78.8594,23.6563 L78.8594,25.1094 Q78.8594,25.7188 78.625,25.9844 Q78.3906,26.25 78.0156,26.25 Q77.6719,26.25 77.4688,26.0469 Q77.2656,25.8594 77.1563,25.3438 Q77.1094,24.9844 76.9219,24.7969 Q76.5938,24.4219 75.9844,24.2031 Q75.375,23.9844 74.75,23.9844 Q73.9844,23.9844 73.3438,24.3125 Q72.7188,24.6406 72.2188,25.3906 Q71.7344,26.1406 71.7344,27.1719 L71.7344,28.2656 Q71.7344,29.5 72.625,30.3281 Q73.5156,31.1406 75.1094,31.1406 Q76.0469,31.1406 76.7031,30.8906 Q77.0938,30.7344 77.5156,30.2969 Q77.7813,30.0313 77.9219,29.9531 Q78.0781,29.875 78.2813,29.875 Q78.6094,29.875 78.8594,30.1406 Q79.125,30.3906 79.125,30.7344 Q79.125,31.0781 78.7813,31.4844 Q78.2813,32.0625 77.4844,32.3906 Q76.4063,32.8438 75.1094,32.8438 Q73.5938,32.8438 72.3906,32.2188 Q71.4063,31.7188 70.7188,30.6563 Q70.0313,29.5781 70.0313,28.2969 L70.0313,27.1406 Q70.0313,25.8125 70.6406,24.6719 Q71.2656,23.5156 72.3594,22.9063 Q73.4531,22.2813 74.6875,22.2813 Q75.4219,22.2813 76.0625,22.4531 Q76.7188,22.6094 77.2656,22.9688 Z "/><text fill="#000000" font-family="sans-serif" font-size="14" lengthAdjust="spacingAndGlyphs" textLength="187" x="88.5" y="26.5332">ContentCategoryItemProvider</text><text fill="#000000" font-family="sans-serif" font-size="10" lengthAdjust="spacingAndGlyphs" textLength="135" x="114.5" y="39.9902">org.eclipse.epf.uma.provider</text></a><!--MD5=[54a3c3067a31ba36cd7af47d205f97ce]
reverse link org.eclipse.epf.uma.provider.ContentCategoryItemProvider to org.eclipse.epf.uma.provider.WorkProductTypeItemProvider--><path codeLine="15" d="M169,67.38 C169,79.73 169,93.63 169,106.97 " fill="none" id="org.eclipse.epf.uma.provider.ContentCategoryItemProvider-backto-org.eclipse.epf.uma.provider.WorkProductTypeItemProvider" style="stroke: #A80036; stroke-width: 1.0;"/><polygon fill="none" points="162,67.27,169,47.27,176,67.27,162,67.27" style="stroke: #A80036; stroke-width: 1.0;"/><text fill="#888888" font-family="sans-serif" font-size="10" lengthAdjust="spacingAndGlyphs" textLength="190" x="71" y="247.748">UMLDoclet 2.0.12, PlantUML 1.2020.16</text><!--MD5=[5c5509851160efd7f38c51aba6d0b619]
@startuml
    set namespaceSeparator none
    hide empty fields
    hide empty methods

    class "<size:14>WorkProductTypeItemProvider\n<size:10>org.eclipse.epf.uma.provider" as org.eclipse.epf.uma.provider.WorkProductTypeItemProvider [[WorkProductTypeItemProvider.html]] {
        +WorkProductTypeItemProvider(AdapterFactory)
        +getPropertyDescriptors(Object): List<IItemPropertyDescriptor>
        +getImage(Object): Object
        +getText(Object): String
        +notifyChanged(Notification): void
    }

    class "<size:14>ContentCategoryItemProvider\n<size:10>org.eclipse.epf.uma.provider" as org.eclipse.epf.uma.provider.ContentCategoryItemProvider [[ContentCategoryItemProvider.html]]

    org.eclipse.epf.uma.provider.ContentCategoryItemProvider <|- - org.eclipse.epf.uma.provider.WorkProductTypeItemProvider

    center footer UMLDoclet 2.0.12, PlantUML 1.2020.16
@enduml

PlantUML version 1.2020.16(Sun Aug 23 22:20:43 CEST 2020)
(APACHE source distribution)
Java Runtime: Java(TM) SE Runtime Environment
JVM: Java HotSpot(TM) 64-Bit Server VM
Default Encoding: Cp1252
Language: es
Country: ES
--></g></svg>