<?xml version="1.0" encoding="UTF-8" standalone="no"?><svg xmlns="http://www.w3.org/2000/svg" xmlns:xlink="http://www.w3.org/1999/xlink" contentScriptType="application/ecmascript" contentStyleType="text/css" height="261px" preserveAspectRatio="none" style="width:350px;height:261px;" version="1.1" viewBox="0 0 350 261" width="350px" zoomAndPan="magnify"><defs><filter height="300%" id="f19330qjnkpsw4" width="300%" x="-1" y="-1"><feGaussianBlur result="blurOut" stdDeviation="2.0"/><feColorMatrix in="blurOut" result="blurOut2" type="matrix" values="0 0 0 0 0 0 0 0 0 0 0 0 0 0 0 0 0 0 .4 0"/><feOffset dx="4.0" dy="4.0" in="blurOut2" result="blurOut3"/><feBlend in="SourceGraphic" in2="blurOut3" mode="normal"/></filter></defs><g><!--MD5=[2a9dd0474984d694339c853ed830c5d2]
class org.eclipse.epf.uma.provider.WorkProductDescriptionItemProvider--><a href="WorkProductDescriptionItemProvider.html" target="_top" title="WorkProductDescriptionItemProvider.html" xlink:actuate="onRequest" xlink:href="WorkProductDescriptionItemProvider.html" xlink:show="new" xlink:title="WorkProductDescriptionItemProvider.html" xlink:type="simple"><rect codeLine="5" fill="#FEFECE" filter="url(#f19330qjnkpsw4)" height="117.3672" id="org.eclipse.epf.uma.provider.WorkProductDescriptionItemProvider" style="stroke: #A80036; stroke-width: 1.5;" width="324" x="7" y="107"/><ellipse cx="49" cy="127.0938" fill="#ADD1B2" rx="11" ry="11" style="stroke: #A80036; stroke-width: 1.0;"/><path d="M51.7656,122.9688 Q51.9219,122.75 52.1094,122.6406 Q52.2969,122.5313 52.5156,122.5313 Q52.8906,122.5313 53.125,122.7969 Q53.3594,123.0469 53.3594,123.6563 L53.3594,125.1094 Q53.3594,125.7188 53.125,125.9844 Q52.8906,126.25 52.5156,126.25 Q52.1719,126.25 51.9688,126.0469 Q51.7656,125.8594 51.6563,125.3438 Q51.6094,124.9844 51.4219,124.7969 Q51.0938,124.4219 50.4844,124.2031 Q49.875,123.9844 49.25,123.9844 Q48.4844,123.9844 47.8438,124.3125 Q47.2188,124.6406 46.7188,125.3906 Q46.2344,126.1406 46.2344,127.1719 L46.2344,128.2656 Q46.2344,129.5 47.125,130.3281 Q48.0156,131.1406 49.6094,131.1406 Q50.5469,131.1406 51.2031,130.8906 Q51.5938,130.7344 52.0156,130.2969 Q52.2813,130.0313 52.4219,129.9531 Q52.5781,129.875 52.7813,129.875 Q53.1094,129.875 53.3594,130.1406 Q53.625,130.3906 53.625,130.7344 Q53.625,131.0781 53.2813,131.4844 Q52.7813,132.0625 51.9844,132.3906 Q50.9063,132.8438 49.6094,132.8438 Q48.0938,132.8438 46.8906,132.2188 Q45.9063,131.7188 45.2188,130.6563 Q44.5313,129.5781 44.5313,128.2969 L44.5313,127.1406 Q44.5313,125.8125 45.1406,124.6719 Q45.7656,123.5156 46.8594,122.9063 Q47.9531,122.2813 49.1875,122.2813 Q49.9219,122.2813 50.5625,122.4531 Q51.2188,122.6094 51.7656,122.9688 Z "/><text fill="#000000" font-family="sans-serif" font-size="14" lengthAdjust="spacingAndGlyphs" textLength="232" x="69" y="126.5332">WorkProductDescriptionItemProvider</text><text fill="#000000" font-family="sans-serif" font-size="10" lengthAdjust="spacingAndGlyphs" textLength="135" x="117.5" y="139.9902">org.eclipse.epf.uma.provider</text><line style="stroke: #A80036; stroke-width: 1.5;" x1="8" x2="330" y1="147.1875" y2="147.1875"/><ellipse cx="18" cy="158.1875" fill="#84BE84" rx="3" ry="3" style="stroke: #038048; stroke-width: 1.0;"/><text fill="#000000" font-family="sans-serif" font-size="11" lengthAdjust="spacingAndGlyphs" textLength="259" x="27" y="162.6064">WorkProductDescriptionItemProvider(AdapterFactory)</text><ellipse cx="18" cy="172.0234" fill="#84BE84" rx="3" ry="3" style="stroke: #038048; stroke-width: 1.0;"/><text fill="#000000" font-family="sans-serif" font-size="11" lengthAdjust="spacingAndGlyphs" textLength="298" x="27" y="176.4424">getPropertyDescriptors(Object): List&lt;IItemPropertyDescriptor&gt;</text><ellipse cx="18" cy="185.8594" fill="#84BE84" rx="3" ry="3" style="stroke: #038048; stroke-width: 1.0;"/><text fill="#000000" font-family="sans-serif" font-size="11" lengthAdjust="spacingAndGlyphs" textLength="119" x="27" y="190.2783">getImage(Object): Object</text><ellipse cx="18" cy="199.6953" fill="#84BE84" rx="3" ry="3" style="stroke: #038048; stroke-width: 1.0;"/><text fill="#000000" font-family="sans-serif" font-size="11" lengthAdjust="spacingAndGlyphs" textLength="109" x="27" y="204.1143">getText(Object): String</text><ellipse cx="18" cy="213.5313" fill="#84BE84" rx="3" ry="3" style="stroke: #038048; stroke-width: 1.0;"/><text fill="#000000" font-family="sans-serif" font-size="11" lengthAdjust="spacingAndGlyphs" textLength="157" x="27" y="217.9502">notifyChanged(Notification): void</text></a><!--MD5=[51de06e52fa2c76029d70c6ddf5565fb]
class org.eclipse.epf.uma.provider.ContentDescriptionItemProvider--><a href="ContentDescriptionItemProvider.html" target="_top" title="ContentDescriptionItemProvider.html" xlink:actuate="onRequest" xlink:href="ContentDescriptionItemProvider.html" xlink:show="new" xlink:title="ContentDescriptionItemProvider.html" xlink:type="simple"><rect codeLine="13" fill="#FEFECE" filter="url(#f19330qjnkpsw4)" height="40.1875" id="org.eclipse.epf.uma.provider.ContentDescriptionItemProvider" style="stroke: #A80036; stroke-width: 1.5;" width="232" x="53" y="7"/><ellipse cx="68" cy="27.0938" fill="#ADD1B2" rx="11" ry="11" style="stroke: #A80036; stroke-width: 1.0;"/><path d="M70.7656,22.9688 Q70.9219,22.75 71.1094,22.6406 Q71.2969,22.5313 71.5156,22.5313 Q71.8906,22.5313 72.125,22.7969 Q72.3594,23.0469 72.3594,23.6563 L72.3594,25.1094 Q72.3594,25.7188 72.125,25.9844 Q71.8906,26.25 71.5156,26.25 Q71.1719,26.25 70.9688,26.0469 Q70.7656,25.8594 70.6563,25.3438 Q70.6094,24.9844 70.4219,24.7969 Q70.0938,24.4219 69.4844,24.2031 Q68.875,23.9844 68.25,23.9844 Q67.4844,23.9844 66.8438,24.3125 Q66.2188,24.6406 65.7188,25.3906 Q65.2344,26.1406 65.2344,27.1719 L65.2344,28.2656 Q65.2344,29.5 66.125,30.3281 Q67.0156,31.1406 68.6094,31.1406 Q69.5469,31.1406 70.2031,30.8906 Q70.5938,30.7344 71.0156,30.2969 Q71.2813,30.0313 71.4219,29.9531 Q71.5781,29.875 71.7813,29.875 Q72.1094,29.875 72.3594,30.1406 Q72.625,30.3906 72.625,30.7344 Q72.625,31.0781 72.2813,31.4844 Q71.7813,32.0625 70.9844,32.3906 Q69.9063,32.8438 68.6094,32.8438 Q67.0938,32.8438 65.8906,32.2188 Q64.9063,31.7188 64.2188,30.6563 Q63.5313,29.5781 63.5313,28.2969 L63.5313,27.1406 Q63.5313,25.8125 64.1406,24.6719 Q64.7656,23.5156 65.8594,22.9063 Q66.9531,22.2813 68.1875,22.2813 Q68.9219,22.2813 69.5625,22.4531 Q70.2188,22.6094 70.7656,22.9688 Z "/><text fill="#000000" font-family="sans-serif" font-size="14" lengthAdjust="spacingAndGlyphs" textLength="200" x="82" y="26.5332">ContentDescriptionItemProvider</text><text fill="#000000" font-family="sans-serif" font-size="10" lengthAdjust="spacingAndGlyphs" textLength="135" x="114.5" y="39.9902">org.eclipse.epf.uma.provider</text></a><!--MD5=[9ac378331357a78f3418f65fa10a3339]
reverse link org.eclipse.epf.uma.provider.ContentDescriptionItemProvider to org.eclipse.epf.uma.provider.WorkProductDescriptionItemProvider--><path codeLine="15" d="M169,67.38 C169,79.73 169,93.63 169,106.97 " fill="none" id="org.eclipse.epf.uma.provider.ContentDescriptionItemProvider-backto-org.eclipse.epf.uma.provider.WorkProductDescriptionItemProvider" style="stroke: #A80036; stroke-width: 1.0;"/><polygon fill="none" points="162,67.27,169,47.27,176,67.27,162,67.27" style="stroke: #A80036; stroke-width: 1.0;"/><text fill="#888888" font-family="sans-serif" font-size="10" lengthAdjust="spacingAndGlyphs" textLength="190" x="71" y="247.748">UMLDoclet 2.0.12, PlantUML 1.2020.16</text><!--MD5=[e89fb854e97abe11a3a08b5ca38f8d5a]
@startuml
    set namespaceSeparator none
    hide empty fields
    hide empty methods

    class "<size:14>WorkProductDescriptionItemProvider\n<size:10>org.eclipse.epf.uma.provider" as org.eclipse.epf.uma.provider.WorkProductDescriptionItemProvider [[WorkProductDescriptionItemProvider.html]] {
        +WorkProductDescriptionItemProvider(AdapterFactory)
        +getPropertyDescriptors(Object): List<IItemPropertyDescriptor>
        +getImage(Object): Object
        +getText(Object): String
        +notifyChanged(Notification): void
    }

    class "<size:14>ContentDescriptionItemProvider\n<size:10>org.eclipse.epf.uma.provider" as org.eclipse.epf.uma.provider.ContentDescriptionItemProvider [[ContentDescriptionItemProvider.html]]

    org.eclipse.epf.uma.provider.ContentDescriptionItemProvider <|- - org.eclipse.epf.uma.provider.WorkProductDescriptionItemProvider

    center footer UMLDoclet 2.0.12, PlantUML 1.2020.16
@enduml

PlantUML version 1.2020.16(Sun Aug 23 22:20:43 CEST 2020)
(APACHE source distribution)
Java Runtime: Java(TM) SE Runtime Environment
JVM: Java HotSpot(TM) 64-Bit Server VM
Default Encoding: Cp1252
Language: es
Country: ES
--></g></svg>