<?xml version="1.0" encoding="UTF-8" standalone="no"?><svg xmlns="http://www.w3.org/2000/svg" xmlns:xlink="http://www.w3.org/1999/xlink" contentScriptType="application/ecmascript" contentStyleType="text/css" height="275px" preserveAspectRatio="none" style="width:393px;height:275px;" version="1.1" viewBox="0 0 393 275" width="393px" zoomAndPan="magnify"><defs><filter height="300%" id="fa2qffwq69qtb" width="300%" x="-1" y="-1"><feGaussianBlur result="blurOut" stdDeviation="2.0"/><feColorMatrix in="blurOut" result="blurOut2" type="matrix" values="0 0 0 0 0 0 0 0 0 0 0 0 0 0 0 0 0 0 .4 0"/><feOffset dx="4.0" dy="4.0" in="blurOut2" result="blurOut3"/><feBlend in="SourceGraphic" in2="blurOut3" mode="normal"/></filter></defs><g><!--MD5=[7719bdae7d8adf18417107029941cf31]
class org.eclipse.epf.uma.provider.WorkDefinitionItemProvider--><a href="WorkDefinitionItemProvider.html" target="_top" title="WorkDefinitionItemProvider.html" xlink:actuate="onRequest" xlink:href="WorkDefinitionItemProvider.html" xlink:show="new" xlink:title="WorkDefinitionItemProvider.html" xlink:type="simple"><rect codeLine="5" fill="#FEFECE" filter="url(#fa2qffwq69qtb)" height="131.2031" id="org.eclipse.epf.uma.provider.WorkDefinitionItemProvider" style="stroke: #A80036; stroke-width: 1.5;" width="367" x="7" y="107"/><ellipse cx="100.75" cy="127.0938" fill="#ADD1B2" rx="11" ry="11" style="stroke: #A80036; stroke-width: 1.0;"/><path d="M103.5156,122.9688 Q103.6719,122.75 103.8594,122.6406 Q104.0469,122.5313 104.2656,122.5313 Q104.6406,122.5313 104.875,122.7969 Q105.1094,123.0469 105.1094,123.6563 L105.1094,125.1094 Q105.1094,125.7188 104.875,125.9844 Q104.6406,126.25 104.2656,126.25 Q103.9219,126.25 103.7188,126.0469 Q103.5156,125.8594 103.4063,125.3438 Q103.3594,124.9844 103.1719,124.7969 Q102.8438,124.4219 102.2344,124.2031 Q101.625,123.9844 101,123.9844 Q100.2344,123.9844 99.5938,124.3125 Q98.9688,124.6406 98.4688,125.3906 Q97.9844,126.1406 97.9844,127.1719 L97.9844,128.2656 Q97.9844,129.5 98.875,130.3281 Q99.7656,131.1406 101.3594,131.1406 Q102.2969,131.1406 102.9531,130.8906 Q103.3438,130.7344 103.7656,130.2969 Q104.0313,130.0313 104.1719,129.9531 Q104.3281,129.875 104.5313,129.875 Q104.8594,129.875 105.1094,130.1406 Q105.375,130.3906 105.375,130.7344 Q105.375,131.0781 105.0313,131.4844 Q104.5313,132.0625 103.7344,132.3906 Q102.6563,132.8438 101.3594,132.8438 Q99.8438,132.8438 98.6406,132.2188 Q97.6563,131.7188 96.9688,130.6563 Q96.2813,129.5781 96.2813,128.2969 L96.2813,127.1406 Q96.2813,125.8125 96.8906,124.6719 Q97.5156,123.5156 98.6094,122.9063 Q99.7031,122.2813 100.9375,122.2813 Q101.6719,122.2813 102.3125,122.4531 Q102.9688,122.6094 103.5156,122.9688 Z "/><text fill="#000000" font-family="sans-serif" font-size="14" lengthAdjust="spacingAndGlyphs" textLength="171" x="121.25" y="126.5332">WorkDefinitionItemProvider</text><text fill="#000000" font-family="sans-serif" font-size="10" lengthAdjust="spacingAndGlyphs" textLength="135" x="139.25" y="139.9902">org.eclipse.epf.uma.provider</text><line style="stroke: #A80036; stroke-width: 1.5;" x1="8" x2="373" y1="147.1875" y2="147.1875"/><ellipse cx="18" cy="158.1875" fill="#84BE84" rx="3" ry="3" style="stroke: #038048; stroke-width: 1.0;"/><text fill="#000000" font-family="sans-serif" font-size="11" lengthAdjust="spacingAndGlyphs" textLength="212" x="27" y="162.6064">WorkDefinitionItemProvider(AdapterFactory)</text><ellipse cx="18" cy="172.0234" fill="#84BE84" rx="3" ry="3" style="stroke: #038048; stroke-width: 1.0;"/><text fill="#000000" font-family="sans-serif" font-size="11" lengthAdjust="spacingAndGlyphs" textLength="298" x="27" y="176.4424">getPropertyDescriptors(Object): List&lt;IItemPropertyDescriptor&gt;</text><ellipse cx="18" cy="185.8594" fill="#84BE84" rx="3" ry="3" style="stroke: #038048; stroke-width: 1.0;"/><text fill="#000000" font-family="sans-serif" font-size="11" lengthAdjust="spacingAndGlyphs" textLength="341" x="27" y="190.2783">getChildrenFeatures(Object): Collection&lt;? extends EStructuralFeature&gt;</text><ellipse cx="18" cy="199.6953" fill="#84BE84" rx="3" ry="3" style="stroke: #038048; stroke-width: 1.0;"/><text fill="#000000" font-family="sans-serif" font-size="11" lengthAdjust="spacingAndGlyphs" textLength="109" x="27" y="204.1143">getText(Object): String</text><ellipse cx="18" cy="213.5313" fill="#84BE84" rx="3" ry="3" style="stroke: #038048; stroke-width: 1.0;"/><text fill="#000000" font-family="sans-serif" font-size="11" lengthAdjust="spacingAndGlyphs" textLength="157" x="27" y="217.9502">notifyChanged(Notification): void</text><ellipse cx="18" cy="227.3672" fill="#84BE84" rx="3" ry="3" style="stroke: #038048; stroke-width: 1.0;"/><text fill="#000000" font-family="sans-serif" font-size="11" lengthAdjust="spacingAndGlyphs" textLength="308" x="27" y="231.7861">getCreateChildText(Object, Object, Object, Collection&lt;?&gt;): String</text></a><!--MD5=[742f79c2473b5b60b51151f979ccdcb1]
class org.eclipse.epf.uma.provider.MethodElementItemProvider--><a href="MethodElementItemProvider.html" target="_top" title="MethodElementItemProvider.html" xlink:actuate="onRequest" xlink:href="MethodElementItemProvider.html" xlink:show="new" xlink:title="MethodElementItemProvider.html" xlink:type="simple"><rect codeLine="14" fill="#FEFECE" filter="url(#fa2qffwq69qtb)" height="40.1875" id="org.eclipse.epf.uma.provider.MethodElementItemProvider" style="stroke: #A80036; stroke-width: 1.5;" width="209" x="86" y="7"/><ellipse cx="101" cy="27.0938" fill="#ADD1B2" rx="11" ry="11" style="stroke: #A80036; stroke-width: 1.0;"/><path d="M103.7656,22.9688 Q103.9219,22.75 104.1094,22.6406 Q104.2969,22.5313 104.5156,22.5313 Q104.8906,22.5313 105.125,22.7969 Q105.3594,23.0469 105.3594,23.6563 L105.3594,25.1094 Q105.3594,25.7188 105.125,25.9844 Q104.8906,26.25 104.5156,26.25 Q104.1719,26.25 103.9688,26.0469 Q103.7656,25.8594 103.6563,25.3438 Q103.6094,24.9844 103.4219,24.7969 Q103.0938,24.4219 102.4844,24.2031 Q101.875,23.9844 101.25,23.9844 Q100.4844,23.9844 99.8438,24.3125 Q99.2188,24.6406 98.7188,25.3906 Q98.2344,26.1406 98.2344,27.1719 L98.2344,28.2656 Q98.2344,29.5 99.125,30.3281 Q100.0156,31.1406 101.6094,31.1406 Q102.5469,31.1406 103.2031,30.8906 Q103.5938,30.7344 104.0156,30.2969 Q104.2813,30.0313 104.4219,29.9531 Q104.5781,29.875 104.7813,29.875 Q105.1094,29.875 105.3594,30.1406 Q105.625,30.3906 105.625,30.7344 Q105.625,31.0781 105.2813,31.4844 Q104.7813,32.0625 103.9844,32.3906 Q102.9063,32.8438 101.6094,32.8438 Q100.0938,32.8438 98.8906,32.2188 Q97.9063,31.7188 97.2188,30.6563 Q96.5313,29.5781 96.5313,28.2969 L96.5313,27.1406 Q96.5313,25.8125 97.1406,24.6719 Q97.7656,23.5156 98.8594,22.9063 Q99.9531,22.2813 101.1875,22.2813 Q101.9219,22.2813 102.5625,22.4531 Q103.2188,22.6094 103.7656,22.9688 Z "/><text fill="#000000" font-family="sans-serif" font-size="14" lengthAdjust="spacingAndGlyphs" textLength="177" x="115" y="26.5332">MethodElementItemProvider</text><text fill="#000000" font-family="sans-serif" font-size="10" lengthAdjust="spacingAndGlyphs" textLength="135" x="136" y="39.9902">org.eclipse.epf.uma.provider</text></a><!--MD5=[5944e367cedac7eb40a80a37d4636c8c]
reverse link org.eclipse.epf.uma.provider.MethodElementItemProvider to org.eclipse.epf.uma.provider.WorkDefinitionItemProvider--><path codeLine="16" d="M190.5,67.46 C190.5,79.65 190.5,93.4 190.5,106.82 " fill="none" id="org.eclipse.epf.uma.provider.MethodElementItemProvider-backto-org.eclipse.epf.uma.provider.WorkDefinitionItemProvider" style="stroke: #A80036; stroke-width: 1.0;"/><polygon fill="none" points="183.5,67.06,190.5,47.06,197.5,67.06,183.5,67.06" style="stroke: #A80036; stroke-width: 1.0;"/><text fill="#888888" font-family="sans-serif" font-size="10" lengthAdjust="spacingAndGlyphs" textLength="190" x="92.5" y="261.584">UMLDoclet 2.0.12, PlantUML 1.2020.16</text><!--MD5=[5f8b95aa601e06b63002653f0431e655]
@startuml
    set namespaceSeparator none
    hide empty fields
    hide empty methods

    class "<size:14>WorkDefinitionItemProvider\n<size:10>org.eclipse.epf.uma.provider" as org.eclipse.epf.uma.provider.WorkDefinitionItemProvider [[WorkDefinitionItemProvider.html]] {
        +WorkDefinitionItemProvider(AdapterFactory)
        +getPropertyDescriptors(Object): List<IItemPropertyDescriptor>
        +getChildrenFeatures(Object): Collection<? extends EStructuralFeature>
        +getText(Object): String
        +notifyChanged(Notification): void
        +getCreateChildText(Object, Object, Object, Collection<?>): String
    }

    class "<size:14>MethodElementItemProvider\n<size:10>org.eclipse.epf.uma.provider" as org.eclipse.epf.uma.provider.MethodElementItemProvider [[MethodElementItemProvider.html]]

    org.eclipse.epf.uma.provider.MethodElementItemProvider <|- - org.eclipse.epf.uma.provider.WorkDefinitionItemProvider

    center footer UMLDoclet 2.0.12, PlantUML 1.2020.16
@enduml

PlantUML version 1.2020.16(Sun Aug 23 22:20:43 CEST 2020)
(APACHE source distribution)
Java Runtime: Java(TM) SE Runtime Environment
JVM: Java HotSpot(TM) 64-Bit Server VM
Default Encoding: Cp1252
Language: es
Country: ES
--></g></svg>