<?xml version="1.0" encoding="UTF-8" standalone="no"?><svg xmlns="http://www.w3.org/2000/svg" xmlns:xlink="http://www.w3.org/1999/xlink" contentScriptType="application/ecmascript" contentStyleType="text/css" height="348px" preserveAspectRatio="none" style="width:445px;height:348px;" version="1.1" viewBox="0 0 445 348" width="445px" zoomAndPan="magnify"><defs><filter height="300%" id="f6q60i7ehl2" width="300%" x="-1" y="-1"><feGaussianBlur result="blurOut" stdDeviation="2.0"/><feColorMatrix in="blurOut" result="blurOut2" type="matrix" values="0 0 0 0 0 0 0 0 0 0 0 0 0 0 0 0 0 0 .4 0"/><feOffset dx="4.0" dy="4.0" in="blurOut2" result="blurOut3"/><feBlend in="SourceGraphic" in2="blurOut3" mode="normal"/></filter></defs><g><!--MD5=[6b2e303eb9468eda686a09cde079cd54]
class org.eclipse.epf.diagram.model.util.ModelSwitch--><a href="ModelSwitch.html" target="_top" title="ModelSwitch.html" xlink:actuate="onRequest" xlink:href="ModelSwitch.html" xlink:show="new" xlink:title="ModelSwitch.html" xlink:type="simple"><rect codeLine="5" fill="#FEFECE" filter="url(#f6q60i7ehl2)" height="311.0703" id="org.eclipse.epf.diagram.model.util.ModelSwitch" style="stroke: #A80036; stroke-width: 1.5;" width="419" x="7" y="7"/><ellipse cx="130.75" cy="27.0938" fill="#ADD1B2" rx="11" ry="11" style="stroke: #A80036; stroke-width: 1.0;"/><path d="M133.5156,22.9688 Q133.6719,22.75 133.8594,22.6406 Q134.0469,22.5313 134.2656,22.5313 Q134.6406,22.5313 134.875,22.7969 Q135.1094,23.0469 135.1094,23.6563 L135.1094,25.1094 Q135.1094,25.7188 134.875,25.9844 Q134.6406,26.25 134.2656,26.25 Q133.9219,26.25 133.7188,26.0469 Q133.5156,25.8594 133.4063,25.3438 Q133.3594,24.9844 133.1719,24.7969 Q132.8438,24.4219 132.2344,24.2031 Q131.625,23.9844 131,23.9844 Q130.2344,23.9844 129.5938,24.3125 Q128.9688,24.6406 128.4688,25.3906 Q127.9844,26.1406 127.9844,27.1719 L127.9844,28.2656 Q127.9844,29.5 128.875,30.3281 Q129.7656,31.1406 131.3594,31.1406 Q132.2969,31.1406 132.9531,30.8906 Q133.3438,30.7344 133.7656,30.2969 Q134.0313,30.0313 134.1719,29.9531 Q134.3281,29.875 134.5313,29.875 Q134.8594,29.875 135.1094,30.1406 Q135.375,30.3906 135.375,30.7344 Q135.375,31.0781 135.0313,31.4844 Q134.5313,32.0625 133.7344,32.3906 Q132.6563,32.8438 131.3594,32.8438 Q129.8438,32.8438 128.6406,32.2188 Q127.6563,31.7188 126.9688,30.6563 Q126.2813,29.5781 126.2813,28.2969 L126.2813,27.1406 Q126.2813,25.8125 126.8906,24.6719 Q127.5156,23.5156 128.6094,22.9063 Q129.7031,22.2813 130.9375,22.2813 Q131.6719,22.2813 132.3125,22.4531 Q132.9688,22.6094 133.5156,22.9688 Z "/><text fill="#000000" font-family="sans-serif" font-size="14" lengthAdjust="spacingAndGlyphs" textLength="78" x="193.75" y="26.5332">ModelSwitch</text><text fill="#000000" font-family="sans-serif" font-size="10" lengthAdjust="spacingAndGlyphs" textLength="163" x="151.25" y="39.9902">org.eclipse.epf.diagram.model.util</text><line style="stroke: #A80036; stroke-width: 1.5;" x1="8" x2="425" y1="47.1875" y2="47.1875"/><ellipse cx="18" cy="58.1875" fill="#84BE84" rx="3" ry="3" style="stroke: #038048; stroke-width: 1.0;"/><text fill="#000000" font-family="sans-serif" font-size="11" lengthAdjust="spacingAndGlyphs" textLength="128" x="27" y="62.6064">doSwitch(EObject): Object</text><ellipse cx="18" cy="72.0234" fill="#84BE84" rx="3" ry="3" style="stroke: #038048; stroke-width: 1.0;"/><text fill="#000000" font-family="sans-serif" font-size="11" lengthAdjust="spacingAndGlyphs" textLength="147" x="27" y="76.4424">caseDiagram(Diagram): Object</text><ellipse cx="18" cy="85.8594" fill="#84BE84" rx="3" ry="3" style="stroke: #038048; stroke-width: 1.0;"/><text fill="#000000" font-family="sans-serif" font-size="11" lengthAdjust="spacingAndGlyphs" textLength="107" x="27" y="90.2783">caseLink(Link): Object</text><ellipse cx="18" cy="99.6953" fill="#84BE84" rx="3" ry="3" style="stroke: #038048; stroke-width: 1.0;"/><text fill="#000000" font-family="sans-serif" font-size="11" lengthAdjust="spacingAndGlyphs" textLength="193" x="27" y="104.1143">caseLinkedObject(LinkedObject): Object</text><ellipse cx="18" cy="113.5313" fill="#84BE84" rx="3" ry="3" style="stroke: #038048; stroke-width: 1.0;"/><text fill="#000000" font-family="sans-serif" font-size="11" lengthAdjust="spacingAndGlyphs" textLength="185" x="27" y="117.9502">caseNamedNode(NamedNode): Object</text><ellipse cx="18" cy="127.3672" fill="#84BE84" rx="3" ry="3" style="stroke: #038048; stroke-width: 1.0;"/><text fill="#000000" font-family="sans-serif" font-size="11" lengthAdjust="spacingAndGlyphs" textLength="119" x="27" y="131.7861">caseNode(Node): Object</text><ellipse cx="18" cy="141.2031" fill="#84BE84" rx="3" ry="3" style="stroke: #038048; stroke-width: 1.0;"/><text fill="#000000" font-family="sans-serif" font-size="11" lengthAdjust="spacingAndGlyphs" textLength="219" x="27" y="145.6221">caseActivityDiagram(ActivityDiagram): Object</text><ellipse cx="18" cy="155.0391" fill="#84BE84" rx="3" ry="3" style="stroke: #038048; stroke-width: 1.0;"/><text fill="#000000" font-family="sans-serif" font-size="11" lengthAdjust="spacingAndGlyphs" textLength="179" x="27" y="159.458">caseTypedNode(TypedNode): Object</text><ellipse cx="18" cy="168.875" fill="#84BE84" rx="3" ry="3" style="stroke: #038048; stroke-width: 1.0;"/><text fill="#000000" font-family="sans-serif" font-size="11" lengthAdjust="spacingAndGlyphs" textLength="393" x="27" y="173.2939">caseWorkProductDependencyDiagram(WorkProductDependencyDiagram): Object</text><ellipse cx="18" cy="182.7109" fill="#84BE84" rx="3" ry="3" style="stroke: #038048; stroke-width: 1.0;"/><text fill="#000000" font-family="sans-serif" font-size="11" lengthAdjust="spacingAndGlyphs" textLength="243" x="27" y="187.1299">caseWorkProductNode(WorkProductNode): Object</text><ellipse cx="18" cy="196.5469" fill="#84BE84" rx="3" ry="3" style="stroke: #038048; stroke-width: 1.0;"/><text fill="#000000" font-family="sans-serif" font-size="11" lengthAdjust="spacingAndGlyphs" textLength="271" x="27" y="200.9658">caseActivityDetailDiagram(ActivityDetailDiagram): Object</text><ellipse cx="18" cy="210.3828" fill="#84BE84" rx="3" ry="3" style="stroke: #038048; stroke-width: 1.0;"/><text fill="#000000" font-family="sans-serif" font-size="11" lengthAdjust="spacingAndGlyphs" textLength="211" x="27" y="214.8018">caseNodeContainer(NodeContainer): Object</text><ellipse cx="18" cy="224.2188" fill="#84BE84" rx="3" ry="3" style="stroke: #038048; stroke-width: 1.0;"/><text fill="#000000" font-family="sans-serif" font-size="11" lengthAdjust="spacingAndGlyphs" textLength="161" x="27" y="228.6377">caseRoleNode(RoleNode): Object</text><ellipse cx="18" cy="238.0547" fill="#84BE84" rx="3" ry="3" style="stroke: #038048; stroke-width: 1.0;"/><text fill="#000000" font-family="sans-serif" font-size="11" lengthAdjust="spacingAndGlyphs" textLength="257" x="27" y="242.4736">caseRoleTaskComposite(RoleTaskComposite): Object</text><ellipse cx="18" cy="251.8906" fill="#84BE84" rx="3" ry="3" style="stroke: #038048; stroke-width: 1.0;"/><text fill="#000000" font-family="sans-serif" font-size="11" lengthAdjust="spacingAndGlyphs" textLength="165" x="27" y="256.3096">caseTaskNode(TaskNode): Object</text><ellipse cx="18" cy="265.7266" fill="#84BE84" rx="3" ry="3" style="stroke: #038048; stroke-width: 1.0;"/><text fill="#000000" font-family="sans-serif" font-size="11" lengthAdjust="spacingAndGlyphs" textLength="343" x="27" y="270.1455">caseWorkProductDescriptorNode(WorkProductDescriptorNode): Object</text><ellipse cx="18" cy="279.5625" fill="#84BE84" rx="3" ry="3" style="stroke: #038048; stroke-width: 1.0;"/><text fill="#000000" font-family="sans-serif" font-size="11" lengthAdjust="spacingAndGlyphs" textLength="355" x="27" y="283.9814">caseWorkBreakdownElementNode(WorkBreakdownElementNode): Object</text><ellipse cx="18" cy="293.3984" fill="#84BE84" rx="3" ry="3" style="stroke: #038048; stroke-width: 1.0;"/><text fill="#000000" font-family="sans-serif" font-size="11" lengthAdjust="spacingAndGlyphs" textLength="293" x="27" y="297.8174">caseWorkProductComposite(WorkProductComposite): Object</text><ellipse cx="18" cy="307.2344" fill="#84BE84" rx="3" ry="3" style="stroke: #038048; stroke-width: 1.0;"/><text fill="#000000" font-family="sans-serif" font-size="11" lengthAdjust="spacingAndGlyphs" textLength="140" x="27" y="311.6533">defaultCase(EObject): Object</text></a><text fill="#888888" font-family="sans-serif" font-size="10" lengthAdjust="spacingAndGlyphs" textLength="190" x="121.5" y="335.4512">UMLDoclet 2.0.12, PlantUML 1.2020.16</text><!--MD5=[4d05a5962811a7343fad7afd944c1ffc]
@startuml
    set namespaceSeparator none
    hide empty fields
    hide empty methods

    class "<size:14>ModelSwitch\n<size:10>org.eclipse.epf.diagram.model.util" as org.eclipse.epf.diagram.model.util.ModelSwitch [[ModelSwitch.html]] {
        +doSwitch(EObject): Object
        +caseDiagram(Diagram): Object
        +caseLink(Link): Object
        +caseLinkedObject(LinkedObject): Object
        +caseNamedNode(NamedNode): Object
        +caseNode(Node): Object
        +caseActivityDiagram(ActivityDiagram): Object
        +caseTypedNode(TypedNode): Object
        +caseWorkProductDependencyDiagram(WorkProductDependencyDiagram): Object
        +caseWorkProductNode(WorkProductNode): Object
        +caseActivityDetailDiagram(ActivityDetailDiagram): Object
        +caseNodeContainer(NodeContainer): Object
        +caseRoleNode(RoleNode): Object
        +caseRoleTaskComposite(RoleTaskComposite): Object
        +caseTaskNode(TaskNode): Object
        +caseWorkProductDescriptorNode(WorkProductDescriptorNode): Object
        +caseWorkBreakdownElementNode(WorkBreakdownElementNode): Object
        +caseWorkProductComposite(WorkProductComposite): Object
        +defaultCase(EObject): Object
    }

    center footer UMLDoclet 2.0.12, PlantUML 1.2020.16
@enduml

PlantUML version 1.2020.16(Sun Aug 23 22:20:43 CEST 2020)
(APACHE source distribution)
Java Runtime: Java(TM) SE Runtime Environment
JVM: Java HotSpot(TM) 64-Bit Server VM
Default Encoding: Cp1252
Language: es
Country: ES
--></g></svg>