<?xml version="1.0" encoding="UTF-8" standalone="no"?><svg xmlns="http://www.w3.org/2000/svg" xmlns:xlink="http://www.w3.org/1999/xlink" contentScriptType="application/ecmascript" contentStyleType="text/css" height="468px" preserveAspectRatio="none" style="width:337px;height:468px;" version="1.1" viewBox="0 0 337 468" width="337px" zoomAndPan="magnify"><defs><filter height="300%" id="f9ecfvrrvlzbq" width="300%" x="-1" y="-1"><feGaussianBlur result="blurOut" stdDeviation="2.0"/><feColorMatrix in="blurOut" result="blurOut2" type="matrix" values="0 0 0 0 0 0 0 0 0 0 0 0 0 0 0 0 0 0 .4 0"/><feOffset dx="4.0" dy="4.0" in="blurOut2" result="blurOut3"/><feBlend in="SourceGraphic" in2="blurOut3" mode="normal"/></filter></defs><g><!--MD5=[65370e2f2843b816794a0793055ff54c]
class org.eclipse.epf.diagram.model.util.ModelAdapterFactory--><a href="ModelAdapterFactory.html" target="_top" title="ModelAdapterFactory.html" xlink:actuate="onRequest" xlink:href="ModelAdapterFactory.html" xlink:show="new" xlink:title="ModelAdapterFactory.html" xlink:type="simple"><rect codeLine="5" fill="#FEFECE" filter="url(#f9ecfvrrvlzbq)" height="324.9063" id="org.eclipse.epf.diagram.model.util.ModelAdapterFactory" style="stroke: #A80036; stroke-width: 1.5;" width="311" x="7" y="107"/><ellipse cx="76.75" cy="127.0938" fill="#ADD1B2" rx="11" ry="11" style="stroke: #A80036; stroke-width: 1.0;"/><path d="M79.5156,122.9688 Q79.6719,122.75 79.8594,122.6406 Q80.0469,122.5313 80.2656,122.5313 Q80.6406,122.5313 80.875,122.7969 Q81.1094,123.0469 81.1094,123.6563 L81.1094,125.1094 Q81.1094,125.7188 80.875,125.9844 Q80.6406,126.25 80.2656,126.25 Q79.9219,126.25 79.7188,126.0469 Q79.5156,125.8594 79.4063,125.3438 Q79.3594,124.9844 79.1719,124.7969 Q78.8438,124.4219 78.2344,124.2031 Q77.625,123.9844 77,123.9844 Q76.2344,123.9844 75.5938,124.3125 Q74.9688,124.6406 74.4688,125.3906 Q73.9844,126.1406 73.9844,127.1719 L73.9844,128.2656 Q73.9844,129.5 74.875,130.3281 Q75.7656,131.1406 77.3594,131.1406 Q78.2969,131.1406 78.9531,130.8906 Q79.3438,130.7344 79.7656,130.2969 Q80.0313,130.0313 80.1719,129.9531 Q80.3281,129.875 80.5313,129.875 Q80.8594,129.875 81.1094,130.1406 Q81.375,130.3906 81.375,130.7344 Q81.375,131.0781 81.0313,131.4844 Q80.5313,132.0625 79.7344,132.3906 Q78.6563,132.8438 77.3594,132.8438 Q75.8438,132.8438 74.6406,132.2188 Q73.6563,131.7188 72.9688,130.6563 Q72.2813,129.5781 72.2813,128.2969 L72.2813,127.1406 Q72.2813,125.8125 72.8906,124.6719 Q73.5156,123.5156 74.6094,122.9063 Q75.7031,122.2813 76.9375,122.2813 Q77.6719,122.2813 78.3125,122.4531 Q78.9688,122.6094 79.5156,122.9688 Z "/><text fill="#000000" font-family="sans-serif" font-size="14" lengthAdjust="spacingAndGlyphs" textLength="136" x="110.75" y="126.5332">ModelAdapterFactory</text><text fill="#000000" font-family="sans-serif" font-size="10" lengthAdjust="spacingAndGlyphs" textLength="163" x="97.25" y="139.9902">org.eclipse.epf.diagram.model.util</text><line style="stroke: #A80036; stroke-width: 1.5;" x1="8" x2="317" y1="147.1875" y2="147.1875"/><ellipse cx="18" cy="158.1875" fill="#84BE84" rx="3" ry="3" style="stroke: #038048; stroke-width: 1.0;"/><text fill="#000000" font-family="sans-serif" font-size="11" lengthAdjust="spacingAndGlyphs" textLength="168" x="27" y="162.6064">isFactoryForType(Object): boolean</text><ellipse cx="18" cy="172.0234" fill="#84BE84" rx="3" ry="3" style="stroke: #038048; stroke-width: 1.0;"/><text fill="#000000" font-family="sans-serif" font-size="11" lengthAdjust="spacingAndGlyphs" textLength="157" x="27" y="176.4424">createAdapter(Notifier): Adapter</text><ellipse cx="18" cy="185.8594" fill="#84BE84" rx="3" ry="3" style="stroke: #038048; stroke-width: 1.0;"/><text fill="#000000" font-family="sans-serif" font-size="11" lengthAdjust="spacingAndGlyphs" textLength="162" x="27" y="190.2783">createDiagramAdapter(): Adapter</text><ellipse cx="18" cy="199.6953" fill="#84BE84" rx="3" ry="3" style="stroke: #038048; stroke-width: 1.0;"/><text fill="#000000" font-family="sans-serif" font-size="11" lengthAdjust="spacingAndGlyphs" textLength="142" x="27" y="204.1143">createLinkAdapter(): Adapter</text><ellipse cx="18" cy="213.5313" fill="#84BE84" rx="3" ry="3" style="stroke: #038048; stroke-width: 1.0;"/><text fill="#000000" font-family="sans-serif" font-size="11" lengthAdjust="spacingAndGlyphs" textLength="185" x="27" y="217.9502">createLinkedObjectAdapter(): Adapter</text><ellipse cx="18" cy="227.3672" fill="#84BE84" rx="3" ry="3" style="stroke: #038048; stroke-width: 1.0;"/><text fill="#000000" font-family="sans-serif" font-size="11" lengthAdjust="spacingAndGlyphs" textLength="181" x="27" y="231.7861">createNamedNodeAdapter(): Adapter</text><ellipse cx="18" cy="241.2031" fill="#84BE84" rx="3" ry="3" style="stroke: #038048; stroke-width: 1.0;"/><text fill="#000000" font-family="sans-serif" font-size="11" lengthAdjust="spacingAndGlyphs" textLength="148" x="27" y="245.6221">createNodeAdapter(): Adapter</text><ellipse cx="18" cy="255.0391" fill="#84BE84" rx="3" ry="3" style="stroke: #038048; stroke-width: 1.0;"/><text fill="#000000" font-family="sans-serif" font-size="11" lengthAdjust="spacingAndGlyphs" textLength="198" x="27" y="259.458">createActivityDiagramAdapter(): Adapter</text><ellipse cx="18" cy="268.875" fill="#84BE84" rx="3" ry="3" style="stroke: #038048; stroke-width: 1.0;"/><text fill="#000000" font-family="sans-serif" font-size="11" lengthAdjust="spacingAndGlyphs" textLength="178" x="27" y="273.2939">createTypedNodeAdapter(): Adapter</text><ellipse cx="18" cy="282.7109" fill="#84BE84" rx="3" ry="3" style="stroke: #038048; stroke-width: 1.0;"/><text fill="#000000" font-family="sans-serif" font-size="11" lengthAdjust="spacingAndGlyphs" textLength="285" x="27" y="287.1299">createWorkProductDependencyDiagramAdapter(): Adapter</text><ellipse cx="18" cy="296.5469" fill="#84BE84" rx="3" ry="3" style="stroke: #038048; stroke-width: 1.0;"/><text fill="#000000" font-family="sans-serif" font-size="11" lengthAdjust="spacingAndGlyphs" textLength="210" x="27" y="300.9658">createWorkProductNodeAdapter(): Adapter</text><ellipse cx="18" cy="310.3828" fill="#84BE84" rx="3" ry="3" style="stroke: #038048; stroke-width: 1.0;"/><text fill="#000000" font-family="sans-serif" font-size="11" lengthAdjust="spacingAndGlyphs" textLength="224" x="27" y="314.8018">createActivityDetailDiagramAdapter(): Adapter</text><ellipse cx="18" cy="324.2188" fill="#84BE84" rx="3" ry="3" style="stroke: #038048; stroke-width: 1.0;"/><text fill="#000000" font-family="sans-serif" font-size="11" lengthAdjust="spacingAndGlyphs" textLength="194" x="27" y="328.6377">createNodeContainerAdapter(): Adapter</text><ellipse cx="18" cy="338.0547" fill="#84BE84" rx="3" ry="3" style="stroke: #038048; stroke-width: 1.0;"/><text fill="#000000" font-family="sans-serif" font-size="11" lengthAdjust="spacingAndGlyphs" textLength="169" x="27" y="342.4736">createRoleNodeAdapter(): Adapter</text><ellipse cx="18" cy="351.8906" fill="#84BE84" rx="3" ry="3" style="stroke: #038048; stroke-width: 1.0;"/><text fill="#000000" font-family="sans-serif" font-size="11" lengthAdjust="spacingAndGlyphs" textLength="217" x="27" y="356.3096">createRoleTaskCompositeAdapter(): Adapter</text><ellipse cx="18" cy="365.7266" fill="#84BE84" rx="3" ry="3" style="stroke: #038048; stroke-width: 1.0;"/><text fill="#000000" font-family="sans-serif" font-size="11" lengthAdjust="spacingAndGlyphs" textLength="171" x="27" y="370.1455">createTaskNodeAdapter(): Adapter</text><ellipse cx="18" cy="379.5625" fill="#84BE84" rx="3" ry="3" style="stroke: #038048; stroke-width: 1.0;"/><text fill="#000000" font-family="sans-serif" font-size="11" lengthAdjust="spacingAndGlyphs" textLength="260" x="27" y="383.9814">createWorkProductDescriptorNodeAdapter(): Adapter</text><ellipse cx="18" cy="393.3984" fill="#84BE84" rx="3" ry="3" style="stroke: #038048; stroke-width: 1.0;"/><text fill="#000000" font-family="sans-serif" font-size="11" lengthAdjust="spacingAndGlyphs" textLength="266" x="27" y="397.8174">createWorkBreakdownElementNodeAdapter(): Adapter</text><ellipse cx="18" cy="407.2344" fill="#84BE84" rx="3" ry="3" style="stroke: #038048; stroke-width: 1.0;"/><text fill="#000000" font-family="sans-serif" font-size="11" lengthAdjust="spacingAndGlyphs" textLength="235" x="27" y="411.6533">createWorkProductCompositeAdapter(): Adapter</text><ellipse cx="18" cy="421.0703" fill="#84BE84" rx="3" ry="3" style="stroke: #038048; stroke-width: 1.0;"/><text fill="#000000" font-family="sans-serif" font-size="11" lengthAdjust="spacingAndGlyphs" textLength="160" x="27" y="425.4893">createEObjectAdapter(): Adapter</text></a><!--MD5=[2a0a675948d4a75b96c625d7c7f9821e]
class org.eclipse.emf.common.notify.impl.AdapterFactoryImpl--><rect codeLine="28" fill="#FEFECE" filter="url(#f9ecfvrrvlzbq)" height="40.1875" id="org.eclipse.emf.common.notify.impl.AdapterFactoryImpl" style="stroke: #A80036; stroke-width: 1.5;" width="203" x="61" y="7"/><ellipse cx="76" cy="27.0938" fill="#ADD1B2" rx="11" ry="11" style="stroke: #A80036; stroke-width: 1.0;"/><path d="M78.7656,22.9688 Q78.9219,22.75 79.1094,22.6406 Q79.2969,22.5313 79.5156,22.5313 Q79.8906,22.5313 80.125,22.7969 Q80.3594,23.0469 80.3594,23.6563 L80.3594,25.1094 Q80.3594,25.7188 80.125,25.9844 Q79.8906,26.25 79.5156,26.25 Q79.1719,26.25 78.9688,26.0469 Q78.7656,25.8594 78.6563,25.3438 Q78.6094,24.9844 78.4219,24.7969 Q78.0938,24.4219 77.4844,24.2031 Q76.875,23.9844 76.25,23.9844 Q75.4844,23.9844 74.8438,24.3125 Q74.2188,24.6406 73.7188,25.3906 Q73.2344,26.1406 73.2344,27.1719 L73.2344,28.2656 Q73.2344,29.5 74.125,30.3281 Q75.0156,31.1406 76.6094,31.1406 Q77.5469,31.1406 78.2031,30.8906 Q78.5938,30.7344 79.0156,30.2969 Q79.2813,30.0313 79.4219,29.9531 Q79.5781,29.875 79.7813,29.875 Q80.1094,29.875 80.3594,30.1406 Q80.625,30.3906 80.625,30.7344 Q80.625,31.0781 80.2813,31.4844 Q79.7813,32.0625 78.9844,32.3906 Q77.9063,32.8438 76.6094,32.8438 Q75.0938,32.8438 73.8906,32.2188 Q72.9063,31.7188 72.2188,30.6563 Q71.5313,29.5781 71.5313,28.2969 L71.5313,27.1406 Q71.5313,25.8125 72.1406,24.6719 Q72.7656,23.5156 73.8594,22.9063 Q74.9531,22.2813 76.1875,22.2813 Q76.9219,22.2813 77.5625,22.4531 Q78.2188,22.6094 78.7656,22.9688 Z "/><text fill="#000000" font-family="sans-serif" font-size="14" lengthAdjust="spacingAndGlyphs" textLength="123" x="114" y="26.5332">AdapterFactoryImpl</text><text fill="#000000" font-family="sans-serif" font-size="10" lengthAdjust="spacingAndGlyphs" textLength="171" x="90" y="39.9902">org.eclipse.emf.common.notify.impl</text><!--MD5=[9f554704e173d7e0bcc3c210c4b46353]
reverse link org.eclipse.emf.common.notify.impl.AdapterFactoryImpl to org.eclipse.epf.diagram.model.util.ModelAdapterFactory--><path codeLine="30" d="M162.5,67.51 C162.5,79.06 162.5,92.46 162.5,106.74 " fill="none" id="org.eclipse.emf.common.notify.impl.AdapterFactoryImpl-backto-org.eclipse.epf.diagram.model.util.ModelAdapterFactory" style="stroke: #A80036; stroke-width: 1.0;"/><polygon fill="none" points="155.5,67.27,162.5,47.27,169.5,67.27,155.5,67.27" style="stroke: #A80036; stroke-width: 1.0;"/><text fill="#888888" font-family="sans-serif" font-size="10" lengthAdjust="spacingAndGlyphs" textLength="190" x="64.5" y="455.2871">UMLDoclet 2.0.12, PlantUML 1.2020.16</text><!--MD5=[7d6eb847fd1ea9b9bc1849f9c6dff57d]
@startuml
    set namespaceSeparator none
    hide empty fields
    hide empty methods

    class "<size:14>ModelAdapterFactory\n<size:10>org.eclipse.epf.diagram.model.util" as org.eclipse.epf.diagram.model.util.ModelAdapterFactory [[ModelAdapterFactory.html]] {
        +isFactoryForType(Object): boolean
        +createAdapter(Notifier): Adapter
        +createDiagramAdapter(): Adapter
        +createLinkAdapter(): Adapter
        +createLinkedObjectAdapter(): Adapter
        +createNamedNodeAdapter(): Adapter
        +createNodeAdapter(): Adapter
        +createActivityDiagramAdapter(): Adapter
        +createTypedNodeAdapter(): Adapter
        +createWorkProductDependencyDiagramAdapter(): Adapter
        +createWorkProductNodeAdapter(): Adapter
        +createActivityDetailDiagramAdapter(): Adapter
        +createNodeContainerAdapter(): Adapter
        +createRoleNodeAdapter(): Adapter
        +createRoleTaskCompositeAdapter(): Adapter
        +createTaskNodeAdapter(): Adapter
        +createWorkProductDescriptorNodeAdapter(): Adapter
        +createWorkBreakdownElementNodeAdapter(): Adapter
        +createWorkProductCompositeAdapter(): Adapter
        +createEObjectAdapter(): Adapter
    }

    class "<size:14>AdapterFactoryImpl\n<size:10>org.eclipse.emf.common.notify.impl" as org.eclipse.emf.common.notify.impl.AdapterFactoryImpl

    org.eclipse.emf.common.notify.impl.AdapterFactoryImpl <|- - org.eclipse.epf.diagram.model.util.ModelAdapterFactory

    center footer UMLDoclet 2.0.12, PlantUML 1.2020.16
@enduml

PlantUML version 1.2020.16(Sun Aug 23 22:20:43 CEST 2020)
(APACHE source distribution)
Java Runtime: Java(TM) SE Runtime Environment
JVM: Java HotSpot(TM) 64-Bit Server VM
Default Encoding: Cp1252
Language: es
Country: ES
--></g></svg>