<?xml version="1.0" encoding="UTF-8" standalone="no"?><svg xmlns="http://www.w3.org/2000/svg" xmlns:xlink="http://www.w3.org/1999/xlink" contentScriptType="application/ecmascript" contentStyleType="text/css" height="536px" preserveAspectRatio="none" style="width:840px;height:536px;" version="1.1" viewBox="0 0 840 536" width="840px" zoomAndPan="magnify"><defs><filter height="300%" id="f16c7shfiwq8sa" width="300%" x="-1" y="-1"><feGaussianBlur result="blurOut" stdDeviation="2.0"/><feColorMatrix in="blurOut" result="blurOut2" type="matrix" values="0 0 0 0 0 0 0 0 0 0 0 0 0 0 0 0 0 0 .4 0"/><feOffset dx="4.0" dy="4.0" in="blurOut2" result="blurOut3"/><feBlend in="SourceGraphic" in2="blurOut3" mode="normal"/></filter></defs><g><!--MD5=[28c5cab93ca4674e7f5da3c426c75368]
cluster org.eclipse.epf.diagram.model.util--><polygon fill="#FFFFFF" filter="url(#f16c7shfiwq8sa)" points="16,130,261,130,268,153.6094,814,153.6094,814,507,16,507,16,130" style="stroke: #000000; stroke-width: 1.5;"/><line style="stroke: #000000; stroke-width: 1.5;" x1="16" x2="268" y1="153.6094" y2="153.6094"/><text fill="#000000" font-family="sans-serif" font-size="14" font-weight="bold" lengthAdjust="spacingAndGlyphs" textLength="239" x="20" y="146.5332">org.eclipse.epf.diagram.model.util</text><!--MD5=[050366e583c0feb540a03fc4e11ae051]
cluster org.eclipse.emf.common.notify.impl--><polygon fill="#FFFFFF" filter="url(#f16c7shfiwq8sa)" points="554,6,808,6,815,29.6094,818,29.6094,818,106,554,106,554,6" style="stroke: #000000; stroke-width: 1.5;"/><line style="stroke: #000000; stroke-width: 1.5;" x1="554" x2="815" y1="29.6094" y2="29.6094"/><text fill="#000000" font-family="sans-serif" font-size="14" font-weight="bold" lengthAdjust="spacingAndGlyphs" textLength="248" x="558" y="22.5332">org.eclipse.emf.common.notify.impl</text><!--MD5=[65370e2f2843b816794a0793055ff54c]
class org.eclipse.epf.diagram.model.util.ModelAdapterFactory--><a href="ModelAdapterFactory.html" target="_top" title="ModelAdapterFactory.html" xlink:actuate="onRequest" xlink:href="ModelAdapterFactory.html" xlink:show="new" xlink:title="ModelAdapterFactory.html" xlink:type="simple"><rect codeLine="3" fill="#FEFECE" filter="url(#f16c7shfiwq8sa)" height="324.7188" id="org.eclipse.epf.diagram.model.util.ModelAdapterFactory" style="stroke: #A80036; stroke-width: 1.5;" width="311" x="486.5" y="166"/><ellipse cx="580.75" cy="182" fill="#ADD1B2" rx="11" ry="11" style="stroke: #A80036; stroke-width: 1.0;"/><path d="M583.5156,177.875 Q583.6719,177.6563 583.8594,177.5469 Q584.0469,177.4375 584.2656,177.4375 Q584.6406,177.4375 584.875,177.7031 Q585.1094,177.9531 585.1094,178.5625 L585.1094,180.0156 Q585.1094,180.625 584.875,180.8906 Q584.6406,181.1563 584.2656,181.1563 Q583.9219,181.1563 583.7188,180.9531 Q583.5156,180.7656 583.4063,180.25 Q583.3594,179.8906 583.1719,179.7031 Q582.8438,179.3281 582.2344,179.1094 Q581.625,178.8906 581,178.8906 Q580.2344,178.8906 579.5938,179.2188 Q578.9688,179.5469 578.4688,180.2969 Q577.9844,181.0469 577.9844,182.0781 L577.9844,183.1719 Q577.9844,184.4063 578.875,185.2344 Q579.7656,186.0469 581.3594,186.0469 Q582.2969,186.0469 582.9531,185.7969 Q583.3438,185.6406 583.7656,185.2031 Q584.0313,184.9375 584.1719,184.8594 Q584.3281,184.7813 584.5313,184.7813 Q584.8594,184.7813 585.1094,185.0469 Q585.375,185.2969 585.375,185.6406 Q585.375,185.9844 585.0313,186.3906 Q584.5313,186.9688 583.7344,187.2969 Q582.6563,187.75 581.3594,187.75 Q579.8438,187.75 578.6406,187.125 Q577.6563,186.625 576.9688,185.5625 Q576.2813,184.4844 576.2813,183.2031 L576.2813,182.0469 Q576.2813,180.7188 576.8906,179.5781 Q577.5156,178.4219 578.6094,177.8125 Q579.7031,177.1875 580.9375,177.1875 Q581.6719,177.1875 582.3125,177.3594 Q582.9688,177.5156 583.5156,177.875 Z "/><text fill="#000000" font-family="sans-serif" font-size="12" lengthAdjust="spacingAndGlyphs" textLength="114" x="601.25" y="186.9102">ModelAdapterFactory</text><line style="stroke: #A80036; stroke-width: 1.5;" x1="487.5" x2="796.5" y1="198" y2="198"/><line style="stroke: #A80036; stroke-width: 1.5;" x1="487.5" x2="796.5" y1="206" y2="206"/><ellipse cx="497.5" cy="217" fill="#84BE84" rx="3" ry="3" style="stroke: #038048; stroke-width: 1.0;"/><text fill="#000000" font-family="sans-serif" font-size="11" lengthAdjust="spacingAndGlyphs" textLength="168" x="506.5" y="221.4189">isFactoryForType(Object): boolean</text><ellipse cx="497.5" cy="230.8359" fill="#84BE84" rx="3" ry="3" style="stroke: #038048; stroke-width: 1.0;"/><text fill="#000000" font-family="sans-serif" font-size="11" lengthAdjust="spacingAndGlyphs" textLength="157" x="506.5" y="235.2549">createAdapter(Notifier): Adapter</text><ellipse cx="497.5" cy="244.6719" fill="#84BE84" rx="3" ry="3" style="stroke: #038048; stroke-width: 1.0;"/><text fill="#000000" font-family="sans-serif" font-size="11" lengthAdjust="spacingAndGlyphs" textLength="162" x="506.5" y="249.0908">createDiagramAdapter(): Adapter</text><ellipse cx="497.5" cy="258.5078" fill="#84BE84" rx="3" ry="3" style="stroke: #038048; stroke-width: 1.0;"/><text fill="#000000" font-family="sans-serif" font-size="11" lengthAdjust="spacingAndGlyphs" textLength="142" x="506.5" y="262.9268">createLinkAdapter(): Adapter</text><ellipse cx="497.5" cy="272.3438" fill="#84BE84" rx="3" ry="3" style="stroke: #038048; stroke-width: 1.0;"/><text fill="#000000" font-family="sans-serif" font-size="11" lengthAdjust="spacingAndGlyphs" textLength="185" x="506.5" y="276.7627">createLinkedObjectAdapter(): Adapter</text><ellipse cx="497.5" cy="286.1797" fill="#84BE84" rx="3" ry="3" style="stroke: #038048; stroke-width: 1.0;"/><text fill="#000000" font-family="sans-serif" font-size="11" lengthAdjust="spacingAndGlyphs" textLength="181" x="506.5" y="290.5986">createNamedNodeAdapter(): Adapter</text><ellipse cx="497.5" cy="300.0156" fill="#84BE84" rx="3" ry="3" style="stroke: #038048; stroke-width: 1.0;"/><text fill="#000000" font-family="sans-serif" font-size="11" lengthAdjust="spacingAndGlyphs" textLength="148" x="506.5" y="304.4346">createNodeAdapter(): Adapter</text><ellipse cx="497.5" cy="313.8516" fill="#84BE84" rx="3" ry="3" style="stroke: #038048; stroke-width: 1.0;"/><text fill="#000000" font-family="sans-serif" font-size="11" lengthAdjust="spacingAndGlyphs" textLength="198" x="506.5" y="318.2705">createActivityDiagramAdapter(): Adapter</text><ellipse cx="497.5" cy="327.6875" fill="#84BE84" rx="3" ry="3" style="stroke: #038048; stroke-width: 1.0;"/><text fill="#000000" font-family="sans-serif" font-size="11" lengthAdjust="spacingAndGlyphs" textLength="178" x="506.5" y="332.1064">createTypedNodeAdapter(): Adapter</text><ellipse cx="497.5" cy="341.5234" fill="#84BE84" rx="3" ry="3" style="stroke: #038048; stroke-width: 1.0;"/><text fill="#000000" font-family="sans-serif" font-size="11" lengthAdjust="spacingAndGlyphs" textLength="285" x="506.5" y="345.9424">createWorkProductDependencyDiagramAdapter(): Adapter</text><ellipse cx="497.5" cy="355.3594" fill="#84BE84" rx="3" ry="3" style="stroke: #038048; stroke-width: 1.0;"/><text fill="#000000" font-family="sans-serif" font-size="11" lengthAdjust="spacingAndGlyphs" textLength="210" x="506.5" y="359.7783">createWorkProductNodeAdapter(): Adapter</text><ellipse cx="497.5" cy="369.1953" fill="#84BE84" rx="3" ry="3" style="stroke: #038048; stroke-width: 1.0;"/><text fill="#000000" font-family="sans-serif" font-size="11" lengthAdjust="spacingAndGlyphs" textLength="224" x="506.5" y="373.6143">createActivityDetailDiagramAdapter(): Adapter</text><ellipse cx="497.5" cy="383.0313" fill="#84BE84" rx="3" ry="3" style="stroke: #038048; stroke-width: 1.0;"/><text fill="#000000" font-family="sans-serif" font-size="11" lengthAdjust="spacingAndGlyphs" textLength="194" x="506.5" y="387.4502">createNodeContainerAdapter(): Adapter</text><ellipse cx="497.5" cy="396.8672" fill="#84BE84" rx="3" ry="3" style="stroke: #038048; stroke-width: 1.0;"/><text fill="#000000" font-family="sans-serif" font-size="11" lengthAdjust="spacingAndGlyphs" textLength="169" x="506.5" y="401.2861">createRoleNodeAdapter(): Adapter</text><ellipse cx="497.5" cy="410.7031" fill="#84BE84" rx="3" ry="3" style="stroke: #038048; stroke-width: 1.0;"/><text fill="#000000" font-family="sans-serif" font-size="11" lengthAdjust="spacingAndGlyphs" textLength="217" x="506.5" y="415.1221">createRoleTaskCompositeAdapter(): Adapter</text><ellipse cx="497.5" cy="424.5391" fill="#84BE84" rx="3" ry="3" style="stroke: #038048; stroke-width: 1.0;"/><text fill="#000000" font-family="sans-serif" font-size="11" lengthAdjust="spacingAndGlyphs" textLength="171" x="506.5" y="428.958">createTaskNodeAdapter(): Adapter</text><ellipse cx="497.5" cy="438.375" fill="#84BE84" rx="3" ry="3" style="stroke: #038048; stroke-width: 1.0;"/><text fill="#000000" font-family="sans-serif" font-size="11" lengthAdjust="spacingAndGlyphs" textLength="260" x="506.5" y="442.7939">createWorkProductDescriptorNodeAdapter(): Adapter</text><ellipse cx="497.5" cy="452.2109" fill="#84BE84" rx="3" ry="3" style="stroke: #038048; stroke-width: 1.0;"/><text fill="#000000" font-family="sans-serif" font-size="11" lengthAdjust="spacingAndGlyphs" textLength="266" x="506.5" y="456.6299">createWorkBreakdownElementNodeAdapter(): Adapter</text><ellipse cx="497.5" cy="466.0469" fill="#84BE84" rx="3" ry="3" style="stroke: #038048; stroke-width: 1.0;"/><text fill="#000000" font-family="sans-serif" font-size="11" lengthAdjust="spacingAndGlyphs" textLength="235" x="506.5" y="470.4658">createWorkProductCompositeAdapter(): Adapter</text><ellipse cx="497.5" cy="479.8828" fill="#84BE84" rx="3" ry="3" style="stroke: #038048; stroke-width: 1.0;"/><text fill="#000000" font-family="sans-serif" font-size="11" lengthAdjust="spacingAndGlyphs" textLength="160" x="506.5" y="484.3018">createEObjectAdapter(): Adapter</text></a><!--MD5=[6b2e303eb9468eda686a09cde079cd54]
class org.eclipse.epf.diagram.model.util.ModelSwitch--><a href="ModelSwitch.html" target="_top" title="ModelSwitch.html" xlink:actuate="onRequest" xlink:href="ModelSwitch.html" xlink:show="new" xlink:title="ModelSwitch.html" xlink:type="simple"><rect codeLine="26" fill="#FEFECE" filter="url(#f16c7shfiwq8sa)" height="310.8828" id="org.eclipse.epf.diagram.model.util.ModelSwitch" style="stroke: #A80036; stroke-width: 1.5;" width="419" x="32.5" y="173"/><ellipse cx="203.25" cy="189" fill="#ADD1B2" rx="11" ry="11" style="stroke: #A80036; stroke-width: 1.0;"/><path d="M206.0156,184.875 Q206.1719,184.6563 206.3594,184.5469 Q206.5469,184.4375 206.7656,184.4375 Q207.1406,184.4375 207.375,184.7031 Q207.6094,184.9531 207.6094,185.5625 L207.6094,187.0156 Q207.6094,187.625 207.375,187.8906 Q207.1406,188.1563 206.7656,188.1563 Q206.4219,188.1563 206.2188,187.9531 Q206.0156,187.7656 205.9063,187.25 Q205.8594,186.8906 205.6719,186.7031 Q205.3438,186.3281 204.7344,186.1094 Q204.125,185.8906 203.5,185.8906 Q202.7344,185.8906 202.0938,186.2188 Q201.4688,186.5469 200.9688,187.2969 Q200.4844,188.0469 200.4844,189.0781 L200.4844,190.1719 Q200.4844,191.4063 201.375,192.2344 Q202.2656,193.0469 203.8594,193.0469 Q204.7969,193.0469 205.4531,192.7969 Q205.8438,192.6406 206.2656,192.2031 Q206.5313,191.9375 206.6719,191.8594 Q206.8281,191.7813 207.0313,191.7813 Q207.3594,191.7813 207.6094,192.0469 Q207.875,192.2969 207.875,192.6406 Q207.875,192.9844 207.5313,193.3906 Q207.0313,193.9688 206.2344,194.2969 Q205.1563,194.75 203.8594,194.75 Q202.3438,194.75 201.1406,194.125 Q200.1563,193.625 199.4688,192.5625 Q198.7813,191.4844 198.7813,190.2031 L198.7813,189.0469 Q198.7813,187.7188 199.3906,186.5781 Q200.0156,185.4219 201.1094,184.8125 Q202.2031,184.1875 203.4375,184.1875 Q204.1719,184.1875 204.8125,184.3594 Q205.4688,184.5156 206.0156,184.875 Z "/><text fill="#000000" font-family="sans-serif" font-size="12" lengthAdjust="spacingAndGlyphs" textLength="69" x="223.75" y="193.9102">ModelSwitch</text><line style="stroke: #A80036; stroke-width: 1.5;" x1="33.5" x2="450.5" y1="205" y2="205"/><line style="stroke: #A80036; stroke-width: 1.5;" x1="33.5" x2="450.5" y1="213" y2="213"/><ellipse cx="43.5" cy="224" fill="#84BE84" rx="3" ry="3" style="stroke: #038048; stroke-width: 1.0;"/><text fill="#000000" font-family="sans-serif" font-size="11" lengthAdjust="spacingAndGlyphs" textLength="128" x="52.5" y="228.4189">doSwitch(EObject): Object</text><ellipse cx="43.5" cy="237.8359" fill="#84BE84" rx="3" ry="3" style="stroke: #038048; stroke-width: 1.0;"/><text fill="#000000" font-family="sans-serif" font-size="11" lengthAdjust="spacingAndGlyphs" textLength="147" x="52.5" y="242.2549">caseDiagram(Diagram): Object</text><ellipse cx="43.5" cy="251.6719" fill="#84BE84" rx="3" ry="3" style="stroke: #038048; stroke-width: 1.0;"/><text fill="#000000" font-family="sans-serif" font-size="11" lengthAdjust="spacingAndGlyphs" textLength="107" x="52.5" y="256.0908">caseLink(Link): Object</text><ellipse cx="43.5" cy="265.5078" fill="#84BE84" rx="3" ry="3" style="stroke: #038048; stroke-width: 1.0;"/><text fill="#000000" font-family="sans-serif" font-size="11" lengthAdjust="spacingAndGlyphs" textLength="193" x="52.5" y="269.9268">caseLinkedObject(LinkedObject): Object</text><ellipse cx="43.5" cy="279.3438" fill="#84BE84" rx="3" ry="3" style="stroke: #038048; stroke-width: 1.0;"/><text fill="#000000" font-family="sans-serif" font-size="11" lengthAdjust="spacingAndGlyphs" textLength="185" x="52.5" y="283.7627">caseNamedNode(NamedNode): Object</text><ellipse cx="43.5" cy="293.1797" fill="#84BE84" rx="3" ry="3" style="stroke: #038048; stroke-width: 1.0;"/><text fill="#000000" font-family="sans-serif" font-size="11" lengthAdjust="spacingAndGlyphs" textLength="119" x="52.5" y="297.5986">caseNode(Node): Object</text><ellipse cx="43.5" cy="307.0156" fill="#84BE84" rx="3" ry="3" style="stroke: #038048; stroke-width: 1.0;"/><text fill="#000000" font-family="sans-serif" font-size="11" lengthAdjust="spacingAndGlyphs" textLength="219" x="52.5" y="311.4346">caseActivityDiagram(ActivityDiagram): Object</text><ellipse cx="43.5" cy="320.8516" fill="#84BE84" rx="3" ry="3" style="stroke: #038048; stroke-width: 1.0;"/><text fill="#000000" font-family="sans-serif" font-size="11" lengthAdjust="spacingAndGlyphs" textLength="179" x="52.5" y="325.2705">caseTypedNode(TypedNode): Object</text><ellipse cx="43.5" cy="334.6875" fill="#84BE84" rx="3" ry="3" style="stroke: #038048; stroke-width: 1.0;"/><text fill="#000000" font-family="sans-serif" font-size="11" lengthAdjust="spacingAndGlyphs" textLength="393" x="52.5" y="339.1064">caseWorkProductDependencyDiagram(WorkProductDependencyDiagram): Object</text><ellipse cx="43.5" cy="348.5234" fill="#84BE84" rx="3" ry="3" style="stroke: #038048; stroke-width: 1.0;"/><text fill="#000000" font-family="sans-serif" font-size="11" lengthAdjust="spacingAndGlyphs" textLength="243" x="52.5" y="352.9424">caseWorkProductNode(WorkProductNode): Object</text><ellipse cx="43.5" cy="362.3594" fill="#84BE84" rx="3" ry="3" style="stroke: #038048; stroke-width: 1.0;"/><text fill="#000000" font-family="sans-serif" font-size="11" lengthAdjust="spacingAndGlyphs" textLength="271" x="52.5" y="366.7783">caseActivityDetailDiagram(ActivityDetailDiagram): Object</text><ellipse cx="43.5" cy="376.1953" fill="#84BE84" rx="3" ry="3" style="stroke: #038048; stroke-width: 1.0;"/><text fill="#000000" font-family="sans-serif" font-size="11" lengthAdjust="spacingAndGlyphs" textLength="211" x="52.5" y="380.6143">caseNodeContainer(NodeContainer): Object</text><ellipse cx="43.5" cy="390.0313" fill="#84BE84" rx="3" ry="3" style="stroke: #038048; stroke-width: 1.0;"/><text fill="#000000" font-family="sans-serif" font-size="11" lengthAdjust="spacingAndGlyphs" textLength="161" x="52.5" y="394.4502">caseRoleNode(RoleNode): Object</text><ellipse cx="43.5" cy="403.8672" fill="#84BE84" rx="3" ry="3" style="stroke: #038048; stroke-width: 1.0;"/><text fill="#000000" font-family="sans-serif" font-size="11" lengthAdjust="spacingAndGlyphs" textLength="257" x="52.5" y="408.2861">caseRoleTaskComposite(RoleTaskComposite): Object</text><ellipse cx="43.5" cy="417.7031" fill="#84BE84" rx="3" ry="3" style="stroke: #038048; stroke-width: 1.0;"/><text fill="#000000" font-family="sans-serif" font-size="11" lengthAdjust="spacingAndGlyphs" textLength="165" x="52.5" y="422.1221">caseTaskNode(TaskNode): Object</text><ellipse cx="43.5" cy="431.5391" fill="#84BE84" rx="3" ry="3" style="stroke: #038048; stroke-width: 1.0;"/><text fill="#000000" font-family="sans-serif" font-size="11" lengthAdjust="spacingAndGlyphs" textLength="343" x="52.5" y="435.958">caseWorkProductDescriptorNode(WorkProductDescriptorNode): Object</text><ellipse cx="43.5" cy="445.375" fill="#84BE84" rx="3" ry="3" style="stroke: #038048; stroke-width: 1.0;"/><text fill="#000000" font-family="sans-serif" font-size="11" lengthAdjust="spacingAndGlyphs" textLength="355" x="52.5" y="449.7939">caseWorkBreakdownElementNode(WorkBreakdownElementNode): Object</text><ellipse cx="43.5" cy="459.2109" fill="#84BE84" rx="3" ry="3" style="stroke: #038048; stroke-width: 1.0;"/><text fill="#000000" font-family="sans-serif" font-size="11" lengthAdjust="spacingAndGlyphs" textLength="293" x="52.5" y="463.6299">caseWorkProductComposite(WorkProductComposite): Object</text><ellipse cx="43.5" cy="473.0469" fill="#84BE84" rx="3" ry="3" style="stroke: #038048; stroke-width: 1.0;"/><text fill="#000000" font-family="sans-serif" font-size="11" lengthAdjust="spacingAndGlyphs" textLength="140" x="52.5" y="477.4658">defaultCase(EObject): Object</text></a><!--MD5=[2a0a675948d4a75b96c625d7c7f9821e]
class org.eclipse.emf.common.notify.impl.AdapterFactoryImpl--><rect codeLine="52" fill="#FEFECE" filter="url(#f16c7shfiwq8sa)" height="48" id="org.eclipse.emf.common.notify.impl.AdapterFactoryImpl" style="stroke: #A80036; stroke-width: 1.5;" width="137" x="573.5" y="42"/><ellipse cx="588.5" cy="58" fill="#ADD1B2" rx="11" ry="11" style="stroke: #A80036; stroke-width: 1.0;"/><path d="M591.2656,53.875 Q591.4219,53.6563 591.6094,53.5469 Q591.7969,53.4375 592.0156,53.4375 Q592.3906,53.4375 592.625,53.7031 Q592.8594,53.9531 592.8594,54.5625 L592.8594,56.0156 Q592.8594,56.625 592.625,56.8906 Q592.3906,57.1563 592.0156,57.1563 Q591.6719,57.1563 591.4688,56.9531 Q591.2656,56.7656 591.1563,56.25 Q591.1094,55.8906 590.9219,55.7031 Q590.5938,55.3281 589.9844,55.1094 Q589.375,54.8906 588.75,54.8906 Q587.9844,54.8906 587.3438,55.2188 Q586.7188,55.5469 586.2188,56.2969 Q585.7344,57.0469 585.7344,58.0781 L585.7344,59.1719 Q585.7344,60.4063 586.625,61.2344 Q587.5156,62.0469 589.1094,62.0469 Q590.0469,62.0469 590.7031,61.7969 Q591.0938,61.6406 591.5156,61.2031 Q591.7813,60.9375 591.9219,60.8594 Q592.0781,60.7813 592.2813,60.7813 Q592.6094,60.7813 592.8594,61.0469 Q593.125,61.2969 593.125,61.6406 Q593.125,61.9844 592.7813,62.3906 Q592.2813,62.9688 591.4844,63.2969 Q590.4063,63.75 589.1094,63.75 Q587.5938,63.75 586.3906,63.125 Q585.4063,62.625 584.7188,61.5625 Q584.0313,60.4844 584.0313,59.2031 L584.0313,58.0469 Q584.0313,56.7188 584.6406,55.5781 Q585.2656,54.4219 586.3594,53.8125 Q587.4531,53.1875 588.6875,53.1875 Q589.4219,53.1875 590.0625,53.3594 Q590.7188,53.5156 591.2656,53.875 Z "/><text fill="#000000" font-family="sans-serif" font-size="12" lengthAdjust="spacingAndGlyphs" textLength="105" x="602.5" y="62.9102">AdapterFactoryImpl</text><line style="stroke: #A80036; stroke-width: 1.5;" x1="574.5" x2="709.5" y1="74" y2="74"/><line style="stroke: #A80036; stroke-width: 1.5;" x1="574.5" x2="709.5" y1="82" y2="82"/><!--MD5=[9f554704e173d7e0bcc3c210c4b46353]
reverse link org.eclipse.emf.common.notify.impl.AdapterFactoryImpl to org.eclipse.epf.diagram.model.util.ModelAdapterFactory--><path codeLine="48" d="M642,110.35 C642,126.33 642,145.52 642,165.8 " fill="none" id="org.eclipse.emf.common.notify.impl.AdapterFactoryImpl-backto-org.eclipse.epf.diagram.model.util.ModelAdapterFactory" style="stroke: #A80036; stroke-width: 1.0;"/><polygon fill="none" points="635,110.12,642,90.12,649,110.12,635,110.12" style="stroke: #A80036; stroke-width: 1.0;"/><text fill="#888888" font-family="sans-serif" font-size="10" lengthAdjust="spacingAndGlyphs" textLength="190" x="316" y="523.3809">UMLDoclet 2.0.12, PlantUML 1.2020.16</text><!--MD5=[d3c956b936d2172e3d6932d86a325178]
@startuml
    namespace org.eclipse.epf.diagram.model.util {

        class ModelAdapterFactory [[ModelAdapterFactory.html]] {
            +isFactoryForType(Object): boolean
            +createAdapter(Notifier): Adapter
            +createDiagramAdapter(): Adapter
            +createLinkAdapter(): Adapter
            +createLinkedObjectAdapter(): Adapter
            +createNamedNodeAdapter(): Adapter
            +createNodeAdapter(): Adapter
            +createActivityDiagramAdapter(): Adapter
            +createTypedNodeAdapter(): Adapter
            +createWorkProductDependencyDiagramAdapter(): Adapter
            +createWorkProductNodeAdapter(): Adapter
            +createActivityDetailDiagramAdapter(): Adapter
            +createNodeContainerAdapter(): Adapter
            +createRoleNodeAdapter(): Adapter
            +createRoleTaskCompositeAdapter(): Adapter
            +createTaskNodeAdapter(): Adapter
            +createWorkProductDescriptorNodeAdapter(): Adapter
            +createWorkBreakdownElementNodeAdapter(): Adapter
            +createWorkProductCompositeAdapter(): Adapter
            +createEObjectAdapter(): Adapter
        }

        class ModelSwitch [[ModelSwitch.html]] {
            +doSwitch(EObject): Object
            +caseDiagram(Diagram): Object
            +caseLink(Link): Object
            +caseLinkedObject(LinkedObject): Object
            +caseNamedNode(NamedNode): Object
            +caseNode(Node): Object
            +caseActivityDiagram(ActivityDiagram): Object
            +caseTypedNode(TypedNode): Object
            +caseWorkProductDependencyDiagram(WorkProductDependencyDiagram): Object
            +caseWorkProductNode(WorkProductNode): Object
            +caseActivityDetailDiagram(ActivityDetailDiagram): Object
            +caseNodeContainer(NodeContainer): Object
            +caseRoleNode(RoleNode): Object
            +caseRoleTaskComposite(RoleTaskComposite): Object
            +caseTaskNode(TaskNode): Object
            +caseWorkProductDescriptorNode(WorkProductDescriptorNode): Object
            +caseWorkBreakdownElementNode(WorkBreakdownElementNode): Object
            +caseWorkProductComposite(WorkProductComposite): Object
            +defaultCase(EObject): Object
        }

        org.eclipse.emf.common.notify.impl.AdapterFactoryImpl <|- - ModelAdapterFactory
    }

    namespace org.eclipse.emf.common.notify.impl {
        class AdapterFactoryImpl
    }

    center footer UMLDoclet 2.0.12, PlantUML 1.2020.16
@enduml

PlantUML version 1.2020.16(Sun Aug 23 22:20:43 CEST 2020)
(APACHE source distribution)
Java Runtime: Java(TM) SE Runtime Environment
JVM: Java HotSpot(TM) 64-Bit Server VM
Default Encoding: Cp1252
Language: es
Country: ES
--></g></svg>