<?xml version="1.0" encoding="UTF-8" standalone="no"?><svg xmlns="http://www.w3.org/2000/svg" xmlns:xlink="http://www.w3.org/1999/xlink" contentScriptType="application/ecmascript" contentStyleType="text/css" height="273px" preserveAspectRatio="none" style="width:327px;height:273px;" version="1.1" viewBox="0 0 327 273" width="327px" zoomAndPan="magnify"><defs><filter height="300%" id="fqvdtgkmx56b2" width="300%" x="-1" y="-1"><feGaussianBlur result="blurOut" stdDeviation="2.0"/><feColorMatrix in="blurOut" result="blurOut2" type="matrix" values="0 0 0 0 0 0 0 0 0 0 0 0 0 0 0 0 0 0 .4 0"/><feOffset dx="4.0" dy="4.0" in="blurOut2" result="blurOut3"/><feBlend in="SourceGraphic" in2="blurOut3" mode="normal"/></filter></defs><g><!--MD5=[51c40d38f60047bdd7fcdc31735b1683]
cluster org.eclipse.xtext.uma.conversion--><polygon fill="#FFFFFF" filter="url(#fqvdtgkmx56b2)" points="54,130,295,130,302,153.6094,305,153.6094,305,244,54,244,54,130" style="stroke: #000000; stroke-width: 1.5;"/><line style="stroke: #000000; stroke-width: 1.5;" x1="54" x2="302" y1="153.6094" y2="153.6094"/><text fill="#000000" font-family="sans-serif" font-size="14" font-weight="bold" lengthAdjust="spacingAndGlyphs" textLength="235" x="58" y="146.5332">org.eclipse.xtext.uma.conversion</text><!--MD5=[cf6470d22c901a94c08bede0b5e3c793]
cluster org.eclipse.xtext.common.services--><polygon fill="#FFFFFF" filter="url(#fqvdtgkmx56b2)" points="16,6,268,6,275,29.6094,278,29.6094,278,106,16,106,16,6" style="stroke: #000000; stroke-width: 1.5;"/><line style="stroke: #000000; stroke-width: 1.5;" x1="16" x2="275" y1="29.6094" y2="29.6094"/><text fill="#000000" font-family="sans-serif" font-size="14" font-weight="bold" lengthAdjust="spacingAndGlyphs" textLength="246" x="20" y="22.5332">org.eclipse.xtext.common.services</text><!--MD5=[387684e75a09b4adb4662d372bc7ec7b]
class org.eclipse.xtext.uma.conversion.UmalConverter--><a href="UmalConverter.html" target="_top" title="UmalConverter.html" xlink:actuate="onRequest" xlink:href="UmalConverter.html" xlink:show="new" xlink:title="UmalConverter.html" xlink:type="simple"><rect codeLine="3" fill="#FEFECE" filter="url(#fqvdtgkmx56b2)" height="61.8359" id="org.eclipse.xtext.uma.conversion.UmalConverter" style="stroke: #A80036; stroke-width: 1.5;" width="149" x="72.5" y="166"/><ellipse cx="102.8" cy="182" fill="#ADD1B2" rx="11" ry="11" style="stroke: #A80036; stroke-width: 1.0;"/><path d="M105.5656,177.875 Q105.7219,177.6563 105.9094,177.5469 Q106.0969,177.4375 106.3156,177.4375 Q106.6906,177.4375 106.925,177.7031 Q107.1594,177.9531 107.1594,178.5625 L107.1594,180.0156 Q107.1594,180.625 106.925,180.8906 Q106.6906,181.1563 106.3156,181.1563 Q105.9719,181.1563 105.7688,180.9531 Q105.5656,180.7656 105.4563,180.25 Q105.4094,179.8906 105.2219,179.7031 Q104.8938,179.3281 104.2844,179.1094 Q103.675,178.8906 103.05,178.8906 Q102.2844,178.8906 101.6438,179.2188 Q101.0188,179.5469 100.5188,180.2969 Q100.0344,181.0469 100.0344,182.0781 L100.0344,183.1719 Q100.0344,184.4063 100.925,185.2344 Q101.8156,186.0469 103.4094,186.0469 Q104.3469,186.0469 105.0031,185.7969 Q105.3938,185.6406 105.8156,185.2031 Q106.0813,184.9375 106.2219,184.8594 Q106.3781,184.7813 106.5813,184.7813 Q106.9094,184.7813 107.1594,185.0469 Q107.425,185.2969 107.425,185.6406 Q107.425,185.9844 107.0813,186.3906 Q106.5813,186.9688 105.7844,187.2969 Q104.7063,187.75 103.4094,187.75 Q101.8938,187.75 100.6906,187.125 Q99.7063,186.625 99.0188,185.5625 Q98.3313,184.4844 98.3313,183.2031 L98.3313,182.0469 Q98.3313,180.7188 98.9406,179.5781 Q99.5656,178.4219 100.6594,177.8125 Q101.7531,177.1875 102.9875,177.1875 Q103.7219,177.1875 104.3625,177.3594 Q105.0188,177.5156 105.5656,177.875 Z "/><text fill="#000000" font-family="sans-serif" font-size="12" lengthAdjust="spacingAndGlyphs" textLength="83" x="120.2" y="186.9102">UmalConverter</text><line style="stroke: #A80036; stroke-width: 1.5;" x1="73.5" x2="220.5" y1="198" y2="198"/><line style="stroke: #A80036; stroke-width: 1.5;" x1="73.5" x2="220.5" y1="206" y2="206"/><ellipse cx="83.5" cy="217" fill="#84BE84" rx="3" ry="3" style="stroke: #038048; stroke-width: 1.0;"/><text fill="#000000" font-family="sans-serif" font-size="11" lengthAdjust="spacingAndGlyphs" textLength="123" x="92.5" y="221.4189">Uri(): IValueConverter&lt;?&gt;</text></a><!--MD5=[d3e26363ee7c5edd551b19c8a3ca94d5]
class org.eclipse.xtext.common.services.DefaultTerminalConverters--><rect codeLine="11" fill="#FEFECE" filter="url(#fqvdtgkmx56b2)" height="48" id="org.eclipse.xtext.common.services.DefaultTerminalConverters" style="stroke: #A80036; stroke-width: 1.5;" width="180" x="57" y="42"/><ellipse cx="72" cy="58" fill="#ADD1B2" rx="11" ry="11" style="stroke: #A80036; stroke-width: 1.0;"/><path d="M74.7656,53.875 Q74.9219,53.6563 75.1094,53.5469 Q75.2969,53.4375 75.5156,53.4375 Q75.8906,53.4375 76.125,53.7031 Q76.3594,53.9531 76.3594,54.5625 L76.3594,56.0156 Q76.3594,56.625 76.125,56.8906 Q75.8906,57.1563 75.5156,57.1563 Q75.1719,57.1563 74.9688,56.9531 Q74.7656,56.7656 74.6563,56.25 Q74.6094,55.8906 74.4219,55.7031 Q74.0938,55.3281 73.4844,55.1094 Q72.875,54.8906 72.25,54.8906 Q71.4844,54.8906 70.8438,55.2188 Q70.2188,55.5469 69.7188,56.2969 Q69.2344,57.0469 69.2344,58.0781 L69.2344,59.1719 Q69.2344,60.4063 70.125,61.2344 Q71.0156,62.0469 72.6094,62.0469 Q73.5469,62.0469 74.2031,61.7969 Q74.5938,61.6406 75.0156,61.2031 Q75.2813,60.9375 75.4219,60.8594 Q75.5781,60.7813 75.7813,60.7813 Q76.1094,60.7813 76.3594,61.0469 Q76.625,61.2969 76.625,61.6406 Q76.625,61.9844 76.2813,62.3906 Q75.7813,62.9688 74.9844,63.2969 Q73.9063,63.75 72.6094,63.75 Q71.0938,63.75 69.8906,63.125 Q68.9063,62.625 68.2188,61.5625 Q67.5313,60.4844 67.5313,59.2031 L67.5313,58.0469 Q67.5313,56.7188 68.1406,55.5781 Q68.7656,54.4219 69.8594,53.8125 Q70.9531,53.1875 72.1875,53.1875 Q72.9219,53.1875 73.5625,53.3594 Q74.2188,53.5156 74.7656,53.875 Z "/><text fill="#000000" font-family="sans-serif" font-size="12" lengthAdjust="spacingAndGlyphs" textLength="148" x="86" y="62.9102">DefaultTerminalConverters</text><line style="stroke: #A80036; stroke-width: 1.5;" x1="58" x2="236" y1="74" y2="74"/><line style="stroke: #A80036; stroke-width: 1.5;" x1="58" x2="236" y1="82" y2="82"/><!--MD5=[a02be6f4c04c8ab0fc6bb8b352fb6627]
reverse link org.eclipse.xtext.common.services.DefaultTerminalConverters to org.eclipse.xtext.uma.conversion.UmalConverter--><path codeLine="7" d="M147,110.25 C147,128.5 147,149.31 147,165.85 " fill="none" id="org.eclipse.xtext.common.services.DefaultTerminalConverters-backto-org.eclipse.xtext.uma.conversion.UmalConverter" style="stroke: #A80036; stroke-width: 1.0;"/><polygon fill="none" points="140,110.06,147,90.06,154,110.06,140,110.06" style="stroke: #A80036; stroke-width: 1.0;"/><text fill="#888888" font-family="sans-serif" font-size="10" lengthAdjust="spacingAndGlyphs" textLength="190" x="59.5" y="260.3809">UMLDoclet 2.0.12, PlantUML 1.2020.16</text><!--MD5=[6eef04e98cd5e8dd580b4f503003b779]
@startuml
    namespace org.eclipse.xtext.uma.conversion {

        class UmalConverter [[UmalConverter.html]] {
            +Uri(): IValueConverter<?>
        }

        org.eclipse.xtext.common.services.DefaultTerminalConverters <|- - UmalConverter
    }

    namespace org.eclipse.xtext.common.services {
        class DefaultTerminalConverters {
        }
    }

    center footer UMLDoclet 2.0.12, PlantUML 1.2020.16
@enduml

PlantUML version 1.2020.16(Sun Aug 23 22:20:43 CEST 2020)
(APACHE source distribution)
Java Runtime: Java(TM) SE Runtime Environment
JVM: Java HotSpot(TM) 64-Bit Server VM
Default Encoding: Cp1252
Language: es
Country: ES
--></g></svg>