<?xml version="1.0" encoding="UTF-8" standalone="no"?><svg xmlns="http://www.w3.org/2000/svg" xmlns:xlink="http://www.w3.org/1999/xlink" contentScriptType="application/ecmascript" contentStyleType="text/css" height="205px" preserveAspectRatio="none" style="width:228px;height:205px;" version="1.1" viewBox="0 0 228 205" width="228px" zoomAndPan="magnify"><defs><filter height="300%" id="f1btcnk2ybylgx" width="300%" x="-1" y="-1"><feGaussianBlur result="blurOut" stdDeviation="2.0"/><feColorMatrix in="blurOut" result="blurOut2" type="matrix" values="0 0 0 0 0 0 0 0 0 0 0 0 0 0 0 0 0 0 .4 0"/><feOffset dx="4.0" dy="4.0" in="blurOut2" result="blurOut3"/><feBlend in="SourceGraphic" in2="blurOut3" mode="normal"/></filter></defs><g><!--MD5=[387684e75a09b4adb4662d372bc7ec7b]
class org.eclipse.xtext.uma.conversion.UmalConverter--><a href="UmalConverter.html" target="_top" title="UmalConverter.html" xlink:actuate="onRequest" xlink:href="UmalConverter.html" xlink:show="new" xlink:title="UmalConverter.html" xlink:type="simple"><rect codeLine="5" fill="#FEFECE" filter="url(#f1btcnk2ybylgx)" height="62.0234" id="org.eclipse.xtext.uma.conversion.UmalConverter" style="stroke: #A80036; stroke-width: 1.5;" width="187" x="14.5" y="107"/><ellipse cx="29.5" cy="127.0938" fill="#ADD1B2" rx="11" ry="11" style="stroke: #A80036; stroke-width: 1.0;"/><path d="M32.2656,122.9688 Q32.4219,122.75 32.6094,122.6406 Q32.7969,122.5313 33.0156,122.5313 Q33.3906,122.5313 33.625,122.7969 Q33.8594,123.0469 33.8594,123.6563 L33.8594,125.1094 Q33.8594,125.7188 33.625,125.9844 Q33.3906,126.25 33.0156,126.25 Q32.6719,126.25 32.4688,126.0469 Q32.2656,125.8594 32.1563,125.3438 Q32.1094,124.9844 31.9219,124.7969 Q31.5938,124.4219 30.9844,124.2031 Q30.375,123.9844 29.75,123.9844 Q28.9844,123.9844 28.3438,124.3125 Q27.7188,124.6406 27.2188,125.3906 Q26.7344,126.1406 26.7344,127.1719 L26.7344,128.2656 Q26.7344,129.5 27.625,130.3281 Q28.5156,131.1406 30.1094,131.1406 Q31.0469,131.1406 31.7031,130.8906 Q32.0938,130.7344 32.5156,130.2969 Q32.7813,130.0313 32.9219,129.9531 Q33.0781,129.875 33.2813,129.875 Q33.6094,129.875 33.8594,130.1406 Q34.125,130.3906 34.125,130.7344 Q34.125,131.0781 33.7813,131.4844 Q33.2813,132.0625 32.4844,132.3906 Q31.4063,132.8438 30.1094,132.8438 Q28.5938,132.8438 27.3906,132.2188 Q26.4063,131.7188 25.7188,130.6563 Q25.0313,129.5781 25.0313,128.2969 L25.0313,127.1406 Q25.0313,125.8125 25.6406,124.6719 Q26.2656,123.5156 27.3594,122.9063 Q28.4531,122.2813 29.6875,122.2813 Q30.4219,122.2813 31.0625,122.4531 Q31.7188,122.6094 32.2656,122.9688 Z "/><text fill="#000000" font-family="sans-serif" font-size="14" lengthAdjust="spacingAndGlyphs" textLength="94" x="74" y="126.5332">UmalConverter</text><text fill="#000000" font-family="sans-serif" font-size="10" lengthAdjust="spacingAndGlyphs" textLength="155" x="43.5" y="139.9902">org.eclipse.xtext.uma.conversion</text><line style="stroke: #A80036; stroke-width: 1.5;" x1="15.5" x2="200.5" y1="147.1875" y2="147.1875"/><ellipse cx="25.5" cy="158.1875" fill="#84BE84" rx="3" ry="3" style="stroke: #038048; stroke-width: 1.0;"/><text fill="#000000" font-family="sans-serif" font-size="11" lengthAdjust="spacingAndGlyphs" textLength="123" x="34.5" y="162.6064">Uri(): IValueConverter&lt;?&gt;</text></a><!--MD5=[d3e26363ee7c5edd551b19c8a3ca94d5]
class org.eclipse.xtext.common.services.DefaultTerminalConverters--><rect codeLine="9" fill="#FEFECE" filter="url(#f1btcnk2ybylgx)" height="40.1875" id="org.eclipse.xtext.common.services.DefaultTerminalConverters" style="stroke: #A80036; stroke-width: 1.5;" width="202" x="7" y="7"/><ellipse cx="22" cy="27.0938" fill="#ADD1B2" rx="11" ry="11" style="stroke: #A80036; stroke-width: 1.0;"/><path d="M24.7656,22.9688 Q24.9219,22.75 25.1094,22.6406 Q25.2969,22.5313 25.5156,22.5313 Q25.8906,22.5313 26.125,22.7969 Q26.3594,23.0469 26.3594,23.6563 L26.3594,25.1094 Q26.3594,25.7188 26.125,25.9844 Q25.8906,26.25 25.5156,26.25 Q25.1719,26.25 24.9688,26.0469 Q24.7656,25.8594 24.6563,25.3438 Q24.6094,24.9844 24.4219,24.7969 Q24.0938,24.4219 23.4844,24.2031 Q22.875,23.9844 22.25,23.9844 Q21.4844,23.9844 20.8438,24.3125 Q20.2188,24.6406 19.7188,25.3906 Q19.2344,26.1406 19.2344,27.1719 L19.2344,28.2656 Q19.2344,29.5 20.125,30.3281 Q21.0156,31.1406 22.6094,31.1406 Q23.5469,31.1406 24.2031,30.8906 Q24.5938,30.7344 25.0156,30.2969 Q25.2813,30.0313 25.4219,29.9531 Q25.5781,29.875 25.7813,29.875 Q26.1094,29.875 26.3594,30.1406 Q26.625,30.3906 26.625,30.7344 Q26.625,31.0781 26.2813,31.4844 Q25.7813,32.0625 24.9844,32.3906 Q23.9063,32.8438 22.6094,32.8438 Q21.0938,32.8438 19.8906,32.2188 Q18.9063,31.7188 18.2188,30.6563 Q17.5313,29.5781 17.5313,28.2969 L17.5313,27.1406 Q17.5313,25.8125 18.1406,24.6719 Q18.7656,23.5156 19.8594,22.9063 Q20.9531,22.2813 22.1875,22.2813 Q22.9219,22.2813 23.5625,22.4531 Q24.2188,22.6094 24.7656,22.9688 Z "/><text fill="#000000" font-family="sans-serif" font-size="14" lengthAdjust="spacingAndGlyphs" textLength="170" x="36" y="26.5332">DefaultTerminalConverters</text><text fill="#000000" font-family="sans-serif" font-size="10" lengthAdjust="spacingAndGlyphs" textLength="162" x="40" y="39.9902">org.eclipse.xtext.common.services</text><!--MD5=[a02be6f4c04c8ab0fc6bb8b352fb6627]
reverse link org.eclipse.xtext.common.services.DefaultTerminalConverters to org.eclipse.xtext.uma.conversion.UmalConverter--><path codeLine="11" d="M108,67.37 C108,80.38 108,94.65 108,106.86 " fill="none" id="org.eclipse.xtext.common.services.DefaultTerminalConverters-backto-org.eclipse.xtext.uma.conversion.UmalConverter" style="stroke: #A80036; stroke-width: 1.0;"/><polygon fill="none" points="101,67.24,108,47.24,115,67.24,101,67.24" style="stroke: #A80036; stroke-width: 1.0;"/><text fill="#888888" font-family="sans-serif" font-size="10" lengthAdjust="spacingAndGlyphs" textLength="190" x="10" y="192.4043">UMLDoclet 2.0.12, PlantUML 1.2020.16</text><!--MD5=[0d2a9c7c8fd8ff99c2e017d5e6b50b43]
@startuml
    set namespaceSeparator none
    hide empty fields
    hide empty methods

    class "<size:14>UmalConverter\n<size:10>org.eclipse.xtext.uma.conversion" as org.eclipse.xtext.uma.conversion.UmalConverter [[UmalConverter.html]] {
        +Uri(): IValueConverter<?>
    }

    class "<size:14>DefaultTerminalConverters\n<size:10>org.eclipse.xtext.common.services" as org.eclipse.xtext.common.services.DefaultTerminalConverters

    org.eclipse.xtext.common.services.DefaultTerminalConverters <|- - org.eclipse.xtext.uma.conversion.UmalConverter

    center footer UMLDoclet 2.0.12, PlantUML 1.2020.16
@enduml

PlantUML version 1.2020.16(Sun Aug 23 22:20:43 CEST 2020)
(APACHE source distribution)
Java Runtime: Java(TM) SE Runtime Environment
JVM: Java HotSpot(TM) 64-Bit Server VM
Default Encoding: Cp1252
Language: es
Country: ES
--></g></svg>