<?xml version="1.0" encoding="UTF-8" standalone="no"?><svg xmlns="http://www.w3.org/2000/svg" xmlns:xlink="http://www.w3.org/1999/xlink" contentScriptType="application/ecmascript" contentStyleType="text/css" height="381px" preserveAspectRatio="none" style="width:418px;height:381px;" version="1.1" viewBox="0 0 418 381" width="418px" zoomAndPan="magnify"><defs><filter height="300%" id="f1ni4m19x06tyd" width="300%" x="-1" y="-1"><feGaussianBlur result="blurOut" stdDeviation="2.0"/><feColorMatrix in="blurOut" result="blurOut2" type="matrix" values="0 0 0 0 0 0 0 0 0 0 0 0 0 0 0 0 0 0 .4 0"/><feOffset dx="4.0" dy="4.0" in="blurOut2" result="blurOut3"/><feBlend in="SourceGraphic" in2="blurOut3" mode="normal"/></filter></defs><g><!--MD5=[d4029328b5e71a9f48e7f90790ce6792]
cluster org.eclipse.xtext.uma.ide--><polygon fill="#FFFFFF" filter="url(#f1ni4m19x06tyd)" points="16,130,199,130,206,153.6094,388,153.6094,388,352,16,352,16,130" style="stroke: #000000; stroke-width: 1.5;"/><line style="stroke: #000000; stroke-width: 1.5;" x1="16" x2="206" y1="153.6094" y2="153.6094"/><text fill="#000000" font-family="sans-serif" font-size="14" font-weight="bold" lengthAdjust="spacingAndGlyphs" textLength="177" x="20" y="146.5332">org.eclipse.xtext.uma.ide</text><!--MD5=[0257d2b50a3d660139fe01cb356ce554]
cluster org.eclipse.xtext.uma--><polygon fill="#FFFFFF" filter="url(#f1ni4m19x06tyd)" points="206,6,363,6,370,29.6094,396,29.6094,396,106,206,106,206,6" style="stroke: #000000; stroke-width: 1.5;"/><line style="stroke: #000000; stroke-width: 1.5;" x1="206" x2="370" y1="29.6094" y2="29.6094"/><text fill="#000000" font-family="sans-serif" font-size="14" font-weight="bold" lengthAdjust="spacingAndGlyphs" textLength="151" x="210" y="22.5332">org.eclipse.xtext.uma</text><!--MD5=[3e002aa2efee7f21e0c2f4a2925a7058]
class org.eclipse.xtext.uma.ide.UmalIdeModule--><a href="UmalIdeModule.html" target="_top" title="UmalIdeModule.html" xlink:actuate="onRequest" xlink:href="UmalIdeModule.html" xlink:show="new" xlink:title="UmalIdeModule.html" xlink:type="simple"><rect codeLine="3" fill="#FEFECE" filter="url(#f1ni4m19x06tyd)" height="48" id="org.eclipse.xtext.uma.ide.UmalIdeModule" style="stroke: #A80036; stroke-width: 1.5;" width="119" x="54.5" y="288"/><ellipse cx="69.5" cy="304" fill="#ADD1B2" rx="11" ry="11" style="stroke: #A80036; stroke-width: 1.0;"/><path d="M72.2656,299.875 Q72.4219,299.6563 72.6094,299.5469 Q72.7969,299.4375 73.0156,299.4375 Q73.3906,299.4375 73.625,299.7031 Q73.8594,299.9531 73.8594,300.5625 L73.8594,302.0156 Q73.8594,302.625 73.625,302.8906 Q73.3906,303.1563 73.0156,303.1563 Q72.6719,303.1563 72.4688,302.9531 Q72.2656,302.7656 72.1563,302.25 Q72.1094,301.8906 71.9219,301.7031 Q71.5938,301.3281 70.9844,301.1094 Q70.375,300.8906 69.75,300.8906 Q68.9844,300.8906 68.3438,301.2188 Q67.7188,301.5469 67.2188,302.2969 Q66.7344,303.0469 66.7344,304.0781 L66.7344,305.1719 Q66.7344,306.4063 67.625,307.2344 Q68.5156,308.0469 70.1094,308.0469 Q71.0469,308.0469 71.7031,307.7969 Q72.0938,307.6406 72.5156,307.2031 Q72.7813,306.9375 72.9219,306.8594 Q73.0781,306.7813 73.2813,306.7813 Q73.6094,306.7813 73.8594,307.0469 Q74.125,307.2969 74.125,307.6406 Q74.125,307.9844 73.7813,308.3906 Q73.2813,308.9688 72.4844,309.2969 Q71.4063,309.75 70.1094,309.75 Q68.5938,309.75 67.3906,309.125 Q66.4063,308.625 65.7188,307.5625 Q65.0313,306.4844 65.0313,305.2031 L65.0313,304.0469 Q65.0313,302.7188 65.6406,301.5781 Q66.2656,300.4219 67.3594,299.8125 Q68.4531,299.1875 69.6875,299.1875 Q70.4219,299.1875 71.0625,299.3594 Q71.7188,299.5156 72.2656,299.875 Z "/><text fill="#000000" font-family="sans-serif" font-size="12" lengthAdjust="spacingAndGlyphs" textLength="87" x="83.5" y="308.9102">UmalIdeModule</text><line style="stroke: #A80036; stroke-width: 1.5;" x1="55.5" x2="172.5" y1="320" y2="320"/><line style="stroke: #A80036; stroke-width: 1.5;" x1="55.5" x2="172.5" y1="328" y2="328"/></a><!--MD5=[f558368add0c9c9d8cfe3acd1d8368b9]
class org.eclipse.xtext.uma.ide.UmalIdeSetup--><a href="UmalIdeSetup.html" target="_top" title="UmalIdeSetup.html" xlink:actuate="onRequest" xlink:href="UmalIdeSetup.html" xlink:show="new" xlink:title="UmalIdeSetup.html" xlink:type="simple"><rect codeLine="5" fill="#FEFECE" filter="url(#f1ni4m19x06tyd)" height="61.8359" id="org.eclipse.xtext.uma.ide.UmalIdeSetup" style="stroke: #A80036; stroke-width: 1.5;" width="141" x="230.5" y="166"/><ellipse cx="259" cy="182" fill="#ADD1B2" rx="11" ry="11" style="stroke: #A80036; stroke-width: 1.0;"/><path d="M261.7656,177.875 Q261.9219,177.6563 262.1094,177.5469 Q262.2969,177.4375 262.5156,177.4375 Q262.8906,177.4375 263.125,177.7031 Q263.3594,177.9531 263.3594,178.5625 L263.3594,180.0156 Q263.3594,180.625 263.125,180.8906 Q262.8906,181.1563 262.5156,181.1563 Q262.1719,181.1563 261.9688,180.9531 Q261.7656,180.7656 261.6563,180.25 Q261.6094,179.8906 261.4219,179.7031 Q261.0938,179.3281 260.4844,179.1094 Q259.875,178.8906 259.25,178.8906 Q258.4844,178.8906 257.8438,179.2188 Q257.2188,179.5469 256.7188,180.2969 Q256.2344,181.0469 256.2344,182.0781 L256.2344,183.1719 Q256.2344,184.4063 257.125,185.2344 Q258.0156,186.0469 259.6094,186.0469 Q260.5469,186.0469 261.2031,185.7969 Q261.5938,185.6406 262.0156,185.2031 Q262.2813,184.9375 262.4219,184.8594 Q262.5781,184.7813 262.7813,184.7813 Q263.1094,184.7813 263.3594,185.0469 Q263.625,185.2969 263.625,185.6406 Q263.625,185.9844 263.2813,186.3906 Q262.7813,186.9688 261.9844,187.2969 Q260.9063,187.75 259.6094,187.75 Q258.0938,187.75 256.8906,187.125 Q255.9063,186.625 255.2188,185.5625 Q254.5313,184.4844 254.5313,183.2031 L254.5313,182.0469 Q254.5313,180.7188 255.1406,179.5781 Q255.7656,178.4219 256.8594,177.8125 Q257.9531,177.1875 259.1875,177.1875 Q259.9219,177.1875 260.5625,177.3594 Q261.2188,177.5156 261.7656,177.875 Z "/><text fill="#000000" font-family="sans-serif" font-size="12" lengthAdjust="spacingAndGlyphs" textLength="79" x="276" y="186.9102">UmalIdeSetup</text><line style="stroke: #A80036; stroke-width: 1.5;" x1="231.5" x2="370.5" y1="198" y2="198"/><line style="stroke: #A80036; stroke-width: 1.5;" x1="231.5" x2="370.5" y1="206" y2="206"/><ellipse cx="241.5" cy="217" fill="#84BE84" rx="3" ry="3" style="stroke: #038048; stroke-width: 1.0;"/><text fill="#000000" font-family="sans-serif" font-size="11" lengthAdjust="spacingAndGlyphs" textLength="115" x="250.5" y="221.4189">createInjector(): Injector</text></a><!--MD5=[15c425b497312fcd98adb951a6f0e042]
class org.eclipse.xtext.uma.ide.AbstractUmalIdeModule--><rect fill="#FEFECE" filter="url(#f1ni4m19x06tyd)" height="48" id="org.eclipse.xtext.uma.ide.AbstractUmalIdeModule" style="stroke: #A80036; stroke-width: 1.5;" width="163" x="32.5" y="173"/><ellipse cx="47.5" cy="189" fill="#ADD1B2" rx="11" ry="11" style="stroke: #A80036; stroke-width: 1.0;"/><path d="M50.2656,184.875 Q50.4219,184.6563 50.6094,184.5469 Q50.7969,184.4375 51.0156,184.4375 Q51.3906,184.4375 51.625,184.7031 Q51.8594,184.9531 51.8594,185.5625 L51.8594,187.0156 Q51.8594,187.625 51.625,187.8906 Q51.3906,188.1563 51.0156,188.1563 Q50.6719,188.1563 50.4688,187.9531 Q50.2656,187.7656 50.1563,187.25 Q50.1094,186.8906 49.9219,186.7031 Q49.5938,186.3281 48.9844,186.1094 Q48.375,185.8906 47.75,185.8906 Q46.9844,185.8906 46.3438,186.2188 Q45.7188,186.5469 45.2188,187.2969 Q44.7344,188.0469 44.7344,189.0781 L44.7344,190.1719 Q44.7344,191.4063 45.625,192.2344 Q46.5156,193.0469 48.1094,193.0469 Q49.0469,193.0469 49.7031,192.7969 Q50.0938,192.6406 50.5156,192.2031 Q50.7813,191.9375 50.9219,191.8594 Q51.0781,191.7813 51.2813,191.7813 Q51.6094,191.7813 51.8594,192.0469 Q52.125,192.2969 52.125,192.6406 Q52.125,192.9844 51.7813,193.3906 Q51.2813,193.9688 50.4844,194.2969 Q49.4063,194.75 48.1094,194.75 Q46.5938,194.75 45.3906,194.125 Q44.4063,193.625 43.7188,192.5625 Q43.0313,191.4844 43.0313,190.2031 L43.0313,189.0469 Q43.0313,187.7188 43.6406,186.5781 Q44.2656,185.4219 45.3594,184.8125 Q46.4531,184.1875 47.6875,184.1875 Q48.4219,184.1875 49.0625,184.3594 Q49.7188,184.5156 50.2656,184.875 Z "/><text fill="#000000" font-family="sans-serif" font-size="12" lengthAdjust="spacingAndGlyphs" textLength="131" x="61.5" y="193.9102">AbstractUmalIdeModule</text><line style="stroke: #A80036; stroke-width: 1.5;" x1="33.5" x2="194.5" y1="205" y2="205"/><line style="stroke: #A80036; stroke-width: 1.5;" x1="33.5" x2="194.5" y1="213" y2="213"/><!--MD5=[5fbb37c3404a80863befd8c7963c384d]
class org.eclipse.xtext.uma.UmalStandaloneSetup--><a href="..\UmalStandaloneSetup.html" target="_top" title="..\UmalStandaloneSetup.html" xlink:actuate="onRequest" xlink:href="..\UmalStandaloneSetup.html" xlink:show="new" xlink:title="..\UmalStandaloneSetup.html" xlink:type="simple"><rect codeLine="14" fill="#FEFECE" filter="url(#f1ni4m19x06tyd)" height="48" id="org.eclipse.xtext.uma.UmalStandaloneSetup" style="stroke: #A80036; stroke-width: 1.5;" width="157" x="222.5" y="42"/><ellipse cx="237.5" cy="58" fill="#ADD1B2" rx="11" ry="11" style="stroke: #A80036; stroke-width: 1.0;"/><path d="M240.2656,53.875 Q240.4219,53.6563 240.6094,53.5469 Q240.7969,53.4375 241.0156,53.4375 Q241.3906,53.4375 241.625,53.7031 Q241.8594,53.9531 241.8594,54.5625 L241.8594,56.0156 Q241.8594,56.625 241.625,56.8906 Q241.3906,57.1563 241.0156,57.1563 Q240.6719,57.1563 240.4688,56.9531 Q240.2656,56.7656 240.1563,56.25 Q240.1094,55.8906 239.9219,55.7031 Q239.5938,55.3281 238.9844,55.1094 Q238.375,54.8906 237.75,54.8906 Q236.9844,54.8906 236.3438,55.2188 Q235.7188,55.5469 235.2188,56.2969 Q234.7344,57.0469 234.7344,58.0781 L234.7344,59.1719 Q234.7344,60.4063 235.625,61.2344 Q236.5156,62.0469 238.1094,62.0469 Q239.0469,62.0469 239.7031,61.7969 Q240.0938,61.6406 240.5156,61.2031 Q240.7813,60.9375 240.9219,60.8594 Q241.0781,60.7813 241.2813,60.7813 Q241.6094,60.7813 241.8594,61.0469 Q242.125,61.2969 242.125,61.6406 Q242.125,61.9844 241.7813,62.3906 Q241.2813,62.9688 240.4844,63.2969 Q239.4063,63.75 238.1094,63.75 Q236.5938,63.75 235.3906,63.125 Q234.4063,62.625 233.7188,61.5625 Q233.0313,60.4844 233.0313,59.2031 L233.0313,58.0469 Q233.0313,56.7188 233.6406,55.5781 Q234.2656,54.4219 235.3594,53.8125 Q236.4531,53.1875 237.6875,53.1875 Q238.4219,53.1875 239.0625,53.3594 Q239.7188,53.5156 240.2656,53.875 Z "/><text fill="#000000" font-family="sans-serif" font-size="12" lengthAdjust="spacingAndGlyphs" textLength="125" x="251.5" y="62.9102">UmalStandaloneSetup</text><line style="stroke: #A80036; stroke-width: 1.5;" x1="223.5" x2="378.5" y1="74" y2="74"/><line style="stroke: #A80036; stroke-width: 1.5;" x1="223.5" x2="378.5" y1="82" y2="82"/></a><!--MD5=[e11de138179ece6a27d9a050736e04f5]
reverse link org.eclipse.xtext.uma.ide.AbstractUmalIdeModule to org.eclipse.xtext.uma.ide.UmalIdeModule--><path codeLine="9" d="M114,241.34 C114,257.18 114,274.49 114,287.89 " fill="none" id="org.eclipse.xtext.uma.ide.AbstractUmalIdeModule-backto-org.eclipse.xtext.uma.ide.UmalIdeModule" style="stroke: #A80036; stroke-width: 1.0;"/><polygon fill="none" points="107,241.14,114,221.14,121,241.14,107,241.14" style="stroke: #A80036; stroke-width: 1.0;"/><!--MD5=[cffa2f0596d0e71b83b79170dd7d3b1b]
reverse link org.eclipse.xtext.uma.UmalStandaloneSetup to org.eclipse.xtext.uma.ide.UmalIdeSetup--><path codeLine="10" d="M301,110.25 C301,128.5 301,149.31 301,165.85 " fill="none" id="org.eclipse.xtext.uma.UmalStandaloneSetup-backto-org.eclipse.xtext.uma.ide.UmalIdeSetup" style="stroke: #A80036; stroke-width: 1.0;"/><polygon fill="none" points="294,110.06,301,90.06,308,110.06,294,110.06" style="stroke: #A80036; stroke-width: 1.0;"/><text fill="#888888" font-family="sans-serif" font-size="10" lengthAdjust="spacingAndGlyphs" textLength="190" x="105" y="368.3809">UMLDoclet 2.0.12, PlantUML 1.2020.16</text><!--MD5=[d49b4841e3ae3d82a1204492d6aac1fd]
@startuml
    namespace org.eclipse.xtext.uma.ide {

        class UmalIdeModule [[UmalIdeModule.html]]

        class UmalIdeSetup [[UmalIdeSetup.html]] {
            +createInjector(): Injector
        }

        AbstractUmalIdeModule <|- - UmalIdeModule
        org.eclipse.xtext.uma.UmalStandaloneSetup <|- - UmalIdeSetup
    }

    namespace org.eclipse.xtext.uma {
        class UmalStandaloneSetup [[..\UmalStandaloneSetup.html]]
    }

    center footer UMLDoclet 2.0.12, PlantUML 1.2020.16
@enduml

PlantUML version 1.2020.16(Sun Aug 23 22:20:43 CEST 2020)
(APACHE source distribution)
Java Runtime: Java(TM) SE Runtime Environment
JVM: Java HotSpot(TM) 64-Bit Server VM
Default Encoding: Cp1252
Language: es
Country: ES
--></g></svg>