<?xml version="1.0" encoding="UTF-8" standalone="no"?><svg xmlns="http://www.w3.org/2000/svg" xmlns:xlink="http://www.w3.org/1999/xlink" contentScriptType="application/ecmascript" contentStyleType="text/css" height="184px" preserveAspectRatio="none" style="width:209px;height:184px;" version="1.1" viewBox="0 0 209 184" width="209px" zoomAndPan="magnify"><defs><filter height="300%" id="fd4r5yxq34u7j" width="300%" x="-1" y="-1"><feGaussianBlur result="blurOut" stdDeviation="2.0"/><feColorMatrix in="blurOut" result="blurOut2" type="matrix" values="0 0 0 0 0 0 0 0 0 0 0 0 0 0 0 0 0 0 .4 0"/><feOffset dx="4.0" dy="4.0" in="blurOut2" result="blurOut3"/><feBlend in="SourceGraphic" in2="blurOut3" mode="normal"/></filter></defs><g><!--MD5=[3e002aa2efee7f21e0c2f4a2925a7058]
class org.eclipse.xtext.uma.ide.UmalIdeModule--><a href="UmalIdeModule.html" target="_top" title="UmalIdeModule.html" xlink:actuate="onRequest" xlink:href="UmalIdeModule.html" xlink:show="new" xlink:title="UmalIdeModule.html" xlink:type="simple"><rect codeLine="5" fill="#FEFECE" filter="url(#fd4r5yxq34u7j)" height="40.1875" id="org.eclipse.xtext.uma.ide.UmalIdeModule" style="stroke: #A80036; stroke-width: 1.5;" width="151" x="23" y="107"/><ellipse cx="38" cy="127.0938" fill="#ADD1B2" rx="11" ry="11" style="stroke: #A80036; stroke-width: 1.0;"/><path d="M40.7656,122.9688 Q40.9219,122.75 41.1094,122.6406 Q41.2969,122.5313 41.5156,122.5313 Q41.8906,122.5313 42.125,122.7969 Q42.3594,123.0469 42.3594,123.6563 L42.3594,125.1094 Q42.3594,125.7188 42.125,125.9844 Q41.8906,126.25 41.5156,126.25 Q41.1719,126.25 40.9688,126.0469 Q40.7656,125.8594 40.6563,125.3438 Q40.6094,124.9844 40.4219,124.7969 Q40.0938,124.4219 39.4844,124.2031 Q38.875,123.9844 38.25,123.9844 Q37.4844,123.9844 36.8438,124.3125 Q36.2188,124.6406 35.7188,125.3906 Q35.2344,126.1406 35.2344,127.1719 L35.2344,128.2656 Q35.2344,129.5 36.125,130.3281 Q37.0156,131.1406 38.6094,131.1406 Q39.5469,131.1406 40.2031,130.8906 Q40.5938,130.7344 41.0156,130.2969 Q41.2813,130.0313 41.4219,129.9531 Q41.5781,129.875 41.7813,129.875 Q42.1094,129.875 42.3594,130.1406 Q42.625,130.3906 42.625,130.7344 Q42.625,131.0781 42.2813,131.4844 Q41.7813,132.0625 40.9844,132.3906 Q39.9063,132.8438 38.6094,132.8438 Q37.0938,132.8438 35.8906,132.2188 Q34.9063,131.7188 34.2188,130.6563 Q33.5313,129.5781 33.5313,128.2969 L33.5313,127.1406 Q33.5313,125.8125 34.1406,124.6719 Q34.7656,123.5156 35.8594,122.9063 Q36.9531,122.2813 38.1875,122.2813 Q38.9219,122.2813 39.5625,122.4531 Q40.2188,122.6094 40.7656,122.9688 Z "/><text fill="#000000" font-family="sans-serif" font-size="14" lengthAdjust="spacingAndGlyphs" textLength="96" x="63.5" y="126.5332">UmalIdeModule</text><text fill="#000000" font-family="sans-serif" font-size="10" lengthAdjust="spacingAndGlyphs" textLength="119" x="52" y="139.9902">org.eclipse.xtext.uma.ide</text></a><!--MD5=[15c425b497312fcd98adb951a6f0e042]
class org.eclipse.xtext.uma.ide.AbstractUmalIdeModule--><rect codeLine="7" fill="#FEFECE" filter="url(#fd4r5yxq34u7j)" height="40.1875" id="org.eclipse.xtext.uma.ide.AbstractUmalIdeModule" style="stroke: #A80036; stroke-width: 1.5;" width="183" x="7" y="7"/><ellipse cx="22" cy="27.0938" fill="#A9DCDF" rx="11" ry="11" style="stroke: #A80036; stroke-width: 1.0;"/><path d="M24.1875,28.8594 L20.0469,28.8594 L19.625,29.8906 L20.0469,29.8906 Q20.6563,29.8906 20.9219,30.125 Q21.1875,30.3594 21.1875,30.75 Q21.1875,31.125 20.9219,31.3594 Q20.6563,31.5938 20.0469,31.5938 L17.75,31.5938 Q17.1406,31.5938 16.8906,31.3594 Q16.625,31.125 16.625,30.7344 Q16.625,30.3594 16.9063,30.125 Q17.1719,29.875 17.7969,29.8906 L20.4688,23.2344 L19.3594,23.2344 Q18.75,23.2344 18.4844,23 Q18.2188,22.7656 18.2188,22.375 Q18.2188,22 18.4844,21.7656 Q18.75,21.5313 19.3594,21.5313 L23.0313,21.5313 L26.4219,29.8906 Q27.0156,29.8906 27.2031,30.0313 Q27.5938,30.2969 27.5938,30.75 Q27.5938,31.125 27.3281,31.3594 Q27.0781,31.5938 26.4688,31.5938 L24.1719,31.5938 Q23.5625,31.5938 23.2969,31.3594 Q23.0313,31.125 23.0313,30.7344 Q23.0313,30.3594 23.2969,30.125 Q23.5625,29.8906 24.1719,29.8906 L24.5938,29.8906 L24.1875,28.8594 Z M23.4688,27.1563 L22.1094,23.7813 L20.7344,27.1563 L23.4688,27.1563 Z "/><text fill="#000000" font-family="sans-serif" font-size="14" font-style="italic" lengthAdjust="spacingAndGlyphs" textLength="151" x="36" y="26.5332">AbstractUmalIdeModule</text><text fill="#000000" font-family="sans-serif" font-size="10" font-style="italic" lengthAdjust="spacingAndGlyphs" textLength="117" x="53" y="39.9902">org.eclipse.xtext.uma.ide</text><!--MD5=[e11de138179ece6a27d9a050736e04f5]
reverse link org.eclipse.xtext.uma.ide.AbstractUmalIdeModule to org.eclipse.xtext.uma.ide.UmalIdeModule--><path codeLine="9" d="M98.5,67.69 C98.5,81.13 98.5,95.55 98.5,106.68 " fill="none" id="org.eclipse.xtext.uma.ide.AbstractUmalIdeModule-backto-org.eclipse.xtext.uma.ide.UmalIdeModule" style="stroke: #A80036; stroke-width: 1.0;"/><polygon fill="none" points="91.5,67.36,98.5,47.36,105.5,67.36,91.5,67.36" style="stroke: #A80036; stroke-width: 1.0;"/><text fill="#888888" font-family="sans-serif" font-size="10" lengthAdjust="spacingAndGlyphs" textLength="190" x="0.5" y="170.5684">UMLDoclet 2.0.12, PlantUML 1.2020.16</text><!--MD5=[8f4636c5025a3a8c7cc607159957786b]
@startuml
    set namespaceSeparator none
    hide empty fields
    hide empty methods

    class "<size:14>UmalIdeModule\n<size:10>org.eclipse.xtext.uma.ide" as org.eclipse.xtext.uma.ide.UmalIdeModule [[UmalIdeModule.html]]

    abstract class "<size:14>AbstractUmalIdeModule\n<size:10>org.eclipse.xtext.uma.ide" as org.eclipse.xtext.uma.ide.AbstractUmalIdeModule

    org.eclipse.xtext.uma.ide.AbstractUmalIdeModule <|- - org.eclipse.xtext.uma.ide.UmalIdeModule

    center footer UMLDoclet 2.0.12, PlantUML 1.2020.16
@enduml

PlantUML version 1.2020.16(Sun Aug 23 22:20:43 CEST 2020)
(APACHE source distribution)
Java Runtime: Java(TM) SE Runtime Environment
JVM: Java HotSpot(TM) 64-Bit Server VM
Default Encoding: Cp1252
Language: es
Country: ES
--></g></svg>