<?xml version="1.0" encoding="UTF-8" standalone="no"?><svg xmlns="http://www.w3.org/2000/svg" xmlns:xlink="http://www.w3.org/1999/xlink" contentScriptType="application/ecmascript" contentStyleType="text/css" height="205px" preserveAspectRatio="none" style="width:203px;height:205px;" version="1.1" viewBox="0 0 203 205" width="203px" zoomAndPan="magnify"><defs><filter height="300%" id="fgm1zltqgrpav" width="300%" x="-1" y="-1"><feGaussianBlur result="blurOut" stdDeviation="2.0"/><feColorMatrix in="blurOut" result="blurOut2" type="matrix" values="0 0 0 0 0 0 0 0 0 0 0 0 0 0 0 0 0 0 .4 0"/><feOffset dx="4.0" dy="4.0" in="blurOut2" result="blurOut3"/><feBlend in="SourceGraphic" in2="blurOut3" mode="normal"/></filter></defs><g><!--MD5=[f558368add0c9c9d8cfe3acd1d8368b9]
class org.eclipse.xtext.uma.ide.UmalIdeSetup--><a href="UmalIdeSetup.html" target="_top" title="UmalIdeSetup.html" xlink:actuate="onRequest" xlink:href="UmalIdeSetup.html" xlink:show="new" xlink:title="UmalIdeSetup.html" xlink:type="simple"><rect codeLine="5" fill="#FEFECE" filter="url(#fgm1zltqgrpav)" height="62.0234" id="org.eclipse.xtext.uma.ide.UmalIdeSetup" style="stroke: #A80036; stroke-width: 1.5;" width="151" x="22.5" y="107"/><ellipse cx="37.5" cy="127.0938" fill="#ADD1B2" rx="11" ry="11" style="stroke: #A80036; stroke-width: 1.0;"/><path d="M40.2656,122.9688 Q40.4219,122.75 40.6094,122.6406 Q40.7969,122.5313 41.0156,122.5313 Q41.3906,122.5313 41.625,122.7969 Q41.8594,123.0469 41.8594,123.6563 L41.8594,125.1094 Q41.8594,125.7188 41.625,125.9844 Q41.3906,126.25 41.0156,126.25 Q40.6719,126.25 40.4688,126.0469 Q40.2656,125.8594 40.1563,125.3438 Q40.1094,124.9844 39.9219,124.7969 Q39.5938,124.4219 38.9844,124.2031 Q38.375,123.9844 37.75,123.9844 Q36.9844,123.9844 36.3438,124.3125 Q35.7188,124.6406 35.2188,125.3906 Q34.7344,126.1406 34.7344,127.1719 L34.7344,128.2656 Q34.7344,129.5 35.625,130.3281 Q36.5156,131.1406 38.1094,131.1406 Q39.0469,131.1406 39.7031,130.8906 Q40.0938,130.7344 40.5156,130.2969 Q40.7813,130.0313 40.9219,129.9531 Q41.0781,129.875 41.2813,129.875 Q41.6094,129.875 41.8594,130.1406 Q42.125,130.3906 42.125,130.7344 Q42.125,131.0781 41.7813,131.4844 Q41.2813,132.0625 40.4844,132.3906 Q39.4063,132.8438 38.1094,132.8438 Q36.5938,132.8438 35.3906,132.2188 Q34.4063,131.7188 33.7188,130.6563 Q33.0313,129.5781 33.0313,128.2969 L33.0313,127.1406 Q33.0313,125.8125 33.6406,124.6719 Q34.2656,123.5156 35.3594,122.9063 Q36.4531,122.2813 37.6875,122.2813 Q38.4219,122.2813 39.0625,122.4531 Q39.7188,122.6094 40.2656,122.9688 Z "/><text fill="#000000" font-family="sans-serif" font-size="14" lengthAdjust="spacingAndGlyphs" textLength="87" x="67.5" y="126.5332">UmalIdeSetup</text><text fill="#000000" font-family="sans-serif" font-size="10" lengthAdjust="spacingAndGlyphs" textLength="119" x="51.5" y="139.9902">org.eclipse.xtext.uma.ide</text><line style="stroke: #A80036; stroke-width: 1.5;" x1="23.5" x2="172.5" y1="147.1875" y2="147.1875"/><ellipse cx="33.5" cy="158.1875" fill="#84BE84" rx="3" ry="3" style="stroke: #038048; stroke-width: 1.0;"/><text fill="#000000" font-family="sans-serif" font-size="11" lengthAdjust="spacingAndGlyphs" textLength="115" x="42.5" y="162.6064">createInjector(): Injector</text></a><!--MD5=[5fbb37c3404a80863befd8c7963c384d]
class org.eclipse.xtext.uma.UmalStandaloneSetup--><a href="..\UmalStandaloneSetup.html" target="_top" title="..\UmalStandaloneSetup.html" xlink:actuate="onRequest" xlink:href="..\UmalStandaloneSetup.html" xlink:show="new" xlink:title="..\UmalStandaloneSetup.html" xlink:type="simple"><rect codeLine="9" fill="#FEFECE" filter="url(#fgm1zltqgrpav)" height="40.1875" id="org.eclipse.xtext.uma.UmalStandaloneSetup" style="stroke: #A80036; stroke-width: 1.5;" width="172" x="12" y="7"/><ellipse cx="27" cy="27.0938" fill="#ADD1B2" rx="11" ry="11" style="stroke: #A80036; stroke-width: 1.0;"/><path d="M29.7656,22.9688 Q29.9219,22.75 30.1094,22.6406 Q30.2969,22.5313 30.5156,22.5313 Q30.8906,22.5313 31.125,22.7969 Q31.3594,23.0469 31.3594,23.6563 L31.3594,25.1094 Q31.3594,25.7188 31.125,25.9844 Q30.8906,26.25 30.5156,26.25 Q30.1719,26.25 29.9688,26.0469 Q29.7656,25.8594 29.6563,25.3438 Q29.6094,24.9844 29.4219,24.7969 Q29.0938,24.4219 28.4844,24.2031 Q27.875,23.9844 27.25,23.9844 Q26.4844,23.9844 25.8438,24.3125 Q25.2188,24.6406 24.7188,25.3906 Q24.2344,26.1406 24.2344,27.1719 L24.2344,28.2656 Q24.2344,29.5 25.125,30.3281 Q26.0156,31.1406 27.6094,31.1406 Q28.5469,31.1406 29.2031,30.8906 Q29.5938,30.7344 30.0156,30.2969 Q30.2813,30.0313 30.4219,29.9531 Q30.5781,29.875 30.7813,29.875 Q31.1094,29.875 31.3594,30.1406 Q31.625,30.3906 31.625,30.7344 Q31.625,31.0781 31.2813,31.4844 Q30.7813,32.0625 29.9844,32.3906 Q28.9063,32.8438 27.6094,32.8438 Q26.0938,32.8438 24.8906,32.2188 Q23.9063,31.7188 23.2188,30.6563 Q22.5313,29.5781 22.5313,28.2969 L22.5313,27.1406 Q22.5313,25.8125 23.1406,24.6719 Q23.7656,23.5156 24.8594,22.9063 Q25.9531,22.2813 27.1875,22.2813 Q27.9219,22.2813 28.5625,22.4531 Q29.2188,22.6094 29.7656,22.9688 Z "/><text fill="#000000" font-family="sans-serif" font-size="14" lengthAdjust="spacingAndGlyphs" textLength="140" x="41" y="26.5332">UmalStandaloneSetup</text><text fill="#000000" font-family="sans-serif" font-size="10" lengthAdjust="spacingAndGlyphs" textLength="101" x="60.5" y="39.9902">org.eclipse.xtext.uma</text></a><!--MD5=[cffa2f0596d0e71b83b79170dd7d3b1b]
reverse link org.eclipse.xtext.uma.UmalStandaloneSetup to org.eclipse.xtext.uma.ide.UmalIdeSetup--><path codeLine="11" d="M98,67.37 C98,80.38 98,94.65 98,106.86 " fill="none" id="org.eclipse.xtext.uma.UmalStandaloneSetup-backto-org.eclipse.xtext.uma.ide.UmalIdeSetup" style="stroke: #A80036; stroke-width: 1.0;"/><polygon fill="none" points="91,67.24,98,47.24,105,67.24,91,67.24" style="stroke: #A80036; stroke-width: 1.0;"/><text fill="#888888" font-family="sans-serif" font-size="10" lengthAdjust="spacingAndGlyphs" textLength="190" x="0" y="192.4043">UMLDoclet 2.0.12, PlantUML 1.2020.16</text><!--MD5=[c9865c397960b8bdd6c8da6997b2d4dd]
@startuml
    set namespaceSeparator none
    hide empty fields
    hide empty methods

    class "<size:14>UmalIdeSetup\n<size:10>org.eclipse.xtext.uma.ide" as org.eclipse.xtext.uma.ide.UmalIdeSetup [[UmalIdeSetup.html]] {
        +createInjector(): Injector
    }

    class "<size:14>UmalStandaloneSetup\n<size:10>org.eclipse.xtext.uma" as org.eclipse.xtext.uma.UmalStandaloneSetup [[..\UmalStandaloneSetup.html]]

    org.eclipse.xtext.uma.UmalStandaloneSetup <|- - org.eclipse.xtext.uma.ide.UmalIdeSetup

    center footer UMLDoclet 2.0.12, PlantUML 1.2020.16
@enduml

PlantUML version 1.2020.16(Sun Aug 23 22:20:43 CEST 2020)
(APACHE source distribution)
Java Runtime: Java(TM) SE Runtime Environment
JVM: Java HotSpot(TM) 64-Bit Server VM
Default Encoding: Cp1252
Language: es
Country: ES
--></g></svg>