<?xml version="1.0" encoding="UTF-8" standalone="no"?><svg xmlns="http://www.w3.org/2000/svg" xmlns:xlink="http://www.w3.org/1999/xlink" contentScriptType="application/ecmascript" contentStyleType="text/css" height="324px" preserveAspectRatio="none" style="width:1087px;height:324px;" version="1.1" viewBox="0 0 1087 324" width="1087px" zoomAndPan="magnify"><defs><filter height="300%" id="fgp63kb5axtkb" width="300%" x="-1" y="-1"><feGaussianBlur result="blurOut" stdDeviation="2.0"/><feColorMatrix in="blurOut" result="blurOut2" type="matrix" values="0 0 0 0 0 0 0 0 0 0 0 0 0 0 0 0 0 0 .4 0"/><feOffset dx="4.0" dy="4.0" in="blurOut2" result="blurOut3"/><feBlend in="SourceGraphic" in2="blurOut3" mode="normal"/></filter></defs><g><!--MD5=[8befe719594d6caeea4858f50e8183da]
class org.eclipse.epf.uma.Activity--><a href="Activity.html" target="_top" title="Activity.html" xlink:actuate="onRequest" xlink:href="Activity.html" xlink:show="new" xlink:title="Activity.html" xlink:type="simple"><rect codeLine="5" fill="#FEFECE" filter="url(#fgp63kb5axtkb)" height="75.8594" id="org.eclipse.epf.uma.Activity" style="stroke: #A80036; stroke-width: 1.5;" width="286" x="399.5" y="212"/><ellipse cx="492.25" cy="232.0938" fill="#B4A7E5" rx="11" ry="11" style="stroke: #A80036; stroke-width: 1.0;"/><path d="M493.2031,228.7344 L493.2031,235.3906 L494.9219,235.3906 Q495.5313,235.3906 495.7969,235.625 Q496.0625,235.8594 496.0625,236.25 Q496.0625,236.625 495.7969,236.8594 Q495.5313,237.0938 494.9219,237.0938 L489.7813,237.0938 Q489.1719,237.0938 488.9063,236.8594 Q488.6406,236.625 488.6406,236.2344 Q488.6406,235.8594 488.9063,235.625 Q489.1719,235.3906 489.7813,235.3906 L491.5,235.3906 L491.5,228.7344 L489.7813,228.7344 Q489.1719,228.7344 488.9063,228.5 Q488.6406,228.2656 488.6406,227.875 Q488.6406,227.5 488.9063,227.2656 Q489.1719,227.0313 489.7813,227.0313 L494.9219,227.0313 Q495.5313,227.0313 495.7969,227.2656 Q496.0625,227.5 496.0625,227.875 Q496.0625,228.2656 495.7969,228.5 Q495.5313,228.7344 494.9219,228.7344 L493.2031,228.7344 Z "/><text fill="#000000" font-family="sans-serif" font-size="14" font-style="italic" lengthAdjust="spacingAndGlyphs" textLength="43" x="537.25" y="231.5332">Activity</text><text fill="#000000" font-family="sans-serif" font-size="10" font-style="italic" lengthAdjust="spacingAndGlyphs" textLength="92" x="512.75" y="244.9902">org.eclipse.epf.uma</text><line style="stroke: #A80036; stroke-width: 1.5;" x1="400.5" x2="684.5" y1="252.1875" y2="252.1875"/><ellipse cx="410.5" cy="263.1875" fill="#84BE84" rx="3" ry="3" style="stroke: #038048; stroke-width: 1.0;"/><text fill="#000000" font-family="sans-serif" font-size="11" font-style="italic" lengthAdjust="spacingAndGlyphs" textLength="260" x="419.5" y="267.6064">getBreakdownElements(): EList&lt;BreakdownElement&gt;</text><ellipse cx="410.5" cy="277.0234" fill="#84BE84" rx="3" ry="3" style="stroke: #038048; stroke-width: 1.0;"/><text fill="#000000" font-family="sans-serif" font-size="11" font-style="italic" lengthAdjust="spacingAndGlyphs" textLength="166" x="419.5" y="281.4424">getRoadmaps(): EList&lt;Roadmap&gt;</text></a><!--MD5=[2faf845886558de7d4384c143b6f4057]
class org.eclipse.epf.uma.WorkBreakdownElement--><a href="WorkBreakdownElement.html" target="_top" title="WorkBreakdownElement.html" xlink:actuate="onRequest" xlink:href="WorkBreakdownElement.html" xlink:show="new" xlink:title="WorkBreakdownElement.html" xlink:type="simple"><rect codeLine="10" fill="#FEFECE" filter="url(#fgp63kb5axtkb)" height="145.0391" id="org.eclipse.epf.uma.WorkBreakdownElement" style="stroke: #A80036; stroke-width: 1.5;" width="245" x="7" y="7"/><ellipse cx="47.2" cy="27.0938" fill="#B4A7E5" rx="11" ry="11" style="stroke: #A80036; stroke-width: 1.0;"/><path d="M48.1531,23.7344 L48.1531,30.3906 L49.8719,30.3906 Q50.4813,30.3906 50.7469,30.625 Q51.0125,30.8594 51.0125,31.25 Q51.0125,31.625 50.7469,31.8594 Q50.4813,32.0938 49.8719,32.0938 L44.7313,32.0938 Q44.1219,32.0938 43.8563,31.8594 Q43.5906,31.625 43.5906,31.2344 Q43.5906,30.8594 43.8563,30.625 Q44.1219,30.3906 44.7313,30.3906 L46.45,30.3906 L46.45,23.7344 L44.7313,23.7344 Q44.1219,23.7344 43.8563,23.5 Q43.5906,23.2656 43.5906,22.875 Q43.5906,22.5 43.8563,22.2656 Q44.1219,22.0313 44.7313,22.0313 L49.8719,22.0313 Q50.4813,22.0313 50.7469,22.2656 Q51.0125,22.5 51.0125,22.875 Q51.0125,23.2656 50.7469,23.5 Q50.4813,23.7344 49.8719,23.7344 L48.1531,23.7344 Z "/><text fill="#000000" font-family="sans-serif" font-size="14" font-style="italic" lengthAdjust="spacingAndGlyphs" textLength="157" x="66.8" y="26.5332">WorkBreakdownElement</text><text fill="#000000" font-family="sans-serif" font-size="10" font-style="italic" lengthAdjust="spacingAndGlyphs" textLength="92" x="99.3" y="39.9902">org.eclipse.epf.uma</text><line style="stroke: #A80036; stroke-width: 1.5;" x1="8" x2="251" y1="47.1875" y2="47.1875"/><ellipse cx="18" cy="58.1875" fill="#84BE84" rx="3" ry="3" style="stroke: #038048; stroke-width: 1.0;"/><text fill="#000000" font-family="sans-serif" font-size="11" font-style="italic" lengthAdjust="spacingAndGlyphs" textLength="135" x="27" y="62.6064">getIsRepeatable(): Boolean</text><ellipse cx="18" cy="72.0234" fill="#84BE84" rx="3" ry="3" style="stroke: #038048; stroke-width: 1.0;"/><text fill="#000000" font-family="sans-serif" font-size="11" font-style="italic" lengthAdjust="spacingAndGlyphs" textLength="155" x="27" y="76.4424">setIsRepeatable(Boolean): void</text><ellipse cx="18" cy="85.8594" fill="#84BE84" rx="3" ry="3" style="stroke: #038048; stroke-width: 1.0;"/><text fill="#000000" font-family="sans-serif" font-size="11" font-style="italic" lengthAdjust="spacingAndGlyphs" textLength="120" x="27" y="90.2783">getIsOngoing(): Boolean</text><ellipse cx="18" cy="99.6953" fill="#84BE84" rx="3" ry="3" style="stroke: #038048; stroke-width: 1.0;"/><text fill="#000000" font-family="sans-serif" font-size="11" font-style="italic" lengthAdjust="spacingAndGlyphs" textLength="140" x="27" y="104.1143">setIsOngoing(Boolean): void</text><ellipse cx="18" cy="113.5313" fill="#84BE84" rx="3" ry="3" style="stroke: #038048; stroke-width: 1.0;"/><text fill="#000000" font-family="sans-serif" font-size="11" font-style="italic" lengthAdjust="spacingAndGlyphs" textLength="137" x="27" y="117.9502">getIsEventDriven(): Boolean</text><ellipse cx="18" cy="127.3672" fill="#84BE84" rx="3" ry="3" style="stroke: #038048; stroke-width: 1.0;"/><text fill="#000000" font-family="sans-serif" font-size="11" font-style="italic" lengthAdjust="spacingAndGlyphs" textLength="157" x="27" y="131.7861">setIsEventDriven(Boolean): void</text><ellipse cx="18" cy="141.2031" fill="#84BE84" rx="3" ry="3" style="stroke: #038048; stroke-width: 1.0;"/><text fill="#000000" font-family="sans-serif" font-size="11" font-style="italic" lengthAdjust="spacingAndGlyphs" textLength="219" x="27" y="145.6221">getLinkToPredecessor(): EList&lt;WorkOrder&gt;</text></a><!--MD5=[f174583b3eab5efe0bc22d67b8bdbb60]
class org.eclipse.epf.uma.FulfillableElement--><a href="FulfillableElement.html" target="_top" title="FulfillableElement.html" xlink:actuate="onRequest" xlink:href="FulfillableElement.html" xlink:show="new" xlink:title="FulfillableElement.html" xlink:type="simple"><rect codeLine="19" fill="#FEFECE" filter="url(#fgp63kb5axtkb)" height="62.0234" id="org.eclipse.epf.uma.FulfillableElement" style="stroke: #A80036; stroke-width: 1.5;" width="216" x="287.5" y="48.5"/><ellipse cx="335.75" cy="68.5938" fill="#B4A7E5" rx="11" ry="11" style="stroke: #A80036; stroke-width: 1.0;"/><path d="M336.7031,65.2344 L336.7031,71.8906 L338.4219,71.8906 Q339.0313,71.8906 339.2969,72.125 Q339.5625,72.3594 339.5625,72.75 Q339.5625,73.125 339.2969,73.3594 Q339.0313,73.5938 338.4219,73.5938 L333.2813,73.5938 Q332.6719,73.5938 332.4063,73.3594 Q332.1406,73.125 332.1406,72.7344 Q332.1406,72.3594 332.4063,72.125 Q332.6719,71.8906 333.2813,71.8906 L335,71.8906 L335,65.2344 L333.2813,65.2344 Q332.6719,65.2344 332.4063,65 Q332.1406,64.7656 332.1406,64.375 Q332.1406,64 332.4063,63.7656 Q332.6719,63.5313 333.2813,63.5313 L338.4219,63.5313 Q339.0313,63.5313 339.2969,63.7656 Q339.5625,64 339.5625,64.375 Q339.5625,64.7656 339.2969,65 Q339.0313,65.2344 338.4219,65.2344 L336.7031,65.2344 Z "/><text fill="#000000" font-family="sans-serif" font-size="14" font-style="italic" lengthAdjust="spacingAndGlyphs" textLength="111" x="356.25" y="68.0332">FulfillableElement</text><text fill="#000000" font-family="sans-serif" font-size="10" font-style="italic" lengthAdjust="spacingAndGlyphs" textLength="92" x="365.75" y="81.4902">org.eclipse.epf.uma</text><line style="stroke: #A80036; stroke-width: 1.5;" x1="288.5" x2="502.5" y1="88.6875" y2="88.6875"/><ellipse cx="298.5" cy="99.6875" fill="#84BE84" rx="3" ry="3" style="stroke: #038048; stroke-width: 1.0;"/><text fill="#000000" font-family="sans-serif" font-size="11" font-style="italic" lengthAdjust="spacingAndGlyphs" textLength="190" x="307.5" y="104.1064">getFulfills(): EList&lt;FulfillableElement&gt;</text></a><!--MD5=[3feaaf670fc79e387ff2ee6de862556d]
class org.eclipse.epf.uma.VariabilityElement--><a href="VariabilityElement.html" target="_top" title="VariabilityElement.html" xlink:actuate="onRequest" xlink:href="VariabilityElement.html" xlink:show="new" xlink:title="VariabilityElement.html" xlink:type="simple"><rect codeLine="22" fill="#FEFECE" filter="url(#fgp63kb5axtkb)" height="103.5313" id="org.eclipse.epf.uma.VariabilityElement" style="stroke: #A80036; stroke-width: 1.5;" width="301" x="539" y="27.5"/><ellipse cx="629.25" cy="47.5938" fill="#B4A7E5" rx="11" ry="11" style="stroke: #A80036; stroke-width: 1.0;"/><path d="M630.2031,44.2344 L630.2031,50.8906 L631.9219,50.8906 Q632.5313,50.8906 632.7969,51.125 Q633.0625,51.3594 633.0625,51.75 Q633.0625,52.125 632.7969,52.3594 Q632.5313,52.5938 631.9219,52.5938 L626.7813,52.5938 Q626.1719,52.5938 625.9063,52.3594 Q625.6406,52.125 625.6406,51.7344 Q625.6406,51.3594 625.9063,51.125 Q626.1719,50.8906 626.7813,50.8906 L628.5,50.8906 L628.5,44.2344 L626.7813,44.2344 Q626.1719,44.2344 625.9063,44 Q625.6406,43.7656 625.6406,43.375 Q625.6406,43 625.9063,42.7656 Q626.1719,42.5313 626.7813,42.5313 L631.9219,42.5313 Q632.5313,42.5313 632.7969,42.7656 Q633.0625,43 633.0625,43.375 Q633.0625,43.7656 632.7969,44 Q632.5313,44.2344 631.9219,44.2344 L630.2031,44.2344 Z "/><text fill="#000000" font-family="sans-serif" font-size="14" font-style="italic" lengthAdjust="spacingAndGlyphs" textLength="112" x="649.75" y="47.0332">VariabilityElement</text><text fill="#000000" font-family="sans-serif" font-size="10" font-style="italic" lengthAdjust="spacingAndGlyphs" textLength="92" x="659.75" y="60.4902">org.eclipse.epf.uma</text><line style="stroke: #A80036; stroke-width: 1.5;" x1="540" x2="839" y1="67.6875" y2="67.6875"/><ellipse cx="550" cy="78.6875" fill="#84BE84" rx="3" ry="3" style="stroke: #038048; stroke-width: 1.0;"/><text fill="#000000" font-family="sans-serif" font-size="11" font-style="italic" lengthAdjust="spacingAndGlyphs" textLength="177" x="559" y="83.1064">getVariabilityType(): VariabilityType</text><ellipse cx="550" cy="92.5234" fill="#84BE84" rx="3" ry="3" style="stroke: #038048; stroke-width: 1.0;"/><text fill="#000000" font-family="sans-serif" font-size="11" font-style="italic" lengthAdjust="spacingAndGlyphs" textLength="197" x="559" y="96.9424">setVariabilityType(VariabilityType): void</text><ellipse cx="550" cy="106.3594" fill="#84BE84" rx="3" ry="3" style="stroke: #038048; stroke-width: 1.0;"/><text fill="#000000" font-family="sans-serif" font-size="11" font-style="italic" lengthAdjust="spacingAndGlyphs" textLength="255" x="559" y="110.7783">getVariabilityBasedOnElement(): VariabilityElement</text><ellipse cx="550" cy="120.1953" fill="#84BE84" rx="3" ry="3" style="stroke: #038048; stroke-width: 1.0;"/><text fill="#000000" font-family="sans-serif" font-size="11" font-style="italic" lengthAdjust="spacingAndGlyphs" textLength="275" x="559" y="124.6143">setVariabilityBasedOnElement(VariabilityElement): void</text></a><!--MD5=[3c99a5eaea672cd8b6c6b711cc4fc612]
class org.eclipse.epf.uma.WorkDefinition--><a href="WorkDefinition.html" target="_top" title="WorkDefinition.html" xlink:actuate="onRequest" xlink:href="WorkDefinition.html" xlink:show="new" xlink:title="WorkDefinition.html" xlink:type="simple"><rect codeLine="28" fill="#FEFECE" filter="url(#fgp63kb5axtkb)" height="103.5313" id="org.eclipse.epf.uma.WorkDefinition" style="stroke: #A80036; stroke-width: 1.5;" width="193" x="875" y="27.5"/><ellipse cx="920.25" cy="47.5938" fill="#B4A7E5" rx="11" ry="11" style="stroke: #A80036; stroke-width: 1.0;"/><path d="M921.2031,44.2344 L921.2031,50.8906 L922.9219,50.8906 Q923.5313,50.8906 923.7969,51.125 Q924.0625,51.3594 924.0625,51.75 Q924.0625,52.125 923.7969,52.3594 Q923.5313,52.5938 922.9219,52.5938 L917.7813,52.5938 Q917.1719,52.5938 916.9063,52.3594 Q916.6406,52.125 916.6406,51.7344 Q916.6406,51.3594 916.9063,51.125 Q917.1719,50.8906 917.7813,50.8906 L919.5,50.8906 L919.5,44.2344 L917.7813,44.2344 Q917.1719,44.2344 916.9063,44 Q916.6406,43.7656 916.6406,43.375 Q916.6406,43 916.9063,42.7656 Q917.1719,42.5313 917.7813,42.5313 L922.9219,42.5313 Q923.5313,42.5313 923.7969,42.7656 Q924.0625,43 924.0625,43.375 Q924.0625,43.7656 923.7969,44 Q923.5313,44.2344 922.9219,44.2344 L921.2031,44.2344 Z "/><text fill="#000000" font-family="sans-serif" font-size="14" font-style="italic" lengthAdjust="spacingAndGlyphs" textLength="94" x="940.75" y="47.0332">WorkDefinition</text><text fill="#000000" font-family="sans-serif" font-size="10" font-style="italic" lengthAdjust="spacingAndGlyphs" textLength="92" x="941.75" y="60.4902">org.eclipse.epf.uma</text><line style="stroke: #A80036; stroke-width: 1.5;" x1="876" x2="1067" y1="67.6875" y2="67.6875"/><ellipse cx="886" cy="78.6875" fill="#84BE84" rx="3" ry="3" style="stroke: #038048; stroke-width: 1.0;"/><text fill="#000000" font-family="sans-serif" font-size="11" font-style="italic" lengthAdjust="spacingAndGlyphs" textLength="142" x="895" y="83.1064">getPrecondition(): Constraint</text><ellipse cx="886" cy="92.5234" fill="#84BE84" rx="3" ry="3" style="stroke: #038048; stroke-width: 1.0;"/><text fill="#000000" font-family="sans-serif" font-size="11" font-style="italic" lengthAdjust="spacingAndGlyphs" textLength="162" x="895" y="96.9424">setPrecondition(Constraint): void</text><ellipse cx="886" cy="106.3594" fill="#84BE84" rx="3" ry="3" style="stroke: #038048; stroke-width: 1.0;"/><text fill="#000000" font-family="sans-serif" font-size="11" font-style="italic" lengthAdjust="spacingAndGlyphs" textLength="147" x="895" y="110.7783">getPostcondition(): Constraint</text><ellipse cx="886" cy="120.1953" fill="#84BE84" rx="3" ry="3" style="stroke: #038048; stroke-width: 1.0;"/><text fill="#000000" font-family="sans-serif" font-size="11" font-style="italic" lengthAdjust="spacingAndGlyphs" textLength="167" x="895" y="124.6143">setPostcondition(Constraint): void</text></a><!--MD5=[ef808fe11cb9f7a61be5d84ad4b27309]
reverse link org.eclipse.epf.uma.WorkBreakdownElement to org.eclipse.epf.uma.Activity--><path codeLine="35" d="M270.88,152.32 C331.09,177.83 382.91,196.62 427.65,211.93 " fill="none" id="org.eclipse.epf.uma.WorkBreakdownElement-backto-org.eclipse.epf.uma.Activity" style="stroke: #A80036; stroke-width: 1.0;"/><polygon fill="none" points="267.99,158.69,252.37,144.38,273.51,145.83,267.99,158.69" style="stroke: #A80036; stroke-width: 1.0;"/><!--MD5=[0c281ac911159cf26328f786424d5c61]
reverse link org.eclipse.epf.uma.FulfillableElement to org.eclipse.epf.uma.Activity--><path codeLine="36" d="M435.16,125.96 C458.61,152.85 487.95,186.47 510.03,211.78 " fill="none" id="org.eclipse.epf.uma.FulfillableElement-backto-org.eclipse.epf.uma.Activity" style="stroke: #A80036; stroke-width: 1.0;"/><polygon fill="none" points="429.65,130.3,421.78,110.62,440.2,121.09,429.65,130.3" style="stroke: #A80036; stroke-width: 1.0;"/><!--MD5=[57485a62080f3bc2e04108c563601f55]
reverse link org.eclipse.epf.uma.VariabilityElement to org.eclipse.epf.uma.Activity--><path codeLine="37" d="M631.64,146.82 C612.37,168.92 591.59,192.73 574.95,211.81 " fill="none" id="org.eclipse.epf.uma.VariabilityElement-backto-org.eclipse.epf.uma.Activity" style="stroke: #A80036; stroke-width: 1.0;"/><polygon fill="none" points="626.57,141.98,645,131.51,637.12,151.19,626.57,141.98" style="stroke: #A80036; stroke-width: 1.0;"/><!--MD5=[5b5ed031458876077f8d50edf62a2268]
reverse link org.eclipse.epf.uma.WorkDefinition to org.eclipse.epf.uma.Activity--><path codeLine="38" d="M878.4,141.57 C871.44,145.3 864.43,148.83 857.5,152 C803.13,176.9 740.66,197.63 685.77,213.45 " fill="none" id="org.eclipse.epf.uma.WorkDefinition-backto-org.eclipse.epf.uma.Activity" style="stroke: #A80036; stroke-width: 1.0;"/><polygon fill="none" points="875.21,135.33,896.08,131.61,882.09,147.53,875.21,135.33" style="stroke: #A80036; stroke-width: 1.0;"/><text fill="#888888" font-family="sans-serif" font-size="10" lengthAdjust="spacingAndGlyphs" textLength="190" x="439.5" y="311.2402">UMLDoclet 2.0.12, PlantUML 1.2020.16</text><!--MD5=[cbef625ca5d6827dca1b4ae81d27abe7]
@startuml
    set namespaceSeparator none
    hide empty fields
    hide empty methods

    interface "<size:14>Activity\n<size:10>org.eclipse.epf.uma" as org.eclipse.epf.uma.Activity [[Activity.html]] {
        {abstract} +getBreakdownElements(): EList<BreakdownElement>
        {abstract} +getRoadmaps(): EList<Roadmap>
    }

    interface "<size:14>WorkBreakdownElement\n<size:10>org.eclipse.epf.uma" as org.eclipse.epf.uma.WorkBreakdownElement [[WorkBreakdownElement.html]] {
        {abstract} +getIsRepeatable(): Boolean
        {abstract} +setIsRepeatable(Boolean): void
        {abstract} +getIsOngoing(): Boolean
        {abstract} +setIsOngoing(Boolean): void
        {abstract} +getIsEventDriven(): Boolean
        {abstract} +setIsEventDriven(Boolean): void
        {abstract} +getLinkToPredecessor(): EList<WorkOrder>
    }
    interface "<size:14>FulfillableElement\n<size:10>org.eclipse.epf.uma" as org.eclipse.epf.uma.FulfillableElement [[FulfillableElement.html]] {
        {abstract} +getFulfills(): EList<FulfillableElement>
    }
    interface "<size:14>VariabilityElement\n<size:10>org.eclipse.epf.uma" as org.eclipse.epf.uma.VariabilityElement [[VariabilityElement.html]] {
        {abstract} +getVariabilityType(): VariabilityType
        {abstract} +setVariabilityType(VariabilityType): void
        {abstract} +getVariabilityBasedOnElement(): VariabilityElement
        {abstract} +setVariabilityBasedOnElement(VariabilityElement): void
    }
    interface "<size:14>WorkDefinition\n<size:10>org.eclipse.epf.uma" as org.eclipse.epf.uma.WorkDefinition [[WorkDefinition.html]] {
        {abstract} +getPrecondition(): Constraint
        {abstract} +setPrecondition(Constraint): void
        {abstract} +getPostcondition(): Constraint
        {abstract} +setPostcondition(Constraint): void
    }

    org.eclipse.epf.uma.WorkBreakdownElement <|- - org.eclipse.epf.uma.Activity
    org.eclipse.epf.uma.FulfillableElement <|- - org.eclipse.epf.uma.Activity
    org.eclipse.epf.uma.VariabilityElement <|- - org.eclipse.epf.uma.Activity
    org.eclipse.epf.uma.WorkDefinition <|- - org.eclipse.epf.uma.Activity

    center footer UMLDoclet 2.0.12, PlantUML 1.2020.16
@enduml

PlantUML version 1.2020.16(Sun Aug 23 22:20:43 CEST 2020)
(APACHE source distribution)
Java Runtime: Java(TM) SE Runtime Environment
JVM: Java HotSpot(TM) 64-Bit Server VM
Default Encoding: Cp1252
Language: es
Country: ES
--></g></svg>