<?xml version="1.0" encoding="UTF-8" standalone="no"?><svg xmlns="http://www.w3.org/2000/svg" xmlns:xlink="http://www.w3.org/1999/xlink" contentScriptType="application/ecmascript" contentStyleType="text/css" height="311px" preserveAspectRatio="none" style="width:251px;height:311px;" version="1.1" viewBox="0 0 251 311" width="251px" zoomAndPan="magnify"><defs><filter height="300%" id="f1g233ah1bxmr" width="300%" x="-1" y="-1"><feGaussianBlur result="blurOut" stdDeviation="2.0"/><feColorMatrix in="blurOut" result="blurOut2" type="matrix" values="0 0 0 0 0 0 0 0 0 0 0 0 0 0 0 0 0 0 .4 0"/><feOffset dx="4.0" dy="4.0" in="blurOut2" result="blurOut3"/><feBlend in="SourceGraphic" in2="blurOut3" mode="normal"/></filter></defs><g><!--MD5=[9affc0b34ba543bb86815626ec1d49a7]
class org.eclipse.epf.uma.ActivityDescription--><a href="ActivityDescription.html" target="_top" title="ActivityDescription.html" xlink:actuate="onRequest" xlink:href="ActivityDescription.html" xlink:show="new" xlink:title="ActivityDescription.html" xlink:type="simple"><rect codeLine="5" fill="#FEFECE" filter="url(#f1g233ah1bxmr)" height="131.2031" id="org.eclipse.epf.uma.ActivityDescription" style="stroke: #A80036; stroke-width: 1.5;" width="162" x="38.5" y="143"/><ellipse cx="60.7" cy="163.0938" fill="#B4A7E5" rx="11" ry="11" style="stroke: #A80036; stroke-width: 1.0;"/><path d="M61.6531,159.7344 L61.6531,166.3906 L63.3719,166.3906 Q63.9813,166.3906 64.2469,166.625 Q64.5125,166.8594 64.5125,167.25 Q64.5125,167.625 64.2469,167.8594 Q63.9813,168.0938 63.3719,168.0938 L58.2313,168.0938 Q57.6219,168.0938 57.3563,167.8594 Q57.0906,167.625 57.0906,167.2344 Q57.0906,166.8594 57.3563,166.625 Q57.6219,166.3906 58.2313,166.3906 L59.95,166.3906 L59.95,159.7344 L58.2313,159.7344 Q57.6219,159.7344 57.3563,159.5 Q57.0906,159.2656 57.0906,158.875 Q57.0906,158.5 57.3563,158.2656 Q57.6219,158.0313 58.2313,158.0313 L63.3719,158.0313 Q63.9813,158.0313 64.2469,158.2656 Q64.5125,158.5 64.5125,158.875 Q64.5125,159.2656 64.2469,159.5 Q63.9813,159.7344 63.3719,159.7344 L61.6531,159.7344 Z "/><text fill="#000000" font-family="sans-serif" font-size="14" font-style="italic" lengthAdjust="spacingAndGlyphs" textLength="114" x="76.3" y="162.5332">ActivityDescription</text><text fill="#000000" font-family="sans-serif" font-size="10" font-style="italic" lengthAdjust="spacingAndGlyphs" textLength="92" x="87.3" y="175.9902">org.eclipse.epf.uma</text><line style="stroke: #A80036; stroke-width: 1.5;" x1="39.5" x2="199.5" y1="183.1875" y2="183.1875"/><ellipse cx="49.5" cy="194.1875" fill="#84BE84" rx="3" ry="3" style="stroke: #038048; stroke-width: 1.0;"/><text fill="#000000" font-family="sans-serif" font-size="11" font-style="italic" lengthAdjust="spacingAndGlyphs" textLength="99" x="58.5" y="198.6064">getPurpose(): String</text><ellipse cx="49.5" cy="208.0234" fill="#84BE84" rx="3" ry="3" style="stroke: #038048; stroke-width: 1.0;"/><text fill="#000000" font-family="sans-serif" font-size="11" font-style="italic" lengthAdjust="spacingAndGlyphs" textLength="119" x="58.5" y="212.4424">setPurpose(String): void</text><ellipse cx="49.5" cy="221.8594" fill="#84BE84" rx="3" ry="3" style="stroke: #038048; stroke-width: 1.0;"/><text fill="#000000" font-family="sans-serif" font-size="11" font-style="italic" lengthAdjust="spacingAndGlyphs" textLength="116" x="58.5" y="226.2783">getAlternatives(): String</text><ellipse cx="49.5" cy="235.6953" fill="#84BE84" rx="3" ry="3" style="stroke: #038048; stroke-width: 1.0;"/><text fill="#000000" font-family="sans-serif" font-size="11" font-style="italic" lengthAdjust="spacingAndGlyphs" textLength="136" x="58.5" y="240.1143">setAlternatives(String): void</text><ellipse cx="49.5" cy="249.5313" fill="#84BE84" rx="3" ry="3" style="stroke: #038048; stroke-width: 1.0;"/><text fill="#000000" font-family="sans-serif" font-size="11" font-style="italic" lengthAdjust="spacingAndGlyphs" textLength="110" x="58.5" y="253.9502">getHowtoStaff(): String</text><ellipse cx="49.5" cy="263.3672" fill="#84BE84" rx="3" ry="3" style="stroke: #038048; stroke-width: 1.0;"/><text fill="#000000" font-family="sans-serif" font-size="11" font-style="italic" lengthAdjust="spacingAndGlyphs" textLength="130" x="58.5" y="267.7861">setHowtoStaff(String): void</text></a><!--MD5=[285368ac1d1cfe80c61d30f219b77019]
class org.eclipse.epf.uma.BreakdownElementDescription--><a href="BreakdownElementDescription.html" target="_top" title="BreakdownElementDescription.html" xlink:actuate="onRequest" xlink:href="BreakdownElementDescription.html" xlink:show="new" xlink:title="BreakdownElementDescription.html" xlink:type="simple"><rect codeLine="14" fill="#FEFECE" filter="url(#f1g233ah1bxmr)" height="75.8594" id="org.eclipse.epf.uma.BreakdownElementDescription" style="stroke: #A80036; stroke-width: 1.5;" width="225" x="7" y="7"/><ellipse cx="22" cy="27.0938" fill="#B4A7E5" rx="11" ry="11" style="stroke: #A80036; stroke-width: 1.0;"/><path d="M22.9531,23.7344 L22.9531,30.3906 L24.6719,30.3906 Q25.2813,30.3906 25.5469,30.625 Q25.8125,30.8594 25.8125,31.25 Q25.8125,31.625 25.5469,31.8594 Q25.2813,32.0938 24.6719,32.0938 L19.5313,32.0938 Q18.9219,32.0938 18.6563,31.8594 Q18.3906,31.625 18.3906,31.2344 Q18.3906,30.8594 18.6563,30.625 Q18.9219,30.3906 19.5313,30.3906 L21.25,30.3906 L21.25,23.7344 L19.5313,23.7344 Q18.9219,23.7344 18.6563,23.5 Q18.3906,23.2656 18.3906,22.875 Q18.3906,22.5 18.6563,22.2656 Q18.9219,22.0313 19.5313,22.0313 L24.6719,22.0313 Q25.2813,22.0313 25.5469,22.2656 Q25.8125,22.5 25.8125,22.875 Q25.8125,23.2656 25.5469,23.5 Q25.2813,23.7344 24.6719,23.7344 L22.9531,23.7344 Z "/><text fill="#000000" font-family="sans-serif" font-size="14" font-style="italic" lengthAdjust="spacingAndGlyphs" textLength="193" x="36" y="26.5332">BreakdownElementDescription</text><text fill="#000000" font-family="sans-serif" font-size="10" font-style="italic" lengthAdjust="spacingAndGlyphs" textLength="92" x="86.5" y="39.9902">org.eclipse.epf.uma</text><line style="stroke: #A80036; stroke-width: 1.5;" x1="8" x2="231" y1="47.1875" y2="47.1875"/><ellipse cx="18" cy="58.1875" fill="#84BE84" rx="3" ry="3" style="stroke: #038048; stroke-width: 1.0;"/><text fill="#000000" font-family="sans-serif" font-size="11" font-style="italic" lengthAdjust="spacingAndGlyphs" textLength="137" x="27" y="62.6064">getUsageGuidance(): String</text><ellipse cx="18" cy="72.0234" fill="#84BE84" rx="3" ry="3" style="stroke: #038048; stroke-width: 1.0;"/><text fill="#000000" font-family="sans-serif" font-size="11" font-style="italic" lengthAdjust="spacingAndGlyphs" textLength="157" x="27" y="76.4424">setUsageGuidance(String): void</text></a><!--MD5=[75a7a60b52630e8238c1a8e60bb768fc]
reverse link org.eclipse.epf.uma.BreakdownElementDescription to org.eclipse.epf.uma.ActivityDescription--><path codeLine="19" d="M119.5,103.43 C119.5,116.16 119.5,129.74 119.5,142.74 " fill="none" id="org.eclipse.epf.uma.BreakdownElementDescription-backto-org.eclipse.epf.uma.ActivityDescription" style="stroke: #A80036; stroke-width: 1.0;"/><polygon fill="none" points="112.5,103.05,119.5,83.05,126.5,103.05,112.5,103.05" style="stroke: #A80036; stroke-width: 1.0;"/><text fill="#888888" font-family="sans-serif" font-size="10" lengthAdjust="spacingAndGlyphs" textLength="190" x="21.5" y="297.584">UMLDoclet 2.0.12, PlantUML 1.2020.16</text><!--MD5=[71e93dd00e3ccfcf5444f95aa008f425]
@startuml
    set namespaceSeparator none
    hide empty fields
    hide empty methods

    interface "<size:14>ActivityDescription\n<size:10>org.eclipse.epf.uma" as org.eclipse.epf.uma.ActivityDescription [[ActivityDescription.html]] {
        {abstract} +getPurpose(): String
        {abstract} +setPurpose(String): void
        {abstract} +getAlternatives(): String
        {abstract} +setAlternatives(String): void
        {abstract} +getHowtoStaff(): String
        {abstract} +setHowtoStaff(String): void
    }

    interface "<size:14>BreakdownElementDescription\n<size:10>org.eclipse.epf.uma" as org.eclipse.epf.uma.BreakdownElementDescription [[BreakdownElementDescription.html]] {
        {abstract} +getUsageGuidance(): String
        {abstract} +setUsageGuidance(String): void
    }

    org.eclipse.epf.uma.BreakdownElementDescription <|- - org.eclipse.epf.uma.ActivityDescription

    center footer UMLDoclet 2.0.12, PlantUML 1.2020.16
@enduml

PlantUML version 1.2020.16(Sun Aug 23 22:20:43 CEST 2020)
(APACHE source distribution)
Java Runtime: Java(TM) SE Runtime Environment
JVM: Java HotSpot(TM) 64-Bit Server VM
Default Encoding: Cp1252
Language: es
Country: ES
--></g></svg>