<?xml version="1.0" encoding="UTF-8" standalone="no"?><svg xmlns="http://www.w3.org/2000/svg" xmlns:xlink="http://www.w3.org/1999/xlink" contentScriptType="application/ecmascript" contentStyleType="text/css" height="255px" preserveAspectRatio="none" style="width:237px;height:255px;" version="1.1" viewBox="0 0 237 255" width="237px" zoomAndPan="magnify"><defs><filter height="300%" id="fnibd8zh3xz4l" width="300%" x="-1" y="-1"><feGaussianBlur result="blurOut" stdDeviation="2.0"/><feColorMatrix in="blurOut" result="blurOut2" type="matrix" values="0 0 0 0 0 0 0 0 0 0 0 0 0 0 0 0 0 0 .4 0"/><feOffset dx="4.0" dy="4.0" in="blurOut2" result="blurOut3"/><feBlend in="SourceGraphic" in2="blurOut3" mode="normal"/></filter></defs><g><!--MD5=[74c80ce5f48b614f09f48b1b3b89aca0]
class org.eclipse.epf.uma.ApplicableMetaClassInfo--><a href="ApplicableMetaClassInfo.html" target="_top" title="ApplicableMetaClassInfo.html" xlink:actuate="onRequest" xlink:href="ApplicableMetaClassInfo.html" xlink:show="new" xlink:title="ApplicableMetaClassInfo.html" xlink:type="simple"><rect codeLine="5" fill="#FEFECE" filter="url(#fnibd8zh3xz4l)" height="75.8594" id="org.eclipse.epf.uma.ApplicableMetaClassInfo" style="stroke: #A80036; stroke-width: 1.5;" width="211" x="7" y="143"/><ellipse cx="32.35" cy="163.0938" fill="#B4A7E5" rx="11" ry="11" style="stroke: #A80036; stroke-width: 1.0;"/><path d="M33.3031,159.7344 L33.3031,166.3906 L35.0219,166.3906 Q35.6313,166.3906 35.8969,166.625 Q36.1625,166.8594 36.1625,167.25 Q36.1625,167.625 35.8969,167.8594 Q35.6313,168.0938 35.0219,168.0938 L29.8813,168.0938 Q29.2719,168.0938 29.0063,167.8594 Q28.7406,167.625 28.7406,167.2344 Q28.7406,166.8594 29.0063,166.625 Q29.2719,166.3906 29.8813,166.3906 L31.6,166.3906 L31.6,159.7344 L29.8813,159.7344 Q29.2719,159.7344 29.0063,159.5 Q28.7406,159.2656 28.7406,158.875 Q28.7406,158.5 29.0063,158.2656 Q29.2719,158.0313 29.8813,158.0313 L35.0219,158.0313 Q35.6313,158.0313 35.8969,158.2656 Q36.1625,158.5 36.1625,158.875 Q36.1625,159.2656 35.8969,159.5 Q35.6313,159.7344 35.0219,159.7344 L33.3031,159.7344 Z "/><text fill="#000000" font-family="sans-serif" font-size="14" font-style="italic" lengthAdjust="spacingAndGlyphs" textLength="156" x="48.65" y="162.5332">ApplicableMetaClassInfo</text><text fill="#000000" font-family="sans-serif" font-size="10" font-style="italic" lengthAdjust="spacingAndGlyphs" textLength="92" x="80.65" y="175.9902">org.eclipse.epf.uma</text><line style="stroke: #A80036; stroke-width: 1.5;" x1="8" x2="217" y1="183.1875" y2="183.1875"/><ellipse cx="18" cy="194.1875" fill="#84BE84" rx="3" ry="3" style="stroke: #038048; stroke-width: 1.0;"/><text fill="#000000" font-family="sans-serif" font-size="11" font-style="italic" lengthAdjust="spacingAndGlyphs" textLength="165" x="27" y="198.6064">getIsPrimaryExtension(): Boolean</text><ellipse cx="18" cy="208.0234" fill="#84BE84" rx="3" ry="3" style="stroke: #038048; stroke-width: 1.0;"/><text fill="#000000" font-family="sans-serif" font-size="11" font-style="italic" lengthAdjust="spacingAndGlyphs" textLength="185" x="27" y="212.4424">setIsPrimaryExtension(Boolean): void</text></a><!--MD5=[daffcb1b94bbd9cd136b4d328d98422d]
class org.eclipse.epf.uma.Classifier--><a href="Classifier.html" target="_top" title="Classifier.html" xlink:actuate="onRequest" xlink:href="Classifier.html" xlink:show="new" xlink:title="Classifier.html" xlink:type="simple"><rect codeLine="10" fill="#FEFECE" filter="url(#fnibd8zh3xz4l)" height="75.8594" id="org.eclipse.epf.uma.Classifier" style="stroke: #A80036; stroke-width: 1.5;" width="166" x="29.5" y="7"/><ellipse cx="63.4" cy="27.0938" fill="#B4A7E5" rx="11" ry="11" style="stroke: #A80036; stroke-width: 1.0;"/><path d="M64.3531,23.7344 L64.3531,30.3906 L66.0719,30.3906 Q66.6813,30.3906 66.9469,30.625 Q67.2125,30.8594 67.2125,31.25 Q67.2125,31.625 66.9469,31.8594 Q66.6813,32.0938 66.0719,32.0938 L60.9313,32.0938 Q60.3219,32.0938 60.0563,31.8594 Q59.7906,31.625 59.7906,31.2344 Q59.7906,30.8594 60.0563,30.625 Q60.3219,30.3906 60.9313,30.3906 L62.65,30.3906 L62.65,23.7344 L60.9313,23.7344 Q60.3219,23.7344 60.0563,23.5 Q59.7906,23.2656 59.7906,22.875 Q59.7906,22.5 60.0563,22.2656 Q60.3219,22.0313 60.9313,22.0313 L66.0719,22.0313 Q66.6813,22.0313 66.9469,22.2656 Q67.2125,22.5 67.2125,22.875 Q67.2125,23.2656 66.9469,23.5 Q66.6813,23.7344 66.0719,23.7344 L64.3531,23.7344 Z "/><text fill="#000000" font-family="sans-serif" font-size="14" font-style="italic" lengthAdjust="spacingAndGlyphs" textLength="58" x="98.6" y="26.5332">Classifier</text><text fill="#000000" font-family="sans-serif" font-size="10" font-style="italic" lengthAdjust="spacingAndGlyphs" textLength="92" x="81.6" y="39.9902">org.eclipse.epf.uma</text><line style="stroke: #A80036; stroke-width: 1.5;" x1="30.5" x2="194.5" y1="47.1875" y2="47.1875"/><ellipse cx="40.5" cy="58.1875" fill="#84BE84" rx="3" ry="3" style="stroke: #038048; stroke-width: 1.0;"/><text fill="#000000" font-family="sans-serif" font-size="11" font-style="italic" lengthAdjust="spacingAndGlyphs" textLength="120" x="49.5" y="62.6064">getIsAbstract(): Boolean</text><ellipse cx="40.5" cy="72.0234" fill="#84BE84" rx="3" ry="3" style="stroke: #038048; stroke-width: 1.0;"/><text fill="#000000" font-family="sans-serif" font-size="11" font-style="italic" lengthAdjust="spacingAndGlyphs" textLength="140" x="49.5" y="76.4424">setIsAbstract(Boolean): void</text></a><!--MD5=[3579216b84484c2e8198e2fa807c26c9]
reverse link org.eclipse.epf.uma.Classifier to org.eclipse.epf.uma.ApplicableMetaClassInfo--><path codeLine="15" d="M112.5,103.54 C112.5,116.86 112.5,130.69 112.5,142.87 " fill="none" id="org.eclipse.epf.uma.Classifier-backto-org.eclipse.epf.uma.ApplicableMetaClassInfo" style="stroke: #A80036; stroke-width: 1.0;"/><polygon fill="none" points="105.5,103.33,112.5,83.33,119.5,103.33,105.5,103.33" style="stroke: #A80036; stroke-width: 1.0;"/><text fill="#888888" font-family="sans-serif" font-size="10" lengthAdjust="spacingAndGlyphs" textLength="190" x="14.5" y="242.2402">UMLDoclet 2.0.12, PlantUML 1.2020.16</text><!--MD5=[103315ad70d7ecf8ce2263552e620c4a]
@startuml
    set namespaceSeparator none
    hide empty fields
    hide empty methods

    interface "<size:14>ApplicableMetaClassInfo\n<size:10>org.eclipse.epf.uma" as org.eclipse.epf.uma.ApplicableMetaClassInfo [[ApplicableMetaClassInfo.html]] {
        {abstract} +getIsPrimaryExtension(): Boolean
        {abstract} +setIsPrimaryExtension(Boolean): void
    }

    interface "<size:14>Classifier\n<size:10>org.eclipse.epf.uma" as org.eclipse.epf.uma.Classifier [[Classifier.html]] {
        {abstract} +getIsAbstract(): Boolean
        {abstract} +setIsAbstract(Boolean): void
    }

    org.eclipse.epf.uma.Classifier <|- - org.eclipse.epf.uma.ApplicableMetaClassInfo

    center footer UMLDoclet 2.0.12, PlantUML 1.2020.16
@enduml

PlantUML version 1.2020.16(Sun Aug 23 22:20:43 CEST 2020)
(APACHE source distribution)
Java Runtime: Java(TM) SE Runtime Environment
JVM: Java HotSpot(TM) 64-Bit Server VM
Default Encoding: Cp1252
Language: es
Country: ES
--></g></svg>