<?xml version="1.0" encoding="UTF-8" standalone="no"?><svg xmlns="http://www.w3.org/2000/svg" xmlns:xlink="http://www.w3.org/1999/xlink" contentScriptType="application/ecmascript" contentStyleType="text/css" height="393px" preserveAspectRatio="none" style="width:249px;height:393px;" version="1.1" viewBox="0 0 249 393" width="249px" zoomAndPan="magnify"><defs><filter height="300%" id="fs1so39ap4buf" width="300%" x="-1" y="-1"><feGaussianBlur result="blurOut" stdDeviation="2.0"/><feColorMatrix in="blurOut" result="blurOut2" type="matrix" values="0 0 0 0 0 0 0 0 0 0 0 0 0 0 0 0 0 0 .4 0"/><feOffset dx="4.0" dy="4.0" in="blurOut2" result="blurOut3"/><feBlend in="SourceGraphic" in2="blurOut3" mode="normal"/></filter></defs><g><!--MD5=[50fb7feed266f0bca88fff6cfab68dfb]
class org.eclipse.epf.uma.ArtifactDescription--><a href="ArtifactDescription.html" target="_top" title="ArtifactDescription.html" xlink:actuate="onRequest" xlink:href="ArtifactDescription.html" xlink:show="new" xlink:title="ArtifactDescription.html" xlink:type="simple"><rect codeLine="5" fill="#FEFECE" filter="url(#fs1so39ap4buf)" height="158.875" id="org.eclipse.epf.uma.ArtifactDescription" style="stroke: #A80036; stroke-width: 1.5;" width="218" x="9.5" y="198"/><ellipse cx="56.75" cy="218.0938" fill="#B4A7E5" rx="11" ry="11" style="stroke: #A80036; stroke-width: 1.0;"/><path d="M57.7031,214.7344 L57.7031,221.3906 L59.4219,221.3906 Q60.0313,221.3906 60.2969,221.625 Q60.5625,221.8594 60.5625,222.25 Q60.5625,222.625 60.2969,222.8594 Q60.0313,223.0938 59.4219,223.0938 L54.2813,223.0938 Q53.6719,223.0938 53.4063,222.8594 Q53.1406,222.625 53.1406,222.2344 Q53.1406,221.8594 53.4063,221.625 Q53.6719,221.3906 54.2813,221.3906 L56,221.3906 L56,214.7344 L54.2813,214.7344 Q53.6719,214.7344 53.4063,214.5 Q53.1406,214.2656 53.1406,213.875 Q53.1406,213.5 53.4063,213.2656 Q53.6719,213.0313 54.2813,213.0313 L59.4219,213.0313 Q60.0313,213.0313 60.2969,213.2656 Q60.5625,213.5 60.5625,213.875 Q60.5625,214.2656 60.2969,214.5 Q60.0313,214.7344 59.4219,214.7344 L57.7031,214.7344 Z "/><text fill="#000000" font-family="sans-serif" font-size="14" font-style="italic" lengthAdjust="spacingAndGlyphs" textLength="115" x="77.25" y="217.5332">ArtifactDescription</text><text fill="#000000" font-family="sans-serif" font-size="10" font-style="italic" lengthAdjust="spacingAndGlyphs" textLength="92" x="88.75" y="230.9902">org.eclipse.epf.uma</text><line style="stroke: #A80036; stroke-width: 1.5;" x1="10.5" x2="226.5" y1="238.1875" y2="238.1875"/><ellipse cx="20.5" cy="249.1875" fill="#84BE84" rx="3" ry="3" style="stroke: #038048; stroke-width: 1.0;"/><text fill="#000000" font-family="sans-serif" font-size="11" font-style="italic" lengthAdjust="spacingAndGlyphs" textLength="117" x="29.5" y="253.6064">getBriefOutline(): String</text><ellipse cx="20.5" cy="263.0234" fill="#84BE84" rx="3" ry="3" style="stroke: #038048; stroke-width: 1.0;"/><text fill="#000000" font-family="sans-serif" font-size="11" font-style="italic" lengthAdjust="spacingAndGlyphs" textLength="137" x="29.5" y="267.4424">setBriefOutline(String): void</text><ellipse cx="20.5" cy="276.8594" fill="#84BE84" rx="3" ry="3" style="stroke: #038048; stroke-width: 1.0;"/><text fill="#000000" font-family="sans-serif" font-size="11" font-style="italic" lengthAdjust="spacingAndGlyphs" textLength="172" x="29.5" y="281.2783">getRepresentationOptions(): String</text><ellipse cx="20.5" cy="290.6953" fill="#84BE84" rx="3" ry="3" style="stroke: #038048; stroke-width: 1.0;"/><text fill="#000000" font-family="sans-serif" font-size="11" font-style="italic" lengthAdjust="spacingAndGlyphs" textLength="192" x="29.5" y="295.1143">setRepresentationOptions(String): void</text><ellipse cx="20.5" cy="304.5313" fill="#84BE84" rx="3" ry="3" style="stroke: #038048; stroke-width: 1.0;"/><text fill="#000000" font-family="sans-serif" font-size="11" font-style="italic" lengthAdjust="spacingAndGlyphs" textLength="133" x="29.5" y="308.9502">getRepresentation(): String</text><ellipse cx="20.5" cy="318.3672" fill="#84BE84" rx="3" ry="3" style="stroke: #038048; stroke-width: 1.0;"/><text fill="#000000" font-family="sans-serif" font-size="11" font-style="italic" lengthAdjust="spacingAndGlyphs" textLength="153" x="29.5" y="322.7861">setRepresentation(String): void</text><ellipse cx="20.5" cy="332.2031" fill="#84BE84" rx="3" ry="3" style="stroke: #038048; stroke-width: 1.0;"/><text fill="#000000" font-family="sans-serif" font-size="11" font-style="italic" lengthAdjust="spacingAndGlyphs" textLength="99" x="29.5" y="336.6221">getNotation(): String</text><ellipse cx="20.5" cy="346.0391" fill="#84BE84" rx="3" ry="3" style="stroke: #038048; stroke-width: 1.0;"/><text fill="#000000" font-family="sans-serif" font-size="11" font-style="italic" lengthAdjust="spacingAndGlyphs" textLength="119" x="29.5" y="350.458">setNotation(String): void</text></a><!--MD5=[35ce8d4e8138c1db7930018eea7bfc8d]
class org.eclipse.epf.uma.WorkProductDescription--><a href="WorkProductDescription.html" target="_top" title="WorkProductDescription.html" xlink:actuate="onRequest" xlink:href="WorkProductDescription.html" xlink:show="new" xlink:title="WorkProductDescription.html" xlink:type="simple"><rect codeLine="16" fill="#FEFECE" filter="url(#fs1so39ap4buf)" height="131.2031" id="org.eclipse.epf.uma.WorkProductDescription" style="stroke: #A80036; stroke-width: 1.5;" width="223" x="7" y="7"/><ellipse cx="38.2" cy="27.0938" fill="#B4A7E5" rx="11" ry="11" style="stroke: #A80036; stroke-width: 1.0;"/><path d="M39.1531,23.7344 L39.1531,30.3906 L40.8719,30.3906 Q41.4813,30.3906 41.7469,30.625 Q42.0125,30.8594 42.0125,31.25 Q42.0125,31.625 41.7469,31.8594 Q41.4813,32.0938 40.8719,32.0938 L35.7313,32.0938 Q35.1219,32.0938 34.8563,31.8594 Q34.5906,31.625 34.5906,31.2344 Q34.5906,30.8594 34.8563,30.625 Q35.1219,30.3906 35.7313,30.3906 L37.45,30.3906 L37.45,23.7344 L35.7313,23.7344 Q35.1219,23.7344 34.8563,23.5 Q34.5906,23.2656 34.5906,22.875 Q34.5906,22.5 34.8563,22.2656 Q35.1219,22.0313 35.7313,22.0313 L40.8719,22.0313 Q41.4813,22.0313 41.7469,22.2656 Q42.0125,22.5 42.0125,22.875 Q42.0125,23.2656 41.7469,23.5 Q41.4813,23.7344 40.8719,23.7344 L39.1531,23.7344 Z "/><text fill="#000000" font-family="sans-serif" font-size="14" font-style="italic" lengthAdjust="spacingAndGlyphs" textLength="155" x="55.8" y="26.5332">WorkProductDescription</text><text fill="#000000" font-family="sans-serif" font-size="10" font-style="italic" lengthAdjust="spacingAndGlyphs" textLength="92" x="87.3" y="39.9902">org.eclipse.epf.uma</text><line style="stroke: #A80036; stroke-width: 1.5;" x1="8" x2="229" y1="47.1875" y2="47.1875"/><ellipse cx="18" cy="58.1875" fill="#84BE84" rx="3" ry="3" style="stroke: #038048; stroke-width: 1.0;"/><text fill="#000000" font-family="sans-serif" font-size="11" font-style="italic" lengthAdjust="spacingAndGlyphs" textLength="99" x="27" y="62.6064">getPurpose(): String</text><ellipse cx="18" cy="72.0234" fill="#84BE84" rx="3" ry="3" style="stroke: #038048; stroke-width: 1.0;"/><text fill="#000000" font-family="sans-serif" font-size="11" font-style="italic" lengthAdjust="spacingAndGlyphs" textLength="119" x="27" y="76.4424">setPurpose(String): void</text><ellipse cx="18" cy="85.8594" fill="#84BE84" rx="3" ry="3" style="stroke: #038048; stroke-width: 1.0;"/><text fill="#000000" font-family="sans-serif" font-size="11" font-style="italic" lengthAdjust="spacingAndGlyphs" textLength="154" x="27" y="90.2783">getImpactOfNotHaving(): String</text><ellipse cx="18" cy="99.6953" fill="#84BE84" rx="3" ry="3" style="stroke: #038048; stroke-width: 1.0;"/><text fill="#000000" font-family="sans-serif" font-size="11" font-style="italic" lengthAdjust="spacingAndGlyphs" textLength="174" x="27" y="104.1143">setImpactOfNotHaving(String): void</text><ellipse cx="18" cy="113.5313" fill="#84BE84" rx="3" ry="3" style="stroke: #038048; stroke-width: 1.0;"/><text fill="#000000" font-family="sans-serif" font-size="11" font-style="italic" lengthAdjust="spacingAndGlyphs" textLength="177" x="27" y="117.9502">getReasonsForNotNeeding(): String</text><ellipse cx="18" cy="127.3672" fill="#84BE84" rx="3" ry="3" style="stroke: #038048; stroke-width: 1.0;"/><text fill="#000000" font-family="sans-serif" font-size="11" font-style="italic" lengthAdjust="spacingAndGlyphs" textLength="197" x="27" y="131.7861">setReasonsForNotNeeding(String): void</text></a><!--MD5=[20b847de488f9a89525c2f5891168502]
reverse link org.eclipse.epf.uma.WorkProductDescription to org.eclipse.epf.uma.ArtifactDescription--><path codeLine="25" d="M118.5,158.23 C118.5,171.38 118.5,184.91 118.5,197.92 " fill="none" id="org.eclipse.epf.uma.WorkProductDescription-backto-org.eclipse.epf.uma.ArtifactDescription" style="stroke: #A80036; stroke-width: 1.0;"/><polygon fill="none" points="111.5,158.01,118.5,138.01,125.5,158.01,111.5,158.01" style="stroke: #A80036; stroke-width: 1.0;"/><text fill="#888888" font-family="sans-serif" font-size="10" lengthAdjust="spacingAndGlyphs" textLength="190" x="20.5" y="380.2559">UMLDoclet 2.0.12, PlantUML 1.2020.16</text><!--MD5=[7d36c32bfc4eab4ca84234d2675d411e]
@startuml
    set namespaceSeparator none
    hide empty fields
    hide empty methods

    interface "<size:14>ArtifactDescription\n<size:10>org.eclipse.epf.uma" as org.eclipse.epf.uma.ArtifactDescription [[ArtifactDescription.html]] {
        {abstract} +getBriefOutline(): String
        {abstract} +setBriefOutline(String): void
        {abstract} +getRepresentationOptions(): String
        {abstract} +setRepresentationOptions(String): void
        {abstract} +getRepresentation(): String
        {abstract} +setRepresentation(String): void
        {abstract} +getNotation(): String
        {abstract} +setNotation(String): void
    }

    interface "<size:14>WorkProductDescription\n<size:10>org.eclipse.epf.uma" as org.eclipse.epf.uma.WorkProductDescription [[WorkProductDescription.html]] {
        {abstract} +getPurpose(): String
        {abstract} +setPurpose(String): void
        {abstract} +getImpactOfNotHaving(): String
        {abstract} +setImpactOfNotHaving(String): void
        {abstract} +getReasonsForNotNeeding(): String
        {abstract} +setReasonsForNotNeeding(String): void
    }

    org.eclipse.epf.uma.WorkProductDescription <|- - org.eclipse.epf.uma.ArtifactDescription

    center footer UMLDoclet 2.0.12, PlantUML 1.2020.16
@enduml

PlantUML version 1.2020.16(Sun Aug 23 22:20:43 CEST 2020)
(APACHE source distribution)
Java Runtime: Java(TM) SE Runtime Environment
JVM: Java HotSpot(TM) 64-Bit Server VM
Default Encoding: Cp1252
Language: es
Country: ES
--></g></svg>