<?xml version="1.0" encoding="UTF-8" standalone="no"?><svg xmlns="http://www.w3.org/2000/svg" xmlns:xlink="http://www.w3.org/1999/xlink" contentScriptType="application/ecmascript" contentStyleType="text/css" height="352px" preserveAspectRatio="none" style="width:251px;height:352px;" version="1.1" viewBox="0 0 251 352" width="251px" zoomAndPan="magnify"><defs><filter height="300%" id="foodizh7v32zo" width="300%" x="-1" y="-1"><feGaussianBlur result="blurOut" stdDeviation="2.0"/><feColorMatrix in="blurOut" result="blurOut2" type="matrix" values="0 0 0 0 0 0 0 0 0 0 0 0 0 0 0 0 0 0 .4 0"/><feOffset dx="4.0" dy="4.0" in="blurOut2" result="blurOut3"/><feBlend in="SourceGraphic" in2="blurOut3" mode="normal"/></filter></defs><g><!--MD5=[285368ac1d1cfe80c61d30f219b77019]
class org.eclipse.epf.uma.BreakdownElementDescription--><a href="BreakdownElementDescription.html" target="_top" title="BreakdownElementDescription.html" xlink:actuate="onRequest" xlink:href="BreakdownElementDescription.html" xlink:show="new" xlink:title="BreakdownElementDescription.html" xlink:type="simple"><rect codeLine="5" fill="#FEFECE" filter="url(#foodizh7v32zo)" height="75.8594" id="org.eclipse.epf.uma.BreakdownElementDescription" style="stroke: #A80036; stroke-width: 1.5;" width="225" x="7" y="240"/><ellipse cx="22" cy="260.0938" fill="#B4A7E5" rx="11" ry="11" style="stroke: #A80036; stroke-width: 1.0;"/><path d="M22.9531,256.7344 L22.9531,263.3906 L24.6719,263.3906 Q25.2813,263.3906 25.5469,263.625 Q25.8125,263.8594 25.8125,264.25 Q25.8125,264.625 25.5469,264.8594 Q25.2813,265.0938 24.6719,265.0938 L19.5313,265.0938 Q18.9219,265.0938 18.6563,264.8594 Q18.3906,264.625 18.3906,264.2344 Q18.3906,263.8594 18.6563,263.625 Q18.9219,263.3906 19.5313,263.3906 L21.25,263.3906 L21.25,256.7344 L19.5313,256.7344 Q18.9219,256.7344 18.6563,256.5 Q18.3906,256.2656 18.3906,255.875 Q18.3906,255.5 18.6563,255.2656 Q18.9219,255.0313 19.5313,255.0313 L24.6719,255.0313 Q25.2813,255.0313 25.5469,255.2656 Q25.8125,255.5 25.8125,255.875 Q25.8125,256.2656 25.5469,256.5 Q25.2813,256.7344 24.6719,256.7344 L22.9531,256.7344 Z "/><text fill="#000000" font-family="sans-serif" font-size="14" font-style="italic" lengthAdjust="spacingAndGlyphs" textLength="193" x="36" y="259.5332">BreakdownElementDescription</text><text fill="#000000" font-family="sans-serif" font-size="10" font-style="italic" lengthAdjust="spacingAndGlyphs" textLength="92" x="86.5" y="272.9902">org.eclipse.epf.uma</text><line style="stroke: #A80036; stroke-width: 1.5;" x1="8" x2="231" y1="280.1875" y2="280.1875"/><ellipse cx="18" cy="291.1875" fill="#84BE84" rx="3" ry="3" style="stroke: #038048; stroke-width: 1.0;"/><text fill="#000000" font-family="sans-serif" font-size="11" font-style="italic" lengthAdjust="spacingAndGlyphs" textLength="137" x="27" y="295.6064">getUsageGuidance(): String</text><ellipse cx="18" cy="305.0234" fill="#84BE84" rx="3" ry="3" style="stroke: #038048; stroke-width: 1.0;"/><text fill="#000000" font-family="sans-serif" font-size="11" font-style="italic" lengthAdjust="spacingAndGlyphs" textLength="157" x="27" y="309.4424">setUsageGuidance(String): void</text></a><!--MD5=[ac89fbf343ff51a3f64fb8f81ee032c9]
class org.eclipse.epf.uma.ContentDescription--><a href="ContentDescription.html" target="_top" title="ContentDescription.html" xlink:actuate="onRequest" xlink:href="ContentDescription.html" xlink:show="new" xlink:title="ContentDescription.html" xlink:type="simple"><rect codeLine="10" fill="#FEFECE" filter="url(#foodizh7v32zo)" height="172.7109" id="org.eclipse.epf.uma.ContentDescription" style="stroke: #A80036; stroke-width: 1.5;" width="219" x="10" y="7"/><ellipse cx="54.75" cy="27.0938" fill="#B4A7E5" rx="11" ry="11" style="stroke: #A80036; stroke-width: 1.0;"/><path d="M55.7031,23.7344 L55.7031,30.3906 L57.4219,30.3906 Q58.0313,30.3906 58.2969,30.625 Q58.5625,30.8594 58.5625,31.25 Q58.5625,31.625 58.2969,31.8594 Q58.0313,32.0938 57.4219,32.0938 L52.2813,32.0938 Q51.6719,32.0938 51.4063,31.8594 Q51.1406,31.625 51.1406,31.2344 Q51.1406,30.8594 51.4063,30.625 Q51.6719,30.3906 52.2813,30.3906 L54,30.3906 L54,23.7344 L52.2813,23.7344 Q51.6719,23.7344 51.4063,23.5 Q51.1406,23.2656 51.1406,22.875 Q51.1406,22.5 51.4063,22.2656 Q51.6719,22.0313 52.2813,22.0313 L57.4219,22.0313 Q58.0313,22.0313 58.2969,22.2656 Q58.5625,22.5 58.5625,22.875 Q58.5625,23.2656 58.2969,23.5 Q58.0313,23.7344 57.4219,23.7344 L55.7031,23.7344 Z "/><text fill="#000000" font-family="sans-serif" font-size="14" font-style="italic" lengthAdjust="spacingAndGlyphs" textLength="121" x="75.25" y="26.5332">ContentDescription</text><text fill="#000000" font-family="sans-serif" font-size="10" font-style="italic" lengthAdjust="spacingAndGlyphs" textLength="92" x="89.75" y="39.9902">org.eclipse.epf.uma</text><line style="stroke: #A80036; stroke-width: 1.5;" x1="11" x2="228" y1="47.1875" y2="47.1875"/><ellipse cx="21" cy="58.1875" fill="#84BE84" rx="3" ry="3" style="stroke: #038048; stroke-width: 1.0;"/><text fill="#000000" font-family="sans-serif" font-size="11" font-style="italic" lengthAdjust="spacingAndGlyphs" textLength="139" x="30" y="62.6064">getMainDescription(): String</text><ellipse cx="21" cy="72.0234" fill="#84BE84" rx="3" ry="3" style="stroke: #038048; stroke-width: 1.0;"/><text fill="#000000" font-family="sans-serif" font-size="11" font-style="italic" lengthAdjust="spacingAndGlyphs" textLength="159" x="30" y="76.4424">setMainDescription(String): void</text><ellipse cx="21" cy="85.8594" fill="#84BE84" rx="3" ry="3" style="stroke: #038048; stroke-width: 1.0;"/><text fill="#000000" font-family="sans-serif" font-size="11" font-style="italic" lengthAdjust="spacingAndGlyphs" textLength="146" x="30" y="90.2783">getSections(): EList&lt;Section&gt;</text><ellipse cx="21" cy="99.6953" fill="#84BE84" rx="3" ry="3" style="stroke: #038048; stroke-width: 1.0;"/><text fill="#000000" font-family="sans-serif" font-size="11" font-style="italic" lengthAdjust="spacingAndGlyphs" textLength="108" x="30" y="104.1143">getExternalId(): String</text><ellipse cx="21" cy="113.5313" fill="#84BE84" rx="3" ry="3" style="stroke: #038048; stroke-width: 1.0;"/><text fill="#000000" font-family="sans-serif" font-size="11" font-style="italic" lengthAdjust="spacingAndGlyphs" textLength="128" x="30" y="117.9502">setExternalId(String): void</text><ellipse cx="21" cy="127.3672" fill="#84BE84" rx="3" ry="3" style="stroke: #038048; stroke-width: 1.0;"/><text fill="#000000" font-family="sans-serif" font-size="11" font-style="italic" lengthAdjust="spacingAndGlyphs" textLength="151" x="30" y="131.7861">getKeyConsiderations(): String</text><ellipse cx="21" cy="141.2031" fill="#84BE84" rx="3" ry="3" style="stroke: #038048; stroke-width: 1.0;"/><text fill="#000000" font-family="sans-serif" font-size="11" font-style="italic" lengthAdjust="spacingAndGlyphs" textLength="171" x="30" y="145.6221">setKeyConsiderations(String): void</text><ellipse cx="21" cy="155.0391" fill="#84BE84" rx="3" ry="3" style="stroke: #038048; stroke-width: 1.0;"/><text fill="#000000" font-family="sans-serif" font-size="11" font-style="italic" lengthAdjust="spacingAndGlyphs" textLength="173" x="30" y="159.458">getLongPresentationName(): String</text><ellipse cx="21" cy="168.875" fill="#84BE84" rx="3" ry="3" style="stroke: #038048; stroke-width: 1.0;"/><text fill="#000000" font-family="sans-serif" font-size="11" font-style="italic" lengthAdjust="spacingAndGlyphs" textLength="193" x="30" y="173.2939">setLongPresentationName(String): void</text></a><!--MD5=[4a24be16bb40300216646d48131be740]
reverse link org.eclipse.epf.uma.ContentDescription to org.eclipse.epf.uma.BreakdownElementDescription--><path codeLine="22" d="M119.5,200.23 C119.5,214.32 119.5,227.93 119.5,239.69 " fill="none" id="org.eclipse.epf.uma.ContentDescription-backto-org.eclipse.epf.uma.BreakdownElementDescription" style="stroke: #A80036; stroke-width: 1.0;"/><polygon fill="none" points="112.5,200.14,119.5,180.14,126.5,200.14,112.5,200.14" style="stroke: #A80036; stroke-width: 1.0;"/><text fill="#888888" font-family="sans-serif" font-size="10" lengthAdjust="spacingAndGlyphs" textLength="190" x="21.5" y="339.2402">UMLDoclet 2.0.12, PlantUML 1.2020.16</text><!--MD5=[786e5456e4f5e9975a425242b54a3ece]
@startuml
    set namespaceSeparator none
    hide empty fields
    hide empty methods

    interface "<size:14>BreakdownElementDescription\n<size:10>org.eclipse.epf.uma" as org.eclipse.epf.uma.BreakdownElementDescription [[BreakdownElementDescription.html]] {
        {abstract} +getUsageGuidance(): String
        {abstract} +setUsageGuidance(String): void
    }

    interface "<size:14>ContentDescription\n<size:10>org.eclipse.epf.uma" as org.eclipse.epf.uma.ContentDescription [[ContentDescription.html]] {
        {abstract} +getMainDescription(): String
        {abstract} +setMainDescription(String): void
        {abstract} +getSections(): EList<Section>
        {abstract} +getExternalId(): String
        {abstract} +setExternalId(String): void
        {abstract} +getKeyConsiderations(): String
        {abstract} +setKeyConsiderations(String): void
        {abstract} +getLongPresentationName(): String
        {abstract} +setLongPresentationName(String): void
    }

    org.eclipse.epf.uma.ContentDescription <|- - org.eclipse.epf.uma.BreakdownElementDescription

    center footer UMLDoclet 2.0.12, PlantUML 1.2020.16
@enduml

PlantUML version 1.2020.16(Sun Aug 23 22:20:43 CEST 2020)
(APACHE source distribution)
Java Runtime: Java(TM) SE Runtime Environment
JVM: Java HotSpot(TM) 64-Bit Server VM
Default Encoding: Cp1252
Language: es
Country: ES
--></g></svg>