<?xml version="1.0" encoding="UTF-8" standalone="no"?><svg xmlns="http://www.w3.org/2000/svg" xmlns:xlink="http://www.w3.org/1999/xlink" contentScriptType="application/ecmascript" contentStyleType="text/css" height="551px" preserveAspectRatio="none" style="width:370px;height:551px;" version="1.1" viewBox="0 0 370 551" width="370px" zoomAndPan="magnify"><defs><filter height="300%" id="f1lx8xs4hfxi0o" width="300%" x="-1" y="-1"><feGaussianBlur result="blurOut" stdDeviation="2.0"/><feColorMatrix in="blurOut" result="blurOut2" type="matrix" values="0 0 0 0 0 0 0 0 0 0 0 0 0 0 0 0 0 0 .4 0"/><feOffset dx="4.0" dy="4.0" in="blurOut2" result="blurOut3"/><feBlend in="SourceGraphic" in2="blurOut3" mode="normal"/></filter></defs><g><!--MD5=[8b709b06937b89a4b5aa0469babb9b4e]
class org.eclipse.epf.uma.BreakdownElement--><a href="BreakdownElement.html" target="_top" title="BreakdownElement.html" xlink:actuate="onRequest" xlink:href="BreakdownElement.html" xlink:show="new" xlink:title="BreakdownElement.html" xlink:type="simple"><rect codeLine="5" fill="#FEFECE" filter="url(#f1lx8xs4hfxi0o)" height="407.9219" id="org.eclipse.epf.uma.BreakdownElement" style="stroke: #A80036; stroke-width: 1.5;" width="344" x="7" y="107"/><ellipse cx="113.75" cy="127.0938" fill="#B4A7E5" rx="11" ry="11" style="stroke: #A80036; stroke-width: 1.0;"/><path d="M114.7031,123.7344 L114.7031,130.3906 L116.4219,130.3906 Q117.0313,130.3906 117.2969,130.625 Q117.5625,130.8594 117.5625,131.25 Q117.5625,131.625 117.2969,131.8594 Q117.0313,132.0938 116.4219,132.0938 L111.2813,132.0938 Q110.6719,132.0938 110.4063,131.8594 Q110.1406,131.625 110.1406,131.2344 Q110.1406,130.8594 110.4063,130.625 Q110.6719,130.3906 111.2813,130.3906 L113,130.3906 L113,123.7344 L111.2813,123.7344 Q110.6719,123.7344 110.4063,123.5 Q110.1406,123.2656 110.1406,122.875 Q110.1406,122.5 110.4063,122.2656 Q110.6719,122.0313 111.2813,122.0313 L116.4219,122.0313 Q117.0313,122.0313 117.2969,122.2656 Q117.5625,122.5 117.5625,122.875 Q117.5625,123.2656 117.2969,123.5 Q117.0313,123.7344 116.4219,123.7344 L114.7031,123.7344 Z "/><text fill="#000000" font-family="sans-serif" font-size="14" font-style="italic" lengthAdjust="spacingAndGlyphs" textLength="122" x="134.25" y="126.5332">BreakdownElement</text><text fill="#000000" font-family="sans-serif" font-size="10" font-style="italic" lengthAdjust="spacingAndGlyphs" textLength="92" x="149.25" y="139.9902">org.eclipse.epf.uma</text><line style="stroke: #A80036; stroke-width: 1.5;" x1="8" x2="350" y1="147.1875" y2="147.1875"/><ellipse cx="18" cy="158.1875" fill="#84BE84" rx="3" ry="3" style="stroke: #038048; stroke-width: 1.0;"/><text fill="#000000" font-family="sans-serif" font-size="11" font-style="italic" lengthAdjust="spacingAndGlyphs" textLength="87" x="27" y="162.6064">getPrefix(): String</text><ellipse cx="18" cy="172.0234" fill="#84BE84" rx="3" ry="3" style="stroke: #038048; stroke-width: 1.0;"/><text fill="#000000" font-family="sans-serif" font-size="11" font-style="italic" lengthAdjust="spacingAndGlyphs" textLength="107" x="27" y="176.4424">setPrefix(String): void</text><ellipse cx="18" cy="185.8594" fill="#84BE84" rx="3" ry="3" style="stroke: #038048; stroke-width: 1.0;"/><text fill="#000000" font-family="sans-serif" font-size="11" font-style="italic" lengthAdjust="spacingAndGlyphs" textLength="118" x="27" y="190.2783">getIsPlanned(): Boolean</text><ellipse cx="18" cy="199.6953" fill="#84BE84" rx="3" ry="3" style="stroke: #038048; stroke-width: 1.0;"/><text fill="#000000" font-family="sans-serif" font-size="11" font-style="italic" lengthAdjust="spacingAndGlyphs" textLength="138" x="27" y="204.1143">setIsPlanned(Boolean): void</text><ellipse cx="18" cy="213.5313" fill="#84BE84" rx="3" ry="3" style="stroke: #038048; stroke-width: 1.0;"/><text fill="#000000" font-family="sans-serif" font-size="11" font-style="italic" lengthAdjust="spacingAndGlyphs" textLength="193" x="27" y="217.9502">getHasMultipleOccurrences(): Boolean</text><ellipse cx="18" cy="227.3672" fill="#84BE84" rx="3" ry="3" style="stroke: #038048; stroke-width: 1.0;"/><text fill="#000000" font-family="sans-serif" font-size="11" font-style="italic" lengthAdjust="spacingAndGlyphs" textLength="213" x="27" y="231.7861">setHasMultipleOccurrences(Boolean): void</text><ellipse cx="18" cy="241.2031" fill="#84BE84" rx="3" ry="3" style="stroke: #038048; stroke-width: 1.0;"/><text fill="#000000" font-family="sans-serif" font-size="11" font-style="italic" lengthAdjust="spacingAndGlyphs" textLength="120" x="27" y="245.6221">getIsOptional(): Boolean</text><ellipse cx="18" cy="255.0391" fill="#84BE84" rx="3" ry="3" style="stroke: #038048; stroke-width: 1.0;"/><text fill="#000000" font-family="sans-serif" font-size="11" font-style="italic" lengthAdjust="spacingAndGlyphs" textLength="140" x="27" y="259.458">setIsOptional(Boolean): void</text><ellipse cx="18" cy="268.875" fill="#84BE84" rx="3" ry="3" style="stroke: #038048; stroke-width: 1.0;"/><text fill="#000000" font-family="sans-serif" font-size="11" font-style="italic" lengthAdjust="spacingAndGlyphs" textLength="196" x="27" y="273.2939">getPresentedAfter(): BreakdownElement</text><ellipse cx="18" cy="282.7109" fill="#84BE84" rx="3" ry="3" style="stroke: #038048; stroke-width: 1.0;"/><text fill="#000000" font-family="sans-serif" font-size="11" font-style="italic" lengthAdjust="spacingAndGlyphs" textLength="216" x="27" y="287.1299">setPresentedAfter(BreakdownElement): void</text><ellipse cx="18" cy="296.5469" fill="#84BE84" rx="3" ry="3" style="stroke: #038048; stroke-width: 1.0;"/><text fill="#000000" font-family="sans-serif" font-size="11" font-style="italic" lengthAdjust="spacingAndGlyphs" textLength="205" x="27" y="300.9658">getPresentedBefore(): BreakdownElement</text><ellipse cx="18" cy="310.3828" fill="#84BE84" rx="3" ry="3" style="stroke: #038048; stroke-width: 1.0;"/><text fill="#000000" font-family="sans-serif" font-size="11" font-style="italic" lengthAdjust="spacingAndGlyphs" textLength="225" x="27" y="314.8018">setPresentedBefore(BreakdownElement): void</text><ellipse cx="18" cy="324.2188" fill="#84BE84" rx="3" ry="3" style="stroke: #038048; stroke-width: 1.0;"/><text fill="#000000" font-family="sans-serif" font-size="11" font-style="italic" lengthAdjust="spacingAndGlyphs" textLength="161" x="27" y="328.6377">getPlanningData(): PlanningData</text><ellipse cx="18" cy="338.0547" fill="#84BE84" rx="3" ry="3" style="stroke: #038048; stroke-width: 1.0;"/><text fill="#000000" font-family="sans-serif" font-size="11" font-style="italic" lengthAdjust="spacingAndGlyphs" textLength="181" x="27" y="342.4736">setPlanningData(PlanningData): void</text><ellipse cx="18" cy="351.8906" fill="#84BE84" rx="3" ry="3" style="stroke: #038048; stroke-width: 1.0;"/><text fill="#000000" font-family="sans-serif" font-size="11" font-style="italic" lengthAdjust="spacingAndGlyphs" textLength="138" x="27" y="356.3096">getSuperActivities(): Activity</text><ellipse cx="18" cy="365.7266" fill="#84BE84" rx="3" ry="3" style="stroke: #038048; stroke-width: 1.0;"/><text fill="#000000" font-family="sans-serif" font-size="11" font-style="italic" lengthAdjust="spacingAndGlyphs" textLength="158" x="27" y="370.1455">setSuperActivities(Activity): void</text><ellipse cx="18" cy="379.5625" fill="#84BE84" rx="3" ry="3" style="stroke: #038048; stroke-width: 1.0;"/><text fill="#000000" font-family="sans-serif" font-size="11" font-style="italic" lengthAdjust="spacingAndGlyphs" textLength="166" x="27" y="383.9814">getChecklists(): EList&lt;Checklist&gt;</text><ellipse cx="18" cy="393.3984" fill="#84BE84" rx="3" ry="3" style="stroke: #038048; stroke-width: 1.0;"/><text fill="#000000" font-family="sans-serif" font-size="11" font-style="italic" lengthAdjust="spacingAndGlyphs" textLength="154" x="27" y="397.8174">getConcepts(): EList&lt;Concept&gt;</text><ellipse cx="18" cy="407.2344" fill="#84BE84" rx="3" ry="3" style="stroke: #038048; stroke-width: 1.0;"/><text fill="#000000" font-family="sans-serif" font-size="11" font-style="italic" lengthAdjust="spacingAndGlyphs" textLength="158" x="27" y="411.6533">getExamples(): EList&lt;Example&gt;</text><ellipse cx="18" cy="421.0703" fill="#84BE84" rx="3" ry="3" style="stroke: #038048; stroke-width: 1.0;"/><text fill="#000000" font-family="sans-serif" font-size="11" font-style="italic" lengthAdjust="spacingAndGlyphs" textLength="168" x="27" y="425.4893">getGuidelines(): EList&lt;Guideline&gt;</text><ellipse cx="18" cy="434.9063" fill="#84BE84" rx="3" ry="3" style="stroke: #038048; stroke-width: 1.0;"/><text fill="#000000" font-family="sans-serif" font-size="11" font-style="italic" lengthAdjust="spacingAndGlyphs" textLength="224" x="27" y="439.3252">getReusableAssets(): EList&lt;ReusableAsset&gt;</text><ellipse cx="18" cy="448.7422" fill="#84BE84" rx="3" ry="3" style="stroke: #038048; stroke-width: 1.0;"/><text fill="#000000" font-family="sans-serif" font-size="11" font-style="italic" lengthAdjust="spacingAndGlyphs" textLength="258" x="27" y="453.1611">getSupportingMaterials(): EList&lt;SupportingMaterial&gt;</text><ellipse cx="18" cy="462.5781" fill="#84BE84" rx="3" ry="3" style="stroke: #038048; stroke-width: 1.0;"/><text fill="#000000" font-family="sans-serif" font-size="11" font-style="italic" lengthAdjust="spacingAndGlyphs" textLength="164" x="27" y="466.9971">getTemplates(): EList&lt;Template&gt;</text><ellipse cx="18" cy="476.4141" fill="#84BE84" rx="3" ry="3" style="stroke: #038048; stroke-width: 1.0;"/><text fill="#000000" font-family="sans-serif" font-size="11" font-style="italic" lengthAdjust="spacingAndGlyphs" textLength="138" x="27" y="480.833">getReports(): EList&lt;Report&gt;</text><ellipse cx="18" cy="490.25" fill="#84BE84" rx="3" ry="3" style="stroke: #038048; stroke-width: 1.0;"/><text fill="#000000" font-family="sans-serif" font-size="11" font-style="italic" lengthAdjust="spacingAndGlyphs" textLength="318" x="27" y="494.6689">getEstimationconsiderations(): EList&lt;EstimationConsiderations&gt;</text><ellipse cx="18" cy="504.0859" fill="#84BE84" rx="3" ry="3" style="stroke: #038048; stroke-width: 1.0;"/><text fill="#000000" font-family="sans-serif" font-size="11" font-style="italic" lengthAdjust="spacingAndGlyphs" textLength="178" x="27" y="508.5049">getToolmentor(): EList&lt;ToolMentor&gt;</text></a><!--MD5=[639d29844b240ded2a28a02d67e09f6d]
class org.eclipse.epf.uma.ProcessElement--><a href="ProcessElement.html" target="_top" title="ProcessElement.html" xlink:actuate="onRequest" xlink:href="ProcessElement.html" xlink:show="new" xlink:title="ProcessElement.html" xlink:type="simple"><rect codeLine="34" fill="#FEFECE" filter="url(#f1lx8xs4hfxi0o)" height="40.1875" id="org.eclipse.epf.uma.ProcessElement" style="stroke: #A80036; stroke-width: 1.5;" width="134" x="112" y="7"/><ellipse cx="127" cy="27.0938" fill="#B4A7E5" rx="11" ry="11" style="stroke: #A80036; stroke-width: 1.0;"/><path d="M127.9531,23.7344 L127.9531,30.3906 L129.6719,30.3906 Q130.2813,30.3906 130.5469,30.625 Q130.8125,30.8594 130.8125,31.25 Q130.8125,31.625 130.5469,31.8594 Q130.2813,32.0938 129.6719,32.0938 L124.5313,32.0938 Q123.9219,32.0938 123.6563,31.8594 Q123.3906,31.625 123.3906,31.2344 Q123.3906,30.8594 123.6563,30.625 Q123.9219,30.3906 124.5313,30.3906 L126.25,30.3906 L126.25,23.7344 L124.5313,23.7344 Q123.9219,23.7344 123.6563,23.5 Q123.3906,23.2656 123.3906,22.875 Q123.3906,22.5 123.6563,22.2656 Q123.9219,22.0313 124.5313,22.0313 L129.6719,22.0313 Q130.2813,22.0313 130.5469,22.2656 Q130.8125,22.5 130.8125,22.875 Q130.8125,23.2656 130.5469,23.5 Q130.2813,23.7344 129.6719,23.7344 L127.9531,23.7344 Z "/><text fill="#000000" font-family="sans-serif" font-size="14" font-style="italic" lengthAdjust="spacingAndGlyphs" textLength="102" x="141" y="26.5332">ProcessElement</text><text fill="#000000" font-family="sans-serif" font-size="10" font-style="italic" lengthAdjust="spacingAndGlyphs" textLength="92" x="146" y="39.9902">org.eclipse.epf.uma</text></a><!--MD5=[8afab6c8a58e18067a9f288c0423be16]
reverse link org.eclipse.epf.uma.ProcessElement to org.eclipse.epf.uma.BreakdownElement--><path codeLine="36" d="M179,67.5 C179,79.01 179,92.45 179,106.99 " fill="none" id="org.eclipse.epf.uma.ProcessElement-backto-org.eclipse.epf.uma.BreakdownElement" style="stroke: #A80036; stroke-width: 1.0;"/><polygon fill="none" points="172,67.38,179,47.38,186,67.38,172,67.38" style="stroke: #A80036; stroke-width: 1.0;"/><text fill="#888888" font-family="sans-serif" font-size="10" lengthAdjust="spacingAndGlyphs" textLength="190" x="81" y="538.3027">UMLDoclet 2.0.12, PlantUML 1.2020.16</text><!--MD5=[393bd8a09054c457526efd3c3c751f30]
@startuml
    set namespaceSeparator none
    hide empty fields
    hide empty methods

    interface "<size:14>BreakdownElement\n<size:10>org.eclipse.epf.uma" as org.eclipse.epf.uma.BreakdownElement [[BreakdownElement.html]] {
        {abstract} +getPrefix(): String
        {abstract} +setPrefix(String): void
        {abstract} +getIsPlanned(): Boolean
        {abstract} +setIsPlanned(Boolean): void
        {abstract} +getHasMultipleOccurrences(): Boolean
        {abstract} +setHasMultipleOccurrences(Boolean): void
        {abstract} +getIsOptional(): Boolean
        {abstract} +setIsOptional(Boolean): void
        {abstract} +getPresentedAfter(): BreakdownElement
        {abstract} +setPresentedAfter(BreakdownElement): void
        {abstract} +getPresentedBefore(): BreakdownElement
        {abstract} +setPresentedBefore(BreakdownElement): void
        {abstract} +getPlanningData(): PlanningData
        {abstract} +setPlanningData(PlanningData): void
        {abstract} +getSuperActivities(): Activity
        {abstract} +setSuperActivities(Activity): void
        {abstract} +getChecklists(): EList<Checklist>
        {abstract} +getConcepts(): EList<Concept>
        {abstract} +getExamples(): EList<Example>
        {abstract} +getGuidelines(): EList<Guideline>
        {abstract} +getReusableAssets(): EList<ReusableAsset>
        {abstract} +getSupportingMaterials(): EList<SupportingMaterial>
        {abstract} +getTemplates(): EList<Template>
        {abstract} +getReports(): EList<Report>
        {abstract} +getEstimationconsiderations(): EList<EstimationConsiderations>
        {abstract} +getToolmentor(): EList<ToolMentor>
    }

    interface "<size:14>ProcessElement\n<size:10>org.eclipse.epf.uma" as org.eclipse.epf.uma.ProcessElement [[ProcessElement.html]]

    org.eclipse.epf.uma.ProcessElement <|- - org.eclipse.epf.uma.BreakdownElement

    center footer UMLDoclet 2.0.12, PlantUML 1.2020.16
@enduml

PlantUML version 1.2020.16(Sun Aug 23 22:20:43 CEST 2020)
(APACHE source distribution)
Java Runtime: Java(TM) SE Runtime Environment
JVM: Java HotSpot(TM) 64-Bit Server VM
Default Encoding: Cp1252
Language: es
Country: ES
--></g></svg>