<?xml version="1.0" encoding="UTF-8" standalone="no"?><svg xmlns="http://www.w3.org/2000/svg" xmlns:xlink="http://www.w3.org/1999/xlink" contentScriptType="application/ecmascript" contentStyleType="text/css" height="248px" preserveAspectRatio="none" style="width:286px;height:248px;" version="1.1" viewBox="0 0 286 248" width="286px" zoomAndPan="magnify"><defs><filter height="300%" id="f1qgqxaokthivi" width="300%" x="-1" y="-1"><feGaussianBlur result="blurOut" stdDeviation="2.0"/><feColorMatrix in="blurOut" result="blurOut2" type="matrix" values="0 0 0 0 0 0 0 0 0 0 0 0 0 0 0 0 0 0 .4 0"/><feOffset dx="4.0" dy="4.0" in="blurOut2" result="blurOut3"/><feBlend in="SourceGraphic" in2="blurOut3" mode="normal"/></filter></defs><g><!--MD5=[7701148f58ab3dd42b4e27e2488cb083]
class org.eclipse.epf.uma.CapabilityPattern--><a href="CapabilityPattern.html" target="_top" title="CapabilityPattern.html" xlink:actuate="onRequest" xlink:href="CapabilityPattern.html" xlink:show="new" xlink:title="CapabilityPattern.html" xlink:type="simple"><rect codeLine="5" fill="#FEFECE" filter="url(#f1qgqxaokthivi)" height="40.1875" id="org.eclipse.epf.uma.CapabilityPattern" style="stroke: #A80036; stroke-width: 1.5;" width="140" x="67" y="171"/><ellipse cx="82" cy="191.0938" fill="#B4A7E5" rx="11" ry="11" style="stroke: #A80036; stroke-width: 1.0;"/><path d="M82.9531,187.7344 L82.9531,194.3906 L84.6719,194.3906 Q85.2813,194.3906 85.5469,194.625 Q85.8125,194.8594 85.8125,195.25 Q85.8125,195.625 85.5469,195.8594 Q85.2813,196.0938 84.6719,196.0938 L79.5313,196.0938 Q78.9219,196.0938 78.6563,195.8594 Q78.3906,195.625 78.3906,195.2344 Q78.3906,194.8594 78.6563,194.625 Q78.9219,194.3906 79.5313,194.3906 L81.25,194.3906 L81.25,187.7344 L79.5313,187.7344 Q78.9219,187.7344 78.6563,187.5 Q78.3906,187.2656 78.3906,186.875 Q78.3906,186.5 78.6563,186.2656 Q78.9219,186.0313 79.5313,186.0313 L84.6719,186.0313 Q85.2813,186.0313 85.5469,186.2656 Q85.8125,186.5 85.8125,186.875 Q85.8125,187.2656 85.5469,187.5 Q85.2813,187.7344 84.6719,187.7344 L82.9531,187.7344 Z "/><text fill="#000000" font-family="sans-serif" font-size="14" font-style="italic" lengthAdjust="spacingAndGlyphs" textLength="108" x="96" y="190.5332">CapabilityPattern</text><text fill="#000000" font-family="sans-serif" font-size="10" font-style="italic" lengthAdjust="spacingAndGlyphs" textLength="92" x="104" y="203.9902">org.eclipse.epf.uma</text></a><!--MD5=[5115765f65760f75118f1b87c3d47785]
class org.eclipse.epf.uma.Process--><a href="Process.html" target="_top" title="Process.html" xlink:actuate="onRequest" xlink:href="Process.html" xlink:show="new" xlink:title="Process.html" xlink:type="simple"><rect codeLine="7" fill="#FEFECE" filter="url(#f1qgqxaokthivi)" height="103.5313" id="org.eclipse.epf.uma.Process" style="stroke: #A80036; stroke-width: 1.5;" width="260" x="7" y="7"/><ellipse cx="86.75" cy="27.0938" fill="#B4A7E5" rx="11" ry="11" style="stroke: #A80036; stroke-width: 1.0;"/><path d="M87.7031,23.7344 L87.7031,30.3906 L89.4219,30.3906 Q90.0313,30.3906 90.2969,30.625 Q90.5625,30.8594 90.5625,31.25 Q90.5625,31.625 90.2969,31.8594 Q90.0313,32.0938 89.4219,32.0938 L84.2813,32.0938 Q83.6719,32.0938 83.4063,31.8594 Q83.1406,31.625 83.1406,31.2344 Q83.1406,30.8594 83.4063,30.625 Q83.6719,30.3906 84.2813,30.3906 L86,30.3906 L86,23.7344 L84.2813,23.7344 Q83.6719,23.7344 83.4063,23.5 Q83.1406,23.2656 83.1406,22.875 Q83.1406,22.5 83.4063,22.2656 Q83.6719,22.0313 84.2813,22.0313 L89.4219,22.0313 Q90.0313,22.0313 90.2969,22.2656 Q90.5625,22.5 90.5625,22.875 Q90.5625,23.2656 90.2969,23.5 Q90.0313,23.7344 89.4219,23.7344 L87.7031,23.7344 Z "/><text fill="#000000" font-family="sans-serif" font-size="14" font-style="italic" lengthAdjust="spacingAndGlyphs" textLength="51" x="127.75" y="26.5332">Process</text><text fill="#000000" font-family="sans-serif" font-size="10" font-style="italic" lengthAdjust="spacingAndGlyphs" textLength="92" x="107.25" y="39.9902">org.eclipse.epf.uma</text><line style="stroke: #A80036; stroke-width: 1.5;" x1="8" x2="266" y1="47.1875" y2="47.1875"/><ellipse cx="18" cy="58.1875" fill="#84BE84" rx="3" ry="3" style="stroke: #038048; stroke-width: 1.0;"/><text fill="#000000" font-family="sans-serif" font-size="11" font-style="italic" lengthAdjust="spacingAndGlyphs" textLength="234" x="27" y="62.6064">getIncludesPatterns(): EList&lt;CapabilityPattern&gt;</text><ellipse cx="18" cy="72.0234" fill="#84BE84" rx="3" ry="3" style="stroke: #038048; stroke-width: 1.0;"/><text fill="#000000" font-family="sans-serif" font-size="11" font-style="italic" lengthAdjust="spacingAndGlyphs" textLength="204" x="27" y="76.4424">getDefaultContext(): MethodConfiguration</text><ellipse cx="18" cy="85.8594" fill="#84BE84" rx="3" ry="3" style="stroke: #038048; stroke-width: 1.0;"/><text fill="#000000" font-family="sans-serif" font-size="11" font-style="italic" lengthAdjust="spacingAndGlyphs" textLength="224" x="27" y="90.2783">setDefaultContext(MethodConfiguration): void</text><ellipse cx="18" cy="99.6953" fill="#84BE84" rx="3" ry="3" style="stroke: #038048; stroke-width: 1.0;"/><text fill="#000000" font-family="sans-serif" font-size="11" font-style="italic" lengthAdjust="spacingAndGlyphs" textLength="231" x="27" y="104.1143">getValidContext(): EList&lt;MethodConfiguration&gt;</text></a><!--MD5=[9867384d67c08cb1f2e17ca65da84a55]
reverse link org.eclipse.epf.uma.Process to org.eclipse.epf.uma.CapabilityPattern--><path codeLine="14" d="M137,131.06 C137,145.79 137,160.1 137,170.93 " fill="none" id="org.eclipse.epf.uma.Process-backto-org.eclipse.epf.uma.CapabilityPattern" style="stroke: #A80036; stroke-width: 1.0;"/><polygon fill="none" points="130,131.01,137,111.01,144,131.01,130,131.01" style="stroke: #A80036; stroke-width: 1.0;"/><text fill="#888888" font-family="sans-serif" font-size="10" lengthAdjust="spacingAndGlyphs" textLength="190" x="39" y="234.5684">UMLDoclet 2.0.12, PlantUML 1.2020.16</text><!--MD5=[e0aab363a10f04e85697c894b87a9b0b]
@startuml
    set namespaceSeparator none
    hide empty fields
    hide empty methods

    interface "<size:14>CapabilityPattern\n<size:10>org.eclipse.epf.uma" as org.eclipse.epf.uma.CapabilityPattern [[CapabilityPattern.html]]

    interface "<size:14>Process\n<size:10>org.eclipse.epf.uma" as org.eclipse.epf.uma.Process [[Process.html]] {
        {abstract} +getIncludesPatterns(): EList<CapabilityPattern>
        {abstract} +getDefaultContext(): MethodConfiguration
        {abstract} +setDefaultContext(MethodConfiguration): void
        {abstract} +getValidContext(): EList<MethodConfiguration>
    }

    org.eclipse.epf.uma.Process <|- - org.eclipse.epf.uma.CapabilityPattern

    center footer UMLDoclet 2.0.12, PlantUML 1.2020.16
@enduml

PlantUML version 1.2020.16(Sun Aug 23 22:20:43 CEST 2020)
(APACHE source distribution)
Java Runtime: Java(TM) SE Runtime Environment
JVM: Java HotSpot(TM) 64-Bit Server VM
Default Encoding: Cp1252
Language: es
Country: ES
--></g></svg>