<?xml version="1.0" encoding="UTF-8" standalone="no"?><svg xmlns="http://www.w3.org/2000/svg" xmlns:xlink="http://www.w3.org/1999/xlink" contentScriptType="application/ecmascript" contentStyleType="text/css" height="282px" preserveAspectRatio="none" style="width:315px;height:282px;" version="1.1" viewBox="0 0 315 282" width="315px" zoomAndPan="magnify"><defs><filter height="300%" id="f1glhn78isdji3" width="300%" x="-1" y="-1"><feGaussianBlur result="blurOut" stdDeviation="2.0"/><feColorMatrix in="blurOut" result="blurOut2" type="matrix" values="0 0 0 0 0 0 0 0 0 0 0 0 0 0 0 0 0 0 .4 0"/><feOffset dx="4.0" dy="4.0" in="blurOut2" result="blurOut3"/><feBlend in="SourceGraphic" in2="blurOut3" mode="normal"/></filter></defs><g><!--MD5=[d2d2643ae4786bd43d696894c75600a0]
class org.eclipse.epf.uma.CompositeRole--><a href="CompositeRole.html" target="_top" title="CompositeRole.html" xlink:actuate="onRequest" xlink:href="CompositeRole.html" xlink:show="new" xlink:title="CompositeRole.html" xlink:type="simple"><rect codeLine="5" fill="#FEFECE" filter="url(#f1glhn78isdji3)" height="62.0234" id="org.eclipse.epf.uma.CompositeRole" style="stroke: #A80036; stroke-width: 1.5;" width="200" x="51.5" y="184"/><ellipse cx="99.25" cy="204.0938" fill="#B4A7E5" rx="11" ry="11" style="stroke: #A80036; stroke-width: 1.0;"/><path d="M100.2031,200.7344 L100.2031,207.3906 L101.9219,207.3906 Q102.5313,207.3906 102.7969,207.625 Q103.0625,207.8594 103.0625,208.25 Q103.0625,208.625 102.7969,208.8594 Q102.5313,209.0938 101.9219,209.0938 L96.7813,209.0938 Q96.1719,209.0938 95.9063,208.8594 Q95.6406,208.625 95.6406,208.2344 Q95.6406,207.8594 95.9063,207.625 Q96.1719,207.3906 96.7813,207.3906 L98.5,207.3906 L98.5,200.7344 L96.7813,200.7344 Q96.1719,200.7344 95.9063,200.5 Q95.6406,200.2656 95.6406,199.875 Q95.6406,199.5 95.9063,199.2656 Q96.1719,199.0313 96.7813,199.0313 L101.9219,199.0313 Q102.5313,199.0313 102.7969,199.2656 Q103.0625,199.5 103.0625,199.875 Q103.0625,200.2656 102.7969,200.5 Q102.5313,200.7344 101.9219,200.7344 L100.2031,200.7344 Z "/><text fill="#000000" font-family="sans-serif" font-size="14" font-style="italic" lengthAdjust="spacingAndGlyphs" textLength="96" x="119.75" y="203.5332">CompositeRole</text><text fill="#000000" font-family="sans-serif" font-size="10" font-style="italic" lengthAdjust="spacingAndGlyphs" textLength="92" x="121.75" y="216.9902">org.eclipse.epf.uma</text><line style="stroke: #A80036; stroke-width: 1.5;" x1="52.5" x2="250.5" y1="224.1875" y2="224.1875"/><ellipse cx="62.5" cy="235.1875" fill="#84BE84" rx="3" ry="3" style="stroke: #038048; stroke-width: 1.0;"/><text fill="#000000" font-family="sans-serif" font-size="11" font-style="italic" lengthAdjust="spacingAndGlyphs" textLength="174" x="71.5" y="239.6064">getAggregatedRoles(): EList&lt;Role&gt;</text></a><!--MD5=[ab7492900548ec6688946b1b6ca656ed]
class org.eclipse.epf.uma.RoleDescriptor--><a href="RoleDescriptor.html" target="_top" title="RoleDescriptor.html" xlink:actuate="onRequest" xlink:href="RoleDescriptor.html" xlink:show="new" xlink:title="RoleDescriptor.html" xlink:type="simple"><rect codeLine="9" fill="#FEFECE" filter="url(#f1glhn78isdji3)" height="117.3672" id="org.eclipse.epf.uma.RoleDescriptor" style="stroke: #A80036; stroke-width: 1.5;" width="289" x="7" y="7"/><ellipse cx="100.25" cy="27.0938" fill="#B4A7E5" rx="11" ry="11" style="stroke: #A80036; stroke-width: 1.0;"/><path d="M101.2031,23.7344 L101.2031,30.3906 L102.9219,30.3906 Q103.5313,30.3906 103.7969,30.625 Q104.0625,30.8594 104.0625,31.25 Q104.0625,31.625 103.7969,31.8594 Q103.5313,32.0938 102.9219,32.0938 L97.7813,32.0938 Q97.1719,32.0938 96.9063,31.8594 Q96.6406,31.625 96.6406,31.2344 Q96.6406,30.8594 96.9063,30.625 Q97.1719,30.3906 97.7813,30.3906 L99.5,30.3906 L99.5,23.7344 L97.7813,23.7344 Q97.1719,23.7344 96.9063,23.5 Q96.6406,23.2656 96.6406,22.875 Q96.6406,22.5 96.9063,22.2656 Q97.1719,22.0313 97.7813,22.0313 L102.9219,22.0313 Q103.5313,22.0313 103.7969,22.2656 Q104.0625,22.5 104.0625,22.875 Q104.0625,23.2656 103.7969,23.5 Q103.5313,23.7344 102.9219,23.7344 L101.2031,23.7344 Z "/><text fill="#000000" font-family="sans-serif" font-size="14" font-style="italic" lengthAdjust="spacingAndGlyphs" textLength="94" x="120.75" y="26.5332">RoleDescriptor</text><text fill="#000000" font-family="sans-serif" font-size="10" font-style="italic" lengthAdjust="spacingAndGlyphs" textLength="92" x="121.75" y="39.9902">org.eclipse.epf.uma</text><line style="stroke: #A80036; stroke-width: 1.5;" x1="8" x2="295" y1="47.1875" y2="47.1875"/><ellipse cx="18" cy="58.1875" fill="#84BE84" rx="3" ry="3" style="stroke: #038048; stroke-width: 1.0;"/><text fill="#000000" font-family="sans-serif" font-size="11" font-style="italic" lengthAdjust="spacingAndGlyphs" textLength="75" x="27" y="62.6064">getRole(): Role</text><ellipse cx="18" cy="72.0234" fill="#84BE84" rx="3" ry="3" style="stroke: #038048; stroke-width: 1.0;"/><text fill="#000000" font-family="sans-serif" font-size="11" font-style="italic" lengthAdjust="spacingAndGlyphs" textLength="95" x="27" y="76.4424">setRole(Role): void</text><ellipse cx="18" cy="85.8594" fill="#84BE84" rx="3" ry="3" style="stroke: #038048; stroke-width: 1.0;"/><text fill="#000000" font-family="sans-serif" font-size="11" font-style="italic" lengthAdjust="spacingAndGlyphs" textLength="225" x="27" y="90.2783">getModifies(): EList&lt;WorkProductDescriptor&gt;</text><ellipse cx="18" cy="99.6953" fill="#84BE84" rx="3" ry="3" style="stroke: #038048; stroke-width: 1.0;"/><text fill="#000000" font-family="sans-serif" font-size="11" font-style="italic" lengthAdjust="spacingAndGlyphs" textLength="263" x="27" y="104.1143">getResponsibleFor(): EList&lt;WorkProductDescriptor&gt;</text><ellipse cx="18" cy="113.5313" fill="#84BE84" rx="3" ry="3" style="stroke: #038048; stroke-width: 1.0;"/><text fill="#000000" font-family="sans-serif" font-size="11" font-style="italic" lengthAdjust="spacingAndGlyphs" textLength="251" x="27" y="117.9502">getResponsibleForExclude(): EList&lt;WorkProduct&gt;</text></a><!--MD5=[ea1f81655b0e324864cd86475745b89d]
reverse link org.eclipse.epf.uma.RoleDescriptor to org.eclipse.epf.uma.CompositeRole--><path codeLine="17" d="M151.5,144.71 C151.5,158.64 151.5,172.36 151.5,183.87 " fill="none" id="org.eclipse.epf.uma.RoleDescriptor-backto-org.eclipse.epf.uma.CompositeRole" style="stroke: #A80036; stroke-width: 1.0;"/><polygon fill="none" points="144.5,144.37,151.5,124.37,158.5,144.37,144.5,144.37" style="stroke: #A80036; stroke-width: 1.0;"/><text fill="#888888" font-family="sans-serif" font-size="10" lengthAdjust="spacingAndGlyphs" textLength="190" x="53.5" y="269.4043">UMLDoclet 2.0.12, PlantUML 1.2020.16</text><!--MD5=[4aa568836a83a4627f73bc50c8ab5204]
@startuml
    set namespaceSeparator none
    hide empty fields
    hide empty methods

    interface "<size:14>CompositeRole\n<size:10>org.eclipse.epf.uma" as org.eclipse.epf.uma.CompositeRole [[CompositeRole.html]] {
        {abstract} +getAggregatedRoles(): EList<Role>
    }

    interface "<size:14>RoleDescriptor\n<size:10>org.eclipse.epf.uma" as org.eclipse.epf.uma.RoleDescriptor [[RoleDescriptor.html]] {
        {abstract} +getRole(): Role
        {abstract} +setRole(Role): void
        {abstract} +getModifies(): EList<WorkProductDescriptor>
        {abstract} +getResponsibleFor(): EList<WorkProductDescriptor>
        {abstract} +getResponsibleForExclude(): EList<WorkProduct>
    }

    org.eclipse.epf.uma.RoleDescriptor <|- - org.eclipse.epf.uma.CompositeRole

    center footer UMLDoclet 2.0.12, PlantUML 1.2020.16
@enduml

PlantUML version 1.2020.16(Sun Aug 23 22:20:43 CEST 2020)
(APACHE source distribution)
Java Runtime: Java(TM) SE Runtime Environment
JVM: Java HotSpot(TM) 64-Bit Server VM
Default Encoding: Cp1252
Language: es
Country: ES
--></g></svg>