<?xml version="1.0" encoding="UTF-8" standalone="no"?><svg xmlns="http://www.w3.org/2000/svg" xmlns:xlink="http://www.w3.org/1999/xlink" contentScriptType="application/ecmascript" contentStyleType="text/css" height="463px" preserveAspectRatio="none" style="width:290px;height:463px;" version="1.1" viewBox="0 0 290 463" width="290px" zoomAndPan="magnify"><defs><filter height="300%" id="f1u9c5ym7qxy62" width="300%" x="-1" y="-1"><feGaussianBlur result="blurOut" stdDeviation="2.0"/><feColorMatrix in="blurOut" result="blurOut2" type="matrix" values="0 0 0 0 0 0 0 0 0 0 0 0 0 0 0 0 0 0 .4 0"/><feOffset dx="4.0" dy="4.0" in="blurOut2" result="blurOut3"/><feBlend in="SourceGraphic" in2="blurOut3" mode="normal"/></filter></defs><g><!--MD5=[ac89fbf343ff51a3f64fb8f81ee032c9]
class org.eclipse.epf.uma.ContentDescription--><a href="ContentDescription.html" target="_top" title="ContentDescription.html" xlink:actuate="onRequest" xlink:href="ContentDescription.html" xlink:show="new" xlink:title="ContentDescription.html" xlink:type="simple"><rect codeLine="5" fill="#FEFECE" filter="url(#f1u9c5ym7qxy62)" height="172.7109" id="org.eclipse.epf.uma.ContentDescription" style="stroke: #A80036; stroke-width: 1.5;" width="219" x="29.5" y="254"/><ellipse cx="74.25" cy="274.0938" fill="#B4A7E5" rx="11" ry="11" style="stroke: #A80036; stroke-width: 1.0;"/><path d="M75.2031,270.7344 L75.2031,277.3906 L76.9219,277.3906 Q77.5313,277.3906 77.7969,277.625 Q78.0625,277.8594 78.0625,278.25 Q78.0625,278.625 77.7969,278.8594 Q77.5313,279.0938 76.9219,279.0938 L71.7813,279.0938 Q71.1719,279.0938 70.9063,278.8594 Q70.6406,278.625 70.6406,278.2344 Q70.6406,277.8594 70.9063,277.625 Q71.1719,277.3906 71.7813,277.3906 L73.5,277.3906 L73.5,270.7344 L71.7813,270.7344 Q71.1719,270.7344 70.9063,270.5 Q70.6406,270.2656 70.6406,269.875 Q70.6406,269.5 70.9063,269.2656 Q71.1719,269.0313 71.7813,269.0313 L76.9219,269.0313 Q77.5313,269.0313 77.7969,269.2656 Q78.0625,269.5 78.0625,269.875 Q78.0625,270.2656 77.7969,270.5 Q77.5313,270.7344 76.9219,270.7344 L75.2031,270.7344 Z "/><text fill="#000000" font-family="sans-serif" font-size="14" font-style="italic" lengthAdjust="spacingAndGlyphs" textLength="121" x="94.75" y="273.5332">ContentDescription</text><text fill="#000000" font-family="sans-serif" font-size="10" font-style="italic" lengthAdjust="spacingAndGlyphs" textLength="92" x="109.25" y="286.9902">org.eclipse.epf.uma</text><line style="stroke: #A80036; stroke-width: 1.5;" x1="30.5" x2="247.5" y1="294.1875" y2="294.1875"/><ellipse cx="40.5" cy="305.1875" fill="#84BE84" rx="3" ry="3" style="stroke: #038048; stroke-width: 1.0;"/><text fill="#000000" font-family="sans-serif" font-size="11" font-style="italic" lengthAdjust="spacingAndGlyphs" textLength="139" x="49.5" y="309.6064">getMainDescription(): String</text><ellipse cx="40.5" cy="319.0234" fill="#84BE84" rx="3" ry="3" style="stroke: #038048; stroke-width: 1.0;"/><text fill="#000000" font-family="sans-serif" font-size="11" font-style="italic" lengthAdjust="spacingAndGlyphs" textLength="159" x="49.5" y="323.4424">setMainDescription(String): void</text><ellipse cx="40.5" cy="332.8594" fill="#84BE84" rx="3" ry="3" style="stroke: #038048; stroke-width: 1.0;"/><text fill="#000000" font-family="sans-serif" font-size="11" font-style="italic" lengthAdjust="spacingAndGlyphs" textLength="146" x="49.5" y="337.2783">getSections(): EList&lt;Section&gt;</text><ellipse cx="40.5" cy="346.6953" fill="#84BE84" rx="3" ry="3" style="stroke: #038048; stroke-width: 1.0;"/><text fill="#000000" font-family="sans-serif" font-size="11" font-style="italic" lengthAdjust="spacingAndGlyphs" textLength="108" x="49.5" y="351.1143">getExternalId(): String</text><ellipse cx="40.5" cy="360.5313" fill="#84BE84" rx="3" ry="3" style="stroke: #038048; stroke-width: 1.0;"/><text fill="#000000" font-family="sans-serif" font-size="11" font-style="italic" lengthAdjust="spacingAndGlyphs" textLength="128" x="49.5" y="364.9502">setExternalId(String): void</text><ellipse cx="40.5" cy="374.3672" fill="#84BE84" rx="3" ry="3" style="stroke: #038048; stroke-width: 1.0;"/><text fill="#000000" font-family="sans-serif" font-size="11" font-style="italic" lengthAdjust="spacingAndGlyphs" textLength="151" x="49.5" y="378.7861">getKeyConsiderations(): String</text><ellipse cx="40.5" cy="388.2031" fill="#84BE84" rx="3" ry="3" style="stroke: #038048; stroke-width: 1.0;"/><text fill="#000000" font-family="sans-serif" font-size="11" font-style="italic" lengthAdjust="spacingAndGlyphs" textLength="171" x="49.5" y="392.6221">setKeyConsiderations(String): void</text><ellipse cx="40.5" cy="402.0391" fill="#84BE84" rx="3" ry="3" style="stroke: #038048; stroke-width: 1.0;"/><text fill="#000000" font-family="sans-serif" font-size="11" font-style="italic" lengthAdjust="spacingAndGlyphs" textLength="173" x="49.5" y="406.458">getLongPresentationName(): String</text><ellipse cx="40.5" cy="415.875" fill="#84BE84" rx="3" ry="3" style="stroke: #038048; stroke-width: 1.0;"/><text fill="#000000" font-family="sans-serif" font-size="11" font-style="italic" lengthAdjust="spacingAndGlyphs" textLength="193" x="49.5" y="420.2939">setLongPresentationName(String): void</text></a><!--MD5=[7b6125558004ae2e4ffede7fdf88687c]
class org.eclipse.epf.uma.MethodUnit--><a href="MethodUnit.html" target="_top" title="MethodUnit.html" xlink:actuate="onRequest" xlink:href="MethodUnit.html" xlink:show="new" xlink:title="MethodUnit.html" xlink:type="simple"><rect codeLine="17" fill="#FEFECE" filter="url(#f1u9c5ym7qxy62)" height="186.5469" id="org.eclipse.epf.uma.MethodUnit" style="stroke: #A80036; stroke-width: 1.5;" width="264" x="7" y="7"/><ellipse cx="88.75" cy="27.0938" fill="#B4A7E5" rx="11" ry="11" style="stroke: #A80036; stroke-width: 1.0;"/><path d="M89.7031,23.7344 L89.7031,30.3906 L91.4219,30.3906 Q92.0313,30.3906 92.2969,30.625 Q92.5625,30.8594 92.5625,31.25 Q92.5625,31.625 92.2969,31.8594 Q92.0313,32.0938 91.4219,32.0938 L86.2813,32.0938 Q85.6719,32.0938 85.4063,31.8594 Q85.1406,31.625 85.1406,31.2344 Q85.1406,30.8594 85.4063,30.625 Q85.6719,30.3906 86.2813,30.3906 L88,30.3906 L88,23.7344 L86.2813,23.7344 Q85.6719,23.7344 85.4063,23.5 Q85.1406,23.2656 85.1406,22.875 Q85.1406,22.5 85.4063,22.2656 Q85.6719,22.0313 86.2813,22.0313 L91.4219,22.0313 Q92.0313,22.0313 92.2969,22.2656 Q92.5625,22.5 92.5625,22.875 Q92.5625,23.2656 92.2969,23.5 Q92.0313,23.7344 91.4219,23.7344 L89.7031,23.7344 Z "/><text fill="#000000" font-family="sans-serif" font-size="14" font-style="italic" lengthAdjust="spacingAndGlyphs" textLength="73" x="118.75" y="26.5332">MethodUnit</text><text fill="#000000" font-family="sans-serif" font-size="10" font-style="italic" lengthAdjust="spacingAndGlyphs" textLength="92" x="109.25" y="39.9902">org.eclipse.epf.uma</text><line style="stroke: #A80036; stroke-width: 1.5;" x1="8" x2="270" y1="47.1875" y2="47.1875"/><ellipse cx="18" cy="58.1875" fill="#84BE84" rx="3" ry="3" style="stroke: #038048; stroke-width: 1.0;"/><text fill="#000000" font-family="sans-serif" font-size="11" font-style="italic" lengthAdjust="spacingAndGlyphs" textLength="96" x="27" y="62.6064">getAuthors(): String</text><ellipse cx="18" cy="72.0234" fill="#84BE84" rx="3" ry="3" style="stroke: #038048; stroke-width: 1.0;"/><text fill="#000000" font-family="sans-serif" font-size="11" font-style="italic" lengthAdjust="spacingAndGlyphs" textLength="116" x="27" y="76.4424">setAuthors(String): void</text><ellipse cx="18" cy="85.8594" fill="#84BE84" rx="3" ry="3" style="stroke: #038048; stroke-width: 1.0;"/><text fill="#000000" font-family="sans-serif" font-size="11" font-style="italic" lengthAdjust="spacingAndGlyphs" textLength="113" x="27" y="90.2783">getChangeDate(): Date</text><ellipse cx="18" cy="99.6953" fill="#84BE84" rx="3" ry="3" style="stroke: #038048; stroke-width: 1.0;"/><text fill="#000000" font-family="sans-serif" font-size="11" font-style="italic" lengthAdjust="spacingAndGlyphs" textLength="133" x="27" y="104.1143">setChangeDate(Date): void</text><ellipse cx="18" cy="113.5313" fill="#84BE84" rx="3" ry="3" style="stroke: #038048; stroke-width: 1.0;"/><text fill="#000000" font-family="sans-serif" font-size="11" font-style="italic" lengthAdjust="spacingAndGlyphs" textLength="153" x="27" y="117.9502">getChangeDescription(): String</text><ellipse cx="18" cy="127.3672" fill="#84BE84" rx="3" ry="3" style="stroke: #038048; stroke-width: 1.0;"/><text fill="#000000" font-family="sans-serif" font-size="11" font-style="italic" lengthAdjust="spacingAndGlyphs" textLength="173" x="27" y="131.7861">setChangeDescription(String): void</text><ellipse cx="18" cy="141.2031" fill="#84BE84" rx="3" ry="3" style="stroke: #038048; stroke-width: 1.0;"/><text fill="#000000" font-family="sans-serif" font-size="11" font-style="italic" lengthAdjust="spacingAndGlyphs" textLength="96" x="27" y="145.6221">getVersion(): String</text><ellipse cx="18" cy="155.0391" fill="#84BE84" rx="3" ry="3" style="stroke: #038048; stroke-width: 1.0;"/><text fill="#000000" font-family="sans-serif" font-size="11" font-style="italic" lengthAdjust="spacingAndGlyphs" textLength="116" x="27" y="159.458">setVersion(String): void</text><ellipse cx="18" cy="168.875" fill="#84BE84" rx="3" ry="3" style="stroke: #038048; stroke-width: 1.0;"/><text fill="#000000" font-family="sans-serif" font-size="11" font-style="italic" lengthAdjust="spacingAndGlyphs" textLength="218" x="27" y="173.2939">getCopyrightStatement(): SupportingMaterial</text><ellipse cx="18" cy="182.7109" fill="#84BE84" rx="3" ry="3" style="stroke: #038048; stroke-width: 1.0;"/><text fill="#000000" font-family="sans-serif" font-size="11" font-style="italic" lengthAdjust="spacingAndGlyphs" textLength="238" x="27" y="187.1299">setCopyrightStatement(SupportingMaterial): void</text></a><!--MD5=[03bb2d8f4f2e8ca264bf8b5239199930]
reverse link org.eclipse.epf.uma.MethodUnit to org.eclipse.epf.uma.ContentDescription--><path codeLine="30" d="M139,214.65 C139,227.77 139,240.99 139,253.67 " fill="none" id="org.eclipse.epf.uma.MethodUnit-backto-org.eclipse.epf.uma.ContentDescription" style="stroke: #A80036; stroke-width: 1.0;"/><polygon fill="none" points="132,214.2,139,194.2,146,214.2,132,214.2" style="stroke: #A80036; stroke-width: 1.0;"/><text fill="#888888" font-family="sans-serif" font-size="10" lengthAdjust="spacingAndGlyphs" textLength="190" x="41" y="450.0918">UMLDoclet 2.0.12, PlantUML 1.2020.16</text><!--MD5=[5e6be97fc0a570b1685a7b7c463a46bd]
@startuml
    set namespaceSeparator none
    hide empty fields
    hide empty methods

    interface "<size:14>ContentDescription\n<size:10>org.eclipse.epf.uma" as org.eclipse.epf.uma.ContentDescription [[ContentDescription.html]] {
        {abstract} +getMainDescription(): String
        {abstract} +setMainDescription(String): void
        {abstract} +getSections(): EList<Section>
        {abstract} +getExternalId(): String
        {abstract} +setExternalId(String): void
        {abstract} +getKeyConsiderations(): String
        {abstract} +setKeyConsiderations(String): void
        {abstract} +getLongPresentationName(): String
        {abstract} +setLongPresentationName(String): void
    }

    interface "<size:14>MethodUnit\n<size:10>org.eclipse.epf.uma" as org.eclipse.epf.uma.MethodUnit [[MethodUnit.html]] {
        {abstract} +getAuthors(): String
        {abstract} +setAuthors(String): void
        {abstract} +getChangeDate(): Date
        {abstract} +setChangeDate(Date): void
        {abstract} +getChangeDescription(): String
        {abstract} +setChangeDescription(String): void
        {abstract} +getVersion(): String
        {abstract} +setVersion(String): void
        {abstract} +getCopyrightStatement(): SupportingMaterial
        {abstract} +setCopyrightStatement(SupportingMaterial): void
    }

    org.eclipse.epf.uma.MethodUnit <|- - org.eclipse.epf.uma.ContentDescription

    center footer UMLDoclet 2.0.12, PlantUML 1.2020.16
@enduml

PlantUML version 1.2020.16(Sun Aug 23 22:20:43 CEST 2020)
(APACHE source distribution)
Java Runtime: Java(TM) SE Runtime Environment
JVM: Java HotSpot(TM) 64-Bit Server VM
Default Encoding: Cp1252
Language: es
Country: ES
--></g></svg>