<?xml version="1.0" encoding="UTF-8" standalone="no"?><svg xmlns="http://www.w3.org/2000/svg" xmlns:xlink="http://www.w3.org/1999/xlink" contentScriptType="application/ecmascript" contentStyleType="text/css" height="379px" preserveAspectRatio="none" style="width:594px;height:379px;" version="1.1" viewBox="0 0 594 379" width="594px" zoomAndPan="magnify"><defs><filter height="300%" id="fi9k5vfaerfcw" width="300%" x="-1" y="-1"><feGaussianBlur result="blurOut" stdDeviation="2.0"/><feColorMatrix in="blurOut" result="blurOut2" type="matrix" values="0 0 0 0 0 0 0 0 0 0 0 0 0 0 0 0 0 0 .4 0"/><feOffset dx="4.0" dy="4.0" in="blurOut2" result="blurOut3"/><feBlend in="SourceGraphic" in2="blurOut3" mode="normal"/></filter></defs><g><!--MD5=[13c5eb85a3ca1cf746cc47e30073ec20]
class org.eclipse.epf.uma.ContentElement--><a href="ContentElement.html" target="_top" title="ContentElement.html" xlink:actuate="onRequest" xlink:href="ContentElement.html" xlink:show="new" xlink:title="ContentElement.html" xlink:type="simple"><rect codeLine="5" fill="#FEFECE" filter="url(#fi9k5vfaerfcw)" height="145.0391" id="org.eclipse.epf.uma.ContentElement" style="stroke: #A80036; stroke-width: 1.5;" width="284" x="132" y="198"/><ellipse cx="219.25" cy="218.0938" fill="#B4A7E5" rx="11" ry="11" style="stroke: #A80036; stroke-width: 1.0;"/><path d="M220.2031,214.7344 L220.2031,221.3906 L221.9219,221.3906 Q222.5313,221.3906 222.7969,221.625 Q223.0625,221.8594 223.0625,222.25 Q223.0625,222.625 222.7969,222.8594 Q222.5313,223.0938 221.9219,223.0938 L216.7813,223.0938 Q216.1719,223.0938 215.9063,222.8594 Q215.6406,222.625 215.6406,222.2344 Q215.6406,221.8594 215.9063,221.625 Q216.1719,221.3906 216.7813,221.3906 L218.5,221.3906 L218.5,214.7344 L216.7813,214.7344 Q216.1719,214.7344 215.9063,214.5 Q215.6406,214.2656 215.6406,213.875 Q215.6406,213.5 215.9063,213.2656 Q216.1719,213.0313 216.7813,213.0313 L221.9219,213.0313 Q222.5313,213.0313 222.7969,213.2656 Q223.0625,213.5 223.0625,213.875 Q223.0625,214.2656 222.7969,214.5 Q222.5313,214.7344 221.9219,214.7344 L220.2031,214.7344 Z "/><text fill="#000000" font-family="sans-serif" font-size="14" font-style="italic" lengthAdjust="spacingAndGlyphs" textLength="101" x="239.75" y="217.5332">ContentElement</text><text fill="#000000" font-family="sans-serif" font-size="10" font-style="italic" lengthAdjust="spacingAndGlyphs" textLength="92" x="244.25" y="230.9902">org.eclipse.epf.uma</text><line style="stroke: #A80036; stroke-width: 1.5;" x1="133" x2="415" y1="238.1875" y2="238.1875"/><ellipse cx="143" cy="249.1875" fill="#84BE84" rx="3" ry="3" style="stroke: #038048; stroke-width: 1.0;"/><text fill="#000000" font-family="sans-serif" font-size="11" font-style="italic" lengthAdjust="spacingAndGlyphs" textLength="258" x="152" y="253.6064">getSupportingMaterials(): EList&lt;SupportingMaterial&gt;</text><ellipse cx="143" cy="263.0234" fill="#84BE84" rx="3" ry="3" style="stroke: #038048; stroke-width: 1.0;"/><text fill="#000000" font-family="sans-serif" font-size="11" font-style="italic" lengthAdjust="spacingAndGlyphs" textLength="208" x="152" y="267.4424">getConceptsAndPapers(): EList&lt;Concept&gt;</text><ellipse cx="143" cy="276.8594" fill="#84BE84" rx="3" ry="3" style="stroke: #038048; stroke-width: 1.0;"/><text fill="#000000" font-family="sans-serif" font-size="11" font-style="italic" lengthAdjust="spacingAndGlyphs" textLength="166" x="152" y="281.2783">getChecklists(): EList&lt;Checklist&gt;</text><ellipse cx="143" cy="290.6953" fill="#84BE84" rx="3" ry="3" style="stroke: #038048; stroke-width: 1.0;"/><text fill="#000000" font-family="sans-serif" font-size="11" font-style="italic" lengthAdjust="spacingAndGlyphs" textLength="168" x="152" y="295.1143">getGuidelines(): EList&lt;Guideline&gt;</text><ellipse cx="143" cy="304.5313" fill="#84BE84" rx="3" ry="3" style="stroke: #038048; stroke-width: 1.0;"/><text fill="#000000" font-family="sans-serif" font-size="11" font-style="italic" lengthAdjust="spacingAndGlyphs" textLength="158" x="152" y="308.9502">getExamples(): EList&lt;Example&gt;</text><ellipse cx="143" cy="318.3672" fill="#84BE84" rx="3" ry="3" style="stroke: #038048; stroke-width: 1.0;"/><text fill="#000000" font-family="sans-serif" font-size="11" font-style="italic" lengthAdjust="spacingAndGlyphs" textLength="176" x="152" y="322.7861">getAssets(): EList&lt;ReusableAsset&gt;</text><ellipse cx="143" cy="332.2031" fill="#84BE84" rx="3" ry="3" style="stroke: #038048; stroke-width: 1.0;"/><text fill="#000000" font-family="sans-serif" font-size="11" font-style="italic" lengthAdjust="spacingAndGlyphs" textLength="210" x="152" y="336.6221">getTermdefinition(): EList&lt;TermDefinition&gt;</text></a><!--MD5=[f4ee302b1aabe817dbe53b02b19666f1]
class org.eclipse.epf.uma.DescribableElement--><a href="DescribableElement.html" target="_top" title="DescribableElement.html" xlink:actuate="onRequest" xlink:href="DescribableElement.html" xlink:show="new" xlink:title="DescribableElement.html" xlink:type="simple"><rect codeLine="15" fill="#FEFECE" filter="url(#fi9k5vfaerfcw)" height="131.2031" id="org.eclipse.epf.uma.DescribableElement" style="stroke: #A80036; stroke-width: 1.5;" width="232" x="7" y="7"/><ellipse cx="55.75" cy="27.0938" fill="#B4A7E5" rx="11" ry="11" style="stroke: #A80036; stroke-width: 1.0;"/><path d="M56.7031,23.7344 L56.7031,30.3906 L58.4219,30.3906 Q59.0313,30.3906 59.2969,30.625 Q59.5625,30.8594 59.5625,31.25 Q59.5625,31.625 59.2969,31.8594 Q59.0313,32.0938 58.4219,32.0938 L53.2813,32.0938 Q52.6719,32.0938 52.4063,31.8594 Q52.1406,31.625 52.1406,31.2344 Q52.1406,30.8594 52.4063,30.625 Q52.6719,30.3906 53.2813,30.3906 L55,30.3906 L55,23.7344 L53.2813,23.7344 Q52.6719,23.7344 52.4063,23.5 Q52.1406,23.2656 52.1406,22.875 Q52.1406,22.5 52.4063,22.2656 Q52.6719,22.0313 53.2813,22.0313 L58.4219,22.0313 Q59.0313,22.0313 59.2969,22.2656 Q59.5625,22.5 59.5625,22.875 Q59.5625,23.2656 59.2969,23.5 Q59.0313,23.7344 58.4219,23.7344 L56.7031,23.7344 Z "/><text fill="#000000" font-family="sans-serif" font-size="14" font-style="italic" lengthAdjust="spacingAndGlyphs" textLength="126" x="76.25" y="26.5332">DescribableElement</text><text fill="#000000" font-family="sans-serif" font-size="10" font-style="italic" lengthAdjust="spacingAndGlyphs" textLength="92" x="93.25" y="39.9902">org.eclipse.epf.uma</text><line style="stroke: #A80036; stroke-width: 1.5;" x1="8" x2="238" y1="47.1875" y2="47.1875"/><ellipse cx="18" cy="58.1875" fill="#84BE84" rx="3" ry="3" style="stroke: #038048; stroke-width: 1.0;"/><text fill="#000000" font-family="sans-serif" font-size="11" font-style="italic" lengthAdjust="spacingAndGlyphs" textLength="186" x="27" y="62.6064">getPresentation(): ContentDescription</text><ellipse cx="18" cy="72.0234" fill="#84BE84" rx="3" ry="3" style="stroke: #038048; stroke-width: 1.0;"/><text fill="#000000" font-family="sans-serif" font-size="11" font-style="italic" lengthAdjust="spacingAndGlyphs" textLength="206" x="27" y="76.4424">setPresentation(ContentDescription): void</text><ellipse cx="18" cy="85.8594" fill="#84BE84" rx="3" ry="3" style="stroke: #038048; stroke-width: 1.0;"/><text fill="#000000" font-family="sans-serif" font-size="11" font-style="italic" lengthAdjust="spacingAndGlyphs" textLength="99" x="27" y="90.2783">getShapeicon(): URI</text><ellipse cx="18" cy="99.6953" fill="#84BE84" rx="3" ry="3" style="stroke: #038048; stroke-width: 1.0;"/><text fill="#000000" font-family="sans-serif" font-size="11" font-style="italic" lengthAdjust="spacingAndGlyphs" textLength="119" x="27" y="104.1143">setShapeicon(URI): void</text><ellipse cx="18" cy="113.5313" fill="#84BE84" rx="3" ry="3" style="stroke: #038048; stroke-width: 1.0;"/><text fill="#000000" font-family="sans-serif" font-size="11" font-style="italic" lengthAdjust="spacingAndGlyphs" textLength="94" x="27" y="117.9502">getNodeicon(): URI</text><ellipse cx="18" cy="127.3672" fill="#84BE84" rx="3" ry="3" style="stroke: #038048; stroke-width: 1.0;"/><text fill="#000000" font-family="sans-serif" font-size="11" font-style="italic" lengthAdjust="spacingAndGlyphs" textLength="114" x="27" y="131.7861">setNodeicon(URI): void</text></a><!--MD5=[3feaaf670fc79e387ff2ee6de862556d]
class org.eclipse.epf.uma.VariabilityElement--><a href="VariabilityElement.html" target="_top" title="VariabilityElement.html" xlink:actuate="onRequest" xlink:href="VariabilityElement.html" xlink:show="new" xlink:title="VariabilityElement.html" xlink:type="simple"><rect codeLine="23" fill="#FEFECE" filter="url(#fi9k5vfaerfcw)" height="103.5313" id="org.eclipse.epf.uma.VariabilityElement" style="stroke: #A80036; stroke-width: 1.5;" width="301" x="274.5" y="20.5"/><ellipse cx="364.75" cy="40.5938" fill="#B4A7E5" rx="11" ry="11" style="stroke: #A80036; stroke-width: 1.0;"/><path d="M365.7031,37.2344 L365.7031,43.8906 L367.4219,43.8906 Q368.0313,43.8906 368.2969,44.125 Q368.5625,44.3594 368.5625,44.75 Q368.5625,45.125 368.2969,45.3594 Q368.0313,45.5938 367.4219,45.5938 L362.2813,45.5938 Q361.6719,45.5938 361.4063,45.3594 Q361.1406,45.125 361.1406,44.7344 Q361.1406,44.3594 361.4063,44.125 Q361.6719,43.8906 362.2813,43.8906 L364,43.8906 L364,37.2344 L362.2813,37.2344 Q361.6719,37.2344 361.4063,37 Q361.1406,36.7656 361.1406,36.375 Q361.1406,36 361.4063,35.7656 Q361.6719,35.5313 362.2813,35.5313 L367.4219,35.5313 Q368.0313,35.5313 368.2969,35.7656 Q368.5625,36 368.5625,36.375 Q368.5625,36.7656 368.2969,37 Q368.0313,37.2344 367.4219,37.2344 L365.7031,37.2344 Z "/><text fill="#000000" font-family="sans-serif" font-size="14" font-style="italic" lengthAdjust="spacingAndGlyphs" textLength="112" x="385.25" y="40.0332">VariabilityElement</text><text fill="#000000" font-family="sans-serif" font-size="10" font-style="italic" lengthAdjust="spacingAndGlyphs" textLength="92" x="395.25" y="53.4902">org.eclipse.epf.uma</text><line style="stroke: #A80036; stroke-width: 1.5;" x1="275.5" x2="574.5" y1="60.6875" y2="60.6875"/><ellipse cx="285.5" cy="71.6875" fill="#84BE84" rx="3" ry="3" style="stroke: #038048; stroke-width: 1.0;"/><text fill="#000000" font-family="sans-serif" font-size="11" font-style="italic" lengthAdjust="spacingAndGlyphs" textLength="177" x="294.5" y="76.1064">getVariabilityType(): VariabilityType</text><ellipse cx="285.5" cy="85.5234" fill="#84BE84" rx="3" ry="3" style="stroke: #038048; stroke-width: 1.0;"/><text fill="#000000" font-family="sans-serif" font-size="11" font-style="italic" lengthAdjust="spacingAndGlyphs" textLength="197" x="294.5" y="89.9424">setVariabilityType(VariabilityType): void</text><ellipse cx="285.5" cy="99.3594" fill="#84BE84" rx="3" ry="3" style="stroke: #038048; stroke-width: 1.0;"/><text fill="#000000" font-family="sans-serif" font-size="11" font-style="italic" lengthAdjust="spacingAndGlyphs" textLength="255" x="294.5" y="103.7783">getVariabilityBasedOnElement(): VariabilityElement</text><ellipse cx="285.5" cy="113.1953" fill="#84BE84" rx="3" ry="3" style="stroke: #038048; stroke-width: 1.0;"/><text fill="#000000" font-family="sans-serif" font-size="11" font-style="italic" lengthAdjust="spacingAndGlyphs" textLength="275" x="294.5" y="117.6143">setVariabilityBasedOnElement(VariabilityElement): void</text></a><!--MD5=[58b2f7d57b96e67d92fc714f430b12ef]
reverse link org.eclipse.epf.uma.DescribableElement to org.eclipse.epf.uma.ContentElement--><path codeLine="30" d="M185.19,154.22 C196.3,168.65 207.81,183.59 218.72,197.74 " fill="none" id="org.eclipse.epf.uma.DescribableElement-backto-org.eclipse.epf.uma.ContentElement" style="stroke: #A80036; stroke-width: 1.0;"/><polygon fill="none" points="179.52,158.34,172.86,138.22,190.61,149.79,179.52,158.34" style="stroke: #A80036; stroke-width: 1.0;"/><!--MD5=[808fb2eeb27454448af8cf6e10b6a73f]
reverse link org.eclipse.epf.uma.VariabilityElement to org.eclipse.epf.uma.ContentElement--><path codeLine="31" d="M373.16,140.78 C358.97,159.21 343.53,179.25 329.15,197.91 " fill="none" id="org.eclipse.epf.uma.VariabilityElement-backto-org.eclipse.epf.uma.ContentElement" style="stroke: #A80036; stroke-width: 1.0;"/><polygon fill="none" points="367.77,136.31,385.52,124.74,378.86,144.86,367.77,136.31" style="stroke: #A80036; stroke-width: 1.0;"/><text fill="#888888" font-family="sans-serif" font-size="10" lengthAdjust="spacingAndGlyphs" textLength="190" x="193.25" y="366.4199">UMLDoclet 2.0.12, PlantUML 1.2020.16</text><!--MD5=[d52351671f42be0bd578429b33611419]
@startuml
    set namespaceSeparator none
    hide empty fields
    hide empty methods

    interface "<size:14>ContentElement\n<size:10>org.eclipse.epf.uma" as org.eclipse.epf.uma.ContentElement [[ContentElement.html]] {
        {abstract} +getSupportingMaterials(): EList<SupportingMaterial>
        {abstract} +getConceptsAndPapers(): EList<Concept>
        {abstract} +getChecklists(): EList<Checklist>
        {abstract} +getGuidelines(): EList<Guideline>
        {abstract} +getExamples(): EList<Example>
        {abstract} +getAssets(): EList<ReusableAsset>
        {abstract} +getTermdefinition(): EList<TermDefinition>
    }

    interface "<size:14>DescribableElement\n<size:10>org.eclipse.epf.uma" as org.eclipse.epf.uma.DescribableElement [[DescribableElement.html]] {
        {abstract} +getPresentation(): ContentDescription
        {abstract} +setPresentation(ContentDescription): void
        {abstract} +getShapeicon(): URI
        {abstract} +setShapeicon(URI): void
        {abstract} +getNodeicon(): URI
        {abstract} +setNodeicon(URI): void
    }
    interface "<size:14>VariabilityElement\n<size:10>org.eclipse.epf.uma" as org.eclipse.epf.uma.VariabilityElement [[VariabilityElement.html]] {
        {abstract} +getVariabilityType(): VariabilityType
        {abstract} +setVariabilityType(VariabilityType): void
        {abstract} +getVariabilityBasedOnElement(): VariabilityElement
        {abstract} +setVariabilityBasedOnElement(VariabilityElement): void
    }

    org.eclipse.epf.uma.DescribableElement <|- - org.eclipse.epf.uma.ContentElement
    org.eclipse.epf.uma.VariabilityElement <|- - org.eclipse.epf.uma.ContentElement

    center footer UMLDoclet 2.0.12, PlantUML 1.2020.16
@enduml

PlantUML version 1.2020.16(Sun Aug 23 22:20:43 CEST 2020)
(APACHE source distribution)
Java Runtime: Java(TM) SE Runtime Environment
JVM: Java HotSpot(TM) 64-Bit Server VM
Default Encoding: Cp1252
Language: es
Country: ES
--></g></svg>