<?xml version="1.0" encoding="UTF-8" standalone="no"?><svg xmlns="http://www.w3.org/2000/svg" xmlns:xlink="http://www.w3.org/1999/xlink" contentScriptType="application/ecmascript" contentStyleType="text/css" height="269px" preserveAspectRatio="none" style="width:284px;height:269px;" version="1.1" viewBox="0 0 284 269" width="284px" zoomAndPan="magnify"><defs><filter height="300%" id="f16z6j7uke1yd6" width="300%" x="-1" y="-1"><feGaussianBlur result="blurOut" stdDeviation="2.0"/><feColorMatrix in="blurOut" result="blurOut2" type="matrix" values="0 0 0 0 0 0 0 0 0 0 0 0 0 0 0 0 0 0 .4 0"/><feOffset dx="4.0" dy="4.0" in="blurOut2" result="blurOut3"/><feBlend in="SourceGraphic" in2="blurOut3" mode="normal"/></filter></defs><g><!--MD5=[2668d661cfd6a682ca4047289b78ff74]
class org.eclipse.epf.uma.ContentPackage--><a href="ContentPackage.html" target="_top" title="ContentPackage.html" xlink:actuate="onRequest" xlink:href="ContentPackage.html" xlink:show="new" xlink:title="ContentPackage.html" xlink:type="simple"><rect codeLine="5" fill="#FEFECE" filter="url(#f16z6j7uke1yd6)" height="62.0234" id="org.eclipse.epf.uma.ContentPackage" style="stroke: #A80036; stroke-width: 1.5;" width="254" x="9" y="171"/><ellipse cx="78.75" cy="191.0938" fill="#B4A7E5" rx="11" ry="11" style="stroke: #A80036; stroke-width: 1.0;"/><path d="M79.7031,187.7344 L79.7031,194.3906 L81.4219,194.3906 Q82.0313,194.3906 82.2969,194.625 Q82.5625,194.8594 82.5625,195.25 Q82.5625,195.625 82.2969,195.8594 Q82.0313,196.0938 81.4219,196.0938 L76.2813,196.0938 Q75.6719,196.0938 75.4063,195.8594 Q75.1406,195.625 75.1406,195.2344 Q75.1406,194.8594 75.4063,194.625 Q75.6719,194.3906 76.2813,194.3906 L78,194.3906 L78,187.7344 L76.2813,187.7344 Q75.6719,187.7344 75.4063,187.5 Q75.1406,187.2656 75.1406,186.875 Q75.1406,186.5 75.4063,186.2656 Q75.6719,186.0313 76.2813,186.0313 L81.4219,186.0313 Q82.0313,186.0313 82.2969,186.2656 Q82.5625,186.5 82.5625,186.875 Q82.5625,187.2656 82.2969,187.5 Q82.0313,187.7344 81.4219,187.7344 L79.7031,187.7344 Z "/><text fill="#000000" font-family="sans-serif" font-size="14" font-style="italic" lengthAdjust="spacingAndGlyphs" textLength="106" x="99.25" y="190.5332">ContentPackage</text><text fill="#000000" font-family="sans-serif" font-size="10" font-style="italic" lengthAdjust="spacingAndGlyphs" textLength="92" x="106.25" y="203.9902">org.eclipse.epf.uma</text><line style="stroke: #A80036; stroke-width: 1.5;" x1="10" x2="262" y1="211.1875" y2="211.1875"/><ellipse cx="20" cy="222.1875" fill="#84BE84" rx="3" ry="3" style="stroke: #038048; stroke-width: 1.0;"/><text fill="#000000" font-family="sans-serif" font-size="11" font-style="italic" lengthAdjust="spacingAndGlyphs" textLength="228" x="29" y="226.6064">getContentElements(): EList&lt;ContentElement&gt;</text></a><!--MD5=[cba0e335ae3b4d789e4e1c56bc0cc12a]
class org.eclipse.epf.uma.MethodPackage--><a href="MethodPackage.html" target="_top" title="MethodPackage.html" xlink:actuate="onRequest" xlink:href="MethodPackage.html" xlink:show="new" xlink:title="MethodPackage.html" xlink:type="simple"><rect codeLine="9" fill="#FEFECE" filter="url(#f16z6j7uke1yd6)" height="103.5313" id="org.eclipse.epf.uma.MethodPackage" style="stroke: #A80036; stroke-width: 1.5;" width="258" x="7" y="7"/><ellipse cx="79.75" cy="27.0938" fill="#B4A7E5" rx="11" ry="11" style="stroke: #A80036; stroke-width: 1.0;"/><path d="M80.7031,23.7344 L80.7031,30.3906 L82.4219,30.3906 Q83.0313,30.3906 83.2969,30.625 Q83.5625,30.8594 83.5625,31.25 Q83.5625,31.625 83.2969,31.8594 Q83.0313,32.0938 82.4219,32.0938 L77.2813,32.0938 Q76.6719,32.0938 76.4063,31.8594 Q76.1406,31.625 76.1406,31.2344 Q76.1406,30.8594 76.4063,30.625 Q76.6719,30.3906 77.2813,30.3906 L79,30.3906 L79,23.7344 L77.2813,23.7344 Q76.6719,23.7344 76.4063,23.5 Q76.1406,23.2656 76.1406,22.875 Q76.1406,22.5 76.4063,22.2656 Q76.6719,22.0313 77.2813,22.0313 L82.4219,22.0313 Q83.0313,22.0313 83.2969,22.2656 Q83.5625,22.5 83.5625,22.875 Q83.5625,23.2656 83.2969,23.5 Q83.0313,23.7344 82.4219,23.7344 L80.7031,23.7344 Z "/><text fill="#000000" font-family="sans-serif" font-size="14" font-style="italic" lengthAdjust="spacingAndGlyphs" textLength="104" x="100.25" y="26.5332">MethodPackage</text><text fill="#000000" font-family="sans-serif" font-size="10" font-style="italic" lengthAdjust="spacingAndGlyphs" textLength="92" x="106.25" y="39.9902">org.eclipse.epf.uma</text><line style="stroke: #A80036; stroke-width: 1.5;" x1="8" x2="264" y1="47.1875" y2="47.1875"/><ellipse cx="18" cy="58.1875" fill="#84BE84" rx="3" ry="3" style="stroke: #038048; stroke-width: 1.0;"/><text fill="#000000" font-family="sans-serif" font-size="11" font-style="italic" lengthAdjust="spacingAndGlyphs" textLength="103" x="27" y="62.6064">getGlobal(): Boolean</text><ellipse cx="18" cy="72.0234" fill="#84BE84" rx="3" ry="3" style="stroke: #038048; stroke-width: 1.0;"/><text fill="#000000" font-family="sans-serif" font-size="11" font-style="italic" lengthAdjust="spacingAndGlyphs" textLength="123" x="27" y="76.4424">setGlobal(Boolean): void</text><ellipse cx="18" cy="85.8594" fill="#84BE84" rx="3" ry="3" style="stroke: #038048; stroke-width: 1.0;"/><text fill="#000000" font-family="sans-serif" font-size="11" font-style="italic" lengthAdjust="spacingAndGlyphs" textLength="232" x="27" y="90.2783">getReusedPackages(): EList&lt;MethodPackage&gt;</text><ellipse cx="18" cy="99.6953" fill="#84BE84" rx="3" ry="3" style="stroke: #038048; stroke-width: 1.0;"/><text fill="#000000" font-family="sans-serif" font-size="11" font-style="italic" lengthAdjust="spacingAndGlyphs" textLength="220" x="27" y="104.1143">getChildPackages(): EList&lt;MethodPackage&gt;</text></a><!--MD5=[31e3acba5fb56a1979ccfce4ffa47000]
reverse link org.eclipse.epf.uma.MethodPackage to org.eclipse.epf.uma.ContentPackage--><path codeLine="16" d="M136,131.46 C136,145.36 136,159.22 136,170.86 " fill="none" id="org.eclipse.epf.uma.MethodPackage-backto-org.eclipse.epf.uma.ContentPackage" style="stroke: #A80036; stroke-width: 1.0;"/><polygon fill="none" points="129,131.3,136,111.3,143,131.3,129,131.3" style="stroke: #A80036; stroke-width: 1.0;"/><text fill="#888888" font-family="sans-serif" font-size="10" lengthAdjust="spacingAndGlyphs" textLength="190" x="38" y="256.4043">UMLDoclet 2.0.12, PlantUML 1.2020.16</text><!--MD5=[c89cf9f79b05933a0482bea453891b9f]
@startuml
    set namespaceSeparator none
    hide empty fields
    hide empty methods

    interface "<size:14>ContentPackage\n<size:10>org.eclipse.epf.uma" as org.eclipse.epf.uma.ContentPackage [[ContentPackage.html]] {
        {abstract} +getContentElements(): EList<ContentElement>
    }

    interface "<size:14>MethodPackage\n<size:10>org.eclipse.epf.uma" as org.eclipse.epf.uma.MethodPackage [[MethodPackage.html]] {
        {abstract} +getGlobal(): Boolean
        {abstract} +setGlobal(Boolean): void
        {abstract} +getReusedPackages(): EList<MethodPackage>
        {abstract} +getChildPackages(): EList<MethodPackage>
    }

    org.eclipse.epf.uma.MethodPackage <|- - org.eclipse.epf.uma.ContentPackage

    center footer UMLDoclet 2.0.12, PlantUML 1.2020.16
@enduml

PlantUML version 1.2020.16(Sun Aug 23 22:20:43 CEST 2020)
(APACHE source distribution)
Java Runtime: Java(TM) SE Runtime Environment
JVM: Java HotSpot(TM) 64-Bit Server VM
Default Encoding: Cp1252
Language: es
Country: ES
--></g></svg>