<?xml version="1.0" encoding="UTF-8" standalone="no"?><svg xmlns="http://www.w3.org/2000/svg" xmlns:xlink="http://www.w3.org/1999/xlink" contentScriptType="application/ecmascript" contentStyleType="text/css" height="289px" preserveAspectRatio="none" style="width:310px;height:289px;" version="1.1" viewBox="0 0 310 289" width="310px" zoomAndPan="magnify"><defs><filter height="300%" id="f14iyr7mvnjcb3" width="300%" x="-1" y="-1"><feGaussianBlur result="blurOut" stdDeviation="2.0"/><feColorMatrix in="blurOut" result="blurOut2" type="matrix" values="0 0 0 0 0 0 0 0 0 0 0 0 0 0 0 0 0 0 .4 0"/><feOffset dx="4.0" dy="4.0" in="blurOut2" result="blurOut3"/><feBlend in="SourceGraphic" in2="blurOut3" mode="normal"/></filter></defs><g><!--MD5=[2ebf6b6b3a1faf8ff26b4d3cb3d8aa6c]
class org.eclipse.epf.uma.ContentCategory--><a href="ContentCategory.html" target="_top" title="ContentCategory.html" xlink:actuate="onRequest" xlink:href="ContentCategory.html" xlink:show="new" xlink:title="ContentCategory.html" xlink:type="simple"><rect codeLine="5" fill="#FEFECE" filter="url(#f14iyr7mvnjcb3)" height="40.1875" id="org.eclipse.epf.uma.ContentCategory" style="stroke: #A80036; stroke-width: 1.5;" width="140" x="79" y="212"/><ellipse cx="94" cy="232.0938" fill="#B4A7E5" rx="11" ry="11" style="stroke: #A80036; stroke-width: 1.0;"/><path d="M94.9531,228.7344 L94.9531,235.3906 L96.6719,235.3906 Q97.2813,235.3906 97.5469,235.625 Q97.8125,235.8594 97.8125,236.25 Q97.8125,236.625 97.5469,236.8594 Q97.2813,237.0938 96.6719,237.0938 L91.5313,237.0938 Q90.9219,237.0938 90.6563,236.8594 Q90.3906,236.625 90.3906,236.2344 Q90.3906,235.8594 90.6563,235.625 Q90.9219,235.3906 91.5313,235.3906 L93.25,235.3906 L93.25,228.7344 L91.5313,228.7344 Q90.9219,228.7344 90.6563,228.5 Q90.3906,228.2656 90.3906,227.875 Q90.3906,227.5 90.6563,227.2656 Q90.9219,227.0313 91.5313,227.0313 L96.6719,227.0313 Q97.2813,227.0313 97.5469,227.2656 Q97.8125,227.5 97.8125,227.875 Q97.8125,228.2656 97.5469,228.5 Q97.2813,228.7344 96.6719,228.7344 L94.9531,228.7344 Z "/><text fill="#000000" font-family="sans-serif" font-size="14" font-style="italic" lengthAdjust="spacingAndGlyphs" textLength="108" x="108" y="231.5332">ContentCategory</text><text fill="#000000" font-family="sans-serif" font-size="10" font-style="italic" lengthAdjust="spacingAndGlyphs" textLength="92" x="116" y="244.9902">org.eclipse.epf.uma</text></a><!--MD5=[13c5eb85a3ca1cf746cc47e30073ec20]
class org.eclipse.epf.uma.ContentElement--><a href="ContentElement.html" target="_top" title="ContentElement.html" xlink:actuate="onRequest" xlink:href="ContentElement.html" xlink:show="new" xlink:title="ContentElement.html" xlink:type="simple"><rect codeLine="7" fill="#FEFECE" filter="url(#f14iyr7mvnjcb3)" height="145.0391" id="org.eclipse.epf.uma.ContentElement" style="stroke: #A80036; stroke-width: 1.5;" width="284" x="7" y="7"/><ellipse cx="94.25" cy="27.0938" fill="#B4A7E5" rx="11" ry="11" style="stroke: #A80036; stroke-width: 1.0;"/><path d="M95.2031,23.7344 L95.2031,30.3906 L96.9219,30.3906 Q97.5313,30.3906 97.7969,30.625 Q98.0625,30.8594 98.0625,31.25 Q98.0625,31.625 97.7969,31.8594 Q97.5313,32.0938 96.9219,32.0938 L91.7813,32.0938 Q91.1719,32.0938 90.9063,31.8594 Q90.6406,31.625 90.6406,31.2344 Q90.6406,30.8594 90.9063,30.625 Q91.1719,30.3906 91.7813,30.3906 L93.5,30.3906 L93.5,23.7344 L91.7813,23.7344 Q91.1719,23.7344 90.9063,23.5 Q90.6406,23.2656 90.6406,22.875 Q90.6406,22.5 90.9063,22.2656 Q91.1719,22.0313 91.7813,22.0313 L96.9219,22.0313 Q97.5313,22.0313 97.7969,22.2656 Q98.0625,22.5 98.0625,22.875 Q98.0625,23.2656 97.7969,23.5 Q97.5313,23.7344 96.9219,23.7344 L95.2031,23.7344 Z "/><text fill="#000000" font-family="sans-serif" font-size="14" font-style="italic" lengthAdjust="spacingAndGlyphs" textLength="101" x="114.75" y="26.5332">ContentElement</text><text fill="#000000" font-family="sans-serif" font-size="10" font-style="italic" lengthAdjust="spacingAndGlyphs" textLength="92" x="119.25" y="39.9902">org.eclipse.epf.uma</text><line style="stroke: #A80036; stroke-width: 1.5;" x1="8" x2="290" y1="47.1875" y2="47.1875"/><ellipse cx="18" cy="58.1875" fill="#84BE84" rx="3" ry="3" style="stroke: #038048; stroke-width: 1.0;"/><text fill="#000000" font-family="sans-serif" font-size="11" font-style="italic" lengthAdjust="spacingAndGlyphs" textLength="258" x="27" y="62.6064">getSupportingMaterials(): EList&lt;SupportingMaterial&gt;</text><ellipse cx="18" cy="72.0234" fill="#84BE84" rx="3" ry="3" style="stroke: #038048; stroke-width: 1.0;"/><text fill="#000000" font-family="sans-serif" font-size="11" font-style="italic" lengthAdjust="spacingAndGlyphs" textLength="208" x="27" y="76.4424">getConceptsAndPapers(): EList&lt;Concept&gt;</text><ellipse cx="18" cy="85.8594" fill="#84BE84" rx="3" ry="3" style="stroke: #038048; stroke-width: 1.0;"/><text fill="#000000" font-family="sans-serif" font-size="11" font-style="italic" lengthAdjust="spacingAndGlyphs" textLength="166" x="27" y="90.2783">getChecklists(): EList&lt;Checklist&gt;</text><ellipse cx="18" cy="99.6953" fill="#84BE84" rx="3" ry="3" style="stroke: #038048; stroke-width: 1.0;"/><text fill="#000000" font-family="sans-serif" font-size="11" font-style="italic" lengthAdjust="spacingAndGlyphs" textLength="168" x="27" y="104.1143">getGuidelines(): EList&lt;Guideline&gt;</text><ellipse cx="18" cy="113.5313" fill="#84BE84" rx="3" ry="3" style="stroke: #038048; stroke-width: 1.0;"/><text fill="#000000" font-family="sans-serif" font-size="11" font-style="italic" lengthAdjust="spacingAndGlyphs" textLength="158" x="27" y="117.9502">getExamples(): EList&lt;Example&gt;</text><ellipse cx="18" cy="127.3672" fill="#84BE84" rx="3" ry="3" style="stroke: #038048; stroke-width: 1.0;"/><text fill="#000000" font-family="sans-serif" font-size="11" font-style="italic" lengthAdjust="spacingAndGlyphs" textLength="176" x="27" y="131.7861">getAssets(): EList&lt;ReusableAsset&gt;</text><ellipse cx="18" cy="141.2031" fill="#84BE84" rx="3" ry="3" style="stroke: #038048; stroke-width: 1.0;"/><text fill="#000000" font-family="sans-serif" font-size="11" font-style="italic" lengthAdjust="spacingAndGlyphs" textLength="210" x="27" y="145.6221">getTermdefinition(): EList&lt;TermDefinition&gt;</text></a><!--MD5=[93838e56ef9c4d45bfa941655d1ea1bf]
reverse link org.eclipse.epf.uma.ContentElement to org.eclipse.epf.uma.ContentCategory--><path codeLine="17" d="M149,172.44 C149,187.3 149,201.25 149,211.8 " fill="none" id="org.eclipse.epf.uma.ContentElement-backto-org.eclipse.epf.uma.ContentCategory" style="stroke: #A80036; stroke-width: 1.0;"/><polygon fill="none" points="142,172.22,149,152.22,156,172.22,142,172.22" style="stroke: #A80036; stroke-width: 1.0;"/><text fill="#888888" font-family="sans-serif" font-size="10" lengthAdjust="spacingAndGlyphs" textLength="190" x="51" y="275.5684">UMLDoclet 2.0.12, PlantUML 1.2020.16</text><!--MD5=[9b0ee163ef87331414c353e9744b168f]
@startuml
    set namespaceSeparator none
    hide empty fields
    hide empty methods

    interface "<size:14>ContentCategory\n<size:10>org.eclipse.epf.uma" as org.eclipse.epf.uma.ContentCategory [[ContentCategory.html]]

    interface "<size:14>ContentElement\n<size:10>org.eclipse.epf.uma" as org.eclipse.epf.uma.ContentElement [[ContentElement.html]] {
        {abstract} +getSupportingMaterials(): EList<SupportingMaterial>
        {abstract} +getConceptsAndPapers(): EList<Concept>
        {abstract} +getChecklists(): EList<Checklist>
        {abstract} +getGuidelines(): EList<Guideline>
        {abstract} +getExamples(): EList<Example>
        {abstract} +getAssets(): EList<ReusableAsset>
        {abstract} +getTermdefinition(): EList<TermDefinition>
    }

    org.eclipse.epf.uma.ContentElement <|- - org.eclipse.epf.uma.ContentCategory

    center footer UMLDoclet 2.0.12, PlantUML 1.2020.16
@enduml

PlantUML version 1.2020.16(Sun Aug 23 22:20:43 CEST 2020)
(APACHE source distribution)
Java Runtime: Java(TM) SE Runtime Environment
JVM: Java HotSpot(TM) 64-Bit Server VM
Default Encoding: Cp1252
Language: es
Country: ES
--></g></svg>