<?xml version="1.0" encoding="UTF-8" standalone="no"?><svg xmlns="http://www.w3.org/2000/svg" xmlns:xlink="http://www.w3.org/1999/xlink" contentScriptType="application/ecmascript" contentStyleType="text/css" height="310px" preserveAspectRatio="none" style="width:243px;height:310px;" version="1.1" viewBox="0 0 243 310" width="243px" zoomAndPan="magnify"><defs><filter height="300%" id="f19fupqn4tjt0h" width="300%" x="-1" y="-1"><feGaussianBlur result="blurOut" stdDeviation="2.0"/><feColorMatrix in="blurOut" result="blurOut2" type="matrix" values="0 0 0 0 0 0 0 0 0 0 0 0 0 0 0 0 0 0 .4 0"/><feOffset dx="4.0" dy="4.0" in="blurOut2" result="blurOut3"/><feBlend in="SourceGraphic" in2="blurOut3" mode="normal"/></filter></defs><g><!--MD5=[dde7f14f796f0ebd314cc48d62ba4a9c]
class org.eclipse.epf.uma.CoreSemanticModelBridge--><a href="CoreSemanticModelBridge.html" target="_top" title="CoreSemanticModelBridge.html" xlink:actuate="onRequest" xlink:href="CoreSemanticModelBridge.html" xlink:show="new" xlink:title="CoreSemanticModelBridge.html" xlink:type="simple"><rect codeLine="5" fill="#FEFECE" filter="url(#f19fupqn4tjt0h)" height="75.8594" id="org.eclipse.epf.uma.CoreSemanticModelBridge" style="stroke: #A80036; stroke-width: 1.5;" width="201" x="15" y="198"/><ellipse cx="30" cy="218.0938" fill="#B4A7E5" rx="11" ry="11" style="stroke: #A80036; stroke-width: 1.0;"/><path d="M30.9531,214.7344 L30.9531,221.3906 L32.6719,221.3906 Q33.2813,221.3906 33.5469,221.625 Q33.8125,221.8594 33.8125,222.25 Q33.8125,222.625 33.5469,222.8594 Q33.2813,223.0938 32.6719,223.0938 L27.5313,223.0938 Q26.9219,223.0938 26.6563,222.8594 Q26.3906,222.625 26.3906,222.2344 Q26.3906,221.8594 26.6563,221.625 Q26.9219,221.3906 27.5313,221.3906 L29.25,221.3906 L29.25,214.7344 L27.5313,214.7344 Q26.9219,214.7344 26.6563,214.5 Q26.3906,214.2656 26.3906,213.875 Q26.3906,213.5 26.6563,213.2656 Q26.9219,213.0313 27.5313,213.0313 L32.6719,213.0313 Q33.2813,213.0313 33.5469,213.2656 Q33.8125,213.5 33.8125,213.875 Q33.8125,214.2656 33.5469,214.5 Q33.2813,214.7344 32.6719,214.7344 L30.9531,214.7344 Z "/><text fill="#000000" font-family="sans-serif" font-size="14" font-style="italic" lengthAdjust="spacingAndGlyphs" textLength="169" x="44" y="217.5332">CoreSemanticModelBridge</text><text fill="#000000" font-family="sans-serif" font-size="10" font-style="italic" lengthAdjust="spacingAndGlyphs" textLength="92" x="82.5" y="230.9902">org.eclipse.epf.uma</text><line style="stroke: #A80036; stroke-width: 1.5;" x1="16" x2="215" y1="238.1875" y2="238.1875"/><ellipse cx="26" cy="249.1875" fill="#84BE84" rx="3" ry="3" style="stroke: #038048; stroke-width: 1.0;"/><text fill="#000000" font-family="sans-serif" font-size="11" font-style="italic" lengthAdjust="spacingAndGlyphs" textLength="109" x="35" y="253.6064">getElement(): Element</text><ellipse cx="26" cy="263.0234" fill="#84BE84" rx="3" ry="3" style="stroke: #038048; stroke-width: 1.0;"/><text fill="#000000" font-family="sans-serif" font-size="11" font-style="italic" lengthAdjust="spacingAndGlyphs" textLength="129" x="35" y="267.4424">setElement(Element): void</text></a><!--MD5=[53d8060f41800ba002e0cbe7768d6809]
class org.eclipse.epf.uma.SemanticModelBridge--><a href="SemanticModelBridge.html" target="_top" title="SemanticModelBridge.html" xlink:actuate="onRequest" xlink:href="SemanticModelBridge.html" xlink:show="new" xlink:title="SemanticModelBridge.html" xlink:type="simple"><rect codeLine="10" fill="#FEFECE" filter="url(#f19fupqn4tjt0h)" height="131.2031" id="org.eclipse.epf.uma.SemanticModelBridge" style="stroke: #A80036; stroke-width: 1.5;" width="217" x="7" y="7"/><ellipse cx="43.15" cy="27.0938" fill="#B4A7E5" rx="11" ry="11" style="stroke: #A80036; stroke-width: 1.0;"/><path d="M44.1031,23.7344 L44.1031,30.3906 L45.8219,30.3906 Q46.4313,30.3906 46.6969,30.625 Q46.9625,30.8594 46.9625,31.25 Q46.9625,31.625 46.6969,31.8594 Q46.4313,32.0938 45.8219,32.0938 L40.6813,32.0938 Q40.0719,32.0938 39.8063,31.8594 Q39.5406,31.625 39.5406,31.2344 Q39.5406,30.8594 39.8063,30.625 Q40.0719,30.3906 40.6813,30.3906 L42.4,30.3906 L42.4,23.7344 L40.6813,23.7344 Q40.0719,23.7344 39.8063,23.5 Q39.5406,23.2656 39.5406,22.875 Q39.5406,22.5 39.8063,22.2656 Q40.0719,22.0313 40.6813,22.0313 L45.8219,22.0313 Q46.4313,22.0313 46.6969,22.2656 Q46.9625,22.5 46.9625,22.875 Q46.9625,23.2656 46.6969,23.5 Q46.4313,23.7344 45.8219,23.7344 L44.1031,23.7344 Z "/><text fill="#000000" font-family="sans-serif" font-size="14" font-style="italic" lengthAdjust="spacingAndGlyphs" textLength="138" x="61.85" y="26.5332">SemanticModelBridge</text><text fill="#000000" font-family="sans-serif" font-size="10" font-style="italic" lengthAdjust="spacingAndGlyphs" textLength="92" x="84.85" y="39.9902">org.eclipse.epf.uma</text><line style="stroke: #A80036; stroke-width: 1.5;" x1="8" x2="223" y1="47.1875" y2="47.1875"/><ellipse cx="18" cy="58.1875" fill="#84BE84" rx="3" ry="3" style="stroke: #038048; stroke-width: 1.0;"/><text fill="#000000" font-family="sans-serif" font-size="11" font-style="italic" lengthAdjust="spacingAndGlyphs" textLength="120" x="27" y="62.6064">getPresentation(): String</text><ellipse cx="18" cy="72.0234" fill="#84BE84" rx="3" ry="3" style="stroke: #038048; stroke-width: 1.0;"/><text fill="#000000" font-family="sans-serif" font-size="11" font-style="italic" lengthAdjust="spacingAndGlyphs" textLength="140" x="27" y="76.4424">setPresentation(String): void</text><ellipse cx="18" cy="85.8594" fill="#84BE84" rx="3" ry="3" style="stroke: #038048; stroke-width: 1.0;"/><text fill="#000000" font-family="sans-serif" font-size="11" font-style="italic" lengthAdjust="spacingAndGlyphs" textLength="113" x="27" y="90.2783">getDiagram(): Diagram</text><ellipse cx="18" cy="99.6953" fill="#84BE84" rx="3" ry="3" style="stroke: #038048; stroke-width: 1.0;"/><text fill="#000000" font-family="sans-serif" font-size="11" font-style="italic" lengthAdjust="spacingAndGlyphs" textLength="133" x="27" y="104.1143">setDiagram(Diagram): void</text><ellipse cx="18" cy="113.5313" fill="#84BE84" rx="3" ry="3" style="stroke: #038048; stroke-width: 1.0;"/><text fill="#000000" font-family="sans-serif" font-size="11" font-style="italic" lengthAdjust="spacingAndGlyphs" textLength="171" x="27" y="117.9502">getGraphElement(): GraphElement</text><ellipse cx="18" cy="127.3672" fill="#84BE84" rx="3" ry="3" style="stroke: #038048; stroke-width: 1.0;"/><text fill="#000000" font-family="sans-serif" font-size="11" font-style="italic" lengthAdjust="spacingAndGlyphs" textLength="191" x="27" y="131.7861">setGraphElement(GraphElement): void</text></a><!--MD5=[8a9036a0967b89dc87e1cfe59a100faa]
reverse link org.eclipse.epf.uma.SemanticModelBridge to org.eclipse.epf.uma.CoreSemanticModelBridge--><path codeLine="19" d="M115.5,158.39 C115.5,172.17 115.5,185.8 115.5,197.65 " fill="none" id="org.eclipse.epf.uma.SemanticModelBridge-backto-org.eclipse.epf.uma.CoreSemanticModelBridge" style="stroke: #A80036; stroke-width: 1.0;"/><polygon fill="none" points="108.5,158.26,115.5,138.26,122.5,158.26,108.5,158.26" style="stroke: #A80036; stroke-width: 1.0;"/><text fill="#888888" font-family="sans-serif" font-size="10" lengthAdjust="spacingAndGlyphs" textLength="190" x="17.5" y="297.2402">UMLDoclet 2.0.12, PlantUML 1.2020.16</text><!--MD5=[d8fd941a919e8475acada26ce90a6688]
@startuml
    set namespaceSeparator none
    hide empty fields
    hide empty methods

    interface "<size:14>CoreSemanticModelBridge\n<size:10>org.eclipse.epf.uma" as org.eclipse.epf.uma.CoreSemanticModelBridge [[CoreSemanticModelBridge.html]] {
        {abstract} +getElement(): Element
        {abstract} +setElement(Element): void
    }

    interface "<size:14>SemanticModelBridge\n<size:10>org.eclipse.epf.uma" as org.eclipse.epf.uma.SemanticModelBridge [[SemanticModelBridge.html]] {
        {abstract} +getPresentation(): String
        {abstract} +setPresentation(String): void
        {abstract} +getDiagram(): Diagram
        {abstract} +setDiagram(Diagram): void
        {abstract} +getGraphElement(): GraphElement
        {abstract} +setGraphElement(GraphElement): void
    }

    org.eclipse.epf.uma.SemanticModelBridge <|- - org.eclipse.epf.uma.CoreSemanticModelBridge

    center footer UMLDoclet 2.0.12, PlantUML 1.2020.16
@enduml

PlantUML version 1.2020.16(Sun Aug 23 22:20:43 CEST 2020)
(APACHE source distribution)
Java Runtime: Java(TM) SE Runtime Environment
JVM: Java HotSpot(TM) 64-Bit Server VM
Default Encoding: Cp1252
Language: es
Country: ES
--></g></svg>