<?xml version="1.0" encoding="UTF-8" standalone="no"?><svg xmlns="http://www.w3.org/2000/svg" xmlns:xlink="http://www.w3.org/1999/xlink" contentScriptType="application/ecmascript" contentStyleType="text/css" height="219px" preserveAspectRatio="none" style="width:326px;height:219px;" version="1.1" viewBox="0 0 326 219" width="326px" zoomAndPan="magnify"><defs><filter height="300%" id="fcdbzn1mfaglf" width="300%" x="-1" y="-1"><feGaussianBlur result="blurOut" stdDeviation="2.0"/><feColorMatrix in="blurOut" result="blurOut2" type="matrix" values="0 0 0 0 0 0 0 0 0 0 0 0 0 0 0 0 0 0 .4 0"/><feOffset dx="4.0" dy="4.0" in="blurOut2" result="blurOut3"/><feBlend in="SourceGraphic" in2="blurOut3" mode="normal"/></filter></defs><g><!--MD5=[e8d5ce743153d35ba59d7ffdbf4c7098]
class org.eclipse.epf.uma.CustomCategory--><a href="CustomCategory.html" target="_top" title="CustomCategory.html" xlink:actuate="onRequest" xlink:href="CustomCategory.html" xlink:show="new" xlink:title="CustomCategory.html" xlink:type="simple"><rect codeLine="5" fill="#FEFECE" filter="url(#fcdbzn1mfaglf)" height="75.8594" id="org.eclipse.epf.uma.CustomCategory" style="stroke: #A80036; stroke-width: 1.5;" width="300" x="7" y="107"/><ellipse cx="99.75" cy="127.0938" fill="#B4A7E5" rx="11" ry="11" style="stroke: #A80036; stroke-width: 1.0;"/><path d="M100.7031,123.7344 L100.7031,130.3906 L102.4219,130.3906 Q103.0313,130.3906 103.2969,130.625 Q103.5625,130.8594 103.5625,131.25 Q103.5625,131.625 103.2969,131.8594 Q103.0313,132.0938 102.4219,132.0938 L97.2813,132.0938 Q96.6719,132.0938 96.4063,131.8594 Q96.1406,131.625 96.1406,131.2344 Q96.1406,130.8594 96.4063,130.625 Q96.6719,130.3906 97.2813,130.3906 L99,130.3906 L99,123.7344 L97.2813,123.7344 Q96.6719,123.7344 96.4063,123.5 Q96.1406,123.2656 96.1406,122.875 Q96.1406,122.5 96.4063,122.2656 Q96.6719,122.0313 97.2813,122.0313 L102.4219,122.0313 Q103.0313,122.0313 103.2969,122.2656 Q103.5625,122.5 103.5625,122.875 Q103.5625,123.2656 103.2969,123.5 Q103.0313,123.7344 102.4219,123.7344 L100.7031,123.7344 Z "/><text fill="#000000" font-family="sans-serif" font-size="14" font-style="italic" lengthAdjust="spacingAndGlyphs" textLength="106" x="120.25" y="126.5332">CustomCategory</text><text fill="#000000" font-family="sans-serif" font-size="10" font-style="italic" lengthAdjust="spacingAndGlyphs" textLength="92" x="127.25" y="139.9902">org.eclipse.epf.uma</text><line style="stroke: #A80036; stroke-width: 1.5;" x1="8" x2="306" y1="147.1875" y2="147.1875"/><ellipse cx="18" cy="158.1875" fill="#84BE84" rx="3" ry="3" style="stroke: #038048; stroke-width: 1.0;"/><text fill="#000000" font-family="sans-serif" font-size="11" font-style="italic" lengthAdjust="spacingAndGlyphs" textLength="274" x="27" y="162.6064">getCategorizedElements(): EList&lt;DescribableElement&gt;</text><ellipse cx="18" cy="172.0234" fill="#84BE84" rx="3" ry="3" style="stroke: #038048; stroke-width: 1.0;"/><text fill="#000000" font-family="sans-serif" font-size="11" font-style="italic" lengthAdjust="spacingAndGlyphs" textLength="222" x="27" y="176.4424">getSubCategories(): EList&lt;ContentCategory&gt;</text></a><!--MD5=[2ebf6b6b3a1faf8ff26b4d3cb3d8aa6c]
class org.eclipse.epf.uma.ContentCategory--><a href="ContentCategory.html" target="_top" title="ContentCategory.html" xlink:actuate="onRequest" xlink:href="ContentCategory.html" xlink:show="new" xlink:title="ContentCategory.html" xlink:type="simple"><rect codeLine="10" fill="#FEFECE" filter="url(#fcdbzn1mfaglf)" height="40.1875" id="org.eclipse.epf.uma.ContentCategory" style="stroke: #A80036; stroke-width: 1.5;" width="140" x="87" y="7"/><ellipse cx="102" cy="27.0938" fill="#B4A7E5" rx="11" ry="11" style="stroke: #A80036; stroke-width: 1.0;"/><path d="M102.9531,23.7344 L102.9531,30.3906 L104.6719,30.3906 Q105.2813,30.3906 105.5469,30.625 Q105.8125,30.8594 105.8125,31.25 Q105.8125,31.625 105.5469,31.8594 Q105.2813,32.0938 104.6719,32.0938 L99.5313,32.0938 Q98.9219,32.0938 98.6563,31.8594 Q98.3906,31.625 98.3906,31.2344 Q98.3906,30.8594 98.6563,30.625 Q98.9219,30.3906 99.5313,30.3906 L101.25,30.3906 L101.25,23.7344 L99.5313,23.7344 Q98.9219,23.7344 98.6563,23.5 Q98.3906,23.2656 98.3906,22.875 Q98.3906,22.5 98.6563,22.2656 Q98.9219,22.0313 99.5313,22.0313 L104.6719,22.0313 Q105.2813,22.0313 105.5469,22.2656 Q105.8125,22.5 105.8125,22.875 Q105.8125,23.2656 105.5469,23.5 Q105.2813,23.7344 104.6719,23.7344 L102.9531,23.7344 Z "/><text fill="#000000" font-family="sans-serif" font-size="14" font-style="italic" lengthAdjust="spacingAndGlyphs" textLength="108" x="116" y="26.5332">ContentCategory</text><text fill="#000000" font-family="sans-serif" font-size="10" font-style="italic" lengthAdjust="spacingAndGlyphs" textLength="92" x="124" y="39.9902">org.eclipse.epf.uma</text></a><!--MD5=[7592aeafc6f3613ef941d1a228817d3b]
reverse link org.eclipse.epf.uma.ContentCategory to org.eclipse.epf.uma.CustomCategory--><path codeLine="12" d="M157,67.49 C157,80.27 157,94.39 157,106.99 " fill="none" id="org.eclipse.epf.uma.ContentCategory-backto-org.eclipse.epf.uma.CustomCategory" style="stroke: #A80036; stroke-width: 1.0;"/><polygon fill="none" points="150,67.16,157,47.16,164,67.16,150,67.16" style="stroke: #A80036; stroke-width: 1.0;"/><text fill="#888888" font-family="sans-serif" font-size="10" lengthAdjust="spacingAndGlyphs" textLength="190" x="59" y="206.2402">UMLDoclet 2.0.12, PlantUML 1.2020.16</text><!--MD5=[8b0752921b3876cd902972139cc30411]
@startuml
    set namespaceSeparator none
    hide empty fields
    hide empty methods

    interface "<size:14>CustomCategory\n<size:10>org.eclipse.epf.uma" as org.eclipse.epf.uma.CustomCategory [[CustomCategory.html]] {
        {abstract} +getCategorizedElements(): EList<DescribableElement>
        {abstract} +getSubCategories(): EList<ContentCategory>
    }

    interface "<size:14>ContentCategory\n<size:10>org.eclipse.epf.uma" as org.eclipse.epf.uma.ContentCategory [[ContentCategory.html]]

    org.eclipse.epf.uma.ContentCategory <|- - org.eclipse.epf.uma.CustomCategory

    center footer UMLDoclet 2.0.12, PlantUML 1.2020.16
@enduml

PlantUML version 1.2020.16(Sun Aug 23 22:20:43 CEST 2020)
(APACHE source distribution)
Java Runtime: Java(TM) SE Runtime Environment
JVM: Java HotSpot(TM) 64-Bit Server VM
Default Encoding: Cp1252
Language: es
Country: ES
--></g></svg>