<?xml version="1.0" encoding="UTF-8" standalone="no"?><svg xmlns="http://www.w3.org/2000/svg" xmlns:xlink="http://www.w3.org/1999/xlink" contentScriptType="application/ecmascript" contentStyleType="text/css" height="338px" preserveAspectRatio="none" style="width:249px;height:338px;" version="1.1" viewBox="0 0 249 338" width="249px" zoomAndPan="magnify"><defs><filter height="300%" id="f19tw3tn1z5aa1" width="300%" x="-1" y="-1"><feGaussianBlur result="blurOut" stdDeviation="2.0"/><feColorMatrix in="blurOut" result="blurOut2" type="matrix" values="0 0 0 0 0 0 0 0 0 0 0 0 0 0 0 0 0 0 .4 0"/><feOffset dx="4.0" dy="4.0" in="blurOut2" result="blurOut3"/><feBlend in="SourceGraphic" in2="blurOut3" mode="normal"/></filter></defs><g><!--MD5=[1a19e4c8bced7b830ed66c6cce09a044]
class org.eclipse.epf.uma.DeliverableDescription--><a href="DeliverableDescription.html" target="_top" title="DeliverableDescription.html" xlink:actuate="onRequest" xlink:href="DeliverableDescription.html" xlink:show="new" xlink:title="DeliverableDescription.html" xlink:type="simple"><rect codeLine="5" fill="#FEFECE" filter="url(#f19tw3tn1z5aa1)" height="103.5313" id="org.eclipse.epf.uma.DeliverableDescription" style="stroke: #A80036; stroke-width: 1.5;" width="204" x="16.5" y="198"/><ellipse cx="45.45" cy="218.0938" fill="#B4A7E5" rx="11" ry="11" style="stroke: #A80036; stroke-width: 1.0;"/><path d="M46.4031,214.7344 L46.4031,221.3906 L48.1219,221.3906 Q48.7313,221.3906 48.9969,221.625 Q49.2625,221.8594 49.2625,222.25 Q49.2625,222.625 48.9969,222.8594 Q48.7313,223.0938 48.1219,223.0938 L42.9813,223.0938 Q42.3719,223.0938 42.1063,222.8594 Q41.8406,222.625 41.8406,222.2344 Q41.8406,221.8594 42.1063,221.625 Q42.3719,221.3906 42.9813,221.3906 L44.7,221.3906 L44.7,214.7344 L42.9813,214.7344 Q42.3719,214.7344 42.1063,214.5 Q41.8406,214.2656 41.8406,213.875 Q41.8406,213.5 42.1063,213.2656 Q42.3719,213.0313 42.9813,213.0313 L48.1219,213.0313 Q48.7313,213.0313 48.9969,213.2656 Q49.2625,213.5 49.2625,213.875 Q49.2625,214.2656 48.9969,214.5 Q48.7313,214.7344 48.1219,214.7344 L46.4031,214.7344 Z "/><text fill="#000000" font-family="sans-serif" font-size="14" font-style="italic" lengthAdjust="spacingAndGlyphs" textLength="141" x="62.55" y="217.5332">DeliverableDescription</text><text fill="#000000" font-family="sans-serif" font-size="10" font-style="italic" lengthAdjust="spacingAndGlyphs" textLength="92" x="87.05" y="230.9902">org.eclipse.epf.uma</text><line style="stroke: #A80036; stroke-width: 1.5;" x1="17.5" x2="219.5" y1="238.1875" y2="238.1875"/><ellipse cx="27.5" cy="249.1875" fill="#84BE84" rx="3" ry="3" style="stroke: #038048; stroke-width: 1.0;"/><text fill="#000000" font-family="sans-serif" font-size="11" font-style="italic" lengthAdjust="spacingAndGlyphs" textLength="156" x="36.5" y="253.6064">getExternalDescription(): String</text><ellipse cx="27.5" cy="263.0234" fill="#84BE84" rx="3" ry="3" style="stroke: #038048; stroke-width: 1.0;"/><text fill="#000000" font-family="sans-serif" font-size="11" font-style="italic" lengthAdjust="spacingAndGlyphs" textLength="176" x="36.5" y="267.4424">setExternalDescription(String): void</text><ellipse cx="27.5" cy="276.8594" fill="#84BE84" rx="3" ry="3" style="stroke: #038048; stroke-width: 1.0;"/><text fill="#000000" font-family="sans-serif" font-size="11" font-style="italic" lengthAdjust="spacingAndGlyphs" textLength="158" x="36.5" y="281.2783">getPackagingGuidance(): String</text><ellipse cx="27.5" cy="290.6953" fill="#84BE84" rx="3" ry="3" style="stroke: #038048; stroke-width: 1.0;"/><text fill="#000000" font-family="sans-serif" font-size="11" font-style="italic" lengthAdjust="spacingAndGlyphs" textLength="178" x="36.5" y="295.1143">setPackagingGuidance(String): void</text></a><!--MD5=[35ce8d4e8138c1db7930018eea7bfc8d]
class org.eclipse.epf.uma.WorkProductDescription--><a href="WorkProductDescription.html" target="_top" title="WorkProductDescription.html" xlink:actuate="onRequest" xlink:href="WorkProductDescription.html" xlink:show="new" xlink:title="WorkProductDescription.html" xlink:type="simple"><rect codeLine="12" fill="#FEFECE" filter="url(#f19tw3tn1z5aa1)" height="131.2031" id="org.eclipse.epf.uma.WorkProductDescription" style="stroke: #A80036; stroke-width: 1.5;" width="223" x="7" y="7"/><ellipse cx="38.2" cy="27.0938" fill="#B4A7E5" rx="11" ry="11" style="stroke: #A80036; stroke-width: 1.0;"/><path d="M39.1531,23.7344 L39.1531,30.3906 L40.8719,30.3906 Q41.4813,30.3906 41.7469,30.625 Q42.0125,30.8594 42.0125,31.25 Q42.0125,31.625 41.7469,31.8594 Q41.4813,32.0938 40.8719,32.0938 L35.7313,32.0938 Q35.1219,32.0938 34.8563,31.8594 Q34.5906,31.625 34.5906,31.2344 Q34.5906,30.8594 34.8563,30.625 Q35.1219,30.3906 35.7313,30.3906 L37.45,30.3906 L37.45,23.7344 L35.7313,23.7344 Q35.1219,23.7344 34.8563,23.5 Q34.5906,23.2656 34.5906,22.875 Q34.5906,22.5 34.8563,22.2656 Q35.1219,22.0313 35.7313,22.0313 L40.8719,22.0313 Q41.4813,22.0313 41.7469,22.2656 Q42.0125,22.5 42.0125,22.875 Q42.0125,23.2656 41.7469,23.5 Q41.4813,23.7344 40.8719,23.7344 L39.1531,23.7344 Z "/><text fill="#000000" font-family="sans-serif" font-size="14" font-style="italic" lengthAdjust="spacingAndGlyphs" textLength="155" x="55.8" y="26.5332">WorkProductDescription</text><text fill="#000000" font-family="sans-serif" font-size="10" font-style="italic" lengthAdjust="spacingAndGlyphs" textLength="92" x="87.3" y="39.9902">org.eclipse.epf.uma</text><line style="stroke: #A80036; stroke-width: 1.5;" x1="8" x2="229" y1="47.1875" y2="47.1875"/><ellipse cx="18" cy="58.1875" fill="#84BE84" rx="3" ry="3" style="stroke: #038048; stroke-width: 1.0;"/><text fill="#000000" font-family="sans-serif" font-size="11" font-style="italic" lengthAdjust="spacingAndGlyphs" textLength="99" x="27" y="62.6064">getPurpose(): String</text><ellipse cx="18" cy="72.0234" fill="#84BE84" rx="3" ry="3" style="stroke: #038048; stroke-width: 1.0;"/><text fill="#000000" font-family="sans-serif" font-size="11" font-style="italic" lengthAdjust="spacingAndGlyphs" textLength="119" x="27" y="76.4424">setPurpose(String): void</text><ellipse cx="18" cy="85.8594" fill="#84BE84" rx="3" ry="3" style="stroke: #038048; stroke-width: 1.0;"/><text fill="#000000" font-family="sans-serif" font-size="11" font-style="italic" lengthAdjust="spacingAndGlyphs" textLength="154" x="27" y="90.2783">getImpactOfNotHaving(): String</text><ellipse cx="18" cy="99.6953" fill="#84BE84" rx="3" ry="3" style="stroke: #038048; stroke-width: 1.0;"/><text fill="#000000" font-family="sans-serif" font-size="11" font-style="italic" lengthAdjust="spacingAndGlyphs" textLength="174" x="27" y="104.1143">setImpactOfNotHaving(String): void</text><ellipse cx="18" cy="113.5313" fill="#84BE84" rx="3" ry="3" style="stroke: #038048; stroke-width: 1.0;"/><text fill="#000000" font-family="sans-serif" font-size="11" font-style="italic" lengthAdjust="spacingAndGlyphs" textLength="177" x="27" y="117.9502">getReasonsForNotNeeding(): String</text><ellipse cx="18" cy="127.3672" fill="#84BE84" rx="3" ry="3" style="stroke: #038048; stroke-width: 1.0;"/><text fill="#000000" font-family="sans-serif" font-size="11" font-style="italic" lengthAdjust="spacingAndGlyphs" textLength="197" x="27" y="131.7861">setReasonsForNotNeeding(String): void</text></a><!--MD5=[4cf5feaccc65702eed8dd87680c7e3f7]
reverse link org.eclipse.epf.uma.WorkProductDescription to org.eclipse.epf.uma.DeliverableDescription--><path codeLine="21" d="M118.5,158.52 C118.5,171.97 118.5,185.49 118.5,197.84 " fill="none" id="org.eclipse.epf.uma.WorkProductDescription-backto-org.eclipse.epf.uma.DeliverableDescription" style="stroke: #A80036; stroke-width: 1.0;"/><polygon fill="none" points="111.5,158.35,118.5,138.35,125.5,158.35,111.5,158.35" style="stroke: #A80036; stroke-width: 1.0;"/><text fill="#888888" font-family="sans-serif" font-size="10" lengthAdjust="spacingAndGlyphs" textLength="190" x="20.5" y="324.9121">UMLDoclet 2.0.12, PlantUML 1.2020.16</text><!--MD5=[4ed3e86e9e1073bcec57fcda86312a7c]
@startuml
    set namespaceSeparator none
    hide empty fields
    hide empty methods

    interface "<size:14>DeliverableDescription\n<size:10>org.eclipse.epf.uma" as org.eclipse.epf.uma.DeliverableDescription [[DeliverableDescription.html]] {
        {abstract} +getExternalDescription(): String
        {abstract} +setExternalDescription(String): void
        {abstract} +getPackagingGuidance(): String
        {abstract} +setPackagingGuidance(String): void
    }

    interface "<size:14>WorkProductDescription\n<size:10>org.eclipse.epf.uma" as org.eclipse.epf.uma.WorkProductDescription [[WorkProductDescription.html]] {
        {abstract} +getPurpose(): String
        {abstract} +setPurpose(String): void
        {abstract} +getImpactOfNotHaving(): String
        {abstract} +setImpactOfNotHaving(String): void
        {abstract} +getReasonsForNotNeeding(): String
        {abstract} +setReasonsForNotNeeding(String): void
    }

    org.eclipse.epf.uma.WorkProductDescription <|- - org.eclipse.epf.uma.DeliverableDescription

    center footer UMLDoclet 2.0.12, PlantUML 1.2020.16
@enduml

PlantUML version 1.2020.16(Sun Aug 23 22:20:43 CEST 2020)
(APACHE source distribution)
Java Runtime: Java(TM) SE Runtime Environment
JVM: Java HotSpot(TM) 64-Bit Server VM
Default Encoding: Cp1252
Language: es
Country: ES
--></g></svg>