<?xml version="1.0" encoding="UTF-8" standalone="no"?><svg xmlns="http://www.w3.org/2000/svg" xmlns:xlink="http://www.w3.org/1999/xlink" contentScriptType="application/ecmascript" contentStyleType="text/css" height="269px" preserveAspectRatio="none" style="width:372px;height:269px;" version="1.1" viewBox="0 0 372 269" width="372px" zoomAndPan="magnify"><defs><filter height="300%" id="f1ai6jtb2gxmv3" width="300%" x="-1" y="-1"><feGaussianBlur result="blurOut" stdDeviation="2.0"/><feColorMatrix in="blurOut" result="blurOut2" type="matrix" values="0 0 0 0 0 0 0 0 0 0 0 0 0 0 0 0 0 0 .4 0"/><feOffset dx="4.0" dy="4.0" in="blurOut2" result="blurOut3"/><feBlend in="SourceGraphic" in2="blurOut3" mode="normal"/></filter></defs><g><!--MD5=[8434a79174dd07fe2f059d80dcdf566f]
class org.eclipse.epf.uma.Deliverable--><a href="Deliverable.html" target="_top" title="Deliverable.html" xlink:actuate="onRequest" xlink:href="Deliverable.html" xlink:show="new" xlink:title="Deliverable.html" xlink:type="simple"><rect codeLine="5" fill="#FEFECE" filter="url(#f1ai6jtb2gxmv3)" height="62.0234" id="org.eclipse.epf.uma.Deliverable" style="stroke: #A80036; stroke-width: 1.5;" width="275" x="42.5" y="171"/><ellipse cx="129.75" cy="191.0938" fill="#B4A7E5" rx="11" ry="11" style="stroke: #A80036; stroke-width: 1.0;"/><path d="M130.7031,187.7344 L130.7031,194.3906 L132.4219,194.3906 Q133.0313,194.3906 133.2969,194.625 Q133.5625,194.8594 133.5625,195.25 Q133.5625,195.625 133.2969,195.8594 Q133.0313,196.0938 132.4219,196.0938 L127.2813,196.0938 Q126.6719,196.0938 126.4063,195.8594 Q126.1406,195.625 126.1406,195.2344 Q126.1406,194.8594 126.4063,194.625 Q126.6719,194.3906 127.2813,194.3906 L129,194.3906 L129,187.7344 L127.2813,187.7344 Q126.6719,187.7344 126.4063,187.5 Q126.1406,187.2656 126.1406,186.875 Q126.1406,186.5 126.4063,186.2656 Q126.6719,186.0313 127.2813,186.0313 L132.4219,186.0313 Q133.0313,186.0313 133.2969,186.2656 Q133.5625,186.5 133.5625,186.875 Q133.5625,187.2656 133.2969,187.5 Q133.0313,187.7344 132.4219,187.7344 L130.7031,187.7344 Z "/><text fill="#000000" font-family="sans-serif" font-size="14" font-style="italic" lengthAdjust="spacingAndGlyphs" textLength="70" x="161.25" y="190.5332">Deliverable</text><text fill="#000000" font-family="sans-serif" font-size="10" font-style="italic" lengthAdjust="spacingAndGlyphs" textLength="92" x="150.25" y="203.9902">org.eclipse.epf.uma</text><line style="stroke: #A80036; stroke-width: 1.5;" x1="43.5" x2="316.5" y1="211.1875" y2="211.1875"/><ellipse cx="53.5" cy="222.1875" fill="#84BE84" rx="3" ry="3" style="stroke: #038048; stroke-width: 1.0;"/><text fill="#000000" font-family="sans-serif" font-size="11" font-style="italic" lengthAdjust="spacingAndGlyphs" textLength="249" x="62.5" y="226.6064">getDeliveredWorkProducts(): EList&lt;WorkProduct&gt;</text></a><!--MD5=[ea3ff2f0efb256b8a76238534cfa65f7]
class org.eclipse.epf.uma.WorkProduct--><a href="WorkProduct.html" target="_top" title="WorkProduct.html" xlink:actuate="onRequest" xlink:href="WorkProduct.html" xlink:show="new" xlink:title="WorkProduct.html" xlink:type="simple"><rect codeLine="9" fill="#FEFECE" filter="url(#f1ai6jtb2gxmv3)" height="103.5313" id="org.eclipse.epf.uma.WorkProduct" style="stroke: #A80036; stroke-width: 1.5;" width="346" x="7" y="7"/><ellipse cx="129.75" cy="27.0938" fill="#B4A7E5" rx="11" ry="11" style="stroke: #A80036; stroke-width: 1.0;"/><path d="M130.7031,23.7344 L130.7031,30.3906 L132.4219,30.3906 Q133.0313,30.3906 133.2969,30.625 Q133.5625,30.8594 133.5625,31.25 Q133.5625,31.625 133.2969,31.8594 Q133.0313,32.0938 132.4219,32.0938 L127.2813,32.0938 Q126.6719,32.0938 126.4063,31.8594 Q126.1406,31.625 126.1406,31.2344 Q126.1406,30.8594 126.4063,30.625 Q126.6719,30.3906 127.2813,30.3906 L129,30.3906 L129,23.7344 L127.2813,23.7344 Q126.6719,23.7344 126.4063,23.5 Q126.1406,23.2656 126.1406,22.875 Q126.1406,22.5 126.4063,22.2656 Q126.6719,22.0313 127.2813,22.0313 L132.4219,22.0313 Q133.0313,22.0313 133.2969,22.2656 Q133.5625,22.5 133.5625,22.875 Q133.5625,23.2656 133.2969,23.5 Q133.0313,23.7344 132.4219,23.7344 L130.7031,23.7344 Z "/><text fill="#000000" font-family="sans-serif" font-size="14" font-style="italic" lengthAdjust="spacingAndGlyphs" textLength="84" x="154.25" y="26.5332">WorkProduct</text><text fill="#000000" font-family="sans-serif" font-size="10" font-style="italic" lengthAdjust="spacingAndGlyphs" textLength="92" x="150.25" y="39.9902">org.eclipse.epf.uma</text><line style="stroke: #A80036; stroke-width: 1.5;" x1="8" x2="352" y1="47.1875" y2="47.1875"/><ellipse cx="18" cy="58.1875" fill="#84BE84" rx="3" ry="3" style="stroke: #038048; stroke-width: 1.0;"/><text fill="#000000" font-family="sans-serif" font-size="11" font-style="italic" lengthAdjust="spacingAndGlyphs" textLength="138" x="27" y="62.6064">getReports(): EList&lt;Report&gt;</text><ellipse cx="18" cy="72.0234" fill="#84BE84" rx="3" ry="3" style="stroke: #038048; stroke-width: 1.0;"/><text fill="#000000" font-family="sans-serif" font-size="11" font-style="italic" lengthAdjust="spacingAndGlyphs" textLength="164" x="27" y="76.4424">getTemplates(): EList&lt;Template&gt;</text><ellipse cx="18" cy="85.8594" fill="#84BE84" rx="3" ry="3" style="stroke: #038048; stroke-width: 1.0;"/><text fill="#000000" font-family="sans-serif" font-size="11" font-style="italic" lengthAdjust="spacingAndGlyphs" textLength="184" x="27" y="90.2783">getToolMentors(): EList&lt;ToolMentor&gt;</text><ellipse cx="18" cy="99.6953" fill="#84BE84" rx="3" ry="3" style="stroke: #038048; stroke-width: 1.0;"/><text fill="#000000" font-family="sans-serif" font-size="11" font-style="italic" lengthAdjust="spacingAndGlyphs" textLength="320" x="27" y="104.1143">getEstimationConsiderations(): EList&lt;EstimationConsiderations&gt;</text></a><!--MD5=[4f34958cd3ebce3ddd669f0c92ee17ea]
reverse link org.eclipse.epf.uma.WorkProduct to org.eclipse.epf.uma.Deliverable--><path codeLine="16" d="M180,131.46 C180,145.36 180,159.22 180,170.86 " fill="none" id="org.eclipse.epf.uma.WorkProduct-backto-org.eclipse.epf.uma.Deliverable" style="stroke: #A80036; stroke-width: 1.0;"/><polygon fill="none" points="173,131.3,180,111.3,187,131.3,173,131.3" style="stroke: #A80036; stroke-width: 1.0;"/><text fill="#888888" font-family="sans-serif" font-size="10" lengthAdjust="spacingAndGlyphs" textLength="190" x="82" y="256.4043">UMLDoclet 2.0.12, PlantUML 1.2020.16</text><!--MD5=[e5986cc1ad4c832b255701025287cb0f]
@startuml
    set namespaceSeparator none
    hide empty fields
    hide empty methods

    interface "<size:14>Deliverable\n<size:10>org.eclipse.epf.uma" as org.eclipse.epf.uma.Deliverable [[Deliverable.html]] {
        {abstract} +getDeliveredWorkProducts(): EList<WorkProduct>
    }

    interface "<size:14>WorkProduct\n<size:10>org.eclipse.epf.uma" as org.eclipse.epf.uma.WorkProduct [[WorkProduct.html]] {
        {abstract} +getReports(): EList<Report>
        {abstract} +getTemplates(): EList<Template>
        {abstract} +getToolMentors(): EList<ToolMentor>
        {abstract} +getEstimationConsiderations(): EList<EstimationConsiderations>
    }

    org.eclipse.epf.uma.WorkProduct <|- - org.eclipse.epf.uma.Deliverable

    center footer UMLDoclet 2.0.12, PlantUML 1.2020.16
@enduml

PlantUML version 1.2020.16(Sun Aug 23 22:20:43 CEST 2020)
(APACHE source distribution)
Java Runtime: Java(TM) SE Runtime Environment
JVM: Java HotSpot(TM) 64-Bit Server VM
Default Encoding: Cp1252
Language: es
Country: ES
--></g></svg>