<?xml version="1.0" encoding="UTF-8" standalone="no"?><svg xmlns="http://www.w3.org/2000/svg" xmlns:xlink="http://www.w3.org/1999/xlink" contentScriptType="application/ecmascript" contentStyleType="text/css" height="422px" preserveAspectRatio="none" style="width:253px;height:422px;" version="1.1" viewBox="0 0 253 422" width="253px" zoomAndPan="magnify"><defs><filter height="300%" id="f1c2gr9huswzvz" width="300%" x="-1" y="-1"><feGaussianBlur result="blurOut" stdDeviation="2.0"/><feColorMatrix in="blurOut" result="blurOut2" type="matrix" values="0 0 0 0 0 0 0 0 0 0 0 0 0 0 0 0 0 0 .4 0"/><feOffset dx="4.0" dy="4.0" in="blurOut2" result="blurOut3"/><feBlend in="SourceGraphic" in2="blurOut3" mode="normal"/></filter></defs><g><!--MD5=[e1b7be2ca2c8fc0fd095685b865b30bd]
class org.eclipse.epf.uma.DeliveryProcessDescription--><a href="DeliveryProcessDescription.html" target="_top" title="DeliveryProcessDescription.html" xlink:actuate="onRequest" xlink:href="DeliveryProcessDescription.html" xlink:show="new" xlink:title="DeliveryProcessDescription.html" xlink:type="simple"><rect codeLine="5" fill="#FEFECE" filter="url(#f1c2gr9huswzvz)" height="214.2188" id="org.eclipse.epf.uma.DeliveryProcessDescription" style="stroke: #A80036; stroke-width: 1.5;" width="227" x="7" y="171"/><ellipse cx="32.35" cy="191.0938" fill="#B4A7E5" rx="11" ry="11" style="stroke: #A80036; stroke-width: 1.0;"/><path d="M33.3031,187.7344 L33.3031,194.3906 L35.0219,194.3906 Q35.6313,194.3906 35.8969,194.625 Q36.1625,194.8594 36.1625,195.25 Q36.1625,195.625 35.8969,195.8594 Q35.6313,196.0938 35.0219,196.0938 L29.8813,196.0938 Q29.2719,196.0938 29.0063,195.8594 Q28.7406,195.625 28.7406,195.2344 Q28.7406,194.8594 29.0063,194.625 Q29.2719,194.3906 29.8813,194.3906 L31.6,194.3906 L31.6,187.7344 L29.8813,187.7344 Q29.2719,187.7344 29.0063,187.5 Q28.7406,187.2656 28.7406,186.875 Q28.7406,186.5 29.0063,186.2656 Q29.2719,186.0313 29.8813,186.0313 L35.0219,186.0313 Q35.6313,186.0313 35.8969,186.2656 Q36.1625,186.5 36.1625,186.875 Q36.1625,187.2656 35.8969,187.5 Q35.6313,187.7344 35.0219,187.7344 L33.3031,187.7344 Z "/><text fill="#000000" font-family="sans-serif" font-size="14" font-style="italic" lengthAdjust="spacingAndGlyphs" textLength="172" x="48.65" y="190.5332">DeliveryProcessDescription</text><text fill="#000000" font-family="sans-serif" font-size="10" font-style="italic" lengthAdjust="spacingAndGlyphs" textLength="92" x="88.65" y="203.9902">org.eclipse.epf.uma</text><line style="stroke: #A80036; stroke-width: 1.5;" x1="8" x2="233" y1="211.1875" y2="211.1875"/><ellipse cx="18" cy="222.1875" fill="#84BE84" rx="3" ry="3" style="stroke: #038048; stroke-width: 1.0;"/><text fill="#000000" font-family="sans-serif" font-size="11" font-style="italic" lengthAdjust="spacingAndGlyphs" textLength="86" x="27" y="226.6064">getScale(): String</text><ellipse cx="18" cy="236.0234" fill="#84BE84" rx="3" ry="3" style="stroke: #038048; stroke-width: 1.0;"/><text fill="#000000" font-family="sans-serif" font-size="11" font-style="italic" lengthAdjust="spacingAndGlyphs" textLength="106" x="27" y="240.4424">setScale(String): void</text><ellipse cx="18" cy="249.8594" fill="#84BE84" rx="3" ry="3" style="stroke: #038048; stroke-width: 1.0;"/><text fill="#000000" font-family="sans-serif" font-size="11" font-style="italic" lengthAdjust="spacingAndGlyphs" textLength="169" x="27" y="254.2783">getProjectCharacteristics(): String</text><ellipse cx="18" cy="263.6953" fill="#84BE84" rx="3" ry="3" style="stroke: #038048; stroke-width: 1.0;"/><text fill="#000000" font-family="sans-serif" font-size="11" font-style="italic" lengthAdjust="spacingAndGlyphs" textLength="189" x="27" y="268.1143">setProjectCharacteristics(String): void</text><ellipse cx="18" cy="277.5313" fill="#84BE84" rx="3" ry="3" style="stroke: #038048; stroke-width: 1.0;"/><text fill="#000000" font-family="sans-serif" font-size="11" font-style="italic" lengthAdjust="spacingAndGlyphs" textLength="107" x="27" y="281.9502">getRiskLevel(): String</text><ellipse cx="18" cy="291.3672" fill="#84BE84" rx="3" ry="3" style="stroke: #038048; stroke-width: 1.0;"/><text fill="#000000" font-family="sans-serif" font-size="11" font-style="italic" lengthAdjust="spacingAndGlyphs" textLength="127" x="27" y="295.7861">setRiskLevel(String): void</text><ellipse cx="18" cy="305.2031" fill="#84BE84" rx="3" ry="3" style="stroke: #038048; stroke-width: 1.0;"/><text fill="#000000" font-family="sans-serif" font-size="11" font-style="italic" lengthAdjust="spacingAndGlyphs" textLength="162" x="27" y="309.6221">getEstimatingTechnique(): String</text><ellipse cx="18" cy="319.0391" fill="#84BE84" rx="3" ry="3" style="stroke: #038048; stroke-width: 1.0;"/><text fill="#000000" font-family="sans-serif" font-size="11" font-style="italic" lengthAdjust="spacingAndGlyphs" textLength="182" x="27" y="323.458">setEstimatingTechnique(String): void</text><ellipse cx="18" cy="332.875" fill="#84BE84" rx="3" ry="3" style="stroke: #038048; stroke-width: 1.0;"/><text fill="#000000" font-family="sans-serif" font-size="11" font-style="italic" lengthAdjust="spacingAndGlyphs" textLength="181" x="27" y="337.2939">getProjectMemberExpertise(): String</text><ellipse cx="18" cy="346.7109" fill="#84BE84" rx="3" ry="3" style="stroke: #038048; stroke-width: 1.0;"/><text fill="#000000" font-family="sans-serif" font-size="11" font-style="italic" lengthAdjust="spacingAndGlyphs" textLength="201" x="27" y="351.1299">setProjectMemberExpertise(String): void</text><ellipse cx="18" cy="360.5469" fill="#84BE84" rx="3" ry="3" style="stroke: #038048; stroke-width: 1.0;"/><text fill="#000000" font-family="sans-serif" font-size="11" font-style="italic" lengthAdjust="spacingAndGlyphs" textLength="136" x="27" y="364.9658">getTypeOfContract(): String</text><ellipse cx="18" cy="374.3828" fill="#84BE84" rx="3" ry="3" style="stroke: #038048; stroke-width: 1.0;"/><text fill="#000000" font-family="sans-serif" font-size="11" font-style="italic" lengthAdjust="spacingAndGlyphs" textLength="156" x="27" y="378.8018">setTypeOfContract(String): void</text></a><!--MD5=[1541848ff9002d7b0ad2c250899315bc]
class org.eclipse.epf.uma.ProcessDescription--><a href="ProcessDescription.html" target="_top" title="ProcessDescription.html" xlink:actuate="onRequest" xlink:href="ProcessDescription.html" xlink:show="new" xlink:title="ProcessDescription.html" xlink:type="simple"><rect codeLine="20" fill="#FEFECE" filter="url(#f1c2gr9huswzvz)" height="103.5313" id="org.eclipse.epf.uma.ProcessDescription" style="stroke: #A80036; stroke-width: 1.5;" width="164" x="38.5" y="7"/><ellipse cx="58" cy="27.0938" fill="#B4A7E5" rx="11" ry="11" style="stroke: #A80036; stroke-width: 1.0;"/><path d="M58.9531,23.7344 L58.9531,30.3906 L60.6719,30.3906 Q61.2813,30.3906 61.5469,30.625 Q61.8125,30.8594 61.8125,31.25 Q61.8125,31.625 61.5469,31.8594 Q61.2813,32.0938 60.6719,32.0938 L55.5313,32.0938 Q54.9219,32.0938 54.6563,31.8594 Q54.3906,31.625 54.3906,31.2344 Q54.3906,30.8594 54.6563,30.625 Q54.9219,30.3906 55.5313,30.3906 L57.25,30.3906 L57.25,23.7344 L55.5313,23.7344 Q54.9219,23.7344 54.6563,23.5 Q54.3906,23.2656 54.3906,22.875 Q54.3906,22.5 54.6563,22.2656 Q54.9219,22.0313 55.5313,22.0313 L60.6719,22.0313 Q61.2813,22.0313 61.5469,22.2656 Q61.8125,22.5 61.8125,22.875 Q61.8125,23.2656 61.5469,23.5 Q61.2813,23.7344 60.6719,23.7344 L58.9531,23.7344 Z "/><text fill="#000000" font-family="sans-serif" font-size="14" font-style="italic" lengthAdjust="spacingAndGlyphs" textLength="122" x="73" y="26.5332">ProcessDescription</text><text fill="#000000" font-family="sans-serif" font-size="10" font-style="italic" lengthAdjust="spacingAndGlyphs" textLength="92" x="88" y="39.9902">org.eclipse.epf.uma</text><line style="stroke: #A80036; stroke-width: 1.5;" x1="39.5" x2="201.5" y1="47.1875" y2="47.1875"/><ellipse cx="49.5" cy="58.1875" fill="#84BE84" rx="3" ry="3" style="stroke: #038048; stroke-width: 1.0;"/><text fill="#000000" font-family="sans-serif" font-size="11" font-style="italic" lengthAdjust="spacingAndGlyphs" textLength="89" x="58.5" y="62.6064">getScope(): String</text><ellipse cx="49.5" cy="72.0234" fill="#84BE84" rx="3" ry="3" style="stroke: #038048; stroke-width: 1.0;"/><text fill="#000000" font-family="sans-serif" font-size="11" font-style="italic" lengthAdjust="spacingAndGlyphs" textLength="109" x="58.5" y="76.4424">setScope(String): void</text><ellipse cx="49.5" cy="85.8594" fill="#84BE84" rx="3" ry="3" style="stroke: #038048; stroke-width: 1.0;"/><text fill="#000000" font-family="sans-serif" font-size="11" font-style="italic" lengthAdjust="spacingAndGlyphs" textLength="118" x="58.5" y="90.2783">getUsageNotes(): String</text><ellipse cx="49.5" cy="99.6953" fill="#84BE84" rx="3" ry="3" style="stroke: #038048; stroke-width: 1.0;"/><text fill="#000000" font-family="sans-serif" font-size="11" font-style="italic" lengthAdjust="spacingAndGlyphs" textLength="138" x="58.5" y="104.1143">setUsageNotes(String): void</text></a><!--MD5=[61455a2b7dadd4da505ce03bb9d71e1f]
reverse link org.eclipse.epf.uma.ProcessDescription to org.eclipse.epf.uma.DeliveryProcessDescription--><path codeLine="27" d="M120.5,131.46 C120.5,144.04 120.5,157.37 120.5,170.66 " fill="none" id="org.eclipse.epf.uma.ProcessDescription-backto-org.eclipse.epf.uma.DeliveryProcessDescription" style="stroke: #A80036; stroke-width: 1.0;"/><polygon fill="none" points="113.5,131.15,120.5,111.15,127.5,131.15,113.5,131.15" style="stroke: #A80036; stroke-width: 1.0;"/><text fill="#888888" font-family="sans-serif" font-size="10" lengthAdjust="spacingAndGlyphs" textLength="190" x="22.5" y="408.5996">UMLDoclet 2.0.12, PlantUML 1.2020.16</text><!--MD5=[9e05f1a51f576cce8612dfb1a280e64b]
@startuml
    set namespaceSeparator none
    hide empty fields
    hide empty methods

    interface "<size:14>DeliveryProcessDescription\n<size:10>org.eclipse.epf.uma" as org.eclipse.epf.uma.DeliveryProcessDescription [[DeliveryProcessDescription.html]] {
        {abstract} +getScale(): String
        {abstract} +setScale(String): void
        {abstract} +getProjectCharacteristics(): String
        {abstract} +setProjectCharacteristics(String): void
        {abstract} +getRiskLevel(): String
        {abstract} +setRiskLevel(String): void
        {abstract} +getEstimatingTechnique(): String
        {abstract} +setEstimatingTechnique(String): void
        {abstract} +getProjectMemberExpertise(): String
        {abstract} +setProjectMemberExpertise(String): void
        {abstract} +getTypeOfContract(): String
        {abstract} +setTypeOfContract(String): void
    }

    interface "<size:14>ProcessDescription\n<size:10>org.eclipse.epf.uma" as org.eclipse.epf.uma.ProcessDescription [[ProcessDescription.html]] {
        {abstract} +getScope(): String
        {abstract} +setScope(String): void
        {abstract} +getUsageNotes(): String
        {abstract} +setUsageNotes(String): void
    }

    org.eclipse.epf.uma.ProcessDescription <|- - org.eclipse.epf.uma.DeliveryProcessDescription

    center footer UMLDoclet 2.0.12, PlantUML 1.2020.16
@enduml

PlantUML version 1.2020.16(Sun Aug 23 22:20:43 CEST 2020)
(APACHE source distribution)
Java Runtime: Java(TM) SE Runtime Environment
JVM: Java HotSpot(TM) 64-Bit Server VM
Default Encoding: Cp1252
Language: es
Country: ES
--></g></svg>