<?xml version="1.0" encoding="UTF-8" standalone="no"?><svg xmlns="http://www.w3.org/2000/svg" xmlns:xlink="http://www.w3.org/1999/xlink" contentScriptType="application/ecmascript" contentStyleType="text/css" height="283px" preserveAspectRatio="none" style="width:340px;height:283px;" version="1.1" viewBox="0 0 340 283" width="340px" zoomAndPan="magnify"><defs><filter height="300%" id="fypiywlsyo2dw" width="300%" x="-1" y="-1"><feGaussianBlur result="blurOut" stdDeviation="2.0"/><feColorMatrix in="blurOut" result="blurOut2" type="matrix" values="0 0 0 0 0 0 0 0 0 0 0 0 0 0 0 0 0 0 .4 0"/><feOffset dx="4.0" dy="4.0" in="blurOut2" result="blurOut3"/><feBlend in="SourceGraphic" in2="blurOut3" mode="normal"/></filter></defs><g><!--MD5=[2861a17b6fdce7eb4ac14e9eedd14253]
class org.eclipse.epf.uma.DeliveryProcess--><a href="DeliveryProcess.html" target="_top" title="DeliveryProcess.html" xlink:actuate="onRequest" xlink:href="DeliveryProcess.html" xlink:show="new" xlink:title="DeliveryProcess.html" xlink:type="simple"><rect codeLine="5" fill="#FEFECE" filter="url(#fypiywlsyo2dw)" height="75.8594" id="org.eclipse.epf.uma.DeliveryProcess" style="stroke: #A80036; stroke-width: 1.5;" width="314" x="7" y="171"/><ellipse cx="109.25" cy="191.0938" fill="#B4A7E5" rx="11" ry="11" style="stroke: #A80036; stroke-width: 1.0;"/><path d="M110.2031,187.7344 L110.2031,194.3906 L111.9219,194.3906 Q112.5313,194.3906 112.7969,194.625 Q113.0625,194.8594 113.0625,195.25 Q113.0625,195.625 112.7969,195.8594 Q112.5313,196.0938 111.9219,196.0938 L106.7813,196.0938 Q106.1719,196.0938 105.9063,195.8594 Q105.6406,195.625 105.6406,195.2344 Q105.6406,194.8594 105.9063,194.625 Q106.1719,194.3906 106.7813,194.3906 L108.5,194.3906 L108.5,187.7344 L106.7813,187.7344 Q106.1719,187.7344 105.9063,187.5 Q105.6406,187.2656 105.6406,186.875 Q105.6406,186.5 105.9063,186.2656 Q106.1719,186.0313 106.7813,186.0313 L111.9219,186.0313 Q112.5313,186.0313 112.7969,186.2656 Q113.0625,186.5 113.0625,186.875 Q113.0625,187.2656 112.7969,187.5 Q112.5313,187.7344 111.9219,187.7344 L110.2031,187.7344 Z "/><text fill="#000000" font-family="sans-serif" font-size="14" font-style="italic" lengthAdjust="spacingAndGlyphs" textLength="101" x="129.75" y="190.5332">DeliveryProcess</text><text fill="#000000" font-family="sans-serif" font-size="10" font-style="italic" lengthAdjust="spacingAndGlyphs" textLength="92" x="134.25" y="203.9902">org.eclipse.epf.uma</text><line style="stroke: #A80036; stroke-width: 1.5;" x1="8" x2="320" y1="211.1875" y2="211.1875"/><ellipse cx="18" cy="222.1875" fill="#84BE84" rx="3" ry="3" style="stroke: #038048; stroke-width: 1.0;"/><text fill="#000000" font-family="sans-serif" font-size="11" font-style="italic" lengthAdjust="spacingAndGlyphs" textLength="254" x="27" y="226.6064">getEducationMaterials(): EList&lt;SupportingMaterial&gt;</text><ellipse cx="18" cy="236.0234" fill="#84BE84" rx="3" ry="3" style="stroke: #038048; stroke-width: 1.0;"/><text fill="#000000" font-family="sans-serif" font-size="11" font-style="italic" lengthAdjust="spacingAndGlyphs" textLength="288" x="27" y="240.4424">getCommunicationsMaterials(): EList&lt;SupportingMaterial&gt;</text></a><!--MD5=[5115765f65760f75118f1b87c3d47785]
class org.eclipse.epf.uma.Process--><a href="Process.html" target="_top" title="Process.html" xlink:actuate="onRequest" xlink:href="Process.html" xlink:show="new" xlink:title="Process.html" xlink:type="simple"><rect codeLine="10" fill="#FEFECE" filter="url(#fypiywlsyo2dw)" height="103.5313" id="org.eclipse.epf.uma.Process" style="stroke: #A80036; stroke-width: 1.5;" width="260" x="34" y="7"/><ellipse cx="113.75" cy="27.0938" fill="#B4A7E5" rx="11" ry="11" style="stroke: #A80036; stroke-width: 1.0;"/><path d="M114.7031,23.7344 L114.7031,30.3906 L116.4219,30.3906 Q117.0313,30.3906 117.2969,30.625 Q117.5625,30.8594 117.5625,31.25 Q117.5625,31.625 117.2969,31.8594 Q117.0313,32.0938 116.4219,32.0938 L111.2813,32.0938 Q110.6719,32.0938 110.4063,31.8594 Q110.1406,31.625 110.1406,31.2344 Q110.1406,30.8594 110.4063,30.625 Q110.6719,30.3906 111.2813,30.3906 L113,30.3906 L113,23.7344 L111.2813,23.7344 Q110.6719,23.7344 110.4063,23.5 Q110.1406,23.2656 110.1406,22.875 Q110.1406,22.5 110.4063,22.2656 Q110.6719,22.0313 111.2813,22.0313 L116.4219,22.0313 Q117.0313,22.0313 117.2969,22.2656 Q117.5625,22.5 117.5625,22.875 Q117.5625,23.2656 117.2969,23.5 Q117.0313,23.7344 116.4219,23.7344 L114.7031,23.7344 Z "/><text fill="#000000" font-family="sans-serif" font-size="14" font-style="italic" lengthAdjust="spacingAndGlyphs" textLength="51" x="154.75" y="26.5332">Process</text><text fill="#000000" font-family="sans-serif" font-size="10" font-style="italic" lengthAdjust="spacingAndGlyphs" textLength="92" x="134.25" y="39.9902">org.eclipse.epf.uma</text><line style="stroke: #A80036; stroke-width: 1.5;" x1="35" x2="293" y1="47.1875" y2="47.1875"/><ellipse cx="45" cy="58.1875" fill="#84BE84" rx="3" ry="3" style="stroke: #038048; stroke-width: 1.0;"/><text fill="#000000" font-family="sans-serif" font-size="11" font-style="italic" lengthAdjust="spacingAndGlyphs" textLength="234" x="54" y="62.6064">getIncludesPatterns(): EList&lt;CapabilityPattern&gt;</text><ellipse cx="45" cy="72.0234" fill="#84BE84" rx="3" ry="3" style="stroke: #038048; stroke-width: 1.0;"/><text fill="#000000" font-family="sans-serif" font-size="11" font-style="italic" lengthAdjust="spacingAndGlyphs" textLength="204" x="54" y="76.4424">getDefaultContext(): MethodConfiguration</text><ellipse cx="45" cy="85.8594" fill="#84BE84" rx="3" ry="3" style="stroke: #038048; stroke-width: 1.0;"/><text fill="#000000" font-family="sans-serif" font-size="11" font-style="italic" lengthAdjust="spacingAndGlyphs" textLength="224" x="54" y="90.2783">setDefaultContext(MethodConfiguration): void</text><ellipse cx="45" cy="99.6953" fill="#84BE84" rx="3" ry="3" style="stroke: #038048; stroke-width: 1.0;"/><text fill="#000000" font-family="sans-serif" font-size="11" font-style="italic" lengthAdjust="spacingAndGlyphs" textLength="231" x="54" y="104.1143">getValidContext(): EList&lt;MethodConfiguration&gt;</text></a><!--MD5=[6934e8bb220acf314be48731756bd1be]
reverse link org.eclipse.epf.uma.Process to org.eclipse.epf.uma.DeliveryProcess--><path codeLine="17" d="M164,131.59 C164,145.14 164,158.79 164,170.74 " fill="none" id="org.eclipse.epf.uma.Process-backto-org.eclipse.epf.uma.DeliveryProcess" style="stroke: #A80036; stroke-width: 1.0;"/><polygon fill="none" points="157,131.35,164,111.35,171,131.35,157,131.35" style="stroke: #A80036; stroke-width: 1.0;"/><text fill="#888888" font-family="sans-serif" font-size="10" lengthAdjust="spacingAndGlyphs" textLength="190" x="66" y="270.2402">UMLDoclet 2.0.12, PlantUML 1.2020.16</text><!--MD5=[c51648557e85b1f2542b4cd960ee2d8c]
@startuml
    set namespaceSeparator none
    hide empty fields
    hide empty methods

    interface "<size:14>DeliveryProcess\n<size:10>org.eclipse.epf.uma" as org.eclipse.epf.uma.DeliveryProcess [[DeliveryProcess.html]] {
        {abstract} +getEducationMaterials(): EList<SupportingMaterial>
        {abstract} +getCommunicationsMaterials(): EList<SupportingMaterial>
    }

    interface "<size:14>Process\n<size:10>org.eclipse.epf.uma" as org.eclipse.epf.uma.Process [[Process.html]] {
        {abstract} +getIncludesPatterns(): EList<CapabilityPattern>
        {abstract} +getDefaultContext(): MethodConfiguration
        {abstract} +setDefaultContext(MethodConfiguration): void
        {abstract} +getValidContext(): EList<MethodConfiguration>
    }

    org.eclipse.epf.uma.Process <|- - org.eclipse.epf.uma.DeliveryProcess

    center footer UMLDoclet 2.0.12, PlantUML 1.2020.16
@enduml

PlantUML version 1.2020.16(Sun Aug 23 22:20:43 CEST 2020)
(APACHE source distribution)
Java Runtime: Java(TM) SE Runtime Environment
JVM: Java HotSpot(TM) 64-Bit Server VM
Default Encoding: Cp1252
Language: es
Country: ES
--></g></svg>