<?xml version="1.0" encoding="UTF-8" standalone="no"?><svg xmlns="http://www.w3.org/2000/svg" xmlns:xlink="http://www.w3.org/1999/xlink" contentScriptType="application/ecmascript" contentStyleType="text/css" height="255px" preserveAspectRatio="none" style="width:251px;height:255px;" version="1.1" viewBox="0 0 251 255" width="251px" zoomAndPan="magnify"><defs><filter height="300%" id="fitc7lucl6wfl" width="300%" x="-1" y="-1"><feGaussianBlur result="blurOut" stdDeviation="2.0"/><feColorMatrix in="blurOut" result="blurOut2" type="matrix" values="0 0 0 0 0 0 0 0 0 0 0 0 0 0 0 0 0 0 .4 0"/><feOffset dx="4.0" dy="4.0" in="blurOut2" result="blurOut3"/><feBlend in="SourceGraphic" in2="blurOut3" mode="normal"/></filter></defs><g><!--MD5=[4c08f2af5e7dfb57e8df8b7d53a9b717]
class org.eclipse.epf.uma.DescriptorDescription--><a href="DescriptorDescription.html" target="_top" title="DescriptorDescription.html" xlink:actuate="onRequest" xlink:href="DescriptorDescription.html" xlink:show="new" xlink:title="DescriptorDescription.html" xlink:type="simple"><rect codeLine="5" fill="#FEFECE" filter="url(#fitc7lucl6wfl)" height="75.8594" id="org.eclipse.epf.uma.DescriptorDescription" style="stroke: #A80036; stroke-width: 1.5;" width="199" x="20" y="143"/><ellipse cx="48.95" cy="163.0938" fill="#B4A7E5" rx="11" ry="11" style="stroke: #A80036; stroke-width: 1.0;"/><path d="M49.9031,159.7344 L49.9031,166.3906 L51.6219,166.3906 Q52.2313,166.3906 52.4969,166.625 Q52.7625,166.8594 52.7625,167.25 Q52.7625,167.625 52.4969,167.8594 Q52.2313,168.0938 51.6219,168.0938 L46.4813,168.0938 Q45.8719,168.0938 45.6063,167.8594 Q45.3406,167.625 45.3406,167.2344 Q45.3406,166.8594 45.6063,166.625 Q45.8719,166.3906 46.4813,166.3906 L48.2,166.3906 L48.2,159.7344 L46.4813,159.7344 Q45.8719,159.7344 45.6063,159.5 Q45.3406,159.2656 45.3406,158.875 Q45.3406,158.5 45.6063,158.2656 Q45.8719,158.0313 46.4813,158.0313 L51.6219,158.0313 Q52.2313,158.0313 52.4969,158.2656 Q52.7625,158.5 52.7625,158.875 Q52.7625,159.2656 52.4969,159.5 Q52.2313,159.7344 51.6219,159.7344 L49.9031,159.7344 Z "/><text fill="#000000" font-family="sans-serif" font-size="14" font-style="italic" lengthAdjust="spacingAndGlyphs" textLength="136" x="66.05" y="162.5332">DescriptorDescription</text><text fill="#000000" font-family="sans-serif" font-size="10" font-style="italic" lengthAdjust="spacingAndGlyphs" textLength="92" x="88.05" y="175.9902">org.eclipse.epf.uma</text><line style="stroke: #A80036; stroke-width: 1.5;" x1="21" x2="218" y1="183.1875" y2="183.1875"/><ellipse cx="31" cy="194.1875" fill="#84BE84" rx="3" ry="3" style="stroke: #038048; stroke-width: 1.0;"/><text fill="#000000" font-family="sans-serif" font-size="11" font-style="italic" lengthAdjust="spacingAndGlyphs" textLength="153" x="40" y="198.6064">getRefinedDescription(): String</text><ellipse cx="31" cy="208.0234" fill="#84BE84" rx="3" ry="3" style="stroke: #038048; stroke-width: 1.0;"/><text fill="#000000" font-family="sans-serif" font-size="11" font-style="italic" lengthAdjust="spacingAndGlyphs" textLength="173" x="40" y="212.4424">setRefinedDescription(String): void</text></a><!--MD5=[285368ac1d1cfe80c61d30f219b77019]
class org.eclipse.epf.uma.BreakdownElementDescription--><a href="BreakdownElementDescription.html" target="_top" title="BreakdownElementDescription.html" xlink:actuate="onRequest" xlink:href="BreakdownElementDescription.html" xlink:show="new" xlink:title="BreakdownElementDescription.html" xlink:type="simple"><rect codeLine="10" fill="#FEFECE" filter="url(#fitc7lucl6wfl)" height="75.8594" id="org.eclipse.epf.uma.BreakdownElementDescription" style="stroke: #A80036; stroke-width: 1.5;" width="225" x="7" y="7"/><ellipse cx="22" cy="27.0938" fill="#B4A7E5" rx="11" ry="11" style="stroke: #A80036; stroke-width: 1.0;"/><path d="M22.9531,23.7344 L22.9531,30.3906 L24.6719,30.3906 Q25.2813,30.3906 25.5469,30.625 Q25.8125,30.8594 25.8125,31.25 Q25.8125,31.625 25.5469,31.8594 Q25.2813,32.0938 24.6719,32.0938 L19.5313,32.0938 Q18.9219,32.0938 18.6563,31.8594 Q18.3906,31.625 18.3906,31.2344 Q18.3906,30.8594 18.6563,30.625 Q18.9219,30.3906 19.5313,30.3906 L21.25,30.3906 L21.25,23.7344 L19.5313,23.7344 Q18.9219,23.7344 18.6563,23.5 Q18.3906,23.2656 18.3906,22.875 Q18.3906,22.5 18.6563,22.2656 Q18.9219,22.0313 19.5313,22.0313 L24.6719,22.0313 Q25.2813,22.0313 25.5469,22.2656 Q25.8125,22.5 25.8125,22.875 Q25.8125,23.2656 25.5469,23.5 Q25.2813,23.7344 24.6719,23.7344 L22.9531,23.7344 Z "/><text fill="#000000" font-family="sans-serif" font-size="14" font-style="italic" lengthAdjust="spacingAndGlyphs" textLength="193" x="36" y="26.5332">BreakdownElementDescription</text><text fill="#000000" font-family="sans-serif" font-size="10" font-style="italic" lengthAdjust="spacingAndGlyphs" textLength="92" x="86.5" y="39.9902">org.eclipse.epf.uma</text><line style="stroke: #A80036; stroke-width: 1.5;" x1="8" x2="231" y1="47.1875" y2="47.1875"/><ellipse cx="18" cy="58.1875" fill="#84BE84" rx="3" ry="3" style="stroke: #038048; stroke-width: 1.0;"/><text fill="#000000" font-family="sans-serif" font-size="11" font-style="italic" lengthAdjust="spacingAndGlyphs" textLength="137" x="27" y="62.6064">getUsageGuidance(): String</text><ellipse cx="18" cy="72.0234" fill="#84BE84" rx="3" ry="3" style="stroke: #038048; stroke-width: 1.0;"/><text fill="#000000" font-family="sans-serif" font-size="11" font-style="italic" lengthAdjust="spacingAndGlyphs" textLength="157" x="27" y="76.4424">setUsageGuidance(String): void</text></a><!--MD5=[6e4b082aedf4e4cc768a15d558b8a408]
reverse link org.eclipse.epf.uma.BreakdownElementDescription to org.eclipse.epf.uma.DescriptorDescription--><path codeLine="15" d="M119.5,103.54 C119.5,116.86 119.5,130.69 119.5,142.87 " fill="none" id="org.eclipse.epf.uma.BreakdownElementDescription-backto-org.eclipse.epf.uma.DescriptorDescription" style="stroke: #A80036; stroke-width: 1.0;"/><polygon fill="none" points="112.5,103.33,119.5,83.33,126.5,103.33,112.5,103.33" style="stroke: #A80036; stroke-width: 1.0;"/><text fill="#888888" font-family="sans-serif" font-size="10" lengthAdjust="spacingAndGlyphs" textLength="190" x="21.5" y="242.2402">UMLDoclet 2.0.12, PlantUML 1.2020.16</text><!--MD5=[bce07158176f7938bb57329863c2a844]
@startuml
    set namespaceSeparator none
    hide empty fields
    hide empty methods

    interface "<size:14>DescriptorDescription\n<size:10>org.eclipse.epf.uma" as org.eclipse.epf.uma.DescriptorDescription [[DescriptorDescription.html]] {
        {abstract} +getRefinedDescription(): String
        {abstract} +setRefinedDescription(String): void
    }

    interface "<size:14>BreakdownElementDescription\n<size:10>org.eclipse.epf.uma" as org.eclipse.epf.uma.BreakdownElementDescription [[BreakdownElementDescription.html]] {
        {abstract} +getUsageGuidance(): String
        {abstract} +setUsageGuidance(String): void
    }

    org.eclipse.epf.uma.BreakdownElementDescription <|- - org.eclipse.epf.uma.DescriptorDescription

    center footer UMLDoclet 2.0.12, PlantUML 1.2020.16
@enduml

PlantUML version 1.2020.16(Sun Aug 23 22:20:43 CEST 2020)
(APACHE source distribution)
Java Runtime: Java(TM) SE Runtime Environment
JVM: Java HotSpot(TM) 64-Bit Server VM
Default Encoding: Cp1252
Language: es
Country: ES
--></g></svg>