<?xml version="1.0" encoding="UTF-8" standalone="no"?><svg xmlns="http://www.w3.org/2000/svg" xmlns:xlink="http://www.w3.org/1999/xlink" contentScriptType="application/ecmascript" contentStyleType="text/css" height="463px" preserveAspectRatio="none" style="width:553px;height:463px;" version="1.1" viewBox="0 0 553 463" width="553px" zoomAndPan="magnify"><defs><filter height="300%" id="fjggrm5l629vx" width="300%" x="-1" y="-1"><feGaussianBlur result="blurOut" stdDeviation="2.0"/><feColorMatrix in="blurOut" result="blurOut2" type="matrix" values="0 0 0 0 0 0 0 0 0 0 0 0 0 0 0 0 0 0 .4 0"/><feOffset dx="4.0" dy="4.0" in="blurOut2" result="blurOut3"/><feBlend in="SourceGraphic" in2="blurOut3" mode="normal"/></filter></defs><g><!--MD5=[f4ee302b1aabe817dbe53b02b19666f1]
class org.eclipse.epf.uma.DescribableElement--><a href="DescribableElement.html" target="_top" title="DescribableElement.html" xlink:actuate="onRequest" xlink:href="DescribableElement.html" xlink:show="new" xlink:title="DescribableElement.html" xlink:type="simple"><rect codeLine="5" fill="#FEFECE" filter="url(#fjggrm5l629vx)" height="131.2031" id="org.eclipse.epf.uma.DescribableElement" style="stroke: #A80036; stroke-width: 1.5;" width="232" x="194" y="295"/><ellipse cx="242.75" cy="315.0938" fill="#B4A7E5" rx="11" ry="11" style="stroke: #A80036; stroke-width: 1.0;"/><path d="M243.7031,311.7344 L243.7031,318.3906 L245.4219,318.3906 Q246.0313,318.3906 246.2969,318.625 Q246.5625,318.8594 246.5625,319.25 Q246.5625,319.625 246.2969,319.8594 Q246.0313,320.0938 245.4219,320.0938 L240.2813,320.0938 Q239.6719,320.0938 239.4063,319.8594 Q239.1406,319.625 239.1406,319.2344 Q239.1406,318.8594 239.4063,318.625 Q239.6719,318.3906 240.2813,318.3906 L242,318.3906 L242,311.7344 L240.2813,311.7344 Q239.6719,311.7344 239.4063,311.5 Q239.1406,311.2656 239.1406,310.875 Q239.1406,310.5 239.4063,310.2656 Q239.6719,310.0313 240.2813,310.0313 L245.4219,310.0313 Q246.0313,310.0313 246.2969,310.2656 Q246.5625,310.5 246.5625,310.875 Q246.5625,311.2656 246.2969,311.5 Q246.0313,311.7344 245.4219,311.7344 L243.7031,311.7344 Z "/><text fill="#000000" font-family="sans-serif" font-size="14" font-style="italic" lengthAdjust="spacingAndGlyphs" textLength="126" x="263.25" y="314.5332">DescribableElement</text><text fill="#000000" font-family="sans-serif" font-size="10" font-style="italic" lengthAdjust="spacingAndGlyphs" textLength="92" x="280.25" y="327.9902">org.eclipse.epf.uma</text><line style="stroke: #A80036; stroke-width: 1.5;" x1="195" x2="425" y1="335.1875" y2="335.1875"/><ellipse cx="205" cy="346.1875" fill="#84BE84" rx="3" ry="3" style="stroke: #038048; stroke-width: 1.0;"/><text fill="#000000" font-family="sans-serif" font-size="11" font-style="italic" lengthAdjust="spacingAndGlyphs" textLength="186" x="214" y="350.6064">getPresentation(): ContentDescription</text><ellipse cx="205" cy="360.0234" fill="#84BE84" rx="3" ry="3" style="stroke: #038048; stroke-width: 1.0;"/><text fill="#000000" font-family="sans-serif" font-size="11" font-style="italic" lengthAdjust="spacingAndGlyphs" textLength="206" x="214" y="364.4424">setPresentation(ContentDescription): void</text><ellipse cx="205" cy="373.8594" fill="#84BE84" rx="3" ry="3" style="stroke: #038048; stroke-width: 1.0;"/><text fill="#000000" font-family="sans-serif" font-size="11" font-style="italic" lengthAdjust="spacingAndGlyphs" textLength="99" x="214" y="378.2783">getShapeicon(): URI</text><ellipse cx="205" cy="387.6953" fill="#84BE84" rx="3" ry="3" style="stroke: #038048; stroke-width: 1.0;"/><text fill="#000000" font-family="sans-serif" font-size="11" font-style="italic" lengthAdjust="spacingAndGlyphs" textLength="119" x="214" y="392.1143">setShapeicon(URI): void</text><ellipse cx="205" cy="401.5313" fill="#84BE84" rx="3" ry="3" style="stroke: #038048; stroke-width: 1.0;"/><text fill="#000000" font-family="sans-serif" font-size="11" font-style="italic" lengthAdjust="spacingAndGlyphs" textLength="94" x="214" y="405.9502">getNodeicon(): URI</text><ellipse cx="205" cy="415.3672" fill="#84BE84" rx="3" ry="3" style="stroke: #038048; stroke-width: 1.0;"/><text fill="#000000" font-family="sans-serif" font-size="11" font-style="italic" lengthAdjust="spacingAndGlyphs" textLength="114" x="214" y="419.7861">setNodeicon(URI): void</text></a><!--MD5=[7427cf7205abc41d95567869575e76d9]
class org.eclipse.epf.uma.MethodElement--><a href="MethodElement.html" target="_top" title="MethodElement.html" xlink:actuate="onRequest" xlink:href="MethodElement.html" xlink:show="new" xlink:title="MethodElement.html" xlink:type="simple"><rect codeLine="14" fill="#FEFECE" filter="url(#fjggrm5l629vx)" height="228.0547" id="org.eclipse.epf.uma.MethodElement" style="stroke: #A80036; stroke-width: 1.5;" width="326" x="7" y="7"/><ellipse cx="116.25" cy="27.0938" fill="#B4A7E5" rx="11" ry="11" style="stroke: #A80036; stroke-width: 1.0;"/><path d="M117.2031,23.7344 L117.2031,30.3906 L118.9219,30.3906 Q119.5313,30.3906 119.7969,30.625 Q120.0625,30.8594 120.0625,31.25 Q120.0625,31.625 119.7969,31.8594 Q119.5313,32.0938 118.9219,32.0938 L113.7813,32.0938 Q113.1719,32.0938 112.9063,31.8594 Q112.6406,31.625 112.6406,31.2344 Q112.6406,30.8594 112.9063,30.625 Q113.1719,30.3906 113.7813,30.3906 L115.5,30.3906 L115.5,23.7344 L113.7813,23.7344 Q113.1719,23.7344 112.9063,23.5 Q112.6406,23.2656 112.6406,22.875 Q112.6406,22.5 112.9063,22.2656 Q113.1719,22.0313 113.7813,22.0313 L118.9219,22.0313 Q119.5313,22.0313 119.7969,22.2656 Q120.0625,22.5 120.0625,22.875 Q120.0625,23.2656 119.7969,23.5 Q119.5313,23.7344 118.9219,23.7344 L117.2031,23.7344 Z "/><text fill="#000000" font-family="sans-serif" font-size="14" font-style="italic" lengthAdjust="spacingAndGlyphs" textLength="99" x="136.75" y="26.5332">MethodElement</text><text fill="#000000" font-family="sans-serif" font-size="10" font-style="italic" lengthAdjust="spacingAndGlyphs" textLength="92" x="140.25" y="39.9902">org.eclipse.epf.uma</text><line style="stroke: #A80036; stroke-width: 1.5;" x1="8" x2="332" y1="47.1875" y2="47.1875"/><ellipse cx="18" cy="58.1875" fill="#84BE84" rx="3" ry="3" style="stroke: #038048; stroke-width: 1.0;"/><text fill="#000000" font-family="sans-serif" font-size="11" font-style="italic" lengthAdjust="spacingAndGlyphs" textLength="82" x="27" y="62.6064">getGuid(): String</text><ellipse cx="18" cy="72.0234" fill="#84BE84" rx="3" ry="3" style="stroke: #038048; stroke-width: 1.0;"/><text fill="#000000" font-family="sans-serif" font-size="11" font-style="italic" lengthAdjust="spacingAndGlyphs" textLength="102" x="27" y="76.4424">setGuid(String): void</text><ellipse cx="18" cy="85.8594" fill="#84BE84" rx="3" ry="3" style="stroke: #038048; stroke-width: 1.0;"/><text fill="#000000" font-family="sans-serif" font-size="11" font-style="italic" lengthAdjust="spacingAndGlyphs" textLength="149" x="27" y="90.2783">getPresentationName(): String</text><ellipse cx="18" cy="99.6953" fill="#84BE84" rx="3" ry="3" style="stroke: #038048; stroke-width: 1.0;"/><text fill="#000000" font-family="sans-serif" font-size="11" font-style="italic" lengthAdjust="spacingAndGlyphs" textLength="169" x="27" y="104.1143">setPresentationName(String): void</text><ellipse cx="18" cy="113.5313" fill="#84BE84" rx="3" ry="3" style="stroke: #038048; stroke-width: 1.0;"/><text fill="#000000" font-family="sans-serif" font-size="11" font-style="italic" lengthAdjust="spacingAndGlyphs" textLength="138" x="27" y="117.9502">getBriefDescription(): String</text><ellipse cx="18" cy="127.3672" fill="#84BE84" rx="3" ry="3" style="stroke: #038048; stroke-width: 1.0;"/><text fill="#000000" font-family="sans-serif" font-size="11" font-style="italic" lengthAdjust="spacingAndGlyphs" textLength="158" x="27" y="131.7861">setBriefDescription(String): void</text><ellipse cx="18" cy="141.2031" fill="#84BE84" rx="3" ry="3" style="stroke: #038048; stroke-width: 1.0;"/><text fill="#000000" font-family="sans-serif" font-size="11" font-style="italic" lengthAdjust="spacingAndGlyphs" textLength="180" x="27" y="145.6221">getOwnedRules(): EList&lt;Constraint&gt;</text><ellipse cx="18" cy="155.0391" fill="#84BE84" rx="3" ry="3" style="stroke: #038048; stroke-width: 1.0;"/><text fill="#000000" font-family="sans-serif" font-size="11" font-style="italic" lengthAdjust="spacingAndGlyphs" textLength="300" x="27" y="159.458">getMethodElementProperty(): EList&lt;MethodElementProperty&gt;</text><ellipse cx="18" cy="168.875" fill="#84BE84" rx="3" ry="3" style="stroke: #038048; stroke-width: 1.0;"/><text fill="#000000" font-family="sans-serif" font-size="11" font-style="italic" lengthAdjust="spacingAndGlyphs" textLength="110" x="27" y="173.2939">getKind(): EList&lt;Kind&gt;</text><ellipse cx="18" cy="182.7109" fill="#84BE84" rx="3" ry="3" style="stroke: #038048; stroke-width: 1.0;"/><text fill="#000000" font-family="sans-serif" font-size="11" font-style="italic" lengthAdjust="spacingAndGlyphs" textLength="128" x="27" y="187.1299">getSuppressed(): Boolean</text><ellipse cx="18" cy="196.5469" fill="#84BE84" rx="3" ry="3" style="stroke: #038048; stroke-width: 1.0;"/><text fill="#000000" font-family="sans-serif" font-size="11" font-style="italic" lengthAdjust="spacingAndGlyphs" textLength="148" x="27" y="200.9658">setSuppressed(Boolean): void</text><ellipse cx="18" cy="210.3828" fill="#84BE84" rx="3" ry="3" style="stroke: #038048; stroke-width: 1.0;"/><text fill="#000000" font-family="sans-serif" font-size="11" font-style="italic" lengthAdjust="spacingAndGlyphs" textLength="132" x="27" y="214.8018">getOrderingGuide(): String</text><ellipse cx="18" cy="224.2188" fill="#84BE84" rx="3" ry="3" style="stroke: #038048; stroke-width: 1.0;"/><text fill="#000000" font-family="sans-serif" font-size="11" font-style="italic" lengthAdjust="spacingAndGlyphs" textLength="152" x="27" y="228.6377">setOrderingGuide(String): void</text></a><!--MD5=[daffcb1b94bbd9cd136b4d328d98422d]
class org.eclipse.epf.uma.Classifier--><a href="Classifier.html" target="_top" title="Classifier.html" xlink:actuate="onRequest" xlink:href="Classifier.html" xlink:show="new" xlink:title="Classifier.html" xlink:type="simple"><rect codeLine="29" fill="#FEFECE" filter="url(#fjggrm5l629vx)" height="75.8594" id="org.eclipse.epf.uma.Classifier" style="stroke: #A80036; stroke-width: 1.5;" width="166" x="368" y="83"/><ellipse cx="401.9" cy="103.0938" fill="#B4A7E5" rx="11" ry="11" style="stroke: #A80036; stroke-width: 1.0;"/><path d="M402.8531,99.7344 L402.8531,106.3906 L404.5719,106.3906 Q405.1813,106.3906 405.4469,106.625 Q405.7125,106.8594 405.7125,107.25 Q405.7125,107.625 405.4469,107.8594 Q405.1813,108.0938 404.5719,108.0938 L399.4313,108.0938 Q398.8219,108.0938 398.5563,107.8594 Q398.2906,107.625 398.2906,107.2344 Q398.2906,106.8594 398.5563,106.625 Q398.8219,106.3906 399.4313,106.3906 L401.15,106.3906 L401.15,99.7344 L399.4313,99.7344 Q398.8219,99.7344 398.5563,99.5 Q398.2906,99.2656 398.2906,98.875 Q398.2906,98.5 398.5563,98.2656 Q398.8219,98.0313 399.4313,98.0313 L404.5719,98.0313 Q405.1813,98.0313 405.4469,98.2656 Q405.7125,98.5 405.7125,98.875 Q405.7125,99.2656 405.4469,99.5 Q405.1813,99.7344 404.5719,99.7344 L402.8531,99.7344 Z "/><text fill="#000000" font-family="sans-serif" font-size="14" font-style="italic" lengthAdjust="spacingAndGlyphs" textLength="58" x="437.1" y="102.5332">Classifier</text><text fill="#000000" font-family="sans-serif" font-size="10" font-style="italic" lengthAdjust="spacingAndGlyphs" textLength="92" x="420.1" y="115.9902">org.eclipse.epf.uma</text><line style="stroke: #A80036; stroke-width: 1.5;" x1="369" x2="533" y1="123.1875" y2="123.1875"/><ellipse cx="379" cy="134.1875" fill="#84BE84" rx="3" ry="3" style="stroke: #038048; stroke-width: 1.0;"/><text fill="#000000" font-family="sans-serif" font-size="11" font-style="italic" lengthAdjust="spacingAndGlyphs" textLength="120" x="388" y="138.6064">getIsAbstract(): Boolean</text><ellipse cx="379" cy="148.0234" fill="#84BE84" rx="3" ry="3" style="stroke: #038048; stroke-width: 1.0;"/><text fill="#000000" font-family="sans-serif" font-size="11" font-style="italic" lengthAdjust="spacingAndGlyphs" textLength="140" x="388" y="152.4424">setIsAbstract(Boolean): void</text></a><!--MD5=[d0aed9e1b726d08ef9897cd311e1f25b]
reverse link org.eclipse.epf.uma.MethodElement to org.eclipse.epf.uma.DescribableElement--><path codeLine="34" d="M246.88,252.42 C255.51,267.06 263.99,281.45 271.81,294.71 " fill="none" id="org.eclipse.epf.uma.MethodElement-backto-org.eclipse.epf.uma.DescribableElement" style="stroke: #A80036; stroke-width: 1.0;"/><polygon fill="none" points="240.85,255.97,236.72,235.19,252.91,248.86,240.85,255.97" style="stroke: #A80036; stroke-width: 1.0;"/><!--MD5=[d450c3c0cdef4c9d3e143af823b092ee]
reverse link org.eclipse.epf.uma.Classifier to org.eclipse.epf.uma.DescribableElement--><path codeLine="35" d="M418.67,176.46 C397.74,211.72 370.37,257.81 348.34,294.92 " fill="none" id="org.eclipse.epf.uma.Classifier-backto-org.eclipse.epf.uma.DescribableElement" style="stroke: #A80036; stroke-width: 1.0;"/><polygon fill="none" points="412.74,172.73,428.97,159.11,424.78,179.88,412.74,172.73" style="stroke: #A80036; stroke-width: 1.0;"/><text fill="#888888" font-family="sans-serif" font-size="10" lengthAdjust="spacingAndGlyphs" textLength="190" x="172.5" y="449.584">UMLDoclet 2.0.12, PlantUML 1.2020.16</text><!--MD5=[5ae69eaa59c12d262cf71224efebbd18]
@startuml
    set namespaceSeparator none
    hide empty fields
    hide empty methods

    interface "<size:14>DescribableElement\n<size:10>org.eclipse.epf.uma" as org.eclipse.epf.uma.DescribableElement [[DescribableElement.html]] {
        {abstract} +getPresentation(): ContentDescription
        {abstract} +setPresentation(ContentDescription): void
        {abstract} +getShapeicon(): URI
        {abstract} +setShapeicon(URI): void
        {abstract} +getNodeicon(): URI
        {abstract} +setNodeicon(URI): void
    }

    interface "<size:14>MethodElement\n<size:10>org.eclipse.epf.uma" as org.eclipse.epf.uma.MethodElement [[MethodElement.html]] {
        {abstract} +getGuid(): String
        {abstract} +setGuid(String): void
        {abstract} +getPresentationName(): String
        {abstract} +setPresentationName(String): void
        {abstract} +getBriefDescription(): String
        {abstract} +setBriefDescription(String): void
        {abstract} +getOwnedRules(): EList<Constraint>
        {abstract} +getMethodElementProperty(): EList<MethodElementProperty>
        {abstract} +getKind(): EList<Kind>
        {abstract} +getSuppressed(): Boolean
        {abstract} +setSuppressed(Boolean): void
        {abstract} +getOrderingGuide(): String
        {abstract} +setOrderingGuide(String): void
    }
    interface "<size:14>Classifier\n<size:10>org.eclipse.epf.uma" as org.eclipse.epf.uma.Classifier [[Classifier.html]] {
        {abstract} +getIsAbstract(): Boolean
        {abstract} +setIsAbstract(Boolean): void
    }

    org.eclipse.epf.uma.MethodElement <|- - org.eclipse.epf.uma.DescribableElement
    org.eclipse.epf.uma.Classifier <|- - org.eclipse.epf.uma.DescribableElement

    center footer UMLDoclet 2.0.12, PlantUML 1.2020.16
@enduml

PlantUML version 1.2020.16(Sun Aug 23 22:20:43 CEST 2020)
(APACHE source distribution)
Java Runtime: Java(TM) SE Runtime Environment
JVM: Java HotSpot(TM) 64-Bit Server VM
Default Encoding: Cp1252
Language: es
Country: ES
--></g></svg>