<?xml version="1.0" encoding="UTF-8" standalone="no"?><svg xmlns="http://www.w3.org/2000/svg" xmlns:xlink="http://www.w3.org/1999/xlink" contentScriptType="application/ecmascript" contentStyleType="text/css" height="324px" preserveAspectRatio="none" style="width:268px;height:324px;" version="1.1" viewBox="0 0 268 324" width="268px" zoomAndPan="magnify"><defs><filter height="300%" id="ff1fq4w94fvq1" width="300%" x="-1" y="-1"><feGaussianBlur result="blurOut" stdDeviation="2.0"/><feColorMatrix in="blurOut" result="blurOut2" type="matrix" values="0 0 0 0 0 0 0 0 0 0 0 0 0 0 0 0 0 0 .4 0"/><feOffset dx="4.0" dy="4.0" in="blurOut2" result="blurOut3"/><feBlend in="SourceGraphic" in2="blurOut3" mode="normal"/></filter></defs><g><!--MD5=[532232f9f3f4404941a1caa807876935]
class org.eclipse.epf.uma.Diagram--><a href="Diagram.html" target="_top" title="Diagram.html" xlink:actuate="onRequest" xlink:href="Diagram.html" xlink:show="new" xlink:title="Diagram.html" xlink:type="simple"><rect codeLine="5" fill="#FEFECE" filter="url(#ff1fq4w94fvq1)" height="145.0391" id="org.eclipse.epf.uma.Diagram" style="stroke: #A80036; stroke-width: 1.5;" width="242" x="7" y="143"/><ellipse cx="77.75" cy="163.0938" fill="#B4A7E5" rx="11" ry="11" style="stroke: #A80036; stroke-width: 1.0;"/><path d="M78.7031,159.7344 L78.7031,166.3906 L80.4219,166.3906 Q81.0313,166.3906 81.2969,166.625 Q81.5625,166.8594 81.5625,167.25 Q81.5625,167.625 81.2969,167.8594 Q81.0313,168.0938 80.4219,168.0938 L75.2813,168.0938 Q74.6719,168.0938 74.4063,167.8594 Q74.1406,167.625 74.1406,167.2344 Q74.1406,166.8594 74.4063,166.625 Q74.6719,166.3906 75.2813,166.3906 L77,166.3906 L77,159.7344 L75.2813,159.7344 Q74.6719,159.7344 74.4063,159.5 Q74.1406,159.2656 74.1406,158.875 Q74.1406,158.5 74.4063,158.2656 Q74.6719,158.0313 75.2813,158.0313 L80.4219,158.0313 Q81.0313,158.0313 81.2969,158.2656 Q81.5625,158.5 81.5625,158.875 Q81.5625,159.2656 81.2969,159.5 Q81.0313,159.7344 80.4219,159.7344 L78.7031,159.7344 Z "/><text fill="#000000" font-family="sans-serif" font-size="14" font-style="italic" lengthAdjust="spacingAndGlyphs" textLength="53" x="117.75" y="162.5332">Diagram</text><text fill="#000000" font-family="sans-serif" font-size="10" font-style="italic" lengthAdjust="spacingAndGlyphs" textLength="92" x="98.25" y="175.9902">org.eclipse.epf.uma</text><line style="stroke: #A80036; stroke-width: 1.5;" x1="8" x2="248" y1="183.1875" y2="183.1875"/><ellipse cx="18" cy="194.1875" fill="#84BE84" rx="3" ry="3" style="stroke: #038048; stroke-width: 1.0;"/><text fill="#000000" font-family="sans-serif" font-size="11" font-style="italic" lengthAdjust="spacingAndGlyphs" textLength="192" x="27" y="198.6064">getDiagramLink(): EList&lt;DiagramLink&gt;</text><ellipse cx="18" cy="208.0234" fill="#84BE84" rx="3" ry="3" style="stroke: #038048; stroke-width: 1.0;"/><text fill="#000000" font-family="sans-serif" font-size="11" font-style="italic" lengthAdjust="spacingAndGlyphs" textLength="196" x="27" y="212.4424">getNamespace(): SemanticModelBridge</text><ellipse cx="18" cy="221.8594" fill="#84BE84" rx="3" ry="3" style="stroke: #038048; stroke-width: 1.0;"/><text fill="#000000" font-family="sans-serif" font-size="11" font-style="italic" lengthAdjust="spacingAndGlyphs" textLength="216" x="27" y="226.2783">setNamespace(SemanticModelBridge): void</text><ellipse cx="18" cy="235.6953" fill="#84BE84" rx="3" ry="3" style="stroke: #038048; stroke-width: 1.0;"/><text fill="#000000" font-family="sans-serif" font-size="11" font-style="italic" lengthAdjust="spacingAndGlyphs" textLength="93" x="27" y="240.1143">getZoom(): Double</text><ellipse cx="18" cy="249.5313" fill="#84BE84" rx="3" ry="3" style="stroke: #038048; stroke-width: 1.0;"/><text fill="#000000" font-family="sans-serif" font-size="11" font-style="italic" lengthAdjust="spacingAndGlyphs" textLength="113" x="27" y="253.9502">setZoom(Double): void</text><ellipse cx="18" cy="263.3672" fill="#84BE84" rx="3" ry="3" style="stroke: #038048; stroke-width: 1.0;"/><text fill="#000000" font-family="sans-serif" font-size="11" font-style="italic" lengthAdjust="spacingAndGlyphs" textLength="101" x="27" y="267.7861">getViewpoint(): Point</text><ellipse cx="18" cy="277.2031" fill="#84BE84" rx="3" ry="3" style="stroke: #038048; stroke-width: 1.0;"/><text fill="#000000" font-family="sans-serif" font-size="11" font-style="italic" lengthAdjust="spacingAndGlyphs" textLength="121" x="27" y="281.6221">setViewpoint(Point): void</text></a><!--MD5=[b75d94af4eff09bc006cc7e6221a5132]
class org.eclipse.epf.uma.GraphNode--><a href="GraphNode.html" target="_top" title="GraphNode.html" xlink:actuate="onRequest" xlink:href="GraphNode.html" xlink:show="new" xlink:title="GraphNode.html" xlink:type="simple"><rect codeLine="15" fill="#FEFECE" filter="url(#ff1fq4w94fvq1)" height="75.8594" id="org.eclipse.epf.uma.GraphNode" style="stroke: #A80036; stroke-width: 1.5;" width="150" x="53" y="7"/><ellipse cx="79.7" cy="27.0938" fill="#B4A7E5" rx="11" ry="11" style="stroke: #A80036; stroke-width: 1.0;"/><path d="M80.6531,23.7344 L80.6531,30.3906 L82.3719,30.3906 Q82.9813,30.3906 83.2469,30.625 Q83.5125,30.8594 83.5125,31.25 Q83.5125,31.625 83.2469,31.8594 Q82.9813,32.0938 82.3719,32.0938 L77.2313,32.0938 Q76.6219,32.0938 76.3563,31.8594 Q76.0906,31.625 76.0906,31.2344 Q76.0906,30.8594 76.3563,30.625 Q76.6219,30.3906 77.2313,30.3906 L78.95,30.3906 L78.95,23.7344 L77.2313,23.7344 Q76.6219,23.7344 76.3563,23.5 Q76.0906,23.2656 76.0906,22.875 Q76.0906,22.5 76.3563,22.2656 Q76.6219,22.0313 77.2313,22.0313 L82.3719,22.0313 Q82.9813,22.0313 83.2469,22.2656 Q83.5125,22.5 83.5125,22.875 Q83.5125,23.2656 83.2469,23.5 Q82.9813,23.7344 82.3719,23.7344 L80.6531,23.7344 Z "/><text fill="#000000" font-family="sans-serif" font-size="14" font-style="italic" lengthAdjust="spacingAndGlyphs" textLength="74" x="105.3" y="26.5332">GraphNode</text><text fill="#000000" font-family="sans-serif" font-size="10" font-style="italic" lengthAdjust="spacingAndGlyphs" textLength="92" x="96.3" y="39.9902">org.eclipse.epf.uma</text><line style="stroke: #A80036; stroke-width: 1.5;" x1="54" x2="202" y1="47.1875" y2="47.1875"/><ellipse cx="64" cy="58.1875" fill="#84BE84" rx="3" ry="3" style="stroke: #038048; stroke-width: 1.0;"/><text fill="#000000" font-family="sans-serif" font-size="11" font-style="italic" lengthAdjust="spacingAndGlyphs" textLength="104" x="73" y="62.6064">getSize(): Dimension</text><ellipse cx="64" cy="72.0234" fill="#84BE84" rx="3" ry="3" style="stroke: #038048; stroke-width: 1.0;"/><text fill="#000000" font-family="sans-serif" font-size="11" font-style="italic" lengthAdjust="spacingAndGlyphs" textLength="124" x="73" y="76.4424">setSize(Dimension): void</text></a><!--MD5=[da5c7d2e4b51e14ab4aa059c71321cb4]
reverse link org.eclipse.epf.uma.GraphNode to org.eclipse.epf.uma.Diagram--><path codeLine="20" d="M128,103.62 C128,116.28 128,129.84 128,142.97 " fill="none" id="org.eclipse.epf.uma.GraphNode-backto-org.eclipse.epf.uma.Diagram" style="stroke: #A80036; stroke-width: 1.0;"/><polygon fill="none" points="121,103.4,128,83.4,135,103.4,121,103.4" style="stroke: #A80036; stroke-width: 1.0;"/><text fill="#888888" font-family="sans-serif" font-size="10" lengthAdjust="spacingAndGlyphs" textLength="190" x="30" y="311.4199">UMLDoclet 2.0.12, PlantUML 1.2020.16</text><!--MD5=[260a52939ceed2ec358ba67cc8a879a2]
@startuml
    set namespaceSeparator none
    hide empty fields
    hide empty methods

    interface "<size:14>Diagram\n<size:10>org.eclipse.epf.uma" as org.eclipse.epf.uma.Diagram [[Diagram.html]] {
        {abstract} +getDiagramLink(): EList<DiagramLink>
        {abstract} +getNamespace(): SemanticModelBridge
        {abstract} +setNamespace(SemanticModelBridge): void
        {abstract} +getZoom(): Double
        {abstract} +setZoom(Double): void
        {abstract} +getViewpoint(): Point
        {abstract} +setViewpoint(Point): void
    }

    interface "<size:14>GraphNode\n<size:10>org.eclipse.epf.uma" as org.eclipse.epf.uma.GraphNode [[GraphNode.html]] {
        {abstract} +getSize(): Dimension
        {abstract} +setSize(Dimension): void
    }

    org.eclipse.epf.uma.GraphNode <|- - org.eclipse.epf.uma.Diagram

    center footer UMLDoclet 2.0.12, PlantUML 1.2020.16
@enduml

PlantUML version 1.2020.16(Sun Aug 23 22:20:43 CEST 2020)
(APACHE source distribution)
Java Runtime: Java(TM) SE Runtime Environment
JVM: Java HotSpot(TM) 64-Bit Server VM
Default Encoding: Cp1252
Language: es
Country: ES
--></g></svg>