<?xml version="1.0" encoding="UTF-8" standalone="no"?><svg xmlns="http://www.w3.org/2000/svg" xmlns:xlink="http://www.w3.org/1999/xlink" contentScriptType="application/ecmascript" contentStyleType="text/css" height="205px" preserveAspectRatio="none" style="width:224px;height:205px;" version="1.1" viewBox="0 0 224 205" width="224px" zoomAndPan="magnify"><defs><filter height="300%" id="fmpbrhxnspetj" width="300%" x="-1" y="-1"><feGaussianBlur result="blurOut" stdDeviation="2.0"/><feColorMatrix in="blurOut" result="blurOut2" type="matrix" values="0 0 0 0 0 0 0 0 0 0 0 0 0 0 0 0 0 0 .4 0"/><feOffset dx="4.0" dy="4.0" in="blurOut2" result="blurOut3"/><feBlend in="SourceGraphic" in2="blurOut3" mode="normal"/></filter></defs><g><!--MD5=[ff8cc6c6ceb29a8bc8758d893a9c858f]
class org.eclipse.epf.uma.DisciplineGrouping--><a href="DisciplineGrouping.html" target="_top" title="DisciplineGrouping.html" xlink:actuate="onRequest" xlink:href="DisciplineGrouping.html" xlink:show="new" xlink:title="DisciplineGrouping.html" xlink:type="simple"><rect codeLine="5" fill="#FEFECE" filter="url(#fmpbrhxnspetj)" height="62.0234" id="org.eclipse.epf.uma.DisciplineGrouping" style="stroke: #A80036; stroke-width: 1.5;" width="198" x="7" y="107"/><ellipse cx="43.15" cy="127.0938" fill="#B4A7E5" rx="11" ry="11" style="stroke: #A80036; stroke-width: 1.0;"/><path d="M44.1031,123.7344 L44.1031,130.3906 L45.8219,130.3906 Q46.4313,130.3906 46.6969,130.625 Q46.9625,130.8594 46.9625,131.25 Q46.9625,131.625 46.6969,131.8594 Q46.4313,132.0938 45.8219,132.0938 L40.6813,132.0938 Q40.0719,132.0938 39.8063,131.8594 Q39.5406,131.625 39.5406,131.2344 Q39.5406,130.8594 39.8063,130.625 Q40.0719,130.3906 40.6813,130.3906 L42.4,130.3906 L42.4,123.7344 L40.6813,123.7344 Q40.0719,123.7344 39.8063,123.5 Q39.5406,123.2656 39.5406,122.875 Q39.5406,122.5 39.8063,122.2656 Q40.0719,122.0313 40.6813,122.0313 L45.8219,122.0313 Q46.4313,122.0313 46.6969,122.2656 Q46.9625,122.5 46.9625,122.875 Q46.9625,123.2656 46.6969,123.5 Q46.4313,123.7344 45.8219,123.7344 L44.1031,123.7344 Z "/><text fill="#000000" font-family="sans-serif" font-size="14" font-style="italic" lengthAdjust="spacingAndGlyphs" textLength="119" x="61.85" y="126.5332">DisciplineGrouping</text><text fill="#000000" font-family="sans-serif" font-size="10" font-style="italic" lengthAdjust="spacingAndGlyphs" textLength="92" x="75.35" y="139.9902">org.eclipse.epf.uma</text><line style="stroke: #A80036; stroke-width: 1.5;" x1="8" x2="204" y1="147.1875" y2="147.1875"/><ellipse cx="18" cy="158.1875" fill="#84BE84" rx="3" ry="3" style="stroke: #038048; stroke-width: 1.0;"/><text fill="#000000" font-family="sans-serif" font-size="11" font-style="italic" lengthAdjust="spacingAndGlyphs" textLength="172" x="27" y="162.6064">getDisciplines(): EList&lt;Discipline&gt;</text></a><!--MD5=[2ebf6b6b3a1faf8ff26b4d3cb3d8aa6c]
class org.eclipse.epf.uma.ContentCategory--><a href="ContentCategory.html" target="_top" title="ContentCategory.html" xlink:actuate="onRequest" xlink:href="ContentCategory.html" xlink:show="new" xlink:title="ContentCategory.html" xlink:type="simple"><rect codeLine="9" fill="#FEFECE" filter="url(#fmpbrhxnspetj)" height="40.1875" id="org.eclipse.epf.uma.ContentCategory" style="stroke: #A80036; stroke-width: 1.5;" width="140" x="36" y="7"/><ellipse cx="51" cy="27.0938" fill="#B4A7E5" rx="11" ry="11" style="stroke: #A80036; stroke-width: 1.0;"/><path d="M51.9531,23.7344 L51.9531,30.3906 L53.6719,30.3906 Q54.2813,30.3906 54.5469,30.625 Q54.8125,30.8594 54.8125,31.25 Q54.8125,31.625 54.5469,31.8594 Q54.2813,32.0938 53.6719,32.0938 L48.5313,32.0938 Q47.9219,32.0938 47.6563,31.8594 Q47.3906,31.625 47.3906,31.2344 Q47.3906,30.8594 47.6563,30.625 Q47.9219,30.3906 48.5313,30.3906 L50.25,30.3906 L50.25,23.7344 L48.5313,23.7344 Q47.9219,23.7344 47.6563,23.5 Q47.3906,23.2656 47.3906,22.875 Q47.3906,22.5 47.6563,22.2656 Q47.9219,22.0313 48.5313,22.0313 L53.6719,22.0313 Q54.2813,22.0313 54.5469,22.2656 Q54.8125,22.5 54.8125,22.875 Q54.8125,23.2656 54.5469,23.5 Q54.2813,23.7344 53.6719,23.7344 L51.9531,23.7344 Z "/><text fill="#000000" font-family="sans-serif" font-size="14" font-style="italic" lengthAdjust="spacingAndGlyphs" textLength="108" x="65" y="26.5332">ContentCategory</text><text fill="#000000" font-family="sans-serif" font-size="10" font-style="italic" lengthAdjust="spacingAndGlyphs" textLength="92" x="73" y="39.9902">org.eclipse.epf.uma</text></a><!--MD5=[358a4445a6b527a8b01129d934c502ad]
reverse link org.eclipse.epf.uma.ContentCategory to org.eclipse.epf.uma.DisciplineGrouping--><path codeLine="11" d="M106,67.37 C106,80.38 106,94.65 106,106.86 " fill="none" id="org.eclipse.epf.uma.ContentCategory-backto-org.eclipse.epf.uma.DisciplineGrouping" style="stroke: #A80036; stroke-width: 1.0;"/><polygon fill="none" points="99,67.24,106,47.24,113,67.24,99,67.24" style="stroke: #A80036; stroke-width: 1.0;"/><text fill="#888888" font-family="sans-serif" font-size="10" lengthAdjust="spacingAndGlyphs" textLength="190" x="8" y="192.4043">UMLDoclet 2.0.12, PlantUML 1.2020.16</text><!--MD5=[4afe6f770adb60c279cd6123154bc272]
@startuml
    set namespaceSeparator none
    hide empty fields
    hide empty methods

    interface "<size:14>DisciplineGrouping\n<size:10>org.eclipse.epf.uma" as org.eclipse.epf.uma.DisciplineGrouping [[DisciplineGrouping.html]] {
        {abstract} +getDisciplines(): EList<Discipline>
    }

    interface "<size:14>ContentCategory\n<size:10>org.eclipse.epf.uma" as org.eclipse.epf.uma.ContentCategory [[ContentCategory.html]]

    org.eclipse.epf.uma.ContentCategory <|- - org.eclipse.epf.uma.DisciplineGrouping

    center footer UMLDoclet 2.0.12, PlantUML 1.2020.16
@enduml

PlantUML version 1.2020.16(Sun Aug 23 22:20:43 CEST 2020)
(APACHE source distribution)
Java Runtime: Java(TM) SE Runtime Environment
JVM: Java HotSpot(TM) 64-Bit Server VM
Default Encoding: Cp1252
Language: es
Country: ES
--></g></svg>