<?xml version="1.0" encoding="UTF-8" standalone="no"?><svg xmlns="http://www.w3.org/2000/svg" xmlns:xlink="http://www.w3.org/1999/xlink" contentScriptType="application/ecmascript" contentStyleType="text/css" height="233px" preserveAspectRatio="none" style="width:256px;height:233px;" version="1.1" viewBox="0 0 256 233" width="256px" zoomAndPan="magnify"><defs><filter height="300%" id="f4qpfk80uxmnz" width="300%" x="-1" y="-1"><feGaussianBlur result="blurOut" stdDeviation="2.0"/><feColorMatrix in="blurOut" result="blurOut2" type="matrix" values="0 0 0 0 0 0 0 0 0 0 0 0 0 0 0 0 0 0 .4 0"/><feOffset dx="4.0" dy="4.0" in="blurOut2" result="blurOut3"/><feBlend in="SourceGraphic" in2="blurOut3" mode="normal"/></filter></defs><g><!--MD5=[430a883f85d747e24002d43639820915]
class org.eclipse.epf.uma.Discipline--><a href="Discipline.html" target="_top" title="Discipline.html" xlink:actuate="onRequest" xlink:href="Discipline.html" xlink:show="new" xlink:title="Discipline.html" xlink:type="simple"><rect codeLine="5" fill="#FEFECE" filter="url(#f4qpfk80uxmnz)" height="89.6953" id="org.eclipse.epf.uma.Discipline" style="stroke: #A80036; stroke-width: 1.5;" width="230" x="7" y="107"/><ellipse cx="71.75" cy="127.0938" fill="#B4A7E5" rx="11" ry="11" style="stroke: #A80036; stroke-width: 1.0;"/><path d="M72.7031,123.7344 L72.7031,130.3906 L74.4219,130.3906 Q75.0313,130.3906 75.2969,130.625 Q75.5625,130.8594 75.5625,131.25 Q75.5625,131.625 75.2969,131.8594 Q75.0313,132.0938 74.4219,132.0938 L69.2813,132.0938 Q68.6719,132.0938 68.4063,131.8594 Q68.1406,131.625 68.1406,131.2344 Q68.1406,130.8594 68.4063,130.625 Q68.6719,130.3906 69.2813,130.3906 L71,130.3906 L71,123.7344 L69.2813,123.7344 Q68.6719,123.7344 68.4063,123.5 Q68.1406,123.2656 68.1406,122.875 Q68.1406,122.5 68.4063,122.2656 Q68.6719,122.0313 69.2813,122.0313 L74.4219,122.0313 Q75.0313,122.0313 75.2969,122.2656 Q75.5625,122.5 75.5625,122.875 Q75.5625,123.2656 75.2969,123.5 Q75.0313,123.7344 74.4219,123.7344 L72.7031,123.7344 Z "/><text fill="#000000" font-family="sans-serif" font-size="14" font-style="italic" lengthAdjust="spacingAndGlyphs" textLength="60" x="108.25" y="126.5332">Discipline</text><text fill="#000000" font-family="sans-serif" font-size="10" font-style="italic" lengthAdjust="spacingAndGlyphs" textLength="92" x="92.25" y="139.9902">org.eclipse.epf.uma</text><line style="stroke: #A80036; stroke-width: 1.5;" x1="8" x2="236" y1="147.1875" y2="147.1875"/><ellipse cx="18" cy="158.1875" fill="#84BE84" rx="3" ry="3" style="stroke: #038048; stroke-width: 1.0;"/><text fill="#000000" font-family="sans-serif" font-size="11" font-style="italic" lengthAdjust="spacingAndGlyphs" textLength="122" x="27" y="162.6064">getTasks(): EList&lt;Task&gt;</text><ellipse cx="18" cy="172.0234" fill="#84BE84" rx="3" ry="3" style="stroke: #038048; stroke-width: 1.0;"/><text fill="#000000" font-family="sans-serif" font-size="11" font-style="italic" lengthAdjust="spacingAndGlyphs" textLength="184" x="27" y="176.4424">getSubdiscipline(): EList&lt;Discipline&gt;</text><ellipse cx="18" cy="185.8594" fill="#84BE84" rx="3" ry="3" style="stroke: #038048; stroke-width: 1.0;"/><text fill="#000000" font-family="sans-serif" font-size="11" font-style="italic" lengthAdjust="spacingAndGlyphs" textLength="204" x="27" y="190.2783">getReferenceWorkflows(): EList&lt;Activity&gt;</text></a><!--MD5=[2ebf6b6b3a1faf8ff26b4d3cb3d8aa6c]
class org.eclipse.epf.uma.ContentCategory--><a href="ContentCategory.html" target="_top" title="ContentCategory.html" xlink:actuate="onRequest" xlink:href="ContentCategory.html" xlink:show="new" xlink:title="ContentCategory.html" xlink:type="simple"><rect codeLine="11" fill="#FEFECE" filter="url(#f4qpfk80uxmnz)" height="40.1875" id="org.eclipse.epf.uma.ContentCategory" style="stroke: #A80036; stroke-width: 1.5;" width="140" x="52" y="7"/><ellipse cx="67" cy="27.0938" fill="#B4A7E5" rx="11" ry="11" style="stroke: #A80036; stroke-width: 1.0;"/><path d="M67.9531,23.7344 L67.9531,30.3906 L69.6719,30.3906 Q70.2813,30.3906 70.5469,30.625 Q70.8125,30.8594 70.8125,31.25 Q70.8125,31.625 70.5469,31.8594 Q70.2813,32.0938 69.6719,32.0938 L64.5313,32.0938 Q63.9219,32.0938 63.6563,31.8594 Q63.3906,31.625 63.3906,31.2344 Q63.3906,30.8594 63.6563,30.625 Q63.9219,30.3906 64.5313,30.3906 L66.25,30.3906 L66.25,23.7344 L64.5313,23.7344 Q63.9219,23.7344 63.6563,23.5 Q63.3906,23.2656 63.3906,22.875 Q63.3906,22.5 63.6563,22.2656 Q63.9219,22.0313 64.5313,22.0313 L69.6719,22.0313 Q70.2813,22.0313 70.5469,22.2656 Q70.8125,22.5 70.8125,22.875 Q70.8125,23.2656 70.5469,23.5 Q70.2813,23.7344 69.6719,23.7344 L67.9531,23.7344 Z "/><text fill="#000000" font-family="sans-serif" font-size="14" font-style="italic" lengthAdjust="spacingAndGlyphs" textLength="108" x="81" y="26.5332">ContentCategory</text><text fill="#000000" font-family="sans-serif" font-size="10" font-style="italic" lengthAdjust="spacingAndGlyphs" textLength="92" x="89" y="39.9902">org.eclipse.epf.uma</text></a><!--MD5=[7f4b5d85c279d7c024792c3b90894915]
reverse link org.eclipse.epf.uma.ContentCategory to org.eclipse.epf.uma.Discipline--><path codeLine="13" d="M122,67.25 C122,79.89 122,93.98 122,106.94 " fill="none" id="org.eclipse.epf.uma.ContentCategory-backto-org.eclipse.epf.uma.Discipline" style="stroke: #A80036; stroke-width: 1.0;"/><polygon fill="none" points="115,67.22,122,47.22,129,67.22,115,67.22" style="stroke: #A80036; stroke-width: 1.0;"/><text fill="#888888" font-family="sans-serif" font-size="10" lengthAdjust="spacingAndGlyphs" textLength="190" x="24" y="220.0762">UMLDoclet 2.0.12, PlantUML 1.2020.16</text><!--MD5=[7d475b7c9432657ca23e61e0b585dd29]
@startuml
    set namespaceSeparator none
    hide empty fields
    hide empty methods

    interface "<size:14>Discipline\n<size:10>org.eclipse.epf.uma" as org.eclipse.epf.uma.Discipline [[Discipline.html]] {
        {abstract} +getTasks(): EList<Task>
        {abstract} +getSubdiscipline(): EList<Discipline>
        {abstract} +getReferenceWorkflows(): EList<Activity>
    }

    interface "<size:14>ContentCategory\n<size:10>org.eclipse.epf.uma" as org.eclipse.epf.uma.ContentCategory [[ContentCategory.html]]

    org.eclipse.epf.uma.ContentCategory <|- - org.eclipse.epf.uma.Discipline

    center footer UMLDoclet 2.0.12, PlantUML 1.2020.16
@enduml

PlantUML version 1.2020.16(Sun Aug 23 22:20:43 CEST 2020)
(APACHE source distribution)
Java Runtime: Java(TM) SE Runtime Environment
JVM: Java HotSpot(TM) 64-Bit Server VM
Default Encoding: Cp1252
Language: es
Country: ES
--></g></svg>