<?xml version="1.0" encoding="UTF-8" standalone="no"?><svg xmlns="http://www.w3.org/2000/svg" xmlns:xlink="http://www.w3.org/1999/xlink" contentScriptType="application/ecmascript" contentStyleType="text/css" height="219px" preserveAspectRatio="none" style="width:254px;height:219px;" version="1.1" viewBox="0 0 254 219" width="254px" zoomAndPan="magnify"><defs><filter height="300%" id="f1v08qalysatww" width="300%" x="-1" y="-1"><feGaussianBlur result="blurOut" stdDeviation="2.0"/><feColorMatrix in="blurOut" result="blurOut2" type="matrix" values="0 0 0 0 0 0 0 0 0 0 0 0 0 0 0 0 0 0 .4 0"/><feOffset dx="4.0" dy="4.0" in="blurOut2" result="blurOut3"/><feBlend in="SourceGraphic" in2="blurOut3" mode="normal"/></filter></defs><g><!--MD5=[2fe39163f73cf4ab3cc7489b28e344c7]
class org.eclipse.epf.uma.Domain--><a href="Domain.html" target="_top" title="Domain.html" xlink:actuate="onRequest" xlink:href="Domain.html" xlink:show="new" xlink:title="Domain.html" xlink:type="simple"><rect codeLine="5" fill="#FEFECE" filter="url(#f1v08qalysatww)" height="75.8594" id="org.eclipse.epf.uma.Domain" style="stroke: #A80036; stroke-width: 1.5;" width="228" x="7" y="107"/><ellipse cx="70.75" cy="127.0938" fill="#B4A7E5" rx="11" ry="11" style="stroke: #A80036; stroke-width: 1.0;"/><path d="M71.7031,123.7344 L71.7031,130.3906 L73.4219,130.3906 Q74.0313,130.3906 74.2969,130.625 Q74.5625,130.8594 74.5625,131.25 Q74.5625,131.625 74.2969,131.8594 Q74.0313,132.0938 73.4219,132.0938 L68.2813,132.0938 Q67.6719,132.0938 67.4063,131.8594 Q67.1406,131.625 67.1406,131.2344 Q67.1406,130.8594 67.4063,130.625 Q67.6719,130.3906 68.2813,130.3906 L70,130.3906 L70,123.7344 L68.2813,123.7344 Q67.6719,123.7344 67.4063,123.5 Q67.1406,123.2656 67.1406,122.875 Q67.1406,122.5 67.4063,122.2656 Q67.6719,122.0313 68.2813,122.0313 L73.4219,122.0313 Q74.0313,122.0313 74.2969,122.2656 Q74.5625,122.5 74.5625,122.875 Q74.5625,123.2656 74.2969,123.5 Q74.0313,123.7344 73.4219,123.7344 L71.7031,123.7344 Z "/><text fill="#000000" font-family="sans-serif" font-size="14" font-style="italic" lengthAdjust="spacingAndGlyphs" textLength="48" x="113.25" y="126.5332">Domain</text><text fill="#000000" font-family="sans-serif" font-size="10" font-style="italic" lengthAdjust="spacingAndGlyphs" textLength="92" x="91.25" y="139.9902">org.eclipse.epf.uma</text><line style="stroke: #A80036; stroke-width: 1.5;" x1="8" x2="234" y1="147.1875" y2="147.1875"/><ellipse cx="18" cy="158.1875" fill="#84BE84" rx="3" ry="3" style="stroke: #038048; stroke-width: 1.0;"/><text fill="#000000" font-family="sans-serif" font-size="11" font-style="italic" lengthAdjust="spacingAndGlyphs" textLength="202" x="27" y="162.6064">getWorkProducts(): EList&lt;WorkProduct&gt;</text><ellipse cx="18" cy="172.0234" fill="#84BE84" rx="3" ry="3" style="stroke: #038048; stroke-width: 1.0;"/><text fill="#000000" font-family="sans-serif" font-size="11" font-style="italic" lengthAdjust="spacingAndGlyphs" textLength="166" x="27" y="176.4424">getSubdomains(): EList&lt;Domain&gt;</text></a><!--MD5=[2ebf6b6b3a1faf8ff26b4d3cb3d8aa6c]
class org.eclipse.epf.uma.ContentCategory--><a href="ContentCategory.html" target="_top" title="ContentCategory.html" xlink:actuate="onRequest" xlink:href="ContentCategory.html" xlink:show="new" xlink:title="ContentCategory.html" xlink:type="simple"><rect codeLine="10" fill="#FEFECE" filter="url(#f1v08qalysatww)" height="40.1875" id="org.eclipse.epf.uma.ContentCategory" style="stroke: #A80036; stroke-width: 1.5;" width="140" x="51" y="7"/><ellipse cx="66" cy="27.0938" fill="#B4A7E5" rx="11" ry="11" style="stroke: #A80036; stroke-width: 1.0;"/><path d="M66.9531,23.7344 L66.9531,30.3906 L68.6719,30.3906 Q69.2813,30.3906 69.5469,30.625 Q69.8125,30.8594 69.8125,31.25 Q69.8125,31.625 69.5469,31.8594 Q69.2813,32.0938 68.6719,32.0938 L63.5313,32.0938 Q62.9219,32.0938 62.6563,31.8594 Q62.3906,31.625 62.3906,31.2344 Q62.3906,30.8594 62.6563,30.625 Q62.9219,30.3906 63.5313,30.3906 L65.25,30.3906 L65.25,23.7344 L63.5313,23.7344 Q62.9219,23.7344 62.6563,23.5 Q62.3906,23.2656 62.3906,22.875 Q62.3906,22.5 62.6563,22.2656 Q62.9219,22.0313 63.5313,22.0313 L68.6719,22.0313 Q69.2813,22.0313 69.5469,22.2656 Q69.8125,22.5 69.8125,22.875 Q69.8125,23.2656 69.5469,23.5 Q69.2813,23.7344 68.6719,23.7344 L66.9531,23.7344 Z "/><text fill="#000000" font-family="sans-serif" font-size="14" font-style="italic" lengthAdjust="spacingAndGlyphs" textLength="108" x="80" y="26.5332">ContentCategory</text><text fill="#000000" font-family="sans-serif" font-size="10" font-style="italic" lengthAdjust="spacingAndGlyphs" textLength="92" x="88" y="39.9902">org.eclipse.epf.uma</text></a><!--MD5=[f08a6d8abcea836d615f6cfb5319e560]
reverse link org.eclipse.epf.uma.ContentCategory to org.eclipse.epf.uma.Domain--><path codeLine="12" d="M121,67.49 C121,80.27 121,94.39 121,106.99 " fill="none" id="org.eclipse.epf.uma.ContentCategory-backto-org.eclipse.epf.uma.Domain" style="stroke: #A80036; stroke-width: 1.0;"/><polygon fill="none" points="114,67.16,121,47.16,128,67.16,114,67.16" style="stroke: #A80036; stroke-width: 1.0;"/><text fill="#888888" font-family="sans-serif" font-size="10" lengthAdjust="spacingAndGlyphs" textLength="190" x="23" y="206.2402">UMLDoclet 2.0.12, PlantUML 1.2020.16</text><!--MD5=[6ac792b9f525b609b39895cddbf8ab82]
@startuml
    set namespaceSeparator none
    hide empty fields
    hide empty methods

    interface "<size:14>Domain\n<size:10>org.eclipse.epf.uma" as org.eclipse.epf.uma.Domain [[Domain.html]] {
        {abstract} +getWorkProducts(): EList<WorkProduct>
        {abstract} +getSubdomains(): EList<Domain>
    }

    interface "<size:14>ContentCategory\n<size:10>org.eclipse.epf.uma" as org.eclipse.epf.uma.ContentCategory [[ContentCategory.html]]

    org.eclipse.epf.uma.ContentCategory <|- - org.eclipse.epf.uma.Domain

    center footer UMLDoclet 2.0.12, PlantUML 1.2020.16
@enduml

PlantUML version 1.2020.16(Sun Aug 23 22:20:43 CEST 2020)
(APACHE source distribution)
Java Runtime: Java(TM) SE Runtime Environment
JVM: Java HotSpot(TM) 64-Bit Server VM
Default Encoding: Cp1252
Language: es
Country: ES
--></g></svg>