<?xml version="1.0" encoding="UTF-8" standalone="no"?><svg xmlns="http://www.w3.org/2000/svg" xmlns:xlink="http://www.w3.org/1999/xlink" contentScriptType="application/ecmascript" contentStyleType="text/css" height="184px" preserveAspectRatio="none" style="width:218px;height:184px;" version="1.1" viewBox="0 0 218 184" width="218px" zoomAndPan="magnify"><defs><filter height="300%" id="f1k7zl0czeseph" width="300%" x="-1" y="-1"><feGaussianBlur result="blurOut" stdDeviation="2.0"/><feColorMatrix in="blurOut" result="blurOut2" type="matrix" values="0 0 0 0 0 0 0 0 0 0 0 0 0 0 0 0 0 0 .4 0"/><feOffset dx="4.0" dy="4.0" in="blurOut2" result="blurOut3"/><feBlend in="SourceGraphic" in2="blurOut3" mode="normal"/></filter></defs><g><!--MD5=[b8a13ceb36ddd386351566a5d36d54cb]
class org.eclipse.epf.uma.EstimationConsiderations--><a href="EstimationConsiderations.html" target="_top" title="EstimationConsiderations.html" xlink:actuate="onRequest" xlink:href="EstimationConsiderations.html" xlink:show="new" xlink:title="EstimationConsiderations.html" xlink:type="simple"><rect codeLine="5" fill="#FEFECE" filter="url(#f1k7zl0czeseph)" height="40.1875" id="org.eclipse.epf.uma.EstimationConsiderations" style="stroke: #A80036; stroke-width: 1.5;" width="192" x="7" y="107"/><ellipse cx="22" cy="127.0938" fill="#B4A7E5" rx="11" ry="11" style="stroke: #A80036; stroke-width: 1.0;"/><path d="M22.9531,123.7344 L22.9531,130.3906 L24.6719,130.3906 Q25.2813,130.3906 25.5469,130.625 Q25.8125,130.8594 25.8125,131.25 Q25.8125,131.625 25.5469,131.8594 Q25.2813,132.0938 24.6719,132.0938 L19.5313,132.0938 Q18.9219,132.0938 18.6563,131.8594 Q18.3906,131.625 18.3906,131.2344 Q18.3906,130.8594 18.6563,130.625 Q18.9219,130.3906 19.5313,130.3906 L21.25,130.3906 L21.25,123.7344 L19.5313,123.7344 Q18.9219,123.7344 18.6563,123.5 Q18.3906,123.2656 18.3906,122.875 Q18.3906,122.5 18.6563,122.2656 Q18.9219,122.0313 19.5313,122.0313 L24.6719,122.0313 Q25.2813,122.0313 25.5469,122.2656 Q25.8125,122.5 25.8125,122.875 Q25.8125,123.2656 25.5469,123.5 Q25.2813,123.7344 24.6719,123.7344 L22.9531,123.7344 Z "/><text fill="#000000" font-family="sans-serif" font-size="14" font-style="italic" lengthAdjust="spacingAndGlyphs" textLength="160" x="36" y="126.5332">EstimationConsiderations</text><text fill="#000000" font-family="sans-serif" font-size="10" font-style="italic" lengthAdjust="spacingAndGlyphs" textLength="92" x="70" y="139.9902">org.eclipse.epf.uma</text></a><!--MD5=[31784ddf3d95333b37758b987195013e]
class org.eclipse.epf.uma.Guidance--><a href="Guidance.html" target="_top" title="Guidance.html" xlink:actuate="onRequest" xlink:href="Guidance.html" xlink:show="new" xlink:title="Guidance.html" xlink:type="simple"><rect codeLine="7" fill="#FEFECE" filter="url(#f1k7zl0czeseph)" height="40.1875" id="org.eclipse.epf.uma.Guidance" style="stroke: #A80036; stroke-width: 1.5;" width="124" x="41" y="7"/><ellipse cx="56" cy="27.0938" fill="#B4A7E5" rx="11" ry="11" style="stroke: #A80036; stroke-width: 1.0;"/><path d="M56.9531,23.7344 L56.9531,30.3906 L58.6719,30.3906 Q59.2813,30.3906 59.5469,30.625 Q59.8125,30.8594 59.8125,31.25 Q59.8125,31.625 59.5469,31.8594 Q59.2813,32.0938 58.6719,32.0938 L53.5313,32.0938 Q52.9219,32.0938 52.6563,31.8594 Q52.3906,31.625 52.3906,31.2344 Q52.3906,30.8594 52.6563,30.625 Q52.9219,30.3906 53.5313,30.3906 L55.25,30.3906 L55.25,23.7344 L53.5313,23.7344 Q52.9219,23.7344 52.6563,23.5 Q52.3906,23.2656 52.3906,22.875 Q52.3906,22.5 52.6563,22.2656 Q52.9219,22.0313 53.5313,22.0313 L58.6719,22.0313 Q59.2813,22.0313 59.5469,22.2656 Q59.8125,22.5 59.8125,22.875 Q59.8125,23.2656 59.5469,23.5 Q59.2813,23.7344 58.6719,23.7344 L56.9531,23.7344 Z "/><text fill="#000000" font-family="sans-serif" font-size="14" font-style="italic" lengthAdjust="spacingAndGlyphs" textLength="61" x="85.5" y="26.5332">Guidance</text><text fill="#000000" font-family="sans-serif" font-size="10" font-style="italic" lengthAdjust="spacingAndGlyphs" textLength="92" x="70" y="39.9902">org.eclipse.epf.uma</text></a><!--MD5=[938c1f5be055f77eb3b79215addb432e]
reverse link org.eclipse.epf.uma.Guidance to org.eclipse.epf.uma.EstimationConsiderations--><path codeLine="9" d="M103,67.69 C103,81.13 103,95.55 103,106.68 " fill="none" id="org.eclipse.epf.uma.Guidance-backto-org.eclipse.epf.uma.EstimationConsiderations" style="stroke: #A80036; stroke-width: 1.0;"/><polygon fill="none" points="96,67.36,103,47.36,110,67.36,96,67.36" style="stroke: #A80036; stroke-width: 1.0;"/><text fill="#888888" font-family="sans-serif" font-size="10" lengthAdjust="spacingAndGlyphs" textLength="190" x="5" y="170.5684">UMLDoclet 2.0.12, PlantUML 1.2020.16</text><!--MD5=[ad565662937bc60623a4d6e9833cbb9b]
@startuml
    set namespaceSeparator none
    hide empty fields
    hide empty methods

    interface "<size:14>EstimationConsiderations\n<size:10>org.eclipse.epf.uma" as org.eclipse.epf.uma.EstimationConsiderations [[EstimationConsiderations.html]]

    interface "<size:14>Guidance\n<size:10>org.eclipse.epf.uma" as org.eclipse.epf.uma.Guidance [[Guidance.html]]

    org.eclipse.epf.uma.Guidance <|- - org.eclipse.epf.uma.EstimationConsiderations

    center footer UMLDoclet 2.0.12, PlantUML 1.2020.16
@enduml

PlantUML version 1.2020.16(Sun Aug 23 22:20:43 CEST 2020)
(APACHE source distribution)
Java Runtime: Java(TM) SE Runtime Environment
JVM: Java HotSpot(TM) 64-Bit Server VM
Default Encoding: Cp1252
Language: es
Country: ES
--></g></svg>