<?xml version="1.0" encoding="UTF-8" standalone="no"?><svg xmlns="http://www.w3.org/2000/svg" xmlns:xlink="http://www.w3.org/1999/xlink" contentScriptType="application/ecmascript" contentStyleType="text/css" height="296px" preserveAspectRatio="none" style="width:258px;height:296px;" version="1.1" viewBox="0 0 258 296" width="258px" zoomAndPan="magnify"><defs><filter height="300%" id="fp6pad7ry190c" width="300%" x="-1" y="-1"><feGaussianBlur result="blurOut" stdDeviation="2.0"/><feColorMatrix in="blurOut" result="blurOut2" type="matrix" values="0 0 0 0 0 0 0 0 0 0 0 0 0 0 0 0 0 0 .4 0"/><feOffset dx="4.0" dy="4.0" in="blurOut2" result="blurOut3"/><feBlend in="SourceGraphic" in2="blurOut3" mode="normal"/></filter></defs><g><!--MD5=[f174583b3eab5efe0bc22d67b8bdbb60]
class org.eclipse.epf.uma.FulfillableElement--><a href="FulfillableElement.html" target="_top" title="FulfillableElement.html" xlink:actuate="onRequest" xlink:href="FulfillableElement.html" xlink:show="new" xlink:title="FulfillableElement.html" xlink:type="simple"><rect codeLine="5" fill="#FEFECE" filter="url(#fp6pad7ry190c)" height="62.0234" id="org.eclipse.epf.uma.FulfillableElement" style="stroke: #A80036; stroke-width: 1.5;" width="216" x="15" y="198"/><ellipse cx="63.25" cy="218.0938" fill="#B4A7E5" rx="11" ry="11" style="stroke: #A80036; stroke-width: 1.0;"/><path d="M64.2031,214.7344 L64.2031,221.3906 L65.9219,221.3906 Q66.5313,221.3906 66.7969,221.625 Q67.0625,221.8594 67.0625,222.25 Q67.0625,222.625 66.7969,222.8594 Q66.5313,223.0938 65.9219,223.0938 L60.7813,223.0938 Q60.1719,223.0938 59.9063,222.8594 Q59.6406,222.625 59.6406,222.2344 Q59.6406,221.8594 59.9063,221.625 Q60.1719,221.3906 60.7813,221.3906 L62.5,221.3906 L62.5,214.7344 L60.7813,214.7344 Q60.1719,214.7344 59.9063,214.5 Q59.6406,214.2656 59.6406,213.875 Q59.6406,213.5 59.9063,213.2656 Q60.1719,213.0313 60.7813,213.0313 L65.9219,213.0313 Q66.5313,213.0313 66.7969,213.2656 Q67.0625,213.5 67.0625,213.875 Q67.0625,214.2656 66.7969,214.5 Q66.5313,214.7344 65.9219,214.7344 L64.2031,214.7344 Z "/><text fill="#000000" font-family="sans-serif" font-size="14" font-style="italic" lengthAdjust="spacingAndGlyphs" textLength="111" x="83.75" y="217.5332">FulfillableElement</text><text fill="#000000" font-family="sans-serif" font-size="10" font-style="italic" lengthAdjust="spacingAndGlyphs" textLength="92" x="93.25" y="230.9902">org.eclipse.epf.uma</text><line style="stroke: #A80036; stroke-width: 1.5;" x1="16" x2="230" y1="238.1875" y2="238.1875"/><ellipse cx="26" cy="249.1875" fill="#84BE84" rx="3" ry="3" style="stroke: #038048; stroke-width: 1.0;"/><text fill="#000000" font-family="sans-serif" font-size="11" font-style="italic" lengthAdjust="spacingAndGlyphs" textLength="190" x="35" y="253.6064">getFulfills(): EList&lt;FulfillableElement&gt;</text></a><!--MD5=[f4ee302b1aabe817dbe53b02b19666f1]
class org.eclipse.epf.uma.DescribableElement--><a href="DescribableElement.html" target="_top" title="DescribableElement.html" xlink:actuate="onRequest" xlink:href="DescribableElement.html" xlink:show="new" xlink:title="DescribableElement.html" xlink:type="simple"><rect codeLine="9" fill="#FEFECE" filter="url(#fp6pad7ry190c)" height="131.2031" id="org.eclipse.epf.uma.DescribableElement" style="stroke: #A80036; stroke-width: 1.5;" width="232" x="7" y="7"/><ellipse cx="55.75" cy="27.0938" fill="#B4A7E5" rx="11" ry="11" style="stroke: #A80036; stroke-width: 1.0;"/><path d="M56.7031,23.7344 L56.7031,30.3906 L58.4219,30.3906 Q59.0313,30.3906 59.2969,30.625 Q59.5625,30.8594 59.5625,31.25 Q59.5625,31.625 59.2969,31.8594 Q59.0313,32.0938 58.4219,32.0938 L53.2813,32.0938 Q52.6719,32.0938 52.4063,31.8594 Q52.1406,31.625 52.1406,31.2344 Q52.1406,30.8594 52.4063,30.625 Q52.6719,30.3906 53.2813,30.3906 L55,30.3906 L55,23.7344 L53.2813,23.7344 Q52.6719,23.7344 52.4063,23.5 Q52.1406,23.2656 52.1406,22.875 Q52.1406,22.5 52.4063,22.2656 Q52.6719,22.0313 53.2813,22.0313 L58.4219,22.0313 Q59.0313,22.0313 59.2969,22.2656 Q59.5625,22.5 59.5625,22.875 Q59.5625,23.2656 59.2969,23.5 Q59.0313,23.7344 58.4219,23.7344 L56.7031,23.7344 Z "/><text fill="#000000" font-family="sans-serif" font-size="14" font-style="italic" lengthAdjust="spacingAndGlyphs" textLength="126" x="76.25" y="26.5332">DescribableElement</text><text fill="#000000" font-family="sans-serif" font-size="10" font-style="italic" lengthAdjust="spacingAndGlyphs" textLength="92" x="93.25" y="39.9902">org.eclipse.epf.uma</text><line style="stroke: #A80036; stroke-width: 1.5;" x1="8" x2="238" y1="47.1875" y2="47.1875"/><ellipse cx="18" cy="58.1875" fill="#84BE84" rx="3" ry="3" style="stroke: #038048; stroke-width: 1.0;"/><text fill="#000000" font-family="sans-serif" font-size="11" font-style="italic" lengthAdjust="spacingAndGlyphs" textLength="186" x="27" y="62.6064">getPresentation(): ContentDescription</text><ellipse cx="18" cy="72.0234" fill="#84BE84" rx="3" ry="3" style="stroke: #038048; stroke-width: 1.0;"/><text fill="#000000" font-family="sans-serif" font-size="11" font-style="italic" lengthAdjust="spacingAndGlyphs" textLength="206" x="27" y="76.4424">setPresentation(ContentDescription): void</text><ellipse cx="18" cy="85.8594" fill="#84BE84" rx="3" ry="3" style="stroke: #038048; stroke-width: 1.0;"/><text fill="#000000" font-family="sans-serif" font-size="11" font-style="italic" lengthAdjust="spacingAndGlyphs" textLength="99" x="27" y="90.2783">getShapeicon(): URI</text><ellipse cx="18" cy="99.6953" fill="#84BE84" rx="3" ry="3" style="stroke: #038048; stroke-width: 1.0;"/><text fill="#000000" font-family="sans-serif" font-size="11" font-style="italic" lengthAdjust="spacingAndGlyphs" textLength="119" x="27" y="104.1143">setShapeicon(URI): void</text><ellipse cx="18" cy="113.5313" fill="#84BE84" rx="3" ry="3" style="stroke: #038048; stroke-width: 1.0;"/><text fill="#000000" font-family="sans-serif" font-size="11" font-style="italic" lengthAdjust="spacingAndGlyphs" textLength="94" x="27" y="117.9502">getNodeicon(): URI</text><ellipse cx="18" cy="127.3672" fill="#84BE84" rx="3" ry="3" style="stroke: #038048; stroke-width: 1.0;"/><text fill="#000000" font-family="sans-serif" font-size="11" font-style="italic" lengthAdjust="spacingAndGlyphs" textLength="114" x="27" y="131.7861">setNodeicon(URI): void</text></a><!--MD5=[c7c372ad56e201c81ea09ca65a0d657b]
reverse link org.eclipse.epf.uma.DescribableElement to org.eclipse.epf.uma.FulfillableElement--><path codeLine="18" d="M123,158.17 C123,172.33 123,186.16 123,197.72 " fill="none" id="org.eclipse.epf.uma.DescribableElement-backto-org.eclipse.epf.uma.FulfillableElement" style="stroke: #A80036; stroke-width: 1.0;"/><polygon fill="none" points="116,158.13,123,138.13,130,158.13,116,158.13" style="stroke: #A80036; stroke-width: 1.0;"/><text fill="#888888" font-family="sans-serif" font-size="10" lengthAdjust="spacingAndGlyphs" textLength="190" x="25" y="283.4043">UMLDoclet 2.0.12, PlantUML 1.2020.16</text><!--MD5=[0f1a6a300d1026a7dbbacdc3862f64fa]
@startuml
    set namespaceSeparator none
    hide empty fields
    hide empty methods

    interface "<size:14>FulfillableElement\n<size:10>org.eclipse.epf.uma" as org.eclipse.epf.uma.FulfillableElement [[FulfillableElement.html]] {
        {abstract} +getFulfills(): EList<FulfillableElement>
    }

    interface "<size:14>DescribableElement\n<size:10>org.eclipse.epf.uma" as org.eclipse.epf.uma.DescribableElement [[DescribableElement.html]] {
        {abstract} +getPresentation(): ContentDescription
        {abstract} +setPresentation(ContentDescription): void
        {abstract} +getShapeicon(): URI
        {abstract} +setShapeicon(URI): void
        {abstract} +getNodeicon(): URI
        {abstract} +setNodeicon(URI): void
    }

    org.eclipse.epf.uma.DescribableElement <|- - org.eclipse.epf.uma.FulfillableElement

    center footer UMLDoclet 2.0.12, PlantUML 1.2020.16
@enduml

PlantUML version 1.2020.16(Sun Aug 23 22:20:43 CEST 2020)
(APACHE source distribution)
Java Runtime: Java(TM) SE Runtime Environment
JVM: Java HotSpot(TM) 64-Bit Server VM
Default Encoding: Cp1252
Language: es
Country: ES
--></g></svg>