<?xml version="1.0" encoding="UTF-8" standalone="no"?><svg xmlns="http://www.w3.org/2000/svg" xmlns:xlink="http://www.w3.org/1999/xlink" contentScriptType="application/ecmascript" contentStyleType="text/css" height="324px" preserveAspectRatio="none" style="width:285px;height:324px;" version="1.1" viewBox="0 0 285 324" width="285px" zoomAndPan="magnify"><defs><filter height="300%" id="fjysj0wyi3nyd" width="300%" x="-1" y="-1"><feGaussianBlur result="blurOut" stdDeviation="2.0"/><feColorMatrix in="blurOut" result="blurOut2" type="matrix" values="0 0 0 0 0 0 0 0 0 0 0 0 0 0 0 0 0 0 .4 0"/><feOffset dx="4.0" dy="4.0" in="blurOut2" result="blurOut3"/><feBlend in="SourceGraphic" in2="blurOut3" mode="normal"/></filter></defs><g><!--MD5=[b75d94af4eff09bc006cc7e6221a5132]
class org.eclipse.epf.uma.GraphNode--><a href="GraphNode.html" target="_top" title="GraphNode.html" xlink:actuate="onRequest" xlink:href="GraphNode.html" xlink:show="new" xlink:title="GraphNode.html" xlink:type="simple"><rect codeLine="5" fill="#FEFECE" filter="url(#fjysj0wyi3nyd)" height="75.8594" id="org.eclipse.epf.uma.GraphNode" style="stroke: #A80036; stroke-width: 1.5;" width="150" x="61.5" y="212"/><ellipse cx="88.2" cy="232.0938" fill="#B4A7E5" rx="11" ry="11" style="stroke: #A80036; stroke-width: 1.0;"/><path d="M89.1531,228.7344 L89.1531,235.3906 L90.8719,235.3906 Q91.4813,235.3906 91.7469,235.625 Q92.0125,235.8594 92.0125,236.25 Q92.0125,236.625 91.7469,236.8594 Q91.4813,237.0938 90.8719,237.0938 L85.7313,237.0938 Q85.1219,237.0938 84.8563,236.8594 Q84.5906,236.625 84.5906,236.2344 Q84.5906,235.8594 84.8563,235.625 Q85.1219,235.3906 85.7313,235.3906 L87.45,235.3906 L87.45,228.7344 L85.7313,228.7344 Q85.1219,228.7344 84.8563,228.5 Q84.5906,228.2656 84.5906,227.875 Q84.5906,227.5 84.8563,227.2656 Q85.1219,227.0313 85.7313,227.0313 L90.8719,227.0313 Q91.4813,227.0313 91.7469,227.2656 Q92.0125,227.5 92.0125,227.875 Q92.0125,228.2656 91.7469,228.5 Q91.4813,228.7344 90.8719,228.7344 L89.1531,228.7344 Z "/><text fill="#000000" font-family="sans-serif" font-size="14" font-style="italic" lengthAdjust="spacingAndGlyphs" textLength="74" x="113.8" y="231.5332">GraphNode</text><text fill="#000000" font-family="sans-serif" font-size="10" font-style="italic" lengthAdjust="spacingAndGlyphs" textLength="92" x="104.8" y="244.9902">org.eclipse.epf.uma</text><line style="stroke: #A80036; stroke-width: 1.5;" x1="62.5" x2="210.5" y1="252.1875" y2="252.1875"/><ellipse cx="72.5" cy="263.1875" fill="#84BE84" rx="3" ry="3" style="stroke: #038048; stroke-width: 1.0;"/><text fill="#000000" font-family="sans-serif" font-size="11" font-style="italic" lengthAdjust="spacingAndGlyphs" textLength="104" x="81.5" y="267.6064">getSize(): Dimension</text><ellipse cx="72.5" cy="277.0234" fill="#84BE84" rx="3" ry="3" style="stroke: #038048; stroke-width: 1.0;"/><text fill="#000000" font-family="sans-serif" font-size="11" font-style="italic" lengthAdjust="spacingAndGlyphs" textLength="124" x="81.5" y="281.4424">setSize(Dimension): void</text></a><!--MD5=[b3569ed084dd719e63eb6ef7bfac9d33]
class org.eclipse.epf.uma.GraphElement--><a href="GraphElement.html" target="_top" title="GraphElement.html" xlink:actuate="onRequest" xlink:href="GraphElement.html" xlink:show="new" xlink:title="GraphElement.html" xlink:type="simple"><rect codeLine="10" fill="#FEFECE" filter="url(#fjysj0wyi3nyd)" height="145.0391" id="org.eclipse.epf.uma.GraphElement" style="stroke: #A80036; stroke-width: 1.5;" width="259" x="7" y="7"/><ellipse cx="86.25" cy="27.0938" fill="#B4A7E5" rx="11" ry="11" style="stroke: #A80036; stroke-width: 1.0;"/><path d="M87.2031,23.7344 L87.2031,30.3906 L88.9219,30.3906 Q89.5313,30.3906 89.7969,30.625 Q90.0625,30.8594 90.0625,31.25 Q90.0625,31.625 89.7969,31.8594 Q89.5313,32.0938 88.9219,32.0938 L83.7813,32.0938 Q83.1719,32.0938 82.9063,31.8594 Q82.6406,31.625 82.6406,31.2344 Q82.6406,30.8594 82.9063,30.625 Q83.1719,30.3906 83.7813,30.3906 L85.5,30.3906 L85.5,23.7344 L83.7813,23.7344 Q83.1719,23.7344 82.9063,23.5 Q82.6406,23.2656 82.6406,22.875 Q82.6406,22.5 82.9063,22.2656 Q83.1719,22.0313 83.7813,22.0313 L88.9219,22.0313 Q89.5313,22.0313 89.7969,22.2656 Q90.0625,22.5 90.0625,22.875 Q90.0625,23.2656 89.7969,23.5 Q89.5313,23.7344 88.9219,23.7344 L87.2031,23.7344 Z "/><text fill="#000000" font-family="sans-serif" font-size="14" font-style="italic" lengthAdjust="spacingAndGlyphs" textLength="91" x="107.25" y="26.5332">GraphElement</text><text fill="#000000" font-family="sans-serif" font-size="10" font-style="italic" lengthAdjust="spacingAndGlyphs" textLength="92" x="106.75" y="39.9902">org.eclipse.epf.uma</text><line style="stroke: #A80036; stroke-width: 1.5;" x1="8" x2="265" y1="47.1875" y2="47.1875"/><ellipse cx="18" cy="58.1875" fill="#84BE84" rx="3" ry="3" style="stroke: #038048; stroke-width: 1.0;"/><text fill="#000000" font-family="sans-serif" font-size="11" font-style="italic" lengthAdjust="spacingAndGlyphs" textLength="198" x="27" y="62.6064">getContained(): EList&lt;DiagramElement&gt;</text><ellipse cx="18" cy="72.0234" fill="#84BE84" rx="3" ry="3" style="stroke: #038048; stroke-width: 1.0;"/><text fill="#000000" font-family="sans-serif" font-size="11" font-style="italic" lengthAdjust="spacingAndGlyphs" textLength="94" x="27" y="76.4424">getPosition(): Point</text><ellipse cx="18" cy="85.8594" fill="#84BE84" rx="3" ry="3" style="stroke: #038048; stroke-width: 1.0;"/><text fill="#000000" font-family="sans-serif" font-size="11" font-style="italic" lengthAdjust="spacingAndGlyphs" textLength="114" x="27" y="90.2783">setPosition(Point): void</text><ellipse cx="18" cy="99.6953" fill="#84BE84" rx="3" ry="3" style="stroke: #038048; stroke-width: 1.0;"/><text fill="#000000" font-family="sans-serif" font-size="11" font-style="italic" lengthAdjust="spacingAndGlyphs" textLength="150" x="27" y="104.1143">getLink(): EList&lt;DiagramLink&gt;</text><ellipse cx="18" cy="113.5313" fill="#84BE84" rx="3" ry="3" style="stroke: #038048; stroke-width: 1.0;"/><text fill="#000000" font-family="sans-serif" font-size="11" font-style="italic" lengthAdjust="spacingAndGlyphs" textLength="201" x="27" y="117.9502">getAnchorage(): EList&lt;GraphConnector&gt;</text><ellipse cx="18" cy="127.3672" fill="#84BE84" rx="3" ry="3" style="stroke: #038048; stroke-width: 1.0;"/><text fill="#000000" font-family="sans-serif" font-size="11" font-style="italic" lengthAdjust="spacingAndGlyphs" textLength="213" x="27" y="131.7861">getSemanticModel(): SemanticModelBridge</text><ellipse cx="18" cy="141.2031" fill="#84BE84" rx="3" ry="3" style="stroke: #038048; stroke-width: 1.0;"/><text fill="#000000" font-family="sans-serif" font-size="11" font-style="italic" lengthAdjust="spacingAndGlyphs" textLength="233" x="27" y="145.6221">setSemanticModel(SemanticModelBridge): void</text></a><!--MD5=[c011072ae8c7a5a13e87a56871ca4e04]
reverse link org.eclipse.epf.uma.GraphElement to org.eclipse.epf.uma.GraphNode--><path codeLine="20" d="M136.5,172.67 C136.5,186.45 136.5,199.94 136.5,211.66 " fill="none" id="org.eclipse.epf.uma.GraphElement-backto-org.eclipse.epf.uma.GraphNode" style="stroke: #A80036; stroke-width: 1.0;"/><polygon fill="none" points="129.5,172.45,136.5,152.45,143.5,172.45,129.5,172.45" style="stroke: #A80036; stroke-width: 1.0;"/><text fill="#888888" font-family="sans-serif" font-size="10" lengthAdjust="spacingAndGlyphs" textLength="190" x="38.5" y="311.2402">UMLDoclet 2.0.12, PlantUML 1.2020.16</text><!--MD5=[1cf340eaad46d087be9861812d978bd6]
@startuml
    set namespaceSeparator none
    hide empty fields
    hide empty methods

    interface "<size:14>GraphNode\n<size:10>org.eclipse.epf.uma" as org.eclipse.epf.uma.GraphNode [[GraphNode.html]] {
        {abstract} +getSize(): Dimension
        {abstract} +setSize(Dimension): void
    }

    interface "<size:14>GraphElement\n<size:10>org.eclipse.epf.uma" as org.eclipse.epf.uma.GraphElement [[GraphElement.html]] {
        {abstract} +getContained(): EList<DiagramElement>
        {abstract} +getPosition(): Point
        {abstract} +setPosition(Point): void
        {abstract} +getLink(): EList<DiagramLink>
        {abstract} +getAnchorage(): EList<GraphConnector>
        {abstract} +getSemanticModel(): SemanticModelBridge
        {abstract} +setSemanticModel(SemanticModelBridge): void
    }

    org.eclipse.epf.uma.GraphElement <|- - org.eclipse.epf.uma.GraphNode

    center footer UMLDoclet 2.0.12, PlantUML 1.2020.16
@enduml

PlantUML version 1.2020.16(Sun Aug 23 22:20:43 CEST 2020)
(APACHE source distribution)
Java Runtime: Java(TM) SE Runtime Environment
JVM: Java HotSpot(TM) 64-Bit Server VM
Default Encoding: Cp1252
Language: es
Country: ES
--></g></svg>