<?xml version="1.0" encoding="UTF-8" standalone="no"?><svg xmlns="http://www.w3.org/2000/svg" xmlns:xlink="http://www.w3.org/1999/xlink" contentScriptType="application/ecmascript" contentStyleType="text/css" height="379px" preserveAspectRatio="none" style="width:285px;height:379px;" version="1.1" viewBox="0 0 285 379" width="285px" zoomAndPan="magnify"><defs><filter height="300%" id="f7fifsex3if0l" width="300%" x="-1" y="-1"><feGaussianBlur result="blurOut" stdDeviation="2.0"/><feColorMatrix in="blurOut" result="blurOut2" type="matrix" values="0 0 0 0 0 0 0 0 0 0 0 0 0 0 0 0 0 0 .4 0"/><feOffset dx="4.0" dy="4.0" in="blurOut2" result="blurOut3"/><feBlend in="SourceGraphic" in2="blurOut3" mode="normal"/></filter></defs><g><!--MD5=[b3569ed084dd719e63eb6ef7bfac9d33]
class org.eclipse.epf.uma.GraphElement--><a href="GraphElement.html" target="_top" title="GraphElement.html" xlink:actuate="onRequest" xlink:href="GraphElement.html" xlink:show="new" xlink:title="GraphElement.html" xlink:type="simple"><rect codeLine="5" fill="#FEFECE" filter="url(#f7fifsex3if0l)" height="145.0391" id="org.eclipse.epf.uma.GraphElement" style="stroke: #A80036; stroke-width: 1.5;" width="259" x="7" y="198"/><ellipse cx="86.25" cy="218.0938" fill="#B4A7E5" rx="11" ry="11" style="stroke: #A80036; stroke-width: 1.0;"/><path d="M87.2031,214.7344 L87.2031,221.3906 L88.9219,221.3906 Q89.5313,221.3906 89.7969,221.625 Q90.0625,221.8594 90.0625,222.25 Q90.0625,222.625 89.7969,222.8594 Q89.5313,223.0938 88.9219,223.0938 L83.7813,223.0938 Q83.1719,223.0938 82.9063,222.8594 Q82.6406,222.625 82.6406,222.2344 Q82.6406,221.8594 82.9063,221.625 Q83.1719,221.3906 83.7813,221.3906 L85.5,221.3906 L85.5,214.7344 L83.7813,214.7344 Q83.1719,214.7344 82.9063,214.5 Q82.6406,214.2656 82.6406,213.875 Q82.6406,213.5 82.9063,213.2656 Q83.1719,213.0313 83.7813,213.0313 L88.9219,213.0313 Q89.5313,213.0313 89.7969,213.2656 Q90.0625,213.5 90.0625,213.875 Q90.0625,214.2656 89.7969,214.5 Q89.5313,214.7344 88.9219,214.7344 L87.2031,214.7344 Z "/><text fill="#000000" font-family="sans-serif" font-size="14" font-style="italic" lengthAdjust="spacingAndGlyphs" textLength="91" x="107.25" y="217.5332">GraphElement</text><text fill="#000000" font-family="sans-serif" font-size="10" font-style="italic" lengthAdjust="spacingAndGlyphs" textLength="92" x="106.75" y="230.9902">org.eclipse.epf.uma</text><line style="stroke: #A80036; stroke-width: 1.5;" x1="8" x2="265" y1="238.1875" y2="238.1875"/><ellipse cx="18" cy="249.1875" fill="#84BE84" rx="3" ry="3" style="stroke: #038048; stroke-width: 1.0;"/><text fill="#000000" font-family="sans-serif" font-size="11" font-style="italic" lengthAdjust="spacingAndGlyphs" textLength="198" x="27" y="253.6064">getContained(): EList&lt;DiagramElement&gt;</text><ellipse cx="18" cy="263.0234" fill="#84BE84" rx="3" ry="3" style="stroke: #038048; stroke-width: 1.0;"/><text fill="#000000" font-family="sans-serif" font-size="11" font-style="italic" lengthAdjust="spacingAndGlyphs" textLength="94" x="27" y="267.4424">getPosition(): Point</text><ellipse cx="18" cy="276.8594" fill="#84BE84" rx="3" ry="3" style="stroke: #038048; stroke-width: 1.0;"/><text fill="#000000" font-family="sans-serif" font-size="11" font-style="italic" lengthAdjust="spacingAndGlyphs" textLength="114" x="27" y="281.2783">setPosition(Point): void</text><ellipse cx="18" cy="290.6953" fill="#84BE84" rx="3" ry="3" style="stroke: #038048; stroke-width: 1.0;"/><text fill="#000000" font-family="sans-serif" font-size="11" font-style="italic" lengthAdjust="spacingAndGlyphs" textLength="150" x="27" y="295.1143">getLink(): EList&lt;DiagramLink&gt;</text><ellipse cx="18" cy="304.5313" fill="#84BE84" rx="3" ry="3" style="stroke: #038048; stroke-width: 1.0;"/><text fill="#000000" font-family="sans-serif" font-size="11" font-style="italic" lengthAdjust="spacingAndGlyphs" textLength="201" x="27" y="308.9502">getAnchorage(): EList&lt;GraphConnector&gt;</text><ellipse cx="18" cy="318.3672" fill="#84BE84" rx="3" ry="3" style="stroke: #038048; stroke-width: 1.0;"/><text fill="#000000" font-family="sans-serif" font-size="11" font-style="italic" lengthAdjust="spacingAndGlyphs" textLength="213" x="27" y="322.7861">getSemanticModel(): SemanticModelBridge</text><ellipse cx="18" cy="332.2031" fill="#84BE84" rx="3" ry="3" style="stroke: #038048; stroke-width: 1.0;"/><text fill="#000000" font-family="sans-serif" font-size="11" font-style="italic" lengthAdjust="spacingAndGlyphs" textLength="233" x="27" y="336.6221">setSemanticModel(SemanticModelBridge): void</text></a><!--MD5=[267d9fa064d21b4acbe47d4366e1aad1]
class org.eclipse.epf.uma.DiagramElement--><a href="DiagramElement.html" target="_top" title="DiagramElement.html" xlink:actuate="onRequest" xlink:href="DiagramElement.html" xlink:show="new" xlink:title="DiagramElement.html" xlink:type="simple"><rect codeLine="15" fill="#FEFECE" filter="url(#f7fifsex3if0l)" height="131.2031" id="org.eclipse.epf.uma.DiagramElement" style="stroke: #A80036; stroke-width: 1.5;" width="194" x="39.5" y="7"/><ellipse cx="80.6" cy="27.0938" fill="#B4A7E5" rx="11" ry="11" style="stroke: #A80036; stroke-width: 1.0;"/><path d="M81.5531,23.7344 L81.5531,30.3906 L83.2719,30.3906 Q83.8813,30.3906 84.1469,30.625 Q84.4125,30.8594 84.4125,31.25 Q84.4125,31.625 84.1469,31.8594 Q83.8813,32.0938 83.2719,32.0938 L78.1313,32.0938 Q77.5219,32.0938 77.2563,31.8594 Q76.9906,31.625 76.9906,31.2344 Q76.9906,30.8594 77.2563,30.625 Q77.5219,30.3906 78.1313,30.3906 L79.85,30.3906 L79.85,23.7344 L78.1313,23.7344 Q77.5219,23.7344 77.2563,23.5 Q76.9906,23.2656 76.9906,22.875 Q76.9906,22.5 77.2563,22.2656 Q77.5219,22.0313 78.1313,22.0313 L83.2719,22.0313 Q83.8813,22.0313 84.1469,22.2656 Q84.4125,22.5 84.4125,22.875 Q84.4125,23.2656 84.1469,23.5 Q83.8813,23.7344 83.2719,23.7344 L81.5531,23.7344 Z "/><text fill="#000000" font-family="sans-serif" font-size="14" font-style="italic" lengthAdjust="spacingAndGlyphs" textLength="104" x="100.4" y="26.5332">DiagramElement</text><text fill="#000000" font-family="sans-serif" font-size="10" font-style="italic" lengthAdjust="spacingAndGlyphs" textLength="92" x="106.4" y="39.9902">org.eclipse.epf.uma</text><line style="stroke: #A80036; stroke-width: 1.5;" x1="40.5" x2="232.5" y1="47.1875" y2="47.1875"/><ellipse cx="50.5" cy="58.1875" fill="#84BE84" rx="3" ry="3" style="stroke: #038048; stroke-width: 1.0;"/><text fill="#000000" font-family="sans-serif" font-size="11" font-style="italic" lengthAdjust="spacingAndGlyphs" textLength="113" x="59.5" y="62.6064">getIsVisible(): Boolean</text><ellipse cx="50.5" cy="72.0234" fill="#84BE84" rx="3" ry="3" style="stroke: #038048; stroke-width: 1.0;"/><text fill="#000000" font-family="sans-serif" font-size="11" font-style="italic" lengthAdjust="spacingAndGlyphs" textLength="133" x="59.5" y="76.4424">setIsVisible(Boolean): void</text><ellipse cx="50.5" cy="85.8594" fill="#84BE84" rx="3" ry="3" style="stroke: #038048; stroke-width: 1.0;"/><text fill="#000000" font-family="sans-serif" font-size="11" font-style="italic" lengthAdjust="spacingAndGlyphs" textLength="148" x="59.5" y="90.2783">getContainer(): GraphElement</text><ellipse cx="50.5" cy="99.6953" fill="#84BE84" rx="3" ry="3" style="stroke: #038048; stroke-width: 1.0;"/><text fill="#000000" font-family="sans-serif" font-size="11" font-style="italic" lengthAdjust="spacingAndGlyphs" textLength="168" x="59.5" y="104.1143">setContainer(GraphElement): void</text><ellipse cx="50.5" cy="113.5313" fill="#84BE84" rx="3" ry="3" style="stroke: #038048; stroke-width: 1.0;"/><text fill="#000000" font-family="sans-serif" font-size="11" font-style="italic" lengthAdjust="spacingAndGlyphs" textLength="168" x="59.5" y="117.9502">getReference(): EList&lt;Reference&gt;</text><ellipse cx="50.5" cy="127.3672" fill="#84BE84" rx="3" ry="3" style="stroke: #038048; stroke-width: 1.0;"/><text fill="#000000" font-family="sans-serif" font-size="11" font-style="italic" lengthAdjust="spacingAndGlyphs" textLength="148" x="59.5" y="131.7861">getProperty(): EList&lt;Property&gt;</text></a><!--MD5=[a0738ddb5999a16770f24a442eeb52a3]
reverse link org.eclipse.epf.uma.DiagramElement to org.eclipse.epf.uma.GraphElement--><path codeLine="24" d="M136.5,158.42 C136.5,171.53 136.5,184.96 136.5,197.74 " fill="none" id="org.eclipse.epf.uma.DiagramElement-backto-org.eclipse.epf.uma.GraphElement" style="stroke: #A80036; stroke-width: 1.0;"/><polygon fill="none" points="129.5,158.22,136.5,138.22,143.5,158.22,129.5,158.22" style="stroke: #A80036; stroke-width: 1.0;"/><text fill="#888888" font-family="sans-serif" font-size="10" lengthAdjust="spacingAndGlyphs" textLength="190" x="38.5" y="366.4199">UMLDoclet 2.0.12, PlantUML 1.2020.16</text><!--MD5=[6a09919be14a90cbc6f87c7d070cf3df]
@startuml
    set namespaceSeparator none
    hide empty fields
    hide empty methods

    interface "<size:14>GraphElement\n<size:10>org.eclipse.epf.uma" as org.eclipse.epf.uma.GraphElement [[GraphElement.html]] {
        {abstract} +getContained(): EList<DiagramElement>
        {abstract} +getPosition(): Point
        {abstract} +setPosition(Point): void
        {abstract} +getLink(): EList<DiagramLink>
        {abstract} +getAnchorage(): EList<GraphConnector>
        {abstract} +getSemanticModel(): SemanticModelBridge
        {abstract} +setSemanticModel(SemanticModelBridge): void
    }

    interface "<size:14>DiagramElement\n<size:10>org.eclipse.epf.uma" as org.eclipse.epf.uma.DiagramElement [[DiagramElement.html]] {
        {abstract} +getIsVisible(): Boolean
        {abstract} +setIsVisible(Boolean): void
        {abstract} +getContainer(): GraphElement
        {abstract} +setContainer(GraphElement): void
        {abstract} +getReference(): EList<Reference>
        {abstract} +getProperty(): EList<Property>
    }

    org.eclipse.epf.uma.DiagramElement <|- - org.eclipse.epf.uma.GraphElement

    center footer UMLDoclet 2.0.12, PlantUML 1.2020.16
@enduml

PlantUML version 1.2020.16(Sun Aug 23 22:20:43 CEST 2020)
(APACHE source distribution)
Java Runtime: Java(TM) SE Runtime Environment
JVM: Java HotSpot(TM) 64-Bit Server VM
Default Encoding: Cp1252
Language: es
Country: ES
--></g></svg>