<?xml version="1.0" encoding="UTF-8" standalone="no"?><svg xmlns="http://www.w3.org/2000/svg" xmlns:xlink="http://www.w3.org/1999/xlink" contentScriptType="application/ecmascript" contentStyleType="text/css" height="338px" preserveAspectRatio="none" style="width:285px;height:338px;" version="1.1" viewBox="0 0 285 338" width="285px" zoomAndPan="magnify"><defs><filter height="300%" id="f56smeid2ptoj" width="300%" x="-1" y="-1"><feGaussianBlur result="blurOut" stdDeviation="2.0"/><feColorMatrix in="blurOut" result="blurOut2" type="matrix" values="0 0 0 0 0 0 0 0 0 0 0 0 0 0 0 0 0 0 .4 0"/><feOffset dx="4.0" dy="4.0" in="blurOut2" result="blurOut3"/><feBlend in="SourceGraphic" in2="blurOut3" mode="normal"/></filter></defs><g><!--MD5=[f38145cf14e34bb5ad60acb47e7ab22c]
class org.eclipse.epf.uma.GraphConnector--><a href="GraphConnector.html" target="_top" title="GraphConnector.html" xlink:actuate="onRequest" xlink:href="GraphConnector.html" xlink:show="new" xlink:title="GraphConnector.html" xlink:type="simple"><rect codeLine="5" fill="#FEFECE" filter="url(#f56smeid2ptoj)" height="89.6953" id="org.eclipse.epf.uma.GraphConnector" style="stroke: #A80036; stroke-width: 1.5;" width="217" x="28" y="212"/><ellipse cx="79.25" cy="232.0938" fill="#B4A7E5" rx="11" ry="11" style="stroke: #A80036; stroke-width: 1.0;"/><path d="M80.2031,228.7344 L80.2031,235.3906 L81.9219,235.3906 Q82.5313,235.3906 82.7969,235.625 Q83.0625,235.8594 83.0625,236.25 Q83.0625,236.625 82.7969,236.8594 Q82.5313,237.0938 81.9219,237.0938 L76.7813,237.0938 Q76.1719,237.0938 75.9063,236.8594 Q75.6406,236.625 75.6406,236.2344 Q75.6406,235.8594 75.9063,235.625 Q76.1719,235.3906 76.7813,235.3906 L78.5,235.3906 L78.5,228.7344 L76.7813,228.7344 Q76.1719,228.7344 75.9063,228.5 Q75.6406,228.2656 75.6406,227.875 Q75.6406,227.5 75.9063,227.2656 Q76.1719,227.0313 76.7813,227.0313 L81.9219,227.0313 Q82.5313,227.0313 82.7969,227.2656 Q83.0625,227.5 83.0625,227.875 Q83.0625,228.2656 82.7969,228.5 Q82.5313,228.7344 81.9219,228.7344 L80.2031,228.7344 Z "/><text fill="#000000" font-family="sans-serif" font-size="14" font-style="italic" lengthAdjust="spacingAndGlyphs" textLength="106" x="99.75" y="231.5332">GraphConnector</text><text fill="#000000" font-family="sans-serif" font-size="10" font-style="italic" lengthAdjust="spacingAndGlyphs" textLength="92" x="106.75" y="244.9902">org.eclipse.epf.uma</text><line style="stroke: #A80036; stroke-width: 1.5;" x1="29" x2="244" y1="252.1875" y2="252.1875"/><ellipse cx="39" cy="263.1875" fill="#84BE84" rx="3" ry="3" style="stroke: #038048; stroke-width: 1.0;"/><text fill="#000000" font-family="sans-serif" font-size="11" font-style="italic" lengthAdjust="spacingAndGlyphs" textLength="178" x="48" y="267.6064">getGraphEdge(): EList&lt;GraphEdge&gt;</text><ellipse cx="39" cy="277.0234" fill="#84BE84" rx="3" ry="3" style="stroke: #038048; stroke-width: 1.0;"/><text fill="#000000" font-family="sans-serif" font-size="11" font-style="italic" lengthAdjust="spacingAndGlyphs" textLength="171" x="48" y="281.4424">getGraphElement(): GraphElement</text><ellipse cx="39" cy="290.8594" fill="#84BE84" rx="3" ry="3" style="stroke: #038048; stroke-width: 1.0;"/><text fill="#000000" font-family="sans-serif" font-size="11" font-style="italic" lengthAdjust="spacingAndGlyphs" textLength="191" x="48" y="295.2783">setGraphElement(GraphElement): void</text></a><!--MD5=[b3569ed084dd719e63eb6ef7bfac9d33]
class org.eclipse.epf.uma.GraphElement--><a href="GraphElement.html" target="_top" title="GraphElement.html" xlink:actuate="onRequest" xlink:href="GraphElement.html" xlink:show="new" xlink:title="GraphElement.html" xlink:type="simple"><rect codeLine="11" fill="#FEFECE" filter="url(#f56smeid2ptoj)" height="145.0391" id="org.eclipse.epf.uma.GraphElement" style="stroke: #A80036; stroke-width: 1.5;" width="259" x="7" y="7"/><ellipse cx="86.25" cy="27.0938" fill="#B4A7E5" rx="11" ry="11" style="stroke: #A80036; stroke-width: 1.0;"/><path d="M87.2031,23.7344 L87.2031,30.3906 L88.9219,30.3906 Q89.5313,30.3906 89.7969,30.625 Q90.0625,30.8594 90.0625,31.25 Q90.0625,31.625 89.7969,31.8594 Q89.5313,32.0938 88.9219,32.0938 L83.7813,32.0938 Q83.1719,32.0938 82.9063,31.8594 Q82.6406,31.625 82.6406,31.2344 Q82.6406,30.8594 82.9063,30.625 Q83.1719,30.3906 83.7813,30.3906 L85.5,30.3906 L85.5,23.7344 L83.7813,23.7344 Q83.1719,23.7344 82.9063,23.5 Q82.6406,23.2656 82.6406,22.875 Q82.6406,22.5 82.9063,22.2656 Q83.1719,22.0313 83.7813,22.0313 L88.9219,22.0313 Q89.5313,22.0313 89.7969,22.2656 Q90.0625,22.5 90.0625,22.875 Q90.0625,23.2656 89.7969,23.5 Q89.5313,23.7344 88.9219,23.7344 L87.2031,23.7344 Z "/><text fill="#000000" font-family="sans-serif" font-size="14" font-style="italic" lengthAdjust="spacingAndGlyphs" textLength="91" x="107.25" y="26.5332">GraphElement</text><text fill="#000000" font-family="sans-serif" font-size="10" font-style="italic" lengthAdjust="spacingAndGlyphs" textLength="92" x="106.75" y="39.9902">org.eclipse.epf.uma</text><line style="stroke: #A80036; stroke-width: 1.5;" x1="8" x2="265" y1="47.1875" y2="47.1875"/><ellipse cx="18" cy="58.1875" fill="#84BE84" rx="3" ry="3" style="stroke: #038048; stroke-width: 1.0;"/><text fill="#000000" font-family="sans-serif" font-size="11" font-style="italic" lengthAdjust="spacingAndGlyphs" textLength="198" x="27" y="62.6064">getContained(): EList&lt;DiagramElement&gt;</text><ellipse cx="18" cy="72.0234" fill="#84BE84" rx="3" ry="3" style="stroke: #038048; stroke-width: 1.0;"/><text fill="#000000" font-family="sans-serif" font-size="11" font-style="italic" lengthAdjust="spacingAndGlyphs" textLength="94" x="27" y="76.4424">getPosition(): Point</text><ellipse cx="18" cy="85.8594" fill="#84BE84" rx="3" ry="3" style="stroke: #038048; stroke-width: 1.0;"/><text fill="#000000" font-family="sans-serif" font-size="11" font-style="italic" lengthAdjust="spacingAndGlyphs" textLength="114" x="27" y="90.2783">setPosition(Point): void</text><ellipse cx="18" cy="99.6953" fill="#84BE84" rx="3" ry="3" style="stroke: #038048; stroke-width: 1.0;"/><text fill="#000000" font-family="sans-serif" font-size="11" font-style="italic" lengthAdjust="spacingAndGlyphs" textLength="150" x="27" y="104.1143">getLink(): EList&lt;DiagramLink&gt;</text><ellipse cx="18" cy="113.5313" fill="#84BE84" rx="3" ry="3" style="stroke: #038048; stroke-width: 1.0;"/><text fill="#000000" font-family="sans-serif" font-size="11" font-style="italic" lengthAdjust="spacingAndGlyphs" textLength="201" x="27" y="117.9502">getAnchorage(): EList&lt;GraphConnector&gt;</text><ellipse cx="18" cy="127.3672" fill="#84BE84" rx="3" ry="3" style="stroke: #038048; stroke-width: 1.0;"/><text fill="#000000" font-family="sans-serif" font-size="11" font-style="italic" lengthAdjust="spacingAndGlyphs" textLength="213" x="27" y="131.7861">getSemanticModel(): SemanticModelBridge</text><ellipse cx="18" cy="141.2031" fill="#84BE84" rx="3" ry="3" style="stroke: #038048; stroke-width: 1.0;"/><text fill="#000000" font-family="sans-serif" font-size="11" font-style="italic" lengthAdjust="spacingAndGlyphs" textLength="233" x="27" y="145.6221">setSemanticModel(SemanticModelBridge): void</text></a><!--MD5=[39907604eacf77f875988f0cbe9dc9cb]
reverse link org.eclipse.epf.uma.GraphElement to org.eclipse.epf.uma.GraphConnector--><path codeLine="21" d="M136.5,172.23 C136.5,185.99 136.5,199.62 136.5,211.76 " fill="none" id="org.eclipse.epf.uma.GraphElement-backto-org.eclipse.epf.uma.GraphConnector" style="stroke: #A80036; stroke-width: 1.0;"/><polygon fill="none" points="129.5,172.14,136.5,152.14,143.5,172.14,129.5,172.14" style="stroke: #A80036; stroke-width: 1.0;"/><text fill="#888888" font-family="sans-serif" font-size="10" lengthAdjust="spacingAndGlyphs" textLength="190" x="38.5" y="325.0762">UMLDoclet 2.0.12, PlantUML 1.2020.16</text><!--MD5=[81889a37a674e30639a4eaf140ec8112]
@startuml
    set namespaceSeparator none
    hide empty fields
    hide empty methods

    interface "<size:14>GraphConnector\n<size:10>org.eclipse.epf.uma" as org.eclipse.epf.uma.GraphConnector [[GraphConnector.html]] {
        {abstract} +getGraphEdge(): EList<GraphEdge>
        {abstract} +getGraphElement(): GraphElement
        {abstract} +setGraphElement(GraphElement): void
    }

    interface "<size:14>GraphElement\n<size:10>org.eclipse.epf.uma" as org.eclipse.epf.uma.GraphElement [[GraphElement.html]] {
        {abstract} +getContained(): EList<DiagramElement>
        {abstract} +getPosition(): Point
        {abstract} +setPosition(Point): void
        {abstract} +getLink(): EList<DiagramLink>
        {abstract} +getAnchorage(): EList<GraphConnector>
        {abstract} +getSemanticModel(): SemanticModelBridge
        {abstract} +setSemanticModel(SemanticModelBridge): void
    }

    org.eclipse.epf.uma.GraphElement <|- - org.eclipse.epf.uma.GraphConnector

    center footer UMLDoclet 2.0.12, PlantUML 1.2020.16
@enduml

PlantUML version 1.2020.16(Sun Aug 23 22:20:43 CEST 2020)
(APACHE source distribution)
Java Runtime: Java(TM) SE Runtime Environment
JVM: Java HotSpot(TM) 64-Bit Server VM
Default Encoding: Cp1252
Language: es
Country: ES
--></g></svg>