<?xml version="1.0" encoding="UTF-8" standalone="no"?><svg xmlns="http://www.w3.org/2000/svg" xmlns:xlink="http://www.w3.org/1999/xlink" contentScriptType="application/ecmascript" contentStyleType="text/css" height="352px" preserveAspectRatio="none" style="width:245px;height:352px;" version="1.1" viewBox="0 0 245 352" width="245px" zoomAndPan="magnify"><defs><filter height="300%" id="fugc0d74rpqrm" width="300%" x="-1" y="-1"><feGaussianBlur result="blurOut" stdDeviation="2.0"/><feColorMatrix in="blurOut" result="blurOut2" type="matrix" values="0 0 0 0 0 0 0 0 0 0 0 0 0 0 0 0 0 0 .4 0"/><feOffset dx="4.0" dy="4.0" in="blurOut2" result="blurOut3"/><feBlend in="SourceGraphic" in2="blurOut3" mode="normal"/></filter></defs><g><!--MD5=[40a6ae3aac7cc634b18e14fda09ba16c]
class org.eclipse.epf.uma.GuidanceDescription--><a href="GuidanceDescription.html" target="_top" title="GuidanceDescription.html" xlink:actuate="onRequest" xlink:href="GuidanceDescription.html" xlink:show="new" xlink:title="GuidanceDescription.html" xlink:type="simple"><rect codeLine="5" fill="#FEFECE" filter="url(#fugc0d74rpqrm)" height="75.8594" id="org.eclipse.epf.uma.GuidanceDescription" style="stroke: #A80036; stroke-width: 1.5;" width="165" x="34" y="240"/><ellipse cx="49.45" cy="260.0938" fill="#B4A7E5" rx="11" ry="11" style="stroke: #A80036; stroke-width: 1.0;"/><path d="M50.4031,256.7344 L50.4031,263.3906 L52.1219,263.3906 Q52.7313,263.3906 52.9969,263.625 Q53.2625,263.8594 53.2625,264.25 Q53.2625,264.625 52.9969,264.8594 Q52.7313,265.0938 52.1219,265.0938 L46.9813,265.0938 Q46.3719,265.0938 46.1063,264.8594 Q45.8406,264.625 45.8406,264.2344 Q45.8406,263.8594 46.1063,263.625 Q46.3719,263.3906 46.9813,263.3906 L48.7,263.3906 L48.7,256.7344 L46.9813,256.7344 Q46.3719,256.7344 46.1063,256.5 Q45.8406,256.2656 45.8406,255.875 Q45.8406,255.5 46.1063,255.2656 Q46.3719,255.0313 46.9813,255.0313 L52.1219,255.0313 Q52.7313,255.0313 52.9969,255.2656 Q53.2625,255.5 53.2625,255.875 Q53.2625,256.2656 52.9969,256.5 Q52.7313,256.7344 52.1219,256.7344 L50.4031,256.7344 Z "/><text fill="#000000" font-family="sans-serif" font-size="14" font-style="italic" lengthAdjust="spacingAndGlyphs" textLength="132" x="63.55" y="259.5332">GuidanceDescription</text><text fill="#000000" font-family="sans-serif" font-size="10" font-style="italic" lengthAdjust="spacingAndGlyphs" textLength="92" x="83.55" y="272.9902">org.eclipse.epf.uma</text><line style="stroke: #A80036; stroke-width: 1.5;" x1="35" x2="198" y1="280.1875" y2="280.1875"/><ellipse cx="45" cy="291.1875" fill="#84BE84" rx="3" ry="3" style="stroke: #038048; stroke-width: 1.0;"/><text fill="#000000" font-family="sans-serif" font-size="11" font-style="italic" lengthAdjust="spacingAndGlyphs" textLength="119" x="54" y="295.6064">getAttachments(): String</text><ellipse cx="45" cy="305.0234" fill="#84BE84" rx="3" ry="3" style="stroke: #038048; stroke-width: 1.0;"/><text fill="#000000" font-family="sans-serif" font-size="11" font-style="italic" lengthAdjust="spacingAndGlyphs" textLength="139" x="54" y="309.4424">setAttachments(String): void</text></a><!--MD5=[ac89fbf343ff51a3f64fb8f81ee032c9]
class org.eclipse.epf.uma.ContentDescription--><a href="ContentDescription.html" target="_top" title="ContentDescription.html" xlink:actuate="onRequest" xlink:href="ContentDescription.html" xlink:show="new" xlink:title="ContentDescription.html" xlink:type="simple"><rect codeLine="10" fill="#FEFECE" filter="url(#fugc0d74rpqrm)" height="172.7109" id="org.eclipse.epf.uma.ContentDescription" style="stroke: #A80036; stroke-width: 1.5;" width="219" x="7" y="7"/><ellipse cx="51.75" cy="27.0938" fill="#B4A7E5" rx="11" ry="11" style="stroke: #A80036; stroke-width: 1.0;"/><path d="M52.7031,23.7344 L52.7031,30.3906 L54.4219,30.3906 Q55.0313,30.3906 55.2969,30.625 Q55.5625,30.8594 55.5625,31.25 Q55.5625,31.625 55.2969,31.8594 Q55.0313,32.0938 54.4219,32.0938 L49.2813,32.0938 Q48.6719,32.0938 48.4063,31.8594 Q48.1406,31.625 48.1406,31.2344 Q48.1406,30.8594 48.4063,30.625 Q48.6719,30.3906 49.2813,30.3906 L51,30.3906 L51,23.7344 L49.2813,23.7344 Q48.6719,23.7344 48.4063,23.5 Q48.1406,23.2656 48.1406,22.875 Q48.1406,22.5 48.4063,22.2656 Q48.6719,22.0313 49.2813,22.0313 L54.4219,22.0313 Q55.0313,22.0313 55.2969,22.2656 Q55.5625,22.5 55.5625,22.875 Q55.5625,23.2656 55.2969,23.5 Q55.0313,23.7344 54.4219,23.7344 L52.7031,23.7344 Z "/><text fill="#000000" font-family="sans-serif" font-size="14" font-style="italic" lengthAdjust="spacingAndGlyphs" textLength="121" x="72.25" y="26.5332">ContentDescription</text><text fill="#000000" font-family="sans-serif" font-size="10" font-style="italic" lengthAdjust="spacingAndGlyphs" textLength="92" x="86.75" y="39.9902">org.eclipse.epf.uma</text><line style="stroke: #A80036; stroke-width: 1.5;" x1="8" x2="225" y1="47.1875" y2="47.1875"/><ellipse cx="18" cy="58.1875" fill="#84BE84" rx="3" ry="3" style="stroke: #038048; stroke-width: 1.0;"/><text fill="#000000" font-family="sans-serif" font-size="11" font-style="italic" lengthAdjust="spacingAndGlyphs" textLength="139" x="27" y="62.6064">getMainDescription(): String</text><ellipse cx="18" cy="72.0234" fill="#84BE84" rx="3" ry="3" style="stroke: #038048; stroke-width: 1.0;"/><text fill="#000000" font-family="sans-serif" font-size="11" font-style="italic" lengthAdjust="spacingAndGlyphs" textLength="159" x="27" y="76.4424">setMainDescription(String): void</text><ellipse cx="18" cy="85.8594" fill="#84BE84" rx="3" ry="3" style="stroke: #038048; stroke-width: 1.0;"/><text fill="#000000" font-family="sans-serif" font-size="11" font-style="italic" lengthAdjust="spacingAndGlyphs" textLength="146" x="27" y="90.2783">getSections(): EList&lt;Section&gt;</text><ellipse cx="18" cy="99.6953" fill="#84BE84" rx="3" ry="3" style="stroke: #038048; stroke-width: 1.0;"/><text fill="#000000" font-family="sans-serif" font-size="11" font-style="italic" lengthAdjust="spacingAndGlyphs" textLength="108" x="27" y="104.1143">getExternalId(): String</text><ellipse cx="18" cy="113.5313" fill="#84BE84" rx="3" ry="3" style="stroke: #038048; stroke-width: 1.0;"/><text fill="#000000" font-family="sans-serif" font-size="11" font-style="italic" lengthAdjust="spacingAndGlyphs" textLength="128" x="27" y="117.9502">setExternalId(String): void</text><ellipse cx="18" cy="127.3672" fill="#84BE84" rx="3" ry="3" style="stroke: #038048; stroke-width: 1.0;"/><text fill="#000000" font-family="sans-serif" font-size="11" font-style="italic" lengthAdjust="spacingAndGlyphs" textLength="151" x="27" y="131.7861">getKeyConsiderations(): String</text><ellipse cx="18" cy="141.2031" fill="#84BE84" rx="3" ry="3" style="stroke: #038048; stroke-width: 1.0;"/><text fill="#000000" font-family="sans-serif" font-size="11" font-style="italic" lengthAdjust="spacingAndGlyphs" textLength="171" x="27" y="145.6221">setKeyConsiderations(String): void</text><ellipse cx="18" cy="155.0391" fill="#84BE84" rx="3" ry="3" style="stroke: #038048; stroke-width: 1.0;"/><text fill="#000000" font-family="sans-serif" font-size="11" font-style="italic" lengthAdjust="spacingAndGlyphs" textLength="173" x="27" y="159.458">getLongPresentationName(): String</text><ellipse cx="18" cy="168.875" fill="#84BE84" rx="3" ry="3" style="stroke: #038048; stroke-width: 1.0;"/><text fill="#000000" font-family="sans-serif" font-size="11" font-style="italic" lengthAdjust="spacingAndGlyphs" textLength="193" x="27" y="173.2939">setLongPresentationName(String): void</text></a><!--MD5=[01606d4b7a1670c00c3913251cf94b9c]
reverse link org.eclipse.epf.uma.ContentDescription to org.eclipse.epf.uma.GuidanceDescription--><path codeLine="22" d="M116.5,200.23 C116.5,214.32 116.5,227.93 116.5,239.69 " fill="none" id="org.eclipse.epf.uma.ContentDescription-backto-org.eclipse.epf.uma.GuidanceDescription" style="stroke: #A80036; stroke-width: 1.0;"/><polygon fill="none" points="109.5,200.14,116.5,180.14,123.5,200.14,109.5,200.14" style="stroke: #A80036; stroke-width: 1.0;"/><text fill="#888888" font-family="sans-serif" font-size="10" lengthAdjust="spacingAndGlyphs" textLength="190" x="18.5" y="339.2402">UMLDoclet 2.0.12, PlantUML 1.2020.16</text><!--MD5=[3f830d8d2e784a0b311e7fb0419a1be4]
@startuml
    set namespaceSeparator none
    hide empty fields
    hide empty methods

    interface "<size:14>GuidanceDescription\n<size:10>org.eclipse.epf.uma" as org.eclipse.epf.uma.GuidanceDescription [[GuidanceDescription.html]] {
        {abstract} +getAttachments(): String
        {abstract} +setAttachments(String): void
    }

    interface "<size:14>ContentDescription\n<size:10>org.eclipse.epf.uma" as org.eclipse.epf.uma.ContentDescription [[ContentDescription.html]] {
        {abstract} +getMainDescription(): String
        {abstract} +setMainDescription(String): void
        {abstract} +getSections(): EList<Section>
        {abstract} +getExternalId(): String
        {abstract} +setExternalId(String): void
        {abstract} +getKeyConsiderations(): String
        {abstract} +setKeyConsiderations(String): void
        {abstract} +getLongPresentationName(): String
        {abstract} +setLongPresentationName(String): void
    }

    org.eclipse.epf.uma.ContentDescription <|- - org.eclipse.epf.uma.GuidanceDescription

    center footer UMLDoclet 2.0.12, PlantUML 1.2020.16
@enduml

PlantUML version 1.2020.16(Sun Aug 23 22:20:43 CEST 2020)
(APACHE source distribution)
Java Runtime: Java(TM) SE Runtime Environment
JVM: Java HotSpot(TM) 64-Bit Server VM
Default Encoding: Cp1252
Language: es
Country: ES
--></g></svg>