<?xml version="1.0" encoding="UTF-8" standalone="no"?><svg xmlns="http://www.w3.org/2000/svg" xmlns:xlink="http://www.w3.org/1999/xlink" contentScriptType="application/ecmascript" contentStyleType="text/css" height="247px" preserveAspectRatio="none" style="width:202px;height:247px;" version="1.1" viewBox="0 0 202 247" width="202px" zoomAndPan="magnify"><defs><filter height="300%" id="f10vrjfycaov28" width="300%" x="-1" y="-1"><feGaussianBlur result="blurOut" stdDeviation="2.0"/><feColorMatrix in="blurOut" result="blurOut2" type="matrix" values="0 0 0 0 0 0 0 0 0 0 0 0 0 0 0 0 0 0 .4 0"/><feOffset dx="4.0" dy="4.0" in="blurOut2" result="blurOut3"/><feBlend in="SourceGraphic" in2="blurOut3" mode="normal"/></filter></defs><g><!--MD5=[14a9d93fef895a244aa728780d758e08]
class org.eclipse.epf.uma.Image--><a href="Image.html" target="_top" title="Image.html" xlink:actuate="onRequest" xlink:href="Image.html" xlink:show="new" xlink:title="Image.html" xlink:type="simple"><rect codeLine="5" fill="#FEFECE" filter="url(#f10vrjfycaov28)" height="103.5313" id="org.eclipse.epf.uma.Image" style="stroke: #A80036; stroke-width: 1.5;" width="155" x="20.5" y="107"/><ellipse cx="49.45" cy="127.0938" fill="#B4A7E5" rx="11" ry="11" style="stroke: #A80036; stroke-width: 1.0;"/><path d="M50.4031,123.7344 L50.4031,130.3906 L52.1219,130.3906 Q52.7313,130.3906 52.9969,130.625 Q53.2625,130.8594 53.2625,131.25 Q53.2625,131.625 52.9969,131.8594 Q52.7313,132.0938 52.1219,132.0938 L46.9813,132.0938 Q46.3719,132.0938 46.1063,131.8594 Q45.8406,131.625 45.8406,131.2344 Q45.8406,130.8594 46.1063,130.625 Q46.3719,130.3906 46.9813,130.3906 L48.7,130.3906 L48.7,123.7344 L46.9813,123.7344 Q46.3719,123.7344 46.1063,123.5 Q45.8406,123.2656 45.8406,122.875 Q45.8406,122.5 46.1063,122.2656 Q46.3719,122.0313 46.9813,122.0313 L52.1219,122.0313 Q52.7313,122.0313 52.9969,122.2656 Q53.2625,122.5 53.2625,122.875 Q53.2625,123.2656 52.9969,123.5 Q52.7313,123.7344 52.1219,123.7344 L50.4031,123.7344 Z "/><text fill="#000000" font-family="sans-serif" font-size="14" font-style="italic" lengthAdjust="spacingAndGlyphs" textLength="39" x="93.05" y="126.5332">Image</text><text fill="#000000" font-family="sans-serif" font-size="10" font-style="italic" lengthAdjust="spacingAndGlyphs" textLength="92" x="66.55" y="139.9902">org.eclipse.epf.uma</text><line style="stroke: #A80036; stroke-width: 1.5;" x1="21.5" x2="174.5" y1="147.1875" y2="147.1875"/><ellipse cx="31.5" cy="158.1875" fill="#84BE84" rx="3" ry="3" style="stroke: #038048; stroke-width: 1.0;"/><text fill="#000000" font-family="sans-serif" font-size="11" font-style="italic" lengthAdjust="spacingAndGlyphs" textLength="61" x="40.5" y="162.6064">getUri(): URI</text><ellipse cx="31.5" cy="172.0234" fill="#84BE84" rx="3" ry="3" style="stroke: #038048; stroke-width: 1.0;"/><text fill="#000000" font-family="sans-serif" font-size="11" font-style="italic" lengthAdjust="spacingAndGlyphs" textLength="81" x="40.5" y="176.4424">setUri(URI): void</text><ellipse cx="31.5" cy="185.8594" fill="#84BE84" rx="3" ry="3" style="stroke: #038048; stroke-width: 1.0;"/><text fill="#000000" font-family="sans-serif" font-size="11" font-style="italic" lengthAdjust="spacingAndGlyphs" textLength="109" x="40.5" y="190.2783">getMimeType(): String</text><ellipse cx="31.5" cy="199.6953" fill="#84BE84" rx="3" ry="3" style="stroke: #038048; stroke-width: 1.0;"/><text fill="#000000" font-family="sans-serif" font-size="11" font-style="italic" lengthAdjust="spacingAndGlyphs" textLength="129" x="40.5" y="204.1143">setMimeType(String): void</text></a><!--MD5=[015d6b31077a86d4f1c0754ba1b9f51a]
class org.eclipse.epf.uma.LeafElement--><a href="LeafElement.html" target="_top" title="LeafElement.html" xlink:actuate="onRequest" xlink:href="LeafElement.html" xlink:show="new" xlink:title="LeafElement.html" xlink:type="simple"><rect codeLine="12" fill="#FEFECE" filter="url(#f10vrjfycaov28)" height="40.1875" id="org.eclipse.epf.uma.LeafElement" style="stroke: #A80036; stroke-width: 1.5;" width="124" x="36" y="7"/><ellipse cx="51" cy="27.0938" fill="#B4A7E5" rx="11" ry="11" style="stroke: #A80036; stroke-width: 1.0;"/><path d="M51.9531,23.7344 L51.9531,30.3906 L53.6719,30.3906 Q54.2813,30.3906 54.5469,30.625 Q54.8125,30.8594 54.8125,31.25 Q54.8125,31.625 54.5469,31.8594 Q54.2813,32.0938 53.6719,32.0938 L48.5313,32.0938 Q47.9219,32.0938 47.6563,31.8594 Q47.3906,31.625 47.3906,31.2344 Q47.3906,30.8594 47.6563,30.625 Q47.9219,30.3906 48.5313,30.3906 L50.25,30.3906 L50.25,23.7344 L48.5313,23.7344 Q47.9219,23.7344 47.6563,23.5 Q47.3906,23.2656 47.3906,22.875 Q47.3906,22.5 47.6563,22.2656 Q47.9219,22.0313 48.5313,22.0313 L53.6719,22.0313 Q54.2813,22.0313 54.5469,22.2656 Q54.8125,22.5 54.8125,22.875 Q54.8125,23.2656 54.5469,23.5 Q54.2813,23.7344 53.6719,23.7344 L51.9531,23.7344 Z "/><text fill="#000000" font-family="sans-serif" font-size="14" font-style="italic" lengthAdjust="spacingAndGlyphs" textLength="79" x="71.5" y="26.5332">LeafElement</text><text fill="#000000" font-family="sans-serif" font-size="10" font-style="italic" lengthAdjust="spacingAndGlyphs" textLength="92" x="65" y="39.9902">org.eclipse.epf.uma</text></a><!--MD5=[99392c6ee13de80966fee3acf1eb3e18]
reverse link org.eclipse.epf.uma.LeafElement to org.eclipse.epf.uma.Image--><path codeLine="14" d="M98,67.49 C98,79.93 98,93.86 98,106.99 " fill="none" id="org.eclipse.epf.uma.LeafElement-backto-org.eclipse.epf.uma.Image" style="stroke: #A80036; stroke-width: 1.0;"/><polygon fill="none" points="91,67.18,98,47.18,105,67.18,91,67.18" style="stroke: #A80036; stroke-width: 1.0;"/><text fill="#888888" font-family="sans-serif" font-size="10" lengthAdjust="spacingAndGlyphs" textLength="190" x="0" y="233.9121">UMLDoclet 2.0.12, PlantUML 1.2020.16</text><!--MD5=[b382a060bb7b63b7ae95a33d1c0b08a2]
@startuml
    set namespaceSeparator none
    hide empty fields
    hide empty methods

    interface "<size:14>Image\n<size:10>org.eclipse.epf.uma" as org.eclipse.epf.uma.Image [[Image.html]] {
        {abstract} +getUri(): URI
        {abstract} +setUri(URI): void
        {abstract} +getMimeType(): String
        {abstract} +setMimeType(String): void
    }

    interface "<size:14>LeafElement\n<size:10>org.eclipse.epf.uma" as org.eclipse.epf.uma.LeafElement [[LeafElement.html]]

    org.eclipse.epf.uma.LeafElement <|- - org.eclipse.epf.uma.Image

    center footer UMLDoclet 2.0.12, PlantUML 1.2020.16
@enduml

PlantUML version 1.2020.16(Sun Aug 23 22:20:43 CEST 2020)
(APACHE source distribution)
Java Runtime: Java(TM) SE Runtime Environment
JVM: Java HotSpot(TM) 64-Bit Server VM
Default Encoding: Cp1252
Language: es
Country: ES
--></g></svg>