<?xml version="1.0" encoding="UTF-8" standalone="no"?><svg xmlns="http://www.w3.org/2000/svg" xmlns:xlink="http://www.w3.org/1999/xlink" contentScriptType="application/ecmascript" contentStyleType="text/css" height="220px" preserveAspectRatio="none" style="width:312px;height:220px;" version="1.1" viewBox="0 0 312 220" width="312px" zoomAndPan="magnify"><defs><filter height="300%" id="ftk9pwb73qtp2" width="300%" x="-1" y="-1"><feGaussianBlur result="blurOut" stdDeviation="2.0"/><feColorMatrix in="blurOut" result="blurOut2" type="matrix" values="0 0 0 0 0 0 0 0 0 0 0 0 0 0 0 0 0 0 .4 0"/><feOffset dx="4.0" dy="4.0" in="blurOut2" result="blurOut3"/><feBlend in="SourceGraphic" in2="blurOut3" mode="normal"/></filter></defs><g><!--MD5=[2d231b628399cbb71045ec28f9080237]
class org.eclipse.epf.uma.Iteration--><a href="Iteration.html" target="_top" title="Iteration.html" xlink:actuate="onRequest" xlink:href="Iteration.html" xlink:show="new" xlink:title="Iteration.html" xlink:type="simple"><rect codeLine="5" fill="#FEFECE" filter="url(#ftk9pwb73qtp2)" height="40.1875" id="org.eclipse.epf.uma.Iteration" style="stroke: #A80036; stroke-width: 1.5;" width="124" x="88" y="143"/><ellipse cx="103" cy="163.0938" fill="#B4A7E5" rx="11" ry="11" style="stroke: #A80036; stroke-width: 1.0;"/><path d="M103.9531,159.7344 L103.9531,166.3906 L105.6719,166.3906 Q106.2813,166.3906 106.5469,166.625 Q106.8125,166.8594 106.8125,167.25 Q106.8125,167.625 106.5469,167.8594 Q106.2813,168.0938 105.6719,168.0938 L100.5313,168.0938 Q99.9219,168.0938 99.6563,167.8594 Q99.3906,167.625 99.3906,167.2344 Q99.3906,166.8594 99.6563,166.625 Q99.9219,166.3906 100.5313,166.3906 L102.25,166.3906 L102.25,159.7344 L100.5313,159.7344 Q99.9219,159.7344 99.6563,159.5 Q99.3906,159.2656 99.3906,158.875 Q99.3906,158.5 99.6563,158.2656 Q99.9219,158.0313 100.5313,158.0313 L105.6719,158.0313 Q106.2813,158.0313 106.5469,158.2656 Q106.8125,158.5 106.8125,158.875 Q106.8125,159.2656 106.5469,159.5 Q106.2813,159.7344 105.6719,159.7344 L103.9531,159.7344 Z "/><text fill="#000000" font-family="sans-serif" font-size="14" font-style="italic" lengthAdjust="spacingAndGlyphs" textLength="52" x="137" y="162.5332">Iteration</text><text fill="#000000" font-family="sans-serif" font-size="10" font-style="italic" lengthAdjust="spacingAndGlyphs" textLength="92" x="117" y="175.9902">org.eclipse.epf.uma</text></a><!--MD5=[8befe719594d6caeea4858f50e8183da]
class org.eclipse.epf.uma.Activity--><a href="Activity.html" target="_top" title="Activity.html" xlink:actuate="onRequest" xlink:href="Activity.html" xlink:show="new" xlink:title="Activity.html" xlink:type="simple"><rect codeLine="7" fill="#FEFECE" filter="url(#ftk9pwb73qtp2)" height="75.8594" id="org.eclipse.epf.uma.Activity" style="stroke: #A80036; stroke-width: 1.5;" width="286" x="7" y="7"/><ellipse cx="99.75" cy="27.0938" fill="#B4A7E5" rx="11" ry="11" style="stroke: #A80036; stroke-width: 1.0;"/><path d="M100.7031,23.7344 L100.7031,30.3906 L102.4219,30.3906 Q103.0313,30.3906 103.2969,30.625 Q103.5625,30.8594 103.5625,31.25 Q103.5625,31.625 103.2969,31.8594 Q103.0313,32.0938 102.4219,32.0938 L97.2813,32.0938 Q96.6719,32.0938 96.4063,31.8594 Q96.1406,31.625 96.1406,31.2344 Q96.1406,30.8594 96.4063,30.625 Q96.6719,30.3906 97.2813,30.3906 L99,30.3906 L99,23.7344 L97.2813,23.7344 Q96.6719,23.7344 96.4063,23.5 Q96.1406,23.2656 96.1406,22.875 Q96.1406,22.5 96.4063,22.2656 Q96.6719,22.0313 97.2813,22.0313 L102.4219,22.0313 Q103.0313,22.0313 103.2969,22.2656 Q103.5625,22.5 103.5625,22.875 Q103.5625,23.2656 103.2969,23.5 Q103.0313,23.7344 102.4219,23.7344 L100.7031,23.7344 Z "/><text fill="#000000" font-family="sans-serif" font-size="14" font-style="italic" lengthAdjust="spacingAndGlyphs" textLength="43" x="144.75" y="26.5332">Activity</text><text fill="#000000" font-family="sans-serif" font-size="10" font-style="italic" lengthAdjust="spacingAndGlyphs" textLength="92" x="120.25" y="39.9902">org.eclipse.epf.uma</text><line style="stroke: #A80036; stroke-width: 1.5;" x1="8" x2="292" y1="47.1875" y2="47.1875"/><ellipse cx="18" cy="58.1875" fill="#84BE84" rx="3" ry="3" style="stroke: #038048; stroke-width: 1.0;"/><text fill="#000000" font-family="sans-serif" font-size="11" font-style="italic" lengthAdjust="spacingAndGlyphs" textLength="260" x="27" y="62.6064">getBreakdownElements(): EList&lt;BreakdownElement&gt;</text><ellipse cx="18" cy="72.0234" fill="#84BE84" rx="3" ry="3" style="stroke: #038048; stroke-width: 1.0;"/><text fill="#000000" font-family="sans-serif" font-size="11" font-style="italic" lengthAdjust="spacingAndGlyphs" textLength="166" x="27" y="76.4424">getRoadmaps(): EList&lt;Roadmap&gt;</text></a><!--MD5=[47effb9a6888f26f15a3ea7d0a8372bf]
reverse link org.eclipse.epf.uma.Activity to org.eclipse.epf.uma.Iteration--><path codeLine="12" d="M150,103.43 C150,117.66 150,131.93 150,142.82 " fill="none" id="org.eclipse.epf.uma.Activity-backto-org.eclipse.epf.uma.Iteration" style="stroke: #A80036; stroke-width: 1.0;"/><polygon fill="none" points="143,103.02,150,83.02,157,103.02,143,103.02" style="stroke: #A80036; stroke-width: 1.0;"/><text fill="#888888" font-family="sans-serif" font-size="10" lengthAdjust="spacingAndGlyphs" textLength="190" x="52" y="206.5684">UMLDoclet 2.0.12, PlantUML 1.2020.16</text><!--MD5=[3a4e103d464130f4071193ed68c7125a]
@startuml
    set namespaceSeparator none
    hide empty fields
    hide empty methods

    interface "<size:14>Iteration\n<size:10>org.eclipse.epf.uma" as org.eclipse.epf.uma.Iteration [[Iteration.html]]

    interface "<size:14>Activity\n<size:10>org.eclipse.epf.uma" as org.eclipse.epf.uma.Activity [[Activity.html]] {
        {abstract} +getBreakdownElements(): EList<BreakdownElement>
        {abstract} +getRoadmaps(): EList<Roadmap>
    }

    org.eclipse.epf.uma.Activity <|- - org.eclipse.epf.uma.Iteration

    center footer UMLDoclet 2.0.12, PlantUML 1.2020.16
@enduml

PlantUML version 1.2020.16(Sun Aug 23 22:20:43 CEST 2020)
(APACHE source distribution)
Java Runtime: Java(TM) SE Runtime Environment
JVM: Java HotSpot(TM) 64-Bit Server VM
Default Encoding: Cp1252
Language: es
Country: ES
--></g></svg>