<?xml version="1.0" encoding="UTF-8" standalone="no"?><svg xmlns="http://www.w3.org/2000/svg" xmlns:xlink="http://www.w3.org/1999/xlink" contentScriptType="application/ecmascript" contentStyleType="text/css" height="310px" preserveAspectRatio="none" style="width:366px;height:310px;" version="1.1" viewBox="0 0 366 310" width="366px" zoomAndPan="magnify"><defs><filter height="300%" id="fl8l75b8qkjym" width="300%" x="-1" y="-1"><feGaussianBlur result="blurOut" stdDeviation="2.0"/><feColorMatrix in="blurOut" result="blurOut2" type="matrix" values="0 0 0 0 0 0 0 0 0 0 0 0 0 0 0 0 0 0 .4 0"/><feOffset dx="4.0" dy="4.0" in="blurOut2" result="blurOut3"/><feBlend in="SourceGraphic" in2="blurOut3" mode="normal"/></filter></defs><g><!--MD5=[732da4230b49de388fe664054ba70a1a]
class org.eclipse.epf.uma.Kind--><a href="Kind.html" target="_top" title="Kind.html" xlink:actuate="onRequest" xlink:href="Kind.html" xlink:show="new" xlink:title="Kind.html" xlink:type="simple"><rect codeLine="5" fill="#FEFECE" filter="url(#fl8l75b8qkjym)" height="62.0234" id="org.eclipse.epf.uma.Kind" style="stroke: #A80036; stroke-width: 1.5;" width="340" x="7" y="212"/><ellipse cx="126.75" cy="232.0938" fill="#B4A7E5" rx="11" ry="11" style="stroke: #A80036; stroke-width: 1.0;"/><path d="M127.7031,228.7344 L127.7031,235.3906 L129.4219,235.3906 Q130.0313,235.3906 130.2969,235.625 Q130.5625,235.8594 130.5625,236.25 Q130.5625,236.625 130.2969,236.8594 Q130.0313,237.0938 129.4219,237.0938 L124.2813,237.0938 Q123.6719,237.0938 123.4063,236.8594 Q123.1406,236.625 123.1406,236.2344 Q123.1406,235.8594 123.4063,235.625 Q123.6719,235.3906 124.2813,235.3906 L126,235.3906 L126,228.7344 L124.2813,228.7344 Q123.6719,228.7344 123.4063,228.5 Q123.1406,228.2656 123.1406,227.875 Q123.1406,227.5 123.4063,227.2656 Q123.6719,227.0313 124.2813,227.0313 L129.4219,227.0313 Q130.0313,227.0313 130.2969,227.2656 Q130.5625,227.5 130.5625,227.875 Q130.5625,228.2656 130.2969,228.5 Q130.0313,228.7344 129.4219,228.7344 L127.7031,228.7344 Z "/><text fill="#000000" font-family="sans-serif" font-size="14" font-style="italic" lengthAdjust="spacingAndGlyphs" textLength="28" x="179.25" y="231.5332">Kind</text><text fill="#000000" font-family="sans-serif" font-size="10" font-style="italic" lengthAdjust="spacingAndGlyphs" textLength="92" x="147.25" y="244.9902">org.eclipse.epf.uma</text><line style="stroke: #A80036; stroke-width: 1.5;" x1="8" x2="346" y1="252.1875" y2="252.1875"/><ellipse cx="18" cy="263.1875" fill="#84BE84" rx="3" ry="3" style="stroke: #038048; stroke-width: 1.0;"/><text fill="#000000" font-family="sans-serif" font-size="11" font-style="italic" lengthAdjust="spacingAndGlyphs" textLength="314" x="27" y="267.6064">getApplicableMetaClassInfo(): EList&lt;ApplicableMetaClassInfo&gt;</text></a><!--MD5=[13c5eb85a3ca1cf746cc47e30073ec20]
class org.eclipse.epf.uma.ContentElement--><a href="ContentElement.html" target="_top" title="ContentElement.html" xlink:actuate="onRequest" xlink:href="ContentElement.html" xlink:show="new" xlink:title="ContentElement.html" xlink:type="simple"><rect codeLine="9" fill="#FEFECE" filter="url(#fl8l75b8qkjym)" height="145.0391" id="org.eclipse.epf.uma.ContentElement" style="stroke: #A80036; stroke-width: 1.5;" width="284" x="35" y="7"/><ellipse cx="122.25" cy="27.0938" fill="#B4A7E5" rx="11" ry="11" style="stroke: #A80036; stroke-width: 1.0;"/><path d="M123.2031,23.7344 L123.2031,30.3906 L124.9219,30.3906 Q125.5313,30.3906 125.7969,30.625 Q126.0625,30.8594 126.0625,31.25 Q126.0625,31.625 125.7969,31.8594 Q125.5313,32.0938 124.9219,32.0938 L119.7813,32.0938 Q119.1719,32.0938 118.9063,31.8594 Q118.6406,31.625 118.6406,31.2344 Q118.6406,30.8594 118.9063,30.625 Q119.1719,30.3906 119.7813,30.3906 L121.5,30.3906 L121.5,23.7344 L119.7813,23.7344 Q119.1719,23.7344 118.9063,23.5 Q118.6406,23.2656 118.6406,22.875 Q118.6406,22.5 118.9063,22.2656 Q119.1719,22.0313 119.7813,22.0313 L124.9219,22.0313 Q125.5313,22.0313 125.7969,22.2656 Q126.0625,22.5 126.0625,22.875 Q126.0625,23.2656 125.7969,23.5 Q125.5313,23.7344 124.9219,23.7344 L123.2031,23.7344 Z "/><text fill="#000000" font-family="sans-serif" font-size="14" font-style="italic" lengthAdjust="spacingAndGlyphs" textLength="101" x="142.75" y="26.5332">ContentElement</text><text fill="#000000" font-family="sans-serif" font-size="10" font-style="italic" lengthAdjust="spacingAndGlyphs" textLength="92" x="147.25" y="39.9902">org.eclipse.epf.uma</text><line style="stroke: #A80036; stroke-width: 1.5;" x1="36" x2="318" y1="47.1875" y2="47.1875"/><ellipse cx="46" cy="58.1875" fill="#84BE84" rx="3" ry="3" style="stroke: #038048; stroke-width: 1.0;"/><text fill="#000000" font-family="sans-serif" font-size="11" font-style="italic" lengthAdjust="spacingAndGlyphs" textLength="258" x="55" y="62.6064">getSupportingMaterials(): EList&lt;SupportingMaterial&gt;</text><ellipse cx="46" cy="72.0234" fill="#84BE84" rx="3" ry="3" style="stroke: #038048; stroke-width: 1.0;"/><text fill="#000000" font-family="sans-serif" font-size="11" font-style="italic" lengthAdjust="spacingAndGlyphs" textLength="208" x="55" y="76.4424">getConceptsAndPapers(): EList&lt;Concept&gt;</text><ellipse cx="46" cy="85.8594" fill="#84BE84" rx="3" ry="3" style="stroke: #038048; stroke-width: 1.0;"/><text fill="#000000" font-family="sans-serif" font-size="11" font-style="italic" lengthAdjust="spacingAndGlyphs" textLength="166" x="55" y="90.2783">getChecklists(): EList&lt;Checklist&gt;</text><ellipse cx="46" cy="99.6953" fill="#84BE84" rx="3" ry="3" style="stroke: #038048; stroke-width: 1.0;"/><text fill="#000000" font-family="sans-serif" font-size="11" font-style="italic" lengthAdjust="spacingAndGlyphs" textLength="168" x="55" y="104.1143">getGuidelines(): EList&lt;Guideline&gt;</text><ellipse cx="46" cy="113.5313" fill="#84BE84" rx="3" ry="3" style="stroke: #038048; stroke-width: 1.0;"/><text fill="#000000" font-family="sans-serif" font-size="11" font-style="italic" lengthAdjust="spacingAndGlyphs" textLength="158" x="55" y="117.9502">getExamples(): EList&lt;Example&gt;</text><ellipse cx="46" cy="127.3672" fill="#84BE84" rx="3" ry="3" style="stroke: #038048; stroke-width: 1.0;"/><text fill="#000000" font-family="sans-serif" font-size="11" font-style="italic" lengthAdjust="spacingAndGlyphs" textLength="176" x="55" y="131.7861">getAssets(): EList&lt;ReusableAsset&gt;</text><ellipse cx="46" cy="141.2031" fill="#84BE84" rx="3" ry="3" style="stroke: #038048; stroke-width: 1.0;"/><text fill="#000000" font-family="sans-serif" font-size="11" font-style="italic" lengthAdjust="spacingAndGlyphs" textLength="210" x="55" y="145.6221">getTermdefinition(): EList&lt;TermDefinition&gt;</text></a><!--MD5=[fca601baff9021373d000c3c6dbe719c]
reverse link org.eclipse.epf.uma.ContentElement to org.eclipse.epf.uma.Kind--><path codeLine="19" d="M177,172.42 C177,186.57 177,200.26 177,211.7 " fill="none" id="org.eclipse.epf.uma.ContentElement-backto-org.eclipse.epf.uma.Kind" style="stroke: #A80036; stroke-width: 1.0;"/><polygon fill="none" points="170,172.28,177,152.28,184,172.28,170,172.28" style="stroke: #A80036; stroke-width: 1.0;"/><text fill="#888888" font-family="sans-serif" font-size="10" lengthAdjust="spacingAndGlyphs" textLength="190" x="79" y="297.4043">UMLDoclet 2.0.12, PlantUML 1.2020.16</text><!--MD5=[15b9005c83d34ef37477eec042499f6f]
@startuml
    set namespaceSeparator none
    hide empty fields
    hide empty methods

    interface "<size:14>Kind\n<size:10>org.eclipse.epf.uma" as org.eclipse.epf.uma.Kind [[Kind.html]] {
        {abstract} +getApplicableMetaClassInfo(): EList<ApplicableMetaClassInfo>
    }

    interface "<size:14>ContentElement\n<size:10>org.eclipse.epf.uma" as org.eclipse.epf.uma.ContentElement [[ContentElement.html]] {
        {abstract} +getSupportingMaterials(): EList<SupportingMaterial>
        {abstract} +getConceptsAndPapers(): EList<Concept>
        {abstract} +getChecklists(): EList<Checklist>
        {abstract} +getGuidelines(): EList<Guideline>
        {abstract} +getExamples(): EList<Example>
        {abstract} +getAssets(): EList<ReusableAsset>
        {abstract} +getTermdefinition(): EList<TermDefinition>
    }

    org.eclipse.epf.uma.ContentElement <|- - org.eclipse.epf.uma.Kind

    center footer UMLDoclet 2.0.12, PlantUML 1.2020.16
@enduml

PlantUML version 1.2020.16(Sun Aug 23 22:20:43 CEST 2020)
(APACHE source distribution)
Java Runtime: Java(TM) SE Runtime Environment
JVM: Java HotSpot(TM) 64-Bit Server VM
Default Encoding: Cp1252
Language: es
Country: ES
--></g></svg>