<?xml version="1.0" encoding="UTF-8" standalone="no"?><svg xmlns="http://www.w3.org/2000/svg" xmlns:xlink="http://www.w3.org/1999/xlink" contentScriptType="application/ecmascript" contentStyleType="text/css" height="219px" preserveAspectRatio="none" style="width:211px;height:219px;" version="1.1" viewBox="0 0 211 219" width="211px" zoomAndPan="magnify"><defs><filter height="300%" id="fgcsvqbu6pl0s" width="300%" x="-1" y="-1"><feGaussianBlur result="blurOut" stdDeviation="2.0"/><feColorMatrix in="blurOut" result="blurOut2" type="matrix" values="0 0 0 0 0 0 0 0 0 0 0 0 0 0 0 0 0 0 .4 0"/><feOffset dx="4.0" dy="4.0" in="blurOut2" result="blurOut3"/><feBlend in="SourceGraphic" in2="blurOut3" mode="normal"/></filter></defs><g><!--MD5=[ae0a2c7dab2ea29e186e9f3d5204fe8f]
class org.eclipse.epf.uma.MethodElementProperty--><a href="MethodElementProperty.html" target="_top" title="MethodElementProperty.html" xlink:actuate="onRequest" xlink:href="MethodElementProperty.html" xlink:show="new" xlink:title="MethodElementProperty.html" xlink:type="simple"><rect codeLine="5" fill="#FEFECE" filter="url(#fgcsvqbu6pl0s)" height="75.8594" id="org.eclipse.epf.uma.MethodElementProperty" style="stroke: #A80036; stroke-width: 1.5;" width="185" x="7" y="107"/><ellipse cx="22" cy="127.0938" fill="#B4A7E5" rx="11" ry="11" style="stroke: #A80036; stroke-width: 1.0;"/><path d="M22.9531,123.7344 L22.9531,130.3906 L24.6719,130.3906 Q25.2813,130.3906 25.5469,130.625 Q25.8125,130.8594 25.8125,131.25 Q25.8125,131.625 25.5469,131.8594 Q25.2813,132.0938 24.6719,132.0938 L19.5313,132.0938 Q18.9219,132.0938 18.6563,131.8594 Q18.3906,131.625 18.3906,131.2344 Q18.3906,130.8594 18.6563,130.625 Q18.9219,130.3906 19.5313,130.3906 L21.25,130.3906 L21.25,123.7344 L19.5313,123.7344 Q18.9219,123.7344 18.6563,123.5 Q18.3906,123.2656 18.3906,122.875 Q18.3906,122.5 18.6563,122.2656 Q18.9219,122.0313 19.5313,122.0313 L24.6719,122.0313 Q25.2813,122.0313 25.5469,122.2656 Q25.8125,122.5 25.8125,122.875 Q25.8125,123.2656 25.5469,123.5 Q25.2813,123.7344 24.6719,123.7344 L22.9531,123.7344 Z "/><text fill="#000000" font-family="sans-serif" font-size="14" font-style="italic" lengthAdjust="spacingAndGlyphs" textLength="153" x="36" y="126.5332">MethodElementProperty</text><text fill="#000000" font-family="sans-serif" font-size="10" font-style="italic" lengthAdjust="spacingAndGlyphs" textLength="92" x="66.5" y="139.9902">org.eclipse.epf.uma</text><line style="stroke: #A80036; stroke-width: 1.5;" x1="8" x2="191" y1="147.1875" y2="147.1875"/><ellipse cx="18" cy="158.1875" fill="#84BE84" rx="3" ry="3" style="stroke: #038048; stroke-width: 1.0;"/><text fill="#000000" font-family="sans-serif" font-size="11" font-style="italic" lengthAdjust="spacingAndGlyphs" textLength="86" x="27" y="162.6064">getValue(): String</text><ellipse cx="18" cy="172.0234" fill="#84BE84" rx="3" ry="3" style="stroke: #038048; stroke-width: 1.0;"/><text fill="#000000" font-family="sans-serif" font-size="11" font-style="italic" lengthAdjust="spacingAndGlyphs" textLength="106" x="27" y="176.4424">setValue(String): void</text></a><!--MD5=[7e71af605c2be934f9beeddf0fc62558]
class org.eclipse.epf.uma.PackageableElement--><a href="PackageableElement.html" target="_top" title="PackageableElement.html" xlink:actuate="onRequest" xlink:href="PackageableElement.html" xlink:show="new" xlink:title="PackageableElement.html" xlink:type="simple"><rect codeLine="10" fill="#FEFECE" filter="url(#fgcsvqbu6pl0s)" height="40.1875" id="org.eclipse.epf.uma.PackageableElement" style="stroke: #A80036; stroke-width: 1.5;" width="166" x="16.5" y="7"/><ellipse cx="31.5" cy="27.0938" fill="#B4A7E5" rx="11" ry="11" style="stroke: #A80036; stroke-width: 1.0;"/><path d="M32.4531,23.7344 L32.4531,30.3906 L34.1719,30.3906 Q34.7813,30.3906 35.0469,30.625 Q35.3125,30.8594 35.3125,31.25 Q35.3125,31.625 35.0469,31.8594 Q34.7813,32.0938 34.1719,32.0938 L29.0313,32.0938 Q28.4219,32.0938 28.1563,31.8594 Q27.8906,31.625 27.8906,31.2344 Q27.8906,30.8594 28.1563,30.625 Q28.4219,30.3906 29.0313,30.3906 L30.75,30.3906 L30.75,23.7344 L29.0313,23.7344 Q28.4219,23.7344 28.1563,23.5 Q27.8906,23.2656 27.8906,22.875 Q27.8906,22.5 28.1563,22.2656 Q28.4219,22.0313 29.0313,22.0313 L34.1719,22.0313 Q34.7813,22.0313 35.0469,22.2656 Q35.3125,22.5 35.3125,22.875 Q35.3125,23.2656 35.0469,23.5 Q34.7813,23.7344 34.1719,23.7344 L32.4531,23.7344 Z "/><text fill="#000000" font-family="sans-serif" font-size="14" font-style="italic" lengthAdjust="spacingAndGlyphs" textLength="134" x="45.5" y="26.5332">PackageableElement</text><text fill="#000000" font-family="sans-serif" font-size="10" font-style="italic" lengthAdjust="spacingAndGlyphs" textLength="92" x="66.5" y="39.9902">org.eclipse.epf.uma</text></a><!--MD5=[defbda795de4c33c44b35496f15c91c9]
reverse link org.eclipse.epf.uma.PackageableElement to org.eclipse.epf.uma.MethodElementProperty--><path codeLine="12" d="M99.5,67.49 C99.5,80.27 99.5,94.39 99.5,106.99 " fill="none" id="org.eclipse.epf.uma.PackageableElement-backto-org.eclipse.epf.uma.MethodElementProperty" style="stroke: #A80036; stroke-width: 1.0;"/><polygon fill="none" points="92.5,67.16,99.5,47.16,106.5,67.16,92.5,67.16" style="stroke: #A80036; stroke-width: 1.0;"/><text fill="#888888" font-family="sans-serif" font-size="10" lengthAdjust="spacingAndGlyphs" textLength="190" x="1.5" y="206.2402">UMLDoclet 2.0.12, PlantUML 1.2020.16</text><!--MD5=[594f819f8c9eaa51b73dc4611e21b6ae]
@startuml
    set namespaceSeparator none
    hide empty fields
    hide empty methods

    interface "<size:14>MethodElementProperty\n<size:10>org.eclipse.epf.uma" as org.eclipse.epf.uma.MethodElementProperty [[MethodElementProperty.html]] {
        {abstract} +getValue(): String
        {abstract} +setValue(String): void
    }

    interface "<size:14>PackageableElement\n<size:10>org.eclipse.epf.uma" as org.eclipse.epf.uma.PackageableElement [[PackageableElement.html]]

    org.eclipse.epf.uma.PackageableElement <|- - org.eclipse.epf.uma.MethodElementProperty

    center footer UMLDoclet 2.0.12, PlantUML 1.2020.16
@enduml

PlantUML version 1.2020.16(Sun Aug 23 22:20:43 CEST 2020)
(APACHE source distribution)
Java Runtime: Java(TM) SE Runtime Environment
JVM: Java HotSpot(TM) 64-Bit Server VM
Default Encoding: Cp1252
Language: es
Country: ES
--></g></svg>