<?xml version="1.0" encoding="UTF-8" standalone="no"?><svg xmlns="http://www.w3.org/2000/svg" xmlns:xlink="http://www.w3.org/1999/xlink" contentScriptType="application/ecmascript" contentStyleType="text/css" height="366px" preserveAspectRatio="none" style="width:449px;height:366px;" version="1.1" viewBox="0 0 449 366" width="449px" zoomAndPan="magnify"><defs><filter height="300%" id="fchqrism82mwy" width="300%" x="-1" y="-1"><feGaussianBlur result="blurOut" stdDeviation="2.0"/><feColorMatrix in="blurOut" result="blurOut2" type="matrix" values="0 0 0 0 0 0 0 0 0 0 0 0 0 0 0 0 0 0 .4 0"/><feOffset dx="4.0" dy="4.0" in="blurOut2" result="blurOut3"/><feBlend in="SourceGraphic" in2="blurOut3" mode="normal"/></filter></defs><g><!--MD5=[696d903eb29d64d6c317c02a3e7396f3]
class org.eclipse.epf.uma.MethodLibrary--><a href="MethodLibrary.html" target="_top" title="MethodLibrary.html" xlink:actuate="onRequest" xlink:href="MethodLibrary.html" xlink:show="new" xlink:title="MethodLibrary.html" xlink:type="simple"><rect codeLine="5" fill="#FEFECE" filter="url(#fchqrism82mwy)" height="75.8594" id="org.eclipse.epf.uma.MethodLibrary" style="stroke: #A80036; stroke-width: 1.5;" width="319" x="93.5" y="254"/><ellipse cx="202.75" cy="274.0938" fill="#B4A7E5" rx="11" ry="11" style="stroke: #A80036; stroke-width: 1.0;"/><path d="M203.7031,270.7344 L203.7031,277.3906 L205.4219,277.3906 Q206.0313,277.3906 206.2969,277.625 Q206.5625,277.8594 206.5625,278.25 Q206.5625,278.625 206.2969,278.8594 Q206.0313,279.0938 205.4219,279.0938 L200.2813,279.0938 Q199.6719,279.0938 199.4063,278.8594 Q199.1406,278.625 199.1406,278.2344 Q199.1406,277.8594 199.4063,277.625 Q199.6719,277.3906 200.2813,277.3906 L202,277.3906 L202,270.7344 L200.2813,270.7344 Q199.6719,270.7344 199.4063,270.5 Q199.1406,270.2656 199.1406,269.875 Q199.1406,269.5 199.4063,269.2656 Q199.6719,269.0313 200.2813,269.0313 L205.4219,269.0313 Q206.0313,269.0313 206.2969,269.2656 Q206.5625,269.5 206.5625,269.875 Q206.5625,270.2656 206.2969,270.5 Q206.0313,270.7344 205.4219,270.7344 L203.7031,270.7344 Z "/><text fill="#000000" font-family="sans-serif" font-size="14" font-style="italic" lengthAdjust="spacingAndGlyphs" textLength="92" x="223.25" y="273.5332">MethodLibrary</text><text fill="#000000" font-family="sans-serif" font-size="10" font-style="italic" lengthAdjust="spacingAndGlyphs" textLength="92" x="223.25" y="286.9902">org.eclipse.epf.uma</text><line style="stroke: #A80036; stroke-width: 1.5;" x1="94.5" x2="411.5" y1="294.1875" y2="294.1875"/><ellipse cx="104.5" cy="305.1875" fill="#84BE84" rx="3" ry="3" style="stroke: #038048; stroke-width: 1.0;"/><text fill="#000000" font-family="sans-serif" font-size="11" font-style="italic" lengthAdjust="spacingAndGlyphs" textLength="206" x="113.5" y="309.6064">getMethodPlugins(): EList&lt;MethodPlugin&gt;</text><ellipse cx="104.5" cy="319.0234" fill="#84BE84" rx="3" ry="3" style="stroke: #038048; stroke-width: 1.0;"/><text fill="#000000" font-family="sans-serif" font-size="11" font-style="italic" lengthAdjust="spacingAndGlyphs" textLength="293" x="113.5" y="323.4424">getPredefinedConfigurations(): EList&lt;MethodConfiguration&gt;</text></a><!--MD5=[7b6125558004ae2e4ffede7fdf88687c]
class org.eclipse.epf.uma.MethodUnit--><a href="MethodUnit.html" target="_top" title="MethodUnit.html" xlink:actuate="onRequest" xlink:href="MethodUnit.html" xlink:show="new" xlink:title="MethodUnit.html" xlink:type="simple"><rect codeLine="10" fill="#FEFECE" filter="url(#fchqrism82mwy)" height="186.5469" id="org.eclipse.epf.uma.MethodUnit" style="stroke: #A80036; stroke-width: 1.5;" width="264" x="7" y="7"/><ellipse cx="88.75" cy="27.0938" fill="#B4A7E5" rx="11" ry="11" style="stroke: #A80036; stroke-width: 1.0;"/><path d="M89.7031,23.7344 L89.7031,30.3906 L91.4219,30.3906 Q92.0313,30.3906 92.2969,30.625 Q92.5625,30.8594 92.5625,31.25 Q92.5625,31.625 92.2969,31.8594 Q92.0313,32.0938 91.4219,32.0938 L86.2813,32.0938 Q85.6719,32.0938 85.4063,31.8594 Q85.1406,31.625 85.1406,31.2344 Q85.1406,30.8594 85.4063,30.625 Q85.6719,30.3906 86.2813,30.3906 L88,30.3906 L88,23.7344 L86.2813,23.7344 Q85.6719,23.7344 85.4063,23.5 Q85.1406,23.2656 85.1406,22.875 Q85.1406,22.5 85.4063,22.2656 Q85.6719,22.0313 86.2813,22.0313 L91.4219,22.0313 Q92.0313,22.0313 92.2969,22.2656 Q92.5625,22.5 92.5625,22.875 Q92.5625,23.2656 92.2969,23.5 Q92.0313,23.7344 91.4219,23.7344 L89.7031,23.7344 Z "/><text fill="#000000" font-family="sans-serif" font-size="14" font-style="italic" lengthAdjust="spacingAndGlyphs" textLength="73" x="118.75" y="26.5332">MethodUnit</text><text fill="#000000" font-family="sans-serif" font-size="10" font-style="italic" lengthAdjust="spacingAndGlyphs" textLength="92" x="109.25" y="39.9902">org.eclipse.epf.uma</text><line style="stroke: #A80036; stroke-width: 1.5;" x1="8" x2="270" y1="47.1875" y2="47.1875"/><ellipse cx="18" cy="58.1875" fill="#84BE84" rx="3" ry="3" style="stroke: #038048; stroke-width: 1.0;"/><text fill="#000000" font-family="sans-serif" font-size="11" font-style="italic" lengthAdjust="spacingAndGlyphs" textLength="96" x="27" y="62.6064">getAuthors(): String</text><ellipse cx="18" cy="72.0234" fill="#84BE84" rx="3" ry="3" style="stroke: #038048; stroke-width: 1.0;"/><text fill="#000000" font-family="sans-serif" font-size="11" font-style="italic" lengthAdjust="spacingAndGlyphs" textLength="116" x="27" y="76.4424">setAuthors(String): void</text><ellipse cx="18" cy="85.8594" fill="#84BE84" rx="3" ry="3" style="stroke: #038048; stroke-width: 1.0;"/><text fill="#000000" font-family="sans-serif" font-size="11" font-style="italic" lengthAdjust="spacingAndGlyphs" textLength="113" x="27" y="90.2783">getChangeDate(): Date</text><ellipse cx="18" cy="99.6953" fill="#84BE84" rx="3" ry="3" style="stroke: #038048; stroke-width: 1.0;"/><text fill="#000000" font-family="sans-serif" font-size="11" font-style="italic" lengthAdjust="spacingAndGlyphs" textLength="133" x="27" y="104.1143">setChangeDate(Date): void</text><ellipse cx="18" cy="113.5313" fill="#84BE84" rx="3" ry="3" style="stroke: #038048; stroke-width: 1.0;"/><text fill="#000000" font-family="sans-serif" font-size="11" font-style="italic" lengthAdjust="spacingAndGlyphs" textLength="153" x="27" y="117.9502">getChangeDescription(): String</text><ellipse cx="18" cy="127.3672" fill="#84BE84" rx="3" ry="3" style="stroke: #038048; stroke-width: 1.0;"/><text fill="#000000" font-family="sans-serif" font-size="11" font-style="italic" lengthAdjust="spacingAndGlyphs" textLength="173" x="27" y="131.7861">setChangeDescription(String): void</text><ellipse cx="18" cy="141.2031" fill="#84BE84" rx="3" ry="3" style="stroke: #038048; stroke-width: 1.0;"/><text fill="#000000" font-family="sans-serif" font-size="11" font-style="italic" lengthAdjust="spacingAndGlyphs" textLength="96" x="27" y="145.6221">getVersion(): String</text><ellipse cx="18" cy="155.0391" fill="#84BE84" rx="3" ry="3" style="stroke: #038048; stroke-width: 1.0;"/><text fill="#000000" font-family="sans-serif" font-size="11" font-style="italic" lengthAdjust="spacingAndGlyphs" textLength="116" x="27" y="159.458">setVersion(String): void</text><ellipse cx="18" cy="168.875" fill="#84BE84" rx="3" ry="3" style="stroke: #038048; stroke-width: 1.0;"/><text fill="#000000" font-family="sans-serif" font-size="11" font-style="italic" lengthAdjust="spacingAndGlyphs" textLength="218" x="27" y="173.2939">getCopyrightStatement(): SupportingMaterial</text><ellipse cx="18" cy="182.7109" fill="#84BE84" rx="3" ry="3" style="stroke: #038048; stroke-width: 1.0;"/><text fill="#000000" font-family="sans-serif" font-size="11" font-style="italic" lengthAdjust="spacingAndGlyphs" textLength="238" x="27" y="187.1299">setCopyrightStatement(SupportingMaterial): void</text></a><!--MD5=[a0e9c515caa6ec8e13b5700eec708f50]
class org.eclipse.epf.uma.Package--><a href="Package.html" target="_top" title="Package.html" xlink:actuate="onRequest" xlink:href="Package.html" xlink:show="new" xlink:title="Package.html" xlink:type="simple"><rect codeLine="22" fill="#FEFECE" filter="url(#fchqrism82mwy)" height="40.1875" id="org.eclipse.epf.uma.Package" style="stroke: #A80036; stroke-width: 1.5;" width="124" x="306" y="80.5"/><ellipse cx="321" cy="100.5938" fill="#B4A7E5" rx="11" ry="11" style="stroke: #A80036; stroke-width: 1.0;"/><path d="M321.9531,97.2344 L321.9531,103.8906 L323.6719,103.8906 Q324.2813,103.8906 324.5469,104.125 Q324.8125,104.3594 324.8125,104.75 Q324.8125,105.125 324.5469,105.3594 Q324.2813,105.5938 323.6719,105.5938 L318.5313,105.5938 Q317.9219,105.5938 317.6563,105.3594 Q317.3906,105.125 317.3906,104.7344 Q317.3906,104.3594 317.6563,104.125 Q317.9219,103.8906 318.5313,103.8906 L320.25,103.8906 L320.25,97.2344 L318.5313,97.2344 Q317.9219,97.2344 317.6563,97 Q317.3906,96.7656 317.3906,96.375 Q317.3906,96 317.6563,95.7656 Q317.9219,95.5313 318.5313,95.5313 L323.6719,95.5313 Q324.2813,95.5313 324.5469,95.7656 Q324.8125,96 324.8125,96.375 Q324.8125,96.7656 324.5469,97 Q324.2813,97.2344 323.6719,97.2344 L321.9531,97.2344 Z "/><text fill="#000000" font-family="sans-serif" font-size="14" font-style="italic" lengthAdjust="spacingAndGlyphs" textLength="56" x="353" y="100.0332">Package</text><text fill="#000000" font-family="sans-serif" font-size="10" font-style="italic" lengthAdjust="spacingAndGlyphs" textLength="92" x="335" y="113.4902">org.eclipse.epf.uma</text></a><!--MD5=[b14c4ddfc107326ee264848f2ed0f057]
reverse link org.eclipse.epf.uma.MethodUnit to org.eclipse.epf.uma.MethodLibrary--><path codeLine="24" d="M205.11,211.39 C214.29,226.65 223.14,241.36 230.69,253.91 " fill="none" id="org.eclipse.epf.uma.MethodUnit-backto-org.eclipse.epf.uma.MethodLibrary" style="stroke: #A80036; stroke-width: 1.0;"/><polygon fill="none" points="198.98,214.78,194.66,194.03,210.97,207.56,198.98,214.78" style="stroke: #A80036; stroke-width: 1.0;"/><!--MD5=[430ae266abf849e509e883a3ae8adcff]
reverse link org.eclipse.epf.uma.Package to org.eclipse.epf.uma.MethodLibrary--><path codeLine="25" d="M345.95,137.84 C325.72,171.17 295.9,220.31 275.53,253.88 " fill="none" id="org.eclipse.epf.uma.Package-backto-org.eclipse.epf.uma.MethodLibrary" style="stroke: #A80036; stroke-width: 1.0;"/><polygon fill="none" points="339.98,134.18,356.34,120.71,351.95,141.44,339.98,134.18" style="stroke: #A80036; stroke-width: 1.0;"/><text fill="#888888" font-family="sans-serif" font-size="10" lengthAdjust="spacingAndGlyphs" textLength="190" x="120.5" y="353.2402">UMLDoclet 2.0.12, PlantUML 1.2020.16</text><!--MD5=[24a9d679143832e5b4755cd26d351217]
@startuml
    set namespaceSeparator none
    hide empty fields
    hide empty methods

    interface "<size:14>MethodLibrary\n<size:10>org.eclipse.epf.uma" as org.eclipse.epf.uma.MethodLibrary [[MethodLibrary.html]] {
        {abstract} +getMethodPlugins(): EList<MethodPlugin>
        {abstract} +getPredefinedConfigurations(): EList<MethodConfiguration>
    }

    interface "<size:14>MethodUnit\n<size:10>org.eclipse.epf.uma" as org.eclipse.epf.uma.MethodUnit [[MethodUnit.html]] {
        {abstract} +getAuthors(): String
        {abstract} +setAuthors(String): void
        {abstract} +getChangeDate(): Date
        {abstract} +setChangeDate(Date): void
        {abstract} +getChangeDescription(): String
        {abstract} +setChangeDescription(String): void
        {abstract} +getVersion(): String
        {abstract} +setVersion(String): void
        {abstract} +getCopyrightStatement(): SupportingMaterial
        {abstract} +setCopyrightStatement(SupportingMaterial): void
    }
    interface "<size:14>Package\n<size:10>org.eclipse.epf.uma" as org.eclipse.epf.uma.Package [[Package.html]]

    org.eclipse.epf.uma.MethodUnit <|- - org.eclipse.epf.uma.MethodLibrary
    org.eclipse.epf.uma.Package <|- - org.eclipse.epf.uma.MethodLibrary

    center footer UMLDoclet 2.0.12, PlantUML 1.2020.16
@enduml

PlantUML version 1.2020.16(Sun Aug 23 22:20:43 CEST 2020)
(APACHE source distribution)
Java Runtime: Java(TM) SE Runtime Environment
JVM: Java HotSpot(TM) 64-Bit Server VM
Default Encoding: Cp1252
Language: es
Country: ES
--></g></svg>