<?xml version="1.0" encoding="UTF-8" standalone="no"?><svg xmlns="http://www.w3.org/2000/svg" xmlns:xlink="http://www.w3.org/1999/xlink" contentScriptType="application/ecmascript" contentStyleType="text/css" height="435px" preserveAspectRatio="none" style="width:511px;height:435px;" version="1.1" viewBox="0 0 511 435" width="511px" zoomAndPan="magnify"><defs><filter height="300%" id="f1mylkppygrbhf" width="300%" x="-1" y="-1"><feGaussianBlur result="blurOut" stdDeviation="2.0"/><feColorMatrix in="blurOut" result="blurOut2" type="matrix" values="0 0 0 0 0 0 0 0 0 0 0 0 0 0 0 0 0 0 .4 0"/><feOffset dx="4.0" dy="4.0" in="blurOut2" result="blurOut3"/><feBlend in="SourceGraphic" in2="blurOut3" mode="normal"/></filter></defs><g><!--MD5=[cba0e335ae3b4d789e4e1c56bc0cc12a]
class org.eclipse.epf.uma.MethodPackage--><a href="MethodPackage.html" target="_top" title="MethodPackage.html" xlink:actuate="onRequest" xlink:href="MethodPackage.html" xlink:show="new" xlink:title="MethodPackage.html" xlink:type="simple"><rect codeLine="5" fill="#FEFECE" filter="url(#f1mylkppygrbhf)" height="103.5313" id="org.eclipse.epf.uma.MethodPackage" style="stroke: #A80036; stroke-width: 1.5;" width="258" x="171" y="295"/><ellipse cx="243.75" cy="315.0938" fill="#B4A7E5" rx="11" ry="11" style="stroke: #A80036; stroke-width: 1.0;"/><path d="M244.7031,311.7344 L244.7031,318.3906 L246.4219,318.3906 Q247.0313,318.3906 247.2969,318.625 Q247.5625,318.8594 247.5625,319.25 Q247.5625,319.625 247.2969,319.8594 Q247.0313,320.0938 246.4219,320.0938 L241.2813,320.0938 Q240.6719,320.0938 240.4063,319.8594 Q240.1406,319.625 240.1406,319.2344 Q240.1406,318.8594 240.4063,318.625 Q240.6719,318.3906 241.2813,318.3906 L243,318.3906 L243,311.7344 L241.2813,311.7344 Q240.6719,311.7344 240.4063,311.5 Q240.1406,311.2656 240.1406,310.875 Q240.1406,310.5 240.4063,310.2656 Q240.6719,310.0313 241.2813,310.0313 L246.4219,310.0313 Q247.0313,310.0313 247.2969,310.2656 Q247.5625,310.5 247.5625,310.875 Q247.5625,311.2656 247.2969,311.5 Q247.0313,311.7344 246.4219,311.7344 L244.7031,311.7344 Z "/><text fill="#000000" font-family="sans-serif" font-size="14" font-style="italic" lengthAdjust="spacingAndGlyphs" textLength="104" x="264.25" y="314.5332">MethodPackage</text><text fill="#000000" font-family="sans-serif" font-size="10" font-style="italic" lengthAdjust="spacingAndGlyphs" textLength="92" x="270.25" y="327.9902">org.eclipse.epf.uma</text><line style="stroke: #A80036; stroke-width: 1.5;" x1="172" x2="428" y1="335.1875" y2="335.1875"/><ellipse cx="182" cy="346.1875" fill="#84BE84" rx="3" ry="3" style="stroke: #038048; stroke-width: 1.0;"/><text fill="#000000" font-family="sans-serif" font-size="11" font-style="italic" lengthAdjust="spacingAndGlyphs" textLength="103" x="191" y="350.6064">getGlobal(): Boolean</text><ellipse cx="182" cy="360.0234" fill="#84BE84" rx="3" ry="3" style="stroke: #038048; stroke-width: 1.0;"/><text fill="#000000" font-family="sans-serif" font-size="11" font-style="italic" lengthAdjust="spacingAndGlyphs" textLength="123" x="191" y="364.4424">setGlobal(Boolean): void</text><ellipse cx="182" cy="373.8594" fill="#84BE84" rx="3" ry="3" style="stroke: #038048; stroke-width: 1.0;"/><text fill="#000000" font-family="sans-serif" font-size="11" font-style="italic" lengthAdjust="spacingAndGlyphs" textLength="232" x="191" y="378.2783">getReusedPackages(): EList&lt;MethodPackage&gt;</text><ellipse cx="182" cy="387.6953" fill="#84BE84" rx="3" ry="3" style="stroke: #038048; stroke-width: 1.0;"/><text fill="#000000" font-family="sans-serif" font-size="11" font-style="italic" lengthAdjust="spacingAndGlyphs" textLength="220" x="191" y="392.1143">getChildPackages(): EList&lt;MethodPackage&gt;</text></a><!--MD5=[7427cf7205abc41d95567869575e76d9]
class org.eclipse.epf.uma.MethodElement--><a href="MethodElement.html" target="_top" title="MethodElement.html" xlink:actuate="onRequest" xlink:href="MethodElement.html" xlink:show="new" xlink:title="MethodElement.html" xlink:type="simple"><rect codeLine="12" fill="#FEFECE" filter="url(#f1mylkppygrbhf)" height="228.0547" id="org.eclipse.epf.uma.MethodElement" style="stroke: #A80036; stroke-width: 1.5;" width="326" x="7" y="7"/><ellipse cx="116.25" cy="27.0938" fill="#B4A7E5" rx="11" ry="11" style="stroke: #A80036; stroke-width: 1.0;"/><path d="M117.2031,23.7344 L117.2031,30.3906 L118.9219,30.3906 Q119.5313,30.3906 119.7969,30.625 Q120.0625,30.8594 120.0625,31.25 Q120.0625,31.625 119.7969,31.8594 Q119.5313,32.0938 118.9219,32.0938 L113.7813,32.0938 Q113.1719,32.0938 112.9063,31.8594 Q112.6406,31.625 112.6406,31.2344 Q112.6406,30.8594 112.9063,30.625 Q113.1719,30.3906 113.7813,30.3906 L115.5,30.3906 L115.5,23.7344 L113.7813,23.7344 Q113.1719,23.7344 112.9063,23.5 Q112.6406,23.2656 112.6406,22.875 Q112.6406,22.5 112.9063,22.2656 Q113.1719,22.0313 113.7813,22.0313 L118.9219,22.0313 Q119.5313,22.0313 119.7969,22.2656 Q120.0625,22.5 120.0625,22.875 Q120.0625,23.2656 119.7969,23.5 Q119.5313,23.7344 118.9219,23.7344 L117.2031,23.7344 Z "/><text fill="#000000" font-family="sans-serif" font-size="14" font-style="italic" lengthAdjust="spacingAndGlyphs" textLength="99" x="136.75" y="26.5332">MethodElement</text><text fill="#000000" font-family="sans-serif" font-size="10" font-style="italic" lengthAdjust="spacingAndGlyphs" textLength="92" x="140.25" y="39.9902">org.eclipse.epf.uma</text><line style="stroke: #A80036; stroke-width: 1.5;" x1="8" x2="332" y1="47.1875" y2="47.1875"/><ellipse cx="18" cy="58.1875" fill="#84BE84" rx="3" ry="3" style="stroke: #038048; stroke-width: 1.0;"/><text fill="#000000" font-family="sans-serif" font-size="11" font-style="italic" lengthAdjust="spacingAndGlyphs" textLength="82" x="27" y="62.6064">getGuid(): String</text><ellipse cx="18" cy="72.0234" fill="#84BE84" rx="3" ry="3" style="stroke: #038048; stroke-width: 1.0;"/><text fill="#000000" font-family="sans-serif" font-size="11" font-style="italic" lengthAdjust="spacingAndGlyphs" textLength="102" x="27" y="76.4424">setGuid(String): void</text><ellipse cx="18" cy="85.8594" fill="#84BE84" rx="3" ry="3" style="stroke: #038048; stroke-width: 1.0;"/><text fill="#000000" font-family="sans-serif" font-size="11" font-style="italic" lengthAdjust="spacingAndGlyphs" textLength="149" x="27" y="90.2783">getPresentationName(): String</text><ellipse cx="18" cy="99.6953" fill="#84BE84" rx="3" ry="3" style="stroke: #038048; stroke-width: 1.0;"/><text fill="#000000" font-family="sans-serif" font-size="11" font-style="italic" lengthAdjust="spacingAndGlyphs" textLength="169" x="27" y="104.1143">setPresentationName(String): void</text><ellipse cx="18" cy="113.5313" fill="#84BE84" rx="3" ry="3" style="stroke: #038048; stroke-width: 1.0;"/><text fill="#000000" font-family="sans-serif" font-size="11" font-style="italic" lengthAdjust="spacingAndGlyphs" textLength="138" x="27" y="117.9502">getBriefDescription(): String</text><ellipse cx="18" cy="127.3672" fill="#84BE84" rx="3" ry="3" style="stroke: #038048; stroke-width: 1.0;"/><text fill="#000000" font-family="sans-serif" font-size="11" font-style="italic" lengthAdjust="spacingAndGlyphs" textLength="158" x="27" y="131.7861">setBriefDescription(String): void</text><ellipse cx="18" cy="141.2031" fill="#84BE84" rx="3" ry="3" style="stroke: #038048; stroke-width: 1.0;"/><text fill="#000000" font-family="sans-serif" font-size="11" font-style="italic" lengthAdjust="spacingAndGlyphs" textLength="180" x="27" y="145.6221">getOwnedRules(): EList&lt;Constraint&gt;</text><ellipse cx="18" cy="155.0391" fill="#84BE84" rx="3" ry="3" style="stroke: #038048; stroke-width: 1.0;"/><text fill="#000000" font-family="sans-serif" font-size="11" font-style="italic" lengthAdjust="spacingAndGlyphs" textLength="300" x="27" y="159.458">getMethodElementProperty(): EList&lt;MethodElementProperty&gt;</text><ellipse cx="18" cy="168.875" fill="#84BE84" rx="3" ry="3" style="stroke: #038048; stroke-width: 1.0;"/><text fill="#000000" font-family="sans-serif" font-size="11" font-style="italic" lengthAdjust="spacingAndGlyphs" textLength="110" x="27" y="173.2939">getKind(): EList&lt;Kind&gt;</text><ellipse cx="18" cy="182.7109" fill="#84BE84" rx="3" ry="3" style="stroke: #038048; stroke-width: 1.0;"/><text fill="#000000" font-family="sans-serif" font-size="11" font-style="italic" lengthAdjust="spacingAndGlyphs" textLength="128" x="27" y="187.1299">getSuppressed(): Boolean</text><ellipse cx="18" cy="196.5469" fill="#84BE84" rx="3" ry="3" style="stroke: #038048; stroke-width: 1.0;"/><text fill="#000000" font-family="sans-serif" font-size="11" font-style="italic" lengthAdjust="spacingAndGlyphs" textLength="148" x="27" y="200.9658">setSuppressed(Boolean): void</text><ellipse cx="18" cy="210.3828" fill="#84BE84" rx="3" ry="3" style="stroke: #038048; stroke-width: 1.0;"/><text fill="#000000" font-family="sans-serif" font-size="11" font-style="italic" lengthAdjust="spacingAndGlyphs" textLength="132" x="27" y="214.8018">getOrderingGuide(): String</text><ellipse cx="18" cy="224.2188" fill="#84BE84" rx="3" ry="3" style="stroke: #038048; stroke-width: 1.0;"/><text fill="#000000" font-family="sans-serif" font-size="11" font-style="italic" lengthAdjust="spacingAndGlyphs" textLength="152" x="27" y="228.6377">setOrderingGuide(String): void</text></a><!--MD5=[a0e9c515caa6ec8e13b5700eec708f50]
class org.eclipse.epf.uma.Package--><a href="Package.html" target="_top" title="Package.html" xlink:actuate="onRequest" xlink:href="Package.html" xlink:show="new" xlink:title="Package.html" xlink:type="simple"><rect codeLine="27" fill="#FEFECE" filter="url(#f1mylkppygrbhf)" height="40.1875" id="org.eclipse.epf.uma.Package" style="stroke: #A80036; stroke-width: 1.5;" width="124" x="368" y="101"/><ellipse cx="383" cy="121.0938" fill="#B4A7E5" rx="11" ry="11" style="stroke: #A80036; stroke-width: 1.0;"/><path d="M383.9531,117.7344 L383.9531,124.3906 L385.6719,124.3906 Q386.2813,124.3906 386.5469,124.625 Q386.8125,124.8594 386.8125,125.25 Q386.8125,125.625 386.5469,125.8594 Q386.2813,126.0938 385.6719,126.0938 L380.5313,126.0938 Q379.9219,126.0938 379.6563,125.8594 Q379.3906,125.625 379.3906,125.2344 Q379.3906,124.8594 379.6563,124.625 Q379.9219,124.3906 380.5313,124.3906 L382.25,124.3906 L382.25,117.7344 L380.5313,117.7344 Q379.9219,117.7344 379.6563,117.5 Q379.3906,117.2656 379.3906,116.875 Q379.3906,116.5 379.6563,116.2656 Q379.9219,116.0313 380.5313,116.0313 L385.6719,116.0313 Q386.2813,116.0313 386.5469,116.2656 Q386.8125,116.5 386.8125,116.875 Q386.8125,117.2656 386.5469,117.5 Q386.2813,117.7344 385.6719,117.7344 L383.9531,117.7344 Z "/><text fill="#000000" font-family="sans-serif" font-size="14" font-style="italic" lengthAdjust="spacingAndGlyphs" textLength="56" x="415" y="120.5332">Package</text><text fill="#000000" font-family="sans-serif" font-size="10" font-style="italic" lengthAdjust="spacingAndGlyphs" textLength="92" x="397" y="133.9902">org.eclipse.epf.uma</text></a><!--MD5=[7eb104b916ef085924f3875e1cf5fad4]
reverse link org.eclipse.epf.uma.MethodElement to org.eclipse.epf.uma.MethodPackage--><path codeLine="29" d="M245.92,252.81 C254.5,267.6 262.82,281.94 270.26,294.75 " fill="none" id="org.eclipse.epf.uma.MethodElement-backto-org.eclipse.epf.uma.MethodPackage" style="stroke: #A80036; stroke-width: 1.0;"/><polygon fill="none" points="239.75,256.12,235.76,235.31,251.86,249.1,239.75,256.12" style="stroke: #A80036; stroke-width: 1.0;"/><!--MD5=[d07e176dcad9dab67ad5a80c4639c1a8]
reverse link org.eclipse.epf.uma.Package to org.eclipse.epf.uma.MethodPackage--><path codeLine="30" d="M408.87,158.41 C387.34,195.5 353.77,253.34 329.6,294.99 " fill="none" id="org.eclipse.epf.uma.Package-backto-org.eclipse.epf.uma.MethodPackage" style="stroke: #A80036; stroke-width: 1.0;"/><polygon fill="none" points="402.82,154.88,418.92,141.1,414.93,161.91,402.82,154.88" style="stroke: #A80036; stroke-width: 1.0;"/><text fill="#888888" font-family="sans-serif" font-size="10" lengthAdjust="spacingAndGlyphs" textLength="190" x="151.5" y="421.9121">UMLDoclet 2.0.12, PlantUML 1.2020.16</text><!--MD5=[a9188d102869bf073de3c5bfb727c0bc]
@startuml
    set namespaceSeparator none
    hide empty fields
    hide empty methods

    interface "<size:14>MethodPackage\n<size:10>org.eclipse.epf.uma" as org.eclipse.epf.uma.MethodPackage [[MethodPackage.html]] {
        {abstract} +getGlobal(): Boolean
        {abstract} +setGlobal(Boolean): void
        {abstract} +getReusedPackages(): EList<MethodPackage>
        {abstract} +getChildPackages(): EList<MethodPackage>
    }

    interface "<size:14>MethodElement\n<size:10>org.eclipse.epf.uma" as org.eclipse.epf.uma.MethodElement [[MethodElement.html]] {
        {abstract} +getGuid(): String
        {abstract} +setGuid(String): void
        {abstract} +getPresentationName(): String
        {abstract} +setPresentationName(String): void
        {abstract} +getBriefDescription(): String
        {abstract} +setBriefDescription(String): void
        {abstract} +getOwnedRules(): EList<Constraint>
        {abstract} +getMethodElementProperty(): EList<MethodElementProperty>
        {abstract} +getKind(): EList<Kind>
        {abstract} +getSuppressed(): Boolean
        {abstract} +setSuppressed(Boolean): void
        {abstract} +getOrderingGuide(): String
        {abstract} +setOrderingGuide(String): void
    }
    interface "<size:14>Package\n<size:10>org.eclipse.epf.uma" as org.eclipse.epf.uma.Package [[Package.html]]

    org.eclipse.epf.uma.MethodElement <|- - org.eclipse.epf.uma.MethodPackage
    org.eclipse.epf.uma.Package <|- - org.eclipse.epf.uma.MethodPackage

    center footer UMLDoclet 2.0.12, PlantUML 1.2020.16
@enduml

PlantUML version 1.2020.16(Sun Aug 23 22:20:43 CEST 2020)
(APACHE source distribution)
Java Runtime: Java(TM) SE Runtime Environment
JVM: Java HotSpot(TM) 64-Bit Server VM
Default Encoding: Cp1252
Language: es
Country: ES
--></g></svg>