<?xml version="1.0" encoding="UTF-8" standalone="no"?><svg xmlns="http://www.w3.org/2000/svg" xmlns:xlink="http://www.w3.org/1999/xlink" contentScriptType="application/ecmascript" contentStyleType="text/css" height="371px" preserveAspectRatio="none" style="width:352px;height:371px;" version="1.1" viewBox="0 0 352 371" width="352px" zoomAndPan="magnify"><defs><filter height="300%" id="f1ppbk41e3timj" width="300%" x="-1" y="-1"><feGaussianBlur result="blurOut" stdDeviation="2.0"/><feColorMatrix in="blurOut" result="blurOut2" type="matrix" values="0 0 0 0 0 0 0 0 0 0 0 0 0 0 0 0 0 0 .4 0"/><feOffset dx="4.0" dy="4.0" in="blurOut2" result="blurOut3"/><feBlend in="SourceGraphic" in2="blurOut3" mode="normal"/></filter></defs><g><!--MD5=[7427cf7205abc41d95567869575e76d9]
class org.eclipse.epf.uma.MethodElement--><a href="MethodElement.html" target="_top" title="MethodElement.html" xlink:actuate="onRequest" xlink:href="MethodElement.html" xlink:show="new" xlink:title="MethodElement.html" xlink:type="simple"><rect codeLine="5" fill="#FEFECE" filter="url(#f1ppbk41e3timj)" height="228.0547" id="org.eclipse.epf.uma.MethodElement" style="stroke: #A80036; stroke-width: 1.5;" width="326" x="7" y="107"/><ellipse cx="116.25" cy="127.0938" fill="#B4A7E5" rx="11" ry="11" style="stroke: #A80036; stroke-width: 1.0;"/><path d="M117.2031,123.7344 L117.2031,130.3906 L118.9219,130.3906 Q119.5313,130.3906 119.7969,130.625 Q120.0625,130.8594 120.0625,131.25 Q120.0625,131.625 119.7969,131.8594 Q119.5313,132.0938 118.9219,132.0938 L113.7813,132.0938 Q113.1719,132.0938 112.9063,131.8594 Q112.6406,131.625 112.6406,131.2344 Q112.6406,130.8594 112.9063,130.625 Q113.1719,130.3906 113.7813,130.3906 L115.5,130.3906 L115.5,123.7344 L113.7813,123.7344 Q113.1719,123.7344 112.9063,123.5 Q112.6406,123.2656 112.6406,122.875 Q112.6406,122.5 112.9063,122.2656 Q113.1719,122.0313 113.7813,122.0313 L118.9219,122.0313 Q119.5313,122.0313 119.7969,122.2656 Q120.0625,122.5 120.0625,122.875 Q120.0625,123.2656 119.7969,123.5 Q119.5313,123.7344 118.9219,123.7344 L117.2031,123.7344 Z "/><text fill="#000000" font-family="sans-serif" font-size="14" font-style="italic" lengthAdjust="spacingAndGlyphs" textLength="99" x="136.75" y="126.5332">MethodElement</text><text fill="#000000" font-family="sans-serif" font-size="10" font-style="italic" lengthAdjust="spacingAndGlyphs" textLength="92" x="140.25" y="139.9902">org.eclipse.epf.uma</text><line style="stroke: #A80036; stroke-width: 1.5;" x1="8" x2="332" y1="147.1875" y2="147.1875"/><ellipse cx="18" cy="158.1875" fill="#84BE84" rx="3" ry="3" style="stroke: #038048; stroke-width: 1.0;"/><text fill="#000000" font-family="sans-serif" font-size="11" font-style="italic" lengthAdjust="spacingAndGlyphs" textLength="82" x="27" y="162.6064">getGuid(): String</text><ellipse cx="18" cy="172.0234" fill="#84BE84" rx="3" ry="3" style="stroke: #038048; stroke-width: 1.0;"/><text fill="#000000" font-family="sans-serif" font-size="11" font-style="italic" lengthAdjust="spacingAndGlyphs" textLength="102" x="27" y="176.4424">setGuid(String): void</text><ellipse cx="18" cy="185.8594" fill="#84BE84" rx="3" ry="3" style="stroke: #038048; stroke-width: 1.0;"/><text fill="#000000" font-family="sans-serif" font-size="11" font-style="italic" lengthAdjust="spacingAndGlyphs" textLength="149" x="27" y="190.2783">getPresentationName(): String</text><ellipse cx="18" cy="199.6953" fill="#84BE84" rx="3" ry="3" style="stroke: #038048; stroke-width: 1.0;"/><text fill="#000000" font-family="sans-serif" font-size="11" font-style="italic" lengthAdjust="spacingAndGlyphs" textLength="169" x="27" y="204.1143">setPresentationName(String): void</text><ellipse cx="18" cy="213.5313" fill="#84BE84" rx="3" ry="3" style="stroke: #038048; stroke-width: 1.0;"/><text fill="#000000" font-family="sans-serif" font-size="11" font-style="italic" lengthAdjust="spacingAndGlyphs" textLength="138" x="27" y="217.9502">getBriefDescription(): String</text><ellipse cx="18" cy="227.3672" fill="#84BE84" rx="3" ry="3" style="stroke: #038048; stroke-width: 1.0;"/><text fill="#000000" font-family="sans-serif" font-size="11" font-style="italic" lengthAdjust="spacingAndGlyphs" textLength="158" x="27" y="231.7861">setBriefDescription(String): void</text><ellipse cx="18" cy="241.2031" fill="#84BE84" rx="3" ry="3" style="stroke: #038048; stroke-width: 1.0;"/><text fill="#000000" font-family="sans-serif" font-size="11" font-style="italic" lengthAdjust="spacingAndGlyphs" textLength="180" x="27" y="245.6221">getOwnedRules(): EList&lt;Constraint&gt;</text><ellipse cx="18" cy="255.0391" fill="#84BE84" rx="3" ry="3" style="stroke: #038048; stroke-width: 1.0;"/><text fill="#000000" font-family="sans-serif" font-size="11" font-style="italic" lengthAdjust="spacingAndGlyphs" textLength="300" x="27" y="259.458">getMethodElementProperty(): EList&lt;MethodElementProperty&gt;</text><ellipse cx="18" cy="268.875" fill="#84BE84" rx="3" ry="3" style="stroke: #038048; stroke-width: 1.0;"/><text fill="#000000" font-family="sans-serif" font-size="11" font-style="italic" lengthAdjust="spacingAndGlyphs" textLength="110" x="27" y="273.2939">getKind(): EList&lt;Kind&gt;</text><ellipse cx="18" cy="282.7109" fill="#84BE84" rx="3" ry="3" style="stroke: #038048; stroke-width: 1.0;"/><text fill="#000000" font-family="sans-serif" font-size="11" font-style="italic" lengthAdjust="spacingAndGlyphs" textLength="128" x="27" y="287.1299">getSuppressed(): Boolean</text><ellipse cx="18" cy="296.5469" fill="#84BE84" rx="3" ry="3" style="stroke: #038048; stroke-width: 1.0;"/><text fill="#000000" font-family="sans-serif" font-size="11" font-style="italic" lengthAdjust="spacingAndGlyphs" textLength="148" x="27" y="300.9658">setSuppressed(Boolean): void</text><ellipse cx="18" cy="310.3828" fill="#84BE84" rx="3" ry="3" style="stroke: #038048; stroke-width: 1.0;"/><text fill="#000000" font-family="sans-serif" font-size="11" font-style="italic" lengthAdjust="spacingAndGlyphs" textLength="132" x="27" y="314.8018">getOrderingGuide(): String</text><ellipse cx="18" cy="324.2188" fill="#84BE84" rx="3" ry="3" style="stroke: #038048; stroke-width: 1.0;"/><text fill="#000000" font-family="sans-serif" font-size="11" font-style="italic" lengthAdjust="spacingAndGlyphs" textLength="152" x="27" y="328.6377">setOrderingGuide(String): void</text></a><!--MD5=[7e71af605c2be934f9beeddf0fc62558]
class org.eclipse.epf.uma.PackageableElement--><a href="PackageableElement.html" target="_top" title="PackageableElement.html" xlink:actuate="onRequest" xlink:href="PackageableElement.html" xlink:show="new" xlink:title="PackageableElement.html" xlink:type="simple"><rect codeLine="21" fill="#FEFECE" filter="url(#f1ppbk41e3timj)" height="40.1875" id="org.eclipse.epf.uma.PackageableElement" style="stroke: #A80036; stroke-width: 1.5;" width="166" x="87" y="7"/><ellipse cx="102" cy="27.0938" fill="#B4A7E5" rx="11" ry="11" style="stroke: #A80036; stroke-width: 1.0;"/><path d="M102.9531,23.7344 L102.9531,30.3906 L104.6719,30.3906 Q105.2813,30.3906 105.5469,30.625 Q105.8125,30.8594 105.8125,31.25 Q105.8125,31.625 105.5469,31.8594 Q105.2813,32.0938 104.6719,32.0938 L99.5313,32.0938 Q98.9219,32.0938 98.6563,31.8594 Q98.3906,31.625 98.3906,31.2344 Q98.3906,30.8594 98.6563,30.625 Q98.9219,30.3906 99.5313,30.3906 L101.25,30.3906 L101.25,23.7344 L99.5313,23.7344 Q98.9219,23.7344 98.6563,23.5 Q98.3906,23.2656 98.3906,22.875 Q98.3906,22.5 98.6563,22.2656 Q98.9219,22.0313 99.5313,22.0313 L104.6719,22.0313 Q105.2813,22.0313 105.5469,22.2656 Q105.8125,22.5 105.8125,22.875 Q105.8125,23.2656 105.5469,23.5 Q105.2813,23.7344 104.6719,23.7344 L102.9531,23.7344 Z "/><text fill="#000000" font-family="sans-serif" font-size="14" font-style="italic" lengthAdjust="spacingAndGlyphs" textLength="134" x="116" y="26.5332">PackageableElement</text><text fill="#000000" font-family="sans-serif" font-size="10" font-style="italic" lengthAdjust="spacingAndGlyphs" textLength="92" x="137" y="39.9902">org.eclipse.epf.uma</text></a><!--MD5=[5b70efccdb2344d12f8f42f654fe0802]
reverse link org.eclipse.epf.uma.PackageableElement to org.eclipse.epf.uma.MethodElement--><path codeLine="23" d="M170,67.33 C170,79.17 170,92.8 170,106.94 " fill="none" id="org.eclipse.epf.uma.PackageableElement-backto-org.eclipse.epf.uma.MethodElement" style="stroke: #A80036; stroke-width: 1.0;"/><polygon fill="none" points="163,67.11,170,47.11,177,67.11,163,67.11" style="stroke: #A80036; stroke-width: 1.0;"/><text fill="#888888" font-family="sans-serif" font-size="10" lengthAdjust="spacingAndGlyphs" textLength="190" x="72" y="358.4355">UMLDoclet 2.0.12, PlantUML 1.2020.16</text><!--MD5=[6cf798dbba6fa5e1af4eb75965789ca7]
@startuml
    set namespaceSeparator none
    hide empty fields
    hide empty methods

    interface "<size:14>MethodElement\n<size:10>org.eclipse.epf.uma" as org.eclipse.epf.uma.MethodElement [[MethodElement.html]] {
        {abstract} +getGuid(): String
        {abstract} +setGuid(String): void
        {abstract} +getPresentationName(): String
        {abstract} +setPresentationName(String): void
        {abstract} +getBriefDescription(): String
        {abstract} +setBriefDescription(String): void
        {abstract} +getOwnedRules(): EList<Constraint>
        {abstract} +getMethodElementProperty(): EList<MethodElementProperty>
        {abstract} +getKind(): EList<Kind>
        {abstract} +getSuppressed(): Boolean
        {abstract} +setSuppressed(Boolean): void
        {abstract} +getOrderingGuide(): String
        {abstract} +setOrderingGuide(String): void
    }

    interface "<size:14>PackageableElement\n<size:10>org.eclipse.epf.uma" as org.eclipse.epf.uma.PackageableElement [[PackageableElement.html]]

    org.eclipse.epf.uma.PackageableElement <|- - org.eclipse.epf.uma.MethodElement

    center footer UMLDoclet 2.0.12, PlantUML 1.2020.16
@enduml

PlantUML version 1.2020.16(Sun Aug 23 22:20:43 CEST 2020)
(APACHE source distribution)
Java Runtime: Java(TM) SE Runtime Environment
JVM: Java HotSpot(TM) 64-Bit Server VM
Default Encoding: Cp1252
Language: es
Country: ES
--></g></svg>