<?xml version="1.0" encoding="UTF-8" standalone="no"?><svg xmlns="http://www.w3.org/2000/svg" xmlns:xlink="http://www.w3.org/1999/xlink" contentScriptType="application/ecmascript" contentStyleType="text/css" height="310px" preserveAspectRatio="none" style="width:318px;height:310px;" version="1.1" viewBox="0 0 318 310" width="318px" zoomAndPan="magnify"><defs><filter height="300%" id="fhifjbd5y9bem" width="300%" x="-1" y="-1"><feGaussianBlur result="blurOut" stdDeviation="2.0"/><feColorMatrix in="blurOut" result="blurOut2" type="matrix" values="0 0 0 0 0 0 0 0 0 0 0 0 0 0 0 0 0 0 .4 0"/><feOffset dx="4.0" dy="4.0" in="blurOut2" result="blurOut3"/><feBlend in="SourceGraphic" in2="blurOut3" mode="normal"/></filter></defs><g><!--MD5=[a4cf44522d5694421467e63b5e202155]
class org.eclipse.epf.uma.Milestone--><a href="Milestone.html" target="_top" title="Milestone.html" xlink:actuate="onRequest" xlink:href="Milestone.html" xlink:show="new" xlink:title="Milestone.html" xlink:type="simple"><rect codeLine="5" fill="#FEFECE" filter="url(#fhifjbd5y9bem)" height="62.0234" id="org.eclipse.epf.uma.Milestone" style="stroke: #A80036; stroke-width: 1.5;" width="292" x="7" y="212"/><ellipse cx="102.75" cy="232.0938" fill="#B4A7E5" rx="11" ry="11" style="stroke: #A80036; stroke-width: 1.0;"/><path d="M103.7031,228.7344 L103.7031,235.3906 L105.4219,235.3906 Q106.0313,235.3906 106.2969,235.625 Q106.5625,235.8594 106.5625,236.25 Q106.5625,236.625 106.2969,236.8594 Q106.0313,237.0938 105.4219,237.0938 L100.2813,237.0938 Q99.6719,237.0938 99.4063,236.8594 Q99.1406,236.625 99.1406,236.2344 Q99.1406,235.8594 99.4063,235.625 Q99.6719,235.3906 100.2813,235.3906 L102,235.3906 L102,228.7344 L100.2813,228.7344 Q99.6719,228.7344 99.4063,228.5 Q99.1406,228.2656 99.1406,227.875 Q99.1406,227.5 99.4063,227.2656 Q99.6719,227.0313 100.2813,227.0313 L105.4219,227.0313 Q106.0313,227.0313 106.2969,227.2656 Q106.5625,227.5 106.5625,227.875 Q106.5625,228.2656 106.2969,228.5 Q106.0313,228.7344 105.4219,228.7344 L103.7031,228.7344 Z "/><text fill="#000000" font-family="sans-serif" font-size="14" font-style="italic" lengthAdjust="spacingAndGlyphs" textLength="61" x="138.75" y="231.5332">Milestone</text><text fill="#000000" font-family="sans-serif" font-size="10" font-style="italic" lengthAdjust="spacingAndGlyphs" textLength="92" x="123.25" y="244.9902">org.eclipse.epf.uma</text><line style="stroke: #A80036; stroke-width: 1.5;" x1="8" x2="298" y1="252.1875" y2="252.1875"/><ellipse cx="18" cy="263.1875" fill="#84BE84" rx="3" ry="3" style="stroke: #038048; stroke-width: 1.0;"/><text fill="#000000" font-family="sans-serif" font-size="11" font-style="italic" lengthAdjust="spacingAndGlyphs" textLength="266" x="27" y="267.6064">getRequiredResults(): EList&lt;WorkProductDescriptor&gt;</text></a><!--MD5=[2faf845886558de7d4384c143b6f4057]
class org.eclipse.epf.uma.WorkBreakdownElement--><a href="WorkBreakdownElement.html" target="_top" title="WorkBreakdownElement.html" xlink:actuate="onRequest" xlink:href="WorkBreakdownElement.html" xlink:show="new" xlink:title="WorkBreakdownElement.html" xlink:type="simple"><rect codeLine="9" fill="#FEFECE" filter="url(#fhifjbd5y9bem)" height="145.0391" id="org.eclipse.epf.uma.WorkBreakdownElement" style="stroke: #A80036; stroke-width: 1.5;" width="245" x="30.5" y="7"/><ellipse cx="70.7" cy="27.0938" fill="#B4A7E5" rx="11" ry="11" style="stroke: #A80036; stroke-width: 1.0;"/><path d="M71.6531,23.7344 L71.6531,30.3906 L73.3719,30.3906 Q73.9813,30.3906 74.2469,30.625 Q74.5125,30.8594 74.5125,31.25 Q74.5125,31.625 74.2469,31.8594 Q73.9813,32.0938 73.3719,32.0938 L68.2313,32.0938 Q67.6219,32.0938 67.3563,31.8594 Q67.0906,31.625 67.0906,31.2344 Q67.0906,30.8594 67.3563,30.625 Q67.6219,30.3906 68.2313,30.3906 L69.95,30.3906 L69.95,23.7344 L68.2313,23.7344 Q67.6219,23.7344 67.3563,23.5 Q67.0906,23.2656 67.0906,22.875 Q67.0906,22.5 67.3563,22.2656 Q67.6219,22.0313 68.2313,22.0313 L73.3719,22.0313 Q73.9813,22.0313 74.2469,22.2656 Q74.5125,22.5 74.5125,22.875 Q74.5125,23.2656 74.2469,23.5 Q73.9813,23.7344 73.3719,23.7344 L71.6531,23.7344 Z "/><text fill="#000000" font-family="sans-serif" font-size="14" font-style="italic" lengthAdjust="spacingAndGlyphs" textLength="157" x="90.3" y="26.5332">WorkBreakdownElement</text><text fill="#000000" font-family="sans-serif" font-size="10" font-style="italic" lengthAdjust="spacingAndGlyphs" textLength="92" x="122.8" y="39.9902">org.eclipse.epf.uma</text><line style="stroke: #A80036; stroke-width: 1.5;" x1="31.5" x2="274.5" y1="47.1875" y2="47.1875"/><ellipse cx="41.5" cy="58.1875" fill="#84BE84" rx="3" ry="3" style="stroke: #038048; stroke-width: 1.0;"/><text fill="#000000" font-family="sans-serif" font-size="11" font-style="italic" lengthAdjust="spacingAndGlyphs" textLength="135" x="50.5" y="62.6064">getIsRepeatable(): Boolean</text><ellipse cx="41.5" cy="72.0234" fill="#84BE84" rx="3" ry="3" style="stroke: #038048; stroke-width: 1.0;"/><text fill="#000000" font-family="sans-serif" font-size="11" font-style="italic" lengthAdjust="spacingAndGlyphs" textLength="155" x="50.5" y="76.4424">setIsRepeatable(Boolean): void</text><ellipse cx="41.5" cy="85.8594" fill="#84BE84" rx="3" ry="3" style="stroke: #038048; stroke-width: 1.0;"/><text fill="#000000" font-family="sans-serif" font-size="11" font-style="italic" lengthAdjust="spacingAndGlyphs" textLength="120" x="50.5" y="90.2783">getIsOngoing(): Boolean</text><ellipse cx="41.5" cy="99.6953" fill="#84BE84" rx="3" ry="3" style="stroke: #038048; stroke-width: 1.0;"/><text fill="#000000" font-family="sans-serif" font-size="11" font-style="italic" lengthAdjust="spacingAndGlyphs" textLength="140" x="50.5" y="104.1143">setIsOngoing(Boolean): void</text><ellipse cx="41.5" cy="113.5313" fill="#84BE84" rx="3" ry="3" style="stroke: #038048; stroke-width: 1.0;"/><text fill="#000000" font-family="sans-serif" font-size="11" font-style="italic" lengthAdjust="spacingAndGlyphs" textLength="137" x="50.5" y="117.9502">getIsEventDriven(): Boolean</text><ellipse cx="41.5" cy="127.3672" fill="#84BE84" rx="3" ry="3" style="stroke: #038048; stroke-width: 1.0;"/><text fill="#000000" font-family="sans-serif" font-size="11" font-style="italic" lengthAdjust="spacingAndGlyphs" textLength="157" x="50.5" y="131.7861">setIsEventDriven(Boolean): void</text><ellipse cx="41.5" cy="141.2031" fill="#84BE84" rx="3" ry="3" style="stroke: #038048; stroke-width: 1.0;"/><text fill="#000000" font-family="sans-serif" font-size="11" font-style="italic" lengthAdjust="spacingAndGlyphs" textLength="219" x="50.5" y="145.6221">getLinkToPredecessor(): EList&lt;WorkOrder&gt;</text></a><!--MD5=[35158823c293273bf2a985bf95324da1]
reverse link org.eclipse.epf.uma.WorkBreakdownElement to org.eclipse.epf.uma.Milestone--><path codeLine="19" d="M153,172.42 C153,186.57 153,200.26 153,211.7 " fill="none" id="org.eclipse.epf.uma.WorkBreakdownElement-backto-org.eclipse.epf.uma.Milestone" style="stroke: #A80036; stroke-width: 1.0;"/><polygon fill="none" points="146,172.28,153,152.28,160,172.28,146,172.28" style="stroke: #A80036; stroke-width: 1.0;"/><text fill="#888888" font-family="sans-serif" font-size="10" lengthAdjust="spacingAndGlyphs" textLength="190" x="55" y="297.4043">UMLDoclet 2.0.12, PlantUML 1.2020.16</text><!--MD5=[8eb64882e9e0eb20efedabe6bf0a97b5]
@startuml
    set namespaceSeparator none
    hide empty fields
    hide empty methods

    interface "<size:14>Milestone\n<size:10>org.eclipse.epf.uma" as org.eclipse.epf.uma.Milestone [[Milestone.html]] {
        {abstract} +getRequiredResults(): EList<WorkProductDescriptor>
    }

    interface "<size:14>WorkBreakdownElement\n<size:10>org.eclipse.epf.uma" as org.eclipse.epf.uma.WorkBreakdownElement [[WorkBreakdownElement.html]] {
        {abstract} +getIsRepeatable(): Boolean
        {abstract} +setIsRepeatable(Boolean): void
        {abstract} +getIsOngoing(): Boolean
        {abstract} +setIsOngoing(Boolean): void
        {abstract} +getIsEventDriven(): Boolean
        {abstract} +setIsEventDriven(Boolean): void
        {abstract} +getLinkToPredecessor(): EList<WorkOrder>
    }

    org.eclipse.epf.uma.WorkBreakdownElement <|- - org.eclipse.epf.uma.Milestone

    center footer UMLDoclet 2.0.12, PlantUML 1.2020.16
@enduml

PlantUML version 1.2020.16(Sun Aug 23 22:20:43 CEST 2020)
(APACHE source distribution)
Java Runtime: Java(TM) SE Runtime Environment
JVM: Java HotSpot(TM) 64-Bit Server VM
Default Encoding: Cp1252
Language: es
Country: ES
--></g></svg>