<?xml version="1.0" encoding="UTF-8" standalone="no"?><svg xmlns="http://www.w3.org/2000/svg" xmlns:xlink="http://www.w3.org/1999/xlink" contentScriptType="application/ecmascript" contentStyleType="text/css" height="248px" preserveAspectRatio="none" style="width:372px;height:248px;" version="1.1" viewBox="0 0 372 248" width="372px" zoomAndPan="magnify"><defs><filter height="300%" id="f1fkudihfnyibh" width="300%" x="-1" y="-1"><feGaussianBlur result="blurOut" stdDeviation="2.0"/><feColorMatrix in="blurOut" result="blurOut2" type="matrix" values="0 0 0 0 0 0 0 0 0 0 0 0 0 0 0 0 0 0 .4 0"/><feOffset dx="4.0" dy="4.0" in="blurOut2" result="blurOut3"/><feBlend in="SourceGraphic" in2="blurOut3" mode="normal"/></filter></defs><g><!--MD5=[7d5025e540b3454eed0d705b0af82c46]
class org.eclipse.epf.uma.Outcome--><a href="Outcome.html" target="_top" title="Outcome.html" xlink:actuate="onRequest" xlink:href="Outcome.html" xlink:show="new" xlink:title="Outcome.html" xlink:type="simple"><rect codeLine="5" fill="#FEFECE" filter="url(#f1fkudihfnyibh)" height="40.1875" id="org.eclipse.epf.uma.Outcome" style="stroke: #A80036; stroke-width: 1.5;" width="124" x="118" y="171"/><ellipse cx="133" cy="191.0938" fill="#B4A7E5" rx="11" ry="11" style="stroke: #A80036; stroke-width: 1.0;"/><path d="M133.9531,187.7344 L133.9531,194.3906 L135.6719,194.3906 Q136.2813,194.3906 136.5469,194.625 Q136.8125,194.8594 136.8125,195.25 Q136.8125,195.625 136.5469,195.8594 Q136.2813,196.0938 135.6719,196.0938 L130.5313,196.0938 Q129.9219,196.0938 129.6563,195.8594 Q129.3906,195.625 129.3906,195.2344 Q129.3906,194.8594 129.6563,194.625 Q129.9219,194.3906 130.5313,194.3906 L132.25,194.3906 L132.25,187.7344 L130.5313,187.7344 Q129.9219,187.7344 129.6563,187.5 Q129.3906,187.2656 129.3906,186.875 Q129.3906,186.5 129.6563,186.2656 Q129.9219,186.0313 130.5313,186.0313 L135.6719,186.0313 Q136.2813,186.0313 136.5469,186.2656 Q136.8125,186.5 136.8125,186.875 Q136.8125,187.2656 136.5469,187.5 Q136.2813,187.7344 135.6719,187.7344 L133.9531,187.7344 Z "/><text fill="#000000" font-family="sans-serif" font-size="14" font-style="italic" lengthAdjust="spacingAndGlyphs" textLength="57" x="164.5" y="190.5332">Outcome</text><text fill="#000000" font-family="sans-serif" font-size="10" font-style="italic" lengthAdjust="spacingAndGlyphs" textLength="92" x="147" y="203.9902">org.eclipse.epf.uma</text></a><!--MD5=[ea3ff2f0efb256b8a76238534cfa65f7]
class org.eclipse.epf.uma.WorkProduct--><a href="WorkProduct.html" target="_top" title="WorkProduct.html" xlink:actuate="onRequest" xlink:href="WorkProduct.html" xlink:show="new" xlink:title="WorkProduct.html" xlink:type="simple"><rect codeLine="7" fill="#FEFECE" filter="url(#f1fkudihfnyibh)" height="103.5313" id="org.eclipse.epf.uma.WorkProduct" style="stroke: #A80036; stroke-width: 1.5;" width="346" x="7" y="7"/><ellipse cx="129.75" cy="27.0938" fill="#B4A7E5" rx="11" ry="11" style="stroke: #A80036; stroke-width: 1.0;"/><path d="M130.7031,23.7344 L130.7031,30.3906 L132.4219,30.3906 Q133.0313,30.3906 133.2969,30.625 Q133.5625,30.8594 133.5625,31.25 Q133.5625,31.625 133.2969,31.8594 Q133.0313,32.0938 132.4219,32.0938 L127.2813,32.0938 Q126.6719,32.0938 126.4063,31.8594 Q126.1406,31.625 126.1406,31.2344 Q126.1406,30.8594 126.4063,30.625 Q126.6719,30.3906 127.2813,30.3906 L129,30.3906 L129,23.7344 L127.2813,23.7344 Q126.6719,23.7344 126.4063,23.5 Q126.1406,23.2656 126.1406,22.875 Q126.1406,22.5 126.4063,22.2656 Q126.6719,22.0313 127.2813,22.0313 L132.4219,22.0313 Q133.0313,22.0313 133.2969,22.2656 Q133.5625,22.5 133.5625,22.875 Q133.5625,23.2656 133.2969,23.5 Q133.0313,23.7344 132.4219,23.7344 L130.7031,23.7344 Z "/><text fill="#000000" font-family="sans-serif" font-size="14" font-style="italic" lengthAdjust="spacingAndGlyphs" textLength="84" x="154.25" y="26.5332">WorkProduct</text><text fill="#000000" font-family="sans-serif" font-size="10" font-style="italic" lengthAdjust="spacingAndGlyphs" textLength="92" x="150.25" y="39.9902">org.eclipse.epf.uma</text><line style="stroke: #A80036; stroke-width: 1.5;" x1="8" x2="352" y1="47.1875" y2="47.1875"/><ellipse cx="18" cy="58.1875" fill="#84BE84" rx="3" ry="3" style="stroke: #038048; stroke-width: 1.0;"/><text fill="#000000" font-family="sans-serif" font-size="11" font-style="italic" lengthAdjust="spacingAndGlyphs" textLength="138" x="27" y="62.6064">getReports(): EList&lt;Report&gt;</text><ellipse cx="18" cy="72.0234" fill="#84BE84" rx="3" ry="3" style="stroke: #038048; stroke-width: 1.0;"/><text fill="#000000" font-family="sans-serif" font-size="11" font-style="italic" lengthAdjust="spacingAndGlyphs" textLength="164" x="27" y="76.4424">getTemplates(): EList&lt;Template&gt;</text><ellipse cx="18" cy="85.8594" fill="#84BE84" rx="3" ry="3" style="stroke: #038048; stroke-width: 1.0;"/><text fill="#000000" font-family="sans-serif" font-size="11" font-style="italic" lengthAdjust="spacingAndGlyphs" textLength="184" x="27" y="90.2783">getToolMentors(): EList&lt;ToolMentor&gt;</text><ellipse cx="18" cy="99.6953" fill="#84BE84" rx="3" ry="3" style="stroke: #038048; stroke-width: 1.0;"/><text fill="#000000" font-family="sans-serif" font-size="11" font-style="italic" lengthAdjust="spacingAndGlyphs" textLength="320" x="27" y="104.1143">getEstimationConsiderations(): EList&lt;EstimationConsiderations&gt;</text></a><!--MD5=[2b39779925652efa4736adcf36b33989]
reverse link org.eclipse.epf.uma.WorkProduct to org.eclipse.epf.uma.Outcome--><path codeLine="14" d="M180,131.06 C180,145.79 180,160.1 180,170.93 " fill="none" id="org.eclipse.epf.uma.WorkProduct-backto-org.eclipse.epf.uma.Outcome" style="stroke: #A80036; stroke-width: 1.0;"/><polygon fill="none" points="173,131.01,180,111.01,187,131.01,173,131.01" style="stroke: #A80036; stroke-width: 1.0;"/><text fill="#888888" font-family="sans-serif" font-size="10" lengthAdjust="spacingAndGlyphs" textLength="190" x="82" y="234.5684">UMLDoclet 2.0.12, PlantUML 1.2020.16</text><!--MD5=[f67881baf90d37b0dec73ab04b308db5]
@startuml
    set namespaceSeparator none
    hide empty fields
    hide empty methods

    interface "<size:14>Outcome\n<size:10>org.eclipse.epf.uma" as org.eclipse.epf.uma.Outcome [[Outcome.html]]

    interface "<size:14>WorkProduct\n<size:10>org.eclipse.epf.uma" as org.eclipse.epf.uma.WorkProduct [[WorkProduct.html]] {
        {abstract} +getReports(): EList<Report>
        {abstract} +getTemplates(): EList<Template>
        {abstract} +getToolMentors(): EList<ToolMentor>
        {abstract} +getEstimationConsiderations(): EList<EstimationConsiderations>
    }

    org.eclipse.epf.uma.WorkProduct <|- - org.eclipse.epf.uma.Outcome

    center footer UMLDoclet 2.0.12, PlantUML 1.2020.16
@enduml

PlantUML version 1.2020.16(Sun Aug 23 22:20:43 CEST 2020)
(APACHE source distribution)
Java Runtime: Java(TM) SE Runtime Environment
JVM: Java HotSpot(TM) 64-Bit Server VM
Default Encoding: Cp1252
Language: es
Country: ES
--></g></svg>