<?xml version="1.0" encoding="UTF-8" standalone="no"?><svg xmlns="http://www.w3.org/2000/svg" xmlns:xlink="http://www.w3.org/1999/xlink" contentScriptType="application/ecmascript" contentStyleType="text/css" height="220px" preserveAspectRatio="none" style="width:202px;height:220px;" version="1.1" viewBox="0 0 202 220" width="202px" zoomAndPan="magnify"><defs><filter height="300%" id="f1g3z8oob7ney2" width="300%" x="-1" y="-1"><feGaussianBlur result="blurOut" stdDeviation="2.0"/><feColorMatrix in="blurOut" result="blurOut2" type="matrix" values="0 0 0 0 0 0 0 0 0 0 0 0 0 0 0 0 0 0 .4 0"/><feOffset dx="4.0" dy="4.0" in="blurOut2" result="blurOut3"/><feBlend in="SourceGraphic" in2="blurOut3" mode="normal"/></filter></defs><g><!--MD5=[7e71af605c2be934f9beeddf0fc62558]
class org.eclipse.epf.uma.PackageableElement--><a href="PackageableElement.html" target="_top" title="PackageableElement.html" xlink:actuate="onRequest" xlink:href="PackageableElement.html" xlink:show="new" xlink:title="PackageableElement.html" xlink:type="simple"><rect codeLine="5" fill="#FEFECE" filter="url(#f1g3z8oob7ney2)" height="40.1875" id="org.eclipse.epf.uma.PackageableElement" style="stroke: #A80036; stroke-width: 1.5;" width="166" x="15" y="143"/><ellipse cx="30" cy="163.0938" fill="#B4A7E5" rx="11" ry="11" style="stroke: #A80036; stroke-width: 1.0;"/><path d="M30.9531,159.7344 L30.9531,166.3906 L32.6719,166.3906 Q33.2813,166.3906 33.5469,166.625 Q33.8125,166.8594 33.8125,167.25 Q33.8125,167.625 33.5469,167.8594 Q33.2813,168.0938 32.6719,168.0938 L27.5313,168.0938 Q26.9219,168.0938 26.6563,167.8594 Q26.3906,167.625 26.3906,167.2344 Q26.3906,166.8594 26.6563,166.625 Q26.9219,166.3906 27.5313,166.3906 L29.25,166.3906 L29.25,159.7344 L27.5313,159.7344 Q26.9219,159.7344 26.6563,159.5 Q26.3906,159.2656 26.3906,158.875 Q26.3906,158.5 26.6563,158.2656 Q26.9219,158.0313 27.5313,158.0313 L32.6719,158.0313 Q33.2813,158.0313 33.5469,158.2656 Q33.8125,158.5 33.8125,158.875 Q33.8125,159.2656 33.5469,159.5 Q33.2813,159.7344 32.6719,159.7344 L30.9531,159.7344 Z "/><text fill="#000000" font-family="sans-serif" font-size="14" font-style="italic" lengthAdjust="spacingAndGlyphs" textLength="134" x="44" y="162.5332">PackageableElement</text><text fill="#000000" font-family="sans-serif" font-size="10" font-style="italic" lengthAdjust="spacingAndGlyphs" textLength="92" x="65" y="175.9902">org.eclipse.epf.uma</text></a><!--MD5=[79815c968b5df8a155e027262ce4a1dd]
class org.eclipse.epf.uma.NamedElement--><a href="NamedElement.html" target="_top" title="NamedElement.html" xlink:actuate="onRequest" xlink:href="NamedElement.html" xlink:show="new" xlink:title="NamedElement.html" xlink:type="simple"><rect codeLine="7" fill="#FEFECE" filter="url(#f1g3z8oob7ney2)" height="75.8594" id="org.eclipse.epf.uma.NamedElement" style="stroke: #A80036; stroke-width: 1.5;" width="133" x="31.5" y="7"/><ellipse cx="48.75" cy="27.0938" fill="#B4A7E5" rx="11" ry="11" style="stroke: #A80036; stroke-width: 1.0;"/><path d="M49.7031,23.7344 L49.7031,30.3906 L51.4219,30.3906 Q52.0313,30.3906 52.2969,30.625 Q52.5625,30.8594 52.5625,31.25 Q52.5625,31.625 52.2969,31.8594 Q52.0313,32.0938 51.4219,32.0938 L46.2813,32.0938 Q45.6719,32.0938 45.4063,31.8594 Q45.1406,31.625 45.1406,31.2344 Q45.1406,30.8594 45.4063,30.625 Q45.6719,30.3906 46.2813,30.3906 L48,30.3906 L48,23.7344 L46.2813,23.7344 Q45.6719,23.7344 45.4063,23.5 Q45.1406,23.2656 45.1406,22.875 Q45.1406,22.5 45.4063,22.2656 Q45.6719,22.0313 46.2813,22.0313 L51.4219,22.0313 Q52.0313,22.0313 52.2969,22.2656 Q52.5625,22.5 52.5625,22.875 Q52.5625,23.2656 52.2969,23.5 Q52.0313,23.7344 51.4219,23.7344 L49.7031,23.7344 Z "/><text fill="#000000" font-family="sans-serif" font-size="14" font-style="italic" lengthAdjust="spacingAndGlyphs" textLength="96" x="63.25" y="26.5332">NamedElement</text><text fill="#000000" font-family="sans-serif" font-size="10" font-style="italic" lengthAdjust="spacingAndGlyphs" textLength="92" x="65.25" y="39.9902">org.eclipse.epf.uma</text><line style="stroke: #A80036; stroke-width: 1.5;" x1="32.5" x2="163.5" y1="47.1875" y2="47.1875"/><ellipse cx="42.5" cy="58.1875" fill="#84BE84" rx="3" ry="3" style="stroke: #038048; stroke-width: 1.0;"/><text fill="#000000" font-family="sans-serif" font-size="11" font-style="italic" lengthAdjust="spacingAndGlyphs" textLength="87" x="51.5" y="62.6064">getName(): String</text><ellipse cx="42.5" cy="72.0234" fill="#84BE84" rx="3" ry="3" style="stroke: #038048; stroke-width: 1.0;"/><text fill="#000000" font-family="sans-serif" font-size="11" font-style="italic" lengthAdjust="spacingAndGlyphs" textLength="107" x="51.5" y="76.4424">setName(String): void</text></a><!--MD5=[51bc837145e619c4d2e18d7d75aefe8b]
reverse link org.eclipse.epf.uma.NamedElement to org.eclipse.epf.uma.PackageableElement--><path codeLine="12" d="M98,103.43 C98,117.66 98,131.93 98,142.82 " fill="none" id="org.eclipse.epf.uma.NamedElement-backto-org.eclipse.epf.uma.PackageableElement" style="stroke: #A80036; stroke-width: 1.0;"/><polygon fill="none" points="91,103.02,98,83.02,105,103.02,91,103.02" style="stroke: #A80036; stroke-width: 1.0;"/><text fill="#888888" font-family="sans-serif" font-size="10" lengthAdjust="spacingAndGlyphs" textLength="190" x="0" y="206.5684">UMLDoclet 2.0.12, PlantUML 1.2020.16</text><!--MD5=[723d527534811f7cc28036eeb67a8933]
@startuml
    set namespaceSeparator none
    hide empty fields
    hide empty methods

    interface "<size:14>PackageableElement\n<size:10>org.eclipse.epf.uma" as org.eclipse.epf.uma.PackageableElement [[PackageableElement.html]]

    interface "<size:14>NamedElement\n<size:10>org.eclipse.epf.uma" as org.eclipse.epf.uma.NamedElement [[NamedElement.html]] {
        {abstract} +getName(): String
        {abstract} +setName(String): void
    }

    org.eclipse.epf.uma.NamedElement <|- - org.eclipse.epf.uma.PackageableElement

    center footer UMLDoclet 2.0.12, PlantUML 1.2020.16
@enduml

PlantUML version 1.2020.16(Sun Aug 23 22:20:43 CEST 2020)
(APACHE source distribution)
Java Runtime: Java(TM) SE Runtime Environment
JVM: Java HotSpot(TM) 64-Bit Server VM
Default Encoding: Cp1252
Language: es
Country: ES
--></g></svg>