<?xml version="1.0" encoding="UTF-8" standalone="no"?><svg xmlns="http://www.w3.org/2000/svg" xmlns:xlink="http://www.w3.org/1999/xlink" contentScriptType="application/ecmascript" contentStyleType="text/css" height="184px" preserveAspectRatio="none" style="width:351px;height:184px;" version="1.1" viewBox="0 0 351 184" width="351px" zoomAndPan="magnify"><defs><filter height="300%" id="f1pv82w1fl7l4v" width="300%" x="-1" y="-1"><feGaussianBlur result="blurOut" stdDeviation="2.0"/><feColorMatrix in="blurOut" result="blurOut2" type="matrix" values="0 0 0 0 0 0 0 0 0 0 0 0 0 0 0 0 0 0 .4 0"/><feOffset dx="4.0" dy="4.0" in="blurOut2" result="blurOut3"/><feBlend in="SourceGraphic" in2="blurOut3" mode="normal"/></filter></defs><g><!--MD5=[a0e9c515caa6ec8e13b5700eec708f50]
class org.eclipse.epf.uma.Package--><a href="Package.html" target="_top" title="Package.html" xlink:actuate="onRequest" xlink:href="Package.html" xlink:show="new" xlink:title="Package.html" xlink:type="simple"><rect codeLine="5" fill="#FEFECE" filter="url(#f1pv82w1fl7l4v)" height="40.1875" id="org.eclipse.epf.uma.Package" style="stroke: #A80036; stroke-width: 1.5;" width="124" x="97" y="107"/><ellipse cx="112" cy="127.0938" fill="#B4A7E5" rx="11" ry="11" style="stroke: #A80036; stroke-width: 1.0;"/><path d="M112.9531,123.7344 L112.9531,130.3906 L114.6719,130.3906 Q115.2813,130.3906 115.5469,130.625 Q115.8125,130.8594 115.8125,131.25 Q115.8125,131.625 115.5469,131.8594 Q115.2813,132.0938 114.6719,132.0938 L109.5313,132.0938 Q108.9219,132.0938 108.6563,131.8594 Q108.3906,131.625 108.3906,131.2344 Q108.3906,130.8594 108.6563,130.625 Q108.9219,130.3906 109.5313,130.3906 L111.25,130.3906 L111.25,123.7344 L109.5313,123.7344 Q108.9219,123.7344 108.6563,123.5 Q108.3906,123.2656 108.3906,122.875 Q108.3906,122.5 108.6563,122.2656 Q108.9219,122.0313 109.5313,122.0313 L114.6719,122.0313 Q115.2813,122.0313 115.5469,122.2656 Q115.8125,122.5 115.8125,122.875 Q115.8125,123.2656 115.5469,123.5 Q115.2813,123.7344 114.6719,123.7344 L112.9531,123.7344 Z "/><text fill="#000000" font-family="sans-serif" font-size="14" font-style="italic" lengthAdjust="spacingAndGlyphs" textLength="56" x="144" y="126.5332">Package</text><text fill="#000000" font-family="sans-serif" font-size="10" font-style="italic" lengthAdjust="spacingAndGlyphs" textLength="92" x="126" y="139.9902">org.eclipse.epf.uma</text></a><!--MD5=[351f169ca0072b7540947d0eb28d1e29]
class org.eclipse.epf.uma.Namespace--><a href="Namespace.html" target="_top" title="Namespace.html" xlink:actuate="onRequest" xlink:href="Namespace.html" xlink:show="new" xlink:title="Namespace.html" xlink:type="simple"><rect codeLine="7" fill="#FEFECE" filter="url(#f1pv82w1fl7l4v)" height="40.1875" id="org.eclipse.epf.uma.Namespace" style="stroke: #A80036; stroke-width: 1.5;" width="124" x="7" y="7"/><ellipse cx="22" cy="27.0938" fill="#B4A7E5" rx="11" ry="11" style="stroke: #A80036; stroke-width: 1.0;"/><path d="M22.9531,23.7344 L22.9531,30.3906 L24.6719,30.3906 Q25.2813,30.3906 25.5469,30.625 Q25.8125,30.8594 25.8125,31.25 Q25.8125,31.625 25.5469,31.8594 Q25.2813,32.0938 24.6719,32.0938 L19.5313,32.0938 Q18.9219,32.0938 18.6563,31.8594 Q18.3906,31.625 18.3906,31.2344 Q18.3906,30.8594 18.6563,30.625 Q18.9219,30.3906 19.5313,30.3906 L21.25,30.3906 L21.25,23.7344 L19.5313,23.7344 Q18.9219,23.7344 18.6563,23.5 Q18.3906,23.2656 18.3906,22.875 Q18.3906,22.5 18.6563,22.2656 Q18.9219,22.0313 19.5313,22.0313 L24.6719,22.0313 Q25.2813,22.0313 25.5469,22.2656 Q25.8125,22.5 25.8125,22.875 Q25.8125,23.2656 25.5469,23.5 Q25.2813,23.7344 24.6719,23.7344 L22.9531,23.7344 Z "/><text fill="#000000" font-family="sans-serif" font-size="14" font-style="italic" lengthAdjust="spacingAndGlyphs" textLength="75" x="44.5" y="26.5332">Namespace</text><text fill="#000000" font-family="sans-serif" font-size="10" font-style="italic" lengthAdjust="spacingAndGlyphs" textLength="92" x="36" y="39.9902">org.eclipse.epf.uma</text></a><!--MD5=[7e71af605c2be934f9beeddf0fc62558]
class org.eclipse.epf.uma.PackageableElement--><a href="PackageableElement.html" target="_top" title="PackageableElement.html" xlink:actuate="onRequest" xlink:href="PackageableElement.html" xlink:show="new" xlink:title="PackageableElement.html" xlink:type="simple"><rect codeLine="8" fill="#FEFECE" filter="url(#f1pv82w1fl7l4v)" height="40.1875" id="org.eclipse.epf.uma.PackageableElement" style="stroke: #A80036; stroke-width: 1.5;" width="166" x="166" y="7"/><ellipse cx="181" cy="27.0938" fill="#B4A7E5" rx="11" ry="11" style="stroke: #A80036; stroke-width: 1.0;"/><path d="M181.9531,23.7344 L181.9531,30.3906 L183.6719,30.3906 Q184.2813,30.3906 184.5469,30.625 Q184.8125,30.8594 184.8125,31.25 Q184.8125,31.625 184.5469,31.8594 Q184.2813,32.0938 183.6719,32.0938 L178.5313,32.0938 Q177.9219,32.0938 177.6563,31.8594 Q177.3906,31.625 177.3906,31.2344 Q177.3906,30.8594 177.6563,30.625 Q177.9219,30.3906 178.5313,30.3906 L180.25,30.3906 L180.25,23.7344 L178.5313,23.7344 Q177.9219,23.7344 177.6563,23.5 Q177.3906,23.2656 177.3906,22.875 Q177.3906,22.5 177.6563,22.2656 Q177.9219,22.0313 178.5313,22.0313 L183.6719,22.0313 Q184.2813,22.0313 184.5469,22.2656 Q184.8125,22.5 184.8125,22.875 Q184.8125,23.2656 184.5469,23.5 Q184.2813,23.7344 183.6719,23.7344 L181.9531,23.7344 Z "/><text fill="#000000" font-family="sans-serif" font-size="14" font-style="italic" lengthAdjust="spacingAndGlyphs" textLength="134" x="195" y="26.5332">PackageableElement</text><text fill="#000000" font-family="sans-serif" font-size="10" font-style="italic" lengthAdjust="spacingAndGlyphs" textLength="92" x="216" y="39.9902">org.eclipse.epf.uma</text></a><!--MD5=[71dc07af00026677de569802578ea2a0]
reverse link org.eclipse.epf.uma.Namespace to org.eclipse.epf.uma.Package--><path codeLine="10" d="M100.6,62.41 C114.24,77.26 129.68,94.07 141.26,106.68 " fill="none" id="org.eclipse.epf.uma.Namespace-backto-org.eclipse.epf.uma.Package" style="stroke: #A80036; stroke-width: 1.0;"/><polygon fill="none" points="95.15,66.83,86.78,47.36,105.46,57.36,95.15,66.83" style="stroke: #A80036; stroke-width: 1.0;"/><!--MD5=[662b47331bb528f1ec0fa4bdf19af259]
reverse link org.eclipse.epf.uma.PackageableElement to org.eclipse.epf.uma.Package--><path codeLine="11" d="M217.4,62.41 C203.76,77.26 188.32,94.07 176.74,106.68 " fill="none" id="org.eclipse.epf.uma.PackageableElement-backto-org.eclipse.epf.uma.Package" style="stroke: #A80036; stroke-width: 1.0;"/><polygon fill="none" points="212.54,57.36,231.22,47.36,222.85,66.83,212.54,57.36" style="stroke: #A80036; stroke-width: 1.0;"/><text fill="#888888" font-family="sans-serif" font-size="10" lengthAdjust="spacingAndGlyphs" textLength="190" x="71.5" y="170.5684">UMLDoclet 2.0.12, PlantUML 1.2020.16</text><!--MD5=[37a365752a90cb325d35595117a6fc0f]
@startuml
    set namespaceSeparator none
    hide empty fields
    hide empty methods

    interface "<size:14>Package\n<size:10>org.eclipse.epf.uma" as org.eclipse.epf.uma.Package [[Package.html]]

    interface "<size:14>Namespace\n<size:10>org.eclipse.epf.uma" as org.eclipse.epf.uma.Namespace [[Namespace.html]]
    interface "<size:14>PackageableElement\n<size:10>org.eclipse.epf.uma" as org.eclipse.epf.uma.PackageableElement [[PackageableElement.html]]

    org.eclipse.epf.uma.Namespace <|- - org.eclipse.epf.uma.Package
    org.eclipse.epf.uma.PackageableElement <|- - org.eclipse.epf.uma.Package

    center footer UMLDoclet 2.0.12, PlantUML 1.2020.16
@enduml

PlantUML version 1.2020.16(Sun Aug 23 22:20:43 CEST 2020)
(APACHE source distribution)
Java Runtime: Java(TM) SE Runtime Environment
JVM: Java HotSpot(TM) 64-Bit Server VM
Default Encoding: Cp1252
Language: es
Country: ES
--></g></svg>