<?xml version="1.0" encoding="UTF-8" standalone="no"?><svg xmlns="http://www.w3.org/2000/svg" xmlns:xlink="http://www.w3.org/1999/xlink" contentScriptType="application/ecmascript" contentStyleType="text/css" height="275px" preserveAspectRatio="none" style="width:202px;height:275px;" version="1.1" viewBox="0 0 202 275" width="202px" zoomAndPan="magnify"><defs><filter height="300%" id="fluuhdb6gdwii" width="300%" x="-1" y="-1"><feGaussianBlur result="blurOut" stdDeviation="2.0"/><feColorMatrix in="blurOut" result="blurOut2" type="matrix" values="0 0 0 0 0 0 0 0 0 0 0 0 0 0 0 0 0 0 .4 0"/><feOffset dx="4.0" dy="4.0" in="blurOut2" result="blurOut3"/><feBlend in="SourceGraphic" in2="blurOut3" mode="normal"/></filter></defs><g><!--MD5=[e20b888b79f97f78703f4fb915a5c6c9]
class org.eclipse.epf.uma.PlanningData--><a href="PlanningData.html" target="_top" title="PlanningData.html" xlink:actuate="onRequest" xlink:href="PlanningData.html" xlink:show="new" xlink:title="PlanningData.html" xlink:type="simple"><rect codeLine="5" fill="#FEFECE" filter="url(#fluuhdb6gdwii)" height="131.2031" id="org.eclipse.epf.uma.PlanningData" style="stroke: #A80036; stroke-width: 1.5;" width="152" x="22" y="107"/><ellipse cx="49.6" cy="127.0938" fill="#B4A7E5" rx="11" ry="11" style="stroke: #A80036; stroke-width: 1.0;"/><path d="M50.5531,123.7344 L50.5531,130.3906 L52.2719,130.3906 Q52.8813,130.3906 53.1469,130.625 Q53.4125,130.8594 53.4125,131.25 Q53.4125,131.625 53.1469,131.8594 Q52.8813,132.0938 52.2719,132.0938 L47.1313,132.0938 Q46.5219,132.0938 46.2563,131.8594 Q45.9906,131.625 45.9906,131.2344 Q45.9906,130.8594 46.2563,130.625 Q46.5219,130.3906 47.1313,130.3906 L48.85,130.3906 L48.85,123.7344 L47.1313,123.7344 Q46.5219,123.7344 46.2563,123.5 Q45.9906,123.2656 45.9906,122.875 Q45.9906,122.5 46.2563,122.2656 Q46.5219,122.0313 47.1313,122.0313 L52.2719,122.0313 Q52.8813,122.0313 53.1469,122.2656 Q53.4125,122.5 53.4125,122.875 Q53.4125,123.2656 53.1469,123.5 Q52.8813,123.7344 52.2719,123.7344 L50.5531,123.7344 Z "/><text fill="#000000" font-family="sans-serif" font-size="14" font-style="italic" lengthAdjust="spacingAndGlyphs" textLength="85" x="69.9" y="126.5332">PlanningData</text><text fill="#000000" font-family="sans-serif" font-size="10" font-style="italic" lengthAdjust="spacingAndGlyphs" textLength="92" x="66.4" y="139.9902">org.eclipse.epf.uma</text><line style="stroke: #A80036; stroke-width: 1.5;" x1="23" x2="173" y1="147.1875" y2="147.1875"/><ellipse cx="33" cy="158.1875" fill="#84BE84" rx="3" ry="3" style="stroke: #038048; stroke-width: 1.0;"/><text fill="#000000" font-family="sans-serif" font-size="11" font-style="italic" lengthAdjust="spacingAndGlyphs" textLength="98" x="42" y="162.6064">getStartDate(): Date</text><ellipse cx="33" cy="172.0234" fill="#84BE84" rx="3" ry="3" style="stroke: #038048; stroke-width: 1.0;"/><text fill="#000000" font-family="sans-serif" font-size="11" font-style="italic" lengthAdjust="spacingAndGlyphs" textLength="118" x="42" y="176.4424">setStartDate(Date): void</text><ellipse cx="33" cy="185.8594" fill="#84BE84" rx="3" ry="3" style="stroke: #038048; stroke-width: 1.0;"/><text fill="#000000" font-family="sans-serif" font-size="11" font-style="italic" lengthAdjust="spacingAndGlyphs" textLength="106" x="42" y="190.2783">getFinishDate(): Date</text><ellipse cx="33" cy="199.6953" fill="#84BE84" rx="3" ry="3" style="stroke: #038048; stroke-width: 1.0;"/><text fill="#000000" font-family="sans-serif" font-size="11" font-style="italic" lengthAdjust="spacingAndGlyphs" textLength="126" x="42" y="204.1143">setFinishDate(Date): void</text><ellipse cx="33" cy="213.5313" fill="#84BE84" rx="3" ry="3" style="stroke: #038048; stroke-width: 1.0;"/><text fill="#000000" font-family="sans-serif" font-size="11" font-style="italic" lengthAdjust="spacingAndGlyphs" textLength="67" x="42" y="217.9502">getRank(): int</text><ellipse cx="33" cy="227.3672" fill="#84BE84" rx="3" ry="3" style="stroke: #038048; stroke-width: 1.0;"/><text fill="#000000" font-family="sans-serif" font-size="11" font-style="italic" lengthAdjust="spacingAndGlyphs" textLength="87" x="42" y="231.7861">setRank(int): void</text></a><!--MD5=[639d29844b240ded2a28a02d67e09f6d]
class org.eclipse.epf.uma.ProcessElement--><a href="ProcessElement.html" target="_top" title="ProcessElement.html" xlink:actuate="onRequest" xlink:href="ProcessElement.html" xlink:show="new" xlink:title="ProcessElement.html" xlink:type="simple"><rect codeLine="14" fill="#FEFECE" filter="url(#fluuhdb6gdwii)" height="40.1875" id="org.eclipse.epf.uma.ProcessElement" style="stroke: #A80036; stroke-width: 1.5;" width="134" x="31" y="7"/><ellipse cx="46" cy="27.0938" fill="#B4A7E5" rx="11" ry="11" style="stroke: #A80036; stroke-width: 1.0;"/><path d="M46.9531,23.7344 L46.9531,30.3906 L48.6719,30.3906 Q49.2813,30.3906 49.5469,30.625 Q49.8125,30.8594 49.8125,31.25 Q49.8125,31.625 49.5469,31.8594 Q49.2813,32.0938 48.6719,32.0938 L43.5313,32.0938 Q42.9219,32.0938 42.6563,31.8594 Q42.3906,31.625 42.3906,31.2344 Q42.3906,30.8594 42.6563,30.625 Q42.9219,30.3906 43.5313,30.3906 L45.25,30.3906 L45.25,23.7344 L43.5313,23.7344 Q42.9219,23.7344 42.6563,23.5 Q42.3906,23.2656 42.3906,22.875 Q42.3906,22.5 42.6563,22.2656 Q42.9219,22.0313 43.5313,22.0313 L48.6719,22.0313 Q49.2813,22.0313 49.5469,22.2656 Q49.8125,22.5 49.8125,22.875 Q49.8125,23.2656 49.5469,23.5 Q49.2813,23.7344 48.6719,23.7344 L46.9531,23.7344 Z "/><text fill="#000000" font-family="sans-serif" font-size="14" font-style="italic" lengthAdjust="spacingAndGlyphs" textLength="102" x="60" y="26.5332">ProcessElement</text><text fill="#000000" font-family="sans-serif" font-size="10" font-style="italic" lengthAdjust="spacingAndGlyphs" textLength="92" x="65" y="39.9902">org.eclipse.epf.uma</text></a><!--MD5=[1335110ec73b783cb1383a8820d2c8d2]
reverse link org.eclipse.epf.uma.ProcessElement to org.eclipse.epf.uma.PlanningData--><path codeLine="16" d="M98,67.46 C98,79.65 98,93.4 98,106.82 " fill="none" id="org.eclipse.epf.uma.ProcessElement-backto-org.eclipse.epf.uma.PlanningData" style="stroke: #A80036; stroke-width: 1.0;"/><polygon fill="none" points="91,67.06,98,47.06,105,67.06,91,67.06" style="stroke: #A80036; stroke-width: 1.0;"/><text fill="#888888" font-family="sans-serif" font-size="10" lengthAdjust="spacingAndGlyphs" textLength="190" x="0" y="261.584">UMLDoclet 2.0.12, PlantUML 1.2020.16</text><!--MD5=[b3736b76f274630ee6c3b78937b1432a]
@startuml
    set namespaceSeparator none
    hide empty fields
    hide empty methods

    interface "<size:14>PlanningData\n<size:10>org.eclipse.epf.uma" as org.eclipse.epf.uma.PlanningData [[PlanningData.html]] {
        {abstract} +getStartDate(): Date
        {abstract} +setStartDate(Date): void
        {abstract} +getFinishDate(): Date
        {abstract} +setFinishDate(Date): void
        {abstract} +getRank(): int
        {abstract} +setRank(int): void
    }

    interface "<size:14>ProcessElement\n<size:10>org.eclipse.epf.uma" as org.eclipse.epf.uma.ProcessElement [[ProcessElement.html]]

    org.eclipse.epf.uma.ProcessElement <|- - org.eclipse.epf.uma.PlanningData

    center footer UMLDoclet 2.0.12, PlantUML 1.2020.16
@enduml

PlantUML version 1.2020.16(Sun Aug 23 22:20:43 CEST 2020)
(APACHE source distribution)
Java Runtime: Java(TM) SE Runtime Environment
JVM: Java HotSpot(TM) 64-Bit Server VM
Default Encoding: Cp1252
Language: es
Country: ES
--></g></svg>