<?xml version="1.0" encoding="UTF-8" standalone="no"?><svg xmlns="http://www.w3.org/2000/svg" xmlns:xlink="http://www.w3.org/1999/xlink" contentScriptType="application/ecmascript" contentStyleType="text/css" height="463px" preserveAspectRatio="none" style="width:263px;height:463px;" version="1.1" viewBox="0 0 263 463" width="263px" zoomAndPan="magnify"><defs><filter height="300%" id="fh7do9pij3by6" width="300%" x="-1" y="-1"><feGaussianBlur result="blurOut" stdDeviation="2.0"/><feColorMatrix in="blurOut" result="blurOut2" type="matrix" values="0 0 0 0 0 0 0 0 0 0 0 0 0 0 0 0 0 0 .4 0"/><feOffset dx="4.0" dy="4.0" in="blurOut2" result="blurOut3"/><feBlend in="SourceGraphic" in2="blurOut3" mode="normal"/></filter></defs><g><!--MD5=[83ec0ce65e0d580e959398d6919c6e02]
class org.eclipse.epf.uma.Point--><a href="Point.html" target="_top" title="Point.html" xlink:actuate="onRequest" xlink:href="Point.html" xlink:show="new" xlink:title="Point.html" xlink:type="simple"><rect codeLine="5" fill="#FEFECE" filter="url(#fh7do9pij3by6)" height="103.5313" id="org.eclipse.epf.uma.Point" style="stroke: #A80036; stroke-width: 1.5;" width="124" x="63.5" y="323"/><ellipse cx="78.5" cy="343.0938" fill="#B4A7E5" rx="11" ry="11" style="stroke: #A80036; stroke-width: 1.0;"/><path d="M79.4531,339.7344 L79.4531,346.3906 L81.1719,346.3906 Q81.7813,346.3906 82.0469,346.625 Q82.3125,346.8594 82.3125,347.25 Q82.3125,347.625 82.0469,347.8594 Q81.7813,348.0938 81.1719,348.0938 L76.0313,348.0938 Q75.4219,348.0938 75.1563,347.8594 Q74.8906,347.625 74.8906,347.2344 Q74.8906,346.8594 75.1563,346.625 Q75.4219,346.3906 76.0313,346.3906 L77.75,346.3906 L77.75,339.7344 L76.0313,339.7344 Q75.4219,339.7344 75.1563,339.5 Q74.8906,339.2656 74.8906,338.875 Q74.8906,338.5 75.1563,338.2656 Q75.4219,338.0313 76.0313,338.0313 L81.1719,338.0313 Q81.7813,338.0313 82.0469,338.2656 Q82.3125,338.5 82.3125,338.875 Q82.3125,339.2656 82.0469,339.5 Q81.7813,339.7344 81.1719,339.7344 L79.4531,339.7344 Z "/><text fill="#000000" font-family="sans-serif" font-size="14" font-style="italic" lengthAdjust="spacingAndGlyphs" textLength="32" x="122.5" y="342.5332">Point</text><text fill="#000000" font-family="sans-serif" font-size="10" font-style="italic" lengthAdjust="spacingAndGlyphs" textLength="92" x="92.5" y="355.9902">org.eclipse.epf.uma</text><line style="stroke: #A80036; stroke-width: 1.5;" x1="64.5" x2="186.5" y1="363.1875" y2="363.1875"/><ellipse cx="74.5" cy="374.1875" fill="#84BE84" rx="3" ry="3" style="stroke: #038048; stroke-width: 1.0;"/><text fill="#000000" font-family="sans-serif" font-size="11" font-style="italic" lengthAdjust="spacingAndGlyphs" textLength="72" x="83.5" y="378.6064">getX(): Double</text><ellipse cx="74.5" cy="388.0234" fill="#84BE84" rx="3" ry="3" style="stroke: #038048; stroke-width: 1.0;"/><text fill="#000000" font-family="sans-serif" font-size="11" font-style="italic" lengthAdjust="spacingAndGlyphs" textLength="92" x="83.5" y="392.4424">setX(Double): void</text><ellipse cx="74.5" cy="401.8594" fill="#84BE84" rx="3" ry="3" style="stroke: #038048; stroke-width: 1.0;"/><text fill="#000000" font-family="sans-serif" font-size="11" font-style="italic" lengthAdjust="spacingAndGlyphs" textLength="72" x="83.5" y="406.2783">getY(): Double</text><ellipse cx="74.5" cy="415.6953" fill="#84BE84" rx="3" ry="3" style="stroke: #038048; stroke-width: 1.0;"/><text fill="#000000" font-family="sans-serif" font-size="11" font-style="italic" lengthAdjust="spacingAndGlyphs" textLength="92" x="83.5" y="420.1143">setY(Double): void</text></a><!--MD5=[ebc58949f6a5bdc7ef9423c1c1804007]
class org.eclipse.emf.ecore.EObject--><rect codeLine="12" fill="#FEFECE" filter="url(#fh7do9pij3by6)" height="255.7266" id="org.eclipse.emf.ecore.EObject" style="stroke: #A80036; stroke-width: 1.5;" width="237" x="7" y="7"/><ellipse cx="71.25" cy="27.0938" fill="#B4A7E5" rx="11" ry="11" style="stroke: #A80036; stroke-width: 1.0;"/><path d="M72.2031,23.7344 L72.2031,30.3906 L73.9219,30.3906 Q74.5313,30.3906 74.7969,30.625 Q75.0625,30.8594 75.0625,31.25 Q75.0625,31.625 74.7969,31.8594 Q74.5313,32.0938 73.9219,32.0938 L68.7813,32.0938 Q68.1719,32.0938 67.9063,31.8594 Q67.6406,31.625 67.6406,31.2344 Q67.6406,30.8594 67.9063,30.625 Q68.1719,30.3906 68.7813,30.3906 L70.5,30.3906 L70.5,23.7344 L68.7813,23.7344 Q68.1719,23.7344 67.9063,23.5 Q67.6406,23.2656 67.6406,22.875 Q67.6406,22.5 67.9063,22.2656 Q68.1719,22.0313 68.7813,22.0313 L73.9219,22.0313 Q74.5313,22.0313 74.7969,22.2656 Q75.0625,22.5 75.0625,22.875 Q75.0625,23.2656 74.7969,23.5 Q74.5313,23.7344 73.9219,23.7344 L72.2031,23.7344 Z "/><text fill="#000000" font-family="sans-serif" font-size="14" font-style="italic" lengthAdjust="spacingAndGlyphs" textLength="50" x="116.75" y="26.5332">EObject</text><text fill="#000000" font-family="sans-serif" font-size="10" font-style="italic" lengthAdjust="spacingAndGlyphs" textLength="100" x="91.75" y="39.9902">org.eclipse.emf.ecore</text><line style="stroke: #A80036; stroke-width: 1.5;" x1="8" x2="243" y1="47.1875" y2="47.1875"/><ellipse cx="18" cy="58.1875" fill="#84BE84" rx="3" ry="3" style="stroke: #038048; stroke-width: 1.0;"/><text fill="#000000" font-family="sans-serif" font-size="11" font-style="italic" lengthAdjust="spacingAndGlyphs" textLength="85" x="27" y="62.6064">eClass(): EClass</text><ellipse cx="18" cy="72.0234" fill="#84BE84" rx="3" ry="3" style="stroke: #038048; stroke-width: 1.0;"/><text fill="#000000" font-family="sans-serif" font-size="11" font-style="italic" lengthAdjust="spacingAndGlyphs" textLength="116" x="27" y="76.4424">eResource(): Resource</text><ellipse cx="18" cy="85.8594" fill="#84BE84" rx="3" ry="3" style="stroke: #038048; stroke-width: 1.0;"/><text fill="#000000" font-family="sans-serif" font-size="11" font-style="italic" lengthAdjust="spacingAndGlyphs" textLength="109" x="27" y="90.2783">eContainer(): EObject</text><ellipse cx="18" cy="99.6953" fill="#84BE84" rx="3" ry="3" style="stroke: #038048; stroke-width: 1.0;"/><text fill="#000000" font-family="sans-serif" font-size="11" font-style="italic" lengthAdjust="spacingAndGlyphs" textLength="204" x="27" y="104.1143">eContainingFeature(): EStructuralFeature</text><ellipse cx="18" cy="113.5313" fill="#84BE84" rx="3" ry="3" style="stroke: #038048; stroke-width: 1.0;"/><text fill="#000000" font-family="sans-serif" font-size="11" font-style="italic" lengthAdjust="spacingAndGlyphs" textLength="178" x="27" y="117.9502">eContainmentFeature(): EReference</text><ellipse cx="18" cy="127.3672" fill="#84BE84" rx="3" ry="3" style="stroke: #038048; stroke-width: 1.0;"/><text fill="#000000" font-family="sans-serif" font-size="11" font-style="italic" lengthAdjust="spacingAndGlyphs" textLength="142" x="27" y="131.7861">eContents(): EList&lt;EObject&gt;</text><ellipse cx="18" cy="141.2031" fill="#84BE84" rx="3" ry="3" style="stroke: #038048; stroke-width: 1.0;"/><text fill="#000000" font-family="sans-serif" font-size="11" font-style="italic" lengthAdjust="spacingAndGlyphs" textLength="188" x="27" y="145.6221">eAllContents(): TreeIterator&lt;EObject&gt;</text><ellipse cx="18" cy="155.0391" fill="#84BE84" rx="3" ry="3" style="stroke: #038048; stroke-width: 1.0;"/><text fill="#000000" font-family="sans-serif" font-size="11" font-style="italic" lengthAdjust="spacingAndGlyphs" textLength="97" x="27" y="159.458">eIsProxy(): boolean</text><ellipse cx="18" cy="168.875" fill="#84BE84" rx="3" ry="3" style="stroke: #038048; stroke-width: 1.0;"/><text fill="#000000" font-family="sans-serif" font-size="11" font-style="italic" lengthAdjust="spacingAndGlyphs" textLength="185" x="27" y="173.2939">eCrossReferences(): EList&lt;EObject&gt;</text><ellipse cx="18" cy="182.7109" fill="#84BE84" rx="3" ry="3" style="stroke: #038048; stroke-width: 1.0;"/><text fill="#000000" font-family="sans-serif" font-size="11" font-style="italic" lengthAdjust="spacingAndGlyphs" textLength="165" x="27" y="187.1299">eGet(EStructuralFeature): Object</text><ellipse cx="18" cy="196.5469" fill="#84BE84" rx="3" ry="3" style="stroke: #038048; stroke-width: 1.0;"/><text fill="#000000" font-family="sans-serif" font-size="11" font-style="italic" lengthAdjust="spacingAndGlyphs" textLength="211" x="27" y="200.9658">eGet(EStructuralFeature, boolean): Object</text><ellipse cx="18" cy="210.3828" fill="#84BE84" rx="3" ry="3" style="stroke: #038048; stroke-width: 1.0;"/><text fill="#000000" font-family="sans-serif" font-size="11" font-style="italic" lengthAdjust="spacingAndGlyphs" textLength="189" x="27" y="214.8018">eSet(EStructuralFeature, Object): void</text><ellipse cx="18" cy="224.2188" fill="#84BE84" rx="3" ry="3" style="stroke: #038048; stroke-width: 1.0;"/><text fill="#000000" font-family="sans-serif" font-size="11" font-style="italic" lengthAdjust="spacingAndGlyphs" textLength="178" x="27" y="228.6377">eIsSet(EStructuralFeature): boolean</text><ellipse cx="18" cy="238.0547" fill="#84BE84" rx="3" ry="3" style="stroke: #038048; stroke-width: 1.0;"/><text fill="#000000" font-family="sans-serif" font-size="11" font-style="italic" lengthAdjust="spacingAndGlyphs" textLength="161" x="27" y="242.4736">eUnset(EStructuralFeature): void</text><ellipse cx="18" cy="251.8906" fill="#84BE84" rx="3" ry="3" style="stroke: #038048; stroke-width: 1.0;"/><text fill="#000000" font-family="sans-serif" font-size="11" font-style="italic" lengthAdjust="spacingAndGlyphs" textLength="191" x="27" y="256.3096">eInvoke(EOperation, EList&lt;?&gt;): Object</text><!--MD5=[10056bb99f9abc38c98facc1f0800b45]
reverse link org.eclipse.emf.ecore.EObject to org.eclipse.epf.uma.Point--><path codeLine="30" d="M125.5,283.15 C125.5,297.19 125.5,310.68 125.5,322.77 " fill="none" id="org.eclipse.emf.ecore.EObject-backto-org.eclipse.epf.uma.Point" style="stroke: #A80036; stroke-width: 1.0;"/><polygon fill="none" points="118.5,283.01,125.5,263.01,132.5,283.01,118.5,283.01" style="stroke: #A80036; stroke-width: 1.0;"/><text fill="#888888" font-family="sans-serif" font-size="10" lengthAdjust="spacingAndGlyphs" textLength="190" x="27.5" y="449.9121">UMLDoclet 2.0.12, PlantUML 1.2020.16</text><!--MD5=[5557e3c1244a932a3e71184240a8037f]
@startuml
    set namespaceSeparator none
    hide empty fields
    hide empty methods

    interface "<size:14>Point\n<size:10>org.eclipse.epf.uma" as org.eclipse.epf.uma.Point [[Point.html]] {
        {abstract} +getX(): Double
        {abstract} +setX(Double): void
        {abstract} +getY(): Double
        {abstract} +setY(Double): void
    }

    interface "<size:14>EObject\n<size:10>org.eclipse.emf.ecore" as org.eclipse.emf.ecore.EObject {
        {abstract} +eClass(): EClass
        {abstract} +eResource(): Resource
        {abstract} +eContainer(): EObject
        {abstract} +eContainingFeature(): EStructuralFeature
        {abstract} +eContainmentFeature(): EReference
        {abstract} +eContents(): EList<EObject>
        {abstract} +eAllContents(): TreeIterator<EObject>
        {abstract} +eIsProxy(): boolean
        {abstract} +eCrossReferences(): EList<EObject>
        {abstract} +eGet(EStructuralFeature): Object
        {abstract} +eGet(EStructuralFeature, boolean): Object
        {abstract} +eSet(EStructuralFeature, Object): void
        {abstract} +eIsSet(EStructuralFeature): boolean
        {abstract} +eUnset(EStructuralFeature): void
        {abstract} +eInvoke(EOperation, EList<?>): Object
    }

    org.eclipse.emf.ecore.EObject <|- - org.eclipse.epf.uma.Point

    center footer UMLDoclet 2.0.12, PlantUML 1.2020.16
@enduml

PlantUML version 1.2020.16(Sun Aug 23 22:20:43 CEST 2020)
(APACHE source distribution)
Java Runtime: Java(TM) SE Runtime Environment
JVM: Java HotSpot(TM) 64-Bit Server VM
Default Encoding: Cp1252
Language: es
Country: ES
--></g></svg>