<?xml version="1.0" encoding="UTF-8" standalone="no"?><svg xmlns="http://www.w3.org/2000/svg" xmlns:xlink="http://www.w3.org/1999/xlink" contentScriptType="application/ecmascript" contentStyleType="text/css" height="233px" preserveAspectRatio="none" style="width:202px;height:233px;" version="1.1" viewBox="0 0 202 233" width="202px" zoomAndPan="magnify"><defs><filter height="300%" id="frny6xmchnw32" width="300%" x="-1" y="-1"><feGaussianBlur result="blurOut" stdDeviation="2.0"/><feColorMatrix in="blurOut" result="blurOut2" type="matrix" values="0 0 0 0 0 0 0 0 0 0 0 0 0 0 0 0 0 0 .4 0"/><feOffset dx="4.0" dy="4.0" in="blurOut2" result="blurOut3"/><feBlend in="SourceGraphic" in2="blurOut3" mode="normal"/></filter></defs><g><!--MD5=[ab480a400fe2a365cf0b540532557048]
class org.eclipse.epf.uma.Polyline--><a href="Polyline.html" target="_top" title="Polyline.html" xlink:actuate="onRequest" xlink:href="Polyline.html" xlink:show="new" xlink:title="Polyline.html" xlink:type="simple"><rect codeLine="5" fill="#FEFECE" filter="url(#frny6xmchnw32)" height="89.6953" id="org.eclipse.epf.uma.Polyline" style="stroke: #A80036; stroke-width: 1.5;" width="169" x="13.5" y="107"/><ellipse cx="48.75" cy="127.0938" fill="#B4A7E5" rx="11" ry="11" style="stroke: #A80036; stroke-width: 1.0;"/><path d="M49.7031,123.7344 L49.7031,130.3906 L51.4219,130.3906 Q52.0313,130.3906 52.2969,130.625 Q52.5625,130.8594 52.5625,131.25 Q52.5625,131.625 52.2969,131.8594 Q52.0313,132.0938 51.4219,132.0938 L46.2813,132.0938 Q45.6719,132.0938 45.4063,131.8594 Q45.1406,131.625 45.1406,131.2344 Q45.1406,130.8594 45.4063,130.625 Q45.6719,130.3906 46.2813,130.3906 L48,130.3906 L48,123.7344 L46.2813,123.7344 Q45.6719,123.7344 45.4063,123.5 Q45.1406,123.2656 45.1406,122.875 Q45.1406,122.5 45.4063,122.2656 Q45.6719,122.0313 46.2813,122.0313 L51.4219,122.0313 Q52.0313,122.0313 52.2969,122.2656 Q52.5625,122.5 52.5625,122.875 Q52.5625,123.2656 52.2969,123.5 Q52.0313,123.7344 51.4219,123.7344 L49.7031,123.7344 Z "/><text fill="#000000" font-family="sans-serif" font-size="14" font-style="italic" lengthAdjust="spacingAndGlyphs" textLength="49" x="88.75" y="126.5332">Polyline</text><text fill="#000000" font-family="sans-serif" font-size="10" font-style="italic" lengthAdjust="spacingAndGlyphs" textLength="92" x="67.25" y="139.9902">org.eclipse.epf.uma</text><line style="stroke: #A80036; stroke-width: 1.5;" x1="14.5" x2="181.5" y1="147.1875" y2="147.1875"/><ellipse cx="24.5" cy="158.1875" fill="#84BE84" rx="3" ry="3" style="stroke: #038048; stroke-width: 1.0;"/><text fill="#000000" font-family="sans-serif" font-size="11" font-style="italic" lengthAdjust="spacingAndGlyphs" textLength="104" x="33.5" y="162.6064">getClosed(): Boolean</text><ellipse cx="24.5" cy="172.0234" fill="#84BE84" rx="3" ry="3" style="stroke: #038048; stroke-width: 1.0;"/><text fill="#000000" font-family="sans-serif" font-size="11" font-style="italic" lengthAdjust="spacingAndGlyphs" textLength="124" x="33.5" y="176.4424">setClosed(Boolean): void</text><ellipse cx="24.5" cy="185.8594" fill="#84BE84" rx="3" ry="3" style="stroke: #038048; stroke-width: 1.0;"/><text fill="#000000" font-family="sans-serif" font-size="11" font-style="italic" lengthAdjust="spacingAndGlyphs" textLength="143" x="33.5" y="190.2783">getWaypoints(): EList&lt;Point&gt;</text></a><!--MD5=[67938dad4f380a14d7a7e75e67e5c0b0]
class org.eclipse.epf.uma.GraphicPrimitive--><a href="GraphicPrimitive.html" target="_top" title="GraphicPrimitive.html" xlink:actuate="onRequest" xlink:href="GraphicPrimitive.html" xlink:show="new" xlink:title="GraphicPrimitive.html" xlink:type="simple"><rect codeLine="11" fill="#FEFECE" filter="url(#frny6xmchnw32)" height="40.1875" id="org.eclipse.epf.uma.GraphicPrimitive" style="stroke: #A80036; stroke-width: 1.5;" width="134" x="31" y="7"/><ellipse cx="46" cy="27.0938" fill="#B4A7E5" rx="11" ry="11" style="stroke: #A80036; stroke-width: 1.0;"/><path d="M46.9531,23.7344 L46.9531,30.3906 L48.6719,30.3906 Q49.2813,30.3906 49.5469,30.625 Q49.8125,30.8594 49.8125,31.25 Q49.8125,31.625 49.5469,31.8594 Q49.2813,32.0938 48.6719,32.0938 L43.5313,32.0938 Q42.9219,32.0938 42.6563,31.8594 Q42.3906,31.625 42.3906,31.2344 Q42.3906,30.8594 42.6563,30.625 Q42.9219,30.3906 43.5313,30.3906 L45.25,30.3906 L45.25,23.7344 L43.5313,23.7344 Q42.9219,23.7344 42.6563,23.5 Q42.3906,23.2656 42.3906,22.875 Q42.3906,22.5 42.6563,22.2656 Q42.9219,22.0313 43.5313,22.0313 L48.6719,22.0313 Q49.2813,22.0313 49.5469,22.2656 Q49.8125,22.5 49.8125,22.875 Q49.8125,23.2656 49.5469,23.5 Q49.2813,23.7344 48.6719,23.7344 L46.9531,23.7344 Z "/><text fill="#000000" font-family="sans-serif" font-size="14" font-style="italic" lengthAdjust="spacingAndGlyphs" textLength="102" x="60" y="26.5332">GraphicPrimitive</text><text fill="#000000" font-family="sans-serif" font-size="10" font-style="italic" lengthAdjust="spacingAndGlyphs" textLength="92" x="65" y="39.9902">org.eclipse.epf.uma</text></a><!--MD5=[50ddd2e5053160618fb5d248b541cea3]
reverse link org.eclipse.epf.uma.GraphicPrimitive to org.eclipse.epf.uma.Polyline--><path codeLine="13" d="M98,67.25 C98,79.89 98,93.98 98,106.94 " fill="none" id="org.eclipse.epf.uma.GraphicPrimitive-backto-org.eclipse.epf.uma.Polyline" style="stroke: #A80036; stroke-width: 1.0;"/><polygon fill="none" points="91,67.22,98,47.22,105,67.22,91,67.22" style="stroke: #A80036; stroke-width: 1.0;"/><text fill="#888888" font-family="sans-serif" font-size="10" lengthAdjust="spacingAndGlyphs" textLength="190" x="0" y="220.0762">UMLDoclet 2.0.12, PlantUML 1.2020.16</text><!--MD5=[d71b0f0ffc0de1f2d580b4eff098fed8]
@startuml
    set namespaceSeparator none
    hide empty fields
    hide empty methods

    interface "<size:14>Polyline\n<size:10>org.eclipse.epf.uma" as org.eclipse.epf.uma.Polyline [[Polyline.html]] {
        {abstract} +getClosed(): Boolean
        {abstract} +setClosed(Boolean): void
        {abstract} +getWaypoints(): EList<Point>
    }

    interface "<size:14>GraphicPrimitive\n<size:10>org.eclipse.epf.uma" as org.eclipse.epf.uma.GraphicPrimitive [[GraphicPrimitive.html]]

    org.eclipse.epf.uma.GraphicPrimitive <|- - org.eclipse.epf.uma.Polyline

    center footer UMLDoclet 2.0.12, PlantUML 1.2020.16
@enduml

PlantUML version 1.2020.16(Sun Aug 23 22:20:43 CEST 2020)
(APACHE source distribution)
Java Runtime: Java(TM) SE Runtime Environment
JVM: Java HotSpot(TM) 64-Bit Server VM
Default Encoding: Cp1252
Language: es
Country: ES
--></g></svg>