<?xml version="1.0" encoding="UTF-8" standalone="no"?><svg xmlns="http://www.w3.org/2000/svg" xmlns:xlink="http://www.w3.org/1999/xlink" contentScriptType="application/ecmascript" contentStyleType="text/css" height="491px" preserveAspectRatio="none" style="width:245px;height:491px;" version="1.1" viewBox="0 0 245 491" width="245px" zoomAndPan="magnify"><defs><filter height="300%" id="f45qjxdwl4uba" width="300%" x="-1" y="-1"><feGaussianBlur result="blurOut" stdDeviation="2.0"/><feColorMatrix in="blurOut" result="blurOut2" type="matrix" values="0 0 0 0 0 0 0 0 0 0 0 0 0 0 0 0 0 0 .4 0"/><feOffset dx="4.0" dy="4.0" in="blurOut2" result="blurOut3"/><feBlend in="SourceGraphic" in2="blurOut3" mode="normal"/></filter></defs><g><!--MD5=[12c9a5edc650c5ca68c63a022990aa5d]
class org.eclipse.epf.uma.PracticeDescription--><a href="PracticeDescription.html" target="_top" title="PracticeDescription.html" xlink:actuate="onRequest" xlink:href="PracticeDescription.html" xlink:show="new" xlink:title="PracticeDescription.html" xlink:type="simple"><rect codeLine="5" fill="#FEFECE" filter="url(#f45qjxdwl4uba)" height="214.2188" id="org.eclipse.epf.uma.PracticeDescription" style="stroke: #A80036; stroke-width: 1.5;" width="191" x="21" y="240"/><ellipse cx="52.65" cy="260.0938" fill="#B4A7E5" rx="11" ry="11" style="stroke: #A80036; stroke-width: 1.0;"/><path d="M53.6031,256.7344 L53.6031,263.3906 L55.3219,263.3906 Q55.9313,263.3906 56.1969,263.625 Q56.4625,263.8594 56.4625,264.25 Q56.4625,264.625 56.1969,264.8594 Q55.9313,265.0938 55.3219,265.0938 L50.1813,265.0938 Q49.5719,265.0938 49.3063,264.8594 Q49.0406,264.625 49.0406,264.2344 Q49.0406,263.8594 49.3063,263.625 Q49.5719,263.3906 50.1813,263.3906 L51.9,263.3906 L51.9,256.7344 L50.1813,256.7344 Q49.5719,256.7344 49.3063,256.5 Q49.0406,256.2656 49.0406,255.875 Q49.0406,255.5 49.3063,255.2656 Q49.5719,255.0313 50.1813,255.0313 L55.3219,255.0313 Q55.9313,255.0313 56.1969,255.2656 Q56.4625,255.5 56.4625,255.875 Q56.4625,256.2656 56.1969,256.5 Q55.9313,256.7344 55.3219,256.7344 L53.6031,256.7344 Z "/><text fill="#000000" font-family="sans-serif" font-size="14" font-style="italic" lengthAdjust="spacingAndGlyphs" textLength="122" x="70.35" y="259.5332">PracticeDescription</text><text fill="#000000" font-family="sans-serif" font-size="10" font-style="italic" lengthAdjust="spacingAndGlyphs" textLength="92" x="85.35" y="272.9902">org.eclipse.epf.uma</text><line style="stroke: #A80036; stroke-width: 1.5;" x1="22" x2="211" y1="280.1875" y2="280.1875"/><ellipse cx="32" cy="291.1875" fill="#84BE84" rx="3" ry="3" style="stroke: #038048; stroke-width: 1.0;"/><text fill="#000000" font-family="sans-serif" font-size="11" font-style="italic" lengthAdjust="spacingAndGlyphs" textLength="125" x="41" y="295.6064">getAdditionalInfo(): String</text><ellipse cx="32" cy="305.0234" fill="#84BE84" rx="3" ry="3" style="stroke: #038048; stroke-width: 1.0;"/><text fill="#000000" font-family="sans-serif" font-size="11" font-style="italic" lengthAdjust="spacingAndGlyphs" textLength="145" x="41" y="309.4424">setAdditionalInfo(String): void</text><ellipse cx="32" cy="318.8594" fill="#84BE84" rx="3" ry="3" style="stroke: #038048; stroke-width: 1.0;"/><text fill="#000000" font-family="sans-serif" font-size="11" font-style="italic" lengthAdjust="spacingAndGlyphs" textLength="100" x="41" y="323.2783">getProblem(): String</text><ellipse cx="32" cy="332.6953" fill="#84BE84" rx="3" ry="3" style="stroke: #038048; stroke-width: 1.0;"/><text fill="#000000" font-family="sans-serif" font-size="11" font-style="italic" lengthAdjust="spacingAndGlyphs" textLength="120" x="41" y="337.1143">setProblem(String): void</text><ellipse cx="32" cy="346.5313" fill="#84BE84" rx="3" ry="3" style="stroke: #038048; stroke-width: 1.0;"/><text fill="#000000" font-family="sans-serif" font-size="11" font-style="italic" lengthAdjust="spacingAndGlyphs" textLength="117" x="41" y="350.9502">getBackground(): String</text><ellipse cx="32" cy="360.3672" fill="#84BE84" rx="3" ry="3" style="stroke: #038048; stroke-width: 1.0;"/><text fill="#000000" font-family="sans-serif" font-size="11" font-style="italic" lengthAdjust="spacingAndGlyphs" textLength="137" x="41" y="364.7861">setBackground(String): void</text><ellipse cx="32" cy="374.2031" fill="#84BE84" rx="3" ry="3" style="stroke: #038048; stroke-width: 1.0;"/><text fill="#000000" font-family="sans-serif" font-size="11" font-style="italic" lengthAdjust="spacingAndGlyphs" textLength="88" x="41" y="378.6221">getGoals(): String</text><ellipse cx="32" cy="388.0391" fill="#84BE84" rx="3" ry="3" style="stroke: #038048; stroke-width: 1.0;"/><text fill="#000000" font-family="sans-serif" font-size="11" font-style="italic" lengthAdjust="spacingAndGlyphs" textLength="108" x="41" y="392.458">setGoals(String): void</text><ellipse cx="32" cy="401.875" fill="#84BE84" rx="3" ry="3" style="stroke: #038048; stroke-width: 1.0;"/><text fill="#000000" font-family="sans-serif" font-size="11" font-style="italic" lengthAdjust="spacingAndGlyphs" textLength="113" x="41" y="406.2939">getApplication(): String</text><ellipse cx="32" cy="415.7109" fill="#84BE84" rx="3" ry="3" style="stroke: #038048; stroke-width: 1.0;"/><text fill="#000000" font-family="sans-serif" font-size="11" font-style="italic" lengthAdjust="spacingAndGlyphs" textLength="133" x="41" y="420.1299">setApplication(String): void</text><ellipse cx="32" cy="429.5469" fill="#84BE84" rx="3" ry="3" style="stroke: #038048; stroke-width: 1.0;"/><text fill="#000000" font-family="sans-serif" font-size="11" font-style="italic" lengthAdjust="spacingAndGlyphs" textLength="145" x="41" y="433.9658">getLevelsOfAdoption(): String</text><ellipse cx="32" cy="443.3828" fill="#84BE84" rx="3" ry="3" style="stroke: #038048; stroke-width: 1.0;"/><text fill="#000000" font-family="sans-serif" font-size="11" font-style="italic" lengthAdjust="spacingAndGlyphs" textLength="165" x="41" y="447.8018">setLevelsOfAdoption(String): void</text></a><!--MD5=[ac89fbf343ff51a3f64fb8f81ee032c9]
class org.eclipse.epf.uma.ContentDescription--><a href="ContentDescription.html" target="_top" title="ContentDescription.html" xlink:actuate="onRequest" xlink:href="ContentDescription.html" xlink:show="new" xlink:title="ContentDescription.html" xlink:type="simple"><rect codeLine="20" fill="#FEFECE" filter="url(#f45qjxdwl4uba)" height="172.7109" id="org.eclipse.epf.uma.ContentDescription" style="stroke: #A80036; stroke-width: 1.5;" width="219" x="7" y="7"/><ellipse cx="51.75" cy="27.0938" fill="#B4A7E5" rx="11" ry="11" style="stroke: #A80036; stroke-width: 1.0;"/><path d="M52.7031,23.7344 L52.7031,30.3906 L54.4219,30.3906 Q55.0313,30.3906 55.2969,30.625 Q55.5625,30.8594 55.5625,31.25 Q55.5625,31.625 55.2969,31.8594 Q55.0313,32.0938 54.4219,32.0938 L49.2813,32.0938 Q48.6719,32.0938 48.4063,31.8594 Q48.1406,31.625 48.1406,31.2344 Q48.1406,30.8594 48.4063,30.625 Q48.6719,30.3906 49.2813,30.3906 L51,30.3906 L51,23.7344 L49.2813,23.7344 Q48.6719,23.7344 48.4063,23.5 Q48.1406,23.2656 48.1406,22.875 Q48.1406,22.5 48.4063,22.2656 Q48.6719,22.0313 49.2813,22.0313 L54.4219,22.0313 Q55.0313,22.0313 55.2969,22.2656 Q55.5625,22.5 55.5625,22.875 Q55.5625,23.2656 55.2969,23.5 Q55.0313,23.7344 54.4219,23.7344 L52.7031,23.7344 Z "/><text fill="#000000" font-family="sans-serif" font-size="14" font-style="italic" lengthAdjust="spacingAndGlyphs" textLength="121" x="72.25" y="26.5332">ContentDescription</text><text fill="#000000" font-family="sans-serif" font-size="10" font-style="italic" lengthAdjust="spacingAndGlyphs" textLength="92" x="86.75" y="39.9902">org.eclipse.epf.uma</text><line style="stroke: #A80036; stroke-width: 1.5;" x1="8" x2="225" y1="47.1875" y2="47.1875"/><ellipse cx="18" cy="58.1875" fill="#84BE84" rx="3" ry="3" style="stroke: #038048; stroke-width: 1.0;"/><text fill="#000000" font-family="sans-serif" font-size="11" font-style="italic" lengthAdjust="spacingAndGlyphs" textLength="139" x="27" y="62.6064">getMainDescription(): String</text><ellipse cx="18" cy="72.0234" fill="#84BE84" rx="3" ry="3" style="stroke: #038048; stroke-width: 1.0;"/><text fill="#000000" font-family="sans-serif" font-size="11" font-style="italic" lengthAdjust="spacingAndGlyphs" textLength="159" x="27" y="76.4424">setMainDescription(String): void</text><ellipse cx="18" cy="85.8594" fill="#84BE84" rx="3" ry="3" style="stroke: #038048; stroke-width: 1.0;"/><text fill="#000000" font-family="sans-serif" font-size="11" font-style="italic" lengthAdjust="spacingAndGlyphs" textLength="146" x="27" y="90.2783">getSections(): EList&lt;Section&gt;</text><ellipse cx="18" cy="99.6953" fill="#84BE84" rx="3" ry="3" style="stroke: #038048; stroke-width: 1.0;"/><text fill="#000000" font-family="sans-serif" font-size="11" font-style="italic" lengthAdjust="spacingAndGlyphs" textLength="108" x="27" y="104.1143">getExternalId(): String</text><ellipse cx="18" cy="113.5313" fill="#84BE84" rx="3" ry="3" style="stroke: #038048; stroke-width: 1.0;"/><text fill="#000000" font-family="sans-serif" font-size="11" font-style="italic" lengthAdjust="spacingAndGlyphs" textLength="128" x="27" y="117.9502">setExternalId(String): void</text><ellipse cx="18" cy="127.3672" fill="#84BE84" rx="3" ry="3" style="stroke: #038048; stroke-width: 1.0;"/><text fill="#000000" font-family="sans-serif" font-size="11" font-style="italic" lengthAdjust="spacingAndGlyphs" textLength="151" x="27" y="131.7861">getKeyConsiderations(): String</text><ellipse cx="18" cy="141.2031" fill="#84BE84" rx="3" ry="3" style="stroke: #038048; stroke-width: 1.0;"/><text fill="#000000" font-family="sans-serif" font-size="11" font-style="italic" lengthAdjust="spacingAndGlyphs" textLength="171" x="27" y="145.6221">setKeyConsiderations(String): void</text><ellipse cx="18" cy="155.0391" fill="#84BE84" rx="3" ry="3" style="stroke: #038048; stroke-width: 1.0;"/><text fill="#000000" font-family="sans-serif" font-size="11" font-style="italic" lengthAdjust="spacingAndGlyphs" textLength="173" x="27" y="159.458">getLongPresentationName(): String</text><ellipse cx="18" cy="168.875" fill="#84BE84" rx="3" ry="3" style="stroke: #038048; stroke-width: 1.0;"/><text fill="#000000" font-family="sans-serif" font-size="11" font-style="italic" lengthAdjust="spacingAndGlyphs" textLength="193" x="27" y="173.2939">setLongPresentationName(String): void</text></a><!--MD5=[6db70660480e77c57ffafcb4cb91bb91]
reverse link org.eclipse.epf.uma.ContentDescription to org.eclipse.epf.uma.PracticeDescription--><path codeLine="32" d="M116.5,200.41 C116.5,213.39 116.5,226.65 116.5,239.63 " fill="none" id="org.eclipse.epf.uma.ContentDescription-backto-org.eclipse.epf.uma.PracticeDescription" style="stroke: #A80036; stroke-width: 1.0;"/><polygon fill="none" points="109.5,200.35,116.5,180.35,123.5,200.35,109.5,200.35" style="stroke: #A80036; stroke-width: 1.0;"/><text fill="#888888" font-family="sans-serif" font-size="10" lengthAdjust="spacingAndGlyphs" textLength="190" x="18.5" y="477.5996">UMLDoclet 2.0.12, PlantUML 1.2020.16</text><!--MD5=[622c16893bb129cba40924ec1a27e042]
@startuml
    set namespaceSeparator none
    hide empty fields
    hide empty methods

    interface "<size:14>PracticeDescription\n<size:10>org.eclipse.epf.uma" as org.eclipse.epf.uma.PracticeDescription [[PracticeDescription.html]] {
        {abstract} +getAdditionalInfo(): String
        {abstract} +setAdditionalInfo(String): void
        {abstract} +getProblem(): String
        {abstract} +setProblem(String): void
        {abstract} +getBackground(): String
        {abstract} +setBackground(String): void
        {abstract} +getGoals(): String
        {abstract} +setGoals(String): void
        {abstract} +getApplication(): String
        {abstract} +setApplication(String): void
        {abstract} +getLevelsOfAdoption(): String
        {abstract} +setLevelsOfAdoption(String): void
    }

    interface "<size:14>ContentDescription\n<size:10>org.eclipse.epf.uma" as org.eclipse.epf.uma.ContentDescription [[ContentDescription.html]] {
        {abstract} +getMainDescription(): String
        {abstract} +setMainDescription(String): void
        {abstract} +getSections(): EList<Section>
        {abstract} +getExternalId(): String
        {abstract} +setExternalId(String): void
        {abstract} +getKeyConsiderations(): String
        {abstract} +setKeyConsiderations(String): void
        {abstract} +getLongPresentationName(): String
        {abstract} +setLongPresentationName(String): void
    }

    org.eclipse.epf.uma.ContentDescription <|- - org.eclipse.epf.uma.PracticeDescription

    center footer UMLDoclet 2.0.12, PlantUML 1.2020.16
@enduml

PlantUML version 1.2020.16(Sun Aug 23 22:20:43 CEST 2020)
(APACHE source distribution)
Java Runtime: Java(TM) SE Runtime Environment
JVM: Java HotSpot(TM) 64-Bit Server VM
Default Encoding: Cp1252
Language: es
Country: ES
--></g></svg>