<?xml version="1.0" encoding="UTF-8" standalone="no"?><svg xmlns="http://www.w3.org/2000/svg" xmlns:xlink="http://www.w3.org/1999/xlink" contentScriptType="application/ecmascript" contentStyleType="text/css" height="233px" preserveAspectRatio="none" style="width:291px;height:233px;" version="1.1" viewBox="0 0 291 233" width="291px" zoomAndPan="magnify"><defs><filter height="300%" id="f19dhgmeeybnft" width="300%" x="-1" y="-1"><feGaussianBlur result="blurOut" stdDeviation="2.0"/><feColorMatrix in="blurOut" result="blurOut2" type="matrix" values="0 0 0 0 0 0 0 0 0 0 0 0 0 0 0 0 0 0 .4 0"/><feOffset dx="4.0" dy="4.0" in="blurOut2" result="blurOut3"/><feBlend in="SourceGraphic" in2="blurOut3" mode="normal"/></filter></defs><g><!--MD5=[770c171346aabbd1eb564e718bc296af]
class org.eclipse.epf.uma.Practice--><a href="Practice.html" target="_top" title="Practice.html" xlink:actuate="onRequest" xlink:href="Practice.html" xlink:show="new" xlink:title="Practice.html" xlink:type="simple"><rect codeLine="5" fill="#FEFECE" filter="url(#f19dhgmeeybnft)" height="89.6953" id="org.eclipse.epf.uma.Practice" style="stroke: #A80036; stroke-width: 1.5;" width="265" x="7" y="107"/><ellipse cx="89.25" cy="127.0938" fill="#B4A7E5" rx="11" ry="11" style="stroke: #A80036; stroke-width: 1.0;"/><path d="M90.2031,123.7344 L90.2031,130.3906 L91.9219,130.3906 Q92.5313,130.3906 92.7969,130.625 Q93.0625,130.8594 93.0625,131.25 Q93.0625,131.625 92.7969,131.8594 Q92.5313,132.0938 91.9219,132.0938 L86.7813,132.0938 Q86.1719,132.0938 85.9063,131.8594 Q85.6406,131.625 85.6406,131.2344 Q85.6406,130.8594 85.9063,130.625 Q86.1719,130.3906 86.7813,130.3906 L88.5,130.3906 L88.5,123.7344 L86.7813,123.7344 Q86.1719,123.7344 85.9063,123.5 Q85.6406,123.2656 85.6406,122.875 Q85.6406,122.5 85.9063,122.2656 Q86.1719,122.0313 86.7813,122.0313 L91.9219,122.0313 Q92.5313,122.0313 92.7969,122.2656 Q93.0625,122.5 93.0625,122.875 Q93.0625,123.2656 92.7969,123.5 Q92.5313,123.7344 91.9219,123.7344 L90.2031,123.7344 Z "/><text fill="#000000" font-family="sans-serif" font-size="14" font-style="italic" lengthAdjust="spacingAndGlyphs" textLength="51" x="130.25" y="126.5332">Practice</text><text fill="#000000" font-family="sans-serif" font-size="10" font-style="italic" lengthAdjust="spacingAndGlyphs" textLength="92" x="109.75" y="139.9902">org.eclipse.epf.uma</text><line style="stroke: #A80036; stroke-width: 1.5;" x1="8" x2="271" y1="147.1875" y2="147.1875"/><ellipse cx="18" cy="158.1875" fill="#84BE84" rx="3" ry="3" style="stroke: #038048; stroke-width: 1.0;"/><text fill="#000000" font-family="sans-serif" font-size="11" font-style="italic" lengthAdjust="spacingAndGlyphs" textLength="174" x="27" y="162.6064">getSubPractices(): EList&lt;Practice&gt;</text><ellipse cx="18" cy="172.0234" fill="#84BE84" rx="3" ry="3" style="stroke: #038048; stroke-width: 1.0;"/><text fill="#000000" font-family="sans-serif" font-size="11" font-style="italic" lengthAdjust="spacingAndGlyphs" textLength="239" x="27" y="176.4424">getContentReferences(): EList&lt;ContentElement&gt;</text><ellipse cx="18" cy="185.8594" fill="#84BE84" rx="3" ry="3" style="stroke: #038048; stroke-width: 1.0;"/><text fill="#000000" font-family="sans-serif" font-size="11" font-style="italic" lengthAdjust="spacingAndGlyphs" textLength="193" x="27" y="190.2783">getActivityReferences(): EList&lt;Activity&gt;</text></a><!--MD5=[31784ddf3d95333b37758b987195013e]
class org.eclipse.epf.uma.Guidance--><a href="Guidance.html" target="_top" title="Guidance.html" xlink:actuate="onRequest" xlink:href="Guidance.html" xlink:show="new" xlink:title="Guidance.html" xlink:type="simple"><rect codeLine="11" fill="#FEFECE" filter="url(#f19dhgmeeybnft)" height="40.1875" id="org.eclipse.epf.uma.Guidance" style="stroke: #A80036; stroke-width: 1.5;" width="124" x="77.5" y="7"/><ellipse cx="92.5" cy="27.0938" fill="#B4A7E5" rx="11" ry="11" style="stroke: #A80036; stroke-width: 1.0;"/><path d="M93.4531,23.7344 L93.4531,30.3906 L95.1719,30.3906 Q95.7813,30.3906 96.0469,30.625 Q96.3125,30.8594 96.3125,31.25 Q96.3125,31.625 96.0469,31.8594 Q95.7813,32.0938 95.1719,32.0938 L90.0313,32.0938 Q89.4219,32.0938 89.1563,31.8594 Q88.8906,31.625 88.8906,31.2344 Q88.8906,30.8594 89.1563,30.625 Q89.4219,30.3906 90.0313,30.3906 L91.75,30.3906 L91.75,23.7344 L90.0313,23.7344 Q89.4219,23.7344 89.1563,23.5 Q88.8906,23.2656 88.8906,22.875 Q88.8906,22.5 89.1563,22.2656 Q89.4219,22.0313 90.0313,22.0313 L95.1719,22.0313 Q95.7813,22.0313 96.0469,22.2656 Q96.3125,22.5 96.3125,22.875 Q96.3125,23.2656 96.0469,23.5 Q95.7813,23.7344 95.1719,23.7344 L93.4531,23.7344 Z "/><text fill="#000000" font-family="sans-serif" font-size="14" font-style="italic" lengthAdjust="spacingAndGlyphs" textLength="61" x="122" y="26.5332">Guidance</text><text fill="#000000" font-family="sans-serif" font-size="10" font-style="italic" lengthAdjust="spacingAndGlyphs" textLength="92" x="106.5" y="39.9902">org.eclipse.epf.uma</text></a><!--MD5=[3c511c6a843132ee3e27828e9b587e09]
reverse link org.eclipse.epf.uma.Guidance to org.eclipse.epf.uma.Practice--><path codeLine="13" d="M139.5,67.25 C139.5,79.89 139.5,93.98 139.5,106.94 " fill="none" id="org.eclipse.epf.uma.Guidance-backto-org.eclipse.epf.uma.Practice" style="stroke: #A80036; stroke-width: 1.0;"/><polygon fill="none" points="132.5,67.22,139.5,47.22,146.5,67.22,132.5,67.22" style="stroke: #A80036; stroke-width: 1.0;"/><text fill="#888888" font-family="sans-serif" font-size="10" lengthAdjust="spacingAndGlyphs" textLength="190" x="41.5" y="220.0762">UMLDoclet 2.0.12, PlantUML 1.2020.16</text><!--MD5=[951d839a7f0da369af8a40c91a95df7e]
@startuml
    set namespaceSeparator none
    hide empty fields
    hide empty methods

    interface "<size:14>Practice\n<size:10>org.eclipse.epf.uma" as org.eclipse.epf.uma.Practice [[Practice.html]] {
        {abstract} +getSubPractices(): EList<Practice>
        {abstract} +getContentReferences(): EList<ContentElement>
        {abstract} +getActivityReferences(): EList<Activity>
    }

    interface "<size:14>Guidance\n<size:10>org.eclipse.epf.uma" as org.eclipse.epf.uma.Guidance [[Guidance.html]]

    org.eclipse.epf.uma.Guidance <|- - org.eclipse.epf.uma.Practice

    center footer UMLDoclet 2.0.12, PlantUML 1.2020.16
@enduml

PlantUML version 1.2020.16(Sun Aug 23 22:20:43 CEST 2020)
(APACHE source distribution)
Java Runtime: Java(TM) SE Runtime Environment
JVM: Java HotSpot(TM) 64-Bit Server VM
Default Encoding: Cp1252
Language: es
Country: ES
--></g></svg>