<?xml version="1.0" encoding="UTF-8" standalone="no"?><svg xmlns="http://www.w3.org/2000/svg" xmlns:xlink="http://www.w3.org/1999/xlink" contentScriptType="application/ecmascript" contentStyleType="text/css" height="283px" preserveAspectRatio="none" style="width:312px;height:283px;" version="1.1" viewBox="0 0 312 283" width="312px" zoomAndPan="magnify"><defs><filter height="300%" id="f84n3vw4eqj2x" width="300%" x="-1" y="-1"><feGaussianBlur result="blurOut" stdDeviation="2.0"/><feColorMatrix in="blurOut" result="blurOut2" type="matrix" values="0 0 0 0 0 0 0 0 0 0 0 0 0 0 0 0 0 0 .4 0"/><feOffset dx="4.0" dy="4.0" in="blurOut2" result="blurOut3"/><feBlend in="SourceGraphic" in2="blurOut3" mode="normal"/></filter></defs><g><!--MD5=[5115765f65760f75118f1b87c3d47785]
class org.eclipse.epf.uma.Process--><a href="Process.html" target="_top" title="Process.html" xlink:actuate="onRequest" xlink:href="Process.html" xlink:show="new" xlink:title="Process.html" xlink:type="simple"><rect codeLine="5" fill="#FEFECE" filter="url(#f84n3vw4eqj2x)" height="103.5313" id="org.eclipse.epf.uma.Process" style="stroke: #A80036; stroke-width: 1.5;" width="260" x="20" y="143"/><ellipse cx="99.75" cy="163.0938" fill="#B4A7E5" rx="11" ry="11" style="stroke: #A80036; stroke-width: 1.0;"/><path d="M100.7031,159.7344 L100.7031,166.3906 L102.4219,166.3906 Q103.0313,166.3906 103.2969,166.625 Q103.5625,166.8594 103.5625,167.25 Q103.5625,167.625 103.2969,167.8594 Q103.0313,168.0938 102.4219,168.0938 L97.2813,168.0938 Q96.6719,168.0938 96.4063,167.8594 Q96.1406,167.625 96.1406,167.2344 Q96.1406,166.8594 96.4063,166.625 Q96.6719,166.3906 97.2813,166.3906 L99,166.3906 L99,159.7344 L97.2813,159.7344 Q96.6719,159.7344 96.4063,159.5 Q96.1406,159.2656 96.1406,158.875 Q96.1406,158.5 96.4063,158.2656 Q96.6719,158.0313 97.2813,158.0313 L102.4219,158.0313 Q103.0313,158.0313 103.2969,158.2656 Q103.5625,158.5 103.5625,158.875 Q103.5625,159.2656 103.2969,159.5 Q103.0313,159.7344 102.4219,159.7344 L100.7031,159.7344 Z "/><text fill="#000000" font-family="sans-serif" font-size="14" font-style="italic" lengthAdjust="spacingAndGlyphs" textLength="51" x="140.75" y="162.5332">Process</text><text fill="#000000" font-family="sans-serif" font-size="10" font-style="italic" lengthAdjust="spacingAndGlyphs" textLength="92" x="120.25" y="175.9902">org.eclipse.epf.uma</text><line style="stroke: #A80036; stroke-width: 1.5;" x1="21" x2="279" y1="183.1875" y2="183.1875"/><ellipse cx="31" cy="194.1875" fill="#84BE84" rx="3" ry="3" style="stroke: #038048; stroke-width: 1.0;"/><text fill="#000000" font-family="sans-serif" font-size="11" font-style="italic" lengthAdjust="spacingAndGlyphs" textLength="234" x="40" y="198.6064">getIncludesPatterns(): EList&lt;CapabilityPattern&gt;</text><ellipse cx="31" cy="208.0234" fill="#84BE84" rx="3" ry="3" style="stroke: #038048; stroke-width: 1.0;"/><text fill="#000000" font-family="sans-serif" font-size="11" font-style="italic" lengthAdjust="spacingAndGlyphs" textLength="204" x="40" y="212.4424">getDefaultContext(): MethodConfiguration</text><ellipse cx="31" cy="221.8594" fill="#84BE84" rx="3" ry="3" style="stroke: #038048; stroke-width: 1.0;"/><text fill="#000000" font-family="sans-serif" font-size="11" font-style="italic" lengthAdjust="spacingAndGlyphs" textLength="224" x="40" y="226.2783">setDefaultContext(MethodConfiguration): void</text><ellipse cx="31" cy="235.6953" fill="#84BE84" rx="3" ry="3" style="stroke: #038048; stroke-width: 1.0;"/><text fill="#000000" font-family="sans-serif" font-size="11" font-style="italic" lengthAdjust="spacingAndGlyphs" textLength="231" x="40" y="240.1143">getValidContext(): EList&lt;MethodConfiguration&gt;</text></a><!--MD5=[8befe719594d6caeea4858f50e8183da]
class org.eclipse.epf.uma.Activity--><a href="Activity.html" target="_top" title="Activity.html" xlink:actuate="onRequest" xlink:href="Activity.html" xlink:show="new" xlink:title="Activity.html" xlink:type="simple"><rect codeLine="12" fill="#FEFECE" filter="url(#f84n3vw4eqj2x)" height="75.8594" id="org.eclipse.epf.uma.Activity" style="stroke: #A80036; stroke-width: 1.5;" width="286" x="7" y="7"/><ellipse cx="99.75" cy="27.0938" fill="#B4A7E5" rx="11" ry="11" style="stroke: #A80036; stroke-width: 1.0;"/><path d="M100.7031,23.7344 L100.7031,30.3906 L102.4219,30.3906 Q103.0313,30.3906 103.2969,30.625 Q103.5625,30.8594 103.5625,31.25 Q103.5625,31.625 103.2969,31.8594 Q103.0313,32.0938 102.4219,32.0938 L97.2813,32.0938 Q96.6719,32.0938 96.4063,31.8594 Q96.1406,31.625 96.1406,31.2344 Q96.1406,30.8594 96.4063,30.625 Q96.6719,30.3906 97.2813,30.3906 L99,30.3906 L99,23.7344 L97.2813,23.7344 Q96.6719,23.7344 96.4063,23.5 Q96.1406,23.2656 96.1406,22.875 Q96.1406,22.5 96.4063,22.2656 Q96.6719,22.0313 97.2813,22.0313 L102.4219,22.0313 Q103.0313,22.0313 103.2969,22.2656 Q103.5625,22.5 103.5625,22.875 Q103.5625,23.2656 103.2969,23.5 Q103.0313,23.7344 102.4219,23.7344 L100.7031,23.7344 Z "/><text fill="#000000" font-family="sans-serif" font-size="14" font-style="italic" lengthAdjust="spacingAndGlyphs" textLength="43" x="144.75" y="26.5332">Activity</text><text fill="#000000" font-family="sans-serif" font-size="10" font-style="italic" lengthAdjust="spacingAndGlyphs" textLength="92" x="120.25" y="39.9902">org.eclipse.epf.uma</text><line style="stroke: #A80036; stroke-width: 1.5;" x1="8" x2="292" y1="47.1875" y2="47.1875"/><ellipse cx="18" cy="58.1875" fill="#84BE84" rx="3" ry="3" style="stroke: #038048; stroke-width: 1.0;"/><text fill="#000000" font-family="sans-serif" font-size="11" font-style="italic" lengthAdjust="spacingAndGlyphs" textLength="260" x="27" y="62.6064">getBreakdownElements(): EList&lt;BreakdownElement&gt;</text><ellipse cx="18" cy="72.0234" fill="#84BE84" rx="3" ry="3" style="stroke: #038048; stroke-width: 1.0;"/><text fill="#000000" font-family="sans-serif" font-size="11" font-style="italic" lengthAdjust="spacingAndGlyphs" textLength="166" x="27" y="76.4424">getRoadmaps(): EList&lt;Roadmap&gt;</text></a><!--MD5=[ec26b32b46d2bc8828f0d7e826441c1d]
reverse link org.eclipse.epf.uma.Activity to org.eclipse.epf.uma.Process--><path codeLine="17" d="M150,103.58 C150,116.57 150,130.27 150,142.97 " fill="none" id="org.eclipse.epf.uma.Activity-backto-org.eclipse.epf.uma.Process" style="stroke: #A80036; stroke-width: 1.0;"/><polygon fill="none" points="143,103.35,150,83.35,157,103.35,143,103.35" style="stroke: #A80036; stroke-width: 1.0;"/><text fill="#888888" font-family="sans-serif" font-size="10" lengthAdjust="spacingAndGlyphs" textLength="190" x="52" y="269.9121">UMLDoclet 2.0.12, PlantUML 1.2020.16</text><!--MD5=[2b4fd7d056d66afad7222d38679f21bc]
@startuml
    set namespaceSeparator none
    hide empty fields
    hide empty methods

    interface "<size:14>Process\n<size:10>org.eclipse.epf.uma" as org.eclipse.epf.uma.Process [[Process.html]] {
        {abstract} +getIncludesPatterns(): EList<CapabilityPattern>
        {abstract} +getDefaultContext(): MethodConfiguration
        {abstract} +setDefaultContext(MethodConfiguration): void
        {abstract} +getValidContext(): EList<MethodConfiguration>
    }

    interface "<size:14>Activity\n<size:10>org.eclipse.epf.uma" as org.eclipse.epf.uma.Activity [[Activity.html]] {
        {abstract} +getBreakdownElements(): EList<BreakdownElement>
        {abstract} +getRoadmaps(): EList<Roadmap>
    }

    org.eclipse.epf.uma.Activity <|- - org.eclipse.epf.uma.Process

    center footer UMLDoclet 2.0.12, PlantUML 1.2020.16
@enduml

PlantUML version 1.2020.16(Sun Aug 23 22:20:43 CEST 2020)
(APACHE source distribution)
Java Runtime: Java(TM) SE Runtime Environment
JVM: Java HotSpot(TM) 64-Bit Server VM
Default Encoding: Cp1252
Language: es
Country: ES
--></g></svg>