<?xml version="1.0" encoding="UTF-8" standalone="no"?><svg xmlns="http://www.w3.org/2000/svg" xmlns:xlink="http://www.w3.org/1999/xlink" contentScriptType="application/ecmascript" contentStyleType="text/css" height="380px" preserveAspectRatio="none" style="width:585px;height:380px;" version="1.1" viewBox="0 0 585 380" width="585px" zoomAndPan="magnify"><defs><filter height="300%" id="f1qd4jchk156c7" width="300%" x="-1" y="-1"><feGaussianBlur result="blurOut" stdDeviation="2.0"/><feColorMatrix in="blurOut" result="blurOut2" type="matrix" values="0 0 0 0 0 0 0 0 0 0 0 0 0 0 0 0 0 0 .4 0"/><feOffset dx="4.0" dy="4.0" in="blurOut2" result="blurOut3"/><feBlend in="SourceGraphic" in2="blurOut3" mode="normal"/></filter></defs><g><!--MD5=[68201a609fe25d0d7f77bb1f881f2c72]
class org.eclipse.epf.uma.ProcessComponent--><a href="ProcessComponent.html" target="_top" title="ProcessComponent.html" xlink:actuate="onRequest" xlink:href="ProcessComponent.html" xlink:show="new" xlink:title="ProcessComponent.html" xlink:type="simple"><rect codeLine="5" fill="#FEFECE" filter="url(#f1qd4jchk156c7)" height="89.6953" id="org.eclipse.epf.uma.ProcessComponent" style="stroke: #A80036; stroke-width: 1.5;" width="281" x="144.5" y="254"/><ellipse cx="218.75" cy="274.0938" fill="#B4A7E5" rx="11" ry="11" style="stroke: #A80036; stroke-width: 1.0;"/><path d="M219.7031,270.7344 L219.7031,277.3906 L221.4219,277.3906 Q222.0313,277.3906 222.2969,277.625 Q222.5625,277.8594 222.5625,278.25 Q222.5625,278.625 222.2969,278.8594 Q222.0313,279.0938 221.4219,279.0938 L216.2813,279.0938 Q215.6719,279.0938 215.4063,278.8594 Q215.1406,278.625 215.1406,278.2344 Q215.1406,277.8594 215.4063,277.625 Q215.6719,277.3906 216.2813,277.3906 L218,277.3906 L218,270.7344 L216.2813,270.7344 Q215.6719,270.7344 215.4063,270.5 Q215.1406,270.2656 215.1406,269.875 Q215.1406,269.5 215.4063,269.2656 Q215.6719,269.0313 216.2813,269.0313 L221.4219,269.0313 Q222.0313,269.0313 222.2969,269.2656 Q222.5625,269.5 222.5625,269.875 Q222.5625,270.2656 222.2969,270.5 Q222.0313,270.7344 221.4219,270.7344 L219.7031,270.7344 Z "/><text fill="#000000" font-family="sans-serif" font-size="14" font-style="italic" lengthAdjust="spacingAndGlyphs" textLength="124" x="239.25" y="273.5332">ProcessComponent</text><text fill="#000000" font-family="sans-serif" font-size="10" font-style="italic" lengthAdjust="spacingAndGlyphs" textLength="92" x="255.25" y="286.9902">org.eclipse.epf.uma</text><line style="stroke: #A80036; stroke-width: 1.5;" x1="145.5" x2="424.5" y1="294.1875" y2="294.1875"/><ellipse cx="155.5" cy="305.1875" fill="#84BE84" rx="3" ry="3" style="stroke: #038048; stroke-width: 1.0;"/><text fill="#000000" font-family="sans-serif" font-size="11" font-style="italic" lengthAdjust="spacingAndGlyphs" textLength="255" x="164.5" y="309.6064">getInterfaces(): EList&lt;ProcessComponentInterface&gt;</text><ellipse cx="155.5" cy="319.0234" fill="#84BE84" rx="3" ry="3" style="stroke: #038048; stroke-width: 1.0;"/><text fill="#000000" font-family="sans-serif" font-size="11" font-style="italic" lengthAdjust="spacingAndGlyphs" textLength="111" x="164.5" y="323.4424">getProcess(): Process</text><ellipse cx="155.5" cy="332.8594" fill="#84BE84" rx="3" ry="3" style="stroke: #038048; stroke-width: 1.0;"/><text fill="#000000" font-family="sans-serif" font-size="11" font-style="italic" lengthAdjust="spacingAndGlyphs" textLength="131" x="164.5" y="337.2783">setProcess(Process): void</text></a><!--MD5=[90d16350ef0828c72767a5512346de98]
class org.eclipse.epf.uma.ProcessPackage--><a href="ProcessPackage.html" target="_top" title="ProcessPackage.html" xlink:actuate="onRequest" xlink:href="ProcessPackage.html" xlink:show="new" xlink:title="ProcessPackage.html" xlink:type="simple"><rect codeLine="11" fill="#FEFECE" filter="url(#f1qd4jchk156c7)" height="75.8594" id="org.eclipse.epf.uma.ProcessPackage" style="stroke: #A80036; stroke-width: 1.5;" width="260" x="7" y="62.5"/><ellipse cx="79.25" cy="82.5938" fill="#B4A7E5" rx="11" ry="11" style="stroke: #A80036; stroke-width: 1.0;"/><path d="M80.2031,79.2344 L80.2031,85.8906 L81.9219,85.8906 Q82.5313,85.8906 82.7969,86.125 Q83.0625,86.3594 83.0625,86.75 Q83.0625,87.125 82.7969,87.3594 Q82.5313,87.5938 81.9219,87.5938 L76.7813,87.5938 Q76.1719,87.5938 75.9063,87.3594 Q75.6406,87.125 75.6406,86.7344 Q75.6406,86.3594 75.9063,86.125 Q76.1719,85.8906 76.7813,85.8906 L78.5,85.8906 L78.5,79.2344 L76.7813,79.2344 Q76.1719,79.2344 75.9063,79 Q75.6406,78.7656 75.6406,78.375 Q75.6406,78 75.9063,77.7656 Q76.1719,77.5313 76.7813,77.5313 L81.9219,77.5313 Q82.5313,77.5313 82.7969,77.7656 Q83.0625,78 83.0625,78.375 Q83.0625,78.7656 82.7969,79 Q82.5313,79.2344 81.9219,79.2344 L80.2031,79.2344 Z "/><text fill="#000000" font-family="sans-serif" font-size="14" font-style="italic" lengthAdjust="spacingAndGlyphs" textLength="107" x="99.75" y="82.0332">ProcessPackage</text><text fill="#000000" font-family="sans-serif" font-size="10" font-style="italic" lengthAdjust="spacingAndGlyphs" textLength="92" x="107.25" y="95.4902">org.eclipse.epf.uma</text><line style="stroke: #A80036; stroke-width: 1.5;" x1="8" x2="266" y1="102.6875" y2="102.6875"/><ellipse cx="18" cy="113.6875" fill="#84BE84" rx="3" ry="3" style="stroke: #038048; stroke-width: 1.0;"/><text fill="#000000" font-family="sans-serif" font-size="11" font-style="italic" lengthAdjust="spacingAndGlyphs" textLength="234" x="27" y="118.1064">getProcessElements(): EList&lt;ProcessElement&gt;</text><ellipse cx="18" cy="127.5234" fill="#84BE84" rx="3" ry="3" style="stroke: #038048; stroke-width: 1.0;"/><text fill="#000000" font-family="sans-serif" font-size="11" font-style="italic" lengthAdjust="spacingAndGlyphs" textLength="156" x="27" y="131.9424">getDiagrams(): EList&lt;Diagram&gt;</text></a><!--MD5=[7b6125558004ae2e4ffede7fdf88687c]
class org.eclipse.epf.uma.MethodUnit--><a href="MethodUnit.html" target="_top" title="MethodUnit.html" xlink:actuate="onRequest" xlink:href="MethodUnit.html" xlink:show="new" xlink:title="MethodUnit.html" xlink:type="simple"><rect codeLine="15" fill="#FEFECE" filter="url(#f1qd4jchk156c7)" height="186.5469" id="org.eclipse.epf.uma.MethodUnit" style="stroke: #A80036; stroke-width: 1.5;" width="264" x="302" y="7"/><ellipse cx="383.75" cy="27.0938" fill="#B4A7E5" rx="11" ry="11" style="stroke: #A80036; stroke-width: 1.0;"/><path d="M384.7031,23.7344 L384.7031,30.3906 L386.4219,30.3906 Q387.0313,30.3906 387.2969,30.625 Q387.5625,30.8594 387.5625,31.25 Q387.5625,31.625 387.2969,31.8594 Q387.0313,32.0938 386.4219,32.0938 L381.2813,32.0938 Q380.6719,32.0938 380.4063,31.8594 Q380.1406,31.625 380.1406,31.2344 Q380.1406,30.8594 380.4063,30.625 Q380.6719,30.3906 381.2813,30.3906 L383,30.3906 L383,23.7344 L381.2813,23.7344 Q380.6719,23.7344 380.4063,23.5 Q380.1406,23.2656 380.1406,22.875 Q380.1406,22.5 380.4063,22.2656 Q380.6719,22.0313 381.2813,22.0313 L386.4219,22.0313 Q387.0313,22.0313 387.2969,22.2656 Q387.5625,22.5 387.5625,22.875 Q387.5625,23.2656 387.2969,23.5 Q387.0313,23.7344 386.4219,23.7344 L384.7031,23.7344 Z "/><text fill="#000000" font-family="sans-serif" font-size="14" font-style="italic" lengthAdjust="spacingAndGlyphs" textLength="73" x="413.75" y="26.5332">MethodUnit</text><text fill="#000000" font-family="sans-serif" font-size="10" font-style="italic" lengthAdjust="spacingAndGlyphs" textLength="92" x="404.25" y="39.9902">org.eclipse.epf.uma</text><line style="stroke: #A80036; stroke-width: 1.5;" x1="303" x2="565" y1="47.1875" y2="47.1875"/><ellipse cx="313" cy="58.1875" fill="#84BE84" rx="3" ry="3" style="stroke: #038048; stroke-width: 1.0;"/><text fill="#000000" font-family="sans-serif" font-size="11" font-style="italic" lengthAdjust="spacingAndGlyphs" textLength="96" x="322" y="62.6064">getAuthors(): String</text><ellipse cx="313" cy="72.0234" fill="#84BE84" rx="3" ry="3" style="stroke: #038048; stroke-width: 1.0;"/><text fill="#000000" font-family="sans-serif" font-size="11" font-style="italic" lengthAdjust="spacingAndGlyphs" textLength="116" x="322" y="76.4424">setAuthors(String): void</text><ellipse cx="313" cy="85.8594" fill="#84BE84" rx="3" ry="3" style="stroke: #038048; stroke-width: 1.0;"/><text fill="#000000" font-family="sans-serif" font-size="11" font-style="italic" lengthAdjust="spacingAndGlyphs" textLength="113" x="322" y="90.2783">getChangeDate(): Date</text><ellipse cx="313" cy="99.6953" fill="#84BE84" rx="3" ry="3" style="stroke: #038048; stroke-width: 1.0;"/><text fill="#000000" font-family="sans-serif" font-size="11" font-style="italic" lengthAdjust="spacingAndGlyphs" textLength="133" x="322" y="104.1143">setChangeDate(Date): void</text><ellipse cx="313" cy="113.5313" fill="#84BE84" rx="3" ry="3" style="stroke: #038048; stroke-width: 1.0;"/><text fill="#000000" font-family="sans-serif" font-size="11" font-style="italic" lengthAdjust="spacingAndGlyphs" textLength="153" x="322" y="117.9502">getChangeDescription(): String</text><ellipse cx="313" cy="127.3672" fill="#84BE84" rx="3" ry="3" style="stroke: #038048; stroke-width: 1.0;"/><text fill="#000000" font-family="sans-serif" font-size="11" font-style="italic" lengthAdjust="spacingAndGlyphs" textLength="173" x="322" y="131.7861">setChangeDescription(String): void</text><ellipse cx="313" cy="141.2031" fill="#84BE84" rx="3" ry="3" style="stroke: #038048; stroke-width: 1.0;"/><text fill="#000000" font-family="sans-serif" font-size="11" font-style="italic" lengthAdjust="spacingAndGlyphs" textLength="96" x="322" y="145.6221">getVersion(): String</text><ellipse cx="313" cy="155.0391" fill="#84BE84" rx="3" ry="3" style="stroke: #038048; stroke-width: 1.0;"/><text fill="#000000" font-family="sans-serif" font-size="11" font-style="italic" lengthAdjust="spacingAndGlyphs" textLength="116" x="322" y="159.458">setVersion(String): void</text><ellipse cx="313" cy="168.875" fill="#84BE84" rx="3" ry="3" style="stroke: #038048; stroke-width: 1.0;"/><text fill="#000000" font-family="sans-serif" font-size="11" font-style="italic" lengthAdjust="spacingAndGlyphs" textLength="218" x="322" y="173.2939">getCopyrightStatement(): SupportingMaterial</text><ellipse cx="313" cy="182.7109" fill="#84BE84" rx="3" ry="3" style="stroke: #038048; stroke-width: 1.0;"/><text fill="#000000" font-family="sans-serif" font-size="11" font-style="italic" lengthAdjust="spacingAndGlyphs" textLength="238" x="322" y="187.1299">setCopyrightStatement(SupportingMaterial): void</text></a><!--MD5=[471a5bbfe6f04a734a8ca4460d5b3bf7]
reverse link org.eclipse.epf.uma.ProcessPackage to org.eclipse.epf.uma.ProcessComponent--><path codeLine="28" d="M177.48,155.25 C200.81,186.22 229.76,224.66 251.74,253.85 " fill="none" id="org.eclipse.epf.uma.ProcessPackage-backto-org.eclipse.epf.uma.ProcessComponent" style="stroke: #A80036; stroke-width: 1.0;"/><polygon fill="none" points="171.63,159.11,165.19,138.92,182.81,150.69,171.63,159.11" style="stroke: #A80036; stroke-width: 1.0;"/><!--MD5=[ae53f865c2f33c33d1e1d3bce6aea7f4]
reverse link org.eclipse.epf.uma.MethodUnit to org.eclipse.epf.uma.ProcessComponent--><path codeLine="29" d="M351.46,210.35 C339.82,225.7 328.44,240.71 318.48,253.84 " fill="none" id="org.eclipse.epf.uma.MethodUnit-backto-org.eclipse.epf.uma.ProcessComponent" style="stroke: #A80036; stroke-width: 1.0;"/><polygon fill="none" points="345.98,205.99,363.65,194.28,357.14,214.45,345.98,205.99" style="stroke: #A80036; stroke-width: 1.0;"/><text fill="#888888" font-family="sans-serif" font-size="10" lengthAdjust="spacingAndGlyphs" textLength="190" x="188.5" y="367.0762">UMLDoclet 2.0.12, PlantUML 1.2020.16</text><!--MD5=[8fecb3e149657cfcfc53befb244c8b19]
@startuml
    set namespaceSeparator none
    hide empty fields
    hide empty methods

    interface "<size:14>ProcessComponent\n<size:10>org.eclipse.epf.uma" as org.eclipse.epf.uma.ProcessComponent [[ProcessComponent.html]] {
        {abstract} +getInterfaces(): EList<ProcessComponentInterface>
        {abstract} +getProcess(): Process
        {abstract} +setProcess(Process): void
    }

    interface "<size:14>ProcessPackage\n<size:10>org.eclipse.epf.uma" as org.eclipse.epf.uma.ProcessPackage [[ProcessPackage.html]] {
        {abstract} +getProcessElements(): EList<ProcessElement>
        {abstract} +getDiagrams(): EList<Diagram>
    }
    interface "<size:14>MethodUnit\n<size:10>org.eclipse.epf.uma" as org.eclipse.epf.uma.MethodUnit [[MethodUnit.html]] {
        {abstract} +getAuthors(): String
        {abstract} +setAuthors(String): void
        {abstract} +getChangeDate(): Date
        {abstract} +setChangeDate(Date): void
        {abstract} +getChangeDescription(): String
        {abstract} +setChangeDescription(String): void
        {abstract} +getVersion(): String
        {abstract} +setVersion(String): void
        {abstract} +getCopyrightStatement(): SupportingMaterial
        {abstract} +setCopyrightStatement(SupportingMaterial): void
    }

    org.eclipse.epf.uma.ProcessPackage <|- - org.eclipse.epf.uma.ProcessComponent
    org.eclipse.epf.uma.MethodUnit <|- - org.eclipse.epf.uma.ProcessComponent

    center footer UMLDoclet 2.0.12, PlantUML 1.2020.16
@enduml

PlantUML version 1.2020.16(Sun Aug 23 22:20:43 CEST 2020)
(APACHE source distribution)
Java Runtime: Java(TM) SE Runtime Environment
JVM: Java HotSpot(TM) 64-Bit Server VM
Default Encoding: Cp1252
Language: es
Country: ES
--></g></svg>