<?xml version="1.0" encoding="UTF-8" standalone="no"?><svg xmlns="http://www.w3.org/2000/svg" xmlns:xlink="http://www.w3.org/1999/xlink" contentScriptType="application/ecmascript" contentStyleType="text/css" height="269px" preserveAspectRatio="none" style="width:286px;height:269px;" version="1.1" viewBox="0 0 286 269" width="286px" zoomAndPan="magnify"><defs><filter height="300%" id="f1k6czexovestz" width="300%" x="-1" y="-1"><feGaussianBlur result="blurOut" stdDeviation="2.0"/><feColorMatrix in="blurOut" result="blurOut2" type="matrix" values="0 0 0 0 0 0 0 0 0 0 0 0 0 0 0 0 0 0 .4 0"/><feOffset dx="4.0" dy="4.0" in="blurOut2" result="blurOut3"/><feBlend in="SourceGraphic" in2="blurOut3" mode="normal"/></filter></defs><g><!--MD5=[1f95b4498327ff4b425f03bc1e1823a0]
class org.eclipse.epf.uma.ProcessPlanningTemplate--><a href="ProcessPlanningTemplate.html" target="_top" title="ProcessPlanningTemplate.html" xlink:actuate="onRequest" xlink:href="ProcessPlanningTemplate.html" xlink:show="new" xlink:title="ProcessPlanningTemplate.html" xlink:type="simple"><rect codeLine="5" fill="#FEFECE" filter="url(#f1k6czexovestz)" height="62.0234" id="org.eclipse.epf.uma.ProcessPlanningTemplate" style="stroke: #A80036; stroke-width: 1.5;" width="232" x="21" y="171"/><ellipse cx="51.75" cy="191.0938" fill="#B4A7E5" rx="11" ry="11" style="stroke: #A80036; stroke-width: 1.0;"/><path d="M52.7031,187.7344 L52.7031,194.3906 L54.4219,194.3906 Q55.0313,194.3906 55.2969,194.625 Q55.5625,194.8594 55.5625,195.25 Q55.5625,195.625 55.2969,195.8594 Q55.0313,196.0938 54.4219,196.0938 L49.2813,196.0938 Q48.6719,196.0938 48.4063,195.8594 Q48.1406,195.625 48.1406,195.2344 Q48.1406,194.8594 48.4063,194.625 Q48.6719,194.3906 49.2813,194.3906 L51,194.3906 L51,187.7344 L49.2813,187.7344 Q48.6719,187.7344 48.4063,187.5 Q48.1406,187.2656 48.1406,186.875 Q48.1406,186.5 48.4063,186.2656 Q48.6719,186.0313 49.2813,186.0313 L54.4219,186.0313 Q55.0313,186.0313 55.2969,186.2656 Q55.5625,186.5 55.5625,186.875 Q55.5625,187.2656 55.2969,187.5 Q55.0313,187.7344 54.4219,187.7344 L52.7031,187.7344 Z "/><text fill="#000000" font-family="sans-serif" font-size="14" font-style="italic" lengthAdjust="spacingAndGlyphs" textLength="165" x="69.25" y="190.5332">ProcessPlanningTemplate</text><text fill="#000000" font-family="sans-serif" font-size="10" font-style="italic" lengthAdjust="spacingAndGlyphs" textLength="92" x="105.75" y="203.9902">org.eclipse.epf.uma</text><line style="stroke: #A80036; stroke-width: 1.5;" x1="22" x2="252" y1="211.1875" y2="211.1875"/><ellipse cx="32" cy="222.1875" fill="#84BE84" rx="3" ry="3" style="stroke: #038048; stroke-width: 1.0;"/><text fill="#000000" font-family="sans-serif" font-size="11" font-style="italic" lengthAdjust="spacingAndGlyphs" textLength="206" x="41" y="226.6064">getBasedOnProcesses(): EList&lt;Process&gt;</text></a><!--MD5=[5115765f65760f75118f1b87c3d47785]
class org.eclipse.epf.uma.Process--><a href="Process.html" target="_top" title="Process.html" xlink:actuate="onRequest" xlink:href="Process.html" xlink:show="new" xlink:title="Process.html" xlink:type="simple"><rect codeLine="9" fill="#FEFECE" filter="url(#f1k6czexovestz)" height="103.5313" id="org.eclipse.epf.uma.Process" style="stroke: #A80036; stroke-width: 1.5;" width="260" x="7" y="7"/><ellipse cx="86.75" cy="27.0938" fill="#B4A7E5" rx="11" ry="11" style="stroke: #A80036; stroke-width: 1.0;"/><path d="M87.7031,23.7344 L87.7031,30.3906 L89.4219,30.3906 Q90.0313,30.3906 90.2969,30.625 Q90.5625,30.8594 90.5625,31.25 Q90.5625,31.625 90.2969,31.8594 Q90.0313,32.0938 89.4219,32.0938 L84.2813,32.0938 Q83.6719,32.0938 83.4063,31.8594 Q83.1406,31.625 83.1406,31.2344 Q83.1406,30.8594 83.4063,30.625 Q83.6719,30.3906 84.2813,30.3906 L86,30.3906 L86,23.7344 L84.2813,23.7344 Q83.6719,23.7344 83.4063,23.5 Q83.1406,23.2656 83.1406,22.875 Q83.1406,22.5 83.4063,22.2656 Q83.6719,22.0313 84.2813,22.0313 L89.4219,22.0313 Q90.0313,22.0313 90.2969,22.2656 Q90.5625,22.5 90.5625,22.875 Q90.5625,23.2656 90.2969,23.5 Q90.0313,23.7344 89.4219,23.7344 L87.7031,23.7344 Z "/><text fill="#000000" font-family="sans-serif" font-size="14" font-style="italic" lengthAdjust="spacingAndGlyphs" textLength="51" x="127.75" y="26.5332">Process</text><text fill="#000000" font-family="sans-serif" font-size="10" font-style="italic" lengthAdjust="spacingAndGlyphs" textLength="92" x="107.25" y="39.9902">org.eclipse.epf.uma</text><line style="stroke: #A80036; stroke-width: 1.5;" x1="8" x2="266" y1="47.1875" y2="47.1875"/><ellipse cx="18" cy="58.1875" fill="#84BE84" rx="3" ry="3" style="stroke: #038048; stroke-width: 1.0;"/><text fill="#000000" font-family="sans-serif" font-size="11" font-style="italic" lengthAdjust="spacingAndGlyphs" textLength="234" x="27" y="62.6064">getIncludesPatterns(): EList&lt;CapabilityPattern&gt;</text><ellipse cx="18" cy="72.0234" fill="#84BE84" rx="3" ry="3" style="stroke: #038048; stroke-width: 1.0;"/><text fill="#000000" font-family="sans-serif" font-size="11" font-style="italic" lengthAdjust="spacingAndGlyphs" textLength="204" x="27" y="76.4424">getDefaultContext(): MethodConfiguration</text><ellipse cx="18" cy="85.8594" fill="#84BE84" rx="3" ry="3" style="stroke: #038048; stroke-width: 1.0;"/><text fill="#000000" font-family="sans-serif" font-size="11" font-style="italic" lengthAdjust="spacingAndGlyphs" textLength="224" x="27" y="90.2783">setDefaultContext(MethodConfiguration): void</text><ellipse cx="18" cy="99.6953" fill="#84BE84" rx="3" ry="3" style="stroke: #038048; stroke-width: 1.0;"/><text fill="#000000" font-family="sans-serif" font-size="11" font-style="italic" lengthAdjust="spacingAndGlyphs" textLength="231" x="27" y="104.1143">getValidContext(): EList&lt;MethodConfiguration&gt;</text></a><!--MD5=[c4be73394c58005d374117f024ae930d]
reverse link org.eclipse.epf.uma.Process to org.eclipse.epf.uma.ProcessPlanningTemplate--><path codeLine="16" d="M137,131.46 C137,145.36 137,159.22 137,170.86 " fill="none" id="org.eclipse.epf.uma.Process-backto-org.eclipse.epf.uma.ProcessPlanningTemplate" style="stroke: #A80036; stroke-width: 1.0;"/><polygon fill="none" points="130,131.3,137,111.3,144,131.3,130,131.3" style="stroke: #A80036; stroke-width: 1.0;"/><text fill="#888888" font-family="sans-serif" font-size="10" lengthAdjust="spacingAndGlyphs" textLength="190" x="39" y="256.4043">UMLDoclet 2.0.12, PlantUML 1.2020.16</text><!--MD5=[42d4841e23bdbb27f3f7cbb24d33147f]
@startuml
    set namespaceSeparator none
    hide empty fields
    hide empty methods

    interface "<size:14>ProcessPlanningTemplate\n<size:10>org.eclipse.epf.uma" as org.eclipse.epf.uma.ProcessPlanningTemplate [[ProcessPlanningTemplate.html]] {
        {abstract} +getBasedOnProcesses(): EList<Process>
    }

    interface "<size:14>Process\n<size:10>org.eclipse.epf.uma" as org.eclipse.epf.uma.Process [[Process.html]] {
        {abstract} +getIncludesPatterns(): EList<CapabilityPattern>
        {abstract} +getDefaultContext(): MethodConfiguration
        {abstract} +setDefaultContext(MethodConfiguration): void
        {abstract} +getValidContext(): EList<MethodConfiguration>
    }

    org.eclipse.epf.uma.Process <|- - org.eclipse.epf.uma.ProcessPlanningTemplate

    center footer UMLDoclet 2.0.12, PlantUML 1.2020.16
@enduml

PlantUML version 1.2020.16(Sun Aug 23 22:20:43 CEST 2020)
(APACHE source distribution)
Java Runtime: Java(TM) SE Runtime Environment
JVM: Java HotSpot(TM) 64-Bit Server VM
Default Encoding: Cp1252
Language: es
Country: ES
--></g></svg>