<?xml version="1.0" encoding="UTF-8" standalone="no"?><svg xmlns="http://www.w3.org/2000/svg" xmlns:xlink="http://www.w3.org/1999/xlink" contentScriptType="application/ecmascript" contentStyleType="text/css" height="338px" preserveAspectRatio="none" style="width:202px;height:338px;" version="1.1" viewBox="0 0 202 338" width="202px" zoomAndPan="magnify"><defs><filter height="300%" id="f8q8w3b13z98z" width="300%" x="-1" y="-1"><feGaussianBlur result="blurOut" stdDeviation="2.0"/><feColorMatrix in="blurOut" result="blurOut2" type="matrix" values="0 0 0 0 0 0 0 0 0 0 0 0 0 0 0 0 0 0 .4 0"/><feOffset dx="4.0" dy="4.0" in="blurOut2" result="blurOut3"/><feBlend in="SourceGraphic" in2="blurOut3" mode="normal"/></filter></defs><g><!--MD5=[1541848ff9002d7b0ad2c250899315bc]
class org.eclipse.epf.uma.ProcessDescription--><a href="ProcessDescription.html" target="_top" title="ProcessDescription.html" xlink:actuate="onRequest" xlink:href="ProcessDescription.html" xlink:show="new" xlink:title="ProcessDescription.html" xlink:type="simple"><rect codeLine="5" fill="#FEFECE" filter="url(#f8q8w3b13z98z)" height="103.5313" id="org.eclipse.epf.uma.ProcessDescription" style="stroke: #A80036; stroke-width: 1.5;" width="164" x="16" y="198"/><ellipse cx="35.5" cy="218.0938" fill="#B4A7E5" rx="11" ry="11" style="stroke: #A80036; stroke-width: 1.0;"/><path d="M36.4531,214.7344 L36.4531,221.3906 L38.1719,221.3906 Q38.7813,221.3906 39.0469,221.625 Q39.3125,221.8594 39.3125,222.25 Q39.3125,222.625 39.0469,222.8594 Q38.7813,223.0938 38.1719,223.0938 L33.0313,223.0938 Q32.4219,223.0938 32.1563,222.8594 Q31.8906,222.625 31.8906,222.2344 Q31.8906,221.8594 32.1563,221.625 Q32.4219,221.3906 33.0313,221.3906 L34.75,221.3906 L34.75,214.7344 L33.0313,214.7344 Q32.4219,214.7344 32.1563,214.5 Q31.8906,214.2656 31.8906,213.875 Q31.8906,213.5 32.1563,213.2656 Q32.4219,213.0313 33.0313,213.0313 L38.1719,213.0313 Q38.7813,213.0313 39.0469,213.2656 Q39.3125,213.5 39.3125,213.875 Q39.3125,214.2656 39.0469,214.5 Q38.7813,214.7344 38.1719,214.7344 L36.4531,214.7344 Z "/><text fill="#000000" font-family="sans-serif" font-size="14" font-style="italic" lengthAdjust="spacingAndGlyphs" textLength="122" x="50.5" y="217.5332">ProcessDescription</text><text fill="#000000" font-family="sans-serif" font-size="10" font-style="italic" lengthAdjust="spacingAndGlyphs" textLength="92" x="65.5" y="230.9902">org.eclipse.epf.uma</text><line style="stroke: #A80036; stroke-width: 1.5;" x1="17" x2="179" y1="238.1875" y2="238.1875"/><ellipse cx="27" cy="249.1875" fill="#84BE84" rx="3" ry="3" style="stroke: #038048; stroke-width: 1.0;"/><text fill="#000000" font-family="sans-serif" font-size="11" font-style="italic" lengthAdjust="spacingAndGlyphs" textLength="89" x="36" y="253.6064">getScope(): String</text><ellipse cx="27" cy="263.0234" fill="#84BE84" rx="3" ry="3" style="stroke: #038048; stroke-width: 1.0;"/><text fill="#000000" font-family="sans-serif" font-size="11" font-style="italic" lengthAdjust="spacingAndGlyphs" textLength="109" x="36" y="267.4424">setScope(String): void</text><ellipse cx="27" cy="276.8594" fill="#84BE84" rx="3" ry="3" style="stroke: #038048; stroke-width: 1.0;"/><text fill="#000000" font-family="sans-serif" font-size="11" font-style="italic" lengthAdjust="spacingAndGlyphs" textLength="118" x="36" y="281.2783">getUsageNotes(): String</text><ellipse cx="27" cy="290.6953" fill="#84BE84" rx="3" ry="3" style="stroke: #038048; stroke-width: 1.0;"/><text fill="#000000" font-family="sans-serif" font-size="11" font-style="italic" lengthAdjust="spacingAndGlyphs" textLength="138" x="36" y="295.1143">setUsageNotes(String): void</text></a><!--MD5=[9affc0b34ba543bb86815626ec1d49a7]
class org.eclipse.epf.uma.ActivityDescription--><a href="ActivityDescription.html" target="_top" title="ActivityDescription.html" xlink:actuate="onRequest" xlink:href="ActivityDescription.html" xlink:show="new" xlink:title="ActivityDescription.html" xlink:type="simple"><rect codeLine="12" fill="#FEFECE" filter="url(#f8q8w3b13z98z)" height="131.2031" id="org.eclipse.epf.uma.ActivityDescription" style="stroke: #A80036; stroke-width: 1.5;" width="162" x="17" y="7"/><ellipse cx="39.2" cy="27.0938" fill="#B4A7E5" rx="11" ry="11" style="stroke: #A80036; stroke-width: 1.0;"/><path d="M40.1531,23.7344 L40.1531,30.3906 L41.8719,30.3906 Q42.4813,30.3906 42.7469,30.625 Q43.0125,30.8594 43.0125,31.25 Q43.0125,31.625 42.7469,31.8594 Q42.4813,32.0938 41.8719,32.0938 L36.7313,32.0938 Q36.1219,32.0938 35.8563,31.8594 Q35.5906,31.625 35.5906,31.2344 Q35.5906,30.8594 35.8563,30.625 Q36.1219,30.3906 36.7313,30.3906 L38.45,30.3906 L38.45,23.7344 L36.7313,23.7344 Q36.1219,23.7344 35.8563,23.5 Q35.5906,23.2656 35.5906,22.875 Q35.5906,22.5 35.8563,22.2656 Q36.1219,22.0313 36.7313,22.0313 L41.8719,22.0313 Q42.4813,22.0313 42.7469,22.2656 Q43.0125,22.5 43.0125,22.875 Q43.0125,23.2656 42.7469,23.5 Q42.4813,23.7344 41.8719,23.7344 L40.1531,23.7344 Z "/><text fill="#000000" font-family="sans-serif" font-size="14" font-style="italic" lengthAdjust="spacingAndGlyphs" textLength="114" x="54.8" y="26.5332">ActivityDescription</text><text fill="#000000" font-family="sans-serif" font-size="10" font-style="italic" lengthAdjust="spacingAndGlyphs" textLength="92" x="65.8" y="39.9902">org.eclipse.epf.uma</text><line style="stroke: #A80036; stroke-width: 1.5;" x1="18" x2="178" y1="47.1875" y2="47.1875"/><ellipse cx="28" cy="58.1875" fill="#84BE84" rx="3" ry="3" style="stroke: #038048; stroke-width: 1.0;"/><text fill="#000000" font-family="sans-serif" font-size="11" font-style="italic" lengthAdjust="spacingAndGlyphs" textLength="99" x="37" y="62.6064">getPurpose(): String</text><ellipse cx="28" cy="72.0234" fill="#84BE84" rx="3" ry="3" style="stroke: #038048; stroke-width: 1.0;"/><text fill="#000000" font-family="sans-serif" font-size="11" font-style="italic" lengthAdjust="spacingAndGlyphs" textLength="119" x="37" y="76.4424">setPurpose(String): void</text><ellipse cx="28" cy="85.8594" fill="#84BE84" rx="3" ry="3" style="stroke: #038048; stroke-width: 1.0;"/><text fill="#000000" font-family="sans-serif" font-size="11" font-style="italic" lengthAdjust="spacingAndGlyphs" textLength="116" x="37" y="90.2783">getAlternatives(): String</text><ellipse cx="28" cy="99.6953" fill="#84BE84" rx="3" ry="3" style="stroke: #038048; stroke-width: 1.0;"/><text fill="#000000" font-family="sans-serif" font-size="11" font-style="italic" lengthAdjust="spacingAndGlyphs" textLength="136" x="37" y="104.1143">setAlternatives(String): void</text><ellipse cx="28" cy="113.5313" fill="#84BE84" rx="3" ry="3" style="stroke: #038048; stroke-width: 1.0;"/><text fill="#000000" font-family="sans-serif" font-size="11" font-style="italic" lengthAdjust="spacingAndGlyphs" textLength="110" x="37" y="117.9502">getHowtoStaff(): String</text><ellipse cx="28" cy="127.3672" fill="#84BE84" rx="3" ry="3" style="stroke: #038048; stroke-width: 1.0;"/><text fill="#000000" font-family="sans-serif" font-size="11" font-style="italic" lengthAdjust="spacingAndGlyphs" textLength="130" x="37" y="131.7861">setHowtoStaff(String): void</text></a><!--MD5=[7263ed547cf283837c942f24931703b5]
reverse link org.eclipse.epf.uma.ActivityDescription to org.eclipse.epf.uma.ProcessDescription--><path codeLine="21" d="M98,158.52 C98,171.97 98,185.49 98,197.84 " fill="none" id="org.eclipse.epf.uma.ActivityDescription-backto-org.eclipse.epf.uma.ProcessDescription" style="stroke: #A80036; stroke-width: 1.0;"/><polygon fill="none" points="91,158.35,98,138.35,105,158.35,91,158.35" style="stroke: #A80036; stroke-width: 1.0;"/><text fill="#888888" font-family="sans-serif" font-size="10" lengthAdjust="spacingAndGlyphs" textLength="190" x="0" y="324.9121">UMLDoclet 2.0.12, PlantUML 1.2020.16</text><!--MD5=[ef914ad6f69c119223c13b8d7d31fec1]
@startuml
    set namespaceSeparator none
    hide empty fields
    hide empty methods

    interface "<size:14>ProcessDescription\n<size:10>org.eclipse.epf.uma" as org.eclipse.epf.uma.ProcessDescription [[ProcessDescription.html]] {
        {abstract} +getScope(): String
        {abstract} +setScope(String): void
        {abstract} +getUsageNotes(): String
        {abstract} +setUsageNotes(String): void
    }

    interface "<size:14>ActivityDescription\n<size:10>org.eclipse.epf.uma" as org.eclipse.epf.uma.ActivityDescription [[ActivityDescription.html]] {
        {abstract} +getPurpose(): String
        {abstract} +setPurpose(String): void
        {abstract} +getAlternatives(): String
        {abstract} +setAlternatives(String): void
        {abstract} +getHowtoStaff(): String
        {abstract} +setHowtoStaff(String): void
    }

    org.eclipse.epf.uma.ActivityDescription <|- - org.eclipse.epf.uma.ProcessDescription

    center footer UMLDoclet 2.0.12, PlantUML 1.2020.16
@enduml

PlantUML version 1.2020.16(Sun Aug 23 22:20:43 CEST 2020)
(APACHE source distribution)
Java Runtime: Java(TM) SE Runtime Environment
JVM: Java HotSpot(TM) 64-Bit Server VM
Default Encoding: Cp1252
Language: es
Country: ES
--></g></svg>