<?xml version="1.0" encoding="UTF-8" standalone="no"?><svg xmlns="http://www.w3.org/2000/svg" xmlns:xlink="http://www.w3.org/1999/xlink" contentScriptType="application/ecmascript" contentStyleType="text/css" height="283px" preserveAspectRatio="none" style="width:286px;height:283px;" version="1.1" viewBox="0 0 286 283" width="286px" zoomAndPan="magnify"><defs><filter height="300%" id="f14mcd5hhrkvub" width="300%" x="-1" y="-1"><feGaussianBlur result="blurOut" stdDeviation="2.0"/><feColorMatrix in="blurOut" result="blurOut2" type="matrix" values="0 0 0 0 0 0 0 0 0 0 0 0 0 0 0 0 0 0 .4 0"/><feOffset dx="4.0" dy="4.0" in="blurOut2" result="blurOut3"/><feBlend in="SourceGraphic" in2="blurOut3" mode="normal"/></filter></defs><g><!--MD5=[90d16350ef0828c72767a5512346de98]
class org.eclipse.epf.uma.ProcessPackage--><a href="ProcessPackage.html" target="_top" title="ProcessPackage.html" xlink:actuate="onRequest" xlink:href="ProcessPackage.html" xlink:show="new" xlink:title="ProcessPackage.html" xlink:type="simple"><rect codeLine="5" fill="#FEFECE" filter="url(#f14mcd5hhrkvub)" height="75.8594" id="org.eclipse.epf.uma.ProcessPackage" style="stroke: #A80036; stroke-width: 1.5;" width="260" x="7" y="171"/><ellipse cx="79.25" cy="191.0938" fill="#B4A7E5" rx="11" ry="11" style="stroke: #A80036; stroke-width: 1.0;"/><path d="M80.2031,187.7344 L80.2031,194.3906 L81.9219,194.3906 Q82.5313,194.3906 82.7969,194.625 Q83.0625,194.8594 83.0625,195.25 Q83.0625,195.625 82.7969,195.8594 Q82.5313,196.0938 81.9219,196.0938 L76.7813,196.0938 Q76.1719,196.0938 75.9063,195.8594 Q75.6406,195.625 75.6406,195.2344 Q75.6406,194.8594 75.9063,194.625 Q76.1719,194.3906 76.7813,194.3906 L78.5,194.3906 L78.5,187.7344 L76.7813,187.7344 Q76.1719,187.7344 75.9063,187.5 Q75.6406,187.2656 75.6406,186.875 Q75.6406,186.5 75.9063,186.2656 Q76.1719,186.0313 76.7813,186.0313 L81.9219,186.0313 Q82.5313,186.0313 82.7969,186.2656 Q83.0625,186.5 83.0625,186.875 Q83.0625,187.2656 82.7969,187.5 Q82.5313,187.7344 81.9219,187.7344 L80.2031,187.7344 Z "/><text fill="#000000" font-family="sans-serif" font-size="14" font-style="italic" lengthAdjust="spacingAndGlyphs" textLength="107" x="99.75" y="190.5332">ProcessPackage</text><text fill="#000000" font-family="sans-serif" font-size="10" font-style="italic" lengthAdjust="spacingAndGlyphs" textLength="92" x="107.25" y="203.9902">org.eclipse.epf.uma</text><line style="stroke: #A80036; stroke-width: 1.5;" x1="8" x2="266" y1="211.1875" y2="211.1875"/><ellipse cx="18" cy="222.1875" fill="#84BE84" rx="3" ry="3" style="stroke: #038048; stroke-width: 1.0;"/><text fill="#000000" font-family="sans-serif" font-size="11" font-style="italic" lengthAdjust="spacingAndGlyphs" textLength="234" x="27" y="226.6064">getProcessElements(): EList&lt;ProcessElement&gt;</text><ellipse cx="18" cy="236.0234" fill="#84BE84" rx="3" ry="3" style="stroke: #038048; stroke-width: 1.0;"/><text fill="#000000" font-family="sans-serif" font-size="11" font-style="italic" lengthAdjust="spacingAndGlyphs" textLength="156" x="27" y="240.4424">getDiagrams(): EList&lt;Diagram&gt;</text></a><!--MD5=[cba0e335ae3b4d789e4e1c56bc0cc12a]
class org.eclipse.epf.uma.MethodPackage--><a href="MethodPackage.html" target="_top" title="MethodPackage.html" xlink:actuate="onRequest" xlink:href="MethodPackage.html" xlink:show="new" xlink:title="MethodPackage.html" xlink:type="simple"><rect codeLine="10" fill="#FEFECE" filter="url(#f14mcd5hhrkvub)" height="103.5313" id="org.eclipse.epf.uma.MethodPackage" style="stroke: #A80036; stroke-width: 1.5;" width="258" x="8" y="7"/><ellipse cx="80.75" cy="27.0938" fill="#B4A7E5" rx="11" ry="11" style="stroke: #A80036; stroke-width: 1.0;"/><path d="M81.7031,23.7344 L81.7031,30.3906 L83.4219,30.3906 Q84.0313,30.3906 84.2969,30.625 Q84.5625,30.8594 84.5625,31.25 Q84.5625,31.625 84.2969,31.8594 Q84.0313,32.0938 83.4219,32.0938 L78.2813,32.0938 Q77.6719,32.0938 77.4063,31.8594 Q77.1406,31.625 77.1406,31.2344 Q77.1406,30.8594 77.4063,30.625 Q77.6719,30.3906 78.2813,30.3906 L80,30.3906 L80,23.7344 L78.2813,23.7344 Q77.6719,23.7344 77.4063,23.5 Q77.1406,23.2656 77.1406,22.875 Q77.1406,22.5 77.4063,22.2656 Q77.6719,22.0313 78.2813,22.0313 L83.4219,22.0313 Q84.0313,22.0313 84.2969,22.2656 Q84.5625,22.5 84.5625,22.875 Q84.5625,23.2656 84.2969,23.5 Q84.0313,23.7344 83.4219,23.7344 L81.7031,23.7344 Z "/><text fill="#000000" font-family="sans-serif" font-size="14" font-style="italic" lengthAdjust="spacingAndGlyphs" textLength="104" x="101.25" y="26.5332">MethodPackage</text><text fill="#000000" font-family="sans-serif" font-size="10" font-style="italic" lengthAdjust="spacingAndGlyphs" textLength="92" x="107.25" y="39.9902">org.eclipse.epf.uma</text><line style="stroke: #A80036; stroke-width: 1.5;" x1="9" x2="265" y1="47.1875" y2="47.1875"/><ellipse cx="19" cy="58.1875" fill="#84BE84" rx="3" ry="3" style="stroke: #038048; stroke-width: 1.0;"/><text fill="#000000" font-family="sans-serif" font-size="11" font-style="italic" lengthAdjust="spacingAndGlyphs" textLength="103" x="28" y="62.6064">getGlobal(): Boolean</text><ellipse cx="19" cy="72.0234" fill="#84BE84" rx="3" ry="3" style="stroke: #038048; stroke-width: 1.0;"/><text fill="#000000" font-family="sans-serif" font-size="11" font-style="italic" lengthAdjust="spacingAndGlyphs" textLength="123" x="28" y="76.4424">setGlobal(Boolean): void</text><ellipse cx="19" cy="85.8594" fill="#84BE84" rx="3" ry="3" style="stroke: #038048; stroke-width: 1.0;"/><text fill="#000000" font-family="sans-serif" font-size="11" font-style="italic" lengthAdjust="spacingAndGlyphs" textLength="232" x="28" y="90.2783">getReusedPackages(): EList&lt;MethodPackage&gt;</text><ellipse cx="19" cy="99.6953" fill="#84BE84" rx="3" ry="3" style="stroke: #038048; stroke-width: 1.0;"/><text fill="#000000" font-family="sans-serif" font-size="11" font-style="italic" lengthAdjust="spacingAndGlyphs" textLength="220" x="28" y="104.1143">getChildPackages(): EList&lt;MethodPackage&gt;</text></a><!--MD5=[00746c5c280b60e2214c392c974d0bd4]
reverse link org.eclipse.epf.uma.MethodPackage to org.eclipse.epf.uma.ProcessPackage--><path codeLine="17" d="M137,131.59 C137,145.14 137,158.79 137,170.74 " fill="none" id="org.eclipse.epf.uma.MethodPackage-backto-org.eclipse.epf.uma.ProcessPackage" style="stroke: #A80036; stroke-width: 1.0;"/><polygon fill="none" points="130,131.35,137,111.35,144,131.35,130,131.35" style="stroke: #A80036; stroke-width: 1.0;"/><text fill="#888888" font-family="sans-serif" font-size="10" lengthAdjust="spacingAndGlyphs" textLength="190" x="39" y="270.2402">UMLDoclet 2.0.12, PlantUML 1.2020.16</text><!--MD5=[8e836db2b2dcd26624fa996010fc4c3d]
@startuml
    set namespaceSeparator none
    hide empty fields
    hide empty methods

    interface "<size:14>ProcessPackage\n<size:10>org.eclipse.epf.uma" as org.eclipse.epf.uma.ProcessPackage [[ProcessPackage.html]] {
        {abstract} +getProcessElements(): EList<ProcessElement>
        {abstract} +getDiagrams(): EList<Diagram>
    }

    interface "<size:14>MethodPackage\n<size:10>org.eclipse.epf.uma" as org.eclipse.epf.uma.MethodPackage [[MethodPackage.html]] {
        {abstract} +getGlobal(): Boolean
        {abstract} +setGlobal(Boolean): void
        {abstract} +getReusedPackages(): EList<MethodPackage>
        {abstract} +getChildPackages(): EList<MethodPackage>
    }

    org.eclipse.epf.uma.MethodPackage <|- - org.eclipse.epf.uma.ProcessPackage

    center footer UMLDoclet 2.0.12, PlantUML 1.2020.16
@enduml

PlantUML version 1.2020.16(Sun Aug 23 22:20:43 CEST 2020)
(APACHE source distribution)
Java Runtime: Java(TM) SE Runtime Environment
JVM: Java HotSpot(TM) 64-Bit Server VM
Default Encoding: Cp1252
Language: es
Country: ES
--></g></svg>