<?xml version="1.0" encoding="UTF-8" standalone="no"?><svg xmlns="http://www.w3.org/2000/svg" xmlns:xlink="http://www.w3.org/1999/xlink" contentScriptType="application/ecmascript" contentStyleType="text/css" height="324px" preserveAspectRatio="none" style="width:322px;height:324px;" version="1.1" viewBox="0 0 322 324" width="322px" zoomAndPan="magnify"><defs><filter height="300%" id="f1n8dhmh74x4sp" width="300%" x="-1" y="-1"><feGaussianBlur result="blurOut" stdDeviation="2.0"/><feColorMatrix in="blurOut" result="blurOut2" type="matrix" values="0 0 0 0 0 0 0 0 0 0 0 0 0 0 0 0 0 0 .4 0"/><feOffset dx="4.0" dy="4.0" in="blurOut2" result="blurOut3"/><feBlend in="SourceGraphic" in2="blurOut3" mode="normal"/></filter></defs><g><!--MD5=[04b8faa8493533376a712271526e7de5]
class org.eclipse.epf.uma.ProcessFamily--><a href="ProcessFamily.html" target="_top" title="ProcessFamily.html" xlink:actuate="onRequest" xlink:href="ProcessFamily.html" xlink:show="new" xlink:title="ProcessFamily.html" xlink:type="simple"><rect codeLine="5" fill="#FEFECE" filter="url(#f1n8dhmh74x4sp)" height="62.0234" id="org.eclipse.epf.uma.ProcessFamily" style="stroke: #A80036; stroke-width: 1.5;" width="266" x="22" y="226"/><ellipse cx="104.75" cy="246.0938" fill="#B4A7E5" rx="11" ry="11" style="stroke: #A80036; stroke-width: 1.0;"/><path d="M105.7031,242.7344 L105.7031,249.3906 L107.4219,249.3906 Q108.0313,249.3906 108.2969,249.625 Q108.5625,249.8594 108.5625,250.25 Q108.5625,250.625 108.2969,250.8594 Q108.0313,251.0938 107.4219,251.0938 L102.2813,251.0938 Q101.6719,251.0938 101.4063,250.8594 Q101.1406,250.625 101.1406,250.2344 Q101.1406,249.8594 101.4063,249.625 Q101.6719,249.3906 102.2813,249.3906 L104,249.3906 L104,242.7344 L102.2813,242.7344 Q101.6719,242.7344 101.4063,242.5 Q101.1406,242.2656 101.1406,241.875 Q101.1406,241.5 101.4063,241.2656 Q101.6719,241.0313 102.2813,241.0313 L107.4219,241.0313 Q108.0313,241.0313 108.2969,241.2656 Q108.5625,241.5 108.5625,241.875 Q108.5625,242.2656 108.2969,242.5 Q108.0313,242.7344 107.4219,242.7344 L105.7031,242.7344 Z "/><text fill="#000000" font-family="sans-serif" font-size="14" font-style="italic" lengthAdjust="spacingAndGlyphs" textLength="92" x="125.25" y="245.5332">ProcessFamily</text><text fill="#000000" font-family="sans-serif" font-size="10" font-style="italic" lengthAdjust="spacingAndGlyphs" textLength="92" x="125.25" y="258.9902">org.eclipse.epf.uma</text><line style="stroke: #A80036; stroke-width: 1.5;" x1="23" x2="287" y1="266.1875" y2="266.1875"/><ellipse cx="33" cy="277.1875" fill="#84BE84" rx="3" ry="3" style="stroke: #038048; stroke-width: 1.0;"/><text fill="#000000" font-family="sans-serif" font-size="11" font-style="italic" lengthAdjust="spacingAndGlyphs" textLength="240" x="42" y="281.6064">getDeliveryProcesses(): EList&lt;DeliveryProcess&gt;</text></a><!--MD5=[d36cb2c5a4e3a354a730c76f79329bdc]
class org.eclipse.epf.uma.MethodConfiguration--><a href="MethodConfiguration.html" target="_top" title="MethodConfiguration.html" xlink:actuate="onRequest" xlink:href="MethodConfiguration.html" xlink:show="new" xlink:title="MethodConfiguration.html" xlink:type="simple"><rect codeLine="9" fill="#FEFECE" filter="url(#f1n8dhmh74x4sp)" height="158.875" id="org.eclipse.epf.uma.MethodConfiguration" style="stroke: #A80036; stroke-width: 1.5;" width="296" x="7" y="7"/><ellipse cx="84.25" cy="27.0938" fill="#B4A7E5" rx="11" ry="11" style="stroke: #A80036; stroke-width: 1.0;"/><path d="M85.2031,23.7344 L85.2031,30.3906 L86.9219,30.3906 Q87.5313,30.3906 87.7969,30.625 Q88.0625,30.8594 88.0625,31.25 Q88.0625,31.625 87.7969,31.8594 Q87.5313,32.0938 86.9219,32.0938 L81.7813,32.0938 Q81.1719,32.0938 80.9063,31.8594 Q80.6406,31.625 80.6406,31.2344 Q80.6406,30.8594 80.9063,30.625 Q81.1719,30.3906 81.7813,30.3906 L83.5,30.3906 L83.5,23.7344 L81.7813,23.7344 Q81.1719,23.7344 80.9063,23.5 Q80.6406,23.2656 80.6406,22.875 Q80.6406,22.5 80.9063,22.2656 Q81.1719,22.0313 81.7813,22.0313 L86.9219,22.0313 Q87.5313,22.0313 87.7969,22.2656 Q88.0625,22.5 88.0625,22.875 Q88.0625,23.2656 87.7969,23.5 Q87.5313,23.7344 86.9219,23.7344 L85.2031,23.7344 Z "/><text fill="#000000" font-family="sans-serif" font-size="14" font-style="italic" lengthAdjust="spacingAndGlyphs" textLength="133" x="104.75" y="26.5332">MethodConfiguration</text><text fill="#000000" font-family="sans-serif" font-size="10" font-style="italic" lengthAdjust="spacingAndGlyphs" textLength="92" x="125.25" y="39.9902">org.eclipse.epf.uma</text><line style="stroke: #A80036; stroke-width: 1.5;" x1="8" x2="302" y1="47.1875" y2="47.1875"/><ellipse cx="18" cy="58.1875" fill="#84BE84" rx="3" ry="3" style="stroke: #038048; stroke-width: 1.0;"/><text fill="#000000" font-family="sans-serif" font-size="11" font-style="italic" lengthAdjust="spacingAndGlyphs" textLength="246" x="27" y="62.6064">getMethodPluginSelection(): EList&lt;MethodPlugin&gt;</text><ellipse cx="18" cy="72.0234" fill="#84BE84" rx="3" ry="3" style="stroke: #038048; stroke-width: 1.0;"/><text fill="#000000" font-family="sans-serif" font-size="11" font-style="italic" lengthAdjust="spacingAndGlyphs" textLength="270" x="27" y="76.4424">getMethodPackageSelection(): EList&lt;MethodPackage&gt;</text><ellipse cx="18" cy="85.8594" fill="#84BE84" rx="3" ry="3" style="stroke: #038048; stroke-width: 1.0;"/><text fill="#000000" font-family="sans-serif" font-size="11" font-style="italic" lengthAdjust="spacingAndGlyphs" textLength="218" x="27" y="90.2783">getProcessViews(): EList&lt;ContentCategory&gt;</text><ellipse cx="18" cy="99.6953" fill="#84BE84" rx="3" ry="3" style="stroke: #038048; stroke-width: 1.0;"/><text fill="#000000" font-family="sans-serif" font-size="11" font-style="italic" lengthAdjust="spacingAndGlyphs" textLength="169" x="27" y="104.1143">getDefaultView(): ContentCategory</text><ellipse cx="18" cy="113.5313" fill="#84BE84" rx="3" ry="3" style="stroke: #038048; stroke-width: 1.0;"/><text fill="#000000" font-family="sans-serif" font-size="11" font-style="italic" lengthAdjust="spacingAndGlyphs" textLength="189" x="27" y="117.9502">setDefaultView(ContentCategory): void</text><ellipse cx="18" cy="127.3672" fill="#84BE84" rx="3" ry="3" style="stroke: #038048; stroke-width: 1.0;"/><text fill="#000000" font-family="sans-serif" font-size="11" font-style="italic" lengthAdjust="spacingAndGlyphs" textLength="265" x="27" y="131.7861">getBaseConfigurations(): EList&lt;MethodConfiguration&gt;</text><ellipse cx="18" cy="141.2031" fill="#84BE84" rx="3" ry="3" style="stroke: #038048; stroke-width: 1.0;"/><text fill="#000000" font-family="sans-serif" font-size="11" font-style="italic" lengthAdjust="spacingAndGlyphs" textLength="246" x="27" y="145.6221">getSubtractedCategory(): EList&lt;ContentCategory&gt;</text><ellipse cx="18" cy="155.0391" fill="#84BE84" rx="3" ry="3" style="stroke: #038048; stroke-width: 1.0;"/><text fill="#000000" font-family="sans-serif" font-size="11" font-style="italic" lengthAdjust="spacingAndGlyphs" textLength="223" x="27" y="159.458">getAddedCategory(): EList&lt;ContentCategory&gt;</text></a><!--MD5=[32df5fa0ba82cf9887562a26dce41f64]
reverse link org.eclipse.epf.uma.MethodConfiguration to org.eclipse.epf.uma.ProcessFamily--><path codeLine="20" d="M155,186.54 C155,200.69 155,214.26 155,225.6 " fill="none" id="org.eclipse.epf.uma.MethodConfiguration-backto-org.eclipse.epf.uma.ProcessFamily" style="stroke: #A80036; stroke-width: 1.0;"/><polygon fill="none" points="148,186.32,155,166.32,162,186.32,148,186.32" style="stroke: #A80036; stroke-width: 1.0;"/><text fill="#888888" font-family="sans-serif" font-size="10" lengthAdjust="spacingAndGlyphs" textLength="190" x="57" y="311.4043">UMLDoclet 2.0.12, PlantUML 1.2020.16</text><!--MD5=[5b3f824a4f570307e15760b9c0b0bb1b]
@startuml
    set namespaceSeparator none
    hide empty fields
    hide empty methods

    interface "<size:14>ProcessFamily\n<size:10>org.eclipse.epf.uma" as org.eclipse.epf.uma.ProcessFamily [[ProcessFamily.html]] {
        {abstract} +getDeliveryProcesses(): EList<DeliveryProcess>
    }

    interface "<size:14>MethodConfiguration\n<size:10>org.eclipse.epf.uma" as org.eclipse.epf.uma.MethodConfiguration [[MethodConfiguration.html]] {
        {abstract} +getMethodPluginSelection(): EList<MethodPlugin>
        {abstract} +getMethodPackageSelection(): EList<MethodPackage>
        {abstract} +getProcessViews(): EList<ContentCategory>
        {abstract} +getDefaultView(): ContentCategory
        {abstract} +setDefaultView(ContentCategory): void
        {abstract} +getBaseConfigurations(): EList<MethodConfiguration>
        {abstract} +getSubtractedCategory(): EList<ContentCategory>
        {abstract} +getAddedCategory(): EList<ContentCategory>
    }

    org.eclipse.epf.uma.MethodConfiguration <|- - org.eclipse.epf.uma.ProcessFamily

    center footer UMLDoclet 2.0.12, PlantUML 1.2020.16
@enduml

PlantUML version 1.2020.16(Sun Aug 23 22:20:43 CEST 2020)
(APACHE source distribution)
Java Runtime: Java(TM) SE Runtime Environment
JVM: Java HotSpot(TM) 64-Bit Server VM
Default Encoding: Cp1252
Language: es
Country: ES
--></g></svg>