<?xml version="1.0" encoding="UTF-8" standalone="no"?><svg xmlns="http://www.w3.org/2000/svg" xmlns:xlink="http://www.w3.org/1999/xlink" contentScriptType="application/ecmascript" contentStyleType="text/css" height="275px" preserveAspectRatio="none" style="width:258px;height:275px;" version="1.1" viewBox="0 0 258 275" width="258px" zoomAndPan="magnify"><defs><filter height="300%" id="fp7qurqvv8ylw" width="300%" x="-1" y="-1"><feGaussianBlur result="blurOut" stdDeviation="2.0"/><feColorMatrix in="blurOut" result="blurOut2" type="matrix" values="0 0 0 0 0 0 0 0 0 0 0 0 0 0 0 0 0 0 .4 0"/><feOffset dx="4.0" dy="4.0" in="blurOut2" result="blurOut3"/><feBlend in="SourceGraphic" in2="blurOut3" mode="normal"/></filter></defs><g><!--MD5=[639d29844b240ded2a28a02d67e09f6d]
class org.eclipse.epf.uma.ProcessElement--><a href="ProcessElement.html" target="_top" title="ProcessElement.html" xlink:actuate="onRequest" xlink:href="ProcessElement.html" xlink:show="new" xlink:title="ProcessElement.html" xlink:type="simple"><rect codeLine="5" fill="#FEFECE" filter="url(#fp7qurqvv8ylw)" height="40.1875" id="org.eclipse.epf.uma.ProcessElement" style="stroke: #A80036; stroke-width: 1.5;" width="134" x="56" y="198"/><ellipse cx="71" cy="218.0938" fill="#B4A7E5" rx="11" ry="11" style="stroke: #A80036; stroke-width: 1.0;"/><path d="M71.9531,214.7344 L71.9531,221.3906 L73.6719,221.3906 Q74.2813,221.3906 74.5469,221.625 Q74.8125,221.8594 74.8125,222.25 Q74.8125,222.625 74.5469,222.8594 Q74.2813,223.0938 73.6719,223.0938 L68.5313,223.0938 Q67.9219,223.0938 67.6563,222.8594 Q67.3906,222.625 67.3906,222.2344 Q67.3906,221.8594 67.6563,221.625 Q67.9219,221.3906 68.5313,221.3906 L70.25,221.3906 L70.25,214.7344 L68.5313,214.7344 Q67.9219,214.7344 67.6563,214.5 Q67.3906,214.2656 67.3906,213.875 Q67.3906,213.5 67.6563,213.2656 Q67.9219,213.0313 68.5313,213.0313 L73.6719,213.0313 Q74.2813,213.0313 74.5469,213.2656 Q74.8125,213.5 74.8125,213.875 Q74.8125,214.2656 74.5469,214.5 Q74.2813,214.7344 73.6719,214.7344 L71.9531,214.7344 Z "/><text fill="#000000" font-family="sans-serif" font-size="14" font-style="italic" lengthAdjust="spacingAndGlyphs" textLength="102" x="85" y="217.5332">ProcessElement</text><text fill="#000000" font-family="sans-serif" font-size="10" font-style="italic" lengthAdjust="spacingAndGlyphs" textLength="92" x="90" y="230.9902">org.eclipse.epf.uma</text></a><!--MD5=[f4ee302b1aabe817dbe53b02b19666f1]
class org.eclipse.epf.uma.DescribableElement--><a href="DescribableElement.html" target="_top" title="DescribableElement.html" xlink:actuate="onRequest" xlink:href="DescribableElement.html" xlink:show="new" xlink:title="DescribableElement.html" xlink:type="simple"><rect codeLine="7" fill="#FEFECE" filter="url(#fp7qurqvv8ylw)" height="131.2031" id="org.eclipse.epf.uma.DescribableElement" style="stroke: #A80036; stroke-width: 1.5;" width="232" x="7" y="7"/><ellipse cx="55.75" cy="27.0938" fill="#B4A7E5" rx="11" ry="11" style="stroke: #A80036; stroke-width: 1.0;"/><path d="M56.7031,23.7344 L56.7031,30.3906 L58.4219,30.3906 Q59.0313,30.3906 59.2969,30.625 Q59.5625,30.8594 59.5625,31.25 Q59.5625,31.625 59.2969,31.8594 Q59.0313,32.0938 58.4219,32.0938 L53.2813,32.0938 Q52.6719,32.0938 52.4063,31.8594 Q52.1406,31.625 52.1406,31.2344 Q52.1406,30.8594 52.4063,30.625 Q52.6719,30.3906 53.2813,30.3906 L55,30.3906 L55,23.7344 L53.2813,23.7344 Q52.6719,23.7344 52.4063,23.5 Q52.1406,23.2656 52.1406,22.875 Q52.1406,22.5 52.4063,22.2656 Q52.6719,22.0313 53.2813,22.0313 L58.4219,22.0313 Q59.0313,22.0313 59.2969,22.2656 Q59.5625,22.5 59.5625,22.875 Q59.5625,23.2656 59.2969,23.5 Q59.0313,23.7344 58.4219,23.7344 L56.7031,23.7344 Z "/><text fill="#000000" font-family="sans-serif" font-size="14" font-style="italic" lengthAdjust="spacingAndGlyphs" textLength="126" x="76.25" y="26.5332">DescribableElement</text><text fill="#000000" font-family="sans-serif" font-size="10" font-style="italic" lengthAdjust="spacingAndGlyphs" textLength="92" x="93.25" y="39.9902">org.eclipse.epf.uma</text><line style="stroke: #A80036; stroke-width: 1.5;" x1="8" x2="238" y1="47.1875" y2="47.1875"/><ellipse cx="18" cy="58.1875" fill="#84BE84" rx="3" ry="3" style="stroke: #038048; stroke-width: 1.0;"/><text fill="#000000" font-family="sans-serif" font-size="11" font-style="italic" lengthAdjust="spacingAndGlyphs" textLength="186" x="27" y="62.6064">getPresentation(): ContentDescription</text><ellipse cx="18" cy="72.0234" fill="#84BE84" rx="3" ry="3" style="stroke: #038048; stroke-width: 1.0;"/><text fill="#000000" font-family="sans-serif" font-size="11" font-style="italic" lengthAdjust="spacingAndGlyphs" textLength="206" x="27" y="76.4424">setPresentation(ContentDescription): void</text><ellipse cx="18" cy="85.8594" fill="#84BE84" rx="3" ry="3" style="stroke: #038048; stroke-width: 1.0;"/><text fill="#000000" font-family="sans-serif" font-size="11" font-style="italic" lengthAdjust="spacingAndGlyphs" textLength="99" x="27" y="90.2783">getShapeicon(): URI</text><ellipse cx="18" cy="99.6953" fill="#84BE84" rx="3" ry="3" style="stroke: #038048; stroke-width: 1.0;"/><text fill="#000000" font-family="sans-serif" font-size="11" font-style="italic" lengthAdjust="spacingAndGlyphs" textLength="119" x="27" y="104.1143">setShapeicon(URI): void</text><ellipse cx="18" cy="113.5313" fill="#84BE84" rx="3" ry="3" style="stroke: #038048; stroke-width: 1.0;"/><text fill="#000000" font-family="sans-serif" font-size="11" font-style="italic" lengthAdjust="spacingAndGlyphs" textLength="94" x="27" y="117.9502">getNodeicon(): URI</text><ellipse cx="18" cy="127.3672" fill="#84BE84" rx="3" ry="3" style="stroke: #038048; stroke-width: 1.0;"/><text fill="#000000" font-family="sans-serif" font-size="11" font-style="italic" lengthAdjust="spacingAndGlyphs" textLength="114" x="27" y="131.7861">setNodeicon(URI): void</text></a><!--MD5=[f9193e6811633e9cf04459803d87e77b]
reverse link org.eclipse.epf.uma.DescribableElement to org.eclipse.epf.uma.ProcessElement--><path codeLine="16" d="M123,158.24 C123,173.1 123,187.2 123,197.85 " fill="none" id="org.eclipse.epf.uma.DescribableElement-backto-org.eclipse.epf.uma.ProcessElement" style="stroke: #A80036; stroke-width: 1.0;"/><polygon fill="none" points="116,158.11,123,138.11,130,158.11,116,158.11" style="stroke: #A80036; stroke-width: 1.0;"/><text fill="#888888" font-family="sans-serif" font-size="10" lengthAdjust="spacingAndGlyphs" textLength="190" x="25" y="261.5684">UMLDoclet 2.0.12, PlantUML 1.2020.16</text><!--MD5=[4935f10012dc6057609475ddb9cc1a73]
@startuml
    set namespaceSeparator none
    hide empty fields
    hide empty methods

    interface "<size:14>ProcessElement\n<size:10>org.eclipse.epf.uma" as org.eclipse.epf.uma.ProcessElement [[ProcessElement.html]]

    interface "<size:14>DescribableElement\n<size:10>org.eclipse.epf.uma" as org.eclipse.epf.uma.DescribableElement [[DescribableElement.html]] {
        {abstract} +getPresentation(): ContentDescription
        {abstract} +setPresentation(ContentDescription): void
        {abstract} +getShapeicon(): URI
        {abstract} +setShapeicon(URI): void
        {abstract} +getNodeicon(): URI
        {abstract} +setNodeicon(URI): void
    }

    org.eclipse.epf.uma.DescribableElement <|- - org.eclipse.epf.uma.ProcessElement

    center footer UMLDoclet 2.0.12, PlantUML 1.2020.16
@enduml

PlantUML version 1.2020.16(Sun Aug 23 22:20:43 CEST 2020)
(APACHE source distribution)
Java Runtime: Java(TM) SE Runtime Environment
JVM: Java HotSpot(TM) 64-Bit Server VM
Default Encoding: Cp1252
Language: es
Country: ES
--></g></svg>