<?xml version="1.0" encoding="UTF-8" standalone="no"?><svg xmlns="http://www.w3.org/2000/svg" xmlns:xlink="http://www.w3.org/1999/xlink" contentScriptType="application/ecmascript" contentStyleType="text/css" height="283px" preserveAspectRatio="none" style="width:300px;height:283px;" version="1.1" viewBox="0 0 300 283" width="300px" zoomAndPan="magnify"><defs><filter height="300%" id="f16lkqtjir2aai" width="300%" x="-1" y="-1"><feGaussianBlur result="blurOut" stdDeviation="2.0"/><feColorMatrix in="blurOut" result="blurOut2" type="matrix" values="0 0 0 0 0 0 0 0 0 0 0 0 0 0 0 0 0 0 .4 0"/><feOffset dx="4.0" dy="4.0" in="blurOut2" result="blurOut3"/><feBlend in="SourceGraphic" in2="blurOut3" mode="normal"/></filter></defs><g><!--MD5=[fe97616762c479449208f3dd5bc19ba1]
class org.eclipse.epf.uma.ProcessComponentDescriptor--><a href="ProcessComponentDescriptor.html" target="_top" title="ProcessComponentDescriptor.html" xlink:actuate="onRequest" xlink:href="ProcessComponentDescriptor.html" xlink:show="new" xlink:title="ProcessComponentDescriptor.html" xlink:type="simple"><rect codeLine="5" fill="#FEFECE" filter="url(#f16lkqtjir2aai)" height="75.8594" id="org.eclipse.epf.uma.ProcessComponentDescriptor" style="stroke: #A80036; stroke-width: 1.5;" width="274" x="7" y="171"/><ellipse cx="45.85" cy="191.0938" fill="#B4A7E5" rx="11" ry="11" style="stroke: #A80036; stroke-width: 1.0;"/><path d="M46.8031,187.7344 L46.8031,194.3906 L48.5219,194.3906 Q49.1313,194.3906 49.3969,194.625 Q49.6625,194.8594 49.6625,195.25 Q49.6625,195.625 49.3969,195.8594 Q49.1313,196.0938 48.5219,196.0938 L43.3813,196.0938 Q42.7719,196.0938 42.5063,195.8594 Q42.2406,195.625 42.2406,195.2344 Q42.2406,194.8594 42.5063,194.625 Q42.7719,194.3906 43.3813,194.3906 L45.1,194.3906 L45.1,187.7344 L43.3813,187.7344 Q42.7719,187.7344 42.5063,187.5 Q42.2406,187.2656 42.2406,186.875 Q42.2406,186.5 42.5063,186.2656 Q42.7719,186.0313 43.3813,186.0313 L48.5219,186.0313 Q49.1313,186.0313 49.3969,186.2656 Q49.6625,186.5 49.6625,186.875 Q49.6625,187.2656 49.3969,187.5 Q49.1313,187.7344 48.5219,187.7344 L46.8031,187.7344 Z "/><text fill="#000000" font-family="sans-serif" font-size="14" font-style="italic" lengthAdjust="spacingAndGlyphs" textLength="189" x="65.15" y="190.5332">ProcessComponentDescriptor</text><text fill="#000000" font-family="sans-serif" font-size="10" font-style="italic" lengthAdjust="spacingAndGlyphs" textLength="92" x="113.65" y="203.9902">org.eclipse.epf.uma</text><line style="stroke: #A80036; stroke-width: 1.5;" x1="8" x2="280" y1="211.1875" y2="211.1875"/><ellipse cx="18" cy="222.1875" fill="#84BE84" rx="3" ry="3" style="stroke: #038048; stroke-width: 1.0;"/><text fill="#000000" font-family="sans-serif" font-size="11" font-style="italic" lengthAdjust="spacingAndGlyphs" textLength="228" x="27" y="226.6064">get_processComponent(): ProcessComponent</text><ellipse cx="18" cy="236.0234" fill="#84BE84" rx="3" ry="3" style="stroke: #038048; stroke-width: 1.0;"/><text fill="#000000" font-family="sans-serif" font-size="11" font-style="italic" lengthAdjust="spacingAndGlyphs" textLength="248" x="27" y="240.4424">set_processComponent(ProcessComponent): void</text></a><!--MD5=[e2aea4f57378d8bf0d95e9671773c115]
class org.eclipse.epf.uma.Descriptor--><a href="Descriptor.html" target="_top" title="Descriptor.html" xlink:actuate="onRequest" xlink:href="Descriptor.html" xlink:show="new" xlink:title="Descriptor.html" xlink:type="simple"><rect codeLine="10" fill="#FEFECE" filter="url(#f16lkqtjir2aai)" height="103.5313" id="org.eclipse.epf.uma.Descriptor" style="stroke: #A80036; stroke-width: 1.5;" width="249" x="19.5" y="7"/><ellipse cx="93.75" cy="27.0938" fill="#B4A7E5" rx="11" ry="11" style="stroke: #A80036; stroke-width: 1.0;"/><path d="M94.7031,23.7344 L94.7031,30.3906 L96.4219,30.3906 Q97.0313,30.3906 97.2969,30.625 Q97.5625,30.8594 97.5625,31.25 Q97.5625,31.625 97.2969,31.8594 Q97.0313,32.0938 96.4219,32.0938 L91.2813,32.0938 Q90.6719,32.0938 90.4063,31.8594 Q90.1406,31.625 90.1406,31.2344 Q90.1406,30.8594 90.4063,30.625 Q90.6719,30.3906 91.2813,30.3906 L93,30.3906 L93,23.7344 L91.2813,23.7344 Q90.6719,23.7344 90.4063,23.5 Q90.1406,23.2656 90.1406,22.875 Q90.1406,22.5 90.4063,22.2656 Q90.6719,22.0313 91.2813,22.0313 L96.4219,22.0313 Q97.0313,22.0313 97.2969,22.2656 Q97.5625,22.5 97.5625,22.875 Q97.5625,23.2656 97.2969,23.5 Q97.0313,23.7344 96.4219,23.7344 L94.7031,23.7344 Z "/><text fill="#000000" font-family="sans-serif" font-size="14" font-style="italic" lengthAdjust="spacingAndGlyphs" textLength="65" x="127.75" y="26.5332">Descriptor</text><text fill="#000000" font-family="sans-serif" font-size="10" font-style="italic" lengthAdjust="spacingAndGlyphs" textLength="92" x="114.25" y="39.9902">org.eclipse.epf.uma</text><line style="stroke: #A80036; stroke-width: 1.5;" x1="20.5" x2="267.5" y1="47.1875" y2="47.1875"/><ellipse cx="30.5" cy="58.1875" fill="#84BE84" rx="3" ry="3" style="stroke: #038048; stroke-width: 1.0;"/><text fill="#000000" font-family="sans-serif" font-size="11" font-style="italic" lengthAdjust="spacingAndGlyphs" textLength="203" x="39.5" y="62.6064">getIsSynchronizedWithSource(): Boolean</text><ellipse cx="30.5" cy="72.0234" fill="#84BE84" rx="3" ry="3" style="stroke: #038048; stroke-width: 1.0;"/><text fill="#000000" font-family="sans-serif" font-size="11" font-style="italic" lengthAdjust="spacingAndGlyphs" textLength="223" x="39.5" y="76.4424">setIsSynchronizedWithSource(Boolean): void</text><ellipse cx="30.5" cy="85.8594" fill="#84BE84" rx="3" ry="3" style="stroke: #038048; stroke-width: 1.0;"/><text fill="#000000" font-family="sans-serif" font-size="11" font-style="italic" lengthAdjust="spacingAndGlyphs" textLength="202" x="39.5" y="90.2783">getGuidanceExclude(): EList&lt;Guidance&gt;</text><ellipse cx="30.5" cy="99.6953" fill="#84BE84" rx="3" ry="3" style="stroke: #038048; stroke-width: 1.0;"/><text fill="#000000" font-family="sans-serif" font-size="11" font-style="italic" lengthAdjust="spacingAndGlyphs" textLength="211" x="39.5" y="104.1143">getGuidanceAdditional(): EList&lt;Guidance&gt;</text></a><!--MD5=[81c9e30e39381c2a18444088b9436770]
reverse link org.eclipse.epf.uma.Descriptor to org.eclipse.epf.uma.ProcessComponentDescriptor--><path codeLine="17" d="M144,131.59 C144,145.14 144,158.79 144,170.74 " fill="none" id="org.eclipse.epf.uma.Descriptor-backto-org.eclipse.epf.uma.ProcessComponentDescriptor" style="stroke: #A80036; stroke-width: 1.0;"/><polygon fill="none" points="137,131.35,144,111.35,151,131.35,137,131.35" style="stroke: #A80036; stroke-width: 1.0;"/><text fill="#888888" font-family="sans-serif" font-size="10" lengthAdjust="spacingAndGlyphs" textLength="190" x="46" y="270.2402">UMLDoclet 2.0.12, PlantUML 1.2020.16</text><!--MD5=[e7960d5ed353b2b24ab1d428917b0813]
@startuml
    set namespaceSeparator none
    hide empty fields
    hide empty methods

    interface "<size:14>ProcessComponentDescriptor\n<size:10>org.eclipse.epf.uma" as org.eclipse.epf.uma.ProcessComponentDescriptor [[ProcessComponentDescriptor.html]] {
        {abstract} +get_processComponent(): ProcessComponent
        {abstract} +set_processComponent(ProcessComponent): void
    }

    interface "<size:14>Descriptor\n<size:10>org.eclipse.epf.uma" as org.eclipse.epf.uma.Descriptor [[Descriptor.html]] {
        {abstract} +getIsSynchronizedWithSource(): Boolean
        {abstract} +setIsSynchronizedWithSource(Boolean): void
        {abstract} +getGuidanceExclude(): EList<Guidance>
        {abstract} +getGuidanceAdditional(): EList<Guidance>
    }

    org.eclipse.epf.uma.Descriptor <|- - org.eclipse.epf.uma.ProcessComponentDescriptor

    center footer UMLDoclet 2.0.12, PlantUML 1.2020.16
@enduml

PlantUML version 1.2020.16(Sun Aug 23 22:20:43 CEST 2020)
(APACHE source distribution)
Java Runtime: Java(TM) SE Runtime Environment
JVM: Java HotSpot(TM) 64-Bit Server VM
Default Encoding: Cp1252
Language: es
Country: ES
--></g></svg>