<?xml version="1.0" encoding="UTF-8" standalone="no"?><svg xmlns="http://www.w3.org/2000/svg" xmlns:xlink="http://www.w3.org/1999/xlink" contentScriptType="application/ecmascript" contentStyleType="text/css" height="338px" preserveAspectRatio="none" style="width:220px;height:338px;" version="1.1" viewBox="0 0 220 338" width="220px" zoomAndPan="magnify"><defs><filter height="300%" id="ff1ddvze94pix" width="300%" x="-1" y="-1"><feGaussianBlur result="blurOut" stdDeviation="2.0"/><feColorMatrix in="blurOut" result="blurOut2" type="matrix" values="0 0 0 0 0 0 0 0 0 0 0 0 0 0 0 0 0 0 .4 0"/><feOffset dx="4.0" dy="4.0" in="blurOut2" result="blurOut3"/><feBlend in="SourceGraphic" in2="blurOut3" mode="normal"/></filter></defs><g><!--MD5=[9eef6247880e99076e6ac949228c4994]
class org.eclipse.epf.uma.Property--><a href="Property.html" target="_top" title="Property.html" xlink:actuate="onRequest" xlink:href="Property.html" xlink:show="new" xlink:title="Property.html" xlink:type="simple"><rect codeLine="5" fill="#FEFECE" filter="url(#ff1ddvze94pix)" height="103.5313" id="org.eclipse.epf.uma.Property" style="stroke: #A80036; stroke-width: 1.5;" width="132" x="38" y="198"/><ellipse cx="56.6" cy="218.0938" fill="#B4A7E5" rx="11" ry="11" style="stroke: #A80036; stroke-width: 1.0;"/><path d="M57.5531,214.7344 L57.5531,221.3906 L59.2719,221.3906 Q59.8813,221.3906 60.1469,221.625 Q60.4125,221.8594 60.4125,222.25 Q60.4125,222.625 60.1469,222.8594 Q59.8813,223.0938 59.2719,223.0938 L54.1313,223.0938 Q53.5219,223.0938 53.2563,222.8594 Q52.9906,222.625 52.9906,222.2344 Q52.9906,221.8594 53.2563,221.625 Q53.5219,221.3906 54.1313,221.3906 L55.85,221.3906 L55.85,214.7344 L54.1313,214.7344 Q53.5219,214.7344 53.2563,214.5 Q52.9906,214.2656 52.9906,213.875 Q52.9906,213.5 53.2563,213.2656 Q53.5219,213.0313 54.1313,213.0313 L59.2719,213.0313 Q59.8813,213.0313 60.1469,213.2656 Q60.4125,213.5 60.4125,213.875 Q60.4125,214.2656 60.1469,214.5 Q59.8813,214.7344 59.2719,214.7344 L57.5531,214.7344 Z "/><text fill="#000000" font-family="sans-serif" font-size="14" font-style="italic" lengthAdjust="spacingAndGlyphs" textLength="54" x="90.4" y="217.5332">Property</text><text fill="#000000" font-family="sans-serif" font-size="10" font-style="italic" lengthAdjust="spacingAndGlyphs" textLength="92" x="71.4" y="230.9902">org.eclipse.epf.uma</text><line style="stroke: #A80036; stroke-width: 1.5;" x1="39" x2="169" y1="238.1875" y2="238.1875"/><ellipse cx="49" cy="249.1875" fill="#84BE84" rx="3" ry="3" style="stroke: #038048; stroke-width: 1.0;"/><text fill="#000000" font-family="sans-serif" font-size="11" font-style="italic" lengthAdjust="spacingAndGlyphs" textLength="76" x="58" y="253.6064">getKey(): String</text><ellipse cx="49" cy="263.0234" fill="#84BE84" rx="3" ry="3" style="stroke: #038048; stroke-width: 1.0;"/><text fill="#000000" font-family="sans-serif" font-size="11" font-style="italic" lengthAdjust="spacingAndGlyphs" textLength="96" x="58" y="267.4424">setKey(String): void</text><ellipse cx="49" cy="276.8594" fill="#84BE84" rx="3" ry="3" style="stroke: #038048; stroke-width: 1.0;"/><text fill="#000000" font-family="sans-serif" font-size="11" font-style="italic" lengthAdjust="spacingAndGlyphs" textLength="86" x="58" y="281.2783">getValue(): String</text><ellipse cx="49" cy="290.6953" fill="#84BE84" rx="3" ry="3" style="stroke: #038048; stroke-width: 1.0;"/><text fill="#000000" font-family="sans-serif" font-size="11" font-style="italic" lengthAdjust="spacingAndGlyphs" textLength="106" x="58" y="295.1143">setValue(String): void</text></a><!--MD5=[267d9fa064d21b4acbe47d4366e1aad1]
class org.eclipse.epf.uma.DiagramElement--><a href="DiagramElement.html" target="_top" title="DiagramElement.html" xlink:actuate="onRequest" xlink:href="DiagramElement.html" xlink:show="new" xlink:title="DiagramElement.html" xlink:type="simple"><rect codeLine="12" fill="#FEFECE" filter="url(#ff1ddvze94pix)" height="131.2031" id="org.eclipse.epf.uma.DiagramElement" style="stroke: #A80036; stroke-width: 1.5;" width="194" x="7" y="7"/><ellipse cx="48.1" cy="27.0938" fill="#B4A7E5" rx="11" ry="11" style="stroke: #A80036; stroke-width: 1.0;"/><path d="M49.0531,23.7344 L49.0531,30.3906 L50.7719,30.3906 Q51.3813,30.3906 51.6469,30.625 Q51.9125,30.8594 51.9125,31.25 Q51.9125,31.625 51.6469,31.8594 Q51.3813,32.0938 50.7719,32.0938 L45.6313,32.0938 Q45.0219,32.0938 44.7563,31.8594 Q44.4906,31.625 44.4906,31.2344 Q44.4906,30.8594 44.7563,30.625 Q45.0219,30.3906 45.6313,30.3906 L47.35,30.3906 L47.35,23.7344 L45.6313,23.7344 Q45.0219,23.7344 44.7563,23.5 Q44.4906,23.2656 44.4906,22.875 Q44.4906,22.5 44.7563,22.2656 Q45.0219,22.0313 45.6313,22.0313 L50.7719,22.0313 Q51.3813,22.0313 51.6469,22.2656 Q51.9125,22.5 51.9125,22.875 Q51.9125,23.2656 51.6469,23.5 Q51.3813,23.7344 50.7719,23.7344 L49.0531,23.7344 Z "/><text fill="#000000" font-family="sans-serif" font-size="14" font-style="italic" lengthAdjust="spacingAndGlyphs" textLength="104" x="67.9" y="26.5332">DiagramElement</text><text fill="#000000" font-family="sans-serif" font-size="10" font-style="italic" lengthAdjust="spacingAndGlyphs" textLength="92" x="73.9" y="39.9902">org.eclipse.epf.uma</text><line style="stroke: #A80036; stroke-width: 1.5;" x1="8" x2="200" y1="47.1875" y2="47.1875"/><ellipse cx="18" cy="58.1875" fill="#84BE84" rx="3" ry="3" style="stroke: #038048; stroke-width: 1.0;"/><text fill="#000000" font-family="sans-serif" font-size="11" font-style="italic" lengthAdjust="spacingAndGlyphs" textLength="113" x="27" y="62.6064">getIsVisible(): Boolean</text><ellipse cx="18" cy="72.0234" fill="#84BE84" rx="3" ry="3" style="stroke: #038048; stroke-width: 1.0;"/><text fill="#000000" font-family="sans-serif" font-size="11" font-style="italic" lengthAdjust="spacingAndGlyphs" textLength="133" x="27" y="76.4424">setIsVisible(Boolean): void</text><ellipse cx="18" cy="85.8594" fill="#84BE84" rx="3" ry="3" style="stroke: #038048; stroke-width: 1.0;"/><text fill="#000000" font-family="sans-serif" font-size="11" font-style="italic" lengthAdjust="spacingAndGlyphs" textLength="148" x="27" y="90.2783">getContainer(): GraphElement</text><ellipse cx="18" cy="99.6953" fill="#84BE84" rx="3" ry="3" style="stroke: #038048; stroke-width: 1.0;"/><text fill="#000000" font-family="sans-serif" font-size="11" font-style="italic" lengthAdjust="spacingAndGlyphs" textLength="168" x="27" y="104.1143">setContainer(GraphElement): void</text><ellipse cx="18" cy="113.5313" fill="#84BE84" rx="3" ry="3" style="stroke: #038048; stroke-width: 1.0;"/><text fill="#000000" font-family="sans-serif" font-size="11" font-style="italic" lengthAdjust="spacingAndGlyphs" textLength="168" x="27" y="117.9502">getReference(): EList&lt;Reference&gt;</text><ellipse cx="18" cy="127.3672" fill="#84BE84" rx="3" ry="3" style="stroke: #038048; stroke-width: 1.0;"/><text fill="#000000" font-family="sans-serif" font-size="11" font-style="italic" lengthAdjust="spacingAndGlyphs" textLength="148" x="27" y="131.7861">getProperty(): EList&lt;Property&gt;</text></a><!--MD5=[ede6a60bfb90df78b0ad48058ece7ffa]
reverse link org.eclipse.epf.uma.DiagramElement to org.eclipse.epf.uma.Property--><path codeLine="21" d="M104,158.52 C104,171.97 104,185.49 104,197.84 " fill="none" id="org.eclipse.epf.uma.DiagramElement-backto-org.eclipse.epf.uma.Property" style="stroke: #A80036; stroke-width: 1.0;"/><polygon fill="none" points="97,158.35,104,138.35,111,158.35,97,158.35" style="stroke: #A80036; stroke-width: 1.0;"/><text fill="#888888" font-family="sans-serif" font-size="10" lengthAdjust="spacingAndGlyphs" textLength="190" x="6" y="324.9121">UMLDoclet 2.0.12, PlantUML 1.2020.16</text><!--MD5=[651c8f9aec937e66e73dcc7ef4398abe]
@startuml
    set namespaceSeparator none
    hide empty fields
    hide empty methods

    interface "<size:14>Property\n<size:10>org.eclipse.epf.uma" as org.eclipse.epf.uma.Property [[Property.html]] {
        {abstract} +getKey(): String
        {abstract} +setKey(String): void
        {abstract} +getValue(): String
        {abstract} +setValue(String): void
    }

    interface "<size:14>DiagramElement\n<size:10>org.eclipse.epf.uma" as org.eclipse.epf.uma.DiagramElement [[DiagramElement.html]] {
        {abstract} +getIsVisible(): Boolean
        {abstract} +setIsVisible(Boolean): void
        {abstract} +getContainer(): GraphElement
        {abstract} +setContainer(GraphElement): void
        {abstract} +getReference(): EList<Reference>
        {abstract} +getProperty(): EList<Property>
    }

    org.eclipse.epf.uma.DiagramElement <|- - org.eclipse.epf.uma.Property

    center footer UMLDoclet 2.0.12, PlantUML 1.2020.16
@enduml

PlantUML version 1.2020.16(Sun Aug 23 22:20:43 CEST 2020)
(APACHE source distribution)
Java Runtime: Java(TM) SE Runtime Environment
JVM: Java HotSpot(TM) 64-Bit Server VM
Default Encoding: Cp1252
Language: es
Country: ES
--></g></svg>