<?xml version="1.0" encoding="UTF-8" standalone="no"?><svg xmlns="http://www.w3.org/2000/svg" xmlns:xlink="http://www.w3.org/1999/xlink" contentScriptType="application/ecmascript" contentStyleType="text/css" height="338px" preserveAspectRatio="none" style="width:272px;height:338px;" version="1.1" viewBox="0 0 272 338" width="272px" zoomAndPan="magnify"><defs><filter height="300%" id="f11sjls1wthalb" width="300%" x="-1" y="-1"><feGaussianBlur result="blurOut" stdDeviation="2.0"/><feColorMatrix in="blurOut" result="blurOut2" type="matrix" values="0 0 0 0 0 0 0 0 0 0 0 0 0 0 0 0 0 0 .4 0"/><feOffset dx="4.0" dy="4.0" in="blurOut2" result="blurOut3"/><feBlend in="SourceGraphic" in2="blurOut3" mode="normal"/></filter></defs><g><!--MD5=[880bead36fd53de23cebe445ca41a35f]
class org.eclipse.epf.uma.Reference--><a href="Reference.html" target="_top" title="Reference.html" xlink:actuate="onRequest" xlink:href="Reference.html" xlink:show="new" xlink:title="Reference.html" xlink:type="simple"><rect codeLine="5" fill="#FEFECE" filter="url(#f11sjls1wthalb)" height="103.5313" id="org.eclipse.epf.uma.Reference" style="stroke: #A80036; stroke-width: 1.5;" width="246" x="7" y="198"/><ellipse cx="79.75" cy="218.0938" fill="#B4A7E5" rx="11" ry="11" style="stroke: #A80036; stroke-width: 1.0;"/><path d="M80.7031,214.7344 L80.7031,221.3906 L82.4219,221.3906 Q83.0313,221.3906 83.2969,221.625 Q83.5625,221.8594 83.5625,222.25 Q83.5625,222.625 83.2969,222.8594 Q83.0313,223.0938 82.4219,223.0938 L77.2813,223.0938 Q76.6719,223.0938 76.4063,222.8594 Q76.1406,222.625 76.1406,222.2344 Q76.1406,221.8594 76.4063,221.625 Q76.6719,221.3906 77.2813,221.3906 L79,221.3906 L79,214.7344 L77.2813,214.7344 Q76.6719,214.7344 76.4063,214.5 Q76.1406,214.2656 76.1406,213.875 Q76.1406,213.5 76.4063,213.2656 Q76.6719,213.0313 77.2813,213.0313 L82.4219,213.0313 Q83.0313,213.0313 83.2969,213.2656 Q83.5625,213.5 83.5625,213.875 Q83.5625,214.2656 83.2969,214.5 Q83.0313,214.7344 82.4219,214.7344 L80.7031,214.7344 Z "/><text fill="#000000" font-family="sans-serif" font-size="14" font-style="italic" lengthAdjust="spacingAndGlyphs" textLength="66" x="113.25" y="217.5332">Reference</text><text fill="#000000" font-family="sans-serif" font-size="10" font-style="italic" lengthAdjust="spacingAndGlyphs" textLength="92" x="100.25" y="230.9902">org.eclipse.epf.uma</text><line style="stroke: #A80036; stroke-width: 1.5;" x1="8" x2="252" y1="238.1875" y2="238.1875"/><ellipse cx="18" cy="249.1875" fill="#84BE84" rx="3" ry="3" style="stroke: #038048; stroke-width: 1.0;"/><text fill="#000000" font-family="sans-serif" font-size="11" font-style="italic" lengthAdjust="spacingAndGlyphs" textLength="200" x="27" y="253.6064">getIsIndividualRepresentation(): Boolean</text><ellipse cx="18" cy="263.0234" fill="#84BE84" rx="3" ry="3" style="stroke: #038048; stroke-width: 1.0;"/><text fill="#000000" font-family="sans-serif" font-size="11" font-style="italic" lengthAdjust="spacingAndGlyphs" textLength="220" x="27" y="267.4424">setIsIndividualRepresentation(Boolean): void</text><ellipse cx="18" cy="276.8594" fill="#84BE84" rx="3" ry="3" style="stroke: #038048; stroke-width: 1.0;"/><text fill="#000000" font-family="sans-serif" font-size="11" font-style="italic" lengthAdjust="spacingAndGlyphs" textLength="168" x="27" y="281.2783">getReferenced(): DiagramElement</text><ellipse cx="18" cy="290.6953" fill="#84BE84" rx="3" ry="3" style="stroke: #038048; stroke-width: 1.0;"/><text fill="#000000" font-family="sans-serif" font-size="11" font-style="italic" lengthAdjust="spacingAndGlyphs" textLength="188" x="27" y="295.1143">setReferenced(DiagramElement): void</text></a><!--MD5=[267d9fa064d21b4acbe47d4366e1aad1]
class org.eclipse.epf.uma.DiagramElement--><a href="DiagramElement.html" target="_top" title="DiagramElement.html" xlink:actuate="onRequest" xlink:href="DiagramElement.html" xlink:show="new" xlink:title="DiagramElement.html" xlink:type="simple"><rect codeLine="12" fill="#FEFECE" filter="url(#f11sjls1wthalb)" height="131.2031" id="org.eclipse.epf.uma.DiagramElement" style="stroke: #A80036; stroke-width: 1.5;" width="194" x="33" y="7"/><ellipse cx="74.1" cy="27.0938" fill="#B4A7E5" rx="11" ry="11" style="stroke: #A80036; stroke-width: 1.0;"/><path d="M75.0531,23.7344 L75.0531,30.3906 L76.7719,30.3906 Q77.3813,30.3906 77.6469,30.625 Q77.9125,30.8594 77.9125,31.25 Q77.9125,31.625 77.6469,31.8594 Q77.3813,32.0938 76.7719,32.0938 L71.6313,32.0938 Q71.0219,32.0938 70.7563,31.8594 Q70.4906,31.625 70.4906,31.2344 Q70.4906,30.8594 70.7563,30.625 Q71.0219,30.3906 71.6313,30.3906 L73.35,30.3906 L73.35,23.7344 L71.6313,23.7344 Q71.0219,23.7344 70.7563,23.5 Q70.4906,23.2656 70.4906,22.875 Q70.4906,22.5 70.7563,22.2656 Q71.0219,22.0313 71.6313,22.0313 L76.7719,22.0313 Q77.3813,22.0313 77.6469,22.2656 Q77.9125,22.5 77.9125,22.875 Q77.9125,23.2656 77.6469,23.5 Q77.3813,23.7344 76.7719,23.7344 L75.0531,23.7344 Z "/><text fill="#000000" font-family="sans-serif" font-size="14" font-style="italic" lengthAdjust="spacingAndGlyphs" textLength="104" x="93.9" y="26.5332">DiagramElement</text><text fill="#000000" font-family="sans-serif" font-size="10" font-style="italic" lengthAdjust="spacingAndGlyphs" textLength="92" x="99.9" y="39.9902">org.eclipse.epf.uma</text><line style="stroke: #A80036; stroke-width: 1.5;" x1="34" x2="226" y1="47.1875" y2="47.1875"/><ellipse cx="44" cy="58.1875" fill="#84BE84" rx="3" ry="3" style="stroke: #038048; stroke-width: 1.0;"/><text fill="#000000" font-family="sans-serif" font-size="11" font-style="italic" lengthAdjust="spacingAndGlyphs" textLength="113" x="53" y="62.6064">getIsVisible(): Boolean</text><ellipse cx="44" cy="72.0234" fill="#84BE84" rx="3" ry="3" style="stroke: #038048; stroke-width: 1.0;"/><text fill="#000000" font-family="sans-serif" font-size="11" font-style="italic" lengthAdjust="spacingAndGlyphs" textLength="133" x="53" y="76.4424">setIsVisible(Boolean): void</text><ellipse cx="44" cy="85.8594" fill="#84BE84" rx="3" ry="3" style="stroke: #038048; stroke-width: 1.0;"/><text fill="#000000" font-family="sans-serif" font-size="11" font-style="italic" lengthAdjust="spacingAndGlyphs" textLength="148" x="53" y="90.2783">getContainer(): GraphElement</text><ellipse cx="44" cy="99.6953" fill="#84BE84" rx="3" ry="3" style="stroke: #038048; stroke-width: 1.0;"/><text fill="#000000" font-family="sans-serif" font-size="11" font-style="italic" lengthAdjust="spacingAndGlyphs" textLength="168" x="53" y="104.1143">setContainer(GraphElement): void</text><ellipse cx="44" cy="113.5313" fill="#84BE84" rx="3" ry="3" style="stroke: #038048; stroke-width: 1.0;"/><text fill="#000000" font-family="sans-serif" font-size="11" font-style="italic" lengthAdjust="spacingAndGlyphs" textLength="168" x="53" y="117.9502">getReference(): EList&lt;Reference&gt;</text><ellipse cx="44" cy="127.3672" fill="#84BE84" rx="3" ry="3" style="stroke: #038048; stroke-width: 1.0;"/><text fill="#000000" font-family="sans-serif" font-size="11" font-style="italic" lengthAdjust="spacingAndGlyphs" textLength="148" x="53" y="131.7861">getProperty(): EList&lt;Property&gt;</text></a><!--MD5=[cb6bb2259e2b8ebd325055e4cafa70c3]
reverse link org.eclipse.epf.uma.DiagramElement to org.eclipse.epf.uma.Reference--><path codeLine="21" d="M130,158.52 C130,171.97 130,185.49 130,197.84 " fill="none" id="org.eclipse.epf.uma.DiagramElement-backto-org.eclipse.epf.uma.Reference" style="stroke: #A80036; stroke-width: 1.0;"/><polygon fill="none" points="123,158.35,130,138.35,137,158.35,123,158.35" style="stroke: #A80036; stroke-width: 1.0;"/><text fill="#888888" font-family="sans-serif" font-size="10" lengthAdjust="spacingAndGlyphs" textLength="190" x="32" y="324.9121">UMLDoclet 2.0.12, PlantUML 1.2020.16</text><!--MD5=[899fdc060682f578a911320ac59259e7]
@startuml
    set namespaceSeparator none
    hide empty fields
    hide empty methods

    interface "<size:14>Reference\n<size:10>org.eclipse.epf.uma" as org.eclipse.epf.uma.Reference [[Reference.html]] {
        {abstract} +getIsIndividualRepresentation(): Boolean
        {abstract} +setIsIndividualRepresentation(Boolean): void
        {abstract} +getReferenced(): DiagramElement
        {abstract} +setReferenced(DiagramElement): void
    }

    interface "<size:14>DiagramElement\n<size:10>org.eclipse.epf.uma" as org.eclipse.epf.uma.DiagramElement [[DiagramElement.html]] {
        {abstract} +getIsVisible(): Boolean
        {abstract} +setIsVisible(Boolean): void
        {abstract} +getContainer(): GraphElement
        {abstract} +setContainer(GraphElement): void
        {abstract} +getReference(): EList<Reference>
        {abstract} +getProperty(): EList<Property>
    }

    org.eclipse.epf.uma.DiagramElement <|- - org.eclipse.epf.uma.Reference

    center footer UMLDoclet 2.0.12, PlantUML 1.2020.16
@enduml

PlantUML version 1.2020.16(Sun Aug 23 22:20:43 CEST 2020)
(APACHE source distribution)
Java Runtime: Java(TM) SE Runtime Environment
JVM: Java HotSpot(TM) 64-Bit Server VM
Default Encoding: Cp1252
Language: es
Country: ES
--></g></svg>