<?xml version="1.0" encoding="UTF-8" standalone="no"?><svg xmlns="http://www.w3.org/2000/svg" xmlns:xlink="http://www.w3.org/1999/xlink" contentScriptType="application/ecmascript" contentStyleType="text/css" height="325px" preserveAspectRatio="none" style="width:315px;height:325px;" version="1.1" viewBox="0 0 315 325" width="315px" zoomAndPan="magnify"><defs><filter height="300%" id="f12qb7hq4elpzm" width="300%" x="-1" y="-1"><feGaussianBlur result="blurOut" stdDeviation="2.0"/><feColorMatrix in="blurOut" result="blurOut2" type="matrix" values="0 0 0 0 0 0 0 0 0 0 0 0 0 0 0 0 0 0 .4 0"/><feOffset dx="4.0" dy="4.0" in="blurOut2" result="blurOut3"/><feBlend in="SourceGraphic" in2="blurOut3" mode="normal"/></filter></defs><g><!--MD5=[ab7492900548ec6688946b1b6ca656ed]
class org.eclipse.epf.uma.RoleDescriptor--><a href="RoleDescriptor.html" target="_top" title="RoleDescriptor.html" xlink:actuate="onRequest" xlink:href="RoleDescriptor.html" xlink:show="new" xlink:title="RoleDescriptor.html" xlink:type="simple"><rect codeLine="5" fill="#FEFECE" filter="url(#f12qb7hq4elpzm)" height="117.3672" id="org.eclipse.epf.uma.RoleDescriptor" style="stroke: #A80036; stroke-width: 1.5;" width="289" x="7" y="171"/><ellipse cx="100.25" cy="191.0938" fill="#B4A7E5" rx="11" ry="11" style="stroke: #A80036; stroke-width: 1.0;"/><path d="M101.2031,187.7344 L101.2031,194.3906 L102.9219,194.3906 Q103.5313,194.3906 103.7969,194.625 Q104.0625,194.8594 104.0625,195.25 Q104.0625,195.625 103.7969,195.8594 Q103.5313,196.0938 102.9219,196.0938 L97.7813,196.0938 Q97.1719,196.0938 96.9063,195.8594 Q96.6406,195.625 96.6406,195.2344 Q96.6406,194.8594 96.9063,194.625 Q97.1719,194.3906 97.7813,194.3906 L99.5,194.3906 L99.5,187.7344 L97.7813,187.7344 Q97.1719,187.7344 96.9063,187.5 Q96.6406,187.2656 96.6406,186.875 Q96.6406,186.5 96.9063,186.2656 Q97.1719,186.0313 97.7813,186.0313 L102.9219,186.0313 Q103.5313,186.0313 103.7969,186.2656 Q104.0625,186.5 104.0625,186.875 Q104.0625,187.2656 103.7969,187.5 Q103.5313,187.7344 102.9219,187.7344 L101.2031,187.7344 Z "/><text fill="#000000" font-family="sans-serif" font-size="14" font-style="italic" lengthAdjust="spacingAndGlyphs" textLength="94" x="120.75" y="190.5332">RoleDescriptor</text><text fill="#000000" font-family="sans-serif" font-size="10" font-style="italic" lengthAdjust="spacingAndGlyphs" textLength="92" x="121.75" y="203.9902">org.eclipse.epf.uma</text><line style="stroke: #A80036; stroke-width: 1.5;" x1="8" x2="295" y1="211.1875" y2="211.1875"/><ellipse cx="18" cy="222.1875" fill="#84BE84" rx="3" ry="3" style="stroke: #038048; stroke-width: 1.0;"/><text fill="#000000" font-family="sans-serif" font-size="11" font-style="italic" lengthAdjust="spacingAndGlyphs" textLength="75" x="27" y="226.6064">getRole(): Role</text><ellipse cx="18" cy="236.0234" fill="#84BE84" rx="3" ry="3" style="stroke: #038048; stroke-width: 1.0;"/><text fill="#000000" font-family="sans-serif" font-size="11" font-style="italic" lengthAdjust="spacingAndGlyphs" textLength="95" x="27" y="240.4424">setRole(Role): void</text><ellipse cx="18" cy="249.8594" fill="#84BE84" rx="3" ry="3" style="stroke: #038048; stroke-width: 1.0;"/><text fill="#000000" font-family="sans-serif" font-size="11" font-style="italic" lengthAdjust="spacingAndGlyphs" textLength="225" x="27" y="254.2783">getModifies(): EList&lt;WorkProductDescriptor&gt;</text><ellipse cx="18" cy="263.6953" fill="#84BE84" rx="3" ry="3" style="stroke: #038048; stroke-width: 1.0;"/><text fill="#000000" font-family="sans-serif" font-size="11" font-style="italic" lengthAdjust="spacingAndGlyphs" textLength="263" x="27" y="268.1143">getResponsibleFor(): EList&lt;WorkProductDescriptor&gt;</text><ellipse cx="18" cy="277.5313" fill="#84BE84" rx="3" ry="3" style="stroke: #038048; stroke-width: 1.0;"/><text fill="#000000" font-family="sans-serif" font-size="11" font-style="italic" lengthAdjust="spacingAndGlyphs" textLength="251" x="27" y="281.9502">getResponsibleForExclude(): EList&lt;WorkProduct&gt;</text></a><!--MD5=[e2aea4f57378d8bf0d95e9671773c115]
class org.eclipse.epf.uma.Descriptor--><a href="Descriptor.html" target="_top" title="Descriptor.html" xlink:actuate="onRequest" xlink:href="Descriptor.html" xlink:show="new" xlink:title="Descriptor.html" xlink:type="simple"><rect codeLine="13" fill="#FEFECE" filter="url(#f12qb7hq4elpzm)" height="103.5313" id="org.eclipse.epf.uma.Descriptor" style="stroke: #A80036; stroke-width: 1.5;" width="249" x="27" y="7"/><ellipse cx="101.25" cy="27.0938" fill="#B4A7E5" rx="11" ry="11" style="stroke: #A80036; stroke-width: 1.0;"/><path d="M102.2031,23.7344 L102.2031,30.3906 L103.9219,30.3906 Q104.5313,30.3906 104.7969,30.625 Q105.0625,30.8594 105.0625,31.25 Q105.0625,31.625 104.7969,31.8594 Q104.5313,32.0938 103.9219,32.0938 L98.7813,32.0938 Q98.1719,32.0938 97.9063,31.8594 Q97.6406,31.625 97.6406,31.2344 Q97.6406,30.8594 97.9063,30.625 Q98.1719,30.3906 98.7813,30.3906 L100.5,30.3906 L100.5,23.7344 L98.7813,23.7344 Q98.1719,23.7344 97.9063,23.5 Q97.6406,23.2656 97.6406,22.875 Q97.6406,22.5 97.9063,22.2656 Q98.1719,22.0313 98.7813,22.0313 L103.9219,22.0313 Q104.5313,22.0313 104.7969,22.2656 Q105.0625,22.5 105.0625,22.875 Q105.0625,23.2656 104.7969,23.5 Q104.5313,23.7344 103.9219,23.7344 L102.2031,23.7344 Z "/><text fill="#000000" font-family="sans-serif" font-size="14" font-style="italic" lengthAdjust="spacingAndGlyphs" textLength="65" x="135.25" y="26.5332">Descriptor</text><text fill="#000000" font-family="sans-serif" font-size="10" font-style="italic" lengthAdjust="spacingAndGlyphs" textLength="92" x="121.75" y="39.9902">org.eclipse.epf.uma</text><line style="stroke: #A80036; stroke-width: 1.5;" x1="28" x2="275" y1="47.1875" y2="47.1875"/><ellipse cx="38" cy="58.1875" fill="#84BE84" rx="3" ry="3" style="stroke: #038048; stroke-width: 1.0;"/><text fill="#000000" font-family="sans-serif" font-size="11" font-style="italic" lengthAdjust="spacingAndGlyphs" textLength="203" x="47" y="62.6064">getIsSynchronizedWithSource(): Boolean</text><ellipse cx="38" cy="72.0234" fill="#84BE84" rx="3" ry="3" style="stroke: #038048; stroke-width: 1.0;"/><text fill="#000000" font-family="sans-serif" font-size="11" font-style="italic" lengthAdjust="spacingAndGlyphs" textLength="223" x="47" y="76.4424">setIsSynchronizedWithSource(Boolean): void</text><ellipse cx="38" cy="85.8594" fill="#84BE84" rx="3" ry="3" style="stroke: #038048; stroke-width: 1.0;"/><text fill="#000000" font-family="sans-serif" font-size="11" font-style="italic" lengthAdjust="spacingAndGlyphs" textLength="202" x="47" y="90.2783">getGuidanceExclude(): EList&lt;Guidance&gt;</text><ellipse cx="38" cy="99.6953" fill="#84BE84" rx="3" ry="3" style="stroke: #038048; stroke-width: 1.0;"/><text fill="#000000" font-family="sans-serif" font-size="11" font-style="italic" lengthAdjust="spacingAndGlyphs" textLength="211" x="47" y="104.1143">getGuidanceAdditional(): EList&lt;Guidance&gt;</text></a><!--MD5=[6335b5ecbbab1701249b2af5f66f83ee]
reverse link org.eclipse.epf.uma.Descriptor to org.eclipse.epf.uma.RoleDescriptor--><path codeLine="20" d="M151.5,131.24 C151.5,144.46 151.5,158.12 151.5,170.88 " fill="none" id="org.eclipse.epf.uma.Descriptor-backto-org.eclipse.epf.uma.RoleDescriptor" style="stroke: #A80036; stroke-width: 1.0;"/><polygon fill="none" points="144.5,131.01,151.5,111.01,158.5,131.01,144.5,131.01" style="stroke: #A80036; stroke-width: 1.0;"/><text fill="#888888" font-family="sans-serif" font-size="10" lengthAdjust="spacingAndGlyphs" textLength="190" x="53.5" y="311.748">UMLDoclet 2.0.12, PlantUML 1.2020.16</text><!--MD5=[017f76a209e26e5094ef4a3e7ab83df6]
@startuml
    set namespaceSeparator none
    hide empty fields
    hide empty methods

    interface "<size:14>RoleDescriptor\n<size:10>org.eclipse.epf.uma" as org.eclipse.epf.uma.RoleDescriptor [[RoleDescriptor.html]] {
        {abstract} +getRole(): Role
        {abstract} +setRole(Role): void
        {abstract} +getModifies(): EList<WorkProductDescriptor>
        {abstract} +getResponsibleFor(): EList<WorkProductDescriptor>
        {abstract} +getResponsibleForExclude(): EList<WorkProduct>
    }

    interface "<size:14>Descriptor\n<size:10>org.eclipse.epf.uma" as org.eclipse.epf.uma.Descriptor [[Descriptor.html]] {
        {abstract} +getIsSynchronizedWithSource(): Boolean
        {abstract} +setIsSynchronizedWithSource(Boolean): void
        {abstract} +getGuidanceExclude(): EList<Guidance>
        {abstract} +getGuidanceAdditional(): EList<Guidance>
    }

    org.eclipse.epf.uma.Descriptor <|- - org.eclipse.epf.uma.RoleDescriptor

    center footer UMLDoclet 2.0.12, PlantUML 1.2020.16
@enduml

PlantUML version 1.2020.16(Sun Aug 23 22:20:43 CEST 2020)
(APACHE source distribution)
Java Runtime: Java(TM) SE Runtime Environment
JVM: Java HotSpot(TM) 64-Bit Server VM
Default Encoding: Cp1252
Language: es
Country: ES
--></g></svg>