<?xml version="1.0" encoding="UTF-8" standalone="no"?><svg xmlns="http://www.w3.org/2000/svg" xmlns:xlink="http://www.w3.org/1999/xlink" contentScriptType="application/ecmascript" contentStyleType="text/css" height="205px" preserveAspectRatio="none" style="width:205px;height:205px;" version="1.1" viewBox="0 0 205 205" width="205px" zoomAndPan="magnify"><defs><filter height="300%" id="f19fl3d5rpd3fn" width="300%" x="-1" y="-1"><feGaussianBlur result="blurOut" stdDeviation="2.0"/><feColorMatrix in="blurOut" result="blurOut2" type="matrix" values="0 0 0 0 0 0 0 0 0 0 0 0 0 0 0 0 0 0 .4 0"/><feOffset dx="4.0" dy="4.0" in="blurOut2" result="blurOut3"/><feBlend in="SourceGraphic" in2="blurOut3" mode="normal"/></filter></defs><g><!--MD5=[f928c1941d8716e4bbebf870a818b4cf]
class org.eclipse.epf.uma.RoleSetGrouping--><a href="RoleSetGrouping.html" target="_top" title="RoleSetGrouping.html" xlink:actuate="onRequest" xlink:href="RoleSetGrouping.html" xlink:show="new" xlink:title="RoleSetGrouping.html" xlink:type="simple"><rect codeLine="5" fill="#FEFECE" filter="url(#f19fl3d5rpd3fn)" height="62.0234" id="org.eclipse.epf.uma.RoleSetGrouping" style="stroke: #A80036; stroke-width: 1.5;" width="176" x="10" y="107"/><ellipse cx="40.75" cy="127.0938" fill="#B4A7E5" rx="11" ry="11" style="stroke: #A80036; stroke-width: 1.0;"/><path d="M41.7031,123.7344 L41.7031,130.3906 L43.4219,130.3906 Q44.0313,130.3906 44.2969,130.625 Q44.5625,130.8594 44.5625,131.25 Q44.5625,131.625 44.2969,131.8594 Q44.0313,132.0938 43.4219,132.0938 L38.2813,132.0938 Q37.6719,132.0938 37.4063,131.8594 Q37.1406,131.625 37.1406,131.2344 Q37.1406,130.8594 37.4063,130.625 Q37.6719,130.3906 38.2813,130.3906 L40,130.3906 L40,123.7344 L38.2813,123.7344 Q37.6719,123.7344 37.4063,123.5 Q37.1406,123.2656 37.1406,122.875 Q37.1406,122.5 37.4063,122.2656 Q37.6719,122.0313 38.2813,122.0313 L43.4219,122.0313 Q44.0313,122.0313 44.2969,122.2656 Q44.5625,122.5 44.5625,122.875 Q44.5625,123.2656 44.2969,123.5 Q44.0313,123.7344 43.4219,123.7344 L41.7031,123.7344 Z "/><text fill="#000000" font-family="sans-serif" font-size="14" font-style="italic" lengthAdjust="spacingAndGlyphs" textLength="109" x="58.25" y="126.5332">RoleSetGrouping</text><text fill="#000000" font-family="sans-serif" font-size="10" font-style="italic" lengthAdjust="spacingAndGlyphs" textLength="92" x="66.75" y="139.9902">org.eclipse.epf.uma</text><line style="stroke: #A80036; stroke-width: 1.5;" x1="11" x2="185" y1="147.1875" y2="147.1875"/><ellipse cx="21" cy="158.1875" fill="#84BE84" rx="3" ry="3" style="stroke: #038048; stroke-width: 1.0;"/><text fill="#000000" font-family="sans-serif" font-size="11" font-style="italic" lengthAdjust="spacingAndGlyphs" textLength="150" x="30" y="162.6064">getRoleSets(): EList&lt;RoleSet&gt;</text></a><!--MD5=[2ebf6b6b3a1faf8ff26b4d3cb3d8aa6c]
class org.eclipse.epf.uma.ContentCategory--><a href="ContentCategory.html" target="_top" title="ContentCategory.html" xlink:actuate="onRequest" xlink:href="ContentCategory.html" xlink:show="new" xlink:title="ContentCategory.html" xlink:type="simple"><rect codeLine="9" fill="#FEFECE" filter="url(#f19fl3d5rpd3fn)" height="40.1875" id="org.eclipse.epf.uma.ContentCategory" style="stroke: #A80036; stroke-width: 1.5;" width="140" x="28" y="7"/><ellipse cx="43" cy="27.0938" fill="#B4A7E5" rx="11" ry="11" style="stroke: #A80036; stroke-width: 1.0;"/><path d="M43.9531,23.7344 L43.9531,30.3906 L45.6719,30.3906 Q46.2813,30.3906 46.5469,30.625 Q46.8125,30.8594 46.8125,31.25 Q46.8125,31.625 46.5469,31.8594 Q46.2813,32.0938 45.6719,32.0938 L40.5313,32.0938 Q39.9219,32.0938 39.6563,31.8594 Q39.3906,31.625 39.3906,31.2344 Q39.3906,30.8594 39.6563,30.625 Q39.9219,30.3906 40.5313,30.3906 L42.25,30.3906 L42.25,23.7344 L40.5313,23.7344 Q39.9219,23.7344 39.6563,23.5 Q39.3906,23.2656 39.3906,22.875 Q39.3906,22.5 39.6563,22.2656 Q39.9219,22.0313 40.5313,22.0313 L45.6719,22.0313 Q46.2813,22.0313 46.5469,22.2656 Q46.8125,22.5 46.8125,22.875 Q46.8125,23.2656 46.5469,23.5 Q46.2813,23.7344 45.6719,23.7344 L43.9531,23.7344 Z "/><text fill="#000000" font-family="sans-serif" font-size="14" font-style="italic" lengthAdjust="spacingAndGlyphs" textLength="108" x="57" y="26.5332">ContentCategory</text><text fill="#000000" font-family="sans-serif" font-size="10" font-style="italic" lengthAdjust="spacingAndGlyphs" textLength="92" x="65" y="39.9902">org.eclipse.epf.uma</text></a><!--MD5=[2cd38a219c260a9ea0f44c98130623f6]
reverse link org.eclipse.epf.uma.ContentCategory to org.eclipse.epf.uma.RoleSetGrouping--><path codeLine="11" d="M98,67.37 C98,80.38 98,94.65 98,106.86 " fill="none" id="org.eclipse.epf.uma.ContentCategory-backto-org.eclipse.epf.uma.RoleSetGrouping" style="stroke: #A80036; stroke-width: 1.0;"/><polygon fill="none" points="91,67.24,98,47.24,105,67.24,91,67.24" style="stroke: #A80036; stroke-width: 1.0;"/><text fill="#888888" font-family="sans-serif" font-size="10" lengthAdjust="spacingAndGlyphs" textLength="190" x="0" y="192.4043">UMLDoclet 2.0.12, PlantUML 1.2020.16</text><!--MD5=[3c7b8fd2f1f6952d26613afe26d34b64]
@startuml
    set namespaceSeparator none
    hide empty fields
    hide empty methods

    interface "<size:14>RoleSetGrouping\n<size:10>org.eclipse.epf.uma" as org.eclipse.epf.uma.RoleSetGrouping [[RoleSetGrouping.html]] {
        {abstract} +getRoleSets(): EList<RoleSet>
    }

    interface "<size:14>ContentCategory\n<size:10>org.eclipse.epf.uma" as org.eclipse.epf.uma.ContentCategory [[ContentCategory.html]]

    org.eclipse.epf.uma.ContentCategory <|- - org.eclipse.epf.uma.RoleSetGrouping

    center footer UMLDoclet 2.0.12, PlantUML 1.2020.16
@enduml

PlantUML version 1.2020.16(Sun Aug 23 22:20:43 CEST 2020)
(APACHE source distribution)
Java Runtime: Java(TM) SE Runtime Environment
JVM: Java HotSpot(TM) 64-Bit Server VM
Default Encoding: Cp1252
Language: es
Country: ES
--></g></svg>