<?xml version="1.0" encoding="UTF-8" standalone="no"?><svg xmlns="http://www.w3.org/2000/svg" xmlns:xlink="http://www.w3.org/1999/xlink" contentScriptType="application/ecmascript" contentStyleType="text/css" height="408px" preserveAspectRatio="none" style="width:247px;height:408px;" version="1.1" viewBox="0 0 247 408" width="247px" zoomAndPan="magnify"><defs><filter height="300%" id="f1mtb4ugohdmba" width="300%" x="-1" y="-1"><feGaussianBlur result="blurOut" stdDeviation="2.0"/><feColorMatrix in="blurOut" result="blurOut2" type="matrix" values="0 0 0 0 0 0 0 0 0 0 0 0 0 0 0 0 0 0 .4 0"/><feOffset dx="4.0" dy="4.0" in="blurOut2" result="blurOut3"/><feBlend in="SourceGraphic" in2="blurOut3" mode="normal"/></filter></defs><g><!--MD5=[3a2b6e903e370022e2479ab276e6520e]
class org.eclipse.epf.uma.RoleDescription--><a href="RoleDescription.html" target="_top" title="RoleDescription.html" xlink:actuate="onRequest" xlink:href="RoleDescription.html" xlink:show="new" xlink:title="RoleDescription.html" xlink:type="simple"><rect codeLine="5" fill="#FEFECE" filter="url(#f1mtb4ugohdmba)" height="131.2031" id="org.eclipse.epf.uma.RoleDescription" style="stroke: #A80036; stroke-width: 1.5;" width="221" x="7" y="240"/><ellipse cx="63.25" cy="260.0938" fill="#B4A7E5" rx="11" ry="11" style="stroke: #A80036; stroke-width: 1.0;"/><path d="M64.2031,256.7344 L64.2031,263.3906 L65.9219,263.3906 Q66.5313,263.3906 66.7969,263.625 Q67.0625,263.8594 67.0625,264.25 Q67.0625,264.625 66.7969,264.8594 Q66.5313,265.0938 65.9219,265.0938 L60.7813,265.0938 Q60.1719,265.0938 59.9063,264.8594 Q59.6406,264.625 59.6406,264.2344 Q59.6406,263.8594 59.9063,263.625 Q60.1719,263.3906 60.7813,263.3906 L62.5,263.3906 L62.5,256.7344 L60.7813,256.7344 Q60.1719,256.7344 59.9063,256.5 Q59.6406,256.2656 59.6406,255.875 Q59.6406,255.5 59.9063,255.2656 Q60.1719,255.0313 60.7813,255.0313 L65.9219,255.0313 Q66.5313,255.0313 66.7969,255.2656 Q67.0625,255.5 67.0625,255.875 Q67.0625,256.2656 66.7969,256.5 Q66.5313,256.7344 65.9219,256.7344 L64.2031,256.7344 Z "/><text fill="#000000" font-family="sans-serif" font-size="14" font-style="italic" lengthAdjust="spacingAndGlyphs" textLength="100" x="83.75" y="259.5332">RoleDescription</text><text fill="#000000" font-family="sans-serif" font-size="10" font-style="italic" lengthAdjust="spacingAndGlyphs" textLength="92" x="87.75" y="272.9902">org.eclipse.epf.uma</text><line style="stroke: #A80036; stroke-width: 1.5;" x1="8" x2="227" y1="280.1875" y2="280.1875"/><ellipse cx="18" cy="291.1875" fill="#84BE84" rx="3" ry="3" style="stroke: #038048; stroke-width: 1.0;"/><text fill="#000000" font-family="sans-serif" font-size="11" font-style="italic" lengthAdjust="spacingAndGlyphs" textLength="86" x="27" y="295.6064">getSkills(): String</text><ellipse cx="18" cy="305.0234" fill="#84BE84" rx="3" ry="3" style="stroke: #038048; stroke-width: 1.0;"/><text fill="#000000" font-family="sans-serif" font-size="11" font-style="italic" lengthAdjust="spacingAndGlyphs" textLength="106" x="27" y="309.4424">setSkills(String): void</text><ellipse cx="18" cy="318.8594" fill="#84BE84" rx="3" ry="3" style="stroke: #038048; stroke-width: 1.0;"/><text fill="#000000" font-family="sans-serif" font-size="11" font-style="italic" lengthAdjust="spacingAndGlyphs" textLength="175" x="27" y="323.2783">getAssignmentApproaches(): String</text><ellipse cx="18" cy="332.6953" fill="#84BE84" rx="3" ry="3" style="stroke: #038048; stroke-width: 1.0;"/><text fill="#000000" font-family="sans-serif" font-size="11" font-style="italic" lengthAdjust="spacingAndGlyphs" textLength="195" x="27" y="337.1143">setAssignmentApproaches(String): void</text><ellipse cx="18" cy="346.5313" fill="#84BE84" rx="3" ry="3" style="stroke: #038048; stroke-width: 1.0;"/><text fill="#000000" font-family="sans-serif" font-size="11" font-style="italic" lengthAdjust="spacingAndGlyphs" textLength="108" x="27" y="350.9502">getSynonyms(): String</text><ellipse cx="18" cy="360.3672" fill="#84BE84" rx="3" ry="3" style="stroke: #038048; stroke-width: 1.0;"/><text fill="#000000" font-family="sans-serif" font-size="11" font-style="italic" lengthAdjust="spacingAndGlyphs" textLength="128" x="27" y="364.7861">setSynonyms(String): void</text></a><!--MD5=[ac89fbf343ff51a3f64fb8f81ee032c9]
class org.eclipse.epf.uma.ContentDescription--><a href="ContentDescription.html" target="_top" title="ContentDescription.html" xlink:actuate="onRequest" xlink:href="ContentDescription.html" xlink:show="new" xlink:title="ContentDescription.html" xlink:type="simple"><rect codeLine="14" fill="#FEFECE" filter="url(#f1mtb4ugohdmba)" height="172.7109" id="org.eclipse.epf.uma.ContentDescription" style="stroke: #A80036; stroke-width: 1.5;" width="219" x="8" y="7"/><ellipse cx="52.75" cy="27.0938" fill="#B4A7E5" rx="11" ry="11" style="stroke: #A80036; stroke-width: 1.0;"/><path d="M53.7031,23.7344 L53.7031,30.3906 L55.4219,30.3906 Q56.0313,30.3906 56.2969,30.625 Q56.5625,30.8594 56.5625,31.25 Q56.5625,31.625 56.2969,31.8594 Q56.0313,32.0938 55.4219,32.0938 L50.2813,32.0938 Q49.6719,32.0938 49.4063,31.8594 Q49.1406,31.625 49.1406,31.2344 Q49.1406,30.8594 49.4063,30.625 Q49.6719,30.3906 50.2813,30.3906 L52,30.3906 L52,23.7344 L50.2813,23.7344 Q49.6719,23.7344 49.4063,23.5 Q49.1406,23.2656 49.1406,22.875 Q49.1406,22.5 49.4063,22.2656 Q49.6719,22.0313 50.2813,22.0313 L55.4219,22.0313 Q56.0313,22.0313 56.2969,22.2656 Q56.5625,22.5 56.5625,22.875 Q56.5625,23.2656 56.2969,23.5 Q56.0313,23.7344 55.4219,23.7344 L53.7031,23.7344 Z "/><text fill="#000000" font-family="sans-serif" font-size="14" font-style="italic" lengthAdjust="spacingAndGlyphs" textLength="121" x="73.25" y="26.5332">ContentDescription</text><text fill="#000000" font-family="sans-serif" font-size="10" font-style="italic" lengthAdjust="spacingAndGlyphs" textLength="92" x="87.75" y="39.9902">org.eclipse.epf.uma</text><line style="stroke: #A80036; stroke-width: 1.5;" x1="9" x2="226" y1="47.1875" y2="47.1875"/><ellipse cx="19" cy="58.1875" fill="#84BE84" rx="3" ry="3" style="stroke: #038048; stroke-width: 1.0;"/><text fill="#000000" font-family="sans-serif" font-size="11" font-style="italic" lengthAdjust="spacingAndGlyphs" textLength="139" x="28" y="62.6064">getMainDescription(): String</text><ellipse cx="19" cy="72.0234" fill="#84BE84" rx="3" ry="3" style="stroke: #038048; stroke-width: 1.0;"/><text fill="#000000" font-family="sans-serif" font-size="11" font-style="italic" lengthAdjust="spacingAndGlyphs" textLength="159" x="28" y="76.4424">setMainDescription(String): void</text><ellipse cx="19" cy="85.8594" fill="#84BE84" rx="3" ry="3" style="stroke: #038048; stroke-width: 1.0;"/><text fill="#000000" font-family="sans-serif" font-size="11" font-style="italic" lengthAdjust="spacingAndGlyphs" textLength="146" x="28" y="90.2783">getSections(): EList&lt;Section&gt;</text><ellipse cx="19" cy="99.6953" fill="#84BE84" rx="3" ry="3" style="stroke: #038048; stroke-width: 1.0;"/><text fill="#000000" font-family="sans-serif" font-size="11" font-style="italic" lengthAdjust="spacingAndGlyphs" textLength="108" x="28" y="104.1143">getExternalId(): String</text><ellipse cx="19" cy="113.5313" fill="#84BE84" rx="3" ry="3" style="stroke: #038048; stroke-width: 1.0;"/><text fill="#000000" font-family="sans-serif" font-size="11" font-style="italic" lengthAdjust="spacingAndGlyphs" textLength="128" x="28" y="117.9502">setExternalId(String): void</text><ellipse cx="19" cy="127.3672" fill="#84BE84" rx="3" ry="3" style="stroke: #038048; stroke-width: 1.0;"/><text fill="#000000" font-family="sans-serif" font-size="11" font-style="italic" lengthAdjust="spacingAndGlyphs" textLength="151" x="28" y="131.7861">getKeyConsiderations(): String</text><ellipse cx="19" cy="141.2031" fill="#84BE84" rx="3" ry="3" style="stroke: #038048; stroke-width: 1.0;"/><text fill="#000000" font-family="sans-serif" font-size="11" font-style="italic" lengthAdjust="spacingAndGlyphs" textLength="171" x="28" y="145.6221">setKeyConsiderations(String): void</text><ellipse cx="19" cy="155.0391" fill="#84BE84" rx="3" ry="3" style="stroke: #038048; stroke-width: 1.0;"/><text fill="#000000" font-family="sans-serif" font-size="11" font-style="italic" lengthAdjust="spacingAndGlyphs" textLength="173" x="28" y="159.458">getLongPresentationName(): String</text><ellipse cx="19" cy="168.875" fill="#84BE84" rx="3" ry="3" style="stroke: #038048; stroke-width: 1.0;"/><text fill="#000000" font-family="sans-serif" font-size="11" font-style="italic" lengthAdjust="spacingAndGlyphs" textLength="193" x="28" y="173.2939">setLongPresentationName(String): void</text></a><!--MD5=[57749fe6f5baac013560ab6a923b5a0b]
reverse link org.eclipse.epf.uma.ContentDescription to org.eclipse.epf.uma.RoleDescription--><path codeLine="26" d="M117.5,200.55 C117.5,214 117.5,227.44 117.5,239.97 " fill="none" id="org.eclipse.epf.uma.ContentDescription-backto-org.eclipse.epf.uma.RoleDescription" style="stroke: #A80036; stroke-width: 1.0;"/><polygon fill="none" points="110.5,200.22,117.5,180.22,124.5,200.22,110.5,200.22" style="stroke: #A80036; stroke-width: 1.0;"/><text fill="#888888" font-family="sans-serif" font-size="10" lengthAdjust="spacingAndGlyphs" textLength="190" x="19.5" y="394.584">UMLDoclet 2.0.12, PlantUML 1.2020.16</text><!--MD5=[429c4d0b65801c40e108572420c9b647]
@startuml
    set namespaceSeparator none
    hide empty fields
    hide empty methods

    interface "<size:14>RoleDescription\n<size:10>org.eclipse.epf.uma" as org.eclipse.epf.uma.RoleDescription [[RoleDescription.html]] {
        {abstract} +getSkills(): String
        {abstract} +setSkills(String): void
        {abstract} +getAssignmentApproaches(): String
        {abstract} +setAssignmentApproaches(String): void
        {abstract} +getSynonyms(): String
        {abstract} +setSynonyms(String): void
    }

    interface "<size:14>ContentDescription\n<size:10>org.eclipse.epf.uma" as org.eclipse.epf.uma.ContentDescription [[ContentDescription.html]] {
        {abstract} +getMainDescription(): String
        {abstract} +setMainDescription(String): void
        {abstract} +getSections(): EList<Section>
        {abstract} +getExternalId(): String
        {abstract} +setExternalId(String): void
        {abstract} +getKeyConsiderations(): String
        {abstract} +setKeyConsiderations(String): void
        {abstract} +getLongPresentationName(): String
        {abstract} +setLongPresentationName(String): void
    }

    org.eclipse.epf.uma.ContentDescription <|- - org.eclipse.epf.uma.RoleDescription

    center footer UMLDoclet 2.0.12, PlantUML 1.2020.16
@enduml

PlantUML version 1.2020.16(Sun Aug 23 22:20:43 CEST 2020)
(APACHE source distribution)
Java Runtime: Java(TM) SE Runtime Environment
JVM: Java HotSpot(TM) 64-Bit Server VM
Default Encoding: Cp1252
Language: es
Country: ES
--></g></svg>