<?xml version="1.0" encoding="UTF-8" standalone="no"?><svg xmlns="http://www.w3.org/2000/svg" xmlns:xlink="http://www.w3.org/1999/xlink" contentScriptType="application/ecmascript" contentStyleType="text/css" height="324px" preserveAspectRatio="none" style="width:561px;height:324px;" version="1.1" viewBox="0 0 561 324" width="561px" zoomAndPan="magnify"><defs><filter height="300%" id="fi9f8cfndgno3" width="300%" x="-1" y="-1"><feGaussianBlur result="blurOut" stdDeviation="2.0"/><feColorMatrix in="blurOut" result="blurOut2" type="matrix" values="0 0 0 0 0 0 0 0 0 0 0 0 0 0 0 0 0 0 .4 0"/><feOffset dx="4.0" dy="4.0" in="blurOut2" result="blurOut3"/><feBlend in="SourceGraphic" in2="blurOut3" mode="normal"/></filter></defs><g><!--MD5=[06785e49f63dcaafb18cac2312f44b22]
class org.eclipse.epf.uma.Role--><a href="Role.html" target="_top" title="Role.html" xlink:actuate="onRequest" xlink:href="Role.html" xlink:show="new" xlink:title="Role.html" xlink:type="simple"><rect codeLine="5" fill="#FEFECE" filter="url(#fi9f8cfndgno3)" height="75.8594" id="org.eclipse.epf.uma.Role" style="stroke: #A80036; stroke-width: 1.5;" width="237" x="172.5" y="212"/><ellipse cx="240.75" cy="232.0938" fill="#B4A7E5" rx="11" ry="11" style="stroke: #A80036; stroke-width: 1.0;"/><path d="M241.7031,228.7344 L241.7031,235.3906 L243.4219,235.3906 Q244.0313,235.3906 244.2969,235.625 Q244.5625,235.8594 244.5625,236.25 Q244.5625,236.625 244.2969,236.8594 Q244.0313,237.0938 243.4219,237.0938 L238.2813,237.0938 Q237.6719,237.0938 237.4063,236.8594 Q237.1406,236.625 237.1406,236.2344 Q237.1406,235.8594 237.4063,235.625 Q237.6719,235.3906 238.2813,235.3906 L240,235.3906 L240,228.7344 L238.2813,228.7344 Q237.6719,228.7344 237.4063,228.5 Q237.1406,228.2656 237.1406,227.875 Q237.1406,227.5 237.4063,227.2656 Q237.6719,227.0313 238.2813,227.0313 L243.4219,227.0313 Q244.0313,227.0313 244.2969,227.2656 Q244.5625,227.5 244.5625,227.875 Q244.5625,228.2656 244.2969,228.5 Q244.0313,228.7344 243.4219,228.7344 L241.7031,228.7344 Z "/><text fill="#000000" font-family="sans-serif" font-size="14" font-style="italic" lengthAdjust="spacingAndGlyphs" textLength="29" x="292.75" y="231.5332">Role</text><text fill="#000000" font-family="sans-serif" font-size="10" font-style="italic" lengthAdjust="spacingAndGlyphs" textLength="92" x="261.25" y="244.9902">org.eclipse.epf.uma</text><line style="stroke: #A80036; stroke-width: 1.5;" x1="173.5" x2="408.5" y1="252.1875" y2="252.1875"/><ellipse cx="183.5" cy="263.1875" fill="#84BE84" rx="3" ry="3" style="stroke: #038048; stroke-width: 1.0;"/><text fill="#000000" font-family="sans-serif" font-size="11" font-style="italic" lengthAdjust="spacingAndGlyphs" textLength="173" x="192.5" y="267.6064">getModifies(): EList&lt;WorkProduct&gt;</text><ellipse cx="183.5" cy="277.0234" fill="#84BE84" rx="3" ry="3" style="stroke: #038048; stroke-width: 1.0;"/><text fill="#000000" font-family="sans-serif" font-size="11" font-style="italic" lengthAdjust="spacingAndGlyphs" textLength="211" x="192.5" y="281.4424">getResponsibleFor(): EList&lt;WorkProduct&gt;</text></a><!--MD5=[13c5eb85a3ca1cf746cc47e30073ec20]
class org.eclipse.epf.uma.ContentElement--><a href="ContentElement.html" target="_top" title="ContentElement.html" xlink:actuate="onRequest" xlink:href="ContentElement.html" xlink:show="new" xlink:title="ContentElement.html" xlink:type="simple"><rect codeLine="10" fill="#FEFECE" filter="url(#fi9f8cfndgno3)" height="145.0391" id="org.eclipse.epf.uma.ContentElement" style="stroke: #A80036; stroke-width: 1.5;" width="284" x="7" y="7"/><ellipse cx="94.25" cy="27.0938" fill="#B4A7E5" rx="11" ry="11" style="stroke: #A80036; stroke-width: 1.0;"/><path d="M95.2031,23.7344 L95.2031,30.3906 L96.9219,30.3906 Q97.5313,30.3906 97.7969,30.625 Q98.0625,30.8594 98.0625,31.25 Q98.0625,31.625 97.7969,31.8594 Q97.5313,32.0938 96.9219,32.0938 L91.7813,32.0938 Q91.1719,32.0938 90.9063,31.8594 Q90.6406,31.625 90.6406,31.2344 Q90.6406,30.8594 90.9063,30.625 Q91.1719,30.3906 91.7813,30.3906 L93.5,30.3906 L93.5,23.7344 L91.7813,23.7344 Q91.1719,23.7344 90.9063,23.5 Q90.6406,23.2656 90.6406,22.875 Q90.6406,22.5 90.9063,22.2656 Q91.1719,22.0313 91.7813,22.0313 L96.9219,22.0313 Q97.5313,22.0313 97.7969,22.2656 Q98.0625,22.5 98.0625,22.875 Q98.0625,23.2656 97.7969,23.5 Q97.5313,23.7344 96.9219,23.7344 L95.2031,23.7344 Z "/><text fill="#000000" font-family="sans-serif" font-size="14" font-style="italic" lengthAdjust="spacingAndGlyphs" textLength="101" x="114.75" y="26.5332">ContentElement</text><text fill="#000000" font-family="sans-serif" font-size="10" font-style="italic" lengthAdjust="spacingAndGlyphs" textLength="92" x="119.25" y="39.9902">org.eclipse.epf.uma</text><line style="stroke: #A80036; stroke-width: 1.5;" x1="8" x2="290" y1="47.1875" y2="47.1875"/><ellipse cx="18" cy="58.1875" fill="#84BE84" rx="3" ry="3" style="stroke: #038048; stroke-width: 1.0;"/><text fill="#000000" font-family="sans-serif" font-size="11" font-style="italic" lengthAdjust="spacingAndGlyphs" textLength="258" x="27" y="62.6064">getSupportingMaterials(): EList&lt;SupportingMaterial&gt;</text><ellipse cx="18" cy="72.0234" fill="#84BE84" rx="3" ry="3" style="stroke: #038048; stroke-width: 1.0;"/><text fill="#000000" font-family="sans-serif" font-size="11" font-style="italic" lengthAdjust="spacingAndGlyphs" textLength="208" x="27" y="76.4424">getConceptsAndPapers(): EList&lt;Concept&gt;</text><ellipse cx="18" cy="85.8594" fill="#84BE84" rx="3" ry="3" style="stroke: #038048; stroke-width: 1.0;"/><text fill="#000000" font-family="sans-serif" font-size="11" font-style="italic" lengthAdjust="spacingAndGlyphs" textLength="166" x="27" y="90.2783">getChecklists(): EList&lt;Checklist&gt;</text><ellipse cx="18" cy="99.6953" fill="#84BE84" rx="3" ry="3" style="stroke: #038048; stroke-width: 1.0;"/><text fill="#000000" font-family="sans-serif" font-size="11" font-style="italic" lengthAdjust="spacingAndGlyphs" textLength="168" x="27" y="104.1143">getGuidelines(): EList&lt;Guideline&gt;</text><ellipse cx="18" cy="113.5313" fill="#84BE84" rx="3" ry="3" style="stroke: #038048; stroke-width: 1.0;"/><text fill="#000000" font-family="sans-serif" font-size="11" font-style="italic" lengthAdjust="spacingAndGlyphs" textLength="158" x="27" y="117.9502">getExamples(): EList&lt;Example&gt;</text><ellipse cx="18" cy="127.3672" fill="#84BE84" rx="3" ry="3" style="stroke: #038048; stroke-width: 1.0;"/><text fill="#000000" font-family="sans-serif" font-size="11" font-style="italic" lengthAdjust="spacingAndGlyphs" textLength="176" x="27" y="131.7861">getAssets(): EList&lt;ReusableAsset&gt;</text><ellipse cx="18" cy="141.2031" fill="#84BE84" rx="3" ry="3" style="stroke: #038048; stroke-width: 1.0;"/><text fill="#000000" font-family="sans-serif" font-size="11" font-style="italic" lengthAdjust="spacingAndGlyphs" textLength="210" x="27" y="145.6221">getTermdefinition(): EList&lt;TermDefinition&gt;</text></a><!--MD5=[f174583b3eab5efe0bc22d67b8bdbb60]
class org.eclipse.epf.uma.FulfillableElement--><a href="FulfillableElement.html" target="_top" title="FulfillableElement.html" xlink:actuate="onRequest" xlink:href="FulfillableElement.html" xlink:show="new" xlink:title="FulfillableElement.html" xlink:type="simple"><rect codeLine="19" fill="#FEFECE" filter="url(#fi9f8cfndgno3)" height="62.0234" id="org.eclipse.epf.uma.FulfillableElement" style="stroke: #A80036; stroke-width: 1.5;" width="216" x="326" y="48.5"/><ellipse cx="374.25" cy="68.5938" fill="#B4A7E5" rx="11" ry="11" style="stroke: #A80036; stroke-width: 1.0;"/><path d="M375.2031,65.2344 L375.2031,71.8906 L376.9219,71.8906 Q377.5313,71.8906 377.7969,72.125 Q378.0625,72.3594 378.0625,72.75 Q378.0625,73.125 377.7969,73.3594 Q377.5313,73.5938 376.9219,73.5938 L371.7813,73.5938 Q371.1719,73.5938 370.9063,73.3594 Q370.6406,73.125 370.6406,72.7344 Q370.6406,72.3594 370.9063,72.125 Q371.1719,71.8906 371.7813,71.8906 L373.5,71.8906 L373.5,65.2344 L371.7813,65.2344 Q371.1719,65.2344 370.9063,65 Q370.6406,64.7656 370.6406,64.375 Q370.6406,64 370.9063,63.7656 Q371.1719,63.5313 371.7813,63.5313 L376.9219,63.5313 Q377.5313,63.5313 377.7969,63.7656 Q378.0625,64 378.0625,64.375 Q378.0625,64.7656 377.7969,65 Q377.5313,65.2344 376.9219,65.2344 L375.2031,65.2344 Z "/><text fill="#000000" font-family="sans-serif" font-size="14" font-style="italic" lengthAdjust="spacingAndGlyphs" textLength="111" x="394.75" y="68.0332">FulfillableElement</text><text fill="#000000" font-family="sans-serif" font-size="10" font-style="italic" lengthAdjust="spacingAndGlyphs" textLength="92" x="404.25" y="81.4902">org.eclipse.epf.uma</text><line style="stroke: #A80036; stroke-width: 1.5;" x1="327" x2="541" y1="88.6875" y2="88.6875"/><ellipse cx="337" cy="99.6875" fill="#84BE84" rx="3" ry="3" style="stroke: #038048; stroke-width: 1.0;"/><text fill="#000000" font-family="sans-serif" font-size="11" font-style="italic" lengthAdjust="spacingAndGlyphs" textLength="190" x="346" y="104.1064">getFulfills(): EList&lt;FulfillableElement&gt;</text></a><!--MD5=[26afde7b9c3a762d547e27d5a551cd4d]
reverse link org.eclipse.epf.uma.ContentElement to org.eclipse.epf.uma.Role--><path codeLine="23" d="M222.61,167.85 C235.62,183.28 248.51,198.58 259.53,211.66 " fill="none" id="org.eclipse.epf.uma.ContentElement-backto-org.eclipse.epf.uma.Role" style="stroke: #A80036; stroke-width: 1.0;"/><polygon fill="none" points="217.17,172.25,209.63,152.45,227.87,163.23,217.17,172.25" style="stroke: #A80036; stroke-width: 1.0;"/><!--MD5=[ce82a23d4b31e51fcc2e64d175168d76]
reverse link org.eclipse.epf.uma.FulfillableElement to org.eclipse.epf.uma.Role--><path codeLine="24" d="M395.42,125.96 C372.6,152.85 344.06,186.47 322.59,211.78 " fill="none" id="org.eclipse.epf.uma.FulfillableElement-backto-org.eclipse.epf.uma.Role" style="stroke: #A80036; stroke-width: 1.0;"/><polygon fill="none" points="390.16,121.34,408.43,110.62,400.83,130.4,390.16,121.34" style="stroke: #A80036; stroke-width: 1.0;"/><text fill="#888888" font-family="sans-serif" font-size="10" lengthAdjust="spacingAndGlyphs" textLength="190" x="176.5" y="311.2402">UMLDoclet 2.0.12, PlantUML 1.2020.16</text><!--MD5=[b1f906582915b5efb73bd63c30f2a93a]
@startuml
    set namespaceSeparator none
    hide empty fields
    hide empty methods

    interface "<size:14>Role\n<size:10>org.eclipse.epf.uma" as org.eclipse.epf.uma.Role [[Role.html]] {
        {abstract} +getModifies(): EList<WorkProduct>
        {abstract} +getResponsibleFor(): EList<WorkProduct>
    }

    interface "<size:14>ContentElement\n<size:10>org.eclipse.epf.uma" as org.eclipse.epf.uma.ContentElement [[ContentElement.html]] {
        {abstract} +getSupportingMaterials(): EList<SupportingMaterial>
        {abstract} +getConceptsAndPapers(): EList<Concept>
        {abstract} +getChecklists(): EList<Checklist>
        {abstract} +getGuidelines(): EList<Guideline>
        {abstract} +getExamples(): EList<Example>
        {abstract} +getAssets(): EList<ReusableAsset>
        {abstract} +getTermdefinition(): EList<TermDefinition>
    }
    interface "<size:14>FulfillableElement\n<size:10>org.eclipse.epf.uma" as org.eclipse.epf.uma.FulfillableElement [[FulfillableElement.html]] {
        {abstract} +getFulfills(): EList<FulfillableElement>
    }

    org.eclipse.epf.uma.ContentElement <|- - org.eclipse.epf.uma.Role
    org.eclipse.epf.uma.FulfillableElement <|- - org.eclipse.epf.uma.Role

    center footer UMLDoclet 2.0.12, PlantUML 1.2020.16
@enduml

PlantUML version 1.2020.16(Sun Aug 23 22:20:43 CEST 2020)
(APACHE source distribution)
Java Runtime: Java(TM) SE Runtime Environment
JVM: Java HotSpot(TM) 64-Bit Server VM
Default Encoding: Cp1252
Language: es
Country: ES
--></g></svg>