<?xml version="1.0" encoding="UTF-8" standalone="no"?><svg xmlns="http://www.w3.org/2000/svg" xmlns:xlink="http://www.w3.org/1999/xlink" contentScriptType="application/ecmascript" contentStyleType="text/css" height="352px" preserveAspectRatio="none" style="width:327px;height:352px;" version="1.1" viewBox="0 0 327 352" width="327px" zoomAndPan="magnify"><defs><filter height="300%" id="f174p6r70nhj3q" width="300%" x="-1" y="-1"><feGaussianBlur result="blurOut" stdDeviation="2.0"/><feColorMatrix in="blurOut" result="blurOut2" type="matrix" values="0 0 0 0 0 0 0 0 0 0 0 0 0 0 0 0 0 0 .4 0"/><feOffset dx="4.0" dy="4.0" in="blurOut2" result="blurOut3"/><feBlend in="SourceGraphic" in2="blurOut3" mode="normal"/></filter></defs><g><!--MD5=[709cecbf547b83c99423286fd55887c5]
class org.eclipse.epf.uma.Section--><a href="Section.html" target="_top" title="Section.html" xlink:actuate="onRequest" xlink:href="Section.html" xlink:show="new" xlink:title="Section.html" xlink:type="simple"><rect codeLine="5" fill="#FEFECE" filter="url(#f174p6r70nhj3q)" height="145.0391" id="org.eclipse.epf.uma.Section" style="stroke: #A80036; stroke-width: 1.5;" width="198" x="58.5" y="171"/><ellipse cx="107.25" cy="191.0938" fill="#B4A7E5" rx="11" ry="11" style="stroke: #A80036; stroke-width: 1.0;"/><path d="M108.2031,187.7344 L108.2031,194.3906 L109.9219,194.3906 Q110.5313,194.3906 110.7969,194.625 Q111.0625,194.8594 111.0625,195.25 Q111.0625,195.625 110.7969,195.8594 Q110.5313,196.0938 109.9219,196.0938 L104.7813,196.0938 Q104.1719,196.0938 103.9063,195.8594 Q103.6406,195.625 103.6406,195.2344 Q103.6406,194.8594 103.9063,194.625 Q104.1719,194.3906 104.7813,194.3906 L106.5,194.3906 L106.5,187.7344 L104.7813,187.7344 Q104.1719,187.7344 103.9063,187.5 Q103.6406,187.2656 103.6406,186.875 Q103.6406,186.5 103.9063,186.2656 Q104.1719,186.0313 104.7813,186.0313 L109.9219,186.0313 Q110.5313,186.0313 110.7969,186.2656 Q111.0625,186.5 111.0625,186.875 Q111.0625,187.2656 110.7969,187.5 Q110.5313,187.7344 109.9219,187.7344 L108.2031,187.7344 Z "/><text fill="#000000" font-family="sans-serif" font-size="14" font-style="italic" lengthAdjust="spacingAndGlyphs" textLength="47" x="150.25" y="190.5332">Section</text><text fill="#000000" font-family="sans-serif" font-size="10" font-style="italic" lengthAdjust="spacingAndGlyphs" textLength="92" x="127.75" y="203.9902">org.eclipse.epf.uma</text><line style="stroke: #A80036; stroke-width: 1.5;" x1="59.5" x2="255.5" y1="211.1875" y2="211.1875"/><ellipse cx="69.5" cy="222.1875" fill="#84BE84" rx="3" ry="3" style="stroke: #038048; stroke-width: 1.0;"/><text fill="#000000" font-family="sans-serif" font-size="11" font-style="italic" lengthAdjust="spacingAndGlyphs" textLength="124" x="78.5" y="226.6064">getSectionName(): String</text><ellipse cx="69.5" cy="236.0234" fill="#84BE84" rx="3" ry="3" style="stroke: #038048; stroke-width: 1.0;"/><text fill="#000000" font-family="sans-serif" font-size="11" font-style="italic" lengthAdjust="spacingAndGlyphs" textLength="144" x="78.5" y="240.4424">setSectionName(String): void</text><ellipse cx="69.5" cy="249.8594" fill="#84BE84" rx="3" ry="3" style="stroke: #038048; stroke-width: 1.0;"/><text fill="#000000" font-family="sans-serif" font-size="11" font-style="italic" lengthAdjust="spacingAndGlyphs" textLength="152" x="78.5" y="254.2783">getSectionDescription(): String</text><ellipse cx="69.5" cy="263.6953" fill="#84BE84" rx="3" ry="3" style="stroke: #038048; stroke-width: 1.0;"/><text fill="#000000" font-family="sans-serif" font-size="11" font-style="italic" lengthAdjust="spacingAndGlyphs" textLength="172" x="78.5" y="268.1143">setSectionDescription(String): void</text><ellipse cx="69.5" cy="277.5313" fill="#84BE84" rx="3" ry="3" style="stroke: #038048; stroke-width: 1.0;"/><text fill="#000000" font-family="sans-serif" font-size="11" font-style="italic" lengthAdjust="spacingAndGlyphs" textLength="166" x="78.5" y="281.9502">getSubSections(): EList&lt;Section&gt;</text><ellipse cx="69.5" cy="291.3672" fill="#84BE84" rx="3" ry="3" style="stroke: #038048; stroke-width: 1.0;"/><text fill="#000000" font-family="sans-serif" font-size="11" font-style="italic" lengthAdjust="spacingAndGlyphs" textLength="129" x="78.5" y="295.7861">getPredecessor(): Section</text><ellipse cx="69.5" cy="305.2031" fill="#84BE84" rx="3" ry="3" style="stroke: #038048; stroke-width: 1.0;"/><text fill="#000000" font-family="sans-serif" font-size="11" font-style="italic" lengthAdjust="spacingAndGlyphs" textLength="149" x="78.5" y="309.6221">setPredecessor(Section): void</text></a><!--MD5=[3feaaf670fc79e387ff2ee6de862556d]
class org.eclipse.epf.uma.VariabilityElement--><a href="VariabilityElement.html" target="_top" title="VariabilityElement.html" xlink:actuate="onRequest" xlink:href="VariabilityElement.html" xlink:show="new" xlink:title="VariabilityElement.html" xlink:type="simple"><rect codeLine="15" fill="#FEFECE" filter="url(#f174p6r70nhj3q)" height="103.5313" id="org.eclipse.epf.uma.VariabilityElement" style="stroke: #A80036; stroke-width: 1.5;" width="301" x="7" y="7"/><ellipse cx="97.25" cy="27.0938" fill="#B4A7E5" rx="11" ry="11" style="stroke: #A80036; stroke-width: 1.0;"/><path d="M98.2031,23.7344 L98.2031,30.3906 L99.9219,30.3906 Q100.5313,30.3906 100.7969,30.625 Q101.0625,30.8594 101.0625,31.25 Q101.0625,31.625 100.7969,31.8594 Q100.5313,32.0938 99.9219,32.0938 L94.7813,32.0938 Q94.1719,32.0938 93.9063,31.8594 Q93.6406,31.625 93.6406,31.2344 Q93.6406,30.8594 93.9063,30.625 Q94.1719,30.3906 94.7813,30.3906 L96.5,30.3906 L96.5,23.7344 L94.7813,23.7344 Q94.1719,23.7344 93.9063,23.5 Q93.6406,23.2656 93.6406,22.875 Q93.6406,22.5 93.9063,22.2656 Q94.1719,22.0313 94.7813,22.0313 L99.9219,22.0313 Q100.5313,22.0313 100.7969,22.2656 Q101.0625,22.5 101.0625,22.875 Q101.0625,23.2656 100.7969,23.5 Q100.5313,23.7344 99.9219,23.7344 L98.2031,23.7344 Z "/><text fill="#000000" font-family="sans-serif" font-size="14" font-style="italic" lengthAdjust="spacingAndGlyphs" textLength="112" x="117.75" y="26.5332">VariabilityElement</text><text fill="#000000" font-family="sans-serif" font-size="10" font-style="italic" lengthAdjust="spacingAndGlyphs" textLength="92" x="127.75" y="39.9902">org.eclipse.epf.uma</text><line style="stroke: #A80036; stroke-width: 1.5;" x1="8" x2="307" y1="47.1875" y2="47.1875"/><ellipse cx="18" cy="58.1875" fill="#84BE84" rx="3" ry="3" style="stroke: #038048; stroke-width: 1.0;"/><text fill="#000000" font-family="sans-serif" font-size="11" font-style="italic" lengthAdjust="spacingAndGlyphs" textLength="177" x="27" y="62.6064">getVariabilityType(): VariabilityType</text><ellipse cx="18" cy="72.0234" fill="#84BE84" rx="3" ry="3" style="stroke: #038048; stroke-width: 1.0;"/><text fill="#000000" font-family="sans-serif" font-size="11" font-style="italic" lengthAdjust="spacingAndGlyphs" textLength="197" x="27" y="76.4424">setVariabilityType(VariabilityType): void</text><ellipse cx="18" cy="85.8594" fill="#84BE84" rx="3" ry="3" style="stroke: #038048; stroke-width: 1.0;"/><text fill="#000000" font-family="sans-serif" font-size="11" font-style="italic" lengthAdjust="spacingAndGlyphs" textLength="255" x="27" y="90.2783">getVariabilityBasedOnElement(): VariabilityElement</text><ellipse cx="18" cy="99.6953" fill="#84BE84" rx="3" ry="3" style="stroke: #038048; stroke-width: 1.0;"/><text fill="#000000" font-family="sans-serif" font-size="11" font-style="italic" lengthAdjust="spacingAndGlyphs" textLength="275" x="27" y="104.1143">setVariabilityBasedOnElement(VariabilityElement): void</text></a><!--MD5=[ff9411710a5cee9911c4b47992bde62c]
reverse link org.eclipse.epf.uma.VariabilityElement to org.eclipse.epf.uma.Section--><path codeLine="22" d="M157.5,131.61 C157.5,144.49 157.5,157.92 157.5,170.8 " fill="none" id="org.eclipse.epf.uma.VariabilityElement-backto-org.eclipse.epf.uma.Section" style="stroke: #A80036; stroke-width: 1.0;"/><polygon fill="none" points="150.5,131.32,157.5,111.32,164.5,131.32,150.5,131.32" style="stroke: #A80036; stroke-width: 1.0;"/><text fill="#888888" font-family="sans-serif" font-size="10" lengthAdjust="spacingAndGlyphs" textLength="190" x="59.5" y="339.4199">UMLDoclet 2.0.12, PlantUML 1.2020.16</text><!--MD5=[637dbb6415707f73dcbbddc6e7047195]
@startuml
    set namespaceSeparator none
    hide empty fields
    hide empty methods

    interface "<size:14>Section\n<size:10>org.eclipse.epf.uma" as org.eclipse.epf.uma.Section [[Section.html]] {
        {abstract} +getSectionName(): String
        {abstract} +setSectionName(String): void
        {abstract} +getSectionDescription(): String
        {abstract} +setSectionDescription(String): void
        {abstract} +getSubSections(): EList<Section>
        {abstract} +getPredecessor(): Section
        {abstract} +setPredecessor(Section): void
    }

    interface "<size:14>VariabilityElement\n<size:10>org.eclipse.epf.uma" as org.eclipse.epf.uma.VariabilityElement [[VariabilityElement.html]] {
        {abstract} +getVariabilityType(): VariabilityType
        {abstract} +setVariabilityType(VariabilityType): void
        {abstract} +getVariabilityBasedOnElement(): VariabilityElement
        {abstract} +setVariabilityBasedOnElement(VariabilityElement): void
    }

    org.eclipse.epf.uma.VariabilityElement <|- - org.eclipse.epf.uma.Section

    center footer UMLDoclet 2.0.12, PlantUML 1.2020.16
@enduml

PlantUML version 1.2020.16(Sun Aug 23 22:20:43 CEST 2020)
(APACHE source distribution)
Java Runtime: Java(TM) SE Runtime Environment
JVM: Java HotSpot(TM) 64-Bit Server VM
Default Encoding: Cp1252
Language: es
Country: ES
--></g></svg>