<?xml version="1.0" encoding="UTF-8" standalone="no"?><svg xmlns="http://www.w3.org/2000/svg" xmlns:xlink="http://www.w3.org/1999/xlink" contentScriptType="application/ecmascript" contentStyleType="text/css" height="366px" preserveAspectRatio="none" style="width:243px;height:366px;" version="1.1" viewBox="0 0 243 366" width="243px" zoomAndPan="magnify"><defs><filter height="300%" id="f1dujtoq67mp9r" width="300%" x="-1" y="-1"><feGaussianBlur result="blurOut" stdDeviation="2.0"/><feColorMatrix in="blurOut" result="blurOut2" type="matrix" values="0 0 0 0 0 0 0 0 0 0 0 0 0 0 0 0 0 0 .4 0"/><feOffset dx="4.0" dy="4.0" in="blurOut2" result="blurOut3"/><feBlend in="SourceGraphic" in2="blurOut3" mode="normal"/></filter></defs><g><!--MD5=[53d8060f41800ba002e0cbe7768d6809]
class org.eclipse.epf.uma.SemanticModelBridge--><a href="SemanticModelBridge.html" target="_top" title="SemanticModelBridge.html" xlink:actuate="onRequest" xlink:href="SemanticModelBridge.html" xlink:show="new" xlink:title="SemanticModelBridge.html" xlink:type="simple"><rect codeLine="5" fill="#FEFECE" filter="url(#f1dujtoq67mp9r)" height="131.2031" id="org.eclipse.epf.uma.SemanticModelBridge" style="stroke: #A80036; stroke-width: 1.5;" width="217" x="7" y="198"/><ellipse cx="43.15" cy="218.0938" fill="#B4A7E5" rx="11" ry="11" style="stroke: #A80036; stroke-width: 1.0;"/><path d="M44.1031,214.7344 L44.1031,221.3906 L45.8219,221.3906 Q46.4313,221.3906 46.6969,221.625 Q46.9625,221.8594 46.9625,222.25 Q46.9625,222.625 46.6969,222.8594 Q46.4313,223.0938 45.8219,223.0938 L40.6813,223.0938 Q40.0719,223.0938 39.8063,222.8594 Q39.5406,222.625 39.5406,222.2344 Q39.5406,221.8594 39.8063,221.625 Q40.0719,221.3906 40.6813,221.3906 L42.4,221.3906 L42.4,214.7344 L40.6813,214.7344 Q40.0719,214.7344 39.8063,214.5 Q39.5406,214.2656 39.5406,213.875 Q39.5406,213.5 39.8063,213.2656 Q40.0719,213.0313 40.6813,213.0313 L45.8219,213.0313 Q46.4313,213.0313 46.6969,213.2656 Q46.9625,213.5 46.9625,213.875 Q46.9625,214.2656 46.6969,214.5 Q46.4313,214.7344 45.8219,214.7344 L44.1031,214.7344 Z "/><text fill="#000000" font-family="sans-serif" font-size="14" font-style="italic" lengthAdjust="spacingAndGlyphs" textLength="138" x="61.85" y="217.5332">SemanticModelBridge</text><text fill="#000000" font-family="sans-serif" font-size="10" font-style="italic" lengthAdjust="spacingAndGlyphs" textLength="92" x="84.85" y="230.9902">org.eclipse.epf.uma</text><line style="stroke: #A80036; stroke-width: 1.5;" x1="8" x2="223" y1="238.1875" y2="238.1875"/><ellipse cx="18" cy="249.1875" fill="#84BE84" rx="3" ry="3" style="stroke: #038048; stroke-width: 1.0;"/><text fill="#000000" font-family="sans-serif" font-size="11" font-style="italic" lengthAdjust="spacingAndGlyphs" textLength="120" x="27" y="253.6064">getPresentation(): String</text><ellipse cx="18" cy="263.0234" fill="#84BE84" rx="3" ry="3" style="stroke: #038048; stroke-width: 1.0;"/><text fill="#000000" font-family="sans-serif" font-size="11" font-style="italic" lengthAdjust="spacingAndGlyphs" textLength="140" x="27" y="267.4424">setPresentation(String): void</text><ellipse cx="18" cy="276.8594" fill="#84BE84" rx="3" ry="3" style="stroke: #038048; stroke-width: 1.0;"/><text fill="#000000" font-family="sans-serif" font-size="11" font-style="italic" lengthAdjust="spacingAndGlyphs" textLength="113" x="27" y="281.2783">getDiagram(): Diagram</text><ellipse cx="18" cy="290.6953" fill="#84BE84" rx="3" ry="3" style="stroke: #038048; stroke-width: 1.0;"/><text fill="#000000" font-family="sans-serif" font-size="11" font-style="italic" lengthAdjust="spacingAndGlyphs" textLength="133" x="27" y="295.1143">setDiagram(Diagram): void</text><ellipse cx="18" cy="304.5313" fill="#84BE84" rx="3" ry="3" style="stroke: #038048; stroke-width: 1.0;"/><text fill="#000000" font-family="sans-serif" font-size="11" font-style="italic" lengthAdjust="spacingAndGlyphs" textLength="171" x="27" y="308.9502">getGraphElement(): GraphElement</text><ellipse cx="18" cy="318.3672" fill="#84BE84" rx="3" ry="3" style="stroke: #038048; stroke-width: 1.0;"/><text fill="#000000" font-family="sans-serif" font-size="11" font-style="italic" lengthAdjust="spacingAndGlyphs" textLength="191" x="27" y="322.7861">setGraphElement(GraphElement): void</text></a><!--MD5=[267d9fa064d21b4acbe47d4366e1aad1]
class org.eclipse.epf.uma.DiagramElement--><a href="DiagramElement.html" target="_top" title="DiagramElement.html" xlink:actuate="onRequest" xlink:href="DiagramElement.html" xlink:show="new" xlink:title="DiagramElement.html" xlink:type="simple"><rect codeLine="14" fill="#FEFECE" filter="url(#f1dujtoq67mp9r)" height="131.2031" id="org.eclipse.epf.uma.DiagramElement" style="stroke: #A80036; stroke-width: 1.5;" width="194" x="18.5" y="7"/><ellipse cx="59.6" cy="27.0938" fill="#B4A7E5" rx="11" ry="11" style="stroke: #A80036; stroke-width: 1.0;"/><path d="M60.5531,23.7344 L60.5531,30.3906 L62.2719,30.3906 Q62.8813,30.3906 63.1469,30.625 Q63.4125,30.8594 63.4125,31.25 Q63.4125,31.625 63.1469,31.8594 Q62.8813,32.0938 62.2719,32.0938 L57.1313,32.0938 Q56.5219,32.0938 56.2563,31.8594 Q55.9906,31.625 55.9906,31.2344 Q55.9906,30.8594 56.2563,30.625 Q56.5219,30.3906 57.1313,30.3906 L58.85,30.3906 L58.85,23.7344 L57.1313,23.7344 Q56.5219,23.7344 56.2563,23.5 Q55.9906,23.2656 55.9906,22.875 Q55.9906,22.5 56.2563,22.2656 Q56.5219,22.0313 57.1313,22.0313 L62.2719,22.0313 Q62.8813,22.0313 63.1469,22.2656 Q63.4125,22.5 63.4125,22.875 Q63.4125,23.2656 63.1469,23.5 Q62.8813,23.7344 62.2719,23.7344 L60.5531,23.7344 Z "/><text fill="#000000" font-family="sans-serif" font-size="14" font-style="italic" lengthAdjust="spacingAndGlyphs" textLength="104" x="79.4" y="26.5332">DiagramElement</text><text fill="#000000" font-family="sans-serif" font-size="10" font-style="italic" lengthAdjust="spacingAndGlyphs" textLength="92" x="85.4" y="39.9902">org.eclipse.epf.uma</text><line style="stroke: #A80036; stroke-width: 1.5;" x1="19.5" x2="211.5" y1="47.1875" y2="47.1875"/><ellipse cx="29.5" cy="58.1875" fill="#84BE84" rx="3" ry="3" style="stroke: #038048; stroke-width: 1.0;"/><text fill="#000000" font-family="sans-serif" font-size="11" font-style="italic" lengthAdjust="spacingAndGlyphs" textLength="113" x="38.5" y="62.6064">getIsVisible(): Boolean</text><ellipse cx="29.5" cy="72.0234" fill="#84BE84" rx="3" ry="3" style="stroke: #038048; stroke-width: 1.0;"/><text fill="#000000" font-family="sans-serif" font-size="11" font-style="italic" lengthAdjust="spacingAndGlyphs" textLength="133" x="38.5" y="76.4424">setIsVisible(Boolean): void</text><ellipse cx="29.5" cy="85.8594" fill="#84BE84" rx="3" ry="3" style="stroke: #038048; stroke-width: 1.0;"/><text fill="#000000" font-family="sans-serif" font-size="11" font-style="italic" lengthAdjust="spacingAndGlyphs" textLength="148" x="38.5" y="90.2783">getContainer(): GraphElement</text><ellipse cx="29.5" cy="99.6953" fill="#84BE84" rx="3" ry="3" style="stroke: #038048; stroke-width: 1.0;"/><text fill="#000000" font-family="sans-serif" font-size="11" font-style="italic" lengthAdjust="spacingAndGlyphs" textLength="168" x="38.5" y="104.1143">setContainer(GraphElement): void</text><ellipse cx="29.5" cy="113.5313" fill="#84BE84" rx="3" ry="3" style="stroke: #038048; stroke-width: 1.0;"/><text fill="#000000" font-family="sans-serif" font-size="11" font-style="italic" lengthAdjust="spacingAndGlyphs" textLength="168" x="38.5" y="117.9502">getReference(): EList&lt;Reference&gt;</text><ellipse cx="29.5" cy="127.3672" fill="#84BE84" rx="3" ry="3" style="stroke: #038048; stroke-width: 1.0;"/><text fill="#000000" font-family="sans-serif" font-size="11" font-style="italic" lengthAdjust="spacingAndGlyphs" textLength="148" x="38.5" y="131.7861">getProperty(): EList&lt;Property&gt;</text></a><!--MD5=[0355c385b261200318da572191b426be]
reverse link org.eclipse.epf.uma.DiagramElement to org.eclipse.epf.uma.SemanticModelBridge--><path codeLine="23" d="M115.5,158.49 C115.5,171.74 115.5,185.25 115.5,197.96 " fill="none" id="org.eclipse.epf.uma.DiagramElement-backto-org.eclipse.epf.uma.SemanticModelBridge" style="stroke: #A80036; stroke-width: 1.0;"/><polygon fill="none" points="108.5,158.01,115.5,138.01,122.5,158.01,108.5,158.01" style="stroke: #A80036; stroke-width: 1.0;"/><text fill="#888888" font-family="sans-serif" font-size="10" lengthAdjust="spacingAndGlyphs" textLength="190" x="17.5" y="352.584">UMLDoclet 2.0.12, PlantUML 1.2020.16</text><!--MD5=[923ec76aa8e49dde3ca4702f53862787]
@startuml
    set namespaceSeparator none
    hide empty fields
    hide empty methods

    interface "<size:14>SemanticModelBridge\n<size:10>org.eclipse.epf.uma" as org.eclipse.epf.uma.SemanticModelBridge [[SemanticModelBridge.html]] {
        {abstract} +getPresentation(): String
        {abstract} +setPresentation(String): void
        {abstract} +getDiagram(): Diagram
        {abstract} +setDiagram(Diagram): void
        {abstract} +getGraphElement(): GraphElement
        {abstract} +setGraphElement(GraphElement): void
    }

    interface "<size:14>DiagramElement\n<size:10>org.eclipse.epf.uma" as org.eclipse.epf.uma.DiagramElement [[DiagramElement.html]] {
        {abstract} +getIsVisible(): Boolean
        {abstract} +setIsVisible(Boolean): void
        {abstract} +getContainer(): GraphElement
        {abstract} +setContainer(GraphElement): void
        {abstract} +getReference(): EList<Reference>
        {abstract} +getProperty(): EList<Property>
    }

    org.eclipse.epf.uma.DiagramElement <|- - org.eclipse.epf.uma.SemanticModelBridge

    center footer UMLDoclet 2.0.12, PlantUML 1.2020.16
@enduml

PlantUML version 1.2020.16(Sun Aug 23 22:20:43 CEST 2020)
(APACHE source distribution)
Java Runtime: Java(TM) SE Runtime Environment
JVM: Java HotSpot(TM) 64-Bit Server VM
Default Encoding: Cp1252
Language: es
Country: ES
--></g></svg>