<?xml version="1.0" encoding="UTF-8" standalone="no"?><svg xmlns="http://www.w3.org/2000/svg" xmlns:xlink="http://www.w3.org/1999/xlink" contentScriptType="application/ecmascript" contentStyleType="text/css" height="310px" preserveAspectRatio="none" style="width:248px;height:310px;" version="1.1" viewBox="0 0 248 310" width="248px" zoomAndPan="magnify"><defs><filter height="300%" id="fgqws1svazjh1" width="300%" x="-1" y="-1"><feGaussianBlur result="blurOut" stdDeviation="2.0"/><feColorMatrix in="blurOut" result="blurOut2" type="matrix" values="0 0 0 0 0 0 0 0 0 0 0 0 0 0 0 0 0 0 .4 0"/><feOffset dx="4.0" dy="4.0" in="blurOut2" result="blurOut3"/><feBlend in="SourceGraphic" in2="blurOut3" mode="normal"/></filter></defs><g><!--MD5=[b53a262977fa8f04c6dd604a87dfc1e3]
class org.eclipse.epf.uma.SimpleSemanticModelElement--><a href="SimpleSemanticModelElement.html" target="_top" title="SimpleSemanticModelElement.html" xlink:actuate="onRequest" xlink:href="SimpleSemanticModelElement.html" xlink:show="new" xlink:title="SimpleSemanticModelElement.html" xlink:type="simple"><rect codeLine="5" fill="#FEFECE" filter="url(#fgqws1svazjh1)" height="75.8594" id="org.eclipse.epf.uma.SimpleSemanticModelElement" style="stroke: #A80036; stroke-width: 1.5;" width="222" x="7" y="198"/><ellipse cx="22" cy="218.0938" fill="#B4A7E5" rx="11" ry="11" style="stroke: #A80036; stroke-width: 1.0;"/><path d="M22.9531,214.7344 L22.9531,221.3906 L24.6719,221.3906 Q25.2813,221.3906 25.5469,221.625 Q25.8125,221.8594 25.8125,222.25 Q25.8125,222.625 25.5469,222.8594 Q25.2813,223.0938 24.6719,223.0938 L19.5313,223.0938 Q18.9219,223.0938 18.6563,222.8594 Q18.3906,222.625 18.3906,222.2344 Q18.3906,221.8594 18.6563,221.625 Q18.9219,221.3906 19.5313,221.3906 L21.25,221.3906 L21.25,214.7344 L19.5313,214.7344 Q18.9219,214.7344 18.6563,214.5 Q18.3906,214.2656 18.3906,213.875 Q18.3906,213.5 18.6563,213.2656 Q18.9219,213.0313 19.5313,213.0313 L24.6719,213.0313 Q25.2813,213.0313 25.5469,213.2656 Q25.8125,213.5 25.8125,213.875 Q25.8125,214.2656 25.5469,214.5 Q25.2813,214.7344 24.6719,214.7344 L22.9531,214.7344 Z "/><text fill="#000000" font-family="sans-serif" font-size="14" font-style="italic" lengthAdjust="spacingAndGlyphs" textLength="190" x="36" y="217.5332">SimpleSemanticModelElement</text><text fill="#000000" font-family="sans-serif" font-size="10" font-style="italic" lengthAdjust="spacingAndGlyphs" textLength="92" x="85" y="230.9902">org.eclipse.epf.uma</text><line style="stroke: #A80036; stroke-width: 1.5;" x1="8" x2="228" y1="238.1875" y2="238.1875"/><ellipse cx="18" cy="249.1875" fill="#84BE84" rx="3" ry="3" style="stroke: #038048; stroke-width: 1.0;"/><text fill="#000000" font-family="sans-serif" font-size="11" font-style="italic" lengthAdjust="spacingAndGlyphs" textLength="100" x="27" y="253.6064">getTypeInfo(): String</text><ellipse cx="18" cy="263.0234" fill="#84BE84" rx="3" ry="3" style="stroke: #038048; stroke-width: 1.0;"/><text fill="#000000" font-family="sans-serif" font-size="11" font-style="italic" lengthAdjust="spacingAndGlyphs" textLength="120" x="27" y="267.4424">setTypeInfo(String): void</text></a><!--MD5=[53d8060f41800ba002e0cbe7768d6809]
class org.eclipse.epf.uma.SemanticModelBridge--><a href="SemanticModelBridge.html" target="_top" title="SemanticModelBridge.html" xlink:actuate="onRequest" xlink:href="SemanticModelBridge.html" xlink:show="new" xlink:title="SemanticModelBridge.html" xlink:type="simple"><rect codeLine="10" fill="#FEFECE" filter="url(#fgqws1svazjh1)" height="131.2031" id="org.eclipse.epf.uma.SemanticModelBridge" style="stroke: #A80036; stroke-width: 1.5;" width="217" x="9.5" y="7"/><ellipse cx="45.65" cy="27.0938" fill="#B4A7E5" rx="11" ry="11" style="stroke: #A80036; stroke-width: 1.0;"/><path d="M46.6031,23.7344 L46.6031,30.3906 L48.3219,30.3906 Q48.9313,30.3906 49.1969,30.625 Q49.4625,30.8594 49.4625,31.25 Q49.4625,31.625 49.1969,31.8594 Q48.9313,32.0938 48.3219,32.0938 L43.1813,32.0938 Q42.5719,32.0938 42.3063,31.8594 Q42.0406,31.625 42.0406,31.2344 Q42.0406,30.8594 42.3063,30.625 Q42.5719,30.3906 43.1813,30.3906 L44.9,30.3906 L44.9,23.7344 L43.1813,23.7344 Q42.5719,23.7344 42.3063,23.5 Q42.0406,23.2656 42.0406,22.875 Q42.0406,22.5 42.3063,22.2656 Q42.5719,22.0313 43.1813,22.0313 L48.3219,22.0313 Q48.9313,22.0313 49.1969,22.2656 Q49.4625,22.5 49.4625,22.875 Q49.4625,23.2656 49.1969,23.5 Q48.9313,23.7344 48.3219,23.7344 L46.6031,23.7344 Z "/><text fill="#000000" font-family="sans-serif" font-size="14" font-style="italic" lengthAdjust="spacingAndGlyphs" textLength="138" x="64.35" y="26.5332">SemanticModelBridge</text><text fill="#000000" font-family="sans-serif" font-size="10" font-style="italic" lengthAdjust="spacingAndGlyphs" textLength="92" x="87.35" y="39.9902">org.eclipse.epf.uma</text><line style="stroke: #A80036; stroke-width: 1.5;" x1="10.5" x2="225.5" y1="47.1875" y2="47.1875"/><ellipse cx="20.5" cy="58.1875" fill="#84BE84" rx="3" ry="3" style="stroke: #038048; stroke-width: 1.0;"/><text fill="#000000" font-family="sans-serif" font-size="11" font-style="italic" lengthAdjust="spacingAndGlyphs" textLength="120" x="29.5" y="62.6064">getPresentation(): String</text><ellipse cx="20.5" cy="72.0234" fill="#84BE84" rx="3" ry="3" style="stroke: #038048; stroke-width: 1.0;"/><text fill="#000000" font-family="sans-serif" font-size="11" font-style="italic" lengthAdjust="spacingAndGlyphs" textLength="140" x="29.5" y="76.4424">setPresentation(String): void</text><ellipse cx="20.5" cy="85.8594" fill="#84BE84" rx="3" ry="3" style="stroke: #038048; stroke-width: 1.0;"/><text fill="#000000" font-family="sans-serif" font-size="11" font-style="italic" lengthAdjust="spacingAndGlyphs" textLength="113" x="29.5" y="90.2783">getDiagram(): Diagram</text><ellipse cx="20.5" cy="99.6953" fill="#84BE84" rx="3" ry="3" style="stroke: #038048; stroke-width: 1.0;"/><text fill="#000000" font-family="sans-serif" font-size="11" font-style="italic" lengthAdjust="spacingAndGlyphs" textLength="133" x="29.5" y="104.1143">setDiagram(Diagram): void</text><ellipse cx="20.5" cy="113.5313" fill="#84BE84" rx="3" ry="3" style="stroke: #038048; stroke-width: 1.0;"/><text fill="#000000" font-family="sans-serif" font-size="11" font-style="italic" lengthAdjust="spacingAndGlyphs" textLength="171" x="29.5" y="117.9502">getGraphElement(): GraphElement</text><ellipse cx="20.5" cy="127.3672" fill="#84BE84" rx="3" ry="3" style="stroke: #038048; stroke-width: 1.0;"/><text fill="#000000" font-family="sans-serif" font-size="11" font-style="italic" lengthAdjust="spacingAndGlyphs" textLength="191" x="29.5" y="131.7861">setGraphElement(GraphElement): void</text></a><!--MD5=[50d89536d9699f5332cea1136e7b5c7c]
reverse link org.eclipse.epf.uma.SemanticModelBridge to org.eclipse.epf.uma.SimpleSemanticModelElement--><path codeLine="19" d="M118,158.39 C118,172.17 118,185.8 118,197.65 " fill="none" id="org.eclipse.epf.uma.SemanticModelBridge-backto-org.eclipse.epf.uma.SimpleSemanticModelElement" style="stroke: #A80036; stroke-width: 1.0;"/><polygon fill="none" points="111,158.26,118,138.26,125,158.26,111,158.26" style="stroke: #A80036; stroke-width: 1.0;"/><text fill="#888888" font-family="sans-serif" font-size="10" lengthAdjust="spacingAndGlyphs" textLength="190" x="20" y="297.2402">UMLDoclet 2.0.12, PlantUML 1.2020.16</text><!--MD5=[4492034b1dd6dbf7aa00b04c538ba5e6]
@startuml
    set namespaceSeparator none
    hide empty fields
    hide empty methods

    interface "<size:14>SimpleSemanticModelElement\n<size:10>org.eclipse.epf.uma" as org.eclipse.epf.uma.SimpleSemanticModelElement [[SimpleSemanticModelElement.html]] {
        {abstract} +getTypeInfo(): String
        {abstract} +setTypeInfo(String): void
    }

    interface "<size:14>SemanticModelBridge\n<size:10>org.eclipse.epf.uma" as org.eclipse.epf.uma.SemanticModelBridge [[SemanticModelBridge.html]] {
        {abstract} +getPresentation(): String
        {abstract} +setPresentation(String): void
        {abstract} +getDiagram(): Diagram
        {abstract} +setDiagram(Diagram): void
        {abstract} +getGraphElement(): GraphElement
        {abstract} +setGraphElement(GraphElement): void
    }

    org.eclipse.epf.uma.SemanticModelBridge <|- - org.eclipse.epf.uma.SimpleSemanticModelElement

    center footer UMLDoclet 2.0.12, PlantUML 1.2020.16
@enduml

PlantUML version 1.2020.16(Sun Aug 23 22:20:43 CEST 2020)
(APACHE source distribution)
Java Runtime: Java(TM) SE Runtime Environment
JVM: Java HotSpot(TM) 64-Bit Server VM
Default Encoding: Cp1252
Language: es
Country: ES
--></g></svg>