<?xml version="1.0" encoding="UTF-8" standalone="no"?><svg xmlns="http://www.w3.org/2000/svg" xmlns:xlink="http://www.w3.org/1999/xlink" contentScriptType="application/ecmascript" contentStyleType="text/css" height="289px" preserveAspectRatio="none" style="width:452px;height:289px;" version="1.1" viewBox="0 0 452 289" width="452px" zoomAndPan="magnify"><defs><filter height="300%" id="f1cej13cp96ztc" width="300%" x="-1" y="-1"><feGaussianBlur result="blurOut" stdDeviation="2.0"/><feColorMatrix in="blurOut" result="blurOut2" type="matrix" values="0 0 0 0 0 0 0 0 0 0 0 0 0 0 0 0 0 0 .4 0"/><feOffset dx="4.0" dy="4.0" in="blurOut2" result="blurOut3"/><feBlend in="SourceGraphic" in2="blurOut3" mode="normal"/></filter></defs><g><!--MD5=[264aa3d430d7dad9e7b8a50f1a3b33c7]
class org.eclipse.epf.uma.Step--><a href="Step.html" target="_top" title="Step.html" xlink:actuate="onRequest" xlink:href="Step.html" xlink:show="new" xlink:title="Step.html" xlink:type="simple"><rect codeLine="5" fill="#FEFECE" filter="url(#f1cej13cp96ztc)" height="40.1875" id="org.eclipse.epf.uma.Step" style="stroke: #A80036; stroke-width: 1.5;" width="124" x="159" y="212"/><ellipse cx="174" cy="232.0938" fill="#B4A7E5" rx="11" ry="11" style="stroke: #A80036; stroke-width: 1.0;"/><path d="M174.9531,228.7344 L174.9531,235.3906 L176.6719,235.3906 Q177.2813,235.3906 177.5469,235.625 Q177.8125,235.8594 177.8125,236.25 Q177.8125,236.625 177.5469,236.8594 Q177.2813,237.0938 176.6719,237.0938 L171.5313,237.0938 Q170.9219,237.0938 170.6563,236.8594 Q170.3906,236.625 170.3906,236.2344 Q170.3906,235.8594 170.6563,235.625 Q170.9219,235.3906 171.5313,235.3906 L173.25,235.3906 L173.25,228.7344 L171.5313,228.7344 Q170.9219,228.7344 170.6563,228.5 Q170.3906,228.2656 170.3906,227.875 Q170.3906,227.5 170.6563,227.2656 Q170.9219,227.0313 171.5313,227.0313 L176.6719,227.0313 Q177.2813,227.0313 177.5469,227.2656 Q177.8125,227.5 177.8125,227.875 Q177.8125,228.2656 177.5469,228.5 Q177.2813,228.7344 176.6719,228.7344 L174.9531,228.7344 Z "/><text fill="#000000" font-family="sans-serif" font-size="14" font-style="italic" lengthAdjust="spacingAndGlyphs" textLength="29" x="219.5" y="231.5332">Step</text><text fill="#000000" font-family="sans-serif" font-size="10" font-style="italic" lengthAdjust="spacingAndGlyphs" textLength="92" x="188" y="244.9902">org.eclipse.epf.uma</text></a><!--MD5=[709cecbf547b83c99423286fd55887c5]
class org.eclipse.epf.uma.Section--><a href="Section.html" target="_top" title="Section.html" xlink:actuate="onRequest" xlink:href="Section.html" xlink:show="new" xlink:title="Section.html" xlink:type="simple"><rect codeLine="7" fill="#FEFECE" filter="url(#f1cej13cp96ztc)" height="145.0391" id="org.eclipse.epf.uma.Section" style="stroke: #A80036; stroke-width: 1.5;" width="198" x="7" y="7"/><ellipse cx="55.75" cy="27.0938" fill="#B4A7E5" rx="11" ry="11" style="stroke: #A80036; stroke-width: 1.0;"/><path d="M56.7031,23.7344 L56.7031,30.3906 L58.4219,30.3906 Q59.0313,30.3906 59.2969,30.625 Q59.5625,30.8594 59.5625,31.25 Q59.5625,31.625 59.2969,31.8594 Q59.0313,32.0938 58.4219,32.0938 L53.2813,32.0938 Q52.6719,32.0938 52.4063,31.8594 Q52.1406,31.625 52.1406,31.2344 Q52.1406,30.8594 52.4063,30.625 Q52.6719,30.3906 53.2813,30.3906 L55,30.3906 L55,23.7344 L53.2813,23.7344 Q52.6719,23.7344 52.4063,23.5 Q52.1406,23.2656 52.1406,22.875 Q52.1406,22.5 52.4063,22.2656 Q52.6719,22.0313 53.2813,22.0313 L58.4219,22.0313 Q59.0313,22.0313 59.2969,22.2656 Q59.5625,22.5 59.5625,22.875 Q59.5625,23.2656 59.2969,23.5 Q59.0313,23.7344 58.4219,23.7344 L56.7031,23.7344 Z "/><text fill="#000000" font-family="sans-serif" font-size="14" font-style="italic" lengthAdjust="spacingAndGlyphs" textLength="47" x="98.75" y="26.5332">Section</text><text fill="#000000" font-family="sans-serif" font-size="10" font-style="italic" lengthAdjust="spacingAndGlyphs" textLength="92" x="76.25" y="39.9902">org.eclipse.epf.uma</text><line style="stroke: #A80036; stroke-width: 1.5;" x1="8" x2="204" y1="47.1875" y2="47.1875"/><ellipse cx="18" cy="58.1875" fill="#84BE84" rx="3" ry="3" style="stroke: #038048; stroke-width: 1.0;"/><text fill="#000000" font-family="sans-serif" font-size="11" font-style="italic" lengthAdjust="spacingAndGlyphs" textLength="124" x="27" y="62.6064">getSectionName(): String</text><ellipse cx="18" cy="72.0234" fill="#84BE84" rx="3" ry="3" style="stroke: #038048; stroke-width: 1.0;"/><text fill="#000000" font-family="sans-serif" font-size="11" font-style="italic" lengthAdjust="spacingAndGlyphs" textLength="144" x="27" y="76.4424">setSectionName(String): void</text><ellipse cx="18" cy="85.8594" fill="#84BE84" rx="3" ry="3" style="stroke: #038048; stroke-width: 1.0;"/><text fill="#000000" font-family="sans-serif" font-size="11" font-style="italic" lengthAdjust="spacingAndGlyphs" textLength="152" x="27" y="90.2783">getSectionDescription(): String</text><ellipse cx="18" cy="99.6953" fill="#84BE84" rx="3" ry="3" style="stroke: #038048; stroke-width: 1.0;"/><text fill="#000000" font-family="sans-serif" font-size="11" font-style="italic" lengthAdjust="spacingAndGlyphs" textLength="172" x="27" y="104.1143">setSectionDescription(String): void</text><ellipse cx="18" cy="113.5313" fill="#84BE84" rx="3" ry="3" style="stroke: #038048; stroke-width: 1.0;"/><text fill="#000000" font-family="sans-serif" font-size="11" font-style="italic" lengthAdjust="spacingAndGlyphs" textLength="166" x="27" y="117.9502">getSubSections(): EList&lt;Section&gt;</text><ellipse cx="18" cy="127.3672" fill="#84BE84" rx="3" ry="3" style="stroke: #038048; stroke-width: 1.0;"/><text fill="#000000" font-family="sans-serif" font-size="11" font-style="italic" lengthAdjust="spacingAndGlyphs" textLength="129" x="27" y="131.7861">getPredecessor(): Section</text><ellipse cx="18" cy="141.2031" fill="#84BE84" rx="3" ry="3" style="stroke: #038048; stroke-width: 1.0;"/><text fill="#000000" font-family="sans-serif" font-size="11" font-style="italic" lengthAdjust="spacingAndGlyphs" textLength="149" x="27" y="145.6221">setPredecessor(Section): void</text></a><!--MD5=[3c99a5eaea672cd8b6c6b711cc4fc612]
class org.eclipse.epf.uma.WorkDefinition--><a href="WorkDefinition.html" target="_top" title="WorkDefinition.html" xlink:actuate="onRequest" xlink:href="WorkDefinition.html" xlink:show="new" xlink:title="WorkDefinition.html" xlink:type="simple"><rect codeLine="16" fill="#FEFECE" filter="url(#f1cej13cp96ztc)" height="103.5313" id="org.eclipse.epf.uma.WorkDefinition" style="stroke: #A80036; stroke-width: 1.5;" width="193" x="240.5" y="27.5"/><ellipse cx="285.75" cy="47.5938" fill="#B4A7E5" rx="11" ry="11" style="stroke: #A80036; stroke-width: 1.0;"/><path d="M286.7031,44.2344 L286.7031,50.8906 L288.4219,50.8906 Q289.0313,50.8906 289.2969,51.125 Q289.5625,51.3594 289.5625,51.75 Q289.5625,52.125 289.2969,52.3594 Q289.0313,52.5938 288.4219,52.5938 L283.2813,52.5938 Q282.6719,52.5938 282.4063,52.3594 Q282.1406,52.125 282.1406,51.7344 Q282.1406,51.3594 282.4063,51.125 Q282.6719,50.8906 283.2813,50.8906 L285,50.8906 L285,44.2344 L283.2813,44.2344 Q282.6719,44.2344 282.4063,44 Q282.1406,43.7656 282.1406,43.375 Q282.1406,43 282.4063,42.7656 Q282.6719,42.5313 283.2813,42.5313 L288.4219,42.5313 Q289.0313,42.5313 289.2969,42.7656 Q289.5625,43 289.5625,43.375 Q289.5625,43.7656 289.2969,44 Q289.0313,44.2344 288.4219,44.2344 L286.7031,44.2344 Z "/><text fill="#000000" font-family="sans-serif" font-size="14" font-style="italic" lengthAdjust="spacingAndGlyphs" textLength="94" x="306.25" y="47.0332">WorkDefinition</text><text fill="#000000" font-family="sans-serif" font-size="10" font-style="italic" lengthAdjust="spacingAndGlyphs" textLength="92" x="307.25" y="60.4902">org.eclipse.epf.uma</text><line style="stroke: #A80036; stroke-width: 1.5;" x1="241.5" x2="432.5" y1="67.6875" y2="67.6875"/><ellipse cx="251.5" cy="78.6875" fill="#84BE84" rx="3" ry="3" style="stroke: #038048; stroke-width: 1.0;"/><text fill="#000000" font-family="sans-serif" font-size="11" font-style="italic" lengthAdjust="spacingAndGlyphs" textLength="142" x="260.5" y="83.1064">getPrecondition(): Constraint</text><ellipse cx="251.5" cy="92.5234" fill="#84BE84" rx="3" ry="3" style="stroke: #038048; stroke-width: 1.0;"/><text fill="#000000" font-family="sans-serif" font-size="11" font-style="italic" lengthAdjust="spacingAndGlyphs" textLength="162" x="260.5" y="96.9424">setPrecondition(Constraint): void</text><ellipse cx="251.5" cy="106.3594" fill="#84BE84" rx="3" ry="3" style="stroke: #038048; stroke-width: 1.0;"/><text fill="#000000" font-family="sans-serif" font-size="11" font-style="italic" lengthAdjust="spacingAndGlyphs" textLength="147" x="260.5" y="110.7783">getPostcondition(): Constraint</text><ellipse cx="251.5" cy="120.1953" fill="#84BE84" rx="3" ry="3" style="stroke: #038048; stroke-width: 1.0;"/><text fill="#000000" font-family="sans-serif" font-size="11" font-style="italic" lengthAdjust="spacingAndGlyphs" textLength="167" x="260.5" y="124.6143">setPostcondition(Constraint): void</text></a><!--MD5=[b16c9a93de3785a1900c04564841fda4]
reverse link org.eclipse.epf.uma.Section to org.eclipse.epf.uma.Step--><path codeLine="23" d="M172.97,168.14 C185.54,184.59 197.49,200.23 206.33,211.8 " fill="none" id="org.eclipse.epf.uma.Section-backto-org.eclipse.epf.uma.Step" style="stroke: #A80036; stroke-width: 1.0;"/><polygon fill="none" points="167.39,172.37,160.81,152.22,178.51,163.87,167.39,172.37" style="stroke: #A80036; stroke-width: 1.0;"/><!--MD5=[1c62510410c71b313f4f3f4405e2f6f9]
reverse link org.eclipse.epf.uma.WorkDefinition to org.eclipse.epf.uma.Step--><path codeLine="24" d="M285.14,147.78 C267.12,171.17 248.29,195.59 235.74,211.88 " fill="none" id="org.eclipse.epf.uma.WorkDefinition-backto-org.eclipse.epf.uma.Step" style="stroke: #A80036; stroke-width: 1.0;"/><polygon fill="none" points="279.65,143.44,297.4,131.87,290.74,151.99,279.65,143.44" style="stroke: #A80036; stroke-width: 1.0;"/><text fill="#888888" font-family="sans-serif" font-size="10" lengthAdjust="spacingAndGlyphs" textLength="190" x="122.25" y="275.5684">UMLDoclet 2.0.12, PlantUML 1.2020.16</text><!--MD5=[dde5c9d7f01abbca862e546cec23213d]
@startuml
    set namespaceSeparator none
    hide empty fields
    hide empty methods

    interface "<size:14>Step\n<size:10>org.eclipse.epf.uma" as org.eclipse.epf.uma.Step [[Step.html]]

    interface "<size:14>Section\n<size:10>org.eclipse.epf.uma" as org.eclipse.epf.uma.Section [[Section.html]] {
        {abstract} +getSectionName(): String
        {abstract} +setSectionName(String): void
        {abstract} +getSectionDescription(): String
        {abstract} +setSectionDescription(String): void
        {abstract} +getSubSections(): EList<Section>
        {abstract} +getPredecessor(): Section
        {abstract} +setPredecessor(Section): void
    }
    interface "<size:14>WorkDefinition\n<size:10>org.eclipse.epf.uma" as org.eclipse.epf.uma.WorkDefinition [[WorkDefinition.html]] {
        {abstract} +getPrecondition(): Constraint
        {abstract} +setPrecondition(Constraint): void
        {abstract} +getPostcondition(): Constraint
        {abstract} +setPostcondition(Constraint): void
    }

    org.eclipse.epf.uma.Section <|- - org.eclipse.epf.uma.Step
    org.eclipse.epf.uma.WorkDefinition <|- - org.eclipse.epf.uma.Step

    center footer UMLDoclet 2.0.12, PlantUML 1.2020.16
@enduml

PlantUML version 1.2020.16(Sun Aug 23 22:20:43 CEST 2020)
(APACHE source distribution)
Java Runtime: Java(TM) SE Runtime Environment
JVM: Java HotSpot(TM) 64-Bit Server VM
Default Encoding: Cp1252
Language: es
Country: ES
--></g></svg>