<?xml version="1.0" encoding="UTF-8" standalone="no"?><svg xmlns="http://www.w3.org/2000/svg" xmlns:xlink="http://www.w3.org/1999/xlink" contentScriptType="application/ecmascript" contentStyleType="text/css" height="518px" preserveAspectRatio="none" style="width:555px;height:518px;" version="1.1" viewBox="0 0 555 518" width="555px" zoomAndPan="magnify"><defs><filter height="300%" id="f1fbxn35lv6ct" width="300%" x="-1" y="-1"><feGaussianBlur result="blurOut" stdDeviation="2.0"/><feColorMatrix in="blurOut" result="blurOut2" type="matrix" values="0 0 0 0 0 0 0 0 0 0 0 0 0 0 0 0 0 0 .4 0"/><feOffset dx="4.0" dy="4.0" in="blurOut2" result="blurOut3"/><feBlend in="SourceGraphic" in2="blurOut3" mode="normal"/></filter></defs><g><!--MD5=[ab3ba5075bed10c2ff77c344fd30e0d3]
class org.eclipse.epf.uma.TaskDescriptor--><a href="TaskDescriptor.html" target="_top" title="TaskDescriptor.html" xlink:actuate="onRequest" xlink:href="TaskDescriptor.html" xlink:show="new" xlink:title="TaskDescriptor.html" xlink:type="simple"><rect codeLine="5" fill="#FEFECE" filter="url(#f1fbxn35lv6ct)" height="269.5625" id="org.eclipse.epf.uma.TaskDescriptor" style="stroke: #A80036; stroke-width: 1.5;" width="287" x="127" y="212"/><ellipse cx="217.75" cy="232.0938" fill="#B4A7E5" rx="11" ry="11" style="stroke: #A80036; stroke-width: 1.0;"/><path d="M218.7031,228.7344 L218.7031,235.3906 L220.4219,235.3906 Q221.0313,235.3906 221.2969,235.625 Q221.5625,235.8594 221.5625,236.25 Q221.5625,236.625 221.2969,236.8594 Q221.0313,237.0938 220.4219,237.0938 L215.2813,237.0938 Q214.6719,237.0938 214.4063,236.8594 Q214.1406,236.625 214.1406,236.2344 Q214.1406,235.8594 214.4063,235.625 Q214.6719,235.3906 215.2813,235.3906 L217,235.3906 L217,228.7344 L215.2813,228.7344 Q214.6719,228.7344 214.4063,228.5 Q214.1406,228.2656 214.1406,227.875 Q214.1406,227.5 214.4063,227.2656 Q214.6719,227.0313 215.2813,227.0313 L220.4219,227.0313 Q221.0313,227.0313 221.2969,227.2656 Q221.5625,227.5 221.5625,227.875 Q221.5625,228.2656 221.2969,228.5 Q221.0313,228.7344 220.4219,228.7344 L218.7031,228.7344 Z "/><text fill="#000000" font-family="sans-serif" font-size="14" font-style="italic" lengthAdjust="spacingAndGlyphs" textLength="97" x="238.25" y="231.5332">TaskDescriptor</text><text fill="#000000" font-family="sans-serif" font-size="10" font-style="italic" lengthAdjust="spacingAndGlyphs" textLength="92" x="240.75" y="244.9902">org.eclipse.epf.uma</text><line style="stroke: #A80036; stroke-width: 1.5;" x1="128" x2="413" y1="252.1875" y2="252.1875"/><ellipse cx="138" cy="263.1875" fill="#84BE84" rx="3" ry="3" style="stroke: #038048; stroke-width: 1.0;"/><text fill="#000000" font-family="sans-serif" font-size="11" font-style="italic" lengthAdjust="spacingAndGlyphs" textLength="79" x="147" y="267.6064">getTask(): Task</text><ellipse cx="138" cy="277.0234" fill="#84BE84" rx="3" ry="3" style="stroke: #038048; stroke-width: 1.0;"/><text fill="#000000" font-family="sans-serif" font-size="11" font-style="italic" lengthAdjust="spacingAndGlyphs" textLength="99" x="147" y="281.4424">setTask(Task): void</text><ellipse cx="138" cy="290.8594" fill="#84BE84" rx="3" ry="3" style="stroke: #038048; stroke-width: 1.0;"/><text fill="#000000" font-family="sans-serif" font-size="11" font-style="italic" lengthAdjust="spacingAndGlyphs" textLength="261" x="147" y="295.2783">getAdditionallyPerformedBy(): EList&lt;RoleDescriptor&gt;</text><ellipse cx="138" cy="304.6953" fill="#84BE84" rx="3" ry="3" style="stroke: #038048; stroke-width: 1.0;"/><text fill="#000000" font-family="sans-serif" font-size="11" font-style="italic" lengthAdjust="spacingAndGlyphs" textLength="196" x="147" y="309.1143">getAssistedBy(): EList&lt;RoleDescriptor&gt;</text><ellipse cx="138" cy="318.5313" fill="#84BE84" rx="3" ry="3" style="stroke: #038048; stroke-width: 1.0;"/><text fill="#000000" font-family="sans-serif" font-size="11" font-style="italic" lengthAdjust="spacingAndGlyphs" textLength="248" x="147" y="322.9502">getExternalInput(): EList&lt;WorkProductDescriptor&gt;</text><ellipse cx="138" cy="332.3672" fill="#84BE84" rx="3" ry="3" style="stroke: #038048; stroke-width: 1.0;"/><text fill="#000000" font-family="sans-serif" font-size="11" font-style="italic" lengthAdjust="spacingAndGlyphs" textLength="258" x="147" y="336.7861">getMandatoryInput(): EList&lt;WorkProductDescriptor&gt;</text><ellipse cx="138" cy="346.2031" fill="#84BE84" rx="3" ry="3" style="stroke: #038048; stroke-width: 1.0;"/><text fill="#000000" font-family="sans-serif" font-size="11" font-style="italic" lengthAdjust="spacingAndGlyphs" textLength="249" x="147" y="350.6221">getOptionalInput(): EList&lt;WorkProductDescriptor&gt;</text><ellipse cx="138" cy="360.0391" fill="#84BE84" rx="3" ry="3" style="stroke: #038048; stroke-width: 1.0;"/><text fill="#000000" font-family="sans-serif" font-size="11" font-style="italic" lengthAdjust="spacingAndGlyphs" textLength="216" x="147" y="364.458">getOutput(): EList&lt;WorkProductDescriptor&gt;</text><ellipse cx="138" cy="373.875" fill="#84BE84" rx="3" ry="3" style="stroke: #038048; stroke-width: 1.0;"/><text fill="#000000" font-family="sans-serif" font-size="11" font-style="italic" lengthAdjust="spacingAndGlyphs" textLength="248" x="147" y="378.2939">getPerformedPrimarilyBy(): EList&lt;RoleDescriptor&gt;</text><ellipse cx="138" cy="387.7109" fill="#84BE84" rx="3" ry="3" style="stroke: #038048; stroke-width: 1.0;"/><text fill="#000000" font-family="sans-serif" font-size="11" font-style="italic" lengthAdjust="spacingAndGlyphs" textLength="174" x="147" y="392.1299">getSelectedSteps(): EList&lt;Section&gt;</text><ellipse cx="138" cy="401.5469" fill="#84BE84" rx="3" ry="3" style="stroke: #038048; stroke-width: 1.0;"/><text fill="#000000" font-family="sans-serif" font-size="11" font-style="italic" lengthAdjust="spacingAndGlyphs" textLength="242" x="147" y="405.9658">getPerformedPrimarilyByExcluded(): EList&lt;Role&gt;</text><ellipse cx="138" cy="415.3828" fill="#84BE84" rx="3" ry="3" style="stroke: #038048; stroke-width: 1.0;"/><text fill="#000000" font-family="sans-serif" font-size="11" font-style="italic" lengthAdjust="spacingAndGlyphs" textLength="249" x="147" y="419.8018">getAdditionallyPerformedByExclude(): EList&lt;Role&gt;</text><ellipse cx="138" cy="429.2188" fill="#84BE84" rx="3" ry="3" style="stroke: #038048; stroke-width: 1.0;"/><text fill="#000000" font-family="sans-serif" font-size="11" font-style="italic" lengthAdjust="spacingAndGlyphs" textLength="246" x="147" y="433.6377">getMandatoryInputExclude(): EList&lt;WorkProduct&gt;</text><ellipse cx="138" cy="443.0547" fill="#84BE84" rx="3" ry="3" style="stroke: #038048; stroke-width: 1.0;"/><text fill="#000000" font-family="sans-serif" font-size="11" font-style="italic" lengthAdjust="spacingAndGlyphs" textLength="237" x="147" y="447.4736">getOptionalInputExclude(): EList&lt;WorkProduct&gt;</text><ellipse cx="138" cy="456.8906" fill="#84BE84" rx="3" ry="3" style="stroke: #038048; stroke-width: 1.0;"/><text fill="#000000" font-family="sans-serif" font-size="11" font-style="italic" lengthAdjust="spacingAndGlyphs" textLength="204" x="147" y="461.3096">getOutputExclude(): EList&lt;WorkProduct&gt;</text><ellipse cx="138" cy="470.7266" fill="#84BE84" rx="3" ry="3" style="stroke: #038048; stroke-width: 1.0;"/><text fill="#000000" font-family="sans-serif" font-size="11" font-style="italic" lengthAdjust="spacingAndGlyphs" textLength="214" x="147" y="475.1455">getSelectedStepsExclude(): EList&lt;Section&gt;</text></a><!--MD5=[2faf845886558de7d4384c143b6f4057]
class org.eclipse.epf.uma.WorkBreakdownElement--><a href="WorkBreakdownElement.html" target="_top" title="WorkBreakdownElement.html" xlink:actuate="onRequest" xlink:href="WorkBreakdownElement.html" xlink:show="new" xlink:title="WorkBreakdownElement.html" xlink:type="simple"><rect codeLine="24" fill="#FEFECE" filter="url(#f1fbxn35lv6ct)" height="145.0391" id="org.eclipse.epf.uma.WorkBreakdownElement" style="stroke: #A80036; stroke-width: 1.5;" width="245" x="7" y="7"/><ellipse cx="47.2" cy="27.0938" fill="#B4A7E5" rx="11" ry="11" style="stroke: #A80036; stroke-width: 1.0;"/><path d="M48.1531,23.7344 L48.1531,30.3906 L49.8719,30.3906 Q50.4813,30.3906 50.7469,30.625 Q51.0125,30.8594 51.0125,31.25 Q51.0125,31.625 50.7469,31.8594 Q50.4813,32.0938 49.8719,32.0938 L44.7313,32.0938 Q44.1219,32.0938 43.8563,31.8594 Q43.5906,31.625 43.5906,31.2344 Q43.5906,30.8594 43.8563,30.625 Q44.1219,30.3906 44.7313,30.3906 L46.45,30.3906 L46.45,23.7344 L44.7313,23.7344 Q44.1219,23.7344 43.8563,23.5 Q43.5906,23.2656 43.5906,22.875 Q43.5906,22.5 43.8563,22.2656 Q44.1219,22.0313 44.7313,22.0313 L49.8719,22.0313 Q50.4813,22.0313 50.7469,22.2656 Q51.0125,22.5 51.0125,22.875 Q51.0125,23.2656 50.7469,23.5 Q50.4813,23.7344 49.8719,23.7344 L48.1531,23.7344 Z "/><text fill="#000000" font-family="sans-serif" font-size="14" font-style="italic" lengthAdjust="spacingAndGlyphs" textLength="157" x="66.8" y="26.5332">WorkBreakdownElement</text><text fill="#000000" font-family="sans-serif" font-size="10" font-style="italic" lengthAdjust="spacingAndGlyphs" textLength="92" x="99.3" y="39.9902">org.eclipse.epf.uma</text><line style="stroke: #A80036; stroke-width: 1.5;" x1="8" x2="251" y1="47.1875" y2="47.1875"/><ellipse cx="18" cy="58.1875" fill="#84BE84" rx="3" ry="3" style="stroke: #038048; stroke-width: 1.0;"/><text fill="#000000" font-family="sans-serif" font-size="11" font-style="italic" lengthAdjust="spacingAndGlyphs" textLength="135" x="27" y="62.6064">getIsRepeatable(): Boolean</text><ellipse cx="18" cy="72.0234" fill="#84BE84" rx="3" ry="3" style="stroke: #038048; stroke-width: 1.0;"/><text fill="#000000" font-family="sans-serif" font-size="11" font-style="italic" lengthAdjust="spacingAndGlyphs" textLength="155" x="27" y="76.4424">setIsRepeatable(Boolean): void</text><ellipse cx="18" cy="85.8594" fill="#84BE84" rx="3" ry="3" style="stroke: #038048; stroke-width: 1.0;"/><text fill="#000000" font-family="sans-serif" font-size="11" font-style="italic" lengthAdjust="spacingAndGlyphs" textLength="120" x="27" y="90.2783">getIsOngoing(): Boolean</text><ellipse cx="18" cy="99.6953" fill="#84BE84" rx="3" ry="3" style="stroke: #038048; stroke-width: 1.0;"/><text fill="#000000" font-family="sans-serif" font-size="11" font-style="italic" lengthAdjust="spacingAndGlyphs" textLength="140" x="27" y="104.1143">setIsOngoing(Boolean): void</text><ellipse cx="18" cy="113.5313" fill="#84BE84" rx="3" ry="3" style="stroke: #038048; stroke-width: 1.0;"/><text fill="#000000" font-family="sans-serif" font-size="11" font-style="italic" lengthAdjust="spacingAndGlyphs" textLength="137" x="27" y="117.9502">getIsEventDriven(): Boolean</text><ellipse cx="18" cy="127.3672" fill="#84BE84" rx="3" ry="3" style="stroke: #038048; stroke-width: 1.0;"/><text fill="#000000" font-family="sans-serif" font-size="11" font-style="italic" lengthAdjust="spacingAndGlyphs" textLength="157" x="27" y="131.7861">setIsEventDriven(Boolean): void</text><ellipse cx="18" cy="141.2031" fill="#84BE84" rx="3" ry="3" style="stroke: #038048; stroke-width: 1.0;"/><text fill="#000000" font-family="sans-serif" font-size="11" font-style="italic" lengthAdjust="spacingAndGlyphs" textLength="219" x="27" y="145.6221">getLinkToPredecessor(): EList&lt;WorkOrder&gt;</text></a><!--MD5=[e2aea4f57378d8bf0d95e9671773c115]
class org.eclipse.epf.uma.Descriptor--><a href="Descriptor.html" target="_top" title="Descriptor.html" xlink:actuate="onRequest" xlink:href="Descriptor.html" xlink:show="new" xlink:title="Descriptor.html" xlink:type="simple"><rect codeLine="33" fill="#FEFECE" filter="url(#f1fbxn35lv6ct)" height="103.5313" id="org.eclipse.epf.uma.Descriptor" style="stroke: #A80036; stroke-width: 1.5;" width="249" x="287" y="27.5"/><ellipse cx="361.25" cy="47.5938" fill="#B4A7E5" rx="11" ry="11" style="stroke: #A80036; stroke-width: 1.0;"/><path d="M362.2031,44.2344 L362.2031,50.8906 L363.9219,50.8906 Q364.5313,50.8906 364.7969,51.125 Q365.0625,51.3594 365.0625,51.75 Q365.0625,52.125 364.7969,52.3594 Q364.5313,52.5938 363.9219,52.5938 L358.7813,52.5938 Q358.1719,52.5938 357.9063,52.3594 Q357.6406,52.125 357.6406,51.7344 Q357.6406,51.3594 357.9063,51.125 Q358.1719,50.8906 358.7813,50.8906 L360.5,50.8906 L360.5,44.2344 L358.7813,44.2344 Q358.1719,44.2344 357.9063,44 Q357.6406,43.7656 357.6406,43.375 Q357.6406,43 357.9063,42.7656 Q358.1719,42.5313 358.7813,42.5313 L363.9219,42.5313 Q364.5313,42.5313 364.7969,42.7656 Q365.0625,43 365.0625,43.375 Q365.0625,43.7656 364.7969,44 Q364.5313,44.2344 363.9219,44.2344 L362.2031,44.2344 Z "/><text fill="#000000" font-family="sans-serif" font-size="14" font-style="italic" lengthAdjust="spacingAndGlyphs" textLength="65" x="395.25" y="47.0332">Descriptor</text><text fill="#000000" font-family="sans-serif" font-size="10" font-style="italic" lengthAdjust="spacingAndGlyphs" textLength="92" x="381.75" y="60.4902">org.eclipse.epf.uma</text><line style="stroke: #A80036; stroke-width: 1.5;" x1="288" x2="535" y1="67.6875" y2="67.6875"/><ellipse cx="298" cy="78.6875" fill="#84BE84" rx="3" ry="3" style="stroke: #038048; stroke-width: 1.0;"/><text fill="#000000" font-family="sans-serif" font-size="11" font-style="italic" lengthAdjust="spacingAndGlyphs" textLength="203" x="307" y="83.1064">getIsSynchronizedWithSource(): Boolean</text><ellipse cx="298" cy="92.5234" fill="#84BE84" rx="3" ry="3" style="stroke: #038048; stroke-width: 1.0;"/><text fill="#000000" font-family="sans-serif" font-size="11" font-style="italic" lengthAdjust="spacingAndGlyphs" textLength="223" x="307" y="96.9424">setIsSynchronizedWithSource(Boolean): void</text><ellipse cx="298" cy="106.3594" fill="#84BE84" rx="3" ry="3" style="stroke: #038048; stroke-width: 1.0;"/><text fill="#000000" font-family="sans-serif" font-size="11" font-style="italic" lengthAdjust="spacingAndGlyphs" textLength="202" x="307" y="110.7783">getGuidanceExclude(): EList&lt;Guidance&gt;</text><ellipse cx="298" cy="120.1953" fill="#84BE84" rx="3" ry="3" style="stroke: #038048; stroke-width: 1.0;"/><text fill="#000000" font-family="sans-serif" font-size="11" font-style="italic" lengthAdjust="spacingAndGlyphs" textLength="211" x="307" y="124.6143">getGuidanceAdditional(): EList&lt;Guidance&gt;</text></a><!--MD5=[a1e9b48f3fd2a32089ff281b5900a3ba]
reverse link org.eclipse.epf.uma.WorkBreakdownElement to org.eclipse.epf.uma.TaskDescriptor--><path codeLine="40" d="M177.15,170.23 C184.3,183.68 191.8,197.8 199.3,211.94 " fill="none" id="org.eclipse.epf.uma.WorkBreakdownElement-backto-org.eclipse.epf.uma.TaskDescriptor" style="stroke: #A80036; stroke-width: 1.0;"/><polygon fill="none" points="170.86,173.29,167.66,152.35,183.22,166.73,170.86,173.29" style="stroke: #A80036; stroke-width: 1.0;"/><!--MD5=[30ac50cae0918e09338ccfd8a8ecf3b3]
reverse link org.eclipse.epf.uma.Descriptor to org.eclipse.epf.uma.TaskDescriptor--><path codeLine="41" d="M374.92,149.37 C364.69,168.64 353.2,190.27 341.69,211.95 " fill="none" id="org.eclipse.epf.uma.Descriptor-backto-org.eclipse.epf.uma.TaskDescriptor" style="stroke: #A80036; stroke-width: 1.0;"/><polygon fill="none" points="368.75,146.07,384.31,131.69,381.12,152.64,368.75,146.07" style="stroke: #A80036; stroke-width: 1.0;"/><text fill="#888888" font-family="sans-serif" font-size="10" lengthAdjust="spacingAndGlyphs" textLength="190" x="173.5" y="504.9434">UMLDoclet 2.0.12, PlantUML 1.2020.16</text><!--MD5=[5ce3dda00fa5d38a55c37e7c9356ab4a]
@startuml
    set namespaceSeparator none
    hide empty fields
    hide empty methods

    interface "<size:14>TaskDescriptor\n<size:10>org.eclipse.epf.uma" as org.eclipse.epf.uma.TaskDescriptor [[TaskDescriptor.html]] {
        {abstract} +getTask(): Task
        {abstract} +setTask(Task): void
        {abstract} +getAdditionallyPerformedBy(): EList<RoleDescriptor>
        {abstract} +getAssistedBy(): EList<RoleDescriptor>
        {abstract} +getExternalInput(): EList<WorkProductDescriptor>
        {abstract} +getMandatoryInput(): EList<WorkProductDescriptor>
        {abstract} +getOptionalInput(): EList<WorkProductDescriptor>
        {abstract} +getOutput(): EList<WorkProductDescriptor>
        {abstract} +getPerformedPrimarilyBy(): EList<RoleDescriptor>
        {abstract} +getSelectedSteps(): EList<Section>
        {abstract} +getPerformedPrimarilyByExcluded(): EList<Role>
        {abstract} +getAdditionallyPerformedByExclude(): EList<Role>
        {abstract} +getMandatoryInputExclude(): EList<WorkProduct>
        {abstract} +getOptionalInputExclude(): EList<WorkProduct>
        {abstract} +getOutputExclude(): EList<WorkProduct>
        {abstract} +getSelectedStepsExclude(): EList<Section>
    }

    interface "<size:14>WorkBreakdownElement\n<size:10>org.eclipse.epf.uma" as org.eclipse.epf.uma.WorkBreakdownElement [[WorkBreakdownElement.html]] {
        {abstract} +getIsRepeatable(): Boolean
        {abstract} +setIsRepeatable(Boolean): void
        {abstract} +getIsOngoing(): Boolean
        {abstract} +setIsOngoing(Boolean): void
        {abstract} +getIsEventDriven(): Boolean
        {abstract} +setIsEventDriven(Boolean): void
        {abstract} +getLinkToPredecessor(): EList<WorkOrder>
    }
    interface "<size:14>Descriptor\n<size:10>org.eclipse.epf.uma" as org.eclipse.epf.uma.Descriptor [[Descriptor.html]] {
        {abstract} +getIsSynchronizedWithSource(): Boolean
        {abstract} +setIsSynchronizedWithSource(Boolean): void
        {abstract} +getGuidanceExclude(): EList<Guidance>
        {abstract} +getGuidanceAdditional(): EList<Guidance>
    }

    org.eclipse.epf.uma.WorkBreakdownElement <|- - org.eclipse.epf.uma.TaskDescriptor
    org.eclipse.epf.uma.Descriptor <|- - org.eclipse.epf.uma.TaskDescriptor

    center footer UMLDoclet 2.0.12, PlantUML 1.2020.16
@enduml

PlantUML version 1.2020.16(Sun Aug 23 22:20:43 CEST 2020)
(APACHE source distribution)
Java Runtime: Java(TM) SE Runtime Environment
JVM: Java HotSpot(TM) 64-Bit Server VM
Default Encoding: Cp1252
Language: es
Country: ES
--></g></svg>