<?xml version="1.0" encoding="UTF-8" standalone="no"?><svg xmlns="http://www.w3.org/2000/svg" xmlns:xlink="http://www.w3.org/1999/xlink" contentScriptType="application/ecmascript" contentStyleType="text/css" height="407px" preserveAspectRatio="none" style="width:538px;height:407px;" version="1.1" viewBox="0 0 538 407" width="538px" zoomAndPan="magnify"><defs><filter height="300%" id="f1dibri0oi3jr8" width="300%" x="-1" y="-1"><feGaussianBlur result="blurOut" stdDeviation="2.0"/><feColorMatrix in="blurOut" result="blurOut2" type="matrix" values="0 0 0 0 0 0 0 0 0 0 0 0 0 0 0 0 0 0 .4 0"/><feOffset dx="4.0" dy="4.0" in="blurOut2" result="blurOut3"/><feBlend in="SourceGraphic" in2="blurOut3" mode="normal"/></filter></defs><g><!--MD5=[2b800bb74785722aa0697182a8bc0784]
class org.eclipse.epf.uma.Task--><a href="Task.html" target="_top" title="Task.html" xlink:actuate="onRequest" xlink:href="Task.html" xlink:show="new" xlink:title="Task.html" xlink:type="simple"><rect codeLine="5" fill="#FEFECE" filter="url(#f1dibri0oi3jr8)" height="158.875" id="org.eclipse.epf.uma.Task" style="stroke: #A80036; stroke-width: 1.5;" width="346" x="113" y="212"/><ellipse cx="235.75" cy="232.0938" fill="#B4A7E5" rx="11" ry="11" style="stroke: #A80036; stroke-width: 1.0;"/><path d="M236.7031,228.7344 L236.7031,235.3906 L238.4219,235.3906 Q239.0313,235.3906 239.2969,235.625 Q239.5625,235.8594 239.5625,236.25 Q239.5625,236.625 239.2969,236.8594 Q239.0313,237.0938 238.4219,237.0938 L233.2813,237.0938 Q232.6719,237.0938 232.4063,236.8594 Q232.1406,236.625 232.1406,236.2344 Q232.1406,235.8594 232.4063,235.625 Q232.6719,235.3906 233.2813,235.3906 L235,235.3906 L235,228.7344 L233.2813,228.7344 Q232.6719,228.7344 232.4063,228.5 Q232.1406,228.2656 232.1406,227.875 Q232.1406,227.5 232.4063,227.2656 Q232.6719,227.0313 233.2813,227.0313 L238.4219,227.0313 Q239.0313,227.0313 239.2969,227.2656 Q239.5625,227.5 239.5625,227.875 Q239.5625,228.2656 239.2969,228.5 Q239.0313,228.7344 238.4219,228.7344 L236.7031,228.7344 Z "/><text fill="#000000" font-family="sans-serif" font-size="14" font-style="italic" lengthAdjust="spacingAndGlyphs" textLength="32" x="286.25" y="231.5332">Task</text><text fill="#000000" font-family="sans-serif" font-size="10" font-style="italic" lengthAdjust="spacingAndGlyphs" textLength="92" x="256.25" y="244.9902">org.eclipse.epf.uma</text><line style="stroke: #A80036; stroke-width: 1.5;" x1="114" x2="458" y1="252.1875" y2="252.1875"/><ellipse cx="124" cy="263.1875" fill="#84BE84" rx="3" ry="3" style="stroke: #038048; stroke-width: 1.0;"/><text fill="#000000" font-family="sans-serif" font-size="11" font-style="italic" lengthAdjust="spacingAndGlyphs" textLength="152" x="133" y="267.6064">getPerformedBy(): EList&lt;Role&gt;</text><ellipse cx="124" cy="277.0234" fill="#84BE84" rx="3" ry="3" style="stroke: #038048; stroke-width: 1.0;"/><text fill="#000000" font-family="sans-serif" font-size="11" font-style="italic" lengthAdjust="spacingAndGlyphs" textLength="206" x="133" y="281.4424">getMandatoryInput(): EList&lt;WorkProduct&gt;</text><ellipse cx="124" cy="290.8594" fill="#84BE84" rx="3" ry="3" style="stroke: #038048; stroke-width: 1.0;"/><text fill="#000000" font-family="sans-serif" font-size="11" font-style="italic" lengthAdjust="spacingAndGlyphs" textLength="164" x="133" y="295.2783">getOutput(): EList&lt;WorkProduct&gt;</text><ellipse cx="124" cy="304.6953" fill="#84BE84" rx="3" ry="3" style="stroke: #038048; stroke-width: 1.0;"/><text fill="#000000" font-family="sans-serif" font-size="11" font-style="italic" lengthAdjust="spacingAndGlyphs" textLength="209" x="133" y="309.1143">getAdditionallyPerformedBy(): EList&lt;Role&gt;</text><ellipse cx="124" cy="318.5313" fill="#84BE84" rx="3" ry="3" style="stroke: #038048; stroke-width: 1.0;"/><text fill="#000000" font-family="sans-serif" font-size="11" font-style="italic" lengthAdjust="spacingAndGlyphs" textLength="197" x="133" y="322.9502">getOptionalInput(): EList&lt;WorkProduct&gt;</text><ellipse cx="124" cy="332.3672" fill="#84BE84" rx="3" ry="3" style="stroke: #038048; stroke-width: 1.0;"/><text fill="#000000" font-family="sans-serif" font-size="11" font-style="italic" lengthAdjust="spacingAndGlyphs" textLength="116" x="133" y="336.7861">getSteps(): EList&lt;Step&gt;</text><ellipse cx="124" cy="346.2031" fill="#84BE84" rx="3" ry="3" style="stroke: #038048; stroke-width: 1.0;"/><text fill="#000000" font-family="sans-serif" font-size="11" font-style="italic" lengthAdjust="spacingAndGlyphs" textLength="184" x="133" y="350.6221">getToolMentors(): EList&lt;ToolMentor&gt;</text><ellipse cx="124" cy="360.0391" fill="#84BE84" rx="3" ry="3" style="stroke: #038048; stroke-width: 1.0;"/><text fill="#000000" font-family="sans-serif" font-size="11" font-style="italic" lengthAdjust="spacingAndGlyphs" textLength="320" x="133" y="364.458">getEstimationConsiderations(): EList&lt;EstimationConsiderations&gt;</text></a><!--MD5=[13c5eb85a3ca1cf746cc47e30073ec20]
class org.eclipse.epf.uma.ContentElement--><a href="ContentElement.html" target="_top" title="ContentElement.html" xlink:actuate="onRequest" xlink:href="ContentElement.html" xlink:show="new" xlink:title="ContentElement.html" xlink:type="simple"><rect codeLine="16" fill="#FEFECE" filter="url(#f1dibri0oi3jr8)" height="145.0391" id="org.eclipse.epf.uma.ContentElement" style="stroke: #A80036; stroke-width: 1.5;" width="284" x="7" y="7"/><ellipse cx="94.25" cy="27.0938" fill="#B4A7E5" rx="11" ry="11" style="stroke: #A80036; stroke-width: 1.0;"/><path d="M95.2031,23.7344 L95.2031,30.3906 L96.9219,30.3906 Q97.5313,30.3906 97.7969,30.625 Q98.0625,30.8594 98.0625,31.25 Q98.0625,31.625 97.7969,31.8594 Q97.5313,32.0938 96.9219,32.0938 L91.7813,32.0938 Q91.1719,32.0938 90.9063,31.8594 Q90.6406,31.625 90.6406,31.2344 Q90.6406,30.8594 90.9063,30.625 Q91.1719,30.3906 91.7813,30.3906 L93.5,30.3906 L93.5,23.7344 L91.7813,23.7344 Q91.1719,23.7344 90.9063,23.5 Q90.6406,23.2656 90.6406,22.875 Q90.6406,22.5 90.9063,22.2656 Q91.1719,22.0313 91.7813,22.0313 L96.9219,22.0313 Q97.5313,22.0313 97.7969,22.2656 Q98.0625,22.5 98.0625,22.875 Q98.0625,23.2656 97.7969,23.5 Q97.5313,23.7344 96.9219,23.7344 L95.2031,23.7344 Z "/><text fill="#000000" font-family="sans-serif" font-size="14" font-style="italic" lengthAdjust="spacingAndGlyphs" textLength="101" x="114.75" y="26.5332">ContentElement</text><text fill="#000000" font-family="sans-serif" font-size="10" font-style="italic" lengthAdjust="spacingAndGlyphs" textLength="92" x="119.25" y="39.9902">org.eclipse.epf.uma</text><line style="stroke: #A80036; stroke-width: 1.5;" x1="8" x2="290" y1="47.1875" y2="47.1875"/><ellipse cx="18" cy="58.1875" fill="#84BE84" rx="3" ry="3" style="stroke: #038048; stroke-width: 1.0;"/><text fill="#000000" font-family="sans-serif" font-size="11" font-style="italic" lengthAdjust="spacingAndGlyphs" textLength="258" x="27" y="62.6064">getSupportingMaterials(): EList&lt;SupportingMaterial&gt;</text><ellipse cx="18" cy="72.0234" fill="#84BE84" rx="3" ry="3" style="stroke: #038048; stroke-width: 1.0;"/><text fill="#000000" font-family="sans-serif" font-size="11" font-style="italic" lengthAdjust="spacingAndGlyphs" textLength="208" x="27" y="76.4424">getConceptsAndPapers(): EList&lt;Concept&gt;</text><ellipse cx="18" cy="85.8594" fill="#84BE84" rx="3" ry="3" style="stroke: #038048; stroke-width: 1.0;"/><text fill="#000000" font-family="sans-serif" font-size="11" font-style="italic" lengthAdjust="spacingAndGlyphs" textLength="166" x="27" y="90.2783">getChecklists(): EList&lt;Checklist&gt;</text><ellipse cx="18" cy="99.6953" fill="#84BE84" rx="3" ry="3" style="stroke: #038048; stroke-width: 1.0;"/><text fill="#000000" font-family="sans-serif" font-size="11" font-style="italic" lengthAdjust="spacingAndGlyphs" textLength="168" x="27" y="104.1143">getGuidelines(): EList&lt;Guideline&gt;</text><ellipse cx="18" cy="113.5313" fill="#84BE84" rx="3" ry="3" style="stroke: #038048; stroke-width: 1.0;"/><text fill="#000000" font-family="sans-serif" font-size="11" font-style="italic" lengthAdjust="spacingAndGlyphs" textLength="158" x="27" y="117.9502">getExamples(): EList&lt;Example&gt;</text><ellipse cx="18" cy="127.3672" fill="#84BE84" rx="3" ry="3" style="stroke: #038048; stroke-width: 1.0;"/><text fill="#000000" font-family="sans-serif" font-size="11" font-style="italic" lengthAdjust="spacingAndGlyphs" textLength="176" x="27" y="131.7861">getAssets(): EList&lt;ReusableAsset&gt;</text><ellipse cx="18" cy="141.2031" fill="#84BE84" rx="3" ry="3" style="stroke: #038048; stroke-width: 1.0;"/><text fill="#000000" font-family="sans-serif" font-size="11" font-style="italic" lengthAdjust="spacingAndGlyphs" textLength="210" x="27" y="145.6221">getTermdefinition(): EList&lt;TermDefinition&gt;</text></a><!--MD5=[3c99a5eaea672cd8b6c6b711cc4fc612]
class org.eclipse.epf.uma.WorkDefinition--><a href="WorkDefinition.html" target="_top" title="WorkDefinition.html" xlink:actuate="onRequest" xlink:href="WorkDefinition.html" xlink:show="new" xlink:title="WorkDefinition.html" xlink:type="simple"><rect codeLine="25" fill="#FEFECE" filter="url(#f1dibri0oi3jr8)" height="103.5313" id="org.eclipse.epf.uma.WorkDefinition" style="stroke: #A80036; stroke-width: 1.5;" width="193" x="326.5" y="27.5"/><ellipse cx="371.75" cy="47.5938" fill="#B4A7E5" rx="11" ry="11" style="stroke: #A80036; stroke-width: 1.0;"/><path d="M372.7031,44.2344 L372.7031,50.8906 L374.4219,50.8906 Q375.0313,50.8906 375.2969,51.125 Q375.5625,51.3594 375.5625,51.75 Q375.5625,52.125 375.2969,52.3594 Q375.0313,52.5938 374.4219,52.5938 L369.2813,52.5938 Q368.6719,52.5938 368.4063,52.3594 Q368.1406,52.125 368.1406,51.7344 Q368.1406,51.3594 368.4063,51.125 Q368.6719,50.8906 369.2813,50.8906 L371,50.8906 L371,44.2344 L369.2813,44.2344 Q368.6719,44.2344 368.4063,44 Q368.1406,43.7656 368.1406,43.375 Q368.1406,43 368.4063,42.7656 Q368.6719,42.5313 369.2813,42.5313 L374.4219,42.5313 Q375.0313,42.5313 375.2969,42.7656 Q375.5625,43 375.5625,43.375 Q375.5625,43.7656 375.2969,44 Q375.0313,44.2344 374.4219,44.2344 L372.7031,44.2344 Z "/><text fill="#000000" font-family="sans-serif" font-size="14" font-style="italic" lengthAdjust="spacingAndGlyphs" textLength="94" x="392.25" y="47.0332">WorkDefinition</text><text fill="#000000" font-family="sans-serif" font-size="10" font-style="italic" lengthAdjust="spacingAndGlyphs" textLength="92" x="393.25" y="60.4902">org.eclipse.epf.uma</text><line style="stroke: #A80036; stroke-width: 1.5;" x1="327.5" x2="518.5" y1="67.6875" y2="67.6875"/><ellipse cx="337.5" cy="78.6875" fill="#84BE84" rx="3" ry="3" style="stroke: #038048; stroke-width: 1.0;"/><text fill="#000000" font-family="sans-serif" font-size="11" font-style="italic" lengthAdjust="spacingAndGlyphs" textLength="142" x="346.5" y="83.1064">getPrecondition(): Constraint</text><ellipse cx="337.5" cy="92.5234" fill="#84BE84" rx="3" ry="3" style="stroke: #038048; stroke-width: 1.0;"/><text fill="#000000" font-family="sans-serif" font-size="11" font-style="italic" lengthAdjust="spacingAndGlyphs" textLength="162" x="346.5" y="96.9424">setPrecondition(Constraint): void</text><ellipse cx="337.5" cy="106.3594" fill="#84BE84" rx="3" ry="3" style="stroke: #038048; stroke-width: 1.0;"/><text fill="#000000" font-family="sans-serif" font-size="11" font-style="italic" lengthAdjust="spacingAndGlyphs" textLength="147" x="346.5" y="110.7783">getPostcondition(): Constraint</text><ellipse cx="337.5" cy="120.1953" fill="#84BE84" rx="3" ry="3" style="stroke: #038048; stroke-width: 1.0;"/><text fill="#000000" font-family="sans-serif" font-size="11" font-style="italic" lengthAdjust="spacingAndGlyphs" textLength="167" x="346.5" y="124.6143">setPostcondition(Constraint): void</text></a><!--MD5=[817b7f46aceb07cb0a1364555fe2e7d4]
reverse link org.eclipse.epf.uma.ContentElement to org.eclipse.epf.uma.Task--><path codeLine="32" d="M206.88,169.22 C216.14,183.41 225.66,198.01 234.75,211.95 " fill="none" id="org.eclipse.epf.uma.ContentElement-backto-org.eclipse.epf.uma.Task" style="stroke: #A80036; stroke-width: 1.0;"/><polygon fill="none" points="200.83,172.76,195.76,152.18,212.56,165.11,200.83,172.76" style="stroke: #A80036; stroke-width: 1.0;"/><!--MD5=[d203bf39f66afafdb80d666f3bee4307]
reverse link org.eclipse.epf.uma.WorkDefinition to org.eclipse.epf.uma.Task--><path codeLine="33" d="M378.54,148.65 C365.43,168.75 350.96,190.92 337.45,211.64 " fill="none" id="org.eclipse.epf.uma.WorkDefinition-backto-org.eclipse.epf.uma.Task" style="stroke: #A80036; stroke-width: 1.0;"/><polygon fill="none" points="372.87,144.53,389.66,131.6,384.6,152.18,372.87,144.53" style="stroke: #A80036; stroke-width: 1.0;"/><text fill="#888888" font-family="sans-serif" font-size="10" lengthAdjust="spacingAndGlyphs" textLength="190" x="165.25" y="394.2559">UMLDoclet 2.0.12, PlantUML 1.2020.16</text><!--MD5=[b9bc636465824bab1772530b23f36db6]
@startuml
    set namespaceSeparator none
    hide empty fields
    hide empty methods

    interface "<size:14>Task\n<size:10>org.eclipse.epf.uma" as org.eclipse.epf.uma.Task [[Task.html]] {
        {abstract} +getPerformedBy(): EList<Role>
        {abstract} +getMandatoryInput(): EList<WorkProduct>
        {abstract} +getOutput(): EList<WorkProduct>
        {abstract} +getAdditionallyPerformedBy(): EList<Role>
        {abstract} +getOptionalInput(): EList<WorkProduct>
        {abstract} +getSteps(): EList<Step>
        {abstract} +getToolMentors(): EList<ToolMentor>
        {abstract} +getEstimationConsiderations(): EList<EstimationConsiderations>
    }

    interface "<size:14>ContentElement\n<size:10>org.eclipse.epf.uma" as org.eclipse.epf.uma.ContentElement [[ContentElement.html]] {
        {abstract} +getSupportingMaterials(): EList<SupportingMaterial>
        {abstract} +getConceptsAndPapers(): EList<Concept>
        {abstract} +getChecklists(): EList<Checklist>
        {abstract} +getGuidelines(): EList<Guideline>
        {abstract} +getExamples(): EList<Example>
        {abstract} +getAssets(): EList<ReusableAsset>
        {abstract} +getTermdefinition(): EList<TermDefinition>
    }
    interface "<size:14>WorkDefinition\n<size:10>org.eclipse.epf.uma" as org.eclipse.epf.uma.WorkDefinition [[WorkDefinition.html]] {
        {abstract} +getPrecondition(): Constraint
        {abstract} +setPrecondition(Constraint): void
        {abstract} +getPostcondition(): Constraint
        {abstract} +setPostcondition(Constraint): void
    }

    org.eclipse.epf.uma.ContentElement <|- - org.eclipse.epf.uma.Task
    org.eclipse.epf.uma.WorkDefinition <|- - org.eclipse.epf.uma.Task

    center footer UMLDoclet 2.0.12, PlantUML 1.2020.16
@enduml

PlantUML version 1.2020.16(Sun Aug 23 22:20:43 CEST 2020)
(APACHE source distribution)
Java Runtime: Java(TM) SE Runtime Environment
JVM: Java HotSpot(TM) 64-Bit Server VM
Default Encoding: Cp1252
Language: es
Country: ES
--></g></svg>