<?xml version="1.0" encoding="UTF-8" standalone="no"?><svg xmlns="http://www.w3.org/2000/svg" xmlns:xlink="http://www.w3.org/1999/xlink" contentScriptType="application/ecmascript" contentStyleType="text/css" height="184px" preserveAspectRatio="none" style="width:202px;height:184px;" version="1.1" viewBox="0 0 202 184" width="202px" zoomAndPan="magnify"><defs><filter height="300%" id="f16x3gj82dq4bf" width="300%" x="-1" y="-1"><feGaussianBlur result="blurOut" stdDeviation="2.0"/><feColorMatrix in="blurOut" result="blurOut2" type="matrix" values="0 0 0 0 0 0 0 0 0 0 0 0 0 0 0 0 0 0 .4 0"/><feOffset dx="4.0" dy="4.0" in="blurOut2" result="blurOut3"/><feBlend in="SourceGraphic" in2="blurOut3" mode="normal"/></filter></defs><g><!--MD5=[694300bfccef532333b0086a32ab6fe8]
class org.eclipse.epf.uma.TermDefinition--><a href="TermDefinition.html" target="_top" title="TermDefinition.html" xlink:actuate="onRequest" xlink:href="TermDefinition.html" xlink:show="new" xlink:title="TermDefinition.html" xlink:type="simple"><rect codeLine="5" fill="#FEFECE" filter="url(#f16x3gj82dq4bf)" height="40.1875" id="org.eclipse.epf.uma.TermDefinition" style="stroke: #A80036; stroke-width: 1.5;" width="124" x="36" y="107"/><ellipse cx="51" cy="127.0938" fill="#B4A7E5" rx="11" ry="11" style="stroke: #A80036; stroke-width: 1.0;"/><path d="M51.9531,123.7344 L51.9531,130.3906 L53.6719,130.3906 Q54.2813,130.3906 54.5469,130.625 Q54.8125,130.8594 54.8125,131.25 Q54.8125,131.625 54.5469,131.8594 Q54.2813,132.0938 53.6719,132.0938 L48.5313,132.0938 Q47.9219,132.0938 47.6563,131.8594 Q47.3906,131.625 47.3906,131.2344 Q47.3906,130.8594 47.6563,130.625 Q47.9219,130.3906 48.5313,130.3906 L50.25,130.3906 L50.25,123.7344 L48.5313,123.7344 Q47.9219,123.7344 47.6563,123.5 Q47.3906,123.2656 47.3906,122.875 Q47.3906,122.5 47.6563,122.2656 Q47.9219,122.0313 48.5313,122.0313 L53.6719,122.0313 Q54.2813,122.0313 54.5469,122.2656 Q54.8125,122.5 54.8125,122.875 Q54.8125,123.2656 54.5469,123.5 Q54.2813,123.7344 53.6719,123.7344 L51.9531,123.7344 Z "/><text fill="#000000" font-family="sans-serif" font-size="14" font-style="italic" lengthAdjust="spacingAndGlyphs" textLength="92" x="65" y="126.5332">TermDefinition</text><text fill="#000000" font-family="sans-serif" font-size="10" font-style="italic" lengthAdjust="spacingAndGlyphs" textLength="92" x="65" y="139.9902">org.eclipse.epf.uma</text></a><!--MD5=[31784ddf3d95333b37758b987195013e]
class org.eclipse.epf.uma.Guidance--><a href="Guidance.html" target="_top" title="Guidance.html" xlink:actuate="onRequest" xlink:href="Guidance.html" xlink:show="new" xlink:title="Guidance.html" xlink:type="simple"><rect codeLine="7" fill="#FEFECE" filter="url(#f16x3gj82dq4bf)" height="40.1875" id="org.eclipse.epf.uma.Guidance" style="stroke: #A80036; stroke-width: 1.5;" width="124" x="36" y="7"/><ellipse cx="51" cy="27.0938" fill="#B4A7E5" rx="11" ry="11" style="stroke: #A80036; stroke-width: 1.0;"/><path d="M51.9531,23.7344 L51.9531,30.3906 L53.6719,30.3906 Q54.2813,30.3906 54.5469,30.625 Q54.8125,30.8594 54.8125,31.25 Q54.8125,31.625 54.5469,31.8594 Q54.2813,32.0938 53.6719,32.0938 L48.5313,32.0938 Q47.9219,32.0938 47.6563,31.8594 Q47.3906,31.625 47.3906,31.2344 Q47.3906,30.8594 47.6563,30.625 Q47.9219,30.3906 48.5313,30.3906 L50.25,30.3906 L50.25,23.7344 L48.5313,23.7344 Q47.9219,23.7344 47.6563,23.5 Q47.3906,23.2656 47.3906,22.875 Q47.3906,22.5 47.6563,22.2656 Q47.9219,22.0313 48.5313,22.0313 L53.6719,22.0313 Q54.2813,22.0313 54.5469,22.2656 Q54.8125,22.5 54.8125,22.875 Q54.8125,23.2656 54.5469,23.5 Q54.2813,23.7344 53.6719,23.7344 L51.9531,23.7344 Z "/><text fill="#000000" font-family="sans-serif" font-size="14" font-style="italic" lengthAdjust="spacingAndGlyphs" textLength="61" x="80.5" y="26.5332">Guidance</text><text fill="#000000" font-family="sans-serif" font-size="10" font-style="italic" lengthAdjust="spacingAndGlyphs" textLength="92" x="65" y="39.9902">org.eclipse.epf.uma</text></a><!--MD5=[9402d097a5fa281adc22469bb2dd89fa]
reverse link org.eclipse.epf.uma.Guidance to org.eclipse.epf.uma.TermDefinition--><path codeLine="9" d="M98,67.69 C98,81.13 98,95.55 98,106.68 " fill="none" id="org.eclipse.epf.uma.Guidance-backto-org.eclipse.epf.uma.TermDefinition" style="stroke: #A80036; stroke-width: 1.0;"/><polygon fill="none" points="91,67.36,98,47.36,105,67.36,91,67.36" style="stroke: #A80036; stroke-width: 1.0;"/><text fill="#888888" font-family="sans-serif" font-size="10" lengthAdjust="spacingAndGlyphs" textLength="190" x="0" y="170.5684">UMLDoclet 2.0.12, PlantUML 1.2020.16</text><!--MD5=[a202d7901825426b2c8c656fac6c443d]
@startuml
    set namespaceSeparator none
    hide empty fields
    hide empty methods

    interface "<size:14>TermDefinition\n<size:10>org.eclipse.epf.uma" as org.eclipse.epf.uma.TermDefinition [[TermDefinition.html]]

    interface "<size:14>Guidance\n<size:10>org.eclipse.epf.uma" as org.eclipse.epf.uma.Guidance [[Guidance.html]]

    org.eclipse.epf.uma.Guidance <|- - org.eclipse.epf.uma.TermDefinition

    center footer UMLDoclet 2.0.12, PlantUML 1.2020.16
@enduml

PlantUML version 1.2020.16(Sun Aug 23 22:20:43 CEST 2020)
(APACHE source distribution)
Java Runtime: Java(TM) SE Runtime Environment
JVM: Java HotSpot(TM) 64-Bit Server VM
Default Encoding: Cp1252
Language: es
Country: ES
--></g></svg>