<?xml version="1.0" encoding="UTF-8" standalone="no"?><svg xmlns="http://www.w3.org/2000/svg" xmlns:xlink="http://www.w3.org/1999/xlink" contentScriptType="application/ecmascript" contentStyleType="text/css" height="435px" preserveAspectRatio="none" style="width:352px;height:435px;" version="1.1" viewBox="0 0 352 435" width="352px" zoomAndPan="magnify"><defs><filter height="300%" id="fe87d854rgh22" width="300%" x="-1" y="-1"><feGaussianBlur result="blurOut" stdDeviation="2.0"/><feColorMatrix in="blurOut" result="blurOut2" type="matrix" values="0 0 0 0 0 0 0 0 0 0 0 0 0 0 0 0 0 0 .4 0"/><feOffset dx="4.0" dy="4.0" in="blurOut2" result="blurOut3"/><feBlend in="SourceGraphic" in2="blurOut3" mode="normal"/></filter></defs><g><!--MD5=[3feaaf670fc79e387ff2ee6de862556d]
class org.eclipse.epf.uma.VariabilityElement--><a href="VariabilityElement.html" target="_top" title="VariabilityElement.html" xlink:actuate="onRequest" xlink:href="VariabilityElement.html" xlink:show="new" xlink:title="VariabilityElement.html" xlink:type="simple"><rect codeLine="5" fill="#FEFECE" filter="url(#fe87d854rgh22)" height="103.5313" id="org.eclipse.epf.uma.VariabilityElement" style="stroke: #A80036; stroke-width: 1.5;" width="301" x="19.5" y="295"/><ellipse cx="109.75" cy="315.0938" fill="#B4A7E5" rx="11" ry="11" style="stroke: #A80036; stroke-width: 1.0;"/><path d="M110.7031,311.7344 L110.7031,318.3906 L112.4219,318.3906 Q113.0313,318.3906 113.2969,318.625 Q113.5625,318.8594 113.5625,319.25 Q113.5625,319.625 113.2969,319.8594 Q113.0313,320.0938 112.4219,320.0938 L107.2813,320.0938 Q106.6719,320.0938 106.4063,319.8594 Q106.1406,319.625 106.1406,319.2344 Q106.1406,318.8594 106.4063,318.625 Q106.6719,318.3906 107.2813,318.3906 L109,318.3906 L109,311.7344 L107.2813,311.7344 Q106.6719,311.7344 106.4063,311.5 Q106.1406,311.2656 106.1406,310.875 Q106.1406,310.5 106.4063,310.2656 Q106.6719,310.0313 107.2813,310.0313 L112.4219,310.0313 Q113.0313,310.0313 113.2969,310.2656 Q113.5625,310.5 113.5625,310.875 Q113.5625,311.2656 113.2969,311.5 Q113.0313,311.7344 112.4219,311.7344 L110.7031,311.7344 Z "/><text fill="#000000" font-family="sans-serif" font-size="14" font-style="italic" lengthAdjust="spacingAndGlyphs" textLength="112" x="130.25" y="314.5332">VariabilityElement</text><text fill="#000000" font-family="sans-serif" font-size="10" font-style="italic" lengthAdjust="spacingAndGlyphs" textLength="92" x="140.25" y="327.9902">org.eclipse.epf.uma</text><line style="stroke: #A80036; stroke-width: 1.5;" x1="20.5" x2="319.5" y1="335.1875" y2="335.1875"/><ellipse cx="30.5" cy="346.1875" fill="#84BE84" rx="3" ry="3" style="stroke: #038048; stroke-width: 1.0;"/><text fill="#000000" font-family="sans-serif" font-size="11" font-style="italic" lengthAdjust="spacingAndGlyphs" textLength="177" x="39.5" y="350.6064">getVariabilityType(): VariabilityType</text><ellipse cx="30.5" cy="360.0234" fill="#84BE84" rx="3" ry="3" style="stroke: #038048; stroke-width: 1.0;"/><text fill="#000000" font-family="sans-serif" font-size="11" font-style="italic" lengthAdjust="spacingAndGlyphs" textLength="197" x="39.5" y="364.4424">setVariabilityType(VariabilityType): void</text><ellipse cx="30.5" cy="373.8594" fill="#84BE84" rx="3" ry="3" style="stroke: #038048; stroke-width: 1.0;"/><text fill="#000000" font-family="sans-serif" font-size="11" font-style="italic" lengthAdjust="spacingAndGlyphs" textLength="255" x="39.5" y="378.2783">getVariabilityBasedOnElement(): VariabilityElement</text><ellipse cx="30.5" cy="387.6953" fill="#84BE84" rx="3" ry="3" style="stroke: #038048; stroke-width: 1.0;"/><text fill="#000000" font-family="sans-serif" font-size="11" font-style="italic" lengthAdjust="spacingAndGlyphs" textLength="275" x="39.5" y="392.1143">setVariabilityBasedOnElement(VariabilityElement): void</text></a><!--MD5=[7427cf7205abc41d95567869575e76d9]
class org.eclipse.epf.uma.MethodElement--><a href="MethodElement.html" target="_top" title="MethodElement.html" xlink:actuate="onRequest" xlink:href="MethodElement.html" xlink:show="new" xlink:title="MethodElement.html" xlink:type="simple"><rect codeLine="12" fill="#FEFECE" filter="url(#fe87d854rgh22)" height="228.0547" id="org.eclipse.epf.uma.MethodElement" style="stroke: #A80036; stroke-width: 1.5;" width="326" x="7" y="7"/><ellipse cx="116.25" cy="27.0938" fill="#B4A7E5" rx="11" ry="11" style="stroke: #A80036; stroke-width: 1.0;"/><path d="M117.2031,23.7344 L117.2031,30.3906 L118.9219,30.3906 Q119.5313,30.3906 119.7969,30.625 Q120.0625,30.8594 120.0625,31.25 Q120.0625,31.625 119.7969,31.8594 Q119.5313,32.0938 118.9219,32.0938 L113.7813,32.0938 Q113.1719,32.0938 112.9063,31.8594 Q112.6406,31.625 112.6406,31.2344 Q112.6406,30.8594 112.9063,30.625 Q113.1719,30.3906 113.7813,30.3906 L115.5,30.3906 L115.5,23.7344 L113.7813,23.7344 Q113.1719,23.7344 112.9063,23.5 Q112.6406,23.2656 112.6406,22.875 Q112.6406,22.5 112.9063,22.2656 Q113.1719,22.0313 113.7813,22.0313 L118.9219,22.0313 Q119.5313,22.0313 119.7969,22.2656 Q120.0625,22.5 120.0625,22.875 Q120.0625,23.2656 119.7969,23.5 Q119.5313,23.7344 118.9219,23.7344 L117.2031,23.7344 Z "/><text fill="#000000" font-family="sans-serif" font-size="14" font-style="italic" lengthAdjust="spacingAndGlyphs" textLength="99" x="136.75" y="26.5332">MethodElement</text><text fill="#000000" font-family="sans-serif" font-size="10" font-style="italic" lengthAdjust="spacingAndGlyphs" textLength="92" x="140.25" y="39.9902">org.eclipse.epf.uma</text><line style="stroke: #A80036; stroke-width: 1.5;" x1="8" x2="332" y1="47.1875" y2="47.1875"/><ellipse cx="18" cy="58.1875" fill="#84BE84" rx="3" ry="3" style="stroke: #038048; stroke-width: 1.0;"/><text fill="#000000" font-family="sans-serif" font-size="11" font-style="italic" lengthAdjust="spacingAndGlyphs" textLength="82" x="27" y="62.6064">getGuid(): String</text><ellipse cx="18" cy="72.0234" fill="#84BE84" rx="3" ry="3" style="stroke: #038048; stroke-width: 1.0;"/><text fill="#000000" font-family="sans-serif" font-size="11" font-style="italic" lengthAdjust="spacingAndGlyphs" textLength="102" x="27" y="76.4424">setGuid(String): void</text><ellipse cx="18" cy="85.8594" fill="#84BE84" rx="3" ry="3" style="stroke: #038048; stroke-width: 1.0;"/><text fill="#000000" font-family="sans-serif" font-size="11" font-style="italic" lengthAdjust="spacingAndGlyphs" textLength="149" x="27" y="90.2783">getPresentationName(): String</text><ellipse cx="18" cy="99.6953" fill="#84BE84" rx="3" ry="3" style="stroke: #038048; stroke-width: 1.0;"/><text fill="#000000" font-family="sans-serif" font-size="11" font-style="italic" lengthAdjust="spacingAndGlyphs" textLength="169" x="27" y="104.1143">setPresentationName(String): void</text><ellipse cx="18" cy="113.5313" fill="#84BE84" rx="3" ry="3" style="stroke: #038048; stroke-width: 1.0;"/><text fill="#000000" font-family="sans-serif" font-size="11" font-style="italic" lengthAdjust="spacingAndGlyphs" textLength="138" x="27" y="117.9502">getBriefDescription(): String</text><ellipse cx="18" cy="127.3672" fill="#84BE84" rx="3" ry="3" style="stroke: #038048; stroke-width: 1.0;"/><text fill="#000000" font-family="sans-serif" font-size="11" font-style="italic" lengthAdjust="spacingAndGlyphs" textLength="158" x="27" y="131.7861">setBriefDescription(String): void</text><ellipse cx="18" cy="141.2031" fill="#84BE84" rx="3" ry="3" style="stroke: #038048; stroke-width: 1.0;"/><text fill="#000000" font-family="sans-serif" font-size="11" font-style="italic" lengthAdjust="spacingAndGlyphs" textLength="180" x="27" y="145.6221">getOwnedRules(): EList&lt;Constraint&gt;</text><ellipse cx="18" cy="155.0391" fill="#84BE84" rx="3" ry="3" style="stroke: #038048; stroke-width: 1.0;"/><text fill="#000000" font-family="sans-serif" font-size="11" font-style="italic" lengthAdjust="spacingAndGlyphs" textLength="300" x="27" y="159.458">getMethodElementProperty(): EList&lt;MethodElementProperty&gt;</text><ellipse cx="18" cy="168.875" fill="#84BE84" rx="3" ry="3" style="stroke: #038048; stroke-width: 1.0;"/><text fill="#000000" font-family="sans-serif" font-size="11" font-style="italic" lengthAdjust="spacingAndGlyphs" textLength="110" x="27" y="173.2939">getKind(): EList&lt;Kind&gt;</text><ellipse cx="18" cy="182.7109" fill="#84BE84" rx="3" ry="3" style="stroke: #038048; stroke-width: 1.0;"/><text fill="#000000" font-family="sans-serif" font-size="11" font-style="italic" lengthAdjust="spacingAndGlyphs" textLength="128" x="27" y="187.1299">getSuppressed(): Boolean</text><ellipse cx="18" cy="196.5469" fill="#84BE84" rx="3" ry="3" style="stroke: #038048; stroke-width: 1.0;"/><text fill="#000000" font-family="sans-serif" font-size="11" font-style="italic" lengthAdjust="spacingAndGlyphs" textLength="148" x="27" y="200.9658">setSuppressed(Boolean): void</text><ellipse cx="18" cy="210.3828" fill="#84BE84" rx="3" ry="3" style="stroke: #038048; stroke-width: 1.0;"/><text fill="#000000" font-family="sans-serif" font-size="11" font-style="italic" lengthAdjust="spacingAndGlyphs" textLength="132" x="27" y="214.8018">getOrderingGuide(): String</text><ellipse cx="18" cy="224.2188" fill="#84BE84" rx="3" ry="3" style="stroke: #038048; stroke-width: 1.0;"/><text fill="#000000" font-family="sans-serif" font-size="11" font-style="italic" lengthAdjust="spacingAndGlyphs" textLength="152" x="27" y="228.6377">setOrderingGuide(String): void</text></a><!--MD5=[2c095a865bde5fc7a74bb9188753096c]
reverse link org.eclipse.epf.uma.MethodElement to org.eclipse.epf.uma.VariabilityElement--><path codeLine="28" d="M170,255.7 C170,269.46 170,282.77 170,294.75 " fill="none" id="org.eclipse.epf.uma.MethodElement-backto-org.eclipse.epf.uma.VariabilityElement" style="stroke: #A80036; stroke-width: 1.0;"/><polygon fill="none" points="163,255.31,170,235.31,177,255.31,163,255.31" style="stroke: #A80036; stroke-width: 1.0;"/><text fill="#888888" font-family="sans-serif" font-size="10" lengthAdjust="spacingAndGlyphs" textLength="190" x="72" y="421.9121">UMLDoclet 2.0.12, PlantUML 1.2020.16</text><!--MD5=[6582a7fa74aa61a9fad853c5c79e9a0c]
@startuml
    set namespaceSeparator none
    hide empty fields
    hide empty methods

    interface "<size:14>VariabilityElement\n<size:10>org.eclipse.epf.uma" as org.eclipse.epf.uma.VariabilityElement [[VariabilityElement.html]] {
        {abstract} +getVariabilityType(): VariabilityType
        {abstract} +setVariabilityType(VariabilityType): void
        {abstract} +getVariabilityBasedOnElement(): VariabilityElement
        {abstract} +setVariabilityBasedOnElement(VariabilityElement): void
    }

    interface "<size:14>MethodElement\n<size:10>org.eclipse.epf.uma" as org.eclipse.epf.uma.MethodElement [[MethodElement.html]] {
        {abstract} +getGuid(): String
        {abstract} +setGuid(String): void
        {abstract} +getPresentationName(): String
        {abstract} +setPresentationName(String): void
        {abstract} +getBriefDescription(): String
        {abstract} +setBriefDescription(String): void
        {abstract} +getOwnedRules(): EList<Constraint>
        {abstract} +getMethodElementProperty(): EList<MethodElementProperty>
        {abstract} +getKind(): EList<Kind>
        {abstract} +getSuppressed(): Boolean
        {abstract} +setSuppressed(Boolean): void
        {abstract} +getOrderingGuide(): String
        {abstract} +setOrderingGuide(String): void
    }

    org.eclipse.epf.uma.MethodElement <|- - org.eclipse.epf.uma.VariabilityElement

    center footer UMLDoclet 2.0.12, PlantUML 1.2020.16
@enduml

PlantUML version 1.2020.16(Sun Aug 23 22:20:43 CEST 2020)
(APACHE source distribution)
Java Runtime: Java(TM) SE Runtime Environment
JVM: Java HotSpot(TM) 64-Bit Server VM
Default Encoding: Cp1252
Language: es
Country: ES
--></g></svg>