<?xml version="1.0" encoding="UTF-8" standalone="no"?><svg xmlns="http://www.w3.org/2000/svg" xmlns:xlink="http://www.w3.org/1999/xlink" contentScriptType="application/ecmascript" contentStyleType="text/css" height="540px" preserveAspectRatio="none" style="width:225px;height:540px;" version="1.1" viewBox="0 0 225 540" width="225px" zoomAndPan="magnify"><defs><filter height="300%" id="f1mlqx9i1xnpni" width="300%" x="-1" y="-1"><feGaussianBlur result="blurOut" stdDeviation="2.0"/><feColorMatrix in="blurOut" result="blurOut2" type="matrix" values="0 0 0 0 0 0 0 0 0 0 0 0 0 0 0 0 0 0 .4 0"/><feOffset dx="4.0" dy="4.0" in="blurOut2" result="blurOut3"/><feBlend in="SourceGraphic" in2="blurOut3" mode="normal"/></filter></defs><g><!--MD5=[da610b1df703503d6f845e15deaa7585]
class org.eclipse.epf.uma.VariabilityType--><a href="VariabilityType.html" target="_top" title="VariabilityType.html" xlink:actuate="onRequest" xlink:href="VariabilityType.html" xlink:show="new" xlink:title="VariabilityType.html" xlink:type="simple"><rect codeLine="5" fill="#FEFECE" filter="url(#f1mlqx9i1xnpni)" height="346.7422" id="org.eclipse.epf.uma.VariabilityType" style="stroke: #A80036; stroke-width: 1.5;" width="199" x="7" y="157"/><ellipse cx="55.25" cy="177.0938" fill="#EB937F" rx="11" ry="11" style="stroke: #A80036; stroke-width: 1.0;"/><path d="M54.1094,177.8906 L54.1094,180.3906 L58.4375,180.3906 L58.4375,179.4688 Q58.4375,178.8594 58.6719,178.5938 Q58.9219,178.3281 59.2969,178.3281 Q59.6719,178.3281 59.9063,178.5938 Q60.1406,178.8594 60.1406,179.4688 L60.1406,182.0938 L52.1406,182.0938 Q51.5156,182.0938 51.25,181.8594 Q51,181.625 51,181.2344 Q51,180.8594 51.2656,180.625 Q51.5313,180.3906 52.1406,180.3906 L52.4063,180.3906 L52.4063,173.7344 L52.1406,173.7344 Q51.5156,173.7344 51.25,173.5 Q51,173.2656 51,172.875 Q51,172.5 51.25,172.2656 Q51.5156,172.0313 52.1406,172.0313 L59.7656,172.0313 L59.7656,174.625 Q59.7656,175.2344 59.5313,175.5 Q59.3125,175.75 58.9219,175.75 Q58.5469,175.75 58.3125,175.5 Q58.0781,175.2344 58.0781,174.625 L58.0781,173.7344 L54.1094,173.7344 L54.1094,176.1875 L55.5938,176.1875 Q55.5938,175.5313 55.7188,175.3438 Q55.9844,174.9375 56.4531,174.9375 Q56.8281,174.9375 57.0625,175.2031 Q57.2969,175.4531 57.2969,176.0625 L57.2969,178.0313 Q57.2969,178.5781 57.1719,178.7656 Q56.9063,179.1563 56.4531,179.1563 Q55.9844,179.1563 55.7188,178.75 Q55.5938,178.5625 55.5938,177.8906 L54.1094,177.8906 Z "/><text fill="#000000" font-family="sans-serif" font-size="14" lengthAdjust="spacingAndGlyphs" textLength="93" x="76.25" y="176.5332">VariabilityType</text><text fill="#000000" font-family="sans-serif" font-size="10" lengthAdjust="spacingAndGlyphs" textLength="94" x="75.75" y="189.9902">org.eclipse.epf.uma</text><line style="stroke: #A80036; stroke-width: 1.5;" x1="8" x2="205" y1="197.1875" y2="197.1875"/><ellipse cx="18" cy="208.1875" fill="none" rx="3" ry="3" style="stroke: #038048; stroke-width: 1.0;"/><text fill="#000000" font-family="sans-serif" font-size="11" lengthAdjust="spacingAndGlyphs" text-decoration="underline" textLength="15" x="27" y="212.6064">NA</text><ellipse cx="18" cy="222.0234" fill="none" rx="3" ry="3" style="stroke: #038048; stroke-width: 1.0;"/><text fill="#000000" font-family="sans-serif" font-size="11" lengthAdjust="spacingAndGlyphs" text-decoration="underline" textLength="70" x="27" y="226.4424">CONTRIBUTES</text><ellipse cx="18" cy="235.8594" fill="none" rx="3" ry="3" style="stroke: #038048; stroke-width: 1.0;"/><text fill="#000000" font-family="sans-serif" font-size="11" lengthAdjust="spacingAndGlyphs" text-decoration="underline" textLength="46" x="27" y="240.2783">EXTENDS</text><ellipse cx="18" cy="249.6953" fill="none" rx="3" ry="3" style="stroke: #038048; stroke-width: 1.0;"/><text fill="#000000" font-family="sans-serif" font-size="11" lengthAdjust="spacingAndGlyphs" text-decoration="underline" textLength="53" x="27" y="254.1143">REPLACES</text><ellipse cx="18" cy="263.5313" fill="none" rx="3" ry="3" style="stroke: #038048; stroke-width: 1.0;"/><text fill="#000000" font-family="sans-serif" font-size="11" lengthAdjust="spacingAndGlyphs" text-decoration="underline" textLength="115" x="27" y="267.9502">LOCAL_CONTRIBUTION</text><ellipse cx="18" cy="277.3672" fill="none" rx="3" ry="3" style="stroke: #038048; stroke-width: 1.0;"/><text fill="#000000" font-family="sans-serif" font-size="11" lengthAdjust="spacingAndGlyphs" text-decoration="underline" textLength="114" x="27" y="281.7861">LOCAL_REPLACEMENT</text><ellipse cx="18" cy="291.2031" fill="none" rx="3" ry="3" style="stroke: #038048; stroke-width: 1.0;"/><text fill="#000000" font-family="sans-serif" font-size="11" lengthAdjust="spacingAndGlyphs" text-decoration="underline" textLength="105" x="27" y="295.6221">EXTENDS_REPLACES</text><ellipse cx="18" cy="305.0391" fill="none" rx="3" ry="3" style="stroke: #038048; stroke-width: 1.0;"/><text fill="#000000" font-family="sans-serif" font-size="11" lengthAdjust="spacingAndGlyphs" text-decoration="underline" textLength="73" x="27" y="309.458">NA_VALUE: int</text><ellipse cx="18" cy="318.875" fill="none" rx="3" ry="3" style="stroke: #038048; stroke-width: 1.0;"/><text fill="#000000" font-family="sans-serif" font-size="11" lengthAdjust="spacingAndGlyphs" text-decoration="underline" textLength="128" x="27" y="323.2939">CONTRIBUTES_VALUE: int</text><ellipse cx="18" cy="332.7109" fill="none" rx="3" ry="3" style="stroke: #038048; stroke-width: 1.0;"/><text fill="#000000" font-family="sans-serif" font-size="11" lengthAdjust="spacingAndGlyphs" text-decoration="underline" textLength="104" x="27" y="337.1299">EXTENDS_VALUE: int</text><ellipse cx="18" cy="346.5469" fill="none" rx="3" ry="3" style="stroke: #038048; stroke-width: 1.0;"/><text fill="#000000" font-family="sans-serif" font-size="11" lengthAdjust="spacingAndGlyphs" text-decoration="underline" textLength="111" x="27" y="350.9658">REPLACES_VALUE: int</text><ellipse cx="18" cy="360.3828" fill="none" rx="3" ry="3" style="stroke: #038048; stroke-width: 1.0;"/><text fill="#000000" font-family="sans-serif" font-size="11" lengthAdjust="spacingAndGlyphs" text-decoration="underline" textLength="173" x="27" y="364.8018">LOCAL_CONTRIBUTION_VALUE: int</text><ellipse cx="18" cy="374.2188" fill="none" rx="3" ry="3" style="stroke: #038048; stroke-width: 1.0;"/><text fill="#000000" font-family="sans-serif" font-size="11" lengthAdjust="spacingAndGlyphs" text-decoration="underline" textLength="172" x="27" y="378.6377">LOCAL_REPLACEMENT_VALUE: int</text><ellipse cx="18" cy="388.0547" fill="none" rx="3" ry="3" style="stroke: #038048; stroke-width: 1.0;"/><text fill="#000000" font-family="sans-serif" font-size="11" lengthAdjust="spacingAndGlyphs" text-decoration="underline" textLength="163" x="27" y="392.4736">EXTENDS_REPLACES_VALUE: int</text><ellipse cx="18" cy="401.8906" fill="none" rx="3" ry="3" style="stroke: #038048; stroke-width: 1.0;"/><text fill="#000000" font-family="sans-serif" font-size="11" lengthAdjust="spacingAndGlyphs" text-decoration="underline" textLength="148" x="27" y="406.3096">VALUES: List&lt;VariabilityType&gt;</text><line style="stroke: #A80036; stroke-width: 1.5;" x1="8" x2="205" y1="412.7266" y2="412.7266"/><ellipse cx="18" cy="423.7266" fill="#84BE84" rx="3" ry="3" style="stroke: #038048; stroke-width: 1.0;"/><text fill="#000000" font-family="sans-serif" font-size="11" lengthAdjust="spacingAndGlyphs" text-decoration="underline" textLength="128" x="27" y="428.1455">get(String): VariabilityType</text><ellipse cx="18" cy="437.5625" fill="#84BE84" rx="3" ry="3" style="stroke: #038048; stroke-width: 1.0;"/><text fill="#000000" font-family="sans-serif" font-size="11" lengthAdjust="spacingAndGlyphs" text-decoration="underline" textLength="168" x="27" y="441.9814">getByName(String): VariabilityType</text><ellipse cx="18" cy="451.3984" fill="#84BE84" rx="3" ry="3" style="stroke: #038048; stroke-width: 1.0;"/><text fill="#000000" font-family="sans-serif" font-size="11" lengthAdjust="spacingAndGlyphs" text-decoration="underline" textLength="111" x="27" y="455.8174">get(int): VariabilityType</text><ellipse cx="18" cy="465.2344" fill="#84BE84" rx="3" ry="3" style="stroke: #038048; stroke-width: 1.0;"/><text fill="#000000" font-family="sans-serif" font-size="11" lengthAdjust="spacingAndGlyphs" textLength="68" x="27" y="469.6533">getValue(): int</text><ellipse cx="18" cy="479.0703" fill="#84BE84" rx="3" ry="3" style="stroke: #038048; stroke-width: 1.0;"/><text fill="#000000" font-family="sans-serif" font-size="11" lengthAdjust="spacingAndGlyphs" textLength="84" x="27" y="483.4893">getName(): String</text><ellipse cx="18" cy="492.9063" fill="#84BE84" rx="3" ry="3" style="stroke: #038048; stroke-width: 1.0;"/><text fill="#000000" font-family="sans-serif" font-size="11" lengthAdjust="spacingAndGlyphs" textLength="86" x="27" y="497.3252">getLiteral(): String</text></a><!--MD5=[b84d963bea1b24f78936f476c3a35b42]
class org.eclipse.emf.common.util.Enumerator--><rect codeLine="29" fill="#FEFECE" filter="url(#f1mlqx9i1xnpni)" height="89.6953" id="org.eclipse.emf.common.util.Enumerator" style="stroke: #A80036; stroke-width: 1.5;" width="161" x="26" y="7"/><ellipse cx="41" cy="27.0938" fill="#B4A7E5" rx="11" ry="11" style="stroke: #A80036; stroke-width: 1.0;"/><path d="M41.9531,23.7344 L41.9531,30.3906 L43.6719,30.3906 Q44.2813,30.3906 44.5469,30.625 Q44.8125,30.8594 44.8125,31.25 Q44.8125,31.625 44.5469,31.8594 Q44.2813,32.0938 43.6719,32.0938 L38.5313,32.0938 Q37.9219,32.0938 37.6563,31.8594 Q37.3906,31.625 37.3906,31.2344 Q37.3906,30.8594 37.6563,30.625 Q37.9219,30.3906 38.5313,30.3906 L40.25,30.3906 L40.25,23.7344 L38.5313,23.7344 Q37.9219,23.7344 37.6563,23.5 Q37.3906,23.2656 37.3906,22.875 Q37.3906,22.5 37.6563,22.2656 Q37.9219,22.0313 38.5313,22.0313 L43.6719,22.0313 Q44.2813,22.0313 44.5469,22.2656 Q44.8125,22.5 44.8125,22.875 Q44.8125,23.2656 44.5469,23.5 Q44.2813,23.7344 43.6719,23.7344 L41.9531,23.7344 Z "/><text fill="#000000" font-family="sans-serif" font-size="14" font-style="italic" lengthAdjust="spacingAndGlyphs" textLength="74" x="82.5" y="26.5332">Enumerator</text><text fill="#000000" font-family="sans-serif" font-size="10" font-style="italic" lengthAdjust="spacingAndGlyphs" textLength="129" x="55" y="39.9902">org.eclipse.emf.common.util</text><line style="stroke: #A80036; stroke-width: 1.5;" x1="27" x2="186" y1="47.1875" y2="47.1875"/><ellipse cx="37" cy="58.1875" fill="#84BE84" rx="3" ry="3" style="stroke: #038048; stroke-width: 1.0;"/><text fill="#000000" font-family="sans-serif" font-size="11" font-style="italic" lengthAdjust="spacingAndGlyphs" textLength="87" x="46" y="62.6064">getName(): String</text><ellipse cx="37" cy="72.0234" fill="#84BE84" rx="3" ry="3" style="stroke: #038048; stroke-width: 1.0;"/><text fill="#000000" font-family="sans-serif" font-size="11" font-style="italic" lengthAdjust="spacingAndGlyphs" textLength="69" x="46" y="76.4424">getValue(): int</text><ellipse cx="37" cy="85.8594" fill="#84BE84" rx="3" ry="3" style="stroke: #038048; stroke-width: 1.0;"/><text fill="#000000" font-family="sans-serif" font-size="11" font-style="italic" lengthAdjust="spacingAndGlyphs" textLength="89" x="46" y="90.2783">getLiteral(): String</text><!--MD5=[d6d55a395af21e9cb99ca42146c69fa6]
reverse link org.eclipse.emf.common.util.Enumerator to org.eclipse.epf.uma.VariabilityType--><path codeLine="35" d="M106.5,117.29 C106.5,129.58 106.5,142.98 106.5,156.88 " fill="none" id="org.eclipse.emf.common.util.Enumerator-backto-org.eclipse.epf.uma.VariabilityType" style="stroke: #A80036; stroke-width: 1.0; stroke-dasharray: 7.0,7.0;"/><polygon fill="none" points="99.5,117.12,106.5,97.12,113.5,117.12,99.5,117.12" style="stroke: #A80036; stroke-width: 1.0;"/><text fill="#888888" font-family="sans-serif" font-size="10" lengthAdjust="spacingAndGlyphs" textLength="190" x="8.5" y="527.123">UMLDoclet 2.0.12, PlantUML 1.2020.16</text><!--MD5=[d2d1bdf141da9fd8a4e8226de85d884f]
@startuml
    set namespaceSeparator none
    hide empty fields
    hide empty methods

    enum "<size:14>VariabilityType\n<size:10>org.eclipse.epf.uma" as org.eclipse.epf.uma.VariabilityType [[VariabilityType.html]] {
        {static} +NA
        {static} +CONTRIBUTES
        {static} +EXTENDS
        {static} +REPLACES
        {static} +LOCAL_CONTRIBUTION
        {static} +LOCAL_REPLACEMENT
        {static} +EXTENDS_REPLACES
        {static} +NA_VALUE: int
        {static} +CONTRIBUTES_VALUE: int
        {static} +EXTENDS_VALUE: int
        {static} +REPLACES_VALUE: int
        {static} +LOCAL_CONTRIBUTION_VALUE: int
        {static} +LOCAL_REPLACEMENT_VALUE: int
        {static} +EXTENDS_REPLACES_VALUE: int
        {static} +VALUES: List<VariabilityType>
        {static} +get(String): VariabilityType
        {static} +getByName(String): VariabilityType
        {static} +get(int): VariabilityType
        +getValue(): int
        +getName(): String
        +getLiteral(): String
    }

    interface "<size:14>Enumerator\n<size:10>org.eclipse.emf.common.util" as org.eclipse.emf.common.util.Enumerator {
        {abstract} +getName(): String
        {abstract} +getValue(): int
        {abstract} +getLiteral(): String
    }

    org.eclipse.emf.common.util.Enumerator <|.. org.eclipse.epf.uma.VariabilityType

    center footer UMLDoclet 2.0.12, PlantUML 1.2020.16
@enduml

PlantUML version 1.2020.16(Sun Aug 23 22:20:43 CEST 2020)
(APACHE source distribution)
Java Runtime: Java(TM) SE Runtime Environment
JVM: Java HotSpot(TM) 64-Bit Server VM
Default Encoding: Cp1252
Language: es
Country: ES
--></g></svg>