<?xml version="1.0" encoding="UTF-8" standalone="no"?><svg xmlns="http://www.w3.org/2000/svg" xmlns:xlink="http://www.w3.org/1999/xlink" contentScriptType="application/ecmascript" contentStyleType="text/css" height="394px" preserveAspectRatio="none" style="width:318px;height:394px;" version="1.1" viewBox="0 0 318 394" width="318px" zoomAndPan="magnify"><defs><filter height="300%" id="f47akvgfwl0ok" width="300%" x="-1" y="-1"><feGaussianBlur result="blurOut" stdDeviation="2.0"/><feColorMatrix in="blurOut" result="blurOut2" type="matrix" values="0 0 0 0 0 0 0 0 0 0 0 0 0 0 0 0 0 0 .4 0"/><feOffset dx="4.0" dy="4.0" in="blurOut2" result="blurOut3"/><feBlend in="SourceGraphic" in2="blurOut3" mode="normal"/></filter></defs><g><!--MD5=[d904302649b893251f2d7a8b80baa00b]
class org.eclipse.epf.uma.WorkProductDescriptor--><a href="WorkProductDescriptor.html" target="_top" title="WorkProductDescriptor.html" xlink:actuate="onRequest" xlink:href="WorkProductDescriptor.html" xlink:show="new" xlink:title="WorkProductDescriptor.html" xlink:type="simple"><rect codeLine="5" fill="#FEFECE" filter="url(#f47akvgfwl0ok)" height="186.5469" id="org.eclipse.epf.uma.WorkProductDescriptor" style="stroke: #A80036; stroke-width: 1.5;" width="292" x="7" y="171"/><ellipse cx="74.25" cy="191.0938" fill="#B4A7E5" rx="11" ry="11" style="stroke: #A80036; stroke-width: 1.0;"/><path d="M75.2031,187.7344 L75.2031,194.3906 L76.9219,194.3906 Q77.5313,194.3906 77.7969,194.625 Q78.0625,194.8594 78.0625,195.25 Q78.0625,195.625 77.7969,195.8594 Q77.5313,196.0938 76.9219,196.0938 L71.7813,196.0938 Q71.1719,196.0938 70.9063,195.8594 Q70.6406,195.625 70.6406,195.2344 Q70.6406,194.8594 70.9063,194.625 Q71.1719,194.3906 71.7813,194.3906 L73.5,194.3906 L73.5,187.7344 L71.7813,187.7344 Q71.1719,187.7344 70.9063,187.5 Q70.6406,187.2656 70.6406,186.875 Q70.6406,186.5 70.9063,186.2656 Q71.1719,186.0313 71.7813,186.0313 L76.9219,186.0313 Q77.5313,186.0313 77.7969,186.2656 Q78.0625,186.5 78.0625,186.875 Q78.0625,187.2656 77.7969,187.5 Q77.5313,187.7344 76.9219,187.7344 L75.2031,187.7344 Z "/><text fill="#000000" font-family="sans-serif" font-size="14" font-style="italic" lengthAdjust="spacingAndGlyphs" textLength="149" x="94.75" y="190.5332">WorkProductDescriptor</text><text fill="#000000" font-family="sans-serif" font-size="10" font-style="italic" lengthAdjust="spacingAndGlyphs" textLength="92" x="123.25" y="203.9902">org.eclipse.epf.uma</text><line style="stroke: #A80036; stroke-width: 1.5;" x1="8" x2="298" y1="211.1875" y2="211.1875"/><ellipse cx="18" cy="222.1875" fill="#84BE84" rx="3" ry="3" style="stroke: #038048; stroke-width: 1.0;"/><text fill="#000000" font-family="sans-serif" font-size="11" font-style="italic" lengthAdjust="spacingAndGlyphs" textLength="143" x="27" y="226.6064">getActivityEntryState(): String</text><ellipse cx="18" cy="236.0234" fill="#84BE84" rx="3" ry="3" style="stroke: #038048; stroke-width: 1.0;"/><text fill="#000000" font-family="sans-serif" font-size="11" font-style="italic" lengthAdjust="spacingAndGlyphs" textLength="163" x="27" y="240.4424">setActivityEntryState(String): void</text><ellipse cx="18" cy="249.8594" fill="#84BE84" rx="3" ry="3" style="stroke: #038048; stroke-width: 1.0;"/><text fill="#000000" font-family="sans-serif" font-size="11" font-style="italic" lengthAdjust="spacingAndGlyphs" textLength="137" x="27" y="254.2783">getActivityExitState(): String</text><ellipse cx="18" cy="263.6953" fill="#84BE84" rx="3" ry="3" style="stroke: #038048; stroke-width: 1.0;"/><text fill="#000000" font-family="sans-serif" font-size="11" font-style="italic" lengthAdjust="spacingAndGlyphs" textLength="157" x="27" y="268.1143">setActivityExitState(String): void</text><ellipse cx="18" cy="277.5313" fill="#84BE84" rx="3" ry="3" style="stroke: #038048; stroke-width: 1.0;"/><text fill="#000000" font-family="sans-serif" font-size="11" font-style="italic" lengthAdjust="spacingAndGlyphs" textLength="159" x="27" y="281.9502">getWorkProduct(): WorkProduct</text><ellipse cx="18" cy="291.3672" fill="#84BE84" rx="3" ry="3" style="stroke: #038048; stroke-width: 1.0;"/><text fill="#000000" font-family="sans-serif" font-size="11" font-style="italic" lengthAdjust="spacingAndGlyphs" textLength="179" x="27" y="295.7861">setWorkProduct(WorkProduct): void</text><ellipse cx="18" cy="305.2031" fill="#84BE84" rx="3" ry="3" style="stroke: #038048; stroke-width: 1.0;"/><text fill="#000000" font-family="sans-serif" font-size="11" font-style="italic" lengthAdjust="spacingAndGlyphs" textLength="240" x="27" y="309.6221">getImpactedBy(): EList&lt;WorkProductDescriptor&gt;</text><ellipse cx="18" cy="319.0391" fill="#84BE84" rx="3" ry="3" style="stroke: #038048; stroke-width: 1.0;"/><text fill="#000000" font-family="sans-serif" font-size="11" font-style="italic" lengthAdjust="spacingAndGlyphs" textLength="222" x="27" y="323.458">getImpacts(): EList&lt;WorkProductDescriptor&gt;</text><ellipse cx="18" cy="332.875" fill="#84BE84" rx="3" ry="3" style="stroke: #038048; stroke-width: 1.0;"/><text fill="#000000" font-family="sans-serif" font-size="11" font-style="italic" lengthAdjust="spacingAndGlyphs" textLength="266" x="27" y="337.2939">getDeliverableParts(): EList&lt;WorkProductDescriptor&gt;</text><ellipse cx="18" cy="346.7109" fill="#84BE84" rx="3" ry="3" style="stroke: #038048; stroke-width: 1.0;"/><text fill="#000000" font-family="sans-serif" font-size="11" font-style="italic" lengthAdjust="spacingAndGlyphs" textLength="254" x="27" y="351.1299">getDeliverablePartsExclude(): EList&lt;WorkProduct&gt;</text></a><!--MD5=[e2aea4f57378d8bf0d95e9671773c115]
class org.eclipse.epf.uma.Descriptor--><a href="Descriptor.html" target="_top" title="Descriptor.html" xlink:actuate="onRequest" xlink:href="Descriptor.html" xlink:show="new" xlink:title="Descriptor.html" xlink:type="simple"><rect codeLine="18" fill="#FEFECE" filter="url(#f47akvgfwl0ok)" height="103.5313" id="org.eclipse.epf.uma.Descriptor" style="stroke: #A80036; stroke-width: 1.5;" width="249" x="28.5" y="7"/><ellipse cx="102.75" cy="27.0938" fill="#B4A7E5" rx="11" ry="11" style="stroke: #A80036; stroke-width: 1.0;"/><path d="M103.7031,23.7344 L103.7031,30.3906 L105.4219,30.3906 Q106.0313,30.3906 106.2969,30.625 Q106.5625,30.8594 106.5625,31.25 Q106.5625,31.625 106.2969,31.8594 Q106.0313,32.0938 105.4219,32.0938 L100.2813,32.0938 Q99.6719,32.0938 99.4063,31.8594 Q99.1406,31.625 99.1406,31.2344 Q99.1406,30.8594 99.4063,30.625 Q99.6719,30.3906 100.2813,30.3906 L102,30.3906 L102,23.7344 L100.2813,23.7344 Q99.6719,23.7344 99.4063,23.5 Q99.1406,23.2656 99.1406,22.875 Q99.1406,22.5 99.4063,22.2656 Q99.6719,22.0313 100.2813,22.0313 L105.4219,22.0313 Q106.0313,22.0313 106.2969,22.2656 Q106.5625,22.5 106.5625,22.875 Q106.5625,23.2656 106.2969,23.5 Q106.0313,23.7344 105.4219,23.7344 L103.7031,23.7344 Z "/><text fill="#000000" font-family="sans-serif" font-size="14" font-style="italic" lengthAdjust="spacingAndGlyphs" textLength="65" x="136.75" y="26.5332">Descriptor</text><text fill="#000000" font-family="sans-serif" font-size="10" font-style="italic" lengthAdjust="spacingAndGlyphs" textLength="92" x="123.25" y="39.9902">org.eclipse.epf.uma</text><line style="stroke: #A80036; stroke-width: 1.5;" x1="29.5" x2="276.5" y1="47.1875" y2="47.1875"/><ellipse cx="39.5" cy="58.1875" fill="#84BE84" rx="3" ry="3" style="stroke: #038048; stroke-width: 1.0;"/><text fill="#000000" font-family="sans-serif" font-size="11" font-style="italic" lengthAdjust="spacingAndGlyphs" textLength="203" x="48.5" y="62.6064">getIsSynchronizedWithSource(): Boolean</text><ellipse cx="39.5" cy="72.0234" fill="#84BE84" rx="3" ry="3" style="stroke: #038048; stroke-width: 1.0;"/><text fill="#000000" font-family="sans-serif" font-size="11" font-style="italic" lengthAdjust="spacingAndGlyphs" textLength="223" x="48.5" y="76.4424">setIsSynchronizedWithSource(Boolean): void</text><ellipse cx="39.5" cy="85.8594" fill="#84BE84" rx="3" ry="3" style="stroke: #038048; stroke-width: 1.0;"/><text fill="#000000" font-family="sans-serif" font-size="11" font-style="italic" lengthAdjust="spacingAndGlyphs" textLength="202" x="48.5" y="90.2783">getGuidanceExclude(): EList&lt;Guidance&gt;</text><ellipse cx="39.5" cy="99.6953" fill="#84BE84" rx="3" ry="3" style="stroke: #038048; stroke-width: 1.0;"/><text fill="#000000" font-family="sans-serif" font-size="11" font-style="italic" lengthAdjust="spacingAndGlyphs" textLength="211" x="48.5" y="104.1143">getGuidanceAdditional(): EList&lt;Guidance&gt;</text></a><!--MD5=[c1a04c7c2b14e367f4904a2208e10757]
reverse link org.eclipse.epf.uma.Descriptor to org.eclipse.epf.uma.WorkProductDescriptor--><path codeLine="25" d="M153,131.13 C153,143.93 153,157.45 153,170.75 " fill="none" id="org.eclipse.epf.uma.Descriptor-backto-org.eclipse.epf.uma.WorkProductDescriptor" style="stroke: #A80036; stroke-width: 1.0;"/><polygon fill="none" points="146,131.09,153,111.09,160,131.09,146,131.09" style="stroke: #A80036; stroke-width: 1.0;"/><text fill="#888888" font-family="sans-serif" font-size="10" lengthAdjust="spacingAndGlyphs" textLength="190" x="55" y="380.9277">UMLDoclet 2.0.12, PlantUML 1.2020.16</text><!--MD5=[101f26a91c8b77276d84b0099d296f50]
@startuml
    set namespaceSeparator none
    hide empty fields
    hide empty methods

    interface "<size:14>WorkProductDescriptor\n<size:10>org.eclipse.epf.uma" as org.eclipse.epf.uma.WorkProductDescriptor [[WorkProductDescriptor.html]] {
        {abstract} +getActivityEntryState(): String
        {abstract} +setActivityEntryState(String): void
        {abstract} +getActivityExitState(): String
        {abstract} +setActivityExitState(String): void
        {abstract} +getWorkProduct(): WorkProduct
        {abstract} +setWorkProduct(WorkProduct): void
        {abstract} +getImpactedBy(): EList<WorkProductDescriptor>
        {abstract} +getImpacts(): EList<WorkProductDescriptor>
        {abstract} +getDeliverableParts(): EList<WorkProductDescriptor>
        {abstract} +getDeliverablePartsExclude(): EList<WorkProduct>
    }

    interface "<size:14>Descriptor\n<size:10>org.eclipse.epf.uma" as org.eclipse.epf.uma.Descriptor [[Descriptor.html]] {
        {abstract} +getIsSynchronizedWithSource(): Boolean
        {abstract} +setIsSynchronizedWithSource(Boolean): void
        {abstract} +getGuidanceExclude(): EList<Guidance>
        {abstract} +getGuidanceAdditional(): EList<Guidance>
    }

    org.eclipse.epf.uma.Descriptor <|- - org.eclipse.epf.uma.WorkProductDescriptor

    center footer UMLDoclet 2.0.12, PlantUML 1.2020.16
@enduml

PlantUML version 1.2020.16(Sun Aug 23 22:20:43 CEST 2020)
(APACHE source distribution)
Java Runtime: Java(TM) SE Runtime Environment
JVM: Java HotSpot(TM) 64-Bit Server VM
Default Encoding: Cp1252
Language: es
Country: ES
--></g></svg>