<?xml version="1.0" encoding="UTF-8" standalone="no"?><svg xmlns="http://www.w3.org/2000/svg" xmlns:xlink="http://www.w3.org/1999/xlink" contentScriptType="application/ecmascript" contentStyleType="text/css" height="457px" preserveAspectRatio="none" style="width:226px;height:457px;" version="1.1" viewBox="0 0 226 457" width="226px" zoomAndPan="magnify"><defs><filter height="300%" id="f9r4pego6acgd" width="300%" x="-1" y="-1"><feGaussianBlur result="blurOut" stdDeviation="2.0"/><feColorMatrix in="blurOut" result="blurOut2" type="matrix" values="0 0 0 0 0 0 0 0 0 0 0 0 0 0 0 0 0 0 .4 0"/><feOffset dx="4.0" dy="4.0" in="blurOut2" result="blurOut3"/><feBlend in="SourceGraphic" in2="blurOut3" mode="normal"/></filter></defs><g><!--MD5=[17698a3f55d4363064753e2293c0edbe]
class org.eclipse.epf.uma.WorkOrderType--><a href="WorkOrderType.html" target="_top" title="WorkOrderType.html" xlink:actuate="onRequest" xlink:href="WorkOrderType.html" xlink:show="new" xlink:title="WorkOrderType.html" xlink:type="simple"><rect codeLine="5" fill="#FEFECE" filter="url(#f9r4pego6acgd)" height="263.7266" id="org.eclipse.epf.uma.WorkOrderType" style="stroke: #A80036; stroke-width: 1.5;" width="200" x="7" y="157"/><ellipse cx="51.75" cy="177.0938" fill="#EB937F" rx="11" ry="11" style="stroke: #A80036; stroke-width: 1.0;"/><path d="M50.6094,177.8906 L50.6094,180.3906 L54.9375,180.3906 L54.9375,179.4688 Q54.9375,178.8594 55.1719,178.5938 Q55.4219,178.3281 55.7969,178.3281 Q56.1719,178.3281 56.4063,178.5938 Q56.6406,178.8594 56.6406,179.4688 L56.6406,182.0938 L48.6406,182.0938 Q48.0156,182.0938 47.75,181.8594 Q47.5,181.625 47.5,181.2344 Q47.5,180.8594 47.7656,180.625 Q48.0313,180.3906 48.6406,180.3906 L48.9063,180.3906 L48.9063,173.7344 L48.6406,173.7344 Q48.0156,173.7344 47.75,173.5 Q47.5,173.2656 47.5,172.875 Q47.5,172.5 47.75,172.2656 Q48.0156,172.0313 48.6406,172.0313 L56.2656,172.0313 L56.2656,174.625 Q56.2656,175.2344 56.0313,175.5 Q55.8125,175.75 55.4219,175.75 Q55.0469,175.75 54.8125,175.5 Q54.5781,175.2344 54.5781,174.625 L54.5781,173.7344 L50.6094,173.7344 L50.6094,176.1875 L52.0938,176.1875 Q52.0938,175.5313 52.2188,175.3438 Q52.4844,174.9375 52.9531,174.9375 Q53.3281,174.9375 53.5625,175.2031 Q53.7969,175.4531 53.7969,176.0625 L53.7969,178.0313 Q53.7969,178.5781 53.6719,178.7656 Q53.4063,179.1563 52.9531,179.1563 Q52.4844,179.1563 52.2188,178.75 Q52.0938,178.5625 52.0938,177.8906 L50.6094,177.8906 Z "/><text fill="#000000" font-family="sans-serif" font-size="14" lengthAdjust="spacingAndGlyphs" textLength="102" x="72.25" y="176.5332">WorkOrderType</text><text fill="#000000" font-family="sans-serif" font-size="10" lengthAdjust="spacingAndGlyphs" textLength="94" x="76.25" y="189.9902">org.eclipse.epf.uma</text><line style="stroke: #A80036; stroke-width: 1.5;" x1="8" x2="206" y1="197.1875" y2="197.1875"/><ellipse cx="18" cy="208.1875" fill="none" rx="3" ry="3" style="stroke: #038048; stroke-width: 1.0;"/><text fill="#000000" font-family="sans-serif" font-size="11" lengthAdjust="spacingAndGlyphs" text-decoration="underline" textLength="91" x="27" y="212.6064">FINISH_TO_START</text><ellipse cx="18" cy="222.0234" fill="none" rx="3" ry="3" style="stroke: #038048; stroke-width: 1.0;"/><text fill="#000000" font-family="sans-serif" font-size="11" lengthAdjust="spacingAndGlyphs" text-decoration="underline" textLength="88" x="27" y="226.4424">FINISH_TO_FINISH</text><ellipse cx="18" cy="235.8594" fill="none" rx="3" ry="3" style="stroke: #038048; stroke-width: 1.0;"/><text fill="#000000" font-family="sans-serif" font-size="11" lengthAdjust="spacingAndGlyphs" text-decoration="underline" textLength="94" x="27" y="240.2783">START_TO_START</text><ellipse cx="18" cy="249.6953" fill="none" rx="3" ry="3" style="stroke: #038048; stroke-width: 1.0;"/><text fill="#000000" font-family="sans-serif" font-size="11" lengthAdjust="spacingAndGlyphs" text-decoration="underline" textLength="91" x="27" y="254.1143">START_TO_FINISH</text><ellipse cx="18" cy="263.5313" fill="none" rx="3" ry="3" style="stroke: #038048; stroke-width: 1.0;"/><text fill="#000000" font-family="sans-serif" font-size="11" lengthAdjust="spacingAndGlyphs" text-decoration="underline" textLength="149" x="27" y="267.9502">FINISH_TO_START_VALUE: int</text><ellipse cx="18" cy="277.3672" fill="none" rx="3" ry="3" style="stroke: #038048; stroke-width: 1.0;"/><text fill="#000000" font-family="sans-serif" font-size="11" lengthAdjust="spacingAndGlyphs" text-decoration="underline" textLength="146" x="27" y="281.7861">FINISH_TO_FINISH_VALUE: int</text><ellipse cx="18" cy="291.2031" fill="none" rx="3" ry="3" style="stroke: #038048; stroke-width: 1.0;"/><text fill="#000000" font-family="sans-serif" font-size="11" lengthAdjust="spacingAndGlyphs" text-decoration="underline" textLength="152" x="27" y="295.6221">START_TO_START_VALUE: int</text><ellipse cx="18" cy="305.0391" fill="none" rx="3" ry="3" style="stroke: #038048; stroke-width: 1.0;"/><text fill="#000000" font-family="sans-serif" font-size="11" lengthAdjust="spacingAndGlyphs" text-decoration="underline" textLength="149" x="27" y="309.458">START_TO_FINISH_VALUE: int</text><ellipse cx="18" cy="318.875" fill="none" rx="3" ry="3" style="stroke: #038048; stroke-width: 1.0;"/><text fill="#000000" font-family="sans-serif" font-size="11" lengthAdjust="spacingAndGlyphs" text-decoration="underline" textLength="154" x="27" y="323.2939">VALUES: List&lt;WorkOrderType&gt;</text><line style="stroke: #A80036; stroke-width: 1.5;" x1="8" x2="206" y1="329.7109" y2="329.7109"/><ellipse cx="18" cy="340.7109" fill="#84BE84" rx="3" ry="3" style="stroke: #038048; stroke-width: 1.0;"/><text fill="#000000" font-family="sans-serif" font-size="11" lengthAdjust="spacingAndGlyphs" text-decoration="underline" textLength="134" x="27" y="345.1299">get(String): WorkOrderType</text><ellipse cx="18" cy="354.5469" fill="#84BE84" rx="3" ry="3" style="stroke: #038048; stroke-width: 1.0;"/><text fill="#000000" font-family="sans-serif" font-size="11" lengthAdjust="spacingAndGlyphs" text-decoration="underline" textLength="174" x="27" y="358.9658">getByName(String): WorkOrderType</text><ellipse cx="18" cy="368.3828" fill="#84BE84" rx="3" ry="3" style="stroke: #038048; stroke-width: 1.0;"/><text fill="#000000" font-family="sans-serif" font-size="11" lengthAdjust="spacingAndGlyphs" text-decoration="underline" textLength="117" x="27" y="372.8018">get(int): WorkOrderType</text><ellipse cx="18" cy="382.2188" fill="#84BE84" rx="3" ry="3" style="stroke: #038048; stroke-width: 1.0;"/><text fill="#000000" font-family="sans-serif" font-size="11" lengthAdjust="spacingAndGlyphs" textLength="68" x="27" y="386.6377">getValue(): int</text><ellipse cx="18" cy="396.0547" fill="#84BE84" rx="3" ry="3" style="stroke: #038048; stroke-width: 1.0;"/><text fill="#000000" font-family="sans-serif" font-size="11" lengthAdjust="spacingAndGlyphs" textLength="84" x="27" y="400.4736">getName(): String</text><ellipse cx="18" cy="409.8906" fill="#84BE84" rx="3" ry="3" style="stroke: #038048; stroke-width: 1.0;"/><text fill="#000000" font-family="sans-serif" font-size="11" lengthAdjust="spacingAndGlyphs" textLength="86" x="27" y="414.3096">getLiteral(): String</text></a><!--MD5=[b84d963bea1b24f78936f476c3a35b42]
class org.eclipse.emf.common.util.Enumerator--><rect codeLine="23" fill="#FEFECE" filter="url(#f9r4pego6acgd)" height="89.6953" id="org.eclipse.emf.common.util.Enumerator" style="stroke: #A80036; stroke-width: 1.5;" width="161" x="26.5" y="7"/><ellipse cx="41.5" cy="27.0938" fill="#B4A7E5" rx="11" ry="11" style="stroke: #A80036; stroke-width: 1.0;"/><path d="M42.4531,23.7344 L42.4531,30.3906 L44.1719,30.3906 Q44.7813,30.3906 45.0469,30.625 Q45.3125,30.8594 45.3125,31.25 Q45.3125,31.625 45.0469,31.8594 Q44.7813,32.0938 44.1719,32.0938 L39.0313,32.0938 Q38.4219,32.0938 38.1563,31.8594 Q37.8906,31.625 37.8906,31.2344 Q37.8906,30.8594 38.1563,30.625 Q38.4219,30.3906 39.0313,30.3906 L40.75,30.3906 L40.75,23.7344 L39.0313,23.7344 Q38.4219,23.7344 38.1563,23.5 Q37.8906,23.2656 37.8906,22.875 Q37.8906,22.5 38.1563,22.2656 Q38.4219,22.0313 39.0313,22.0313 L44.1719,22.0313 Q44.7813,22.0313 45.0469,22.2656 Q45.3125,22.5 45.3125,22.875 Q45.3125,23.2656 45.0469,23.5 Q44.7813,23.7344 44.1719,23.7344 L42.4531,23.7344 Z "/><text fill="#000000" font-family="sans-serif" font-size="14" font-style="italic" lengthAdjust="spacingAndGlyphs" textLength="74" x="83" y="26.5332">Enumerator</text><text fill="#000000" font-family="sans-serif" font-size="10" font-style="italic" lengthAdjust="spacingAndGlyphs" textLength="129" x="55.5" y="39.9902">org.eclipse.emf.common.util</text><line style="stroke: #A80036; stroke-width: 1.5;" x1="27.5" x2="186.5" y1="47.1875" y2="47.1875"/><ellipse cx="37.5" cy="58.1875" fill="#84BE84" rx="3" ry="3" style="stroke: #038048; stroke-width: 1.0;"/><text fill="#000000" font-family="sans-serif" font-size="11" font-style="italic" lengthAdjust="spacingAndGlyphs" textLength="87" x="46.5" y="62.6064">getName(): String</text><ellipse cx="37.5" cy="72.0234" fill="#84BE84" rx="3" ry="3" style="stroke: #038048; stroke-width: 1.0;"/><text fill="#000000" font-family="sans-serif" font-size="11" font-style="italic" lengthAdjust="spacingAndGlyphs" textLength="69" x="46.5" y="76.4424">getValue(): int</text><ellipse cx="37.5" cy="85.8594" fill="#84BE84" rx="3" ry="3" style="stroke: #038048; stroke-width: 1.0;"/><text fill="#000000" font-family="sans-serif" font-size="11" font-style="italic" lengthAdjust="spacingAndGlyphs" textLength="89" x="46.5" y="90.2783">getLiteral(): String</text><!--MD5=[fdb9c904944935b18b6e611594cd3303]
reverse link org.eclipse.emf.common.util.Enumerator to org.eclipse.epf.uma.WorkOrderType--><path codeLine="29" d="M107,117.52 C107,129.85 107,143.16 107,156.72 " fill="none" id="org.eclipse.emf.common.util.Enumerator-backto-org.eclipse.epf.uma.WorkOrderType" style="stroke: #A80036; stroke-width: 1.0; stroke-dasharray: 7.0,7.0;"/><polygon fill="none" points="100,117.2,107,97.2,114,117.2,100,117.2" style="stroke: #A80036; stroke-width: 1.0;"/><text fill="#888888" font-family="sans-serif" font-size="10" lengthAdjust="spacingAndGlyphs" textLength="190" x="9" y="444.1074">UMLDoclet 2.0.12, PlantUML 1.2020.16</text><!--MD5=[36ce8ee53ccc6a0c775b3fca5ddf8a0a]
@startuml
    set namespaceSeparator none
    hide empty fields
    hide empty methods

    enum "<size:14>WorkOrderType\n<size:10>org.eclipse.epf.uma" as org.eclipse.epf.uma.WorkOrderType [[WorkOrderType.html]] {
        {static} +FINISH_TO_START
        {static} +FINISH_TO_FINISH
        {static} +START_TO_START
        {static} +START_TO_FINISH
        {static} +FINISH_TO_START_VALUE: int
        {static} +FINISH_TO_FINISH_VALUE: int
        {static} +START_TO_START_VALUE: int
        {static} +START_TO_FINISH_VALUE: int
        {static} +VALUES: List<WorkOrderType>
        {static} +get(String): WorkOrderType
        {static} +getByName(String): WorkOrderType
        {static} +get(int): WorkOrderType
        +getValue(): int
        +getName(): String
        +getLiteral(): String
    }

    interface "<size:14>Enumerator\n<size:10>org.eclipse.emf.common.util" as org.eclipse.emf.common.util.Enumerator {
        {abstract} +getName(): String
        {abstract} +getValue(): int
        {abstract} +getLiteral(): String
    }

    org.eclipse.emf.common.util.Enumerator <|.. org.eclipse.epf.uma.WorkOrderType

    center footer UMLDoclet 2.0.12, PlantUML 1.2020.16
@enduml

PlantUML version 1.2020.16(Sun Aug 23 22:20:43 CEST 2020)
(APACHE source distribution)
Java Runtime: Java(TM) SE Runtime Environment
JVM: Java HotSpot(TM) 64-Bit Server VM
Default Encoding: Cp1252
Language: es
Country: ES
--></g></svg>