<?xml version="1.0" encoding="UTF-8" standalone="no"?><svg xmlns="http://www.w3.org/2000/svg" xmlns:xlink="http://www.w3.org/1999/xlink" contentScriptType="application/ecmascript" contentStyleType="text/css" height="408px" preserveAspectRatio="none" style="width:249px;height:408px;" version="1.1" viewBox="0 0 249 408" width="249px" zoomAndPan="magnify"><defs><filter height="300%" id="fn6tw4m05cxnk" width="300%" x="-1" y="-1"><feGaussianBlur result="blurOut" stdDeviation="2.0"/><feColorMatrix in="blurOut" result="blurOut2" type="matrix" values="0 0 0 0 0 0 0 0 0 0 0 0 0 0 0 0 0 0 .4 0"/><feOffset dx="4.0" dy="4.0" in="blurOut2" result="blurOut3"/><feBlend in="SourceGraphic" in2="blurOut3" mode="normal"/></filter></defs><g><!--MD5=[35ce8d4e8138c1db7930018eea7bfc8d]
class org.eclipse.epf.uma.WorkProductDescription--><a href="WorkProductDescription.html" target="_top" title="WorkProductDescription.html" xlink:actuate="onRequest" xlink:href="WorkProductDescription.html" xlink:show="new" xlink:title="WorkProductDescription.html" xlink:type="simple"><rect codeLine="5" fill="#FEFECE" filter="url(#fn6tw4m05cxnk)" height="131.2031" id="org.eclipse.epf.uma.WorkProductDescription" style="stroke: #A80036; stroke-width: 1.5;" width="223" x="7" y="240"/><ellipse cx="38.2" cy="260.0938" fill="#B4A7E5" rx="11" ry="11" style="stroke: #A80036; stroke-width: 1.0;"/><path d="M39.1531,256.7344 L39.1531,263.3906 L40.8719,263.3906 Q41.4813,263.3906 41.7469,263.625 Q42.0125,263.8594 42.0125,264.25 Q42.0125,264.625 41.7469,264.8594 Q41.4813,265.0938 40.8719,265.0938 L35.7313,265.0938 Q35.1219,265.0938 34.8563,264.8594 Q34.5906,264.625 34.5906,264.2344 Q34.5906,263.8594 34.8563,263.625 Q35.1219,263.3906 35.7313,263.3906 L37.45,263.3906 L37.45,256.7344 L35.7313,256.7344 Q35.1219,256.7344 34.8563,256.5 Q34.5906,256.2656 34.5906,255.875 Q34.5906,255.5 34.8563,255.2656 Q35.1219,255.0313 35.7313,255.0313 L40.8719,255.0313 Q41.4813,255.0313 41.7469,255.2656 Q42.0125,255.5 42.0125,255.875 Q42.0125,256.2656 41.7469,256.5 Q41.4813,256.7344 40.8719,256.7344 L39.1531,256.7344 Z "/><text fill="#000000" font-family="sans-serif" font-size="14" font-style="italic" lengthAdjust="spacingAndGlyphs" textLength="155" x="55.8" y="259.5332">WorkProductDescription</text><text fill="#000000" font-family="sans-serif" font-size="10" font-style="italic" lengthAdjust="spacingAndGlyphs" textLength="92" x="87.3" y="272.9902">org.eclipse.epf.uma</text><line style="stroke: #A80036; stroke-width: 1.5;" x1="8" x2="229" y1="280.1875" y2="280.1875"/><ellipse cx="18" cy="291.1875" fill="#84BE84" rx="3" ry="3" style="stroke: #038048; stroke-width: 1.0;"/><text fill="#000000" font-family="sans-serif" font-size="11" font-style="italic" lengthAdjust="spacingAndGlyphs" textLength="99" x="27" y="295.6064">getPurpose(): String</text><ellipse cx="18" cy="305.0234" fill="#84BE84" rx="3" ry="3" style="stroke: #038048; stroke-width: 1.0;"/><text fill="#000000" font-family="sans-serif" font-size="11" font-style="italic" lengthAdjust="spacingAndGlyphs" textLength="119" x="27" y="309.4424">setPurpose(String): void</text><ellipse cx="18" cy="318.8594" fill="#84BE84" rx="3" ry="3" style="stroke: #038048; stroke-width: 1.0;"/><text fill="#000000" font-family="sans-serif" font-size="11" font-style="italic" lengthAdjust="spacingAndGlyphs" textLength="154" x="27" y="323.2783">getImpactOfNotHaving(): String</text><ellipse cx="18" cy="332.6953" fill="#84BE84" rx="3" ry="3" style="stroke: #038048; stroke-width: 1.0;"/><text fill="#000000" font-family="sans-serif" font-size="11" font-style="italic" lengthAdjust="spacingAndGlyphs" textLength="174" x="27" y="337.1143">setImpactOfNotHaving(String): void</text><ellipse cx="18" cy="346.5313" fill="#84BE84" rx="3" ry="3" style="stroke: #038048; stroke-width: 1.0;"/><text fill="#000000" font-family="sans-serif" font-size="11" font-style="italic" lengthAdjust="spacingAndGlyphs" textLength="177" x="27" y="350.9502">getReasonsForNotNeeding(): String</text><ellipse cx="18" cy="360.3672" fill="#84BE84" rx="3" ry="3" style="stroke: #038048; stroke-width: 1.0;"/><text fill="#000000" font-family="sans-serif" font-size="11" font-style="italic" lengthAdjust="spacingAndGlyphs" textLength="197" x="27" y="364.7861">setReasonsForNotNeeding(String): void</text></a><!--MD5=[ac89fbf343ff51a3f64fb8f81ee032c9]
class org.eclipse.epf.uma.ContentDescription--><a href="ContentDescription.html" target="_top" title="ContentDescription.html" xlink:actuate="onRequest" xlink:href="ContentDescription.html" xlink:show="new" xlink:title="ContentDescription.html" xlink:type="simple"><rect codeLine="14" fill="#FEFECE" filter="url(#fn6tw4m05cxnk)" height="172.7109" id="org.eclipse.epf.uma.ContentDescription" style="stroke: #A80036; stroke-width: 1.5;" width="219" x="9" y="7"/><ellipse cx="53.75" cy="27.0938" fill="#B4A7E5" rx="11" ry="11" style="stroke: #A80036; stroke-width: 1.0;"/><path d="M54.7031,23.7344 L54.7031,30.3906 L56.4219,30.3906 Q57.0313,30.3906 57.2969,30.625 Q57.5625,30.8594 57.5625,31.25 Q57.5625,31.625 57.2969,31.8594 Q57.0313,32.0938 56.4219,32.0938 L51.2813,32.0938 Q50.6719,32.0938 50.4063,31.8594 Q50.1406,31.625 50.1406,31.2344 Q50.1406,30.8594 50.4063,30.625 Q50.6719,30.3906 51.2813,30.3906 L53,30.3906 L53,23.7344 L51.2813,23.7344 Q50.6719,23.7344 50.4063,23.5 Q50.1406,23.2656 50.1406,22.875 Q50.1406,22.5 50.4063,22.2656 Q50.6719,22.0313 51.2813,22.0313 L56.4219,22.0313 Q57.0313,22.0313 57.2969,22.2656 Q57.5625,22.5 57.5625,22.875 Q57.5625,23.2656 57.2969,23.5 Q57.0313,23.7344 56.4219,23.7344 L54.7031,23.7344 Z "/><text fill="#000000" font-family="sans-serif" font-size="14" font-style="italic" lengthAdjust="spacingAndGlyphs" textLength="121" x="74.25" y="26.5332">ContentDescription</text><text fill="#000000" font-family="sans-serif" font-size="10" font-style="italic" lengthAdjust="spacingAndGlyphs" textLength="92" x="88.75" y="39.9902">org.eclipse.epf.uma</text><line style="stroke: #A80036; stroke-width: 1.5;" x1="10" x2="227" y1="47.1875" y2="47.1875"/><ellipse cx="20" cy="58.1875" fill="#84BE84" rx="3" ry="3" style="stroke: #038048; stroke-width: 1.0;"/><text fill="#000000" font-family="sans-serif" font-size="11" font-style="italic" lengthAdjust="spacingAndGlyphs" textLength="139" x="29" y="62.6064">getMainDescription(): String</text><ellipse cx="20" cy="72.0234" fill="#84BE84" rx="3" ry="3" style="stroke: #038048; stroke-width: 1.0;"/><text fill="#000000" font-family="sans-serif" font-size="11" font-style="italic" lengthAdjust="spacingAndGlyphs" textLength="159" x="29" y="76.4424">setMainDescription(String): void</text><ellipse cx="20" cy="85.8594" fill="#84BE84" rx="3" ry="3" style="stroke: #038048; stroke-width: 1.0;"/><text fill="#000000" font-family="sans-serif" font-size="11" font-style="italic" lengthAdjust="spacingAndGlyphs" textLength="146" x="29" y="90.2783">getSections(): EList&lt;Section&gt;</text><ellipse cx="20" cy="99.6953" fill="#84BE84" rx="3" ry="3" style="stroke: #038048; stroke-width: 1.0;"/><text fill="#000000" font-family="sans-serif" font-size="11" font-style="italic" lengthAdjust="spacingAndGlyphs" textLength="108" x="29" y="104.1143">getExternalId(): String</text><ellipse cx="20" cy="113.5313" fill="#84BE84" rx="3" ry="3" style="stroke: #038048; stroke-width: 1.0;"/><text fill="#000000" font-family="sans-serif" font-size="11" font-style="italic" lengthAdjust="spacingAndGlyphs" textLength="128" x="29" y="117.9502">setExternalId(String): void</text><ellipse cx="20" cy="127.3672" fill="#84BE84" rx="3" ry="3" style="stroke: #038048; stroke-width: 1.0;"/><text fill="#000000" font-family="sans-serif" font-size="11" font-style="italic" lengthAdjust="spacingAndGlyphs" textLength="151" x="29" y="131.7861">getKeyConsiderations(): String</text><ellipse cx="20" cy="141.2031" fill="#84BE84" rx="3" ry="3" style="stroke: #038048; stroke-width: 1.0;"/><text fill="#000000" font-family="sans-serif" font-size="11" font-style="italic" lengthAdjust="spacingAndGlyphs" textLength="171" x="29" y="145.6221">setKeyConsiderations(String): void</text><ellipse cx="20" cy="155.0391" fill="#84BE84" rx="3" ry="3" style="stroke: #038048; stroke-width: 1.0;"/><text fill="#000000" font-family="sans-serif" font-size="11" font-style="italic" lengthAdjust="spacingAndGlyphs" textLength="173" x="29" y="159.458">getLongPresentationName(): String</text><ellipse cx="20" cy="168.875" fill="#84BE84" rx="3" ry="3" style="stroke: #038048; stroke-width: 1.0;"/><text fill="#000000" font-family="sans-serif" font-size="11" font-style="italic" lengthAdjust="spacingAndGlyphs" textLength="193" x="29" y="173.2939">setLongPresentationName(String): void</text></a><!--MD5=[d8df1e81f1a82fb082d76669e46b7dc0]
reverse link org.eclipse.epf.uma.ContentDescription to org.eclipse.epf.uma.WorkProductDescription--><path codeLine="26" d="M118.5,200.55 C118.5,214 118.5,227.44 118.5,239.97 " fill="none" id="org.eclipse.epf.uma.ContentDescription-backto-org.eclipse.epf.uma.WorkProductDescription" style="stroke: #A80036; stroke-width: 1.0;"/><polygon fill="none" points="111.5,200.22,118.5,180.22,125.5,200.22,111.5,200.22" style="stroke: #A80036; stroke-width: 1.0;"/><text fill="#888888" font-family="sans-serif" font-size="10" lengthAdjust="spacingAndGlyphs" textLength="190" x="20.5" y="394.584">UMLDoclet 2.0.12, PlantUML 1.2020.16</text><!--MD5=[9101fb6bfa74ce7affe5ce426417ca15]
@startuml
    set namespaceSeparator none
    hide empty fields
    hide empty methods

    interface "<size:14>WorkProductDescription\n<size:10>org.eclipse.epf.uma" as org.eclipse.epf.uma.WorkProductDescription [[WorkProductDescription.html]] {
        {abstract} +getPurpose(): String
        {abstract} +setPurpose(String): void
        {abstract} +getImpactOfNotHaving(): String
        {abstract} +setImpactOfNotHaving(String): void
        {abstract} +getReasonsForNotNeeding(): String
        {abstract} +setReasonsForNotNeeding(String): void
    }

    interface "<size:14>ContentDescription\n<size:10>org.eclipse.epf.uma" as org.eclipse.epf.uma.ContentDescription [[ContentDescription.html]] {
        {abstract} +getMainDescription(): String
        {abstract} +setMainDescription(String): void
        {abstract} +getSections(): EList<Section>
        {abstract} +getExternalId(): String
        {abstract} +setExternalId(String): void
        {abstract} +getKeyConsiderations(): String
        {abstract} +setKeyConsiderations(String): void
        {abstract} +getLongPresentationName(): String
        {abstract} +setLongPresentationName(String): void
    }

    org.eclipse.epf.uma.ContentDescription <|- - org.eclipse.epf.uma.WorkProductDescription

    center footer UMLDoclet 2.0.12, PlantUML 1.2020.16
@enduml

PlantUML version 1.2020.16(Sun Aug 23 22:20:43 CEST 2020)
(APACHE source distribution)
Java Runtime: Java(TM) SE Runtime Environment
JVM: Java HotSpot(TM) 64-Bit Server VM
Default Encoding: Cp1252
Language: es
Country: ES
--></g></svg>