<?xml version="1.0" encoding="UTF-8" standalone="no"?><svg xmlns="http://www.w3.org/2000/svg" xmlns:xlink="http://www.w3.org/1999/xlink" contentScriptType="application/ecmascript" contentStyleType="text/css" height="247px" preserveAspectRatio="none" style="width:245px;height:247px;" version="1.1" viewBox="0 0 245 247" width="245px" zoomAndPan="magnify"><defs><filter height="300%" id="f22kwsb5ipmso" width="300%" x="-1" y="-1"><feGaussianBlur result="blurOut" stdDeviation="2.0"/><feColorMatrix in="blurOut" result="blurOut2" type="matrix" values="0 0 0 0 0 0 0 0 0 0 0 0 0 0 0 0 0 0 .4 0"/><feOffset dx="4.0" dy="4.0" in="blurOut2" result="blurOut3"/><feBlend in="SourceGraphic" in2="blurOut3" mode="normal"/></filter></defs><g><!--MD5=[cb06fe2f8e143876a2e5c06d621516f3]
class org.eclipse.epf.uma.WorkOrder--><a href="WorkOrder.html" target="_top" title="WorkOrder.html" xlink:actuate="onRequest" xlink:href="WorkOrder.html" xlink:show="new" xlink:title="WorkOrder.html" xlink:type="simple"><rect codeLine="5" fill="#FEFECE" filter="url(#f22kwsb5ipmso)" height="103.5313" id="org.eclipse.epf.uma.WorkOrder" style="stroke: #A80036; stroke-width: 1.5;" width="219" x="7" y="107"/><ellipse cx="66.25" cy="127.0938" fill="#B4A7E5" rx="11" ry="11" style="stroke: #A80036; stroke-width: 1.0;"/><path d="M67.2031,123.7344 L67.2031,130.3906 L68.9219,130.3906 Q69.5313,130.3906 69.7969,130.625 Q70.0625,130.8594 70.0625,131.25 Q70.0625,131.625 69.7969,131.8594 Q69.5313,132.0938 68.9219,132.0938 L63.7813,132.0938 Q63.1719,132.0938 62.9063,131.8594 Q62.6406,131.625 62.6406,131.2344 Q62.6406,130.8594 62.9063,130.625 Q63.1719,130.3906 63.7813,130.3906 L65.5,130.3906 L65.5,123.7344 L63.7813,123.7344 Q63.1719,123.7344 62.9063,123.5 Q62.6406,123.2656 62.6406,122.875 Q62.6406,122.5 62.9063,122.2656 Q63.1719,122.0313 63.7813,122.0313 L68.9219,122.0313 Q69.5313,122.0313 69.7969,122.2656 Q70.0625,122.5 70.0625,122.875 Q70.0625,123.2656 69.7969,123.5 Q69.5313,123.7344 68.9219,123.7344 L67.2031,123.7344 Z "/><text fill="#000000" font-family="sans-serif" font-size="14" font-style="italic" lengthAdjust="spacingAndGlyphs" textLength="72" x="96.75" y="126.5332">WorkOrder</text><text fill="#000000" font-family="sans-serif" font-size="10" font-style="italic" lengthAdjust="spacingAndGlyphs" textLength="92" x="86.75" y="139.9902">org.eclipse.epf.uma</text><line style="stroke: #A80036; stroke-width: 1.5;" x1="8" x2="225" y1="147.1875" y2="147.1875"/><ellipse cx="18" cy="158.1875" fill="#84BE84" rx="3" ry="3" style="stroke: #038048; stroke-width: 1.0;"/><text fill="#000000" font-family="sans-serif" font-size="11" font-style="italic" lengthAdjust="spacingAndGlyphs" textLength="154" x="27" y="162.6064">getLinkType(): WorkOrderType</text><ellipse cx="18" cy="172.0234" fill="#84BE84" rx="3" ry="3" style="stroke: #038048; stroke-width: 1.0;"/><text fill="#000000" font-family="sans-serif" font-size="11" font-style="italic" lengthAdjust="spacingAndGlyphs" textLength="174" x="27" y="176.4424">setLinkType(WorkOrderType): void</text><ellipse cx="18" cy="185.8594" fill="#84BE84" rx="3" ry="3" style="stroke: #038048; stroke-width: 1.0;"/><text fill="#000000" font-family="sans-serif" font-size="11" font-style="italic" lengthAdjust="spacingAndGlyphs" textLength="173" x="27" y="190.2783">getPred(): WorkBreakdownElement</text><ellipse cx="18" cy="199.6953" fill="#84BE84" rx="3" ry="3" style="stroke: #038048; stroke-width: 1.0;"/><text fill="#000000" font-family="sans-serif" font-size="11" font-style="italic" lengthAdjust="spacingAndGlyphs" textLength="193" x="27" y="204.1143">setPred(WorkBreakdownElement): void</text></a><!--MD5=[639d29844b240ded2a28a02d67e09f6d]
class org.eclipse.epf.uma.ProcessElement--><a href="ProcessElement.html" target="_top" title="ProcessElement.html" xlink:actuate="onRequest" xlink:href="ProcessElement.html" xlink:show="new" xlink:title="ProcessElement.html" xlink:type="simple"><rect codeLine="12" fill="#FEFECE" filter="url(#f22kwsb5ipmso)" height="40.1875" id="org.eclipse.epf.uma.ProcessElement" style="stroke: #A80036; stroke-width: 1.5;" width="134" x="49.5" y="7"/><ellipse cx="64.5" cy="27.0938" fill="#B4A7E5" rx="11" ry="11" style="stroke: #A80036; stroke-width: 1.0;"/><path d="M65.4531,23.7344 L65.4531,30.3906 L67.1719,30.3906 Q67.7813,30.3906 68.0469,30.625 Q68.3125,30.8594 68.3125,31.25 Q68.3125,31.625 68.0469,31.8594 Q67.7813,32.0938 67.1719,32.0938 L62.0313,32.0938 Q61.4219,32.0938 61.1563,31.8594 Q60.8906,31.625 60.8906,31.2344 Q60.8906,30.8594 61.1563,30.625 Q61.4219,30.3906 62.0313,30.3906 L63.75,30.3906 L63.75,23.7344 L62.0313,23.7344 Q61.4219,23.7344 61.1563,23.5 Q60.8906,23.2656 60.8906,22.875 Q60.8906,22.5 61.1563,22.2656 Q61.4219,22.0313 62.0313,22.0313 L67.1719,22.0313 Q67.7813,22.0313 68.0469,22.2656 Q68.3125,22.5 68.3125,22.875 Q68.3125,23.2656 68.0469,23.5 Q67.7813,23.7344 67.1719,23.7344 L65.4531,23.7344 Z "/><text fill="#000000" font-family="sans-serif" font-size="14" font-style="italic" lengthAdjust="spacingAndGlyphs" textLength="102" x="78.5" y="26.5332">ProcessElement</text><text fill="#000000" font-family="sans-serif" font-size="10" font-style="italic" lengthAdjust="spacingAndGlyphs" textLength="92" x="83.5" y="39.9902">org.eclipse.epf.uma</text></a><!--MD5=[18ee0e179a95a6e76cb4460c5d6a4e00]
reverse link org.eclipse.epf.uma.ProcessElement to org.eclipse.epf.uma.WorkOrder--><path codeLine="14" d="M116.5,67.49 C116.5,79.93 116.5,93.86 116.5,106.99 " fill="none" id="org.eclipse.epf.uma.ProcessElement-backto-org.eclipse.epf.uma.WorkOrder" style="stroke: #A80036; stroke-width: 1.0;"/><polygon fill="none" points="109.5,67.18,116.5,47.18,123.5,67.18,109.5,67.18" style="stroke: #A80036; stroke-width: 1.0;"/><text fill="#888888" font-family="sans-serif" font-size="10" lengthAdjust="spacingAndGlyphs" textLength="190" x="18.5" y="233.9121">UMLDoclet 2.0.12, PlantUML 1.2020.16</text><!--MD5=[cbea06eada20a8dd85f5dea5cd683d9d]
@startuml
    set namespaceSeparator none
    hide empty fields
    hide empty methods

    interface "<size:14>WorkOrder\n<size:10>org.eclipse.epf.uma" as org.eclipse.epf.uma.WorkOrder [[WorkOrder.html]] {
        {abstract} +getLinkType(): WorkOrderType
        {abstract} +setLinkType(WorkOrderType): void
        {abstract} +getPred(): WorkBreakdownElement
        {abstract} +setPred(WorkBreakdownElement): void
    }

    interface "<size:14>ProcessElement\n<size:10>org.eclipse.epf.uma" as org.eclipse.epf.uma.ProcessElement [[ProcessElement.html]]

    org.eclipse.epf.uma.ProcessElement <|- - org.eclipse.epf.uma.WorkOrder

    center footer UMLDoclet 2.0.12, PlantUML 1.2020.16
@enduml

PlantUML version 1.2020.16(Sun Aug 23 22:20:43 CEST 2020)
(APACHE source distribution)
Java Runtime: Java(TM) SE Runtime Environment
JVM: Java HotSpot(TM) 64-Bit Server VM
Default Encoding: Cp1252
Language: es
Country: ES
--></g></svg>