<?xml version="1.0" encoding="UTF-8" standalone="no"?><svg xmlns="http://www.w3.org/2000/svg" xmlns:xlink="http://www.w3.org/1999/xlink" contentScriptType="application/ecmascript" contentStyleType="text/css" height="380px" preserveAspectRatio="none" style="width:444px;height:380px;" version="1.1" viewBox="0 0 444 380" width="444px" zoomAndPan="magnify"><defs><filter height="300%" id="f1kka8g8xli869" width="300%" x="-1" y="-1"><feGaussianBlur result="blurOut" stdDeviation="2.0"/><feColorMatrix in="blurOut" result="blurOut2" type="matrix" values="0 0 0 0 0 0 0 0 0 0 0 0 0 0 0 0 0 0 .4 0"/><feOffset dx="4.0" dy="4.0" in="blurOut2" result="blurOut3"/><feBlend in="SourceGraphic" in2="blurOut3" mode="normal"/></filter></defs><g><!--MD5=[56f659328daf2ba0e36b83ac30ec6bac]
class org.eclipse.epf.diagram.model.impl.LinkedObjectImpl--><a href="LinkedObjectImpl.html" target="_top" title="LinkedObjectImpl.html" xlink:actuate="onRequest" xlink:href="LinkedObjectImpl.html" xlink:show="new" xlink:title="LinkedObjectImpl.html" xlink:type="simple"><rect codeLine="5" fill="#FEFECE" filter="url(#f1kka8g8xli869)" height="172.7109" id="org.eclipse.epf.diagram.model.impl.LinkedObjectImpl" style="stroke: #A80036; stroke-width: 1.5;" width="223" x="88" y="171"/><ellipse cx="115.6" cy="191.0938" fill="#A9DCDF" rx="11" ry="11" style="stroke: #A80036; stroke-width: 1.0;"/><path d="M117.7875,192.8594 L113.6469,192.8594 L113.225,193.8906 L113.6469,193.8906 Q114.2563,193.8906 114.5219,194.125 Q114.7875,194.3594 114.7875,194.75 Q114.7875,195.125 114.5219,195.3594 Q114.2563,195.5938 113.6469,195.5938 L111.35,195.5938 Q110.7406,195.5938 110.4906,195.3594 Q110.225,195.125 110.225,194.7344 Q110.225,194.3594 110.5063,194.125 Q110.7719,193.875 111.3969,193.8906 L114.0688,187.2344 L112.9594,187.2344 Q112.35,187.2344 112.0844,187 Q111.8188,186.7656 111.8188,186.375 Q111.8188,186 112.0844,185.7656 Q112.35,185.5313 112.9594,185.5313 L116.6313,185.5313 L120.0219,193.8906 Q120.6156,193.8906 120.8031,194.0313 Q121.1938,194.2969 121.1938,194.75 Q121.1938,195.125 120.9281,195.3594 Q120.6781,195.5938 120.0688,195.5938 L117.7719,195.5938 Q117.1625,195.5938 116.8969,195.3594 Q116.6313,195.125 116.6313,194.7344 Q116.6313,194.3594 116.8969,194.125 Q117.1625,193.8906 117.7719,193.8906 L118.1938,193.8906 L117.7875,192.8594 Z M117.0688,191.1563 L115.7094,187.7813 L114.3344,191.1563 L117.0688,191.1563 Z "/><text fill="#000000" font-family="sans-serif" font-size="14" font-style="italic" lengthAdjust="spacingAndGlyphs" textLength="110" x="158.9" y="190.5332">LinkedObjectImpl</text><text fill="#000000" font-family="sans-serif" font-size="10" font-style="italic" lengthAdjust="spacingAndGlyphs" textLength="163" x="132.4" y="203.9902">org.eclipse.epf.diagram.model.impl</text><line style="stroke: #A80036; stroke-width: 1.5;" x1="89" x2="310" y1="211.1875" y2="211.1875"/><ellipse cx="99" cy="222.1875" fill="#84BE84" rx="3" ry="3" style="stroke: #038048; stroke-width: 1.0;"/><text fill="#000000" font-family="sans-serif" font-size="11" lengthAdjust="spacingAndGlyphs" textLength="169" x="108" y="226.6064">getLinkedElement(): MethodElement</text><ellipse cx="99" cy="236.0234" fill="#84BE84" rx="3" ry="3" style="stroke: #038048; stroke-width: 1.0;"/><text fill="#000000" font-family="sans-serif" font-size="11" lengthAdjust="spacingAndGlyphs" textLength="197" x="108" y="240.4424">basicGetLinkedElement(): MethodElement</text><ellipse cx="99" cy="249.8594" fill="#84BE84" rx="3" ry="3" style="stroke: #038048; stroke-width: 1.0;"/><text fill="#000000" font-family="sans-serif" font-size="11" lengthAdjust="spacingAndGlyphs" textLength="189" x="108" y="254.2783">setLinkedElement(MethodElement): void</text><ellipse cx="99" cy="263.6953" fill="#84BE84" rx="3" ry="3" style="stroke: #038048; stroke-width: 1.0;"/><text fill="#000000" font-family="sans-serif" font-size="11" lengthAdjust="spacingAndGlyphs" textLength="91" x="108" y="268.1143">getObject(): Object</text><ellipse cx="99" cy="277.5313" fill="#84BE84" rx="3" ry="3" style="stroke: #038048; stroke-width: 1.0;"/><text fill="#000000" font-family="sans-serif" font-size="11" lengthAdjust="spacingAndGlyphs" textLength="111" x="108" y="281.9502">setObject(Object): void</text><ellipse cx="99" cy="291.3672" fill="#84BE84" rx="3" ry="3" style="stroke: #038048; stroke-width: 1.0;"/><text fill="#000000" font-family="sans-serif" font-size="11" lengthAdjust="spacingAndGlyphs" textLength="167" x="108" y="295.7861">eGet(int, boolean, boolean): Object</text><ellipse cx="99" cy="305.2031" fill="#84BE84" rx="3" ry="3" style="stroke: #038048; stroke-width: 1.0;"/><text fill="#000000" font-family="sans-serif" font-size="11" lengthAdjust="spacingAndGlyphs" textLength="104" x="108" y="309.6221">eSet(int, Object): void</text><ellipse cx="99" cy="319.0391" fill="#84BE84" rx="3" ry="3" style="stroke: #038048; stroke-width: 1.0;"/><text fill="#000000" font-family="sans-serif" font-size="11" lengthAdjust="spacingAndGlyphs" textLength="79" x="108" y="323.458">eUnset(int): void</text><ellipse cx="99" cy="332.875" fill="#84BE84" rx="3" ry="3" style="stroke: #038048; stroke-width: 1.0;"/><text fill="#000000" font-family="sans-serif" font-size="11" lengthAdjust="spacingAndGlyphs" textLength="93" x="108" y="337.2939">eIsSet(int): boolean</text></a><!--MD5=[0e2811713b311972e98c909f8f5aac3f]
class org.eclipse.emf.ecore.impl.EObjectImpl--><rect codeLine="17" fill="#FEFECE" filter="url(#f1kka8g8xli869)" height="40.1875" id="org.eclipse.emf.ecore.impl.EObjectImpl" style="stroke: #A80036; stroke-width: 1.5;" width="159" x="7" y="39"/><ellipse cx="22" cy="59.0938" fill="#ADD1B2" rx="11" ry="11" style="stroke: #A80036; stroke-width: 1.0;"/><path d="M24.7656,54.9688 Q24.9219,54.75 25.1094,54.6406 Q25.2969,54.5313 25.5156,54.5313 Q25.8906,54.5313 26.125,54.7969 Q26.3594,55.0469 26.3594,55.6563 L26.3594,57.1094 Q26.3594,57.7188 26.125,57.9844 Q25.8906,58.25 25.5156,58.25 Q25.1719,58.25 24.9688,58.0469 Q24.7656,57.8594 24.6563,57.3438 Q24.6094,56.9844 24.4219,56.7969 Q24.0938,56.4219 23.4844,56.2031 Q22.875,55.9844 22.25,55.9844 Q21.4844,55.9844 20.8438,56.3125 Q20.2188,56.6406 19.7188,57.3906 Q19.2344,58.1406 19.2344,59.1719 L19.2344,60.2656 Q19.2344,61.5 20.125,62.3281 Q21.0156,63.1406 22.6094,63.1406 Q23.5469,63.1406 24.2031,62.8906 Q24.5938,62.7344 25.0156,62.2969 Q25.2813,62.0313 25.4219,61.9531 Q25.5781,61.875 25.7813,61.875 Q26.1094,61.875 26.3594,62.1406 Q26.625,62.3906 26.625,62.7344 Q26.625,63.0781 26.2813,63.4844 Q25.7813,64.0625 24.9844,64.3906 Q23.9063,64.8438 22.6094,64.8438 Q21.0938,64.8438 19.8906,64.2188 Q18.9063,63.7188 18.2188,62.6563 Q17.5313,61.5781 17.5313,60.2969 L17.5313,59.1406 Q17.5313,57.8125 18.1406,56.6719 Q18.7656,55.5156 19.8594,54.9063 Q20.9531,54.2813 22.1875,54.2813 Q22.9219,54.2813 23.5625,54.4531 Q24.2188,54.6094 24.7656,54.9688 Z "/><text fill="#000000" font-family="sans-serif" font-size="14" lengthAdjust="spacingAndGlyphs" textLength="75" x="62" y="58.5332">EObjectImpl</text><text fill="#000000" font-family="sans-serif" font-size="10" lengthAdjust="spacingAndGlyphs" textLength="127" x="36" y="71.9902">org.eclipse.emf.ecore.impl</text><!--MD5=[7cc579e5dd5aac4f853eaf1b6770b9c8]
class org.eclipse.epf.diagram.model.LinkedObject--><a href="..\LinkedObject.html" target="_top" title="..\LinkedObject.html" xlink:actuate="onRequest" xlink:href="..\LinkedObject.html" xlink:show="new" xlink:title="..\LinkedObject.html" xlink:type="simple"><rect codeLine="18" fill="#FEFECE" filter="url(#f1kka8g8xli869)" height="103.5313" id="org.eclipse.epf.diagram.model.LinkedObject" style="stroke: #A80036; stroke-width: 1.5;" width="224" x="201.5" y="7"/><ellipse cx="239.45" cy="27.0938" fill="#B4A7E5" rx="11" ry="11" style="stroke: #A80036; stroke-width: 1.0;"/><path d="M240.4031,23.7344 L240.4031,30.3906 L242.1219,30.3906 Q242.7313,30.3906 242.9969,30.625 Q243.2625,30.8594 243.2625,31.25 Q243.2625,31.625 242.9969,31.8594 Q242.7313,32.0938 242.1219,32.0938 L236.9813,32.0938 Q236.3719,32.0938 236.1063,31.8594 Q235.8406,31.625 235.8406,31.2344 Q235.8406,30.8594 236.1063,30.625 Q236.3719,30.3906 236.9813,30.3906 L238.7,30.3906 L238.7,23.7344 L236.9813,23.7344 Q236.3719,23.7344 236.1063,23.5 Q235.8406,23.2656 235.8406,22.875 Q235.8406,22.5 236.1063,22.2656 Q236.3719,22.0313 236.9813,22.0313 L242.1219,22.0313 Q242.7313,22.0313 242.9969,22.2656 Q243.2625,22.5 243.2625,22.875 Q243.2625,23.2656 242.9969,23.5 Q242.7313,23.7344 242.1219,23.7344 L240.4031,23.7344 Z "/><text fill="#000000" font-family="sans-serif" font-size="14" font-style="italic" lengthAdjust="spacingAndGlyphs" textLength="84" x="287.05" y="26.5332">LinkedObject</text><text fill="#000000" font-family="sans-serif" font-size="10" font-style="italic" lengthAdjust="spacingAndGlyphs" textLength="141" x="258.55" y="39.9902">org.eclipse.epf.diagram.model</text><line style="stroke: #A80036; stroke-width: 1.5;" x1="202.5" x2="424.5" y1="47.1875" y2="47.1875"/><ellipse cx="212.5" cy="58.1875" fill="#84BE84" rx="3" ry="3" style="stroke: #038048; stroke-width: 1.0;"/><text fill="#000000" font-family="sans-serif" font-size="11" font-style="italic" lengthAdjust="spacingAndGlyphs" textLength="178" x="221.5" y="62.6064">getLinkedElement(): MethodElement</text><ellipse cx="212.5" cy="72.0234" fill="#84BE84" rx="3" ry="3" style="stroke: #038048; stroke-width: 1.0;"/><text fill="#000000" font-family="sans-serif" font-size="11" font-style="italic" lengthAdjust="spacingAndGlyphs" textLength="198" x="221.5" y="76.4424">setLinkedElement(MethodElement): void</text><ellipse cx="212.5" cy="85.8594" fill="#84BE84" rx="3" ry="3" style="stroke: #038048; stroke-width: 1.0;"/><text fill="#000000" font-family="sans-serif" font-size="11" font-style="italic" lengthAdjust="spacingAndGlyphs" textLength="97" x="221.5" y="90.2783">getObject(): Object</text><ellipse cx="212.5" cy="99.6953" fill="#84BE84" rx="3" ry="3" style="stroke: #038048; stroke-width: 1.0;"/><text fill="#000000" font-family="sans-serif" font-size="11" font-style="italic" lengthAdjust="spacingAndGlyphs" textLength="117" x="221.5" y="104.1143">setObject(Object): void</text></a><!--MD5=[11bddab19fcd322c5c7d8cc68303839b]
reverse link org.eclipse.emf.ecore.impl.EObjectImpl to org.eclipse.epf.diagram.model.impl.LinkedObjectImpl--><path codeLine="25" d="M107.67,96.81 C119.72,117.76 135.35,144.95 150.29,170.93 " fill="none" id="org.eclipse.emf.ecore.impl.EObjectImpl-backto-org.eclipse.epf.diagram.model.impl.LinkedObjectImpl" style="stroke: #A80036; stroke-width: 1.0;"/><polygon fill="none" points="101.44,100.03,97.54,79.2,113.58,93.05,101.44,100.03" style="stroke: #A80036; stroke-width: 1.0;"/><!--MD5=[5573b3c223f7fb9f2c3a209936acbd13]
reverse link org.eclipse.epf.diagram.model.LinkedObject to org.eclipse.epf.diagram.model.impl.LinkedObjectImpl--><path codeLine="26" d="M273.8,128.43 C265.9,142.05 257.51,156.52 249.32,170.63 " fill="none" id="org.eclipse.epf.diagram.model.LinkedObject-backto-org.eclipse.epf.diagram.model.impl.LinkedObjectImpl" style="stroke: #A80036; stroke-width: 1.0; stroke-dasharray: 7.0,7.0;"/><polygon fill="none" points="267.75,124.9,283.85,111.12,279.86,131.93,267.75,124.9" style="stroke: #A80036; stroke-width: 1.0;"/><text fill="#888888" font-family="sans-serif" font-size="10" lengthAdjust="spacingAndGlyphs" textLength="190" x="118.25" y="367.0918">UMLDoclet 2.0.12, PlantUML 1.2020.16</text><!--MD5=[3408342fdc2af5b1269bebd3f516bd54]
@startuml
    set namespaceSeparator none
    hide empty fields
    hide empty methods

    abstract class "<size:14>LinkedObjectImpl\n<size:10>org.eclipse.epf.diagram.model.impl" as org.eclipse.epf.diagram.model.impl.LinkedObjectImpl [[LinkedObjectImpl.html]] {
        +getLinkedElement(): MethodElement
        +basicGetLinkedElement(): MethodElement
        +setLinkedElement(MethodElement): void
        +getObject(): Object
        +setObject(Object): void
        +eGet(int, boolean, boolean): Object
        +eSet(int, Object): void
        +eUnset(int): void
        +eIsSet(int): boolean
    }

    class "<size:14>EObjectImpl\n<size:10>org.eclipse.emf.ecore.impl" as org.eclipse.emf.ecore.impl.EObjectImpl
    interface "<size:14>LinkedObject\n<size:10>org.eclipse.epf.diagram.model" as org.eclipse.epf.diagram.model.LinkedObject [[..\LinkedObject.html]] {
        {abstract} +getLinkedElement(): MethodElement
        {abstract} +setLinkedElement(MethodElement): void
        {abstract} +getObject(): Object
        {abstract} +setObject(Object): void
    }

    org.eclipse.emf.ecore.impl.EObjectImpl <|- - org.eclipse.epf.diagram.model.impl.LinkedObjectImpl
    org.eclipse.epf.diagram.model.LinkedObject <|.. org.eclipse.epf.diagram.model.impl.LinkedObjectImpl

    center footer UMLDoclet 2.0.12, PlantUML 1.2020.16
@enduml

PlantUML version 1.2020.16(Sun Aug 23 22:20:43 CEST 2020)
(APACHE source distribution)
Java Runtime: Java(TM) SE Runtime Environment
JVM: Java HotSpot(TM) 64-Bit Server VM
Default Encoding: Cp1252
Language: es
Country: ES
--></g></svg>