<?xml version="1.0" encoding="UTF-8" standalone="no"?><svg xmlns="http://www.w3.org/2000/svg" xmlns:xlink="http://www.w3.org/1999/xlink" contentScriptType="application/ecmascript" contentStyleType="text/css" height="642px" preserveAspectRatio="none" style="width:435px;height:642px;" version="1.1" viewBox="0 0 435 642" width="435px" zoomAndPan="magnify"><defs><filter height="300%" id="fq71yk13a7ei6" width="300%" x="-1" y="-1"><feGaussianBlur result="blurOut" stdDeviation="2.0"/><feColorMatrix in="blurOut" result="blurOut2" type="matrix" values="0 0 0 0 0 0 0 0 0 0 0 0 0 0 0 0 0 0 .4 0"/><feOffset dx="4.0" dy="4.0" in="blurOut2" result="blurOut3"/><feBlend in="SourceGraphic" in2="blurOut3" mode="normal"/></filter></defs><g><!--MD5=[5aba5f0de5f3f5d4bfb1cc075b225885]
class org.eclipse.epf.diagram.model.impl.LinkImpl--><a href="LinkImpl.html" target="_top" title="LinkImpl.html" xlink:actuate="onRequest" xlink:href="LinkImpl.html" xlink:show="new" xlink:title="LinkImpl.html" xlink:type="simple"><rect codeLine="5" fill="#FEFECE" filter="url(#fq71yk13a7ei6)" height="338.7422" id="org.eclipse.epf.diagram.model.impl.LinkImpl" style="stroke: #A80036; stroke-width: 1.5;" width="379" x="26" y="267"/><ellipse cx="126.75" cy="287.0938" fill="#ADD1B2" rx="11" ry="11" style="stroke: #A80036; stroke-width: 1.0;"/><path d="M129.5156,282.9688 Q129.6719,282.75 129.8594,282.6406 Q130.0469,282.5313 130.2656,282.5313 Q130.6406,282.5313 130.875,282.7969 Q131.1094,283.0469 131.1094,283.6563 L131.1094,285.1094 Q131.1094,285.7188 130.875,285.9844 Q130.6406,286.25 130.2656,286.25 Q129.9219,286.25 129.7188,286.0469 Q129.5156,285.8594 129.4063,285.3438 Q129.3594,284.9844 129.1719,284.7969 Q128.8438,284.4219 128.2344,284.2031 Q127.625,283.9844 127,283.9844 Q126.2344,283.9844 125.5938,284.3125 Q124.9688,284.6406 124.4688,285.3906 Q123.9844,286.1406 123.9844,287.1719 L123.9844,288.2656 Q123.9844,289.5 124.875,290.3281 Q125.7656,291.1406 127.3594,291.1406 Q128.2969,291.1406 128.9531,290.8906 Q129.3438,290.7344 129.7656,290.2969 Q130.0313,290.0313 130.1719,289.9531 Q130.3281,289.875 130.5313,289.875 Q130.8594,289.875 131.1094,290.1406 Q131.375,290.3906 131.375,290.7344 Q131.375,291.0781 131.0313,291.4844 Q130.5313,292.0625 129.7344,292.3906 Q128.6563,292.8438 127.3594,292.8438 Q125.8438,292.8438 124.6406,292.2188 Q123.6563,291.7188 122.9688,290.6563 Q122.2813,289.5781 122.2813,288.2969 L122.2813,287.1406 Q122.2813,285.8125 122.8906,284.6719 Q123.5156,283.5156 124.6094,282.9063 Q125.7031,282.2813 126.9375,282.2813 Q127.6719,282.2813 128.3125,282.4531 Q128.9688,282.6094 129.5156,282.9688 Z "/><text fill="#000000" font-family="sans-serif" font-size="14" lengthAdjust="spacingAndGlyphs" textLength="51" x="206.25" y="286.5332">LinkImpl</text><text fill="#000000" font-family="sans-serif" font-size="10" lengthAdjust="spacingAndGlyphs" textLength="169" x="147.25" y="299.9902">org.eclipse.epf.diagram.model.impl</text><line style="stroke: #A80036; stroke-width: 1.5;" x1="27" x2="404" y1="307.1875" y2="307.1875"/><ellipse cx="37" cy="318.1875" fill="#84BE84" rx="3" ry="3" style="stroke: #038048; stroke-width: 1.0;"/><text fill="#000000" font-family="sans-serif" font-size="11" lengthAdjust="spacingAndGlyphs" textLength="84" x="46" y="322.6064">getName(): String</text><ellipse cx="37" cy="332.0234" fill="#84BE84" rx="3" ry="3" style="stroke: #038048; stroke-width: 1.0;"/><text fill="#000000" font-family="sans-serif" font-size="11" lengthAdjust="spacingAndGlyphs" textLength="104" x="46" y="336.4424">setName(String): void</text><ellipse cx="37" cy="345.8594" fill="#84BE84" rx="3" ry="3" style="stroke: #038048; stroke-width: 1.0;"/><text fill="#000000" font-family="sans-serif" font-size="11" lengthAdjust="spacingAndGlyphs" textLength="89" x="46" y="350.2783">getSource(): Node</text><ellipse cx="37" cy="359.6953" fill="#84BE84" rx="3" ry="3" style="stroke: #038048; stroke-width: 1.0;"/><text fill="#000000" font-family="sans-serif" font-size="11" lengthAdjust="spacingAndGlyphs" textLength="282" x="46" y="364.1143">basicSetSource(Node, NotificationChain): NotificationChain</text><ellipse cx="37" cy="373.5313" fill="#84BE84" rx="3" ry="3" style="stroke: #038048; stroke-width: 1.0;"/><text fill="#000000" font-family="sans-serif" font-size="11" lengthAdjust="spacingAndGlyphs" textLength="109" x="46" y="377.9502">setSource(Node): void</text><ellipse cx="37" cy="387.3672" fill="#84BE84" rx="3" ry="3" style="stroke: #038048; stroke-width: 1.0;"/><text fill="#000000" font-family="sans-serif" font-size="11" lengthAdjust="spacingAndGlyphs" textLength="85" x="46" y="391.7861">getTarget(): Node</text><ellipse cx="37" cy="401.2031" fill="#84BE84" rx="3" ry="3" style="stroke: #038048; stroke-width: 1.0;"/><text fill="#000000" font-family="sans-serif" font-size="11" lengthAdjust="spacingAndGlyphs" textLength="113" x="46" y="405.6221">basicGetTarget(): Node</text><ellipse cx="37" cy="415.0391" fill="#84BE84" rx="3" ry="3" style="stroke: #038048; stroke-width: 1.0;"/><text fill="#000000" font-family="sans-serif" font-size="11" lengthAdjust="spacingAndGlyphs" textLength="278" x="46" y="419.458">basicSetTarget(Node, NotificationChain): NotificationChain</text><ellipse cx="37" cy="428.875" fill="#84BE84" rx="3" ry="3" style="stroke: #038048; stroke-width: 1.0;"/><text fill="#000000" font-family="sans-serif" font-size="11" lengthAdjust="spacingAndGlyphs" textLength="105" x="46" y="433.2939">setTarget(Node): void</text><ellipse cx="37" cy="442.7109" fill="#84BE84" rx="3" ry="3" style="stroke: #038048; stroke-width: 1.0;"/><text fill="#000000" font-family="sans-serif" font-size="11" lengthAdjust="spacingAndGlyphs" textLength="106" x="46" y="447.1299">getBendpoints(): EList</text><ellipse cx="37" cy="456.5469" fill="#84BE84" rx="3" ry="3" style="stroke: #038048; stroke-width: 1.0;"/><text fill="#000000" font-family="sans-serif" font-size="11" lengthAdjust="spacingAndGlyphs" textLength="128" x="46" y="460.9658">getSourceEndPoint(): Point</text><ellipse cx="37" cy="470.3828" fill="#84BE84" rx="3" ry="3" style="stroke: #038048; stroke-width: 1.0;"/><text fill="#000000" font-family="sans-serif" font-size="11" lengthAdjust="spacingAndGlyphs" textLength="148" x="46" y="474.8018">setSourceEndPoint(Point): void</text><ellipse cx="37" cy="484.2188" fill="#84BE84" rx="3" ry="3" style="stroke: #038048; stroke-width: 1.0;"/><text fill="#000000" font-family="sans-serif" font-size="11" lengthAdjust="spacingAndGlyphs" textLength="124" x="46" y="488.6377">getTargetEndPoint(): Point</text><ellipse cx="37" cy="498.0547" fill="#84BE84" rx="3" ry="3" style="stroke: #038048; stroke-width: 1.0;"/><text fill="#000000" font-family="sans-serif" font-size="11" lengthAdjust="spacingAndGlyphs" textLength="144" x="46" y="502.4736">setTargetEndPoint(Point): void</text><ellipse cx="37" cy="511.8906" fill="#84BE84" rx="3" ry="3" style="stroke: #038048; stroke-width: 1.0;"/><text fill="#000000" font-family="sans-serif" font-size="11" lengthAdjust="spacingAndGlyphs" textLength="331" x="46" y="516.3096">eInverseAdd(InternalEObject, int, NotificationChain): NotificationChain</text><ellipse cx="37" cy="525.7266" fill="#84BE84" rx="3" ry="3" style="stroke: #038048; stroke-width: 1.0;"/><text fill="#000000" font-family="sans-serif" font-size="11" lengthAdjust="spacingAndGlyphs" textLength="350" x="46" y="530.1455">eInverseRemove(InternalEObject, int, NotificationChain): NotificationChain</text><ellipse cx="37" cy="539.5625" fill="#84BE84" rx="3" ry="3" style="stroke: #038048; stroke-width: 1.0;"/><text fill="#000000" font-family="sans-serif" font-size="11" lengthAdjust="spacingAndGlyphs" textLength="353" x="46" y="543.9814">eBasicRemoveFromContainerFeature(NotificationChain): NotificationChain</text><ellipse cx="37" cy="553.3984" fill="#84BE84" rx="3" ry="3" style="stroke: #038048; stroke-width: 1.0;"/><text fill="#000000" font-family="sans-serif" font-size="11" lengthAdjust="spacingAndGlyphs" textLength="167" x="46" y="557.8174">eGet(int, boolean, boolean): Object</text><ellipse cx="37" cy="567.2344" fill="#84BE84" rx="3" ry="3" style="stroke: #038048; stroke-width: 1.0;"/><text fill="#000000" font-family="sans-serif" font-size="11" lengthAdjust="spacingAndGlyphs" textLength="104" x="46" y="571.6533">eSet(int, Object): void</text><ellipse cx="37" cy="581.0703" fill="#84BE84" rx="3" ry="3" style="stroke: #038048; stroke-width: 1.0;"/><text fill="#000000" font-family="sans-serif" font-size="11" lengthAdjust="spacingAndGlyphs" textLength="79" x="46" y="585.4893">eUnset(int): void</text><ellipse cx="37" cy="594.9063" fill="#84BE84" rx="3" ry="3" style="stroke: #038048; stroke-width: 1.0;"/><text fill="#000000" font-family="sans-serif" font-size="11" lengthAdjust="spacingAndGlyphs" textLength="93" x="46" y="599.3252">eIsSet(int): boolean</text></a><!--MD5=[56f659328daf2ba0e36b83ac30ec6bac]
class org.eclipse.epf.diagram.model.impl.LinkedObjectImpl--><a href="LinkedObjectImpl.html" target="_top" title="LinkedObjectImpl.html" xlink:actuate="onRequest" xlink:href="LinkedObjectImpl.html" xlink:show="new" xlink:title="LinkedObjectImpl.html" xlink:type="simple"><rect codeLine="29" fill="#FEFECE" filter="url(#fq71yk13a7ei6)" height="40.1875" id="org.eclipse.epf.diagram.model.impl.LinkedObjectImpl" style="stroke: #A80036; stroke-width: 1.5;" width="195" x="7" y="87"/><ellipse cx="22" cy="107.0938" fill="#A9DCDF" rx="11" ry="11" style="stroke: #A80036; stroke-width: 1.0;"/><path d="M24.1875,108.8594 L20.0469,108.8594 L19.625,109.8906 L20.0469,109.8906 Q20.6563,109.8906 20.9219,110.125 Q21.1875,110.3594 21.1875,110.75 Q21.1875,111.125 20.9219,111.3594 Q20.6563,111.5938 20.0469,111.5938 L17.75,111.5938 Q17.1406,111.5938 16.8906,111.3594 Q16.625,111.125 16.625,110.7344 Q16.625,110.3594 16.9063,110.125 Q17.1719,109.875 17.7969,109.8906 L20.4688,103.2344 L19.3594,103.2344 Q18.75,103.2344 18.4844,103 Q18.2188,102.7656 18.2188,102.375 Q18.2188,102 18.4844,101.7656 Q18.75,101.5313 19.3594,101.5313 L23.0313,101.5313 L26.4219,109.8906 Q27.0156,109.8906 27.2031,110.0313 Q27.5938,110.2969 27.5938,110.75 Q27.5938,111.125 27.3281,111.3594 Q27.0781,111.5938 26.4688,111.5938 L24.1719,111.5938 Q23.5625,111.5938 23.2969,111.3594 Q23.0313,111.125 23.0313,110.7344 Q23.0313,110.3594 23.2969,110.125 Q23.5625,109.8906 24.1719,109.8906 L24.5938,109.8906 L24.1875,108.8594 Z M23.4688,107.1563 L22.1094,103.7813 L20.7344,107.1563 L23.4688,107.1563 Z "/><text fill="#000000" font-family="sans-serif" font-size="14" font-style="italic" lengthAdjust="spacingAndGlyphs" textLength="110" x="62.5" y="106.5332">LinkedObjectImpl</text><text fill="#000000" font-family="sans-serif" font-size="10" font-style="italic" lengthAdjust="spacingAndGlyphs" textLength="163" x="36" y="119.9902">org.eclipse.epf.diagram.model.impl</text></a><!--MD5=[e2b3c0926322a5db9ac6374677f7ce4d]
class org.eclipse.epf.diagram.model.Link--><a href="..\Link.html" target="_top" title="..\Link.html" xlink:actuate="onRequest" xlink:href="..\Link.html" xlink:show="new" xlink:title="..\Link.html" xlink:type="simple"><rect codeLine="30" fill="#FEFECE" filter="url(#fq71yk13a7ei6)" height="200.3828" id="org.eclipse.epf.diagram.model.Link" style="stroke: #A80036; stroke-width: 1.5;" width="179" x="237" y="7"/><ellipse cx="254.7" cy="27.0938" fill="#B4A7E5" rx="11" ry="11" style="stroke: #A80036; stroke-width: 1.0;"/><path d="M255.6531,23.7344 L255.6531,30.3906 L257.3719,30.3906 Q257.9813,30.3906 258.2469,30.625 Q258.5125,30.8594 258.5125,31.25 Q258.5125,31.625 258.2469,31.8594 Q257.9813,32.0938 257.3719,32.0938 L252.2313,32.0938 Q251.6219,32.0938 251.3563,31.8594 Q251.0906,31.625 251.0906,31.2344 Q251.0906,30.8594 251.3563,30.625 Q251.6219,30.3906 252.2313,30.3906 L253.95,30.3906 L253.95,23.7344 L252.2313,23.7344 Q251.6219,23.7344 251.3563,23.5 Q251.0906,23.2656 251.0906,22.875 Q251.0906,22.5 251.3563,22.2656 Q251.6219,22.0313 252.2313,22.0313 L257.3719,22.0313 Q257.9813,22.0313 258.2469,22.2656 Q258.5125,22.5 258.5125,22.875 Q258.5125,23.2656 258.2469,23.5 Q257.9813,23.7344 257.3719,23.7344 L255.6531,23.7344 Z "/><text fill="#000000" font-family="sans-serif" font-size="14" font-style="italic" lengthAdjust="spacingAndGlyphs" textLength="27" x="326.3" y="26.5332">Link</text><text fill="#000000" font-family="sans-serif" font-size="10" font-style="italic" lengthAdjust="spacingAndGlyphs" textLength="141" x="269.3" y="39.9902">org.eclipse.epf.diagram.model</text><line style="stroke: #A80036; stroke-width: 1.5;" x1="238" x2="415" y1="47.1875" y2="47.1875"/><ellipse cx="248" cy="58.1875" fill="#84BE84" rx="3" ry="3" style="stroke: #038048; stroke-width: 1.0;"/><text fill="#000000" font-family="sans-serif" font-size="11" font-style="italic" lengthAdjust="spacingAndGlyphs" textLength="87" x="257" y="62.6064">getName(): String</text><ellipse cx="248" cy="72.0234" fill="#84BE84" rx="3" ry="3" style="stroke: #038048; stroke-width: 1.0;"/><text fill="#000000" font-family="sans-serif" font-size="11" font-style="italic" lengthAdjust="spacingAndGlyphs" textLength="107" x="257" y="76.4424">setName(String): void</text><ellipse cx="248" cy="85.8594" fill="#84BE84" rx="3" ry="3" style="stroke: #038048; stroke-width: 1.0;"/><text fill="#000000" font-family="sans-serif" font-size="11" font-style="italic" lengthAdjust="spacingAndGlyphs" textLength="90" x="257" y="90.2783">getSource(): Node</text><ellipse cx="248" cy="99.6953" fill="#84BE84" rx="3" ry="3" style="stroke: #038048; stroke-width: 1.0;"/><text fill="#000000" font-family="sans-serif" font-size="11" font-style="italic" lengthAdjust="spacingAndGlyphs" textLength="110" x="257" y="104.1143">setSource(Node): void</text><ellipse cx="248" cy="113.5313" fill="#84BE84" rx="3" ry="3" style="stroke: #038048; stroke-width: 1.0;"/><text fill="#000000" font-family="sans-serif" font-size="11" font-style="italic" lengthAdjust="spacingAndGlyphs" textLength="87" x="257" y="117.9502">getTarget(): Node</text><ellipse cx="248" cy="127.3672" fill="#84BE84" rx="3" ry="3" style="stroke: #038048; stroke-width: 1.0;"/><text fill="#000000" font-family="sans-serif" font-size="11" font-style="italic" lengthAdjust="spacingAndGlyphs" textLength="107" x="257" y="131.7861">setTarget(Node): void</text><ellipse cx="248" cy="141.2031" fill="#84BE84" rx="3" ry="3" style="stroke: #038048; stroke-width: 1.0;"/><text fill="#000000" font-family="sans-serif" font-size="11" font-style="italic" lengthAdjust="spacingAndGlyphs" textLength="109" x="257" y="145.6221">getBendpoints(): EList</text><ellipse cx="248" cy="155.0391" fill="#84BE84" rx="3" ry="3" style="stroke: #038048; stroke-width: 1.0;"/><text fill="#000000" font-family="sans-serif" font-size="11" font-style="italic" lengthAdjust="spacingAndGlyphs" textLength="133" x="257" y="159.458">getSourceEndPoint(): Point</text><ellipse cx="248" cy="168.875" fill="#84BE84" rx="3" ry="3" style="stroke: #038048; stroke-width: 1.0;"/><text fill="#000000" font-family="sans-serif" font-size="11" font-style="italic" lengthAdjust="spacingAndGlyphs" textLength="153" x="257" y="173.2939">setSourceEndPoint(Point): void</text><ellipse cx="248" cy="182.7109" fill="#84BE84" rx="3" ry="3" style="stroke: #038048; stroke-width: 1.0;"/><text fill="#000000" font-family="sans-serif" font-size="11" font-style="italic" lengthAdjust="spacingAndGlyphs" textLength="130" x="257" y="187.1299">getTargetEndPoint(): Point</text><ellipse cx="248" cy="196.5469" fill="#84BE84" rx="3" ry="3" style="stroke: #038048; stroke-width: 1.0;"/><text fill="#000000" font-family="sans-serif" font-size="11" font-style="italic" lengthAdjust="spacingAndGlyphs" textLength="150" x="257" y="200.9658">setTargetEndPoint(Point): void</text></a><!--MD5=[9459e10d77b60ff7d86739cddc9ea5e9]
reverse link org.eclipse.epf.diagram.model.impl.LinkedObjectImpl to org.eclipse.epf.diagram.model.impl.LinkImpl--><path codeLine="44" d="M117.37,145.99 C127.68,176.39 142.91,221.33 158.32,266.78 " fill="none" id="org.eclipse.epf.diagram.model.impl.LinkedObjectImpl-backto-org.eclipse.epf.diagram.model.impl.LinkImpl" style="stroke: #A80036; stroke-width: 1.0;"/><polygon fill="none" points="110.74,148.21,110.95,127.02,124,143.72,110.74,148.21" style="stroke: #A80036; stroke-width: 1.0;"/><!--MD5=[0bb5defb4e7e972d1b438e19bfb08075]
reverse link org.eclipse.epf.diagram.model.Link to org.eclipse.epf.diagram.model.impl.LinkImpl--><path codeLine="45" d="M286.45,226.17 C281.97,239.4 277.34,253.05 272.69,266.76 " fill="none" id="org.eclipse.epf.diagram.model.Link-backto-org.eclipse.epf.diagram.model.impl.LinkImpl" style="stroke: #A80036; stroke-width: 1.0; stroke-dasharray: 7.0,7.0;"/><polygon fill="none" points="279.85,223.84,292.9,207.15,293.1,228.34,279.85,223.84" style="stroke: #A80036; stroke-width: 1.0;"/><text fill="#888888" font-family="sans-serif" font-size="10" lengthAdjust="spacingAndGlyphs" textLength="190" x="113.5" y="629.123">UMLDoclet 2.0.12, PlantUML 1.2020.16</text><!--MD5=[52a0148baee15e4acc3f347d1f094cf7]
@startuml
    set namespaceSeparator none
    hide empty fields
    hide empty methods

    class "<size:14>LinkImpl\n<size:10>org.eclipse.epf.diagram.model.impl" as org.eclipse.epf.diagram.model.impl.LinkImpl [[LinkImpl.html]] {
        +getName(): String
        +setName(String): void
        +getSource(): Node
        +basicSetSource(Node, NotificationChain): NotificationChain
        +setSource(Node): void
        +getTarget(): Node
        +basicGetTarget(): Node
        +basicSetTarget(Node, NotificationChain): NotificationChain
        +setTarget(Node): void
        +getBendpoints(): EList
        +getSourceEndPoint(): Point
        +setSourceEndPoint(Point): void
        +getTargetEndPoint(): Point
        +setTargetEndPoint(Point): void
        +eInverseAdd(InternalEObject, int, NotificationChain): NotificationChain
        +eInverseRemove(InternalEObject, int, NotificationChain): NotificationChain
        +eBasicRemoveFromContainerFeature(NotificationChain): NotificationChain
        +eGet(int, boolean, boolean): Object
        +eSet(int, Object): void
        +eUnset(int): void
        +eIsSet(int): boolean
    }

    abstract class "<size:14>LinkedObjectImpl\n<size:10>org.eclipse.epf.diagram.model.impl" as org.eclipse.epf.diagram.model.impl.LinkedObjectImpl [[LinkedObjectImpl.html]]
    interface "<size:14>Link\n<size:10>org.eclipse.epf.diagram.model" as org.eclipse.epf.diagram.model.Link [[..\Link.html]] {
        {abstract} +getName(): String
        {abstract} +setName(String): void
        {abstract} +getSource(): Node
        {abstract} +setSource(Node): void
        {abstract} +getTarget(): Node
        {abstract} +setTarget(Node): void
        {abstract} +getBendpoints(): EList
        {abstract} +getSourceEndPoint(): Point
        {abstract} +setSourceEndPoint(Point): void
        {abstract} +getTargetEndPoint(): Point
        {abstract} +setTargetEndPoint(Point): void
    }

    org.eclipse.epf.diagram.model.impl.LinkedObjectImpl <|- - org.eclipse.epf.diagram.model.impl.LinkImpl
    org.eclipse.epf.diagram.model.Link <|.. org.eclipse.epf.diagram.model.impl.LinkImpl

    center footer UMLDoclet 2.0.12, PlantUML 1.2020.16
@enduml

PlantUML version 1.2020.16(Sun Aug 23 22:20:43 CEST 2020)
(APACHE source distribution)
Java Runtime: Java(TM) SE Runtime Environment
JVM: Java HotSpot(TM) 64-Bit Server VM
Default Encoding: Cp1252
Language: es
Country: ES
--></g></svg>