<?xml version="1.0" encoding="UTF-8" standalone="no"?><svg xmlns="http://www.w3.org/2000/svg" xmlns:xlink="http://www.w3.org/1999/xlink" contentScriptType="application/ecmascript" contentStyleType="text/css" height="767px" preserveAspectRatio="none" style="width:627px;height:767px;" version="1.1" viewBox="0 0 627 767" width="627px" zoomAndPan="magnify"><defs><filter height="300%" id="f9zdm3fxfvp23" width="300%" x="-1" y="-1"><feGaussianBlur result="blurOut" stdDeviation="2.0"/><feColorMatrix in="blurOut" result="blurOut2" type="matrix" values="0 0 0 0 0 0 0 0 0 0 0 0 0 0 0 0 0 0 .4 0"/><feOffset dx="4.0" dy="4.0" in="blurOut2" result="blurOut3"/><feBlend in="SourceGraphic" in2="blurOut3" mode="normal"/></filter></defs><g><!--MD5=[97cca3b166f5c726cf89ce456017f420]
class org.eclipse.epf.diagram.model.impl.ModelFactoryImpl--><a href="ModelFactoryImpl.html" target="_top" title="ModelFactoryImpl.html" xlink:actuate="onRequest" xlink:href="ModelFactoryImpl.html" xlink:show="new" xlink:title="ModelFactoryImpl.html" xlink:type="simple"><rect codeLine="5" fill="#FEFECE" filter="url(#f9zdm3fxfvp23)" height="407.9219" id="org.eclipse.epf.diagram.model.impl.ModelFactoryImpl" style="stroke: #A80036; stroke-width: 1.5;" width="395" x="48" y="323"/><ellipse cx="156.75" cy="343.0938" fill="#ADD1B2" rx="11" ry="11" style="stroke: #A80036; stroke-width: 1.0;"/><path d="M159.5156,338.9688 Q159.6719,338.75 159.8594,338.6406 Q160.0469,338.5313 160.2656,338.5313 Q160.6406,338.5313 160.875,338.7969 Q161.1094,339.0469 161.1094,339.6563 L161.1094,341.1094 Q161.1094,341.7188 160.875,341.9844 Q160.6406,342.25 160.2656,342.25 Q159.9219,342.25 159.7188,342.0469 Q159.5156,341.8594 159.4063,341.3438 Q159.3594,340.9844 159.1719,340.7969 Q158.8438,340.4219 158.2344,340.2031 Q157.625,339.9844 157,339.9844 Q156.2344,339.9844 155.5938,340.3125 Q154.9688,340.6406 154.4688,341.3906 Q153.9844,342.1406 153.9844,343.1719 L153.9844,344.2656 Q153.9844,345.5 154.875,346.3281 Q155.7656,347.1406 157.3594,347.1406 Q158.2969,347.1406 158.9531,346.8906 Q159.3438,346.7344 159.7656,346.2969 Q160.0313,346.0313 160.1719,345.9531 Q160.3281,345.875 160.5313,345.875 Q160.8594,345.875 161.1094,346.1406 Q161.375,346.3906 161.375,346.7344 Q161.375,347.0781 161.0313,347.4844 Q160.5313,348.0625 159.7344,348.3906 Q158.6563,348.8438 157.3594,348.8438 Q155.8438,348.8438 154.6406,348.2188 Q153.6563,347.7188 152.9688,346.6563 Q152.2813,345.5781 152.2813,344.2969 L152.2813,343.1406 Q152.2813,341.8125 152.8906,340.6719 Q153.5156,339.5156 154.6094,338.9063 Q155.7031,338.2813 156.9375,338.2813 Q157.6719,338.2813 158.3125,338.4531 Q158.9688,338.6094 159.5156,338.9688 Z "/><text fill="#000000" font-family="sans-serif" font-size="14" lengthAdjust="spacingAndGlyphs" textLength="111" x="206.25" y="342.5332">ModelFactoryImpl</text><text fill="#000000" font-family="sans-serif" font-size="10" lengthAdjust="spacingAndGlyphs" textLength="169" x="177.25" y="355.9902">org.eclipse.epf.diagram.model.impl</text><line style="stroke: #A80036; stroke-width: 1.5;" x1="49" x2="442" y1="363.1875" y2="363.1875"/><ellipse cx="59" cy="374.1875" fill="#84BE84" rx="3" ry="3" style="stroke: #038048; stroke-width: 1.0;"/><text fill="#000000" font-family="sans-serif" font-size="11" lengthAdjust="spacingAndGlyphs" text-decoration="underline" textLength="92" x="68" y="378.6064">init(): ModelFactory</text><ellipse cx="59" cy="388.0234" fill="#84BE84" rx="3" ry="3" style="stroke: #038048; stroke-width: 1.0;"/><text fill="#000000" font-family="sans-serif" font-size="11" lengthAdjust="spacingAndGlyphs" textLength="115" x="68" y="392.4424">create(EClass): EObject</text><ellipse cx="59" cy="401.8594" fill="#84BE84" rx="3" ry="3" style="stroke: #038048; stroke-width: 1.0;"/><text fill="#000000" font-family="sans-serif" font-size="11" lengthAdjust="spacingAndGlyphs" textLength="214" x="68" y="406.2783">createFromString(EDataType, String): Object</text><ellipse cx="59" cy="415.6953" fill="#84BE84" rx="3" ry="3" style="stroke: #038048; stroke-width: 1.0;"/><text fill="#000000" font-family="sans-serif" font-size="11" lengthAdjust="spacingAndGlyphs" textLength="208" x="68" y="420.1143">convertToString(EDataType, Object): String</text><ellipse cx="59" cy="429.5313" fill="#84BE84" rx="3" ry="3" style="stroke: #038048; stroke-width: 1.0;"/><text fill="#000000" font-family="sans-serif" font-size="11" lengthAdjust="spacingAndGlyphs" textLength="123" x="68" y="433.9502">createDiagram(): Diagram</text><ellipse cx="59" cy="443.3672" fill="#84BE84" rx="3" ry="3" style="stroke: #038048; stroke-width: 1.0;"/><text fill="#000000" font-family="sans-serif" font-size="11" lengthAdjust="spacingAndGlyphs" textLength="83" x="68" y="447.7861">createLink(): Link</text><ellipse cx="59" cy="457.2031" fill="#84BE84" rx="3" ry="3" style="stroke: #038048; stroke-width: 1.0;"/><text fill="#000000" font-family="sans-serif" font-size="11" lengthAdjust="spacingAndGlyphs" textLength="161" x="68" y="461.6221">createNamedNode(): NamedNode</text><ellipse cx="59" cy="471.0391" fill="#84BE84" rx="3" ry="3" style="stroke: #038048; stroke-width: 1.0;"/><text fill="#000000" font-family="sans-serif" font-size="11" lengthAdjust="spacingAndGlyphs" textLength="195" x="68" y="475.458">createActivityDiagram(): ActivityDiagram</text><ellipse cx="59" cy="484.875" fill="#84BE84" rx="3" ry="3" style="stroke: #038048; stroke-width: 1.0;"/><text fill="#000000" font-family="sans-serif" font-size="11" lengthAdjust="spacingAndGlyphs" textLength="155" x="68" y="489.2939">createTypedNode(): TypedNode</text><ellipse cx="59" cy="498.7109" fill="#84BE84" rx="3" ry="3" style="stroke: #038048; stroke-width: 1.0;"/><text fill="#000000" font-family="sans-serif" font-size="11" lengthAdjust="spacingAndGlyphs" textLength="369" x="68" y="503.1299">createWorkProductDependencyDiagram(): WorkProductDependencyDiagram</text><ellipse cx="59" cy="512.5469" fill="#84BE84" rx="3" ry="3" style="stroke: #038048; stroke-width: 1.0;"/><text fill="#000000" font-family="sans-serif" font-size="11" lengthAdjust="spacingAndGlyphs" textLength="219" x="68" y="516.9658">createWorkProductNode(): WorkProductNode</text><ellipse cx="59" cy="526.3828" fill="#84BE84" rx="3" ry="3" style="stroke: #038048; stroke-width: 1.0;"/><text fill="#000000" font-family="sans-serif" font-size="11" lengthAdjust="spacingAndGlyphs" textLength="247" x="68" y="530.8018">createActivityDetailDiagram(): ActivityDetailDiagram</text><ellipse cx="59" cy="540.2188" fill="#84BE84" rx="3" ry="3" style="stroke: #038048; stroke-width: 1.0;"/><text fill="#000000" font-family="sans-serif" font-size="11" lengthAdjust="spacingAndGlyphs" textLength="137" x="68" y="544.6377">createRoleNode(): RoleNode</text><ellipse cx="59" cy="554.0547" fill="#84BE84" rx="3" ry="3" style="stroke: #038048; stroke-width: 1.0;"/><text fill="#000000" font-family="sans-serif" font-size="11" lengthAdjust="spacingAndGlyphs" textLength="233" x="68" y="558.4736">createRoleTaskComposite(): RoleTaskComposite</text><ellipse cx="59" cy="567.8906" fill="#84BE84" rx="3" ry="3" style="stroke: #038048; stroke-width: 1.0;"/><text fill="#000000" font-family="sans-serif" font-size="11" lengthAdjust="spacingAndGlyphs" textLength="141" x="68" y="572.3096">createTaskNode(): TaskNode</text><ellipse cx="59" cy="581.7266" fill="#84BE84" rx="3" ry="3" style="stroke: #038048; stroke-width: 1.0;"/><text fill="#000000" font-family="sans-serif" font-size="11" lengthAdjust="spacingAndGlyphs" textLength="319" x="68" y="586.1455">createWorkProductDescriptorNode(): WorkProductDescriptorNode</text><ellipse cx="59" cy="595.5625" fill="#84BE84" rx="3" ry="3" style="stroke: #038048; stroke-width: 1.0;"/><text fill="#000000" font-family="sans-serif" font-size="11" lengthAdjust="spacingAndGlyphs" textLength="331" x="68" y="599.9814">createWorkBreakdownElementNode(): WorkBreakdownElementNode</text><ellipse cx="59" cy="609.3984" fill="#84BE84" rx="3" ry="3" style="stroke: #038048; stroke-width: 1.0;"/><text fill="#000000" font-family="sans-serif" font-size="11" lengthAdjust="spacingAndGlyphs" textLength="269" x="68" y="613.8174">createWorkProductComposite(): WorkProductComposite</text><ellipse cx="59" cy="623.2344" fill="#84BE84" rx="3" ry="3" style="stroke: #038048; stroke-width: 1.0;"/><text fill="#000000" font-family="sans-serif" font-size="11" lengthAdjust="spacingAndGlyphs" textLength="365" x="68" y="627.6533">createAbsoluteBendpointFromString(EDataType, String): AbsoluteBendpoint</text><ellipse cx="59" cy="637.0703" fill="#84BE84" rx="3" ry="3" style="stroke: #038048; stroke-width: 1.0;"/><text fill="#000000" font-family="sans-serif" font-size="11" lengthAdjust="spacingAndGlyphs" textLength="299" x="68" y="641.4893">convertAbsoluteBendpointToString(EDataType, Object): String</text><ellipse cx="59" cy="650.9063" fill="#84BE84" rx="3" ry="3" style="stroke: #038048; stroke-width: 1.0;"/><text fill="#000000" font-family="sans-serif" font-size="11" lengthAdjust="spacingAndGlyphs" textLength="229" x="68" y="655.3252">createPointFromString(EDataType, String): Point</text><ellipse cx="59" cy="664.7422" fill="#84BE84" rx="3" ry="3" style="stroke: #038048; stroke-width: 1.0;"/><text fill="#000000" font-family="sans-serif" font-size="11" lengthAdjust="spacingAndGlyphs" textLength="231" x="68" y="669.1611">convertPointToString(EDataType, Object): String</text><ellipse cx="59" cy="678.5781" fill="#84BE84" rx="3" ry="3" style="stroke: #038048; stroke-width: 1.0;"/><text fill="#000000" font-family="sans-serif" font-size="11" lengthAdjust="spacingAndGlyphs" textLength="325" x="68" y="682.9971">createRoleDescriptorFromString(EDataType, String): RoleDescriptor</text><ellipse cx="59" cy="692.4141" fill="#84BE84" rx="3" ry="3" style="stroke: #038048; stroke-width: 1.0;"/><text fill="#000000" font-family="sans-serif" font-size="11" lengthAdjust="spacingAndGlyphs" textLength="279" x="68" y="696.833">convertRoleDescriptorToString(EDataType, Object): String</text><ellipse cx="59" cy="706.25" fill="#84BE84" rx="3" ry="3" style="stroke: #038048; stroke-width: 1.0;"/><text fill="#000000" font-family="sans-serif" font-size="11" lengthAdjust="spacingAndGlyphs" textLength="167" x="68" y="710.6689">getModelPackage(): ModelPackage</text><ellipse cx="59" cy="720.0859" fill="#84BE84" rx="3" ry="3" style="stroke: #038048; stroke-width: 1.0;"/><text fill="#000000" font-family="sans-serif" font-size="11" lengthAdjust="spacingAndGlyphs" text-decoration="underline" textLength="56" x="68" y="724.5049">getPackage</text><text fill="#000000" font-family="sans-serif" font-size="11" lengthAdjust="spacingAndGlyphs" text-decoration="underline" textLength="83" x="124" y="724.5049">(): ModelPackage</text></a><!--MD5=[5b3b522f2c2eee82105fa7c7ca43f80a]
class org.eclipse.emf.ecore.impl.EFactoryImpl--><rect codeLine="34" fill="#FEFECE" filter="url(#f9zdm3fxfvp23)" height="40.1875" id="org.eclipse.emf.ecore.impl.EFactoryImpl" style="stroke: #A80036; stroke-width: 1.5;" width="159" x="7" y="115"/><ellipse cx="22" cy="135.0938" fill="#ADD1B2" rx="11" ry="11" style="stroke: #A80036; stroke-width: 1.0;"/><path d="M24.7656,130.9688 Q24.9219,130.75 25.1094,130.6406 Q25.2969,130.5313 25.5156,130.5313 Q25.8906,130.5313 26.125,130.7969 Q26.3594,131.0469 26.3594,131.6563 L26.3594,133.1094 Q26.3594,133.7188 26.125,133.9844 Q25.8906,134.25 25.5156,134.25 Q25.1719,134.25 24.9688,134.0469 Q24.7656,133.8594 24.6563,133.3438 Q24.6094,132.9844 24.4219,132.7969 Q24.0938,132.4219 23.4844,132.2031 Q22.875,131.9844 22.25,131.9844 Q21.4844,131.9844 20.8438,132.3125 Q20.2188,132.6406 19.7188,133.3906 Q19.2344,134.1406 19.2344,135.1719 L19.2344,136.2656 Q19.2344,137.5 20.125,138.3281 Q21.0156,139.1406 22.6094,139.1406 Q23.5469,139.1406 24.2031,138.8906 Q24.5938,138.7344 25.0156,138.2969 Q25.2813,138.0313 25.4219,137.9531 Q25.5781,137.875 25.7813,137.875 Q26.1094,137.875 26.3594,138.1406 Q26.625,138.3906 26.625,138.7344 Q26.625,139.0781 26.2813,139.4844 Q25.7813,140.0625 24.9844,140.3906 Q23.9063,140.8438 22.6094,140.8438 Q21.0938,140.8438 19.8906,140.2188 Q18.9063,139.7188 18.2188,138.6563 Q17.5313,137.5781 17.5313,136.2969 L17.5313,135.1406 Q17.5313,133.8125 18.1406,132.6719 Q18.7656,131.5156 19.8594,130.9063 Q20.9531,130.2813 22.1875,130.2813 Q22.9219,130.2813 23.5625,130.4531 Q24.2188,130.6094 24.7656,130.9688 Z "/><text fill="#000000" font-family="sans-serif" font-size="14" lengthAdjust="spacingAndGlyphs" textLength="82" x="58.5" y="134.5332">EFactoryImpl</text><text fill="#000000" font-family="sans-serif" font-size="10" lengthAdjust="spacingAndGlyphs" textLength="127" x="36" y="147.9902">org.eclipse.emf.ecore.impl</text><!--MD5=[cdf2ccbd329d697f337652029c16fea2]
class org.eclipse.epf.diagram.model.ModelFactory--><a href="..\ModelFactory.html" target="_top" title="..\ModelFactory.html" xlink:actuate="onRequest" xlink:href="..\ModelFactory.html" xlink:show="new" xlink:title="..\ModelFactory.html" xlink:type="simple"><rect codeLine="35" fill="#FEFECE" filter="url(#f9zdm3fxfvp23)" height="255.7266" id="org.eclipse.epf.diagram.model.ModelFactory" style="stroke: #A80036; stroke-width: 1.5;" width="407" x="201" y="7"/><ellipse cx="329.75" cy="27.0938" fill="#B4A7E5" rx="11" ry="11" style="stroke: #A80036; stroke-width: 1.0;"/><path d="M330.7031,23.7344 L330.7031,30.3906 L332.4219,30.3906 Q333.0313,30.3906 333.2969,30.625 Q333.5625,30.8594 333.5625,31.25 Q333.5625,31.625 333.2969,31.8594 Q333.0313,32.0938 332.4219,32.0938 L327.2813,32.0938 Q326.6719,32.0938 326.4063,31.8594 Q326.1406,31.625 326.1406,31.2344 Q326.1406,30.8594 326.4063,30.625 Q326.6719,30.3906 327.2813,30.3906 L329,30.3906 L329,23.7344 L327.2813,23.7344 Q326.6719,23.7344 326.4063,23.5 Q326.1406,23.2656 326.1406,22.875 Q326.1406,22.5 326.4063,22.2656 Q326.6719,22.0313 327.2813,22.0313 L332.4219,22.0313 Q333.0313,22.0313 333.2969,22.2656 Q333.5625,22.5 333.5625,22.875 Q333.5625,23.2656 333.2969,23.5 Q333.0313,23.7344 332.4219,23.7344 L330.7031,23.7344 Z "/><text fill="#000000" font-family="sans-serif" font-size="14" font-style="italic" lengthAdjust="spacingAndGlyphs" textLength="87" x="377.25" y="26.5332">ModelFactory</text><text fill="#000000" font-family="sans-serif" font-size="10" font-style="italic" lengthAdjust="spacingAndGlyphs" textLength="141" x="350.25" y="39.9902">org.eclipse.epf.diagram.model</text><line style="stroke: #A80036; stroke-width: 1.5;" x1="202" x2="607" y1="47.1875" y2="47.1875"/><ellipse cx="212" cy="58.1875" fill="#84BE84" rx="3" ry="3" style="stroke: #038048; stroke-width: 1.0;"/><text fill="#000000" font-family="sans-serif" font-size="11" font-style="italic" lengthAdjust="spacingAndGlyphs" textLength="129" x="221" y="62.6064">createDiagram(): Diagram</text><ellipse cx="212" cy="72.0234" fill="#84BE84" rx="3" ry="3" style="stroke: #038048; stroke-width: 1.0;"/><text fill="#000000" font-family="sans-serif" font-size="11" font-style="italic" lengthAdjust="spacingAndGlyphs" textLength="87" x="221" y="76.4424">createLink(): Link</text><ellipse cx="212" cy="85.8594" fill="#84BE84" rx="3" ry="3" style="stroke: #038048; stroke-width: 1.0;"/><text fill="#000000" font-family="sans-serif" font-size="11" font-style="italic" lengthAdjust="spacingAndGlyphs" textLength="167" x="221" y="90.2783">createNamedNode(): NamedNode</text><ellipse cx="212" cy="99.6953" fill="#84BE84" rx="3" ry="3" style="stroke: #038048; stroke-width: 1.0;"/><text fill="#000000" font-family="sans-serif" font-size="11" font-style="italic" lengthAdjust="spacingAndGlyphs" textLength="199" x="221" y="104.1143">createActivityDiagram(): ActivityDiagram</text><ellipse cx="212" cy="113.5313" fill="#84BE84" rx="3" ry="3" style="stroke: #038048; stroke-width: 1.0;"/><text fill="#000000" font-family="sans-serif" font-size="11" font-style="italic" lengthAdjust="spacingAndGlyphs" textLength="157" x="221" y="117.9502">createTypedNode(): TypedNode</text><ellipse cx="212" cy="127.3672" fill="#84BE84" rx="3" ry="3" style="stroke: #038048; stroke-width: 1.0;"/><text fill="#000000" font-family="sans-serif" font-size="11" font-style="italic" lengthAdjust="spacingAndGlyphs" textLength="381" x="221" y="131.7861">createWorkProductDependencyDiagram(): WorkProductDependencyDiagram</text><ellipse cx="212" cy="141.2031" fill="#84BE84" rx="3" ry="3" style="stroke: #038048; stroke-width: 1.0;"/><text fill="#000000" font-family="sans-serif" font-size="11" font-style="italic" lengthAdjust="spacingAndGlyphs" textLength="227" x="221" y="145.6221">createWorkProductNode(): WorkProductNode</text><ellipse cx="212" cy="155.0391" fill="#84BE84" rx="3" ry="3" style="stroke: #038048; stroke-width: 1.0;"/><text fill="#000000" font-family="sans-serif" font-size="11" font-style="italic" lengthAdjust="spacingAndGlyphs" textLength="257" x="221" y="159.458">createActivityDetailDiagram(): ActivityDetailDiagram</text><ellipse cx="212" cy="168.875" fill="#84BE84" rx="3" ry="3" style="stroke: #038048; stroke-width: 1.0;"/><text fill="#000000" font-family="sans-serif" font-size="11" font-style="italic" lengthAdjust="spacingAndGlyphs" textLength="143" x="221" y="173.2939">createRoleNode(): RoleNode</text><ellipse cx="212" cy="182.7109" fill="#84BE84" rx="3" ry="3" style="stroke: #038048; stroke-width: 1.0;"/><text fill="#000000" font-family="sans-serif" font-size="11" font-style="italic" lengthAdjust="spacingAndGlyphs" textLength="247" x="221" y="187.1299">createRoleTaskComposite(): RoleTaskComposite</text><ellipse cx="212" cy="196.5469" fill="#84BE84" rx="3" ry="3" style="stroke: #038048; stroke-width: 1.0;"/><text fill="#000000" font-family="sans-serif" font-size="11" font-style="italic" lengthAdjust="spacingAndGlyphs" textLength="147" x="221" y="200.9658">createTaskNode(): TaskNode</text><ellipse cx="212" cy="210.3828" fill="#84BE84" rx="3" ry="3" style="stroke: #038048; stroke-width: 1.0;"/><text fill="#000000" font-family="sans-serif" font-size="11" font-style="italic" lengthAdjust="spacingAndGlyphs" textLength="331" x="221" y="214.8018">createWorkProductDescriptorNode(): WorkProductDescriptorNode</text><ellipse cx="212" cy="224.2188" fill="#84BE84" rx="3" ry="3" style="stroke: #038048; stroke-width: 1.0;"/><text fill="#000000" font-family="sans-serif" font-size="11" font-style="italic" lengthAdjust="spacingAndGlyphs" textLength="339" x="221" y="228.6377">createWorkBreakdownElementNode(): WorkBreakdownElementNode</text><ellipse cx="212" cy="238.0547" fill="#84BE84" rx="3" ry="3" style="stroke: #038048; stroke-width: 1.0;"/><text fill="#000000" font-family="sans-serif" font-size="11" font-style="italic" lengthAdjust="spacingAndGlyphs" textLength="281" x="221" y="242.4736">createWorkProductComposite(): WorkProductComposite</text><ellipse cx="212" cy="251.8906" fill="#84BE84" rx="3" ry="3" style="stroke: #038048; stroke-width: 1.0;"/><text fill="#000000" font-family="sans-serif" font-size="11" font-style="italic" lengthAdjust="spacingAndGlyphs" textLength="175" x="221" y="256.3096">getModelPackage(): ModelPackage</text></a><!--MD5=[66662a82bcfddd55142caac097025a08]
reverse link org.eclipse.emf.ecore.impl.EFactoryImpl to org.eclipse.epf.diagram.model.impl.ModelFactoryImpl--><path codeLine="53" d="M101.97,173.94 C116.46,209.49 139.33,265.58 162.59,322.63 " fill="none" id="org.eclipse.emf.ecore.impl.EFactoryImpl-backto-org.eclipse.epf.diagram.model.impl.ModelFactoryImpl" style="stroke: #A80036; stroke-width: 1.0;"/><polygon fill="none" points="95.35,176.24,94.28,155.07,108.31,170.95,95.35,176.24" style="stroke: #A80036; stroke-width: 1.0;"/><!--MD5=[4d7e965e0bf705cffcf3de62e0dc0621]
reverse link org.eclipse.epf.diagram.model.ModelFactory to org.eclipse.epf.diagram.model.impl.ModelFactoryImpl--><path codeLine="54" d="M345.01,281.92 C339.53,295.36 333.91,309.14 328.27,322.97 " fill="none" id="org.eclipse.epf.diagram.model.ModelFactory-backto-org.eclipse.epf.diagram.model.impl.ModelFactoryImpl" style="stroke: #A80036; stroke-width: 1.0; stroke-dasharray: 7.0,7.0;"/><polygon fill="none" points="338.62,279.04,352.66,263.16,351.59,284.32,338.62,279.04" style="stroke: #A80036; stroke-width: 1.0;"/><text fill="#888888" font-family="sans-serif" font-size="10" lengthAdjust="spacingAndGlyphs" textLength="190" x="209.5" y="754.3027">UMLDoclet 2.0.12, PlantUML 1.2020.16</text><!--MD5=[2d41e80de56d2d29068cab6900801112]
@startuml
    set namespaceSeparator none
    hide empty fields
    hide empty methods

    class "<size:14>ModelFactoryImpl\n<size:10>org.eclipse.epf.diagram.model.impl" as org.eclipse.epf.diagram.model.impl.ModelFactoryImpl [[ModelFactoryImpl.html]] {
        {static} +init(): ModelFactory
        +create(EClass): EObject
        +createFromString(EDataType, String): Object
        +convertToString(EDataType, Object): String
        +createDiagram(): Diagram
        +createLink(): Link
        +createNamedNode(): NamedNode
        +createActivityDiagram(): ActivityDiagram
        +createTypedNode(): TypedNode
        +createWorkProductDependencyDiagram(): WorkProductDependencyDiagram
        +createWorkProductNode(): WorkProductNode
        +createActivityDetailDiagram(): ActivityDetailDiagram
        +createRoleNode(): RoleNode
        +createRoleTaskComposite(): RoleTaskComposite
        +createTaskNode(): TaskNode
        +createWorkProductDescriptorNode(): WorkProductDescriptorNode
        +createWorkBreakdownElementNode(): WorkBreakdownElementNode
        +createWorkProductComposite(): WorkProductComposite
        +createAbsoluteBendpointFromString(EDataType, String): AbsoluteBendpoint
        +convertAbsoluteBendpointToString(EDataType, Object): String
        +createPointFromString(EDataType, String): Point
        +convertPointToString(EDataType, Object): String
        +createRoleDescriptorFromString(EDataType, String): RoleDescriptor
        +convertRoleDescriptorToString(EDataType, Object): String
        +getModelPackage(): ModelPackage
        {static} +- -getPackage- -(): ModelPackage
    }

    class "<size:14>EFactoryImpl\n<size:10>org.eclipse.emf.ecore.impl" as org.eclipse.emf.ecore.impl.EFactoryImpl
    interface "<size:14>ModelFactory\n<size:10>org.eclipse.epf.diagram.model" as org.eclipse.epf.diagram.model.ModelFactory [[..\ModelFactory.html]] {
        {abstract} +createDiagram(): Diagram
        {abstract} +createLink(): Link
        {abstract} +createNamedNode(): NamedNode
        {abstract} +createActivityDiagram(): ActivityDiagram
        {abstract} +createTypedNode(): TypedNode
        {abstract} +createWorkProductDependencyDiagram(): WorkProductDependencyDiagram
        {abstract} +createWorkProductNode(): WorkProductNode
        {abstract} +createActivityDetailDiagram(): ActivityDetailDiagram
        {abstract} +createRoleNode(): RoleNode
        {abstract} +createRoleTaskComposite(): RoleTaskComposite
        {abstract} +createTaskNode(): TaskNode
        {abstract} +createWorkProductDescriptorNode(): WorkProductDescriptorNode
        {abstract} +createWorkBreakdownElementNode(): WorkBreakdownElementNode
        {abstract} +createWorkProductComposite(): WorkProductComposite
        {abstract} +getModelPackage(): ModelPackage
    }

    org.eclipse.emf.ecore.impl.EFactoryImpl <|- - org.eclipse.epf.diagram.model.impl.ModelFactoryImpl
    org.eclipse.epf.diagram.model.ModelFactory <|.. org.eclipse.epf.diagram.model.impl.ModelFactoryImpl

    center footer UMLDoclet 2.0.12, PlantUML 1.2020.16
@enduml

PlantUML version 1.2020.16(Sun Aug 23 22:20:43 CEST 2020)
(APACHE source distribution)
Java Runtime: Java(TM) SE Runtime Environment
JVM: Java HotSpot(TM) 64-Bit Server VM
Default Encoding: Cp1252
Language: es
Country: ES
--></g></svg>