<?xml version="1.0" encoding="UTF-8" standalone="no"?><svg xmlns="http://www.w3.org/2000/svg" xmlns:xlink="http://www.w3.org/1999/xlink" contentScriptType="application/ecmascript" contentStyleType="text/css" height="1431px" preserveAspectRatio="none" style="width:490px;height:1431px;" version="1.1" viewBox="0 0 490 1431" width="490px" zoomAndPan="magnify"><defs><filter height="300%" id="ffei9ahmtp4kl" width="300%" x="-1" y="-1"><feGaussianBlur result="blurOut" stdDeviation="2.0"/><feColorMatrix in="blurOut" result="blurOut2" type="matrix" values="0 0 0 0 0 0 0 0 0 0 0 0 0 0 0 0 0 0 .4 0"/><feOffset dx="4.0" dy="4.0" in="blurOut2" result="blurOut3"/><feBlend in="SourceGraphic" in2="blurOut3" mode="normal"/></filter></defs><g><!--MD5=[04a226859f8a134e869e5821df3ec2cd]
class org.eclipse.epf.diagram.model.impl.ModelPackageImpl--><a href="ModelPackageImpl.html" target="_top" title="ModelPackageImpl.html" xlink:actuate="onRequest" xlink:href="ModelPackageImpl.html" xlink:show="new" xlink:title="ModelPackageImpl.html" xlink:type="simple"><rect codeLine="5" fill="#FEFECE" filter="url(#ffei9ahmtp4kl)" height="684.6406" id="org.eclipse.epf.diagram.model.impl.ModelPackageImpl" style="stroke: #A80036; stroke-width: 1.5;" width="265" x="79" y="710"/><ellipse cx="122.8" cy="730.0938" fill="#ADD1B2" rx="11" ry="11" style="stroke: #A80036; stroke-width: 1.0;"/><path d="M125.5656,725.9688 Q125.7219,725.75 125.9094,725.6406 Q126.0969,725.5313 126.3156,725.5313 Q126.6906,725.5313 126.925,725.7969 Q127.1594,726.0469 127.1594,726.6563 L127.1594,728.1094 Q127.1594,728.7188 126.925,728.9844 Q126.6906,729.25 126.3156,729.25 Q125.9719,729.25 125.7688,729.0469 Q125.5656,728.8594 125.4563,728.3438 Q125.4094,727.9844 125.2219,727.7969 Q124.8938,727.4219 124.2844,727.2031 Q123.675,726.9844 123.05,726.9844 Q122.2844,726.9844 121.6438,727.3125 Q121.0188,727.6406 120.5188,728.3906 Q120.0344,729.1406 120.0344,730.1719 L120.0344,731.2656 Q120.0344,732.5 120.925,733.3281 Q121.8156,734.1406 123.4094,734.1406 Q124.3469,734.1406 125.0031,733.8906 Q125.3938,733.7344 125.8156,733.2969 Q126.0813,733.0313 126.2219,732.9531 Q126.3781,732.875 126.5813,732.875 Q126.9094,732.875 127.1594,733.1406 Q127.425,733.3906 127.425,733.7344 Q127.425,734.0781 127.0813,734.4844 Q126.5813,735.0625 125.7844,735.3906 Q124.7063,735.8438 123.4094,735.8438 Q121.8938,735.8438 120.6906,735.2188 Q119.7063,734.7188 119.0188,733.6563 Q118.3313,732.5781 118.3313,731.2969 L118.3313,730.1406 Q118.3313,728.8125 118.9406,727.6719 Q119.5656,726.5156 120.6594,725.9063 Q121.7531,725.2813 122.9875,725.2813 Q123.7219,725.2813 124.3625,725.4531 Q125.0188,725.6094 125.5656,725.9688 Z "/><text fill="#000000" font-family="sans-serif" font-size="14" lengthAdjust="spacingAndGlyphs" textLength="118" x="168.7" y="729.5332">ModelPackageImpl</text><text fill="#000000" font-family="sans-serif" font-size="10" lengthAdjust="spacingAndGlyphs" textLength="169" x="143.2" y="742.9902">org.eclipse.epf.diagram.model.impl</text><line style="stroke: #A80036; stroke-width: 1.5;" x1="80" x2="343" y1="750.1875" y2="750.1875"/><ellipse cx="90" cy="761.1875" fill="#84BE84" rx="3" ry="3" style="stroke: #038048; stroke-width: 1.0;"/><text fill="#000000" font-family="sans-serif" font-size="11" lengthAdjust="spacingAndGlyphs" text-decoration="underline" textLength="96" x="99" y="765.6064">init(): ModelPackage</text><ellipse cx="90" cy="775.0234" fill="#84BE84" rx="3" ry="3" style="stroke: #038048; stroke-width: 1.0;"/><text fill="#000000" font-family="sans-serif" font-size="11" lengthAdjust="spacingAndGlyphs" textLength="101" x="99" y="779.4424">getDiagram(): EClass</text><ellipse cx="90" cy="788.8594" fill="#84BE84" rx="3" ry="3" style="stroke: #038048; stroke-width: 1.0;"/><text fill="#000000" font-family="sans-serif" font-size="11" lengthAdjust="spacingAndGlyphs" textLength="81" x="99" y="793.2783">getLink(): EClass</text><ellipse cx="90" cy="802.6953" fill="#84BE84" rx="3" ry="3" style="stroke: #038048; stroke-width: 1.0;"/><text fill="#000000" font-family="sans-serif" font-size="11" lengthAdjust="spacingAndGlyphs" textLength="128" x="99" y="807.1143">getLink_Name(): EAttribute</text><ellipse cx="90" cy="816.5313" fill="#84BE84" rx="3" ry="3" style="stroke: #038048; stroke-width: 1.0;"/><text fill="#000000" font-family="sans-serif" font-size="11" lengthAdjust="spacingAndGlyphs" textLength="146" x="99" y="820.9502">getLink_Source(): EReference</text><ellipse cx="90" cy="830.3672" fill="#84BE84" rx="3" ry="3" style="stroke: #038048; stroke-width: 1.0;"/><text fill="#000000" font-family="sans-serif" font-size="11" lengthAdjust="spacingAndGlyphs" textLength="142" x="99" y="834.7861">getLink_Target(): EReference</text><ellipse cx="90" cy="844.2031" fill="#84BE84" rx="3" ry="3" style="stroke: #038048; stroke-width: 1.0;"/><text fill="#000000" font-family="sans-serif" font-size="11" lengthAdjust="spacingAndGlyphs" textLength="155" x="99" y="848.6221">getLink_Bendpoints(): EAttribute</text><ellipse cx="90" cy="858.0391" fill="#84BE84" rx="3" ry="3" style="stroke: #038048; stroke-width: 1.0;"/><text fill="#000000" font-family="sans-serif" font-size="11" lengthAdjust="spacingAndGlyphs" textLength="177" x="99" y="862.458">getLink_SourceEndPoint(): EAttribute</text><ellipse cx="90" cy="871.875" fill="#84BE84" rx="3" ry="3" style="stroke: #038048; stroke-width: 1.0;"/><text fill="#000000" font-family="sans-serif" font-size="11" lengthAdjust="spacingAndGlyphs" textLength="173" x="99" y="876.2939">getLink_TargetEndPoint(): EAttribute</text><ellipse cx="90" cy="885.7109" fill="#84BE84" rx="3" ry="3" style="stroke: #038048; stroke-width: 1.0;"/><text fill="#000000" font-family="sans-serif" font-size="11" lengthAdjust="spacingAndGlyphs" textLength="124" x="99" y="890.1299">getLinkedObject(): EClass</text><ellipse cx="90" cy="899.5469" fill="#84BE84" rx="3" ry="3" style="stroke: #038048; stroke-width: 1.0;"/><text fill="#000000" font-family="sans-serif" font-size="11" lengthAdjust="spacingAndGlyphs" textLength="222" x="99" y="903.9658">getLinkedObject_LinkedElement(): EReference</text><ellipse cx="90" cy="913.3828" fill="#84BE84" rx="3" ry="3" style="stroke: #038048; stroke-width: 1.0;"/><text fill="#000000" font-family="sans-serif" font-size="11" lengthAdjust="spacingAndGlyphs" textLength="175" x="99" y="917.8018">getLinkedObject_Object(): EAttribute</text><ellipse cx="90" cy="927.2188" fill="#84BE84" rx="3" ry="3" style="stroke: #038048; stroke-width: 1.0;"/><text fill="#000000" font-family="sans-serif" font-size="11" lengthAdjust="spacingAndGlyphs" textLength="120" x="99" y="931.6377">getNamedNode(): EClass</text><ellipse cx="90" cy="941.0547" fill="#84BE84" rx="3" ry="3" style="stroke: #038048; stroke-width: 1.0;"/><text fill="#000000" font-family="sans-serif" font-size="11" lengthAdjust="spacingAndGlyphs" textLength="167" x="99" y="945.4736">getNamedNode_Name(): EAttribute</text><ellipse cx="90" cy="954.8906" fill="#84BE84" rx="3" ry="3" style="stroke: #038048; stroke-width: 1.0;"/><text fill="#000000" font-family="sans-serif" font-size="11" lengthAdjust="spacingAndGlyphs" textLength="87" x="99" y="959.3096">getNode(): EClass</text><ellipse cx="90" cy="968.7266" fill="#84BE84" rx="3" ry="3" style="stroke: #038048; stroke-width: 1.0;"/><text fill="#000000" font-family="sans-serif" font-size="11" lengthAdjust="spacingAndGlyphs" textLength="148" x="99" y="973.1455">getNode_Location(): EAttribute</text><ellipse cx="90" cy="982.5625" fill="#84BE84" rx="3" ry="3" style="stroke: #038048; stroke-width: 1.0;"/><text fill="#000000" font-family="sans-serif" font-size="11" lengthAdjust="spacingAndGlyphs" textLength="134" x="99" y="986.9814">getNode_Width(): EAttribute</text><ellipse cx="90" cy="996.3984" fill="#84BE84" rx="3" ry="3" style="stroke: #038048; stroke-width: 1.0;"/><text fill="#000000" font-family="sans-serif" font-size="11" lengthAdjust="spacingAndGlyphs" textLength="137" x="99" y="1000.8174">getNode_Height(): EAttribute</text><ellipse cx="90" cy="1010.2344" fill="#84BE84" rx="3" ry="3" style="stroke: #038048; stroke-width: 1.0;"/><text fill="#000000" font-family="sans-serif" font-size="11" lengthAdjust="spacingAndGlyphs" textLength="219" x="99" y="1014.6533">getNode_IncomingConnections(): EReference</text><ellipse cx="90" cy="1024.0703" fill="#84BE84" rx="3" ry="3" style="stroke: #038048; stroke-width: 1.0;"/><text fill="#000000" font-family="sans-serif" font-size="11" lengthAdjust="spacingAndGlyphs" textLength="220" x="99" y="1028.4893">getNode_OutgoingConnections(): EReference</text><ellipse cx="90" cy="1037.9063" fill="#84BE84" rx="3" ry="3" style="stroke: #038048; stroke-width: 1.0;"/><text fill="#000000" font-family="sans-serif" font-size="11" lengthAdjust="spacingAndGlyphs" textLength="154" x="99" y="1042.3252">getNode_ReadOnly(): EAttribute</text><ellipse cx="90" cy="1051.7422" fill="#84BE84" rx="3" ry="3" style="stroke: #038048; stroke-width: 1.0;"/><text fill="#000000" font-family="sans-serif" font-size="11" lengthAdjust="spacingAndGlyphs" textLength="137" x="99" y="1056.1611">getActivityDiagram(): EClass</text><ellipse cx="90" cy="1065.5781" fill="#84BE84" rx="3" ry="3" style="stroke: #038048; stroke-width: 1.0;"/><text fill="#000000" font-family="sans-serif" font-size="11" lengthAdjust="spacingAndGlyphs" textLength="117" x="99" y="1069.9971">getTypedNode(): EClass</text><ellipse cx="90" cy="1079.4141" fill="#84BE84" rx="3" ry="3" style="stroke: #038048; stroke-width: 1.0;"/><text fill="#000000" font-family="sans-serif" font-size="11" lengthAdjust="spacingAndGlyphs" textLength="161" x="99" y="1083.833">getTypedNode_Type(): EAttribute</text><ellipse cx="90" cy="1093.25" fill="#84BE84" rx="3" ry="3" style="stroke: #038048; stroke-width: 1.0;"/><text fill="#000000" font-family="sans-serif" font-size="11" lengthAdjust="spacingAndGlyphs" textLength="224" x="99" y="1097.6689">getWorkProductDependencyDiagram(): EClass</text><ellipse cx="90" cy="1107.0859" fill="#84BE84" rx="3" ry="3" style="stroke: #038048; stroke-width: 1.0;"/><text fill="#000000" font-family="sans-serif" font-size="11" lengthAdjust="spacingAndGlyphs" textLength="149" x="99" y="1111.5049">getWorkProductNode(): EClass</text><ellipse cx="90" cy="1120.9219" fill="#84BE84" rx="3" ry="3" style="stroke: #038048; stroke-width: 1.0;"/><text fill="#000000" font-family="sans-serif" font-size="11" lengthAdjust="spacingAndGlyphs" textLength="193" x="99" y="1125.3408">getWorkProductNode_Type(): EAttribute</text><ellipse cx="90" cy="1134.7578" fill="#84BE84" rx="3" ry="3" style="stroke: #038048; stroke-width: 1.0;"/><text fill="#000000" font-family="sans-serif" font-size="11" lengthAdjust="spacingAndGlyphs" textLength="163" x="99" y="1139.1768">getActivityDetailDiagram(): EClass</text><ellipse cx="90" cy="1148.5938" fill="#84BE84" rx="3" ry="3" style="stroke: #038048; stroke-width: 1.0;"/><text fill="#000000" font-family="sans-serif" font-size="11" lengthAdjust="spacingAndGlyphs" textLength="239" x="99" y="1153.0127">getActivityDetailDiagram_AutoLayout(): EAttribute</text><ellipse cx="90" cy="1162.4297" fill="#84BE84" rx="3" ry="3" style="stroke: #038048; stroke-width: 1.0;"/><text fill="#000000" font-family="sans-serif" font-size="11" lengthAdjust="spacingAndGlyphs" textLength="133" x="99" y="1166.8486">getNodeContainer(): EClass</text><ellipse cx="90" cy="1176.2656" fill="#84BE84" rx="3" ry="3" style="stroke: #038048; stroke-width: 1.0;"/><text fill="#000000" font-family="sans-serif" font-size="11" lengthAdjust="spacingAndGlyphs" textLength="194" x="99" y="1180.6846">getNodeContainer_Nodes(): EReference</text><ellipse cx="90" cy="1190.1016" fill="#84BE84" rx="3" ry="3" style="stroke: #038048; stroke-width: 1.0;"/><text fill="#000000" font-family="sans-serif" font-size="11" lengthAdjust="spacingAndGlyphs" textLength="108" x="99" y="1194.5205">getRoleNode(): EClass</text><ellipse cx="90" cy="1203.9375" fill="#84BE84" rx="3" ry="3" style="stroke: #038048; stroke-width: 1.0;"/><text fill="#000000" font-family="sans-serif" font-size="11" lengthAdjust="spacingAndGlyphs" textLength="156" x="99" y="1208.3564">getRoleTaskComposite(): EClass</text><ellipse cx="90" cy="1217.7734" fill="#84BE84" rx="3" ry="3" style="stroke: #038048; stroke-width: 1.0;"/><text fill="#000000" font-family="sans-serif" font-size="11" lengthAdjust="spacingAndGlyphs" textLength="225" x="99" y="1222.1924">getRoleTaskComposite_RowIndex(): EAttribute</text><ellipse cx="90" cy="1231.6094" fill="#84BE84" rx="3" ry="3" style="stroke: #038048; stroke-width: 1.0;"/><text fill="#000000" font-family="sans-serif" font-size="11" lengthAdjust="spacingAndGlyphs" textLength="110" x="99" y="1236.0283">getTaskNode(): EClass</text><ellipse cx="90" cy="1245.4453" fill="#84BE84" rx="3" ry="3" style="stroke: #038048; stroke-width: 1.0;"/><text fill="#000000" font-family="sans-serif" font-size="11" lengthAdjust="spacingAndGlyphs" textLength="156" x="99" y="1249.8643">getTaskNode_Index(): EAttribute</text><ellipse cx="90" cy="1259.2813" fill="#84BE84" rx="3" ry="3" style="stroke: #038048; stroke-width: 1.0;"/><text fill="#000000" font-family="sans-serif" font-size="11" lengthAdjust="spacingAndGlyphs" textLength="199" x="99" y="1263.7002">getWorkProductDescriptorNode(): EClass</text><ellipse cx="90" cy="1273.1172" fill="#84BE84" rx="3" ry="3" style="stroke: #038048; stroke-width: 1.0;"/><text fill="#000000" font-family="sans-serif" font-size="11" lengthAdjust="spacingAndGlyphs" textLength="205" x="99" y="1277.5361">getWorkBreakdownElementNode(): EClass</text><ellipse cx="90" cy="1286.9531" fill="#84BE84" rx="3" ry="3" style="stroke: #038048; stroke-width: 1.0;"/><text fill="#000000" font-family="sans-serif" font-size="11" lengthAdjust="spacingAndGlyphs" textLength="174" x="99" y="1291.3721">getWorkProductComposite(): EClass</text><ellipse cx="90" cy="1300.7891" fill="#84BE84" rx="3" ry="3" style="stroke: #038048; stroke-width: 1.0;"/><text fill="#000000" font-family="sans-serif" font-size="11" lengthAdjust="spacingAndGlyphs" textLength="218" x="99" y="1305.208">getWorkProductComposite_Type(): EAttribute</text><ellipse cx="90" cy="1314.625" fill="#84BE84" rx="3" ry="3" style="stroke: #038048; stroke-width: 1.0;"/><text fill="#000000" font-family="sans-serif" font-size="11" lengthAdjust="spacingAndGlyphs" textLength="172" x="99" y="1319.0439">getAbsoluteBendpoint(): EDataType</text><ellipse cx="90" cy="1328.4609" fill="#84BE84" rx="3" ry="3" style="stroke: #038048; stroke-width: 1.0;"/><text fill="#000000" font-family="sans-serif" font-size="11" lengthAdjust="spacingAndGlyphs" textLength="104" x="99" y="1332.8799">getPoint(): EDataType</text><ellipse cx="90" cy="1342.2969" fill="#84BE84" rx="3" ry="3" style="stroke: #038048; stroke-width: 1.0;"/><text fill="#000000" font-family="sans-serif" font-size="11" lengthAdjust="spacingAndGlyphs" textLength="152" x="99" y="1346.7158">getRoleDescriptor(): EDataType</text><ellipse cx="90" cy="1356.1328" fill="#84BE84" rx="3" ry="3" style="stroke: #038048; stroke-width: 1.0;"/><text fill="#000000" font-family="sans-serif" font-size="11" lengthAdjust="spacingAndGlyphs" textLength="159" x="99" y="1360.5518">getModelFactory(): ModelFactory</text><ellipse cx="90" cy="1369.9688" fill="#84BE84" rx="3" ry="3" style="stroke: #038048; stroke-width: 1.0;"/><text fill="#000000" font-family="sans-serif" font-size="11" lengthAdjust="spacingAndGlyphs" textLength="149" x="99" y="1374.3877">createPackageContents(): void</text><ellipse cx="90" cy="1383.8047" fill="#84BE84" rx="3" ry="3" style="stroke: #038048; stroke-width: 1.0;"/><text fill="#000000" font-family="sans-serif" font-size="11" lengthAdjust="spacingAndGlyphs" textLength="155" x="99" y="1388.2236">initializePackageContents(): void</text></a><!--MD5=[e74f5d697d63e8ce3a2b24a0a5c4354e]
class org.eclipse.emf.ecore.impl.EPackageImpl--><rect codeLine="54" fill="#FEFECE" filter="url(#ffei9ahmtp4kl)" height="40.1875" id="org.eclipse.emf.ecore.impl.EPackageImpl" style="stroke: #A80036; stroke-width: 1.5;" width="159" x="7" y="308.5"/><ellipse cx="22" cy="328.5938" fill="#ADD1B2" rx="11" ry="11" style="stroke: #A80036; stroke-width: 1.0;"/><path d="M24.7656,324.4688 Q24.9219,324.25 25.1094,324.1406 Q25.2969,324.0313 25.5156,324.0313 Q25.8906,324.0313 26.125,324.2969 Q26.3594,324.5469 26.3594,325.1563 L26.3594,326.6094 Q26.3594,327.2188 26.125,327.4844 Q25.8906,327.75 25.5156,327.75 Q25.1719,327.75 24.9688,327.5469 Q24.7656,327.3594 24.6563,326.8438 Q24.6094,326.4844 24.4219,326.2969 Q24.0938,325.9219 23.4844,325.7031 Q22.875,325.4844 22.25,325.4844 Q21.4844,325.4844 20.8438,325.8125 Q20.2188,326.1406 19.7188,326.8906 Q19.2344,327.6406 19.2344,328.6719 L19.2344,329.7656 Q19.2344,331 20.125,331.8281 Q21.0156,332.6406 22.6094,332.6406 Q23.5469,332.6406 24.2031,332.3906 Q24.5938,332.2344 25.0156,331.7969 Q25.2813,331.5313 25.4219,331.4531 Q25.5781,331.375 25.7813,331.375 Q26.1094,331.375 26.3594,331.6406 Q26.625,331.8906 26.625,332.2344 Q26.625,332.5781 26.2813,332.9844 Q25.7813,333.5625 24.9844,333.8906 Q23.9063,334.3438 22.6094,334.3438 Q21.0938,334.3438 19.8906,333.7188 Q18.9063,333.2188 18.2188,332.1563 Q17.5313,331.0781 17.5313,329.7969 L17.5313,328.6406 Q17.5313,327.3125 18.1406,326.1719 Q18.7656,325.0156 19.8594,324.4063 Q20.9531,323.7813 22.1875,323.7813 Q22.9219,323.7813 23.5625,323.9531 Q24.2188,324.1094 24.7656,324.4688 Z "/><text fill="#000000" font-family="sans-serif" font-size="14" lengthAdjust="spacingAndGlyphs" textLength="89" x="55" y="328.0332">EPackageImpl</text><text fill="#000000" font-family="sans-serif" font-size="10" lengthAdjust="spacingAndGlyphs" textLength="127" x="36" y="341.4902">org.eclipse.emf.ecore.impl</text><!--MD5=[48cf5bb799360ed1bf046cde27705e26]
class org.eclipse.epf.diagram.model.ModelPackage--><a href="..\ModelPackage.html" target="_top" title="..\ModelPackage.html" xlink:actuate="onRequest" xlink:href="..\ModelPackage.html" xlink:show="new" xlink:title="..\ModelPackage.html" xlink:type="simple"><rect codeLine="55" fill="#FEFECE" filter="url(#ffei9ahmtp4kl)" height="643.1328" id="org.eclipse.epf.diagram.model.ModelPackage" style="stroke: #A80036; stroke-width: 1.5;" width="270" x="201.5" y="7"/><ellipse cx="261.75" cy="27.0938" fill="#B4A7E5" rx="11" ry="11" style="stroke: #A80036; stroke-width: 1.0;"/><path d="M262.7031,23.7344 L262.7031,30.3906 L264.4219,30.3906 Q265.0313,30.3906 265.2969,30.625 Q265.5625,30.8594 265.5625,31.25 Q265.5625,31.625 265.2969,31.8594 Q265.0313,32.0938 264.4219,32.0938 L259.2813,32.0938 Q258.6719,32.0938 258.4063,31.8594 Q258.1406,31.625 258.1406,31.2344 Q258.1406,30.8594 258.4063,30.625 Q258.6719,30.3906 259.2813,30.3906 L261,30.3906 L261,23.7344 L259.2813,23.7344 Q258.6719,23.7344 258.4063,23.5 Q258.1406,23.2656 258.1406,22.875 Q258.1406,22.5 258.4063,22.2656 Q258.6719,22.0313 259.2813,22.0313 L264.4219,22.0313 Q265.0313,22.0313 265.2969,22.2656 Q265.5625,22.5 265.5625,22.875 Q265.5625,23.2656 265.2969,23.5 Q265.0313,23.7344 264.4219,23.7344 L262.7031,23.7344 Z "/><text fill="#000000" font-family="sans-serif" font-size="14" font-style="italic" lengthAdjust="spacingAndGlyphs" textLength="95" x="305.25" y="26.5332">ModelPackage</text><text fill="#000000" font-family="sans-serif" font-size="10" font-style="italic" lengthAdjust="spacingAndGlyphs" textLength="141" x="282.25" y="39.9902">org.eclipse.epf.diagram.model</text><line style="stroke: #A80036; stroke-width: 1.5;" x1="202.5" x2="470.5" y1="47.1875" y2="47.1875"/><ellipse cx="212.5" cy="58.1875" fill="#84BE84" rx="3" ry="3" style="stroke: #038048; stroke-width: 1.0;"/><text fill="#000000" font-family="sans-serif" font-size="11" font-style="italic" lengthAdjust="spacingAndGlyphs" textLength="107" x="221.5" y="62.6064">getDiagram(): EClass</text><ellipse cx="212.5" cy="72.0234" fill="#84BE84" rx="3" ry="3" style="stroke: #038048; stroke-width: 1.0;"/><text fill="#000000" font-family="sans-serif" font-size="11" font-style="italic" lengthAdjust="spacingAndGlyphs" textLength="86" x="221.5" y="76.4424">getLink(): EClass</text><ellipse cx="212.5" cy="85.8594" fill="#84BE84" rx="3" ry="3" style="stroke: #038048; stroke-width: 1.0;"/><text fill="#000000" font-family="sans-serif" font-size="11" font-style="italic" lengthAdjust="spacingAndGlyphs" textLength="134" x="221.5" y="90.2783">getLink_Name(): EAttribute</text><ellipse cx="212.5" cy="99.6953" fill="#84BE84" rx="3" ry="3" style="stroke: #038048; stroke-width: 1.0;"/><text fill="#000000" font-family="sans-serif" font-size="11" font-style="italic" lengthAdjust="spacingAndGlyphs" textLength="149" x="221.5" y="104.1143">getLink_Source(): EReference</text><ellipse cx="212.5" cy="113.5313" fill="#84BE84" rx="3" ry="3" style="stroke: #038048; stroke-width: 1.0;"/><text fill="#000000" font-family="sans-serif" font-size="11" font-style="italic" lengthAdjust="spacingAndGlyphs" textLength="146" x="221.5" y="117.9502">getLink_Target(): EReference</text><ellipse cx="212.5" cy="127.3672" fill="#84BE84" rx="3" ry="3" style="stroke: #038048; stroke-width: 1.0;"/><text fill="#000000" font-family="sans-serif" font-size="11" font-style="italic" lengthAdjust="spacingAndGlyphs" textLength="160" x="221.5" y="131.7861">getLink_Bendpoints(): EAttribute</text><ellipse cx="212.5" cy="141.2031" fill="#84BE84" rx="3" ry="3" style="stroke: #038048; stroke-width: 1.0;"/><text fill="#000000" font-family="sans-serif" font-size="11" font-style="italic" lengthAdjust="spacingAndGlyphs" textLength="184" x="221.5" y="145.6221">getLink_SourceEndPoint(): EAttribute</text><ellipse cx="212.5" cy="155.0391" fill="#84BE84" rx="3" ry="3" style="stroke: #038048; stroke-width: 1.0;"/><text fill="#000000" font-family="sans-serif" font-size="11" font-style="italic" lengthAdjust="spacingAndGlyphs" textLength="181" x="221.5" y="159.458">getLink_TargetEndPoint(): EAttribute</text><ellipse cx="212.5" cy="168.875" fill="#84BE84" rx="3" ry="3" style="stroke: #038048; stroke-width: 1.0;"/><text fill="#000000" font-family="sans-serif" font-size="11" font-style="italic" lengthAdjust="spacingAndGlyphs" textLength="132" x="221.5" y="173.2939">getLinkedObject(): EClass</text><ellipse cx="212.5" cy="182.7109" fill="#84BE84" rx="3" ry="3" style="stroke: #038048; stroke-width: 1.0;"/><text fill="#000000" font-family="sans-serif" font-size="11" font-style="italic" lengthAdjust="spacingAndGlyphs" textLength="233" x="221.5" y="187.1299">getLinkedObject_LinkedElement(): EReference</text><ellipse cx="212.5" cy="196.5469" fill="#84BE84" rx="3" ry="3" style="stroke: #038048; stroke-width: 1.0;"/><text fill="#000000" font-family="sans-serif" font-size="11" font-style="italic" lengthAdjust="spacingAndGlyphs" textLength="185" x="221.5" y="200.9658">getLinkedObject_Object(): EAttribute</text><ellipse cx="212.5" cy="210.3828" fill="#84BE84" rx="3" ry="3" style="stroke: #038048; stroke-width: 1.0;"/><text fill="#000000" font-family="sans-serif" font-size="11" font-style="italic" lengthAdjust="spacingAndGlyphs" textLength="126" x="221.5" y="214.8018">getNamedNode(): EClass</text><ellipse cx="212.5" cy="224.2188" fill="#84BE84" rx="3" ry="3" style="stroke: #038048; stroke-width: 1.0;"/><text fill="#000000" font-family="sans-serif" font-size="11" font-style="italic" lengthAdjust="spacingAndGlyphs" textLength="174" x="221.5" y="228.6377">getNamedNode_Name(): EAttribute</text><ellipse cx="212.5" cy="238.0547" fill="#84BE84" rx="3" ry="3" style="stroke: #038048; stroke-width: 1.0;"/><text fill="#000000" font-family="sans-serif" font-size="11" font-style="italic" lengthAdjust="spacingAndGlyphs" textLength="91" x="221.5" y="242.4736">getNode(): EClass</text><ellipse cx="212.5" cy="251.8906" fill="#84BE84" rx="3" ry="3" style="stroke: #038048; stroke-width: 1.0;"/><text fill="#000000" font-family="sans-serif" font-size="11" font-style="italic" lengthAdjust="spacingAndGlyphs" textLength="152" x="221.5" y="256.3096">getNode_Location(): EAttribute</text><ellipse cx="212.5" cy="265.7266" fill="#84BE84" rx="3" ry="3" style="stroke: #038048; stroke-width: 1.0;"/><text fill="#000000" font-family="sans-serif" font-size="11" font-style="italic" lengthAdjust="spacingAndGlyphs" textLength="139" x="221.5" y="270.1455">getNode_Width(): EAttribute</text><ellipse cx="212.5" cy="279.5625" fill="#84BE84" rx="3" ry="3" style="stroke: #038048; stroke-width: 1.0;"/><text fill="#000000" font-family="sans-serif" font-size="11" font-style="italic" lengthAdjust="spacingAndGlyphs" textLength="142" x="221.5" y="283.9814">getNode_Height(): EAttribute</text><ellipse cx="212.5" cy="293.3984" fill="#84BE84" rx="3" ry="3" style="stroke: #038048; stroke-width: 1.0;"/><text fill="#000000" font-family="sans-serif" font-size="11" font-style="italic" lengthAdjust="spacingAndGlyphs" textLength="226" x="221.5" y="297.8174">getNode_IncomingConnections(): EReference</text><ellipse cx="212.5" cy="307.2344" fill="#84BE84" rx="3" ry="3" style="stroke: #038048; stroke-width: 1.0;"/><text fill="#000000" font-family="sans-serif" font-size="11" font-style="italic" lengthAdjust="spacingAndGlyphs" textLength="226" x="221.5" y="311.6533">getNode_OutgoingConnections(): EReference</text><ellipse cx="212.5" cy="321.0703" fill="#84BE84" rx="3" ry="3" style="stroke: #038048; stroke-width: 1.0;"/><text fill="#000000" font-family="sans-serif" font-size="11" font-style="italic" lengthAdjust="spacingAndGlyphs" textLength="159" x="221.5" y="325.4893">getNode_ReadOnly(): EAttribute</text><ellipse cx="212.5" cy="334.9063" fill="#84BE84" rx="3" ry="3" style="stroke: #038048; stroke-width: 1.0;"/><text fill="#000000" font-family="sans-serif" font-size="11" font-style="italic" lengthAdjust="spacingAndGlyphs" textLength="142" x="221.5" y="339.3252">getActivityDiagram(): EClass</text><ellipse cx="212.5" cy="348.7422" fill="#84BE84" rx="3" ry="3" style="stroke: #038048; stroke-width: 1.0;"/><text fill="#000000" font-family="sans-serif" font-size="11" font-style="italic" lengthAdjust="spacingAndGlyphs" textLength="121" x="221.5" y="353.1611">getTypedNode(): EClass</text><ellipse cx="212.5" cy="362.5781" fill="#84BE84" rx="3" ry="3" style="stroke: #038048; stroke-width: 1.0;"/><text fill="#000000" font-family="sans-serif" font-size="11" font-style="italic" lengthAdjust="spacingAndGlyphs" textLength="164" x="221.5" y="366.9971">getTypedNode_Type(): EAttribute</text><ellipse cx="212.5" cy="376.4141" fill="#84BE84" rx="3" ry="3" style="stroke: #038048; stroke-width: 1.0;"/><text fill="#000000" font-family="sans-serif" font-size="11" font-style="italic" lengthAdjust="spacingAndGlyphs" textLength="233" x="221.5" y="380.833">getWorkProductDependencyDiagram(): EClass</text><ellipse cx="212.5" cy="390.25" fill="#84BE84" rx="3" ry="3" style="stroke: #038048; stroke-width: 1.0;"/><text fill="#000000" font-family="sans-serif" font-size="11" font-style="italic" lengthAdjust="spacingAndGlyphs" textLength="156" x="221.5" y="394.6689">getWorkProductNode(): EClass</text><ellipse cx="212.5" cy="404.0859" fill="#84BE84" rx="3" ry="3" style="stroke: #038048; stroke-width: 1.0;"/><text fill="#000000" font-family="sans-serif" font-size="11" font-style="italic" lengthAdjust="spacingAndGlyphs" textLength="199" x="221.5" y="408.5049">getWorkProductNode_Type(): EAttribute</text><ellipse cx="212.5" cy="417.9219" fill="#84BE84" rx="3" ry="3" style="stroke: #038048; stroke-width: 1.0;"/><text fill="#000000" font-family="sans-serif" font-size="11" font-style="italic" lengthAdjust="spacingAndGlyphs" textLength="171" x="221.5" y="422.3408">getActivityDetailDiagram(): EClass</text><ellipse cx="212.5" cy="431.7578" fill="#84BE84" rx="3" ry="3" style="stroke: #038048; stroke-width: 1.0;"/><text fill="#000000" font-family="sans-serif" font-size="11" font-style="italic" lengthAdjust="spacingAndGlyphs" textLength="244" x="221.5" y="436.1768">getActivityDetailDiagram_AutoLayout(): EAttribute</text><ellipse cx="212.5" cy="445.5938" fill="#84BE84" rx="3" ry="3" style="stroke: #038048; stroke-width: 1.0;"/><text fill="#000000" font-family="sans-serif" font-size="11" font-style="italic" lengthAdjust="spacingAndGlyphs" textLength="139" x="221.5" y="450.0127">getNodeContainer(): EClass</text><ellipse cx="212.5" cy="459.4297" fill="#84BE84" rx="3" ry="3" style="stroke: #038048; stroke-width: 1.0;"/><text fill="#000000" font-family="sans-serif" font-size="11" font-style="italic" lengthAdjust="spacingAndGlyphs" textLength="199" x="221.5" y="463.8486">getNodeContainer_Nodes(): EReference</text><ellipse cx="212.5" cy="473.2656" fill="#84BE84" rx="3" ry="3" style="stroke: #038048; stroke-width: 1.0;"/><text fill="#000000" font-family="sans-serif" font-size="11" font-style="italic" lengthAdjust="spacingAndGlyphs" textLength="114" x="221.5" y="477.6846">getRoleNode(): EClass</text><ellipse cx="212.5" cy="487.1016" fill="#84BE84" rx="3" ry="3" style="stroke: #038048; stroke-width: 1.0;"/><text fill="#000000" font-family="sans-serif" font-size="11" font-style="italic" lengthAdjust="spacingAndGlyphs" textLength="166" x="221.5" y="491.5205">getRoleTaskComposite(): EClass</text><ellipse cx="212.5" cy="500.9375" fill="#84BE84" rx="3" ry="3" style="stroke: #038048; stroke-width: 1.0;"/><text fill="#000000" font-family="sans-serif" font-size="11" font-style="italic" lengthAdjust="spacingAndGlyphs" textLength="233" x="221.5" y="505.3564">getRoleTaskComposite_RowIndex(): EAttribute</text><ellipse cx="212.5" cy="514.7734" fill="#84BE84" rx="3" ry="3" style="stroke: #038048; stroke-width: 1.0;"/><text fill="#000000" font-family="sans-serif" font-size="11" font-style="italic" lengthAdjust="spacingAndGlyphs" textLength="116" x="221.5" y="519.1924">getTaskNode(): EClass</text><ellipse cx="212.5" cy="528.6094" fill="#84BE84" rx="3" ry="3" style="stroke: #038048; stroke-width: 1.0;"/><text fill="#000000" font-family="sans-serif" font-size="11" font-style="italic" lengthAdjust="spacingAndGlyphs" textLength="162" x="221.5" y="533.0283">getTaskNode_Index(): EAttribute</text><ellipse cx="212.5" cy="542.4453" fill="#84BE84" rx="3" ry="3" style="stroke: #038048; stroke-width: 1.0;"/><text fill="#000000" font-family="sans-serif" font-size="11" font-style="italic" lengthAdjust="spacingAndGlyphs" textLength="208" x="221.5" y="546.8643">getWorkProductDescriptorNode(): EClass</text><ellipse cx="212.5" cy="556.2813" fill="#84BE84" rx="3" ry="3" style="stroke: #038048; stroke-width: 1.0;"/><text fill="#000000" font-family="sans-serif" font-size="11" font-style="italic" lengthAdjust="spacingAndGlyphs" textLength="212" x="221.5" y="560.7002">getWorkBreakdownElementNode(): EClass</text><ellipse cx="212.5" cy="570.1172" fill="#84BE84" rx="3" ry="3" style="stroke: #038048; stroke-width: 1.0;"/><text fill="#000000" font-family="sans-serif" font-size="11" font-style="italic" lengthAdjust="spacingAndGlyphs" textLength="183" x="221.5" y="574.5361">getWorkProductComposite(): EClass</text><ellipse cx="212.5" cy="583.9531" fill="#84BE84" rx="3" ry="3" style="stroke: #038048; stroke-width: 1.0;"/><text fill="#000000" font-family="sans-serif" font-size="11" font-style="italic" lengthAdjust="spacingAndGlyphs" textLength="226" x="221.5" y="588.3721">getWorkProductComposite_Type(): EAttribute</text><ellipse cx="212.5" cy="597.7891" fill="#84BE84" rx="3" ry="3" style="stroke: #038048; stroke-width: 1.0;"/><text fill="#000000" font-family="sans-serif" font-size="11" font-style="italic" lengthAdjust="spacingAndGlyphs" textLength="176" x="221.5" y="602.208">getAbsoluteBendpoint(): EDataType</text><ellipse cx="212.5" cy="611.625" fill="#84BE84" rx="3" ry="3" style="stroke: #038048; stroke-width: 1.0;"/><text fill="#000000" font-family="sans-serif" font-size="11" font-style="italic" lengthAdjust="spacingAndGlyphs" textLength="108" x="221.5" y="616.0439">getPoint(): EDataType</text><ellipse cx="212.5" cy="625.4609" fill="#84BE84" rx="3" ry="3" style="stroke: #038048; stroke-width: 1.0;"/><text fill="#000000" font-family="sans-serif" font-size="11" font-style="italic" lengthAdjust="spacingAndGlyphs" textLength="158" x="221.5" y="629.8799">getRoleDescriptor(): EDataType</text><ellipse cx="212.5" cy="639.2969" fill="#84BE84" rx="3" ry="3" style="stroke: #038048; stroke-width: 1.0;"/><text fill="#000000" font-family="sans-serif" font-size="11" font-style="italic" lengthAdjust="spacingAndGlyphs" textLength="163" x="221.5" y="643.7158">getModelFactory(): ModelFactory</text></a><!--MD5=[00ce0ee83e02590fd5a6671fc6e85923]
reverse link org.eclipse.emf.ecore.impl.EPackageImpl to org.eclipse.epf.diagram.model.impl.ModelPackageImpl--><path codeLine="101" d="M93.27,368.6 C104.69,434.57 128.85,574.12 152.37,709.97 " fill="none" id="org.eclipse.emf.ecore.impl.EPackageImpl-backto-org.eclipse.epf.diagram.model.impl.ModelPackageImpl" style="stroke: #A80036; stroke-width: 1.0;"/><polygon fill="none" points="86.36,369.71,89.84,348.81,100.15,367.32,86.36,369.71" style="stroke: #A80036; stroke-width: 1.0;"/><!--MD5=[5a5dfcb230a115e3fb3a7993b9443952]
reverse link org.eclipse.epf.diagram.model.ModelPackage to org.eclipse.epf.diagram.model.impl.ModelPackageImpl--><path codeLine="102" d="M277.51,670.2 C275.22,683.45 272.92,696.74 270.62,709.99 " fill="none" id="org.eclipse.epf.diagram.model.ModelPackage-backto-org.eclipse.epf.diagram.model.impl.ModelPackageImpl" style="stroke: #A80036; stroke-width: 1.0; stroke-dasharray: 7.0,7.0;"/><polygon fill="none" points="270.68,668.63,280.99,650.12,284.48,671.02,270.68,668.63" style="stroke: #A80036; stroke-width: 1.0;"/><text fill="#888888" font-family="sans-serif" font-size="10" lengthAdjust="spacingAndGlyphs" textLength="190" x="141.25" y="1418.0215">UMLDoclet 2.0.12, PlantUML 1.2020.16</text><!--MD5=[bddfa48b15c6bc31755ec6a0764e5c0c]
@startuml
    set namespaceSeparator none
    hide empty fields
    hide empty methods

    class "<size:14>ModelPackageImpl\n<size:10>org.eclipse.epf.diagram.model.impl" as org.eclipse.epf.diagram.model.impl.ModelPackageImpl [[ModelPackageImpl.html]] {
        {static} +init(): ModelPackage
        +getDiagram(): EClass
        +getLink(): EClass
        +getLink_Name(): EAttribute
        +getLink_Source(): EReference
        +getLink_Target(): EReference
        +getLink_Bendpoints(): EAttribute
        +getLink_SourceEndPoint(): EAttribute
        +getLink_TargetEndPoint(): EAttribute
        +getLinkedObject(): EClass
        +getLinkedObject_LinkedElement(): EReference
        +getLinkedObject_Object(): EAttribute
        +getNamedNode(): EClass
        +getNamedNode_Name(): EAttribute
        +getNode(): EClass
        +getNode_Location(): EAttribute
        +getNode_Width(): EAttribute
        +getNode_Height(): EAttribute
        +getNode_IncomingConnections(): EReference
        +getNode_OutgoingConnections(): EReference
        +getNode_ReadOnly(): EAttribute
        +getActivityDiagram(): EClass
        +getTypedNode(): EClass
        +getTypedNode_Type(): EAttribute
        +getWorkProductDependencyDiagram(): EClass
        +getWorkProductNode(): EClass
        +getWorkProductNode_Type(): EAttribute
        +getActivityDetailDiagram(): EClass
        +getActivityDetailDiagram_AutoLayout(): EAttribute
        +getNodeContainer(): EClass
        +getNodeContainer_Nodes(): EReference
        +getRoleNode(): EClass
        +getRoleTaskComposite(): EClass
        +getRoleTaskComposite_RowIndex(): EAttribute
        +getTaskNode(): EClass
        +getTaskNode_Index(): EAttribute
        +getWorkProductDescriptorNode(): EClass
        +getWorkBreakdownElementNode(): EClass
        +getWorkProductComposite(): EClass
        +getWorkProductComposite_Type(): EAttribute
        +getAbsoluteBendpoint(): EDataType
        +getPoint(): EDataType
        +getRoleDescriptor(): EDataType
        +getModelFactory(): ModelFactory
        +createPackageContents(): void
        +initializePackageContents(): void
    }

    class "<size:14>EPackageImpl\n<size:10>org.eclipse.emf.ecore.impl" as org.eclipse.emf.ecore.impl.EPackageImpl
    interface "<size:14>ModelPackage\n<size:10>org.eclipse.epf.diagram.model" as org.eclipse.epf.diagram.model.ModelPackage [[..\ModelPackage.html]] {
        {abstract} +getDiagram(): EClass
        {abstract} +getLink(): EClass
        {abstract} +getLink_Name(): EAttribute
        {abstract} +getLink_Source(): EReference
        {abstract} +getLink_Target(): EReference
        {abstract} +getLink_Bendpoints(): EAttribute
        {abstract} +getLink_SourceEndPoint(): EAttribute
        {abstract} +getLink_TargetEndPoint(): EAttribute
        {abstract} +getLinkedObject(): EClass
        {abstract} +getLinkedObject_LinkedElement(): EReference
        {abstract} +getLinkedObject_Object(): EAttribute
        {abstract} +getNamedNode(): EClass
        {abstract} +getNamedNode_Name(): EAttribute
        {abstract} +getNode(): EClass
        {abstract} +getNode_Location(): EAttribute
        {abstract} +getNode_Width(): EAttribute
        {abstract} +getNode_Height(): EAttribute
        {abstract} +getNode_IncomingConnections(): EReference
        {abstract} +getNode_OutgoingConnections(): EReference
        {abstract} +getNode_ReadOnly(): EAttribute
        {abstract} +getActivityDiagram(): EClass
        {abstract} +getTypedNode(): EClass
        {abstract} +getTypedNode_Type(): EAttribute
        {abstract} +getWorkProductDependencyDiagram(): EClass
        {abstract} +getWorkProductNode(): EClass
        {abstract} +getWorkProductNode_Type(): EAttribute
        {abstract} +getActivityDetailDiagram(): EClass
        {abstract} +getActivityDetailDiagram_AutoLayout(): EAttribute
        {abstract} +getNodeContainer(): EClass
        {abstract} +getNodeContainer_Nodes(): EReference
        {abstract} +getRoleNode(): EClass
        {abstract} +getRoleTaskComposite(): EClass
        {abstract} +getRoleTaskComposite_RowIndex(): EAttribute
        {abstract} +getTaskNode(): EClass
        {abstract} +getTaskNode_Index(): EAttribute
        {abstract} +getWorkProductDescriptorNode(): EClass
        {abstract} +getWorkBreakdownElementNode(): EClass
        {abstract} +getWorkProductComposite(): EClass
        {abstract} +getWorkProductComposite_Type(): EAttribute
        {abstract} +getAbsoluteBendpoint(): EDataType
        {abstract} +getPoint(): EDataType
        {abstract} +getRoleDescriptor(): EDataType
        {abstract} +getModelFactory(): ModelFactory
    }

    org.eclipse.emf.ecore.impl.EPackageImpl <|- - org.eclipse.epf.diagram.model.impl.ModelPackageImpl
    org.eclipse.epf.diagram.model.ModelPackage <|.. org.eclipse.epf.diagram.model.impl.ModelPackageImpl

    center footer UMLDoclet 2.0.12, PlantUML 1.2020.16
@enduml

PlantUML version 1.2020.16(Sun Aug 23 22:20:43 CEST 2020)
(APACHE source distribution)
Java Runtime: Java(TM) SE Runtime Environment
JVM: Java HotSpot(TM) 64-Bit Server VM
Default Encoding: Cp1252
Language: es
Country: ES
--></g></svg>