<?xml version="1.0" encoding="UTF-8" standalone="no"?><svg xmlns="http://www.w3.org/2000/svg" xmlns:xlink="http://www.w3.org/1999/xlink" contentScriptType="application/ecmascript" contentStyleType="text/css" height="311px" preserveAspectRatio="none" style="width:429px;height:311px;" version="1.1" viewBox="0 0 429 311" width="429px" zoomAndPan="magnify"><defs><filter height="300%" id="f1e8ijm4307737" width="300%" x="-1" y="-1"><feGaussianBlur result="blurOut" stdDeviation="2.0"/><feColorMatrix in="blurOut" result="blurOut2" type="matrix" values="0 0 0 0 0 0 0 0 0 0 0 0 0 0 0 0 0 0 .4 0"/><feOffset dx="4.0" dy="4.0" in="blurOut2" result="blurOut3"/><feBlend in="SourceGraphic" in2="blurOut3" mode="normal"/></filter></defs><g><!--MD5=[e50a1de5fe250392284e467e70a44b7c]
class org.eclipse.epf.diagram.model.impl.NamedNodeImpl--><a href="NamedNodeImpl.html" target="_top" title="NamedNodeImpl.html" xlink:actuate="onRequest" xlink:href="NamedNodeImpl.html" xlink:show="new" xlink:title="NamedNodeImpl.html" xlink:type="simple"><rect codeLine="5" fill="#FEFECE" filter="url(#f1e8ijm4307737)" height="131.2031" id="org.eclipse.epf.diagram.model.impl.NamedNodeImpl" style="stroke: #A80036; stroke-width: 1.5;" width="201" x="113" y="143"/><ellipse cx="128" cy="163.0938" fill="#ADD1B2" rx="11" ry="11" style="stroke: #A80036; stroke-width: 1.0;"/><path d="M130.7656,158.9688 Q130.9219,158.75 131.1094,158.6406 Q131.2969,158.5313 131.5156,158.5313 Q131.8906,158.5313 132.125,158.7969 Q132.3594,159.0469 132.3594,159.6563 L132.3594,161.1094 Q132.3594,161.7188 132.125,161.9844 Q131.8906,162.25 131.5156,162.25 Q131.1719,162.25 130.9688,162.0469 Q130.7656,161.8594 130.6563,161.3438 Q130.6094,160.9844 130.4219,160.7969 Q130.0938,160.4219 129.4844,160.2031 Q128.875,159.9844 128.25,159.9844 Q127.4844,159.9844 126.8438,160.3125 Q126.2188,160.6406 125.7188,161.3906 Q125.2344,162.1406 125.2344,163.1719 L125.2344,164.2656 Q125.2344,165.5 126.125,166.3281 Q127.0156,167.1406 128.6094,167.1406 Q129.5469,167.1406 130.2031,166.8906 Q130.5938,166.7344 131.0156,166.2969 Q131.2813,166.0313 131.4219,165.9531 Q131.5781,165.875 131.7813,165.875 Q132.1094,165.875 132.3594,166.1406 Q132.625,166.3906 132.625,166.7344 Q132.625,167.0781 132.2813,167.4844 Q131.7813,168.0625 130.9844,168.3906 Q129.9063,168.8438 128.6094,168.8438 Q127.0938,168.8438 125.8906,168.2188 Q124.9063,167.7188 124.2188,166.6563 Q123.5313,165.5781 123.5313,164.2969 L123.5313,163.1406 Q123.5313,161.8125 124.1406,160.6719 Q124.7656,159.5156 125.8594,158.9063 Q126.9531,158.2813 128.1875,158.2813 Q128.9219,158.2813 129.5625,158.4531 Q130.2188,158.6094 130.7656,158.9688 Z "/><text fill="#000000" font-family="sans-serif" font-size="14" lengthAdjust="spacingAndGlyphs" textLength="102" x="175.5" y="162.5332">NamedNodeImpl</text><text fill="#000000" font-family="sans-serif" font-size="10" lengthAdjust="spacingAndGlyphs" textLength="169" x="142" y="175.9902">org.eclipse.epf.diagram.model.impl</text><line style="stroke: #A80036; stroke-width: 1.5;" x1="114" x2="313" y1="183.1875" y2="183.1875"/><ellipse cx="124" cy="194.1875" fill="#84BE84" rx="3" ry="3" style="stroke: #038048; stroke-width: 1.0;"/><text fill="#000000" font-family="sans-serif" font-size="11" lengthAdjust="spacingAndGlyphs" textLength="84" x="133" y="198.6064">getName(): String</text><ellipse cx="124" cy="208.0234" fill="#84BE84" rx="3" ry="3" style="stroke: #038048; stroke-width: 1.0;"/><text fill="#000000" font-family="sans-serif" font-size="11" lengthAdjust="spacingAndGlyphs" textLength="104" x="133" y="212.4424">setName(String): void</text><ellipse cx="124" cy="221.8594" fill="#84BE84" rx="3" ry="3" style="stroke: #038048; stroke-width: 1.0;"/><text fill="#000000" font-family="sans-serif" font-size="11" lengthAdjust="spacingAndGlyphs" textLength="167" x="133" y="226.2783">eGet(int, boolean, boolean): Object</text><ellipse cx="124" cy="235.6953" fill="#84BE84" rx="3" ry="3" style="stroke: #038048; stroke-width: 1.0;"/><text fill="#000000" font-family="sans-serif" font-size="11" lengthAdjust="spacingAndGlyphs" textLength="104" x="133" y="240.1143">eSet(int, Object): void</text><ellipse cx="124" cy="249.5313" fill="#84BE84" rx="3" ry="3" style="stroke: #038048; stroke-width: 1.0;"/><text fill="#000000" font-family="sans-serif" font-size="11" lengthAdjust="spacingAndGlyphs" textLength="79" x="133" y="253.9502">eUnset(int): void</text><ellipse cx="124" cy="263.3672" fill="#84BE84" rx="3" ry="3" style="stroke: #038048; stroke-width: 1.0;"/><text fill="#000000" font-family="sans-serif" font-size="11" lengthAdjust="spacingAndGlyphs" textLength="93" x="133" y="267.7861">eIsSet(int): boolean</text></a><!--MD5=[1f6f541a23c2b619b95303554c6c26c8]
class org.eclipse.epf.diagram.model.impl.NodeImpl--><a href="NodeImpl.html" target="_top" title="NodeImpl.html" xlink:actuate="onRequest" xlink:href="NodeImpl.html" xlink:show="new" xlink:title="NodeImpl.html" xlink:type="simple"><rect codeLine="14" fill="#FEFECE" filter="url(#f1e8ijm4307737)" height="40.1875" id="org.eclipse.epf.diagram.model.impl.NodeImpl" style="stroke: #A80036; stroke-width: 1.5;" width="195" x="7" y="25"/><ellipse cx="22" cy="45.0938" fill="#A9DCDF" rx="11" ry="11" style="stroke: #A80036; stroke-width: 1.0;"/><path d="M24.1875,46.8594 L20.0469,46.8594 L19.625,47.8906 L20.0469,47.8906 Q20.6563,47.8906 20.9219,48.125 Q21.1875,48.3594 21.1875,48.75 Q21.1875,49.125 20.9219,49.3594 Q20.6563,49.5938 20.0469,49.5938 L17.75,49.5938 Q17.1406,49.5938 16.8906,49.3594 Q16.625,49.125 16.625,48.7344 Q16.625,48.3594 16.9063,48.125 Q17.1719,47.875 17.7969,47.8906 L20.4688,41.2344 L19.3594,41.2344 Q18.75,41.2344 18.4844,41 Q18.2188,40.7656 18.2188,40.375 Q18.2188,40 18.4844,39.7656 Q18.75,39.5313 19.3594,39.5313 L23.0313,39.5313 L26.4219,47.8906 Q27.0156,47.8906 27.2031,48.0313 Q27.5938,48.2969 27.5938,48.75 Q27.5938,49.125 27.3281,49.3594 Q27.0781,49.5938 26.4688,49.5938 L24.1719,49.5938 Q23.5625,49.5938 23.2969,49.3594 Q23.0313,49.125 23.0313,48.7344 Q23.0313,48.3594 23.2969,48.125 Q23.5625,47.8906 24.1719,47.8906 L24.5938,47.8906 L24.1875,46.8594 Z M23.4688,45.1563 L22.1094,41.7813 L20.7344,45.1563 L23.4688,45.1563 Z "/><text fill="#000000" font-family="sans-serif" font-size="14" font-style="italic" lengthAdjust="spacingAndGlyphs" textLength="60" x="87.5" y="44.5332">NodeImpl</text><text fill="#000000" font-family="sans-serif" font-size="10" font-style="italic" lengthAdjust="spacingAndGlyphs" textLength="163" x="36" y="57.9902">org.eclipse.epf.diagram.model.impl</text></a><!--MD5=[440ff02f3d39fc70d00980ee1f19f50a]
class org.eclipse.epf.diagram.model.NamedNode--><a href="..\NamedNode.html" target="_top" title="..\NamedNode.html" xlink:actuate="onRequest" xlink:href="..\NamedNode.html" xlink:show="new" xlink:title="..\NamedNode.html" xlink:type="simple"><rect codeLine="15" fill="#FEFECE" filter="url(#f1e8ijm4307737)" height="75.8594" id="org.eclipse.epf.diagram.model.NamedNode" style="stroke: #A80036; stroke-width: 1.5;" width="173" x="237" y="7"/><ellipse cx="252" cy="27.0938" fill="#B4A7E5" rx="11" ry="11" style="stroke: #A80036; stroke-width: 1.0;"/><path d="M252.9531,23.7344 L252.9531,30.3906 L254.6719,30.3906 Q255.2813,30.3906 255.5469,30.625 Q255.8125,30.8594 255.8125,31.25 Q255.8125,31.625 255.5469,31.8594 Q255.2813,32.0938 254.6719,32.0938 L249.5313,32.0938 Q248.9219,32.0938 248.6563,31.8594 Q248.3906,31.625 248.3906,31.2344 Q248.3906,30.8594 248.6563,30.625 Q248.9219,30.3906 249.5313,30.3906 L251.25,30.3906 L251.25,23.7344 L249.5313,23.7344 Q248.9219,23.7344 248.6563,23.5 Q248.3906,23.2656 248.3906,22.875 Q248.3906,22.5 248.6563,22.2656 Q248.9219,22.0313 249.5313,22.0313 L254.6719,22.0313 Q255.2813,22.0313 255.5469,22.2656 Q255.8125,22.5 255.8125,22.875 Q255.8125,23.2656 255.5469,23.5 Q255.2813,23.7344 254.6719,23.7344 L252.9531,23.7344 Z "/><text fill="#000000" font-family="sans-serif" font-size="14" font-style="italic" lengthAdjust="spacingAndGlyphs" textLength="79" x="297" y="26.5332">NamedNode</text><text fill="#000000" font-family="sans-serif" font-size="10" font-style="italic" lengthAdjust="spacingAndGlyphs" textLength="141" x="266" y="39.9902">org.eclipse.epf.diagram.model</text><line style="stroke: #A80036; stroke-width: 1.5;" x1="238" x2="409" y1="47.1875" y2="47.1875"/><ellipse cx="248" cy="58.1875" fill="#84BE84" rx="3" ry="3" style="stroke: #038048; stroke-width: 1.0;"/><text fill="#000000" font-family="sans-serif" font-size="11" font-style="italic" lengthAdjust="spacingAndGlyphs" textLength="87" x="257" y="62.6064">getName(): String</text><ellipse cx="248" cy="72.0234" fill="#84BE84" rx="3" ry="3" style="stroke: #038048; stroke-width: 1.0;"/><text fill="#000000" font-family="sans-serif" font-size="11" font-style="italic" lengthAdjust="spacingAndGlyphs" textLength="107" x="257" y="76.4424">setName(String): void</text></a><!--MD5=[98323f1cfae0faae945573de01da2b58]
reverse link org.eclipse.epf.diagram.model.impl.NodeImpl to org.eclipse.epf.diagram.model.impl.NamedNodeImpl--><path codeLine="20" d="M128.79,81.98 C140.84,99.84 155.77,121.97 169.73,142.65 " fill="none" id="org.eclipse.epf.diagram.model.impl.NodeImpl-backto-org.eclipse.epf.diagram.model.impl.NamedNodeImpl" style="stroke: #A80036; stroke-width: 1.0;"/><polygon fill="none" points="122.82,85.65,117.43,65.16,134.42,77.82,122.82,85.65" style="stroke: #A80036; stroke-width: 1.0;"/><!--MD5=[88a1e21f55f818afc8049c5ae556a680]
reverse link org.eclipse.epf.diagram.model.NamedNode to org.eclipse.epf.diagram.model.impl.NamedNodeImpl--><path codeLine="21" d="M286.91,99.73 C277.52,113.51 267.33,128.47 257.61,142.74 " fill="none" id="org.eclipse.epf.diagram.model.NamedNode-backto-org.eclipse.epf.diagram.model.impl.NamedNodeImpl" style="stroke: #A80036; stroke-width: 1.0; stroke-dasharray: 7.0,7.0;"/><polygon fill="none" points="281.22,95.64,298.26,83.05,292.79,103.52,281.22,95.64" style="stroke: #A80036; stroke-width: 1.0;"/><text fill="#888888" font-family="sans-serif" font-size="10" lengthAdjust="spacingAndGlyphs" textLength="190" x="110.5" y="297.584">UMLDoclet 2.0.12, PlantUML 1.2020.16</text><!--MD5=[93e15a84f76b695784848e7eca714d92]
@startuml
    set namespaceSeparator none
    hide empty fields
    hide empty methods

    class "<size:14>NamedNodeImpl\n<size:10>org.eclipse.epf.diagram.model.impl" as org.eclipse.epf.diagram.model.impl.NamedNodeImpl [[NamedNodeImpl.html]] {
        +getName(): String
        +setName(String): void
        +eGet(int, boolean, boolean): Object
        +eSet(int, Object): void
        +eUnset(int): void
        +eIsSet(int): boolean
    }

    abstract class "<size:14>NodeImpl\n<size:10>org.eclipse.epf.diagram.model.impl" as org.eclipse.epf.diagram.model.impl.NodeImpl [[NodeImpl.html]]
    interface "<size:14>NamedNode\n<size:10>org.eclipse.epf.diagram.model" as org.eclipse.epf.diagram.model.NamedNode [[..\NamedNode.html]] {
        {abstract} +getName(): String
        {abstract} +setName(String): void
    }

    org.eclipse.epf.diagram.model.impl.NodeImpl <|- - org.eclipse.epf.diagram.model.impl.NamedNodeImpl
    org.eclipse.epf.diagram.model.NamedNode <|.. org.eclipse.epf.diagram.model.impl.NamedNodeImpl

    center footer UMLDoclet 2.0.12, PlantUML 1.2020.16
@enduml

PlantUML version 1.2020.16(Sun Aug 23 22:20:43 CEST 2020)
(APACHE source distribution)
Java Runtime: Java(TM) SE Runtime Environment
JVM: Java HotSpot(TM) 64-Bit Server VM
Default Encoding: Cp1252
Language: es
Country: ES
--></g></svg>