<?xml version="1.0" encoding="UTF-8" standalone="no"?><svg xmlns="http://www.w3.org/2000/svg" xmlns:xlink="http://www.w3.org/1999/xlink" contentScriptType="application/ecmascript" contentStyleType="text/css" height="560px" preserveAspectRatio="none" style="width:443px;height:560px;" version="1.1" viewBox="0 0 443 560" width="443px" zoomAndPan="magnify"><defs><filter height="300%" id="fo3c5byrvvwah" width="300%" x="-1" y="-1"><feGaussianBlur result="blurOut" stdDeviation="2.0"/><feColorMatrix in="blurOut" result="blurOut2" type="matrix" values="0 0 0 0 0 0 0 0 0 0 0 0 0 0 0 0 0 0 .4 0"/><feOffset dx="4.0" dy="4.0" in="blurOut2" result="blurOut3"/><feBlend in="SourceGraphic" in2="blurOut3" mode="normal"/></filter></defs><g><!--MD5=[1f6f541a23c2b619b95303554c6c26c8]
class org.eclipse.epf.diagram.model.impl.NodeImpl--><a href="NodeImpl.html" target="_top" title="NodeImpl.html" xlink:actuate="onRequest" xlink:href="NodeImpl.html" xlink:show="new" xlink:title="NodeImpl.html" xlink:type="simple"><rect codeLine="5" fill="#FEFECE" filter="url(#fo3c5byrvvwah)" height="269.5625" id="org.eclipse.epf.diagram.model.impl.NodeImpl" style="stroke: #A80036; stroke-width: 1.5;" width="376" x="29.5" y="254"/><ellipse cx="131.75" cy="274.0938" fill="#A9DCDF" rx="11" ry="11" style="stroke: #A80036; stroke-width: 1.0;"/><path d="M133.9375,275.8594 L129.7969,275.8594 L129.375,276.8906 L129.7969,276.8906 Q130.4063,276.8906 130.6719,277.125 Q130.9375,277.3594 130.9375,277.75 Q130.9375,278.125 130.6719,278.3594 Q130.4063,278.5938 129.7969,278.5938 L127.5,278.5938 Q126.8906,278.5938 126.6406,278.3594 Q126.375,278.125 126.375,277.7344 Q126.375,277.3594 126.6563,277.125 Q126.9219,276.875 127.5469,276.8906 L130.2188,270.2344 L129.1094,270.2344 Q128.5,270.2344 128.2344,270 Q127.9688,269.7656 127.9688,269.375 Q127.9688,269 128.2344,268.7656 Q128.5,268.5313 129.1094,268.5313 L132.7813,268.5313 L136.1719,276.8906 Q136.7656,276.8906 136.9531,277.0313 Q137.3438,277.2969 137.3438,277.75 Q137.3438,278.125 137.0781,278.3594 Q136.8281,278.5938 136.2188,278.5938 L133.9219,278.5938 Q133.3125,278.5938 133.0469,278.3594 Q132.7813,278.125 132.7813,277.7344 Q132.7813,277.3594 133.0469,277.125 Q133.3125,276.8906 133.9219,276.8906 L134.3438,276.8906 L133.9375,275.8594 Z M133.2188,274.1563 L131.8594,270.7813 L130.4844,274.1563 L133.2188,274.1563 Z "/><text fill="#000000" font-family="sans-serif" font-size="14" font-style="italic" lengthAdjust="spacingAndGlyphs" textLength="60" x="203.75" y="273.5332">NodeImpl</text><text fill="#000000" font-family="sans-serif" font-size="10" font-style="italic" lengthAdjust="spacingAndGlyphs" textLength="163" x="152.25" y="286.9902">org.eclipse.epf.diagram.model.impl</text><line style="stroke: #A80036; stroke-width: 1.5;" x1="30.5" x2="404.5" y1="294.1875" y2="294.1875"/><ellipse cx="40.5" cy="305.1875" fill="#84BE84" rx="3" ry="3" style="stroke: #038048; stroke-width: 1.0;"/><text fill="#000000" font-family="sans-serif" font-size="11" lengthAdjust="spacingAndGlyphs" textLength="93" x="49.5" y="309.6064">getLocation(): Point</text><ellipse cx="40.5" cy="319.0234" fill="#84BE84" rx="3" ry="3" style="stroke: #038048; stroke-width: 1.0;"/><text fill="#000000" font-family="sans-serif" font-size="11" lengthAdjust="spacingAndGlyphs" textLength="113" x="49.5" y="323.4424">setLocation(Point): void</text><ellipse cx="40.5" cy="332.8594" fill="#84BE84" rx="3" ry="3" style="stroke: #038048; stroke-width: 1.0;"/><text fill="#000000" font-family="sans-serif" font-size="11" lengthAdjust="spacingAndGlyphs" textLength="67" x="49.5" y="337.2783">getWidth(): int</text><ellipse cx="40.5" cy="346.6953" fill="#84BE84" rx="3" ry="3" style="stroke: #038048; stroke-width: 1.0;"/><text fill="#000000" font-family="sans-serif" font-size="11" lengthAdjust="spacingAndGlyphs" textLength="87" x="49.5" y="351.1143">setWidth(int): void</text><ellipse cx="40.5" cy="360.5313" fill="#84BE84" rx="3" ry="3" style="stroke: #038048; stroke-width: 1.0;"/><text fill="#000000" font-family="sans-serif" font-size="11" lengthAdjust="spacingAndGlyphs" textLength="70" x="49.5" y="364.9502">getHeight(): int</text><ellipse cx="40.5" cy="374.3672" fill="#84BE84" rx="3" ry="3" style="stroke: #038048; stroke-width: 1.0;"/><text fill="#000000" font-family="sans-serif" font-size="11" lengthAdjust="spacingAndGlyphs" textLength="90" x="49.5" y="378.7861">setHeight(int): void</text><ellipse cx="40.5" cy="388.2031" fill="#84BE84" rx="3" ry="3" style="stroke: #038048; stroke-width: 1.0;"/><text fill="#000000" font-family="sans-serif" font-size="11" lengthAdjust="spacingAndGlyphs" textLength="154" x="49.5" y="392.6221">getIncomingConnections(): EList</text><ellipse cx="40.5" cy="402.0391" fill="#84BE84" rx="3" ry="3" style="stroke: #038048; stroke-width: 1.0;"/><text fill="#000000" font-family="sans-serif" font-size="11" lengthAdjust="spacingAndGlyphs" textLength="155" x="49.5" y="406.458">getOutgoingConnections(): EList</text><ellipse cx="40.5" cy="415.875" fill="#84BE84" rx="3" ry="3" style="stroke: #038048; stroke-width: 1.0;"/><text fill="#000000" font-family="sans-serif" font-size="11" lengthAdjust="spacingAndGlyphs" textLength="107" x="49.5" y="420.2939">isReadOnly(): boolean</text><ellipse cx="40.5" cy="429.7109" fill="#84BE84" rx="3" ry="3" style="stroke: #038048; stroke-width: 1.0;"/><text fill="#000000" font-family="sans-serif" font-size="11" lengthAdjust="spacingAndGlyphs" textLength="134" x="49.5" y="434.1299">setReadOnly(boolean): void</text><ellipse cx="40.5" cy="443.5469" fill="#84BE84" rx="3" ry="3" style="stroke: #038048; stroke-width: 1.0;"/><text fill="#000000" font-family="sans-serif" font-size="11" lengthAdjust="spacingAndGlyphs" textLength="331" x="49.5" y="447.9658">eInverseAdd(InternalEObject, int, NotificationChain): NotificationChain</text><ellipse cx="40.5" cy="457.3828" fill="#84BE84" rx="3" ry="3" style="stroke: #038048; stroke-width: 1.0;"/><text fill="#000000" font-family="sans-serif" font-size="11" lengthAdjust="spacingAndGlyphs" textLength="350" x="49.5" y="461.8018">eInverseRemove(InternalEObject, int, NotificationChain): NotificationChain</text><ellipse cx="40.5" cy="471.2188" fill="#84BE84" rx="3" ry="3" style="stroke: #038048; stroke-width: 1.0;"/><text fill="#000000" font-family="sans-serif" font-size="11" lengthAdjust="spacingAndGlyphs" textLength="167" x="49.5" y="475.6377">eGet(int, boolean, boolean): Object</text><ellipse cx="40.5" cy="485.0547" fill="#84BE84" rx="3" ry="3" style="stroke: #038048; stroke-width: 1.0;"/><text fill="#000000" font-family="sans-serif" font-size="11" lengthAdjust="spacingAndGlyphs" textLength="104" x="49.5" y="489.4736">eSet(int, Object): void</text><ellipse cx="40.5" cy="498.8906" fill="#84BE84" rx="3" ry="3" style="stroke: #038048; stroke-width: 1.0;"/><text fill="#000000" font-family="sans-serif" font-size="11" lengthAdjust="spacingAndGlyphs" textLength="79" x="49.5" y="503.3096">eUnset(int): void</text><ellipse cx="40.5" cy="512.7266" fill="#84BE84" rx="3" ry="3" style="stroke: #038048; stroke-width: 1.0;"/><text fill="#000000" font-family="sans-serif" font-size="11" lengthAdjust="spacingAndGlyphs" textLength="93" x="49.5" y="517.1455">eIsSet(int): boolean</text></a><!--MD5=[56f659328daf2ba0e36b83ac30ec6bac]
class org.eclipse.epf.diagram.model.impl.LinkedObjectImpl--><a href="LinkedObjectImpl.html" target="_top" title="LinkedObjectImpl.html" xlink:actuate="onRequest" xlink:href="LinkedObjectImpl.html" xlink:show="new" xlink:title="LinkedObjectImpl.html" xlink:type="simple"><rect codeLine="24" fill="#FEFECE" filter="url(#fo3c5byrvvwah)" height="40.1875" id="org.eclipse.epf.diagram.model.impl.LinkedObjectImpl" style="stroke: #A80036; stroke-width: 1.5;" width="195" x="7" y="80.5"/><ellipse cx="22" cy="100.5938" fill="#A9DCDF" rx="11" ry="11" style="stroke: #A80036; stroke-width: 1.0;"/><path d="M24.1875,102.3594 L20.0469,102.3594 L19.625,103.3906 L20.0469,103.3906 Q20.6563,103.3906 20.9219,103.625 Q21.1875,103.8594 21.1875,104.25 Q21.1875,104.625 20.9219,104.8594 Q20.6563,105.0938 20.0469,105.0938 L17.75,105.0938 Q17.1406,105.0938 16.8906,104.8594 Q16.625,104.625 16.625,104.2344 Q16.625,103.8594 16.9063,103.625 Q17.1719,103.375 17.7969,103.3906 L20.4688,96.7344 L19.3594,96.7344 Q18.75,96.7344 18.4844,96.5 Q18.2188,96.2656 18.2188,95.875 Q18.2188,95.5 18.4844,95.2656 Q18.75,95.0313 19.3594,95.0313 L23.0313,95.0313 L26.4219,103.3906 Q27.0156,103.3906 27.2031,103.5313 Q27.5938,103.7969 27.5938,104.25 Q27.5938,104.625 27.3281,104.8594 Q27.0781,105.0938 26.4688,105.0938 L24.1719,105.0938 Q23.5625,105.0938 23.2969,104.8594 Q23.0313,104.625 23.0313,104.2344 Q23.0313,103.8594 23.2969,103.625 Q23.5625,103.3906 24.1719,103.3906 L24.5938,103.3906 L24.1875,102.3594 Z M23.4688,100.6563 L22.1094,97.2813 L20.7344,100.6563 L23.4688,100.6563 Z "/><text fill="#000000" font-family="sans-serif" font-size="14" font-style="italic" lengthAdjust="spacingAndGlyphs" textLength="110" x="62.5" y="100.0332">LinkedObjectImpl</text><text fill="#000000" font-family="sans-serif" font-size="10" font-style="italic" lengthAdjust="spacingAndGlyphs" textLength="163" x="36" y="113.4902">org.eclipse.epf.diagram.model.impl</text></a><!--MD5=[ec3b728bff6e1e64ae9e2317014b71a5]
class org.eclipse.epf.diagram.model.Node--><a href="..\Node.html" target="_top" title="..\Node.html" xlink:actuate="onRequest" xlink:href="..\Node.html" xlink:show="new" xlink:title="..\Node.html" xlink:type="simple"><rect codeLine="25" fill="#FEFECE" filter="url(#fo3c5byrvvwah)" height="186.5469" id="org.eclipse.epf.diagram.model.Node" style="stroke: #A80036; stroke-width: 1.5;" width="187" x="237" y="7"/><ellipse cx="258.3" cy="27.0938" fill="#B4A7E5" rx="11" ry="11" style="stroke: #A80036; stroke-width: 1.0;"/><path d="M259.2531,23.7344 L259.2531,30.3906 L260.9719,30.3906 Q261.5813,30.3906 261.8469,30.625 Q262.1125,30.8594 262.1125,31.25 Q262.1125,31.625 261.8469,31.8594 Q261.5813,32.0938 260.9719,32.0938 L255.8313,32.0938 Q255.2219,32.0938 254.9563,31.8594 Q254.6906,31.625 254.6906,31.2344 Q254.6906,30.8594 254.9563,30.625 Q255.2219,30.3906 255.8313,30.3906 L257.55,30.3906 L257.55,23.7344 L255.8313,23.7344 Q255.2219,23.7344 254.9563,23.5 Q254.6906,23.2656 254.6906,22.875 Q254.6906,22.5 254.9563,22.2656 Q255.2219,22.0313 255.8313,22.0313 L260.9719,22.0313 Q261.5813,22.0313 261.8469,22.2656 Q262.1125,22.5 262.1125,22.875 Q262.1125,23.2656 261.8469,23.5 Q261.5813,23.7344 260.9719,23.7344 L259.2531,23.7344 Z "/><text fill="#000000" font-family="sans-serif" font-size="14" font-style="italic" lengthAdjust="spacingAndGlyphs" textLength="34" x="327.2" y="26.5332">Node</text><text fill="#000000" font-family="sans-serif" font-size="10" font-style="italic" lengthAdjust="spacingAndGlyphs" textLength="141" x="273.7" y="39.9902">org.eclipse.epf.diagram.model</text><line style="stroke: #A80036; stroke-width: 1.5;" x1="238" x2="423" y1="47.1875" y2="47.1875"/><ellipse cx="248" cy="58.1875" fill="#84BE84" rx="3" ry="3" style="stroke: #038048; stroke-width: 1.0;"/><text fill="#000000" font-family="sans-serif" font-size="11" font-style="italic" lengthAdjust="spacingAndGlyphs" textLength="96" x="257" y="62.6064">getLocation(): Point</text><ellipse cx="248" cy="72.0234" fill="#84BE84" rx="3" ry="3" style="stroke: #038048; stroke-width: 1.0;"/><text fill="#000000" font-family="sans-serif" font-size="11" font-style="italic" lengthAdjust="spacingAndGlyphs" textLength="116" x="257" y="76.4424">setLocation(Point): void</text><ellipse cx="248" cy="85.8594" fill="#84BE84" rx="3" ry="3" style="stroke: #038048; stroke-width: 1.0;"/><text fill="#000000" font-family="sans-serif" font-size="11" font-style="italic" lengthAdjust="spacingAndGlyphs" textLength="70" x="257" y="90.2783">getWidth(): int</text><ellipse cx="248" cy="99.6953" fill="#84BE84" rx="3" ry="3" style="stroke: #038048; stroke-width: 1.0;"/><text fill="#000000" font-family="sans-serif" font-size="11" font-style="italic" lengthAdjust="spacingAndGlyphs" textLength="90" x="257" y="104.1143">setWidth(int): void</text><ellipse cx="248" cy="113.5313" fill="#84BE84" rx="3" ry="3" style="stroke: #038048; stroke-width: 1.0;"/><text fill="#000000" font-family="sans-serif" font-size="11" font-style="italic" lengthAdjust="spacingAndGlyphs" textLength="73" x="257" y="117.9502">getHeight(): int</text><ellipse cx="248" cy="127.3672" fill="#84BE84" rx="3" ry="3" style="stroke: #038048; stroke-width: 1.0;"/><text fill="#000000" font-family="sans-serif" font-size="11" font-style="italic" lengthAdjust="spacingAndGlyphs" textLength="93" x="257" y="131.7861">setHeight(int): void</text><ellipse cx="248" cy="141.2031" fill="#84BE84" rx="3" ry="3" style="stroke: #038048; stroke-width: 1.0;"/><text fill="#000000" font-family="sans-serif" font-size="11" font-style="italic" lengthAdjust="spacingAndGlyphs" textLength="161" x="257" y="145.6221">getIncomingConnections(): EList</text><ellipse cx="248" cy="155.0391" fill="#84BE84" rx="3" ry="3" style="stroke: #038048; stroke-width: 1.0;"/><text fill="#000000" font-family="sans-serif" font-size="11" font-style="italic" lengthAdjust="spacingAndGlyphs" textLength="161" x="257" y="159.458">getOutgoingConnections(): EList</text><ellipse cx="248" cy="168.875" fill="#84BE84" rx="3" ry="3" style="stroke: #038048; stroke-width: 1.0;"/><text fill="#000000" font-family="sans-serif" font-size="11" font-style="italic" lengthAdjust="spacingAndGlyphs" textLength="112" x="257" y="173.2939">isReadOnly(): boolean</text><ellipse cx="248" cy="182.7109" fill="#84BE84" rx="3" ry="3" style="stroke: #038048; stroke-width: 1.0;"/><text fill="#000000" font-family="sans-serif" font-size="11" font-style="italic" lengthAdjust="spacingAndGlyphs" textLength="138" x="257" y="187.1299">setReadOnly(boolean): void</text></a><!--MD5=[da1c04ae2dcd8ec2b1d58508eb422bf2]
reverse link org.eclipse.epf.diagram.model.impl.LinkedObjectImpl to org.eclipse.epf.diagram.model.impl.NodeImpl--><path codeLine="38" d="M119.56,139.69 C131.21,169.21 148.06,211.94 164.51,253.66 " fill="none" id="org.eclipse.epf.diagram.model.impl.LinkedObjectImpl-backto-org.eclipse.epf.diagram.model.impl.NodeImpl" style="stroke: #A80036; stroke-width: 1.0;"/><polygon fill="none" points="112.92,141.92,112.09,120.74,125.94,136.78,112.92,141.92" style="stroke: #A80036; stroke-width: 1.0;"/><!--MD5=[94f279c944d8ff0b9c9c30a2180dcea4]
reverse link org.eclipse.epf.diagram.model.Node to org.eclipse.epf.diagram.model.impl.NodeImpl--><path codeLine="39" d="M286.6,212.79 C281.31,226.22 275.85,240.05 270.45,253.76 " fill="none" id="org.eclipse.epf.diagram.model.Node-backto-org.eclipse.epf.diagram.model.impl.NodeImpl" style="stroke: #A80036; stroke-width: 1.0; stroke-dasharray: 7.0,7.0;"/><polygon fill="none" points="280.12,210.16,293.97,194.12,293.14,215.3,280.12,210.16" style="stroke: #A80036; stroke-width: 1.0;"/><text fill="#888888" font-family="sans-serif" font-size="10" lengthAdjust="spacingAndGlyphs" textLength="190" x="117.5" y="546.9434">UMLDoclet 2.0.12, PlantUML 1.2020.16</text><!--MD5=[38715e13d179ac8383b0adcd6ebf3ec5]
@startuml
    set namespaceSeparator none
    hide empty fields
    hide empty methods

    abstract class "<size:14>NodeImpl\n<size:10>org.eclipse.epf.diagram.model.impl" as org.eclipse.epf.diagram.model.impl.NodeImpl [[NodeImpl.html]] {
        +getLocation(): Point
        +setLocation(Point): void
        +getWidth(): int
        +setWidth(int): void
        +getHeight(): int
        +setHeight(int): void
        +getIncomingConnections(): EList
        +getOutgoingConnections(): EList
        +isReadOnly(): boolean
        +setReadOnly(boolean): void
        +eInverseAdd(InternalEObject, int, NotificationChain): NotificationChain
        +eInverseRemove(InternalEObject, int, NotificationChain): NotificationChain
        +eGet(int, boolean, boolean): Object
        +eSet(int, Object): void
        +eUnset(int): void
        +eIsSet(int): boolean
    }

    abstract class "<size:14>LinkedObjectImpl\n<size:10>org.eclipse.epf.diagram.model.impl" as org.eclipse.epf.diagram.model.impl.LinkedObjectImpl [[LinkedObjectImpl.html]]
    interface "<size:14>Node\n<size:10>org.eclipse.epf.diagram.model" as org.eclipse.epf.diagram.model.Node [[..\Node.html]] {
        {abstract} +getLocation(): Point
        {abstract} +setLocation(Point): void
        {abstract} +getWidth(): int
        {abstract} +setWidth(int): void
        {abstract} +getHeight(): int
        {abstract} +setHeight(int): void
        {abstract} +getIncomingConnections(): EList
        {abstract} +getOutgoingConnections(): EList
        {abstract} +isReadOnly(): boolean
        {abstract} +setReadOnly(boolean): void
    }

    org.eclipse.epf.diagram.model.impl.LinkedObjectImpl <|- - org.eclipse.epf.diagram.model.impl.NodeImpl
    org.eclipse.epf.diagram.model.Node <|.. org.eclipse.epf.diagram.model.impl.NodeImpl

    center footer UMLDoclet 2.0.12, PlantUML 1.2020.16
@enduml

PlantUML version 1.2020.16(Sun Aug 23 22:20:43 CEST 2020)
(APACHE source distribution)
Java Runtime: Java(TM) SE Runtime Environment
JVM: Java HotSpot(TM) 64-Bit Server VM
Default Encoding: Cp1252
Language: es
Country: ES
--></g></svg>