<?xml version="1.0" encoding="UTF-8" standalone="no"?><svg xmlns="http://www.w3.org/2000/svg" xmlns:xlink="http://www.w3.org/1999/xlink" contentScriptType="application/ecmascript" contentStyleType="text/css" height="297px" preserveAspectRatio="none" style="width:429px;height:297px;" version="1.1" viewBox="0 0 429 297" width="429px" zoomAndPan="magnify"><defs><filter height="300%" id="f154moetmezyd9" width="300%" x="-1" y="-1"><feGaussianBlur result="blurOut" stdDeviation="2.0"/><feColorMatrix in="blurOut" result="blurOut2" type="matrix" values="0 0 0 0 0 0 0 0 0 0 0 0 0 0 0 0 0 0 .4 0"/><feOffset dx="4.0" dy="4.0" in="blurOut2" result="blurOut3"/><feBlend in="SourceGraphic" in2="blurOut3" mode="normal"/></filter></defs><g><!--MD5=[137ce4c72a0dcc6f59a7576f60151c42]
class org.eclipse.epf.diagram.model.impl.NodeContainerImpl--><a href="NodeContainerImpl.html" target="_top" title="NodeContainerImpl.html" xlink:actuate="onRequest" xlink:href="NodeContainerImpl.html" xlink:show="new" xlink:title="NodeContainerImpl.html" xlink:type="simple"><rect codeLine="5" fill="#FEFECE" filter="url(#f154moetmezyd9)" height="131.2031" id="org.eclipse.epf.diagram.model.impl.NodeContainerImpl" style="stroke: #A80036; stroke-width: 1.5;" width="376" x="25.5" y="129"/><ellipse cx="127.75" cy="149.0938" fill="#A9DCDF" rx="11" ry="11" style="stroke: #A80036; stroke-width: 1.0;"/><path d="M129.9375,150.8594 L125.7969,150.8594 L125.375,151.8906 L125.7969,151.8906 Q126.4063,151.8906 126.6719,152.125 Q126.9375,152.3594 126.9375,152.75 Q126.9375,153.125 126.6719,153.3594 Q126.4063,153.5938 125.7969,153.5938 L123.5,153.5938 Q122.8906,153.5938 122.6406,153.3594 Q122.375,153.125 122.375,152.7344 Q122.375,152.3594 122.6563,152.125 Q122.9219,151.875 123.5469,151.8906 L126.2188,145.2344 L125.1094,145.2344 Q124.5,145.2344 124.2344,145 Q123.9688,144.7656 123.9688,144.375 Q123.9688,144 124.2344,143.7656 Q124.5,143.5313 125.1094,143.5313 L128.7813,143.5313 L132.1719,151.8906 Q132.7656,151.8906 132.9531,152.0313 Q133.3438,152.2969 133.3438,152.75 Q133.3438,153.125 133.0781,153.3594 Q132.8281,153.5938 132.2188,153.5938 L129.9219,153.5938 Q129.3125,153.5938 129.0469,153.3594 Q128.7813,153.125 128.7813,152.7344 Q128.7813,152.3594 129.0469,152.125 Q129.3125,151.8906 129.9219,151.8906 L130.3438,151.8906 L129.9375,150.8594 Z M129.2188,149.1563 L127.8594,145.7813 L126.4844,149.1563 L129.2188,149.1563 Z "/><text fill="#000000" font-family="sans-serif" font-size="14" font-style="italic" lengthAdjust="spacingAndGlyphs" textLength="122" x="168.75" y="148.5332">NodeContainerImpl</text><text fill="#000000" font-family="sans-serif" font-size="10" font-style="italic" lengthAdjust="spacingAndGlyphs" textLength="163" x="148.25" y="161.9902">org.eclipse.epf.diagram.model.impl</text><line style="stroke: #A80036; stroke-width: 1.5;" x1="26.5" x2="400.5" y1="169.1875" y2="169.1875"/><ellipse cx="36.5" cy="180.1875" fill="#84BE84" rx="3" ry="3" style="stroke: #038048; stroke-width: 1.0;"/><text fill="#000000" font-family="sans-serif" font-size="11" lengthAdjust="spacingAndGlyphs" textLength="83" x="45.5" y="184.6064">getNodes(): EList</text><ellipse cx="36.5" cy="194.0234" fill="#84BE84" rx="3" ry="3" style="stroke: #038048; stroke-width: 1.0;"/><text fill="#000000" font-family="sans-serif" font-size="11" lengthAdjust="spacingAndGlyphs" textLength="350" x="45.5" y="198.4424">eInverseRemove(InternalEObject, int, NotificationChain): NotificationChain</text><ellipse cx="36.5" cy="207.8594" fill="#84BE84" rx="3" ry="3" style="stroke: #038048; stroke-width: 1.0;"/><text fill="#000000" font-family="sans-serif" font-size="11" lengthAdjust="spacingAndGlyphs" textLength="167" x="45.5" y="212.2783">eGet(int, boolean, boolean): Object</text><ellipse cx="36.5" cy="221.6953" fill="#84BE84" rx="3" ry="3" style="stroke: #038048; stroke-width: 1.0;"/><text fill="#000000" font-family="sans-serif" font-size="11" lengthAdjust="spacingAndGlyphs" textLength="104" x="45.5" y="226.1143">eSet(int, Object): void</text><ellipse cx="36.5" cy="235.5313" fill="#84BE84" rx="3" ry="3" style="stroke: #038048; stroke-width: 1.0;"/><text fill="#000000" font-family="sans-serif" font-size="11" lengthAdjust="spacingAndGlyphs" textLength="79" x="45.5" y="239.9502">eUnset(int): void</text><ellipse cx="36.5" cy="249.3672" fill="#84BE84" rx="3" ry="3" style="stroke: #038048; stroke-width: 1.0;"/><text fill="#000000" font-family="sans-serif" font-size="11" lengthAdjust="spacingAndGlyphs" textLength="93" x="45.5" y="253.7861">eIsSet(int): boolean</text></a><!--MD5=[1f6f541a23c2b619b95303554c6c26c8]
class org.eclipse.epf.diagram.model.impl.NodeImpl--><a href="NodeImpl.html" target="_top" title="NodeImpl.html" xlink:actuate="onRequest" xlink:href="NodeImpl.html" xlink:show="new" xlink:title="NodeImpl.html" xlink:type="simple"><rect codeLine="14" fill="#FEFECE" filter="url(#f154moetmezyd9)" height="40.1875" id="org.eclipse.epf.diagram.model.impl.NodeImpl" style="stroke: #A80036; stroke-width: 1.5;" width="195" x="7" y="18"/><ellipse cx="22" cy="38.0938" fill="#A9DCDF" rx="11" ry="11" style="stroke: #A80036; stroke-width: 1.0;"/><path d="M24.1875,39.8594 L20.0469,39.8594 L19.625,40.8906 L20.0469,40.8906 Q20.6563,40.8906 20.9219,41.125 Q21.1875,41.3594 21.1875,41.75 Q21.1875,42.125 20.9219,42.3594 Q20.6563,42.5938 20.0469,42.5938 L17.75,42.5938 Q17.1406,42.5938 16.8906,42.3594 Q16.625,42.125 16.625,41.7344 Q16.625,41.3594 16.9063,41.125 Q17.1719,40.875 17.7969,40.8906 L20.4688,34.2344 L19.3594,34.2344 Q18.75,34.2344 18.4844,34 Q18.2188,33.7656 18.2188,33.375 Q18.2188,33 18.4844,32.7656 Q18.75,32.5313 19.3594,32.5313 L23.0313,32.5313 L26.4219,40.8906 Q27.0156,40.8906 27.2031,41.0313 Q27.5938,41.2969 27.5938,41.75 Q27.5938,42.125 27.3281,42.3594 Q27.0781,42.5938 26.4688,42.5938 L24.1719,42.5938 Q23.5625,42.5938 23.2969,42.3594 Q23.0313,42.125 23.0313,41.7344 Q23.0313,41.3594 23.2969,41.125 Q23.5625,40.8906 24.1719,40.8906 L24.5938,40.8906 L24.1875,39.8594 Z M23.4688,38.1563 L22.1094,34.7813 L20.7344,38.1563 L23.4688,38.1563 Z "/><text fill="#000000" font-family="sans-serif" font-size="14" font-style="italic" lengthAdjust="spacingAndGlyphs" textLength="60" x="87.5" y="37.5332">NodeImpl</text><text fill="#000000" font-family="sans-serif" font-size="10" font-style="italic" lengthAdjust="spacingAndGlyphs" textLength="163" x="36" y="50.9902">org.eclipse.epf.diagram.model.impl</text></a><!--MD5=[ecc1d7a0d11f82960db629ec4a998de8]
class org.eclipse.epf.diagram.model.NodeContainer--><a href="..\NodeContainer.html" target="_top" title="..\NodeContainer.html" xlink:actuate="onRequest" xlink:href="..\NodeContainer.html" xlink:show="new" xlink:title="..\NodeContainer.html" xlink:type="simple"><rect codeLine="15" fill="#FEFECE" filter="url(#f154moetmezyd9)" height="62.0234" id="org.eclipse.epf.diagram.model.NodeContainer" style="stroke: #A80036; stroke-width: 1.5;" width="173" x="237" y="7"/><ellipse cx="252" cy="27.0938" fill="#B4A7E5" rx="11" ry="11" style="stroke: #A80036; stroke-width: 1.0;"/><path d="M252.9531,23.7344 L252.9531,30.3906 L254.6719,30.3906 Q255.2813,30.3906 255.5469,30.625 Q255.8125,30.8594 255.8125,31.25 Q255.8125,31.625 255.5469,31.8594 Q255.2813,32.0938 254.6719,32.0938 L249.5313,32.0938 Q248.9219,32.0938 248.6563,31.8594 Q248.3906,31.625 248.3906,31.2344 Q248.3906,30.8594 248.6563,30.625 Q248.9219,30.3906 249.5313,30.3906 L251.25,30.3906 L251.25,23.7344 L249.5313,23.7344 Q248.9219,23.7344 248.6563,23.5 Q248.3906,23.2656 248.3906,22.875 Q248.3906,22.5 248.6563,22.2656 Q248.9219,22.0313 249.5313,22.0313 L254.6719,22.0313 Q255.2813,22.0313 255.5469,22.2656 Q255.8125,22.5 255.8125,22.875 Q255.8125,23.2656 255.5469,23.5 Q255.2813,23.7344 254.6719,23.7344 L252.9531,23.7344 Z "/><text fill="#000000" font-family="sans-serif" font-size="14" font-style="italic" lengthAdjust="spacingAndGlyphs" textLength="96" x="288.5" y="26.5332">NodeContainer</text><text fill="#000000" font-family="sans-serif" font-size="10" font-style="italic" lengthAdjust="spacingAndGlyphs" textLength="141" x="266" y="39.9902">org.eclipse.epf.diagram.model</text><line style="stroke: #A80036; stroke-width: 1.5;" x1="238" x2="409" y1="47.1875" y2="47.1875"/><ellipse cx="248" cy="58.1875" fill="#84BE84" rx="3" ry="3" style="stroke: #038048; stroke-width: 1.0;"/><text fill="#000000" font-family="sans-serif" font-size="11" font-style="italic" lengthAdjust="spacingAndGlyphs" textLength="86" x="257" y="62.6064">getNodes(): EList</text></a><!--MD5=[0b6619dae569f1cf5749124decccb495]
reverse link org.eclipse.epf.diagram.model.impl.NodeImpl to org.eclipse.epf.diagram.model.impl.NodeContainerImpl--><path codeLine="19" d="M129.69,74.7 C141.02,90.76 154.76,110.23 167.8,128.72 " fill="none" id="org.eclipse.epf.diagram.model.impl.NodeImpl-backto-org.eclipse.epf.diagram.model.impl.NodeContainerImpl" style="stroke: #A80036; stroke-width: 1.0;"/><polygon fill="none" points="123.89,78.63,118.08,58.26,135.33,70.56,123.89,78.63" style="stroke: #A80036; stroke-width: 1.0;"/><!--MD5=[979823041ee4dfc3791fc053c17522ea]
reverse link org.eclipse.epf.diagram.model.NodeContainer to org.eclipse.epf.diagram.model.impl.NodeContainerImpl--><path codeLine="20" d="M290.41,85.47 C280.69,99.13 269.87,114.32 259.49,128.9 " fill="none" id="org.eclipse.epf.diagram.model.NodeContainer-backto-org.eclipse.epf.diagram.model.impl.NodeContainerImpl" style="stroke: #A80036; stroke-width: 1.0; stroke-dasharray: 7.0,7.0;"/><polygon fill="none" points="284.73,81.39,302.03,69.16,296.13,89.51,284.73,81.39" style="stroke: #A80036; stroke-width: 1.0;"/><text fill="#888888" font-family="sans-serif" font-size="10" lengthAdjust="spacingAndGlyphs" textLength="190" x="110.5" y="283.584">UMLDoclet 2.0.12, PlantUML 1.2020.16</text><!--MD5=[9385e5dc248f66873379591e6175ccbb]
@startuml
    set namespaceSeparator none
    hide empty fields
    hide empty methods

    abstract class "<size:14>NodeContainerImpl\n<size:10>org.eclipse.epf.diagram.model.impl" as org.eclipse.epf.diagram.model.impl.NodeContainerImpl [[NodeContainerImpl.html]] {
        +getNodes(): EList
        +eInverseRemove(InternalEObject, int, NotificationChain): NotificationChain
        +eGet(int, boolean, boolean): Object
        +eSet(int, Object): void
        +eUnset(int): void
        +eIsSet(int): boolean
    }

    abstract class "<size:14>NodeImpl\n<size:10>org.eclipse.epf.diagram.model.impl" as org.eclipse.epf.diagram.model.impl.NodeImpl [[NodeImpl.html]]
    interface "<size:14>NodeContainer\n<size:10>org.eclipse.epf.diagram.model" as org.eclipse.epf.diagram.model.NodeContainer [[..\NodeContainer.html]] {
        {abstract} +getNodes(): EList
    }

    org.eclipse.epf.diagram.model.impl.NodeImpl <|- - org.eclipse.epf.diagram.model.impl.NodeContainerImpl
    org.eclipse.epf.diagram.model.NodeContainer <|.. org.eclipse.epf.diagram.model.impl.NodeContainerImpl

    center footer UMLDoclet 2.0.12, PlantUML 1.2020.16
@enduml

PlantUML version 1.2020.16(Sun Aug 23 22:20:43 CEST 2020)
(APACHE source distribution)
Java Runtime: Java(TM) SE Runtime Environment
JVM: Java HotSpot(TM) 64-Bit Server VM
Default Encoding: Cp1252
Language: es
Country: ES
--></g></svg>