<?xml version="1.0" encoding="UTF-8" standalone="no"?><svg xmlns="http://www.w3.org/2000/svg" xmlns:xlink="http://www.w3.org/1999/xlink" contentScriptType="application/ecmascript" contentStyleType="text/css" height="311px" preserveAspectRatio="none" style="width:435px;height:311px;" version="1.1" viewBox="0 0 435 311" width="435px" zoomAndPan="magnify"><defs><filter height="300%" id="ffy9029c3q79x" width="300%" x="-1" y="-1"><feGaussianBlur result="blurOut" stdDeviation="2.0"/><feColorMatrix in="blurOut" result="blurOut2" type="matrix" values="0 0 0 0 0 0 0 0 0 0 0 0 0 0 0 0 0 0 .4 0"/><feOffset dx="4.0" dy="4.0" in="blurOut2" result="blurOut3"/><feBlend in="SourceGraphic" in2="blurOut3" mode="normal"/></filter></defs><g><!--MD5=[3fe46c1e924f1918122ff131486eea5d]
class org.eclipse.epf.diagram.model.impl.TaskNodeImpl--><a href="TaskNodeImpl.html" target="_top" title="TaskNodeImpl.html" xlink:actuate="onRequest" xlink:href="TaskNodeImpl.html" xlink:show="new" xlink:title="TaskNodeImpl.html" xlink:type="simple"><rect codeLine="5" fill="#FEFECE" filter="url(#ffy9029c3q79x)" height="131.2031" id="org.eclipse.epf.diagram.model.impl.TaskNodeImpl" style="stroke: #A80036; stroke-width: 1.5;" width="201" x="118" y="143"/><ellipse cx="133" cy="163.0938" fill="#ADD1B2" rx="11" ry="11" style="stroke: #A80036; stroke-width: 1.0;"/><path d="M135.7656,158.9688 Q135.9219,158.75 136.1094,158.6406 Q136.2969,158.5313 136.5156,158.5313 Q136.8906,158.5313 137.125,158.7969 Q137.3594,159.0469 137.3594,159.6563 L137.3594,161.1094 Q137.3594,161.7188 137.125,161.9844 Q136.8906,162.25 136.5156,162.25 Q136.1719,162.25 135.9688,162.0469 Q135.7656,161.8594 135.6563,161.3438 Q135.6094,160.9844 135.4219,160.7969 Q135.0938,160.4219 134.4844,160.2031 Q133.875,159.9844 133.25,159.9844 Q132.4844,159.9844 131.8438,160.3125 Q131.2188,160.6406 130.7188,161.3906 Q130.2344,162.1406 130.2344,163.1719 L130.2344,164.2656 Q130.2344,165.5 131.125,166.3281 Q132.0156,167.1406 133.6094,167.1406 Q134.5469,167.1406 135.2031,166.8906 Q135.5938,166.7344 136.0156,166.2969 Q136.2813,166.0313 136.4219,165.9531 Q136.5781,165.875 136.7813,165.875 Q137.1094,165.875 137.3594,166.1406 Q137.625,166.3906 137.625,166.7344 Q137.625,167.0781 137.2813,167.4844 Q136.7813,168.0625 135.9844,168.3906 Q134.9063,168.8438 133.6094,168.8438 Q132.0938,168.8438 130.8906,168.2188 Q129.9063,167.7188 129.2188,166.6563 Q128.5313,165.5781 128.5313,164.2969 L128.5313,163.1406 Q128.5313,161.8125 129.1406,160.6719 Q129.7656,159.5156 130.8594,158.9063 Q131.9531,158.2813 133.1875,158.2813 Q133.9219,158.2813 134.5625,158.4531 Q135.2188,158.6094 135.7656,158.9688 Z "/><text fill="#000000" font-family="sans-serif" font-size="14" lengthAdjust="spacingAndGlyphs" textLength="89" x="187" y="162.5332">TaskNodeImpl</text><text fill="#000000" font-family="sans-serif" font-size="10" lengthAdjust="spacingAndGlyphs" textLength="169" x="147" y="175.9902">org.eclipse.epf.diagram.model.impl</text><line style="stroke: #A80036; stroke-width: 1.5;" x1="119" x2="318" y1="183.1875" y2="183.1875"/><ellipse cx="129" cy="194.1875" fill="#84BE84" rx="3" ry="3" style="stroke: #038048; stroke-width: 1.0;"/><text fill="#000000" font-family="sans-serif" font-size="11" lengthAdjust="spacingAndGlyphs" textLength="66" x="138" y="198.6064">getIndex(): int</text><ellipse cx="129" cy="208.0234" fill="#84BE84" rx="3" ry="3" style="stroke: #038048; stroke-width: 1.0;"/><text fill="#000000" font-family="sans-serif" font-size="11" lengthAdjust="spacingAndGlyphs" textLength="86" x="138" y="212.4424">setIndex(int): void</text><ellipse cx="129" cy="221.8594" fill="#84BE84" rx="3" ry="3" style="stroke: #038048; stroke-width: 1.0;"/><text fill="#000000" font-family="sans-serif" font-size="11" lengthAdjust="spacingAndGlyphs" textLength="167" x="138" y="226.2783">eGet(int, boolean, boolean): Object</text><ellipse cx="129" cy="235.6953" fill="#84BE84" rx="3" ry="3" style="stroke: #038048; stroke-width: 1.0;"/><text fill="#000000" font-family="sans-serif" font-size="11" lengthAdjust="spacingAndGlyphs" textLength="104" x="138" y="240.1143">eSet(int, Object): void</text><ellipse cx="129" cy="249.5313" fill="#84BE84" rx="3" ry="3" style="stroke: #038048; stroke-width: 1.0;"/><text fill="#000000" font-family="sans-serif" font-size="11" lengthAdjust="spacingAndGlyphs" textLength="79" x="138" y="253.9502">eUnset(int): void</text><ellipse cx="129" cy="263.3672" fill="#84BE84" rx="3" ry="3" style="stroke: #038048; stroke-width: 1.0;"/><text fill="#000000" font-family="sans-serif" font-size="11" lengthAdjust="spacingAndGlyphs" textLength="93" x="138" y="267.7861">eIsSet(int): boolean</text></a><!--MD5=[e50a1de5fe250392284e467e70a44b7c]
class org.eclipse.epf.diagram.model.impl.NamedNodeImpl--><a href="NamedNodeImpl.html" target="_top" title="NamedNodeImpl.html" xlink:actuate="onRequest" xlink:href="NamedNodeImpl.html" xlink:show="new" xlink:title="NamedNodeImpl.html" xlink:type="simple"><rect codeLine="14" fill="#FEFECE" filter="url(#ffy9029c3q79x)" height="40.1875" id="org.eclipse.epf.diagram.model.impl.NamedNodeImpl" style="stroke: #A80036; stroke-width: 1.5;" width="201" x="7" y="25"/><ellipse cx="22" cy="45.0938" fill="#ADD1B2" rx="11" ry="11" style="stroke: #A80036; stroke-width: 1.0;"/><path d="M24.7656,40.9688 Q24.9219,40.75 25.1094,40.6406 Q25.2969,40.5313 25.5156,40.5313 Q25.8906,40.5313 26.125,40.7969 Q26.3594,41.0469 26.3594,41.6563 L26.3594,43.1094 Q26.3594,43.7188 26.125,43.9844 Q25.8906,44.25 25.5156,44.25 Q25.1719,44.25 24.9688,44.0469 Q24.7656,43.8594 24.6563,43.3438 Q24.6094,42.9844 24.4219,42.7969 Q24.0938,42.4219 23.4844,42.2031 Q22.875,41.9844 22.25,41.9844 Q21.4844,41.9844 20.8438,42.3125 Q20.2188,42.6406 19.7188,43.3906 Q19.2344,44.1406 19.2344,45.1719 L19.2344,46.2656 Q19.2344,47.5 20.125,48.3281 Q21.0156,49.1406 22.6094,49.1406 Q23.5469,49.1406 24.2031,48.8906 Q24.5938,48.7344 25.0156,48.2969 Q25.2813,48.0313 25.4219,47.9531 Q25.5781,47.875 25.7813,47.875 Q26.1094,47.875 26.3594,48.1406 Q26.625,48.3906 26.625,48.7344 Q26.625,49.0781 26.2813,49.4844 Q25.7813,50.0625 24.9844,50.3906 Q23.9063,50.8438 22.6094,50.8438 Q21.0938,50.8438 19.8906,50.2188 Q18.9063,49.7188 18.2188,48.6563 Q17.5313,47.5781 17.5313,46.2969 L17.5313,45.1406 Q17.5313,43.8125 18.1406,42.6719 Q18.7656,41.5156 19.8594,40.9063 Q20.9531,40.2813 22.1875,40.2813 Q22.9219,40.2813 23.5625,40.4531 Q24.2188,40.6094 24.7656,40.9688 Z "/><text fill="#000000" font-family="sans-serif" font-size="14" lengthAdjust="spacingAndGlyphs" textLength="102" x="69.5" y="44.5332">NamedNodeImpl</text><text fill="#000000" font-family="sans-serif" font-size="10" lengthAdjust="spacingAndGlyphs" textLength="169" x="36" y="57.9902">org.eclipse.epf.diagram.model.impl</text></a><!--MD5=[d15d837e12cdb00bfa96b838b360a00b]
class org.eclipse.epf.diagram.model.TaskNode--><a href="..\TaskNode.html" target="_top" title="..\TaskNode.html" xlink:actuate="onRequest" xlink:href="..\TaskNode.html" xlink:show="new" xlink:title="..\TaskNode.html" xlink:type="simple"><rect codeLine="15" fill="#FEFECE" filter="url(#ffy9029c3q79x)" height="75.8594" id="org.eclipse.epf.diagram.model.TaskNode" style="stroke: #A80036; stroke-width: 1.5;" width="173" x="243" y="7"/><ellipse cx="258" cy="27.0938" fill="#B4A7E5" rx="11" ry="11" style="stroke: #A80036; stroke-width: 1.0;"/><path d="M258.9531,23.7344 L258.9531,30.3906 L260.6719,30.3906 Q261.2813,30.3906 261.5469,30.625 Q261.8125,30.8594 261.8125,31.25 Q261.8125,31.625 261.5469,31.8594 Q261.2813,32.0938 260.6719,32.0938 L255.5313,32.0938 Q254.9219,32.0938 254.6563,31.8594 Q254.3906,31.625 254.3906,31.2344 Q254.3906,30.8594 254.6563,30.625 Q254.9219,30.3906 255.5313,30.3906 L257.25,30.3906 L257.25,23.7344 L255.5313,23.7344 Q254.9219,23.7344 254.6563,23.5 Q254.3906,23.2656 254.3906,22.875 Q254.3906,22.5 254.6563,22.2656 Q254.9219,22.0313 255.5313,22.0313 L260.6719,22.0313 Q261.2813,22.0313 261.5469,22.2656 Q261.8125,22.5 261.8125,22.875 Q261.8125,23.2656 261.5469,23.5 Q261.2813,23.7344 260.6719,23.7344 L258.9531,23.7344 Z "/><text fill="#000000" font-family="sans-serif" font-size="14" font-style="italic" lengthAdjust="spacingAndGlyphs" textLength="66" x="309.5" y="26.5332">TaskNode</text><text fill="#000000" font-family="sans-serif" font-size="10" font-style="italic" lengthAdjust="spacingAndGlyphs" textLength="141" x="272" y="39.9902">org.eclipse.epf.diagram.model</text><line style="stroke: #A80036; stroke-width: 1.5;" x1="244" x2="415" y1="47.1875" y2="47.1875"/><ellipse cx="254" cy="58.1875" fill="#84BE84" rx="3" ry="3" style="stroke: #038048; stroke-width: 1.0;"/><text fill="#000000" font-family="sans-serif" font-size="11" font-style="italic" lengthAdjust="spacingAndGlyphs" textLength="68" x="263" y="62.6064">getIndex(): int</text><ellipse cx="254" cy="72.0234" fill="#84BE84" rx="3" ry="3" style="stroke: #038048; stroke-width: 1.0;"/><text fill="#000000" font-family="sans-serif" font-size="11" font-style="italic" lengthAdjust="spacingAndGlyphs" textLength="88" x="263" y="76.4424">setIndex(int): void</text></a><!--MD5=[f6037b1ef23431203a8df5b6b585f1fa]
reverse link org.eclipse.epf.diagram.model.impl.NamedNodeImpl to org.eclipse.epf.diagram.model.impl.TaskNodeImpl--><path codeLine="20" d="M132.04,81.7 C144.35,99.61 159.64,121.86 173.93,142.65 " fill="none" id="org.eclipse.epf.diagram.model.impl.NamedNodeImpl-backto-org.eclipse.epf.diagram.model.impl.TaskNodeImpl" style="stroke: #A80036; stroke-width: 1.0;"/><polygon fill="none" points="126.23,85.61,120.67,65.16,137.77,77.68,126.23,85.61" style="stroke: #A80036; stroke-width: 1.0;"/><!--MD5=[47684b78fa3dc2444e9129fffc6f0cca]
reverse link org.eclipse.epf.diagram.model.TaskNode to org.eclipse.epf.diagram.model.impl.TaskNodeImpl--><path codeLine="21" d="M292.57,99.73 C283.1,113.51 272.82,128.47 263.01,142.74 " fill="none" id="org.eclipse.epf.diagram.model.TaskNode-backto-org.eclipse.epf.diagram.model.impl.TaskNodeImpl" style="stroke: #A80036; stroke-width: 1.0; stroke-dasharray: 7.0,7.0;"/><polygon fill="none" points="286.94,95.57,304.03,83.05,298.47,103.5,286.94,95.57" style="stroke: #A80036; stroke-width: 1.0;"/><text fill="#888888" font-family="sans-serif" font-size="10" lengthAdjust="spacingAndGlyphs" textLength="190" x="113.5" y="297.584">UMLDoclet 2.0.12, PlantUML 1.2020.16</text><!--MD5=[a3fa019c87b0d31692d3990c4a068982]
@startuml
    set namespaceSeparator none
    hide empty fields
    hide empty methods

    class "<size:14>TaskNodeImpl\n<size:10>org.eclipse.epf.diagram.model.impl" as org.eclipse.epf.diagram.model.impl.TaskNodeImpl [[TaskNodeImpl.html]] {
        +getIndex(): int
        +setIndex(int): void
        +eGet(int, boolean, boolean): Object
        +eSet(int, Object): void
        +eUnset(int): void
        +eIsSet(int): boolean
    }

    class "<size:14>NamedNodeImpl\n<size:10>org.eclipse.epf.diagram.model.impl" as org.eclipse.epf.diagram.model.impl.NamedNodeImpl [[NamedNodeImpl.html]]
    interface "<size:14>TaskNode\n<size:10>org.eclipse.epf.diagram.model" as org.eclipse.epf.diagram.model.TaskNode [[..\TaskNode.html]] {
        {abstract} +getIndex(): int
        {abstract} +setIndex(int): void
    }

    org.eclipse.epf.diagram.model.impl.NamedNodeImpl <|- - org.eclipse.epf.diagram.model.impl.TaskNodeImpl
    org.eclipse.epf.diagram.model.TaskNode <|.. org.eclipse.epf.diagram.model.impl.TaskNodeImpl

    center footer UMLDoclet 2.0.12, PlantUML 1.2020.16
@enduml

PlantUML version 1.2020.16(Sun Aug 23 22:20:43 CEST 2020)
(APACHE source distribution)
Java Runtime: Java(TM) SE Runtime Environment
JVM: Java HotSpot(TM) 64-Bit Server VM
Default Encoding: Cp1252
Language: es
Country: ES
--></g></svg>