<?xml version="1.0" encoding="UTF-8" standalone="no"?><svg xmlns="http://www.w3.org/2000/svg" xmlns:xlink="http://www.w3.org/1999/xlink" contentScriptType="application/ecmascript" contentStyleType="text/css" height="184px" preserveAspectRatio="none" style="width:477px;height:184px;" version="1.1" viewBox="0 0 477 184" width="477px" zoomAndPan="magnify"><defs><filter height="300%" id="fwxe8gbioeabv" width="300%" x="-1" y="-1"><feGaussianBlur result="blurOut" stdDeviation="2.0"/><feColorMatrix in="blurOut" result="blurOut2" type="matrix" values="0 0 0 0 0 0 0 0 0 0 0 0 0 0 0 0 0 0 .4 0"/><feOffset dx="4.0" dy="4.0" in="blurOut2" result="blurOut3"/><feBlend in="SourceGraphic" in2="blurOut3" mode="normal"/></filter></defs><g><!--MD5=[d8df5d7c6431d722ada76b4317c7178a]
class org.eclipse.epf.diagram.model.impl.WorkProductDescriptorNodeImpl--><a href="WorkProductDescriptorNodeImpl.html" target="_top" title="WorkProductDescriptorNodeImpl.html" xlink:actuate="onRequest" xlink:href="WorkProductDescriptorNodeImpl.html" xlink:show="new" xlink:title="WorkProductDescriptorNodeImpl.html" xlink:type="simple"><rect codeLine="5" fill="#FEFECE" filter="url(#fwxe8gbioeabv)" height="40.1875" id="org.eclipse.epf.diagram.model.impl.WorkProductDescriptorNodeImpl" style="stroke: #A80036; stroke-width: 1.5;" width="237" x="110" y="107"/><ellipse cx="125" cy="127.0938" fill="#ADD1B2" rx="11" ry="11" style="stroke: #A80036; stroke-width: 1.0;"/><path d="M127.7656,122.9688 Q127.9219,122.75 128.1094,122.6406 Q128.2969,122.5313 128.5156,122.5313 Q128.8906,122.5313 129.125,122.7969 Q129.3594,123.0469 129.3594,123.6563 L129.3594,125.1094 Q129.3594,125.7188 129.125,125.9844 Q128.8906,126.25 128.5156,126.25 Q128.1719,126.25 127.9688,126.0469 Q127.7656,125.8594 127.6563,125.3438 Q127.6094,124.9844 127.4219,124.7969 Q127.0938,124.4219 126.4844,124.2031 Q125.875,123.9844 125.25,123.9844 Q124.4844,123.9844 123.8438,124.3125 Q123.2188,124.6406 122.7188,125.3906 Q122.2344,126.1406 122.2344,127.1719 L122.2344,128.2656 Q122.2344,129.5 123.125,130.3281 Q124.0156,131.1406 125.6094,131.1406 Q126.5469,131.1406 127.2031,130.8906 Q127.5938,130.7344 128.0156,130.2969 Q128.2813,130.0313 128.4219,129.9531 Q128.5781,129.875 128.7813,129.875 Q129.1094,129.875 129.3594,130.1406 Q129.625,130.3906 129.625,130.7344 Q129.625,131.0781 129.2813,131.4844 Q128.7813,132.0625 127.9844,132.3906 Q126.9063,132.8438 125.6094,132.8438 Q124.0938,132.8438 122.8906,132.2188 Q121.9063,131.7188 121.2188,130.6563 Q120.5313,129.5781 120.5313,128.2969 L120.5313,127.1406 Q120.5313,125.8125 121.1406,124.6719 Q121.7656,123.5156 122.8594,122.9063 Q123.9531,122.2813 125.1875,122.2813 Q125.9219,122.2813 126.5625,122.4531 Q127.2188,122.6094 127.7656,122.9688 Z "/><text fill="#000000" font-family="sans-serif" font-size="14" lengthAdjust="spacingAndGlyphs" textLength="205" x="139" y="126.5332">WorkProductDescriptorNodeImpl</text><text fill="#000000" font-family="sans-serif" font-size="10" lengthAdjust="spacingAndGlyphs" textLength="169" x="157" y="139.9902">org.eclipse.epf.diagram.model.impl</text></a><!--MD5=[e50a1de5fe250392284e467e70a44b7c]
class org.eclipse.epf.diagram.model.impl.NamedNodeImpl--><a href="NamedNodeImpl.html" target="_top" title="NamedNodeImpl.html" xlink:actuate="onRequest" xlink:href="NamedNodeImpl.html" xlink:show="new" xlink:title="NamedNodeImpl.html" xlink:type="simple"><rect codeLine="8" fill="#FEFECE" filter="url(#fwxe8gbioeabv)" height="40.1875" id="org.eclipse.epf.diagram.model.impl.NamedNodeImpl" style="stroke: #A80036; stroke-width: 1.5;" width="201" x="7" y="7"/><ellipse cx="22" cy="27.0938" fill="#ADD1B2" rx="11" ry="11" style="stroke: #A80036; stroke-width: 1.0;"/><path d="M24.7656,22.9688 Q24.9219,22.75 25.1094,22.6406 Q25.2969,22.5313 25.5156,22.5313 Q25.8906,22.5313 26.125,22.7969 Q26.3594,23.0469 26.3594,23.6563 L26.3594,25.1094 Q26.3594,25.7188 26.125,25.9844 Q25.8906,26.25 25.5156,26.25 Q25.1719,26.25 24.9688,26.0469 Q24.7656,25.8594 24.6563,25.3438 Q24.6094,24.9844 24.4219,24.7969 Q24.0938,24.4219 23.4844,24.2031 Q22.875,23.9844 22.25,23.9844 Q21.4844,23.9844 20.8438,24.3125 Q20.2188,24.6406 19.7188,25.3906 Q19.2344,26.1406 19.2344,27.1719 L19.2344,28.2656 Q19.2344,29.5 20.125,30.3281 Q21.0156,31.1406 22.6094,31.1406 Q23.5469,31.1406 24.2031,30.8906 Q24.5938,30.7344 25.0156,30.2969 Q25.2813,30.0313 25.4219,29.9531 Q25.5781,29.875 25.7813,29.875 Q26.1094,29.875 26.3594,30.1406 Q26.625,30.3906 26.625,30.7344 Q26.625,31.0781 26.2813,31.4844 Q25.7813,32.0625 24.9844,32.3906 Q23.9063,32.8438 22.6094,32.8438 Q21.0938,32.8438 19.8906,32.2188 Q18.9063,31.7188 18.2188,30.6563 Q17.5313,29.5781 17.5313,28.2969 L17.5313,27.1406 Q17.5313,25.8125 18.1406,24.6719 Q18.7656,23.5156 19.8594,22.9063 Q20.9531,22.2813 22.1875,22.2813 Q22.9219,22.2813 23.5625,22.4531 Q24.2188,22.6094 24.7656,22.9688 Z "/><text fill="#000000" font-family="sans-serif" font-size="14" lengthAdjust="spacingAndGlyphs" textLength="102" x="69.5" y="26.5332">NamedNodeImpl</text><text fill="#000000" font-family="sans-serif" font-size="10" lengthAdjust="spacingAndGlyphs" textLength="169" x="36" y="39.9902">org.eclipse.epf.diagram.model.impl</text></a><!--MD5=[2374402d69dc7f2e3091a3f5f14721ff]
class org.eclipse.epf.diagram.model.WorkProductDescriptorNode--><a href="..\WorkProductDescriptorNode.html" target="_top" title="..\WorkProductDescriptorNode.html" xlink:actuate="onRequest" xlink:href="..\WorkProductDescriptorNode.html" xlink:show="new" xlink:title="..\WorkProductDescriptorNode.html" xlink:type="simple"><rect codeLine="9" fill="#FEFECE" filter="url(#fwxe8gbioeabv)" height="40.1875" id="org.eclipse.epf.diagram.model.WorkProductDescriptorNode" style="stroke: #A80036; stroke-width: 1.5;" width="215" x="243" y="7"/><ellipse cx="258" cy="27.0938" fill="#B4A7E5" rx="11" ry="11" style="stroke: #A80036; stroke-width: 1.0;"/><path d="M258.9531,23.7344 L258.9531,30.3906 L260.6719,30.3906 Q261.2813,30.3906 261.5469,30.625 Q261.8125,30.8594 261.8125,31.25 Q261.8125,31.625 261.5469,31.8594 Q261.2813,32.0938 260.6719,32.0938 L255.5313,32.0938 Q254.9219,32.0938 254.6563,31.8594 Q254.3906,31.625 254.3906,31.2344 Q254.3906,30.8594 254.6563,30.625 Q254.9219,30.3906 255.5313,30.3906 L257.25,30.3906 L257.25,23.7344 L255.5313,23.7344 Q254.9219,23.7344 254.6563,23.5 Q254.3906,23.2656 254.3906,22.875 Q254.3906,22.5 254.6563,22.2656 Q254.9219,22.0313 255.5313,22.0313 L260.6719,22.0313 Q261.2813,22.0313 261.5469,22.2656 Q261.8125,22.5 261.8125,22.875 Q261.8125,23.2656 261.5469,23.5 Q261.2813,23.7344 260.6719,23.7344 L258.9531,23.7344 Z "/><text fill="#000000" font-family="sans-serif" font-size="14" font-style="italic" lengthAdjust="spacingAndGlyphs" textLength="183" x="272" y="26.5332">WorkProductDescriptorNode</text><text fill="#000000" font-family="sans-serif" font-size="10" font-style="italic" lengthAdjust="spacingAndGlyphs" textLength="141" x="293" y="39.9902">org.eclipse.epf.diagram.model</text></a><!--MD5=[f5c3b913358718480f63bdd28a2bac65]
reverse link org.eclipse.epf.diagram.model.impl.NamedNodeImpl to org.eclipse.epf.diagram.model.impl.WorkProductDescriptorNodeImpl--><path codeLine="11" d="M146.9,59.91 C166.07,75.44 188.47,93.58 204.94,106.92 " fill="none" id="org.eclipse.epf.diagram.model.impl.NamedNodeImpl-backto-org.eclipse.epf.diagram.model.impl.WorkProductDescriptorNodeImpl" style="stroke: #A80036; stroke-width: 1.0;"/><polygon fill="none" points="142.25,65.16,131.12,47.13,151.06,54.28,142.25,65.16" style="stroke: #A80036; stroke-width: 1.0;"/><!--MD5=[e7a36af72c66154adbd25cb2c8c64186]
reverse link org.eclipse.epf.diagram.model.WorkProductDescriptorNode to org.eclipse.epf.diagram.model.impl.WorkProductDescriptorNodeImpl--><path codeLine="12" d="M311.07,59.68 C291.68,75.25 268.95,93.51 252.25,106.92 " fill="none" id="org.eclipse.epf.diagram.model.WorkProductDescriptorNode-backto-org.eclipse.epf.diagram.model.impl.WorkProductDescriptorNodeImpl" style="stroke: #A80036; stroke-width: 1.0; stroke-dasharray: 7.0,7.0;"/><polygon fill="none" points="306.71,54.2,326.69,47.13,315.48,65.11,306.71,54.2" style="stroke: #A80036; stroke-width: 1.0;"/><text fill="#888888" font-family="sans-serif" font-size="10" lengthAdjust="spacingAndGlyphs" textLength="190" x="134.5" y="170.5684">UMLDoclet 2.0.12, PlantUML 1.2020.16</text><!--MD5=[0c0d4b99e927b22c215fc8017a7d135a]
@startuml
    set namespaceSeparator none
    hide empty fields
    hide empty methods

    class "<size:14>WorkProductDescriptorNodeImpl\n<size:10>org.eclipse.epf.diagram.model.impl" as org.eclipse.epf.diagram.model.impl.WorkProductDescriptorNodeImpl [[WorkProductDescriptorNodeImpl.html]] {
    }

    class "<size:14>NamedNodeImpl\n<size:10>org.eclipse.epf.diagram.model.impl" as org.eclipse.epf.diagram.model.impl.NamedNodeImpl [[NamedNodeImpl.html]]
    interface "<size:14>WorkProductDescriptorNode\n<size:10>org.eclipse.epf.diagram.model" as org.eclipse.epf.diagram.model.WorkProductDescriptorNode [[..\WorkProductDescriptorNode.html]]

    org.eclipse.epf.diagram.model.impl.NamedNodeImpl <|- - org.eclipse.epf.diagram.model.impl.WorkProductDescriptorNodeImpl
    org.eclipse.epf.diagram.model.WorkProductDescriptorNode <|.. org.eclipse.epf.diagram.model.impl.WorkProductDescriptorNodeImpl

    center footer UMLDoclet 2.0.12, PlantUML 1.2020.16
@enduml

PlantUML version 1.2020.16(Sun Aug 23 22:20:43 CEST 2020)
(APACHE source distribution)
Java Runtime: Java(TM) SE Runtime Environment
JVM: Java HotSpot(TM) 64-Bit Server VM
Default Encoding: Cp1252
Language: es
Country: ES
--></g></svg>