<?xml version="1.0" encoding="UTF-8" standalone="no"?><svg xmlns="http://www.w3.org/2000/svg" xmlns:xlink="http://www.w3.org/1999/xlink" contentScriptType="application/ecmascript" contentStyleType="text/css" height="184px" preserveAspectRatio="none" style="width:485px;height:184px;" version="1.1" viewBox="0 0 485 184" width="485px" zoomAndPan="magnify"><defs><filter height="300%" id="fxkvrulqiwpka" width="300%" x="-1" y="-1"><feGaussianBlur result="blurOut" stdDeviation="2.0"/><feColorMatrix in="blurOut" result="blurOut2" type="matrix" values="0 0 0 0 0 0 0 0 0 0 0 0 0 0 0 0 0 0 .4 0"/><feOffset dx="4.0" dy="4.0" in="blurOut2" result="blurOut3"/><feBlend in="SourceGraphic" in2="blurOut3" mode="normal"/></filter></defs><g><!--MD5=[d5935019cdf39d0431115319742d88b8]
class org.eclipse.epf.diagram.model.impl.WorkBreakdownElementNodeImpl--><a href="WorkBreakdownElementNodeImpl.html" target="_top" title="WorkBreakdownElementNodeImpl.html" xlink:actuate="onRequest" xlink:href="WorkBreakdownElementNodeImpl.html" xlink:show="new" xlink:title="WorkBreakdownElementNodeImpl.html" xlink:type="simple"><rect codeLine="5" fill="#FEFECE" filter="url(#fxkvrulqiwpka)" height="40.1875" id="org.eclipse.epf.diagram.model.impl.WorkBreakdownElementNodeImpl" style="stroke: #A80036; stroke-width: 1.5;" width="244" x="108.5" y="107"/><ellipse cx="123.5" cy="127.0938" fill="#ADD1B2" rx="11" ry="11" style="stroke: #A80036; stroke-width: 1.0;"/><path d="M126.2656,122.9688 Q126.4219,122.75 126.6094,122.6406 Q126.7969,122.5313 127.0156,122.5313 Q127.3906,122.5313 127.625,122.7969 Q127.8594,123.0469 127.8594,123.6563 L127.8594,125.1094 Q127.8594,125.7188 127.625,125.9844 Q127.3906,126.25 127.0156,126.25 Q126.6719,126.25 126.4688,126.0469 Q126.2656,125.8594 126.1563,125.3438 Q126.1094,124.9844 125.9219,124.7969 Q125.5938,124.4219 124.9844,124.2031 Q124.375,123.9844 123.75,123.9844 Q122.9844,123.9844 122.3438,124.3125 Q121.7188,124.6406 121.2188,125.3906 Q120.7344,126.1406 120.7344,127.1719 L120.7344,128.2656 Q120.7344,129.5 121.625,130.3281 Q122.5156,131.1406 124.1094,131.1406 Q125.0469,131.1406 125.7031,130.8906 Q126.0938,130.7344 126.5156,130.2969 Q126.7813,130.0313 126.9219,129.9531 Q127.0781,129.875 127.2813,129.875 Q127.6094,129.875 127.8594,130.1406 Q128.125,130.3906 128.125,130.7344 Q128.125,131.0781 127.7813,131.4844 Q127.2813,132.0625 126.4844,132.3906 Q125.4063,132.8438 124.1094,132.8438 Q122.5938,132.8438 121.3906,132.2188 Q120.4063,131.7188 119.7188,130.6563 Q119.0313,129.5781 119.0313,128.2969 L119.0313,127.1406 Q119.0313,125.8125 119.6406,124.6719 Q120.2656,123.5156 121.3594,122.9063 Q122.4531,122.2813 123.6875,122.2813 Q124.4219,122.2813 125.0625,122.4531 Q125.7188,122.6094 126.2656,122.9688 Z "/><text fill="#000000" font-family="sans-serif" font-size="14" lengthAdjust="spacingAndGlyphs" textLength="212" x="137.5" y="126.5332">WorkBreakdownElementNodeImpl</text><text fill="#000000" font-family="sans-serif" font-size="10" lengthAdjust="spacingAndGlyphs" textLength="169" x="159" y="139.9902">org.eclipse.epf.diagram.model.impl</text></a><!--MD5=[e50a1de5fe250392284e467e70a44b7c]
class org.eclipse.epf.diagram.model.impl.NamedNodeImpl--><a href="NamedNodeImpl.html" target="_top" title="NamedNodeImpl.html" xlink:actuate="onRequest" xlink:href="NamedNodeImpl.html" xlink:show="new" xlink:title="NamedNodeImpl.html" xlink:type="simple"><rect codeLine="8" fill="#FEFECE" filter="url(#fxkvrulqiwpka)" height="40.1875" id="org.eclipse.epf.diagram.model.impl.NamedNodeImpl" style="stroke: #A80036; stroke-width: 1.5;" width="201" x="7" y="7"/><ellipse cx="22" cy="27.0938" fill="#ADD1B2" rx="11" ry="11" style="stroke: #A80036; stroke-width: 1.0;"/><path d="M24.7656,22.9688 Q24.9219,22.75 25.1094,22.6406 Q25.2969,22.5313 25.5156,22.5313 Q25.8906,22.5313 26.125,22.7969 Q26.3594,23.0469 26.3594,23.6563 L26.3594,25.1094 Q26.3594,25.7188 26.125,25.9844 Q25.8906,26.25 25.5156,26.25 Q25.1719,26.25 24.9688,26.0469 Q24.7656,25.8594 24.6563,25.3438 Q24.6094,24.9844 24.4219,24.7969 Q24.0938,24.4219 23.4844,24.2031 Q22.875,23.9844 22.25,23.9844 Q21.4844,23.9844 20.8438,24.3125 Q20.2188,24.6406 19.7188,25.3906 Q19.2344,26.1406 19.2344,27.1719 L19.2344,28.2656 Q19.2344,29.5 20.125,30.3281 Q21.0156,31.1406 22.6094,31.1406 Q23.5469,31.1406 24.2031,30.8906 Q24.5938,30.7344 25.0156,30.2969 Q25.2813,30.0313 25.4219,29.9531 Q25.5781,29.875 25.7813,29.875 Q26.1094,29.875 26.3594,30.1406 Q26.625,30.3906 26.625,30.7344 Q26.625,31.0781 26.2813,31.4844 Q25.7813,32.0625 24.9844,32.3906 Q23.9063,32.8438 22.6094,32.8438 Q21.0938,32.8438 19.8906,32.2188 Q18.9063,31.7188 18.2188,30.6563 Q17.5313,29.5781 17.5313,28.2969 L17.5313,27.1406 Q17.5313,25.8125 18.1406,24.6719 Q18.7656,23.5156 19.8594,22.9063 Q20.9531,22.2813 22.1875,22.2813 Q22.9219,22.2813 23.5625,22.4531 Q24.2188,22.6094 24.7656,22.9688 Z "/><text fill="#000000" font-family="sans-serif" font-size="14" lengthAdjust="spacingAndGlyphs" textLength="102" x="69.5" y="26.5332">NamedNodeImpl</text><text fill="#000000" font-family="sans-serif" font-size="10" lengthAdjust="spacingAndGlyphs" textLength="169" x="36" y="39.9902">org.eclipse.epf.diagram.model.impl</text></a><!--MD5=[b054cb523e1ffa10d02e7c6d7704f536]
class org.eclipse.epf.diagram.model.WorkBreakdownElementNode--><a href="..\WorkBreakdownElementNode.html" target="_top" title="..\WorkBreakdownElementNode.html" xlink:actuate="onRequest" xlink:href="..\WorkBreakdownElementNode.html" xlink:show="new" xlink:title="..\WorkBreakdownElementNode.html" xlink:type="simple"><rect codeLine="9" fill="#FEFECE" filter="url(#fxkvrulqiwpka)" height="40.1875" id="org.eclipse.epf.diagram.model.WorkBreakdownElementNode" style="stroke: #A80036; stroke-width: 1.5;" width="223" x="243" y="7"/><ellipse cx="258" cy="27.0938" fill="#B4A7E5" rx="11" ry="11" style="stroke: #A80036; stroke-width: 1.0;"/><path d="M258.9531,23.7344 L258.9531,30.3906 L260.6719,30.3906 Q261.2813,30.3906 261.5469,30.625 Q261.8125,30.8594 261.8125,31.25 Q261.8125,31.625 261.5469,31.8594 Q261.2813,32.0938 260.6719,32.0938 L255.5313,32.0938 Q254.9219,32.0938 254.6563,31.8594 Q254.3906,31.625 254.3906,31.2344 Q254.3906,30.8594 254.6563,30.625 Q254.9219,30.3906 255.5313,30.3906 L257.25,30.3906 L257.25,23.7344 L255.5313,23.7344 Q254.9219,23.7344 254.6563,23.5 Q254.3906,23.2656 254.3906,22.875 Q254.3906,22.5 254.6563,22.2656 Q254.9219,22.0313 255.5313,22.0313 L260.6719,22.0313 Q261.2813,22.0313 261.5469,22.2656 Q261.8125,22.5 261.8125,22.875 Q261.8125,23.2656 261.5469,23.5 Q261.2813,23.7344 260.6719,23.7344 L258.9531,23.7344 Z "/><text fill="#000000" font-family="sans-serif" font-size="14" font-style="italic" lengthAdjust="spacingAndGlyphs" textLength="191" x="272" y="26.5332">WorkBreakdownElementNode</text><text fill="#000000" font-family="sans-serif" font-size="10" font-style="italic" lengthAdjust="spacingAndGlyphs" textLength="141" x="297" y="39.9902">org.eclipse.epf.diagram.model</text></a><!--MD5=[808fce42b1687dfd43ba4d6395dce59c]
reverse link org.eclipse.epf.diagram.model.impl.NamedNodeImpl to org.eclipse.epf.diagram.model.impl.WorkBreakdownElementNodeImpl--><path codeLine="11" d="M147.26,59.68 C166.81,75.25 189.72,93.51 206.55,106.92 " fill="none" id="org.eclipse.epf.diagram.model.impl.NamedNodeImpl-backto-org.eclipse.epf.diagram.model.impl.WorkBreakdownElementNodeImpl" style="stroke: #A80036; stroke-width: 1.0;"/><polygon fill="none" points="142.79,65.07,131.51,47.13,151.51,54.12,142.79,65.07" style="stroke: #A80036; stroke-width: 1.0;"/><!--MD5=[1b51f0545d7cec7a19a0b6a3439e2d7d]
reverse link org.eclipse.epf.diagram.model.WorkBreakdownElementNode to org.eclipse.epf.diagram.model.impl.WorkBreakdownElementNodeImpl--><path codeLine="12" d="M314.42,59.68 C294.71,75.25 271.61,93.51 254.64,106.92 " fill="none" id="org.eclipse.epf.diagram.model.WorkBreakdownElementNode-backto-org.eclipse.epf.diagram.model.impl.WorkBreakdownElementNodeImpl" style="stroke: #A80036; stroke-width: 1.0; stroke-dasharray: 7.0,7.0;"/><polygon fill="none" points="310.27,54.04,330.3,47.13,318.95,65.02,310.27,54.04" style="stroke: #A80036; stroke-width: 1.0;"/><text fill="#888888" font-family="sans-serif" font-size="10" lengthAdjust="spacingAndGlyphs" textLength="190" x="138.5" y="170.5684">UMLDoclet 2.0.12, PlantUML 1.2020.16</text><!--MD5=[97a30e1a13bf0a86460583c27703f6a3]
@startuml
    set namespaceSeparator none
    hide empty fields
    hide empty methods

    class "<size:14>WorkBreakdownElementNodeImpl\n<size:10>org.eclipse.epf.diagram.model.impl" as org.eclipse.epf.diagram.model.impl.WorkBreakdownElementNodeImpl [[WorkBreakdownElementNodeImpl.html]] {
    }

    class "<size:14>NamedNodeImpl\n<size:10>org.eclipse.epf.diagram.model.impl" as org.eclipse.epf.diagram.model.impl.NamedNodeImpl [[NamedNodeImpl.html]]
    interface "<size:14>WorkBreakdownElementNode\n<size:10>org.eclipse.epf.diagram.model" as org.eclipse.epf.diagram.model.WorkBreakdownElementNode [[..\WorkBreakdownElementNode.html]]

    org.eclipse.epf.diagram.model.impl.NamedNodeImpl <|- - org.eclipse.epf.diagram.model.impl.WorkBreakdownElementNodeImpl
    org.eclipse.epf.diagram.model.WorkBreakdownElementNode <|.. org.eclipse.epf.diagram.model.impl.WorkBreakdownElementNodeImpl

    center footer UMLDoclet 2.0.12, PlantUML 1.2020.16
@enduml

PlantUML version 1.2020.16(Sun Aug 23 22:20:43 CEST 2020)
(APACHE source distribution)
Java Runtime: Java(TM) SE Runtime Environment
JVM: Java HotSpot(TM) 64-Bit Server VM
Default Encoding: Cp1252
Language: es
Country: ES
--></g></svg>