<?xml version="1.0" encoding="UTF-8" standalone="no"?><svg xmlns="http://www.w3.org/2000/svg" xmlns:xlink="http://www.w3.org/1999/xlink" contentScriptType="application/ecmascript" contentStyleType="text/css" height="311px" preserveAspectRatio="none" style="width:439px;height:311px;" version="1.1" viewBox="0 0 439 311" width="439px" zoomAndPan="magnify"><defs><filter height="300%" id="f1dkvoddlifbif" width="300%" x="-1" y="-1"><feGaussianBlur result="blurOut" stdDeviation="2.0"/><feColorMatrix in="blurOut" result="blurOut2" type="matrix" values="0 0 0 0 0 0 0 0 0 0 0 0 0 0 0 0 0 0 .4 0"/><feOffset dx="4.0" dy="4.0" in="blurOut2" result="blurOut3"/><feBlend in="SourceGraphic" in2="blurOut3" mode="normal"/></filter></defs><g><!--MD5=[5d1d8a8dc1ba42d638ca5d03794a5006]
class org.eclipse.epf.diagram.model.impl.WorkProductCompositeImpl--><a href="WorkProductCompositeImpl.html" target="_top" title="WorkProductCompositeImpl.html" xlink:actuate="onRequest" xlink:href="WorkProductCompositeImpl.html" xlink:show="new" xlink:title="WorkProductCompositeImpl.html" xlink:type="simple"><rect codeLine="5" fill="#FEFECE" filter="url(#f1dkvoddlifbif)" height="131.2031" id="org.eclipse.epf.diagram.model.impl.WorkProductCompositeImpl" style="stroke: #A80036; stroke-width: 1.5;" width="206" x="113.5" y="143"/><ellipse cx="128.5" cy="163.0938" fill="#ADD1B2" rx="11" ry="11" style="stroke: #A80036; stroke-width: 1.0;"/><path d="M131.2656,158.9688 Q131.4219,158.75 131.6094,158.6406 Q131.7969,158.5313 132.0156,158.5313 Q132.3906,158.5313 132.625,158.7969 Q132.8594,159.0469 132.8594,159.6563 L132.8594,161.1094 Q132.8594,161.7188 132.625,161.9844 Q132.3906,162.25 132.0156,162.25 Q131.6719,162.25 131.4688,162.0469 Q131.2656,161.8594 131.1563,161.3438 Q131.1094,160.9844 130.9219,160.7969 Q130.5938,160.4219 129.9844,160.2031 Q129.375,159.9844 128.75,159.9844 Q127.9844,159.9844 127.3438,160.3125 Q126.7188,160.6406 126.2188,161.3906 Q125.7344,162.1406 125.7344,163.1719 L125.7344,164.2656 Q125.7344,165.5 126.625,166.3281 Q127.5156,167.1406 129.1094,167.1406 Q130.0469,167.1406 130.7031,166.8906 Q131.0938,166.7344 131.5156,166.2969 Q131.7813,166.0313 131.9219,165.9531 Q132.0781,165.875 132.2813,165.875 Q132.6094,165.875 132.8594,166.1406 Q133.125,166.3906 133.125,166.7344 Q133.125,167.0781 132.7813,167.4844 Q132.2813,168.0625 131.4844,168.3906 Q130.4063,168.8438 129.1094,168.8438 Q127.5938,168.8438 126.3906,168.2188 Q125.4063,167.7188 124.7188,166.6563 Q124.0313,165.5781 124.0313,164.2969 L124.0313,163.1406 Q124.0313,161.8125 124.6406,160.6719 Q125.2656,159.5156 126.3594,158.9063 Q127.4531,158.2813 128.6875,158.2813 Q129.4219,158.2813 130.0625,158.4531 Q130.7188,158.6094 131.2656,158.9688 Z "/><text fill="#000000" font-family="sans-serif" font-size="14" lengthAdjust="spacingAndGlyphs" textLength="174" x="142.5" y="162.5332">WorkProductCompositeImpl</text><text fill="#000000" font-family="sans-serif" font-size="10" lengthAdjust="spacingAndGlyphs" textLength="169" x="145" y="175.9902">org.eclipse.epf.diagram.model.impl</text><line style="stroke: #A80036; stroke-width: 1.5;" x1="114.5" x2="318.5" y1="183.1875" y2="183.1875"/><ellipse cx="124.5" cy="194.1875" fill="#84BE84" rx="3" ry="3" style="stroke: #038048; stroke-width: 1.0;"/><text fill="#000000" font-family="sans-serif" font-size="11" lengthAdjust="spacingAndGlyphs" textLength="64" x="133.5" y="198.6064">getType(): int</text><ellipse cx="124.5" cy="208.0234" fill="#84BE84" rx="3" ry="3" style="stroke: #038048; stroke-width: 1.0;"/><text fill="#000000" font-family="sans-serif" font-size="11" lengthAdjust="spacingAndGlyphs" textLength="84" x="133.5" y="212.4424">setType(int): void</text><ellipse cx="124.5" cy="221.8594" fill="#84BE84" rx="3" ry="3" style="stroke: #038048; stroke-width: 1.0;"/><text fill="#000000" font-family="sans-serif" font-size="11" lengthAdjust="spacingAndGlyphs" textLength="167" x="133.5" y="226.2783">eGet(int, boolean, boolean): Object</text><ellipse cx="124.5" cy="235.6953" fill="#84BE84" rx="3" ry="3" style="stroke: #038048; stroke-width: 1.0;"/><text fill="#000000" font-family="sans-serif" font-size="11" lengthAdjust="spacingAndGlyphs" textLength="104" x="133.5" y="240.1143">eSet(int, Object): void</text><ellipse cx="124.5" cy="249.5313" fill="#84BE84" rx="3" ry="3" style="stroke: #038048; stroke-width: 1.0;"/><text fill="#000000" font-family="sans-serif" font-size="11" lengthAdjust="spacingAndGlyphs" textLength="79" x="133.5" y="253.9502">eUnset(int): void</text><ellipse cx="124.5" cy="263.3672" fill="#84BE84" rx="3" ry="3" style="stroke: #038048; stroke-width: 1.0;"/><text fill="#000000" font-family="sans-serif" font-size="11" lengthAdjust="spacingAndGlyphs" textLength="93" x="133.5" y="267.7861">eIsSet(int): boolean</text></a><!--MD5=[137ce4c72a0dcc6f59a7576f60151c42]
class org.eclipse.epf.diagram.model.impl.NodeContainerImpl--><a href="NodeContainerImpl.html" target="_top" title="NodeContainerImpl.html" xlink:actuate="onRequest" xlink:href="NodeContainerImpl.html" xlink:show="new" xlink:title="NodeContainerImpl.html" xlink:type="simple"><rect codeLine="14" fill="#FEFECE" filter="url(#f1dkvoddlifbif)" height="40.1875" id="org.eclipse.epf.diagram.model.impl.NodeContainerImpl" style="stroke: #A80036; stroke-width: 1.5;" width="195" x="7" y="25"/><ellipse cx="22" cy="45.0938" fill="#A9DCDF" rx="11" ry="11" style="stroke: #A80036; stroke-width: 1.0;"/><path d="M24.1875,46.8594 L20.0469,46.8594 L19.625,47.8906 L20.0469,47.8906 Q20.6563,47.8906 20.9219,48.125 Q21.1875,48.3594 21.1875,48.75 Q21.1875,49.125 20.9219,49.3594 Q20.6563,49.5938 20.0469,49.5938 L17.75,49.5938 Q17.1406,49.5938 16.8906,49.3594 Q16.625,49.125 16.625,48.7344 Q16.625,48.3594 16.9063,48.125 Q17.1719,47.875 17.7969,47.8906 L20.4688,41.2344 L19.3594,41.2344 Q18.75,41.2344 18.4844,41 Q18.2188,40.7656 18.2188,40.375 Q18.2188,40 18.4844,39.7656 Q18.75,39.5313 19.3594,39.5313 L23.0313,39.5313 L26.4219,47.8906 Q27.0156,47.8906 27.2031,48.0313 Q27.5938,48.2969 27.5938,48.75 Q27.5938,49.125 27.3281,49.3594 Q27.0781,49.5938 26.4688,49.5938 L24.1719,49.5938 Q23.5625,49.5938 23.2969,49.3594 Q23.0313,49.125 23.0313,48.7344 Q23.0313,48.3594 23.2969,48.125 Q23.5625,47.8906 24.1719,47.8906 L24.5938,47.8906 L24.1875,46.8594 Z M23.4688,45.1563 L22.1094,41.7813 L20.7344,45.1563 L23.4688,45.1563 Z "/><text fill="#000000" font-family="sans-serif" font-size="14" font-style="italic" lengthAdjust="spacingAndGlyphs" textLength="122" x="56.5" y="44.5332">NodeContainerImpl</text><text fill="#000000" font-family="sans-serif" font-size="10" font-style="italic" lengthAdjust="spacingAndGlyphs" textLength="163" x="36" y="57.9902">org.eclipse.epf.diagram.model.impl</text></a><!--MD5=[1dd8999a22c807f6f9f7f6b679c2c9ce]
class org.eclipse.epf.diagram.model.WorkProductComposite--><a href="..\WorkProductComposite.html" target="_top" title="..\WorkProductComposite.html" xlink:actuate="onRequest" xlink:href="..\WorkProductComposite.html" xlink:show="new" xlink:title="..\WorkProductComposite.html" xlink:type="simple"><rect codeLine="15" fill="#FEFECE" filter="url(#f1dkvoddlifbif)" height="75.8594" id="org.eclipse.epf.diagram.model.WorkProductComposite" style="stroke: #A80036; stroke-width: 1.5;" width="183" x="237" y="7"/><ellipse cx="252" cy="27.0938" fill="#B4A7E5" rx="11" ry="11" style="stroke: #A80036; stroke-width: 1.0;"/><path d="M252.9531,23.7344 L252.9531,30.3906 L254.6719,30.3906 Q255.2813,30.3906 255.5469,30.625 Q255.8125,30.8594 255.8125,31.25 Q255.8125,31.625 255.5469,31.8594 Q255.2813,32.0938 254.6719,32.0938 L249.5313,32.0938 Q248.9219,32.0938 248.6563,31.8594 Q248.3906,31.625 248.3906,31.2344 Q248.3906,30.8594 248.6563,30.625 Q248.9219,30.3906 249.5313,30.3906 L251.25,30.3906 L251.25,23.7344 L249.5313,23.7344 Q248.9219,23.7344 248.6563,23.5 Q248.3906,23.2656 248.3906,22.875 Q248.3906,22.5 248.6563,22.2656 Q248.9219,22.0313 249.5313,22.0313 L254.6719,22.0313 Q255.2813,22.0313 255.5469,22.2656 Q255.8125,22.5 255.8125,22.875 Q255.8125,23.2656 255.5469,23.5 Q255.2813,23.7344 254.6719,23.7344 L252.9531,23.7344 Z "/><text fill="#000000" font-family="sans-serif" font-size="14" font-style="italic" lengthAdjust="spacingAndGlyphs" textLength="151" x="266" y="26.5332">WorkProductComposite</text><text fill="#000000" font-family="sans-serif" font-size="10" font-style="italic" lengthAdjust="spacingAndGlyphs" textLength="141" x="271" y="39.9902">org.eclipse.epf.diagram.model</text><line style="stroke: #A80036; stroke-width: 1.5;" x1="238" x2="419" y1="47.1875" y2="47.1875"/><ellipse cx="248" cy="58.1875" fill="#84BE84" rx="3" ry="3" style="stroke: #038048; stroke-width: 1.0;"/><text fill="#000000" font-family="sans-serif" font-size="11" font-style="italic" lengthAdjust="spacingAndGlyphs" textLength="65" x="257" y="62.6064">getType(): int</text><ellipse cx="248" cy="72.0234" fill="#84BE84" rx="3" ry="3" style="stroke: #038048; stroke-width: 1.0;"/><text fill="#000000" font-family="sans-serif" font-size="11" font-style="italic" lengthAdjust="spacingAndGlyphs" textLength="85" x="257" y="76.4424">setType(int): void</text></a><!--MD5=[0fe784d8c1be6a8df1823edc591acf82]
reverse link org.eclipse.epf.diagram.model.impl.NodeContainerImpl to org.eclipse.epf.diagram.model.impl.WorkProductCompositeImpl--><path codeLine="20" d="M129.26,81.7 C141.68,99.61 157.11,121.86 171.53,142.65 " fill="none" id="org.eclipse.epf.diagram.model.impl.NodeContainerImpl-backto-org.eclipse.epf.diagram.model.impl.WorkProductCompositeImpl" style="stroke: #A80036; stroke-width: 1.0;"/><polygon fill="none" points="123.43,85.58,117.79,65.16,134.94,77.61,123.43,85.58" style="stroke: #A80036; stroke-width: 1.0;"/><!--MD5=[63931f8bdbc4d140ab9a5b4bacc6b2d0]
reverse link org.eclipse.epf.diagram.model.WorkProductComposite to org.eclipse.epf.diagram.model.impl.WorkProductCompositeImpl--><path codeLine="21" d="M291.24,99.73 C281.68,113.51 271.31,128.47 261.41,142.74 " fill="none" id="org.eclipse.epf.diagram.model.WorkProductComposite-backto-org.eclipse.epf.diagram.model.impl.WorkProductCompositeImpl" style="stroke: #A80036; stroke-width: 1.0; stroke-dasharray: 7.0,7.0;"/><polygon fill="none" points="285.66,95.5,302.8,83.05,297.16,103.48,285.66,95.5" style="stroke: #A80036; stroke-width: 1.0;"/><text fill="#888888" font-family="sans-serif" font-size="10" lengthAdjust="spacingAndGlyphs" textLength="190" x="115.5" y="297.584">UMLDoclet 2.0.12, PlantUML 1.2020.16</text><!--MD5=[d47124ec1bdc6333be025704ee765d1b]
@startuml
    set namespaceSeparator none
    hide empty fields
    hide empty methods

    class "<size:14>WorkProductCompositeImpl\n<size:10>org.eclipse.epf.diagram.model.impl" as org.eclipse.epf.diagram.model.impl.WorkProductCompositeImpl [[WorkProductCompositeImpl.html]] {
        +getType(): int
        +setType(int): void
        +eGet(int, boolean, boolean): Object
        +eSet(int, Object): void
        +eUnset(int): void
        +eIsSet(int): boolean
    }

    abstract class "<size:14>NodeContainerImpl\n<size:10>org.eclipse.epf.diagram.model.impl" as org.eclipse.epf.diagram.model.impl.NodeContainerImpl [[NodeContainerImpl.html]]
    interface "<size:14>WorkProductComposite\n<size:10>org.eclipse.epf.diagram.model" as org.eclipse.epf.diagram.model.WorkProductComposite [[..\WorkProductComposite.html]] {
        {abstract} +getType(): int
        {abstract} +setType(int): void
    }

    org.eclipse.epf.diagram.model.impl.NodeContainerImpl <|- - org.eclipse.epf.diagram.model.impl.WorkProductCompositeImpl
    org.eclipse.epf.diagram.model.WorkProductComposite <|.. org.eclipse.epf.diagram.model.impl.WorkProductCompositeImpl

    center footer UMLDoclet 2.0.12, PlantUML 1.2020.16
@enduml

PlantUML version 1.2020.16(Sun Aug 23 22:20:43 CEST 2020)
(APACHE source distribution)
Java Runtime: Java(TM) SE Runtime Environment
JVM: Java HotSpot(TM) 64-Bit Server VM
Default Encoding: Cp1252
Language: es
Country: ES
--></g></svg>