<?xml version="1.0" encoding="UTF-8" standalone="no"?><svg xmlns="http://www.w3.org/2000/svg" xmlns:xlink="http://www.w3.org/1999/xlink" contentScriptType="application/ecmascript" contentStyleType="text/css" height="257px" preserveAspectRatio="none" style="width:250px;height:257px;" version="1.1" viewBox="0 0 250 257" width="250px" zoomAndPan="magnify"><defs><filter height="300%" id="ff6ehtxjer4iy" width="300%" x="-1" y="-1"><feGaussianBlur result="blurOut" stdDeviation="2.0"/><feColorMatrix in="blurOut" result="blurOut2" type="matrix" values="0 0 0 0 0 0 0 0 0 0 0 0 0 0 0 0 0 0 .4 0"/><feOffset dx="4.0" dy="4.0" in="blurOut2" result="blurOut3"/><feBlend in="SourceGraphic" in2="blurOut3" mode="normal"/></filter></defs><g><!--MD5=[3c7bd5982b967bfb6e2d3ca5ab705171]
cluster org.eclipse.xtext.uma.ui--><polygon fill="#FFFFFF" filter="url(#ff6ehtxjer4iy)" points="16,6,190,6,197,29.6094,228,29.6094,228,228,16,228,16,6" style="stroke: #000000; stroke-width: 1.5;"/><line style="stroke: #000000; stroke-width: 1.5;" x1="16" x2="197" y1="29.6094" y2="29.6094"/><text fill="#000000" font-family="sans-serif" font-size="14" font-weight="bold" lengthAdjust="spacingAndGlyphs" textLength="168" x="20" y="22.5332">org.eclipse.xtext.uma.ui</text><!--MD5=[280ccbe6d3f7a8ee95a504dc68583556]
class org.eclipse.xtext.uma.ui.UmalUiModule--><a href="UmalUiModule.html" target="_top" title="UmalUiModule.html" xlink:actuate="onRequest" xlink:href="UmalUiModule.html" xlink:show="new" xlink:title="UmalUiModule.html" xlink:type="simple"><rect codeLine="3" fill="#FEFECE" filter="url(#ff6ehtxjer4iy)" height="61.8359" id="org.eclipse.xtext.uma.ui.UmalUiModule" style="stroke: #A80036; stroke-width: 1.5;" width="179" x="32.5" y="150"/><ellipse cx="76.75" cy="166" fill="#ADD1B2" rx="11" ry="11" style="stroke: #A80036; stroke-width: 1.0;"/><path d="M79.5156,161.875 Q79.6719,161.6563 79.8594,161.5469 Q80.0469,161.4375 80.2656,161.4375 Q80.6406,161.4375 80.875,161.7031 Q81.1094,161.9531 81.1094,162.5625 L81.1094,164.0156 Q81.1094,164.625 80.875,164.8906 Q80.6406,165.1563 80.2656,165.1563 Q79.9219,165.1563 79.7188,164.9531 Q79.5156,164.7656 79.4063,164.25 Q79.3594,163.8906 79.1719,163.7031 Q78.8438,163.3281 78.2344,163.1094 Q77.625,162.8906 77,162.8906 Q76.2344,162.8906 75.5938,163.2188 Q74.9688,163.5469 74.4688,164.2969 Q73.9844,165.0469 73.9844,166.0781 L73.9844,167.1719 Q73.9844,168.4063 74.875,169.2344 Q75.7656,170.0469 77.3594,170.0469 Q78.2969,170.0469 78.9531,169.7969 Q79.3438,169.6406 79.7656,169.2031 Q80.0313,168.9375 80.1719,168.8594 Q80.3281,168.7813 80.5313,168.7813 Q80.8594,168.7813 81.1094,169.0469 Q81.375,169.2969 81.375,169.6406 Q81.375,169.9844 81.0313,170.3906 Q80.5313,170.9688 79.7344,171.2969 Q78.6563,171.75 77.3594,171.75 Q75.8438,171.75 74.6406,171.125 Q73.6563,170.625 72.9688,169.5625 Q72.2813,168.4844 72.2813,167.2031 L72.2813,166.0469 Q72.2813,164.7188 72.8906,163.5781 Q73.5156,162.4219 74.6094,161.8125 Q75.7031,161.1875 76.9375,161.1875 Q77.6719,161.1875 78.3125,161.3594 Q78.9688,161.5156 79.5156,161.875 Z "/><text fill="#000000" font-family="sans-serif" font-size="12" lengthAdjust="spacingAndGlyphs" textLength="82" x="97.25" y="170.9102">UmalUiModule</text><line style="stroke: #A80036; stroke-width: 1.5;" x1="33.5" x2="210.5" y1="182" y2="182"/><line style="stroke: #A80036; stroke-width: 1.5;" x1="33.5" x2="210.5" y1="190" y2="190"/><ellipse cx="43.5" cy="201" fill="#84BE84" rx="3" ry="3" style="stroke: #038048; stroke-width: 1.0;"/><text fill="#000000" font-family="sans-serif" font-size="11" lengthAdjust="spacingAndGlyphs" textLength="153" x="52.5" y="205.4189">UmalUiModule(AbstractUIPlugin)</text></a><!--MD5=[32fb132380cf84b387c749c0938b9582]
class org.eclipse.xtext.uma.ui.AbstractUmalUiModule--><rect fill="#FEFECE" filter="url(#ff6ehtxjer4iy)" height="48" id="org.eclipse.xtext.uma.ui.AbstractUmalUiModule" style="stroke: #A80036; stroke-width: 1.5;" width="158" x="43" y="42"/><ellipse cx="58" cy="58" fill="#ADD1B2" rx="11" ry="11" style="stroke: #A80036; stroke-width: 1.0;"/><path d="M60.7656,53.875 Q60.9219,53.6563 61.1094,53.5469 Q61.2969,53.4375 61.5156,53.4375 Q61.8906,53.4375 62.125,53.7031 Q62.3594,53.9531 62.3594,54.5625 L62.3594,56.0156 Q62.3594,56.625 62.125,56.8906 Q61.8906,57.1563 61.5156,57.1563 Q61.1719,57.1563 60.9688,56.9531 Q60.7656,56.7656 60.6563,56.25 Q60.6094,55.8906 60.4219,55.7031 Q60.0938,55.3281 59.4844,55.1094 Q58.875,54.8906 58.25,54.8906 Q57.4844,54.8906 56.8438,55.2188 Q56.2188,55.5469 55.7188,56.2969 Q55.2344,57.0469 55.2344,58.0781 L55.2344,59.1719 Q55.2344,60.4063 56.125,61.2344 Q57.0156,62.0469 58.6094,62.0469 Q59.5469,62.0469 60.2031,61.7969 Q60.5938,61.6406 61.0156,61.2031 Q61.2813,60.9375 61.4219,60.8594 Q61.5781,60.7813 61.7813,60.7813 Q62.1094,60.7813 62.3594,61.0469 Q62.625,61.2969 62.625,61.6406 Q62.625,61.9844 62.2813,62.3906 Q61.7813,62.9688 60.9844,63.2969 Q59.9063,63.75 58.6094,63.75 Q57.0938,63.75 55.8906,63.125 Q54.9063,62.625 54.2188,61.5625 Q53.5313,60.4844 53.5313,59.2031 L53.5313,58.0469 Q53.5313,56.7188 54.1406,55.5781 Q54.7656,54.4219 55.8594,53.8125 Q56.9531,53.1875 58.1875,53.1875 Q58.9219,53.1875 59.5625,53.3594 Q60.2188,53.5156 60.7656,53.875 Z "/><text fill="#000000" font-family="sans-serif" font-size="12" lengthAdjust="spacingAndGlyphs" textLength="126" x="72" y="62.9102">AbstractUmalUiModule</text><line style="stroke: #A80036; stroke-width: 1.5;" x1="44" x2="200" y1="74" y2="74"/><line style="stroke: #A80036; stroke-width: 1.5;" x1="44" x2="200" y1="82" y2="82"/><!--MD5=[d7703d4d3c535ae7dd9c369dd944b48e]
reverse link org.eclipse.xtext.uma.ui.AbstractUmalUiModule to org.eclipse.xtext.uma.ui.UmalUiModule--><path codeLine="7" d="M122,110.14 C122,123.29 122,137.47 122,149.6 " fill="none" id="org.eclipse.xtext.uma.ui.AbstractUmalUiModule-backto-org.eclipse.xtext.uma.ui.UmalUiModule" style="stroke: #A80036; stroke-width: 1.0;"/><polygon fill="none" points="115,110.14,122,90.14,129,110.14,115,110.14" style="stroke: #A80036; stroke-width: 1.0;"/><text fill="#888888" font-family="sans-serif" font-size="10" lengthAdjust="spacingAndGlyphs" textLength="190" x="21" y="244.3809">UMLDoclet 2.0.12, PlantUML 1.2020.16</text><!--MD5=[ce5a6f6d586d2272bdf3229847d3d847]
@startuml
    namespace org.eclipse.xtext.uma.ui {

        class UmalUiModule [[UmalUiModule.html]] {
            +UmalUiModule(AbstractUIPlugin)
        }

        AbstractUmalUiModule <|- - UmalUiModule
    }

    center footer UMLDoclet 2.0.12, PlantUML 1.2020.16
@enduml

PlantUML version 1.2020.16(Sun Aug 23 22:20:43 CEST 2020)
(APACHE source distribution)
Java Runtime: Java(TM) SE Runtime Environment
JVM: Java HotSpot(TM) 64-Bit Server VM
Default Encoding: Cp1252
Language: es
Country: ES
--></g></svg>