<?xml version="1.0" encoding="UTF-8" standalone="no"?><svg xmlns="http://www.w3.org/2000/svg" xmlns:xlink="http://www.w3.org/1999/xlink" contentScriptType="application/ecmascript" contentStyleType="text/css" height="205px" preserveAspectRatio="none" style="width:206px;height:205px;" version="1.1" viewBox="0 0 206 205" width="206px" zoomAndPan="magnify"><defs><filter height="300%" id="f1vs9rm4j2d4ef" width="300%" x="-1" y="-1"><feGaussianBlur result="blurOut" stdDeviation="2.0"/><feColorMatrix in="blurOut" result="blurOut2" type="matrix" values="0 0 0 0 0 0 0 0 0 0 0 0 0 0 0 0 0 0 .4 0"/><feOffset dx="4.0" dy="4.0" in="blurOut2" result="blurOut3"/><feBlend in="SourceGraphic" in2="blurOut3" mode="normal"/></filter></defs><g><!--MD5=[280ccbe6d3f7a8ee95a504dc68583556]
class org.eclipse.xtext.uma.ui.UmalUiModule--><a href="UmalUiModule.html" target="_top" title="UmalUiModule.html" xlink:actuate="onRequest" xlink:href="UmalUiModule.html" xlink:show="new" xlink:title="UmalUiModule.html" xlink:type="simple"><rect codeLine="5" fill="#FEFECE" filter="url(#f1vs9rm4j2d4ef)" height="62.0234" id="org.eclipse.xtext.uma.ui.UmalUiModule" style="stroke: #A80036; stroke-width: 1.5;" width="179" x="8.5" y="107"/><ellipse cx="38.8" cy="127.0938" fill="#ADD1B2" rx="11" ry="11" style="stroke: #A80036; stroke-width: 1.0;"/><path d="M41.5656,122.9688 Q41.7219,122.75 41.9094,122.6406 Q42.0969,122.5313 42.3156,122.5313 Q42.6906,122.5313 42.925,122.7969 Q43.1594,123.0469 43.1594,123.6563 L43.1594,125.1094 Q43.1594,125.7188 42.925,125.9844 Q42.6906,126.25 42.3156,126.25 Q41.9719,126.25 41.7688,126.0469 Q41.5656,125.8594 41.4563,125.3438 Q41.4094,124.9844 41.2219,124.7969 Q40.8938,124.4219 40.2844,124.2031 Q39.675,123.9844 39.05,123.9844 Q38.2844,123.9844 37.6438,124.3125 Q37.0188,124.6406 36.5188,125.3906 Q36.0344,126.1406 36.0344,127.1719 L36.0344,128.2656 Q36.0344,129.5 36.925,130.3281 Q37.8156,131.1406 39.4094,131.1406 Q40.3469,131.1406 41.0031,130.8906 Q41.3938,130.7344 41.8156,130.2969 Q42.0813,130.0313 42.2219,129.9531 Q42.3781,129.875 42.5813,129.875 Q42.9094,129.875 43.1594,130.1406 Q43.425,130.3906 43.425,130.7344 Q43.425,131.0781 43.0813,131.4844 Q42.5813,132.0625 41.7844,132.3906 Q40.7063,132.8438 39.4094,132.8438 Q37.8938,132.8438 36.6906,132.2188 Q35.7063,131.7188 35.0188,130.6563 Q34.3313,129.5781 34.3313,128.2969 L34.3313,127.1406 Q34.3313,125.8125 34.9406,124.6719 Q35.5656,123.5156 36.6594,122.9063 Q37.7531,122.2813 38.9875,122.2813 Q39.7219,122.2813 40.3625,122.4531 Q41.0188,122.6094 41.5656,122.9688 Z "/><text fill="#000000" font-family="sans-serif" font-size="14" lengthAdjust="spacingAndGlyphs" textLength="89" x="68.2" y="126.5332">UmalUiModule</text><text fill="#000000" font-family="sans-serif" font-size="10" lengthAdjust="spacingAndGlyphs" textLength="113" x="56.2" y="139.9902">org.eclipse.xtext.uma.ui</text><line style="stroke: #A80036; stroke-width: 1.5;" x1="9.5" x2="186.5" y1="147.1875" y2="147.1875"/><ellipse cx="19.5" cy="158.1875" fill="#84BE84" rx="3" ry="3" style="stroke: #038048; stroke-width: 1.0;"/><text fill="#000000" font-family="sans-serif" font-size="11" lengthAdjust="spacingAndGlyphs" textLength="153" x="28.5" y="162.6064">UmalUiModule(AbstractUIPlugin)</text></a><!--MD5=[32fb132380cf84b387c749c0938b9582]
class org.eclipse.xtext.uma.ui.AbstractUmalUiModule--><rect codeLine="9" fill="#FEFECE" filter="url(#f1vs9rm4j2d4ef)" height="40.1875" id="org.eclipse.xtext.uma.ui.AbstractUmalUiModule" style="stroke: #A80036; stroke-width: 1.5;" width="176" x="10" y="7"/><ellipse cx="25" cy="27.0938" fill="#A9DCDF" rx="11" ry="11" style="stroke: #A80036; stroke-width: 1.0;"/><path d="M27.1875,28.8594 L23.0469,28.8594 L22.625,29.8906 L23.0469,29.8906 Q23.6563,29.8906 23.9219,30.125 Q24.1875,30.3594 24.1875,30.75 Q24.1875,31.125 23.9219,31.3594 Q23.6563,31.5938 23.0469,31.5938 L20.75,31.5938 Q20.1406,31.5938 19.8906,31.3594 Q19.625,31.125 19.625,30.7344 Q19.625,30.3594 19.9063,30.125 Q20.1719,29.875 20.7969,29.8906 L23.4688,23.2344 L22.3594,23.2344 Q21.75,23.2344 21.4844,23 Q21.2188,22.7656 21.2188,22.375 Q21.2188,22 21.4844,21.7656 Q21.75,21.5313 22.3594,21.5313 L26.0313,21.5313 L29.4219,29.8906 Q30.0156,29.8906 30.2031,30.0313 Q30.5938,30.2969 30.5938,30.75 Q30.5938,31.125 30.3281,31.3594 Q30.0781,31.5938 29.4688,31.5938 L27.1719,31.5938 Q26.5625,31.5938 26.2969,31.3594 Q26.0313,31.125 26.0313,30.7344 Q26.0313,30.3594 26.2969,30.125 Q26.5625,29.8906 27.1719,29.8906 L27.5938,29.8906 L27.1875,28.8594 Z M26.4688,27.1563 L25.1094,23.7813 L23.7344,27.1563 L26.4688,27.1563 Z "/><text fill="#000000" font-family="sans-serif" font-size="14" font-style="italic" lengthAdjust="spacingAndGlyphs" textLength="144" x="39" y="26.5332">AbstractUmalUiModule</text><text fill="#000000" font-family="sans-serif" font-size="10" font-style="italic" lengthAdjust="spacingAndGlyphs" textLength="111" x="55.5" y="39.9902">org.eclipse.xtext.uma.ui</text><!--MD5=[d7703d4d3c535ae7dd9c369dd944b48e]
reverse link org.eclipse.xtext.uma.ui.AbstractUmalUiModule to org.eclipse.xtext.uma.ui.UmalUiModule--><path codeLine="11" d="M98,67.37 C98,80.38 98,94.65 98,106.86 " fill="none" id="org.eclipse.xtext.uma.ui.AbstractUmalUiModule-backto-org.eclipse.xtext.uma.ui.UmalUiModule" style="stroke: #A80036; stroke-width: 1.0;"/><polygon fill="none" points="91,67.24,98,47.24,105,67.24,91,67.24" style="stroke: #A80036; stroke-width: 1.0;"/><text fill="#888888" font-family="sans-serif" font-size="10" lengthAdjust="spacingAndGlyphs" textLength="190" x="0" y="192.4043">UMLDoclet 2.0.12, PlantUML 1.2020.16</text><!--MD5=[6ff5c9e62fd6b12b4b5ea0ae738a4358]
@startuml
    set namespaceSeparator none
    hide empty fields
    hide empty methods

    class "<size:14>UmalUiModule\n<size:10>org.eclipse.xtext.uma.ui" as org.eclipse.xtext.uma.ui.UmalUiModule [[UmalUiModule.html]] {
        +UmalUiModule(AbstractUIPlugin)
    }

    abstract class "<size:14>AbstractUmalUiModule\n<size:10>org.eclipse.xtext.uma.ui" as org.eclipse.xtext.uma.ui.AbstractUmalUiModule

    org.eclipse.xtext.uma.ui.AbstractUmalUiModule <|- - org.eclipse.xtext.uma.ui.UmalUiModule

    center footer UMLDoclet 2.0.12, PlantUML 1.2020.16
@enduml

PlantUML version 1.2020.16(Sun Aug 23 22:20:43 CEST 2020)
(APACHE source distribution)
Java Runtime: Java(TM) SE Runtime Environment
JVM: Java HotSpot(TM) 64-Bit Server VM
Default Encoding: Cp1252
Language: es
Country: ES
--></g></svg>