<?xml version="1.0" encoding="UTF-8" standalone="no"?><svg xmlns="http://www.w3.org/2000/svg" xmlns:xlink="http://www.w3.org/1999/xlink" contentScriptType="application/ecmascript" contentStyleType="text/css" height="257px" preserveAspectRatio="none" style="width:514px;height:257px;" version="1.1" viewBox="0 0 514 257" width="514px" zoomAndPan="magnify"><defs><filter height="300%" id="f6whanpya4fcz" width="300%" x="-1" y="-1"><feGaussianBlur result="blurOut" stdDeviation="2.0"/><feColorMatrix in="blurOut" result="blurOut2" type="matrix" values="0 0 0 0 0 0 0 0 0 0 0 0 0 0 0 0 0 0 .4 0"/><feOffset dx="4.0" dy="4.0" in="blurOut2" result="blurOut3"/><feBlend in="SourceGraphic" in2="blurOut3" mode="normal"/></filter></defs><g><!--MD5=[0257d2b50a3d660139fe01cb356ce554]
cluster org.eclipse.xtext.uma--><polygon fill="#FFFFFF" filter="url(#f6whanpya4fcz)" points="16,6,173,6,180,29.6094,492,29.6094,492,228,16,228,16,6" style="stroke: #000000; stroke-width: 1.5;"/><line style="stroke: #000000; stroke-width: 1.5;" x1="16" x2="180" y1="29.6094" y2="29.6094"/><text fill="#000000" font-family="sans-serif" font-size="14" font-weight="bold" lengthAdjust="spacingAndGlyphs" textLength="151" x="20" y="22.5332">org.eclipse.xtext.uma</text><!--MD5=[258bd9ebc106e1f489203bfd8c915346]
class org.eclipse.xtext.uma.UmalRuntimeModule--><a href="UmalRuntimeModule.html" target="_top" title="UmalRuntimeModule.html" xlink:actuate="onRequest" xlink:href="UmalRuntimeModule.html" xlink:show="new" xlink:title="UmalRuntimeModule.html" xlink:type="simple"><rect codeLine="3" fill="#FEFECE" filter="url(#f6whanpya4fcz)" height="48" id="org.eclipse.xtext.uma.UmalRuntimeModule" style="stroke: #A80036; stroke-width: 1.5;" width="149" x="304.5" y="157"/><ellipse cx="319.5" cy="173" fill="#ADD1B2" rx="11" ry="11" style="stroke: #A80036; stroke-width: 1.0;"/><path d="M322.2656,168.875 Q322.4219,168.6563 322.6094,168.5469 Q322.7969,168.4375 323.0156,168.4375 Q323.3906,168.4375 323.625,168.7031 Q323.8594,168.9531 323.8594,169.5625 L323.8594,171.0156 Q323.8594,171.625 323.625,171.8906 Q323.3906,172.1563 323.0156,172.1563 Q322.6719,172.1563 322.4688,171.9531 Q322.2656,171.7656 322.1563,171.25 Q322.1094,170.8906 321.9219,170.7031 Q321.5938,170.3281 320.9844,170.1094 Q320.375,169.8906 319.75,169.8906 Q318.9844,169.8906 318.3438,170.2188 Q317.7188,170.5469 317.2188,171.2969 Q316.7344,172.0469 316.7344,173.0781 L316.7344,174.1719 Q316.7344,175.4063 317.625,176.2344 Q318.5156,177.0469 320.1094,177.0469 Q321.0469,177.0469 321.7031,176.7969 Q322.0938,176.6406 322.5156,176.2031 Q322.7813,175.9375 322.9219,175.8594 Q323.0781,175.7813 323.2813,175.7813 Q323.6094,175.7813 323.8594,176.0469 Q324.125,176.2969 324.125,176.6406 Q324.125,176.9844 323.7813,177.3906 Q323.2813,177.9688 322.4844,178.2969 Q321.4063,178.75 320.1094,178.75 Q318.5938,178.75 317.3906,178.125 Q316.4063,177.625 315.7188,176.5625 Q315.0313,175.4844 315.0313,174.2031 L315.0313,173.0469 Q315.0313,171.7188 315.6406,170.5781 Q316.2656,169.4219 317.3594,168.8125 Q318.4531,168.1875 319.6875,168.1875 Q320.4219,168.1875 321.0625,168.3594 Q321.7188,168.5156 322.2656,168.875 Z "/><text fill="#000000" font-family="sans-serif" font-size="12" lengthAdjust="spacingAndGlyphs" textLength="117" x="333.5" y="177.9102">UmalRuntimeModule</text><line style="stroke: #A80036; stroke-width: 1.5;" x1="305.5" x2="452.5" y1="189" y2="189"/><line style="stroke: #A80036; stroke-width: 1.5;" x1="305.5" x2="452.5" y1="197" y2="197"/></a><!--MD5=[5fbb37c3404a80863befd8c7963c384d]
class org.eclipse.xtext.uma.UmalStandaloneSetup--><a href="UmalStandaloneSetup.html" target="_top" title="UmalStandaloneSetup.html" xlink:actuate="onRequest" xlink:href="UmalStandaloneSetup.html" xlink:show="new" xlink:title="UmalStandaloneSetup.html" xlink:type="simple"><rect codeLine="5" fill="#FEFECE" filter="url(#f6whanpya4fcz)" height="61.8359" id="org.eclipse.xtext.uma.UmalStandaloneSetup" style="stroke: #A80036; stroke-width: 1.5;" width="157" x="61.5" y="150"/><ellipse cx="76.5" cy="166" fill="#ADD1B2" rx="11" ry="11" style="stroke: #A80036; stroke-width: 1.0;"/><path d="M79.2656,161.875 Q79.4219,161.6563 79.6094,161.5469 Q79.7969,161.4375 80.0156,161.4375 Q80.3906,161.4375 80.625,161.7031 Q80.8594,161.9531 80.8594,162.5625 L80.8594,164.0156 Q80.8594,164.625 80.625,164.8906 Q80.3906,165.1563 80.0156,165.1563 Q79.6719,165.1563 79.4688,164.9531 Q79.2656,164.7656 79.1563,164.25 Q79.1094,163.8906 78.9219,163.7031 Q78.5938,163.3281 77.9844,163.1094 Q77.375,162.8906 76.75,162.8906 Q75.9844,162.8906 75.3438,163.2188 Q74.7188,163.5469 74.2188,164.2969 Q73.7344,165.0469 73.7344,166.0781 L73.7344,167.1719 Q73.7344,168.4063 74.625,169.2344 Q75.5156,170.0469 77.1094,170.0469 Q78.0469,170.0469 78.7031,169.7969 Q79.0938,169.6406 79.5156,169.2031 Q79.7813,168.9375 79.9219,168.8594 Q80.0781,168.7813 80.2813,168.7813 Q80.6094,168.7813 80.8594,169.0469 Q81.125,169.2969 81.125,169.6406 Q81.125,169.9844 80.7813,170.3906 Q80.2813,170.9688 79.4844,171.2969 Q78.4063,171.75 77.1094,171.75 Q75.5938,171.75 74.3906,171.125 Q73.4063,170.625 72.7188,169.5625 Q72.0313,168.4844 72.0313,167.2031 L72.0313,166.0469 Q72.0313,164.7188 72.6406,163.5781 Q73.2656,162.4219 74.3594,161.8125 Q75.4531,161.1875 76.6875,161.1875 Q77.4219,161.1875 78.0625,161.3594 Q78.7188,161.5156 79.2656,161.875 Z "/><text fill="#000000" font-family="sans-serif" font-size="12" lengthAdjust="spacingAndGlyphs" textLength="125" x="90.5" y="170.9102">UmalStandaloneSetup</text><line style="stroke: #A80036; stroke-width: 1.5;" x1="62.5" x2="217.5" y1="182" y2="182"/><line style="stroke: #A80036; stroke-width: 1.5;" x1="62.5" x2="217.5" y1="190" y2="190"/><ellipse cx="72.5" cy="201" fill="#84BE84" rx="3" ry="3" style="stroke: #038048; stroke-width: 1.0;"/><text fill="#000000" font-family="sans-serif" font-size="11" lengthAdjust="spacingAndGlyphs" text-decoration="underline" textLength="74" x="81.5" y="205.4189">doSetup(): void</text></a><!--MD5=[e0818299e54b358c0f301854feb0dc53]
class org.eclipse.xtext.uma.AbstractUmalRuntimeModule--><rect fill="#FEFECE" filter="url(#f6whanpya4fcz)" height="48" id="org.eclipse.xtext.uma.AbstractUmalRuntimeModule" style="stroke: #A80036; stroke-width: 1.5;" width="193" x="282.5" y="42"/><ellipse cx="297.5" cy="58" fill="#ADD1B2" rx="11" ry="11" style="stroke: #A80036; stroke-width: 1.0;"/><path d="M300.2656,53.875 Q300.4219,53.6563 300.6094,53.5469 Q300.7969,53.4375 301.0156,53.4375 Q301.3906,53.4375 301.625,53.7031 Q301.8594,53.9531 301.8594,54.5625 L301.8594,56.0156 Q301.8594,56.625 301.625,56.8906 Q301.3906,57.1563 301.0156,57.1563 Q300.6719,57.1563 300.4688,56.9531 Q300.2656,56.7656 300.1563,56.25 Q300.1094,55.8906 299.9219,55.7031 Q299.5938,55.3281 298.9844,55.1094 Q298.375,54.8906 297.75,54.8906 Q296.9844,54.8906 296.3438,55.2188 Q295.7188,55.5469 295.2188,56.2969 Q294.7344,57.0469 294.7344,58.0781 L294.7344,59.1719 Q294.7344,60.4063 295.625,61.2344 Q296.5156,62.0469 298.1094,62.0469 Q299.0469,62.0469 299.7031,61.7969 Q300.0938,61.6406 300.5156,61.2031 Q300.7813,60.9375 300.9219,60.8594 Q301.0781,60.7813 301.2813,60.7813 Q301.6094,60.7813 301.8594,61.0469 Q302.125,61.2969 302.125,61.6406 Q302.125,61.9844 301.7813,62.3906 Q301.2813,62.9688 300.4844,63.2969 Q299.4063,63.75 298.1094,63.75 Q296.5938,63.75 295.3906,63.125 Q294.4063,62.625 293.7188,61.5625 Q293.0313,60.4844 293.0313,59.2031 L293.0313,58.0469 Q293.0313,56.7188 293.6406,55.5781 Q294.2656,54.4219 295.3594,53.8125 Q296.4531,53.1875 297.6875,53.1875 Q298.4219,53.1875 299.0625,53.3594 Q299.7188,53.5156 300.2656,53.875 Z "/><text fill="#000000" font-family="sans-serif" font-size="12" lengthAdjust="spacingAndGlyphs" textLength="161" x="311.5" y="62.9102">AbstractUmalRuntimeModule</text><line style="stroke: #A80036; stroke-width: 1.5;" x1="283.5" x2="474.5" y1="74" y2="74"/><line style="stroke: #A80036; stroke-width: 1.5;" x1="283.5" x2="474.5" y1="82" y2="82"/><!--MD5=[a1e17d8454c54b8250bb459a33da61ae]
class org.eclipse.xtext.uma.UmalStandaloneSetupGenerated--><rect fill="#FEFECE" filter="url(#f6whanpya4fcz)" height="48" id="org.eclipse.xtext.uma.UmalStandaloneSetupGenerated" style="stroke: #A80036; stroke-width: 1.5;" width="215" x="32.5" y="42"/><ellipse cx="47.5" cy="58" fill="#ADD1B2" rx="11" ry="11" style="stroke: #A80036; stroke-width: 1.0;"/><path d="M50.2656,53.875 Q50.4219,53.6563 50.6094,53.5469 Q50.7969,53.4375 51.0156,53.4375 Q51.3906,53.4375 51.625,53.7031 Q51.8594,53.9531 51.8594,54.5625 L51.8594,56.0156 Q51.8594,56.625 51.625,56.8906 Q51.3906,57.1563 51.0156,57.1563 Q50.6719,57.1563 50.4688,56.9531 Q50.2656,56.7656 50.1563,56.25 Q50.1094,55.8906 49.9219,55.7031 Q49.5938,55.3281 48.9844,55.1094 Q48.375,54.8906 47.75,54.8906 Q46.9844,54.8906 46.3438,55.2188 Q45.7188,55.5469 45.2188,56.2969 Q44.7344,57.0469 44.7344,58.0781 L44.7344,59.1719 Q44.7344,60.4063 45.625,61.2344 Q46.5156,62.0469 48.1094,62.0469 Q49.0469,62.0469 49.7031,61.7969 Q50.0938,61.6406 50.5156,61.2031 Q50.7813,60.9375 50.9219,60.8594 Q51.0781,60.7813 51.2813,60.7813 Q51.6094,60.7813 51.8594,61.0469 Q52.125,61.2969 52.125,61.6406 Q52.125,61.9844 51.7813,62.3906 Q51.2813,62.9688 50.4844,63.2969 Q49.4063,63.75 48.1094,63.75 Q46.5938,63.75 45.3906,63.125 Q44.4063,62.625 43.7188,61.5625 Q43.0313,60.4844 43.0313,59.2031 L43.0313,58.0469 Q43.0313,56.7188 43.6406,55.5781 Q44.2656,54.4219 45.3594,53.8125 Q46.4531,53.1875 47.6875,53.1875 Q48.4219,53.1875 49.0625,53.3594 Q49.7188,53.5156 50.2656,53.875 Z "/><text fill="#000000" font-family="sans-serif" font-size="12" lengthAdjust="spacingAndGlyphs" textLength="183" x="61.5" y="62.9102">UmalStandaloneSetupGenerated</text><line style="stroke: #A80036; stroke-width: 1.5;" x1="33.5" x2="246.5" y1="74" y2="74"/><line style="stroke: #A80036; stroke-width: 1.5;" x1="33.5" x2="246.5" y1="82" y2="82"/><!--MD5=[a7a5d0b5688126a56240032917bbb012]
reverse link org.eclipse.xtext.uma.AbstractUmalRuntimeModule to org.eclipse.xtext.uma.UmalRuntimeModule--><path codeLine="9" d="M379,110.34 C379,126.18 379,143.49 379,156.89 " fill="none" id="org.eclipse.xtext.uma.AbstractUmalRuntimeModule-backto-org.eclipse.xtext.uma.UmalRuntimeModule" style="stroke: #A80036; stroke-width: 1.0;"/><polygon fill="none" points="372,110.14,379,90.14,386,110.14,372,110.14" style="stroke: #A80036; stroke-width: 1.0;"/><!--MD5=[be9862a2dd2f0fc2d591da852467a07f]
reverse link org.eclipse.xtext.uma.UmalStandaloneSetupGenerated to org.eclipse.xtext.uma.UmalStandaloneSetup--><path codeLine="10" d="M140,110.14 C140,123.29 140,137.47 140,149.6 " fill="none" id="org.eclipse.xtext.uma.UmalStandaloneSetupGenerated-backto-org.eclipse.xtext.uma.UmalStandaloneSetup" style="stroke: #A80036; stroke-width: 1.0;"/><polygon fill="none" points="133,110.14,140,90.14,147,110.14,133,110.14" style="stroke: #A80036; stroke-width: 1.0;"/><text fill="#888888" font-family="sans-serif" font-size="10" lengthAdjust="spacingAndGlyphs" textLength="190" x="153" y="244.3809">UMLDoclet 2.0.12, PlantUML 1.2020.16</text><!--MD5=[c8fc21ec17bd9877fcd44872ced5f76c]
@startuml
    namespace org.eclipse.xtext.uma {

        class UmalRuntimeModule [[UmalRuntimeModule.html]]

        class UmalStandaloneSetup [[UmalStandaloneSetup.html]] {
            {static} +doSetup(): void
        }

        AbstractUmalRuntimeModule <|- - UmalRuntimeModule
        UmalStandaloneSetupGenerated <|- - UmalStandaloneSetup
    }

    center footer UMLDoclet 2.0.12, PlantUML 1.2020.16
@enduml

PlantUML version 1.2020.16(Sun Aug 23 22:20:43 CEST 2020)
(APACHE source distribution)
Java Runtime: Java(TM) SE Runtime Environment
JVM: Java HotSpot(TM) 64-Bit Server VM
Default Encoding: Cp1252
Language: es
Country: ES
--></g></svg>