<?xml version="1.0" encoding="UTF-8" standalone="no"?><svg xmlns="http://www.w3.org/2000/svg" xmlns:xlink="http://www.w3.org/1999/xlink" contentScriptType="application/ecmascript" contentStyleType="text/css" height="205px" preserveAspectRatio="none" style="width:266px;height:205px;" version="1.1" viewBox="0 0 266 205" width="266px" zoomAndPan="magnify"><defs><filter height="300%" id="fgx8v8laczu82" width="300%" x="-1" y="-1"><feGaussianBlur result="blurOut" stdDeviation="2.0"/><feColorMatrix in="blurOut" result="blurOut2" type="matrix" values="0 0 0 0 0 0 0 0 0 0 0 0 0 0 0 0 0 0 .4 0"/><feOffset dx="4.0" dy="4.0" in="blurOut2" result="blurOut3"/><feBlend in="SourceGraphic" in2="blurOut3" mode="normal"/></filter></defs><g><!--MD5=[5fbb37c3404a80863befd8c7963c384d]
class org.eclipse.xtext.uma.UmalStandaloneSetup--><a href="UmalStandaloneSetup.html" target="_top" title="UmalStandaloneSetup.html" xlink:actuate="onRequest" xlink:href="UmalStandaloneSetup.html" xlink:show="new" xlink:title="UmalStandaloneSetup.html" xlink:type="simple"><rect codeLine="5" fill="#FEFECE" filter="url(#fgx8v8laczu82)" height="62.0234" id="org.eclipse.xtext.uma.UmalStandaloneSetup" style="stroke: #A80036; stroke-width: 1.5;" width="172" x="41" y="107"/><ellipse cx="56" cy="127.0938" fill="#ADD1B2" rx="11" ry="11" style="stroke: #A80036; stroke-width: 1.0;"/><path d="M58.7656,122.9688 Q58.9219,122.75 59.1094,122.6406 Q59.2969,122.5313 59.5156,122.5313 Q59.8906,122.5313 60.125,122.7969 Q60.3594,123.0469 60.3594,123.6563 L60.3594,125.1094 Q60.3594,125.7188 60.125,125.9844 Q59.8906,126.25 59.5156,126.25 Q59.1719,126.25 58.9688,126.0469 Q58.7656,125.8594 58.6563,125.3438 Q58.6094,124.9844 58.4219,124.7969 Q58.0938,124.4219 57.4844,124.2031 Q56.875,123.9844 56.25,123.9844 Q55.4844,123.9844 54.8438,124.3125 Q54.2188,124.6406 53.7188,125.3906 Q53.2344,126.1406 53.2344,127.1719 L53.2344,128.2656 Q53.2344,129.5 54.125,130.3281 Q55.0156,131.1406 56.6094,131.1406 Q57.5469,131.1406 58.2031,130.8906 Q58.5938,130.7344 59.0156,130.2969 Q59.2813,130.0313 59.4219,129.9531 Q59.5781,129.875 59.7813,129.875 Q60.1094,129.875 60.3594,130.1406 Q60.625,130.3906 60.625,130.7344 Q60.625,131.0781 60.2813,131.4844 Q59.7813,132.0625 58.9844,132.3906 Q57.9063,132.8438 56.6094,132.8438 Q55.0938,132.8438 53.8906,132.2188 Q52.9063,131.7188 52.2188,130.6563 Q51.5313,129.5781 51.5313,128.2969 L51.5313,127.1406 Q51.5313,125.8125 52.1406,124.6719 Q52.7656,123.5156 53.8594,122.9063 Q54.9531,122.2813 56.1875,122.2813 Q56.9219,122.2813 57.5625,122.4531 Q58.2188,122.6094 58.7656,122.9688 Z "/><text fill="#000000" font-family="sans-serif" font-size="14" lengthAdjust="spacingAndGlyphs" textLength="140" x="70" y="126.5332">UmalStandaloneSetup</text><text fill="#000000" font-family="sans-serif" font-size="10" lengthAdjust="spacingAndGlyphs" textLength="101" x="89.5" y="139.9902">org.eclipse.xtext.uma</text><line style="stroke: #A80036; stroke-width: 1.5;" x1="42" x2="212" y1="147.1875" y2="147.1875"/><ellipse cx="52" cy="158.1875" fill="#84BE84" rx="3" ry="3" style="stroke: #038048; stroke-width: 1.0;"/><text fill="#000000" font-family="sans-serif" font-size="11" lengthAdjust="spacingAndGlyphs" text-decoration="underline" textLength="74" x="61" y="162.6064">doSetup(): void</text></a><!--MD5=[a1e17d8454c54b8250bb459a33da61ae]
class org.eclipse.xtext.uma.UmalStandaloneSetupGenerated--><rect codeLine="9" fill="#FEFECE" filter="url(#fgx8v8laczu82)" height="40.1875" id="org.eclipse.xtext.uma.UmalStandaloneSetupGenerated" style="stroke: #A80036; stroke-width: 1.5;" width="240" x="7" y="7"/><ellipse cx="22" cy="27.0938" fill="#ADD1B2" rx="11" ry="11" style="stroke: #A80036; stroke-width: 1.0;"/><path d="M24.7656,22.9688 Q24.9219,22.75 25.1094,22.6406 Q25.2969,22.5313 25.5156,22.5313 Q25.8906,22.5313 26.125,22.7969 Q26.3594,23.0469 26.3594,23.6563 L26.3594,25.1094 Q26.3594,25.7188 26.125,25.9844 Q25.8906,26.25 25.5156,26.25 Q25.1719,26.25 24.9688,26.0469 Q24.7656,25.8594 24.6563,25.3438 Q24.6094,24.9844 24.4219,24.7969 Q24.0938,24.4219 23.4844,24.2031 Q22.875,23.9844 22.25,23.9844 Q21.4844,23.9844 20.8438,24.3125 Q20.2188,24.6406 19.7188,25.3906 Q19.2344,26.1406 19.2344,27.1719 L19.2344,28.2656 Q19.2344,29.5 20.125,30.3281 Q21.0156,31.1406 22.6094,31.1406 Q23.5469,31.1406 24.2031,30.8906 Q24.5938,30.7344 25.0156,30.2969 Q25.2813,30.0313 25.4219,29.9531 Q25.5781,29.875 25.7813,29.875 Q26.1094,29.875 26.3594,30.1406 Q26.625,30.3906 26.625,30.7344 Q26.625,31.0781 26.2813,31.4844 Q25.7813,32.0625 24.9844,32.3906 Q23.9063,32.8438 22.6094,32.8438 Q21.0938,32.8438 19.8906,32.2188 Q18.9063,31.7188 18.2188,30.6563 Q17.5313,29.5781 17.5313,28.2969 L17.5313,27.1406 Q17.5313,25.8125 18.1406,24.6719 Q18.7656,23.5156 19.8594,22.9063 Q20.9531,22.2813 22.1875,22.2813 Q22.9219,22.2813 23.5625,22.4531 Q24.2188,22.6094 24.7656,22.9688 Z "/><text fill="#000000" font-family="sans-serif" font-size="14" lengthAdjust="spacingAndGlyphs" textLength="208" x="36" y="26.5332">UmalStandaloneSetupGenerated</text><text fill="#000000" font-family="sans-serif" font-size="10" lengthAdjust="spacingAndGlyphs" textLength="101" x="89.5" y="39.9902">org.eclipse.xtext.uma</text><!--MD5=[be9862a2dd2f0fc2d591da852467a07f]
reverse link org.eclipse.xtext.uma.UmalStandaloneSetupGenerated to org.eclipse.xtext.uma.UmalStandaloneSetup--><path codeLine="11" d="M127,67.37 C127,80.38 127,94.65 127,106.86 " fill="none" id="org.eclipse.xtext.uma.UmalStandaloneSetupGenerated-backto-org.eclipse.xtext.uma.UmalStandaloneSetup" style="stroke: #A80036; stroke-width: 1.0;"/><polygon fill="none" points="120,67.24,127,47.24,134,67.24,120,67.24" style="stroke: #A80036; stroke-width: 1.0;"/><text fill="#888888" font-family="sans-serif" font-size="10" lengthAdjust="spacingAndGlyphs" textLength="190" x="29" y="192.4043">UMLDoclet 2.0.12, PlantUML 1.2020.16</text><!--MD5=[4a179531ce2594ce892ff68cb0208bcc]
@startuml
    set namespaceSeparator none
    hide empty fields
    hide empty methods

    class "<size:14>UmalStandaloneSetup\n<size:10>org.eclipse.xtext.uma" as org.eclipse.xtext.uma.UmalStandaloneSetup [[UmalStandaloneSetup.html]] {
        {static} +doSetup(): void
    }

    class "<size:14>UmalStandaloneSetupGenerated\n<size:10>org.eclipse.xtext.uma" as org.eclipse.xtext.uma.UmalStandaloneSetupGenerated

    org.eclipse.xtext.uma.UmalStandaloneSetupGenerated <|- - org.eclipse.xtext.uma.UmalStandaloneSetup

    center footer UMLDoclet 2.0.12, PlantUML 1.2020.16
@enduml

PlantUML version 1.2020.16(Sun Aug 23 22:20:43 CEST 2020)
(APACHE source distribution)
Java Runtime: Java(TM) SE Runtime Environment
JVM: Java HotSpot(TM) 64-Bit Server VM
Default Encoding: Cp1252
Language: es
Country: ES
--></g></svg>