<?xml version="1.0" encoding="UTF-8" standalone="no"?><svg xmlns="http://www.w3.org/2000/svg" xmlns:xlink="http://www.w3.org/1999/xlink" contentScriptType="application/ecmascript" contentStyleType="text/css" height="184px" preserveAspectRatio="none" style="width:241px;height:184px;" version="1.1" viewBox="0 0 241 184" width="241px" zoomAndPan="magnify"><defs><filter height="300%" id="f1s3o3gm1vqzjz" width="300%" x="-1" y="-1"><feGaussianBlur result="blurOut" stdDeviation="2.0"/><feColorMatrix in="blurOut" result="blurOut2" type="matrix" values="0 0 0 0 0 0 0 0 0 0 0 0 0 0 0 0 0 0 .4 0"/><feOffset dx="4.0" dy="4.0" in="blurOut2" result="blurOut3"/><feBlend in="SourceGraphic" in2="blurOut3" mode="normal"/></filter></defs><g><!--MD5=[258bd9ebc106e1f489203bfd8c915346]
class org.eclipse.xtext.uma.UmalRuntimeModule--><a href="UmalRuntimeModule.html" target="_top" title="UmalRuntimeModule.html" xlink:actuate="onRequest" xlink:href="UmalRuntimeModule.html" xlink:show="new" xlink:title="UmalRuntimeModule.html" xlink:type="simple"><rect codeLine="5" fill="#FEFECE" filter="url(#f1s3o3gm1vqzjz)" height="40.1875" id="org.eclipse.xtext.uma.UmalRuntimeModule" style="stroke: #A80036; stroke-width: 1.5;" width="161" x="34" y="107"/><ellipse cx="49" cy="127.0938" fill="#ADD1B2" rx="11" ry="11" style="stroke: #A80036; stroke-width: 1.0;"/><path d="M51.7656,122.9688 Q51.9219,122.75 52.1094,122.6406 Q52.2969,122.5313 52.5156,122.5313 Q52.8906,122.5313 53.125,122.7969 Q53.3594,123.0469 53.3594,123.6563 L53.3594,125.1094 Q53.3594,125.7188 53.125,125.9844 Q52.8906,126.25 52.5156,126.25 Q52.1719,126.25 51.9688,126.0469 Q51.7656,125.8594 51.6563,125.3438 Q51.6094,124.9844 51.4219,124.7969 Q51.0938,124.4219 50.4844,124.2031 Q49.875,123.9844 49.25,123.9844 Q48.4844,123.9844 47.8438,124.3125 Q47.2188,124.6406 46.7188,125.3906 Q46.2344,126.1406 46.2344,127.1719 L46.2344,128.2656 Q46.2344,129.5 47.125,130.3281 Q48.0156,131.1406 49.6094,131.1406 Q50.5469,131.1406 51.2031,130.8906 Q51.5938,130.7344 52.0156,130.2969 Q52.2813,130.0313 52.4219,129.9531 Q52.5781,129.875 52.7813,129.875 Q53.1094,129.875 53.3594,130.1406 Q53.625,130.3906 53.625,130.7344 Q53.625,131.0781 53.2813,131.4844 Q52.7813,132.0625 51.9844,132.3906 Q50.9063,132.8438 49.6094,132.8438 Q48.0938,132.8438 46.8906,132.2188 Q45.9063,131.7188 45.2188,130.6563 Q44.5313,129.5781 44.5313,128.2969 L44.5313,127.1406 Q44.5313,125.8125 45.1406,124.6719 Q45.7656,123.5156 46.8594,122.9063 Q47.9531,122.2813 49.1875,122.2813 Q49.9219,122.2813 50.5625,122.4531 Q51.2188,122.6094 51.7656,122.9688 Z "/><text fill="#000000" font-family="sans-serif" font-size="14" lengthAdjust="spacingAndGlyphs" textLength="129" x="63" y="126.5332">UmalRuntimeModule</text><text fill="#000000" font-family="sans-serif" font-size="10" lengthAdjust="spacingAndGlyphs" textLength="101" x="77" y="139.9902">org.eclipse.xtext.uma</text></a><!--MD5=[e0818299e54b358c0f301854feb0dc53]
class org.eclipse.xtext.uma.AbstractUmalRuntimeModule--><rect codeLine="7" fill="#FEFECE" filter="url(#f1s3o3gm1vqzjz)" height="40.1875" id="org.eclipse.xtext.uma.AbstractUmalRuntimeModule" style="stroke: #A80036; stroke-width: 1.5;" width="215" x="7" y="7"/><ellipse cx="22" cy="27.0938" fill="#A9DCDF" rx="11" ry="11" style="stroke: #A80036; stroke-width: 1.0;"/><path d="M24.1875,28.8594 L20.0469,28.8594 L19.625,29.8906 L20.0469,29.8906 Q20.6563,29.8906 20.9219,30.125 Q21.1875,30.3594 21.1875,30.75 Q21.1875,31.125 20.9219,31.3594 Q20.6563,31.5938 20.0469,31.5938 L17.75,31.5938 Q17.1406,31.5938 16.8906,31.3594 Q16.625,31.125 16.625,30.7344 Q16.625,30.3594 16.9063,30.125 Q17.1719,29.875 17.7969,29.8906 L20.4688,23.2344 L19.3594,23.2344 Q18.75,23.2344 18.4844,23 Q18.2188,22.7656 18.2188,22.375 Q18.2188,22 18.4844,21.7656 Q18.75,21.5313 19.3594,21.5313 L23.0313,21.5313 L26.4219,29.8906 Q27.0156,29.8906 27.2031,30.0313 Q27.5938,30.2969 27.5938,30.75 Q27.5938,31.125 27.3281,31.3594 Q27.0781,31.5938 26.4688,31.5938 L24.1719,31.5938 Q23.5625,31.5938 23.2969,31.3594 Q23.0313,31.125 23.0313,30.7344 Q23.0313,30.3594 23.2969,30.125 Q23.5625,29.8906 24.1719,29.8906 L24.5938,29.8906 L24.1875,28.8594 Z M23.4688,27.1563 L22.1094,23.7813 L20.7344,27.1563 L23.4688,27.1563 Z "/><text fill="#000000" font-family="sans-serif" font-size="14" font-style="italic" lengthAdjust="spacingAndGlyphs" textLength="183" x="36" y="26.5332">AbstractUmalRuntimeModule</text><text fill="#000000" font-family="sans-serif" font-size="10" font-style="italic" lengthAdjust="spacingAndGlyphs" textLength="99" x="78" y="39.9902">org.eclipse.xtext.uma</text><!--MD5=[a7a5d0b5688126a56240032917bbb012]
reverse link org.eclipse.xtext.uma.AbstractUmalRuntimeModule to org.eclipse.xtext.uma.UmalRuntimeModule--><path codeLine="9" d="M114.5,67.69 C114.5,81.13 114.5,95.55 114.5,106.68 " fill="none" id="org.eclipse.xtext.uma.AbstractUmalRuntimeModule-backto-org.eclipse.xtext.uma.UmalRuntimeModule" style="stroke: #A80036; stroke-width: 1.0;"/><polygon fill="none" points="107.5,67.36,114.5,47.36,121.5,67.36,107.5,67.36" style="stroke: #A80036; stroke-width: 1.0;"/><text fill="#888888" font-family="sans-serif" font-size="10" lengthAdjust="spacingAndGlyphs" textLength="190" x="16.5" y="170.5684">UMLDoclet 2.0.12, PlantUML 1.2020.16</text><!--MD5=[d0a247d9ad3b139bc69bf5cb75ba1b91]
@startuml
    set namespaceSeparator none
    hide empty fields
    hide empty methods

    class "<size:14>UmalRuntimeModule\n<size:10>org.eclipse.xtext.uma" as org.eclipse.xtext.uma.UmalRuntimeModule [[UmalRuntimeModule.html]]

    abstract class "<size:14>AbstractUmalRuntimeModule\n<size:10>org.eclipse.xtext.uma" as org.eclipse.xtext.uma.AbstractUmalRuntimeModule

    org.eclipse.xtext.uma.AbstractUmalRuntimeModule <|- - org.eclipse.xtext.uma.UmalRuntimeModule

    center footer UMLDoclet 2.0.12, PlantUML 1.2020.16
@enduml

PlantUML version 1.2020.16(Sun Aug 23 22:20:43 CEST 2020)
(APACHE source distribution)
Java Runtime: Java(TM) SE Runtime Environment
JVM: Java HotSpot(TM) 64-Bit Server VM
Default Encoding: Cp1252
Language: es
Country: ES
--></g></svg>